  0
SECTION
  2
HEADER
  9
$ANGBASE
  50
0.0
  9
$ANGDIR
  70
1
  9
$MEASUREMENT
  70
0
  0
ENDSEC
  0
SECTION
  2
TABLES
  0
TABLE
  2
LTYPE
  70
4
  0
LTYPE
  5
40F
  2
CONTINUOUS
  70
0
  3
Solid line
  72
65
  73
0
  40
0.0
  0
LTYPE
  5
410
  2
DASHDOT
 70
0
  3
Dash Dot ____ _ ____ _
 72
65
 73
4
 40
2.0
 49
1.25
 49
-0.25
 49
0.25
 49
-0.25
  0
LTYPE
  5
411
  2
DASHED
 70
0
  3
Dashed __ __ __ __ __
 72
65
 73
2
 40
0.75
 49
0.5
 49
-0.25
  0
LTYPE
  5
43B
  2
DOTTED
 70
0
  3
Dotted .  .  .  .
 72
65
 73
2
 40
0.2
 49
0.0
 49
-0.2
  0
ENDTAB
  0
TABLE
  2
STYLE
  70
4
  0
STYLE
  2
KICAD
  70
0
  40
0
  41
1
  42
1
  50
0
  71
0
  3
isocp.shx
  0
STYLE
  2
KICADB
  70
0
  40
0
  41
1
  42
1
  50
0
  71
0
  3
isocp.shx
  0
STYLE
  2
KICADI
  70
0
  40
0
  41
1
  42
1
  50
15
  71
0
  3
isocp.shx
  0
STYLE
  2
KICADBI
  70
0
  40
0
  41
1
  42
1
  50
15
  71
0
  3
isocp.shx
  0
ENDTAB
  0
TABLE
  2
LAYER
  70
1
  0
LAYER
  2
BLACK
  70
0
  62
7
  6
CONTINUOUS
  0
ENDTAB
  0
ENDSEC
  0
SECTION
  2
ENTITIES
0
LINE
8
BLACK
6
CONTINUOUS
10
1.14321
20
-2.06646
11
1.15145
21
-2.06988
0
LINE
8
BLACK
6
CONTINUOUS
10
1.15145
20
-2.06988
11
1.15886
21
-2.07483
0
LINE
8
BLACK
6
CONTINUOUS
10
1.15886
20
-2.07483
11
1.16517
21
-2.08114
0
LINE
8
BLACK
6
CONTINUOUS
10
1.16517
20
-2.08114
11
1.17012
21
-2.08855
0
LINE
8
BLACK
6
CONTINUOUS
10
1.17012
20
-2.08855
11
1.17354
21
-2.09679
0
LINE
8
BLACK
6
CONTINUOUS
10
1.17354
20
-2.09679
11
1.17528
21
-2.10554
0
LINE
8
BLACK
6
CONTINUOUS
10
1.17528
20
-2.10554
11
1.17528
21
-2.11446
0
LINE
8
BLACK
6
CONTINUOUS
10
1.17528
20
-2.11446
11
1.17354
21
-2.12321
0
LINE
8
BLACK
6
CONTINUOUS
10
1.17354
20
-2.12321
11
1.17012
21
-2.13145
0
LINE
8
BLACK
6
CONTINUOUS
10
1.17012
20
-2.13145
11
1.16517
21
-2.13886
0
LINE
8
BLACK
6
CONTINUOUS
10
1.16517
20
-2.13886
11
1.15886
21
-2.14517
0
LINE
8
BLACK
6
CONTINUOUS
10
1.15886
20
-2.14517
11
1.15145
21
-2.15012
0
LINE
8
BLACK
6
CONTINUOUS
10
1.15145
20
-2.15012
11
1.14321
21
-2.15354
0
LINE
8
BLACK
6
CONTINUOUS
10
1.14321
20
-2.15354
11
1.13446
21
-2.15528
0
LINE
8
BLACK
6
CONTINUOUS
10
1.13446
20
-2.15528
11
1.12554
21
-2.15528
0
LINE
8
BLACK
6
CONTINUOUS
10
1.12554
20
-2.15528
11
1.11679
21
-2.15354
0
LINE
8
BLACK
6
CONTINUOUS
10
1.11679
20
-2.15354
11
1.10855
21
-2.15012
0
LINE
8
BLACK
6
CONTINUOUS
10
1.10855
20
-2.15012
11
1.10114
21
-2.14517
0
LINE
8
BLACK
6
CONTINUOUS
10
1.10114
20
-2.14517
11
1.09483
21
-2.13886
0
LINE
8
BLACK
6
CONTINUOUS
10
1.09483
20
-2.13886
11
1.08988
21
-2.13145
0
LINE
8
BLACK
6
CONTINUOUS
10
1.08988
20
-2.13145
11
1.08646
21
-2.12321
0
LINE
8
BLACK
6
CONTINUOUS
10
1.08646
20
-2.12321
11
1.08472
21
-2.11446
0
LINE
8
BLACK
6
CONTINUOUS
10
1.08472
20
-2.11446
11
1.08472
21
-2.10554
0
LINE
8
BLACK
6
CONTINUOUS
10
1.08472
20
-2.10554
11
1.08646
21
-2.09679
0
LINE
8
BLACK
6
CONTINUOUS
10
1.08646
20
-2.09679
11
1.08988
21
-2.08855
0
LINE
8
BLACK
6
CONTINUOUS
10
1.08988
20
-2.08855
11
1.09483
21
-2.08114
0
LINE
8
BLACK
6
CONTINUOUS
10
1.09483
20
-2.08114
11
1.10114
21
-2.07483
0
LINE
8
BLACK
6
CONTINUOUS
10
1.10114
20
-2.07483
11
1.10855
21
-2.06988
0
LINE
8
BLACK
6
CONTINUOUS
10
1.10855
20
-2.06988
11
1.11679
21
-2.06646
0
LINE
8
BLACK
6
CONTINUOUS
10
1.11679
20
-2.06646
11
1.12554
21
-2.06472
0
LINE
8
BLACK
6
CONTINUOUS
10
1.12554
20
-2.06472
11
1.13446
21
-2.06472
0
LINE
8
BLACK
6
CONTINUOUS
10
1.13446
20
-2.06472
11
1.14321
21
-2.06646
0
LINE
8
BLACK
6
CONTINUOUS
10
0.775276
20
-2.15528
11
0.684724
21
-2.15528
0
LINE
8
BLACK
6
CONTINUOUS
10
0.684724
20
-2.15528
11
0.684724
21
-2.06472
0
LINE
8
BLACK
6
CONTINUOUS
10
0.684724
20
-2.06472
11
0.775276
21
-2.06472
0
LINE
8
BLACK
6
CONTINUOUS
10
0.775276
20
-2.06472
11
0.775276
21
-2.15528
0
LINE
8
BLACK
6
CONTINUOUS
10
-0.112372
20
-1.87596
11
-0.0888956
21
-1.88568
0
LINE
8
BLACK
6
CONTINUOUS
10
-0.0888956
20
-1.88568
11
-0.0677673
21
-1.8998
0
LINE
8
BLACK
6
CONTINUOUS
10
-0.0677673
20
-1.8998
11
-0.0497992
21
-1.91777
0
LINE
8
BLACK
6
CONTINUOUS
10
-0.0497992
20
-1.91777
11
-0.0356817
21
-1.9389
0
LINE
8
BLACK
6
CONTINUOUS
10
-0.0356817
20
-1.9389
11
-0.0259574
21
-1.96237
0
LINE
8
BLACK
6
CONTINUOUS
10
-0.0259574
20
-1.96237
11
-0.021
21
-1.98729
0
LINE
8
BLACK
6
CONTINUOUS
10
-0.021
20
-1.98729
11
-0.021
21
-2.01271
0
LINE
8
BLACK
6
CONTINUOUS
10
-0.021
20
-2.01271
11
-0.0259574
21
-2.03763
0
LINE
8
BLACK
6
CONTINUOUS
10
-0.0259574
20
-2.03763
11
-0.0356817
21
-2.0611
0
LINE
8
BLACK
6
CONTINUOUS
10
-0.0356817
20
-2.0611
11
-0.0497992
21
-2.08223
0
LINE
8
BLACK
6
CONTINUOUS
10
-0.0497992
20
-2.08223
11
-0.0677673
21
-2.1002
0
LINE
8
BLACK
6
CONTINUOUS
10
-0.0677673
20
-2.1002
11
-0.0888956
21
-2.11432
0
LINE
8
BLACK
6
CONTINUOUS
10
-0.0888956
20
-2.11432
11
-0.112372
21
-2.12404
0
LINE
8
BLACK
6
CONTINUOUS
10
-0.112372
20
-2.12404
11
-0.137295
21
-2.129
0
LINE
8
BLACK
6
CONTINUOUS
10
-0.137295
20
-2.129
11
-0.162705
21
-2.129
0
LINE
8
BLACK
6
CONTINUOUS
10
-0.162705
20
-2.129
11
-0.187628
21
-2.12404
0
LINE
8
BLACK
6
CONTINUOUS
10
-0.187628
20
-2.12404
11
-0.211104
21
-2.11432
0
LINE
8
BLACK
6
CONTINUOUS
10
-0.211104
20
-2.11432
11
-0.232233
21
-2.1002
0
LINE
8
BLACK
6
CONTINUOUS
10
-0.232233
20
-2.1002
11
-0.250201
21
-2.08223
0
LINE
8
BLACK
6
CONTINUOUS
10
-0.250201
20
-2.08223
11
-0.264318
21
-2.0611
0
LINE
8
BLACK
6
CONTINUOUS
10
-0.264318
20
-2.0611
11
-0.274043
21
-2.03763
0
LINE
8
BLACK
6
CONTINUOUS
10
-0.274043
20
-2.03763
11
-0.279
21
-2.01271
0
LINE
8
BLACK
6
CONTINUOUS
10
-0.279
20
-2.01271
11
-0.279
21
-1.98729
0
LINE
8
BLACK
6
CONTINUOUS
10
-0.279
20
-1.98729
11
-0.274043
21
-1.96237
0
LINE
8
BLACK
6
CONTINUOUS
10
-0.274043
20
-1.96237
11
-0.264318
21
-1.9389
0
LINE
8
BLACK
6
CONTINUOUS
10
-0.264318
20
-1.9389
11
-0.250201
21
-1.91777
0
LINE
8
BLACK
6
CONTINUOUS
10
-0.250201
20
-1.91777
11
-0.232233
21
-1.8998
0
LINE
8
BLACK
6
CONTINUOUS
10
-0.232233
20
-1.8998
11
-0.211104
21
-1.88568
0
LINE
8
BLACK
6
CONTINUOUS
10
-0.211104
20
-1.88568
11
-0.187628
21
-1.87596
0
LINE
8
BLACK
6
CONTINUOUS
10
-0.187628
20
-1.87596
11
-0.162705
21
-1.871
0
LINE
8
BLACK
6
CONTINUOUS
10
-0.162705
20
-1.871
11
-0.137295
21
-1.871
0
LINE
8
BLACK
6
CONTINUOUS
10
-0.137295
20
-1.871
11
-0.112372
21
-1.87596
0
LINE
8
BLACK
6
CONTINUOUS
10
2.53763
20
-1.87596
11
2.5611
21
-1.88568
0
LINE
8
BLACK
6
CONTINUOUS
10
2.5611
20
-1.88568
11
2.58223
21
-1.8998
0
LINE
8
BLACK
6
CONTINUOUS
10
2.58223
20
-1.8998
11
2.6002
21
-1.91777
0
LINE
8
BLACK
6
CONTINUOUS
10
2.6002
20
-1.91777
11
2.61432
21
-1.9389
0
LINE
8
BLACK
6
CONTINUOUS
10
2.61432
20
-1.9389
11
2.62404
21
-1.96237
0
LINE
8
BLACK
6
CONTINUOUS
10
2.62404
20
-1.96237
11
2.629
21
-1.98729
0
LINE
8
BLACK
6
CONTINUOUS
10
2.629
20
-1.98729
11
2.629
21
-2.01271
0
LINE
8
BLACK
6
CONTINUOUS
10
2.629
20
-2.01271
11
2.62404
21
-2.03763
0
LINE
8
BLACK
6
CONTINUOUS
10
2.62404
20
-2.03763
11
2.61432
21
-2.0611
0
LINE
8
BLACK
6
CONTINUOUS
10
2.61432
20
-2.0611
11
2.6002
21
-2.08223
0
LINE
8
BLACK
6
CONTINUOUS
10
2.6002
20
-2.08223
11
2.58223
21
-2.1002
0
LINE
8
BLACK
6
CONTINUOUS
10
2.58223
20
-2.1002
11
2.5611
21
-2.11432
0
LINE
8
BLACK
6
CONTINUOUS
10
2.5611
20
-2.11432
11
2.53763
21
-2.12404
0
LINE
8
BLACK
6
CONTINUOUS
10
2.53763
20
-2.12404
11
2.51271
21
-2.129
0
LINE
8
BLACK
6
CONTINUOUS
10
2.51271
20
-2.129
11
2.48729
21
-2.129
0
LINE
8
BLACK
6
CONTINUOUS
10
2.48729
20
-2.129
11
2.46237
21
-2.12404
0
LINE
8
BLACK
6
CONTINUOUS
10
2.46237
20
-2.12404
11
2.4389
21
-2.11432
0
LINE
8
BLACK
6
CONTINUOUS
10
2.4389
20
-2.11432
11
2.41777
21
-2.1002
0
LINE
8
BLACK
6
CONTINUOUS
10
2.41777
20
-2.1002
11
2.3998
21
-2.08223
0
LINE
8
BLACK
6
CONTINUOUS
10
2.3998
20
-2.08223
11
2.38568
21
-2.0611
0
LINE
8
BLACK
6
CONTINUOUS
10
2.38568
20
-2.0611
11
2.37596
21
-2.03763
0
LINE
8
BLACK
6
CONTINUOUS
10
2.37596
20
-2.03763
11
2.371
21
-2.01271
0
LINE
8
BLACK
6
CONTINUOUS
10
2.371
20
-2.01271
11
2.371
21
-1.98729
0
LINE
8
BLACK
6
CONTINUOUS
10
2.371
20
-1.98729
11
2.37596
21
-1.96237
0
LINE
8
BLACK
6
CONTINUOUS
10
2.37596
20
-1.96237
11
2.38568
21
-1.9389
0
LINE
8
BLACK
6
CONTINUOUS
10
2.38568
20
-1.9389
11
2.3998
21
-1.91777
0
LINE
8
BLACK
6
CONTINUOUS
10
2.3998
20
-1.91777
11
2.41777
21
-1.8998
0
LINE
8
BLACK
6
CONTINUOUS
10
2.41777
20
-1.8998
11
2.4389
21
-1.88568
0
LINE
8
BLACK
6
CONTINUOUS
10
2.4389
20
-1.88568
11
2.46237
21
-1.87596
0
LINE
8
BLACK
6
CONTINUOUS
10
2.46237
20
-1.87596
11
2.48729
21
-1.871
0
LINE
8
BLACK
6
CONTINUOUS
10
2.48729
20
-1.871
11
2.51271
21
-1.871
0
LINE
8
BLACK
6
CONTINUOUS
10
2.51271
20
-1.871
11
2.53763
21
-1.87596
0
LINE
8
BLACK
6
CONTINUOUS
10
0.602645
20
-1.87068
11
0.60463
21
-1.87128
0
LINE
8
BLACK
6
CONTINUOUS
10
0.60463
20
-1.87128
11
0.606459
21
-1.87226
0
LINE
8
BLACK
6
CONTINUOUS
10
0.606459
20
-1.87226
11
0.608062
21
-1.87357
0
LINE
8
BLACK
6
CONTINUOUS
10
0.608062
20
-1.87357
11
0.609378
21
-1.87517
0
LINE
8
BLACK
6
CONTINUOUS
10
0.609378
20
-1.87517
11
0.610356
21
-1.877
0
LINE
8
BLACK
6
CONTINUOUS
10
0.610356
20
-1.877
11
0.610958
21
-1.87899
0
LINE
8
BLACK
6
CONTINUOUS
10
0.610958
20
-1.87899
11
0.611161
21
-1.88105
0
LINE
8
BLACK
6
CONTINUOUS
10
0.611161
20
-1.88105
11
0.611161
21
-1.91895
0
LINE
8
BLACK
6
CONTINUOUS
10
0.611161
20
-1.91895
11
0.610958
21
-1.92101
0
LINE
8
BLACK
6
CONTINUOUS
10
0.610958
20
-1.92101
11
0.610356
21
-1.923
0
LINE
8
BLACK
6
CONTINUOUS
10
0.610356
20
-1.923
11
0.609378
21
-1.92483
0
LINE
8
BLACK
6
CONTINUOUS
10
0.609378
20
-1.92483
11
0.608062
21
-1.92643
0
LINE
8
BLACK
6
CONTINUOUS
10
0.608062
20
-1.92643
11
0.606459
21
-1.92774
0
LINE
8
BLACK
6
CONTINUOUS
10
0.606459
20
-1.92774
11
0.60463
21
-1.92872
0
LINE
8
BLACK
6
CONTINUOUS
10
0.60463
20
-1.92872
11
0.602645
21
-1.92932
0
LINE
8
BLACK
6
CONTINUOUS
10
0.602645
20
-1.92932
11
0.600581
21
-1.92953
0
LINE
8
BLACK
6
CONTINUOUS
10
0.600581
20
-1.92953
11
0.579419
21
-1.92953
0
LINE
8
BLACK
6
CONTINUOUS
10
0.579419
20
-1.92953
11
0.577355
21
-1.92932
0
LINE
8
BLACK
6
CONTINUOUS
10
0.577355
20
-1.92932
11
0.57537
21
-1.92872
0
LINE
8
BLACK
6
CONTINUOUS
10
0.57537
20
-1.92872
11
0.573541
21
-1.92774
0
LINE
8
BLACK
6
CONTINUOUS
10
0.573541
20
-1.92774
11
0.571938
21
-1.92643
0
LINE
8
BLACK
6
CONTINUOUS
10
0.571938
20
-1.92643
11
0.570622
21
-1.92483
0
LINE
8
BLACK
6
CONTINUOUS
10
0.570622
20
-1.92483
11
0.569644
21
-1.923
0
LINE
8
BLACK
6
CONTINUOUS
10
0.569644
20
-1.923
11
0.569042
21
-1.92101
0
LINE
8
BLACK
6
CONTINUOUS
10
0.569042
20
-1.92101
11
0.568839
21
-1.91895
0
LINE
8
BLACK
6
CONTINUOUS
10
0.568839
20
-1.91895
11
0.568839
21
-1.88105
0
LINE
8
BLACK
6
CONTINUOUS
10
0.568839
20
-1.88105
11
0.569042
21
-1.87899
0
LINE
8
BLACK
6
CONTINUOUS
10
0.569042
20
-1.87899
11
0.569644
21
-1.877
0
LINE
8
BLACK
6
CONTINUOUS
10
0.569644
20
-1.877
11
0.570622
21
-1.87517
0
LINE
8
BLACK
6
CONTINUOUS
10
0.570622
20
-1.87517
11
0.571938
21
-1.87357
0
LINE
8
BLACK
6
CONTINUOUS
10
0.571938
20
-1.87357
11
0.573541
21
-1.87226
0
LINE
8
BLACK
6
CONTINUOUS
10
0.573541
20
-1.87226
11
0.57537
21
-1.87128
0
LINE
8
BLACK
6
CONTINUOUS
10
0.57537
20
-1.87128
11
0.577355
21
-1.87068
0
LINE
8
BLACK
6
CONTINUOUS
10
0.577355
20
-1.87068
11
0.579419
21
-1.87047
0
LINE
8
BLACK
6
CONTINUOUS
10
0.579419
20
-1.87047
11
0.600581
21
-1.87047
0
LINE
8
BLACK
6
CONTINUOUS
10
0.600581
20
-1.87047
11
0.602645
21
-1.87068
0
LINE
8
BLACK
6
CONTINUOUS
10
0.676464
20
-1.87068
11
0.678449
21
-1.87128
0
LINE
8
BLACK
6
CONTINUOUS
10
0.678449
20
-1.87128
11
0.680278
21
-1.87226
0
LINE
8
BLACK
6
CONTINUOUS
10
0.680278
20
-1.87226
11
0.681881
21
-1.87357
0
LINE
8
BLACK
6
CONTINUOUS
10
0.681881
20
-1.87357
11
0.683197
21
-1.87517
0
LINE
8
BLACK
6
CONTINUOUS
10
0.683197
20
-1.87517
11
0.684175
21
-1.877
0
LINE
8
BLACK
6
CONTINUOUS
10
0.684175
20
-1.877
11
0.684777
21
-1.87899
0
LINE
8
BLACK
6
CONTINUOUS
10
0.684777
20
-1.87899
11
0.68498
21
-1.88105
0
LINE
8
BLACK
6
CONTINUOUS
10
0.68498
20
-1.88105
11
0.68498
21
-1.91895
0
LINE
8
BLACK
6
CONTINUOUS
10
0.68498
20
-1.91895
11
0.684777
21
-1.92101
0
LINE
8
BLACK
6
CONTINUOUS
10
0.684777
20
-1.92101
11
0.684175
21
-1.923
0
LINE
8
BLACK
6
CONTINUOUS
10
0.684175
20
-1.923
11
0.683197
21
-1.92483
0
LINE
8
BLACK
6
CONTINUOUS
10
0.683197
20
-1.92483
11
0.681881
21
-1.92643
0
LINE
8
BLACK
6
CONTINUOUS
10
0.681881
20
-1.92643
11
0.680278
21
-1.92774
0
LINE
8
BLACK
6
CONTINUOUS
10
0.680278
20
-1.92774
11
0.678449
21
-1.92872
0
LINE
8
BLACK
6
CONTINUOUS
10
0.678449
20
-1.92872
11
0.676464
21
-1.92932
0
LINE
8
BLACK
6
CONTINUOUS
10
0.676464
20
-1.92932
11
0.6744
21
-1.92953
0
LINE
8
BLACK
6
CONTINUOUS
10
0.6744
20
-1.92953
11
0.653238
21
-1.92953
0
LINE
8
BLACK
6
CONTINUOUS
10
0.653238
20
-1.92953
11
0.651174
21
-1.92932
0
LINE
8
BLACK
6
CONTINUOUS
10
0.651174
20
-1.92932
11
0.649189
21
-1.92872
0
LINE
8
BLACK
6
CONTINUOUS
10
0.649189
20
-1.92872
11
0.64736
21
-1.92774
0
LINE
8
BLACK
6
CONTINUOUS
10
0.64736
20
-1.92774
11
0.645756
21
-1.92643
0
LINE
8
BLACK
6
CONTINUOUS
10
0.645756
20
-1.92643
11
0.644441
21
-1.92483
0
LINE
8
BLACK
6
CONTINUOUS
10
0.644441
20
-1.92483
11
0.643463
21
-1.923
0
LINE
8
BLACK
6
CONTINUOUS
10
0.643463
20
-1.923
11
0.642861
21
-1.92101
0
LINE
8
BLACK
6
CONTINUOUS
10
0.642861
20
-1.92101
11
0.642657
21
-1.91895
0
LINE
8
BLACK
6
CONTINUOUS
10
0.642657
20
-1.91895
11
0.642657
21
-1.88105
0
LINE
8
BLACK
6
CONTINUOUS
10
0.642657
20
-1.88105
11
0.642861
21
-1.87899
0
LINE
8
BLACK
6
CONTINUOUS
10
0.642861
20
-1.87899
11
0.643463
21
-1.877
0
LINE
8
BLACK
6
CONTINUOUS
10
0.643463
20
-1.877
11
0.644441
21
-1.87517
0
LINE
8
BLACK
6
CONTINUOUS
10
0.644441
20
-1.87517
11
0.645756
21
-1.87357
0
LINE
8
BLACK
6
CONTINUOUS
10
0.645756
20
-1.87357
11
0.64736
21
-1.87226
0
LINE
8
BLACK
6
CONTINUOUS
10
0.64736
20
-1.87226
11
0.649189
21
-1.87128
0
LINE
8
BLACK
6
CONTINUOUS
10
0.649189
20
-1.87128
11
0.651174
21
-1.87068
0
LINE
8
BLACK
6
CONTINUOUS
10
0.651174
20
-1.87068
11
0.653238
21
-1.87047
0
LINE
8
BLACK
6
CONTINUOUS
10
0.653238
20
-1.87047
11
0.6744
21
-1.87047
0
LINE
8
BLACK
6
CONTINUOUS
10
0.6744
20
-1.87047
11
0.676464
21
-1.87068
0
LINE
8
BLACK
6
CONTINUOUS
10
0.497717
20
-1.91906
11
0.462283
21
-1.91906
0
LINE
8
BLACK
6
CONTINUOUS
10
0.462283
20
-1.91906
11
0.462283
21
-1.87969
0
LINE
8
BLACK
6
CONTINUOUS
10
0.462283
20
-1.87969
11
0.497717
21
-1.87969
0
LINE
8
BLACK
6
CONTINUOUS
10
0.497717
20
-1.87969
11
0.497717
21
-1.91906
0
LINE
8
BLACK
6
CONTINUOUS
10
0.460315
20
-1.84031
11
0.424882
21
-1.84031
0
LINE
8
BLACK
6
CONTINUOUS
10
0.424882
20
-1.84031
11
0.424882
21
-1.80094
0
LINE
8
BLACK
6
CONTINUOUS
10
0.424882
20
-1.80094
11
0.460315
21
-1.80094
0
LINE
8
BLACK
6
CONTINUOUS
10
0.460315
20
-1.80094
11
0.460315
21
-1.84031
0
LINE
8
BLACK
6
CONTINUOUS
10
0.535118
20
-1.84031
11
0.499685
21
-1.84031
0
LINE
8
BLACK
6
CONTINUOUS
10
0.499685
20
-1.84031
11
0.499685
21
-1.80094
0
LINE
8
BLACK
6
CONTINUOUS
10
0.499685
20
-1.80094
11
0.535118
21
-1.80094
0
LINE
8
BLACK
6
CONTINUOUS
10
0.535118
20
-1.80094
11
0.535118
21
-1.84031
0
LINE
8
BLACK
6
CONTINUOUS
10
0.832675
20
-1.73042
11
0.838765
21
-1.73294
0
LINE
8
BLACK
6
CONTINUOUS
10
0.838765
20
-1.73294
11
0.844246
21
-1.7366
0
LINE
8
BLACK
6
CONTINUOUS
10
0.844246
20
-1.7366
11
0.848907
21
-1.74127
0
LINE
8
BLACK
6
CONTINUOUS
10
0.848907
20
-1.74127
11
0.852569
21
-1.74675
0
LINE
8
BLACK
6
CONTINUOUS
10
0.852569
20
-1.74675
11
0.855092
21
-1.75284
0
LINE
8
BLACK
6
CONTINUOUS
10
0.855092
20
-1.75284
11
0.856378
21
-1.7593
0
LINE
8
BLACK
6
CONTINUOUS
10
0.856378
20
-1.7593
11
0.856378
21
-1.76589
0
LINE
8
BLACK
6
CONTINUOUS
10
0.856378
20
-1.76589
11
0.855092
21
-1.77236
0
LINE
8
BLACK
6
CONTINUOUS
10
0.855092
20
-1.77236
11
0.852569
21
-1.77845
0
LINE
8
BLACK
6
CONTINUOUS
10
0.852569
20
-1.77845
11
0.848907
21
-1.78393
0
LINE
8
BLACK
6
CONTINUOUS
10
0.848907
20
-1.78393
11
0.844246
21
-1.78859
0
LINE
8
BLACK
6
CONTINUOUS
10
0.844246
20
-1.78859
11
0.838765
21
-1.79225
0
LINE
8
BLACK
6
CONTINUOUS
10
0.838765
20
-1.79225
11
0.832675
21
-1.79478
0
LINE
8
BLACK
6
CONTINUOUS
10
0.832675
20
-1.79478
11
0.826209
21
-1.79606
0
LINE
8
BLACK
6
CONTINUOUS
10
0.826209
20
-1.79606
11
0.819617
21
-1.79606
0
LINE
8
BLACK
6
CONTINUOUS
10
0.819617
20
-1.79606
11
0.813152
21
-1.79478
0
LINE
8
BLACK
6
CONTINUOUS
10
0.813152
20
-1.79478
11
0.807062
21
-1.79225
0
LINE
8
BLACK
6
CONTINUOUS
10
0.807062
20
-1.79225
11
0.801581
21
-1.78859
0
LINE
8
BLACK
6
CONTINUOUS
10
0.801581
20
-1.78859
11
0.79692
21
-1.78393
0
LINE
8
BLACK
6
CONTINUOUS
10
0.79692
20
-1.78393
11
0.793257
21
-1.77845
0
LINE
8
BLACK
6
CONTINUOUS
10
0.793257
20
-1.77845
11
0.790735
21
-1.77236
0
LINE
8
BLACK
6
CONTINUOUS
10
0.790735
20
-1.77236
11
0.789449
21
-1.76589
0
LINE
8
BLACK
6
CONTINUOUS
10
0.789449
20
-1.76589
11
0.789449
21
-1.7593
0
LINE
8
BLACK
6
CONTINUOUS
10
0.789449
20
-1.7593
11
0.790735
21
-1.75284
0
LINE
8
BLACK
6
CONTINUOUS
10
0.790735
20
-1.75284
11
0.793257
21
-1.74675
0
LINE
8
BLACK
6
CONTINUOUS
10
0.793257
20
-1.74675
11
0.79692
21
-1.74127
0
LINE
8
BLACK
6
CONTINUOUS
10
0.79692
20
-1.74127
11
0.801581
21
-1.7366
0
LINE
8
BLACK
6
CONTINUOUS
10
0.801581
20
-1.7366
11
0.807062
21
-1.73294
0
LINE
8
BLACK
6
CONTINUOUS
10
0.807062
20
-1.73294
11
0.813152
21
-1.73042
0
LINE
8
BLACK
6
CONTINUOUS
10
0.813152
20
-1.73042
11
0.819617
21
-1.72913
0
LINE
8
BLACK
6
CONTINUOUS
10
0.819617
20
-1.72913
11
0.826209
21
-1.72913
0
LINE
8
BLACK
6
CONTINUOUS
10
0.826209
20
-1.72913
11
0.832675
21
-1.73042
0
LINE
8
BLACK
6
CONTINUOUS
10
1.41048
20
-1.71546
11
1.41702
21
-1.71816
0
LINE
8
BLACK
6
CONTINUOUS
10
1.41702
20
-1.71816
11
1.4229
21
-1.7221
0
LINE
8
BLACK
6
CONTINUOUS
10
1.4229
20
-1.7221
11
1.4279
21
-1.7271
0
LINE
8
BLACK
6
CONTINUOUS
10
1.4279
20
-1.7271
11
1.43184
21
-1.73298
0
LINE
8
BLACK
6
CONTINUOUS
10
1.43184
20
-1.73298
11
1.43454
21
-1.73952
0
LINE
8
BLACK
6
CONTINUOUS
10
1.43454
20
-1.73952
11
1.43593
21
-1.74646
0
LINE
8
BLACK
6
CONTINUOUS
10
1.43593
20
-1.74646
11
1.43593
21
-1.75354
0
LINE
8
BLACK
6
CONTINUOUS
10
1.43593
20
-1.75354
11
1.43454
21
-1.76048
0
LINE
8
BLACK
6
CONTINUOUS
10
1.43454
20
-1.76048
11
1.43184
21
-1.76702
0
LINE
8
BLACK
6
CONTINUOUS
10
1.43184
20
-1.76702
11
1.4279
21
-1.7729
0
LINE
8
BLACK
6
CONTINUOUS
10
1.4279
20
-1.7729
11
1.4229
21
-1.7779
0
LINE
8
BLACK
6
CONTINUOUS
10
1.4229
20
-1.7779
11
1.41702
21
-1.78184
0
LINE
8
BLACK
6
CONTINUOUS
10
1.41702
20
-1.78184
11
1.41048
21
-1.78454
0
LINE
8
BLACK
6
CONTINUOUS
10
1.41048
20
-1.78454
11
1.40354
21
-1.78593
0
LINE
8
BLACK
6
CONTINUOUS
10
1.40354
20
-1.78593
11
1.39646
21
-1.78593
0
LINE
8
BLACK
6
CONTINUOUS
10
1.39646
20
-1.78593
11
1.38952
21
-1.78454
0
LINE
8
BLACK
6
CONTINUOUS
10
1.38952
20
-1.78454
11
1.38298
21
-1.78184
0
LINE
8
BLACK
6
CONTINUOUS
10
1.38298
20
-1.78184
11
1.3771
21
-1.7779
0
LINE
8
BLACK
6
CONTINUOUS
10
1.3771
20
-1.7779
11
1.3721
21
-1.7729
0
LINE
8
BLACK
6
CONTINUOUS
10
1.3721
20
-1.7729
11
1.36816
21
-1.76702
0
LINE
8
BLACK
6
CONTINUOUS
10
1.36816
20
-1.76702
11
1.36546
21
-1.76048
0
LINE
8
BLACK
6
CONTINUOUS
10
1.36546
20
-1.76048
11
1.36407
21
-1.75354
0
LINE
8
BLACK
6
CONTINUOUS
10
1.36407
20
-1.75354
11
1.36407
21
-1.74646
0
LINE
8
BLACK
6
CONTINUOUS
10
1.36407
20
-1.74646
11
1.36546
21
-1.73952
0
LINE
8
BLACK
6
CONTINUOUS
10
1.36546
20
-1.73952
11
1.36816
21
-1.73298
0
LINE
8
BLACK
6
CONTINUOUS
10
1.36816
20
-1.73298
11
1.3721
21
-1.7271
0
LINE
8
BLACK
6
CONTINUOUS
10
1.3721
20
-1.7271
11
1.3771
21
-1.7221
0
LINE
8
BLACK
6
CONTINUOUS
10
1.3771
20
-1.7221
11
1.38298
21
-1.71816
0
LINE
8
BLACK
6
CONTINUOUS
10
1.38298
20
-1.71816
11
1.38952
21
-1.71546
0
LINE
8
BLACK
6
CONTINUOUS
10
1.38952
20
-1.71546
11
1.39646
21
-1.71407
0
LINE
8
BLACK
6
CONTINUOUS
10
1.39646
20
-1.71407
11
1.40354
21
-1.71407
0
LINE
8
BLACK
6
CONTINUOUS
10
1.40354
20
-1.71407
11
1.41048
21
-1.71546
0
LINE
8
BLACK
6
CONTINUOUS
10
1.51048
20
-1.71546
11
1.51702
21
-1.71816
0
LINE
8
BLACK
6
CONTINUOUS
10
1.51702
20
-1.71816
11
1.5229
21
-1.7221
0
LINE
8
BLACK
6
CONTINUOUS
10
1.5229
20
-1.7221
11
1.5279
21
-1.7271
0
LINE
8
BLACK
6
CONTINUOUS
10
1.5279
20
-1.7271
11
1.53184
21
-1.73298
0
LINE
8
BLACK
6
CONTINUOUS
10
1.53184
20
-1.73298
11
1.53454
21
-1.73952
0
LINE
8
BLACK
6
CONTINUOUS
10
1.53454
20
-1.73952
11
1.53593
21
-1.74646
0
LINE
8
BLACK
6
CONTINUOUS
10
1.53593
20
-1.74646
11
1.53593
21
-1.75354
0
LINE
8
BLACK
6
CONTINUOUS
10
1.53593
20
-1.75354
11
1.53454
21
-1.76048
0
LINE
8
BLACK
6
CONTINUOUS
10
1.53454
20
-1.76048
11
1.53184
21
-1.76702
0
LINE
8
BLACK
6
CONTINUOUS
10
1.53184
20
-1.76702
11
1.5279
21
-1.7729
0
LINE
8
BLACK
6
CONTINUOUS
10
1.5279
20
-1.7729
11
1.5229
21
-1.7779
0
LINE
8
BLACK
6
CONTINUOUS
10
1.5229
20
-1.7779
11
1.51702
21
-1.78184
0
LINE
8
BLACK
6
CONTINUOUS
10
1.51702
20
-1.78184
11
1.51048
21
-1.78454
0
LINE
8
BLACK
6
CONTINUOUS
10
1.51048
20
-1.78454
11
1.50354
21
-1.78593
0
LINE
8
BLACK
6
CONTINUOUS
10
1.50354
20
-1.78593
11
1.49646
21
-1.78593
0
LINE
8
BLACK
6
CONTINUOUS
10
1.49646
20
-1.78593
11
1.48952
21
-1.78454
0
LINE
8
BLACK
6
CONTINUOUS
10
1.48952
20
-1.78454
11
1.48298
21
-1.78184
0
LINE
8
BLACK
6
CONTINUOUS
10
1.48298
20
-1.78184
11
1.4771
21
-1.7779
0
LINE
8
BLACK
6
CONTINUOUS
10
1.4771
20
-1.7779
11
1.4721
21
-1.7729
0
LINE
8
BLACK
6
CONTINUOUS
10
1.4721
20
-1.7729
11
1.46816
21
-1.76702
0
LINE
8
BLACK
6
CONTINUOUS
10
1.46816
20
-1.76702
11
1.46546
21
-1.76048
0
LINE
8
BLACK
6
CONTINUOUS
10
1.46546
20
-1.76048
11
1.46407
21
-1.75354
0
LINE
8
BLACK
6
CONTINUOUS
10
1.46407
20
-1.75354
11
1.46407
21
-1.74646
0
LINE
8
BLACK
6
CONTINUOUS
10
1.46407
20
-1.74646
11
1.46546
21
-1.73952
0
LINE
8
BLACK
6
CONTINUOUS
10
1.46546
20
-1.73952
11
1.46816
21
-1.73298
0
LINE
8
BLACK
6
CONTINUOUS
10
1.46816
20
-1.73298
11
1.4721
21
-1.7271
0
LINE
8
BLACK
6
CONTINUOUS
10
1.4721
20
-1.7271
11
1.4771
21
-1.7221
0
LINE
8
BLACK
6
CONTINUOUS
10
1.4771
20
-1.7221
11
1.48298
21
-1.71816
0
LINE
8
BLACK
6
CONTINUOUS
10
1.48298
20
-1.71816
11
1.48952
21
-1.71546
0
LINE
8
BLACK
6
CONTINUOUS
10
1.48952
20
-1.71546
11
1.49646
21
-1.71407
0
LINE
8
BLACK
6
CONTINUOUS
10
1.49646
20
-1.71407
11
1.50354
21
-1.71407
0
LINE
8
BLACK
6
CONTINUOUS
10
1.50354
20
-1.71407
11
1.51048
21
-1.71546
0
LINE
8
BLACK
6
CONTINUOUS
10
1.61048
20
-1.71546
11
1.61702
21
-1.71816
0
LINE
8
BLACK
6
CONTINUOUS
10
1.61702
20
-1.71816
11
1.6229
21
-1.7221
0
LINE
8
BLACK
6
CONTINUOUS
10
1.6229
20
-1.7221
11
1.6279
21
-1.7271
0
LINE
8
BLACK
6
CONTINUOUS
10
1.6279
20
-1.7271
11
1.63184
21
-1.73298
0
LINE
8
BLACK
6
CONTINUOUS
10
1.63184
20
-1.73298
11
1.63454
21
-1.73952
0
LINE
8
BLACK
6
CONTINUOUS
10
1.63454
20
-1.73952
11
1.63593
21
-1.74646
0
LINE
8
BLACK
6
CONTINUOUS
10
1.63593
20
-1.74646
11
1.63593
21
-1.75354
0
LINE
8
BLACK
6
CONTINUOUS
10
1.63593
20
-1.75354
11
1.63454
21
-1.76048
0
LINE
8
BLACK
6
CONTINUOUS
10
1.63454
20
-1.76048
11
1.63184
21
-1.76702
0
LINE
8
BLACK
6
CONTINUOUS
10
1.63184
20
-1.76702
11
1.6279
21
-1.7729
0
LINE
8
BLACK
6
CONTINUOUS
10
1.6279
20
-1.7729
11
1.6229
21
-1.7779
0
LINE
8
BLACK
6
CONTINUOUS
10
1.6229
20
-1.7779
11
1.61702
21
-1.78184
0
LINE
8
BLACK
6
CONTINUOUS
10
1.61702
20
-1.78184
11
1.61048
21
-1.78454
0
LINE
8
BLACK
6
CONTINUOUS
10
1.61048
20
-1.78454
11
1.60354
21
-1.78593
0
LINE
8
BLACK
6
CONTINUOUS
10
1.60354
20
-1.78593
11
1.59646
21
-1.78593
0
LINE
8
BLACK
6
CONTINUOUS
10
1.59646
20
-1.78593
11
1.58952
21
-1.78454
0
LINE
8
BLACK
6
CONTINUOUS
10
1.58952
20
-1.78454
11
1.58298
21
-1.78184
0
LINE
8
BLACK
6
CONTINUOUS
10
1.58298
20
-1.78184
11
1.5771
21
-1.7779
0
LINE
8
BLACK
6
CONTINUOUS
10
1.5771
20
-1.7779
11
1.5721
21
-1.7729
0
LINE
8
BLACK
6
CONTINUOUS
10
1.5721
20
-1.7729
11
1.56816
21
-1.76702
0
LINE
8
BLACK
6
CONTINUOUS
10
1.56816
20
-1.76702
11
1.56546
21
-1.76048
0
LINE
8
BLACK
6
CONTINUOUS
10
1.56546
20
-1.76048
11
1.56407
21
-1.75354
0
LINE
8
BLACK
6
CONTINUOUS
10
1.56407
20
-1.75354
11
1.56407
21
-1.74646
0
LINE
8
BLACK
6
CONTINUOUS
10
1.56407
20
-1.74646
11
1.56546
21
-1.73952
0
LINE
8
BLACK
6
CONTINUOUS
10
1.56546
20
-1.73952
11
1.56816
21
-1.73298
0
LINE
8
BLACK
6
CONTINUOUS
10
1.56816
20
-1.73298
11
1.5721
21
-1.7271
0
LINE
8
BLACK
6
CONTINUOUS
10
1.5721
20
-1.7271
11
1.5771
21
-1.7221
0
LINE
8
BLACK
6
CONTINUOUS
10
1.5771
20
-1.7221
11
1.58298
21
-1.71816
0
LINE
8
BLACK
6
CONTINUOUS
10
1.58298
20
-1.71816
11
1.58952
21
-1.71546
0
LINE
8
BLACK
6
CONTINUOUS
10
1.58952
20
-1.71546
11
1.59646
21
-1.71407
0
LINE
8
BLACK
6
CONTINUOUS
10
1.59646
20
-1.71407
11
1.60354
21
-1.71407
0
LINE
8
BLACK
6
CONTINUOUS
10
1.60354
20
-1.71407
11
1.61048
21
-1.71546
0
LINE
8
BLACK
6
CONTINUOUS
10
1.71048
20
-1.71546
11
1.71702
21
-1.71816
0
LINE
8
BLACK
6
CONTINUOUS
10
1.71702
20
-1.71816
11
1.7229
21
-1.7221
0
LINE
8
BLACK
6
CONTINUOUS
10
1.7229
20
-1.7221
11
1.7279
21
-1.7271
0
LINE
8
BLACK
6
CONTINUOUS
10
1.7279
20
-1.7271
11
1.73184
21
-1.73298
0
LINE
8
BLACK
6
CONTINUOUS
10
1.73184
20
-1.73298
11
1.73454
21
-1.73952
0
LINE
8
BLACK
6
CONTINUOUS
10
1.73454
20
-1.73952
11
1.73593
21
-1.74646
0
LINE
8
BLACK
6
CONTINUOUS
10
1.73593
20
-1.74646
11
1.73593
21
-1.75354
0
LINE
8
BLACK
6
CONTINUOUS
10
1.73593
20
-1.75354
11
1.73454
21
-1.76048
0
LINE
8
BLACK
6
CONTINUOUS
10
1.73454
20
-1.76048
11
1.73184
21
-1.76702
0
LINE
8
BLACK
6
CONTINUOUS
10
1.73184
20
-1.76702
11
1.7279
21
-1.7729
0
LINE
8
BLACK
6
CONTINUOUS
10
1.7279
20
-1.7729
11
1.7229
21
-1.7779
0
LINE
8
BLACK
6
CONTINUOUS
10
1.7229
20
-1.7779
11
1.71702
21
-1.78184
0
LINE
8
BLACK
6
CONTINUOUS
10
1.71702
20
-1.78184
11
1.71048
21
-1.78454
0
LINE
8
BLACK
6
CONTINUOUS
10
1.71048
20
-1.78454
11
1.70354
21
-1.78593
0
LINE
8
BLACK
6
CONTINUOUS
10
1.70354
20
-1.78593
11
1.69646
21
-1.78593
0
LINE
8
BLACK
6
CONTINUOUS
10
1.69646
20
-1.78593
11
1.68952
21
-1.78454
0
LINE
8
BLACK
6
CONTINUOUS
10
1.68952
20
-1.78454
11
1.68298
21
-1.78184
0
LINE
8
BLACK
6
CONTINUOUS
10
1.68298
20
-1.78184
11
1.6771
21
-1.7779
0
LINE
8
BLACK
6
CONTINUOUS
10
1.6771
20
-1.7779
11
1.6721
21
-1.7729
0
LINE
8
BLACK
6
CONTINUOUS
10
1.6721
20
-1.7729
11
1.66816
21
-1.76702
0
LINE
8
BLACK
6
CONTINUOUS
10
1.66816
20
-1.76702
11
1.66546
21
-1.76048
0
LINE
8
BLACK
6
CONTINUOUS
10
1.66546
20
-1.76048
11
1.66407
21
-1.75354
0
LINE
8
BLACK
6
CONTINUOUS
10
1.66407
20
-1.75354
11
1.66407
21
-1.74646
0
LINE
8
BLACK
6
CONTINUOUS
10
1.66407
20
-1.74646
11
1.66546
21
-1.73952
0
LINE
8
BLACK
6
CONTINUOUS
10
1.66546
20
-1.73952
11
1.66816
21
-1.73298
0
LINE
8
BLACK
6
CONTINUOUS
10
1.66816
20
-1.73298
11
1.6721
21
-1.7271
0
LINE
8
BLACK
6
CONTINUOUS
10
1.6721
20
-1.7271
11
1.6771
21
-1.7221
0
LINE
8
BLACK
6
CONTINUOUS
10
1.6771
20
-1.7221
11
1.68298
21
-1.71816
0
LINE
8
BLACK
6
CONTINUOUS
10
1.68298
20
-1.71816
11
1.68952
21
-1.71546
0
LINE
8
BLACK
6
CONTINUOUS
10
1.68952
20
-1.71546
11
1.69646
21
-1.71407
0
LINE
8
BLACK
6
CONTINUOUS
10
1.69646
20
-1.71407
11
1.70354
21
-1.71407
0
LINE
8
BLACK
6
CONTINUOUS
10
1.70354
20
-1.71407
11
1.71048
21
-1.71546
0
LINE
8
BLACK
6
CONTINUOUS
10
1.81048
20
-1.71546
11
1.81702
21
-1.71816
0
LINE
8
BLACK
6
CONTINUOUS
10
1.81702
20
-1.71816
11
1.8229
21
-1.7221
0
LINE
8
BLACK
6
CONTINUOUS
10
1.8229
20
-1.7221
11
1.8279
21
-1.7271
0
LINE
8
BLACK
6
CONTINUOUS
10
1.8279
20
-1.7271
11
1.83184
21
-1.73298
0
LINE
8
BLACK
6
CONTINUOUS
10
1.83184
20
-1.73298
11
1.83454
21
-1.73952
0
LINE
8
BLACK
6
CONTINUOUS
10
1.83454
20
-1.73952
11
1.83593
21
-1.74646
0
LINE
8
BLACK
6
CONTINUOUS
10
1.83593
20
-1.74646
11
1.83593
21
-1.75354
0
LINE
8
BLACK
6
CONTINUOUS
10
1.83593
20
-1.75354
11
1.83454
21
-1.76048
0
LINE
8
BLACK
6
CONTINUOUS
10
1.83454
20
-1.76048
11
1.83184
21
-1.76702
0
LINE
8
BLACK
6
CONTINUOUS
10
1.83184
20
-1.76702
11
1.8279
21
-1.7729
0
LINE
8
BLACK
6
CONTINUOUS
10
1.8279
20
-1.7729
11
1.8229
21
-1.7779
0
LINE
8
BLACK
6
CONTINUOUS
10
1.8229
20
-1.7779
11
1.81702
21
-1.78184
0
LINE
8
BLACK
6
CONTINUOUS
10
1.81702
20
-1.78184
11
1.81048
21
-1.78454
0
LINE
8
BLACK
6
CONTINUOUS
10
1.81048
20
-1.78454
11
1.80354
21
-1.78593
0
LINE
8
BLACK
6
CONTINUOUS
10
1.80354
20
-1.78593
11
1.79646
21
-1.78593
0
LINE
8
BLACK
6
CONTINUOUS
10
1.79646
20
-1.78593
11
1.78952
21
-1.78454
0
LINE
8
BLACK
6
CONTINUOUS
10
1.78952
20
-1.78454
11
1.78298
21
-1.78184
0
LINE
8
BLACK
6
CONTINUOUS
10
1.78298
20
-1.78184
11
1.7771
21
-1.7779
0
LINE
8
BLACK
6
CONTINUOUS
10
1.7771
20
-1.7779
11
1.7721
21
-1.7729
0
LINE
8
BLACK
6
CONTINUOUS
10
1.7721
20
-1.7729
11
1.76816
21
-1.76702
0
LINE
8
BLACK
6
CONTINUOUS
10
1.76816
20
-1.76702
11
1.76546
21
-1.76048
0
LINE
8
BLACK
6
CONTINUOUS
10
1.76546
20
-1.76048
11
1.76407
21
-1.75354
0
LINE
8
BLACK
6
CONTINUOUS
10
1.76407
20
-1.75354
11
1.76407
21
-1.74646
0
LINE
8
BLACK
6
CONTINUOUS
10
1.76407
20
-1.74646
11
1.76546
21
-1.73952
0
LINE
8
BLACK
6
CONTINUOUS
10
1.76546
20
-1.73952
11
1.76816
21
-1.73298
0
LINE
8
BLACK
6
CONTINUOUS
10
1.76816
20
-1.73298
11
1.7721
21
-1.7271
0
LINE
8
BLACK
6
CONTINUOUS
10
1.7721
20
-1.7271
11
1.7771
21
-1.7221
0
LINE
8
BLACK
6
CONTINUOUS
10
1.7771
20
-1.7221
11
1.78298
21
-1.71816
0
LINE
8
BLACK
6
CONTINUOUS
10
1.78298
20
-1.71816
11
1.78952
21
-1.71546
0
LINE
8
BLACK
6
CONTINUOUS
10
1.78952
20
-1.71546
11
1.79646
21
-1.71407
0
LINE
8
BLACK
6
CONTINUOUS
10
1.79646
20
-1.71407
11
1.80354
21
-1.71407
0
LINE
8
BLACK
6
CONTINUOUS
10
1.80354
20
-1.71407
11
1.81048
21
-1.71546
0
LINE
8
BLACK
6
CONTINUOUS
10
1.91048
20
-1.71546
11
1.91702
21
-1.71816
0
LINE
8
BLACK
6
CONTINUOUS
10
1.91702
20
-1.71816
11
1.9229
21
-1.7221
0
LINE
8
BLACK
6
CONTINUOUS
10
1.9229
20
-1.7221
11
1.9279
21
-1.7271
0
LINE
8
BLACK
6
CONTINUOUS
10
1.9279
20
-1.7271
11
1.93184
21
-1.73298
0
LINE
8
BLACK
6
CONTINUOUS
10
1.93184
20
-1.73298
11
1.93454
21
-1.73952
0
LINE
8
BLACK
6
CONTINUOUS
10
1.93454
20
-1.73952
11
1.93593
21
-1.74646
0
LINE
8
BLACK
6
CONTINUOUS
10
1.93593
20
-1.74646
11
1.93593
21
-1.75354
0
LINE
8
BLACK
6
CONTINUOUS
10
1.93593
20
-1.75354
11
1.93454
21
-1.76048
0
LINE
8
BLACK
6
CONTINUOUS
10
1.93454
20
-1.76048
11
1.93184
21
-1.76702
0
LINE
8
BLACK
6
CONTINUOUS
10
1.93184
20
-1.76702
11
1.9279
21
-1.7729
0
LINE
8
BLACK
6
CONTINUOUS
10
1.9279
20
-1.7729
11
1.9229
21
-1.7779
0
LINE
8
BLACK
6
CONTINUOUS
10
1.9229
20
-1.7779
11
1.91702
21
-1.78184
0
LINE
8
BLACK
6
CONTINUOUS
10
1.91702
20
-1.78184
11
1.91048
21
-1.78454
0
LINE
8
BLACK
6
CONTINUOUS
10
1.91048
20
-1.78454
11
1.90354
21
-1.78593
0
LINE
8
BLACK
6
CONTINUOUS
10
1.90354
20
-1.78593
11
1.89646
21
-1.78593
0
LINE
8
BLACK
6
CONTINUOUS
10
1.89646
20
-1.78593
11
1.88952
21
-1.78454
0
LINE
8
BLACK
6
CONTINUOUS
10
1.88952
20
-1.78454
11
1.88298
21
-1.78184
0
LINE
8
BLACK
6
CONTINUOUS
10
1.88298
20
-1.78184
11
1.8771
21
-1.7779
0
LINE
8
BLACK
6
CONTINUOUS
10
1.8771
20
-1.7779
11
1.8721
21
-1.7729
0
LINE
8
BLACK
6
CONTINUOUS
10
1.8721
20
-1.7729
11
1.86816
21
-1.76702
0
LINE
8
BLACK
6
CONTINUOUS
10
1.86816
20
-1.76702
11
1.86546
21
-1.76048
0
LINE
8
BLACK
6
CONTINUOUS
10
1.86546
20
-1.76048
11
1.86407
21
-1.75354
0
LINE
8
BLACK
6
CONTINUOUS
10
1.86407
20
-1.75354
11
1.86407
21
-1.74646
0
LINE
8
BLACK
6
CONTINUOUS
10
1.86407
20
-1.74646
11
1.86546
21
-1.73952
0
LINE
8
BLACK
6
CONTINUOUS
10
1.86546
20
-1.73952
11
1.86816
21
-1.73298
0
LINE
8
BLACK
6
CONTINUOUS
10
1.86816
20
-1.73298
11
1.8721
21
-1.7271
0
LINE
8
BLACK
6
CONTINUOUS
10
1.8721
20
-1.7271
11
1.8771
21
-1.7221
0
LINE
8
BLACK
6
CONTINUOUS
10
1.8771
20
-1.7221
11
1.88298
21
-1.71816
0
LINE
8
BLACK
6
CONTINUOUS
10
1.88298
20
-1.71816
11
1.88952
21
-1.71546
0
LINE
8
BLACK
6
CONTINUOUS
10
1.88952
20
-1.71546
11
1.89646
21
-1.71407
0
LINE
8
BLACK
6
CONTINUOUS
10
1.89646
20
-1.71407
11
1.90354
21
-1.71407
0
LINE
8
BLACK
6
CONTINUOUS
10
1.90354
20
-1.71407
11
1.91048
21
-1.71546
0
LINE
8
BLACK
6
CONTINUOUS
10
2.01048
20
-1.71546
11
2.01702
21
-1.71816
0
LINE
8
BLACK
6
CONTINUOUS
10
2.01702
20
-1.71816
11
2.0229
21
-1.7221
0
LINE
8
BLACK
6
CONTINUOUS
10
2.0229
20
-1.7221
11
2.0279
21
-1.7271
0
LINE
8
BLACK
6
CONTINUOUS
10
2.0279
20
-1.7271
11
2.03184
21
-1.73298
0
LINE
8
BLACK
6
CONTINUOUS
10
2.03184
20
-1.73298
11
2.03454
21
-1.73952
0
LINE
8
BLACK
6
CONTINUOUS
10
2.03454
20
-1.73952
11
2.03593
21
-1.74646
0
LINE
8
BLACK
6
CONTINUOUS
10
2.03593
20
-1.74646
11
2.03593
21
-1.75354
0
LINE
8
BLACK
6
CONTINUOUS
10
2.03593
20
-1.75354
11
2.03454
21
-1.76048
0
LINE
8
BLACK
6
CONTINUOUS
10
2.03454
20
-1.76048
11
2.03184
21
-1.76702
0
LINE
8
BLACK
6
CONTINUOUS
10
2.03184
20
-1.76702
11
2.0279
21
-1.7729
0
LINE
8
BLACK
6
CONTINUOUS
10
2.0279
20
-1.7729
11
2.0229
21
-1.7779
0
LINE
8
BLACK
6
CONTINUOUS
10
2.0229
20
-1.7779
11
2.01702
21
-1.78184
0
LINE
8
BLACK
6
CONTINUOUS
10
2.01702
20
-1.78184
11
2.01048
21
-1.78454
0
LINE
8
BLACK
6
CONTINUOUS
10
2.01048
20
-1.78454
11
2.00354
21
-1.78593
0
LINE
8
BLACK
6
CONTINUOUS
10
2.00354
20
-1.78593
11
1.99646
21
-1.78593
0
LINE
8
BLACK
6
CONTINUOUS
10
1.99646
20
-1.78593
11
1.98952
21
-1.78454
0
LINE
8
BLACK
6
CONTINUOUS
10
1.98952
20
-1.78454
11
1.98298
21
-1.78184
0
LINE
8
BLACK
6
CONTINUOUS
10
1.98298
20
-1.78184
11
1.9771
21
-1.7779
0
LINE
8
BLACK
6
CONTINUOUS
10
1.9771
20
-1.7779
11
1.9721
21
-1.7729
0
LINE
8
BLACK
6
CONTINUOUS
10
1.9721
20
-1.7729
11
1.96816
21
-1.76702
0
LINE
8
BLACK
6
CONTINUOUS
10
1.96816
20
-1.76702
11
1.96546
21
-1.76048
0
LINE
8
BLACK
6
CONTINUOUS
10
1.96546
20
-1.76048
11
1.96407
21
-1.75354
0
LINE
8
BLACK
6
CONTINUOUS
10
1.96407
20
-1.75354
11
1.96407
21
-1.74646
0
LINE
8
BLACK
6
CONTINUOUS
10
1.96407
20
-1.74646
11
1.96546
21
-1.73952
0
LINE
8
BLACK
6
CONTINUOUS
10
1.96546
20
-1.73952
11
1.96816
21
-1.73298
0
LINE
8
BLACK
6
CONTINUOUS
10
1.96816
20
-1.73298
11
1.9721
21
-1.7271
0
LINE
8
BLACK
6
CONTINUOUS
10
1.9721
20
-1.7271
11
1.9771
21
-1.7221
0
LINE
8
BLACK
6
CONTINUOUS
10
1.9771
20
-1.7221
11
1.98298
21
-1.71816
0
LINE
8
BLACK
6
CONTINUOUS
10
1.98298
20
-1.71816
11
1.98952
21
-1.71546
0
LINE
8
BLACK
6
CONTINUOUS
10
1.98952
20
-1.71546
11
1.99646
21
-1.71407
0
LINE
8
BLACK
6
CONTINUOUS
10
1.99646
20
-1.71407
11
2.00354
21
-1.71407
0
LINE
8
BLACK
6
CONTINUOUS
10
2.00354
20
-1.71407
11
2.01048
21
-1.71546
0
LINE
8
BLACK
6
CONTINUOUS
10
2.11048
20
-1.71546
11
2.11702
21
-1.71816
0
LINE
8
BLACK
6
CONTINUOUS
10
2.11702
20
-1.71816
11
2.1229
21
-1.7221
0
LINE
8
BLACK
6
CONTINUOUS
10
2.1229
20
-1.7221
11
2.1279
21
-1.7271
0
LINE
8
BLACK
6
CONTINUOUS
10
2.1279
20
-1.7271
11
2.13184
21
-1.73298
0
LINE
8
BLACK
6
CONTINUOUS
10
2.13184
20
-1.73298
11
2.13454
21
-1.73952
0
LINE
8
BLACK
6
CONTINUOUS
10
2.13454
20
-1.73952
11
2.13593
21
-1.74646
0
LINE
8
BLACK
6
CONTINUOUS
10
2.13593
20
-1.74646
11
2.13593
21
-1.75354
0
LINE
8
BLACK
6
CONTINUOUS
10
2.13593
20
-1.75354
11
2.13454
21
-1.76048
0
LINE
8
BLACK
6
CONTINUOUS
10
2.13454
20
-1.76048
11
2.13184
21
-1.76702
0
LINE
8
BLACK
6
CONTINUOUS
10
2.13184
20
-1.76702
11
2.1279
21
-1.7729
0
LINE
8
BLACK
6
CONTINUOUS
10
2.1279
20
-1.7729
11
2.1229
21
-1.7779
0
LINE
8
BLACK
6
CONTINUOUS
10
2.1229
20
-1.7779
11
2.11702
21
-1.78184
0
LINE
8
BLACK
6
CONTINUOUS
10
2.11702
20
-1.78184
11
2.11048
21
-1.78454
0
LINE
8
BLACK
6
CONTINUOUS
10
2.11048
20
-1.78454
11
2.10354
21
-1.78593
0
LINE
8
BLACK
6
CONTINUOUS
10
2.10354
20
-1.78593
11
2.09646
21
-1.78593
0
LINE
8
BLACK
6
CONTINUOUS
10
2.09646
20
-1.78593
11
2.08952
21
-1.78454
0
LINE
8
BLACK
6
CONTINUOUS
10
2.08952
20
-1.78454
11
2.08298
21
-1.78184
0
LINE
8
BLACK
6
CONTINUOUS
10
2.08298
20
-1.78184
11
2.0771
21
-1.7779
0
LINE
8
BLACK
6
CONTINUOUS
10
2.0771
20
-1.7779
11
2.0721
21
-1.7729
0
LINE
8
BLACK
6
CONTINUOUS
10
2.0721
20
-1.7729
11
2.06816
21
-1.76702
0
LINE
8
BLACK
6
CONTINUOUS
10
2.06816
20
-1.76702
11
2.06546
21
-1.76048
0
LINE
8
BLACK
6
CONTINUOUS
10
2.06546
20
-1.76048
11
2.06407
21
-1.75354
0
LINE
8
BLACK
6
CONTINUOUS
10
2.06407
20
-1.75354
11
2.06407
21
-1.74646
0
LINE
8
BLACK
6
CONTINUOUS
10
2.06407
20
-1.74646
11
2.06546
21
-1.73952
0
LINE
8
BLACK
6
CONTINUOUS
10
2.06546
20
-1.73952
11
2.06816
21
-1.73298
0
LINE
8
BLACK
6
CONTINUOUS
10
2.06816
20
-1.73298
11
2.0721
21
-1.7271
0
LINE
8
BLACK
6
CONTINUOUS
10
2.0721
20
-1.7271
11
2.0771
21
-1.7221
0
LINE
8
BLACK
6
CONTINUOUS
10
2.0771
20
-1.7221
11
2.08298
21
-1.71816
0
LINE
8
BLACK
6
CONTINUOUS
10
2.08298
20
-1.71816
11
2.08952
21
-1.71546
0
LINE
8
BLACK
6
CONTINUOUS
10
2.08952
20
-1.71546
11
2.09646
21
-1.71407
0
LINE
8
BLACK
6
CONTINUOUS
10
2.09646
20
-1.71407
11
2.10354
21
-1.71407
0
LINE
8
BLACK
6
CONTINUOUS
10
2.10354
20
-1.71407
11
2.11048
21
-1.71546
0
LINE
8
BLACK
6
CONTINUOUS
10
0.832675
20
-1.63199
11
0.838765
21
-1.63452
0
LINE
8
BLACK
6
CONTINUOUS
10
0.838765
20
-1.63452
11
0.844246
21
-1.63818
0
LINE
8
BLACK
6
CONTINUOUS
10
0.844246
20
-1.63818
11
0.848907
21
-1.64284
0
LINE
8
BLACK
6
CONTINUOUS
10
0.848907
20
-1.64284
11
0.852569
21
-1.64832
0
LINE
8
BLACK
6
CONTINUOUS
10
0.852569
20
-1.64832
11
0.855092
21
-1.65441
0
LINE
8
BLACK
6
CONTINUOUS
10
0.855092
20
-1.65441
11
0.856378
21
-1.66088
0
LINE
8
BLACK
6
CONTINUOUS
10
0.856378
20
-1.66088
11
0.856378
21
-1.66747
0
LINE
8
BLACK
6
CONTINUOUS
10
0.856378
20
-1.66747
11
0.855092
21
-1.67393
0
LINE
8
BLACK
6
CONTINUOUS
10
0.855092
20
-1.67393
11
0.852569
21
-1.68002
0
LINE
8
BLACK
6
CONTINUOUS
10
0.852569
20
-1.68002
11
0.848907
21
-1.68551
0
LINE
8
BLACK
6
CONTINUOUS
10
0.848907
20
-1.68551
11
0.844246
21
-1.69017
0
LINE
8
BLACK
6
CONTINUOUS
10
0.844246
20
-1.69017
11
0.838765
21
-1.69383
0
LINE
8
BLACK
6
CONTINUOUS
10
0.838765
20
-1.69383
11
0.832675
21
-1.69635
0
LINE
8
BLACK
6
CONTINUOUS
10
0.832675
20
-1.69635
11
0.826209
21
-1.69764
0
LINE
8
BLACK
6
CONTINUOUS
10
0.826209
20
-1.69764
11
0.819617
21
-1.69764
0
LINE
8
BLACK
6
CONTINUOUS
10
0.819617
20
-1.69764
11
0.813152
21
-1.69635
0
LINE
8
BLACK
6
CONTINUOUS
10
0.813152
20
-1.69635
11
0.807062
21
-1.69383
0
LINE
8
BLACK
6
CONTINUOUS
10
0.807062
20
-1.69383
11
0.801581
21
-1.69017
0
LINE
8
BLACK
6
CONTINUOUS
10
0.801581
20
-1.69017
11
0.79692
21
-1.68551
0
LINE
8
BLACK
6
CONTINUOUS
10
0.79692
20
-1.68551
11
0.793257
21
-1.68002
0
LINE
8
BLACK
6
CONTINUOUS
10
0.793257
20
-1.68002
11
0.790735
21
-1.67393
0
LINE
8
BLACK
6
CONTINUOUS
10
0.790735
20
-1.67393
11
0.789449
21
-1.66747
0
LINE
8
BLACK
6
CONTINUOUS
10
0.789449
20
-1.66747
11
0.789449
21
-1.66088
0
LINE
8
BLACK
6
CONTINUOUS
10
0.789449
20
-1.66088
11
0.790735
21
-1.65441
0
LINE
8
BLACK
6
CONTINUOUS
10
0.790735
20
-1.65441
11
0.793257
21
-1.64832
0
LINE
8
BLACK
6
CONTINUOUS
10
0.793257
20
-1.64832
11
0.79692
21
-1.64284
0
LINE
8
BLACK
6
CONTINUOUS
10
0.79692
20
-1.64284
11
0.801581
21
-1.63818
0
LINE
8
BLACK
6
CONTINUOUS
10
0.801581
20
-1.63818
11
0.807062
21
-1.63452
0
LINE
8
BLACK
6
CONTINUOUS
10
0.807062
20
-1.63452
11
0.813152
21
-1.63199
0
LINE
8
BLACK
6
CONTINUOUS
10
0.813152
20
-1.63199
11
0.819617
21
-1.63071
0
LINE
8
BLACK
6
CONTINUOUS
10
0.819617
20
-1.63071
11
0.826209
21
-1.63071
0
LINE
8
BLACK
6
CONTINUOUS
10
0.826209
20
-1.63071
11
0.832675
21
-1.63199
0
LINE
8
BLACK
6
CONTINUOUS
10
1.43593
20
-1.68593
11
1.36407
21
-1.68593
0
LINE
8
BLACK
6
CONTINUOUS
10
1.36407
20
-1.68593
11
1.36407
21
-1.61407
0
LINE
8
BLACK
6
CONTINUOUS
10
1.36407
20
-1.61407
11
1.43593
21
-1.61407
0
LINE
8
BLACK
6
CONTINUOUS
10
1.43593
20
-1.61407
11
1.43593
21
-1.68593
0
LINE
8
BLACK
6
CONTINUOUS
10
1.51048
20
-1.61546
11
1.51702
21
-1.61816
0
LINE
8
BLACK
6
CONTINUOUS
10
1.51702
20
-1.61816
11
1.5229
21
-1.6221
0
LINE
8
BLACK
6
CONTINUOUS
10
1.5229
20
-1.6221
11
1.5279
21
-1.6271
0
LINE
8
BLACK
6
CONTINUOUS
10
1.5279
20
-1.6271
11
1.53184
21
-1.63298
0
LINE
8
BLACK
6
CONTINUOUS
10
1.53184
20
-1.63298
11
1.53454
21
-1.63952
0
LINE
8
BLACK
6
CONTINUOUS
10
1.53454
20
-1.63952
11
1.53593
21
-1.64646
0
LINE
8
BLACK
6
CONTINUOUS
10
1.53593
20
-1.64646
11
1.53593
21
-1.65354
0
LINE
8
BLACK
6
CONTINUOUS
10
1.53593
20
-1.65354
11
1.53454
21
-1.66048
0
LINE
8
BLACK
6
CONTINUOUS
10
1.53454
20
-1.66048
11
1.53184
21
-1.66702
0
LINE
8
BLACK
6
CONTINUOUS
10
1.53184
20
-1.66702
11
1.5279
21
-1.6729
0
LINE
8
BLACK
6
CONTINUOUS
10
1.5279
20
-1.6729
11
1.5229
21
-1.6779
0
LINE
8
BLACK
6
CONTINUOUS
10
1.5229
20
-1.6779
11
1.51702
21
-1.68184
0
LINE
8
BLACK
6
CONTINUOUS
10
1.51702
20
-1.68184
11
1.51048
21
-1.68454
0
LINE
8
BLACK
6
CONTINUOUS
10
1.51048
20
-1.68454
11
1.50354
21
-1.68593
0
LINE
8
BLACK
6
CONTINUOUS
10
1.50354
20
-1.68593
11
1.49646
21
-1.68593
0
LINE
8
BLACK
6
CONTINUOUS
10
1.49646
20
-1.68593
11
1.48952
21
-1.68454
0
LINE
8
BLACK
6
CONTINUOUS
10
1.48952
20
-1.68454
11
1.48298
21
-1.68184
0
LINE
8
BLACK
6
CONTINUOUS
10
1.48298
20
-1.68184
11
1.4771
21
-1.6779
0
LINE
8
BLACK
6
CONTINUOUS
10
1.4771
20
-1.6779
11
1.4721
21
-1.6729
0
LINE
8
BLACK
6
CONTINUOUS
10
1.4721
20
-1.6729
11
1.46816
21
-1.66702
0
LINE
8
BLACK
6
CONTINUOUS
10
1.46816
20
-1.66702
11
1.46546
21
-1.66048
0
LINE
8
BLACK
6
CONTINUOUS
10
1.46546
20
-1.66048
11
1.46407
21
-1.65354
0
LINE
8
BLACK
6
CONTINUOUS
10
1.46407
20
-1.65354
11
1.46407
21
-1.64646
0
LINE
8
BLACK
6
CONTINUOUS
10
1.46407
20
-1.64646
11
1.46546
21
-1.63952
0
LINE
8
BLACK
6
CONTINUOUS
10
1.46546
20
-1.63952
11
1.46816
21
-1.63298
0
LINE
8
BLACK
6
CONTINUOUS
10
1.46816
20
-1.63298
11
1.4721
21
-1.6271
0
LINE
8
BLACK
6
CONTINUOUS
10
1.4721
20
-1.6271
11
1.4771
21
-1.6221
0
LINE
8
BLACK
6
CONTINUOUS
10
1.4771
20
-1.6221
11
1.48298
21
-1.61816
0
LINE
8
BLACK
6
CONTINUOUS
10
1.48298
20
-1.61816
11
1.48952
21
-1.61546
0
LINE
8
BLACK
6
CONTINUOUS
10
1.48952
20
-1.61546
11
1.49646
21
-1.61407
0
LINE
8
BLACK
6
CONTINUOUS
10
1.49646
20
-1.61407
11
1.50354
21
-1.61407
0
LINE
8
BLACK
6
CONTINUOUS
10
1.50354
20
-1.61407
11
1.51048
21
-1.61546
0
LINE
8
BLACK
6
CONTINUOUS
10
1.61048
20
-1.61546
11
1.61702
21
-1.61816
0
LINE
8
BLACK
6
CONTINUOUS
10
1.61702
20
-1.61816
11
1.6229
21
-1.6221
0
LINE
8
BLACK
6
CONTINUOUS
10
1.6229
20
-1.6221
11
1.6279
21
-1.6271
0
LINE
8
BLACK
6
CONTINUOUS
10
1.6279
20
-1.6271
11
1.63184
21
-1.63298
0
LINE
8
BLACK
6
CONTINUOUS
10
1.63184
20
-1.63298
11
1.63454
21
-1.63952
0
LINE
8
BLACK
6
CONTINUOUS
10
1.63454
20
-1.63952
11
1.63593
21
-1.64646
0
LINE
8
BLACK
6
CONTINUOUS
10
1.63593
20
-1.64646
11
1.63593
21
-1.65354
0
LINE
8
BLACK
6
CONTINUOUS
10
1.63593
20
-1.65354
11
1.63454
21
-1.66048
0
LINE
8
BLACK
6
CONTINUOUS
10
1.63454
20
-1.66048
11
1.63184
21
-1.66702
0
LINE
8
BLACK
6
CONTINUOUS
10
1.63184
20
-1.66702
11
1.6279
21
-1.6729
0
LINE
8
BLACK
6
CONTINUOUS
10
1.6279
20
-1.6729
11
1.6229
21
-1.6779
0
LINE
8
BLACK
6
CONTINUOUS
10
1.6229
20
-1.6779
11
1.61702
21
-1.68184
0
LINE
8
BLACK
6
CONTINUOUS
10
1.61702
20
-1.68184
11
1.61048
21
-1.68454
0
LINE
8
BLACK
6
CONTINUOUS
10
1.61048
20
-1.68454
11
1.60354
21
-1.68593
0
LINE
8
BLACK
6
CONTINUOUS
10
1.60354
20
-1.68593
11
1.59646
21
-1.68593
0
LINE
8
BLACK
6
CONTINUOUS
10
1.59646
20
-1.68593
11
1.58952
21
-1.68454
0
LINE
8
BLACK
6
CONTINUOUS
10
1.58952
20
-1.68454
11
1.58298
21
-1.68184
0
LINE
8
BLACK
6
CONTINUOUS
10
1.58298
20
-1.68184
11
1.5771
21
-1.6779
0
LINE
8
BLACK
6
CONTINUOUS
10
1.5771
20
-1.6779
11
1.5721
21
-1.6729
0
LINE
8
BLACK
6
CONTINUOUS
10
1.5721
20
-1.6729
11
1.56816
21
-1.66702
0
LINE
8
BLACK
6
CONTINUOUS
10
1.56816
20
-1.66702
11
1.56546
21
-1.66048
0
LINE
8
BLACK
6
CONTINUOUS
10
1.56546
20
-1.66048
11
1.56407
21
-1.65354
0
LINE
8
BLACK
6
CONTINUOUS
10
1.56407
20
-1.65354
11
1.56407
21
-1.64646
0
LINE
8
BLACK
6
CONTINUOUS
10
1.56407
20
-1.64646
11
1.56546
21
-1.63952
0
LINE
8
BLACK
6
CONTINUOUS
10
1.56546
20
-1.63952
11
1.56816
21
-1.63298
0
LINE
8
BLACK
6
CONTINUOUS
10
1.56816
20
-1.63298
11
1.5721
21
-1.6271
0
LINE
8
BLACK
6
CONTINUOUS
10
1.5721
20
-1.6271
11
1.5771
21
-1.6221
0
LINE
8
BLACK
6
CONTINUOUS
10
1.5771
20
-1.6221
11
1.58298
21
-1.61816
0
LINE
8
BLACK
6
CONTINUOUS
10
1.58298
20
-1.61816
11
1.58952
21
-1.61546
0
LINE
8
BLACK
6
CONTINUOUS
10
1.58952
20
-1.61546
11
1.59646
21
-1.61407
0
LINE
8
BLACK
6
CONTINUOUS
10
1.59646
20
-1.61407
11
1.60354
21
-1.61407
0
LINE
8
BLACK
6
CONTINUOUS
10
1.60354
20
-1.61407
11
1.61048
21
-1.61546
0
LINE
8
BLACK
6
CONTINUOUS
10
1.71048
20
-1.61546
11
1.71702
21
-1.61816
0
LINE
8
BLACK
6
CONTINUOUS
10
1.71702
20
-1.61816
11
1.7229
21
-1.6221
0
LINE
8
BLACK
6
CONTINUOUS
10
1.7229
20
-1.6221
11
1.7279
21
-1.6271
0
LINE
8
BLACK
6
CONTINUOUS
10
1.7279
20
-1.6271
11
1.73184
21
-1.63298
0
LINE
8
BLACK
6
CONTINUOUS
10
1.73184
20
-1.63298
11
1.73454
21
-1.63952
0
LINE
8
BLACK
6
CONTINUOUS
10
1.73454
20
-1.63952
11
1.73593
21
-1.64646
0
LINE
8
BLACK
6
CONTINUOUS
10
1.73593
20
-1.64646
11
1.73593
21
-1.65354
0
LINE
8
BLACK
6
CONTINUOUS
10
1.73593
20
-1.65354
11
1.73454
21
-1.66048
0
LINE
8
BLACK
6
CONTINUOUS
10
1.73454
20
-1.66048
11
1.73184
21
-1.66702
0
LINE
8
BLACK
6
CONTINUOUS
10
1.73184
20
-1.66702
11
1.7279
21
-1.6729
0
LINE
8
BLACK
6
CONTINUOUS
10
1.7279
20
-1.6729
11
1.7229
21
-1.6779
0
LINE
8
BLACK
6
CONTINUOUS
10
1.7229
20
-1.6779
11
1.71702
21
-1.68184
0
LINE
8
BLACK
6
CONTINUOUS
10
1.71702
20
-1.68184
11
1.71048
21
-1.68454
0
LINE
8
BLACK
6
CONTINUOUS
10
1.71048
20
-1.68454
11
1.70354
21
-1.68593
0
LINE
8
BLACK
6
CONTINUOUS
10
1.70354
20
-1.68593
11
1.69646
21
-1.68593
0
LINE
8
BLACK
6
CONTINUOUS
10
1.69646
20
-1.68593
11
1.68952
21
-1.68454
0
LINE
8
BLACK
6
CONTINUOUS
10
1.68952
20
-1.68454
11
1.68298
21
-1.68184
0
LINE
8
BLACK
6
CONTINUOUS
10
1.68298
20
-1.68184
11
1.6771
21
-1.6779
0
LINE
8
BLACK
6
CONTINUOUS
10
1.6771
20
-1.6779
11
1.6721
21
-1.6729
0
LINE
8
BLACK
6
CONTINUOUS
10
1.6721
20
-1.6729
11
1.66816
21
-1.66702
0
LINE
8
BLACK
6
CONTINUOUS
10
1.66816
20
-1.66702
11
1.66546
21
-1.66048
0
LINE
8
BLACK
6
CONTINUOUS
10
1.66546
20
-1.66048
11
1.66407
21
-1.65354
0
LINE
8
BLACK
6
CONTINUOUS
10
1.66407
20
-1.65354
11
1.66407
21
-1.64646
0
LINE
8
BLACK
6
CONTINUOUS
10
1.66407
20
-1.64646
11
1.66546
21
-1.63952
0
LINE
8
BLACK
6
CONTINUOUS
10
1.66546
20
-1.63952
11
1.66816
21
-1.63298
0
LINE
8
BLACK
6
CONTINUOUS
10
1.66816
20
-1.63298
11
1.6721
21
-1.6271
0
LINE
8
BLACK
6
CONTINUOUS
10
1.6721
20
-1.6271
11
1.6771
21
-1.6221
0
LINE
8
BLACK
6
CONTINUOUS
10
1.6771
20
-1.6221
11
1.68298
21
-1.61816
0
LINE
8
BLACK
6
CONTINUOUS
10
1.68298
20
-1.61816
11
1.68952
21
-1.61546
0
LINE
8
BLACK
6
CONTINUOUS
10
1.68952
20
-1.61546
11
1.69646
21
-1.61407
0
LINE
8
BLACK
6
CONTINUOUS
10
1.69646
20
-1.61407
11
1.70354
21
-1.61407
0
LINE
8
BLACK
6
CONTINUOUS
10
1.70354
20
-1.61407
11
1.71048
21
-1.61546
0
LINE
8
BLACK
6
CONTINUOUS
10
1.81048
20
-1.61546
11
1.81702
21
-1.61816
0
LINE
8
BLACK
6
CONTINUOUS
10
1.81702
20
-1.61816
11
1.8229
21
-1.6221
0
LINE
8
BLACK
6
CONTINUOUS
10
1.8229
20
-1.6221
11
1.8279
21
-1.6271
0
LINE
8
BLACK
6
CONTINUOUS
10
1.8279
20
-1.6271
11
1.83184
21
-1.63298
0
LINE
8
BLACK
6
CONTINUOUS
10
1.83184
20
-1.63298
11
1.83454
21
-1.63952
0
LINE
8
BLACK
6
CONTINUOUS
10
1.83454
20
-1.63952
11
1.83593
21
-1.64646
0
LINE
8
BLACK
6
CONTINUOUS
10
1.83593
20
-1.64646
11
1.83593
21
-1.65354
0
LINE
8
BLACK
6
CONTINUOUS
10
1.83593
20
-1.65354
11
1.83454
21
-1.66048
0
LINE
8
BLACK
6
CONTINUOUS
10
1.83454
20
-1.66048
11
1.83184
21
-1.66702
0
LINE
8
BLACK
6
CONTINUOUS
10
1.83184
20
-1.66702
11
1.8279
21
-1.6729
0
LINE
8
BLACK
6
CONTINUOUS
10
1.8279
20
-1.6729
11
1.8229
21
-1.6779
0
LINE
8
BLACK
6
CONTINUOUS
10
1.8229
20
-1.6779
11
1.81702
21
-1.68184
0
LINE
8
BLACK
6
CONTINUOUS
10
1.81702
20
-1.68184
11
1.81048
21
-1.68454
0
LINE
8
BLACK
6
CONTINUOUS
10
1.81048
20
-1.68454
11
1.80354
21
-1.68593
0
LINE
8
BLACK
6
CONTINUOUS
10
1.80354
20
-1.68593
11
1.79646
21
-1.68593
0
LINE
8
BLACK
6
CONTINUOUS
10
1.79646
20
-1.68593
11
1.78952
21
-1.68454
0
LINE
8
BLACK
6
CONTINUOUS
10
1.78952
20
-1.68454
11
1.78298
21
-1.68184
0
LINE
8
BLACK
6
CONTINUOUS
10
1.78298
20
-1.68184
11
1.7771
21
-1.6779
0
LINE
8
BLACK
6
CONTINUOUS
10
1.7771
20
-1.6779
11
1.7721
21
-1.6729
0
LINE
8
BLACK
6
CONTINUOUS
10
1.7721
20
-1.6729
11
1.76816
21
-1.66702
0
LINE
8
BLACK
6
CONTINUOUS
10
1.76816
20
-1.66702
11
1.76546
21
-1.66048
0
LINE
8
BLACK
6
CONTINUOUS
10
1.76546
20
-1.66048
11
1.76407
21
-1.65354
0
LINE
8
BLACK
6
CONTINUOUS
10
1.76407
20
-1.65354
11
1.76407
21
-1.64646
0
LINE
8
BLACK
6
CONTINUOUS
10
1.76407
20
-1.64646
11
1.76546
21
-1.63952
0
LINE
8
BLACK
6
CONTINUOUS
10
1.76546
20
-1.63952
11
1.76816
21
-1.63298
0
LINE
8
BLACK
6
CONTINUOUS
10
1.76816
20
-1.63298
11
1.7721
21
-1.6271
0
LINE
8
BLACK
6
CONTINUOUS
10
1.7721
20
-1.6271
11
1.7771
21
-1.6221
0
LINE
8
BLACK
6
CONTINUOUS
10
1.7771
20
-1.6221
11
1.78298
21
-1.61816
0
LINE
8
BLACK
6
CONTINUOUS
10
1.78298
20
-1.61816
11
1.78952
21
-1.61546
0
LINE
8
BLACK
6
CONTINUOUS
10
1.78952
20
-1.61546
11
1.79646
21
-1.61407
0
LINE
8
BLACK
6
CONTINUOUS
10
1.79646
20
-1.61407
11
1.80354
21
-1.61407
0
LINE
8
BLACK
6
CONTINUOUS
10
1.80354
20
-1.61407
11
1.81048
21
-1.61546
0
LINE
8
BLACK
6
CONTINUOUS
10
1.91048
20
-1.61546
11
1.91702
21
-1.61816
0
LINE
8
BLACK
6
CONTINUOUS
10
1.91702
20
-1.61816
11
1.9229
21
-1.6221
0
LINE
8
BLACK
6
CONTINUOUS
10
1.9229
20
-1.6221
11
1.9279
21
-1.6271
0
LINE
8
BLACK
6
CONTINUOUS
10
1.9279
20
-1.6271
11
1.93184
21
-1.63298
0
LINE
8
BLACK
6
CONTINUOUS
10
1.93184
20
-1.63298
11
1.93454
21
-1.63952
0
LINE
8
BLACK
6
CONTINUOUS
10
1.93454
20
-1.63952
11
1.93593
21
-1.64646
0
LINE
8
BLACK
6
CONTINUOUS
10
1.93593
20
-1.64646
11
1.93593
21
-1.65354
0
LINE
8
BLACK
6
CONTINUOUS
10
1.93593
20
-1.65354
11
1.93454
21
-1.66048
0
LINE
8
BLACK
6
CONTINUOUS
10
1.93454
20
-1.66048
11
1.93184
21
-1.66702
0
LINE
8
BLACK
6
CONTINUOUS
10
1.93184
20
-1.66702
11
1.9279
21
-1.6729
0
LINE
8
BLACK
6
CONTINUOUS
10
1.9279
20
-1.6729
11
1.9229
21
-1.6779
0
LINE
8
BLACK
6
CONTINUOUS
10
1.9229
20
-1.6779
11
1.91702
21
-1.68184
0
LINE
8
BLACK
6
CONTINUOUS
10
1.91702
20
-1.68184
11
1.91048
21
-1.68454
0
LINE
8
BLACK
6
CONTINUOUS
10
1.91048
20
-1.68454
11
1.90354
21
-1.68593
0
LINE
8
BLACK
6
CONTINUOUS
10
1.90354
20
-1.68593
11
1.89646
21
-1.68593
0
LINE
8
BLACK
6
CONTINUOUS
10
1.89646
20
-1.68593
11
1.88952
21
-1.68454
0
LINE
8
BLACK
6
CONTINUOUS
10
1.88952
20
-1.68454
11
1.88298
21
-1.68184
0
LINE
8
BLACK
6
CONTINUOUS
10
1.88298
20
-1.68184
11
1.8771
21
-1.6779
0
LINE
8
BLACK
6
CONTINUOUS
10
1.8771
20
-1.6779
11
1.8721
21
-1.6729
0
LINE
8
BLACK
6
CONTINUOUS
10
1.8721
20
-1.6729
11
1.86816
21
-1.66702
0
LINE
8
BLACK
6
CONTINUOUS
10
1.86816
20
-1.66702
11
1.86546
21
-1.66048
0
LINE
8
BLACK
6
CONTINUOUS
10
1.86546
20
-1.66048
11
1.86407
21
-1.65354
0
LINE
8
BLACK
6
CONTINUOUS
10
1.86407
20
-1.65354
11
1.86407
21
-1.64646
0
LINE
8
BLACK
6
CONTINUOUS
10
1.86407
20
-1.64646
11
1.86546
21
-1.63952
0
LINE
8
BLACK
6
CONTINUOUS
10
1.86546
20
-1.63952
11
1.86816
21
-1.63298
0
LINE
8
BLACK
6
CONTINUOUS
10
1.86816
20
-1.63298
11
1.8721
21
-1.6271
0
LINE
8
BLACK
6
CONTINUOUS
10
1.8721
20
-1.6271
11
1.8771
21
-1.6221
0
LINE
8
BLACK
6
CONTINUOUS
10
1.8771
20
-1.6221
11
1.88298
21
-1.61816
0
LINE
8
BLACK
6
CONTINUOUS
10
1.88298
20
-1.61816
11
1.88952
21
-1.61546
0
LINE
8
BLACK
6
CONTINUOUS
10
1.88952
20
-1.61546
11
1.89646
21
-1.61407
0
LINE
8
BLACK
6
CONTINUOUS
10
1.89646
20
-1.61407
11
1.90354
21
-1.61407
0
LINE
8
BLACK
6
CONTINUOUS
10
1.90354
20
-1.61407
11
1.91048
21
-1.61546
0
LINE
8
BLACK
6
CONTINUOUS
10
2.01048
20
-1.61546
11
2.01702
21
-1.61816
0
LINE
8
BLACK
6
CONTINUOUS
10
2.01702
20
-1.61816
11
2.0229
21
-1.6221
0
LINE
8
BLACK
6
CONTINUOUS
10
2.0229
20
-1.6221
11
2.0279
21
-1.6271
0
LINE
8
BLACK
6
CONTINUOUS
10
2.0279
20
-1.6271
11
2.03184
21
-1.63298
0
LINE
8
BLACK
6
CONTINUOUS
10
2.03184
20
-1.63298
11
2.03454
21
-1.63952
0
LINE
8
BLACK
6
CONTINUOUS
10
2.03454
20
-1.63952
11
2.03593
21
-1.64646
0
LINE
8
BLACK
6
CONTINUOUS
10
2.03593
20
-1.64646
11
2.03593
21
-1.65354
0
LINE
8
BLACK
6
CONTINUOUS
10
2.03593
20
-1.65354
11
2.03454
21
-1.66048
0
LINE
8
BLACK
6
CONTINUOUS
10
2.03454
20
-1.66048
11
2.03184
21
-1.66702
0
LINE
8
BLACK
6
CONTINUOUS
10
2.03184
20
-1.66702
11
2.0279
21
-1.6729
0
LINE
8
BLACK
6
CONTINUOUS
10
2.0279
20
-1.6729
11
2.0229
21
-1.6779
0
LINE
8
BLACK
6
CONTINUOUS
10
2.0229
20
-1.6779
11
2.01702
21
-1.68184
0
LINE
8
BLACK
6
CONTINUOUS
10
2.01702
20
-1.68184
11
2.01048
21
-1.68454
0
LINE
8
BLACK
6
CONTINUOUS
10
2.01048
20
-1.68454
11
2.00354
21
-1.68593
0
LINE
8
BLACK
6
CONTINUOUS
10
2.00354
20
-1.68593
11
1.99646
21
-1.68593
0
LINE
8
BLACK
6
CONTINUOUS
10
1.99646
20
-1.68593
11
1.98952
21
-1.68454
0
LINE
8
BLACK
6
CONTINUOUS
10
1.98952
20
-1.68454
11
1.98298
21
-1.68184
0
LINE
8
BLACK
6
CONTINUOUS
10
1.98298
20
-1.68184
11
1.9771
21
-1.6779
0
LINE
8
BLACK
6
CONTINUOUS
10
1.9771
20
-1.6779
11
1.9721
21
-1.6729
0
LINE
8
BLACK
6
CONTINUOUS
10
1.9721
20
-1.6729
11
1.96816
21
-1.66702
0
LINE
8
BLACK
6
CONTINUOUS
10
1.96816
20
-1.66702
11
1.96546
21
-1.66048
0
LINE
8
BLACK
6
CONTINUOUS
10
1.96546
20
-1.66048
11
1.96407
21
-1.65354
0
LINE
8
BLACK
6
CONTINUOUS
10
1.96407
20
-1.65354
11
1.96407
21
-1.64646
0
LINE
8
BLACK
6
CONTINUOUS
10
1.96407
20
-1.64646
11
1.96546
21
-1.63952
0
LINE
8
BLACK
6
CONTINUOUS
10
1.96546
20
-1.63952
11
1.96816
21
-1.63298
0
LINE
8
BLACK
6
CONTINUOUS
10
1.96816
20
-1.63298
11
1.9721
21
-1.6271
0
LINE
8
BLACK
6
CONTINUOUS
10
1.9721
20
-1.6271
11
1.9771
21
-1.6221
0
LINE
8
BLACK
6
CONTINUOUS
10
1.9771
20
-1.6221
11
1.98298
21
-1.61816
0
LINE
8
BLACK
6
CONTINUOUS
10
1.98298
20
-1.61816
11
1.98952
21
-1.61546
0
LINE
8
BLACK
6
CONTINUOUS
10
1.98952
20
-1.61546
11
1.99646
21
-1.61407
0
LINE
8
BLACK
6
CONTINUOUS
10
1.99646
20
-1.61407
11
2.00354
21
-1.61407
0
LINE
8
BLACK
6
CONTINUOUS
10
2.00354
20
-1.61407
11
2.01048
21
-1.61546
0
LINE
8
BLACK
6
CONTINUOUS
10
2.11048
20
-1.61546
11
2.11702
21
-1.61816
0
LINE
8
BLACK
6
CONTINUOUS
10
2.11702
20
-1.61816
11
2.1229
21
-1.6221
0
LINE
8
BLACK
6
CONTINUOUS
10
2.1229
20
-1.6221
11
2.1279
21
-1.6271
0
LINE
8
BLACK
6
CONTINUOUS
10
2.1279
20
-1.6271
11
2.13184
21
-1.63298
0
LINE
8
BLACK
6
CONTINUOUS
10
2.13184
20
-1.63298
11
2.13454
21
-1.63952
0
LINE
8
BLACK
6
CONTINUOUS
10
2.13454
20
-1.63952
11
2.13593
21
-1.64646
0
LINE
8
BLACK
6
CONTINUOUS
10
2.13593
20
-1.64646
11
2.13593
21
-1.65354
0
LINE
8
BLACK
6
CONTINUOUS
10
2.13593
20
-1.65354
11
2.13454
21
-1.66048
0
LINE
8
BLACK
6
CONTINUOUS
10
2.13454
20
-1.66048
11
2.13184
21
-1.66702
0
LINE
8
BLACK
6
CONTINUOUS
10
2.13184
20
-1.66702
11
2.1279
21
-1.6729
0
LINE
8
BLACK
6
CONTINUOUS
10
2.1279
20
-1.6729
11
2.1229
21
-1.6779
0
LINE
8
BLACK
6
CONTINUOUS
10
2.1229
20
-1.6779
11
2.11702
21
-1.68184
0
LINE
8
BLACK
6
CONTINUOUS
10
2.11702
20
-1.68184
11
2.11048
21
-1.68454
0
LINE
8
BLACK
6
CONTINUOUS
10
2.11048
20
-1.68454
11
2.10354
21
-1.68593
0
LINE
8
BLACK
6
CONTINUOUS
10
2.10354
20
-1.68593
11
2.09646
21
-1.68593
0
LINE
8
BLACK
6
CONTINUOUS
10
2.09646
20
-1.68593
11
2.08952
21
-1.68454
0
LINE
8
BLACK
6
CONTINUOUS
10
2.08952
20
-1.68454
11
2.08298
21
-1.68184
0
LINE
8
BLACK
6
CONTINUOUS
10
2.08298
20
-1.68184
11
2.0771
21
-1.6779
0
LINE
8
BLACK
6
CONTINUOUS
10
2.0771
20
-1.6779
11
2.0721
21
-1.6729
0
LINE
8
BLACK
6
CONTINUOUS
10
2.0721
20
-1.6729
11
2.06816
21
-1.66702
0
LINE
8
BLACK
6
CONTINUOUS
10
2.06816
20
-1.66702
11
2.06546
21
-1.66048
0
LINE
8
BLACK
6
CONTINUOUS
10
2.06546
20
-1.66048
11
2.06407
21
-1.65354
0
LINE
8
BLACK
6
CONTINUOUS
10
2.06407
20
-1.65354
11
2.06407
21
-1.64646
0
LINE
8
BLACK
6
CONTINUOUS
10
2.06407
20
-1.64646
11
2.06546
21
-1.63952
0
LINE
8
BLACK
6
CONTINUOUS
10
2.06546
20
-1.63952
11
2.06816
21
-1.63298
0
LINE
8
BLACK
6
CONTINUOUS
10
2.06816
20
-1.63298
11
2.0721
21
-1.6271
0
LINE
8
BLACK
6
CONTINUOUS
10
2.0721
20
-1.6271
11
2.0771
21
-1.6221
0
LINE
8
BLACK
6
CONTINUOUS
10
2.0771
20
-1.6221
11
2.08298
21
-1.61816
0
LINE
8
BLACK
6
CONTINUOUS
10
2.08298
20
-1.61816
11
2.08952
21
-1.61546
0
LINE
8
BLACK
6
CONTINUOUS
10
2.08952
20
-1.61546
11
2.09646
21
-1.61407
0
LINE
8
BLACK
6
CONTINUOUS
10
2.09646
20
-1.61407
11
2.10354
21
-1.61407
0
LINE
8
BLACK
6
CONTINUOUS
10
2.10354
20
-1.61407
11
2.11048
21
-1.61546
0
LINE
8
BLACK
6
CONTINUOUS
10
0.935037
20
-1.51782
11
0.941127
21
-1.52034
0
LINE
8
BLACK
6
CONTINUOUS
10
0.941127
20
-1.52034
11
0.946608
21
-1.52401
0
LINE
8
BLACK
6
CONTINUOUS
10
0.946608
20
-1.52401
11
0.951269
21
-1.52867
0
LINE
8
BLACK
6
CONTINUOUS
10
0.951269
20
-1.52867
11
0.954931
21
-1.53415
0
LINE
8
BLACK
6
CONTINUOUS
10
0.954931
20
-1.53415
11
0.957454
21
-1.54024
0
LINE
8
BLACK
6
CONTINUOUS
10
0.957454
20
-1.54024
11
0.95874
21
-1.5467
0
LINE
8
BLACK
6
CONTINUOUS
10
0.95874
20
-1.5467
11
0.95874
21
-1.5533
0
LINE
8
BLACK
6
CONTINUOUS
10
0.95874
20
-1.5533
11
0.957454
21
-1.55976
0
LINE
8
BLACK
6
CONTINUOUS
10
0.957454
20
-1.55976
11
0.954931
21
-1.56585
0
LINE
8
BLACK
6
CONTINUOUS
10
0.954931
20
-1.56585
11
0.951269
21
-1.57133
0
LINE
8
BLACK
6
CONTINUOUS
10
0.951269
20
-1.57133
11
0.946608
21
-1.57599
0
LINE
8
BLACK
6
CONTINUOUS
10
0.946608
20
-1.57599
11
0.941127
21
-1.57966
0
LINE
8
BLACK
6
CONTINUOUS
10
0.941127
20
-1.57966
11
0.935037
21
-1.58218
0
LINE
8
BLACK
6
CONTINUOUS
10
0.935037
20
-1.58218
11
0.928572
21
-1.58346
0
LINE
8
BLACK
6
CONTINUOUS
10
0.928572
20
-1.58346
11
0.92198
21
-1.58346
0
LINE
8
BLACK
6
CONTINUOUS
10
0.92198
20
-1.58346
11
0.915514
21
-1.58218
0
LINE
8
BLACK
6
CONTINUOUS
10
0.915514
20
-1.58218
11
0.909424
21
-1.57966
0
LINE
8
BLACK
6
CONTINUOUS
10
0.909424
20
-1.57966
11
0.903943
21
-1.57599
0
LINE
8
BLACK
6
CONTINUOUS
10
0.903943
20
-1.57599
11
0.899282
21
-1.57133
0
LINE
8
BLACK
6
CONTINUOUS
10
0.899282
20
-1.57133
11
0.89562
21
-1.56585
0
LINE
8
BLACK
6
CONTINUOUS
10
0.89562
20
-1.56585
11
0.893097
21
-1.55976
0
LINE
8
BLACK
6
CONTINUOUS
10
0.893097
20
-1.55976
11
0.891811
21
-1.5533
0
LINE
8
BLACK
6
CONTINUOUS
10
0.891811
20
-1.5533
11
0.891811
21
-1.5467
0
LINE
8
BLACK
6
CONTINUOUS
10
0.891811
20
-1.5467
11
0.893097
21
-1.54024
0
LINE
8
BLACK
6
CONTINUOUS
10
0.893097
20
-1.54024
11
0.89562
21
-1.53415
0
LINE
8
BLACK
6
CONTINUOUS
10
0.89562
20
-1.53415
11
0.899282
21
-1.52867
0
LINE
8
BLACK
6
CONTINUOUS
10
0.899282
20
-1.52867
11
0.903943
21
-1.52401
0
LINE
8
BLACK
6
CONTINUOUS
10
0.903943
20
-1.52401
11
0.909424
21
-1.52034
0
LINE
8
BLACK
6
CONTINUOUS
10
0.909424
20
-1.52034
11
0.915514
21
-1.51782
0
LINE
8
BLACK
6
CONTINUOUS
10
0.915514
20
-1.51782
11
0.92198
21
-1.51654
0
LINE
8
BLACK
6
CONTINUOUS
10
0.92198
20
-1.51654
11
0.928572
21
-1.51654
0
LINE
8
BLACK
6
CONTINUOUS
10
0.928572
20
-1.51654
11
0.935037
21
-1.51782
0
LINE
8
BLACK
6
CONTINUOUS
10
0.344486
20
-1.51782
11
0.350576
21
-1.52034
0
LINE
8
BLACK
6
CONTINUOUS
10
0.350576
20
-1.52034
11
0.356057
21
-1.52401
0
LINE
8
BLACK
6
CONTINUOUS
10
0.356057
20
-1.52401
11
0.360718
21
-1.52867
0
LINE
8
BLACK
6
CONTINUOUS
10
0.360718
20
-1.52867
11
0.36438
21
-1.53415
0
LINE
8
BLACK
6
CONTINUOUS
10
0.36438
20
-1.53415
11
0.366903
21
-1.54024
0
LINE
8
BLACK
6
CONTINUOUS
10
0.366903
20
-1.54024
11
0.368189
21
-1.5467
0
LINE
8
BLACK
6
CONTINUOUS
10
0.368189
20
-1.5467
11
0.368189
21
-1.5533
0
LINE
8
BLACK
6
CONTINUOUS
10
0.368189
20
-1.5533
11
0.366903
21
-1.55976
0
LINE
8
BLACK
6
CONTINUOUS
10
0.366903
20
-1.55976
11
0.36438
21
-1.56585
0
LINE
8
BLACK
6
CONTINUOUS
10
0.36438
20
-1.56585
11
0.360718
21
-1.57133
0
LINE
8
BLACK
6
CONTINUOUS
10
0.360718
20
-1.57133
11
0.356057
21
-1.57599
0
LINE
8
BLACK
6
CONTINUOUS
10
0.356057
20
-1.57599
11
0.350576
21
-1.57966
0
LINE
8
BLACK
6
CONTINUOUS
10
0.350576
20
-1.57966
11
0.344486
21
-1.58218
0
LINE
8
BLACK
6
CONTINUOUS
10
0.344486
20
-1.58218
11
0.33802
21
-1.58346
0
LINE
8
BLACK
6
CONTINUOUS
10
0.33802
20
-1.58346
11
0.331428
21
-1.58346
0
LINE
8
BLACK
6
CONTINUOUS
10
0.331428
20
-1.58346
11
0.324963
21
-1.58218
0
LINE
8
BLACK
6
CONTINUOUS
10
0.324963
20
-1.58218
11
0.318873
21
-1.57966
0
LINE
8
BLACK
6
CONTINUOUS
10
0.318873
20
-1.57966
11
0.313392
21
-1.57599
0
LINE
8
BLACK
6
CONTINUOUS
10
0.313392
20
-1.57599
11
0.308731
21
-1.57133
0
LINE
8
BLACK
6
CONTINUOUS
10
0.308731
20
-1.57133
11
0.305069
21
-1.56585
0
LINE
8
BLACK
6
CONTINUOUS
10
0.305069
20
-1.56585
11
0.302546
21
-1.55976
0
LINE
8
BLACK
6
CONTINUOUS
10
0.302546
20
-1.55976
11
0.30126
21
-1.5533
0
LINE
8
BLACK
6
CONTINUOUS
10
0.30126
20
-1.5533
11
0.30126
21
-1.5467
0
LINE
8
BLACK
6
CONTINUOUS
10
0.30126
20
-1.5467
11
0.302546
21
-1.54024
0
LINE
8
BLACK
6
CONTINUOUS
10
0.302546
20
-1.54024
11
0.305069
21
-1.53415
0
LINE
8
BLACK
6
CONTINUOUS
10
0.305069
20
-1.53415
11
0.308731
21
-1.52867
0
LINE
8
BLACK
6
CONTINUOUS
10
0.308731
20
-1.52867
11
0.313392
21
-1.52401
0
LINE
8
BLACK
6
CONTINUOUS
10
0.313392
20
-1.52401
11
0.318873
21
-1.52034
0
LINE
8
BLACK
6
CONTINUOUS
10
0.318873
20
-1.52034
11
0.324963
21
-1.51782
0
LINE
8
BLACK
6
CONTINUOUS
10
0.324963
20
-1.51782
11
0.331428
21
-1.51654
0
LINE
8
BLACK
6
CONTINUOUS
10
0.331428
20
-1.51654
11
0.33802
21
-1.51654
0
LINE
8
BLACK
6
CONTINUOUS
10
0.33802
20
-1.51654
11
0.344486
21
-1.51782
0
LINE
8
BLACK
6
CONTINUOUS
10
0.145276
20
-1.51528
11
0.0547244
21
-1.51528
0
LINE
8
BLACK
6
CONTINUOUS
10
0.0547244
20
-1.51528
11
0.0547244
21
-1.42472
0
LINE
8
BLACK
6
CONTINUOUS
10
0.0547244
20
-1.42472
11
0.145276
21
-1.42472
0
LINE
8
BLACK
6
CONTINUOUS
10
0.145276
20
-1.42472
11
0.145276
21
-1.51528
0
LINE
8
BLACK
6
CONTINUOUS
10
0.696464
20
-1.30068
11
0.698449
21
-1.30128
0
LINE
8
BLACK
6
CONTINUOUS
10
0.698449
20
-1.30128
11
0.700278
21
-1.30226
0
LINE
8
BLACK
6
CONTINUOUS
10
0.700278
20
-1.30226
11
0.701881
21
-1.30357
0
LINE
8
BLACK
6
CONTINUOUS
10
0.701881
20
-1.30357
11
0.703197
21
-1.30517
0
LINE
8
BLACK
6
CONTINUOUS
10
0.703197
20
-1.30517
11
0.704175
21
-1.307
0
LINE
8
BLACK
6
CONTINUOUS
10
0.704175
20
-1.307
11
0.704777
21
-1.30899
0
LINE
8
BLACK
6
CONTINUOUS
10
0.704777
20
-1.30899
11
0.70498
21
-1.31105
0
LINE
8
BLACK
6
CONTINUOUS
10
0.70498
20
-1.31105
11
0.70498
21
-1.34895
0
LINE
8
BLACK
6
CONTINUOUS
10
0.70498
20
-1.34895
11
0.704777
21
-1.35101
0
LINE
8
BLACK
6
CONTINUOUS
10
0.704777
20
-1.35101
11
0.704175
21
-1.353
0
LINE
8
BLACK
6
CONTINUOUS
10
0.704175
20
-1.353
11
0.703197
21
-1.35483
0
LINE
8
BLACK
6
CONTINUOUS
10
0.703197
20
-1.35483
11
0.701881
21
-1.35643
0
LINE
8
BLACK
6
CONTINUOUS
10
0.701881
20
-1.35643
11
0.700278
21
-1.35774
0
LINE
8
BLACK
6
CONTINUOUS
10
0.700278
20
-1.35774
11
0.698449
21
-1.35872
0
LINE
8
BLACK
6
CONTINUOUS
10
0.698449
20
-1.35872
11
0.696464
21
-1.35932
0
LINE
8
BLACK
6
CONTINUOUS
10
0.696464
20
-1.35932
11
0.6944
21
-1.35953
0
LINE
8
BLACK
6
CONTINUOUS
10
0.6944
20
-1.35953
11
0.673238
21
-1.35953
0
LINE
8
BLACK
6
CONTINUOUS
10
0.673238
20
-1.35953
11
0.671174
21
-1.35932
0
LINE
8
BLACK
6
CONTINUOUS
10
0.671174
20
-1.35932
11
0.669189
21
-1.35872
0
LINE
8
BLACK
6
CONTINUOUS
10
0.669189
20
-1.35872
11
0.66736
21
-1.35774
0
LINE
8
BLACK
6
CONTINUOUS
10
0.66736
20
-1.35774
11
0.665756
21
-1.35643
0
LINE
8
BLACK
6
CONTINUOUS
10
0.665756
20
-1.35643
11
0.664441
21
-1.35483
0
LINE
8
BLACK
6
CONTINUOUS
10
0.664441
20
-1.35483
11
0.663463
21
-1.353
0
LINE
8
BLACK
6
CONTINUOUS
10
0.663463
20
-1.353
11
0.662861
21
-1.35101
0
LINE
8
BLACK
6
CONTINUOUS
10
0.662861
20
-1.35101
11
0.662657
21
-1.34895
0
LINE
8
BLACK
6
CONTINUOUS
10
0.662657
20
-1.34895
11
0.662657
21
-1.31105
0
LINE
8
BLACK
6
CONTINUOUS
10
0.662657
20
-1.31105
11
0.662861
21
-1.30899
0
LINE
8
BLACK
6
CONTINUOUS
10
0.662861
20
-1.30899
11
0.663463
21
-1.307
0
LINE
8
BLACK
6
CONTINUOUS
10
0.663463
20
-1.307
11
0.664441
21
-1.30517
0
LINE
8
BLACK
6
CONTINUOUS
10
0.664441
20
-1.30517
11
0.665756
21
-1.30357
0
LINE
8
BLACK
6
CONTINUOUS
10
0.665756
20
-1.30357
11
0.66736
21
-1.30226
0
LINE
8
BLACK
6
CONTINUOUS
10
0.66736
20
-1.30226
11
0.669189
21
-1.30128
0
LINE
8
BLACK
6
CONTINUOUS
10
0.669189
20
-1.30128
11
0.671174
21
-1.30068
0
LINE
8
BLACK
6
CONTINUOUS
10
0.671174
20
-1.30068
11
0.673238
21
-1.30047
0
LINE
8
BLACK
6
CONTINUOUS
10
0.673238
20
-1.30047
11
0.6944
21
-1.30047
0
LINE
8
BLACK
6
CONTINUOUS
10
0.6944
20
-1.30047
11
0.696464
21
-1.30068
0
LINE
8
BLACK
6
CONTINUOUS
10
0.622645
20
-1.30068
11
0.62463
21
-1.30128
0
LINE
8
BLACK
6
CONTINUOUS
10
0.62463
20
-1.30128
11
0.626459
21
-1.30226
0
LINE
8
BLACK
6
CONTINUOUS
10
0.626459
20
-1.30226
11
0.628062
21
-1.30357
0
LINE
8
BLACK
6
CONTINUOUS
10
0.628062
20
-1.30357
11
0.629378
21
-1.30517
0
LINE
8
BLACK
6
CONTINUOUS
10
0.629378
20
-1.30517
11
0.630356
21
-1.307
0
LINE
8
BLACK
6
CONTINUOUS
10
0.630356
20
-1.307
11
0.630958
21
-1.30899
0
LINE
8
BLACK
6
CONTINUOUS
10
0.630958
20
-1.30899
11
0.631161
21
-1.31105
0
LINE
8
BLACK
6
CONTINUOUS
10
0.631161
20
-1.31105
11
0.631161
21
-1.34895
0
LINE
8
BLACK
6
CONTINUOUS
10
0.631161
20
-1.34895
11
0.630958
21
-1.35101
0
LINE
8
BLACK
6
CONTINUOUS
10
0.630958
20
-1.35101
11
0.630356
21
-1.353
0
LINE
8
BLACK
6
CONTINUOUS
10
0.630356
20
-1.353
11
0.629378
21
-1.35483
0
LINE
8
BLACK
6
CONTINUOUS
10
0.629378
20
-1.35483
11
0.628062
21
-1.35643
0
LINE
8
BLACK
6
CONTINUOUS
10
0.628062
20
-1.35643
11
0.626459
21
-1.35774
0
LINE
8
BLACK
6
CONTINUOUS
10
0.626459
20
-1.35774
11
0.62463
21
-1.35872
0
LINE
8
BLACK
6
CONTINUOUS
10
0.62463
20
-1.35872
11
0.622645
21
-1.35932
0
LINE
8
BLACK
6
CONTINUOUS
10
0.622645
20
-1.35932
11
0.620581
21
-1.35953
0
LINE
8
BLACK
6
CONTINUOUS
10
0.620581
20
-1.35953
11
0.599419
21
-1.35953
0
LINE
8
BLACK
6
CONTINUOUS
10
0.599419
20
-1.35953
11
0.597355
21
-1.35932
0
LINE
8
BLACK
6
CONTINUOUS
10
0.597355
20
-1.35932
11
0.59537
21
-1.35872
0
LINE
8
BLACK
6
CONTINUOUS
10
0.59537
20
-1.35872
11
0.593541
21
-1.35774
0
LINE
8
BLACK
6
CONTINUOUS
10
0.593541
20
-1.35774
11
0.591938
21
-1.35643
0
LINE
8
BLACK
6
CONTINUOUS
10
0.591938
20
-1.35643
11
0.590622
21
-1.35483
0
LINE
8
BLACK
6
CONTINUOUS
10
0.590622
20
-1.35483
11
0.589644
21
-1.353
0
LINE
8
BLACK
6
CONTINUOUS
10
0.589644
20
-1.353
11
0.589042
21
-1.35101
0
LINE
8
BLACK
6
CONTINUOUS
10
0.589042
20
-1.35101
11
0.588839
21
-1.34895
0
LINE
8
BLACK
6
CONTINUOUS
10
0.588839
20
-1.34895
11
0.588839
21
-1.31105
0
LINE
8
BLACK
6
CONTINUOUS
10
0.588839
20
-1.31105
11
0.589042
21
-1.30899
0
LINE
8
BLACK
6
CONTINUOUS
10
0.589042
20
-1.30899
11
0.589644
21
-1.307
0
LINE
8
BLACK
6
CONTINUOUS
10
0.589644
20
-1.307
11
0.590622
21
-1.30517
0
LINE
8
BLACK
6
CONTINUOUS
10
0.590622
20
-1.30517
11
0.591938
21
-1.30357
0
LINE
8
BLACK
6
CONTINUOUS
10
0.591938
20
-1.30357
11
0.593541
21
-1.30226
0
LINE
8
BLACK
6
CONTINUOUS
10
0.593541
20
-1.30226
11
0.59537
21
-1.30128
0
LINE
8
BLACK
6
CONTINUOUS
10
0.59537
20
-1.30128
11
0.597355
21
-1.30068
0
LINE
8
BLACK
6
CONTINUOUS
10
0.597355
20
-1.30068
11
0.599419
21
-1.30047
0
LINE
8
BLACK
6
CONTINUOUS
10
0.599419
20
-1.30047
11
0.620581
21
-1.30047
0
LINE
8
BLACK
6
CONTINUOUS
10
0.620581
20
-1.30047
11
0.622645
21
-1.30068
0
LINE
8
BLACK
6
CONTINUOUS
10
0.770315
20
-1.35512
11
0.730945
21
-1.35512
0
LINE
8
BLACK
6
CONTINUOUS
10
0.730945
20
-1.35512
11
0.730945
21
-1.31969
0
LINE
8
BLACK
6
CONTINUOUS
10
0.730945
20
-1.31969
11
0.770315
21
-1.31969
0
LINE
8
BLACK
6
CONTINUOUS
10
0.770315
20
-1.31969
11
0.770315
21
-1.35512
0
LINE
8
BLACK
6
CONTINUOUS
10
0.849055
20
-1.31772
11
0.809685
21
-1.31772
0
LINE
8
BLACK
6
CONTINUOUS
10
0.809685
20
-1.31772
11
0.809685
21
-1.28228
0
LINE
8
BLACK
6
CONTINUOUS
10
0.809685
20
-1.28228
11
0.849055
21
-1.28228
0
LINE
8
BLACK
6
CONTINUOUS
10
0.849055
20
-1.28228
11
0.849055
21
-1.31772
0
LINE
8
BLACK
6
CONTINUOUS
10
0.770315
20
-1.28031
11
0.730945
21
-1.28031
0
LINE
8
BLACK
6
CONTINUOUS
10
0.730945
20
-1.28031
11
0.730945
21
-1.24488
0
LINE
8
BLACK
6
CONTINUOUS
10
0.730945
20
-1.24488
11
0.770315
21
-1.24488
0
LINE
8
BLACK
6
CONTINUOUS
10
0.770315
20
-1.24488
11
0.770315
21
-1.28031
0
LINE
8
BLACK
6
CONTINUOUS
10
0.113206
20
-1.02646
11
0.121446
21
-1.02988
0
LINE
8
BLACK
6
CONTINUOUS
10
0.121446
20
-1.02988
11
0.128861
21
-1.03483
0
LINE
8
BLACK
6
CONTINUOUS
10
0.128861
20
-1.03483
11
0.135168
21
-1.04114
0
LINE
8
BLACK
6
CONTINUOUS
10
0.135168
20
-1.04114
11
0.140123
21
-1.04855
0
LINE
8
BLACK
6
CONTINUOUS
10
0.140123
20
-1.04855
11
0.143536
21
-1.05679
0
LINE
8
BLACK
6
CONTINUOUS
10
0.143536
20
-1.05679
11
0.145276
21
-1.06554
0
LINE
8
BLACK
6
CONTINUOUS
10
0.145276
20
-1.06554
11
0.145276
21
-1.07446
0
LINE
8
BLACK
6
CONTINUOUS
10
0.145276
20
-1.07446
11
0.143536
21
-1.08321
0
LINE
8
BLACK
6
CONTINUOUS
10
0.143536
20
-1.08321
11
0.140123
21
-1.09145
0
LINE
8
BLACK
6
CONTINUOUS
10
0.140123
20
-1.09145
11
0.135168
21
-1.09886
0
LINE
8
BLACK
6
CONTINUOUS
10
0.135168
20
-1.09886
11
0.128861
21
-1.10517
0
LINE
8
BLACK
6
CONTINUOUS
10
0.128861
20
-1.10517
11
0.121446
21
-1.11012
0
LINE
8
BLACK
6
CONTINUOUS
10
0.121446
20
-1.11012
11
0.113206
21
-1.11354
0
LINE
8
BLACK
6
CONTINUOUS
10
0.113206
20
-1.11354
11
0.104459
21
-1.11528
0
LINE
8
BLACK
6
CONTINUOUS
10
0.104459
20
-1.11528
11
0.0955407
21
-1.11528
0
LINE
8
BLACK
6
CONTINUOUS
10
0.0955407
20
-1.11528
11
0.0867936
21
-1.11354
0
LINE
8
BLACK
6
CONTINUOUS
10
0.0867936
20
-1.11354
11
0.078554
21
-1.11012
0
LINE
8
BLACK
6
CONTINUOUS
10
0.078554
20
-1.11012
11
0.0711385
21
-1.10517
0
LINE
8
BLACK
6
CONTINUOUS
10
0.0711385
20
-1.10517
11
0.0648322
21
-1.09886
0
LINE
8
BLACK
6
CONTINUOUS
10
0.0648322
20
-1.09886
11
0.0598773
21
-1.09145
0
LINE
8
BLACK
6
CONTINUOUS
10
0.0598773
20
-1.09145
11
0.0564643
21
-1.08321
0
LINE
8
BLACK
6
CONTINUOUS
10
0.0564643
20
-1.08321
11
0.0547244
21
-1.07446
0
LINE
8
BLACK
6
CONTINUOUS
10
0.0547244
20
-1.07446
11
0.0547244
21
-1.06554
0
LINE
8
BLACK
6
CONTINUOUS
10
0.0547244
20
-1.06554
11
0.0564643
21
-1.05679
0
LINE
8
BLACK
6
CONTINUOUS
10
0.0564643
20
-1.05679
11
0.0598773
21
-1.04855
0
LINE
8
BLACK
6
CONTINUOUS
10
0.0598773
20
-1.04855
11
0.0648322
21
-1.04114
0
LINE
8
BLACK
6
CONTINUOUS
10
0.0648322
20
-1.04114
11
0.0711385
21
-1.03483
0
LINE
8
BLACK
6
CONTINUOUS
10
0.0711385
20
-1.03483
11
0.078554
21
-1.02988
0
LINE
8
BLACK
6
CONTINUOUS
10
0.078554
20
-1.02988
11
0.0867936
21
-1.02646
0
LINE
8
BLACK
6
CONTINUOUS
10
0.0867936
20
-1.02646
11
0.0955407
21
-1.02472
0
LINE
8
BLACK
6
CONTINUOUS
10
0.0955407
20
-1.02472
11
0.104459
21
-1.02472
0
LINE
8
BLACK
6
CONTINUOUS
10
0.104459
20
-1.02472
11
0.113206
21
-1.02646
0
LINE
8
BLACK
6
CONTINUOUS
10
1.54543
20
-0.455433
11
1.47457
21
-0.455433
0
LINE
8
BLACK
6
CONTINUOUS
10
1.47457
20
-0.455433
11
1.47457
21
-0.384567
0
LINE
8
BLACK
6
CONTINUOUS
10
1.47457
20
-0.384567
11
1.54543
21
-0.384567
0
LINE
8
BLACK
6
CONTINUOUS
10
1.54543
20
-0.384567
11
1.54543
21
-0.455433
0
LINE
8
BLACK
6
CONTINUOUS
10
1.42034
20
-0.385929
11
1.42678
21
-0.3886
0
LINE
8
BLACK
6
CONTINUOUS
10
1.42678
20
-0.3886
11
1.43259
21
-0.392477
0
LINE
8
BLACK
6
CONTINUOUS
10
1.43259
20
-0.392477
11
1.43752
21
-0.397413
0
LINE
8
BLACK
6
CONTINUOUS
10
1.43752
20
-0.397413
11
1.4414
21
-0.403216
0
LINE
8
BLACK
6
CONTINUOUS
10
1.4414
20
-0.403216
11
1.44407
21
-0.409665
0
LINE
8
BLACK
6
CONTINUOUS
10
1.44407
20
-0.409665
11
1.44543
21
-0.41651
0
LINE
8
BLACK
6
CONTINUOUS
10
1.44543
20
-0.41651
11
1.44543
21
-0.42349
0
LINE
8
BLACK
6
CONTINUOUS
10
1.44543
20
-0.42349
11
1.44407
21
-0.430335
0
LINE
8
BLACK
6
CONTINUOUS
10
1.44407
20
-0.430335
11
1.4414
21
-0.436784
0
LINE
8
BLACK
6
CONTINUOUS
10
1.4414
20
-0.436784
11
1.43752
21
-0.442587
0
LINE
8
BLACK
6
CONTINUOUS
10
1.43752
20
-0.442587
11
1.43259
21
-0.447523
0
LINE
8
BLACK
6
CONTINUOUS
10
1.43259
20
-0.447523
11
1.42678
21
-0.4514
0
LINE
8
BLACK
6
CONTINUOUS
10
1.42678
20
-0.4514
11
1.42034
21
-0.454071
0
LINE
8
BLACK
6
CONTINUOUS
10
1.42034
20
-0.454071
11
1.41349
21
-0.455433
0
LINE
8
BLACK
6
CONTINUOUS
10
1.41349
20
-0.455433
11
1.40651
21
-0.455433
0
LINE
8
BLACK
6
CONTINUOUS
10
1.40651
20
-0.455433
11
1.39966
21
-0.454071
0
LINE
8
BLACK
6
CONTINUOUS
10
1.39966
20
-0.454071
11
1.39322
21
-0.4514
0
LINE
8
BLACK
6
CONTINUOUS
10
1.39322
20
-0.4514
11
1.38741
21
-0.447523
0
LINE
8
BLACK
6
CONTINUOUS
10
1.38741
20
-0.447523
11
1.38248
21
-0.442587
0
LINE
8
BLACK
6
CONTINUOUS
10
1.38248
20
-0.442587
11
1.3786
21
-0.436784
0
LINE
8
BLACK
6
CONTINUOUS
10
1.3786
20
-0.436784
11
1.37593
21
-0.430335
0
LINE
8
BLACK
6
CONTINUOUS
10
1.37593
20
-0.430335
11
1.37457
21
-0.42349
0
LINE
8
BLACK
6
CONTINUOUS
10
1.37457
20
-0.42349
11
1.37457
21
-0.41651
0
LINE
8
BLACK
6
CONTINUOUS
10
1.37457
20
-0.41651
11
1.37593
21
-0.409665
0
LINE
8
BLACK
6
CONTINUOUS
10
1.37593
20
-0.409665
11
1.3786
21
-0.403216
0
LINE
8
BLACK
6
CONTINUOUS
10
1.3786
20
-0.403216
11
1.38248
21
-0.397413
0
LINE
8
BLACK
6
CONTINUOUS
10
1.38248
20
-0.397413
11
1.38741
21
-0.392477
0
LINE
8
BLACK
6
CONTINUOUS
10
1.38741
20
-0.392477
11
1.39322
21
-0.3886
0
LINE
8
BLACK
6
CONTINUOUS
10
1.39322
20
-0.3886
11
1.39966
21
-0.385929
0
LINE
8
BLACK
6
CONTINUOUS
10
1.39966
20
-0.385929
11
1.40651
21
-0.384567
0
LINE
8
BLACK
6
CONTINUOUS
10
1.40651
20
-0.384567
11
1.41349
21
-0.384567
0
LINE
8
BLACK
6
CONTINUOUS
10
1.41349
20
-0.384567
11
1.42034
21
-0.385929
0
LINE
8
BLACK
6
CONTINUOUS
10
1.32034
20
-0.385929
11
1.32678
21
-0.3886
0
LINE
8
BLACK
6
CONTINUOUS
10
1.32678
20
-0.3886
11
1.33259
21
-0.392477
0
LINE
8
BLACK
6
CONTINUOUS
10
1.33259
20
-0.392477
11
1.33752
21
-0.397413
0
LINE
8
BLACK
6
CONTINUOUS
10
1.33752
20
-0.397413
11
1.3414
21
-0.403216
0
LINE
8
BLACK
6
CONTINUOUS
10
1.3414
20
-0.403216
11
1.34407
21
-0.409665
0
LINE
8
BLACK
6
CONTINUOUS
10
1.34407
20
-0.409665
11
1.34543
21
-0.41651
0
LINE
8
BLACK
6
CONTINUOUS
10
1.34543
20
-0.41651
11
1.34543
21
-0.42349
0
LINE
8
BLACK
6
CONTINUOUS
10
1.34543
20
-0.42349
11
1.34407
21
-0.430335
0
LINE
8
BLACK
6
CONTINUOUS
10
1.34407
20
-0.430335
11
1.3414
21
-0.436784
0
LINE
8
BLACK
6
CONTINUOUS
10
1.3414
20
-0.436784
11
1.33752
21
-0.442587
0
LINE
8
BLACK
6
CONTINUOUS
10
1.33752
20
-0.442587
11
1.33259
21
-0.447523
0
LINE
8
BLACK
6
CONTINUOUS
10
1.33259
20
-0.447523
11
1.32678
21
-0.4514
0
LINE
8
BLACK
6
CONTINUOUS
10
1.32678
20
-0.4514
11
1.32034
21
-0.454071
0
LINE
8
BLACK
6
CONTINUOUS
10
1.32034
20
-0.454071
11
1.31349
21
-0.455433
0
LINE
8
BLACK
6
CONTINUOUS
10
1.31349
20
-0.455433
11
1.30651
21
-0.455433
0
LINE
8
BLACK
6
CONTINUOUS
10
1.30651
20
-0.455433
11
1.29966
21
-0.454071
0
LINE
8
BLACK
6
CONTINUOUS
10
1.29966
20
-0.454071
11
1.29322
21
-0.4514
0
LINE
8
BLACK
6
CONTINUOUS
10
1.29322
20
-0.4514
11
1.28741
21
-0.447523
0
LINE
8
BLACK
6
CONTINUOUS
10
1.28741
20
-0.447523
11
1.28248
21
-0.442587
0
LINE
8
BLACK
6
CONTINUOUS
10
1.28248
20
-0.442587
11
1.2786
21
-0.436784
0
LINE
8
BLACK
6
CONTINUOUS
10
1.2786
20
-0.436784
11
1.27593
21
-0.430335
0
LINE
8
BLACK
6
CONTINUOUS
10
1.27593
20
-0.430335
11
1.27457
21
-0.42349
0
LINE
8
BLACK
6
CONTINUOUS
10
1.27457
20
-0.42349
11
1.27457
21
-0.41651
0
LINE
8
BLACK
6
CONTINUOUS
10
1.27457
20
-0.41651
11
1.27593
21
-0.409665
0
LINE
8
BLACK
6
CONTINUOUS
10
1.27593
20
-0.409665
11
1.2786
21
-0.403216
0
LINE
8
BLACK
6
CONTINUOUS
10
1.2786
20
-0.403216
11
1.28248
21
-0.397413
0
LINE
8
BLACK
6
CONTINUOUS
10
1.28248
20
-0.397413
11
1.28741
21
-0.392477
0
LINE
8
BLACK
6
CONTINUOUS
10
1.28741
20
-0.392477
11
1.29322
21
-0.3886
0
LINE
8
BLACK
6
CONTINUOUS
10
1.29322
20
-0.3886
11
1.29966
21
-0.385929
0
LINE
8
BLACK
6
CONTINUOUS
10
1.29966
20
-0.385929
11
1.30651
21
-0.384567
0
LINE
8
BLACK
6
CONTINUOUS
10
1.30651
20
-0.384567
11
1.31349
21
-0.384567
0
LINE
8
BLACK
6
CONTINUOUS
10
1.31349
20
-0.384567
11
1.32034
21
-0.385929
0
LINE
8
BLACK
6
CONTINUOUS
10
1.22034
20
-0.385929
11
1.22678
21
-0.3886
0
LINE
8
BLACK
6
CONTINUOUS
10
1.22678
20
-0.3886
11
1.23259
21
-0.392477
0
LINE
8
BLACK
6
CONTINUOUS
10
1.23259
20
-0.392477
11
1.23752
21
-0.397413
0
LINE
8
BLACK
6
CONTINUOUS
10
1.23752
20
-0.397413
11
1.2414
21
-0.403216
0
LINE
8
BLACK
6
CONTINUOUS
10
1.2414
20
-0.403216
11
1.24407
21
-0.409665
0
LINE
8
BLACK
6
CONTINUOUS
10
1.24407
20
-0.409665
11
1.24543
21
-0.41651
0
LINE
8
BLACK
6
CONTINUOUS
10
1.24543
20
-0.41651
11
1.24543
21
-0.42349
0
LINE
8
BLACK
6
CONTINUOUS
10
1.24543
20
-0.42349
11
1.24407
21
-0.430335
0
LINE
8
BLACK
6
CONTINUOUS
10
1.24407
20
-0.430335
11
1.2414
21
-0.436784
0
LINE
8
BLACK
6
CONTINUOUS
10
1.2414
20
-0.436784
11
1.23752
21
-0.442587
0
LINE
8
BLACK
6
CONTINUOUS
10
1.23752
20
-0.442587
11
1.23259
21
-0.447523
0
LINE
8
BLACK
6
CONTINUOUS
10
1.23259
20
-0.447523
11
1.22678
21
-0.4514
0
LINE
8
BLACK
6
CONTINUOUS
10
1.22678
20
-0.4514
11
1.22034
21
-0.454071
0
LINE
8
BLACK
6
CONTINUOUS
10
1.22034
20
-0.454071
11
1.21349
21
-0.455433
0
LINE
8
BLACK
6
CONTINUOUS
10
1.21349
20
-0.455433
11
1.20651
21
-0.455433
0
LINE
8
BLACK
6
CONTINUOUS
10
1.20651
20
-0.455433
11
1.19966
21
-0.454071
0
LINE
8
BLACK
6
CONTINUOUS
10
1.19966
20
-0.454071
11
1.19322
21
-0.4514
0
LINE
8
BLACK
6
CONTINUOUS
10
1.19322
20
-0.4514
11
1.18741
21
-0.447523
0
LINE
8
BLACK
6
CONTINUOUS
10
1.18741
20
-0.447523
11
1.18248
21
-0.442587
0
LINE
8
BLACK
6
CONTINUOUS
10
1.18248
20
-0.442587
11
1.1786
21
-0.436784
0
LINE
8
BLACK
6
CONTINUOUS
10
1.1786
20
-0.436784
11
1.17593
21
-0.430335
0
LINE
8
BLACK
6
CONTINUOUS
10
1.17593
20
-0.430335
11
1.17457
21
-0.42349
0
LINE
8
BLACK
6
CONTINUOUS
10
1.17457
20
-0.42349
11
1.17457
21
-0.41651
0
LINE
8
BLACK
6
CONTINUOUS
10
1.17457
20
-0.41651
11
1.17593
21
-0.409665
0
LINE
8
BLACK
6
CONTINUOUS
10
1.17593
20
-0.409665
11
1.1786
21
-0.403216
0
LINE
8
BLACK
6
CONTINUOUS
10
1.1786
20
-0.403216
11
1.18248
21
-0.397413
0
LINE
8
BLACK
6
CONTINUOUS
10
1.18248
20
-0.397413
11
1.18741
21
-0.392477
0
LINE
8
BLACK
6
CONTINUOUS
10
1.18741
20
-0.392477
11
1.19322
21
-0.3886
0
LINE
8
BLACK
6
CONTINUOUS
10
1.19322
20
-0.3886
11
1.19966
21
-0.385929
0
LINE
8
BLACK
6
CONTINUOUS
10
1.19966
20
-0.385929
11
1.20651
21
-0.384567
0
LINE
8
BLACK
6
CONTINUOUS
10
1.20651
20
-0.384567
11
1.21349
21
-0.384567
0
LINE
8
BLACK
6
CONTINUOUS
10
1.21349
20
-0.384567
11
1.22034
21
-0.385929
0
LINE
8
BLACK
6
CONTINUOUS
10
1.12034
20
-0.385929
11
1.12678
21
-0.3886
0
LINE
8
BLACK
6
CONTINUOUS
10
1.12678
20
-0.3886
11
1.13259
21
-0.392477
0
LINE
8
BLACK
6
CONTINUOUS
10
1.13259
20
-0.392477
11
1.13752
21
-0.397413
0
LINE
8
BLACK
6
CONTINUOUS
10
1.13752
20
-0.397413
11
1.1414
21
-0.403216
0
LINE
8
BLACK
6
CONTINUOUS
10
1.1414
20
-0.403216
11
1.14407
21
-0.409665
0
LINE
8
BLACK
6
CONTINUOUS
10
1.14407
20
-0.409665
11
1.14543
21
-0.41651
0
LINE
8
BLACK
6
CONTINUOUS
10
1.14543
20
-0.41651
11
1.14543
21
-0.42349
0
LINE
8
BLACK
6
CONTINUOUS
10
1.14543
20
-0.42349
11
1.14407
21
-0.430335
0
LINE
8
BLACK
6
CONTINUOUS
10
1.14407
20
-0.430335
11
1.1414
21
-0.436784
0
LINE
8
BLACK
6
CONTINUOUS
10
1.1414
20
-0.436784
11
1.13752
21
-0.442587
0
LINE
8
BLACK
6
CONTINUOUS
10
1.13752
20
-0.442587
11
1.13259
21
-0.447523
0
LINE
8
BLACK
6
CONTINUOUS
10
1.13259
20
-0.447523
11
1.12678
21
-0.4514
0
LINE
8
BLACK
6
CONTINUOUS
10
1.12678
20
-0.4514
11
1.12034
21
-0.454071
0
LINE
8
BLACK
6
CONTINUOUS
10
1.12034
20
-0.454071
11
1.11349
21
-0.455433
0
LINE
8
BLACK
6
CONTINUOUS
10
1.11349
20
-0.455433
11
1.10651
21
-0.455433
0
LINE
8
BLACK
6
CONTINUOUS
10
1.10651
20
-0.455433
11
1.09966
21
-0.454071
0
LINE
8
BLACK
6
CONTINUOUS
10
1.09966
20
-0.454071
11
1.09322
21
-0.4514
0
LINE
8
BLACK
6
CONTINUOUS
10
1.09322
20
-0.4514
11
1.08741
21
-0.447523
0
LINE
8
BLACK
6
CONTINUOUS
10
1.08741
20
-0.447523
11
1.08248
21
-0.442587
0
LINE
8
BLACK
6
CONTINUOUS
10
1.08248
20
-0.442587
11
1.0786
21
-0.436784
0
LINE
8
BLACK
6
CONTINUOUS
10
1.0786
20
-0.436784
11
1.07593
21
-0.430335
0
LINE
8
BLACK
6
CONTINUOUS
10
1.07593
20
-0.430335
11
1.07457
21
-0.42349
0
LINE
8
BLACK
6
CONTINUOUS
10
1.07457
20
-0.42349
11
1.07457
21
-0.41651
0
LINE
8
BLACK
6
CONTINUOUS
10
1.07457
20
-0.41651
11
1.07593
21
-0.409665
0
LINE
8
BLACK
6
CONTINUOUS
10
1.07593
20
-0.409665
11
1.0786
21
-0.403216
0
LINE
8
BLACK
6
CONTINUOUS
10
1.0786
20
-0.403216
11
1.08248
21
-0.397413
0
LINE
8
BLACK
6
CONTINUOUS
10
1.08248
20
-0.397413
11
1.08741
21
-0.392477
0
LINE
8
BLACK
6
CONTINUOUS
10
1.08741
20
-0.392477
11
1.09322
21
-0.3886
0
LINE
8
BLACK
6
CONTINUOUS
10
1.09322
20
-0.3886
11
1.09966
21
-0.385929
0
LINE
8
BLACK
6
CONTINUOUS
10
1.09966
20
-0.385929
11
1.10651
21
-0.384567
0
LINE
8
BLACK
6
CONTINUOUS
10
1.10651
20
-0.384567
11
1.11349
21
-0.384567
0
LINE
8
BLACK
6
CONTINUOUS
10
1.11349
20
-0.384567
11
1.12034
21
-0.385929
0
LINE
8
BLACK
6
CONTINUOUS
10
1.02034
20
-0.385929
11
1.02678
21
-0.3886
0
LINE
8
BLACK
6
CONTINUOUS
10
1.02678
20
-0.3886
11
1.03259
21
-0.392477
0
LINE
8
BLACK
6
CONTINUOUS
10
1.03259
20
-0.392477
11
1.03752
21
-0.397413
0
LINE
8
BLACK
6
CONTINUOUS
10
1.03752
20
-0.397413
11
1.0414
21
-0.403216
0
LINE
8
BLACK
6
CONTINUOUS
10
1.0414
20
-0.403216
11
1.04407
21
-0.409665
0
LINE
8
BLACK
6
CONTINUOUS
10
1.04407
20
-0.409665
11
1.04543
21
-0.41651
0
LINE
8
BLACK
6
CONTINUOUS
10
1.04543
20
-0.41651
11
1.04543
21
-0.42349
0
LINE
8
BLACK
6
CONTINUOUS
10
1.04543
20
-0.42349
11
1.04407
21
-0.430335
0
LINE
8
BLACK
6
CONTINUOUS
10
1.04407
20
-0.430335
11
1.0414
21
-0.436784
0
LINE
8
BLACK
6
CONTINUOUS
10
1.0414
20
-0.436784
11
1.03752
21
-0.442587
0
LINE
8
BLACK
6
CONTINUOUS
10
1.03752
20
-0.442587
11
1.03259
21
-0.447523
0
LINE
8
BLACK
6
CONTINUOUS
10
1.03259
20
-0.447523
11
1.02678
21
-0.4514
0
LINE
8
BLACK
6
CONTINUOUS
10
1.02678
20
-0.4514
11
1.02034
21
-0.454071
0
LINE
8
BLACK
6
CONTINUOUS
10
1.02034
20
-0.454071
11
1.01349
21
-0.455433
0
LINE
8
BLACK
6
CONTINUOUS
10
1.01349
20
-0.455433
11
1.00651
21
-0.455433
0
LINE
8
BLACK
6
CONTINUOUS
10
1.00651
20
-0.455433
11
0.999665
21
-0.454071
0
LINE
8
BLACK
6
CONTINUOUS
10
0.999665
20
-0.454071
11
0.993216
21
-0.4514
0
LINE
8
BLACK
6
CONTINUOUS
10
0.993216
20
-0.4514
11
0.987413
21
-0.447523
0
LINE
8
BLACK
6
CONTINUOUS
10
0.987413
20
-0.447523
11
0.982477
21
-0.442587
0
LINE
8
BLACK
6
CONTINUOUS
10
0.982477
20
-0.442587
11
0.9786
21
-0.436784
0
LINE
8
BLACK
6
CONTINUOUS
10
0.9786
20
-0.436784
11
0.975929
21
-0.430335
0
LINE
8
BLACK
6
CONTINUOUS
10
0.975929
20
-0.430335
11
0.974567
21
-0.42349
0
LINE
8
BLACK
6
CONTINUOUS
10
0.974567
20
-0.42349
11
0.974567
21
-0.41651
0
LINE
8
BLACK
6
CONTINUOUS
10
0.974567
20
-0.41651
11
0.975929
21
-0.409665
0
LINE
8
BLACK
6
CONTINUOUS
10
0.975929
20
-0.409665
11
0.9786
21
-0.403216
0
LINE
8
BLACK
6
CONTINUOUS
10
0.9786
20
-0.403216
11
0.982477
21
-0.397413
0
LINE
8
BLACK
6
CONTINUOUS
10
0.982477
20
-0.397413
11
0.987413
21
-0.392477
0
LINE
8
BLACK
6
CONTINUOUS
10
0.987413
20
-0.392477
11
0.993216
21
-0.3886
0
LINE
8
BLACK
6
CONTINUOUS
10
0.993216
20
-0.3886
11
0.999665
21
-0.385929
0
LINE
8
BLACK
6
CONTINUOUS
10
0.999665
20
-0.385929
11
1.00651
21
-0.384567
0
LINE
8
BLACK
6
CONTINUOUS
10
1.00651
20
-0.384567
11
1.01349
21
-0.384567
0
LINE
8
BLACK
6
CONTINUOUS
10
1.01349
20
-0.384567
11
1.02034
21
-0.385929
0
LINE
8
BLACK
6
CONTINUOUS
10
0.920335
20
-0.385929
11
0.926784
21
-0.3886
0
LINE
8
BLACK
6
CONTINUOUS
10
0.926784
20
-0.3886
11
0.932587
21
-0.392477
0
LINE
8
BLACK
6
CONTINUOUS
10
0.932587
20
-0.392477
11
0.937523
21
-0.397413
0
LINE
8
BLACK
6
CONTINUOUS
10
0.937523
20
-0.397413
11
0.9414
21
-0.403216
0
LINE
8
BLACK
6
CONTINUOUS
10
0.9414
20
-0.403216
11
0.944071
21
-0.409665
0
LINE
8
BLACK
6
CONTINUOUS
10
0.944071
20
-0.409665
11
0.945433
21
-0.41651
0
LINE
8
BLACK
6
CONTINUOUS
10
0.945433
20
-0.41651
11
0.945433
21
-0.42349
0
LINE
8
BLACK
6
CONTINUOUS
10
0.945433
20
-0.42349
11
0.944071
21
-0.430335
0
LINE
8
BLACK
6
CONTINUOUS
10
0.944071
20
-0.430335
11
0.9414
21
-0.436784
0
LINE
8
BLACK
6
CONTINUOUS
10
0.9414
20
-0.436784
11
0.937523
21
-0.442587
0
LINE
8
BLACK
6
CONTINUOUS
10
0.937523
20
-0.442587
11
0.932587
21
-0.447523
0
LINE
8
BLACK
6
CONTINUOUS
10
0.932587
20
-0.447523
11
0.926784
21
-0.4514
0
LINE
8
BLACK
6
CONTINUOUS
10
0.926784
20
-0.4514
11
0.920335
21
-0.454071
0
LINE
8
BLACK
6
CONTINUOUS
10
0.920335
20
-0.454071
11
0.91349
21
-0.455433
0
LINE
8
BLACK
6
CONTINUOUS
10
0.91349
20
-0.455433
11
0.90651
21
-0.455433
0
LINE
8
BLACK
6
CONTINUOUS
10
0.90651
20
-0.455433
11
0.899665
21
-0.454071
0
LINE
8
BLACK
6
CONTINUOUS
10
0.899665
20
-0.454071
11
0.893216
21
-0.4514
0
LINE
8
BLACK
6
CONTINUOUS
10
0.893216
20
-0.4514
11
0.887413
21
-0.447523
0
LINE
8
BLACK
6
CONTINUOUS
10
0.887413
20
-0.447523
11
0.882477
21
-0.442587
0
LINE
8
BLACK
6
CONTINUOUS
10
0.882477
20
-0.442587
11
0.8786
21
-0.436784
0
LINE
8
BLACK
6
CONTINUOUS
10
0.8786
20
-0.436784
11
0.875929
21
-0.430335
0
LINE
8
BLACK
6
CONTINUOUS
10
0.875929
20
-0.430335
11
0.874567
21
-0.42349
0
LINE
8
BLACK
6
CONTINUOUS
10
0.874567
20
-0.42349
11
0.874567
21
-0.41651
0
LINE
8
BLACK
6
CONTINUOUS
10
0.874567
20
-0.41651
11
0.875929
21
-0.409665
0
LINE
8
BLACK
6
CONTINUOUS
10
0.875929
20
-0.409665
11
0.8786
21
-0.403216
0
LINE
8
BLACK
6
CONTINUOUS
10
0.8786
20
-0.403216
11
0.882477
21
-0.397413
0
LINE
8
BLACK
6
CONTINUOUS
10
0.882477
20
-0.397413
11
0.887413
21
-0.392477
0
LINE
8
BLACK
6
CONTINUOUS
10
0.887413
20
-0.392477
11
0.893216
21
-0.3886
0
LINE
8
BLACK
6
CONTINUOUS
10
0.893216
20
-0.3886
11
0.899665
21
-0.385929
0
LINE
8
BLACK
6
CONTINUOUS
10
0.899665
20
-0.385929
11
0.90651
21
-0.384567
0
LINE
8
BLACK
6
CONTINUOUS
10
0.90651
20
-0.384567
11
0.91349
21
-0.384567
0
LINE
8
BLACK
6
CONTINUOUS
10
0.91349
20
-0.384567
11
0.920335
21
-0.385929
0
LINE
8
BLACK
6
CONTINUOUS
10
0.820335
20
-0.385929
11
0.826784
21
-0.3886
0
LINE
8
BLACK
6
CONTINUOUS
10
0.826784
20
-0.3886
11
0.832587
21
-0.392477
0
LINE
8
BLACK
6
CONTINUOUS
10
0.832587
20
-0.392477
11
0.837523
21
-0.397413
0
LINE
8
BLACK
6
CONTINUOUS
10
0.837523
20
-0.397413
11
0.8414
21
-0.403216
0
LINE
8
BLACK
6
CONTINUOUS
10
0.8414
20
-0.403216
11
0.844071
21
-0.409665
0
LINE
8
BLACK
6
CONTINUOUS
10
0.844071
20
-0.409665
11
0.845433
21
-0.41651
0
LINE
8
BLACK
6
CONTINUOUS
10
0.845433
20
-0.41651
11
0.845433
21
-0.42349
0
LINE
8
BLACK
6
CONTINUOUS
10
0.845433
20
-0.42349
11
0.844071
21
-0.430335
0
LINE
8
BLACK
6
CONTINUOUS
10
0.844071
20
-0.430335
11
0.8414
21
-0.436784
0
LINE
8
BLACK
6
CONTINUOUS
10
0.8414
20
-0.436784
11
0.837523
21
-0.442587
0
LINE
8
BLACK
6
CONTINUOUS
10
0.837523
20
-0.442587
11
0.832587
21
-0.447523
0
LINE
8
BLACK
6
CONTINUOUS
10
0.832587
20
-0.447523
11
0.826784
21
-0.4514
0
LINE
8
BLACK
6
CONTINUOUS
10
0.826784
20
-0.4514
11
0.820335
21
-0.454071
0
LINE
8
BLACK
6
CONTINUOUS
10
0.820335
20
-0.454071
11
0.81349
21
-0.455433
0
LINE
8
BLACK
6
CONTINUOUS
10
0.81349
20
-0.455433
11
0.80651
21
-0.455433
0
LINE
8
BLACK
6
CONTINUOUS
10
0.80651
20
-0.455433
11
0.799665
21
-0.454071
0
LINE
8
BLACK
6
CONTINUOUS
10
0.799665
20
-0.454071
11
0.793216
21
-0.4514
0
LINE
8
BLACK
6
CONTINUOUS
10
0.793216
20
-0.4514
11
0.787413
21
-0.447523
0
LINE
8
BLACK
6
CONTINUOUS
10
0.787413
20
-0.447523
11
0.782477
21
-0.442587
0
LINE
8
BLACK
6
CONTINUOUS
10
0.782477
20
-0.442587
11
0.7786
21
-0.436784
0
LINE
8
BLACK
6
CONTINUOUS
10
0.7786
20
-0.436784
11
0.775929
21
-0.430335
0
LINE
8
BLACK
6
CONTINUOUS
10
0.775929
20
-0.430335
11
0.774567
21
-0.42349
0
LINE
8
BLACK
6
CONTINUOUS
10
0.774567
20
-0.42349
11
0.774567
21
-0.41651
0
LINE
8
BLACK
6
CONTINUOUS
10
0.774567
20
-0.41651
11
0.775929
21
-0.409665
0
LINE
8
BLACK
6
CONTINUOUS
10
0.775929
20
-0.409665
11
0.7786
21
-0.403216
0
LINE
8
BLACK
6
CONTINUOUS
10
0.7786
20
-0.403216
11
0.782477
21
-0.397413
0
LINE
8
BLACK
6
CONTINUOUS
10
0.782477
20
-0.397413
11
0.787413
21
-0.392477
0
LINE
8
BLACK
6
CONTINUOUS
10
0.787413
20
-0.392477
11
0.793216
21
-0.3886
0
LINE
8
BLACK
6
CONTINUOUS
10
0.793216
20
-0.3886
11
0.799665
21
-0.385929
0
LINE
8
BLACK
6
CONTINUOUS
10
0.799665
20
-0.385929
11
0.80651
21
-0.384567
0
LINE
8
BLACK
6
CONTINUOUS
10
0.80651
20
-0.384567
11
0.81349
21
-0.384567
0
LINE
8
BLACK
6
CONTINUOUS
10
0.81349
20
-0.384567
11
0.820335
21
-0.385929
0
LINE
8
BLACK
6
CONTINUOUS
10
0.720335
20
-0.385929
11
0.726784
21
-0.3886
0
LINE
8
BLACK
6
CONTINUOUS
10
0.726784
20
-0.3886
11
0.732587
21
-0.392477
0
LINE
8
BLACK
6
CONTINUOUS
10
0.732587
20
-0.392477
11
0.737523
21
-0.397413
0
LINE
8
BLACK
6
CONTINUOUS
10
0.737523
20
-0.397413
11
0.7414
21
-0.403216
0
LINE
8
BLACK
6
CONTINUOUS
10
0.7414
20
-0.403216
11
0.744071
21
-0.409665
0
LINE
8
BLACK
6
CONTINUOUS
10
0.744071
20
-0.409665
11
0.745433
21
-0.41651
0
LINE
8
BLACK
6
CONTINUOUS
10
0.745433
20
-0.41651
11
0.745433
21
-0.42349
0
LINE
8
BLACK
6
CONTINUOUS
10
0.745433
20
-0.42349
11
0.744071
21
-0.430335
0
LINE
8
BLACK
6
CONTINUOUS
10
0.744071
20
-0.430335
11
0.7414
21
-0.436784
0
LINE
8
BLACK
6
CONTINUOUS
10
0.7414
20
-0.436784
11
0.737523
21
-0.442587
0
LINE
8
BLACK
6
CONTINUOUS
10
0.737523
20
-0.442587
11
0.732587
21
-0.447523
0
LINE
8
BLACK
6
CONTINUOUS
10
0.732587
20
-0.447523
11
0.726784
21
-0.4514
0
LINE
8
BLACK
6
CONTINUOUS
10
0.726784
20
-0.4514
11
0.720335
21
-0.454071
0
LINE
8
BLACK
6
CONTINUOUS
10
0.720335
20
-0.454071
11
0.71349
21
-0.455433
0
LINE
8
BLACK
6
CONTINUOUS
10
0.71349
20
-0.455433
11
0.70651
21
-0.455433
0
LINE
8
BLACK
6
CONTINUOUS
10
0.70651
20
-0.455433
11
0.699665
21
-0.454071
0
LINE
8
BLACK
6
CONTINUOUS
10
0.699665
20
-0.454071
11
0.693216
21
-0.4514
0
LINE
8
BLACK
6
CONTINUOUS
10
0.693216
20
-0.4514
11
0.687413
21
-0.447523
0
LINE
8
BLACK
6
CONTINUOUS
10
0.687413
20
-0.447523
11
0.682477
21
-0.442587
0
LINE
8
BLACK
6
CONTINUOUS
10
0.682477
20
-0.442587
11
0.6786
21
-0.436784
0
LINE
8
BLACK
6
CONTINUOUS
10
0.6786
20
-0.436784
11
0.675929
21
-0.430335
0
LINE
8
BLACK
6
CONTINUOUS
10
0.675929
20
-0.430335
11
0.674567
21
-0.42349
0
LINE
8
BLACK
6
CONTINUOUS
10
0.674567
20
-0.42349
11
0.674567
21
-0.41651
0
LINE
8
BLACK
6
CONTINUOUS
10
0.674567
20
-0.41651
11
0.675929
21
-0.409665
0
LINE
8
BLACK
6
CONTINUOUS
10
0.675929
20
-0.409665
11
0.6786
21
-0.403216
0
LINE
8
BLACK
6
CONTINUOUS
10
0.6786
20
-0.403216
11
0.682477
21
-0.397413
0
LINE
8
BLACK
6
CONTINUOUS
10
0.682477
20
-0.397413
11
0.687413
21
-0.392477
0
LINE
8
BLACK
6
CONTINUOUS
10
0.687413
20
-0.392477
11
0.693216
21
-0.3886
0
LINE
8
BLACK
6
CONTINUOUS
10
0.693216
20
-0.3886
11
0.699665
21
-0.385929
0
LINE
8
BLACK
6
CONTINUOUS
10
0.699665
20
-0.385929
11
0.70651
21
-0.384567
0
LINE
8
BLACK
6
CONTINUOUS
10
0.70651
20
-0.384567
11
0.71349
21
-0.384567
0
LINE
8
BLACK
6
CONTINUOUS
10
0.71349
20
-0.384567
11
0.720335
21
-0.385929
0
LINE
8
BLACK
6
CONTINUOUS
10
-0.112372
20
-0.125957
11
-0.0888956
21
-0.135682
0
LINE
8
BLACK
6
CONTINUOUS
10
-0.0888956
20
-0.135682
11
-0.0677673
21
-0.149799
0
LINE
8
BLACK
6
CONTINUOUS
10
-0.0677673
20
-0.149799
11
-0.0497992
21
-0.167767
0
LINE
8
BLACK
6
CONTINUOUS
10
-0.0497992
20
-0.167767
11
-0.0356817
21
-0.188896
0
LINE
8
BLACK
6
CONTINUOUS
10
-0.0356817
20
-0.188896
11
-0.0259574
21
-0.212372
0
LINE
8
BLACK
6
CONTINUOUS
10
-0.0259574
20
-0.212372
11
-0.021
21
-0.237295
0
LINE
8
BLACK
6
CONTINUOUS
10
-0.021
20
-0.237295
11
-0.021
21
-0.262705
0
LINE
8
BLACK
6
CONTINUOUS
10
-0.021
20
-0.262705
11
-0.0259574
21
-0.287628
0
LINE
8
BLACK
6
CONTINUOUS
10
-0.0259574
20
-0.287628
11
-0.0356817
21
-0.311104
0
LINE
8
BLACK
6
CONTINUOUS
10
-0.0356817
20
-0.311104
11
-0.0497992
21
-0.332233
0
LINE
8
BLACK
6
CONTINUOUS
10
-0.0497992
20
-0.332233
11
-0.0677673
21
-0.350201
0
LINE
8
BLACK
6
CONTINUOUS
10
-0.0677673
20
-0.350201
11
-0.0888956
21
-0.364318
0
LINE
8
BLACK
6
CONTINUOUS
10
-0.0888956
20
-0.364318
11
-0.112372
21
-0.374043
0
LINE
8
BLACK
6
CONTINUOUS
10
-0.112372
20
-0.374043
11
-0.137295
21
-0.379
0
LINE
8
BLACK
6
CONTINUOUS
10
-0.137295
20
-0.379
11
-0.162705
21
-0.379
0
LINE
8
BLACK
6
CONTINUOUS
10
-0.162705
20
-0.379
11
-0.187628
21
-0.374043
0
LINE
8
BLACK
6
CONTINUOUS
10
-0.187628
20
-0.374043
11
-0.211104
21
-0.364318
0
LINE
8
BLACK
6
CONTINUOUS
10
-0.211104
20
-0.364318
11
-0.232233
21
-0.350201
0
LINE
8
BLACK
6
CONTINUOUS
10
-0.232233
20
-0.350201
11
-0.250201
21
-0.332233
0
LINE
8
BLACK
6
CONTINUOUS
10
-0.250201
20
-0.332233
11
-0.264318
21
-0.311104
0
LINE
8
BLACK
6
CONTINUOUS
10
-0.264318
20
-0.311104
11
-0.274043
21
-0.287628
0
LINE
8
BLACK
6
CONTINUOUS
10
-0.274043
20
-0.287628
11
-0.279
21
-0.262705
0
LINE
8
BLACK
6
CONTINUOUS
10
-0.279
20
-0.262705
11
-0.279
21
-0.237295
0
LINE
8
BLACK
6
CONTINUOUS
10
-0.279
20
-0.237295
11
-0.274043
21
-0.212372
0
LINE
8
BLACK
6
CONTINUOUS
10
-0.274043
20
-0.212372
11
-0.264318
21
-0.188896
0
LINE
8
BLACK
6
CONTINUOUS
10
-0.264318
20
-0.188896
11
-0.250201
21
-0.167767
0
LINE
8
BLACK
6
CONTINUOUS
10
-0.250201
20
-0.167767
11
-0.232233
21
-0.149799
0
LINE
8
BLACK
6
CONTINUOUS
10
-0.232233
20
-0.149799
11
-0.211104
21
-0.135682
0
LINE
8
BLACK
6
CONTINUOUS
10
-0.211104
20
-0.135682
11
-0.187628
21
-0.125957
0
LINE
8
BLACK
6
CONTINUOUS
10
-0.187628
20
-0.125957
11
-0.162705
21
-0.121
0
LINE
8
BLACK
6
CONTINUOUS
10
-0.162705
20
-0.121
11
-0.137295
21
-0.121
0
LINE
8
BLACK
6
CONTINUOUS
10
-0.137295
20
-0.121
11
-0.112372
21
-0.125957
0
LINE
8
BLACK
6
CONTINUOUS
10
2.53763
20
-0.125957
11
2.5611
21
-0.135682
0
LINE
8
BLACK
6
CONTINUOUS
10
2.5611
20
-0.135682
11
2.58223
21
-0.149799
0
LINE
8
BLACK
6
CONTINUOUS
10
2.58223
20
-0.149799
11
2.6002
21
-0.167767
0
LINE
8
BLACK
6
CONTINUOUS
10
2.6002
20
-0.167767
11
2.61432
21
-0.188896
0
LINE
8
BLACK
6
CONTINUOUS
10
2.61432
20
-0.188896
11
2.62404
21
-0.212372
0
LINE
8
BLACK
6
CONTINUOUS
10
2.62404
20
-0.212372
11
2.629
21
-0.237295
0
LINE
8
BLACK
6
CONTINUOUS
10
2.629
20
-0.237295
11
2.629
21
-0.262705
0
LINE
8
BLACK
6
CONTINUOUS
10
2.629
20
-0.262705
11
2.62404
21
-0.287628
0
LINE
8
BLACK
6
CONTINUOUS
10
2.62404
20
-0.287628
11
2.61432
21
-0.311104
0
LINE
8
BLACK
6
CONTINUOUS
10
2.61432
20
-0.311104
11
2.6002
21
-0.332233
0
LINE
8
BLACK
6
CONTINUOUS
10
2.6002
20
-0.332233
11
2.58223
21
-0.350201
0
LINE
8
BLACK
6
CONTINUOUS
10
2.58223
20
-0.350201
11
2.5611
21
-0.364318
0
LINE
8
BLACK
6
CONTINUOUS
10
2.5611
20
-0.364318
11
2.53763
21
-0.374043
0
LINE
8
BLACK
6
CONTINUOUS
10
2.53763
20
-0.374043
11
2.51271
21
-0.379
0
LINE
8
BLACK
6
CONTINUOUS
10
2.51271
20
-0.379
11
2.48729
21
-0.379
0
LINE
8
BLACK
6
CONTINUOUS
10
2.48729
20
-0.379
11
2.46237
21
-0.374043
0
LINE
8
BLACK
6
CONTINUOUS
10
2.46237
20
-0.374043
11
2.4389
21
-0.364318
0
LINE
8
BLACK
6
CONTINUOUS
10
2.4389
20
-0.364318
11
2.41777
21
-0.350201
0
LINE
8
BLACK
6
CONTINUOUS
10
2.41777
20
-0.350201
11
2.3998
21
-0.332233
0
LINE
8
BLACK
6
CONTINUOUS
10
2.3998
20
-0.332233
11
2.38568
21
-0.311104
0
LINE
8
BLACK
6
CONTINUOUS
10
2.38568
20
-0.311104
11
2.37596
21
-0.287628
0
LINE
8
BLACK
6
CONTINUOUS
10
2.37596
20
-0.287628
11
2.371
21
-0.262705
0
LINE
8
BLACK
6
CONTINUOUS
10
2.371
20
-0.262705
11
2.371
21
-0.237295
0
LINE
8
BLACK
6
CONTINUOUS
10
2.371
20
-0.237295
11
2.37596
21
-0.212372
0
LINE
8
BLACK
6
CONTINUOUS
10
2.37596
20
-0.212372
11
2.38568
21
-0.188896
0
LINE
8
BLACK
6
CONTINUOUS
10
2.38568
20
-0.188896
11
2.3998
21
-0.167767
0
LINE
8
BLACK
6
CONTINUOUS
10
2.3998
20
-0.167767
11
2.41777
21
-0.149799
0
LINE
8
BLACK
6
CONTINUOUS
10
2.41777
20
-0.149799
11
2.4389
21
-0.135682
0
LINE
8
BLACK
6
CONTINUOUS
10
2.4389
20
-0.135682
11
2.46237
21
-0.125957
0
LINE
8
BLACK
6
CONTINUOUS
10
2.46237
20
-0.125957
11
2.48729
21
-0.121
0
LINE
8
BLACK
6
CONTINUOUS
10
2.48729
20
-0.121
11
2.51271
21
-0.121
0
LINE
8
BLACK
6
CONTINUOUS
10
2.51271
20
-0.121
11
2.53763
21
-0.125957
0
LINE
8
BLACK
6
CONTINUOUS
10
1.74183
20
-0.198705
11
1.74379
21
-0.199299
0
LINE
8
BLACK
6
CONTINUOUS
10
1.74379
20
-0.199299
11
1.7456
21
-0.200264
0
LINE
8
BLACK
6
CONTINUOUS
10
1.7456
20
-0.200264
11
1.74718
21
-0.201562
0
LINE
8
BLACK
6
CONTINUOUS
10
1.74718
20
-0.201562
11
1.74848
21
-0.203144
0
LINE
8
BLACK
6
CONTINUOUS
10
1.74848
20
-0.203144
11
1.74944
21
-0.204949
0
LINE
8
BLACK
6
CONTINUOUS
10
1.74944
20
-0.204949
11
1.75004
21
-0.206908
0
LINE
8
BLACK
6
CONTINUOUS
10
1.75004
20
-0.206908
11
1.75024
21
-0.208945
0
LINE
8
BLACK
6
CONTINUOUS
10
1.75024
20
-0.208945
11
1.75024
21
-0.31011
0
LINE
8
BLACK
6
CONTINUOUS
10
1.75024
20
-0.31011
11
1.75004
21
-0.312147
0
LINE
8
BLACK
6
CONTINUOUS
10
1.75004
20
-0.312147
11
1.74944
21
-0.314106
0
LINE
8
BLACK
6
CONTINUOUS
10
1.74944
20
-0.314106
11
1.74848
21
-0.315911
0
LINE
8
BLACK
6
CONTINUOUS
10
1.74848
20
-0.315911
11
1.74718
21
-0.317493
0
LINE
8
BLACK
6
CONTINUOUS
10
1.74718
20
-0.317493
11
1.7456
21
-0.318792
0
LINE
8
BLACK
6
CONTINUOUS
10
1.7456
20
-0.318792
11
1.74379
21
-0.319756
0
LINE
8
BLACK
6
CONTINUOUS
10
1.74379
20
-0.319756
11
1.74183
21
-0.320351
0
LINE
8
BLACK
6
CONTINUOUS
10
1.74183
20
-0.320351
11
1.7398
21
-0.320551
0
LINE
8
BLACK
6
CONTINUOUS
10
1.7398
20
-0.320551
11
1.69375
21
-0.320551
0
LINE
8
BLACK
6
CONTINUOUS
10
1.69375
20
-0.320551
11
1.69171
21
-0.320351
0
LINE
8
BLACK
6
CONTINUOUS
10
1.69171
20
-0.320351
11
1.68975
21
-0.319756
0
LINE
8
BLACK
6
CONTINUOUS
10
1.68975
20
-0.319756
11
1.68795
21
-0.318792
0
LINE
8
BLACK
6
CONTINUOUS
10
1.68795
20
-0.318792
11
1.68637
21
-0.317493
0
LINE
8
BLACK
6
CONTINUOUS
10
1.68637
20
-0.317493
11
1.68507
21
-0.315911
0
LINE
8
BLACK
6
CONTINUOUS
10
1.68507
20
-0.315911
11
1.6841
21
-0.314106
0
LINE
8
BLACK
6
CONTINUOUS
10
1.6841
20
-0.314106
11
1.68351
21
-0.312147
0
LINE
8
BLACK
6
CONTINUOUS
10
1.68351
20
-0.312147
11
1.68331
21
-0.31011
0
LINE
8
BLACK
6
CONTINUOUS
10
1.68331
20
-0.31011
11
1.68331
21
-0.208945
0
LINE
8
BLACK
6
CONTINUOUS
10
1.68331
20
-0.208945
11
1.68351
21
-0.206908
0
LINE
8
BLACK
6
CONTINUOUS
10
1.68351
20
-0.206908
11
1.6841
21
-0.204949
0
LINE
8
BLACK
6
CONTINUOUS
10
1.6841
20
-0.204949
11
1.68507
21
-0.203144
0
LINE
8
BLACK
6
CONTINUOUS
10
1.68507
20
-0.203144
11
1.68637
21
-0.201562
0
LINE
8
BLACK
6
CONTINUOUS
10
1.68637
20
-0.201562
11
1.68795
21
-0.200264
0
LINE
8
BLACK
6
CONTINUOUS
10
1.68795
20
-0.200264
11
1.68975
21
-0.199299
0
LINE
8
BLACK
6
CONTINUOUS
10
1.68975
20
-0.199299
11
1.69171
21
-0.198705
0
LINE
8
BLACK
6
CONTINUOUS
10
1.69171
20
-0.198705
11
1.69375
21
-0.198504
0
LINE
8
BLACK
6
CONTINUOUS
10
1.69375
20
-0.198504
11
1.7398
21
-0.198504
0
LINE
8
BLACK
6
CONTINUOUS
10
1.7398
20
-0.198504
11
1.74183
21
-0.198705
0
LINE
8
BLACK
6
CONTINUOUS
10
2.08829
20
-0.198705
11
2.09025
21
-0.199299
0
LINE
8
BLACK
6
CONTINUOUS
10
2.09025
20
-0.199299
11
2.09205
21
-0.200264
0
LINE
8
BLACK
6
CONTINUOUS
10
2.09205
20
-0.200264
11
2.09363
21
-0.201562
0
LINE
8
BLACK
6
CONTINUOUS
10
2.09363
20
-0.201562
11
2.09493
21
-0.203144
0
LINE
8
BLACK
6
CONTINUOUS
10
2.09493
20
-0.203144
11
2.0959
21
-0.204949
0
LINE
8
BLACK
6
CONTINUOUS
10
2.0959
20
-0.204949
11
2.09649
21
-0.206908
0
LINE
8
BLACK
6
CONTINUOUS
10
2.09649
20
-0.206908
11
2.09669
21
-0.208945
0
LINE
8
BLACK
6
CONTINUOUS
10
2.09669
20
-0.208945
11
2.09669
21
-0.31011
0
LINE
8
BLACK
6
CONTINUOUS
10
2.09669
20
-0.31011
11
2.09649
21
-0.312147
0
LINE
8
BLACK
6
CONTINUOUS
10
2.09649
20
-0.312147
11
2.0959
21
-0.314106
0
LINE
8
BLACK
6
CONTINUOUS
10
2.0959
20
-0.314106
11
2.09493
21
-0.315911
0
LINE
8
BLACK
6
CONTINUOUS
10
2.09493
20
-0.315911
11
2.09363
21
-0.317493
0
LINE
8
BLACK
6
CONTINUOUS
10
2.09363
20
-0.317493
11
2.09205
21
-0.318792
0
LINE
8
BLACK
6
CONTINUOUS
10
2.09205
20
-0.318792
11
2.09025
21
-0.319756
0
LINE
8
BLACK
6
CONTINUOUS
10
2.09025
20
-0.319756
11
2.08829
21
-0.320351
0
LINE
8
BLACK
6
CONTINUOUS
10
2.08829
20
-0.320351
11
2.08625
21
-0.320551
0
LINE
8
BLACK
6
CONTINUOUS
10
2.08625
20
-0.320551
11
2.0402
21
-0.320551
0
LINE
8
BLACK
6
CONTINUOUS
10
2.0402
20
-0.320551
11
2.03817
21
-0.320351
0
LINE
8
BLACK
6
CONTINUOUS
10
2.03817
20
-0.320351
11
2.03621
21
-0.319756
0
LINE
8
BLACK
6
CONTINUOUS
10
2.03621
20
-0.319756
11
2.0344
21
-0.318792
0
LINE
8
BLACK
6
CONTINUOUS
10
2.0344
20
-0.318792
11
2.03282
21
-0.317493
0
LINE
8
BLACK
6
CONTINUOUS
10
2.03282
20
-0.317493
11
2.03152
21
-0.315911
0
LINE
8
BLACK
6
CONTINUOUS
10
2.03152
20
-0.315911
11
2.03056
21
-0.314106
0
LINE
8
BLACK
6
CONTINUOUS
10
2.03056
20
-0.314106
11
2.02996
21
-0.312147
0
LINE
8
BLACK
6
CONTINUOUS
10
2.02996
20
-0.312147
11
2.02976
21
-0.31011
0
LINE
8
BLACK
6
CONTINUOUS
10
2.02976
20
-0.31011
11
2.02976
21
-0.208945
0
LINE
8
BLACK
6
CONTINUOUS
10
2.02976
20
-0.208945
11
2.02996
21
-0.206908
0
LINE
8
BLACK
6
CONTINUOUS
10
2.02996
20
-0.206908
11
2.03056
21
-0.204949
0
LINE
8
BLACK
6
CONTINUOUS
10
2.03056
20
-0.204949
11
2.03152
21
-0.203144
0
LINE
8
BLACK
6
CONTINUOUS
10
2.03152
20
-0.203144
11
2.03282
21
-0.201562
0
LINE
8
BLACK
6
CONTINUOUS
10
2.03282
20
-0.201562
11
2.0344
21
-0.200264
0
LINE
8
BLACK
6
CONTINUOUS
10
2.0344
20
-0.200264
11
2.03621
21
-0.199299
0
LINE
8
BLACK
6
CONTINUOUS
10
2.03621
20
-0.199299
11
2.03817
21
-0.198705
0
LINE
8
BLACK
6
CONTINUOUS
10
2.03817
20
-0.198705
11
2.0402
21
-0.198504
0
LINE
8
BLACK
6
CONTINUOUS
10
2.0402
20
-0.198504
11
2.08625
21
-0.198504
0
LINE
8
BLACK
6
CONTINUOUS
10
2.08625
20
-0.198504
11
2.08829
21
-0.198705
0
LINE
8
BLACK
6
CONTINUOUS
10
0.110866
20
-0.319606
11
0.043937
21
-0.319606
0
LINE
8
BLACK
6
CONTINUOUS
10
0.043937
20
-0.319606
11
0.043937
21
-0.197559
0
LINE
8
BLACK
6
CONTINUOUS
10
0.043937
20
-0.197559
11
0.110866
21
-0.197559
0
LINE
8
BLACK
6
CONTINUOUS
10
0.110866
20
-0.197559
11
0.110866
21
-0.319606
0
LINE
8
BLACK
6
CONTINUOUS
10
0.536063
20
-0.319606
11
0.469134
21
-0.319606
0
LINE
8
BLACK
6
CONTINUOUS
10
0.469134
20
-0.319606
11
0.469134
21
-0.197559
0
LINE
8
BLACK
6
CONTINUOUS
10
0.469134
20
-0.197559
11
0.536063
21
-0.197559
0
LINE
8
BLACK
6
CONTINUOUS
10
0.536063
20
-0.197559
11
0.536063
21
-0.319606
0
LINE
8
BLACK
6
CONTINUOUS
10
1.8242
20
-0.0609167
11
1.82623
21
-0.0615328
0
LINE
8
BLACK
6
CONTINUOUS
10
1.82623
20
-0.0615328
11
1.8281
21
-0.0625333
0
LINE
8
BLACK
6
CONTINUOUS
10
1.8281
20
-0.0625333
11
1.82974
21
-0.0638798
0
LINE
8
BLACK
6
CONTINUOUS
10
1.82974
20
-0.0638798
11
1.83109
21
-0.0655204
0
LINE
8
BLACK
6
CONTINUOUS
10
1.83109
20
-0.0655204
11
1.83209
21
-0.0673922
0
LINE
8
BLACK
6
CONTINUOUS
10
1.83209
20
-0.0673922
11
1.83271
21
-0.0694232
0
LINE
8
BLACK
6
CONTINUOUS
10
1.83271
20
-0.0694232
11
1.83291
21
-0.0715354
0
LINE
8
BLACK
6
CONTINUOUS
10
1.83291
20
-0.0715354
11
1.83291
21
-0.270354
0
LINE
8
BLACK
6
CONTINUOUS
10
1.83291
20
-0.270354
11
1.83271
21
-0.272467
0
LINE
8
BLACK
6
CONTINUOUS
10
1.83271
20
-0.272467
11
1.83209
21
-0.274498
0
LINE
8
BLACK
6
CONTINUOUS
10
1.83209
20
-0.274498
11
1.83109
21
-0.276369
0
LINE
8
BLACK
6
CONTINUOUS
10
1.83109
20
-0.276369
11
1.82974
21
-0.27801
0
LINE
8
BLACK
6
CONTINUOUS
10
1.82974
20
-0.27801
11
1.8281
21
-0.279356
0
LINE
8
BLACK
6
CONTINUOUS
10
1.8281
20
-0.279356
11
1.82623
21
-0.280357
0
LINE
8
BLACK
6
CONTINUOUS
10
1.82623
20
-0.280357
11
1.8242
21
-0.280973
0
LINE
8
BLACK
6
CONTINUOUS
10
1.8242
20
-0.280973
11
1.82209
21
-0.281181
0
LINE
8
BLACK
6
CONTINUOUS
10
1.82209
20
-0.281181
11
1.80043
21
-0.281181
0
LINE
8
BLACK
6
CONTINUOUS
10
1.80043
20
-0.281181
11
1.79832
21
-0.280973
0
LINE
8
BLACK
6
CONTINUOUS
10
1.79832
20
-0.280973
11
1.79629
21
-0.280357
0
LINE
8
BLACK
6
CONTINUOUS
10
1.79629
20
-0.280357
11
1.79442
21
-0.279356
0
LINE
8
BLACK
6
CONTINUOUS
10
1.79442
20
-0.279356
11
1.79278
21
-0.27801
0
LINE
8
BLACK
6
CONTINUOUS
10
1.79278
20
-0.27801
11
1.79143
21
-0.276369
0
LINE
8
BLACK
6
CONTINUOUS
10
1.79143
20
-0.276369
11
1.79043
21
-0.274498
0
LINE
8
BLACK
6
CONTINUOUS
10
1.79043
20
-0.274498
11
1.78981
21
-0.272467
0
LINE
8
BLACK
6
CONTINUOUS
10
1.78981
20
-0.272467
11
1.78961
21
-0.270354
0
LINE
8
BLACK
6
CONTINUOUS
10
1.78961
20
-0.270354
11
1.78961
21
-0.0715354
0
LINE
8
BLACK
6
CONTINUOUS
10
1.78961
20
-0.0715354
11
1.78981
21
-0.0694232
0
LINE
8
BLACK
6
CONTINUOUS
10
1.78981
20
-0.0694232
11
1.79043
21
-0.0673922
0
LINE
8
BLACK
6
CONTINUOUS
10
1.79043
20
-0.0673922
11
1.79143
21
-0.0655204
0
LINE
8
BLACK
6
CONTINUOUS
10
1.79143
20
-0.0655204
11
1.79278
21
-0.0638798
0
LINE
8
BLACK
6
CONTINUOUS
10
1.79278
20
-0.0638798
11
1.79442
21
-0.0625333
0
LINE
8
BLACK
6
CONTINUOUS
10
1.79442
20
-0.0625333
11
1.79629
21
-0.0615328
0
LINE
8
BLACK
6
CONTINUOUS
10
1.79629
20
-0.0615328
11
1.79832
21
-0.0609167
0
LINE
8
BLACK
6
CONTINUOUS
10
1.79832
20
-0.0609167
11
1.80043
21
-0.0607087
0
LINE
8
BLACK
6
CONTINUOUS
10
1.80043
20
-0.0607087
11
1.82209
21
-0.0607087
0
LINE
8
BLACK
6
CONTINUOUS
10
1.82209
20
-0.0607087
11
1.8242
21
-0.0609167
0
LINE
8
BLACK
6
CONTINUOUS
10
1.90294
20
-0.0609167
11
1.90497
21
-0.0615328
0
LINE
8
BLACK
6
CONTINUOUS
10
1.90497
20
-0.0615328
11
1.90684
21
-0.0625333
0
LINE
8
BLACK
6
CONTINUOUS
10
1.90684
20
-0.0625333
11
1.90848
21
-0.0638798
0
LINE
8
BLACK
6
CONTINUOUS
10
1.90848
20
-0.0638798
11
1.90983
21
-0.0655204
0
LINE
8
BLACK
6
CONTINUOUS
10
1.90983
20
-0.0655204
11
1.91083
21
-0.0673922
0
LINE
8
BLACK
6
CONTINUOUS
10
1.91083
20
-0.0673922
11
1.91145
21
-0.0694232
0
LINE
8
BLACK
6
CONTINUOUS
10
1.91145
20
-0.0694232
11
1.91165
21
-0.0715354
0
LINE
8
BLACK
6
CONTINUOUS
10
1.91165
20
-0.0715354
11
1.91165
21
-0.270354
0
LINE
8
BLACK
6
CONTINUOUS
10
1.91165
20
-0.270354
11
1.91145
21
-0.272467
0
LINE
8
BLACK
6
CONTINUOUS
10
1.91145
20
-0.272467
11
1.91083
21
-0.274498
0
LINE
8
BLACK
6
CONTINUOUS
10
1.91083
20
-0.274498
11
1.90983
21
-0.276369
0
LINE
8
BLACK
6
CONTINUOUS
10
1.90983
20
-0.276369
11
1.90848
21
-0.27801
0
LINE
8
BLACK
6
CONTINUOUS
10
1.90848
20
-0.27801
11
1.90684
21
-0.279356
0
LINE
8
BLACK
6
CONTINUOUS
10
1.90684
20
-0.279356
11
1.90497
21
-0.280357
0
LINE
8
BLACK
6
CONTINUOUS
10
1.90497
20
-0.280357
11
1.90294
21
-0.280973
0
LINE
8
BLACK
6
CONTINUOUS
10
1.90294
20
-0.280973
11
1.90083
21
-0.281181
0
LINE
8
BLACK
6
CONTINUOUS
10
1.90083
20
-0.281181
11
1.87917
21
-0.281181
0
LINE
8
BLACK
6
CONTINUOUS
10
1.87917
20
-0.281181
11
1.87706
21
-0.280973
0
LINE
8
BLACK
6
CONTINUOUS
10
1.87706
20
-0.280973
11
1.87503
21
-0.280357
0
LINE
8
BLACK
6
CONTINUOUS
10
1.87503
20
-0.280357
11
1.87316
21
-0.279356
0
LINE
8
BLACK
6
CONTINUOUS
10
1.87316
20
-0.279356
11
1.87152
21
-0.27801
0
LINE
8
BLACK
6
CONTINUOUS
10
1.87152
20
-0.27801
11
1.87017
21
-0.276369
0
LINE
8
BLACK
6
CONTINUOUS
10
1.87017
20
-0.276369
11
1.86917
21
-0.274498
0
LINE
8
BLACK
6
CONTINUOUS
10
1.86917
20
-0.274498
11
1.86855
21
-0.272467
0
LINE
8
BLACK
6
CONTINUOUS
10
1.86855
20
-0.272467
11
1.86835
21
-0.270354
0
LINE
8
BLACK
6
CONTINUOUS
10
1.86835
20
-0.270354
11
1.86835
21
-0.0715354
0
LINE
8
BLACK
6
CONTINUOUS
10
1.86835
20
-0.0715354
11
1.86855
21
-0.0694232
0
LINE
8
BLACK
6
CONTINUOUS
10
1.86855
20
-0.0694232
11
1.86917
21
-0.0673922
0
LINE
8
BLACK
6
CONTINUOUS
10
1.86917
20
-0.0673922
11
1.87017
21
-0.0655204
0
LINE
8
BLACK
6
CONTINUOUS
10
1.87017
20
-0.0655204
11
1.87152
21
-0.0638798
0
LINE
8
BLACK
6
CONTINUOUS
10
1.87152
20
-0.0638798
11
1.87316
21
-0.0625333
0
LINE
8
BLACK
6
CONTINUOUS
10
1.87316
20
-0.0625333
11
1.87503
21
-0.0615328
0
LINE
8
BLACK
6
CONTINUOUS
10
1.87503
20
-0.0615328
11
1.87706
21
-0.0609167
0
LINE
8
BLACK
6
CONTINUOUS
10
1.87706
20
-0.0609167
11
1.87917
21
-0.0607087
0
LINE
8
BLACK
6
CONTINUOUS
10
1.87917
20
-0.0607087
11
1.90083
21
-0.0607087
0
LINE
8
BLACK
6
CONTINUOUS
10
1.90083
20
-0.0607087
11
1.90294
21
-0.0609167
0
LINE
8
BLACK
6
CONTINUOUS
10
1.98168
20
-0.0609167
11
1.98371
21
-0.0615328
0
LINE
8
BLACK
6
CONTINUOUS
10
1.98371
20
-0.0615328
11
1.98558
21
-0.0625333
0
LINE
8
BLACK
6
CONTINUOUS
10
1.98558
20
-0.0625333
11
1.98722
21
-0.0638798
0
LINE
8
BLACK
6
CONTINUOUS
10
1.98722
20
-0.0638798
11
1.98857
21
-0.0655204
0
LINE
8
BLACK
6
CONTINUOUS
10
1.98857
20
-0.0655204
11
1.98957
21
-0.0673922
0
LINE
8
BLACK
6
CONTINUOUS
10
1.98957
20
-0.0673922
11
1.99019
21
-0.0694232
0
LINE
8
BLACK
6
CONTINUOUS
10
1.99019
20
-0.0694232
11
1.99039
21
-0.0715354
0
LINE
8
BLACK
6
CONTINUOUS
10
1.99039
20
-0.0715354
11
1.99039
21
-0.270354
0
LINE
8
BLACK
6
CONTINUOUS
10
1.99039
20
-0.270354
11
1.99019
21
-0.272467
0
LINE
8
BLACK
6
CONTINUOUS
10
1.99019
20
-0.272467
11
1.98957
21
-0.274498
0
LINE
8
BLACK
6
CONTINUOUS
10
1.98957
20
-0.274498
11
1.98857
21
-0.276369
0
LINE
8
BLACK
6
CONTINUOUS
10
1.98857
20
-0.276369
11
1.98722
21
-0.27801
0
LINE
8
BLACK
6
CONTINUOUS
10
1.98722
20
-0.27801
11
1.98558
21
-0.279356
0
LINE
8
BLACK
6
CONTINUOUS
10
1.98558
20
-0.279356
11
1.98371
21
-0.280357
0
LINE
8
BLACK
6
CONTINUOUS
10
1.98371
20
-0.280357
11
1.98168
21
-0.280973
0
LINE
8
BLACK
6
CONTINUOUS
10
1.98168
20
-0.280973
11
1.97957
21
-0.281181
0
LINE
8
BLACK
6
CONTINUOUS
10
1.97957
20
-0.281181
11
1.95791
21
-0.281181
0
LINE
8
BLACK
6
CONTINUOUS
10
1.95791
20
-0.281181
11
1.9558
21
-0.280973
0
LINE
8
BLACK
6
CONTINUOUS
10
1.9558
20
-0.280973
11
1.95377
21
-0.280357
0
LINE
8
BLACK
6
CONTINUOUS
10
1.95377
20
-0.280357
11
1.9519
21
-0.279356
0
LINE
8
BLACK
6
CONTINUOUS
10
1.9519
20
-0.279356
11
1.95026
21
-0.27801
0
LINE
8
BLACK
6
CONTINUOUS
10
1.95026
20
-0.27801
11
1.94891
21
-0.276369
0
LINE
8
BLACK
6
CONTINUOUS
10
1.94891
20
-0.276369
11
1.94791
21
-0.274498
0
LINE
8
BLACK
6
CONTINUOUS
10
1.94791
20
-0.274498
11
1.94729
21
-0.272467
0
LINE
8
BLACK
6
CONTINUOUS
10
1.94729
20
-0.272467
11
1.94709
21
-0.270354
0
LINE
8
BLACK
6
CONTINUOUS
10
1.94709
20
-0.270354
11
1.94709
21
-0.0715354
0
LINE
8
BLACK
6
CONTINUOUS
10
1.94709
20
-0.0715354
11
1.94729
21
-0.0694232
0
LINE
8
BLACK
6
CONTINUOUS
10
1.94729
20
-0.0694232
11
1.94791
21
-0.0673922
0
LINE
8
BLACK
6
CONTINUOUS
10
1.94791
20
-0.0673922
11
1.94891
21
-0.0655204
0
LINE
8
BLACK
6
CONTINUOUS
10
1.94891
20
-0.0655204
11
1.95026
21
-0.0638798
0
LINE
8
BLACK
6
CONTINUOUS
10
1.95026
20
-0.0638798
11
1.9519
21
-0.0625333
0
LINE
8
BLACK
6
CONTINUOUS
10
1.9519
20
-0.0625333
11
1.95377
21
-0.0615328
0
LINE
8
BLACK
6
CONTINUOUS
10
1.95377
20
-0.0615328
11
1.9558
21
-0.0609167
0
LINE
8
BLACK
6
CONTINUOUS
10
1.9558
20
-0.0609167
11
1.95791
21
-0.0607087
0
LINE
8
BLACK
6
CONTINUOUS
10
1.95791
20
-0.0607087
11
1.97957
21
-0.0607087
0
LINE
8
BLACK
6
CONTINUOUS
10
1.97957
20
-0.0607087
11
1.98168
21
-0.0609167
0
LINE
8
BLACK
6
CONTINUOUS
10
0.351024
20
-0.280236
11
0.307717
21
-0.280236
0
LINE
8
BLACK
6
CONTINUOUS
10
0.307717
20
-0.280236
11
0.307717
21
-0.0597638
0
LINE
8
BLACK
6
CONTINUOUS
10
0.307717
20
-0.0597638
11
0.351024
21
-0.0597638
0
LINE
8
BLACK
6
CONTINUOUS
10
0.351024
20
-0.0597638
11
0.351024
21
-0.280236
0
LINE
8
BLACK
6
CONTINUOUS
10
0.193543
20
-0.280236
11
0.150236
21
-0.280236
0
LINE
8
BLACK
6
CONTINUOUS
10
0.150236
20
-0.280236
11
0.150236
21
-0.0597638
0
LINE
8
BLACK
6
CONTINUOUS
10
0.150236
20
-0.0597638
11
0.193543
21
-0.0597638
0
LINE
8
BLACK
6
CONTINUOUS
10
0.193543
20
-0.0597638
11
0.193543
21
-0.280236
0
LINE
8
BLACK
6
CONTINUOUS
10
0.429764
20
-0.280236
11
0.386457
21
-0.280236
0
LINE
8
BLACK
6
CONTINUOUS
10
0.386457
20
-0.280236
11
0.386457
21
-0.0597638
0
LINE
8
BLACK
6
CONTINUOUS
10
0.386457
20
-0.0597638
11
0.429764
21
-0.0597638
0
LINE
8
BLACK
6
CONTINUOUS
10
0.429764
20
-0.0597638
11
0.429764
21
-0.280236
0
LINE
8
BLACK
6
CONTINUOUS
10
0.272283
20
-0.280236
11
0.228976
21
-0.280236
0
LINE
8
BLACK
6
CONTINUOUS
10
0.228976
20
-0.280236
11
0.228976
21
-0.0597638
0
LINE
8
BLACK
6
CONTINUOUS
10
0.228976
20
-0.0597638
11
0.272283
21
-0.0597638
0
LINE
8
BLACK
6
CONTINUOUS
10
0.272283
20
-0.0597638
11
0.272283
21
-0.280236
  0
ENDSEC
  0
EOF
