  0
SECTION
  2
HEADER
  9
$ANGBASE
  50
0.0
  9
$ANGDIR
  70
1
  9
$MEASUREMENT
  70
0
  0
ENDSEC
  0
SECTION
  2
TABLES
  0
TABLE
  2
LTYPE
  70
4
  0
LTYPE
  5
40F
  2
CONTINUOUS
  70
0
  3
Solid line
  72
65
  73
0
  40
0.0
  0
LTYPE
  5
410
  2
DASHDOT
 70
0
  3
Dash Dot ____ _ ____ _
 72
65
 73
4
 40
2.0
 49
1.25
 49
-0.25
 49
0.25
 49
-0.25
  0
LTYPE
  5
411
  2
DASHED
 70
0
  3
Dashed __ __ __ __ __
 72
65
 73
2
 40
0.75
 49
0.5
 49
-0.25
  0
LTYPE
  5
43B
  2
DOTTED
 70
0
  3
Dotted .  .  .  .
 72
65
 73
2
 40
0.2
 49
0.0
 49
-0.2
  0
ENDTAB
  0
TABLE
  2
STYLE
  70
4
  0
STYLE
  2
KICAD
  70
0
  40
0
  41
1
  42
1
  50
0
  71
0
  3
isocp.shx
  0
STYLE
  2
KICADB
  70
0
  40
0
  41
1
  42
1
  50
0
  71
0
  3
isocp.shx
  0
STYLE
  2
KICADI
  70
0
  40
0
  41
1
  42
1
  50
15
  71
0
  3
isocp.shx
  0
STYLE
  2
KICADBI
  70
0
  40
0
  41
1
  42
1
  50
15
  71
0
  3
isocp.shx
  0
ENDTAB
  0
TABLE
  2
LAYER
  70
1
  0
LAYER
  2
BLACK
  70
0
  62
7
  6
CONTINUOUS
  0
ENDTAB
  0
ENDSEC
  0
SECTION
  2
ENTITIES
0
LINE
8
BLACK
6
CONTINUOUS
10
0.675288
20
-1.87263
11
0.677088
21
-1.87317
0
LINE
8
BLACK
6
CONTINUOUS
10
0.677088
20
-1.87317
11
0.678747
21
-1.87406
0
LINE
8
BLACK
6
CONTINUOUS
10
0.678747
20
-1.87406
11
0.680201
21
-1.87525
0
LINE
8
BLACK
6
CONTINUOUS
10
0.680201
20
-1.87525
11
0.681395
21
-1.87671
0
LINE
8
BLACK
6
CONTINUOUS
10
0.681395
20
-1.87671
11
0.682281
21
-1.87837
0
LINE
8
BLACK
6
CONTINUOUS
10
0.682281
20
-1.87837
11
0.682827
21
-1.88017
0
LINE
8
BLACK
6
CONTINUOUS
10
0.682827
20
-1.88017
11
0.683012
21
-1.88204
0
LINE
8
BLACK
6
CONTINUOUS
10
0.683012
20
-1.88204
11
0.683012
21
-1.91796
0
LINE
8
BLACK
6
CONTINUOUS
10
0.683012
20
-1.91796
11
0.682827
21
-1.91983
0
LINE
8
BLACK
6
CONTINUOUS
10
0.682827
20
-1.91983
11
0.682281
21
-1.92163
0
LINE
8
BLACK
6
CONTINUOUS
10
0.682281
20
-1.92163
11
0.681395
21
-1.92329
0
LINE
8
BLACK
6
CONTINUOUS
10
0.681395
20
-1.92329
11
0.680201
21
-1.92475
0
LINE
8
BLACK
6
CONTINUOUS
10
0.680201
20
-1.92475
11
0.678747
21
-1.92594
0
LINE
8
BLACK
6
CONTINUOUS
10
0.678747
20
-1.92594
11
0.677088
21
-1.92683
0
LINE
8
BLACK
6
CONTINUOUS
10
0.677088
20
-1.92683
11
0.675288
21
-1.92737
0
LINE
8
BLACK
6
CONTINUOUS
10
0.675288
20
-1.92737
11
0.673415
21
-1.92756
0
LINE
8
BLACK
6
CONTINUOUS
10
0.673415
20
-1.92756
11
0.654222
21
-1.92756
0
LINE
8
BLACK
6
CONTINUOUS
10
0.654222
20
-1.92756
11
0.65235
21
-1.92737
0
LINE
8
BLACK
6
CONTINUOUS
10
0.65235
20
-1.92737
11
0.65055
21
-1.92683
0
LINE
8
BLACK
6
CONTINUOUS
10
0.65055
20
-1.92683
11
0.648891
21
-1.92594
0
LINE
8
BLACK
6
CONTINUOUS
10
0.648891
20
-1.92594
11
0.647437
21
-1.92475
0
LINE
8
BLACK
6
CONTINUOUS
10
0.647437
20
-1.92475
11
0.646243
21
-1.92329
0
LINE
8
BLACK
6
CONTINUOUS
10
0.646243
20
-1.92329
11
0.645356
21
-1.92163
0
LINE
8
BLACK
6
CONTINUOUS
10
0.645356
20
-1.92163
11
0.64481
21
-1.91983
0
LINE
8
BLACK
6
CONTINUOUS
10
0.64481
20
-1.91983
11
0.644626
21
-1.91796
0
LINE
8
BLACK
6
CONTINUOUS
10
0.644626
20
-1.91796
11
0.644626
21
-1.88204
0
LINE
8
BLACK
6
CONTINUOUS
10
0.644626
20
-1.88204
11
0.64481
21
-1.88017
0
LINE
8
BLACK
6
CONTINUOUS
10
0.64481
20
-1.88017
11
0.645356
21
-1.87837
0
LINE
8
BLACK
6
CONTINUOUS
10
0.645356
20
-1.87837
11
0.646243
21
-1.87671
0
LINE
8
BLACK
6
CONTINUOUS
10
0.646243
20
-1.87671
11
0.647437
21
-1.87525
0
LINE
8
BLACK
6
CONTINUOUS
10
0.647437
20
-1.87525
11
0.648891
21
-1.87406
0
LINE
8
BLACK
6
CONTINUOUS
10
0.648891
20
-1.87406
11
0.65055
21
-1.87317
0
LINE
8
BLACK
6
CONTINUOUS
10
0.65055
20
-1.87317
11
0.65235
21
-1.87263
0
LINE
8
BLACK
6
CONTINUOUS
10
0.65235
20
-1.87263
11
0.654222
21
-1.87244
0
LINE
8
BLACK
6
CONTINUOUS
10
0.654222
20
-1.87244
11
0.673415
21
-1.87244
0
LINE
8
BLACK
6
CONTINUOUS
10
0.673415
20
-1.87244
11
0.675288
21
-1.87263
0
LINE
8
BLACK
6
CONTINUOUS
10
0.601469
20
-1.87263
11
0.603269
21
-1.87317
0
LINE
8
BLACK
6
CONTINUOUS
10
0.603269
20
-1.87317
11
0.604928
21
-1.87406
0
LINE
8
BLACK
6
CONTINUOUS
10
0.604928
20
-1.87406
11
0.606382
21
-1.87525
0
LINE
8
BLACK
6
CONTINUOUS
10
0.606382
20
-1.87525
11
0.607576
21
-1.87671
0
LINE
8
BLACK
6
CONTINUOUS
10
0.607576
20
-1.87671
11
0.608462
21
-1.87837
0
LINE
8
BLACK
6
CONTINUOUS
10
0.608462
20
-1.87837
11
0.609009
21
-1.88017
0
LINE
8
BLACK
6
CONTINUOUS
10
0.609009
20
-1.88017
11
0.609193
21
-1.88204
0
LINE
8
BLACK
6
CONTINUOUS
10
0.609193
20
-1.88204
11
0.609193
21
-1.91796
0
LINE
8
BLACK
6
CONTINUOUS
10
0.609193
20
-1.91796
11
0.609009
21
-1.91983
0
LINE
8
BLACK
6
CONTINUOUS
10
0.609009
20
-1.91983
11
0.608462
21
-1.92163
0
LINE
8
BLACK
6
CONTINUOUS
10
0.608462
20
-1.92163
11
0.607576
21
-1.92329
0
LINE
8
BLACK
6
CONTINUOUS
10
0.607576
20
-1.92329
11
0.606382
21
-1.92475
0
LINE
8
BLACK
6
CONTINUOUS
10
0.606382
20
-1.92475
11
0.604928
21
-1.92594
0
LINE
8
BLACK
6
CONTINUOUS
10
0.604928
20
-1.92594
11
0.603269
21
-1.92683
0
LINE
8
BLACK
6
CONTINUOUS
10
0.603269
20
-1.92683
11
0.601469
21
-1.92737
0
LINE
8
BLACK
6
CONTINUOUS
10
0.601469
20
-1.92737
11
0.599596
21
-1.92756
0
LINE
8
BLACK
6
CONTINUOUS
10
0.599596
20
-1.92756
11
0.580404
21
-1.92756
0
LINE
8
BLACK
6
CONTINUOUS
10
0.580404
20
-1.92756
11
0.578531
21
-1.92737
0
LINE
8
BLACK
6
CONTINUOUS
10
0.578531
20
-1.92737
11
0.576731
21
-1.92683
0
LINE
8
BLACK
6
CONTINUOUS
10
0.576731
20
-1.92683
11
0.575072
21
-1.92594
0
LINE
8
BLACK
6
CONTINUOUS
10
0.575072
20
-1.92594
11
0.573618
21
-1.92475
0
LINE
8
BLACK
6
CONTINUOUS
10
0.573618
20
-1.92475
11
0.572424
21
-1.92329
0
LINE
8
BLACK
6
CONTINUOUS
10
0.572424
20
-1.92329
11
0.571538
21
-1.92163
0
LINE
8
BLACK
6
CONTINUOUS
10
0.571538
20
-1.92163
11
0.570991
21
-1.91983
0
LINE
8
BLACK
6
CONTINUOUS
10
0.570991
20
-1.91983
11
0.570807
21
-1.91796
0
LINE
8
BLACK
6
CONTINUOUS
10
0.570807
20
-1.91796
11
0.570807
21
-1.88204
0
LINE
8
BLACK
6
CONTINUOUS
10
0.570807
20
-1.88204
11
0.570991
21
-1.88017
0
LINE
8
BLACK
6
CONTINUOUS
10
0.570991
20
-1.88017
11
0.571538
21
-1.87837
0
LINE
8
BLACK
6
CONTINUOUS
10
0.571538
20
-1.87837
11
0.572424
21
-1.87671
0
LINE
8
BLACK
6
CONTINUOUS
10
0.572424
20
-1.87671
11
0.573618
21
-1.87525
0
LINE
8
BLACK
6
CONTINUOUS
10
0.573618
20
-1.87525
11
0.575072
21
-1.87406
0
LINE
8
BLACK
6
CONTINUOUS
10
0.575072
20
-1.87406
11
0.576731
21
-1.87317
0
LINE
8
BLACK
6
CONTINUOUS
10
0.576731
20
-1.87317
11
0.578531
21
-1.87263
0
LINE
8
BLACK
6
CONTINUOUS
10
0.578531
20
-1.87263
11
0.580404
21
-1.87244
0
LINE
8
BLACK
6
CONTINUOUS
10
0.580404
20
-1.87244
11
0.599596
21
-1.87244
0
LINE
8
BLACK
6
CONTINUOUS
10
0.599596
20
-1.87244
11
0.601469
21
-1.87263
0
LINE
8
BLACK
6
CONTINUOUS
10
0.495748
20
-1.91709
11
0.464252
21
-1.91709
0
LINE
8
BLACK
6
CONTINUOUS
10
0.464252
20
-1.91709
11
0.464252
21
-1.88165
0
LINE
8
BLACK
6
CONTINUOUS
10
0.464252
20
-1.88165
11
0.495748
21
-1.88165
0
LINE
8
BLACK
6
CONTINUOUS
10
0.495748
20
-1.88165
11
0.495748
21
-1.91709
0
LINE
8
BLACK
6
CONTINUOUS
10
0.53315
20
-1.83835
11
0.501654
21
-1.83835
0
LINE
8
BLACK
6
CONTINUOUS
10
0.501654
20
-1.83835
11
0.501654
21
-1.80291
0
LINE
8
BLACK
6
CONTINUOUS
10
0.501654
20
-1.80291
11
0.53315
21
-1.80291
0
LINE
8
BLACK
6
CONTINUOUS
10
0.53315
20
-1.80291
11
0.53315
21
-1.83835
0
LINE
8
BLACK
6
CONTINUOUS
10
0.458346
20
-1.83835
11
0.42685
21
-1.83835
0
LINE
8
BLACK
6
CONTINUOUS
10
0.42685
20
-1.83835
11
0.42685
21
-1.80291
0
LINE
8
BLACK
6
CONTINUOUS
10
0.42685
20
-1.80291
11
0.458346
21
-1.80291
0
LINE
8
BLACK
6
CONTINUOUS
10
0.458346
20
-1.80291
11
0.458346
21
-1.83835
0
LINE
8
BLACK
6
CONTINUOUS
10
0.621469
20
-1.30263
11
0.623269
21
-1.30317
0
LINE
8
BLACK
6
CONTINUOUS
10
0.623269
20
-1.30317
11
0.624928
21
-1.30406
0
LINE
8
BLACK
6
CONTINUOUS
10
0.624928
20
-1.30406
11
0.626382
21
-1.30525
0
LINE
8
BLACK
6
CONTINUOUS
10
0.626382
20
-1.30525
11
0.627576
21
-1.30671
0
LINE
8
BLACK
6
CONTINUOUS
10
0.627576
20
-1.30671
11
0.628462
21
-1.30837
0
LINE
8
BLACK
6
CONTINUOUS
10
0.628462
20
-1.30837
11
0.629009
21
-1.31017
0
LINE
8
BLACK
6
CONTINUOUS
10
0.629009
20
-1.31017
11
0.629193
21
-1.31204
0
LINE
8
BLACK
6
CONTINUOUS
10
0.629193
20
-1.31204
11
0.629193
21
-1.34796
0
LINE
8
BLACK
6
CONTINUOUS
10
0.629193
20
-1.34796
11
0.629009
21
-1.34983
0
LINE
8
BLACK
6
CONTINUOUS
10
0.629009
20
-1.34983
11
0.628462
21
-1.35163
0
LINE
8
BLACK
6
CONTINUOUS
10
0.628462
20
-1.35163
11
0.627576
21
-1.35329
0
LINE
8
BLACK
6
CONTINUOUS
10
0.627576
20
-1.35329
11
0.626382
21
-1.35475
0
LINE
8
BLACK
6
CONTINUOUS
10
0.626382
20
-1.35475
11
0.624928
21
-1.35594
0
LINE
8
BLACK
6
CONTINUOUS
10
0.624928
20
-1.35594
11
0.623269
21
-1.35683
0
LINE
8
BLACK
6
CONTINUOUS
10
0.623269
20
-1.35683
11
0.621469
21
-1.35737
0
LINE
8
BLACK
6
CONTINUOUS
10
0.621469
20
-1.35737
11
0.619596
21
-1.35756
0
LINE
8
BLACK
6
CONTINUOUS
10
0.619596
20
-1.35756
11
0.600404
21
-1.35756
0
LINE
8
BLACK
6
CONTINUOUS
10
0.600404
20
-1.35756
11
0.598531
21
-1.35737
0
LINE
8
BLACK
6
CONTINUOUS
10
0.598531
20
-1.35737
11
0.596731
21
-1.35683
0
LINE
8
BLACK
6
CONTINUOUS
10
0.596731
20
-1.35683
11
0.595072
21
-1.35594
0
LINE
8
BLACK
6
CONTINUOUS
10
0.595072
20
-1.35594
11
0.593618
21
-1.35475
0
LINE
8
BLACK
6
CONTINUOUS
10
0.593618
20
-1.35475
11
0.592424
21
-1.35329
0
LINE
8
BLACK
6
CONTINUOUS
10
0.592424
20
-1.35329
11
0.591538
21
-1.35163
0
LINE
8
BLACK
6
CONTINUOUS
10
0.591538
20
-1.35163
11
0.590991
21
-1.34983
0
LINE
8
BLACK
6
CONTINUOUS
10
0.590991
20
-1.34983
11
0.590807
21
-1.34796
0
LINE
8
BLACK
6
CONTINUOUS
10
0.590807
20
-1.34796
11
0.590807
21
-1.31204
0
LINE
8
BLACK
6
CONTINUOUS
10
0.590807
20
-1.31204
11
0.590991
21
-1.31017
0
LINE
8
BLACK
6
CONTINUOUS
10
0.590991
20
-1.31017
11
0.591538
21
-1.30837
0
LINE
8
BLACK
6
CONTINUOUS
10
0.591538
20
-1.30837
11
0.592424
21
-1.30671
0
LINE
8
BLACK
6
CONTINUOUS
10
0.592424
20
-1.30671
11
0.593618
21
-1.30525
0
LINE
8
BLACK
6
CONTINUOUS
10
0.593618
20
-1.30525
11
0.595072
21
-1.30406
0
LINE
8
BLACK
6
CONTINUOUS
10
0.595072
20
-1.30406
11
0.596731
21
-1.30317
0
LINE
8
BLACK
6
CONTINUOUS
10
0.596731
20
-1.30317
11
0.598531
21
-1.30263
0
LINE
8
BLACK
6
CONTINUOUS
10
0.598531
20
-1.30263
11
0.600404
21
-1.30244
0
LINE
8
BLACK
6
CONTINUOUS
10
0.600404
20
-1.30244
11
0.619596
21
-1.30244
0
LINE
8
BLACK
6
CONTINUOUS
10
0.619596
20
-1.30244
11
0.621469
21
-1.30263
0
LINE
8
BLACK
6
CONTINUOUS
10
0.695288
20
-1.30263
11
0.697088
21
-1.30317
0
LINE
8
BLACK
6
CONTINUOUS
10
0.697088
20
-1.30317
11
0.698747
21
-1.30406
0
LINE
8
BLACK
6
CONTINUOUS
10
0.698747
20
-1.30406
11
0.700201
21
-1.30525
0
LINE
8
BLACK
6
CONTINUOUS
10
0.700201
20
-1.30525
11
0.701395
21
-1.30671
0
LINE
8
BLACK
6
CONTINUOUS
10
0.701395
20
-1.30671
11
0.702281
21
-1.30837
0
LINE
8
BLACK
6
CONTINUOUS
10
0.702281
20
-1.30837
11
0.702827
21
-1.31017
0
LINE
8
BLACK
6
CONTINUOUS
10
0.702827
20
-1.31017
11
0.703012
21
-1.31204
0
LINE
8
BLACK
6
CONTINUOUS
10
0.703012
20
-1.31204
11
0.703012
21
-1.34796
0
LINE
8
BLACK
6
CONTINUOUS
10
0.703012
20
-1.34796
11
0.702827
21
-1.34983
0
LINE
8
BLACK
6
CONTINUOUS
10
0.702827
20
-1.34983
11
0.702281
21
-1.35163
0
LINE
8
BLACK
6
CONTINUOUS
10
0.702281
20
-1.35163
11
0.701395
21
-1.35329
0
LINE
8
BLACK
6
CONTINUOUS
10
0.701395
20
-1.35329
11
0.700201
21
-1.35475
0
LINE
8
BLACK
6
CONTINUOUS
10
0.700201
20
-1.35475
11
0.698747
21
-1.35594
0
LINE
8
BLACK
6
CONTINUOUS
10
0.698747
20
-1.35594
11
0.697088
21
-1.35683
0
LINE
8
BLACK
6
CONTINUOUS
10
0.697088
20
-1.35683
11
0.695288
21
-1.35737
0
LINE
8
BLACK
6
CONTINUOUS
10
0.695288
20
-1.35737
11
0.693415
21
-1.35756
0
LINE
8
BLACK
6
CONTINUOUS
10
0.693415
20
-1.35756
11
0.674222
21
-1.35756
0
LINE
8
BLACK
6
CONTINUOUS
10
0.674222
20
-1.35756
11
0.67235
21
-1.35737
0
LINE
8
BLACK
6
CONTINUOUS
10
0.67235
20
-1.35737
11
0.67055
21
-1.35683
0
LINE
8
BLACK
6
CONTINUOUS
10
0.67055
20
-1.35683
11
0.668891
21
-1.35594
0
LINE
8
BLACK
6
CONTINUOUS
10
0.668891
20
-1.35594
11
0.667437
21
-1.35475
0
LINE
8
BLACK
6
CONTINUOUS
10
0.667437
20
-1.35475
11
0.666243
21
-1.35329
0
LINE
8
BLACK
6
CONTINUOUS
10
0.666243
20
-1.35329
11
0.665356
21
-1.35163
0
LINE
8
BLACK
6
CONTINUOUS
10
0.665356
20
-1.35163
11
0.66481
21
-1.34983
0
LINE
8
BLACK
6
CONTINUOUS
10
0.66481
20
-1.34983
11
0.664626
21
-1.34796
0
LINE
8
BLACK
6
CONTINUOUS
10
0.664626
20
-1.34796
11
0.664626
21
-1.31204
0
LINE
8
BLACK
6
CONTINUOUS
10
0.664626
20
-1.31204
11
0.66481
21
-1.31017
0
LINE
8
BLACK
6
CONTINUOUS
10
0.66481
20
-1.31017
11
0.665356
21
-1.30837
0
LINE
8
BLACK
6
CONTINUOUS
10
0.665356
20
-1.30837
11
0.666243
21
-1.30671
0
LINE
8
BLACK
6
CONTINUOUS
10
0.666243
20
-1.30671
11
0.667437
21
-1.30525
0
LINE
8
BLACK
6
CONTINUOUS
10
0.667437
20
-1.30525
11
0.668891
21
-1.30406
0
LINE
8
BLACK
6
CONTINUOUS
10
0.668891
20
-1.30406
11
0.67055
21
-1.30317
0
LINE
8
BLACK
6
CONTINUOUS
10
0.67055
20
-1.30317
11
0.67235
21
-1.30263
0
LINE
8
BLACK
6
CONTINUOUS
10
0.67235
20
-1.30263
11
0.674222
21
-1.30244
0
LINE
8
BLACK
6
CONTINUOUS
10
0.674222
20
-1.30244
11
0.693415
21
-1.30244
0
LINE
8
BLACK
6
CONTINUOUS
10
0.693415
20
-1.30244
11
0.695288
21
-1.30263
0
LINE
8
BLACK
6
CONTINUOUS
10
0.768346
20
-1.35315
11
0.732913
21
-1.35315
0
LINE
8
BLACK
6
CONTINUOUS
10
0.732913
20
-1.35315
11
0.732913
21
-1.32165
0
LINE
8
BLACK
6
CONTINUOUS
10
0.732913
20
-1.32165
11
0.768346
21
-1.32165
0
LINE
8
BLACK
6
CONTINUOUS
10
0.768346
20
-1.32165
11
0.768346
21
-1.35315
0
LINE
8
BLACK
6
CONTINUOUS
10
0.847087
20
-1.31575
11
0.811654
21
-1.31575
0
LINE
8
BLACK
6
CONTINUOUS
10
0.811654
20
-1.31575
11
0.811654
21
-1.28425
0
LINE
8
BLACK
6
CONTINUOUS
10
0.811654
20
-1.28425
11
0.847087
21
-1.28425
0
LINE
8
BLACK
6
CONTINUOUS
10
0.847087
20
-1.28425
11
0.847087
21
-1.31575
0
LINE
8
BLACK
6
CONTINUOUS
10
0.768346
20
-1.27835
11
0.732913
21
-1.27835
0
LINE
8
BLACK
6
CONTINUOUS
10
0.732913
20
-1.27835
11
0.732913
21
-1.24685
0
LINE
8
BLACK
6
CONTINUOUS
10
0.732913
20
-1.24685
11
0.768346
21
-1.24685
0
LINE
8
BLACK
6
CONTINUOUS
10
0.768346
20
-1.24685
11
0.768346
21
-1.27835
0
LINE
8
BLACK
6
CONTINUOUS
10
1.74036
20
-0.200661
11
1.7422
21
-0.20122
0
LINE
8
BLACK
6
CONTINUOUS
10
1.7422
20
-0.20122
11
1.7439
21
-0.202129
0
LINE
8
BLACK
6
CONTINUOUS
10
1.7439
20
-0.202129
11
1.74539
21
-0.203351
0
LINE
8
BLACK
6
CONTINUOUS
10
1.74539
20
-0.203351
11
1.74661
21
-0.20484
0
LINE
8
BLACK
6
CONTINUOUS
10
1.74661
20
-0.20484
11
1.74752
21
-0.206539
0
LINE
8
BLACK
6
CONTINUOUS
10
1.74752
20
-0.206539
11
1.74808
21
-0.208382
0
LINE
8
BLACK
6
CONTINUOUS
10
1.74808
20
-0.208382
11
1.74827
21
-0.210299
0
LINE
8
BLACK
6
CONTINUOUS
10
1.74827
20
-0.210299
11
1.74827
21
-0.308756
0
LINE
8
BLACK
6
CONTINUOUS
10
1.74827
20
-0.308756
11
1.74808
21
-0.310673
0
LINE
8
BLACK
6
CONTINUOUS
10
1.74808
20
-0.310673
11
1.74752
21
-0.312516
0
LINE
8
BLACK
6
CONTINUOUS
10
1.74752
20
-0.312516
11
1.74661
21
-0.314215
0
LINE
8
BLACK
6
CONTINUOUS
10
1.74661
20
-0.314215
11
1.74539
21
-0.315704
0
LINE
8
BLACK
6
CONTINUOUS
10
1.74539
20
-0.315704
11
1.7439
21
-0.316927
0
LINE
8
BLACK
6
CONTINUOUS
10
1.7439
20
-0.316927
11
1.7422
21
-0.317835
0
LINE
8
BLACK
6
CONTINUOUS
10
1.7422
20
-0.317835
11
1.74036
21
-0.318394
0
LINE
8
BLACK
6
CONTINUOUS
10
1.74036
20
-0.318394
11
1.73844
21
-0.318583
0
LINE
8
BLACK
6
CONTINUOUS
10
1.73844
20
-0.318583
11
1.6951
21
-0.318583
0
LINE
8
BLACK
6
CONTINUOUS
10
1.6951
20
-0.318583
11
1.69319
21
-0.318394
0
LINE
8
BLACK
6
CONTINUOUS
10
1.69319
20
-0.318394
11
1.69134
21
-0.317835
0
LINE
8
BLACK
6
CONTINUOUS
10
1.69134
20
-0.317835
11
1.68964
21
-0.316927
0
LINE
8
BLACK
6
CONTINUOUS
10
1.68964
20
-0.316927
11
1.68815
21
-0.315704
0
LINE
8
BLACK
6
CONTINUOUS
10
1.68815
20
-0.315704
11
1.68693
21
-0.314215
0
LINE
8
BLACK
6
CONTINUOUS
10
1.68693
20
-0.314215
11
1.68602
21
-0.312516
0
LINE
8
BLACK
6
CONTINUOUS
10
1.68602
20
-0.312516
11
1.68546
21
-0.310673
0
LINE
8
BLACK
6
CONTINUOUS
10
1.68546
20
-0.310673
11
1.68528
21
-0.308756
0
LINE
8
BLACK
6
CONTINUOUS
10
1.68528
20
-0.308756
11
1.68528
21
-0.210299
0
LINE
8
BLACK
6
CONTINUOUS
10
1.68528
20
-0.210299
11
1.68546
21
-0.208382
0
LINE
8
BLACK
6
CONTINUOUS
10
1.68546
20
-0.208382
11
1.68602
21
-0.206539
0
LINE
8
BLACK
6
CONTINUOUS
10
1.68602
20
-0.206539
11
1.68693
21
-0.20484
0
LINE
8
BLACK
6
CONTINUOUS
10
1.68693
20
-0.20484
11
1.68815
21
-0.203351
0
LINE
8
BLACK
6
CONTINUOUS
10
1.68815
20
-0.203351
11
1.68964
21
-0.202129
0
LINE
8
BLACK
6
CONTINUOUS
10
1.68964
20
-0.202129
11
1.69134
21
-0.20122
0
LINE
8
BLACK
6
CONTINUOUS
10
1.69134
20
-0.20122
11
1.69319
21
-0.200661
0
LINE
8
BLACK
6
CONTINUOUS
10
1.69319
20
-0.200661
11
1.6951
21
-0.200472
0
LINE
8
BLACK
6
CONTINUOUS
10
1.6951
20
-0.200472
11
1.73844
21
-0.200472
0
LINE
8
BLACK
6
CONTINUOUS
10
1.73844
20
-0.200472
11
1.74036
21
-0.200661
0
LINE
8
BLACK
6
CONTINUOUS
10
2.08681
20
-0.200661
11
2.08866
21
-0.20122
0
LINE
8
BLACK
6
CONTINUOUS
10
2.08866
20
-0.20122
11
2.09036
21
-0.202129
0
LINE
8
BLACK
6
CONTINUOUS
10
2.09036
20
-0.202129
11
2.09185
21
-0.203351
0
LINE
8
BLACK
6
CONTINUOUS
10
2.09185
20
-0.203351
11
2.09307
21
-0.20484
0
LINE
8
BLACK
6
CONTINUOUS
10
2.09307
20
-0.20484
11
2.09398
21
-0.206539
0
LINE
8
BLACK
6
CONTINUOUS
10
2.09398
20
-0.206539
11
2.09454
21
-0.208382
0
LINE
8
BLACK
6
CONTINUOUS
10
2.09454
20
-0.208382
11
2.09472
21
-0.210299
0
LINE
8
BLACK
6
CONTINUOUS
10
2.09472
20
-0.210299
11
2.09472
21
-0.308756
0
LINE
8
BLACK
6
CONTINUOUS
10
2.09472
20
-0.308756
11
2.09454
21
-0.310673
0
LINE
8
BLACK
6
CONTINUOUS
10
2.09454
20
-0.310673
11
2.09398
21
-0.312516
0
LINE
8
BLACK
6
CONTINUOUS
10
2.09398
20
-0.312516
11
2.09307
21
-0.314215
0
LINE
8
BLACK
6
CONTINUOUS
10
2.09307
20
-0.314215
11
2.09185
21
-0.315704
0
LINE
8
BLACK
6
CONTINUOUS
10
2.09185
20
-0.315704
11
2.09036
21
-0.316927
0
LINE
8
BLACK
6
CONTINUOUS
10
2.09036
20
-0.316927
11
2.08866
21
-0.317835
0
LINE
8
BLACK
6
CONTINUOUS
10
2.08866
20
-0.317835
11
2.08681
21
-0.318394
0
LINE
8
BLACK
6
CONTINUOUS
10
2.08681
20
-0.318394
11
2.0849
21
-0.318583
0
LINE
8
BLACK
6
CONTINUOUS
10
2.0849
20
-0.318583
11
2.04156
21
-0.318583
0
LINE
8
BLACK
6
CONTINUOUS
10
2.04156
20
-0.318583
11
2.03964
21
-0.318394
0
LINE
8
BLACK
6
CONTINUOUS
10
2.03964
20
-0.318394
11
2.0378
21
-0.317835
0
LINE
8
BLACK
6
CONTINUOUS
10
2.0378
20
-0.317835
11
2.0361
21
-0.316927
0
LINE
8
BLACK
6
CONTINUOUS
10
2.0361
20
-0.316927
11
2.03461
21
-0.315704
0
LINE
8
BLACK
6
CONTINUOUS
10
2.03461
20
-0.315704
11
2.03339
21
-0.314215
0
LINE
8
BLACK
6
CONTINUOUS
10
2.03339
20
-0.314215
11
2.03248
21
-0.312516
0
LINE
8
BLACK
6
CONTINUOUS
10
2.03248
20
-0.312516
11
2.03192
21
-0.310673
0
LINE
8
BLACK
6
CONTINUOUS
10
2.03192
20
-0.310673
11
2.03173
21
-0.308756
0
LINE
8
BLACK
6
CONTINUOUS
10
2.03173
20
-0.308756
11
2.03173
21
-0.210299
0
LINE
8
BLACK
6
CONTINUOUS
10
2.03173
20
-0.210299
11
2.03192
21
-0.208382
0
LINE
8
BLACK
6
CONTINUOUS
10
2.03192
20
-0.208382
11
2.03248
21
-0.206539
0
LINE
8
BLACK
6
CONTINUOUS
10
2.03248
20
-0.206539
11
2.03339
21
-0.20484
0
LINE
8
BLACK
6
CONTINUOUS
10
2.03339
20
-0.20484
11
2.03461
21
-0.203351
0
LINE
8
BLACK
6
CONTINUOUS
10
2.03461
20
-0.203351
11
2.0361
21
-0.202129
0
LINE
8
BLACK
6
CONTINUOUS
10
2.0361
20
-0.202129
11
2.0378
21
-0.20122
0
LINE
8
BLACK
6
CONTINUOUS
10
2.0378
20
-0.20122
11
2.03964
21
-0.200661
0
LINE
8
BLACK
6
CONTINUOUS
10
2.03964
20
-0.200661
11
2.04156
21
-0.200472
0
LINE
8
BLACK
6
CONTINUOUS
10
2.04156
20
-0.200472
11
2.0849
21
-0.200472
0
LINE
8
BLACK
6
CONTINUOUS
10
2.0849
20
-0.200472
11
2.08681
21
-0.200661
0
LINE
8
BLACK
6
CONTINUOUS
10
0.534094
20
-0.317638
11
0.471102
21
-0.317638
0
LINE
8
BLACK
6
CONTINUOUS
10
0.471102
20
-0.317638
11
0.471102
21
-0.199528
0
LINE
8
BLACK
6
CONTINUOUS
10
0.471102
20
-0.199528
11
0.534094
21
-0.199528
0
LINE
8
BLACK
6
CONTINUOUS
10
0.534094
20
-0.199528
11
0.534094
21
-0.317638
0
LINE
8
BLACK
6
CONTINUOUS
10
0.108898
20
-0.317638
11
0.0459055
21
-0.317638
0
LINE
8
BLACK
6
CONTINUOUS
10
0.0459055
20
-0.317638
11
0.0459055
21
-0.199528
0
LINE
8
BLACK
6
CONTINUOUS
10
0.0459055
20
-0.199528
11
0.108898
21
-0.199528
0
LINE
8
BLACK
6
CONTINUOUS
10
0.108898
20
-0.199528
11
0.108898
21
-0.317638
0
LINE
8
BLACK
6
CONTINUOUS
10
1.9805
20
-0.0628663
11
1.98235
21
-0.0634264
0
LINE
8
BLACK
6
CONTINUOUS
10
1.98235
20
-0.0634264
11
1.98405
21
-0.0643359
0
LINE
8
BLACK
6
CONTINUOUS
10
1.98405
20
-0.0643359
11
1.98554
21
-0.06556
0
LINE
8
BLACK
6
CONTINUOUS
10
1.98554
20
-0.06556
11
1.98677
21
-0.0670515
0
LINE
8
BLACK
6
CONTINUOUS
10
1.98677
20
-0.0670515
11
1.98768
21
-0.0687531
0
LINE
8
BLACK
6
CONTINUOUS
10
1.98768
20
-0.0687531
11
1.98824
21
-0.0705995
0
LINE
8
BLACK
6
CONTINUOUS
10
1.98824
20
-0.0705995
11
1.98843
21
-0.0725197
0
LINE
8
BLACK
6
CONTINUOUS
10
1.98843
20
-0.0725197
11
1.98843
21
-0.26937
0
LINE
8
BLACK
6
CONTINUOUS
10
1.98843
20
-0.26937
11
1.98824
21
-0.27129
0
LINE
8
BLACK
6
CONTINUOUS
10
1.98824
20
-0.27129
11
1.98768
21
-0.273137
0
LINE
8
BLACK
6
CONTINUOUS
10
1.98768
20
-0.273137
11
1.98677
21
-0.274838
0
LINE
8
BLACK
6
CONTINUOUS
10
1.98677
20
-0.274838
11
1.98554
21
-0.27633
0
LINE
8
BLACK
6
CONTINUOUS
10
1.98554
20
-0.27633
11
1.98405
21
-0.277554
0
LINE
8
BLACK
6
CONTINUOUS
10
1.98405
20
-0.277554
11
1.98235
21
-0.278463
0
LINE
8
BLACK
6
CONTINUOUS
10
1.98235
20
-0.278463
11
1.9805
21
-0.279023
0
LINE
8
BLACK
6
CONTINUOUS
10
1.9805
20
-0.279023
11
1.97858
21
-0.279213
0
LINE
8
BLACK
6
CONTINUOUS
10
1.97858
20
-0.279213
11
1.9589
21
-0.279213
0
LINE
8
BLACK
6
CONTINUOUS
10
1.9589
20
-0.279213
11
1.95698
21
-0.279023
0
LINE
8
BLACK
6
CONTINUOUS
10
1.95698
20
-0.279023
11
1.95513
21
-0.278463
0
LINE
8
BLACK
6
CONTINUOUS
10
1.95513
20
-0.278463
11
1.95343
21
-0.277554
0
LINE
8
BLACK
6
CONTINUOUS
10
1.95343
20
-0.277554
11
1.95194
21
-0.27633
0
LINE
8
BLACK
6
CONTINUOUS
10
1.95194
20
-0.27633
11
1.95071
21
-0.274838
0
LINE
8
BLACK
6
CONTINUOUS
10
1.95071
20
-0.274838
11
1.9498
21
-0.273137
0
LINE
8
BLACK
6
CONTINUOUS
10
1.9498
20
-0.273137
11
1.94924
21
-0.27129
0
LINE
8
BLACK
6
CONTINUOUS
10
1.94924
20
-0.27129
11
1.94906
21
-0.26937
0
LINE
8
BLACK
6
CONTINUOUS
10
1.94906
20
-0.26937
11
1.94906
21
-0.0725197
0
LINE
8
BLACK
6
CONTINUOUS
10
1.94906
20
-0.0725197
11
1.94924
21
-0.0705995
0
LINE
8
BLACK
6
CONTINUOUS
10
1.94924
20
-0.0705995
11
1.9498
21
-0.0687531
0
LINE
8
BLACK
6
CONTINUOUS
10
1.9498
20
-0.0687531
11
1.95071
21
-0.0670515
0
LINE
8
BLACK
6
CONTINUOUS
10
1.95071
20
-0.0670515
11
1.95194
21
-0.06556
0
LINE
8
BLACK
6
CONTINUOUS
10
1.95194
20
-0.06556
11
1.95343
21
-0.0643359
0
LINE
8
BLACK
6
CONTINUOUS
10
1.95343
20
-0.0643359
11
1.95513
21
-0.0634264
0
LINE
8
BLACK
6
CONTINUOUS
10
1.95513
20
-0.0634264
11
1.95698
21
-0.0628663
0
LINE
8
BLACK
6
CONTINUOUS
10
1.95698
20
-0.0628663
11
1.9589
21
-0.0626772
0
LINE
8
BLACK
6
CONTINUOUS
10
1.9589
20
-0.0626772
11
1.97858
21
-0.0626772
0
LINE
8
BLACK
6
CONTINUOUS
10
1.97858
20
-0.0626772
11
1.9805
21
-0.0628663
0
LINE
8
BLACK
6
CONTINUOUS
10
1.82302
20
-0.0628663
11
1.82487
21
-0.0634264
0
LINE
8
BLACK
6
CONTINUOUS
10
1.82487
20
-0.0634264
11
1.82657
21
-0.0643359
0
LINE
8
BLACK
6
CONTINUOUS
10
1.82657
20
-0.0643359
11
1.82806
21
-0.06556
0
LINE
8
BLACK
6
CONTINUOUS
10
1.82806
20
-0.06556
11
1.82929
21
-0.0670515
0
LINE
8
BLACK
6
CONTINUOUS
10
1.82929
20
-0.0670515
11
1.8302
21
-0.0687531
0
LINE
8
BLACK
6
CONTINUOUS
10
1.8302
20
-0.0687531
11
1.83076
21
-0.0705995
0
LINE
8
BLACK
6
CONTINUOUS
10
1.83076
20
-0.0705995
11
1.83094
21
-0.0725197
0
LINE
8
BLACK
6
CONTINUOUS
10
1.83094
20
-0.0725197
11
1.83094
21
-0.26937
0
LINE
8
BLACK
6
CONTINUOUS
10
1.83094
20
-0.26937
11
1.83076
21
-0.27129
0
LINE
8
BLACK
6
CONTINUOUS
10
1.83076
20
-0.27129
11
1.8302
21
-0.273137
0
LINE
8
BLACK
6
CONTINUOUS
10
1.8302
20
-0.273137
11
1.82929
21
-0.274838
0
LINE
8
BLACK
6
CONTINUOUS
10
1.82929
20
-0.274838
11
1.82806
21
-0.27633
0
LINE
8
BLACK
6
CONTINUOUS
10
1.82806
20
-0.27633
11
1.82657
21
-0.277554
0
LINE
8
BLACK
6
CONTINUOUS
10
1.82657
20
-0.277554
11
1.82487
21
-0.278463
0
LINE
8
BLACK
6
CONTINUOUS
10
1.82487
20
-0.278463
11
1.82302
21
-0.279023
0
LINE
8
BLACK
6
CONTINUOUS
10
1.82302
20
-0.279023
11
1.8211
21
-0.279213
0
LINE
8
BLACK
6
CONTINUOUS
10
1.8211
20
-0.279213
11
1.80142
21
-0.279213
0
LINE
8
BLACK
6
CONTINUOUS
10
1.80142
20
-0.279213
11
1.7995
21
-0.279023
0
LINE
8
BLACK
6
CONTINUOUS
10
1.7995
20
-0.279023
11
1.79765
21
-0.278463
0
LINE
8
BLACK
6
CONTINUOUS
10
1.79765
20
-0.278463
11
1.79595
21
-0.277554
0
LINE
8
BLACK
6
CONTINUOUS
10
1.79595
20
-0.277554
11
1.79446
21
-0.27633
0
LINE
8
BLACK
6
CONTINUOUS
10
1.79446
20
-0.27633
11
1.79323
21
-0.274838
0
LINE
8
BLACK
6
CONTINUOUS
10
1.79323
20
-0.274838
11
1.79232
21
-0.273137
0
LINE
8
BLACK
6
CONTINUOUS
10
1.79232
20
-0.273137
11
1.79176
21
-0.27129
0
LINE
8
BLACK
6
CONTINUOUS
10
1.79176
20
-0.27129
11
1.79157
21
-0.26937
0
LINE
8
BLACK
6
CONTINUOUS
10
1.79157
20
-0.26937
11
1.79157
21
-0.0725197
0
LINE
8
BLACK
6
CONTINUOUS
10
1.79157
20
-0.0725197
11
1.79176
21
-0.0705995
0
LINE
8
BLACK
6
CONTINUOUS
10
1.79176
20
-0.0705995
11
1.79232
21
-0.0687531
0
LINE
8
BLACK
6
CONTINUOUS
10
1.79232
20
-0.0687531
11
1.79323
21
-0.0670515
0
LINE
8
BLACK
6
CONTINUOUS
10
1.79323
20
-0.0670515
11
1.79446
21
-0.06556
0
LINE
8
BLACK
6
CONTINUOUS
10
1.79446
20
-0.06556
11
1.79595
21
-0.0643359
0
LINE
8
BLACK
6
CONTINUOUS
10
1.79595
20
-0.0643359
11
1.79765
21
-0.0634264
0
LINE
8
BLACK
6
CONTINUOUS
10
1.79765
20
-0.0634264
11
1.7995
21
-0.0628663
0
LINE
8
BLACK
6
CONTINUOUS
10
1.7995
20
-0.0628663
11
1.80142
21
-0.0626772
0
LINE
8
BLACK
6
CONTINUOUS
10
1.80142
20
-0.0626772
11
1.8211
21
-0.0626772
0
LINE
8
BLACK
6
CONTINUOUS
10
1.8211
20
-0.0626772
11
1.82302
21
-0.0628663
0
LINE
8
BLACK
6
CONTINUOUS
10
1.90176
20
-0.0628663
11
1.90361
21
-0.0634264
0
LINE
8
BLACK
6
CONTINUOUS
10
1.90361
20
-0.0634264
11
1.90531
21
-0.0643359
0
LINE
8
BLACK
6
CONTINUOUS
10
1.90531
20
-0.0643359
11
1.9068
21
-0.06556
0
LINE
8
BLACK
6
CONTINUOUS
10
1.9068
20
-0.06556
11
1.90803
21
-0.0670515
0
LINE
8
BLACK
6
CONTINUOUS
10
1.90803
20
-0.0670515
11
1.90894
21
-0.0687531
0
LINE
8
BLACK
6
CONTINUOUS
10
1.90894
20
-0.0687531
11
1.9095
21
-0.0705995
0
LINE
8
BLACK
6
CONTINUOUS
10
1.9095
20
-0.0705995
11
1.90969
21
-0.0725197
0
LINE
8
BLACK
6
CONTINUOUS
10
1.90969
20
-0.0725197
11
1.90969
21
-0.26937
0
LINE
8
BLACK
6
CONTINUOUS
10
1.90969
20
-0.26937
11
1.9095
21
-0.27129
0
LINE
8
BLACK
6
CONTINUOUS
10
1.9095
20
-0.27129
11
1.90894
21
-0.273137
0
LINE
8
BLACK
6
CONTINUOUS
10
1.90894
20
-0.273137
11
1.90803
21
-0.274838
0
LINE
8
BLACK
6
CONTINUOUS
10
1.90803
20
-0.274838
11
1.9068
21
-0.27633
0
LINE
8
BLACK
6
CONTINUOUS
10
1.9068
20
-0.27633
11
1.90531
21
-0.277554
0
LINE
8
BLACK
6
CONTINUOUS
10
1.90531
20
-0.277554
11
1.90361
21
-0.278463
0
LINE
8
BLACK
6
CONTINUOUS
10
1.90361
20
-0.278463
11
1.90176
21
-0.279023
0
LINE
8
BLACK
6
CONTINUOUS
10
1.90176
20
-0.279023
11
1.89984
21
-0.279213
0
LINE
8
BLACK
6
CONTINUOUS
10
1.89984
20
-0.279213
11
1.88016
21
-0.279213
0
LINE
8
BLACK
6
CONTINUOUS
10
1.88016
20
-0.279213
11
1.87824
21
-0.279023
0
LINE
8
BLACK
6
CONTINUOUS
10
1.87824
20
-0.279023
11
1.87639
21
-0.278463
0
LINE
8
BLACK
6
CONTINUOUS
10
1.87639
20
-0.278463
11
1.87469
21
-0.277554
0
LINE
8
BLACK
6
CONTINUOUS
10
1.87469
20
-0.277554
11
1.8732
21
-0.27633
0
LINE
8
BLACK
6
CONTINUOUS
10
1.8732
20
-0.27633
11
1.87197
21
-0.274838
0
LINE
8
BLACK
6
CONTINUOUS
10
1.87197
20
-0.274838
11
1.87106
21
-0.273137
0
LINE
8
BLACK
6
CONTINUOUS
10
1.87106
20
-0.273137
11
1.8705
21
-0.27129
0
LINE
8
BLACK
6
CONTINUOUS
10
1.8705
20
-0.27129
11
1.87031
21
-0.26937
0
LINE
8
BLACK
6
CONTINUOUS
10
1.87031
20
-0.26937
11
1.87031
21
-0.0725197
0
LINE
8
BLACK
6
CONTINUOUS
10
1.87031
20
-0.0725197
11
1.8705
21
-0.0705995
0
LINE
8
BLACK
6
CONTINUOUS
10
1.8705
20
-0.0705995
11
1.87106
21
-0.0687531
0
LINE
8
BLACK
6
CONTINUOUS
10
1.87106
20
-0.0687531
11
1.87197
21
-0.0670515
0
LINE
8
BLACK
6
CONTINUOUS
10
1.87197
20
-0.0670515
11
1.8732
21
-0.06556
0
LINE
8
BLACK
6
CONTINUOUS
10
1.8732
20
-0.06556
11
1.87469
21
-0.0643359
0
LINE
8
BLACK
6
CONTINUOUS
10
1.87469
20
-0.0643359
11
1.87639
21
-0.0634264
0
LINE
8
BLACK
6
CONTINUOUS
10
1.87639
20
-0.0634264
11
1.87824
21
-0.0628663
0
LINE
8
BLACK
6
CONTINUOUS
10
1.87824
20
-0.0628663
11
1.88016
21
-0.0626772
0
LINE
8
BLACK
6
CONTINUOUS
10
1.88016
20
-0.0626772
11
1.89984
21
-0.0626772
0
LINE
8
BLACK
6
CONTINUOUS
10
1.89984
20
-0.0626772
11
1.90176
21
-0.0628663
0
LINE
8
BLACK
6
CONTINUOUS
10
0.427795
20
-0.278268
11
0.388425
21
-0.278268
0
LINE
8
BLACK
6
CONTINUOUS
10
0.388425
20
-0.278268
11
0.388425
21
-0.0617323
0
LINE
8
BLACK
6
CONTINUOUS
10
0.388425
20
-0.0617323
11
0.427795
21
-0.0617323
0
LINE
8
BLACK
6
CONTINUOUS
10
0.427795
20
-0.0617323
11
0.427795
21
-0.278268
0
LINE
8
BLACK
6
CONTINUOUS
10
0.191575
20
-0.278268
11
0.152205
21
-0.278268
0
LINE
8
BLACK
6
CONTINUOUS
10
0.152205
20
-0.278268
11
0.152205
21
-0.0617323
0
LINE
8
BLACK
6
CONTINUOUS
10
0.152205
20
-0.0617323
11
0.191575
21
-0.0617323
0
LINE
8
BLACK
6
CONTINUOUS
10
0.191575
20
-0.0617323
11
0.191575
21
-0.278268
0
LINE
8
BLACK
6
CONTINUOUS
10
0.349055
20
-0.278268
11
0.309685
21
-0.278268
0
LINE
8
BLACK
6
CONTINUOUS
10
0.309685
20
-0.278268
11
0.309685
21
-0.0617323
0
LINE
8
BLACK
6
CONTINUOUS
10
0.309685
20
-0.0617323
11
0.349055
21
-0.0617323
0
LINE
8
BLACK
6
CONTINUOUS
10
0.349055
20
-0.0617323
11
0.349055
21
-0.278268
0
LINE
8
BLACK
6
CONTINUOUS
10
0.270315
20
-0.278268
11
0.230945
21
-0.278268
0
LINE
8
BLACK
6
CONTINUOUS
10
0.230945
20
-0.278268
11
0.230945
21
-0.0617323
0
LINE
8
BLACK
6
CONTINUOUS
10
0.230945
20
-0.0617323
11
0.270315
21
-0.0617323
0
LINE
8
BLACK
6
CONTINUOUS
10
0.270315
20
-0.0617323
11
0.270315
21
-0.278268
  0
ENDSEC
  0
EOF
