  0
SECTION
  2
HEADER
  9
$ANGBASE
  50
0.0
  9
$ANGDIR
  70
1
  9
$MEASUREMENT
  70
0
  0
ENDSEC
  0
SECTION
  2
TABLES
  0
TABLE
  2
LTYPE
  70
4
  0
LTYPE
  5
40F
  2
CONTINUOUS
  70
0
  3
Solid line
  72
65
  73
0
  40
0.0
  0
LTYPE
  5
410
  2
DASHDOT
 70
0
  3
Dash Dot ____ _ ____ _
 72
65
 73
4
 40
2.0
 49
1.25
 49
-0.25
 49
0.25
 49
-0.25
  0
LTYPE
  5
411
  2
DASHED
 70
0
  3
Dashed __ __ __ __ __
 72
65
 73
2
 40
0.75
 49
0.5
 49
-0.25
  0
LTYPE
  5
43B
  2
DOTTED
 70
0
  3
Dotted .  .  .  .
 72
65
 73
2
 40
0.2
 49
0.0
 49
-0.2
  0
ENDTAB
  0
TABLE
  2
STYLE
  70
4
  0
STYLE
  2
KICAD
  70
0
  40
0
  41
1
  42
1
  50
0
  71
0
  3
isocp.shx
  0
STYLE
  2
KICADB
  70
0
  40
0
  41
1
  42
1
  50
0
  71
0
  3
isocp.shx
  0
STYLE
  2
KICADI
  70
0
  40
0
  41
1
  42
1
  50
15
  71
0
  3
isocp.shx
  0
STYLE
  2
KICADBI
  70
0
  40
0
  41
1
  42
1
  50
15
  71
0
  3
isocp.shx
  0
ENDTAB
  0
TABLE
  2
LAYER
  70
1
  0
LAYER
  2
BLACK
  70
0
  62
7
  6
CONTINUOUS
  0
ENDTAB
  0
ENDSEC
  0
SECTION
  2
ENTITIES
0
LINE
8
BLACK
6
CONTINUOUS
10
1.14263
20
-2.06836
11
1.15051
21
-2.07162
0
LINE
8
BLACK
6
CONTINUOUS
10
1.15051
20
-2.07162
11
1.15761
21
-2.07636
0
LINE
8
BLACK
6
CONTINUOUS
10
1.15761
20
-2.07636
11
1.16364
21
-2.08239
0
LINE
8
BLACK
6
CONTINUOUS
10
1.16364
20
-2.08239
11
1.16838
21
-2.08949
0
LINE
8
BLACK
6
CONTINUOUS
10
1.16838
20
-2.08949
11
1.17164
21
-2.09737
0
LINE
8
BLACK
6
CONTINUOUS
10
1.17164
20
-2.09737
11
1.17331
21
-2.10573
0
LINE
8
BLACK
6
CONTINUOUS
10
1.17331
20
-2.10573
11
1.17331
21
-2.11427
0
LINE
8
BLACK
6
CONTINUOUS
10
1.17331
20
-2.11427
11
1.17164
21
-2.12263
0
LINE
8
BLACK
6
CONTINUOUS
10
1.17164
20
-2.12263
11
1.16838
21
-2.13051
0
LINE
8
BLACK
6
CONTINUOUS
10
1.16838
20
-2.13051
11
1.16364
21
-2.13761
0
LINE
8
BLACK
6
CONTINUOUS
10
1.16364
20
-2.13761
11
1.15761
21
-2.14364
0
LINE
8
BLACK
6
CONTINUOUS
10
1.15761
20
-2.14364
11
1.15051
21
-2.14838
0
LINE
8
BLACK
6
CONTINUOUS
10
1.15051
20
-2.14838
11
1.14263
21
-2.15164
0
LINE
8
BLACK
6
CONTINUOUS
10
1.14263
20
-2.15164
11
1.13427
21
-2.15331
0
LINE
8
BLACK
6
CONTINUOUS
10
1.13427
20
-2.15331
11
1.12573
21
-2.15331
0
LINE
8
BLACK
6
CONTINUOUS
10
1.12573
20
-2.15331
11
1.11737
21
-2.15164
0
LINE
8
BLACK
6
CONTINUOUS
10
1.11737
20
-2.15164
11
1.10949
21
-2.14838
0
LINE
8
BLACK
6
CONTINUOUS
10
1.10949
20
-2.14838
11
1.10239
21
-2.14364
0
LINE
8
BLACK
6
CONTINUOUS
10
1.10239
20
-2.14364
11
1.09636
21
-2.13761
0
LINE
8
BLACK
6
CONTINUOUS
10
1.09636
20
-2.13761
11
1.09162
21
-2.13051
0
LINE
8
BLACK
6
CONTINUOUS
10
1.09162
20
-2.13051
11
1.08836
21
-2.12263
0
LINE
8
BLACK
6
CONTINUOUS
10
1.08836
20
-2.12263
11
1.08669
21
-2.11427
0
LINE
8
BLACK
6
CONTINUOUS
10
1.08669
20
-2.11427
11
1.08669
21
-2.10573
0
LINE
8
BLACK
6
CONTINUOUS
10
1.08669
20
-2.10573
11
1.08836
21
-2.09737
0
LINE
8
BLACK
6
CONTINUOUS
10
1.08836
20
-2.09737
11
1.09162
21
-2.08949
0
LINE
8
BLACK
6
CONTINUOUS
10
1.09162
20
-2.08949
11
1.09636
21
-2.08239
0
LINE
8
BLACK
6
CONTINUOUS
10
1.09636
20
-2.08239
11
1.10239
21
-2.07636
0
LINE
8
BLACK
6
CONTINUOUS
10
1.10239
20
-2.07636
11
1.10949
21
-2.07162
0
LINE
8
BLACK
6
CONTINUOUS
10
1.10949
20
-2.07162
11
1.11737
21
-2.06836
0
LINE
8
BLACK
6
CONTINUOUS
10
1.11737
20
-2.06836
11
1.12573
21
-2.06669
0
LINE
8
BLACK
6
CONTINUOUS
10
1.12573
20
-2.06669
11
1.13427
21
-2.06669
0
LINE
8
BLACK
6
CONTINUOUS
10
1.13427
20
-2.06669
11
1.14263
21
-2.06836
0
LINE
8
BLACK
6
CONTINUOUS
10
0.773307
20
-2.15331
11
0.686693
21
-2.15331
0
LINE
8
BLACK
6
CONTINUOUS
10
0.686693
20
-2.15331
11
0.686693
21
-2.06669
0
LINE
8
BLACK
6
CONTINUOUS
10
0.686693
20
-2.06669
11
0.773307
21
-2.06669
0
LINE
8
BLACK
6
CONTINUOUS
10
0.773307
20
-2.06669
11
0.773307
21
-2.15331
0
LINE
8
BLACK
6
CONTINUOUS
10
-0.113539
20
-1.8798
11
-0.0907903
21
-1.88923
0
LINE
8
BLACK
6
CONTINUOUS
10
-0.0907903
20
-1.88923
11
-0.0703172
21
-1.90291
0
LINE
8
BLACK
6
CONTINUOUS
10
-0.0703172
20
-1.90291
11
-0.0529062
21
-1.92032
0
LINE
8
BLACK
6
CONTINUOUS
10
-0.0529062
20
-1.92032
11
-0.0392265
21
-1.94079
0
LINE
8
BLACK
6
CONTINUOUS
10
-0.0392265
20
-1.94079
11
-0.0298037
21
-1.96354
0
LINE
8
BLACK
6
CONTINUOUS
10
-0.0298037
20
-1.96354
11
-0.025
21
-1.98769
0
LINE
8
BLACK
6
CONTINUOUS
10
-0.025
20
-1.98769
11
-0.025
21
-2.01231
0
LINE
8
BLACK
6
CONTINUOUS
10
-0.025
20
-2.01231
11
-0.0298037
21
-2.03646
0
LINE
8
BLACK
6
CONTINUOUS
10
-0.0298037
20
-2.03646
11
-0.0392265
21
-2.05921
0
LINE
8
BLACK
6
CONTINUOUS
10
-0.0392265
20
-2.05921
11
-0.0529062
21
-2.07968
0
LINE
8
BLACK
6
CONTINUOUS
10
-0.0529062
20
-2.07968
11
-0.0703172
21
-2.09709
0
LINE
8
BLACK
6
CONTINUOUS
10
-0.0703172
20
-2.09709
11
-0.0907903
21
-2.11077
0
LINE
8
BLACK
6
CONTINUOUS
10
-0.0907903
20
-2.11077
11
-0.113539
21
-2.1202
0
LINE
8
BLACK
6
CONTINUOUS
10
-0.113539
20
-2.1202
11
-0.137689
21
-2.125
0
LINE
8
BLACK
6
CONTINUOUS
10
-0.137689
20
-2.125
11
-0.162311
21
-2.125
0
LINE
8
BLACK
6
CONTINUOUS
10
-0.162311
20
-2.125
11
-0.186461
21
-2.1202
0
LINE
8
BLACK
6
CONTINUOUS
10
-0.186461
20
-2.1202
11
-0.20921
21
-2.11077
0
LINE
8
BLACK
6
CONTINUOUS
10
-0.20921
20
-2.11077
11
-0.229683
21
-2.09709
0
LINE
8
BLACK
6
CONTINUOUS
10
-0.229683
20
-2.09709
11
-0.247094
21
-2.07968
0
LINE
8
BLACK
6
CONTINUOUS
10
-0.247094
20
-2.07968
11
-0.260774
21
-2.05921
0
LINE
8
BLACK
6
CONTINUOUS
10
-0.260774
20
-2.05921
11
-0.270196
21
-2.03646
0
LINE
8
BLACK
6
CONTINUOUS
10
-0.270196
20
-2.03646
11
-0.275
21
-2.01231
0
LINE
8
BLACK
6
CONTINUOUS
10
-0.275
20
-2.01231
11
-0.275
21
-1.98769
0
LINE
8
BLACK
6
CONTINUOUS
10
-0.275
20
-1.98769
11
-0.270196
21
-1.96354
0
LINE
8
BLACK
6
CONTINUOUS
10
-0.270196
20
-1.96354
11
-0.260774
21
-1.94079
0
LINE
8
BLACK
6
CONTINUOUS
10
-0.260774
20
-1.94079
11
-0.247094
21
-1.92032
0
LINE
8
BLACK
6
CONTINUOUS
10
-0.247094
20
-1.92032
11
-0.229683
21
-1.90291
0
LINE
8
BLACK
6
CONTINUOUS
10
-0.229683
20
-1.90291
11
-0.20921
21
-1.88923
0
LINE
8
BLACK
6
CONTINUOUS
10
-0.20921
20
-1.88923
11
-0.186461
21
-1.8798
0
LINE
8
BLACK
6
CONTINUOUS
10
-0.186461
20
-1.8798
11
-0.162311
21
-1.875
0
LINE
8
BLACK
6
CONTINUOUS
10
-0.162311
20
-1.875
11
-0.137689
21
-1.875
0
LINE
8
BLACK
6
CONTINUOUS
10
-0.137689
20
-1.875
11
-0.113539
21
-1.8798
0
LINE
8
BLACK
6
CONTINUOUS
10
2.53646
20
-1.8798
11
2.55921
21
-1.88923
0
LINE
8
BLACK
6
CONTINUOUS
10
2.55921
20
-1.88923
11
2.57968
21
-1.90291
0
LINE
8
BLACK
6
CONTINUOUS
10
2.57968
20
-1.90291
11
2.59709
21
-1.92032
0
LINE
8
BLACK
6
CONTINUOUS
10
2.59709
20
-1.92032
11
2.61077
21
-1.94079
0
LINE
8
BLACK
6
CONTINUOUS
10
2.61077
20
-1.94079
11
2.6202
21
-1.96354
0
LINE
8
BLACK
6
CONTINUOUS
10
2.6202
20
-1.96354
11
2.625
21
-1.98769
0
LINE
8
BLACK
6
CONTINUOUS
10
2.625
20
-1.98769
11
2.625
21
-2.01231
0
LINE
8
BLACK
6
CONTINUOUS
10
2.625
20
-2.01231
11
2.6202
21
-2.03646
0
LINE
8
BLACK
6
CONTINUOUS
10
2.6202
20
-2.03646
11
2.61077
21
-2.05921
0
LINE
8
BLACK
6
CONTINUOUS
10
2.61077
20
-2.05921
11
2.59709
21
-2.07968
0
LINE
8
BLACK
6
CONTINUOUS
10
2.59709
20
-2.07968
11
2.57968
21
-2.09709
0
LINE
8
BLACK
6
CONTINUOUS
10
2.57968
20
-2.09709
11
2.55921
21
-2.11077
0
LINE
8
BLACK
6
CONTINUOUS
10
2.55921
20
-2.11077
11
2.53646
21
-2.1202
0
LINE
8
BLACK
6
CONTINUOUS
10
2.53646
20
-2.1202
11
2.51231
21
-2.125
0
LINE
8
BLACK
6
CONTINUOUS
10
2.51231
20
-2.125
11
2.48769
21
-2.125
0
LINE
8
BLACK
6
CONTINUOUS
10
2.48769
20
-2.125
11
2.46354
21
-2.1202
0
LINE
8
BLACK
6
CONTINUOUS
10
2.46354
20
-2.1202
11
2.44079
21
-2.11077
0
LINE
8
BLACK
6
CONTINUOUS
10
2.44079
20
-2.11077
11
2.42032
21
-2.09709
0
LINE
8
BLACK
6
CONTINUOUS
10
2.42032
20
-2.09709
11
2.40291
21
-2.07968
0
LINE
8
BLACK
6
CONTINUOUS
10
2.40291
20
-2.07968
11
2.38923
21
-2.05921
0
LINE
8
BLACK
6
CONTINUOUS
10
2.38923
20
-2.05921
11
2.3798
21
-2.03646
0
LINE
8
BLACK
6
CONTINUOUS
10
2.3798
20
-2.03646
11
2.375
21
-2.01231
0
LINE
8
BLACK
6
CONTINUOUS
10
2.375
20
-2.01231
11
2.375
21
-1.98769
0
LINE
8
BLACK
6
CONTINUOUS
10
2.375
20
-1.98769
11
2.3798
21
-1.96354
0
LINE
8
BLACK
6
CONTINUOUS
10
2.3798
20
-1.96354
11
2.38923
21
-1.94079
0
LINE
8
BLACK
6
CONTINUOUS
10
2.38923
20
-1.94079
11
2.40291
21
-1.92032
0
LINE
8
BLACK
6
CONTINUOUS
10
2.40291
20
-1.92032
11
2.42032
21
-1.90291
0
LINE
8
BLACK
6
CONTINUOUS
10
2.42032
20
-1.90291
11
2.44079
21
-1.88923
0
LINE
8
BLACK
6
CONTINUOUS
10
2.44079
20
-1.88923
11
2.46354
21
-1.8798
0
LINE
8
BLACK
6
CONTINUOUS
10
2.46354
20
-1.8798
11
2.48769
21
-1.875
0
LINE
8
BLACK
6
CONTINUOUS
10
2.48769
20
-1.875
11
2.51231
21
-1.875
0
LINE
8
BLACK
6
CONTINUOUS
10
2.51231
20
-1.875
11
2.53646
21
-1.8798
0
LINE
8
BLACK
6
CONTINUOUS
10
0.601469
20
-1.87263
11
0.603269
21
-1.87317
0
LINE
8
BLACK
6
CONTINUOUS
10
0.603269
20
-1.87317
11
0.604928
21
-1.87406
0
LINE
8
BLACK
6
CONTINUOUS
10
0.604928
20
-1.87406
11
0.606382
21
-1.87525
0
LINE
8
BLACK
6
CONTINUOUS
10
0.606382
20
-1.87525
11
0.607576
21
-1.87671
0
LINE
8
BLACK
6
CONTINUOUS
10
0.607576
20
-1.87671
11
0.608462
21
-1.87837
0
LINE
8
BLACK
6
CONTINUOUS
10
0.608462
20
-1.87837
11
0.609009
21
-1.88017
0
LINE
8
BLACK
6
CONTINUOUS
10
0.609009
20
-1.88017
11
0.609193
21
-1.88204
0
LINE
8
BLACK
6
CONTINUOUS
10
0.609193
20
-1.88204
11
0.609193
21
-1.91796
0
LINE
8
BLACK
6
CONTINUOUS
10
0.609193
20
-1.91796
11
0.609009
21
-1.91983
0
LINE
8
BLACK
6
CONTINUOUS
10
0.609009
20
-1.91983
11
0.608462
21
-1.92163
0
LINE
8
BLACK
6
CONTINUOUS
10
0.608462
20
-1.92163
11
0.607576
21
-1.92329
0
LINE
8
BLACK
6
CONTINUOUS
10
0.607576
20
-1.92329
11
0.606382
21
-1.92475
0
LINE
8
BLACK
6
CONTINUOUS
10
0.606382
20
-1.92475
11
0.604928
21
-1.92594
0
LINE
8
BLACK
6
CONTINUOUS
10
0.604928
20
-1.92594
11
0.603269
21
-1.92683
0
LINE
8
BLACK
6
CONTINUOUS
10
0.603269
20
-1.92683
11
0.601469
21
-1.92737
0
LINE
8
BLACK
6
CONTINUOUS
10
0.601469
20
-1.92737
11
0.599596
21
-1.92756
0
LINE
8
BLACK
6
CONTINUOUS
10
0.599596
20
-1.92756
11
0.580404
21
-1.92756
0
LINE
8
BLACK
6
CONTINUOUS
10
0.580404
20
-1.92756
11
0.578531
21
-1.92737
0
LINE
8
BLACK
6
CONTINUOUS
10
0.578531
20
-1.92737
11
0.576731
21
-1.92683
0
LINE
8
BLACK
6
CONTINUOUS
10
0.576731
20
-1.92683
11
0.575072
21
-1.92594
0
LINE
8
BLACK
6
CONTINUOUS
10
0.575072
20
-1.92594
11
0.573618
21
-1.92475
0
LINE
8
BLACK
6
CONTINUOUS
10
0.573618
20
-1.92475
11
0.572424
21
-1.92329
0
LINE
8
BLACK
6
CONTINUOUS
10
0.572424
20
-1.92329
11
0.571538
21
-1.92163
0
LINE
8
BLACK
6
CONTINUOUS
10
0.571538
20
-1.92163
11
0.570991
21
-1.91983
0
LINE
8
BLACK
6
CONTINUOUS
10
0.570991
20
-1.91983
11
0.570807
21
-1.91796
0
LINE
8
BLACK
6
CONTINUOUS
10
0.570807
20
-1.91796
11
0.570807
21
-1.88204
0
LINE
8
BLACK
6
CONTINUOUS
10
0.570807
20
-1.88204
11
0.570991
21
-1.88017
0
LINE
8
BLACK
6
CONTINUOUS
10
0.570991
20
-1.88017
11
0.571538
21
-1.87837
0
LINE
8
BLACK
6
CONTINUOUS
10
0.571538
20
-1.87837
11
0.572424
21
-1.87671
0
LINE
8
BLACK
6
CONTINUOUS
10
0.572424
20
-1.87671
11
0.573618
21
-1.87525
0
LINE
8
BLACK
6
CONTINUOUS
10
0.573618
20
-1.87525
11
0.575072
21
-1.87406
0
LINE
8
BLACK
6
CONTINUOUS
10
0.575072
20
-1.87406
11
0.576731
21
-1.87317
0
LINE
8
BLACK
6
CONTINUOUS
10
0.576731
20
-1.87317
11
0.578531
21
-1.87263
0
LINE
8
BLACK
6
CONTINUOUS
10
0.578531
20
-1.87263
11
0.580404
21
-1.87244
0
LINE
8
BLACK
6
CONTINUOUS
10
0.580404
20
-1.87244
11
0.599596
21
-1.87244
0
LINE
8
BLACK
6
CONTINUOUS
10
0.599596
20
-1.87244
11
0.601469
21
-1.87263
0
LINE
8
BLACK
6
CONTINUOUS
10
0.675288
20
-1.87263
11
0.677088
21
-1.87317
0
LINE
8
BLACK
6
CONTINUOUS
10
0.677088
20
-1.87317
11
0.678747
21
-1.87406
0
LINE
8
BLACK
6
CONTINUOUS
10
0.678747
20
-1.87406
11
0.680201
21
-1.87525
0
LINE
8
BLACK
6
CONTINUOUS
10
0.680201
20
-1.87525
11
0.681395
21
-1.87671
0
LINE
8
BLACK
6
CONTINUOUS
10
0.681395
20
-1.87671
11
0.682281
21
-1.87837
0
LINE
8
BLACK
6
CONTINUOUS
10
0.682281
20
-1.87837
11
0.682827
21
-1.88017
0
LINE
8
BLACK
6
CONTINUOUS
10
0.682827
20
-1.88017
11
0.683012
21
-1.88204
0
LINE
8
BLACK
6
CONTINUOUS
10
0.683012
20
-1.88204
11
0.683012
21
-1.91796
0
LINE
8
BLACK
6
CONTINUOUS
10
0.683012
20
-1.91796
11
0.682827
21
-1.91983
0
LINE
8
BLACK
6
CONTINUOUS
10
0.682827
20
-1.91983
11
0.682281
21
-1.92163
0
LINE
8
BLACK
6
CONTINUOUS
10
0.682281
20
-1.92163
11
0.681395
21
-1.92329
0
LINE
8
BLACK
6
CONTINUOUS
10
0.681395
20
-1.92329
11
0.680201
21
-1.92475
0
LINE
8
BLACK
6
CONTINUOUS
10
0.680201
20
-1.92475
11
0.678747
21
-1.92594
0
LINE
8
BLACK
6
CONTINUOUS
10
0.678747
20
-1.92594
11
0.677088
21
-1.92683
0
LINE
8
BLACK
6
CONTINUOUS
10
0.677088
20
-1.92683
11
0.675288
21
-1.92737
0
LINE
8
BLACK
6
CONTINUOUS
10
0.675288
20
-1.92737
11
0.673415
21
-1.92756
0
LINE
8
BLACK
6
CONTINUOUS
10
0.673415
20
-1.92756
11
0.654222
21
-1.92756
0
LINE
8
BLACK
6
CONTINUOUS
10
0.654222
20
-1.92756
11
0.65235
21
-1.92737
0
LINE
8
BLACK
6
CONTINUOUS
10
0.65235
20
-1.92737
11
0.65055
21
-1.92683
0
LINE
8
BLACK
6
CONTINUOUS
10
0.65055
20
-1.92683
11
0.648891
21
-1.92594
0
LINE
8
BLACK
6
CONTINUOUS
10
0.648891
20
-1.92594
11
0.647437
21
-1.92475
0
LINE
8
BLACK
6
CONTINUOUS
10
0.647437
20
-1.92475
11
0.646243
21
-1.92329
0
LINE
8
BLACK
6
CONTINUOUS
10
0.646243
20
-1.92329
11
0.645356
21
-1.92163
0
LINE
8
BLACK
6
CONTINUOUS
10
0.645356
20
-1.92163
11
0.64481
21
-1.91983
0
LINE
8
BLACK
6
CONTINUOUS
10
0.64481
20
-1.91983
11
0.644626
21
-1.91796
0
LINE
8
BLACK
6
CONTINUOUS
10
0.644626
20
-1.91796
11
0.644626
21
-1.88204
0
LINE
8
BLACK
6
CONTINUOUS
10
0.644626
20
-1.88204
11
0.64481
21
-1.88017
0
LINE
8
BLACK
6
CONTINUOUS
10
0.64481
20
-1.88017
11
0.645356
21
-1.87837
0
LINE
8
BLACK
6
CONTINUOUS
10
0.645356
20
-1.87837
11
0.646243
21
-1.87671
0
LINE
8
BLACK
6
CONTINUOUS
10
0.646243
20
-1.87671
11
0.647437
21
-1.87525
0
LINE
8
BLACK
6
CONTINUOUS
10
0.647437
20
-1.87525
11
0.648891
21
-1.87406
0
LINE
8
BLACK
6
CONTINUOUS
10
0.648891
20
-1.87406
11
0.65055
21
-1.87317
0
LINE
8
BLACK
6
CONTINUOUS
10
0.65055
20
-1.87317
11
0.65235
21
-1.87263
0
LINE
8
BLACK
6
CONTINUOUS
10
0.65235
20
-1.87263
11
0.654222
21
-1.87244
0
LINE
8
BLACK
6
CONTINUOUS
10
0.654222
20
-1.87244
11
0.673415
21
-1.87244
0
LINE
8
BLACK
6
CONTINUOUS
10
0.673415
20
-1.87244
11
0.675288
21
-1.87263
0
LINE
8
BLACK
6
CONTINUOUS
10
0.495748
20
-1.91709
11
0.464252
21
-1.91709
0
LINE
8
BLACK
6
CONTINUOUS
10
0.464252
20
-1.91709
11
0.464252
21
-1.88165
0
LINE
8
BLACK
6
CONTINUOUS
10
0.464252
20
-1.88165
11
0.495748
21
-1.88165
0
LINE
8
BLACK
6
CONTINUOUS
10
0.495748
20
-1.88165
11
0.495748
21
-1.91709
0
LINE
8
BLACK
6
CONTINUOUS
10
0.458346
20
-1.83835
11
0.42685
21
-1.83835
0
LINE
8
BLACK
6
CONTINUOUS
10
0.42685
20
-1.83835
11
0.42685
21
-1.80291
0
LINE
8
BLACK
6
CONTINUOUS
10
0.42685
20
-1.80291
11
0.458346
21
-1.80291
0
LINE
8
BLACK
6
CONTINUOUS
10
0.458346
20
-1.80291
11
0.458346
21
-1.83835
0
LINE
8
BLACK
6
CONTINUOUS
10
0.53315
20
-1.83835
11
0.501654
21
-1.83835
0
LINE
8
BLACK
6
CONTINUOUS
10
0.501654
20
-1.83835
11
0.501654
21
-1.80291
0
LINE
8
BLACK
6
CONTINUOUS
10
0.501654
20
-1.80291
11
0.53315
21
-1.80291
0
LINE
8
BLACK
6
CONTINUOUS
10
0.53315
20
-1.80291
11
0.53315
21
-1.83835
0
LINE
8
BLACK
6
CONTINUOUS
10
0.8321
20
-1.73231
11
0.837832
21
-1.73469
0
LINE
8
BLACK
6
CONTINUOUS
10
0.837832
20
-1.73469
11
0.842991
21
-1.73813
0
LINE
8
BLACK
6
CONTINUOUS
10
0.842991
20
-1.73813
11
0.847378
21
-1.74252
0
LINE
8
BLACK
6
CONTINUOUS
10
0.847378
20
-1.74252
11
0.850825
21
-1.74768
0
LINE
8
BLACK
6
CONTINUOUS
10
0.850825
20
-1.74768
11
0.853199
21
-1.75341
0
LINE
8
BLACK
6
CONTINUOUS
10
0.853199
20
-1.75341
11
0.854409
21
-1.7595
0
LINE
8
BLACK
6
CONTINUOUS
10
0.854409
20
-1.7595
11
0.854409
21
-1.7657
0
LINE
8
BLACK
6
CONTINUOUS
10
0.854409
20
-1.7657
11
0.853199
21
-1.77179
0
LINE
8
BLACK
6
CONTINUOUS
10
0.853199
20
-1.77179
11
0.850825
21
-1.77752
0
LINE
8
BLACK
6
CONTINUOUS
10
0.850825
20
-1.77752
11
0.847378
21
-1.78268
0
LINE
8
BLACK
6
CONTINUOUS
10
0.847378
20
-1.78268
11
0.842991
21
-1.78706
0
LINE
8
BLACK
6
CONTINUOUS
10
0.842991
20
-1.78706
11
0.837832
21
-1.79051
0
LINE
8
BLACK
6
CONTINUOUS
10
0.837832
20
-1.79051
11
0.8321
21
-1.79288
0
LINE
8
BLACK
6
CONTINUOUS
10
0.8321
20
-1.79288
11
0.826015
21
-1.79409
0
LINE
8
BLACK
6
CONTINUOUS
10
0.826015
20
-1.79409
11
0.819811
21
-1.79409
0
LINE
8
BLACK
6
CONTINUOUS
10
0.819811
20
-1.79409
11
0.813726
21
-1.79288
0
LINE
8
BLACK
6
CONTINUOUS
10
0.813726
20
-1.79288
11
0.807994
21
-1.79051
0
LINE
8
BLACK
6
CONTINUOUS
10
0.807994
20
-1.79051
11
0.802836
21
-1.78706
0
LINE
8
BLACK
6
CONTINUOUS
10
0.802836
20
-1.78706
11
0.798449
21
-1.78268
0
LINE
8
BLACK
6
CONTINUOUS
10
0.798449
20
-1.78268
11
0.795002
21
-1.77752
0
LINE
8
BLACK
6
CONTINUOUS
10
0.795002
20
-1.77752
11
0.792628
21
-1.77179
0
LINE
8
BLACK
6
CONTINUOUS
10
0.792628
20
-1.77179
11
0.791417
21
-1.7657
0
LINE
8
BLACK
6
CONTINUOUS
10
0.791417
20
-1.7657
11
0.791417
21
-1.7595
0
LINE
8
BLACK
6
CONTINUOUS
10
0.791417
20
-1.7595
11
0.792628
21
-1.75341
0
LINE
8
BLACK
6
CONTINUOUS
10
0.792628
20
-1.75341
11
0.795002
21
-1.74768
0
LINE
8
BLACK
6
CONTINUOUS
10
0.795002
20
-1.74768
11
0.798449
21
-1.74252
0
LINE
8
BLACK
6
CONTINUOUS
10
0.798449
20
-1.74252
11
0.802836
21
-1.73813
0
LINE
8
BLACK
6
CONTINUOUS
10
0.802836
20
-1.73813
11
0.807994
21
-1.73469
0
LINE
8
BLACK
6
CONTINUOUS
10
0.807994
20
-1.73469
11
0.813726
21
-1.73231
0
LINE
8
BLACK
6
CONTINUOUS
10
0.813726
20
-1.73231
11
0.819811
21
-1.7311
0
LINE
8
BLACK
6
CONTINUOUS
10
0.819811
20
-1.7311
11
0.826015
21
-1.7311
0
LINE
8
BLACK
6
CONTINUOUS
10
0.826015
20
-1.7311
11
0.8321
21
-1.73231
0
LINE
8
BLACK
6
CONTINUOUS
10
1.4099
20
-1.71735
11
1.41608
21
-1.71991
0
LINE
8
BLACK
6
CONTINUOUS
10
1.41608
20
-1.71991
11
1.42165
21
-1.72362
0
LINE
8
BLACK
6
CONTINUOUS
10
1.42165
20
-1.72362
11
1.42638
21
-1.72835
0
LINE
8
BLACK
6
CONTINUOUS
10
1.42638
20
-1.72835
11
1.43009
21
-1.73392
0
LINE
8
BLACK
6
CONTINUOUS
10
1.43009
20
-1.73392
11
1.43265
21
-1.7401
0
LINE
8
BLACK
6
CONTINUOUS
10
1.43265
20
-1.7401
11
1.43396
21
-1.74666
0
LINE
8
BLACK
6
CONTINUOUS
10
1.43396
20
-1.74666
11
1.43396
21
-1.75334
0
LINE
8
BLACK
6
CONTINUOUS
10
1.43396
20
-1.75334
11
1.43265
21
-1.7599
0
LINE
8
BLACK
6
CONTINUOUS
10
1.43265
20
-1.7599
11
1.43009
21
-1.76608
0
LINE
8
BLACK
6
CONTINUOUS
10
1.43009
20
-1.76608
11
1.42638
21
-1.77165
0
LINE
8
BLACK
6
CONTINUOUS
10
1.42638
20
-1.77165
11
1.42165
21
-1.77638
0
LINE
8
BLACK
6
CONTINUOUS
10
1.42165
20
-1.77638
11
1.41608
21
-1.78009
0
LINE
8
BLACK
6
CONTINUOUS
10
1.41608
20
-1.78009
11
1.4099
21
-1.78265
0
LINE
8
BLACK
6
CONTINUOUS
10
1.4099
20
-1.78265
11
1.40334
21
-1.78396
0
LINE
8
BLACK
6
CONTINUOUS
10
1.40334
20
-1.78396
11
1.39666
21
-1.78396
0
LINE
8
BLACK
6
CONTINUOUS
10
1.39666
20
-1.78396
11
1.3901
21
-1.78265
0
LINE
8
BLACK
6
CONTINUOUS
10
1.3901
20
-1.78265
11
1.38392
21
-1.78009
0
LINE
8
BLACK
6
CONTINUOUS
10
1.38392
20
-1.78009
11
1.37835
21
-1.77638
0
LINE
8
BLACK
6
CONTINUOUS
10
1.37835
20
-1.77638
11
1.37362
21
-1.77165
0
LINE
8
BLACK
6
CONTINUOUS
10
1.37362
20
-1.77165
11
1.36991
21
-1.76608
0
LINE
8
BLACK
6
CONTINUOUS
10
1.36991
20
-1.76608
11
1.36735
21
-1.7599
0
LINE
8
BLACK
6
CONTINUOUS
10
1.36735
20
-1.7599
11
1.36604
21
-1.75334
0
LINE
8
BLACK
6
CONTINUOUS
10
1.36604
20
-1.75334
11
1.36604
21
-1.74666
0
LINE
8
BLACK
6
CONTINUOUS
10
1.36604
20
-1.74666
11
1.36735
21
-1.7401
0
LINE
8
BLACK
6
CONTINUOUS
10
1.36735
20
-1.7401
11
1.36991
21
-1.73392
0
LINE
8
BLACK
6
CONTINUOUS
10
1.36991
20
-1.73392
11
1.37362
21
-1.72835
0
LINE
8
BLACK
6
CONTINUOUS
10
1.37362
20
-1.72835
11
1.37835
21
-1.72362
0
LINE
8
BLACK
6
CONTINUOUS
10
1.37835
20
-1.72362
11
1.38392
21
-1.71991
0
LINE
8
BLACK
6
CONTINUOUS
10
1.38392
20
-1.71991
11
1.3901
21
-1.71735
0
LINE
8
BLACK
6
CONTINUOUS
10
1.3901
20
-1.71735
11
1.39666
21
-1.71604
0
LINE
8
BLACK
6
CONTINUOUS
10
1.39666
20
-1.71604
11
1.40334
21
-1.71604
0
LINE
8
BLACK
6
CONTINUOUS
10
1.40334
20
-1.71604
11
1.4099
21
-1.71735
0
LINE
8
BLACK
6
CONTINUOUS
10
1.5099
20
-1.71735
11
1.51608
21
-1.71991
0
LINE
8
BLACK
6
CONTINUOUS
10
1.51608
20
-1.71991
11
1.52165
21
-1.72362
0
LINE
8
BLACK
6
CONTINUOUS
10
1.52165
20
-1.72362
11
1.52638
21
-1.72835
0
LINE
8
BLACK
6
CONTINUOUS
10
1.52638
20
-1.72835
11
1.53009
21
-1.73392
0
LINE
8
BLACK
6
CONTINUOUS
10
1.53009
20
-1.73392
11
1.53265
21
-1.7401
0
LINE
8
BLACK
6
CONTINUOUS
10
1.53265
20
-1.7401
11
1.53396
21
-1.74666
0
LINE
8
BLACK
6
CONTINUOUS
10
1.53396
20
-1.74666
11
1.53396
21
-1.75334
0
LINE
8
BLACK
6
CONTINUOUS
10
1.53396
20
-1.75334
11
1.53265
21
-1.7599
0
LINE
8
BLACK
6
CONTINUOUS
10
1.53265
20
-1.7599
11
1.53009
21
-1.76608
0
LINE
8
BLACK
6
CONTINUOUS
10
1.53009
20
-1.76608
11
1.52638
21
-1.77165
0
LINE
8
BLACK
6
CONTINUOUS
10
1.52638
20
-1.77165
11
1.52165
21
-1.77638
0
LINE
8
BLACK
6
CONTINUOUS
10
1.52165
20
-1.77638
11
1.51608
21
-1.78009
0
LINE
8
BLACK
6
CONTINUOUS
10
1.51608
20
-1.78009
11
1.5099
21
-1.78265
0
LINE
8
BLACK
6
CONTINUOUS
10
1.5099
20
-1.78265
11
1.50334
21
-1.78396
0
LINE
8
BLACK
6
CONTINUOUS
10
1.50334
20
-1.78396
11
1.49666
21
-1.78396
0
LINE
8
BLACK
6
CONTINUOUS
10
1.49666
20
-1.78396
11
1.4901
21
-1.78265
0
LINE
8
BLACK
6
CONTINUOUS
10
1.4901
20
-1.78265
11
1.48392
21
-1.78009
0
LINE
8
BLACK
6
CONTINUOUS
10
1.48392
20
-1.78009
11
1.47835
21
-1.77638
0
LINE
8
BLACK
6
CONTINUOUS
10
1.47835
20
-1.77638
11
1.47362
21
-1.77165
0
LINE
8
BLACK
6
CONTINUOUS
10
1.47362
20
-1.77165
11
1.46991
21
-1.76608
0
LINE
8
BLACK
6
CONTINUOUS
10
1.46991
20
-1.76608
11
1.46735
21
-1.7599
0
LINE
8
BLACK
6
CONTINUOUS
10
1.46735
20
-1.7599
11
1.46604
21
-1.75334
0
LINE
8
BLACK
6
CONTINUOUS
10
1.46604
20
-1.75334
11
1.46604
21
-1.74666
0
LINE
8
BLACK
6
CONTINUOUS
10
1.46604
20
-1.74666
11
1.46735
21
-1.7401
0
LINE
8
BLACK
6
CONTINUOUS
10
1.46735
20
-1.7401
11
1.46991
21
-1.73392
0
LINE
8
BLACK
6
CONTINUOUS
10
1.46991
20
-1.73392
11
1.47362
21
-1.72835
0
LINE
8
BLACK
6
CONTINUOUS
10
1.47362
20
-1.72835
11
1.47835
21
-1.72362
0
LINE
8
BLACK
6
CONTINUOUS
10
1.47835
20
-1.72362
11
1.48392
21
-1.71991
0
LINE
8
BLACK
6
CONTINUOUS
10
1.48392
20
-1.71991
11
1.4901
21
-1.71735
0
LINE
8
BLACK
6
CONTINUOUS
10
1.4901
20
-1.71735
11
1.49666
21
-1.71604
0
LINE
8
BLACK
6
CONTINUOUS
10
1.49666
20
-1.71604
11
1.50334
21
-1.71604
0
LINE
8
BLACK
6
CONTINUOUS
10
1.50334
20
-1.71604
11
1.5099
21
-1.71735
0
LINE
8
BLACK
6
CONTINUOUS
10
1.6099
20
-1.71735
11
1.61608
21
-1.71991
0
LINE
8
BLACK
6
CONTINUOUS
10
1.61608
20
-1.71991
11
1.62165
21
-1.72362
0
LINE
8
BLACK
6
CONTINUOUS
10
1.62165
20
-1.72362
11
1.62638
21
-1.72835
0
LINE
8
BLACK
6
CONTINUOUS
10
1.62638
20
-1.72835
11
1.63009
21
-1.73392
0
LINE
8
BLACK
6
CONTINUOUS
10
1.63009
20
-1.73392
11
1.63265
21
-1.7401
0
LINE
8
BLACK
6
CONTINUOUS
10
1.63265
20
-1.7401
11
1.63396
21
-1.74666
0
LINE
8
BLACK
6
CONTINUOUS
10
1.63396
20
-1.74666
11
1.63396
21
-1.75334
0
LINE
8
BLACK
6
CONTINUOUS
10
1.63396
20
-1.75334
11
1.63265
21
-1.7599
0
LINE
8
BLACK
6
CONTINUOUS
10
1.63265
20
-1.7599
11
1.63009
21
-1.76608
0
LINE
8
BLACK
6
CONTINUOUS
10
1.63009
20
-1.76608
11
1.62638
21
-1.77165
0
LINE
8
BLACK
6
CONTINUOUS
10
1.62638
20
-1.77165
11
1.62165
21
-1.77638
0
LINE
8
BLACK
6
CONTINUOUS
10
1.62165
20
-1.77638
11
1.61608
21
-1.78009
0
LINE
8
BLACK
6
CONTINUOUS
10
1.61608
20
-1.78009
11
1.6099
21
-1.78265
0
LINE
8
BLACK
6
CONTINUOUS
10
1.6099
20
-1.78265
11
1.60334
21
-1.78396
0
LINE
8
BLACK
6
CONTINUOUS
10
1.60334
20
-1.78396
11
1.59666
21
-1.78396
0
LINE
8
BLACK
6
CONTINUOUS
10
1.59666
20
-1.78396
11
1.5901
21
-1.78265
0
LINE
8
BLACK
6
CONTINUOUS
10
1.5901
20
-1.78265
11
1.58392
21
-1.78009
0
LINE
8
BLACK
6
CONTINUOUS
10
1.58392
20
-1.78009
11
1.57835
21
-1.77638
0
LINE
8
BLACK
6
CONTINUOUS
10
1.57835
20
-1.77638
11
1.57362
21
-1.77165
0
LINE
8
BLACK
6
CONTINUOUS
10
1.57362
20
-1.77165
11
1.56991
21
-1.76608
0
LINE
8
BLACK
6
CONTINUOUS
10
1.56991
20
-1.76608
11
1.56735
21
-1.7599
0
LINE
8
BLACK
6
CONTINUOUS
10
1.56735
20
-1.7599
11
1.56604
21
-1.75334
0
LINE
8
BLACK
6
CONTINUOUS
10
1.56604
20
-1.75334
11
1.56604
21
-1.74666
0
LINE
8
BLACK
6
CONTINUOUS
10
1.56604
20
-1.74666
11
1.56735
21
-1.7401
0
LINE
8
BLACK
6
CONTINUOUS
10
1.56735
20
-1.7401
11
1.56991
21
-1.73392
0
LINE
8
BLACK
6
CONTINUOUS
10
1.56991
20
-1.73392
11
1.57362
21
-1.72835
0
LINE
8
BLACK
6
CONTINUOUS
10
1.57362
20
-1.72835
11
1.57835
21
-1.72362
0
LINE
8
BLACK
6
CONTINUOUS
10
1.57835
20
-1.72362
11
1.58392
21
-1.71991
0
LINE
8
BLACK
6
CONTINUOUS
10
1.58392
20
-1.71991
11
1.5901
21
-1.71735
0
LINE
8
BLACK
6
CONTINUOUS
10
1.5901
20
-1.71735
11
1.59666
21
-1.71604
0
LINE
8
BLACK
6
CONTINUOUS
10
1.59666
20
-1.71604
11
1.60334
21
-1.71604
0
LINE
8
BLACK
6
CONTINUOUS
10
1.60334
20
-1.71604
11
1.6099
21
-1.71735
0
LINE
8
BLACK
6
CONTINUOUS
10
1.7099
20
-1.71735
11
1.71608
21
-1.71991
0
LINE
8
BLACK
6
CONTINUOUS
10
1.71608
20
-1.71991
11
1.72165
21
-1.72362
0
LINE
8
BLACK
6
CONTINUOUS
10
1.72165
20
-1.72362
11
1.72638
21
-1.72835
0
LINE
8
BLACK
6
CONTINUOUS
10
1.72638
20
-1.72835
11
1.73009
21
-1.73392
0
LINE
8
BLACK
6
CONTINUOUS
10
1.73009
20
-1.73392
11
1.73265
21
-1.7401
0
LINE
8
BLACK
6
CONTINUOUS
10
1.73265
20
-1.7401
11
1.73396
21
-1.74666
0
LINE
8
BLACK
6
CONTINUOUS
10
1.73396
20
-1.74666
11
1.73396
21
-1.75334
0
LINE
8
BLACK
6
CONTINUOUS
10
1.73396
20
-1.75334
11
1.73265
21
-1.7599
0
LINE
8
BLACK
6
CONTINUOUS
10
1.73265
20
-1.7599
11
1.73009
21
-1.76608
0
LINE
8
BLACK
6
CONTINUOUS
10
1.73009
20
-1.76608
11
1.72638
21
-1.77165
0
LINE
8
BLACK
6
CONTINUOUS
10
1.72638
20
-1.77165
11
1.72165
21
-1.77638
0
LINE
8
BLACK
6
CONTINUOUS
10
1.72165
20
-1.77638
11
1.71608
21
-1.78009
0
LINE
8
BLACK
6
CONTINUOUS
10
1.71608
20
-1.78009
11
1.7099
21
-1.78265
0
LINE
8
BLACK
6
CONTINUOUS
10
1.7099
20
-1.78265
11
1.70334
21
-1.78396
0
LINE
8
BLACK
6
CONTINUOUS
10
1.70334
20
-1.78396
11
1.69666
21
-1.78396
0
LINE
8
BLACK
6
CONTINUOUS
10
1.69666
20
-1.78396
11
1.6901
21
-1.78265
0
LINE
8
BLACK
6
CONTINUOUS
10
1.6901
20
-1.78265
11
1.68392
21
-1.78009
0
LINE
8
BLACK
6
CONTINUOUS
10
1.68392
20
-1.78009
11
1.67835
21
-1.77638
0
LINE
8
BLACK
6
CONTINUOUS
10
1.67835
20
-1.77638
11
1.67362
21
-1.77165
0
LINE
8
BLACK
6
CONTINUOUS
10
1.67362
20
-1.77165
11
1.66991
21
-1.76608
0
LINE
8
BLACK
6
CONTINUOUS
10
1.66991
20
-1.76608
11
1.66735
21
-1.7599
0
LINE
8
BLACK
6
CONTINUOUS
10
1.66735
20
-1.7599
11
1.66604
21
-1.75334
0
LINE
8
BLACK
6
CONTINUOUS
10
1.66604
20
-1.75334
11
1.66604
21
-1.74666
0
LINE
8
BLACK
6
CONTINUOUS
10
1.66604
20
-1.74666
11
1.66735
21
-1.7401
0
LINE
8
BLACK
6
CONTINUOUS
10
1.66735
20
-1.7401
11
1.66991
21
-1.73392
0
LINE
8
BLACK
6
CONTINUOUS
10
1.66991
20
-1.73392
11
1.67362
21
-1.72835
0
LINE
8
BLACK
6
CONTINUOUS
10
1.67362
20
-1.72835
11
1.67835
21
-1.72362
0
LINE
8
BLACK
6
CONTINUOUS
10
1.67835
20
-1.72362
11
1.68392
21
-1.71991
0
LINE
8
BLACK
6
CONTINUOUS
10
1.68392
20
-1.71991
11
1.6901
21
-1.71735
0
LINE
8
BLACK
6
CONTINUOUS
10
1.6901
20
-1.71735
11
1.69666
21
-1.71604
0
LINE
8
BLACK
6
CONTINUOUS
10
1.69666
20
-1.71604
11
1.70334
21
-1.71604
0
LINE
8
BLACK
6
CONTINUOUS
10
1.70334
20
-1.71604
11
1.7099
21
-1.71735
0
LINE
8
BLACK
6
CONTINUOUS
10
1.8099
20
-1.71735
11
1.81608
21
-1.71991
0
LINE
8
BLACK
6
CONTINUOUS
10
1.81608
20
-1.71991
11
1.82165
21
-1.72362
0
LINE
8
BLACK
6
CONTINUOUS
10
1.82165
20
-1.72362
11
1.82638
21
-1.72835
0
LINE
8
BLACK
6
CONTINUOUS
10
1.82638
20
-1.72835
11
1.83009
21
-1.73392
0
LINE
8
BLACK
6
CONTINUOUS
10
1.83009
20
-1.73392
11
1.83265
21
-1.7401
0
LINE
8
BLACK
6
CONTINUOUS
10
1.83265
20
-1.7401
11
1.83396
21
-1.74666
0
LINE
8
BLACK
6
CONTINUOUS
10
1.83396
20
-1.74666
11
1.83396
21
-1.75334
0
LINE
8
BLACK
6
CONTINUOUS
10
1.83396
20
-1.75334
11
1.83265
21
-1.7599
0
LINE
8
BLACK
6
CONTINUOUS
10
1.83265
20
-1.7599
11
1.83009
21
-1.76608
0
LINE
8
BLACK
6
CONTINUOUS
10
1.83009
20
-1.76608
11
1.82638
21
-1.77165
0
LINE
8
BLACK
6
CONTINUOUS
10
1.82638
20
-1.77165
11
1.82165
21
-1.77638
0
LINE
8
BLACK
6
CONTINUOUS
10
1.82165
20
-1.77638
11
1.81608
21
-1.78009
0
LINE
8
BLACK
6
CONTINUOUS
10
1.81608
20
-1.78009
11
1.8099
21
-1.78265
0
LINE
8
BLACK
6
CONTINUOUS
10
1.8099
20
-1.78265
11
1.80334
21
-1.78396
0
LINE
8
BLACK
6
CONTINUOUS
10
1.80334
20
-1.78396
11
1.79666
21
-1.78396
0
LINE
8
BLACK
6
CONTINUOUS
10
1.79666
20
-1.78396
11
1.7901
21
-1.78265
0
LINE
8
BLACK
6
CONTINUOUS
10
1.7901
20
-1.78265
11
1.78392
21
-1.78009
0
LINE
8
BLACK
6
CONTINUOUS
10
1.78392
20
-1.78009
11
1.77835
21
-1.77638
0
LINE
8
BLACK
6
CONTINUOUS
10
1.77835
20
-1.77638
11
1.77362
21
-1.77165
0
LINE
8
BLACK
6
CONTINUOUS
10
1.77362
20
-1.77165
11
1.76991
21
-1.76608
0
LINE
8
BLACK
6
CONTINUOUS
10
1.76991
20
-1.76608
11
1.76735
21
-1.7599
0
LINE
8
BLACK
6
CONTINUOUS
10
1.76735
20
-1.7599
11
1.76604
21
-1.75334
0
LINE
8
BLACK
6
CONTINUOUS
10
1.76604
20
-1.75334
11
1.76604
21
-1.74666
0
LINE
8
BLACK
6
CONTINUOUS
10
1.76604
20
-1.74666
11
1.76735
21
-1.7401
0
LINE
8
BLACK
6
CONTINUOUS
10
1.76735
20
-1.7401
11
1.76991
21
-1.73392
0
LINE
8
BLACK
6
CONTINUOUS
10
1.76991
20
-1.73392
11
1.77362
21
-1.72835
0
LINE
8
BLACK
6
CONTINUOUS
10
1.77362
20
-1.72835
11
1.77835
21
-1.72362
0
LINE
8
BLACK
6
CONTINUOUS
10
1.77835
20
-1.72362
11
1.78392
21
-1.71991
0
LINE
8
BLACK
6
CONTINUOUS
10
1.78392
20
-1.71991
11
1.7901
21
-1.71735
0
LINE
8
BLACK
6
CONTINUOUS
10
1.7901
20
-1.71735
11
1.79666
21
-1.71604
0
LINE
8
BLACK
6
CONTINUOUS
10
1.79666
20
-1.71604
11
1.80334
21
-1.71604
0
LINE
8
BLACK
6
CONTINUOUS
10
1.80334
20
-1.71604
11
1.8099
21
-1.71735
0
LINE
8
BLACK
6
CONTINUOUS
10
1.9099
20
-1.71735
11
1.91608
21
-1.71991
0
LINE
8
BLACK
6
CONTINUOUS
10
1.91608
20
-1.71991
11
1.92165
21
-1.72362
0
LINE
8
BLACK
6
CONTINUOUS
10
1.92165
20
-1.72362
11
1.92638
21
-1.72835
0
LINE
8
BLACK
6
CONTINUOUS
10
1.92638
20
-1.72835
11
1.93009
21
-1.73392
0
LINE
8
BLACK
6
CONTINUOUS
10
1.93009
20
-1.73392
11
1.93265
21
-1.7401
0
LINE
8
BLACK
6
CONTINUOUS
10
1.93265
20
-1.7401
11
1.93396
21
-1.74666
0
LINE
8
BLACK
6
CONTINUOUS
10
1.93396
20
-1.74666
11
1.93396
21
-1.75334
0
LINE
8
BLACK
6
CONTINUOUS
10
1.93396
20
-1.75334
11
1.93265
21
-1.7599
0
LINE
8
BLACK
6
CONTINUOUS
10
1.93265
20
-1.7599
11
1.93009
21
-1.76608
0
LINE
8
BLACK
6
CONTINUOUS
10
1.93009
20
-1.76608
11
1.92638
21
-1.77165
0
LINE
8
BLACK
6
CONTINUOUS
10
1.92638
20
-1.77165
11
1.92165
21
-1.77638
0
LINE
8
BLACK
6
CONTINUOUS
10
1.92165
20
-1.77638
11
1.91608
21
-1.78009
0
LINE
8
BLACK
6
CONTINUOUS
10
1.91608
20
-1.78009
11
1.9099
21
-1.78265
0
LINE
8
BLACK
6
CONTINUOUS
10
1.9099
20
-1.78265
11
1.90334
21
-1.78396
0
LINE
8
BLACK
6
CONTINUOUS
10
1.90334
20
-1.78396
11
1.89666
21
-1.78396
0
LINE
8
BLACK
6
CONTINUOUS
10
1.89666
20
-1.78396
11
1.8901
21
-1.78265
0
LINE
8
BLACK
6
CONTINUOUS
10
1.8901
20
-1.78265
11
1.88392
21
-1.78009
0
LINE
8
BLACK
6
CONTINUOUS
10
1.88392
20
-1.78009
11
1.87835
21
-1.77638
0
LINE
8
BLACK
6
CONTINUOUS
10
1.87835
20
-1.77638
11
1.87362
21
-1.77165
0
LINE
8
BLACK
6
CONTINUOUS
10
1.87362
20
-1.77165
11
1.86991
21
-1.76608
0
LINE
8
BLACK
6
CONTINUOUS
10
1.86991
20
-1.76608
11
1.86735
21
-1.7599
0
LINE
8
BLACK
6
CONTINUOUS
10
1.86735
20
-1.7599
11
1.86604
21
-1.75334
0
LINE
8
BLACK
6
CONTINUOUS
10
1.86604
20
-1.75334
11
1.86604
21
-1.74666
0
LINE
8
BLACK
6
CONTINUOUS
10
1.86604
20
-1.74666
11
1.86735
21
-1.7401
0
LINE
8
BLACK
6
CONTINUOUS
10
1.86735
20
-1.7401
11
1.86991
21
-1.73392
0
LINE
8
BLACK
6
CONTINUOUS
10
1.86991
20
-1.73392
11
1.87362
21
-1.72835
0
LINE
8
BLACK
6
CONTINUOUS
10
1.87362
20
-1.72835
11
1.87835
21
-1.72362
0
LINE
8
BLACK
6
CONTINUOUS
10
1.87835
20
-1.72362
11
1.88392
21
-1.71991
0
LINE
8
BLACK
6
CONTINUOUS
10
1.88392
20
-1.71991
11
1.8901
21
-1.71735
0
LINE
8
BLACK
6
CONTINUOUS
10
1.8901
20
-1.71735
11
1.89666
21
-1.71604
0
LINE
8
BLACK
6
CONTINUOUS
10
1.89666
20
-1.71604
11
1.90334
21
-1.71604
0
LINE
8
BLACK
6
CONTINUOUS
10
1.90334
20
-1.71604
11
1.9099
21
-1.71735
0
LINE
8
BLACK
6
CONTINUOUS
10
2.0099
20
-1.71735
11
2.01608
21
-1.71991
0
LINE
8
BLACK
6
CONTINUOUS
10
2.01608
20
-1.71991
11
2.02165
21
-1.72362
0
LINE
8
BLACK
6
CONTINUOUS
10
2.02165
20
-1.72362
11
2.02638
21
-1.72835
0
LINE
8
BLACK
6
CONTINUOUS
10
2.02638
20
-1.72835
11
2.03009
21
-1.73392
0
LINE
8
BLACK
6
CONTINUOUS
10
2.03009
20
-1.73392
11
2.03265
21
-1.7401
0
LINE
8
BLACK
6
CONTINUOUS
10
2.03265
20
-1.7401
11
2.03396
21
-1.74666
0
LINE
8
BLACK
6
CONTINUOUS
10
2.03396
20
-1.74666
11
2.03396
21
-1.75334
0
LINE
8
BLACK
6
CONTINUOUS
10
2.03396
20
-1.75334
11
2.03265
21
-1.7599
0
LINE
8
BLACK
6
CONTINUOUS
10
2.03265
20
-1.7599
11
2.03009
21
-1.76608
0
LINE
8
BLACK
6
CONTINUOUS
10
2.03009
20
-1.76608
11
2.02638
21
-1.77165
0
LINE
8
BLACK
6
CONTINUOUS
10
2.02638
20
-1.77165
11
2.02165
21
-1.77638
0
LINE
8
BLACK
6
CONTINUOUS
10
2.02165
20
-1.77638
11
2.01608
21
-1.78009
0
LINE
8
BLACK
6
CONTINUOUS
10
2.01608
20
-1.78009
11
2.0099
21
-1.78265
0
LINE
8
BLACK
6
CONTINUOUS
10
2.0099
20
-1.78265
11
2.00334
21
-1.78396
0
LINE
8
BLACK
6
CONTINUOUS
10
2.00334
20
-1.78396
11
1.99666
21
-1.78396
0
LINE
8
BLACK
6
CONTINUOUS
10
1.99666
20
-1.78396
11
1.9901
21
-1.78265
0
LINE
8
BLACK
6
CONTINUOUS
10
1.9901
20
-1.78265
11
1.98392
21
-1.78009
0
LINE
8
BLACK
6
CONTINUOUS
10
1.98392
20
-1.78009
11
1.97835
21
-1.77638
0
LINE
8
BLACK
6
CONTINUOUS
10
1.97835
20
-1.77638
11
1.97362
21
-1.77165
0
LINE
8
BLACK
6
CONTINUOUS
10
1.97362
20
-1.77165
11
1.96991
21
-1.76608
0
LINE
8
BLACK
6
CONTINUOUS
10
1.96991
20
-1.76608
11
1.96735
21
-1.7599
0
LINE
8
BLACK
6
CONTINUOUS
10
1.96735
20
-1.7599
11
1.96604
21
-1.75334
0
LINE
8
BLACK
6
CONTINUOUS
10
1.96604
20
-1.75334
11
1.96604
21
-1.74666
0
LINE
8
BLACK
6
CONTINUOUS
10
1.96604
20
-1.74666
11
1.96735
21
-1.7401
0
LINE
8
BLACK
6
CONTINUOUS
10
1.96735
20
-1.7401
11
1.96991
21
-1.73392
0
LINE
8
BLACK
6
CONTINUOUS
10
1.96991
20
-1.73392
11
1.97362
21
-1.72835
0
LINE
8
BLACK
6
CONTINUOUS
10
1.97362
20
-1.72835
11
1.97835
21
-1.72362
0
LINE
8
BLACK
6
CONTINUOUS
10
1.97835
20
-1.72362
11
1.98392
21
-1.71991
0
LINE
8
BLACK
6
CONTINUOUS
10
1.98392
20
-1.71991
11
1.9901
21
-1.71735
0
LINE
8
BLACK
6
CONTINUOUS
10
1.9901
20
-1.71735
11
1.99666
21
-1.71604
0
LINE
8
BLACK
6
CONTINUOUS
10
1.99666
20
-1.71604
11
2.00334
21
-1.71604
0
LINE
8
BLACK
6
CONTINUOUS
10
2.00334
20
-1.71604
11
2.0099
21
-1.71735
0
LINE
8
BLACK
6
CONTINUOUS
10
2.1099
20
-1.71735
11
2.11608
21
-1.71991
0
LINE
8
BLACK
6
CONTINUOUS
10
2.11608
20
-1.71991
11
2.12165
21
-1.72362
0
LINE
8
BLACK
6
CONTINUOUS
10
2.12165
20
-1.72362
11
2.12638
21
-1.72835
0
LINE
8
BLACK
6
CONTINUOUS
10
2.12638
20
-1.72835
11
2.13009
21
-1.73392
0
LINE
8
BLACK
6
CONTINUOUS
10
2.13009
20
-1.73392
11
2.13265
21
-1.7401
0
LINE
8
BLACK
6
CONTINUOUS
10
2.13265
20
-1.7401
11
2.13396
21
-1.74666
0
LINE
8
BLACK
6
CONTINUOUS
10
2.13396
20
-1.74666
11
2.13396
21
-1.75334
0
LINE
8
BLACK
6
CONTINUOUS
10
2.13396
20
-1.75334
11
2.13265
21
-1.7599
0
LINE
8
BLACK
6
CONTINUOUS
10
2.13265
20
-1.7599
11
2.13009
21
-1.76608
0
LINE
8
BLACK
6
CONTINUOUS
10
2.13009
20
-1.76608
11
2.12638
21
-1.77165
0
LINE
8
BLACK
6
CONTINUOUS
10
2.12638
20
-1.77165
11
2.12165
21
-1.77638
0
LINE
8
BLACK
6
CONTINUOUS
10
2.12165
20
-1.77638
11
2.11608
21
-1.78009
0
LINE
8
BLACK
6
CONTINUOUS
10
2.11608
20
-1.78009
11
2.1099
21
-1.78265
0
LINE
8
BLACK
6
CONTINUOUS
10
2.1099
20
-1.78265
11
2.10334
21
-1.78396
0
LINE
8
BLACK
6
CONTINUOUS
10
2.10334
20
-1.78396
11
2.09666
21
-1.78396
0
LINE
8
BLACK
6
CONTINUOUS
10
2.09666
20
-1.78396
11
2.0901
21
-1.78265
0
LINE
8
BLACK
6
CONTINUOUS
10
2.0901
20
-1.78265
11
2.08392
21
-1.78009
0
LINE
8
BLACK
6
CONTINUOUS
10
2.08392
20
-1.78009
11
2.07835
21
-1.77638
0
LINE
8
BLACK
6
CONTINUOUS
10
2.07835
20
-1.77638
11
2.07362
21
-1.77165
0
LINE
8
BLACK
6
CONTINUOUS
10
2.07362
20
-1.77165
11
2.06991
21
-1.76608
0
LINE
8
BLACK
6
CONTINUOUS
10
2.06991
20
-1.76608
11
2.06735
21
-1.7599
0
LINE
8
BLACK
6
CONTINUOUS
10
2.06735
20
-1.7599
11
2.06604
21
-1.75334
0
LINE
8
BLACK
6
CONTINUOUS
10
2.06604
20
-1.75334
11
2.06604
21
-1.74666
0
LINE
8
BLACK
6
CONTINUOUS
10
2.06604
20
-1.74666
11
2.06735
21
-1.7401
0
LINE
8
BLACK
6
CONTINUOUS
10
2.06735
20
-1.7401
11
2.06991
21
-1.73392
0
LINE
8
BLACK
6
CONTINUOUS
10
2.06991
20
-1.73392
11
2.07362
21
-1.72835
0
LINE
8
BLACK
6
CONTINUOUS
10
2.07362
20
-1.72835
11
2.07835
21
-1.72362
0
LINE
8
BLACK
6
CONTINUOUS
10
2.07835
20
-1.72362
11
2.08392
21
-1.71991
0
LINE
8
BLACK
6
CONTINUOUS
10
2.08392
20
-1.71991
11
2.0901
21
-1.71735
0
LINE
8
BLACK
6
CONTINUOUS
10
2.0901
20
-1.71735
11
2.09666
21
-1.71604
0
LINE
8
BLACK
6
CONTINUOUS
10
2.09666
20
-1.71604
11
2.10334
21
-1.71604
0
LINE
8
BLACK
6
CONTINUOUS
10
2.10334
20
-1.71604
11
2.1099
21
-1.71735
0
LINE
8
BLACK
6
CONTINUOUS
10
0.8321
20
-1.63389
11
0.837832
21
-1.63626
0
LINE
8
BLACK
6
CONTINUOUS
10
0.837832
20
-1.63626
11
0.842991
21
-1.63971
0
LINE
8
BLACK
6
CONTINUOUS
10
0.842991
20
-1.63971
11
0.847378
21
-1.6441
0
LINE
8
BLACK
6
CONTINUOUS
10
0.847378
20
-1.6441
11
0.850825
21
-1.64925
0
LINE
8
BLACK
6
CONTINUOUS
10
0.850825
20
-1.64925
11
0.853199
21
-1.65499
0
LINE
8
BLACK
6
CONTINUOUS
10
0.853199
20
-1.65499
11
0.854409
21
-1.66107
0
LINE
8
BLACK
6
CONTINUOUS
10
0.854409
20
-1.66107
11
0.854409
21
-1.66728
0
LINE
8
BLACK
6
CONTINUOUS
10
0.854409
20
-1.66728
11
0.853199
21
-1.67336
0
LINE
8
BLACK
6
CONTINUOUS
10
0.853199
20
-1.67336
11
0.850825
21
-1.67909
0
LINE
8
BLACK
6
CONTINUOUS
10
0.850825
20
-1.67909
11
0.847378
21
-1.68425
0
LINE
8
BLACK
6
CONTINUOUS
10
0.847378
20
-1.68425
11
0.842991
21
-1.68864
0
LINE
8
BLACK
6
CONTINUOUS
10
0.842991
20
-1.68864
11
0.837832
21
-1.69208
0
LINE
8
BLACK
6
CONTINUOUS
10
0.837832
20
-1.69208
11
0.8321
21
-1.69446
0
LINE
8
BLACK
6
CONTINUOUS
10
0.8321
20
-1.69446
11
0.826015
21
-1.69567
0
LINE
8
BLACK
6
CONTINUOUS
10
0.826015
20
-1.69567
11
0.819811
21
-1.69567
0
LINE
8
BLACK
6
CONTINUOUS
10
0.819811
20
-1.69567
11
0.813726
21
-1.69446
0
LINE
8
BLACK
6
CONTINUOUS
10
0.813726
20
-1.69446
11
0.807994
21
-1.69208
0
LINE
8
BLACK
6
CONTINUOUS
10
0.807994
20
-1.69208
11
0.802836
21
-1.68864
0
LINE
8
BLACK
6
CONTINUOUS
10
0.802836
20
-1.68864
11
0.798449
21
-1.68425
0
LINE
8
BLACK
6
CONTINUOUS
10
0.798449
20
-1.68425
11
0.795002
21
-1.67909
0
LINE
8
BLACK
6
CONTINUOUS
10
0.795002
20
-1.67909
11
0.792628
21
-1.67336
0
LINE
8
BLACK
6
CONTINUOUS
10
0.792628
20
-1.67336
11
0.791417
21
-1.66728
0
LINE
8
BLACK
6
CONTINUOUS
10
0.791417
20
-1.66728
11
0.791417
21
-1.66107
0
LINE
8
BLACK
6
CONTINUOUS
10
0.791417
20
-1.66107
11
0.792628
21
-1.65499
0
LINE
8
BLACK
6
CONTINUOUS
10
0.792628
20
-1.65499
11
0.795002
21
-1.64925
0
LINE
8
BLACK
6
CONTINUOUS
10
0.795002
20
-1.64925
11
0.798449
21
-1.6441
0
LINE
8
BLACK
6
CONTINUOUS
10
0.798449
20
-1.6441
11
0.802836
21
-1.63971
0
LINE
8
BLACK
6
CONTINUOUS
10
0.802836
20
-1.63971
11
0.807994
21
-1.63626
0
LINE
8
BLACK
6
CONTINUOUS
10
0.807994
20
-1.63626
11
0.813726
21
-1.63389
0
LINE
8
BLACK
6
CONTINUOUS
10
0.813726
20
-1.63389
11
0.819811
21
-1.63268
0
LINE
8
BLACK
6
CONTINUOUS
10
0.819811
20
-1.63268
11
0.826015
21
-1.63268
0
LINE
8
BLACK
6
CONTINUOUS
10
0.826015
20
-1.63268
11
0.8321
21
-1.63389
0
LINE
8
BLACK
6
CONTINUOUS
10
1.43396
20
-1.68396
11
1.36604
21
-1.68396
0
LINE
8
BLACK
6
CONTINUOUS
10
1.36604
20
-1.68396
11
1.36604
21
-1.61604
0
LINE
8
BLACK
6
CONTINUOUS
10
1.36604
20
-1.61604
11
1.43396
21
-1.61604
0
LINE
8
BLACK
6
CONTINUOUS
10
1.43396
20
-1.61604
11
1.43396
21
-1.68396
0
LINE
8
BLACK
6
CONTINUOUS
10
1.5099
20
-1.61735
11
1.51608
21
-1.61991
0
LINE
8
BLACK
6
CONTINUOUS
10
1.51608
20
-1.61991
11
1.52165
21
-1.62362
0
LINE
8
BLACK
6
CONTINUOUS
10
1.52165
20
-1.62362
11
1.52638
21
-1.62835
0
LINE
8
BLACK
6
CONTINUOUS
10
1.52638
20
-1.62835
11
1.53009
21
-1.63392
0
LINE
8
BLACK
6
CONTINUOUS
10
1.53009
20
-1.63392
11
1.53265
21
-1.6401
0
LINE
8
BLACK
6
CONTINUOUS
10
1.53265
20
-1.6401
11
1.53396
21
-1.64666
0
LINE
8
BLACK
6
CONTINUOUS
10
1.53396
20
-1.64666
11
1.53396
21
-1.65334
0
LINE
8
BLACK
6
CONTINUOUS
10
1.53396
20
-1.65334
11
1.53265
21
-1.6599
0
LINE
8
BLACK
6
CONTINUOUS
10
1.53265
20
-1.6599
11
1.53009
21
-1.66608
0
LINE
8
BLACK
6
CONTINUOUS
10
1.53009
20
-1.66608
11
1.52638
21
-1.67165
0
LINE
8
BLACK
6
CONTINUOUS
10
1.52638
20
-1.67165
11
1.52165
21
-1.67638
0
LINE
8
BLACK
6
CONTINUOUS
10
1.52165
20
-1.67638
11
1.51608
21
-1.68009
0
LINE
8
BLACK
6
CONTINUOUS
10
1.51608
20
-1.68009
11
1.5099
21
-1.68265
0
LINE
8
BLACK
6
CONTINUOUS
10
1.5099
20
-1.68265
11
1.50334
21
-1.68396
0
LINE
8
BLACK
6
CONTINUOUS
10
1.50334
20
-1.68396
11
1.49666
21
-1.68396
0
LINE
8
BLACK
6
CONTINUOUS
10
1.49666
20
-1.68396
11
1.4901
21
-1.68265
0
LINE
8
BLACK
6
CONTINUOUS
10
1.4901
20
-1.68265
11
1.48392
21
-1.68009
0
LINE
8
BLACK
6
CONTINUOUS
10
1.48392
20
-1.68009
11
1.47835
21
-1.67638
0
LINE
8
BLACK
6
CONTINUOUS
10
1.47835
20
-1.67638
11
1.47362
21
-1.67165
0
LINE
8
BLACK
6
CONTINUOUS
10
1.47362
20
-1.67165
11
1.46991
21
-1.66608
0
LINE
8
BLACK
6
CONTINUOUS
10
1.46991
20
-1.66608
11
1.46735
21
-1.6599
0
LINE
8
BLACK
6
CONTINUOUS
10
1.46735
20
-1.6599
11
1.46604
21
-1.65334
0
LINE
8
BLACK
6
CONTINUOUS
10
1.46604
20
-1.65334
11
1.46604
21
-1.64666
0
LINE
8
BLACK
6
CONTINUOUS
10
1.46604
20
-1.64666
11
1.46735
21
-1.6401
0
LINE
8
BLACK
6
CONTINUOUS
10
1.46735
20
-1.6401
11
1.46991
21
-1.63392
0
LINE
8
BLACK
6
CONTINUOUS
10
1.46991
20
-1.63392
11
1.47362
21
-1.62835
0
LINE
8
BLACK
6
CONTINUOUS
10
1.47362
20
-1.62835
11
1.47835
21
-1.62362
0
LINE
8
BLACK
6
CONTINUOUS
10
1.47835
20
-1.62362
11
1.48392
21
-1.61991
0
LINE
8
BLACK
6
CONTINUOUS
10
1.48392
20
-1.61991
11
1.4901
21
-1.61735
0
LINE
8
BLACK
6
CONTINUOUS
10
1.4901
20
-1.61735
11
1.49666
21
-1.61604
0
LINE
8
BLACK
6
CONTINUOUS
10
1.49666
20
-1.61604
11
1.50334
21
-1.61604
0
LINE
8
BLACK
6
CONTINUOUS
10
1.50334
20
-1.61604
11
1.5099
21
-1.61735
0
LINE
8
BLACK
6
CONTINUOUS
10
1.6099
20
-1.61735
11
1.61608
21
-1.61991
0
LINE
8
BLACK
6
CONTINUOUS
10
1.61608
20
-1.61991
11
1.62165
21
-1.62362
0
LINE
8
BLACK
6
CONTINUOUS
10
1.62165
20
-1.62362
11
1.62638
21
-1.62835
0
LINE
8
BLACK
6
CONTINUOUS
10
1.62638
20
-1.62835
11
1.63009
21
-1.63392
0
LINE
8
BLACK
6
CONTINUOUS
10
1.63009
20
-1.63392
11
1.63265
21
-1.6401
0
LINE
8
BLACK
6
CONTINUOUS
10
1.63265
20
-1.6401
11
1.63396
21
-1.64666
0
LINE
8
BLACK
6
CONTINUOUS
10
1.63396
20
-1.64666
11
1.63396
21
-1.65334
0
LINE
8
BLACK
6
CONTINUOUS
10
1.63396
20
-1.65334
11
1.63265
21
-1.6599
0
LINE
8
BLACK
6
CONTINUOUS
10
1.63265
20
-1.6599
11
1.63009
21
-1.66608
0
LINE
8
BLACK
6
CONTINUOUS
10
1.63009
20
-1.66608
11
1.62638
21
-1.67165
0
LINE
8
BLACK
6
CONTINUOUS
10
1.62638
20
-1.67165
11
1.62165
21
-1.67638
0
LINE
8
BLACK
6
CONTINUOUS
10
1.62165
20
-1.67638
11
1.61608
21
-1.68009
0
LINE
8
BLACK
6
CONTINUOUS
10
1.61608
20
-1.68009
11
1.6099
21
-1.68265
0
LINE
8
BLACK
6
CONTINUOUS
10
1.6099
20
-1.68265
11
1.60334
21
-1.68396
0
LINE
8
BLACK
6
CONTINUOUS
10
1.60334
20
-1.68396
11
1.59666
21
-1.68396
0
LINE
8
BLACK
6
CONTINUOUS
10
1.59666
20
-1.68396
11
1.5901
21
-1.68265
0
LINE
8
BLACK
6
CONTINUOUS
10
1.5901
20
-1.68265
11
1.58392
21
-1.68009
0
LINE
8
BLACK
6
CONTINUOUS
10
1.58392
20
-1.68009
11
1.57835
21
-1.67638
0
LINE
8
BLACK
6
CONTINUOUS
10
1.57835
20
-1.67638
11
1.57362
21
-1.67165
0
LINE
8
BLACK
6
CONTINUOUS
10
1.57362
20
-1.67165
11
1.56991
21
-1.66608
0
LINE
8
BLACK
6
CONTINUOUS
10
1.56991
20
-1.66608
11
1.56735
21
-1.6599
0
LINE
8
BLACK
6
CONTINUOUS
10
1.56735
20
-1.6599
11
1.56604
21
-1.65334
0
LINE
8
BLACK
6
CONTINUOUS
10
1.56604
20
-1.65334
11
1.56604
21
-1.64666
0
LINE
8
BLACK
6
CONTINUOUS
10
1.56604
20
-1.64666
11
1.56735
21
-1.6401
0
LINE
8
BLACK
6
CONTINUOUS
10
1.56735
20
-1.6401
11
1.56991
21
-1.63392
0
LINE
8
BLACK
6
CONTINUOUS
10
1.56991
20
-1.63392
11
1.57362
21
-1.62835
0
LINE
8
BLACK
6
CONTINUOUS
10
1.57362
20
-1.62835
11
1.57835
21
-1.62362
0
LINE
8
BLACK
6
CONTINUOUS
10
1.57835
20
-1.62362
11
1.58392
21
-1.61991
0
LINE
8
BLACK
6
CONTINUOUS
10
1.58392
20
-1.61991
11
1.5901
21
-1.61735
0
LINE
8
BLACK
6
CONTINUOUS
10
1.5901
20
-1.61735
11
1.59666
21
-1.61604
0
LINE
8
BLACK
6
CONTINUOUS
10
1.59666
20
-1.61604
11
1.60334
21
-1.61604
0
LINE
8
BLACK
6
CONTINUOUS
10
1.60334
20
-1.61604
11
1.6099
21
-1.61735
0
LINE
8
BLACK
6
CONTINUOUS
10
1.7099
20
-1.61735
11
1.71608
21
-1.61991
0
LINE
8
BLACK
6
CONTINUOUS
10
1.71608
20
-1.61991
11
1.72165
21
-1.62362
0
LINE
8
BLACK
6
CONTINUOUS
10
1.72165
20
-1.62362
11
1.72638
21
-1.62835
0
LINE
8
BLACK
6
CONTINUOUS
10
1.72638
20
-1.62835
11
1.73009
21
-1.63392
0
LINE
8
BLACK
6
CONTINUOUS
10
1.73009
20
-1.63392
11
1.73265
21
-1.6401
0
LINE
8
BLACK
6
CONTINUOUS
10
1.73265
20
-1.6401
11
1.73396
21
-1.64666
0
LINE
8
BLACK
6
CONTINUOUS
10
1.73396
20
-1.64666
11
1.73396
21
-1.65334
0
LINE
8
BLACK
6
CONTINUOUS
10
1.73396
20
-1.65334
11
1.73265
21
-1.6599
0
LINE
8
BLACK
6
CONTINUOUS
10
1.73265
20
-1.6599
11
1.73009
21
-1.66608
0
LINE
8
BLACK
6
CONTINUOUS
10
1.73009
20
-1.66608
11
1.72638
21
-1.67165
0
LINE
8
BLACK
6
CONTINUOUS
10
1.72638
20
-1.67165
11
1.72165
21
-1.67638
0
LINE
8
BLACK
6
CONTINUOUS
10
1.72165
20
-1.67638
11
1.71608
21
-1.68009
0
LINE
8
BLACK
6
CONTINUOUS
10
1.71608
20
-1.68009
11
1.7099
21
-1.68265
0
LINE
8
BLACK
6
CONTINUOUS
10
1.7099
20
-1.68265
11
1.70334
21
-1.68396
0
LINE
8
BLACK
6
CONTINUOUS
10
1.70334
20
-1.68396
11
1.69666
21
-1.68396
0
LINE
8
BLACK
6
CONTINUOUS
10
1.69666
20
-1.68396
11
1.6901
21
-1.68265
0
LINE
8
BLACK
6
CONTINUOUS
10
1.6901
20
-1.68265
11
1.68392
21
-1.68009
0
LINE
8
BLACK
6
CONTINUOUS
10
1.68392
20
-1.68009
11
1.67835
21
-1.67638
0
LINE
8
BLACK
6
CONTINUOUS
10
1.67835
20
-1.67638
11
1.67362
21
-1.67165
0
LINE
8
BLACK
6
CONTINUOUS
10
1.67362
20
-1.67165
11
1.66991
21
-1.66608
0
LINE
8
BLACK
6
CONTINUOUS
10
1.66991
20
-1.66608
11
1.66735
21
-1.6599
0
LINE
8
BLACK
6
CONTINUOUS
10
1.66735
20
-1.6599
11
1.66604
21
-1.65334
0
LINE
8
BLACK
6
CONTINUOUS
10
1.66604
20
-1.65334
11
1.66604
21
-1.64666
0
LINE
8
BLACK
6
CONTINUOUS
10
1.66604
20
-1.64666
11
1.66735
21
-1.6401
0
LINE
8
BLACK
6
CONTINUOUS
10
1.66735
20
-1.6401
11
1.66991
21
-1.63392
0
LINE
8
BLACK
6
CONTINUOUS
10
1.66991
20
-1.63392
11
1.67362
21
-1.62835
0
LINE
8
BLACK
6
CONTINUOUS
10
1.67362
20
-1.62835
11
1.67835
21
-1.62362
0
LINE
8
BLACK
6
CONTINUOUS
10
1.67835
20
-1.62362
11
1.68392
21
-1.61991
0
LINE
8
BLACK
6
CONTINUOUS
10
1.68392
20
-1.61991
11
1.6901
21
-1.61735
0
LINE
8
BLACK
6
CONTINUOUS
10
1.6901
20
-1.61735
11
1.69666
21
-1.61604
0
LINE
8
BLACK
6
CONTINUOUS
10
1.69666
20
-1.61604
11
1.70334
21
-1.61604
0
LINE
8
BLACK
6
CONTINUOUS
10
1.70334
20
-1.61604
11
1.7099
21
-1.61735
0
LINE
8
BLACK
6
CONTINUOUS
10
1.8099
20
-1.61735
11
1.81608
21
-1.61991
0
LINE
8
BLACK
6
CONTINUOUS
10
1.81608
20
-1.61991
11
1.82165
21
-1.62362
0
LINE
8
BLACK
6
CONTINUOUS
10
1.82165
20
-1.62362
11
1.82638
21
-1.62835
0
LINE
8
BLACK
6
CONTINUOUS
10
1.82638
20
-1.62835
11
1.83009
21
-1.63392
0
LINE
8
BLACK
6
CONTINUOUS
10
1.83009
20
-1.63392
11
1.83265
21
-1.6401
0
LINE
8
BLACK
6
CONTINUOUS
10
1.83265
20
-1.6401
11
1.83396
21
-1.64666
0
LINE
8
BLACK
6
CONTINUOUS
10
1.83396
20
-1.64666
11
1.83396
21
-1.65334
0
LINE
8
BLACK
6
CONTINUOUS
10
1.83396
20
-1.65334
11
1.83265
21
-1.6599
0
LINE
8
BLACK
6
CONTINUOUS
10
1.83265
20
-1.6599
11
1.83009
21
-1.66608
0
LINE
8
BLACK
6
CONTINUOUS
10
1.83009
20
-1.66608
11
1.82638
21
-1.67165
0
LINE
8
BLACK
6
CONTINUOUS
10
1.82638
20
-1.67165
11
1.82165
21
-1.67638
0
LINE
8
BLACK
6
CONTINUOUS
10
1.82165
20
-1.67638
11
1.81608
21
-1.68009
0
LINE
8
BLACK
6
CONTINUOUS
10
1.81608
20
-1.68009
11
1.8099
21
-1.68265
0
LINE
8
BLACK
6
CONTINUOUS
10
1.8099
20
-1.68265
11
1.80334
21
-1.68396
0
LINE
8
BLACK
6
CONTINUOUS
10
1.80334
20
-1.68396
11
1.79666
21
-1.68396
0
LINE
8
BLACK
6
CONTINUOUS
10
1.79666
20
-1.68396
11
1.7901
21
-1.68265
0
LINE
8
BLACK
6
CONTINUOUS
10
1.7901
20
-1.68265
11
1.78392
21
-1.68009
0
LINE
8
BLACK
6
CONTINUOUS
10
1.78392
20
-1.68009
11
1.77835
21
-1.67638
0
LINE
8
BLACK
6
CONTINUOUS
10
1.77835
20
-1.67638
11
1.77362
21
-1.67165
0
LINE
8
BLACK
6
CONTINUOUS
10
1.77362
20
-1.67165
11
1.76991
21
-1.66608
0
LINE
8
BLACK
6
CONTINUOUS
10
1.76991
20
-1.66608
11
1.76735
21
-1.6599
0
LINE
8
BLACK
6
CONTINUOUS
10
1.76735
20
-1.6599
11
1.76604
21
-1.65334
0
LINE
8
BLACK
6
CONTINUOUS
10
1.76604
20
-1.65334
11
1.76604
21
-1.64666
0
LINE
8
BLACK
6
CONTINUOUS
10
1.76604
20
-1.64666
11
1.76735
21
-1.6401
0
LINE
8
BLACK
6
CONTINUOUS
10
1.76735
20
-1.6401
11
1.76991
21
-1.63392
0
LINE
8
BLACK
6
CONTINUOUS
10
1.76991
20
-1.63392
11
1.77362
21
-1.62835
0
LINE
8
BLACK
6
CONTINUOUS
10
1.77362
20
-1.62835
11
1.77835
21
-1.62362
0
LINE
8
BLACK
6
CONTINUOUS
10
1.77835
20
-1.62362
11
1.78392
21
-1.61991
0
LINE
8
BLACK
6
CONTINUOUS
10
1.78392
20
-1.61991
11
1.7901
21
-1.61735
0
LINE
8
BLACK
6
CONTINUOUS
10
1.7901
20
-1.61735
11
1.79666
21
-1.61604
0
LINE
8
BLACK
6
CONTINUOUS
10
1.79666
20
-1.61604
11
1.80334
21
-1.61604
0
LINE
8
BLACK
6
CONTINUOUS
10
1.80334
20
-1.61604
11
1.8099
21
-1.61735
0
LINE
8
BLACK
6
CONTINUOUS
10
1.9099
20
-1.61735
11
1.91608
21
-1.61991
0
LINE
8
BLACK
6
CONTINUOUS
10
1.91608
20
-1.61991
11
1.92165
21
-1.62362
0
LINE
8
BLACK
6
CONTINUOUS
10
1.92165
20
-1.62362
11
1.92638
21
-1.62835
0
LINE
8
BLACK
6
CONTINUOUS
10
1.92638
20
-1.62835
11
1.93009
21
-1.63392
0
LINE
8
BLACK
6
CONTINUOUS
10
1.93009
20
-1.63392
11
1.93265
21
-1.6401
0
LINE
8
BLACK
6
CONTINUOUS
10
1.93265
20
-1.6401
11
1.93396
21
-1.64666
0
LINE
8
BLACK
6
CONTINUOUS
10
1.93396
20
-1.64666
11
1.93396
21
-1.65334
0
LINE
8
BLACK
6
CONTINUOUS
10
1.93396
20
-1.65334
11
1.93265
21
-1.6599
0
LINE
8
BLACK
6
CONTINUOUS
10
1.93265
20
-1.6599
11
1.93009
21
-1.66608
0
LINE
8
BLACK
6
CONTINUOUS
10
1.93009
20
-1.66608
11
1.92638
21
-1.67165
0
LINE
8
BLACK
6
CONTINUOUS
10
1.92638
20
-1.67165
11
1.92165
21
-1.67638
0
LINE
8
BLACK
6
CONTINUOUS
10
1.92165
20
-1.67638
11
1.91608
21
-1.68009
0
LINE
8
BLACK
6
CONTINUOUS
10
1.91608
20
-1.68009
11
1.9099
21
-1.68265
0
LINE
8
BLACK
6
CONTINUOUS
10
1.9099
20
-1.68265
11
1.90334
21
-1.68396
0
LINE
8
BLACK
6
CONTINUOUS
10
1.90334
20
-1.68396
11
1.89666
21
-1.68396
0
LINE
8
BLACK
6
CONTINUOUS
10
1.89666
20
-1.68396
11
1.8901
21
-1.68265
0
LINE
8
BLACK
6
CONTINUOUS
10
1.8901
20
-1.68265
11
1.88392
21
-1.68009
0
LINE
8
BLACK
6
CONTINUOUS
10
1.88392
20
-1.68009
11
1.87835
21
-1.67638
0
LINE
8
BLACK
6
CONTINUOUS
10
1.87835
20
-1.67638
11
1.87362
21
-1.67165
0
LINE
8
BLACK
6
CONTINUOUS
10
1.87362
20
-1.67165
11
1.86991
21
-1.66608
0
LINE
8
BLACK
6
CONTINUOUS
10
1.86991
20
-1.66608
11
1.86735
21
-1.6599
0
LINE
8
BLACK
6
CONTINUOUS
10
1.86735
20
-1.6599
11
1.86604
21
-1.65334
0
LINE
8
BLACK
6
CONTINUOUS
10
1.86604
20
-1.65334
11
1.86604
21
-1.64666
0
LINE
8
BLACK
6
CONTINUOUS
10
1.86604
20
-1.64666
11
1.86735
21
-1.6401
0
LINE
8
BLACK
6
CONTINUOUS
10
1.86735
20
-1.6401
11
1.86991
21
-1.63392
0
LINE
8
BLACK
6
CONTINUOUS
10
1.86991
20
-1.63392
11
1.87362
21
-1.62835
0
LINE
8
BLACK
6
CONTINUOUS
10
1.87362
20
-1.62835
11
1.87835
21
-1.62362
0
LINE
8
BLACK
6
CONTINUOUS
10
1.87835
20
-1.62362
11
1.88392
21
-1.61991
0
LINE
8
BLACK
6
CONTINUOUS
10
1.88392
20
-1.61991
11
1.8901
21
-1.61735
0
LINE
8
BLACK
6
CONTINUOUS
10
1.8901
20
-1.61735
11
1.89666
21
-1.61604
0
LINE
8
BLACK
6
CONTINUOUS
10
1.89666
20
-1.61604
11
1.90334
21
-1.61604
0
LINE
8
BLACK
6
CONTINUOUS
10
1.90334
20
-1.61604
11
1.9099
21
-1.61735
0
LINE
8
BLACK
6
CONTINUOUS
10
2.0099
20
-1.61735
11
2.01608
21
-1.61991
0
LINE
8
BLACK
6
CONTINUOUS
10
2.01608
20
-1.61991
11
2.02165
21
-1.62362
0
LINE
8
BLACK
6
CONTINUOUS
10
2.02165
20
-1.62362
11
2.02638
21
-1.62835
0
LINE
8
BLACK
6
CONTINUOUS
10
2.02638
20
-1.62835
11
2.03009
21
-1.63392
0
LINE
8
BLACK
6
CONTINUOUS
10
2.03009
20
-1.63392
11
2.03265
21
-1.6401
0
LINE
8
BLACK
6
CONTINUOUS
10
2.03265
20
-1.6401
11
2.03396
21
-1.64666
0
LINE
8
BLACK
6
CONTINUOUS
10
2.03396
20
-1.64666
11
2.03396
21
-1.65334
0
LINE
8
BLACK
6
CONTINUOUS
10
2.03396
20
-1.65334
11
2.03265
21
-1.6599
0
LINE
8
BLACK
6
CONTINUOUS
10
2.03265
20
-1.6599
11
2.03009
21
-1.66608
0
LINE
8
BLACK
6
CONTINUOUS
10
2.03009
20
-1.66608
11
2.02638
21
-1.67165
0
LINE
8
BLACK
6
CONTINUOUS
10
2.02638
20
-1.67165
11
2.02165
21
-1.67638
0
LINE
8
BLACK
6
CONTINUOUS
10
2.02165
20
-1.67638
11
2.01608
21
-1.68009
0
LINE
8
BLACK
6
CONTINUOUS
10
2.01608
20
-1.68009
11
2.0099
21
-1.68265
0
LINE
8
BLACK
6
CONTINUOUS
10
2.0099
20
-1.68265
11
2.00334
21
-1.68396
0
LINE
8
BLACK
6
CONTINUOUS
10
2.00334
20
-1.68396
11
1.99666
21
-1.68396
0
LINE
8
BLACK
6
CONTINUOUS
10
1.99666
20
-1.68396
11
1.9901
21
-1.68265
0
LINE
8
BLACK
6
CONTINUOUS
10
1.9901
20
-1.68265
11
1.98392
21
-1.68009
0
LINE
8
BLACK
6
CONTINUOUS
10
1.98392
20
-1.68009
11
1.97835
21
-1.67638
0
LINE
8
BLACK
6
CONTINUOUS
10
1.97835
20
-1.67638
11
1.97362
21
-1.67165
0
LINE
8
BLACK
6
CONTINUOUS
10
1.97362
20
-1.67165
11
1.96991
21
-1.66608
0
LINE
8
BLACK
6
CONTINUOUS
10
1.96991
20
-1.66608
11
1.96735
21
-1.6599
0
LINE
8
BLACK
6
CONTINUOUS
10
1.96735
20
-1.6599
11
1.96604
21
-1.65334
0
LINE
8
BLACK
6
CONTINUOUS
10
1.96604
20
-1.65334
11
1.96604
21
-1.64666
0
LINE
8
BLACK
6
CONTINUOUS
10
1.96604
20
-1.64666
11
1.96735
21
-1.6401
0
LINE
8
BLACK
6
CONTINUOUS
10
1.96735
20
-1.6401
11
1.96991
21
-1.63392
0
LINE
8
BLACK
6
CONTINUOUS
10
1.96991
20
-1.63392
11
1.97362
21
-1.62835
0
LINE
8
BLACK
6
CONTINUOUS
10
1.97362
20
-1.62835
11
1.97835
21
-1.62362
0
LINE
8
BLACK
6
CONTINUOUS
10
1.97835
20
-1.62362
11
1.98392
21
-1.61991
0
LINE
8
BLACK
6
CONTINUOUS
10
1.98392
20
-1.61991
11
1.9901
21
-1.61735
0
LINE
8
BLACK
6
CONTINUOUS
10
1.9901
20
-1.61735
11
1.99666
21
-1.61604
0
LINE
8
BLACK
6
CONTINUOUS
10
1.99666
20
-1.61604
11
2.00334
21
-1.61604
0
LINE
8
BLACK
6
CONTINUOUS
10
2.00334
20
-1.61604
11
2.0099
21
-1.61735
0
LINE
8
BLACK
6
CONTINUOUS
10
2.1099
20
-1.61735
11
2.11608
21
-1.61991
0
LINE
8
BLACK
6
CONTINUOUS
10
2.11608
20
-1.61991
11
2.12165
21
-1.62362
0
LINE
8
BLACK
6
CONTINUOUS
10
2.12165
20
-1.62362
11
2.12638
21
-1.62835
0
LINE
8
BLACK
6
CONTINUOUS
10
2.12638
20
-1.62835
11
2.13009
21
-1.63392
0
LINE
8
BLACK
6
CONTINUOUS
10
2.13009
20
-1.63392
11
2.13265
21
-1.6401
0
LINE
8
BLACK
6
CONTINUOUS
10
2.13265
20
-1.6401
11
2.13396
21
-1.64666
0
LINE
8
BLACK
6
CONTINUOUS
10
2.13396
20
-1.64666
11
2.13396
21
-1.65334
0
LINE
8
BLACK
6
CONTINUOUS
10
2.13396
20
-1.65334
11
2.13265
21
-1.6599
0
LINE
8
BLACK
6
CONTINUOUS
10
2.13265
20
-1.6599
11
2.13009
21
-1.66608
0
LINE
8
BLACK
6
CONTINUOUS
10
2.13009
20
-1.66608
11
2.12638
21
-1.67165
0
LINE
8
BLACK
6
CONTINUOUS
10
2.12638
20
-1.67165
11
2.12165
21
-1.67638
0
LINE
8
BLACK
6
CONTINUOUS
10
2.12165
20
-1.67638
11
2.11608
21
-1.68009
0
LINE
8
BLACK
6
CONTINUOUS
10
2.11608
20
-1.68009
11
2.1099
21
-1.68265
0
LINE
8
BLACK
6
CONTINUOUS
10
2.1099
20
-1.68265
11
2.10334
21
-1.68396
0
LINE
8
BLACK
6
CONTINUOUS
10
2.10334
20
-1.68396
11
2.09666
21
-1.68396
0
LINE
8
BLACK
6
CONTINUOUS
10
2.09666
20
-1.68396
11
2.0901
21
-1.68265
0
LINE
8
BLACK
6
CONTINUOUS
10
2.0901
20
-1.68265
11
2.08392
21
-1.68009
0
LINE
8
BLACK
6
CONTINUOUS
10
2.08392
20
-1.68009
11
2.07835
21
-1.67638
0
LINE
8
BLACK
6
CONTINUOUS
10
2.07835
20
-1.67638
11
2.07362
21
-1.67165
0
LINE
8
BLACK
6
CONTINUOUS
10
2.07362
20
-1.67165
11
2.06991
21
-1.66608
0
LINE
8
BLACK
6
CONTINUOUS
10
2.06991
20
-1.66608
11
2.06735
21
-1.6599
0
LINE
8
BLACK
6
CONTINUOUS
10
2.06735
20
-1.6599
11
2.06604
21
-1.65334
0
LINE
8
BLACK
6
CONTINUOUS
10
2.06604
20
-1.65334
11
2.06604
21
-1.64666
0
LINE
8
BLACK
6
CONTINUOUS
10
2.06604
20
-1.64666
11
2.06735
21
-1.6401
0
LINE
8
BLACK
6
CONTINUOUS
10
2.06735
20
-1.6401
11
2.06991
21
-1.63392
0
LINE
8
BLACK
6
CONTINUOUS
10
2.06991
20
-1.63392
11
2.07362
21
-1.62835
0
LINE
8
BLACK
6
CONTINUOUS
10
2.07362
20
-1.62835
11
2.07835
21
-1.62362
0
LINE
8
BLACK
6
CONTINUOUS
10
2.07835
20
-1.62362
11
2.08392
21
-1.61991
0
LINE
8
BLACK
6
CONTINUOUS
10
2.08392
20
-1.61991
11
2.0901
21
-1.61735
0
LINE
8
BLACK
6
CONTINUOUS
10
2.0901
20
-1.61735
11
2.09666
21
-1.61604
0
LINE
8
BLACK
6
CONTINUOUS
10
2.09666
20
-1.61604
11
2.10334
21
-1.61604
0
LINE
8
BLACK
6
CONTINUOUS
10
2.10334
20
-1.61604
11
2.1099
21
-1.61735
0
LINE
8
BLACK
6
CONTINUOUS
10
0.934463
20
-1.51971
11
0.940195
21
-1.52209
0
LINE
8
BLACK
6
CONTINUOUS
10
0.940195
20
-1.52209
11
0.945353
21
-1.52554
0
LINE
8
BLACK
6
CONTINUOUS
10
0.945353
20
-1.52554
11
0.94974
21
-1.52992
0
LINE
8
BLACK
6
CONTINUOUS
10
0.94974
20
-1.52992
11
0.953187
21
-1.53508
0
LINE
8
BLACK
6
CONTINUOUS
10
0.953187
20
-1.53508
11
0.955561
21
-1.54081
0
LINE
8
BLACK
6
CONTINUOUS
10
0.955561
20
-1.54081
11
0.956772
21
-1.5469
0
LINE
8
BLACK
6
CONTINUOUS
10
0.956772
20
-1.5469
11
0.956772
21
-1.5531
0
LINE
8
BLACK
6
CONTINUOUS
10
0.956772
20
-1.5531
11
0.955561
21
-1.55919
0
LINE
8
BLACK
6
CONTINUOUS
10
0.955561
20
-1.55919
11
0.953187
21
-1.56492
0
LINE
8
BLACK
6
CONTINUOUS
10
0.953187
20
-1.56492
11
0.94974
21
-1.57008
0
LINE
8
BLACK
6
CONTINUOUS
10
0.94974
20
-1.57008
11
0.945353
21
-1.57446
0
LINE
8
BLACK
6
CONTINUOUS
10
0.945353
20
-1.57446
11
0.940195
21
-1.57791
0
LINE
8
BLACK
6
CONTINUOUS
10
0.940195
20
-1.57791
11
0.934463
21
-1.58029
0
LINE
8
BLACK
6
CONTINUOUS
10
0.934463
20
-1.58029
11
0.928378
21
-1.5815
0
LINE
8
BLACK
6
CONTINUOUS
10
0.928378
20
-1.5815
11
0.922174
21
-1.5815
0
LINE
8
BLACK
6
CONTINUOUS
10
0.922174
20
-1.5815
11
0.916089
21
-1.58029
0
LINE
8
BLACK
6
CONTINUOUS
10
0.916089
20
-1.58029
11
0.910357
21
-1.57791
0
LINE
8
BLACK
6
CONTINUOUS
10
0.910357
20
-1.57791
11
0.905198
21
-1.57446
0
LINE
8
BLACK
6
CONTINUOUS
10
0.905198
20
-1.57446
11
0.900811
21
-1.57008
0
LINE
8
BLACK
6
CONTINUOUS
10
0.900811
20
-1.57008
11
0.897364
21
-1.56492
0
LINE
8
BLACK
6
CONTINUOUS
10
0.897364
20
-1.56492
11
0.89499
21
-1.55919
0
LINE
8
BLACK
6
CONTINUOUS
10
0.89499
20
-1.55919
11
0.89378
21
-1.5531
0
LINE
8
BLACK
6
CONTINUOUS
10
0.89378
20
-1.5531
11
0.89378
21
-1.5469
0
LINE
8
BLACK
6
CONTINUOUS
10
0.89378
20
-1.5469
11
0.89499
21
-1.54081
0
LINE
8
BLACK
6
CONTINUOUS
10
0.89499
20
-1.54081
11
0.897364
21
-1.53508
0
LINE
8
BLACK
6
CONTINUOUS
10
0.897364
20
-1.53508
11
0.900811
21
-1.52992
0
LINE
8
BLACK
6
CONTINUOUS
10
0.900811
20
-1.52992
11
0.905198
21
-1.52554
0
LINE
8
BLACK
6
CONTINUOUS
10
0.905198
20
-1.52554
11
0.910357
21
-1.52209
0
LINE
8
BLACK
6
CONTINUOUS
10
0.910357
20
-1.52209
11
0.916089
21
-1.51971
0
LINE
8
BLACK
6
CONTINUOUS
10
0.916089
20
-1.51971
11
0.922174
21
-1.5185
0
LINE
8
BLACK
6
CONTINUOUS
10
0.922174
20
-1.5185
11
0.928378
21
-1.5185
0
LINE
8
BLACK
6
CONTINUOUS
10
0.928378
20
-1.5185
11
0.934463
21
-1.51971
0
LINE
8
BLACK
6
CONTINUOUS
10
0.343911
20
-1.51971
11
0.349643
21
-1.52209
0
LINE
8
BLACK
6
CONTINUOUS
10
0.349643
20
-1.52209
11
0.354802
21
-1.52554
0
LINE
8
BLACK
6
CONTINUOUS
10
0.354802
20
-1.52554
11
0.359189
21
-1.52992
0
LINE
8
BLACK
6
CONTINUOUS
10
0.359189
20
-1.52992
11
0.362636
21
-1.53508
0
LINE
8
BLACK
6
CONTINUOUS
10
0.362636
20
-1.53508
11
0.36501
21
-1.54081
0
LINE
8
BLACK
6
CONTINUOUS
10
0.36501
20
-1.54081
11
0.36622
21
-1.5469
0
LINE
8
BLACK
6
CONTINUOUS
10
0.36622
20
-1.5469
11
0.36622
21
-1.5531
0
LINE
8
BLACK
6
CONTINUOUS
10
0.36622
20
-1.5531
11
0.36501
21
-1.55919
0
LINE
8
BLACK
6
CONTINUOUS
10
0.36501
20
-1.55919
11
0.362636
21
-1.56492
0
LINE
8
BLACK
6
CONTINUOUS
10
0.362636
20
-1.56492
11
0.359189
21
-1.57008
0
LINE
8
BLACK
6
CONTINUOUS
10
0.359189
20
-1.57008
11
0.354802
21
-1.57446
0
LINE
8
BLACK
6
CONTINUOUS
10
0.354802
20
-1.57446
11
0.349643
21
-1.57791
0
LINE
8
BLACK
6
CONTINUOUS
10
0.349643
20
-1.57791
11
0.343911
21
-1.58029
0
LINE
8
BLACK
6
CONTINUOUS
10
0.343911
20
-1.58029
11
0.337826
21
-1.5815
0
LINE
8
BLACK
6
CONTINUOUS
10
0.337826
20
-1.5815
11
0.331622
21
-1.5815
0
LINE
8
BLACK
6
CONTINUOUS
10
0.331622
20
-1.5815
11
0.325537
21
-1.58029
0
LINE
8
BLACK
6
CONTINUOUS
10
0.325537
20
-1.58029
11
0.319805
21
-1.57791
0
LINE
8
BLACK
6
CONTINUOUS
10
0.319805
20
-1.57791
11
0.314647
21
-1.57446
0
LINE
8
BLACK
6
CONTINUOUS
10
0.314647
20
-1.57446
11
0.31026
21
-1.57008
0
LINE
8
BLACK
6
CONTINUOUS
10
0.31026
20
-1.57008
11
0.306813
21
-1.56492
0
LINE
8
BLACK
6
CONTINUOUS
10
0.306813
20
-1.56492
11
0.304439
21
-1.55919
0
LINE
8
BLACK
6
CONTINUOUS
10
0.304439
20
-1.55919
11
0.303228
21
-1.5531
0
LINE
8
BLACK
6
CONTINUOUS
10
0.303228
20
-1.5531
11
0.303228
21
-1.5469
0
LINE
8
BLACK
6
CONTINUOUS
10
0.303228
20
-1.5469
11
0.304439
21
-1.54081
0
LINE
8
BLACK
6
CONTINUOUS
10
0.304439
20
-1.54081
11
0.306813
21
-1.53508
0
LINE
8
BLACK
6
CONTINUOUS
10
0.306813
20
-1.53508
11
0.31026
21
-1.52992
0
LINE
8
BLACK
6
CONTINUOUS
10
0.31026
20
-1.52992
11
0.314647
21
-1.52554
0
LINE
8
BLACK
6
CONTINUOUS
10
0.314647
20
-1.52554
11
0.319805
21
-1.52209
0
LINE
8
BLACK
6
CONTINUOUS
10
0.319805
20
-1.52209
11
0.325537
21
-1.51971
0
LINE
8
BLACK
6
CONTINUOUS
10
0.325537
20
-1.51971
11
0.331622
21
-1.5185
0
LINE
8
BLACK
6
CONTINUOUS
10
0.331622
20
-1.5185
11
0.337826
21
-1.5185
0
LINE
8
BLACK
6
CONTINUOUS
10
0.337826
20
-1.5185
11
0.343911
21
-1.51971
0
LINE
8
BLACK
6
CONTINUOUS
10
0.143307
20
-1.51331
11
0.0566929
21
-1.51331
0
LINE
8
BLACK
6
CONTINUOUS
10
0.0566929
20
-1.51331
11
0.0566929
21
-1.42669
0
LINE
8
BLACK
6
CONTINUOUS
10
0.0566929
20
-1.42669
11
0.143307
21
-1.42669
0
LINE
8
BLACK
6
CONTINUOUS
10
0.143307
20
-1.42669
11
0.143307
21
-1.51331
0
LINE
8
BLACK
6
CONTINUOUS
10
0.695288
20
-1.30263
11
0.697088
21
-1.30317
0
LINE
8
BLACK
6
CONTINUOUS
10
0.697088
20
-1.30317
11
0.698747
21
-1.30406
0
LINE
8
BLACK
6
CONTINUOUS
10
0.698747
20
-1.30406
11
0.700201
21
-1.30525
0
LINE
8
BLACK
6
CONTINUOUS
10
0.700201
20
-1.30525
11
0.701395
21
-1.30671
0
LINE
8
BLACK
6
CONTINUOUS
10
0.701395
20
-1.30671
11
0.702281
21
-1.30837
0
LINE
8
BLACK
6
CONTINUOUS
10
0.702281
20
-1.30837
11
0.702827
21
-1.31017
0
LINE
8
BLACK
6
CONTINUOUS
10
0.702827
20
-1.31017
11
0.703012
21
-1.31204
0
LINE
8
BLACK
6
CONTINUOUS
10
0.703012
20
-1.31204
11
0.703012
21
-1.34796
0
LINE
8
BLACK
6
CONTINUOUS
10
0.703012
20
-1.34796
11
0.702827
21
-1.34983
0
LINE
8
BLACK
6
CONTINUOUS
10
0.702827
20
-1.34983
11
0.702281
21
-1.35163
0
LINE
8
BLACK
6
CONTINUOUS
10
0.702281
20
-1.35163
11
0.701395
21
-1.35329
0
LINE
8
BLACK
6
CONTINUOUS
10
0.701395
20
-1.35329
11
0.700201
21
-1.35475
0
LINE
8
BLACK
6
CONTINUOUS
10
0.700201
20
-1.35475
11
0.698747
21
-1.35594
0
LINE
8
BLACK
6
CONTINUOUS
10
0.698747
20
-1.35594
11
0.697088
21
-1.35683
0
LINE
8
BLACK
6
CONTINUOUS
10
0.697088
20
-1.35683
11
0.695288
21
-1.35737
0
LINE
8
BLACK
6
CONTINUOUS
10
0.695288
20
-1.35737
11
0.693415
21
-1.35756
0
LINE
8
BLACK
6
CONTINUOUS
10
0.693415
20
-1.35756
11
0.674222
21
-1.35756
0
LINE
8
BLACK
6
CONTINUOUS
10
0.674222
20
-1.35756
11
0.67235
21
-1.35737
0
LINE
8
BLACK
6
CONTINUOUS
10
0.67235
20
-1.35737
11
0.67055
21
-1.35683
0
LINE
8
BLACK
6
CONTINUOUS
10
0.67055
20
-1.35683
11
0.668891
21
-1.35594
0
LINE
8
BLACK
6
CONTINUOUS
10
0.668891
20
-1.35594
11
0.667437
21
-1.35475
0
LINE
8
BLACK
6
CONTINUOUS
10
0.667437
20
-1.35475
11
0.666243
21
-1.35329
0
LINE
8
BLACK
6
CONTINUOUS
10
0.666243
20
-1.35329
11
0.665356
21
-1.35163
0
LINE
8
BLACK
6
CONTINUOUS
10
0.665356
20
-1.35163
11
0.66481
21
-1.34983
0
LINE
8
BLACK
6
CONTINUOUS
10
0.66481
20
-1.34983
11
0.664626
21
-1.34796
0
LINE
8
BLACK
6
CONTINUOUS
10
0.664626
20
-1.34796
11
0.664626
21
-1.31204
0
LINE
8
BLACK
6
CONTINUOUS
10
0.664626
20
-1.31204
11
0.66481
21
-1.31017
0
LINE
8
BLACK
6
CONTINUOUS
10
0.66481
20
-1.31017
11
0.665356
21
-1.30837
0
LINE
8
BLACK
6
CONTINUOUS
10
0.665356
20
-1.30837
11
0.666243
21
-1.30671
0
LINE
8
BLACK
6
CONTINUOUS
10
0.666243
20
-1.30671
11
0.667437
21
-1.30525
0
LINE
8
BLACK
6
CONTINUOUS
10
0.667437
20
-1.30525
11
0.668891
21
-1.30406
0
LINE
8
BLACK
6
CONTINUOUS
10
0.668891
20
-1.30406
11
0.67055
21
-1.30317
0
LINE
8
BLACK
6
CONTINUOUS
10
0.67055
20
-1.30317
11
0.67235
21
-1.30263
0
LINE
8
BLACK
6
CONTINUOUS
10
0.67235
20
-1.30263
11
0.674222
21
-1.30244
0
LINE
8
BLACK
6
CONTINUOUS
10
0.674222
20
-1.30244
11
0.693415
21
-1.30244
0
LINE
8
BLACK
6
CONTINUOUS
10
0.693415
20
-1.30244
11
0.695288
21
-1.30263
0
LINE
8
BLACK
6
CONTINUOUS
10
0.621469
20
-1.30263
11
0.623269
21
-1.30317
0
LINE
8
BLACK
6
CONTINUOUS
10
0.623269
20
-1.30317
11
0.624928
21
-1.30406
0
LINE
8
BLACK
6
CONTINUOUS
10
0.624928
20
-1.30406
11
0.626382
21
-1.30525
0
LINE
8
BLACK
6
CONTINUOUS
10
0.626382
20
-1.30525
11
0.627576
21
-1.30671
0
LINE
8
BLACK
6
CONTINUOUS
10
0.627576
20
-1.30671
11
0.628462
21
-1.30837
0
LINE
8
BLACK
6
CONTINUOUS
10
0.628462
20
-1.30837
11
0.629009
21
-1.31017
0
LINE
8
BLACK
6
CONTINUOUS
10
0.629009
20
-1.31017
11
0.629193
21
-1.31204
0
LINE
8
BLACK
6
CONTINUOUS
10
0.629193
20
-1.31204
11
0.629193
21
-1.34796
0
LINE
8
BLACK
6
CONTINUOUS
10
0.629193
20
-1.34796
11
0.629009
21
-1.34983
0
LINE
8
BLACK
6
CONTINUOUS
10
0.629009
20
-1.34983
11
0.628462
21
-1.35163
0
LINE
8
BLACK
6
CONTINUOUS
10
0.628462
20
-1.35163
11
0.627576
21
-1.35329
0
LINE
8
BLACK
6
CONTINUOUS
10
0.627576
20
-1.35329
11
0.626382
21
-1.35475
0
LINE
8
BLACK
6
CONTINUOUS
10
0.626382
20
-1.35475
11
0.624928
21
-1.35594
0
LINE
8
BLACK
6
CONTINUOUS
10
0.624928
20
-1.35594
11
0.623269
21
-1.35683
0
LINE
8
BLACK
6
CONTINUOUS
10
0.623269
20
-1.35683
11
0.621469
21
-1.35737
0
LINE
8
BLACK
6
CONTINUOUS
10
0.621469
20
-1.35737
11
0.619596
21
-1.35756
0
LINE
8
BLACK
6
CONTINUOUS
10
0.619596
20
-1.35756
11
0.600404
21
-1.35756
0
LINE
8
BLACK
6
CONTINUOUS
10
0.600404
20
-1.35756
11
0.598531
21
-1.35737
0
LINE
8
BLACK
6
CONTINUOUS
10
0.598531
20
-1.35737
11
0.596731
21
-1.35683
0
LINE
8
BLACK
6
CONTINUOUS
10
0.596731
20
-1.35683
11
0.595072
21
-1.35594
0
LINE
8
BLACK
6
CONTINUOUS
10
0.595072
20
-1.35594
11
0.593618
21
-1.35475
0
LINE
8
BLACK
6
CONTINUOUS
10
0.593618
20
-1.35475
11
0.592424
21
-1.35329
0
LINE
8
BLACK
6
CONTINUOUS
10
0.592424
20
-1.35329
11
0.591538
21
-1.35163
0
LINE
8
BLACK
6
CONTINUOUS
10
0.591538
20
-1.35163
11
0.590991
21
-1.34983
0
LINE
8
BLACK
6
CONTINUOUS
10
0.590991
20
-1.34983
11
0.590807
21
-1.34796
0
LINE
8
BLACK
6
CONTINUOUS
10
0.590807
20
-1.34796
11
0.590807
21
-1.31204
0
LINE
8
BLACK
6
CONTINUOUS
10
0.590807
20
-1.31204
11
0.590991
21
-1.31017
0
LINE
8
BLACK
6
CONTINUOUS
10
0.590991
20
-1.31017
11
0.591538
21
-1.30837
0
LINE
8
BLACK
6
CONTINUOUS
10
0.591538
20
-1.30837
11
0.592424
21
-1.30671
0
LINE
8
BLACK
6
CONTINUOUS
10
0.592424
20
-1.30671
11
0.593618
21
-1.30525
0
LINE
8
BLACK
6
CONTINUOUS
10
0.593618
20
-1.30525
11
0.595072
21
-1.30406
0
LINE
8
BLACK
6
CONTINUOUS
10
0.595072
20
-1.30406
11
0.596731
21
-1.30317
0
LINE
8
BLACK
6
CONTINUOUS
10
0.596731
20
-1.30317
11
0.598531
21
-1.30263
0
LINE
8
BLACK
6
CONTINUOUS
10
0.598531
20
-1.30263
11
0.600404
21
-1.30244
0
LINE
8
BLACK
6
CONTINUOUS
10
0.600404
20
-1.30244
11
0.619596
21
-1.30244
0
LINE
8
BLACK
6
CONTINUOUS
10
0.619596
20
-1.30244
11
0.621469
21
-1.30263
0
LINE
8
BLACK
6
CONTINUOUS
10
0.768346
20
-1.35315
11
0.732913
21
-1.35315
0
LINE
8
BLACK
6
CONTINUOUS
10
0.732913
20
-1.35315
11
0.732913
21
-1.32165
0
LINE
8
BLACK
6
CONTINUOUS
10
0.732913
20
-1.32165
11
0.768346
21
-1.32165
0
LINE
8
BLACK
6
CONTINUOUS
10
0.768346
20
-1.32165
11
0.768346
21
-1.35315
0
LINE
8
BLACK
6
CONTINUOUS
10
0.847087
20
-1.31575
11
0.811654
21
-1.31575
0
LINE
8
BLACK
6
CONTINUOUS
10
0.811654
20
-1.31575
11
0.811654
21
-1.28425
0
LINE
8
BLACK
6
CONTINUOUS
10
0.811654
20
-1.28425
11
0.847087
21
-1.28425
0
LINE
8
BLACK
6
CONTINUOUS
10
0.847087
20
-1.28425
11
0.847087
21
-1.31575
0
LINE
8
BLACK
6
CONTINUOUS
10
0.768346
20
-1.27835
11
0.732913
21
-1.27835
0
LINE
8
BLACK
6
CONTINUOUS
10
0.732913
20
-1.27835
11
0.732913
21
-1.24685
0
LINE
8
BLACK
6
CONTINUOUS
10
0.732913
20
-1.24685
11
0.768346
21
-1.24685
0
LINE
8
BLACK
6
CONTINUOUS
10
0.768346
20
-1.24685
11
0.768346
21
-1.27835
0
LINE
8
BLACK
6
CONTINUOUS
10
0.112632
20
-1.02836
11
0.120514
21
-1.03162
0
LINE
8
BLACK
6
CONTINUOUS
10
0.120514
20
-1.03162
11
0.127607
21
-1.03636
0
LINE
8
BLACK
6
CONTINUOUS
10
0.127607
20
-1.03636
11
0.133639
21
-1.04239
0
LINE
8
BLACK
6
CONTINUOUS
10
0.133639
20
-1.04239
11
0.138378
21
-1.04949
0
LINE
8
BLACK
6
CONTINUOUS
10
0.138378
20
-1.04949
11
0.141643
21
-1.05737
0
LINE
8
BLACK
6
CONTINUOUS
10
0.141643
20
-1.05737
11
0.143307
21
-1.06573
0
LINE
8
BLACK
6
CONTINUOUS
10
0.143307
20
-1.06573
11
0.143307
21
-1.07427
0
LINE
8
BLACK
6
CONTINUOUS
10
0.143307
20
-1.07427
11
0.141643
21
-1.08263
0
LINE
8
BLACK
6
CONTINUOUS
10
0.141643
20
-1.08263
11
0.138378
21
-1.09051
0
LINE
8
BLACK
6
CONTINUOUS
10
0.138378
20
-1.09051
11
0.133639
21
-1.09761
0
LINE
8
BLACK
6
CONTINUOUS
10
0.133639
20
-1.09761
11
0.127607
21
-1.10364
0
LINE
8
BLACK
6
CONTINUOUS
10
0.127607
20
-1.10364
11
0.120514
21
-1.10838
0
LINE
8
BLACK
6
CONTINUOUS
10
0.120514
20
-1.10838
11
0.112632
21
-1.11164
0
LINE
8
BLACK
6
CONTINUOUS
10
0.112632
20
-1.11164
11
0.104265
21
-1.11331
0
LINE
8
BLACK
6
CONTINUOUS
10
0.104265
20
-1.11331
11
0.0957346
21
-1.11331
0
LINE
8
BLACK
6
CONTINUOUS
10
0.0957346
20
-1.11331
11
0.0873678
21
-1.11164
0
LINE
8
BLACK
6
CONTINUOUS
10
0.0873678
20
-1.11164
11
0.0794864
21
-1.10838
0
LINE
8
BLACK
6
CONTINUOUS
10
0.0794864
20
-1.10838
11
0.0723933
21
-1.10364
0
LINE
8
BLACK
6
CONTINUOUS
10
0.0723933
20
-1.10364
11
0.0663612
21
-1.09761
0
LINE
8
BLACK
6
CONTINUOUS
10
0.0663612
20
-1.09761
11
0.0616218
21
-1.09051
0
LINE
8
BLACK
6
CONTINUOUS
10
0.0616218
20
-1.09051
11
0.0583572
21
-1.08263
0
LINE
8
BLACK
6
CONTINUOUS
10
0.0583572
20
-1.08263
11
0.0566929
21
-1.07427
0
LINE
8
BLACK
6
CONTINUOUS
10
0.0566929
20
-1.07427
11
0.0566929
21
-1.06573
0
LINE
8
BLACK
6
CONTINUOUS
10
0.0566929
20
-1.06573
11
0.0583572
21
-1.05737
0
LINE
8
BLACK
6
CONTINUOUS
10
0.0583572
20
-1.05737
11
0.0616218
21
-1.04949
0
LINE
8
BLACK
6
CONTINUOUS
10
0.0616218
20
-1.04949
11
0.0663612
21
-1.04239
0
LINE
8
BLACK
6
CONTINUOUS
10
0.0663612
20
-1.04239
11
0.0723933
21
-1.03636
0
LINE
8
BLACK
6
CONTINUOUS
10
0.0723933
20
-1.03636
11
0.0794864
21
-1.03162
0
LINE
8
BLACK
6
CONTINUOUS
10
0.0794864
20
-1.03162
11
0.0873678
21
-1.02836
0
LINE
8
BLACK
6
CONTINUOUS
10
0.0873678
20
-1.02836
11
0.0957346
21
-1.02669
0
LINE
8
BLACK
6
CONTINUOUS
10
0.0957346
20
-1.02669
11
0.104265
21
-1.02669
0
LINE
8
BLACK
6
CONTINUOUS
10
0.104265
20
-1.02669
11
0.112632
21
-1.02836
0
LINE
8
BLACK
6
CONTINUOUS
10
1.54346
20
-0.453465
11
1.47654
21
-0.453465
0
LINE
8
BLACK
6
CONTINUOUS
10
1.47654
20
-0.453465
11
1.47654
21
-0.386535
0
LINE
8
BLACK
6
CONTINUOUS
10
1.47654
20
-0.386535
11
1.54346
21
-0.386535
0
LINE
8
BLACK
6
CONTINUOUS
10
1.54346
20
-0.386535
11
1.54346
21
-0.453465
0
LINE
8
BLACK
6
CONTINUOUS
10
1.41976
20
-0.387821
11
1.42585
21
-0.390344
0
LINE
8
BLACK
6
CONTINUOUS
10
1.42585
20
-0.390344
11
1.43133
21
-0.394006
0
LINE
8
BLACK
6
CONTINUOUS
10
1.43133
20
-0.394006
11
1.43599
21
-0.398668
0
LINE
8
BLACK
6
CONTINUOUS
10
1.43599
20
-0.398668
11
1.43966
21
-0.404149
0
LINE
8
BLACK
6
CONTINUOUS
10
1.43966
20
-0.404149
11
1.44218
21
-0.410239
0
LINE
8
BLACK
6
CONTINUOUS
10
1.44218
20
-0.410239
11
1.44346
21
-0.416704
0
LINE
8
BLACK
6
CONTINUOUS
10
1.44346
20
-0.416704
11
1.44346
21
-0.423296
0
LINE
8
BLACK
6
CONTINUOUS
10
1.44346
20
-0.423296
11
1.44218
21
-0.429761
0
LINE
8
BLACK
6
CONTINUOUS
10
1.44218
20
-0.429761
11
1.43966
21
-0.435851
0
LINE
8
BLACK
6
CONTINUOUS
10
1.43966
20
-0.435851
11
1.43599
21
-0.441332
0
LINE
8
BLACK
6
CONTINUOUS
10
1.43599
20
-0.441332
11
1.43133
21
-0.445994
0
LINE
8
BLACK
6
CONTINUOUS
10
1.43133
20
-0.445994
11
1.42585
21
-0.449656
0
LINE
8
BLACK
6
CONTINUOUS
10
1.42585
20
-0.449656
11
1.41976
21
-0.452179
0
LINE
8
BLACK
6
CONTINUOUS
10
1.41976
20
-0.452179
11
1.4133
21
-0.453465
0
LINE
8
BLACK
6
CONTINUOUS
10
1.4133
20
-0.453465
11
1.4067
21
-0.453465
0
LINE
8
BLACK
6
CONTINUOUS
10
1.4067
20
-0.453465
11
1.40024
21
-0.452179
0
LINE
8
BLACK
6
CONTINUOUS
10
1.40024
20
-0.452179
11
1.39415
21
-0.449656
0
LINE
8
BLACK
6
CONTINUOUS
10
1.39415
20
-0.449656
11
1.38867
21
-0.445994
0
LINE
8
BLACK
6
CONTINUOUS
10
1.38867
20
-0.445994
11
1.38401
21
-0.441332
0
LINE
8
BLACK
6
CONTINUOUS
10
1.38401
20
-0.441332
11
1.38034
21
-0.435851
0
LINE
8
BLACK
6
CONTINUOUS
10
1.38034
20
-0.435851
11
1.37782
21
-0.429761
0
LINE
8
BLACK
6
CONTINUOUS
10
1.37782
20
-0.429761
11
1.37654
21
-0.423296
0
LINE
8
BLACK
6
CONTINUOUS
10
1.37654
20
-0.423296
11
1.37654
21
-0.416704
0
LINE
8
BLACK
6
CONTINUOUS
10
1.37654
20
-0.416704
11
1.37782
21
-0.410239
0
LINE
8
BLACK
6
CONTINUOUS
10
1.37782
20
-0.410239
11
1.38034
21
-0.404149
0
LINE
8
BLACK
6
CONTINUOUS
10
1.38034
20
-0.404149
11
1.38401
21
-0.398668
0
LINE
8
BLACK
6
CONTINUOUS
10
1.38401
20
-0.398668
11
1.38867
21
-0.394006
0
LINE
8
BLACK
6
CONTINUOUS
10
1.38867
20
-0.394006
11
1.39415
21
-0.390344
0
LINE
8
BLACK
6
CONTINUOUS
10
1.39415
20
-0.390344
11
1.40024
21
-0.387821
0
LINE
8
BLACK
6
CONTINUOUS
10
1.40024
20
-0.387821
11
1.4067
21
-0.386535
0
LINE
8
BLACK
6
CONTINUOUS
10
1.4067
20
-0.386535
11
1.4133
21
-0.386535
0
LINE
8
BLACK
6
CONTINUOUS
10
1.4133
20
-0.386535
11
1.41976
21
-0.387821
0
LINE
8
BLACK
6
CONTINUOUS
10
1.31976
20
-0.387821
11
1.32585
21
-0.390344
0
LINE
8
BLACK
6
CONTINUOUS
10
1.32585
20
-0.390344
11
1.33133
21
-0.394006
0
LINE
8
BLACK
6
CONTINUOUS
10
1.33133
20
-0.394006
11
1.33599
21
-0.398668
0
LINE
8
BLACK
6
CONTINUOUS
10
1.33599
20
-0.398668
11
1.33966
21
-0.404149
0
LINE
8
BLACK
6
CONTINUOUS
10
1.33966
20
-0.404149
11
1.34218
21
-0.410239
0
LINE
8
BLACK
6
CONTINUOUS
10
1.34218
20
-0.410239
11
1.34346
21
-0.416704
0
LINE
8
BLACK
6
CONTINUOUS
10
1.34346
20
-0.416704
11
1.34346
21
-0.423296
0
LINE
8
BLACK
6
CONTINUOUS
10
1.34346
20
-0.423296
11
1.34218
21
-0.429761
0
LINE
8
BLACK
6
CONTINUOUS
10
1.34218
20
-0.429761
11
1.33966
21
-0.435851
0
LINE
8
BLACK
6
CONTINUOUS
10
1.33966
20
-0.435851
11
1.33599
21
-0.441332
0
LINE
8
BLACK
6
CONTINUOUS
10
1.33599
20
-0.441332
11
1.33133
21
-0.445994
0
LINE
8
BLACK
6
CONTINUOUS
10
1.33133
20
-0.445994
11
1.32585
21
-0.449656
0
LINE
8
BLACK
6
CONTINUOUS
10
1.32585
20
-0.449656
11
1.31976
21
-0.452179
0
LINE
8
BLACK
6
CONTINUOUS
10
1.31976
20
-0.452179
11
1.3133
21
-0.453465
0
LINE
8
BLACK
6
CONTINUOUS
10
1.3133
20
-0.453465
11
1.3067
21
-0.453465
0
LINE
8
BLACK
6
CONTINUOUS
10
1.3067
20
-0.453465
11
1.30024
21
-0.452179
0
LINE
8
BLACK
6
CONTINUOUS
10
1.30024
20
-0.452179
11
1.29415
21
-0.449656
0
LINE
8
BLACK
6
CONTINUOUS
10
1.29415
20
-0.449656
11
1.28867
21
-0.445994
0
LINE
8
BLACK
6
CONTINUOUS
10
1.28867
20
-0.445994
11
1.28401
21
-0.441332
0
LINE
8
BLACK
6
CONTINUOUS
10
1.28401
20
-0.441332
11
1.28034
21
-0.435851
0
LINE
8
BLACK
6
CONTINUOUS
10
1.28034
20
-0.435851
11
1.27782
21
-0.429761
0
LINE
8
BLACK
6
CONTINUOUS
10
1.27782
20
-0.429761
11
1.27654
21
-0.423296
0
LINE
8
BLACK
6
CONTINUOUS
10
1.27654
20
-0.423296
11
1.27654
21
-0.416704
0
LINE
8
BLACK
6
CONTINUOUS
10
1.27654
20
-0.416704
11
1.27782
21
-0.410239
0
LINE
8
BLACK
6
CONTINUOUS
10
1.27782
20
-0.410239
11
1.28034
21
-0.404149
0
LINE
8
BLACK
6
CONTINUOUS
10
1.28034
20
-0.404149
11
1.28401
21
-0.398668
0
LINE
8
BLACK
6
CONTINUOUS
10
1.28401
20
-0.398668
11
1.28867
21
-0.394006
0
LINE
8
BLACK
6
CONTINUOUS
10
1.28867
20
-0.394006
11
1.29415
21
-0.390344
0
LINE
8
BLACK
6
CONTINUOUS
10
1.29415
20
-0.390344
11
1.30024
21
-0.387821
0
LINE
8
BLACK
6
CONTINUOUS
10
1.30024
20
-0.387821
11
1.3067
21
-0.386535
0
LINE
8
BLACK
6
CONTINUOUS
10
1.3067
20
-0.386535
11
1.3133
21
-0.386535
0
LINE
8
BLACK
6
CONTINUOUS
10
1.3133
20
-0.386535
11
1.31976
21
-0.387821
0
LINE
8
BLACK
6
CONTINUOUS
10
1.21976
20
-0.387821
11
1.22585
21
-0.390344
0
LINE
8
BLACK
6
CONTINUOUS
10
1.22585
20
-0.390344
11
1.23133
21
-0.394006
0
LINE
8
BLACK
6
CONTINUOUS
10
1.23133
20
-0.394006
11
1.23599
21
-0.398668
0
LINE
8
BLACK
6
CONTINUOUS
10
1.23599
20
-0.398668
11
1.23966
21
-0.404149
0
LINE
8
BLACK
6
CONTINUOUS
10
1.23966
20
-0.404149
11
1.24218
21
-0.410239
0
LINE
8
BLACK
6
CONTINUOUS
10
1.24218
20
-0.410239
11
1.24346
21
-0.416704
0
LINE
8
BLACK
6
CONTINUOUS
10
1.24346
20
-0.416704
11
1.24346
21
-0.423296
0
LINE
8
BLACK
6
CONTINUOUS
10
1.24346
20
-0.423296
11
1.24218
21
-0.429761
0
LINE
8
BLACK
6
CONTINUOUS
10
1.24218
20
-0.429761
11
1.23966
21
-0.435851
0
LINE
8
BLACK
6
CONTINUOUS
10
1.23966
20
-0.435851
11
1.23599
21
-0.441332
0
LINE
8
BLACK
6
CONTINUOUS
10
1.23599
20
-0.441332
11
1.23133
21
-0.445994
0
LINE
8
BLACK
6
CONTINUOUS
10
1.23133
20
-0.445994
11
1.22585
21
-0.449656
0
LINE
8
BLACK
6
CONTINUOUS
10
1.22585
20
-0.449656
11
1.21976
21
-0.452179
0
LINE
8
BLACK
6
CONTINUOUS
10
1.21976
20
-0.452179
11
1.2133
21
-0.453465
0
LINE
8
BLACK
6
CONTINUOUS
10
1.2133
20
-0.453465
11
1.2067
21
-0.453465
0
LINE
8
BLACK
6
CONTINUOUS
10
1.2067
20
-0.453465
11
1.20024
21
-0.452179
0
LINE
8
BLACK
6
CONTINUOUS
10
1.20024
20
-0.452179
11
1.19415
21
-0.449656
0
LINE
8
BLACK
6
CONTINUOUS
10
1.19415
20
-0.449656
11
1.18867
21
-0.445994
0
LINE
8
BLACK
6
CONTINUOUS
10
1.18867
20
-0.445994
11
1.18401
21
-0.441332
0
LINE
8
BLACK
6
CONTINUOUS
10
1.18401
20
-0.441332
11
1.18034
21
-0.435851
0
LINE
8
BLACK
6
CONTINUOUS
10
1.18034
20
-0.435851
11
1.17782
21
-0.429761
0
LINE
8
BLACK
6
CONTINUOUS
10
1.17782
20
-0.429761
11
1.17654
21
-0.423296
0
LINE
8
BLACK
6
CONTINUOUS
10
1.17654
20
-0.423296
11
1.17654
21
-0.416704
0
LINE
8
BLACK
6
CONTINUOUS
10
1.17654
20
-0.416704
11
1.17782
21
-0.410239
0
LINE
8
BLACK
6
CONTINUOUS
10
1.17782
20
-0.410239
11
1.18034
21
-0.404149
0
LINE
8
BLACK
6
CONTINUOUS
10
1.18034
20
-0.404149
11
1.18401
21
-0.398668
0
LINE
8
BLACK
6
CONTINUOUS
10
1.18401
20
-0.398668
11
1.18867
21
-0.394006
0
LINE
8
BLACK
6
CONTINUOUS
10
1.18867
20
-0.394006
11
1.19415
21
-0.390344
0
LINE
8
BLACK
6
CONTINUOUS
10
1.19415
20
-0.390344
11
1.20024
21
-0.387821
0
LINE
8
BLACK
6
CONTINUOUS
10
1.20024
20
-0.387821
11
1.2067
21
-0.386535
0
LINE
8
BLACK
6
CONTINUOUS
10
1.2067
20
-0.386535
11
1.2133
21
-0.386535
0
LINE
8
BLACK
6
CONTINUOUS
10
1.2133
20
-0.386535
11
1.21976
21
-0.387821
0
LINE
8
BLACK
6
CONTINUOUS
10
1.11976
20
-0.387821
11
1.12585
21
-0.390344
0
LINE
8
BLACK
6
CONTINUOUS
10
1.12585
20
-0.390344
11
1.13133
21
-0.394006
0
LINE
8
BLACK
6
CONTINUOUS
10
1.13133
20
-0.394006
11
1.13599
21
-0.398668
0
LINE
8
BLACK
6
CONTINUOUS
10
1.13599
20
-0.398668
11
1.13966
21
-0.404149
0
LINE
8
BLACK
6
CONTINUOUS
10
1.13966
20
-0.404149
11
1.14218
21
-0.410239
0
LINE
8
BLACK
6
CONTINUOUS
10
1.14218
20
-0.410239
11
1.14346
21
-0.416704
0
LINE
8
BLACK
6
CONTINUOUS
10
1.14346
20
-0.416704
11
1.14346
21
-0.423296
0
LINE
8
BLACK
6
CONTINUOUS
10
1.14346
20
-0.423296
11
1.14218
21
-0.429761
0
LINE
8
BLACK
6
CONTINUOUS
10
1.14218
20
-0.429761
11
1.13966
21
-0.435851
0
LINE
8
BLACK
6
CONTINUOUS
10
1.13966
20
-0.435851
11
1.13599
21
-0.441332
0
LINE
8
BLACK
6
CONTINUOUS
10
1.13599
20
-0.441332
11
1.13133
21
-0.445994
0
LINE
8
BLACK
6
CONTINUOUS
10
1.13133
20
-0.445994
11
1.12585
21
-0.449656
0
LINE
8
BLACK
6
CONTINUOUS
10
1.12585
20
-0.449656
11
1.11976
21
-0.452179
0
LINE
8
BLACK
6
CONTINUOUS
10
1.11976
20
-0.452179
11
1.1133
21
-0.453465
0
LINE
8
BLACK
6
CONTINUOUS
10
1.1133
20
-0.453465
11
1.1067
21
-0.453465
0
LINE
8
BLACK
6
CONTINUOUS
10
1.1067
20
-0.453465
11
1.10024
21
-0.452179
0
LINE
8
BLACK
6
CONTINUOUS
10
1.10024
20
-0.452179
11
1.09415
21
-0.449656
0
LINE
8
BLACK
6
CONTINUOUS
10
1.09415
20
-0.449656
11
1.08867
21
-0.445994
0
LINE
8
BLACK
6
CONTINUOUS
10
1.08867
20
-0.445994
11
1.08401
21
-0.441332
0
LINE
8
BLACK
6
CONTINUOUS
10
1.08401
20
-0.441332
11
1.08034
21
-0.435851
0
LINE
8
BLACK
6
CONTINUOUS
10
1.08034
20
-0.435851
11
1.07782
21
-0.429761
0
LINE
8
BLACK
6
CONTINUOUS
10
1.07782
20
-0.429761
11
1.07654
21
-0.423296
0
LINE
8
BLACK
6
CONTINUOUS
10
1.07654
20
-0.423296
11
1.07654
21
-0.416704
0
LINE
8
BLACK
6
CONTINUOUS
10
1.07654
20
-0.416704
11
1.07782
21
-0.410239
0
LINE
8
BLACK
6
CONTINUOUS
10
1.07782
20
-0.410239
11
1.08034
21
-0.404149
0
LINE
8
BLACK
6
CONTINUOUS
10
1.08034
20
-0.404149
11
1.08401
21
-0.398668
0
LINE
8
BLACK
6
CONTINUOUS
10
1.08401
20
-0.398668
11
1.08867
21
-0.394006
0
LINE
8
BLACK
6
CONTINUOUS
10
1.08867
20
-0.394006
11
1.09415
21
-0.390344
0
LINE
8
BLACK
6
CONTINUOUS
10
1.09415
20
-0.390344
11
1.10024
21
-0.387821
0
LINE
8
BLACK
6
CONTINUOUS
10
1.10024
20
-0.387821
11
1.1067
21
-0.386535
0
LINE
8
BLACK
6
CONTINUOUS
10
1.1067
20
-0.386535
11
1.1133
21
-0.386535
0
LINE
8
BLACK
6
CONTINUOUS
10
1.1133
20
-0.386535
11
1.11976
21
-0.387821
0
LINE
8
BLACK
6
CONTINUOUS
10
1.01976
20
-0.387821
11
1.02585
21
-0.390344
0
LINE
8
BLACK
6
CONTINUOUS
10
1.02585
20
-0.390344
11
1.03133
21
-0.394006
0
LINE
8
BLACK
6
CONTINUOUS
10
1.03133
20
-0.394006
11
1.03599
21
-0.398668
0
LINE
8
BLACK
6
CONTINUOUS
10
1.03599
20
-0.398668
11
1.03966
21
-0.404149
0
LINE
8
BLACK
6
CONTINUOUS
10
1.03966
20
-0.404149
11
1.04218
21
-0.410239
0
LINE
8
BLACK
6
CONTINUOUS
10
1.04218
20
-0.410239
11
1.04346
21
-0.416704
0
LINE
8
BLACK
6
CONTINUOUS
10
1.04346
20
-0.416704
11
1.04346
21
-0.423296
0
LINE
8
BLACK
6
CONTINUOUS
10
1.04346
20
-0.423296
11
1.04218
21
-0.429761
0
LINE
8
BLACK
6
CONTINUOUS
10
1.04218
20
-0.429761
11
1.03966
21
-0.435851
0
LINE
8
BLACK
6
CONTINUOUS
10
1.03966
20
-0.435851
11
1.03599
21
-0.441332
0
LINE
8
BLACK
6
CONTINUOUS
10
1.03599
20
-0.441332
11
1.03133
21
-0.445994
0
LINE
8
BLACK
6
CONTINUOUS
10
1.03133
20
-0.445994
11
1.02585
21
-0.449656
0
LINE
8
BLACK
6
CONTINUOUS
10
1.02585
20
-0.449656
11
1.01976
21
-0.452179
0
LINE
8
BLACK
6
CONTINUOUS
10
1.01976
20
-0.452179
11
1.0133
21
-0.453465
0
LINE
8
BLACK
6
CONTINUOUS
10
1.0133
20
-0.453465
11
1.0067
21
-0.453465
0
LINE
8
BLACK
6
CONTINUOUS
10
1.0067
20
-0.453465
11
1.00024
21
-0.452179
0
LINE
8
BLACK
6
CONTINUOUS
10
1.00024
20
-0.452179
11
0.994149
21
-0.449656
0
LINE
8
BLACK
6
CONTINUOUS
10
0.994149
20
-0.449656
11
0.988668
21
-0.445994
0
LINE
8
BLACK
6
CONTINUOUS
10
0.988668
20
-0.445994
11
0.984006
21
-0.441332
0
LINE
8
BLACK
6
CONTINUOUS
10
0.984006
20
-0.441332
11
0.980344
21
-0.435851
0
LINE
8
BLACK
6
CONTINUOUS
10
0.980344
20
-0.435851
11
0.977821
21
-0.429761
0
LINE
8
BLACK
6
CONTINUOUS
10
0.977821
20
-0.429761
11
0.976535
21
-0.423296
0
LINE
8
BLACK
6
CONTINUOUS
10
0.976535
20
-0.423296
11
0.976535
21
-0.416704
0
LINE
8
BLACK
6
CONTINUOUS
10
0.976535
20
-0.416704
11
0.977821
21
-0.410239
0
LINE
8
BLACK
6
CONTINUOUS
10
0.977821
20
-0.410239
11
0.980344
21
-0.404149
0
LINE
8
BLACK
6
CONTINUOUS
10
0.980344
20
-0.404149
11
0.984006
21
-0.398668
0
LINE
8
BLACK
6
CONTINUOUS
10
0.984006
20
-0.398668
11
0.988668
21
-0.394006
0
LINE
8
BLACK
6
CONTINUOUS
10
0.988668
20
-0.394006
11
0.994149
21
-0.390344
0
LINE
8
BLACK
6
CONTINUOUS
10
0.994149
20
-0.390344
11
1.00024
21
-0.387821
0
LINE
8
BLACK
6
CONTINUOUS
10
1.00024
20
-0.387821
11
1.0067
21
-0.386535
0
LINE
8
BLACK
6
CONTINUOUS
10
1.0067
20
-0.386535
11
1.0133
21
-0.386535
0
LINE
8
BLACK
6
CONTINUOUS
10
1.0133
20
-0.386535
11
1.01976
21
-0.387821
0
LINE
8
BLACK
6
CONTINUOUS
10
0.919761
20
-0.387821
11
0.925851
21
-0.390344
0
LINE
8
BLACK
6
CONTINUOUS
10
0.925851
20
-0.390344
11
0.931332
21
-0.394006
0
LINE
8
BLACK
6
CONTINUOUS
10
0.931332
20
-0.394006
11
0.935994
21
-0.398668
0
LINE
8
BLACK
6
CONTINUOUS
10
0.935994
20
-0.398668
11
0.939656
21
-0.404149
0
LINE
8
BLACK
6
CONTINUOUS
10
0.939656
20
-0.404149
11
0.942179
21
-0.410239
0
LINE
8
BLACK
6
CONTINUOUS
10
0.942179
20
-0.410239
11
0.943465
21
-0.416704
0
LINE
8
BLACK
6
CONTINUOUS
10
0.943465
20
-0.416704
11
0.943465
21
-0.423296
0
LINE
8
BLACK
6
CONTINUOUS
10
0.943465
20
-0.423296
11
0.942179
21
-0.429761
0
LINE
8
BLACK
6
CONTINUOUS
10
0.942179
20
-0.429761
11
0.939656
21
-0.435851
0
LINE
8
BLACK
6
CONTINUOUS
10
0.939656
20
-0.435851
11
0.935994
21
-0.441332
0
LINE
8
BLACK
6
CONTINUOUS
10
0.935994
20
-0.441332
11
0.931332
21
-0.445994
0
LINE
8
BLACK
6
CONTINUOUS
10
0.931332
20
-0.445994
11
0.925851
21
-0.449656
0
LINE
8
BLACK
6
CONTINUOUS
10
0.925851
20
-0.449656
11
0.919761
21
-0.452179
0
LINE
8
BLACK
6
CONTINUOUS
10
0.919761
20
-0.452179
11
0.913296
21
-0.453465
0
LINE
8
BLACK
6
CONTINUOUS
10
0.913296
20
-0.453465
11
0.906704
21
-0.453465
0
LINE
8
BLACK
6
CONTINUOUS
10
0.906704
20
-0.453465
11
0.900239
21
-0.452179
0
LINE
8
BLACK
6
CONTINUOUS
10
0.900239
20
-0.452179
11
0.894149
21
-0.449656
0
LINE
8
BLACK
6
CONTINUOUS
10
0.894149
20
-0.449656
11
0.888668
21
-0.445994
0
LINE
8
BLACK
6
CONTINUOUS
10
0.888668
20
-0.445994
11
0.884006
21
-0.441332
0
LINE
8
BLACK
6
CONTINUOUS
10
0.884006
20
-0.441332
11
0.880344
21
-0.435851
0
LINE
8
BLACK
6
CONTINUOUS
10
0.880344
20
-0.435851
11
0.877821
21
-0.429761
0
LINE
8
BLACK
6
CONTINUOUS
10
0.877821
20
-0.429761
11
0.876535
21
-0.423296
0
LINE
8
BLACK
6
CONTINUOUS
10
0.876535
20
-0.423296
11
0.876535
21
-0.416704
0
LINE
8
BLACK
6
CONTINUOUS
10
0.876535
20
-0.416704
11
0.877821
21
-0.410239
0
LINE
8
BLACK
6
CONTINUOUS
10
0.877821
20
-0.410239
11
0.880344
21
-0.404149
0
LINE
8
BLACK
6
CONTINUOUS
10
0.880344
20
-0.404149
11
0.884006
21
-0.398668
0
LINE
8
BLACK
6
CONTINUOUS
10
0.884006
20
-0.398668
11
0.888668
21
-0.394006
0
LINE
8
BLACK
6
CONTINUOUS
10
0.888668
20
-0.394006
11
0.894149
21
-0.390344
0
LINE
8
BLACK
6
CONTINUOUS
10
0.894149
20
-0.390344
11
0.900239
21
-0.387821
0
LINE
8
BLACK
6
CONTINUOUS
10
0.900239
20
-0.387821
11
0.906704
21
-0.386535
0
LINE
8
BLACK
6
CONTINUOUS
10
0.906704
20
-0.386535
11
0.913296
21
-0.386535
0
LINE
8
BLACK
6
CONTINUOUS
10
0.913296
20
-0.386535
11
0.919761
21
-0.387821
0
LINE
8
BLACK
6
CONTINUOUS
10
0.819761
20
-0.387821
11
0.825851
21
-0.390344
0
LINE
8
BLACK
6
CONTINUOUS
10
0.825851
20
-0.390344
11
0.831332
21
-0.394006
0
LINE
8
BLACK
6
CONTINUOUS
10
0.831332
20
-0.394006
11
0.835994
21
-0.398668
0
LINE
8
BLACK
6
CONTINUOUS
10
0.835994
20
-0.398668
11
0.839656
21
-0.404149
0
LINE
8
BLACK
6
CONTINUOUS
10
0.839656
20
-0.404149
11
0.842179
21
-0.410239
0
LINE
8
BLACK
6
CONTINUOUS
10
0.842179
20
-0.410239
11
0.843465
21
-0.416704
0
LINE
8
BLACK
6
CONTINUOUS
10
0.843465
20
-0.416704
11
0.843465
21
-0.423296
0
LINE
8
BLACK
6
CONTINUOUS
10
0.843465
20
-0.423296
11
0.842179
21
-0.429761
0
LINE
8
BLACK
6
CONTINUOUS
10
0.842179
20
-0.429761
11
0.839656
21
-0.435851
0
LINE
8
BLACK
6
CONTINUOUS
10
0.839656
20
-0.435851
11
0.835994
21
-0.441332
0
LINE
8
BLACK
6
CONTINUOUS
10
0.835994
20
-0.441332
11
0.831332
21
-0.445994
0
LINE
8
BLACK
6
CONTINUOUS
10
0.831332
20
-0.445994
11
0.825851
21
-0.449656
0
LINE
8
BLACK
6
CONTINUOUS
10
0.825851
20
-0.449656
11
0.819761
21
-0.452179
0
LINE
8
BLACK
6
CONTINUOUS
10
0.819761
20
-0.452179
11
0.813296
21
-0.453465
0
LINE
8
BLACK
6
CONTINUOUS
10
0.813296
20
-0.453465
11
0.806704
21
-0.453465
0
LINE
8
BLACK
6
CONTINUOUS
10
0.806704
20
-0.453465
11
0.800239
21
-0.452179
0
LINE
8
BLACK
6
CONTINUOUS
10
0.800239
20
-0.452179
11
0.794149
21
-0.449656
0
LINE
8
BLACK
6
CONTINUOUS
10
0.794149
20
-0.449656
11
0.788668
21
-0.445994
0
LINE
8
BLACK
6
CONTINUOUS
10
0.788668
20
-0.445994
11
0.784006
21
-0.441332
0
LINE
8
BLACK
6
CONTINUOUS
10
0.784006
20
-0.441332
11
0.780344
21
-0.435851
0
LINE
8
BLACK
6
CONTINUOUS
10
0.780344
20
-0.435851
11
0.777821
21
-0.429761
0
LINE
8
BLACK
6
CONTINUOUS
10
0.777821
20
-0.429761
11
0.776535
21
-0.423296
0
LINE
8
BLACK
6
CONTINUOUS
10
0.776535
20
-0.423296
11
0.776535
21
-0.416704
0
LINE
8
BLACK
6
CONTINUOUS
10
0.776535
20
-0.416704
11
0.777821
21
-0.410239
0
LINE
8
BLACK
6
CONTINUOUS
10
0.777821
20
-0.410239
11
0.780344
21
-0.404149
0
LINE
8
BLACK
6
CONTINUOUS
10
0.780344
20
-0.404149
11
0.784006
21
-0.398668
0
LINE
8
BLACK
6
CONTINUOUS
10
0.784006
20
-0.398668
11
0.788668
21
-0.394006
0
LINE
8
BLACK
6
CONTINUOUS
10
0.788668
20
-0.394006
11
0.794149
21
-0.390344
0
LINE
8
BLACK
6
CONTINUOUS
10
0.794149
20
-0.390344
11
0.800239
21
-0.387821
0
LINE
8
BLACK
6
CONTINUOUS
10
0.800239
20
-0.387821
11
0.806704
21
-0.386535
0
LINE
8
BLACK
6
CONTINUOUS
10
0.806704
20
-0.386535
11
0.813296
21
-0.386535
0
LINE
8
BLACK
6
CONTINUOUS
10
0.813296
20
-0.386535
11
0.819761
21
-0.387821
0
LINE
8
BLACK
6
CONTINUOUS
10
0.719761
20
-0.387821
11
0.725851
21
-0.390344
0
LINE
8
BLACK
6
CONTINUOUS
10
0.725851
20
-0.390344
11
0.731332
21
-0.394006
0
LINE
8
BLACK
6
CONTINUOUS
10
0.731332
20
-0.394006
11
0.735994
21
-0.398668
0
LINE
8
BLACK
6
CONTINUOUS
10
0.735994
20
-0.398668
11
0.739656
21
-0.404149
0
LINE
8
BLACK
6
CONTINUOUS
10
0.739656
20
-0.404149
11
0.742179
21
-0.410239
0
LINE
8
BLACK
6
CONTINUOUS
10
0.742179
20
-0.410239
11
0.743465
21
-0.416704
0
LINE
8
BLACK
6
CONTINUOUS
10
0.743465
20
-0.416704
11
0.743465
21
-0.423296
0
LINE
8
BLACK
6
CONTINUOUS
10
0.743465
20
-0.423296
11
0.742179
21
-0.429761
0
LINE
8
BLACK
6
CONTINUOUS
10
0.742179
20
-0.429761
11
0.739656
21
-0.435851
0
LINE
8
BLACK
6
CONTINUOUS
10
0.739656
20
-0.435851
11
0.735994
21
-0.441332
0
LINE
8
BLACK
6
CONTINUOUS
10
0.735994
20
-0.441332
11
0.731332
21
-0.445994
0
LINE
8
BLACK
6
CONTINUOUS
10
0.731332
20
-0.445994
11
0.725851
21
-0.449656
0
LINE
8
BLACK
6
CONTINUOUS
10
0.725851
20
-0.449656
11
0.719761
21
-0.452179
0
LINE
8
BLACK
6
CONTINUOUS
10
0.719761
20
-0.452179
11
0.713296
21
-0.453465
0
LINE
8
BLACK
6
CONTINUOUS
10
0.713296
20
-0.453465
11
0.706704
21
-0.453465
0
LINE
8
BLACK
6
CONTINUOUS
10
0.706704
20
-0.453465
11
0.700239
21
-0.452179
0
LINE
8
BLACK
6
CONTINUOUS
10
0.700239
20
-0.452179
11
0.694149
21
-0.449656
0
LINE
8
BLACK
6
CONTINUOUS
10
0.694149
20
-0.449656
11
0.688668
21
-0.445994
0
LINE
8
BLACK
6
CONTINUOUS
10
0.688668
20
-0.445994
11
0.684006
21
-0.441332
0
LINE
8
BLACK
6
CONTINUOUS
10
0.684006
20
-0.441332
11
0.680344
21
-0.435851
0
LINE
8
BLACK
6
CONTINUOUS
10
0.680344
20
-0.435851
11
0.677821
21
-0.429761
0
LINE
8
BLACK
6
CONTINUOUS
10
0.677821
20
-0.429761
11
0.676535
21
-0.423296
0
LINE
8
BLACK
6
CONTINUOUS
10
0.676535
20
-0.423296
11
0.676535
21
-0.416704
0
LINE
8
BLACK
6
CONTINUOUS
10
0.676535
20
-0.416704
11
0.677821
21
-0.410239
0
LINE
8
BLACK
6
CONTINUOUS
10
0.677821
20
-0.410239
11
0.680344
21
-0.404149
0
LINE
8
BLACK
6
CONTINUOUS
10
0.680344
20
-0.404149
11
0.684006
21
-0.398668
0
LINE
8
BLACK
6
CONTINUOUS
10
0.684006
20
-0.398668
11
0.688668
21
-0.394006
0
LINE
8
BLACK
6
CONTINUOUS
10
0.688668
20
-0.394006
11
0.694149
21
-0.390344
0
LINE
8
BLACK
6
CONTINUOUS
10
0.694149
20
-0.390344
11
0.700239
21
-0.387821
0
LINE
8
BLACK
6
CONTINUOUS
10
0.700239
20
-0.387821
11
0.706704
21
-0.386535
0
LINE
8
BLACK
6
CONTINUOUS
10
0.706704
20
-0.386535
11
0.713296
21
-0.386535
0
LINE
8
BLACK
6
CONTINUOUS
10
0.713296
20
-0.386535
11
0.719761
21
-0.387821
0
LINE
8
BLACK
6
CONTINUOUS
10
-0.113539
20
-0.129804
11
-0.0907903
21
-0.139226
0
LINE
8
BLACK
6
CONTINUOUS
10
-0.0907903
20
-0.139226
11
-0.0703172
21
-0.152906
0
LINE
8
BLACK
6
CONTINUOUS
10
-0.0703172
20
-0.152906
11
-0.0529062
21
-0.170317
0
LINE
8
BLACK
6
CONTINUOUS
10
-0.0529062
20
-0.170317
11
-0.0392265
21
-0.19079
0
LINE
8
BLACK
6
CONTINUOUS
10
-0.0392265
20
-0.19079
11
-0.0298037
21
-0.213539
0
LINE
8
BLACK
6
CONTINUOUS
10
-0.0298037
20
-0.213539
11
-0.025
21
-0.237689
0
LINE
8
BLACK
6
CONTINUOUS
10
-0.025
20
-0.237689
11
-0.025
21
-0.262311
0
LINE
8
BLACK
6
CONTINUOUS
10
-0.025
20
-0.262311
11
-0.0298037
21
-0.286461
0
LINE
8
BLACK
6
CONTINUOUS
10
-0.0298037
20
-0.286461
11
-0.0392265
21
-0.30921
0
LINE
8
BLACK
6
CONTINUOUS
10
-0.0392265
20
-0.30921
11
-0.0529062
21
-0.329683
0
LINE
8
BLACK
6
CONTINUOUS
10
-0.0529062
20
-0.329683
11
-0.0703172
21
-0.347094
0
LINE
8
BLACK
6
CONTINUOUS
10
-0.0703172
20
-0.347094
11
-0.0907903
21
-0.360774
0
LINE
8
BLACK
6
CONTINUOUS
10
-0.0907903
20
-0.360774
11
-0.113539
21
-0.370196
0
LINE
8
BLACK
6
CONTINUOUS
10
-0.113539
20
-0.370196
11
-0.137689
21
-0.375
0
LINE
8
BLACK
6
CONTINUOUS
10
-0.137689
20
-0.375
11
-0.162311
21
-0.375
0
LINE
8
BLACK
6
CONTINUOUS
10
-0.162311
20
-0.375
11
-0.186461
21
-0.370196
0
LINE
8
BLACK
6
CONTINUOUS
10
-0.186461
20
-0.370196
11
-0.20921
21
-0.360774
0
LINE
8
BLACK
6
CONTINUOUS
10
-0.20921
20
-0.360774
11
-0.229683
21
-0.347094
0
LINE
8
BLACK
6
CONTINUOUS
10
-0.229683
20
-0.347094
11
-0.247094
21
-0.329683
0
LINE
8
BLACK
6
CONTINUOUS
10
-0.247094
20
-0.329683
11
-0.260774
21
-0.30921
0
LINE
8
BLACK
6
CONTINUOUS
10
-0.260774
20
-0.30921
11
-0.270196
21
-0.286461
0
LINE
8
BLACK
6
CONTINUOUS
10
-0.270196
20
-0.286461
11
-0.275
21
-0.262311
0
LINE
8
BLACK
6
CONTINUOUS
10
-0.275
20
-0.262311
11
-0.275
21
-0.237689
0
LINE
8
BLACK
6
CONTINUOUS
10
-0.275
20
-0.237689
11
-0.270196
21
-0.213539
0
LINE
8
BLACK
6
CONTINUOUS
10
-0.270196
20
-0.213539
11
-0.260774
21
-0.19079
0
LINE
8
BLACK
6
CONTINUOUS
10
-0.260774
20
-0.19079
11
-0.247094
21
-0.170317
0
LINE
8
BLACK
6
CONTINUOUS
10
-0.247094
20
-0.170317
11
-0.229683
21
-0.152906
0
LINE
8
BLACK
6
CONTINUOUS
10
-0.229683
20
-0.152906
11
-0.20921
21
-0.139226
0
LINE
8
BLACK
6
CONTINUOUS
10
-0.20921
20
-0.139226
11
-0.186461
21
-0.129804
0
LINE
8
BLACK
6
CONTINUOUS
10
-0.186461
20
-0.129804
11
-0.162311
21
-0.125
0
LINE
8
BLACK
6
CONTINUOUS
10
-0.162311
20
-0.125
11
-0.137689
21
-0.125
0
LINE
8
BLACK
6
CONTINUOUS
10
-0.137689
20
-0.125
11
-0.113539
21
-0.129804
0
LINE
8
BLACK
6
CONTINUOUS
10
2.53646
20
-0.129804
11
2.55921
21
-0.139226
0
LINE
8
BLACK
6
CONTINUOUS
10
2.55921
20
-0.139226
11
2.57968
21
-0.152906
0
LINE
8
BLACK
6
CONTINUOUS
10
2.57968
20
-0.152906
11
2.59709
21
-0.170317
0
LINE
8
BLACK
6
CONTINUOUS
10
2.59709
20
-0.170317
11
2.61077
21
-0.19079
0
LINE
8
BLACK
6
CONTINUOUS
10
2.61077
20
-0.19079
11
2.6202
21
-0.213539
0
LINE
8
BLACK
6
CONTINUOUS
10
2.6202
20
-0.213539
11
2.625
21
-0.237689
0
LINE
8
BLACK
6
CONTINUOUS
10
2.625
20
-0.237689
11
2.625
21
-0.262311
0
LINE
8
BLACK
6
CONTINUOUS
10
2.625
20
-0.262311
11
2.6202
21
-0.286461
0
LINE
8
BLACK
6
CONTINUOUS
10
2.6202
20
-0.286461
11
2.61077
21
-0.30921
0
LINE
8
BLACK
6
CONTINUOUS
10
2.61077
20
-0.30921
11
2.59709
21
-0.329683
0
LINE
8
BLACK
6
CONTINUOUS
10
2.59709
20
-0.329683
11
2.57968
21
-0.347094
0
LINE
8
BLACK
6
CONTINUOUS
10
2.57968
20
-0.347094
11
2.55921
21
-0.360774
0
LINE
8
BLACK
6
CONTINUOUS
10
2.55921
20
-0.360774
11
2.53646
21
-0.370196
0
LINE
8
BLACK
6
CONTINUOUS
10
2.53646
20
-0.370196
11
2.51231
21
-0.375
0
LINE
8
BLACK
6
CONTINUOUS
10
2.51231
20
-0.375
11
2.48769
21
-0.375
0
LINE
8
BLACK
6
CONTINUOUS
10
2.48769
20
-0.375
11
2.46354
21
-0.370196
0
LINE
8
BLACK
6
CONTINUOUS
10
2.46354
20
-0.370196
11
2.44079
21
-0.360774
0
LINE
8
BLACK
6
CONTINUOUS
10
2.44079
20
-0.360774
11
2.42032
21
-0.347094
0
LINE
8
BLACK
6
CONTINUOUS
10
2.42032
20
-0.347094
11
2.40291
21
-0.329683
0
LINE
8
BLACK
6
CONTINUOUS
10
2.40291
20
-0.329683
11
2.38923
21
-0.30921
0
LINE
8
BLACK
6
CONTINUOUS
10
2.38923
20
-0.30921
11
2.3798
21
-0.286461
0
LINE
8
BLACK
6
CONTINUOUS
10
2.3798
20
-0.286461
11
2.375
21
-0.262311
0
LINE
8
BLACK
6
CONTINUOUS
10
2.375
20
-0.262311
11
2.375
21
-0.237689
0
LINE
8
BLACK
6
CONTINUOUS
10
2.375
20
-0.237689
11
2.3798
21
-0.213539
0
LINE
8
BLACK
6
CONTINUOUS
10
2.3798
20
-0.213539
11
2.38923
21
-0.19079
0
LINE
8
BLACK
6
CONTINUOUS
10
2.38923
20
-0.19079
11
2.40291
21
-0.170317
0
LINE
8
BLACK
6
CONTINUOUS
10
2.40291
20
-0.170317
11
2.42032
21
-0.152906
0
LINE
8
BLACK
6
CONTINUOUS
10
2.42032
20
-0.152906
11
2.44079
21
-0.139226
0
LINE
8
BLACK
6
CONTINUOUS
10
2.44079
20
-0.139226
11
2.46354
21
-0.129804
0
LINE
8
BLACK
6
CONTINUOUS
10
2.46354
20
-0.129804
11
2.48769
21
-0.125
0
LINE
8
BLACK
6
CONTINUOUS
10
2.48769
20
-0.125
11
2.51231
21
-0.125
0
LINE
8
BLACK
6
CONTINUOUS
10
2.51231
20
-0.125
11
2.53646
21
-0.129804
0
LINE
8
BLACK
6
CONTINUOUS
10
1.74036
20
-0.200661
11
1.7422
21
-0.20122
0
LINE
8
BLACK
6
CONTINUOUS
10
1.7422
20
-0.20122
11
1.7439
21
-0.202129
0
LINE
8
BLACK
6
CONTINUOUS
10
1.7439
20
-0.202129
11
1.74539
21
-0.203351
0
LINE
8
BLACK
6
CONTINUOUS
10
1.74539
20
-0.203351
11
1.74661
21
-0.20484
0
LINE
8
BLACK
6
CONTINUOUS
10
1.74661
20
-0.20484
11
1.74752
21
-0.206539
0
LINE
8
BLACK
6
CONTINUOUS
10
1.74752
20
-0.206539
11
1.74808
21
-0.208382
0
LINE
8
BLACK
6
CONTINUOUS
10
1.74808
20
-0.208382
11
1.74827
21
-0.210299
0
LINE
8
BLACK
6
CONTINUOUS
10
1.74827
20
-0.210299
11
1.74827
21
-0.308756
0
LINE
8
BLACK
6
CONTINUOUS
10
1.74827
20
-0.308756
11
1.74808
21
-0.310673
0
LINE
8
BLACK
6
CONTINUOUS
10
1.74808
20
-0.310673
11
1.74752
21
-0.312516
0
LINE
8
BLACK
6
CONTINUOUS
10
1.74752
20
-0.312516
11
1.74661
21
-0.314215
0
LINE
8
BLACK
6
CONTINUOUS
10
1.74661
20
-0.314215
11
1.74539
21
-0.315704
0
LINE
8
BLACK
6
CONTINUOUS
10
1.74539
20
-0.315704
11
1.7439
21
-0.316927
0
LINE
8
BLACK
6
CONTINUOUS
10
1.7439
20
-0.316927
11
1.7422
21
-0.317835
0
LINE
8
BLACK
6
CONTINUOUS
10
1.7422
20
-0.317835
11
1.74036
21
-0.318394
0
LINE
8
BLACK
6
CONTINUOUS
10
1.74036
20
-0.318394
11
1.73844
21
-0.318583
0
LINE
8
BLACK
6
CONTINUOUS
10
1.73844
20
-0.318583
11
1.6951
21
-0.318583
0
LINE
8
BLACK
6
CONTINUOUS
10
1.6951
20
-0.318583
11
1.69319
21
-0.318394
0
LINE
8
BLACK
6
CONTINUOUS
10
1.69319
20
-0.318394
11
1.69134
21
-0.317835
0
LINE
8
BLACK
6
CONTINUOUS
10
1.69134
20
-0.317835
11
1.68964
21
-0.316927
0
LINE
8
BLACK
6
CONTINUOUS
10
1.68964
20
-0.316927
11
1.68815
21
-0.315704
0
LINE
8
BLACK
6
CONTINUOUS
10
1.68815
20
-0.315704
11
1.68693
21
-0.314215
0
LINE
8
BLACK
6
CONTINUOUS
10
1.68693
20
-0.314215
11
1.68602
21
-0.312516
0
LINE
8
BLACK
6
CONTINUOUS
10
1.68602
20
-0.312516
11
1.68546
21
-0.310673
0
LINE
8
BLACK
6
CONTINUOUS
10
1.68546
20
-0.310673
11
1.68528
21
-0.308756
0
LINE
8
BLACK
6
CONTINUOUS
10
1.68528
20
-0.308756
11
1.68528
21
-0.210299
0
LINE
8
BLACK
6
CONTINUOUS
10
1.68528
20
-0.210299
11
1.68546
21
-0.208382
0
LINE
8
BLACK
6
CONTINUOUS
10
1.68546
20
-0.208382
11
1.68602
21
-0.206539
0
LINE
8
BLACK
6
CONTINUOUS
10
1.68602
20
-0.206539
11
1.68693
21
-0.20484
0
LINE
8
BLACK
6
CONTINUOUS
10
1.68693
20
-0.20484
11
1.68815
21
-0.203351
0
LINE
8
BLACK
6
CONTINUOUS
10
1.68815
20
-0.203351
11
1.68964
21
-0.202129
0
LINE
8
BLACK
6
CONTINUOUS
10
1.68964
20
-0.202129
11
1.69134
21
-0.20122
0
LINE
8
BLACK
6
CONTINUOUS
10
1.69134
20
-0.20122
11
1.69319
21
-0.200661
0
LINE
8
BLACK
6
CONTINUOUS
10
1.69319
20
-0.200661
11
1.6951
21
-0.200472
0
LINE
8
BLACK
6
CONTINUOUS
10
1.6951
20
-0.200472
11
1.73844
21
-0.200472
0
LINE
8
BLACK
6
CONTINUOUS
10
1.73844
20
-0.200472
11
1.74036
21
-0.200661
0
LINE
8
BLACK
6
CONTINUOUS
10
2.08681
20
-0.200661
11
2.08866
21
-0.20122
0
LINE
8
BLACK
6
CONTINUOUS
10
2.08866
20
-0.20122
11
2.09036
21
-0.202129
0
LINE
8
BLACK
6
CONTINUOUS
10
2.09036
20
-0.202129
11
2.09185
21
-0.203351
0
LINE
8
BLACK
6
CONTINUOUS
10
2.09185
20
-0.203351
11
2.09307
21
-0.20484
0
LINE
8
BLACK
6
CONTINUOUS
10
2.09307
20
-0.20484
11
2.09398
21
-0.206539
0
LINE
8
BLACK
6
CONTINUOUS
10
2.09398
20
-0.206539
11
2.09454
21
-0.208382
0
LINE
8
BLACK
6
CONTINUOUS
10
2.09454
20
-0.208382
11
2.09472
21
-0.210299
0
LINE
8
BLACK
6
CONTINUOUS
10
2.09472
20
-0.210299
11
2.09472
21
-0.308756
0
LINE
8
BLACK
6
CONTINUOUS
10
2.09472
20
-0.308756
11
2.09454
21
-0.310673
0
LINE
8
BLACK
6
CONTINUOUS
10
2.09454
20
-0.310673
11
2.09398
21
-0.312516
0
LINE
8
BLACK
6
CONTINUOUS
10
2.09398
20
-0.312516
11
2.09307
21
-0.314215
0
LINE
8
BLACK
6
CONTINUOUS
10
2.09307
20
-0.314215
11
2.09185
21
-0.315704
0
LINE
8
BLACK
6
CONTINUOUS
10
2.09185
20
-0.315704
11
2.09036
21
-0.316927
0
LINE
8
BLACK
6
CONTINUOUS
10
2.09036
20
-0.316927
11
2.08866
21
-0.317835
0
LINE
8
BLACK
6
CONTINUOUS
10
2.08866
20
-0.317835
11
2.08681
21
-0.318394
0
LINE
8
BLACK
6
CONTINUOUS
10
2.08681
20
-0.318394
11
2.0849
21
-0.318583
0
LINE
8
BLACK
6
CONTINUOUS
10
2.0849
20
-0.318583
11
2.04156
21
-0.318583
0
LINE
8
BLACK
6
CONTINUOUS
10
2.04156
20
-0.318583
11
2.03964
21
-0.318394
0
LINE
8
BLACK
6
CONTINUOUS
10
2.03964
20
-0.318394
11
2.0378
21
-0.317835
0
LINE
8
BLACK
6
CONTINUOUS
10
2.0378
20
-0.317835
11
2.0361
21
-0.316927
0
LINE
8
BLACK
6
CONTINUOUS
10
2.0361
20
-0.316927
11
2.03461
21
-0.315704
0
LINE
8
BLACK
6
CONTINUOUS
10
2.03461
20
-0.315704
11
2.03339
21
-0.314215
0
LINE
8
BLACK
6
CONTINUOUS
10
2.03339
20
-0.314215
11
2.03248
21
-0.312516
0
LINE
8
BLACK
6
CONTINUOUS
10
2.03248
20
-0.312516
11
2.03192
21
-0.310673
0
LINE
8
BLACK
6
CONTINUOUS
10
2.03192
20
-0.310673
11
2.03173
21
-0.308756
0
LINE
8
BLACK
6
CONTINUOUS
10
2.03173
20
-0.308756
11
2.03173
21
-0.210299
0
LINE
8
BLACK
6
CONTINUOUS
10
2.03173
20
-0.210299
11
2.03192
21
-0.208382
0
LINE
8
BLACK
6
CONTINUOUS
10
2.03192
20
-0.208382
11
2.03248
21
-0.206539
0
LINE
8
BLACK
6
CONTINUOUS
10
2.03248
20
-0.206539
11
2.03339
21
-0.20484
0
LINE
8
BLACK
6
CONTINUOUS
10
2.03339
20
-0.20484
11
2.03461
21
-0.203351
0
LINE
8
BLACK
6
CONTINUOUS
10
2.03461
20
-0.203351
11
2.0361
21
-0.202129
0
LINE
8
BLACK
6
CONTINUOUS
10
2.0361
20
-0.202129
11
2.0378
21
-0.20122
0
LINE
8
BLACK
6
CONTINUOUS
10
2.0378
20
-0.20122
11
2.03964
21
-0.200661
0
LINE
8
BLACK
6
CONTINUOUS
10
2.03964
20
-0.200661
11
2.04156
21
-0.200472
0
LINE
8
BLACK
6
CONTINUOUS
10
2.04156
20
-0.200472
11
2.0849
21
-0.200472
0
LINE
8
BLACK
6
CONTINUOUS
10
2.0849
20
-0.200472
11
2.08681
21
-0.200661
0
LINE
8
BLACK
6
CONTINUOUS
10
0.108898
20
-0.317638
11
0.0459055
21
-0.317638
0
LINE
8
BLACK
6
CONTINUOUS
10
0.0459055
20
-0.317638
11
0.0459055
21
-0.199528
0
LINE
8
BLACK
6
CONTINUOUS
10
0.0459055
20
-0.199528
11
0.108898
21
-0.199528
0
LINE
8
BLACK
6
CONTINUOUS
10
0.108898
20
-0.199528
11
0.108898
21
-0.317638
0
LINE
8
BLACK
6
CONTINUOUS
10
0.534094
20
-0.317638
11
0.471102
21
-0.317638
0
LINE
8
BLACK
6
CONTINUOUS
10
0.471102
20
-0.317638
11
0.471102
21
-0.199528
0
LINE
8
BLACK
6
CONTINUOUS
10
0.471102
20
-0.199528
11
0.534094
21
-0.199528
0
LINE
8
BLACK
6
CONTINUOUS
10
0.534094
20
-0.199528
11
0.534094
21
-0.317638
0
LINE
8
BLACK
6
CONTINUOUS
10
1.82302
20
-0.0628663
11
1.82487
21
-0.0634264
0
LINE
8
BLACK
6
CONTINUOUS
10
1.82487
20
-0.0634264
11
1.82657
21
-0.0643359
0
LINE
8
BLACK
6
CONTINUOUS
10
1.82657
20
-0.0643359
11
1.82806
21
-0.06556
0
LINE
8
BLACK
6
CONTINUOUS
10
1.82806
20
-0.06556
11
1.82929
21
-0.0670515
0
LINE
8
BLACK
6
CONTINUOUS
10
1.82929
20
-0.0670515
11
1.8302
21
-0.0687531
0
LINE
8
BLACK
6
CONTINUOUS
10
1.8302
20
-0.0687531
11
1.83076
21
-0.0705995
0
LINE
8
BLACK
6
CONTINUOUS
10
1.83076
20
-0.0705995
11
1.83094
21
-0.0725197
0
LINE
8
BLACK
6
CONTINUOUS
10
1.83094
20
-0.0725197
11
1.83094
21
-0.26937
0
LINE
8
BLACK
6
CONTINUOUS
10
1.83094
20
-0.26937
11
1.83076
21
-0.27129
0
LINE
8
BLACK
6
CONTINUOUS
10
1.83076
20
-0.27129
11
1.8302
21
-0.273137
0
LINE
8
BLACK
6
CONTINUOUS
10
1.8302
20
-0.273137
11
1.82929
21
-0.274838
0
LINE
8
BLACK
6
CONTINUOUS
10
1.82929
20
-0.274838
11
1.82806
21
-0.27633
0
LINE
8
BLACK
6
CONTINUOUS
10
1.82806
20
-0.27633
11
1.82657
21
-0.277554
0
LINE
8
BLACK
6
CONTINUOUS
10
1.82657
20
-0.277554
11
1.82487
21
-0.278463
0
LINE
8
BLACK
6
CONTINUOUS
10
1.82487
20
-0.278463
11
1.82302
21
-0.279023
0
LINE
8
BLACK
6
CONTINUOUS
10
1.82302
20
-0.279023
11
1.8211
21
-0.279213
0
LINE
8
BLACK
6
CONTINUOUS
10
1.8211
20
-0.279213
11
1.80142
21
-0.279213
0
LINE
8
BLACK
6
CONTINUOUS
10
1.80142
20
-0.279213
11
1.7995
21
-0.279023
0
LINE
8
BLACK
6
CONTINUOUS
10
1.7995
20
-0.279023
11
1.79765
21
-0.278463
0
LINE
8
BLACK
6
CONTINUOUS
10
1.79765
20
-0.278463
11
1.79595
21
-0.277554
0
LINE
8
BLACK
6
CONTINUOUS
10
1.79595
20
-0.277554
11
1.79446
21
-0.27633
0
LINE
8
BLACK
6
CONTINUOUS
10
1.79446
20
-0.27633
11
1.79323
21
-0.274838
0
LINE
8
BLACK
6
CONTINUOUS
10
1.79323
20
-0.274838
11
1.79232
21
-0.273137
0
LINE
8
BLACK
6
CONTINUOUS
10
1.79232
20
-0.273137
11
1.79176
21
-0.27129
0
LINE
8
BLACK
6
CONTINUOUS
10
1.79176
20
-0.27129
11
1.79157
21
-0.26937
0
LINE
8
BLACK
6
CONTINUOUS
10
1.79157
20
-0.26937
11
1.79157
21
-0.0725197
0
LINE
8
BLACK
6
CONTINUOUS
10
1.79157
20
-0.0725197
11
1.79176
21
-0.0705995
0
LINE
8
BLACK
6
CONTINUOUS
10
1.79176
20
-0.0705995
11
1.79232
21
-0.0687531
0
LINE
8
BLACK
6
CONTINUOUS
10
1.79232
20
-0.0687531
11
1.79323
21
-0.0670515
0
LINE
8
BLACK
6
CONTINUOUS
10
1.79323
20
-0.0670515
11
1.79446
21
-0.06556
0
LINE
8
BLACK
6
CONTINUOUS
10
1.79446
20
-0.06556
11
1.79595
21
-0.0643359
0
LINE
8
BLACK
6
CONTINUOUS
10
1.79595
20
-0.0643359
11
1.79765
21
-0.0634264
0
LINE
8
BLACK
6
CONTINUOUS
10
1.79765
20
-0.0634264
11
1.7995
21
-0.0628663
0
LINE
8
BLACK
6
CONTINUOUS
10
1.7995
20
-0.0628663
11
1.80142
21
-0.0626772
0
LINE
8
BLACK
6
CONTINUOUS
10
1.80142
20
-0.0626772
11
1.8211
21
-0.0626772
0
LINE
8
BLACK
6
CONTINUOUS
10
1.8211
20
-0.0626772
11
1.82302
21
-0.0628663
0
LINE
8
BLACK
6
CONTINUOUS
10
1.90176
20
-0.0628663
11
1.90361
21
-0.0634264
0
LINE
8
BLACK
6
CONTINUOUS
10
1.90361
20
-0.0634264
11
1.90531
21
-0.0643359
0
LINE
8
BLACK
6
CONTINUOUS
10
1.90531
20
-0.0643359
11
1.9068
21
-0.06556
0
LINE
8
BLACK
6
CONTINUOUS
10
1.9068
20
-0.06556
11
1.90803
21
-0.0670515
0
LINE
8
BLACK
6
CONTINUOUS
10
1.90803
20
-0.0670515
11
1.90894
21
-0.0687531
0
LINE
8
BLACK
6
CONTINUOUS
10
1.90894
20
-0.0687531
11
1.9095
21
-0.0705995
0
LINE
8
BLACK
6
CONTINUOUS
10
1.9095
20
-0.0705995
11
1.90969
21
-0.0725197
0
LINE
8
BLACK
6
CONTINUOUS
10
1.90969
20
-0.0725197
11
1.90969
21
-0.26937
0
LINE
8
BLACK
6
CONTINUOUS
10
1.90969
20
-0.26937
11
1.9095
21
-0.27129
0
LINE
8
BLACK
6
CONTINUOUS
10
1.9095
20
-0.27129
11
1.90894
21
-0.273137
0
LINE
8
BLACK
6
CONTINUOUS
10
1.90894
20
-0.273137
11
1.90803
21
-0.274838
0
LINE
8
BLACK
6
CONTINUOUS
10
1.90803
20
-0.274838
11
1.9068
21
-0.27633
0
LINE
8
BLACK
6
CONTINUOUS
10
1.9068
20
-0.27633
11
1.90531
21
-0.277554
0
LINE
8
BLACK
6
CONTINUOUS
10
1.90531
20
-0.277554
11
1.90361
21
-0.278463
0
LINE
8
BLACK
6
CONTINUOUS
10
1.90361
20
-0.278463
11
1.90176
21
-0.279023
0
LINE
8
BLACK
6
CONTINUOUS
10
1.90176
20
-0.279023
11
1.89984
21
-0.279213
0
LINE
8
BLACK
6
CONTINUOUS
10
1.89984
20
-0.279213
11
1.88016
21
-0.279213
0
LINE
8
BLACK
6
CONTINUOUS
10
1.88016
20
-0.279213
11
1.87824
21
-0.279023
0
LINE
8
BLACK
6
CONTINUOUS
10
1.87824
20
-0.279023
11
1.87639
21
-0.278463
0
LINE
8
BLACK
6
CONTINUOUS
10
1.87639
20
-0.278463
11
1.87469
21
-0.277554
0
LINE
8
BLACK
6
CONTINUOUS
10
1.87469
20
-0.277554
11
1.8732
21
-0.27633
0
LINE
8
BLACK
6
CONTINUOUS
10
1.8732
20
-0.27633
11
1.87197
21
-0.274838
0
LINE
8
BLACK
6
CONTINUOUS
10
1.87197
20
-0.274838
11
1.87106
21
-0.273137
0
LINE
8
BLACK
6
CONTINUOUS
10
1.87106
20
-0.273137
11
1.8705
21
-0.27129
0
LINE
8
BLACK
6
CONTINUOUS
10
1.8705
20
-0.27129
11
1.87031
21
-0.26937
0
LINE
8
BLACK
6
CONTINUOUS
10
1.87031
20
-0.26937
11
1.87031
21
-0.0725197
0
LINE
8
BLACK
6
CONTINUOUS
10
1.87031
20
-0.0725197
11
1.8705
21
-0.0705995
0
LINE
8
BLACK
6
CONTINUOUS
10
1.8705
20
-0.0705995
11
1.87106
21
-0.0687531
0
LINE
8
BLACK
6
CONTINUOUS
10
1.87106
20
-0.0687531
11
1.87197
21
-0.0670515
0
LINE
8
BLACK
6
CONTINUOUS
10
1.87197
20
-0.0670515
11
1.8732
21
-0.06556
0
LINE
8
BLACK
6
CONTINUOUS
10
1.8732
20
-0.06556
11
1.87469
21
-0.0643359
0
LINE
8
BLACK
6
CONTINUOUS
10
1.87469
20
-0.0643359
11
1.87639
21
-0.0634264
0
LINE
8
BLACK
6
CONTINUOUS
10
1.87639
20
-0.0634264
11
1.87824
21
-0.0628663
0
LINE
8
BLACK
6
CONTINUOUS
10
1.87824
20
-0.0628663
11
1.88016
21
-0.0626772
0
LINE
8
BLACK
6
CONTINUOUS
10
1.88016
20
-0.0626772
11
1.89984
21
-0.0626772
0
LINE
8
BLACK
6
CONTINUOUS
10
1.89984
20
-0.0626772
11
1.90176
21
-0.0628663
0
LINE
8
BLACK
6
CONTINUOUS
10
1.9805
20
-0.0628663
11
1.98235
21
-0.0634264
0
LINE
8
BLACK
6
CONTINUOUS
10
1.98235
20
-0.0634264
11
1.98405
21
-0.0643359
0
LINE
8
BLACK
6
CONTINUOUS
10
1.98405
20
-0.0643359
11
1.98554
21
-0.06556
0
LINE
8
BLACK
6
CONTINUOUS
10
1.98554
20
-0.06556
11
1.98677
21
-0.0670515
0
LINE
8
BLACK
6
CONTINUOUS
10
1.98677
20
-0.0670515
11
1.98768
21
-0.0687531
0
LINE
8
BLACK
6
CONTINUOUS
10
1.98768
20
-0.0687531
11
1.98824
21
-0.0705995
0
LINE
8
BLACK
6
CONTINUOUS
10
1.98824
20
-0.0705995
11
1.98843
21
-0.0725197
0
LINE
8
BLACK
6
CONTINUOUS
10
1.98843
20
-0.0725197
11
1.98843
21
-0.26937
0
LINE
8
BLACK
6
CONTINUOUS
10
1.98843
20
-0.26937
11
1.98824
21
-0.27129
0
LINE
8
BLACK
6
CONTINUOUS
10
1.98824
20
-0.27129
11
1.98768
21
-0.273137
0
LINE
8
BLACK
6
CONTINUOUS
10
1.98768
20
-0.273137
11
1.98677
21
-0.274838
0
LINE
8
BLACK
6
CONTINUOUS
10
1.98677
20
-0.274838
11
1.98554
21
-0.27633
0
LINE
8
BLACK
6
CONTINUOUS
10
1.98554
20
-0.27633
11
1.98405
21
-0.277554
0
LINE
8
BLACK
6
CONTINUOUS
10
1.98405
20
-0.277554
11
1.98235
21
-0.278463
0
LINE
8
BLACK
6
CONTINUOUS
10
1.98235
20
-0.278463
11
1.9805
21
-0.279023
0
LINE
8
BLACK
6
CONTINUOUS
10
1.9805
20
-0.279023
11
1.97858
21
-0.279213
0
LINE
8
BLACK
6
CONTINUOUS
10
1.97858
20
-0.279213
11
1.9589
21
-0.279213
0
LINE
8
BLACK
6
CONTINUOUS
10
1.9589
20
-0.279213
11
1.95698
21
-0.279023
0
LINE
8
BLACK
6
CONTINUOUS
10
1.95698
20
-0.279023
11
1.95513
21
-0.278463
0
LINE
8
BLACK
6
CONTINUOUS
10
1.95513
20
-0.278463
11
1.95343
21
-0.277554
0
LINE
8
BLACK
6
CONTINUOUS
10
1.95343
20
-0.277554
11
1.95194
21
-0.27633
0
LINE
8
BLACK
6
CONTINUOUS
10
1.95194
20
-0.27633
11
1.95071
21
-0.274838
0
LINE
8
BLACK
6
CONTINUOUS
10
1.95071
20
-0.274838
11
1.9498
21
-0.273137
0
LINE
8
BLACK
6
CONTINUOUS
10
1.9498
20
-0.273137
11
1.94924
21
-0.27129
0
LINE
8
BLACK
6
CONTINUOUS
10
1.94924
20
-0.27129
11
1.94906
21
-0.26937
0
LINE
8
BLACK
6
CONTINUOUS
10
1.94906
20
-0.26937
11
1.94906
21
-0.0725197
0
LINE
8
BLACK
6
CONTINUOUS
10
1.94906
20
-0.0725197
11
1.94924
21
-0.0705995
0
LINE
8
BLACK
6
CONTINUOUS
10
1.94924
20
-0.0705995
11
1.9498
21
-0.0687531
0
LINE
8
BLACK
6
CONTINUOUS
10
1.9498
20
-0.0687531
11
1.95071
21
-0.0670515
0
LINE
8
BLACK
6
CONTINUOUS
10
1.95071
20
-0.0670515
11
1.95194
21
-0.06556
0
LINE
8
BLACK
6
CONTINUOUS
10
1.95194
20
-0.06556
11
1.95343
21
-0.0643359
0
LINE
8
BLACK
6
CONTINUOUS
10
1.95343
20
-0.0643359
11
1.95513
21
-0.0634264
0
LINE
8
BLACK
6
CONTINUOUS
10
1.95513
20
-0.0634264
11
1.95698
21
-0.0628663
0
LINE
8
BLACK
6
CONTINUOUS
10
1.95698
20
-0.0628663
11
1.9589
21
-0.0626772
0
LINE
8
BLACK
6
CONTINUOUS
10
1.9589
20
-0.0626772
11
1.97858
21
-0.0626772
0
LINE
8
BLACK
6
CONTINUOUS
10
1.97858
20
-0.0626772
11
1.9805
21
-0.0628663
0
LINE
8
BLACK
6
CONTINUOUS
10
0.349055
20
-0.278268
11
0.309685
21
-0.278268
0
LINE
8
BLACK
6
CONTINUOUS
10
0.309685
20
-0.278268
11
0.309685
21
-0.0617323
0
LINE
8
BLACK
6
CONTINUOUS
10
0.309685
20
-0.0617323
11
0.349055
21
-0.0617323
0
LINE
8
BLACK
6
CONTINUOUS
10
0.349055
20
-0.0617323
11
0.349055
21
-0.278268
0
LINE
8
BLACK
6
CONTINUOUS
10
0.191575
20
-0.278268
11
0.152205
21
-0.278268
0
LINE
8
BLACK
6
CONTINUOUS
10
0.152205
20
-0.278268
11
0.152205
21
-0.0617323
0
LINE
8
BLACK
6
CONTINUOUS
10
0.152205
20
-0.0617323
11
0.191575
21
-0.0617323
0
LINE
8
BLACK
6
CONTINUOUS
10
0.191575
20
-0.0617323
11
0.191575
21
-0.278268
0
LINE
8
BLACK
6
CONTINUOUS
10
0.427795
20
-0.278268
11
0.388425
21
-0.278268
0
LINE
8
BLACK
6
CONTINUOUS
10
0.388425
20
-0.278268
11
0.388425
21
-0.0617323
0
LINE
8
BLACK
6
CONTINUOUS
10
0.388425
20
-0.0617323
11
0.427795
21
-0.0617323
0
LINE
8
BLACK
6
CONTINUOUS
10
0.427795
20
-0.0617323
11
0.427795
21
-0.278268
0
LINE
8
BLACK
6
CONTINUOUS
10
0.270315
20
-0.278268
11
0.230945
21
-0.278268
0
LINE
8
BLACK
6
CONTINUOUS
10
0.230945
20
-0.278268
11
0.230945
21
-0.0617323
0
LINE
8
BLACK
6
CONTINUOUS
10
0.230945
20
-0.0617323
11
0.270315
21
-0.0617323
0
LINE
8
BLACK
6
CONTINUOUS
10
0.270315
20
-0.0617323
11
0.270315
21
-0.278268
  0
ENDSEC
  0
EOF
