M48
; DRILL file {KiCad (5.1.6-0-10_14)} date Wednesday, September 30, 2020 at 10:45:08 PM
; FORMAT={3:3/ absolute / metric / suppress leading zeros}
; #@! TF.CreationDate,2020-09-30T22:45:08-04:00
; #@! TF.GenerationSoftware,Kicad,Pcbnew,(5.1.6-0-10_14)
FMAT,2
METRIC,TZ
T1C0.400
T2C0.650
T3C0.750
T4C1.000
T5C1.100
T6C3.175
T7C1.753
%
G90
G05
T1
X-1834Y-20246
X241Y-17986
X907Y-26482
X4500Y-15500
X5667Y-15321
X6830Y272
X7500Y-14000
X8210Y-12830
X9891Y-2009
X10300Y-26930
X11350Y-21460
X12152Y-16514
X12703Y-40988
X12769Y-1961
X13975Y-2055
X14488Y-46218
X14488Y-48407
X14735Y-43299
X14935Y-22802
X15000Y-37000
X15370Y-2055
X15685Y-13772
X15905Y-27795
X16624Y-2060
X17021Y-24133
X19037Y-2273
X19162Y-3503
X19235Y-13708
X19609Y-42080
X19703Y-36975
X19865Y-45684
X19987Y-23881
X21066Y-38935
X22167Y-24031
X22586Y-13731
X23348Y-21341
X24420Y-41890
X24547Y2474
X25654Y-38974
X25806Y-20616
X26250Y-47500
X26271Y-12730
X26358Y-24572
X26500Y-41250
X26863Y99
X27432Y-31750
X28430Y-19766
X28500Y-39000
X29500Y-31000
X32126Y-11491
X32992Y-28821
X34550Y-13630
X35265Y-44135
X35265Y-48593
X35500Y-23000
X36068Y-26924
X36817Y-38743
X36840Y-11258
X37531Y-13635
X38359Y-26919
X39695Y-48402
X40000Y-10500
X40069Y-38501
X40604Y-28824
X41513Y-8987
X42393Y-42504
X42492Y-38598
X42500Y-25000
X43119Y-13635
X44773Y-38598
X45974Y-28956
X46600Y-4090
X46750Y-24250
X48453Y-13635
X48500Y-27243
X51000Y-24403
X52123Y-49723
X52763Y-48687
X53340Y-28956
X53947Y-13635
X54090Y-9020
X54800Y-1080
X57000Y-7500
X57500Y-21250
X58341Y-54955
X58961Y-32382
X58965Y-28104
X59159Y-13538
X59782Y-11718
X60295Y-43517
X60500Y-13500
X61224Y-39162
X61610Y-6440
X62500Y-16500
X62683Y803
X62860Y-24540
X63000Y-35000
X63760Y-6210
X64750Y-27250
X64980Y-51540
X65410Y-9060
X65750Y-31750
X65750Y-33750
X65830Y-39540
X66500Y-6500
X70500Y-7500
X71250Y-27750
X71500Y-31000
T2
X38650Y-3550
X38650Y-5450
T3
X5360Y-52650
X6630Y-51380
X6630Y-53920
T4
X-6370Y-39370
X130Y-39370
X8502Y-39370
X11102Y-42270
X11102Y-44770
X23502Y-39370
T5
X18542Y-53594
X28702Y-53594
X-9515Y-51746
X645Y-51746
X-8610Y-31250
X1550Y-31250
T6
X-16510Y-50800
X76200Y-1270
X76200Y-50800
X-16510Y-1270
T7
X30216Y-41506
X58207Y-41506
T0
M30
