G04 #@! TF.GenerationSoftware,KiCad,Pcbnew,(5.1.6-0-10_14)*
G04 #@! TF.CreationDate,2020-09-30T22:45:02-04:00*
G04 #@! TF.ProjectId,Pufferfish-Interface-2,50756666-6572-4666-9973-682d496e7465,rev?*
G04 #@! TF.SameCoordinates,Original*
G04 #@! TF.FileFunction,Legend,Bot*
G04 #@! TF.FilePolarity,Positive*
%FSLAX46Y46*%
G04 Gerber Fmt 4.6, Leading zero omitted, Abs format (unit mm)*
G04 Created by KiCad (PCBNEW (5.1.6-0-10_14)) date 2020-09-30 22:45:02*
%MOMM*%
%LPD*%
G01*
G04 APERTURE LIST*
%ADD10C,0.100000*%
%ADD11C,0.150000*%
%ADD12C,0.300000*%
%ADD13C,0.400000*%
%ADD14C,0.120000*%
%ADD15C,0.152400*%
%ADD16C,0.508000*%
%ADD17C,0.127000*%
%ADD18C,0.015000*%
G04 APERTURE END LIST*
D10*
D11*
X177002200Y-166007200D02*
X177002200Y-198007200D01*
X285002200Y-198007200D01*
X285002200Y-166007200D01*
X177002200Y-166007200D01*
D10*
D11*
X10000000Y-10000000D02*
X10000000Y-200007200D01*
X287002200Y-200007200D01*
X287002200Y-10000000D01*
X10000000Y-10000000D01*
D10*
D11*
X12000000Y-12000000D02*
X12000000Y-198007200D01*
X285002200Y-198007200D01*
X285002200Y-12000000D01*
X12000000Y-12000000D01*
D10*
D11*
X60000000Y-12000000D02*
X60000000Y-10000000D01*
D10*
D11*
X110000000Y-12000000D02*
X110000000Y-10000000D01*
D10*
D11*
X160000000Y-12000000D02*
X160000000Y-10000000D01*
D10*
D11*
X210000000Y-12000000D02*
X210000000Y-10000000D01*
D10*
D11*
X260000000Y-12000000D02*
X260000000Y-10000000D01*
D10*
D11*
X36065476Y-11588095D02*
X35322619Y-11588095D01*
X35694047Y-11588095D02*
X35694047Y-10288095D01*
X35570238Y-10473809D01*
X35446428Y-10597619D01*
X35322619Y-10659523D01*
D10*
D11*
X85322619Y-10411904D02*
X85384523Y-10350000D01*
X85508333Y-10288095D01*
X85817857Y-10288095D01*
X85941666Y-10350000D01*
X86003571Y-10411904D01*
X86065476Y-10535714D01*
X86065476Y-10659523D01*
X86003571Y-10845238D01*
X85260714Y-11588095D01*
X86065476Y-11588095D01*
D10*
D11*
X135260714Y-10288095D02*
X136065476Y-10288095D01*
X135632142Y-10783333D01*
X135817857Y-10783333D01*
X135941666Y-10845238D01*
X136003571Y-10907142D01*
X136065476Y-11030952D01*
X136065476Y-11340476D01*
X136003571Y-11464285D01*
X135941666Y-11526190D01*
X135817857Y-11588095D01*
X135446428Y-11588095D01*
X135322619Y-11526190D01*
X135260714Y-11464285D01*
D10*
D11*
X185941666Y-10721428D02*
X185941666Y-11588095D01*
X185632142Y-10226190D02*
X185322619Y-11154761D01*
X186127380Y-11154761D01*
D10*
D11*
X236003571Y-10288095D02*
X235384523Y-10288095D01*
X235322619Y-10907142D01*
X235384523Y-10845238D01*
X235508333Y-10783333D01*
X235817857Y-10783333D01*
X235941666Y-10845238D01*
X236003571Y-10907142D01*
X236065476Y-11030952D01*
X236065476Y-11340476D01*
X236003571Y-11464285D01*
X235941666Y-11526190D01*
X235817857Y-11588095D01*
X235508333Y-11588095D01*
X235384523Y-11526190D01*
X235322619Y-11464285D01*
D10*
D11*
X285941666Y-10288095D02*
X285694047Y-10288095D01*
X285570238Y-10350000D01*
X285508333Y-10411904D01*
X285384523Y-10597619D01*
X285322619Y-10845238D01*
X285322619Y-11340476D01*
X285384523Y-11464285D01*
X285446428Y-11526190D01*
X285570238Y-11588095D01*
X285817857Y-11588095D01*
X285941666Y-11526190D01*
X286003571Y-11464285D01*
X286065476Y-11340476D01*
X286065476Y-11030952D01*
X286003571Y-10907142D01*
X285941666Y-10845238D01*
X285817857Y-10783333D01*
X285570238Y-10783333D01*
X285446428Y-10845238D01*
X285384523Y-10907142D01*
X285322619Y-11030952D01*
D10*
D11*
X60000000Y-198007200D02*
X60000000Y-200007200D01*
D10*
D11*
X110000000Y-198007200D02*
X110000000Y-200007200D01*
D10*
D11*
X160000000Y-198007200D02*
X160000000Y-200007200D01*
D10*
D11*
X210000000Y-198007200D02*
X210000000Y-200007200D01*
D10*
D11*
X260000000Y-198007200D02*
X260000000Y-200007200D01*
D10*
D11*
X36065476Y-199595295D02*
X35322619Y-199595295D01*
X35694047Y-199595295D02*
X35694047Y-198295295D01*
X35570238Y-198481009D01*
X35446428Y-198604819D01*
X35322619Y-198666723D01*
D10*
D11*
X85322619Y-198419104D02*
X85384523Y-198357200D01*
X85508333Y-198295295D01*
X85817857Y-198295295D01*
X85941666Y-198357200D01*
X86003571Y-198419104D01*
X86065476Y-198542914D01*
X86065476Y-198666723D01*
X86003571Y-198852438D01*
X85260714Y-199595295D01*
X86065476Y-199595295D01*
D10*
D11*
X135260714Y-198295295D02*
X136065476Y-198295295D01*
X135632142Y-198790533D01*
X135817857Y-198790533D01*
X135941666Y-198852438D01*
X136003571Y-198914342D01*
X136065476Y-199038152D01*
X136065476Y-199347676D01*
X136003571Y-199471485D01*
X135941666Y-199533390D01*
X135817857Y-199595295D01*
X135446428Y-199595295D01*
X135322619Y-199533390D01*
X135260714Y-199471485D01*
D10*
D11*
X185941666Y-198728628D02*
X185941666Y-199595295D01*
X185632142Y-198233390D02*
X185322619Y-199161961D01*
X186127380Y-199161961D01*
D10*
D11*
X236003571Y-198295295D02*
X235384523Y-198295295D01*
X235322619Y-198914342D01*
X235384523Y-198852438D01*
X235508333Y-198790533D01*
X235817857Y-198790533D01*
X235941666Y-198852438D01*
X236003571Y-198914342D01*
X236065476Y-199038152D01*
X236065476Y-199347676D01*
X236003571Y-199471485D01*
X235941666Y-199533390D01*
X235817857Y-199595295D01*
X235508333Y-199595295D01*
X235384523Y-199533390D01*
X235322619Y-199471485D01*
D10*
D11*
X285941666Y-198295295D02*
X285694047Y-198295295D01*
X285570238Y-198357200D01*
X285508333Y-198419104D01*
X285384523Y-198604819D01*
X285322619Y-198852438D01*
X285322619Y-199347676D01*
X285384523Y-199471485D01*
X285446428Y-199533390D01*
X285570238Y-199595295D01*
X285817857Y-199595295D01*
X285941666Y-199533390D01*
X286003571Y-199471485D01*
X286065476Y-199347676D01*
X286065476Y-199038152D01*
X286003571Y-198914342D01*
X285941666Y-198852438D01*
X285817857Y-198790533D01*
X285570238Y-198790533D01*
X285446428Y-198852438D01*
X285384523Y-198914342D01*
X285322619Y-199038152D01*
D10*
D11*
X10000000Y-60000000D02*
X12000000Y-60000000D01*
D10*
D11*
X10000000Y-110000000D02*
X12000000Y-110000000D01*
D10*
D11*
X10000000Y-160000000D02*
X12000000Y-160000000D01*
D10*
D11*
X10690476Y-35216666D02*
X11309523Y-35216666D01*
X10566666Y-35588095D02*
X11000000Y-34288095D01*
X11433333Y-35588095D01*
D10*
D11*
X11092857Y-84907142D02*
X11278571Y-84969047D01*
X11340476Y-85030952D01*
X11402380Y-85154761D01*
X11402380Y-85340476D01*
X11340476Y-85464285D01*
X11278571Y-85526190D01*
X11154761Y-85588095D01*
X10659523Y-85588095D01*
X10659523Y-84288095D01*
X11092857Y-84288095D01*
X11216666Y-84350000D01*
X11278571Y-84411904D01*
X11340476Y-84535714D01*
X11340476Y-84659523D01*
X11278571Y-84783333D01*
X11216666Y-84845238D01*
X11092857Y-84907142D01*
X10659523Y-84907142D01*
D10*
D11*
X11402380Y-135464285D02*
X11340476Y-135526190D01*
X11154761Y-135588095D01*
X11030952Y-135588095D01*
X10845238Y-135526190D01*
X10721428Y-135402380D01*
X10659523Y-135278571D01*
X10597619Y-135030952D01*
X10597619Y-134845238D01*
X10659523Y-134597619D01*
X10721428Y-134473809D01*
X10845238Y-134350000D01*
X11030952Y-134288095D01*
X11154761Y-134288095D01*
X11340476Y-134350000D01*
X11402380Y-134411904D01*
D10*
D11*
X10659523Y-185588095D02*
X10659523Y-184288095D01*
X10969047Y-184288095D01*
X11154761Y-184350000D01*
X11278571Y-184473809D01*
X11340476Y-184597619D01*
X11402380Y-184845238D01*
X11402380Y-185030952D01*
X11340476Y-185278571D01*
X11278571Y-185402380D01*
X11154761Y-185526190D01*
X10969047Y-185588095D01*
X10659523Y-185588095D01*
D10*
D11*
X287002200Y-60000000D02*
X285002200Y-60000000D01*
D10*
D11*
X287002200Y-110000000D02*
X285002200Y-110000000D01*
D10*
D11*
X287002200Y-160000000D02*
X285002200Y-160000000D01*
D10*
D11*
X285692676Y-35216666D02*
X286311723Y-35216666D01*
X285568866Y-35588095D02*
X286002200Y-34288095D01*
X286435533Y-35588095D01*
D10*
D11*
X286095057Y-84907142D02*
X286280771Y-84969047D01*
X286342676Y-85030952D01*
X286404580Y-85154761D01*
X286404580Y-85340476D01*
X286342676Y-85464285D01*
X286280771Y-85526190D01*
X286156961Y-85588095D01*
X285661723Y-85588095D01*
X285661723Y-84288095D01*
X286095057Y-84288095D01*
X286218866Y-84350000D01*
X286280771Y-84411904D01*
X286342676Y-84535714D01*
X286342676Y-84659523D01*
X286280771Y-84783333D01*
X286218866Y-84845238D01*
X286095057Y-84907142D01*
X285661723Y-84907142D01*
D10*
D11*
X286404580Y-135464285D02*
X286342676Y-135526190D01*
X286156961Y-135588095D01*
X286033152Y-135588095D01*
X285847438Y-135526190D01*
X285723628Y-135402380D01*
X285661723Y-135278571D01*
X285599819Y-135030952D01*
X285599819Y-134845238D01*
X285661723Y-134597619D01*
X285723628Y-134473809D01*
X285847438Y-134350000D01*
X286033152Y-134288095D01*
X286156961Y-134288095D01*
X286342676Y-134350000D01*
X286404580Y-134411904D01*
D10*
D11*
X285661723Y-185588095D02*
X285661723Y-184288095D01*
X285971247Y-184288095D01*
X286156961Y-184350000D01*
X286280771Y-184473809D01*
X286342676Y-184597619D01*
X286404580Y-184845238D01*
X286404580Y-185030952D01*
X286342676Y-185278571D01*
X286280771Y-185402380D01*
X286156961Y-185526190D01*
X285971247Y-185588095D01*
X285661723Y-185588095D01*
D10*
D11*
X200434342Y-193785771D02*
X200434342Y-192285771D01*
X200791485Y-192285771D01*
X201005771Y-192357200D01*
X201148628Y-192500057D01*
X201220057Y-192642914D01*
X201291485Y-192928628D01*
X201291485Y-193142914D01*
X201220057Y-193428628D01*
X201148628Y-193571485D01*
X201005771Y-193714342D01*
X200791485Y-193785771D01*
X200434342Y-193785771D01*
X202577200Y-193785771D02*
X202577200Y-193000057D01*
X202505771Y-192857200D01*
X202362914Y-192785771D01*
X202077200Y-192785771D01*
X201934342Y-192857200D01*
X202577200Y-193714342D02*
X202434342Y-193785771D01*
X202077200Y-193785771D01*
X201934342Y-193714342D01*
X201862914Y-193571485D01*
X201862914Y-193428628D01*
X201934342Y-193285771D01*
X202077200Y-193214342D01*
X202434342Y-193214342D01*
X202577200Y-193142914D01*
X203077200Y-192785771D02*
X203648628Y-192785771D01*
X203291485Y-192285771D02*
X203291485Y-193571485D01*
X203362914Y-193714342D01*
X203505771Y-193785771D01*
X203648628Y-193785771D01*
X204720057Y-193714342D02*
X204577200Y-193785771D01*
X204291485Y-193785771D01*
X204148628Y-193714342D01*
X204077200Y-193571485D01*
X204077200Y-193000057D01*
X204148628Y-192857200D01*
X204291485Y-192785771D01*
X204577200Y-192785771D01*
X204720057Y-192857200D01*
X204791485Y-193000057D01*
X204791485Y-193142914D01*
X204077200Y-193285771D01*
X205434342Y-193642914D02*
X205505771Y-193714342D01*
X205434342Y-193785771D01*
X205362914Y-193714342D01*
X205434342Y-193642914D01*
X205434342Y-193785771D01*
X205434342Y-192857200D02*
X205505771Y-192928628D01*
X205434342Y-193000057D01*
X205362914Y-192928628D01*
X205434342Y-192857200D01*
X205434342Y-193000057D01*
D10*
D11*
X177002200Y-194507200D02*
X285002200Y-194507200D01*
D10*
D11*
X178434342Y-196585771D02*
X178434342Y-195085771D01*
X179291485Y-196585771D02*
X178648628Y-195728628D01*
X179291485Y-195085771D02*
X178434342Y-195942914D01*
X179934342Y-196585771D02*
X179934342Y-195585771D01*
X179934342Y-195085771D02*
X179862914Y-195157200D01*
X179934342Y-195228628D01*
X180005771Y-195157200D01*
X179934342Y-195085771D01*
X179934342Y-195228628D01*
X181505771Y-196442914D02*
X181434342Y-196514342D01*
X181220057Y-196585771D01*
X181077200Y-196585771D01*
X180862914Y-196514342D01*
X180720057Y-196371485D01*
X180648628Y-196228628D01*
X180577200Y-195942914D01*
X180577200Y-195728628D01*
X180648628Y-195442914D01*
X180720057Y-195300057D01*
X180862914Y-195157200D01*
X181077200Y-195085771D01*
X181220057Y-195085771D01*
X181434342Y-195157200D01*
X181505771Y-195228628D01*
X182791485Y-196585771D02*
X182791485Y-195800057D01*
X182720057Y-195657200D01*
X182577200Y-195585771D01*
X182291485Y-195585771D01*
X182148628Y-195657200D01*
X182791485Y-196514342D02*
X182648628Y-196585771D01*
X182291485Y-196585771D01*
X182148628Y-196514342D01*
X182077200Y-196371485D01*
X182077200Y-196228628D01*
X182148628Y-196085771D01*
X182291485Y-196014342D01*
X182648628Y-196014342D01*
X182791485Y-195942914D01*
X184148628Y-196585771D02*
X184148628Y-195085771D01*
X184148628Y-196514342D02*
X184005771Y-196585771D01*
X183720057Y-196585771D01*
X183577200Y-196514342D01*
X183505771Y-196442914D01*
X183434342Y-196300057D01*
X183434342Y-195871485D01*
X183505771Y-195728628D01*
X183577200Y-195657200D01*
X183720057Y-195585771D01*
X184005771Y-195585771D01*
X184148628Y-195657200D01*
X186005771Y-195800057D02*
X186505771Y-195800057D01*
X186720057Y-196585771D02*
X186005771Y-196585771D01*
X186005771Y-195085771D01*
X186720057Y-195085771D01*
X187362914Y-196442914D02*
X187434342Y-196514342D01*
X187362914Y-196585771D01*
X187291485Y-196514342D01*
X187362914Y-196442914D01*
X187362914Y-196585771D01*
X188077200Y-196585771D02*
X188077200Y-195085771D01*
X188434342Y-195085771D01*
X188648628Y-195157200D01*
X188791485Y-195300057D01*
X188862914Y-195442914D01*
X188934342Y-195728628D01*
X188934342Y-195942914D01*
X188862914Y-196228628D01*
X188791485Y-196371485D01*
X188648628Y-196514342D01*
X188434342Y-196585771D01*
X188077200Y-196585771D01*
X189577200Y-196442914D02*
X189648628Y-196514342D01*
X189577200Y-196585771D01*
X189505771Y-196514342D01*
X189577200Y-196442914D01*
X189577200Y-196585771D01*
X190220057Y-196157200D02*
X190934342Y-196157200D01*
X190077200Y-196585771D02*
X190577200Y-195085771D01*
X191077200Y-196585771D01*
X191577200Y-196442914D02*
X191648628Y-196514342D01*
X191577200Y-196585771D01*
X191505771Y-196514342D01*
X191577200Y-196442914D01*
X191577200Y-196585771D01*
X194577200Y-196585771D02*
X194577200Y-195085771D01*
X194720057Y-196014342D02*
X195148628Y-196585771D01*
X195148628Y-195585771D02*
X194577200Y-196157200D01*
X195791485Y-196585771D02*
X195791485Y-195585771D01*
X195791485Y-195085771D02*
X195720057Y-195157200D01*
X195791485Y-195228628D01*
X195862914Y-195157200D01*
X195791485Y-195085771D01*
X195791485Y-195228628D01*
X197148628Y-196514342D02*
X197005771Y-196585771D01*
X196720057Y-196585771D01*
X196577200Y-196514342D01*
X196505771Y-196442914D01*
X196434342Y-196300057D01*
X196434342Y-195871485D01*
X196505771Y-195728628D01*
X196577200Y-195657200D01*
X196720057Y-195585771D01*
X197005771Y-195585771D01*
X197148628Y-195657200D01*
X198434342Y-196585771D02*
X198434342Y-195800057D01*
X198362914Y-195657200D01*
X198220057Y-195585771D01*
X197934342Y-195585771D01*
X197791485Y-195657200D01*
X198434342Y-196514342D02*
X198291485Y-196585771D01*
X197934342Y-196585771D01*
X197791485Y-196514342D01*
X197720057Y-196371485D01*
X197720057Y-196228628D01*
X197791485Y-196085771D01*
X197934342Y-196014342D01*
X198291485Y-196014342D01*
X198434342Y-195942914D01*
X199791485Y-196585771D02*
X199791485Y-195085771D01*
X199791485Y-196514342D02*
X199648628Y-196585771D01*
X199362914Y-196585771D01*
X199220057Y-196514342D01*
X199148628Y-196442914D01*
X199077200Y-196300057D01*
X199077200Y-195871485D01*
X199148628Y-195728628D01*
X199220057Y-195657200D01*
X199362914Y-195585771D01*
X199648628Y-195585771D01*
X199791485Y-195657200D01*
X202077200Y-197157200D02*
X202005771Y-197085771D01*
X201862914Y-196871485D01*
X201791485Y-196728628D01*
X201720057Y-196514342D01*
X201648628Y-196157200D01*
X201648628Y-195871485D01*
X201720057Y-195514342D01*
X201791485Y-195300057D01*
X201862914Y-195157200D01*
X202005771Y-194942914D01*
X202077200Y-194871485D01*
X203362914Y-195085771D02*
X202648628Y-195085771D01*
X202577200Y-195800057D01*
X202648628Y-195728628D01*
X202791485Y-195657200D01*
X203148628Y-195657200D01*
X203291485Y-195728628D01*
X203362914Y-195800057D01*
X203434342Y-195942914D01*
X203434342Y-196300057D01*
X203362914Y-196442914D01*
X203291485Y-196514342D01*
X203148628Y-196585771D01*
X202791485Y-196585771D01*
X202648628Y-196514342D01*
X202577200Y-196442914D01*
X204077200Y-196442914D02*
X204148628Y-196514342D01*
X204077200Y-196585771D01*
X204005771Y-196514342D01*
X204077200Y-196442914D01*
X204077200Y-196585771D01*
X205577200Y-196585771D02*
X204720057Y-196585771D01*
X205148628Y-196585771D02*
X205148628Y-195085771D01*
X205005771Y-195300057D01*
X204862914Y-195442914D01*
X204720057Y-195514342D01*
X206220057Y-196442914D02*
X206291485Y-196514342D01*
X206220057Y-196585771D01*
X206148628Y-196514342D01*
X206220057Y-196442914D01*
X206220057Y-196585771D01*
X207577200Y-195085771D02*
X207291485Y-195085771D01*
X207148628Y-195157200D01*
X207077200Y-195228628D01*
X206934342Y-195442914D01*
X206862914Y-195728628D01*
X206862914Y-196300057D01*
X206934342Y-196442914D01*
X207005771Y-196514342D01*
X207148628Y-196585771D01*
X207434342Y-196585771D01*
X207577200Y-196514342D01*
X207648628Y-196442914D01*
X207720057Y-196300057D01*
X207720057Y-195942914D01*
X207648628Y-195800057D01*
X207577200Y-195728628D01*
X207434342Y-195657200D01*
X207148628Y-195657200D01*
X207005771Y-195728628D01*
X206934342Y-195800057D01*
X206862914Y-195942914D01*
X208362914Y-196014342D02*
X209505771Y-196014342D01*
X210505771Y-195085771D02*
X210648628Y-195085771D01*
X210791485Y-195157200D01*
X210862914Y-195228628D01*
X210934342Y-195371485D01*
X211005771Y-195657200D01*
X211005771Y-196014342D01*
X210934342Y-196300057D01*
X210862914Y-196442914D01*
X210791485Y-196514342D01*
X210648628Y-196585771D01*
X210505771Y-196585771D01*
X210362914Y-196514342D01*
X210291485Y-196442914D01*
X210220057Y-196300057D01*
X210148628Y-196014342D01*
X210148628Y-195657200D01*
X210220057Y-195371485D01*
X210291485Y-195228628D01*
X210362914Y-195157200D01*
X210505771Y-195085771D01*
X211648628Y-196014342D02*
X212791485Y-196014342D01*
X214291485Y-196585771D02*
X213434342Y-196585771D01*
X213862914Y-196585771D02*
X213862914Y-195085771D01*
X213720057Y-195300057D01*
X213577200Y-195442914D01*
X213434342Y-195514342D01*
X215220057Y-195085771D02*
X215362914Y-195085771D01*
X215505771Y-195157200D01*
X215577200Y-195228628D01*
X215648628Y-195371485D01*
X215720057Y-195657200D01*
X215720057Y-196014342D01*
X215648628Y-196300057D01*
X215577200Y-196442914D01*
X215505771Y-196514342D01*
X215362914Y-196585771D01*
X215220057Y-196585771D01*
X215077200Y-196514342D01*
X215005771Y-196442914D01*
X214934342Y-196300057D01*
X214862914Y-196014342D01*
X214862914Y-195657200D01*
X214934342Y-195371485D01*
X215005771Y-195228628D01*
X215077200Y-195157200D01*
X215220057Y-195085771D01*
X216005771Y-196728628D02*
X217148628Y-196728628D01*
X218291485Y-196585771D02*
X217434342Y-196585771D01*
X217862914Y-196585771D02*
X217862914Y-195085771D01*
X217720057Y-195300057D01*
X217577200Y-195442914D01*
X217434342Y-195514342D01*
X219577200Y-195585771D02*
X219577200Y-196585771D01*
X219220057Y-195014342D02*
X218862914Y-196085771D01*
X219791485Y-196085771D01*
X220220057Y-197157200D02*
X220291485Y-197085771D01*
X220434342Y-196871485D01*
X220505771Y-196728628D01*
X220577200Y-196514342D01*
X220648628Y-196157200D01*
X220648628Y-195871485D01*
X220577200Y-195514342D01*
X220505771Y-195300057D01*
X220434342Y-195157200D01*
X220291485Y-194942914D01*
X220220057Y-194871485D01*
D10*
D11*
X177002200Y-191507200D02*
X285002200Y-191507200D01*
D10*
D12*
X264411485Y-193785771D02*
X263911485Y-193071485D01*
X263554342Y-193785771D02*
X263554342Y-192285771D01*
X264125771Y-192285771D01*
X264268628Y-192357200D01*
X264340057Y-192428628D01*
X264411485Y-192571485D01*
X264411485Y-192785771D01*
X264340057Y-192928628D01*
X264268628Y-193000057D01*
X264125771Y-193071485D01*
X263554342Y-193071485D01*
X265625771Y-193714342D02*
X265482914Y-193785771D01*
X265197200Y-193785771D01*
X265054342Y-193714342D01*
X264982914Y-193571485D01*
X264982914Y-193000057D01*
X265054342Y-192857200D01*
X265197200Y-192785771D01*
X265482914Y-192785771D01*
X265625771Y-192857200D01*
X265697200Y-193000057D01*
X265697200Y-193142914D01*
X264982914Y-193285771D01*
X266197200Y-192785771D02*
X266554342Y-193785771D01*
X266911485Y-192785771D01*
X267482914Y-193642914D02*
X267554342Y-193714342D01*
X267482914Y-193785771D01*
X267411485Y-193714342D01*
X267482914Y-193642914D01*
X267482914Y-193785771D01*
X267482914Y-192857200D02*
X267554342Y-192928628D01*
X267482914Y-193000057D01*
X267411485Y-192928628D01*
X267482914Y-192857200D01*
X267482914Y-193000057D01*
D10*
D11*
X178362914Y-193714342D02*
X178577200Y-193785771D01*
X178934342Y-193785771D01*
X179077200Y-193714342D01*
X179148628Y-193642914D01*
X179220057Y-193500057D01*
X179220057Y-193357200D01*
X179148628Y-193214342D01*
X179077200Y-193142914D01*
X178934342Y-193071485D01*
X178648628Y-193000057D01*
X178505771Y-192928628D01*
X178434342Y-192857200D01*
X178362914Y-192714342D01*
X178362914Y-192571485D01*
X178434342Y-192428628D01*
X178505771Y-192357200D01*
X178648628Y-192285771D01*
X179005771Y-192285771D01*
X179220057Y-192357200D01*
X179862914Y-193785771D02*
X179862914Y-192785771D01*
X179862914Y-192285771D02*
X179791485Y-192357200D01*
X179862914Y-192428628D01*
X179934342Y-192357200D01*
X179862914Y-192285771D01*
X179862914Y-192428628D01*
X180434342Y-192785771D02*
X181220057Y-192785771D01*
X180434342Y-193785771D01*
X181220057Y-193785771D01*
X182362914Y-193714342D02*
X182220057Y-193785771D01*
X181934342Y-193785771D01*
X181791485Y-193714342D01*
X181720057Y-193571485D01*
X181720057Y-193000057D01*
X181791485Y-192857200D01*
X181934342Y-192785771D01*
X182220057Y-192785771D01*
X182362914Y-192857200D01*
X182434342Y-193000057D01*
X182434342Y-193142914D01*
X181720057Y-193285771D01*
X183077200Y-193642914D02*
X183148628Y-193714342D01*
X183077200Y-193785771D01*
X183005771Y-193714342D01*
X183077200Y-193642914D01*
X183077200Y-193785771D01*
X183077200Y-192857200D02*
X183148628Y-192928628D01*
X183077200Y-193000057D01*
X183005771Y-192928628D01*
X183077200Y-192857200D01*
X183077200Y-193000057D01*
X184862914Y-193357200D02*
X185577200Y-193357200D01*
X184720057Y-193785771D02*
X185220057Y-192285771D01*
X185720057Y-193785771D01*
X186862914Y-192785771D02*
X186862914Y-193785771D01*
X186505771Y-192214342D02*
X186148628Y-193285771D01*
X187077200Y-193285771D01*
D10*
D11*
X263434342Y-196585771D02*
X263434342Y-195085771D01*
X264791485Y-196585771D02*
X264791485Y-195085771D01*
X264791485Y-196514342D02*
X264648628Y-196585771D01*
X264362914Y-196585771D01*
X264220057Y-196514342D01*
X264148628Y-196442914D01*
X264077200Y-196300057D01*
X264077200Y-195871485D01*
X264148628Y-195728628D01*
X264220057Y-195657200D01*
X264362914Y-195585771D01*
X264648628Y-195585771D01*
X264791485Y-195657200D01*
X265505771Y-196442914D02*
X265577200Y-196514342D01*
X265505771Y-196585771D01*
X265434342Y-196514342D01*
X265505771Y-196442914D01*
X265505771Y-196585771D01*
X265505771Y-195657200D02*
X265577200Y-195728628D01*
X265505771Y-195800057D01*
X265434342Y-195728628D01*
X265505771Y-195657200D01*
X265505771Y-195800057D01*
X268148628Y-196585771D02*
X267291485Y-196585771D01*
X267720057Y-196585771D02*
X267720057Y-195085771D01*
X267577200Y-195300057D01*
X267434342Y-195442914D01*
X267291485Y-195514342D01*
X269862914Y-195014342D02*
X268577200Y-196942914D01*
X271148628Y-196585771D02*
X270291485Y-196585771D01*
X270720057Y-196585771D02*
X270720057Y-195085771D01*
X270577200Y-195300057D01*
X270434342Y-195442914D01*
X270291485Y-195514342D01*
D10*
D11*
X177002200Y-187507200D02*
X285002200Y-187507200D01*
D10*
D13*
X178714580Y-188211961D02*
X179857438Y-188211961D01*
X179036009Y-190211961D02*
X179286009Y-188211961D01*
X180274104Y-190211961D02*
X180440771Y-188878628D01*
X180524104Y-188211961D02*
X180416961Y-188307200D01*
X180500295Y-188402438D01*
X180607438Y-188307200D01*
X180524104Y-188211961D01*
X180500295Y-188402438D01*
X181107438Y-188878628D02*
X181869342Y-188878628D01*
X181476485Y-188211961D02*
X181262200Y-189926247D01*
X181333628Y-190116723D01*
X181512200Y-190211961D01*
X181702676Y-190211961D01*
X182655057Y-190211961D02*
X182476485Y-190116723D01*
X182405057Y-189926247D01*
X182619342Y-188211961D01*
X184190771Y-190116723D02*
X183988390Y-190211961D01*
X183607438Y-190211961D01*
X183428866Y-190116723D01*
X183357438Y-189926247D01*
X183452676Y-189164342D01*
X183571723Y-188973866D01*
X183774104Y-188878628D01*
X184155057Y-188878628D01*
X184333628Y-188973866D01*
X184405057Y-189164342D01*
X184381247Y-189354819D01*
X183405057Y-189545295D01*
X185155057Y-190021485D02*
X185238390Y-190116723D01*
X185131247Y-190211961D01*
X185047914Y-190116723D01*
X185155057Y-190021485D01*
X185131247Y-190211961D01*
X185286009Y-188973866D02*
X185369342Y-189069104D01*
X185262200Y-189164342D01*
X185178866Y-189069104D01*
X185286009Y-188973866D01*
X185262200Y-189164342D01*
D10*
D11*
X178934342Y-185600057D02*
X178434342Y-185600057D01*
X178434342Y-186385771D02*
X178434342Y-184885771D01*
X179148628Y-184885771D01*
X179720057Y-186385771D02*
X179720057Y-185385771D01*
X179720057Y-184885771D02*
X179648628Y-184957200D01*
X179720057Y-185028628D01*
X179791485Y-184957200D01*
X179720057Y-184885771D01*
X179720057Y-185028628D01*
X180648628Y-186385771D02*
X180505771Y-186314342D01*
X180434342Y-186171485D01*
X180434342Y-184885771D01*
X181791485Y-186314342D02*
X181648628Y-186385771D01*
X181362914Y-186385771D01*
X181220057Y-186314342D01*
X181148628Y-186171485D01*
X181148628Y-185600057D01*
X181220057Y-185457200D01*
X181362914Y-185385771D01*
X181648628Y-185385771D01*
X181791485Y-185457200D01*
X181862914Y-185600057D01*
X181862914Y-185742914D01*
X181148628Y-185885771D01*
X182505771Y-186242914D02*
X182577200Y-186314342D01*
X182505771Y-186385771D01*
X182434342Y-186314342D01*
X182505771Y-186242914D01*
X182505771Y-186385771D01*
X182505771Y-185457200D02*
X182577200Y-185528628D01*
X182505771Y-185600057D01*
X182434342Y-185528628D01*
X182505771Y-185457200D01*
X182505771Y-185600057D01*
X184362914Y-186385771D02*
X184362914Y-184885771D01*
X184934342Y-184885771D01*
X185077200Y-184957200D01*
X185148628Y-185028628D01*
X185220057Y-185171485D01*
X185220057Y-185385771D01*
X185148628Y-185528628D01*
X185077200Y-185600057D01*
X184934342Y-185671485D01*
X184362914Y-185671485D01*
X186505771Y-185385771D02*
X186505771Y-186385771D01*
X185862914Y-185385771D02*
X185862914Y-186171485D01*
X185934342Y-186314342D01*
X186077200Y-186385771D01*
X186291485Y-186385771D01*
X186434342Y-186314342D01*
X186505771Y-186242914D01*
X187005771Y-185385771D02*
X187577200Y-185385771D01*
X187220057Y-186385771D02*
X187220057Y-185100057D01*
X187291485Y-184957200D01*
X187434342Y-184885771D01*
X187577200Y-184885771D01*
X187862914Y-185385771D02*
X188434342Y-185385771D01*
X188077200Y-186385771D02*
X188077200Y-185100057D01*
X188148628Y-184957200D01*
X188291485Y-184885771D01*
X188434342Y-184885771D01*
X189505771Y-186314342D02*
X189362914Y-186385771D01*
X189077200Y-186385771D01*
X188934342Y-186314342D01*
X188862914Y-186171485D01*
X188862914Y-185600057D01*
X188934342Y-185457200D01*
X189077200Y-185385771D01*
X189362914Y-185385771D01*
X189505771Y-185457200D01*
X189577200Y-185600057D01*
X189577200Y-185742914D01*
X188862914Y-185885771D01*
X190220057Y-186385771D02*
X190220057Y-185385771D01*
X190220057Y-185671485D02*
X190291485Y-185528628D01*
X190362914Y-185457200D01*
X190505771Y-185385771D01*
X190648628Y-185385771D01*
X190934342Y-185385771D02*
X191505771Y-185385771D01*
X191148628Y-186385771D02*
X191148628Y-185100057D01*
X191220057Y-184957200D01*
X191362914Y-184885771D01*
X191505771Y-184885771D01*
X192005771Y-186385771D02*
X192005771Y-185385771D01*
X192005771Y-184885771D02*
X191934342Y-184957200D01*
X192005771Y-185028628D01*
X192077200Y-184957200D01*
X192005771Y-184885771D01*
X192005771Y-185028628D01*
X192648628Y-186314342D02*
X192791485Y-186385771D01*
X193077200Y-186385771D01*
X193220057Y-186314342D01*
X193291485Y-186171485D01*
X193291485Y-186100057D01*
X193220057Y-185957200D01*
X193077200Y-185885771D01*
X192862914Y-185885771D01*
X192720057Y-185814342D01*
X192648628Y-185671485D01*
X192648628Y-185600057D01*
X192720057Y-185457200D01*
X192862914Y-185385771D01*
X193077200Y-185385771D01*
X193220057Y-185457200D01*
X193934342Y-186385771D02*
X193934342Y-184885771D01*
X194577200Y-186385771D02*
X194577200Y-185600057D01*
X194505771Y-185457200D01*
X194362914Y-185385771D01*
X194148628Y-185385771D01*
X194005771Y-185457200D01*
X193934342Y-185528628D01*
X195291485Y-185814342D02*
X196434342Y-185814342D01*
X197148628Y-186385771D02*
X197148628Y-184885771D01*
X197862914Y-185385771D02*
X197862914Y-186385771D01*
X197862914Y-185528628D02*
X197934342Y-185457200D01*
X198077200Y-185385771D01*
X198291485Y-185385771D01*
X198434342Y-185457200D01*
X198505771Y-185600057D01*
X198505771Y-186385771D01*
X199005771Y-185385771D02*
X199577200Y-185385771D01*
X199220057Y-184885771D02*
X199220057Y-186171485D01*
X199291485Y-186314342D01*
X199434342Y-186385771D01*
X199577200Y-186385771D01*
X200648628Y-186314342D02*
X200505771Y-186385771D01*
X200220057Y-186385771D01*
X200077200Y-186314342D01*
X200005771Y-186171485D01*
X200005771Y-185600057D01*
X200077200Y-185457200D01*
X200220057Y-185385771D01*
X200505771Y-185385771D01*
X200648628Y-185457200D01*
X200720057Y-185600057D01*
X200720057Y-185742914D01*
X200005771Y-185885771D01*
X201362914Y-186385771D02*
X201362914Y-185385771D01*
X201362914Y-185671485D02*
X201434342Y-185528628D01*
X201505771Y-185457200D01*
X201648628Y-185385771D01*
X201791485Y-185385771D01*
X202077200Y-185385771D02*
X202648628Y-185385771D01*
X202291485Y-186385771D02*
X202291485Y-185100057D01*
X202362914Y-184957200D01*
X202505771Y-184885771D01*
X202648628Y-184885771D01*
X203791485Y-186385771D02*
X203791485Y-185600057D01*
X203720057Y-185457200D01*
X203577200Y-185385771D01*
X203291485Y-185385771D01*
X203148628Y-185457200D01*
X203791485Y-186314342D02*
X203648628Y-186385771D01*
X203291485Y-186385771D01*
X203148628Y-186314342D01*
X203077200Y-186171485D01*
X203077200Y-186028628D01*
X203148628Y-185885771D01*
X203291485Y-185814342D01*
X203648628Y-185814342D01*
X203791485Y-185742914D01*
X205148628Y-186314342D02*
X205005771Y-186385771D01*
X204720057Y-186385771D01*
X204577200Y-186314342D01*
X204505771Y-186242914D01*
X204434342Y-186100057D01*
X204434342Y-185671485D01*
X204505771Y-185528628D01*
X204577200Y-185457200D01*
X204720057Y-185385771D01*
X205005771Y-185385771D01*
X205148628Y-185457200D01*
X206362914Y-186314342D02*
X206220057Y-186385771D01*
X205934342Y-186385771D01*
X205791485Y-186314342D01*
X205720057Y-186171485D01*
X205720057Y-185600057D01*
X205791485Y-185457200D01*
X205934342Y-185385771D01*
X206220057Y-185385771D01*
X206362914Y-185457200D01*
X206434342Y-185600057D01*
X206434342Y-185742914D01*
X205720057Y-185885771D01*
X207077200Y-185814342D02*
X208220057Y-185814342D01*
X208862914Y-185028628D02*
X208934342Y-184957200D01*
X209077200Y-184885771D01*
X209434342Y-184885771D01*
X209577200Y-184957200D01*
X209648628Y-185028628D01*
X209720057Y-185171485D01*
X209720057Y-185314342D01*
X209648628Y-185528628D01*
X208791485Y-186385771D01*
X209720057Y-186385771D01*
X210362914Y-186242914D02*
X210434342Y-186314342D01*
X210362914Y-186385771D01*
X210291485Y-186314342D01*
X210362914Y-186242914D01*
X210362914Y-186385771D01*
X211077200Y-186385771D02*
X211077200Y-184885771D01*
X211220057Y-185814342D02*
X211648628Y-186385771D01*
X211648628Y-185385771D02*
X211077200Y-185957200D01*
X212291485Y-186385771D02*
X212291485Y-185385771D01*
X212291485Y-184885771D02*
X212220057Y-184957200D01*
X212291485Y-185028628D01*
X212362914Y-184957200D01*
X212291485Y-184885771D01*
X212291485Y-185028628D01*
X213648628Y-186314342D02*
X213505771Y-186385771D01*
X213220057Y-186385771D01*
X213077200Y-186314342D01*
X213005771Y-186242914D01*
X212934342Y-186100057D01*
X212934342Y-185671485D01*
X213005771Y-185528628D01*
X213077200Y-185457200D01*
X213220057Y-185385771D01*
X213505771Y-185385771D01*
X213648628Y-185457200D01*
X214934342Y-186385771D02*
X214934342Y-185600057D01*
X214862914Y-185457200D01*
X214720057Y-185385771D01*
X214434342Y-185385771D01*
X214291485Y-185457200D01*
X214934342Y-186314342D02*
X214791485Y-186385771D01*
X214434342Y-186385771D01*
X214291485Y-186314342D01*
X214220057Y-186171485D01*
X214220057Y-186028628D01*
X214291485Y-185885771D01*
X214434342Y-185814342D01*
X214791485Y-185814342D01*
X214934342Y-185742914D01*
X216291485Y-186385771D02*
X216291485Y-184885771D01*
X216291485Y-186314342D02*
X216148628Y-186385771D01*
X215862914Y-186385771D01*
X215720057Y-186314342D01*
X215648628Y-186242914D01*
X215577200Y-186100057D01*
X215577200Y-185671485D01*
X215648628Y-185528628D01*
X215720057Y-185457200D01*
X215862914Y-185385771D01*
X216148628Y-185385771D01*
X216291485Y-185457200D01*
X216648628Y-186528628D02*
X217791485Y-186528628D01*
X218148628Y-185385771D02*
X218148628Y-186885771D01*
X218148628Y-185457200D02*
X218291485Y-185385771D01*
X218577200Y-185385771D01*
X218720057Y-185457200D01*
X218791485Y-185528628D01*
X218862914Y-185671485D01*
X218862914Y-186100057D01*
X218791485Y-186242914D01*
X218720057Y-186314342D01*
X218577200Y-186385771D01*
X218291485Y-186385771D01*
X218148628Y-186314342D01*
X220148628Y-186314342D02*
X220005771Y-186385771D01*
X219720057Y-186385771D01*
X219577200Y-186314342D01*
X219505771Y-186242914D01*
X219434342Y-186100057D01*
X219434342Y-185671485D01*
X219505771Y-185528628D01*
X219577200Y-185457200D01*
X219720057Y-185385771D01*
X220005771Y-185385771D01*
X220148628Y-185457200D01*
X220791485Y-186385771D02*
X220791485Y-184885771D01*
X220791485Y-185457200D02*
X220934342Y-185385771D01*
X221220057Y-185385771D01*
X221362914Y-185457200D01*
X221434342Y-185528628D01*
X221505771Y-185671485D01*
X221505771Y-186100057D01*
X221434342Y-186242914D01*
X221362914Y-186314342D01*
X221220057Y-186385771D01*
X220934342Y-186385771D01*
X220791485Y-186314342D01*
D10*
D11*
X177002200Y-181507200D02*
X285002200Y-181507200D01*
D10*
D11*
X178362914Y-183614342D02*
X178577200Y-183685771D01*
X178934342Y-183685771D01*
X179077200Y-183614342D01*
X179148628Y-183542914D01*
X179220057Y-183400057D01*
X179220057Y-183257200D01*
X179148628Y-183114342D01*
X179077200Y-183042914D01*
X178934342Y-182971485D01*
X178648628Y-182900057D01*
X178505771Y-182828628D01*
X178434342Y-182757200D01*
X178362914Y-182614342D01*
X178362914Y-182471485D01*
X178434342Y-182328628D01*
X178505771Y-182257200D01*
X178648628Y-182185771D01*
X179005771Y-182185771D01*
X179220057Y-182257200D01*
X179862914Y-183685771D02*
X179862914Y-182185771D01*
X180505771Y-183685771D02*
X180505771Y-182900057D01*
X180434342Y-182757200D01*
X180291485Y-182685771D01*
X180077200Y-182685771D01*
X179934342Y-182757200D01*
X179862914Y-182828628D01*
X181791485Y-183614342D02*
X181648628Y-183685771D01*
X181362914Y-183685771D01*
X181220057Y-183614342D01*
X181148628Y-183471485D01*
X181148628Y-182900057D01*
X181220057Y-182757200D01*
X181362914Y-182685771D01*
X181648628Y-182685771D01*
X181791485Y-182757200D01*
X181862914Y-182900057D01*
X181862914Y-183042914D01*
X181148628Y-183185771D01*
X183077200Y-183614342D02*
X182934342Y-183685771D01*
X182648628Y-183685771D01*
X182505771Y-183614342D01*
X182434342Y-183471485D01*
X182434342Y-182900057D01*
X182505771Y-182757200D01*
X182648628Y-182685771D01*
X182934342Y-182685771D01*
X183077200Y-182757200D01*
X183148628Y-182900057D01*
X183148628Y-183042914D01*
X182434342Y-183185771D01*
X183577200Y-182685771D02*
X184148628Y-182685771D01*
X183791485Y-182185771D02*
X183791485Y-183471485D01*
X183862914Y-183614342D01*
X184005771Y-183685771D01*
X184148628Y-183685771D01*
X184648628Y-183542914D02*
X184720057Y-183614342D01*
X184648628Y-183685771D01*
X184577200Y-183614342D01*
X184648628Y-183542914D01*
X184648628Y-183685771D01*
X184648628Y-182757200D02*
X184720057Y-182828628D01*
X184648628Y-182900057D01*
X184577200Y-182828628D01*
X184648628Y-182757200D01*
X184648628Y-182900057D01*
D10*
D11*
X197002200Y-191507200D02*
X197002200Y-194507200D01*
D10*
D11*
X261002200Y-191507200D02*
X261002200Y-198007200D01*
D14*
X24695000Y-284640D02*
X24695000Y3515360D01*
X24695000Y-284640D02*
X4895000Y-284640D01*
X4895000Y3515360D02*
X4895000Y-284640D01*
X24695000Y3590360D02*
X4895000Y3590360D01*
X22195000Y4315360D02*
G75*
G03*
X22195000Y4315360I-300000J0D01*
G01*
D15*
X32476440Y-45951140D02*
X29606240Y-45951140D01*
X29606240Y-45951140D02*
X29606240Y-42572940D01*
X58816240Y-45951140D02*
X57216040Y-45951140D01*
X58816240Y-42572940D02*
X58816240Y-45951140D01*
D16*
X31765240Y-37975540D02*
G75*
G03*
X32527240Y-37975540I381000J0D01*
G01*
X32527240Y-37975540D02*
G75*
G03*
X31765240Y-37975540I-381000J0D01*
G01*
D14*
X61790000Y-30991422D02*
X61790000Y-31508578D01*
X63210000Y-30991422D02*
X63210000Y-31508578D01*
X55428922Y-26710000D02*
X55946078Y-26710000D01*
X55428922Y-25290000D02*
X55946078Y-25290000D01*
X20126060Y-32608760D02*
X20126060Y-31808760D01*
X17526060Y-34858760D02*
X20126060Y-34858760D01*
X20126060Y-34858760D02*
X20126060Y-33908760D01*
X12720120Y-49105100D02*
X13520120Y-49105100D01*
X10470120Y-46505100D02*
X10470120Y-49105100D01*
X10470120Y-49105100D02*
X11420120Y-49105100D01*
X14696178Y-33054220D02*
X14179022Y-33054220D01*
X14696178Y-34474220D02*
X14179022Y-34474220D01*
X16866102Y-49444980D02*
X17383258Y-49444980D01*
X16866102Y-48024980D02*
X17383258Y-48024980D01*
D10*
X-7346780Y-2045660D02*
G75*
G03*
X-7346780Y-2045660I-127000J0D01*
G01*
D17*
X2401220Y-9395660D02*
X-9548780Y-9395660D01*
D11*
X15528333Y-2637020D02*
X15528333Y-3351306D01*
X15575952Y-3494163D01*
X15671190Y-3589401D01*
X15814047Y-3637020D01*
X15909285Y-3637020D01*
X15099761Y-2732259D02*
X15052142Y-2684640D01*
X14956904Y-2637020D01*
X14718809Y-2637020D01*
X14623571Y-2684640D01*
X14575952Y-2732259D01*
X14528333Y-2827497D01*
X14528333Y-2922735D01*
X14575952Y-3065592D01*
X15147380Y-3637020D01*
X14528333Y-3637020D01*
D18*
X50012824Y-51257141D02*
X50091048Y-51335366D01*
X50325721Y-51413590D01*
X50482170Y-51413590D01*
X50716842Y-51335366D01*
X50873291Y-51178917D01*
X50951515Y-51022469D01*
X51029739Y-50709572D01*
X51029739Y-50474899D01*
X50951515Y-50162002D01*
X50873291Y-50005553D01*
X50716842Y-49849105D01*
X50482170Y-49770881D01*
X50325721Y-49770881D01*
X50091048Y-49849105D01*
X50012824Y-49927329D01*
X48995909Y-49770881D02*
X48683012Y-49770881D01*
X48526564Y-49849105D01*
X48370115Y-50005553D01*
X48291891Y-50318450D01*
X48291891Y-50866020D01*
X48370115Y-51178917D01*
X48526564Y-51335366D01*
X48683012Y-51413590D01*
X48995909Y-51413590D01*
X49152358Y-51335366D01*
X49308806Y-51178917D01*
X49387030Y-50866020D01*
X49387030Y-50318450D01*
X49308806Y-50005553D01*
X49152358Y-49849105D01*
X48995909Y-49770881D01*
X47587873Y-51413590D02*
X47587873Y-49770881D01*
X46649182Y-51413590D01*
X46649182Y-49770881D01*
X45866940Y-51413590D02*
X45866940Y-49770881D01*
X44928249Y-51413590D01*
X44928249Y-49770881D01*
X43441988Y-50318450D02*
X43441988Y-51413590D01*
X43833109Y-49692657D02*
X44224231Y-50866020D01*
X43207315Y-50866020D01*
D11*
X61302380Y-30607142D02*
X60826190Y-30273809D01*
X61302380Y-30035714D02*
X60302380Y-30035714D01*
X60302380Y-30416666D01*
X60350000Y-30511904D01*
X60397619Y-30559523D01*
X60492857Y-30607142D01*
X60635714Y-30607142D01*
X60730952Y-30559523D01*
X60778571Y-30511904D01*
X60826190Y-30416666D01*
X60826190Y-30035714D01*
X60635714Y-31464285D02*
X61302380Y-31464285D01*
X60254761Y-31226190D02*
X60969047Y-30988095D01*
X60969047Y-31607142D01*
X61302380Y-32035714D02*
X61302380Y-32226190D01*
X61254761Y-32321428D01*
X61207142Y-32369047D01*
X61064285Y-32464285D01*
X60873809Y-32511904D01*
X60492857Y-32511904D01*
X60397619Y-32464285D01*
X60350000Y-32416666D01*
X60302380Y-32321428D01*
X60302380Y-32130952D01*
X60350000Y-32035714D01*
X60397619Y-31988095D01*
X60492857Y-31940476D01*
X60730952Y-31940476D01*
X60826190Y-31988095D01*
X60873809Y-32035714D01*
X60921428Y-32130952D01*
X60921428Y-32321428D01*
X60873809Y-32416666D01*
X60826190Y-32464285D01*
X60730952Y-32511904D01*
X56642857Y-28952380D02*
X56976190Y-28476190D01*
X57214285Y-28952380D02*
X57214285Y-27952380D01*
X56833333Y-27952380D01*
X56738095Y-28000000D01*
X56690476Y-28047619D01*
X56642857Y-28142857D01*
X56642857Y-28285714D01*
X56690476Y-28380952D01*
X56738095Y-28428571D01*
X56833333Y-28476190D01*
X57214285Y-28476190D01*
X56261904Y-28047619D02*
X56214285Y-28000000D01*
X56119047Y-27952380D01*
X55880952Y-27952380D01*
X55785714Y-28000000D01*
X55738095Y-28047619D01*
X55690476Y-28142857D01*
X55690476Y-28238095D01*
X55738095Y-28380952D01*
X56309523Y-28952380D01*
X55690476Y-28952380D01*
X55214285Y-28952380D02*
X55023809Y-28952380D01*
X54928571Y-28904761D01*
X54880952Y-28857142D01*
X54785714Y-28714285D01*
X54738095Y-28523809D01*
X54738095Y-28142857D01*
X54785714Y-28047619D01*
X54833333Y-28000000D01*
X54928571Y-27952380D01*
X55119047Y-27952380D01*
X55214285Y-28000000D01*
X55261904Y-28047619D01*
X55309523Y-28142857D01*
X55309523Y-28380952D01*
X55261904Y-28476190D01*
X55214285Y-28523809D01*
X55119047Y-28571428D01*
X54928571Y-28571428D01*
X54833333Y-28523809D01*
X54785714Y-28476190D01*
X54738095Y-28380952D01*
X22845238Y-35047619D02*
X22940476Y-35000000D01*
X23035714Y-34904761D01*
X23178571Y-34761904D01*
X23273809Y-34714285D01*
X23369047Y-34714285D01*
X23321428Y-34952380D02*
X23416666Y-34904761D01*
X23511904Y-34809523D01*
X23559523Y-34619047D01*
X23559523Y-34285714D01*
X23511904Y-34095238D01*
X23416666Y-34000000D01*
X23321428Y-33952380D01*
X23130952Y-33952380D01*
X23035714Y-34000000D01*
X22940476Y-34095238D01*
X22892857Y-34285714D01*
X22892857Y-34619047D01*
X22940476Y-34809523D01*
X23035714Y-34904761D01*
X23130952Y-34952380D01*
X23321428Y-34952380D01*
X22035714Y-33952380D02*
X22226190Y-33952380D01*
X22321428Y-34000000D01*
X22369047Y-34047619D01*
X22464285Y-34190476D01*
X22511904Y-34380952D01*
X22511904Y-34761904D01*
X22464285Y-34857142D01*
X22416666Y-34904761D01*
X22321428Y-34952380D01*
X22130952Y-34952380D01*
X22035714Y-34904761D01*
X21988095Y-34857142D01*
X21940476Y-34761904D01*
X21940476Y-34523809D01*
X21988095Y-34428571D01*
X22035714Y-34380952D01*
X22130952Y-34333333D01*
X22321428Y-34333333D01*
X22416666Y-34380952D01*
X22464285Y-34428571D01*
X22511904Y-34523809D01*
X10047619Y-49404761D02*
X10000000Y-49309523D01*
X9904761Y-49214285D01*
X9761904Y-49071428D01*
X9714285Y-48976190D01*
X9714285Y-48880952D01*
X9952380Y-48928571D02*
X9904761Y-48833333D01*
X9809523Y-48738095D01*
X9619047Y-48690476D01*
X9285714Y-48690476D01*
X9095238Y-48738095D01*
X9000000Y-48833333D01*
X8952380Y-48928571D01*
X8952380Y-49119047D01*
X9000000Y-49214285D01*
X9095238Y-49309523D01*
X9285714Y-49357142D01*
X9619047Y-49357142D01*
X9809523Y-49309523D01*
X9904761Y-49214285D01*
X9952380Y-49119047D01*
X9952380Y-48928571D01*
X8952380Y-50261904D02*
X8952380Y-49785714D01*
X9428571Y-49738095D01*
X9380952Y-49785714D01*
X9333333Y-49880952D01*
X9333333Y-50119047D01*
X9380952Y-50214285D01*
X9428571Y-50261904D01*
X9523809Y-50309523D01*
X9761904Y-50309523D01*
X9857142Y-50261904D01*
X9904761Y-50214285D01*
X9952380Y-50119047D01*
X9952380Y-49880952D01*
X9904761Y-49785714D01*
X9857142Y-49738095D01*
X13142857Y-31702380D02*
X13476190Y-31226190D01*
X13714285Y-31702380D02*
X13714285Y-30702380D01*
X13333333Y-30702380D01*
X13238095Y-30750000D01*
X13190476Y-30797619D01*
X13142857Y-30892857D01*
X13142857Y-31035714D01*
X13190476Y-31130952D01*
X13238095Y-31178571D01*
X13333333Y-31226190D01*
X13714285Y-31226190D01*
X12190476Y-31702380D02*
X12761904Y-31702380D01*
X12476190Y-31702380D02*
X12476190Y-30702380D01*
X12571428Y-30845238D01*
X12666666Y-30940476D01*
X12761904Y-30988095D01*
X11571428Y-30702380D02*
X11476190Y-30702380D01*
X11380952Y-30750000D01*
X11333333Y-30797619D01*
X11285714Y-30892857D01*
X11238095Y-31083333D01*
X11238095Y-31321428D01*
X11285714Y-31511904D01*
X11333333Y-31607142D01*
X11380952Y-31654761D01*
X11476190Y-31702380D01*
X11571428Y-31702380D01*
X11666666Y-31654761D01*
X11714285Y-31607142D01*
X11761904Y-31511904D01*
X11809523Y-31321428D01*
X11809523Y-31083333D01*
X11761904Y-30892857D01*
X11714285Y-30797619D01*
X11666666Y-30750000D01*
X11571428Y-30702380D01*
X18916666Y-47452380D02*
X19250000Y-46976190D01*
X19488095Y-47452380D02*
X19488095Y-46452380D01*
X19107142Y-46452380D01*
X19011904Y-46500000D01*
X18964285Y-46547619D01*
X18916666Y-46642857D01*
X18916666Y-46785714D01*
X18964285Y-46880952D01*
X19011904Y-46928571D01*
X19107142Y-46976190D01*
X19488095Y-46976190D01*
X18440476Y-47452380D02*
X18250000Y-47452380D01*
X18154761Y-47404761D01*
X18107142Y-47357142D01*
X18011904Y-47214285D01*
X17964285Y-47023809D01*
X17964285Y-46642857D01*
X18011904Y-46547619D01*
X18059523Y-46500000D01*
X18154761Y-46452380D01*
X18345238Y-46452380D01*
X18440476Y-46500000D01*
X18488095Y-46547619D01*
X18535714Y-46642857D01*
X18535714Y-46880952D01*
X18488095Y-46976190D01*
X18440476Y-47023809D01*
X18345238Y-47071428D01*
X18154761Y-47071428D01*
X18059523Y-47023809D01*
X18011904Y-46976190D01*
X17964285Y-46880952D01*
X4827993Y-11574041D02*
X4875647Y-11621694D01*
X5018607Y-11669348D01*
X5113914Y-11669348D01*
X5256875Y-11621694D01*
X5352182Y-11526387D01*
X5399835Y-11431080D01*
X5447489Y-11240466D01*
X5447489Y-11097506D01*
X5399835Y-10906892D01*
X5352182Y-10811585D01*
X5256875Y-10716278D01*
X5113914Y-10668624D01*
X5018607Y-10668624D01*
X4875647Y-10716278D01*
X4827993Y-10763931D01*
X4208497Y-10668624D02*
X4017883Y-10668624D01*
X3922576Y-10716278D01*
X3827269Y-10811585D01*
X3779616Y-11002199D01*
X3779616Y-11335773D01*
X3827269Y-11526387D01*
X3922576Y-11621694D01*
X4017883Y-11669348D01*
X4208497Y-11669348D01*
X4303804Y-11621694D01*
X4399111Y-11526387D01*
X4446765Y-11335773D01*
X4446765Y-11002199D01*
X4399111Y-10811585D01*
X4303804Y-10716278D01*
X4208497Y-10668624D01*
X3350734Y-11669348D02*
X3350734Y-10668624D01*
X2778892Y-11669348D01*
X2778892Y-10668624D01*
X2302356Y-11669348D02*
X2302356Y-10668624D01*
X1730514Y-11669348D01*
X1730514Y-10668624D01*
X1301632Y-10763931D02*
X1253979Y-10716278D01*
X1158672Y-10668624D01*
X920404Y-10668624D01*
X825097Y-10716278D01*
X777444Y-10763931D01*
X729790Y-10859238D01*
X729790Y-10954545D01*
X777444Y-11097506D01*
X1349286Y-11669348D01*
X729790Y-11669348D01*
M02*
