G04 #@! TF.GenerationSoftware,KiCad,Pcbnew,(5.1.6)-1*
G04 #@! TF.CreationDate,2020-06-29T15:16:25-04:00*
G04 #@! TF.ProjectId,Pufferfish-Controller-1,50756666-6572-4666-9973-682d436f6e74,rev?*
G04 #@! TF.SameCoordinates,Original*
G04 #@! TF.FileFunction,Paste,Top*
G04 #@! TF.FilePolarity,Positive*
%FSLAX46Y46*%
G04 Gerber Fmt 4.6, Leading zero omitted, Abs format (unit mm)*
G04 Created by KiCad (PCBNEW (5.1.6)-1) date 2020-06-29 15:16:25*
%MOMM*%
%LPD*%
G01*
G04 APERTURE LIST*
%ADD10R,1.750000X0.650000*%
%ADD11R,1.000000X5.500000*%
%ADD12R,1.600000X3.000000*%
%ADD13R,5.500000X1.000000*%
%ADD14R,3.000000X1.600000*%
%ADD15R,0.800000X0.900000*%
%ADD16R,2.000000X1.170000*%
%ADD17R,2.000000X1.520000*%
G04 APERTURE END LIST*
D10*
X334895000Y-289242000D03*
X334895000Y-286702000D03*
X334895000Y-284162000D03*
X345495000Y-289242000D03*
X345495000Y-286702000D03*
X345495000Y-284162000D03*
X345495000Y-272542000D03*
X345495000Y-275082000D03*
X345495000Y-277622000D03*
X334895000Y-272542000D03*
X334895000Y-275082000D03*
X334895000Y-277622000D03*
X300605000Y-289116000D03*
X300605000Y-286576000D03*
X300605000Y-284036000D03*
X311205000Y-289116000D03*
X311205000Y-286576000D03*
X311205000Y-284036000D03*
X328350000Y-284099000D03*
X328350000Y-286639000D03*
X328350000Y-289179000D03*
X317750000Y-284099000D03*
X317750000Y-286639000D03*
X317750000Y-289179000D03*
X317750000Y-277558000D03*
X317750000Y-275018000D03*
X317750000Y-272478000D03*
X328350000Y-277558000D03*
X328350000Y-275018000D03*
X328350000Y-272478000D03*
X311332000Y-272352000D03*
X311332000Y-274892000D03*
X311332000Y-277432000D03*
X300732000Y-272352000D03*
X300732000Y-274892000D03*
X300732000Y-277432000D03*
G36*
G01*
X286289000Y-203857750D02*
X286289000Y-204370250D01*
G75*
G02*
X286070250Y-204589000I-218750J0D01*
G01*
X285632750Y-204589000D01*
G75*
G02*
X285414000Y-204370250I0J218750D01*
G01*
X285414000Y-203857750D01*
G75*
G02*
X285632750Y-203639000I218750J0D01*
G01*
X286070250Y-203639000D01*
G75*
G02*
X286289000Y-203857750I0J-218750D01*
G01*
G37*
G36*
G01*
X287864000Y-203857750D02*
X287864000Y-204370250D01*
G75*
G02*
X287645250Y-204589000I-218750J0D01*
G01*
X287207750Y-204589000D01*
G75*
G02*
X286989000Y-204370250I0J218750D01*
G01*
X286989000Y-203857750D01*
G75*
G02*
X287207750Y-203639000I218750J0D01*
G01*
X287645250Y-203639000D01*
G75*
G02*
X287864000Y-203857750I0J-218750D01*
G01*
G37*
G36*
G01*
X207614000Y-233555250D02*
X207614000Y-233042750D01*
G75*
G02*
X207832750Y-232824000I218750J0D01*
G01*
X208270250Y-232824000D01*
G75*
G02*
X208489000Y-233042750I0J-218750D01*
G01*
X208489000Y-233555250D01*
G75*
G02*
X208270250Y-233774000I-218750J0D01*
G01*
X207832750Y-233774000D01*
G75*
G02*
X207614000Y-233555250I0J218750D01*
G01*
G37*
G36*
G01*
X206039000Y-233555250D02*
X206039000Y-233042750D01*
G75*
G02*
X206257750Y-232824000I218750J0D01*
G01*
X206695250Y-232824000D01*
G75*
G02*
X206914000Y-233042750I0J-218750D01*
G01*
X206914000Y-233555250D01*
G75*
G02*
X206695250Y-233774000I-218750J0D01*
G01*
X206257750Y-233774000D01*
G75*
G02*
X206039000Y-233555250I0J218750D01*
G01*
G37*
D11*
X324593000Y-244477000D03*
D12*
X332993000Y-246677000D03*
D11*
X322593000Y-244477000D03*
X320593000Y-244477000D03*
X318593000Y-244477000D03*
X316593000Y-244477000D03*
D12*
X314193000Y-246677000D03*
D11*
X326593000Y-244477000D03*
X328593000Y-244477000D03*
X330593000Y-244477000D03*
X300437000Y-244439000D03*
D12*
X308837000Y-246639000D03*
D11*
X298437000Y-244439000D03*
X296437000Y-244439000D03*
X294437000Y-244439000D03*
X292437000Y-244439000D03*
D12*
X290037000Y-246639000D03*
D11*
X302437000Y-244439000D03*
X304437000Y-244439000D03*
X306437000Y-244439000D03*
X300437000Y-229796000D03*
D12*
X308837000Y-231996000D03*
D11*
X298437000Y-229796000D03*
X296437000Y-229796000D03*
X294437000Y-229796000D03*
X292437000Y-229796000D03*
D12*
X290037000Y-231996000D03*
D11*
X302437000Y-229796000D03*
X304437000Y-229796000D03*
X306437000Y-229796000D03*
X330593000Y-229821000D03*
X328593000Y-229821000D03*
X326593000Y-229821000D03*
D12*
X314193000Y-232021000D03*
D11*
X316593000Y-229821000D03*
X318593000Y-229821000D03*
X320593000Y-229821000D03*
X322593000Y-229821000D03*
D12*
X332993000Y-232021000D03*
D11*
X324593000Y-229821000D03*
X345018000Y-244221000D03*
X343018000Y-244221000D03*
X347018000Y-244221000D03*
X341018000Y-244221000D03*
D12*
X349418000Y-246471000D03*
X338618000Y-246471000D03*
G36*
G01*
X189520000Y-262714750D02*
X189520000Y-263627250D01*
G75*
G02*
X189276250Y-263871000I-243750J0D01*
G01*
X188788750Y-263871000D01*
G75*
G02*
X188545000Y-263627250I0J243750D01*
G01*
X188545000Y-262714750D01*
G75*
G02*
X188788750Y-262471000I243750J0D01*
G01*
X189276250Y-262471000D01*
G75*
G02*
X189520000Y-262714750I0J-243750D01*
G01*
G37*
G36*
G01*
X191395000Y-262714750D02*
X191395000Y-263627250D01*
G75*
G02*
X191151250Y-263871000I-243750J0D01*
G01*
X190663750Y-263871000D01*
G75*
G02*
X190420000Y-263627250I0J243750D01*
G01*
X190420000Y-262714750D01*
G75*
G02*
X190663750Y-262471000I243750J0D01*
G01*
X191151250Y-262471000D01*
G75*
G02*
X191395000Y-262714750I0J-243750D01*
G01*
G37*
G36*
G01*
X189520000Y-258546750D02*
X189520000Y-259459250D01*
G75*
G02*
X189276250Y-259703000I-243750J0D01*
G01*
X188788750Y-259703000D01*
G75*
G02*
X188545000Y-259459250I0J243750D01*
G01*
X188545000Y-258546750D01*
G75*
G02*
X188788750Y-258303000I243750J0D01*
G01*
X189276250Y-258303000D01*
G75*
G02*
X189520000Y-258546750I0J-243750D01*
G01*
G37*
G36*
G01*
X191395000Y-258546750D02*
X191395000Y-259459250D01*
G75*
G02*
X191151250Y-259703000I-243750J0D01*
G01*
X190663750Y-259703000D01*
G75*
G02*
X190420000Y-259459250I0J243750D01*
G01*
X190420000Y-258546750D01*
G75*
G02*
X190663750Y-258303000I243750J0D01*
G01*
X191151250Y-258303000D01*
G75*
G02*
X191395000Y-258546750I0J-243750D01*
G01*
G37*
G36*
G01*
X189266000Y-232905750D02*
X189266000Y-233818250D01*
G75*
G02*
X189022250Y-234062000I-243750J0D01*
G01*
X188534750Y-234062000D01*
G75*
G02*
X188291000Y-233818250I0J243750D01*
G01*
X188291000Y-232905750D01*
G75*
G02*
X188534750Y-232662000I243750J0D01*
G01*
X189022250Y-232662000D01*
G75*
G02*
X189266000Y-232905750I0J-243750D01*
G01*
G37*
G36*
G01*
X191141000Y-232905750D02*
X191141000Y-233818250D01*
G75*
G02*
X190897250Y-234062000I-243750J0D01*
G01*
X190409750Y-234062000D01*
G75*
G02*
X190166000Y-233818250I0J243750D01*
G01*
X190166000Y-232905750D01*
G75*
G02*
X190409750Y-232662000I243750J0D01*
G01*
X190897250Y-232662000D01*
G75*
G02*
X191141000Y-232905750I0J-243750D01*
G01*
G37*
G36*
G01*
X189266000Y-225590750D02*
X189266000Y-226503250D01*
G75*
G02*
X189022250Y-226747000I-243750J0D01*
G01*
X188534750Y-226747000D01*
G75*
G02*
X188291000Y-226503250I0J243750D01*
G01*
X188291000Y-225590750D01*
G75*
G02*
X188534750Y-225347000I243750J0D01*
G01*
X189022250Y-225347000D01*
G75*
G02*
X189266000Y-225590750I0J-243750D01*
G01*
G37*
G36*
G01*
X191141000Y-225590750D02*
X191141000Y-226503250D01*
G75*
G02*
X190897250Y-226747000I-243750J0D01*
G01*
X190409750Y-226747000D01*
G75*
G02*
X190166000Y-226503250I0J243750D01*
G01*
X190166000Y-225590750D01*
G75*
G02*
X190409750Y-225347000I243750J0D01*
G01*
X190897250Y-225347000D01*
G75*
G02*
X191141000Y-225590750I0J-243750D01*
G01*
G37*
G36*
G01*
X262281750Y-189972000D02*
X263194250Y-189972000D01*
G75*
G02*
X263438000Y-190215750I0J-243750D01*
G01*
X263438000Y-190703250D01*
G75*
G02*
X263194250Y-190947000I-243750J0D01*
G01*
X262281750Y-190947000D01*
G75*
G02*
X262038000Y-190703250I0J243750D01*
G01*
X262038000Y-190215750D01*
G75*
G02*
X262281750Y-189972000I243750J0D01*
G01*
G37*
G36*
G01*
X262281750Y-188097000D02*
X263194250Y-188097000D01*
G75*
G02*
X263438000Y-188340750I0J-243750D01*
G01*
X263438000Y-188828250D01*
G75*
G02*
X263194250Y-189072000I-243750J0D01*
G01*
X262281750Y-189072000D01*
G75*
G02*
X262038000Y-188828250I0J243750D01*
G01*
X262038000Y-188340750D01*
G75*
G02*
X262281750Y-188097000I243750J0D01*
G01*
G37*
G36*
G01*
X277521750Y-189972000D02*
X278434250Y-189972000D01*
G75*
G02*
X278678000Y-190215750I0J-243750D01*
G01*
X278678000Y-190703250D01*
G75*
G02*
X278434250Y-190947000I-243750J0D01*
G01*
X277521750Y-190947000D01*
G75*
G02*
X277278000Y-190703250I0J243750D01*
G01*
X277278000Y-190215750D01*
G75*
G02*
X277521750Y-189972000I243750J0D01*
G01*
G37*
G36*
G01*
X277521750Y-188097000D02*
X278434250Y-188097000D01*
G75*
G02*
X278678000Y-188340750I0J-243750D01*
G01*
X278678000Y-188828250D01*
G75*
G02*
X278434250Y-189072000I-243750J0D01*
G01*
X277521750Y-189072000D01*
G75*
G02*
X277278000Y-188828250I0J243750D01*
G01*
X277278000Y-188340750D01*
G75*
G02*
X277521750Y-188097000I243750J0D01*
G01*
G37*
G36*
G01*
X280061750Y-189972000D02*
X280974250Y-189972000D01*
G75*
G02*
X281218000Y-190215750I0J-243750D01*
G01*
X281218000Y-190703250D01*
G75*
G02*
X280974250Y-190947000I-243750J0D01*
G01*
X280061750Y-190947000D01*
G75*
G02*
X279818000Y-190703250I0J243750D01*
G01*
X279818000Y-190215750D01*
G75*
G02*
X280061750Y-189972000I243750J0D01*
G01*
G37*
G36*
G01*
X280061750Y-188097000D02*
X280974250Y-188097000D01*
G75*
G02*
X281218000Y-188340750I0J-243750D01*
G01*
X281218000Y-188828250D01*
G75*
G02*
X280974250Y-189072000I-243750J0D01*
G01*
X280061750Y-189072000D01*
G75*
G02*
X279818000Y-188828250I0J243750D01*
G01*
X279818000Y-188340750D01*
G75*
G02*
X280061750Y-188097000I243750J0D01*
G01*
G37*
G36*
G01*
X190556000Y-291858250D02*
X190556000Y-290945750D01*
G75*
G02*
X190799750Y-290702000I243750J0D01*
G01*
X191287250Y-290702000D01*
G75*
G02*
X191531000Y-290945750I0J-243750D01*
G01*
X191531000Y-291858250D01*
G75*
G02*
X191287250Y-292102000I-243750J0D01*
G01*
X190799750Y-292102000D01*
G75*
G02*
X190556000Y-291858250I0J243750D01*
G01*
G37*
G36*
G01*
X188681000Y-291858250D02*
X188681000Y-290945750D01*
G75*
G02*
X188924750Y-290702000I243750J0D01*
G01*
X189412250Y-290702000D01*
G75*
G02*
X189656000Y-290945750I0J-243750D01*
G01*
X189656000Y-291858250D01*
G75*
G02*
X189412250Y-292102000I-243750J0D01*
G01*
X188924750Y-292102000D01*
G75*
G02*
X188681000Y-291858250I0J243750D01*
G01*
G37*
G36*
G01*
X190556000Y-296938250D02*
X190556000Y-296025750D01*
G75*
G02*
X190799750Y-295782000I243750J0D01*
G01*
X191287250Y-295782000D01*
G75*
G02*
X191531000Y-296025750I0J-243750D01*
G01*
X191531000Y-296938250D01*
G75*
G02*
X191287250Y-297182000I-243750J0D01*
G01*
X190799750Y-297182000D01*
G75*
G02*
X190556000Y-296938250I0J243750D01*
G01*
G37*
G36*
G01*
X188681000Y-296938250D02*
X188681000Y-296025750D01*
G75*
G02*
X188924750Y-295782000I243750J0D01*
G01*
X189412250Y-295782000D01*
G75*
G02*
X189656000Y-296025750I0J-243750D01*
G01*
X189656000Y-296938250D01*
G75*
G02*
X189412250Y-297182000I-243750J0D01*
G01*
X188924750Y-297182000D01*
G75*
G02*
X188681000Y-296938250I0J243750D01*
G01*
G37*
G36*
G01*
X190556000Y-302018250D02*
X190556000Y-301105750D01*
G75*
G02*
X190799750Y-300862000I243750J0D01*
G01*
X191287250Y-300862000D01*
G75*
G02*
X191531000Y-301105750I0J-243750D01*
G01*
X191531000Y-302018250D01*
G75*
G02*
X191287250Y-302262000I-243750J0D01*
G01*
X190799750Y-302262000D01*
G75*
G02*
X190556000Y-302018250I0J243750D01*
G01*
G37*
G36*
G01*
X188681000Y-302018250D02*
X188681000Y-301105750D01*
G75*
G02*
X188924750Y-300862000I243750J0D01*
G01*
X189412250Y-300862000D01*
G75*
G02*
X189656000Y-301105750I0J-243750D01*
G01*
X189656000Y-302018250D01*
G75*
G02*
X189412250Y-302262000I-243750J0D01*
G01*
X188924750Y-302262000D01*
G75*
G02*
X188681000Y-302018250I0J243750D01*
G01*
G37*
G36*
G01*
X190556000Y-304558250D02*
X190556000Y-303645750D01*
G75*
G02*
X190799750Y-303402000I243750J0D01*
G01*
X191287250Y-303402000D01*
G75*
G02*
X191531000Y-303645750I0J-243750D01*
G01*
X191531000Y-304558250D01*
G75*
G02*
X191287250Y-304802000I-243750J0D01*
G01*
X190799750Y-304802000D01*
G75*
G02*
X190556000Y-304558250I0J243750D01*
G01*
G37*
G36*
G01*
X188681000Y-304558250D02*
X188681000Y-303645750D01*
G75*
G02*
X188924750Y-303402000I243750J0D01*
G01*
X189412250Y-303402000D01*
G75*
G02*
X189656000Y-303645750I0J-243750D01*
G01*
X189656000Y-304558250D01*
G75*
G02*
X189412250Y-304802000I-243750J0D01*
G01*
X188924750Y-304802000D01*
G75*
G02*
X188681000Y-304558250I0J243750D01*
G01*
G37*
G36*
G01*
X171220250Y-222651000D02*
X170307750Y-222651000D01*
G75*
G02*
X170064000Y-222407250I0J243750D01*
G01*
X170064000Y-221919750D01*
G75*
G02*
X170307750Y-221676000I243750J0D01*
G01*
X171220250Y-221676000D01*
G75*
G02*
X171464000Y-221919750I0J-243750D01*
G01*
X171464000Y-222407250D01*
G75*
G02*
X171220250Y-222651000I-243750J0D01*
G01*
G37*
G36*
G01*
X171220250Y-224526000D02*
X170307750Y-224526000D01*
G75*
G02*
X170064000Y-224282250I0J243750D01*
G01*
X170064000Y-223794750D01*
G75*
G02*
X170307750Y-223551000I243750J0D01*
G01*
X171220250Y-223551000D01*
G75*
G02*
X171464000Y-223794750I0J-243750D01*
G01*
X171464000Y-224282250D01*
G75*
G02*
X171220250Y-224526000I-243750J0D01*
G01*
G37*
G36*
G01*
X155980250Y-222651000D02*
X155067750Y-222651000D01*
G75*
G02*
X154824000Y-222407250I0J243750D01*
G01*
X154824000Y-221919750D01*
G75*
G02*
X155067750Y-221676000I243750J0D01*
G01*
X155980250Y-221676000D01*
G75*
G02*
X156224000Y-221919750I0J-243750D01*
G01*
X156224000Y-222407250D01*
G75*
G02*
X155980250Y-222651000I-243750J0D01*
G01*
G37*
G36*
G01*
X155980250Y-224526000D02*
X155067750Y-224526000D01*
G75*
G02*
X154824000Y-224282250I0J243750D01*
G01*
X154824000Y-223794750D01*
G75*
G02*
X155067750Y-223551000I243750J0D01*
G01*
X155980250Y-223551000D01*
G75*
G02*
X156224000Y-223794750I0J-243750D01*
G01*
X156224000Y-224282250D01*
G75*
G02*
X155980250Y-224526000I-243750J0D01*
G01*
G37*
G36*
G01*
X171271250Y-245486000D02*
X170358750Y-245486000D01*
G75*
G02*
X170115000Y-245242250I0J243750D01*
G01*
X170115000Y-244754750D01*
G75*
G02*
X170358750Y-244511000I243750J0D01*
G01*
X171271250Y-244511000D01*
G75*
G02*
X171515000Y-244754750I0J-243750D01*
G01*
X171515000Y-245242250D01*
G75*
G02*
X171271250Y-245486000I-243750J0D01*
G01*
G37*
G36*
G01*
X171271250Y-247361000D02*
X170358750Y-247361000D01*
G75*
G02*
X170115000Y-247117250I0J243750D01*
G01*
X170115000Y-246629750D01*
G75*
G02*
X170358750Y-246386000I243750J0D01*
G01*
X171271250Y-246386000D01*
G75*
G02*
X171515000Y-246629750I0J-243750D01*
G01*
X171515000Y-247117250D01*
G75*
G02*
X171271250Y-247361000I-243750J0D01*
G01*
G37*
G36*
G01*
X156031250Y-245486000D02*
X155118750Y-245486000D01*
G75*
G02*
X154875000Y-245242250I0J243750D01*
G01*
X154875000Y-244754750D01*
G75*
G02*
X155118750Y-244511000I243750J0D01*
G01*
X156031250Y-244511000D01*
G75*
G02*
X156275000Y-244754750I0J-243750D01*
G01*
X156275000Y-245242250D01*
G75*
G02*
X156031250Y-245486000I-243750J0D01*
G01*
G37*
G36*
G01*
X156031250Y-247361000D02*
X155118750Y-247361000D01*
G75*
G02*
X154875000Y-247117250I0J243750D01*
G01*
X154875000Y-246629750D01*
G75*
G02*
X155118750Y-246386000I243750J0D01*
G01*
X156031250Y-246386000D01*
G75*
G02*
X156275000Y-246629750I0J-243750D01*
G01*
X156275000Y-247117250D01*
G75*
G02*
X156031250Y-247361000I-243750J0D01*
G01*
G37*
G36*
G01*
X171271250Y-268066000D02*
X170358750Y-268066000D01*
G75*
G02*
X170115000Y-267822250I0J243750D01*
G01*
X170115000Y-267334750D01*
G75*
G02*
X170358750Y-267091000I243750J0D01*
G01*
X171271250Y-267091000D01*
G75*
G02*
X171515000Y-267334750I0J-243750D01*
G01*
X171515000Y-267822250D01*
G75*
G02*
X171271250Y-268066000I-243750J0D01*
G01*
G37*
G36*
G01*
X171271250Y-269941000D02*
X170358750Y-269941000D01*
G75*
G02*
X170115000Y-269697250I0J243750D01*
G01*
X170115000Y-269209750D01*
G75*
G02*
X170358750Y-268966000I243750J0D01*
G01*
X171271250Y-268966000D01*
G75*
G02*
X171515000Y-269209750I0J-243750D01*
G01*
X171515000Y-269697250D01*
G75*
G02*
X171271250Y-269941000I-243750J0D01*
G01*
G37*
G36*
G01*
X156031250Y-268066000D02*
X155118750Y-268066000D01*
G75*
G02*
X154875000Y-267822250I0J243750D01*
G01*
X154875000Y-267334750D01*
G75*
G02*
X155118750Y-267091000I243750J0D01*
G01*
X156031250Y-267091000D01*
G75*
G02*
X156275000Y-267334750I0J-243750D01*
G01*
X156275000Y-267822250D01*
G75*
G02*
X156031250Y-268066000I-243750J0D01*
G01*
G37*
G36*
G01*
X156031250Y-269941000D02*
X155118750Y-269941000D01*
G75*
G02*
X154875000Y-269697250I0J243750D01*
G01*
X154875000Y-269209750D01*
G75*
G02*
X155118750Y-268966000I243750J0D01*
G01*
X156031250Y-268966000D01*
G75*
G02*
X156275000Y-269209750I0J-243750D01*
G01*
X156275000Y-269697250D01*
G75*
G02*
X156031250Y-269941000I-243750J0D01*
G01*
G37*
G36*
G01*
X171322250Y-290901000D02*
X170409750Y-290901000D01*
G75*
G02*
X170166000Y-290657250I0J243750D01*
G01*
X170166000Y-290169750D01*
G75*
G02*
X170409750Y-289926000I243750J0D01*
G01*
X171322250Y-289926000D01*
G75*
G02*
X171566000Y-290169750I0J-243750D01*
G01*
X171566000Y-290657250D01*
G75*
G02*
X171322250Y-290901000I-243750J0D01*
G01*
G37*
G36*
G01*
X171322250Y-292776000D02*
X170409750Y-292776000D01*
G75*
G02*
X170166000Y-292532250I0J243750D01*
G01*
X170166000Y-292044750D01*
G75*
G02*
X170409750Y-291801000I243750J0D01*
G01*
X171322250Y-291801000D01*
G75*
G02*
X171566000Y-292044750I0J-243750D01*
G01*
X171566000Y-292532250D01*
G75*
G02*
X171322250Y-292776000I-243750J0D01*
G01*
G37*
G36*
G01*
X156082250Y-290901000D02*
X155169750Y-290901000D01*
G75*
G02*
X154926000Y-290657250I0J243750D01*
G01*
X154926000Y-290169750D01*
G75*
G02*
X155169750Y-289926000I243750J0D01*
G01*
X156082250Y-289926000D01*
G75*
G02*
X156326000Y-290169750I0J-243750D01*
G01*
X156326000Y-290657250D01*
G75*
G02*
X156082250Y-290901000I-243750J0D01*
G01*
G37*
G36*
G01*
X156082250Y-292776000D02*
X155169750Y-292776000D01*
G75*
G02*
X154926000Y-292532250I0J243750D01*
G01*
X154926000Y-292044750D01*
G75*
G02*
X155169750Y-291801000I243750J0D01*
G01*
X156082250Y-291801000D01*
G75*
G02*
X156326000Y-292044750I0J-243750D01*
G01*
X156326000Y-292532250D01*
G75*
G02*
X156082250Y-292776000I-243750J0D01*
G01*
G37*
G36*
G01*
X218958000Y-201473750D02*
X218958000Y-202386250D01*
G75*
G02*
X218714250Y-202630000I-243750J0D01*
G01*
X218226750Y-202630000D01*
G75*
G02*
X217983000Y-202386250I0J243750D01*
G01*
X217983000Y-201473750D01*
G75*
G02*
X218226750Y-201230000I243750J0D01*
G01*
X218714250Y-201230000D01*
G75*
G02*
X218958000Y-201473750I0J-243750D01*
G01*
G37*
G36*
G01*
X220833000Y-201473750D02*
X220833000Y-202386250D01*
G75*
G02*
X220589250Y-202630000I-243750J0D01*
G01*
X220101750Y-202630000D01*
G75*
G02*
X219858000Y-202386250I0J243750D01*
G01*
X219858000Y-201473750D01*
G75*
G02*
X220101750Y-201230000I243750J0D01*
G01*
X220589250Y-201230000D01*
G75*
G02*
X220833000Y-201473750I0J-243750D01*
G01*
G37*
G36*
G01*
X219858000Y-204774250D02*
X219858000Y-203861750D01*
G75*
G02*
X220101750Y-203618000I243750J0D01*
G01*
X220589250Y-203618000D01*
G75*
G02*
X220833000Y-203861750I0J-243750D01*
G01*
X220833000Y-204774250D01*
G75*
G02*
X220589250Y-205018000I-243750J0D01*
G01*
X220101750Y-205018000D01*
G75*
G02*
X219858000Y-204774250I0J243750D01*
G01*
G37*
G36*
G01*
X217983000Y-204774250D02*
X217983000Y-203861750D01*
G75*
G02*
X218226750Y-203618000I243750J0D01*
G01*
X218714250Y-203618000D01*
G75*
G02*
X218958000Y-203861750I0J-243750D01*
G01*
X218958000Y-204774250D01*
G75*
G02*
X218714250Y-205018000I-243750J0D01*
G01*
X218226750Y-205018000D01*
G75*
G02*
X217983000Y-204774250I0J243750D01*
G01*
G37*
G36*
G01*
X190166000Y-223100250D02*
X190166000Y-222187750D01*
G75*
G02*
X190409750Y-221944000I243750J0D01*
G01*
X190897250Y-221944000D01*
G75*
G02*
X191141000Y-222187750I0J-243750D01*
G01*
X191141000Y-223100250D01*
G75*
G02*
X190897250Y-223344000I-243750J0D01*
G01*
X190409750Y-223344000D01*
G75*
G02*
X190166000Y-223100250I0J243750D01*
G01*
G37*
G36*
G01*
X188291000Y-223100250D02*
X188291000Y-222187750D01*
G75*
G02*
X188534750Y-221944000I243750J0D01*
G01*
X189022250Y-221944000D01*
G75*
G02*
X189266000Y-222187750I0J-243750D01*
G01*
X189266000Y-223100250D01*
G75*
G02*
X189022250Y-223344000I-243750J0D01*
G01*
X188534750Y-223344000D01*
G75*
G02*
X188291000Y-223100250I0J243750D01*
G01*
G37*
G36*
G01*
X283514250Y-189072000D02*
X282601750Y-189072000D01*
G75*
G02*
X282358000Y-188828250I0J243750D01*
G01*
X282358000Y-188340750D01*
G75*
G02*
X282601750Y-188097000I243750J0D01*
G01*
X283514250Y-188097000D01*
G75*
G02*
X283758000Y-188340750I0J-243750D01*
G01*
X283758000Y-188828250D01*
G75*
G02*
X283514250Y-189072000I-243750J0D01*
G01*
G37*
G36*
G01*
X283514250Y-190947000D02*
X282601750Y-190947000D01*
G75*
G02*
X282358000Y-190703250I0J243750D01*
G01*
X282358000Y-190215750D01*
G75*
G02*
X282601750Y-189972000I243750J0D01*
G01*
X283514250Y-189972000D01*
G75*
G02*
X283758000Y-190215750I0J-243750D01*
G01*
X283758000Y-190703250D01*
G75*
G02*
X283514250Y-190947000I-243750J0D01*
G01*
G37*
G36*
G01*
X189266000Y-229197750D02*
X189266000Y-230110250D01*
G75*
G02*
X189022250Y-230354000I-243750J0D01*
G01*
X188534750Y-230354000D01*
G75*
G02*
X188291000Y-230110250I0J243750D01*
G01*
X188291000Y-229197750D01*
G75*
G02*
X188534750Y-228954000I243750J0D01*
G01*
X189022250Y-228954000D01*
G75*
G02*
X189266000Y-229197750I0J-243750D01*
G01*
G37*
G36*
G01*
X191141000Y-229197750D02*
X191141000Y-230110250D01*
G75*
G02*
X190897250Y-230354000I-243750J0D01*
G01*
X190409750Y-230354000D01*
G75*
G02*
X190166000Y-230110250I0J243750D01*
G01*
X190166000Y-229197750D01*
G75*
G02*
X190409750Y-228954000I243750J0D01*
G01*
X190897250Y-228954000D01*
G75*
G02*
X191141000Y-229197750I0J-243750D01*
G01*
G37*
G36*
G01*
X260488250Y-189072000D02*
X259575750Y-189072000D01*
G75*
G02*
X259332000Y-188828250I0J243750D01*
G01*
X259332000Y-188340750D01*
G75*
G02*
X259575750Y-188097000I243750J0D01*
G01*
X260488250Y-188097000D01*
G75*
G02*
X260732000Y-188340750I0J-243750D01*
G01*
X260732000Y-188828250D01*
G75*
G02*
X260488250Y-189072000I-243750J0D01*
G01*
G37*
G36*
G01*
X260488250Y-190947000D02*
X259575750Y-190947000D01*
G75*
G02*
X259332000Y-190703250I0J243750D01*
G01*
X259332000Y-190215750D01*
G75*
G02*
X259575750Y-189972000I243750J0D01*
G01*
X260488250Y-189972000D01*
G75*
G02*
X260732000Y-190215750I0J-243750D01*
G01*
X260732000Y-190703250D01*
G75*
G02*
X260488250Y-190947000I-243750J0D01*
G01*
G37*
D13*
X142723000Y-218138000D03*
X142723000Y-220138000D03*
X142723000Y-216138000D03*
X142723000Y-222138000D03*
D14*
X144973000Y-213738000D03*
X144973000Y-224538000D03*
D13*
X142723000Y-240897000D03*
X142723000Y-242897000D03*
X142723000Y-238897000D03*
X142723000Y-244897000D03*
D14*
X144973000Y-236497000D03*
X144973000Y-247297000D03*
D13*
X142773000Y-263604000D03*
X142773000Y-265604000D03*
X142773000Y-261604000D03*
X142773000Y-267604000D03*
D14*
X145023000Y-259204000D03*
X145023000Y-270004000D03*
D13*
X142824000Y-286312000D03*
X142824000Y-288312000D03*
X142824000Y-284312000D03*
X142824000Y-290312000D03*
D14*
X145074000Y-281912000D03*
X145074000Y-292712000D03*
D12*
X338668000Y-261495000D03*
X349468000Y-261495000D03*
D11*
X341068000Y-259245000D03*
X347068000Y-259245000D03*
X343068000Y-259245000D03*
X345068000Y-259245000D03*
D12*
X322539000Y-261470000D03*
X333339000Y-261470000D03*
D11*
X324939000Y-259220000D03*
X330939000Y-259220000D03*
X326939000Y-259220000D03*
X328939000Y-259220000D03*
D12*
X306461000Y-261495000D03*
X317261000Y-261495000D03*
D11*
X308861000Y-259245000D03*
X314861000Y-259245000D03*
X310861000Y-259245000D03*
X312861000Y-259245000D03*
D12*
X290218000Y-261520000D03*
X301018000Y-261520000D03*
D11*
X292618000Y-259270000D03*
X298618000Y-259270000D03*
X294618000Y-259270000D03*
X296618000Y-259270000D03*
X312277000Y-186944000D03*
X310277000Y-186944000D03*
D12*
X314677000Y-189194000D03*
X307877000Y-189194000D03*
D11*
X323834000Y-186944000D03*
X321834000Y-186944000D03*
D12*
X326234000Y-189194000D03*
X319434000Y-189194000D03*
D11*
X335391000Y-186944000D03*
X333391000Y-186944000D03*
D12*
X337791000Y-189194000D03*
X330991000Y-189194000D03*
X307877000Y-199185000D03*
X314677000Y-199185000D03*
D11*
X310277000Y-196935000D03*
X312277000Y-196935000D03*
D12*
X319434000Y-199185000D03*
X326234000Y-199185000D03*
D11*
X321834000Y-196935000D03*
X323834000Y-196935000D03*
D12*
X330991000Y-199185000D03*
X337791000Y-199185000D03*
D11*
X333391000Y-196935000D03*
X335391000Y-196935000D03*
D12*
X342675000Y-199185000D03*
X349475000Y-199185000D03*
D11*
X345075000Y-196935000D03*
X347075000Y-196935000D03*
X312277000Y-206925000D03*
X310277000Y-206925000D03*
D12*
X314677000Y-209175000D03*
X307877000Y-209175000D03*
D11*
X323834000Y-206925000D03*
X321834000Y-206925000D03*
D12*
X326234000Y-209175000D03*
X319434000Y-209175000D03*
D11*
X335391000Y-206925000D03*
X333391000Y-206925000D03*
D12*
X337791000Y-209175000D03*
X330991000Y-209175000D03*
X342675000Y-209175000D03*
X349475000Y-209175000D03*
D11*
X345075000Y-206925000D03*
X347075000Y-206925000D03*
D12*
X307877000Y-219166000D03*
X314677000Y-219166000D03*
D11*
X310277000Y-216916000D03*
X312277000Y-216916000D03*
D12*
X319434000Y-219166000D03*
X326234000Y-219166000D03*
D11*
X321834000Y-216916000D03*
X323834000Y-216916000D03*
D12*
X330991000Y-219166000D03*
X337791000Y-219166000D03*
D11*
X333391000Y-216916000D03*
X335391000Y-216916000D03*
G36*
G01*
X265021750Y-189872000D02*
X265534250Y-189872000D01*
G75*
G02*
X265753000Y-190090750I0J-218750D01*
G01*
X265753000Y-190528250D01*
G75*
G02*
X265534250Y-190747000I-218750J0D01*
G01*
X265021750Y-190747000D01*
G75*
G02*
X264803000Y-190528250I0J218750D01*
G01*
X264803000Y-190090750D01*
G75*
G02*
X265021750Y-189872000I218750J0D01*
G01*
G37*
G36*
G01*
X265021750Y-188297000D02*
X265534250Y-188297000D01*
G75*
G02*
X265753000Y-188515750I0J-218750D01*
G01*
X265753000Y-188953250D01*
G75*
G02*
X265534250Y-189172000I-218750J0D01*
G01*
X265021750Y-189172000D01*
G75*
G02*
X264803000Y-188953250I0J218750D01*
G01*
X264803000Y-188515750D01*
G75*
G02*
X265021750Y-188297000I218750J0D01*
G01*
G37*
G36*
G01*
X267561750Y-189872000D02*
X268074250Y-189872000D01*
G75*
G02*
X268293000Y-190090750I0J-218750D01*
G01*
X268293000Y-190528250D01*
G75*
G02*
X268074250Y-190747000I-218750J0D01*
G01*
X267561750Y-190747000D01*
G75*
G02*
X267343000Y-190528250I0J218750D01*
G01*
X267343000Y-190090750D01*
G75*
G02*
X267561750Y-189872000I218750J0D01*
G01*
G37*
G36*
G01*
X267561750Y-188297000D02*
X268074250Y-188297000D01*
G75*
G02*
X268293000Y-188515750I0J-218750D01*
G01*
X268293000Y-188953250D01*
G75*
G02*
X268074250Y-189172000I-218750J0D01*
G01*
X267561750Y-189172000D01*
G75*
G02*
X267343000Y-188953250I0J218750D01*
G01*
X267343000Y-188515750D01*
G75*
G02*
X267561750Y-188297000I218750J0D01*
G01*
G37*
G36*
G01*
X270101750Y-189872000D02*
X270614250Y-189872000D01*
G75*
G02*
X270833000Y-190090750I0J-218750D01*
G01*
X270833000Y-190528250D01*
G75*
G02*
X270614250Y-190747000I-218750J0D01*
G01*
X270101750Y-190747000D01*
G75*
G02*
X269883000Y-190528250I0J218750D01*
G01*
X269883000Y-190090750D01*
G75*
G02*
X270101750Y-189872000I218750J0D01*
G01*
G37*
G36*
G01*
X270101750Y-188297000D02*
X270614250Y-188297000D01*
G75*
G02*
X270833000Y-188515750I0J-218750D01*
G01*
X270833000Y-188953250D01*
G75*
G02*
X270614250Y-189172000I-218750J0D01*
G01*
X270101750Y-189172000D01*
G75*
G02*
X269883000Y-188953250I0J218750D01*
G01*
X269883000Y-188515750D01*
G75*
G02*
X270101750Y-188297000I218750J0D01*
G01*
G37*
G36*
G01*
X272641750Y-189872000D02*
X273154250Y-189872000D01*
G75*
G02*
X273373000Y-190090750I0J-218750D01*
G01*
X273373000Y-190528250D01*
G75*
G02*
X273154250Y-190747000I-218750J0D01*
G01*
X272641750Y-190747000D01*
G75*
G02*
X272423000Y-190528250I0J218750D01*
G01*
X272423000Y-190090750D01*
G75*
G02*
X272641750Y-189872000I218750J0D01*
G01*
G37*
G36*
G01*
X272641750Y-188297000D02*
X273154250Y-188297000D01*
G75*
G02*
X273373000Y-188515750I0J-218750D01*
G01*
X273373000Y-188953250D01*
G75*
G02*
X273154250Y-189172000I-218750J0D01*
G01*
X272641750Y-189172000D01*
G75*
G02*
X272423000Y-188953250I0J218750D01*
G01*
X272423000Y-188515750D01*
G75*
G02*
X272641750Y-188297000I218750J0D01*
G01*
G37*
G36*
G01*
X275181750Y-189872000D02*
X275694250Y-189872000D01*
G75*
G02*
X275913000Y-190090750I0J-218750D01*
G01*
X275913000Y-190528250D01*
G75*
G02*
X275694250Y-190747000I-218750J0D01*
G01*
X275181750Y-190747000D01*
G75*
G02*
X274963000Y-190528250I0J218750D01*
G01*
X274963000Y-190090750D01*
G75*
G02*
X275181750Y-189872000I218750J0D01*
G01*
G37*
G36*
G01*
X275181750Y-188297000D02*
X275694250Y-188297000D01*
G75*
G02*
X275913000Y-188515750I0J-218750D01*
G01*
X275913000Y-188953250D01*
G75*
G02*
X275694250Y-189172000I-218750J0D01*
G01*
X275181750Y-189172000D01*
G75*
G02*
X274963000Y-188953250I0J218750D01*
G01*
X274963000Y-188515750D01*
G75*
G02*
X275181750Y-188297000I218750J0D01*
G01*
G37*
G36*
G01*
X189620000Y-285506750D02*
X189620000Y-286019250D01*
G75*
G02*
X189401250Y-286238000I-218750J0D01*
G01*
X188963750Y-286238000D01*
G75*
G02*
X188745000Y-286019250I0J218750D01*
G01*
X188745000Y-285506750D01*
G75*
G02*
X188963750Y-285288000I218750J0D01*
G01*
X189401250Y-285288000D01*
G75*
G02*
X189620000Y-285506750I0J-218750D01*
G01*
G37*
G36*
G01*
X191195000Y-285506750D02*
X191195000Y-286019250D01*
G75*
G02*
X190976250Y-286238000I-218750J0D01*
G01*
X190538750Y-286238000D01*
G75*
G02*
X190320000Y-286019250I0J218750D01*
G01*
X190320000Y-285506750D01*
G75*
G02*
X190538750Y-285288000I218750J0D01*
G01*
X190976250Y-285288000D01*
G75*
G02*
X191195000Y-285506750I0J-218750D01*
G01*
G37*
G36*
G01*
X189620000Y-281777750D02*
X189620000Y-282290250D01*
G75*
G02*
X189401250Y-282509000I-218750J0D01*
G01*
X188963750Y-282509000D01*
G75*
G02*
X188745000Y-282290250I0J218750D01*
G01*
X188745000Y-281777750D01*
G75*
G02*
X188963750Y-281559000I218750J0D01*
G01*
X189401250Y-281559000D01*
G75*
G02*
X189620000Y-281777750I0J-218750D01*
G01*
G37*
G36*
G01*
X191195000Y-281777750D02*
X191195000Y-282290250D01*
G75*
G02*
X190976250Y-282509000I-218750J0D01*
G01*
X190538750Y-282509000D01*
G75*
G02*
X190320000Y-282290250I0J218750D01*
G01*
X190320000Y-281777750D01*
G75*
G02*
X190538750Y-281559000I218750J0D01*
G01*
X190976250Y-281559000D01*
G75*
G02*
X191195000Y-281777750I0J-218750D01*
G01*
G37*
G36*
G01*
X189620000Y-278049750D02*
X189620000Y-278562250D01*
G75*
G02*
X189401250Y-278781000I-218750J0D01*
G01*
X188963750Y-278781000D01*
G75*
G02*
X188745000Y-278562250I0J218750D01*
G01*
X188745000Y-278049750D01*
G75*
G02*
X188963750Y-277831000I218750J0D01*
G01*
X189401250Y-277831000D01*
G75*
G02*
X189620000Y-278049750I0J-218750D01*
G01*
G37*
G36*
G01*
X191195000Y-278049750D02*
X191195000Y-278562250D01*
G75*
G02*
X190976250Y-278781000I-218750J0D01*
G01*
X190538750Y-278781000D01*
G75*
G02*
X190320000Y-278562250I0J218750D01*
G01*
X190320000Y-278049750D01*
G75*
G02*
X190538750Y-277831000I218750J0D01*
G01*
X190976250Y-277831000D01*
G75*
G02*
X191195000Y-278049750I0J-218750D01*
G01*
G37*
G36*
G01*
X189620000Y-274320750D02*
X189620000Y-274833250D01*
G75*
G02*
X189401250Y-275052000I-218750J0D01*
G01*
X188963750Y-275052000D01*
G75*
G02*
X188745000Y-274833250I0J218750D01*
G01*
X188745000Y-274320750D01*
G75*
G02*
X188963750Y-274102000I218750J0D01*
G01*
X189401250Y-274102000D01*
G75*
G02*
X189620000Y-274320750I0J-218750D01*
G01*
G37*
G36*
G01*
X191195000Y-274320750D02*
X191195000Y-274833250D01*
G75*
G02*
X190976250Y-275052000I-218750J0D01*
G01*
X190538750Y-275052000D01*
G75*
G02*
X190320000Y-274833250I0J218750D01*
G01*
X190320000Y-274320750D01*
G75*
G02*
X190538750Y-274102000I218750J0D01*
G01*
X190976250Y-274102000D01*
G75*
G02*
X191195000Y-274320750I0J-218750D01*
G01*
G37*
G36*
G01*
X189620000Y-270591750D02*
X189620000Y-271104250D01*
G75*
G02*
X189401250Y-271323000I-218750J0D01*
G01*
X188963750Y-271323000D01*
G75*
G02*
X188745000Y-271104250I0J218750D01*
G01*
X188745000Y-270591750D01*
G75*
G02*
X188963750Y-270373000I218750J0D01*
G01*
X189401250Y-270373000D01*
G75*
G02*
X189620000Y-270591750I0J-218750D01*
G01*
G37*
G36*
G01*
X191195000Y-270591750D02*
X191195000Y-271104250D01*
G75*
G02*
X190976250Y-271323000I-218750J0D01*
G01*
X190538750Y-271323000D01*
G75*
G02*
X190320000Y-271104250I0J218750D01*
G01*
X190320000Y-270591750D01*
G75*
G02*
X190538750Y-270373000I218750J0D01*
G01*
X190976250Y-270373000D01*
G75*
G02*
X191195000Y-270591750I0J-218750D01*
G01*
G37*
G36*
G01*
X189620000Y-266863750D02*
X189620000Y-267376250D01*
G75*
G02*
X189401250Y-267595000I-218750J0D01*
G01*
X188963750Y-267595000D01*
G75*
G02*
X188745000Y-267376250I0J218750D01*
G01*
X188745000Y-266863750D01*
G75*
G02*
X188963750Y-266645000I218750J0D01*
G01*
X189401250Y-266645000D01*
G75*
G02*
X189620000Y-266863750I0J-218750D01*
G01*
G37*
G36*
G01*
X191195000Y-266863750D02*
X191195000Y-267376250D01*
G75*
G02*
X190976250Y-267595000I-218750J0D01*
G01*
X190538750Y-267595000D01*
G75*
G02*
X190320000Y-267376250I0J218750D01*
G01*
X190320000Y-266863750D01*
G75*
G02*
X190538750Y-266645000I218750J0D01*
G01*
X190976250Y-266645000D01*
G75*
G02*
X191195000Y-266863750I0J-218750D01*
G01*
G37*
G36*
G01*
X189366000Y-252539750D02*
X189366000Y-253052250D01*
G75*
G02*
X189147250Y-253271000I-218750J0D01*
G01*
X188709750Y-253271000D01*
G75*
G02*
X188491000Y-253052250I0J218750D01*
G01*
X188491000Y-252539750D01*
G75*
G02*
X188709750Y-252321000I218750J0D01*
G01*
X189147250Y-252321000D01*
G75*
G02*
X189366000Y-252539750I0J-218750D01*
G01*
G37*
G36*
G01*
X190941000Y-252539750D02*
X190941000Y-253052250D01*
G75*
G02*
X190722250Y-253271000I-218750J0D01*
G01*
X190284750Y-253271000D01*
G75*
G02*
X190066000Y-253052250I0J218750D01*
G01*
X190066000Y-252539750D01*
G75*
G02*
X190284750Y-252321000I218750J0D01*
G01*
X190722250Y-252321000D01*
G75*
G02*
X190941000Y-252539750I0J-218750D01*
G01*
G37*
G36*
G01*
X189366000Y-249333750D02*
X189366000Y-249846250D01*
G75*
G02*
X189147250Y-250065000I-218750J0D01*
G01*
X188709750Y-250065000D01*
G75*
G02*
X188491000Y-249846250I0J218750D01*
G01*
X188491000Y-249333750D01*
G75*
G02*
X188709750Y-249115000I218750J0D01*
G01*
X189147250Y-249115000D01*
G75*
G02*
X189366000Y-249333750I0J-218750D01*
G01*
G37*
G36*
G01*
X190941000Y-249333750D02*
X190941000Y-249846250D01*
G75*
G02*
X190722250Y-250065000I-218750J0D01*
G01*
X190284750Y-250065000D01*
G75*
G02*
X190066000Y-249846250I0J218750D01*
G01*
X190066000Y-249333750D01*
G75*
G02*
X190284750Y-249115000I218750J0D01*
G01*
X190722250Y-249115000D01*
G75*
G02*
X190941000Y-249333750I0J-218750D01*
G01*
G37*
G36*
G01*
X189366000Y-246127750D02*
X189366000Y-246640250D01*
G75*
G02*
X189147250Y-246859000I-218750J0D01*
G01*
X188709750Y-246859000D01*
G75*
G02*
X188491000Y-246640250I0J218750D01*
G01*
X188491000Y-246127750D01*
G75*
G02*
X188709750Y-245909000I218750J0D01*
G01*
X189147250Y-245909000D01*
G75*
G02*
X189366000Y-246127750I0J-218750D01*
G01*
G37*
G36*
G01*
X190941000Y-246127750D02*
X190941000Y-246640250D01*
G75*
G02*
X190722250Y-246859000I-218750J0D01*
G01*
X190284750Y-246859000D01*
G75*
G02*
X190066000Y-246640250I0J218750D01*
G01*
X190066000Y-246127750D01*
G75*
G02*
X190284750Y-245909000I218750J0D01*
G01*
X190722250Y-245909000D01*
G75*
G02*
X190941000Y-246127750I0J-218750D01*
G01*
G37*
G36*
G01*
X189366000Y-242921750D02*
X189366000Y-243434250D01*
G75*
G02*
X189147250Y-243653000I-218750J0D01*
G01*
X188709750Y-243653000D01*
G75*
G02*
X188491000Y-243434250I0J218750D01*
G01*
X188491000Y-242921750D01*
G75*
G02*
X188709750Y-242703000I218750J0D01*
G01*
X189147250Y-242703000D01*
G75*
G02*
X189366000Y-242921750I0J-218750D01*
G01*
G37*
G36*
G01*
X190941000Y-242921750D02*
X190941000Y-243434250D01*
G75*
G02*
X190722250Y-243653000I-218750J0D01*
G01*
X190284750Y-243653000D01*
G75*
G02*
X190066000Y-243434250I0J218750D01*
G01*
X190066000Y-242921750D01*
G75*
G02*
X190284750Y-242703000I218750J0D01*
G01*
X190722250Y-242703000D01*
G75*
G02*
X190941000Y-242921750I0J-218750D01*
G01*
G37*
G36*
G01*
X189366000Y-239715750D02*
X189366000Y-240228250D01*
G75*
G02*
X189147250Y-240447000I-218750J0D01*
G01*
X188709750Y-240447000D01*
G75*
G02*
X188491000Y-240228250I0J218750D01*
G01*
X188491000Y-239715750D01*
G75*
G02*
X188709750Y-239497000I218750J0D01*
G01*
X189147250Y-239497000D01*
G75*
G02*
X189366000Y-239715750I0J-218750D01*
G01*
G37*
G36*
G01*
X190941000Y-239715750D02*
X190941000Y-240228250D01*
G75*
G02*
X190722250Y-240447000I-218750J0D01*
G01*
X190284750Y-240447000D01*
G75*
G02*
X190066000Y-240228250I0J218750D01*
G01*
X190066000Y-239715750D01*
G75*
G02*
X190284750Y-239497000I218750J0D01*
G01*
X190722250Y-239497000D01*
G75*
G02*
X190941000Y-239715750I0J-218750D01*
G01*
G37*
G36*
G01*
X189366000Y-236509750D02*
X189366000Y-237022250D01*
G75*
G02*
X189147250Y-237241000I-218750J0D01*
G01*
X188709750Y-237241000D01*
G75*
G02*
X188491000Y-237022250I0J218750D01*
G01*
X188491000Y-236509750D01*
G75*
G02*
X188709750Y-236291000I218750J0D01*
G01*
X189147250Y-236291000D01*
G75*
G02*
X189366000Y-236509750I0J-218750D01*
G01*
G37*
G36*
G01*
X190941000Y-236509750D02*
X190941000Y-237022250D01*
G75*
G02*
X190722250Y-237241000I-218750J0D01*
G01*
X190284750Y-237241000D01*
G75*
G02*
X190066000Y-237022250I0J218750D01*
G01*
X190066000Y-236509750D01*
G75*
G02*
X190284750Y-236291000I218750J0D01*
G01*
X190722250Y-236291000D01*
G75*
G02*
X190941000Y-236509750I0J-218750D01*
G01*
G37*
G36*
G01*
X182595000Y-207838250D02*
X182595000Y-207325750D01*
G75*
G02*
X182813750Y-207107000I218750J0D01*
G01*
X183251250Y-207107000D01*
G75*
G02*
X183470000Y-207325750I0J-218750D01*
G01*
X183470000Y-207838250D01*
G75*
G02*
X183251250Y-208057000I-218750J0D01*
G01*
X182813750Y-208057000D01*
G75*
G02*
X182595000Y-207838250I0J218750D01*
G01*
G37*
G36*
G01*
X181020000Y-207838250D02*
X181020000Y-207325750D01*
G75*
G02*
X181238750Y-207107000I218750J0D01*
G01*
X181676250Y-207107000D01*
G75*
G02*
X181895000Y-207325750I0J-218750D01*
G01*
X181895000Y-207838250D01*
G75*
G02*
X181676250Y-208057000I-218750J0D01*
G01*
X181238750Y-208057000D01*
G75*
G02*
X181020000Y-207838250I0J218750D01*
G01*
G37*
G36*
G01*
X198049000Y-280349750D02*
X198049000Y-280862250D01*
G75*
G02*
X197830250Y-281081000I-218750J0D01*
G01*
X197392750Y-281081000D01*
G75*
G02*
X197174000Y-280862250I0J218750D01*
G01*
X197174000Y-280349750D01*
G75*
G02*
X197392750Y-280131000I218750J0D01*
G01*
X197830250Y-280131000D01*
G75*
G02*
X198049000Y-280349750I0J-218750D01*
G01*
G37*
G36*
G01*
X199624000Y-280349750D02*
X199624000Y-280862250D01*
G75*
G02*
X199405250Y-281081000I-218750J0D01*
G01*
X198967750Y-281081000D01*
G75*
G02*
X198749000Y-280862250I0J218750D01*
G01*
X198749000Y-280349750D01*
G75*
G02*
X198967750Y-280131000I218750J0D01*
G01*
X199405250Y-280131000D01*
G75*
G02*
X199624000Y-280349750I0J-218750D01*
G01*
G37*
G36*
G01*
X198100000Y-276844750D02*
X198100000Y-277357250D01*
G75*
G02*
X197881250Y-277576000I-218750J0D01*
G01*
X197443750Y-277576000D01*
G75*
G02*
X197225000Y-277357250I0J218750D01*
G01*
X197225000Y-276844750D01*
G75*
G02*
X197443750Y-276626000I218750J0D01*
G01*
X197881250Y-276626000D01*
G75*
G02*
X198100000Y-276844750I0J-218750D01*
G01*
G37*
G36*
G01*
X199675000Y-276844750D02*
X199675000Y-277357250D01*
G75*
G02*
X199456250Y-277576000I-218750J0D01*
G01*
X199018750Y-277576000D01*
G75*
G02*
X198800000Y-277357250I0J218750D01*
G01*
X198800000Y-276844750D01*
G75*
G02*
X199018750Y-276626000I218750J0D01*
G01*
X199456250Y-276626000D01*
G75*
G02*
X199675000Y-276844750I0J-218750D01*
G01*
G37*
G36*
G01*
X198100000Y-273555750D02*
X198100000Y-274068250D01*
G75*
G02*
X197881250Y-274287000I-218750J0D01*
G01*
X197443750Y-274287000D01*
G75*
G02*
X197225000Y-274068250I0J218750D01*
G01*
X197225000Y-273555750D01*
G75*
G02*
X197443750Y-273337000I218750J0D01*
G01*
X197881250Y-273337000D01*
G75*
G02*
X198100000Y-273555750I0J-218750D01*
G01*
G37*
G36*
G01*
X199675000Y-273555750D02*
X199675000Y-274068250D01*
G75*
G02*
X199456250Y-274287000I-218750J0D01*
G01*
X199018750Y-274287000D01*
G75*
G02*
X198800000Y-274068250I0J218750D01*
G01*
X198800000Y-273555750D01*
G75*
G02*
X199018750Y-273337000I218750J0D01*
G01*
X199456250Y-273337000D01*
G75*
G02*
X199675000Y-273555750I0J-218750D01*
G01*
G37*
G36*
G01*
X165940250Y-222751000D02*
X165427750Y-222751000D01*
G75*
G02*
X165209000Y-222532250I0J218750D01*
G01*
X165209000Y-222094750D01*
G75*
G02*
X165427750Y-221876000I218750J0D01*
G01*
X165940250Y-221876000D01*
G75*
G02*
X166159000Y-222094750I0J-218750D01*
G01*
X166159000Y-222532250D01*
G75*
G02*
X165940250Y-222751000I-218750J0D01*
G01*
G37*
G36*
G01*
X165940250Y-224326000D02*
X165427750Y-224326000D01*
G75*
G02*
X165209000Y-224107250I0J218750D01*
G01*
X165209000Y-223669750D01*
G75*
G02*
X165427750Y-223451000I218750J0D01*
G01*
X165940250Y-223451000D01*
G75*
G02*
X166159000Y-223669750I0J-218750D01*
G01*
X166159000Y-224107250D01*
G75*
G02*
X165940250Y-224326000I-218750J0D01*
G01*
G37*
G36*
G01*
X163400250Y-222751000D02*
X162887750Y-222751000D01*
G75*
G02*
X162669000Y-222532250I0J218750D01*
G01*
X162669000Y-222094750D01*
G75*
G02*
X162887750Y-221876000I218750J0D01*
G01*
X163400250Y-221876000D01*
G75*
G02*
X163619000Y-222094750I0J-218750D01*
G01*
X163619000Y-222532250D01*
G75*
G02*
X163400250Y-222751000I-218750J0D01*
G01*
G37*
G36*
G01*
X163400250Y-224326000D02*
X162887750Y-224326000D01*
G75*
G02*
X162669000Y-224107250I0J218750D01*
G01*
X162669000Y-223669750D01*
G75*
G02*
X162887750Y-223451000I218750J0D01*
G01*
X163400250Y-223451000D01*
G75*
G02*
X163619000Y-223669750I0J-218750D01*
G01*
X163619000Y-224107250D01*
G75*
G02*
X163400250Y-224326000I-218750J0D01*
G01*
G37*
G36*
G01*
X160860250Y-222751000D02*
X160347750Y-222751000D01*
G75*
G02*
X160129000Y-222532250I0J218750D01*
G01*
X160129000Y-222094750D01*
G75*
G02*
X160347750Y-221876000I218750J0D01*
G01*
X160860250Y-221876000D01*
G75*
G02*
X161079000Y-222094750I0J-218750D01*
G01*
X161079000Y-222532250D01*
G75*
G02*
X160860250Y-222751000I-218750J0D01*
G01*
G37*
G36*
G01*
X160860250Y-224326000D02*
X160347750Y-224326000D01*
G75*
G02*
X160129000Y-224107250I0J218750D01*
G01*
X160129000Y-223669750D01*
G75*
G02*
X160347750Y-223451000I218750J0D01*
G01*
X160860250Y-223451000D01*
G75*
G02*
X161079000Y-223669750I0J-218750D01*
G01*
X161079000Y-224107250D01*
G75*
G02*
X160860250Y-224326000I-218750J0D01*
G01*
G37*
G36*
G01*
X158320250Y-222751000D02*
X157807750Y-222751000D01*
G75*
G02*
X157589000Y-222532250I0J218750D01*
G01*
X157589000Y-222094750D01*
G75*
G02*
X157807750Y-221876000I218750J0D01*
G01*
X158320250Y-221876000D01*
G75*
G02*
X158539000Y-222094750I0J-218750D01*
G01*
X158539000Y-222532250D01*
G75*
G02*
X158320250Y-222751000I-218750J0D01*
G01*
G37*
G36*
G01*
X158320250Y-224326000D02*
X157807750Y-224326000D01*
G75*
G02*
X157589000Y-224107250I0J218750D01*
G01*
X157589000Y-223669750D01*
G75*
G02*
X157807750Y-223451000I218750J0D01*
G01*
X158320250Y-223451000D01*
G75*
G02*
X158539000Y-223669750I0J-218750D01*
G01*
X158539000Y-224107250D01*
G75*
G02*
X158320250Y-224326000I-218750J0D01*
G01*
G37*
G36*
G01*
X165991250Y-245586000D02*
X165478750Y-245586000D01*
G75*
G02*
X165260000Y-245367250I0J218750D01*
G01*
X165260000Y-244929750D01*
G75*
G02*
X165478750Y-244711000I218750J0D01*
G01*
X165991250Y-244711000D01*
G75*
G02*
X166210000Y-244929750I0J-218750D01*
G01*
X166210000Y-245367250D01*
G75*
G02*
X165991250Y-245586000I-218750J0D01*
G01*
G37*
G36*
G01*
X165991250Y-247161000D02*
X165478750Y-247161000D01*
G75*
G02*
X165260000Y-246942250I0J218750D01*
G01*
X165260000Y-246504750D01*
G75*
G02*
X165478750Y-246286000I218750J0D01*
G01*
X165991250Y-246286000D01*
G75*
G02*
X166210000Y-246504750I0J-218750D01*
G01*
X166210000Y-246942250D01*
G75*
G02*
X165991250Y-247161000I-218750J0D01*
G01*
G37*
G36*
G01*
X163451250Y-245586000D02*
X162938750Y-245586000D01*
G75*
G02*
X162720000Y-245367250I0J218750D01*
G01*
X162720000Y-244929750D01*
G75*
G02*
X162938750Y-244711000I218750J0D01*
G01*
X163451250Y-244711000D01*
G75*
G02*
X163670000Y-244929750I0J-218750D01*
G01*
X163670000Y-245367250D01*
G75*
G02*
X163451250Y-245586000I-218750J0D01*
G01*
G37*
G36*
G01*
X163451250Y-247161000D02*
X162938750Y-247161000D01*
G75*
G02*
X162720000Y-246942250I0J218750D01*
G01*
X162720000Y-246504750D01*
G75*
G02*
X162938750Y-246286000I218750J0D01*
G01*
X163451250Y-246286000D01*
G75*
G02*
X163670000Y-246504750I0J-218750D01*
G01*
X163670000Y-246942250D01*
G75*
G02*
X163451250Y-247161000I-218750J0D01*
G01*
G37*
G36*
G01*
X160911250Y-245586000D02*
X160398750Y-245586000D01*
G75*
G02*
X160180000Y-245367250I0J218750D01*
G01*
X160180000Y-244929750D01*
G75*
G02*
X160398750Y-244711000I218750J0D01*
G01*
X160911250Y-244711000D01*
G75*
G02*
X161130000Y-244929750I0J-218750D01*
G01*
X161130000Y-245367250D01*
G75*
G02*
X160911250Y-245586000I-218750J0D01*
G01*
G37*
G36*
G01*
X160911250Y-247161000D02*
X160398750Y-247161000D01*
G75*
G02*
X160180000Y-246942250I0J218750D01*
G01*
X160180000Y-246504750D01*
G75*
G02*
X160398750Y-246286000I218750J0D01*
G01*
X160911250Y-246286000D01*
G75*
G02*
X161130000Y-246504750I0J-218750D01*
G01*
X161130000Y-246942250D01*
G75*
G02*
X160911250Y-247161000I-218750J0D01*
G01*
G37*
G36*
G01*
X158371250Y-245586000D02*
X157858750Y-245586000D01*
G75*
G02*
X157640000Y-245367250I0J218750D01*
G01*
X157640000Y-244929750D01*
G75*
G02*
X157858750Y-244711000I218750J0D01*
G01*
X158371250Y-244711000D01*
G75*
G02*
X158590000Y-244929750I0J-218750D01*
G01*
X158590000Y-245367250D01*
G75*
G02*
X158371250Y-245586000I-218750J0D01*
G01*
G37*
G36*
G01*
X158371250Y-247161000D02*
X157858750Y-247161000D01*
G75*
G02*
X157640000Y-246942250I0J218750D01*
G01*
X157640000Y-246504750D01*
G75*
G02*
X157858750Y-246286000I218750J0D01*
G01*
X158371250Y-246286000D01*
G75*
G02*
X158590000Y-246504750I0J-218750D01*
G01*
X158590000Y-246942250D01*
G75*
G02*
X158371250Y-247161000I-218750J0D01*
G01*
G37*
G36*
G01*
X165991250Y-268166000D02*
X165478750Y-268166000D01*
G75*
G02*
X165260000Y-267947250I0J218750D01*
G01*
X165260000Y-267509750D01*
G75*
G02*
X165478750Y-267291000I218750J0D01*
G01*
X165991250Y-267291000D01*
G75*
G02*
X166210000Y-267509750I0J-218750D01*
G01*
X166210000Y-267947250D01*
G75*
G02*
X165991250Y-268166000I-218750J0D01*
G01*
G37*
G36*
G01*
X165991250Y-269741000D02*
X165478750Y-269741000D01*
G75*
G02*
X165260000Y-269522250I0J218750D01*
G01*
X165260000Y-269084750D01*
G75*
G02*
X165478750Y-268866000I218750J0D01*
G01*
X165991250Y-268866000D01*
G75*
G02*
X166210000Y-269084750I0J-218750D01*
G01*
X166210000Y-269522250D01*
G75*
G02*
X165991250Y-269741000I-218750J0D01*
G01*
G37*
G36*
G01*
X163451250Y-268166000D02*
X162938750Y-268166000D01*
G75*
G02*
X162720000Y-267947250I0J218750D01*
G01*
X162720000Y-267509750D01*
G75*
G02*
X162938750Y-267291000I218750J0D01*
G01*
X163451250Y-267291000D01*
G75*
G02*
X163670000Y-267509750I0J-218750D01*
G01*
X163670000Y-267947250D01*
G75*
G02*
X163451250Y-268166000I-218750J0D01*
G01*
G37*
G36*
G01*
X163451250Y-269741000D02*
X162938750Y-269741000D01*
G75*
G02*
X162720000Y-269522250I0J218750D01*
G01*
X162720000Y-269084750D01*
G75*
G02*
X162938750Y-268866000I218750J0D01*
G01*
X163451250Y-268866000D01*
G75*
G02*
X163670000Y-269084750I0J-218750D01*
G01*
X163670000Y-269522250D01*
G75*
G02*
X163451250Y-269741000I-218750J0D01*
G01*
G37*
G36*
G01*
X160911250Y-268166000D02*
X160398750Y-268166000D01*
G75*
G02*
X160180000Y-267947250I0J218750D01*
G01*
X160180000Y-267509750D01*
G75*
G02*
X160398750Y-267291000I218750J0D01*
G01*
X160911250Y-267291000D01*
G75*
G02*
X161130000Y-267509750I0J-218750D01*
G01*
X161130000Y-267947250D01*
G75*
G02*
X160911250Y-268166000I-218750J0D01*
G01*
G37*
G36*
G01*
X160911250Y-269741000D02*
X160398750Y-269741000D01*
G75*
G02*
X160180000Y-269522250I0J218750D01*
G01*
X160180000Y-269084750D01*
G75*
G02*
X160398750Y-268866000I218750J0D01*
G01*
X160911250Y-268866000D01*
G75*
G02*
X161130000Y-269084750I0J-218750D01*
G01*
X161130000Y-269522250D01*
G75*
G02*
X160911250Y-269741000I-218750J0D01*
G01*
G37*
G36*
G01*
X157858750Y-268866000D02*
X158371250Y-268866000D01*
G75*
G02*
X158590000Y-269084750I0J-218750D01*
G01*
X158590000Y-269522250D01*
G75*
G02*
X158371250Y-269741000I-218750J0D01*
G01*
X157858750Y-269741000D01*
G75*
G02*
X157640000Y-269522250I0J218750D01*
G01*
X157640000Y-269084750D01*
G75*
G02*
X157858750Y-268866000I218750J0D01*
G01*
G37*
G36*
G01*
X157858750Y-267291000D02*
X158371250Y-267291000D01*
G75*
G02*
X158590000Y-267509750I0J-218750D01*
G01*
X158590000Y-267947250D01*
G75*
G02*
X158371250Y-268166000I-218750J0D01*
G01*
X157858750Y-268166000D01*
G75*
G02*
X157640000Y-267947250I0J218750D01*
G01*
X157640000Y-267509750D01*
G75*
G02*
X157858750Y-267291000I218750J0D01*
G01*
G37*
G36*
G01*
X166042250Y-291001000D02*
X165529750Y-291001000D01*
G75*
G02*
X165311000Y-290782250I0J218750D01*
G01*
X165311000Y-290344750D01*
G75*
G02*
X165529750Y-290126000I218750J0D01*
G01*
X166042250Y-290126000D01*
G75*
G02*
X166261000Y-290344750I0J-218750D01*
G01*
X166261000Y-290782250D01*
G75*
G02*
X166042250Y-291001000I-218750J0D01*
G01*
G37*
G36*
G01*
X166042250Y-292576000D02*
X165529750Y-292576000D01*
G75*
G02*
X165311000Y-292357250I0J218750D01*
G01*
X165311000Y-291919750D01*
G75*
G02*
X165529750Y-291701000I218750J0D01*
G01*
X166042250Y-291701000D01*
G75*
G02*
X166261000Y-291919750I0J-218750D01*
G01*
X166261000Y-292357250D01*
G75*
G02*
X166042250Y-292576000I-218750J0D01*
G01*
G37*
G36*
G01*
X162989750Y-291853000D02*
X163502250Y-291853000D01*
G75*
G02*
X163721000Y-292071750I0J-218750D01*
G01*
X163721000Y-292509250D01*
G75*
G02*
X163502250Y-292728000I-218750J0D01*
G01*
X162989750Y-292728000D01*
G75*
G02*
X162771000Y-292509250I0J218750D01*
G01*
X162771000Y-292071750D01*
G75*
G02*
X162989750Y-291853000I218750J0D01*
G01*
G37*
G36*
G01*
X162989750Y-290278000D02*
X163502250Y-290278000D01*
G75*
G02*
X163721000Y-290496750I0J-218750D01*
G01*
X163721000Y-290934250D01*
G75*
G02*
X163502250Y-291153000I-218750J0D01*
G01*
X162989750Y-291153000D01*
G75*
G02*
X162771000Y-290934250I0J218750D01*
G01*
X162771000Y-290496750D01*
G75*
G02*
X162989750Y-290278000I218750J0D01*
G01*
G37*
G36*
G01*
X160962250Y-291001000D02*
X160449750Y-291001000D01*
G75*
G02*
X160231000Y-290782250I0J218750D01*
G01*
X160231000Y-290344750D01*
G75*
G02*
X160449750Y-290126000I218750J0D01*
G01*
X160962250Y-290126000D01*
G75*
G02*
X161181000Y-290344750I0J-218750D01*
G01*
X161181000Y-290782250D01*
G75*
G02*
X160962250Y-291001000I-218750J0D01*
G01*
G37*
G36*
G01*
X160962250Y-292576000D02*
X160449750Y-292576000D01*
G75*
G02*
X160231000Y-292357250I0J218750D01*
G01*
X160231000Y-291919750D01*
G75*
G02*
X160449750Y-291701000I218750J0D01*
G01*
X160962250Y-291701000D01*
G75*
G02*
X161181000Y-291919750I0J-218750D01*
G01*
X161181000Y-292357250D01*
G75*
G02*
X160962250Y-292576000I-218750J0D01*
G01*
G37*
G36*
G01*
X158422250Y-291001000D02*
X157909750Y-291001000D01*
G75*
G02*
X157691000Y-290782250I0J218750D01*
G01*
X157691000Y-290344750D01*
G75*
G02*
X157909750Y-290126000I218750J0D01*
G01*
X158422250Y-290126000D01*
G75*
G02*
X158641000Y-290344750I0J-218750D01*
G01*
X158641000Y-290782250D01*
G75*
G02*
X158422250Y-291001000I-218750J0D01*
G01*
G37*
G36*
G01*
X158422250Y-292576000D02*
X157909750Y-292576000D01*
G75*
G02*
X157691000Y-292357250I0J218750D01*
G01*
X157691000Y-291919750D01*
G75*
G02*
X157909750Y-291701000I218750J0D01*
G01*
X158422250Y-291701000D01*
G75*
G02*
X158641000Y-291919750I0J-218750D01*
G01*
X158641000Y-292357250D01*
G75*
G02*
X158422250Y-292576000I-218750J0D01*
G01*
G37*
G36*
G01*
X344405000Y-229300250D02*
X344405000Y-228787750D01*
G75*
G02*
X344623750Y-228569000I218750J0D01*
G01*
X345061250Y-228569000D01*
G75*
G02*
X345280000Y-228787750I0J-218750D01*
G01*
X345280000Y-229300250D01*
G75*
G02*
X345061250Y-229519000I-218750J0D01*
G01*
X344623750Y-229519000D01*
G75*
G02*
X344405000Y-229300250I0J218750D01*
G01*
G37*
G36*
G01*
X345980000Y-229300250D02*
X345980000Y-228787750D01*
G75*
G02*
X346198750Y-228569000I218750J0D01*
G01*
X346636250Y-228569000D01*
G75*
G02*
X346855000Y-228787750I0J-218750D01*
G01*
X346855000Y-229300250D01*
G75*
G02*
X346636250Y-229519000I-218750J0D01*
G01*
X346198750Y-229519000D01*
G75*
G02*
X345980000Y-229300250I0J218750D01*
G01*
G37*
G36*
G01*
X338325750Y-227693000D02*
X338838250Y-227693000D01*
G75*
G02*
X339057000Y-227911750I0J-218750D01*
G01*
X339057000Y-228349250D01*
G75*
G02*
X338838250Y-228568000I-218750J0D01*
G01*
X338325750Y-228568000D01*
G75*
G02*
X338107000Y-228349250I0J218750D01*
G01*
X338107000Y-227911750D01*
G75*
G02*
X338325750Y-227693000I218750J0D01*
G01*
G37*
G36*
G01*
X338325750Y-229268000D02*
X338838250Y-229268000D01*
G75*
G02*
X339057000Y-229486750I0J-218750D01*
G01*
X339057000Y-229924250D01*
G75*
G02*
X338838250Y-230143000I-218750J0D01*
G01*
X338325750Y-230143000D01*
G75*
G02*
X338107000Y-229924250I0J218750D01*
G01*
X338107000Y-229486750D01*
G75*
G02*
X338325750Y-229268000I218750J0D01*
G01*
G37*
G36*
G01*
X342755000Y-235778250D02*
X342755000Y-235265750D01*
G75*
G02*
X342973750Y-235047000I218750J0D01*
G01*
X343411250Y-235047000D01*
G75*
G02*
X343630000Y-235265750I0J-218750D01*
G01*
X343630000Y-235778250D01*
G75*
G02*
X343411250Y-235997000I-218750J0D01*
G01*
X342973750Y-235997000D01*
G75*
G02*
X342755000Y-235778250I0J218750D01*
G01*
G37*
G36*
G01*
X344330000Y-235778250D02*
X344330000Y-235265750D01*
G75*
G02*
X344548750Y-235047000I218750J0D01*
G01*
X344986250Y-235047000D01*
G75*
G02*
X345205000Y-235265750I0J-218750D01*
G01*
X345205000Y-235778250D01*
G75*
G02*
X344986250Y-235997000I-218750J0D01*
G01*
X344548750Y-235997000D01*
G75*
G02*
X344330000Y-235778250I0J218750D01*
G01*
G37*
G36*
G01*
X346450000Y-232717250D02*
X346450000Y-232204750D01*
G75*
G02*
X346668750Y-231986000I218750J0D01*
G01*
X347106250Y-231986000D01*
G75*
G02*
X347325000Y-232204750I0J-218750D01*
G01*
X347325000Y-232717250D01*
G75*
G02*
X347106250Y-232936000I-218750J0D01*
G01*
X346668750Y-232936000D01*
G75*
G02*
X346450000Y-232717250I0J218750D01*
G01*
G37*
G36*
G01*
X348025000Y-232717250D02*
X348025000Y-232204750D01*
G75*
G02*
X348243750Y-231986000I218750J0D01*
G01*
X348681250Y-231986000D01*
G75*
G02*
X348900000Y-232204750I0J-218750D01*
G01*
X348900000Y-232717250D01*
G75*
G02*
X348681250Y-232936000I-218750J0D01*
G01*
X348243750Y-232936000D01*
G75*
G02*
X348025000Y-232717250I0J218750D01*
G01*
G37*
G36*
G01*
X341437750Y-227693000D02*
X341950250Y-227693000D01*
G75*
G02*
X342169000Y-227911750I0J-218750D01*
G01*
X342169000Y-228349250D01*
G75*
G02*
X341950250Y-228568000I-218750J0D01*
G01*
X341437750Y-228568000D01*
G75*
G02*
X341219000Y-228349250I0J218750D01*
G01*
X341219000Y-227911750D01*
G75*
G02*
X341437750Y-227693000I218750J0D01*
G01*
G37*
G36*
G01*
X341437750Y-229268000D02*
X341950250Y-229268000D01*
G75*
G02*
X342169000Y-229486750I0J-218750D01*
G01*
X342169000Y-229924250D01*
G75*
G02*
X341950250Y-230143000I-218750J0D01*
G01*
X341437750Y-230143000D01*
G75*
G02*
X341219000Y-229924250I0J218750D01*
G01*
X341219000Y-229486750D01*
G75*
G02*
X341437750Y-229268000I218750J0D01*
G01*
G37*
G36*
G01*
X348900000Y-233982750D02*
X348900000Y-234495250D01*
G75*
G02*
X348681250Y-234714000I-218750J0D01*
G01*
X348243750Y-234714000D01*
G75*
G02*
X348025000Y-234495250I0J218750D01*
G01*
X348025000Y-233982750D01*
G75*
G02*
X348243750Y-233764000I218750J0D01*
G01*
X348681250Y-233764000D01*
G75*
G02*
X348900000Y-233982750I0J-218750D01*
G01*
G37*
G36*
G01*
X347325000Y-233982750D02*
X347325000Y-234495250D01*
G75*
G02*
X347106250Y-234714000I-218750J0D01*
G01*
X346668750Y-234714000D01*
G75*
G02*
X346450000Y-234495250I0J218750D01*
G01*
X346450000Y-233982750D01*
G75*
G02*
X346668750Y-233764000I218750J0D01*
G01*
X347106250Y-233764000D01*
G75*
G02*
X347325000Y-233982750I0J-218750D01*
G01*
G37*
G36*
G01*
X332963000Y-251208250D02*
X332963000Y-250695750D01*
G75*
G02*
X333181750Y-250477000I218750J0D01*
G01*
X333619250Y-250477000D01*
G75*
G02*
X333838000Y-250695750I0J-218750D01*
G01*
X333838000Y-251208250D01*
G75*
G02*
X333619250Y-251427000I-218750J0D01*
G01*
X333181750Y-251427000D01*
G75*
G02*
X332963000Y-251208250I0J218750D01*
G01*
G37*
G36*
G01*
X331388000Y-251208250D02*
X331388000Y-250695750D01*
G75*
G02*
X331606750Y-250477000I218750J0D01*
G01*
X332044250Y-250477000D01*
G75*
G02*
X332263000Y-250695750I0J-218750D01*
G01*
X332263000Y-251208250D01*
G75*
G02*
X332044250Y-251427000I-218750J0D01*
G01*
X331606750Y-251427000D01*
G75*
G02*
X331388000Y-251208250I0J218750D01*
G01*
G37*
G36*
G01*
X308833000Y-251208250D02*
X308833000Y-250695750D01*
G75*
G02*
X309051750Y-250477000I218750J0D01*
G01*
X309489250Y-250477000D01*
G75*
G02*
X309708000Y-250695750I0J-218750D01*
G01*
X309708000Y-251208250D01*
G75*
G02*
X309489250Y-251427000I-218750J0D01*
G01*
X309051750Y-251427000D01*
G75*
G02*
X308833000Y-251208250I0J218750D01*
G01*
G37*
G36*
G01*
X307258000Y-251208250D02*
X307258000Y-250695750D01*
G75*
G02*
X307476750Y-250477000I218750J0D01*
G01*
X307914250Y-250477000D01*
G75*
G02*
X308133000Y-250695750I0J-218750D01*
G01*
X308133000Y-251208250D01*
G75*
G02*
X307914250Y-251427000I-218750J0D01*
G01*
X307476750Y-251427000D01*
G75*
G02*
X307258000Y-251208250I0J218750D01*
G01*
G37*
G36*
G01*
X328899000Y-251208250D02*
X328899000Y-250695750D01*
G75*
G02*
X329117750Y-250477000I218750J0D01*
G01*
X329555250Y-250477000D01*
G75*
G02*
X329774000Y-250695750I0J-218750D01*
G01*
X329774000Y-251208250D01*
G75*
G02*
X329555250Y-251427000I-218750J0D01*
G01*
X329117750Y-251427000D01*
G75*
G02*
X328899000Y-251208250I0J218750D01*
G01*
G37*
G36*
G01*
X327324000Y-251208250D02*
X327324000Y-250695750D01*
G75*
G02*
X327542750Y-250477000I218750J0D01*
G01*
X327980250Y-250477000D01*
G75*
G02*
X328199000Y-250695750I0J-218750D01*
G01*
X328199000Y-251208250D01*
G75*
G02*
X327980250Y-251427000I-218750J0D01*
G01*
X327542750Y-251427000D01*
G75*
G02*
X327324000Y-251208250I0J218750D01*
G01*
G37*
G36*
G01*
X314229000Y-250568750D02*
X314229000Y-251081250D01*
G75*
G02*
X314010250Y-251300000I-218750J0D01*
G01*
X313572750Y-251300000D01*
G75*
G02*
X313354000Y-251081250I0J218750D01*
G01*
X313354000Y-250568750D01*
G75*
G02*
X313572750Y-250350000I218750J0D01*
G01*
X314010250Y-250350000D01*
G75*
G02*
X314229000Y-250568750I0J-218750D01*
G01*
G37*
G36*
G01*
X315804000Y-250568750D02*
X315804000Y-251081250D01*
G75*
G02*
X315585250Y-251300000I-218750J0D01*
G01*
X315147750Y-251300000D01*
G75*
G02*
X314929000Y-251081250I0J218750D01*
G01*
X314929000Y-250568750D01*
G75*
G02*
X315147750Y-250350000I218750J0D01*
G01*
X315585250Y-250350000D01*
G75*
G02*
X315804000Y-250568750I0J-218750D01*
G01*
G37*
G36*
G01*
X304769000Y-251208250D02*
X304769000Y-250695750D01*
G75*
G02*
X304987750Y-250477000I218750J0D01*
G01*
X305425250Y-250477000D01*
G75*
G02*
X305644000Y-250695750I0J-218750D01*
G01*
X305644000Y-251208250D01*
G75*
G02*
X305425250Y-251427000I-218750J0D01*
G01*
X304987750Y-251427000D01*
G75*
G02*
X304769000Y-251208250I0J218750D01*
G01*
G37*
G36*
G01*
X303194000Y-251208250D02*
X303194000Y-250695750D01*
G75*
G02*
X303412750Y-250477000I218750J0D01*
G01*
X303850250Y-250477000D01*
G75*
G02*
X304069000Y-250695750I0J-218750D01*
G01*
X304069000Y-251208250D01*
G75*
G02*
X303850250Y-251427000I-218750J0D01*
G01*
X303412750Y-251427000D01*
G75*
G02*
X303194000Y-251208250I0J218750D01*
G01*
G37*
G36*
G01*
X291674000Y-250695750D02*
X291674000Y-251208250D01*
G75*
G02*
X291455250Y-251427000I-218750J0D01*
G01*
X291017750Y-251427000D01*
G75*
G02*
X290799000Y-251208250I0J218750D01*
G01*
X290799000Y-250695750D01*
G75*
G02*
X291017750Y-250477000I218750J0D01*
G01*
X291455250Y-250477000D01*
G75*
G02*
X291674000Y-250695750I0J-218750D01*
G01*
G37*
G36*
G01*
X290099000Y-250695750D02*
X290099000Y-251208250D01*
G75*
G02*
X289880250Y-251427000I-218750J0D01*
G01*
X289442750Y-251427000D01*
G75*
G02*
X289224000Y-251208250I0J218750D01*
G01*
X289224000Y-250695750D01*
G75*
G02*
X289442750Y-250477000I218750J0D01*
G01*
X289880250Y-250477000D01*
G75*
G02*
X290099000Y-250695750I0J-218750D01*
G01*
G37*
G36*
G01*
X339883000Y-250695750D02*
X339883000Y-251208250D01*
G75*
G02*
X339664250Y-251427000I-218750J0D01*
G01*
X339226750Y-251427000D01*
G75*
G02*
X339008000Y-251208250I0J218750D01*
G01*
X339008000Y-250695750D01*
G75*
G02*
X339226750Y-250477000I218750J0D01*
G01*
X339664250Y-250477000D01*
G75*
G02*
X339883000Y-250695750I0J-218750D01*
G01*
G37*
G36*
G01*
X341458000Y-250695750D02*
X341458000Y-251208250D01*
G75*
G02*
X341239250Y-251427000I-218750J0D01*
G01*
X340801750Y-251427000D01*
G75*
G02*
X340583000Y-251208250I0J218750D01*
G01*
X340583000Y-250695750D01*
G75*
G02*
X340801750Y-250477000I218750J0D01*
G01*
X341239250Y-250477000D01*
G75*
G02*
X341458000Y-250695750I0J-218750D01*
G01*
G37*
G36*
G01*
X348203000Y-251208250D02*
X348203000Y-250695750D01*
G75*
G02*
X348421750Y-250477000I218750J0D01*
G01*
X348859250Y-250477000D01*
G75*
G02*
X349078000Y-250695750I0J-218750D01*
G01*
X349078000Y-251208250D01*
G75*
G02*
X348859250Y-251427000I-218750J0D01*
G01*
X348421750Y-251427000D01*
G75*
G02*
X348203000Y-251208250I0J218750D01*
G01*
G37*
G36*
G01*
X346628000Y-251208250D02*
X346628000Y-250695750D01*
G75*
G02*
X346846750Y-250477000I218750J0D01*
G01*
X347284250Y-250477000D01*
G75*
G02*
X347503000Y-250695750I0J-218750D01*
G01*
X347503000Y-251208250D01*
G75*
G02*
X347284250Y-251427000I-218750J0D01*
G01*
X346846750Y-251427000D01*
G75*
G02*
X346628000Y-251208250I0J218750D01*
G01*
G37*
G36*
G01*
X320342750Y-252026000D02*
X320855250Y-252026000D01*
G75*
G02*
X321074000Y-252244750I0J-218750D01*
G01*
X321074000Y-252682250D01*
G75*
G02*
X320855250Y-252901000I-218750J0D01*
G01*
X320342750Y-252901000D01*
G75*
G02*
X320124000Y-252682250I0J218750D01*
G01*
X320124000Y-252244750D01*
G75*
G02*
X320342750Y-252026000I218750J0D01*
G01*
G37*
G36*
G01*
X320342750Y-250451000D02*
X320855250Y-250451000D01*
G75*
G02*
X321074000Y-250669750I0J-218750D01*
G01*
X321074000Y-251107250D01*
G75*
G02*
X320855250Y-251326000I-218750J0D01*
G01*
X320342750Y-251326000D01*
G75*
G02*
X320124000Y-251107250I0J218750D01*
G01*
X320124000Y-250669750D01*
G75*
G02*
X320342750Y-250451000I218750J0D01*
G01*
G37*
G36*
G01*
X322323750Y-252026000D02*
X322836250Y-252026000D01*
G75*
G02*
X323055000Y-252244750I0J-218750D01*
G01*
X323055000Y-252682250D01*
G75*
G02*
X322836250Y-252901000I-218750J0D01*
G01*
X322323750Y-252901000D01*
G75*
G02*
X322105000Y-252682250I0J218750D01*
G01*
X322105000Y-252244750D01*
G75*
G02*
X322323750Y-252026000I218750J0D01*
G01*
G37*
G36*
G01*
X322323750Y-250451000D02*
X322836250Y-250451000D01*
G75*
G02*
X323055000Y-250669750I0J-218750D01*
G01*
X323055000Y-251107250D01*
G75*
G02*
X322836250Y-251326000I-218750J0D01*
G01*
X322323750Y-251326000D01*
G75*
G02*
X322105000Y-251107250I0J218750D01*
G01*
X322105000Y-250669750D01*
G75*
G02*
X322323750Y-250451000I218750J0D01*
G01*
G37*
G36*
G01*
X296288750Y-251937000D02*
X296801250Y-251937000D01*
G75*
G02*
X297020000Y-252155750I0J-218750D01*
G01*
X297020000Y-252593250D01*
G75*
G02*
X296801250Y-252812000I-218750J0D01*
G01*
X296288750Y-252812000D01*
G75*
G02*
X296070000Y-252593250I0J218750D01*
G01*
X296070000Y-252155750D01*
G75*
G02*
X296288750Y-251937000I218750J0D01*
G01*
G37*
G36*
G01*
X296288750Y-250362000D02*
X296801250Y-250362000D01*
G75*
G02*
X297020000Y-250580750I0J-218750D01*
G01*
X297020000Y-251018250D01*
G75*
G02*
X296801250Y-251237000I-218750J0D01*
G01*
X296288750Y-251237000D01*
G75*
G02*
X296070000Y-251018250I0J218750D01*
G01*
X296070000Y-250580750D01*
G75*
G02*
X296288750Y-250362000I218750J0D01*
G01*
G37*
G36*
G01*
X298320750Y-251937000D02*
X298833250Y-251937000D01*
G75*
G02*
X299052000Y-252155750I0J-218750D01*
G01*
X299052000Y-252593250D01*
G75*
G02*
X298833250Y-252812000I-218750J0D01*
G01*
X298320750Y-252812000D01*
G75*
G02*
X298102000Y-252593250I0J218750D01*
G01*
X298102000Y-252155750D01*
G75*
G02*
X298320750Y-251937000I218750J0D01*
G01*
G37*
G36*
G01*
X298320750Y-250362000D02*
X298833250Y-250362000D01*
G75*
G02*
X299052000Y-250580750I0J-218750D01*
G01*
X299052000Y-251018250D01*
G75*
G02*
X298833250Y-251237000I-218750J0D01*
G01*
X298320750Y-251237000D01*
G75*
G02*
X298102000Y-251018250I0J218750D01*
G01*
X298102000Y-250580750D01*
G75*
G02*
X298320750Y-250362000I218750J0D01*
G01*
G37*
G36*
G01*
X308833000Y-236756250D02*
X308833000Y-236243750D01*
G75*
G02*
X309051750Y-236025000I218750J0D01*
G01*
X309489250Y-236025000D01*
G75*
G02*
X309708000Y-236243750I0J-218750D01*
G01*
X309708000Y-236756250D01*
G75*
G02*
X309489250Y-236975000I-218750J0D01*
G01*
X309051750Y-236975000D01*
G75*
G02*
X308833000Y-236756250I0J218750D01*
G01*
G37*
G36*
G01*
X307258000Y-236756250D02*
X307258000Y-236243750D01*
G75*
G02*
X307476750Y-236025000I218750J0D01*
G01*
X307914250Y-236025000D01*
G75*
G02*
X308133000Y-236243750I0J-218750D01*
G01*
X308133000Y-236756250D01*
G75*
G02*
X307914250Y-236975000I-218750J0D01*
G01*
X307476750Y-236975000D01*
G75*
G02*
X307258000Y-236756250I0J218750D01*
G01*
G37*
G36*
G01*
X331388000Y-236730250D02*
X331388000Y-236217750D01*
G75*
G02*
X331606750Y-235999000I218750J0D01*
G01*
X332044250Y-235999000D01*
G75*
G02*
X332263000Y-236217750I0J-218750D01*
G01*
X332263000Y-236730250D01*
G75*
G02*
X332044250Y-236949000I-218750J0D01*
G01*
X331606750Y-236949000D01*
G75*
G02*
X331388000Y-236730250I0J218750D01*
G01*
G37*
G36*
G01*
X332963000Y-236730250D02*
X332963000Y-236217750D01*
G75*
G02*
X333181750Y-235999000I218750J0D01*
G01*
X333619250Y-235999000D01*
G75*
G02*
X333838000Y-236217750I0J-218750D01*
G01*
X333838000Y-236730250D01*
G75*
G02*
X333619250Y-236949000I-218750J0D01*
G01*
X333181750Y-236949000D01*
G75*
G02*
X332963000Y-236730250I0J218750D01*
G01*
G37*
G36*
G01*
X344469000Y-266067250D02*
X344469000Y-265554750D01*
G75*
G02*
X344687750Y-265336000I218750J0D01*
G01*
X345125250Y-265336000D01*
G75*
G02*
X345344000Y-265554750I0J-218750D01*
G01*
X345344000Y-266067250D01*
G75*
G02*
X345125250Y-266286000I-218750J0D01*
G01*
X344687750Y-266286000D01*
G75*
G02*
X344469000Y-266067250I0J218750D01*
G01*
G37*
G36*
G01*
X346044000Y-266067250D02*
X346044000Y-265554750D01*
G75*
G02*
X346262750Y-265336000I218750J0D01*
G01*
X346700250Y-265336000D01*
G75*
G02*
X346919000Y-265554750I0J-218750D01*
G01*
X346919000Y-266067250D01*
G75*
G02*
X346700250Y-266286000I-218750J0D01*
G01*
X346262750Y-266286000D01*
G75*
G02*
X346044000Y-266067250I0J218750D01*
G01*
G37*
G36*
G01*
X343363000Y-265554750D02*
X343363000Y-266067250D01*
G75*
G02*
X343144250Y-266286000I-218750J0D01*
G01*
X342706750Y-266286000D01*
G75*
G02*
X342488000Y-266067250I0J218750D01*
G01*
X342488000Y-265554750D01*
G75*
G02*
X342706750Y-265336000I218750J0D01*
G01*
X343144250Y-265336000D01*
G75*
G02*
X343363000Y-265554750I0J-218750D01*
G01*
G37*
G36*
G01*
X341788000Y-265554750D02*
X341788000Y-266067250D01*
G75*
G02*
X341569250Y-266286000I-218750J0D01*
G01*
X341131750Y-266286000D01*
G75*
G02*
X340913000Y-266067250I0J218750D01*
G01*
X340913000Y-265554750D01*
G75*
G02*
X341131750Y-265336000I218750J0D01*
G01*
X341569250Y-265336000D01*
G75*
G02*
X341788000Y-265554750I0J-218750D01*
G01*
G37*
G36*
G01*
X328416000Y-266016250D02*
X328416000Y-265503750D01*
G75*
G02*
X328634750Y-265285000I218750J0D01*
G01*
X329072250Y-265285000D01*
G75*
G02*
X329291000Y-265503750I0J-218750D01*
G01*
X329291000Y-266016250D01*
G75*
G02*
X329072250Y-266235000I-218750J0D01*
G01*
X328634750Y-266235000D01*
G75*
G02*
X328416000Y-266016250I0J218750D01*
G01*
G37*
G36*
G01*
X329991000Y-266016250D02*
X329991000Y-265503750D01*
G75*
G02*
X330209750Y-265285000I218750J0D01*
G01*
X330647250Y-265285000D01*
G75*
G02*
X330866000Y-265503750I0J-218750D01*
G01*
X330866000Y-266016250D01*
G75*
G02*
X330647250Y-266235000I-218750J0D01*
G01*
X330209750Y-266235000D01*
G75*
G02*
X329991000Y-266016250I0J218750D01*
G01*
G37*
G36*
G01*
X327323000Y-265503750D02*
X327323000Y-266016250D01*
G75*
G02*
X327104250Y-266235000I-218750J0D01*
G01*
X326666750Y-266235000D01*
G75*
G02*
X326448000Y-266016250I0J218750D01*
G01*
X326448000Y-265503750D01*
G75*
G02*
X326666750Y-265285000I218750J0D01*
G01*
X327104250Y-265285000D01*
G75*
G02*
X327323000Y-265503750I0J-218750D01*
G01*
G37*
G36*
G01*
X325748000Y-265503750D02*
X325748000Y-266016250D01*
G75*
G02*
X325529250Y-266235000I-218750J0D01*
G01*
X325091750Y-266235000D01*
G75*
G02*
X324873000Y-266016250I0J218750D01*
G01*
X324873000Y-265503750D01*
G75*
G02*
X325091750Y-265285000I218750J0D01*
G01*
X325529250Y-265285000D01*
G75*
G02*
X325748000Y-265503750I0J-218750D01*
G01*
G37*
G36*
G01*
X304769000Y-236730250D02*
X304769000Y-236217750D01*
G75*
G02*
X304987750Y-235999000I218750J0D01*
G01*
X305425250Y-235999000D01*
G75*
G02*
X305644000Y-236217750I0J-218750D01*
G01*
X305644000Y-236730250D01*
G75*
G02*
X305425250Y-236949000I-218750J0D01*
G01*
X304987750Y-236949000D01*
G75*
G02*
X304769000Y-236730250I0J218750D01*
G01*
G37*
G36*
G01*
X303194000Y-236730250D02*
X303194000Y-236217750D01*
G75*
G02*
X303412750Y-235999000I218750J0D01*
G01*
X303850250Y-235999000D01*
G75*
G02*
X304069000Y-236217750I0J-218750D01*
G01*
X304069000Y-236730250D01*
G75*
G02*
X303850250Y-236949000I-218750J0D01*
G01*
X303412750Y-236949000D01*
G75*
G02*
X303194000Y-236730250I0J218750D01*
G01*
G37*
G36*
G01*
X290099000Y-236090750D02*
X290099000Y-236603250D01*
G75*
G02*
X289880250Y-236822000I-218750J0D01*
G01*
X289442750Y-236822000D01*
G75*
G02*
X289224000Y-236603250I0J218750D01*
G01*
X289224000Y-236090750D01*
G75*
G02*
X289442750Y-235872000I218750J0D01*
G01*
X289880250Y-235872000D01*
G75*
G02*
X290099000Y-236090750I0J-218750D01*
G01*
G37*
G36*
G01*
X291674000Y-236090750D02*
X291674000Y-236603250D01*
G75*
G02*
X291455250Y-236822000I-218750J0D01*
G01*
X291017750Y-236822000D01*
G75*
G02*
X290799000Y-236603250I0J218750D01*
G01*
X290799000Y-236090750D01*
G75*
G02*
X291017750Y-235872000I218750J0D01*
G01*
X291455250Y-235872000D01*
G75*
G02*
X291674000Y-236090750I0J-218750D01*
G01*
G37*
G36*
G01*
X327324000Y-236730250D02*
X327324000Y-236217750D01*
G75*
G02*
X327542750Y-235999000I218750J0D01*
G01*
X327980250Y-235999000D01*
G75*
G02*
X328199000Y-236217750I0J-218750D01*
G01*
X328199000Y-236730250D01*
G75*
G02*
X327980250Y-236949000I-218750J0D01*
G01*
X327542750Y-236949000D01*
G75*
G02*
X327324000Y-236730250I0J218750D01*
G01*
G37*
G36*
G01*
X328899000Y-236730250D02*
X328899000Y-236217750D01*
G75*
G02*
X329117750Y-235999000I218750J0D01*
G01*
X329555250Y-235999000D01*
G75*
G02*
X329774000Y-236217750I0J-218750D01*
G01*
X329774000Y-236730250D01*
G75*
G02*
X329555250Y-236949000I-218750J0D01*
G01*
X329117750Y-236949000D01*
G75*
G02*
X328899000Y-236730250I0J218750D01*
G01*
G37*
G36*
G01*
X315804000Y-236090750D02*
X315804000Y-236603250D01*
G75*
G02*
X315585250Y-236822000I-218750J0D01*
G01*
X315147750Y-236822000D01*
G75*
G02*
X314929000Y-236603250I0J218750D01*
G01*
X314929000Y-236090750D01*
G75*
G02*
X315147750Y-235872000I218750J0D01*
G01*
X315585250Y-235872000D01*
G75*
G02*
X315804000Y-236090750I0J-218750D01*
G01*
G37*
G36*
G01*
X314229000Y-236090750D02*
X314229000Y-236603250D01*
G75*
G02*
X314010250Y-236822000I-218750J0D01*
G01*
X313572750Y-236822000D01*
G75*
G02*
X313354000Y-236603250I0J218750D01*
G01*
X313354000Y-236090750D01*
G75*
G02*
X313572750Y-235872000I218750J0D01*
G01*
X314010250Y-235872000D01*
G75*
G02*
X314229000Y-236090750I0J-218750D01*
G01*
G37*
G36*
G01*
X296415750Y-237573000D02*
X296928250Y-237573000D01*
G75*
G02*
X297147000Y-237791750I0J-218750D01*
G01*
X297147000Y-238229250D01*
G75*
G02*
X296928250Y-238448000I-218750J0D01*
G01*
X296415750Y-238448000D01*
G75*
G02*
X296197000Y-238229250I0J218750D01*
G01*
X296197000Y-237791750D01*
G75*
G02*
X296415750Y-237573000I218750J0D01*
G01*
G37*
G36*
G01*
X296415750Y-235998000D02*
X296928250Y-235998000D01*
G75*
G02*
X297147000Y-236216750I0J-218750D01*
G01*
X297147000Y-236654250D01*
G75*
G02*
X296928250Y-236873000I-218750J0D01*
G01*
X296415750Y-236873000D01*
G75*
G02*
X296197000Y-236654250I0J218750D01*
G01*
X296197000Y-236216750D01*
G75*
G02*
X296415750Y-235998000I218750J0D01*
G01*
G37*
G36*
G01*
X298396750Y-237573000D02*
X298909250Y-237573000D01*
G75*
G02*
X299128000Y-237791750I0J-218750D01*
G01*
X299128000Y-238229250D01*
G75*
G02*
X298909250Y-238448000I-218750J0D01*
G01*
X298396750Y-238448000D01*
G75*
G02*
X298178000Y-238229250I0J218750D01*
G01*
X298178000Y-237791750D01*
G75*
G02*
X298396750Y-237573000I218750J0D01*
G01*
G37*
G36*
G01*
X298396750Y-235998000D02*
X298909250Y-235998000D01*
G75*
G02*
X299128000Y-236216750I0J-218750D01*
G01*
X299128000Y-236654250D01*
G75*
G02*
X298909250Y-236873000I-218750J0D01*
G01*
X298396750Y-236873000D01*
G75*
G02*
X298178000Y-236654250I0J218750D01*
G01*
X298178000Y-236216750D01*
G75*
G02*
X298396750Y-235998000I218750J0D01*
G01*
G37*
G36*
G01*
X320291750Y-235998000D02*
X320804250Y-235998000D01*
G75*
G02*
X321023000Y-236216750I0J-218750D01*
G01*
X321023000Y-236654250D01*
G75*
G02*
X320804250Y-236873000I-218750J0D01*
G01*
X320291750Y-236873000D01*
G75*
G02*
X320073000Y-236654250I0J218750D01*
G01*
X320073000Y-236216750D01*
G75*
G02*
X320291750Y-235998000I218750J0D01*
G01*
G37*
G36*
G01*
X320291750Y-237573000D02*
X320804250Y-237573000D01*
G75*
G02*
X321023000Y-237791750I0J-218750D01*
G01*
X321023000Y-238229250D01*
G75*
G02*
X320804250Y-238448000I-218750J0D01*
G01*
X320291750Y-238448000D01*
G75*
G02*
X320073000Y-238229250I0J218750D01*
G01*
X320073000Y-237791750D01*
G75*
G02*
X320291750Y-237573000I218750J0D01*
G01*
G37*
G36*
G01*
X322323750Y-235998000D02*
X322836250Y-235998000D01*
G75*
G02*
X323055000Y-236216750I0J-218750D01*
G01*
X323055000Y-236654250D01*
G75*
G02*
X322836250Y-236873000I-218750J0D01*
G01*
X322323750Y-236873000D01*
G75*
G02*
X322105000Y-236654250I0J218750D01*
G01*
X322105000Y-236216750D01*
G75*
G02*
X322323750Y-235998000I218750J0D01*
G01*
G37*
G36*
G01*
X322323750Y-237573000D02*
X322836250Y-237573000D01*
G75*
G02*
X323055000Y-237791750I0J-218750D01*
G01*
X323055000Y-238229250D01*
G75*
G02*
X322836250Y-238448000I-218750J0D01*
G01*
X322323750Y-238448000D01*
G75*
G02*
X322105000Y-238229250I0J218750D01*
G01*
X322105000Y-237791750D01*
G75*
G02*
X322323750Y-237573000I218750J0D01*
G01*
G37*
G36*
G01*
X312338000Y-266016250D02*
X312338000Y-265503750D01*
G75*
G02*
X312556750Y-265285000I218750J0D01*
G01*
X312994250Y-265285000D01*
G75*
G02*
X313213000Y-265503750I0J-218750D01*
G01*
X313213000Y-266016250D01*
G75*
G02*
X312994250Y-266235000I-218750J0D01*
G01*
X312556750Y-266235000D01*
G75*
G02*
X312338000Y-266016250I0J218750D01*
G01*
G37*
G36*
G01*
X313913000Y-266016250D02*
X313913000Y-265503750D01*
G75*
G02*
X314131750Y-265285000I218750J0D01*
G01*
X314569250Y-265285000D01*
G75*
G02*
X314788000Y-265503750I0J-218750D01*
G01*
X314788000Y-266016250D01*
G75*
G02*
X314569250Y-266235000I-218750J0D01*
G01*
X314131750Y-266235000D01*
G75*
G02*
X313913000Y-266016250I0J218750D01*
G01*
G37*
G36*
G01*
X311232000Y-265503750D02*
X311232000Y-266016250D01*
G75*
G02*
X311013250Y-266235000I-218750J0D01*
G01*
X310575750Y-266235000D01*
G75*
G02*
X310357000Y-266016250I0J218750D01*
G01*
X310357000Y-265503750D01*
G75*
G02*
X310575750Y-265285000I218750J0D01*
G01*
X311013250Y-265285000D01*
G75*
G02*
X311232000Y-265503750I0J-218750D01*
G01*
G37*
G36*
G01*
X309657000Y-265503750D02*
X309657000Y-266016250D01*
G75*
G02*
X309438250Y-266235000I-218750J0D01*
G01*
X309000750Y-266235000D01*
G75*
G02*
X308782000Y-266016250I0J218750D01*
G01*
X308782000Y-265503750D01*
G75*
G02*
X309000750Y-265285000I218750J0D01*
G01*
X309438250Y-265285000D01*
G75*
G02*
X309657000Y-265503750I0J-218750D01*
G01*
G37*
G36*
G01*
X296082000Y-266067250D02*
X296082000Y-265554750D01*
G75*
G02*
X296300750Y-265336000I218750J0D01*
G01*
X296738250Y-265336000D01*
G75*
G02*
X296957000Y-265554750I0J-218750D01*
G01*
X296957000Y-266067250D01*
G75*
G02*
X296738250Y-266286000I-218750J0D01*
G01*
X296300750Y-266286000D01*
G75*
G02*
X296082000Y-266067250I0J218750D01*
G01*
G37*
G36*
G01*
X297657000Y-266067250D02*
X297657000Y-265554750D01*
G75*
G02*
X297875750Y-265336000I218750J0D01*
G01*
X298313250Y-265336000D01*
G75*
G02*
X298532000Y-265554750I0J-218750D01*
G01*
X298532000Y-266067250D01*
G75*
G02*
X298313250Y-266286000I-218750J0D01*
G01*
X297875750Y-266286000D01*
G75*
G02*
X297657000Y-266067250I0J218750D01*
G01*
G37*
G36*
G01*
X294976000Y-265554750D02*
X294976000Y-266067250D01*
G75*
G02*
X294757250Y-266286000I-218750J0D01*
G01*
X294319750Y-266286000D01*
G75*
G02*
X294101000Y-266067250I0J218750D01*
G01*
X294101000Y-265554750D01*
G75*
G02*
X294319750Y-265336000I218750J0D01*
G01*
X294757250Y-265336000D01*
G75*
G02*
X294976000Y-265554750I0J-218750D01*
G01*
G37*
G36*
G01*
X293401000Y-265554750D02*
X293401000Y-266067250D01*
G75*
G02*
X293182250Y-266286000I-218750J0D01*
G01*
X292744750Y-266286000D01*
G75*
G02*
X292526000Y-266067250I0J218750D01*
G01*
X292526000Y-265554750D01*
G75*
G02*
X292744750Y-265336000I218750J0D01*
G01*
X293182250Y-265336000D01*
G75*
G02*
X293401000Y-265554750I0J-218750D01*
G01*
G37*
G36*
G01*
X292869000Y-295836250D02*
X292869000Y-295323750D01*
G75*
G02*
X293087750Y-295105000I218750J0D01*
G01*
X293525250Y-295105000D01*
G75*
G02*
X293744000Y-295323750I0J-218750D01*
G01*
X293744000Y-295836250D01*
G75*
G02*
X293525250Y-296055000I-218750J0D01*
G01*
X293087750Y-296055000D01*
G75*
G02*
X292869000Y-295836250I0J218750D01*
G01*
G37*
G36*
G01*
X291294000Y-295836250D02*
X291294000Y-295323750D01*
G75*
G02*
X291512750Y-295105000I218750J0D01*
G01*
X291950250Y-295105000D01*
G75*
G02*
X292169000Y-295323750I0J-218750D01*
G01*
X292169000Y-295836250D01*
G75*
G02*
X291950250Y-296055000I-218750J0D01*
G01*
X291512750Y-296055000D01*
G75*
G02*
X291294000Y-295836250I0J218750D01*
G01*
G37*
G36*
G01*
X300322000Y-295323750D02*
X300322000Y-295836250D01*
G75*
G02*
X300103250Y-296055000I-218750J0D01*
G01*
X299665750Y-296055000D01*
G75*
G02*
X299447000Y-295836250I0J218750D01*
G01*
X299447000Y-295323750D01*
G75*
G02*
X299665750Y-295105000I218750J0D01*
G01*
X300103250Y-295105000D01*
G75*
G02*
X300322000Y-295323750I0J-218750D01*
G01*
G37*
G36*
G01*
X301897000Y-295323750D02*
X301897000Y-295836250D01*
G75*
G02*
X301678250Y-296055000I-218750J0D01*
G01*
X301240750Y-296055000D01*
G75*
G02*
X301022000Y-295836250I0J218750D01*
G01*
X301022000Y-295323750D01*
G75*
G02*
X301240750Y-295105000I218750J0D01*
G01*
X301678250Y-295105000D01*
G75*
G02*
X301897000Y-295323750I0J-218750D01*
G01*
G37*
G36*
G01*
X303850250Y-299751000D02*
X303337750Y-299751000D01*
G75*
G02*
X303119000Y-299532250I0J218750D01*
G01*
X303119000Y-299094750D01*
G75*
G02*
X303337750Y-298876000I218750J0D01*
G01*
X303850250Y-298876000D01*
G75*
G02*
X304069000Y-299094750I0J-218750D01*
G01*
X304069000Y-299532250D01*
G75*
G02*
X303850250Y-299751000I-218750J0D01*
G01*
G37*
G36*
G01*
X303850250Y-301326000D02*
X303337750Y-301326000D01*
G75*
G02*
X303119000Y-301107250I0J218750D01*
G01*
X303119000Y-300669750D01*
G75*
G02*
X303337750Y-300451000I218750J0D01*
G01*
X303850250Y-300451000D01*
G75*
G02*
X304069000Y-300669750I0J-218750D01*
G01*
X304069000Y-301107250D01*
G75*
G02*
X303850250Y-301326000I-218750J0D01*
G01*
G37*
G36*
G01*
X311564000Y-296039250D02*
X311564000Y-295526750D01*
G75*
G02*
X311782750Y-295308000I218750J0D01*
G01*
X312220250Y-295308000D01*
G75*
G02*
X312439000Y-295526750I0J-218750D01*
G01*
X312439000Y-296039250D01*
G75*
G02*
X312220250Y-296258000I-218750J0D01*
G01*
X311782750Y-296258000D01*
G75*
G02*
X311564000Y-296039250I0J218750D01*
G01*
G37*
G36*
G01*
X309989000Y-296039250D02*
X309989000Y-295526750D01*
G75*
G02*
X310207750Y-295308000I218750J0D01*
G01*
X310645250Y-295308000D01*
G75*
G02*
X310864000Y-295526750I0J-218750D01*
G01*
X310864000Y-296039250D01*
G75*
G02*
X310645250Y-296258000I-218750J0D01*
G01*
X310207750Y-296258000D01*
G75*
G02*
X309989000Y-296039250I0J218750D01*
G01*
G37*
G36*
G01*
X318738000Y-295526750D02*
X318738000Y-296039250D01*
G75*
G02*
X318519250Y-296258000I-218750J0D01*
G01*
X318081750Y-296258000D01*
G75*
G02*
X317863000Y-296039250I0J218750D01*
G01*
X317863000Y-295526750D01*
G75*
G02*
X318081750Y-295308000I218750J0D01*
G01*
X318519250Y-295308000D01*
G75*
G02*
X318738000Y-295526750I0J-218750D01*
G01*
G37*
G36*
G01*
X320313000Y-295526750D02*
X320313000Y-296039250D01*
G75*
G02*
X320094250Y-296258000I-218750J0D01*
G01*
X319656750Y-296258000D01*
G75*
G02*
X319438000Y-296039250I0J218750D01*
G01*
X319438000Y-295526750D01*
G75*
G02*
X319656750Y-295308000I218750J0D01*
G01*
X320094250Y-295308000D01*
G75*
G02*
X320313000Y-295526750I0J-218750D01*
G01*
G37*
G36*
G01*
X322392250Y-299751000D02*
X321879750Y-299751000D01*
G75*
G02*
X321661000Y-299532250I0J218750D01*
G01*
X321661000Y-299094750D01*
G75*
G02*
X321879750Y-298876000I218750J0D01*
G01*
X322392250Y-298876000D01*
G75*
G02*
X322611000Y-299094750I0J-218750D01*
G01*
X322611000Y-299532250D01*
G75*
G02*
X322392250Y-299751000I-218750J0D01*
G01*
G37*
G36*
G01*
X322392250Y-301326000D02*
X321879750Y-301326000D01*
G75*
G02*
X321661000Y-301107250I0J218750D01*
G01*
X321661000Y-300669750D01*
G75*
G02*
X321879750Y-300451000I218750J0D01*
G01*
X322392250Y-300451000D01*
G75*
G02*
X322611000Y-300669750I0J-218750D01*
G01*
X322611000Y-301107250D01*
G75*
G02*
X322392250Y-301326000I-218750J0D01*
G01*
G37*
G36*
G01*
X330106000Y-296039250D02*
X330106000Y-295526750D01*
G75*
G02*
X330324750Y-295308000I218750J0D01*
G01*
X330762250Y-295308000D01*
G75*
G02*
X330981000Y-295526750I0J-218750D01*
G01*
X330981000Y-296039250D01*
G75*
G02*
X330762250Y-296258000I-218750J0D01*
G01*
X330324750Y-296258000D01*
G75*
G02*
X330106000Y-296039250I0J218750D01*
G01*
G37*
G36*
G01*
X328531000Y-296039250D02*
X328531000Y-295526750D01*
G75*
G02*
X328749750Y-295308000I218750J0D01*
G01*
X329187250Y-295308000D01*
G75*
G02*
X329406000Y-295526750I0J-218750D01*
G01*
X329406000Y-296039250D01*
G75*
G02*
X329187250Y-296258000I-218750J0D01*
G01*
X328749750Y-296258000D01*
G75*
G02*
X328531000Y-296039250I0J218750D01*
G01*
G37*
G36*
G01*
X337280000Y-295526750D02*
X337280000Y-296039250D01*
G75*
G02*
X337061250Y-296258000I-218750J0D01*
G01*
X336623750Y-296258000D01*
G75*
G02*
X336405000Y-296039250I0J218750D01*
G01*
X336405000Y-295526750D01*
G75*
G02*
X336623750Y-295308000I218750J0D01*
G01*
X337061250Y-295308000D01*
G75*
G02*
X337280000Y-295526750I0J-218750D01*
G01*
G37*
G36*
G01*
X338855000Y-295526750D02*
X338855000Y-296039250D01*
G75*
G02*
X338636250Y-296258000I-218750J0D01*
G01*
X338198750Y-296258000D01*
G75*
G02*
X337980000Y-296039250I0J218750D01*
G01*
X337980000Y-295526750D01*
G75*
G02*
X338198750Y-295308000I218750J0D01*
G01*
X338636250Y-295308000D01*
G75*
G02*
X338855000Y-295526750I0J-218750D01*
G01*
G37*
G36*
G01*
X340934250Y-299751000D02*
X340421750Y-299751000D01*
G75*
G02*
X340203000Y-299532250I0J218750D01*
G01*
X340203000Y-299094750D01*
G75*
G02*
X340421750Y-298876000I218750J0D01*
G01*
X340934250Y-298876000D01*
G75*
G02*
X341153000Y-299094750I0J-218750D01*
G01*
X341153000Y-299532250D01*
G75*
G02*
X340934250Y-299751000I-218750J0D01*
G01*
G37*
G36*
G01*
X340934250Y-301326000D02*
X340421750Y-301326000D01*
G75*
G02*
X340203000Y-301107250I0J218750D01*
G01*
X340203000Y-300669750D01*
G75*
G02*
X340421750Y-300451000I218750J0D01*
G01*
X340934250Y-300451000D01*
G75*
G02*
X341153000Y-300669750I0J-218750D01*
G01*
X341153000Y-301107250D01*
G75*
G02*
X340934250Y-301326000I-218750J0D01*
G01*
G37*
G36*
G01*
X263088000Y-225554250D02*
X263088000Y-225041750D01*
G75*
G02*
X263306750Y-224823000I218750J0D01*
G01*
X263744250Y-224823000D01*
G75*
G02*
X263963000Y-225041750I0J-218750D01*
G01*
X263963000Y-225554250D01*
G75*
G02*
X263744250Y-225773000I-218750J0D01*
G01*
X263306750Y-225773000D01*
G75*
G02*
X263088000Y-225554250I0J218750D01*
G01*
G37*
G36*
G01*
X261513000Y-225554250D02*
X261513000Y-225041750D01*
G75*
G02*
X261731750Y-224823000I218750J0D01*
G01*
X262169250Y-224823000D01*
G75*
G02*
X262388000Y-225041750I0J-218750D01*
G01*
X262388000Y-225554250D01*
G75*
G02*
X262169250Y-225773000I-218750J0D01*
G01*
X261731750Y-225773000D01*
G75*
G02*
X261513000Y-225554250I0J218750D01*
G01*
G37*
G36*
G01*
X262350000Y-265109750D02*
X262350000Y-265622250D01*
G75*
G02*
X262131250Y-265841000I-218750J0D01*
G01*
X261693750Y-265841000D01*
G75*
G02*
X261475000Y-265622250I0J218750D01*
G01*
X261475000Y-265109750D01*
G75*
G02*
X261693750Y-264891000I218750J0D01*
G01*
X262131250Y-264891000D01*
G75*
G02*
X262350000Y-265109750I0J-218750D01*
G01*
G37*
G36*
G01*
X263925000Y-265109750D02*
X263925000Y-265622250D01*
G75*
G02*
X263706250Y-265841000I-218750J0D01*
G01*
X263268750Y-265841000D01*
G75*
G02*
X263050000Y-265622250I0J218750D01*
G01*
X263050000Y-265109750D01*
G75*
G02*
X263268750Y-264891000I218750J0D01*
G01*
X263706250Y-264891000D01*
G75*
G02*
X263925000Y-265109750I0J-218750D01*
G01*
G37*
G36*
G01*
X258781000Y-257350750D02*
X258781000Y-257863250D01*
G75*
G02*
X258562250Y-258082000I-218750J0D01*
G01*
X258124750Y-258082000D01*
G75*
G02*
X257906000Y-257863250I0J218750D01*
G01*
X257906000Y-257350750D01*
G75*
G02*
X258124750Y-257132000I218750J0D01*
G01*
X258562250Y-257132000D01*
G75*
G02*
X258781000Y-257350750I0J-218750D01*
G01*
G37*
G36*
G01*
X260356000Y-257350750D02*
X260356000Y-257863250D01*
G75*
G02*
X260137250Y-258082000I-218750J0D01*
G01*
X259699750Y-258082000D01*
G75*
G02*
X259481000Y-257863250I0J218750D01*
G01*
X259481000Y-257350750D01*
G75*
G02*
X259699750Y-257132000I218750J0D01*
G01*
X260137250Y-257132000D01*
G75*
G02*
X260356000Y-257350750I0J-218750D01*
G01*
G37*
G36*
G01*
X258781000Y-244650750D02*
X258781000Y-245163250D01*
G75*
G02*
X258562250Y-245382000I-218750J0D01*
G01*
X258124750Y-245382000D01*
G75*
G02*
X257906000Y-245163250I0J218750D01*
G01*
X257906000Y-244650750D01*
G75*
G02*
X258124750Y-244432000I218750J0D01*
G01*
X258562250Y-244432000D01*
G75*
G02*
X258781000Y-244650750I0J-218750D01*
G01*
G37*
G36*
G01*
X260356000Y-244650750D02*
X260356000Y-245163250D01*
G75*
G02*
X260137250Y-245382000I-218750J0D01*
G01*
X259699750Y-245382000D01*
G75*
G02*
X259481000Y-245163250I0J218750D01*
G01*
X259481000Y-244650750D01*
G75*
G02*
X259699750Y-244432000I218750J0D01*
G01*
X260137250Y-244432000D01*
G75*
G02*
X260356000Y-244650750I0J-218750D01*
G01*
G37*
G36*
G01*
X258781000Y-260042750D02*
X258781000Y-260555250D01*
G75*
G02*
X258562250Y-260774000I-218750J0D01*
G01*
X258124750Y-260774000D01*
G75*
G02*
X257906000Y-260555250I0J218750D01*
G01*
X257906000Y-260042750D01*
G75*
G02*
X258124750Y-259824000I218750J0D01*
G01*
X258562250Y-259824000D01*
G75*
G02*
X258781000Y-260042750I0J-218750D01*
G01*
G37*
G36*
G01*
X260356000Y-260042750D02*
X260356000Y-260555250D01*
G75*
G02*
X260137250Y-260774000I-218750J0D01*
G01*
X259699750Y-260774000D01*
G75*
G02*
X259481000Y-260555250I0J218750D01*
G01*
X259481000Y-260042750D01*
G75*
G02*
X259699750Y-259824000I218750J0D01*
G01*
X260137250Y-259824000D01*
G75*
G02*
X260356000Y-260042750I0J-218750D01*
G01*
G37*
G36*
G01*
X258781000Y-229410750D02*
X258781000Y-229923250D01*
G75*
G02*
X258562250Y-230142000I-218750J0D01*
G01*
X258124750Y-230142000D01*
G75*
G02*
X257906000Y-229923250I0J218750D01*
G01*
X257906000Y-229410750D01*
G75*
G02*
X258124750Y-229192000I218750J0D01*
G01*
X258562250Y-229192000D01*
G75*
G02*
X258781000Y-229410750I0J-218750D01*
G01*
G37*
G36*
G01*
X260356000Y-229410750D02*
X260356000Y-229923250D01*
G75*
G02*
X260137250Y-230142000I-218750J0D01*
G01*
X259699750Y-230142000D01*
G75*
G02*
X259481000Y-229923250I0J218750D01*
G01*
X259481000Y-229410750D01*
G75*
G02*
X259699750Y-229192000I218750J0D01*
G01*
X260137250Y-229192000D01*
G75*
G02*
X260356000Y-229410750I0J-218750D01*
G01*
G37*
G36*
G01*
X258781000Y-227073750D02*
X258781000Y-227586250D01*
G75*
G02*
X258562250Y-227805000I-218750J0D01*
G01*
X258124750Y-227805000D01*
G75*
G02*
X257906000Y-227586250I0J218750D01*
G01*
X257906000Y-227073750D01*
G75*
G02*
X258124750Y-226855000I218750J0D01*
G01*
X258562250Y-226855000D01*
G75*
G02*
X258781000Y-227073750I0J-218750D01*
G01*
G37*
G36*
G01*
X260356000Y-227073750D02*
X260356000Y-227586250D01*
G75*
G02*
X260137250Y-227805000I-218750J0D01*
G01*
X259699750Y-227805000D01*
G75*
G02*
X259481000Y-227586250I0J218750D01*
G01*
X259481000Y-227073750D01*
G75*
G02*
X259699750Y-226855000I218750J0D01*
G01*
X260137250Y-226855000D01*
G75*
G02*
X260356000Y-227073750I0J-218750D01*
G01*
G37*
G36*
G01*
X286289000Y-219504750D02*
X286289000Y-220017250D01*
G75*
G02*
X286070250Y-220236000I-218750J0D01*
G01*
X285632750Y-220236000D01*
G75*
G02*
X285414000Y-220017250I0J218750D01*
G01*
X285414000Y-219504750D01*
G75*
G02*
X285632750Y-219286000I218750J0D01*
G01*
X286070250Y-219286000D01*
G75*
G02*
X286289000Y-219504750I0J-218750D01*
G01*
G37*
G36*
G01*
X287864000Y-219504750D02*
X287864000Y-220017250D01*
G75*
G02*
X287645250Y-220236000I-218750J0D01*
G01*
X287207750Y-220236000D01*
G75*
G02*
X286989000Y-220017250I0J218750D01*
G01*
X286989000Y-219504750D01*
G75*
G02*
X287207750Y-219286000I218750J0D01*
G01*
X287645250Y-219286000D01*
G75*
G02*
X287864000Y-219504750I0J-218750D01*
G01*
G37*
G36*
G01*
X286289000Y-216710750D02*
X286289000Y-217223250D01*
G75*
G02*
X286070250Y-217442000I-218750J0D01*
G01*
X285632750Y-217442000D01*
G75*
G02*
X285414000Y-217223250I0J218750D01*
G01*
X285414000Y-216710750D01*
G75*
G02*
X285632750Y-216492000I218750J0D01*
G01*
X286070250Y-216492000D01*
G75*
G02*
X286289000Y-216710750I0J-218750D01*
G01*
G37*
G36*
G01*
X287864000Y-216710750D02*
X287864000Y-217223250D01*
G75*
G02*
X287645250Y-217442000I-218750J0D01*
G01*
X287207750Y-217442000D01*
G75*
G02*
X286989000Y-217223250I0J218750D01*
G01*
X286989000Y-216710750D01*
G75*
G02*
X287207750Y-216492000I218750J0D01*
G01*
X287645250Y-216492000D01*
G75*
G02*
X287864000Y-216710750I0J-218750D01*
G01*
G37*
G36*
G01*
X286289000Y-214271750D02*
X286289000Y-214784250D01*
G75*
G02*
X286070250Y-215003000I-218750J0D01*
G01*
X285632750Y-215003000D01*
G75*
G02*
X285414000Y-214784250I0J218750D01*
G01*
X285414000Y-214271750D01*
G75*
G02*
X285632750Y-214053000I218750J0D01*
G01*
X286070250Y-214053000D01*
G75*
G02*
X286289000Y-214271750I0J-218750D01*
G01*
G37*
G36*
G01*
X287864000Y-214271750D02*
X287864000Y-214784250D01*
G75*
G02*
X287645250Y-215003000I-218750J0D01*
G01*
X287207750Y-215003000D01*
G75*
G02*
X286989000Y-214784250I0J218750D01*
G01*
X286989000Y-214271750D01*
G75*
G02*
X287207750Y-214053000I218750J0D01*
G01*
X287645250Y-214053000D01*
G75*
G02*
X287864000Y-214271750I0J-218750D01*
G01*
G37*
G36*
G01*
X286289000Y-211681750D02*
X286289000Y-212194250D01*
G75*
G02*
X286070250Y-212413000I-218750J0D01*
G01*
X285632750Y-212413000D01*
G75*
G02*
X285414000Y-212194250I0J218750D01*
G01*
X285414000Y-211681750D01*
G75*
G02*
X285632750Y-211463000I218750J0D01*
G01*
X286070250Y-211463000D01*
G75*
G02*
X286289000Y-211681750I0J-218750D01*
G01*
G37*
G36*
G01*
X287864000Y-211681750D02*
X287864000Y-212194250D01*
G75*
G02*
X287645250Y-212413000I-218750J0D01*
G01*
X287207750Y-212413000D01*
G75*
G02*
X286989000Y-212194250I0J218750D01*
G01*
X286989000Y-211681750D01*
G75*
G02*
X287207750Y-211463000I218750J0D01*
G01*
X287645250Y-211463000D01*
G75*
G02*
X287864000Y-211681750I0J-218750D01*
G01*
G37*
G36*
G01*
X286289000Y-206397750D02*
X286289000Y-206910250D01*
G75*
G02*
X286070250Y-207129000I-218750J0D01*
G01*
X285632750Y-207129000D01*
G75*
G02*
X285414000Y-206910250I0J218750D01*
G01*
X285414000Y-206397750D01*
G75*
G02*
X285632750Y-206179000I218750J0D01*
G01*
X286070250Y-206179000D01*
G75*
G02*
X286289000Y-206397750I0J-218750D01*
G01*
G37*
G36*
G01*
X287864000Y-206397750D02*
X287864000Y-206910250D01*
G75*
G02*
X287645250Y-207129000I-218750J0D01*
G01*
X287207750Y-207129000D01*
G75*
G02*
X286989000Y-206910250I0J218750D01*
G01*
X286989000Y-206397750D01*
G75*
G02*
X287207750Y-206179000I218750J0D01*
G01*
X287645250Y-206179000D01*
G75*
G02*
X287864000Y-206397750I0J-218750D01*
G01*
G37*
G36*
G01*
X286289000Y-201368750D02*
X286289000Y-201881250D01*
G75*
G02*
X286070250Y-202100000I-218750J0D01*
G01*
X285632750Y-202100000D01*
G75*
G02*
X285414000Y-201881250I0J218750D01*
G01*
X285414000Y-201368750D01*
G75*
G02*
X285632750Y-201150000I218750J0D01*
G01*
X286070250Y-201150000D01*
G75*
G02*
X286289000Y-201368750I0J-218750D01*
G01*
G37*
G36*
G01*
X287864000Y-201368750D02*
X287864000Y-201881250D01*
G75*
G02*
X287645250Y-202100000I-218750J0D01*
G01*
X287207750Y-202100000D01*
G75*
G02*
X286989000Y-201881250I0J218750D01*
G01*
X286989000Y-201368750D01*
G75*
G02*
X287207750Y-201150000I218750J0D01*
G01*
X287645250Y-201150000D01*
G75*
G02*
X287864000Y-201368750I0J-218750D01*
G01*
G37*
G36*
G01*
X286289000Y-199082750D02*
X286289000Y-199595250D01*
G75*
G02*
X286070250Y-199814000I-218750J0D01*
G01*
X285632750Y-199814000D01*
G75*
G02*
X285414000Y-199595250I0J218750D01*
G01*
X285414000Y-199082750D01*
G75*
G02*
X285632750Y-198864000I218750J0D01*
G01*
X286070250Y-198864000D01*
G75*
G02*
X286289000Y-199082750I0J-218750D01*
G01*
G37*
G36*
G01*
X287864000Y-199082750D02*
X287864000Y-199595250D01*
G75*
G02*
X287645250Y-199814000I-218750J0D01*
G01*
X287207750Y-199814000D01*
G75*
G02*
X286989000Y-199595250I0J218750D01*
G01*
X286989000Y-199082750D01*
G75*
G02*
X287207750Y-198864000I218750J0D01*
G01*
X287645250Y-198864000D01*
G75*
G02*
X287864000Y-199082750I0J-218750D01*
G01*
G37*
G36*
G01*
X283027000Y-284584250D02*
X283027000Y-284071750D01*
G75*
G02*
X283245750Y-283853000I218750J0D01*
G01*
X283683250Y-283853000D01*
G75*
G02*
X283902000Y-284071750I0J-218750D01*
G01*
X283902000Y-284584250D01*
G75*
G02*
X283683250Y-284803000I-218750J0D01*
G01*
X283245750Y-284803000D01*
G75*
G02*
X283027000Y-284584250I0J218750D01*
G01*
G37*
G36*
G01*
X281452000Y-284584250D02*
X281452000Y-284071750D01*
G75*
G02*
X281670750Y-283853000I218750J0D01*
G01*
X282108250Y-283853000D01*
G75*
G02*
X282327000Y-284071750I0J-218750D01*
G01*
X282327000Y-284584250D01*
G75*
G02*
X282108250Y-284803000I-218750J0D01*
G01*
X281670750Y-284803000D01*
G75*
G02*
X281452000Y-284584250I0J218750D01*
G01*
G37*
G36*
G01*
X283027000Y-282094250D02*
X283027000Y-281581750D01*
G75*
G02*
X283245750Y-281363000I218750J0D01*
G01*
X283683250Y-281363000D01*
G75*
G02*
X283902000Y-281581750I0J-218750D01*
G01*
X283902000Y-282094250D01*
G75*
G02*
X283683250Y-282313000I-218750J0D01*
G01*
X283245750Y-282313000D01*
G75*
G02*
X283027000Y-282094250I0J218750D01*
G01*
G37*
G36*
G01*
X281452000Y-282094250D02*
X281452000Y-281581750D01*
G75*
G02*
X281670750Y-281363000I218750J0D01*
G01*
X282108250Y-281363000D01*
G75*
G02*
X282327000Y-281581750I0J-218750D01*
G01*
X282327000Y-282094250D01*
G75*
G02*
X282108250Y-282313000I-218750J0D01*
G01*
X281670750Y-282313000D01*
G75*
G02*
X281452000Y-282094250I0J218750D01*
G01*
G37*
G36*
G01*
X283027000Y-279250250D02*
X283027000Y-278737750D01*
G75*
G02*
X283245750Y-278519000I218750J0D01*
G01*
X283683250Y-278519000D01*
G75*
G02*
X283902000Y-278737750I0J-218750D01*
G01*
X283902000Y-279250250D01*
G75*
G02*
X283683250Y-279469000I-218750J0D01*
G01*
X283245750Y-279469000D01*
G75*
G02*
X283027000Y-279250250I0J218750D01*
G01*
G37*
G36*
G01*
X281452000Y-279250250D02*
X281452000Y-278737750D01*
G75*
G02*
X281670750Y-278519000I218750J0D01*
G01*
X282108250Y-278519000D01*
G75*
G02*
X282327000Y-278737750I0J-218750D01*
G01*
X282327000Y-279250250D01*
G75*
G02*
X282108250Y-279469000I-218750J0D01*
G01*
X281670750Y-279469000D01*
G75*
G02*
X281452000Y-279250250I0J218750D01*
G01*
G37*
G36*
G01*
X283052000Y-274894250D02*
X283052000Y-274381750D01*
G75*
G02*
X283270750Y-274163000I218750J0D01*
G01*
X283708250Y-274163000D01*
G75*
G02*
X283927000Y-274381750I0J-218750D01*
G01*
X283927000Y-274894250D01*
G75*
G02*
X283708250Y-275113000I-218750J0D01*
G01*
X283270750Y-275113000D01*
G75*
G02*
X283052000Y-274894250I0J218750D01*
G01*
G37*
G36*
G01*
X281477000Y-274894250D02*
X281477000Y-274381750D01*
G75*
G02*
X281695750Y-274163000I218750J0D01*
G01*
X282133250Y-274163000D01*
G75*
G02*
X282352000Y-274381750I0J-218750D01*
G01*
X282352000Y-274894250D01*
G75*
G02*
X282133250Y-275113000I-218750J0D01*
G01*
X281695750Y-275113000D01*
G75*
G02*
X281477000Y-274894250I0J218750D01*
G01*
G37*
G36*
G01*
X283027000Y-271972250D02*
X283027000Y-271459750D01*
G75*
G02*
X283245750Y-271241000I218750J0D01*
G01*
X283683250Y-271241000D01*
G75*
G02*
X283902000Y-271459750I0J-218750D01*
G01*
X283902000Y-271972250D01*
G75*
G02*
X283683250Y-272191000I-218750J0D01*
G01*
X283245750Y-272191000D01*
G75*
G02*
X283027000Y-271972250I0J218750D01*
G01*
G37*
G36*
G01*
X281452000Y-271972250D02*
X281452000Y-271459750D01*
G75*
G02*
X281670750Y-271241000I218750J0D01*
G01*
X282108250Y-271241000D01*
G75*
G02*
X282327000Y-271459750I0J-218750D01*
G01*
X282327000Y-271972250D01*
G75*
G02*
X282108250Y-272191000I-218750J0D01*
G01*
X281670750Y-272191000D01*
G75*
G02*
X281452000Y-271972250I0J218750D01*
G01*
G37*
G36*
G01*
X283027000Y-268988250D02*
X283027000Y-268475750D01*
G75*
G02*
X283245750Y-268257000I218750J0D01*
G01*
X283683250Y-268257000D01*
G75*
G02*
X283902000Y-268475750I0J-218750D01*
G01*
X283902000Y-268988250D01*
G75*
G02*
X283683250Y-269207000I-218750J0D01*
G01*
X283245750Y-269207000D01*
G75*
G02*
X283027000Y-268988250I0J218750D01*
G01*
G37*
G36*
G01*
X281452000Y-268988250D02*
X281452000Y-268475750D01*
G75*
G02*
X281670750Y-268257000I218750J0D01*
G01*
X282108250Y-268257000D01*
G75*
G02*
X282327000Y-268475750I0J-218750D01*
G01*
X282327000Y-268988250D01*
G75*
G02*
X282108250Y-269207000I-218750J0D01*
G01*
X281670750Y-269207000D01*
G75*
G02*
X281452000Y-268988250I0J218750D01*
G01*
G37*
G36*
G01*
X283027000Y-266702250D02*
X283027000Y-266189750D01*
G75*
G02*
X283245750Y-265971000I218750J0D01*
G01*
X283683250Y-265971000D01*
G75*
G02*
X283902000Y-266189750I0J-218750D01*
G01*
X283902000Y-266702250D01*
G75*
G02*
X283683250Y-266921000I-218750J0D01*
G01*
X283245750Y-266921000D01*
G75*
G02*
X283027000Y-266702250I0J218750D01*
G01*
G37*
G36*
G01*
X281452000Y-266702250D02*
X281452000Y-266189750D01*
G75*
G02*
X281670750Y-265971000I218750J0D01*
G01*
X282108250Y-265971000D01*
G75*
G02*
X282327000Y-266189750I0J-218750D01*
G01*
X282327000Y-266702250D01*
G75*
G02*
X282108250Y-266921000I-218750J0D01*
G01*
X281670750Y-266921000D01*
G75*
G02*
X281452000Y-266702250I0J218750D01*
G01*
G37*
G36*
G01*
X283027000Y-264860250D02*
X283027000Y-264347750D01*
G75*
G02*
X283245750Y-264129000I218750J0D01*
G01*
X283683250Y-264129000D01*
G75*
G02*
X283902000Y-264347750I0J-218750D01*
G01*
X283902000Y-264860250D01*
G75*
G02*
X283683250Y-265079000I-218750J0D01*
G01*
X283245750Y-265079000D01*
G75*
G02*
X283027000Y-264860250I0J218750D01*
G01*
G37*
G36*
G01*
X281452000Y-264860250D02*
X281452000Y-264347750D01*
G75*
G02*
X281670750Y-264129000I218750J0D01*
G01*
X282108250Y-264129000D01*
G75*
G02*
X282327000Y-264347750I0J-218750D01*
G01*
X282327000Y-264860250D01*
G75*
G02*
X282108250Y-265079000I-218750J0D01*
G01*
X281670750Y-265079000D01*
G75*
G02*
X281452000Y-264860250I0J218750D01*
G01*
G37*
G36*
G01*
X283027000Y-262448250D02*
X283027000Y-261935750D01*
G75*
G02*
X283245750Y-261717000I218750J0D01*
G01*
X283683250Y-261717000D01*
G75*
G02*
X283902000Y-261935750I0J-218750D01*
G01*
X283902000Y-262448250D01*
G75*
G02*
X283683250Y-262667000I-218750J0D01*
G01*
X283245750Y-262667000D01*
G75*
G02*
X283027000Y-262448250I0J218750D01*
G01*
G37*
G36*
G01*
X281452000Y-262448250D02*
X281452000Y-261935750D01*
G75*
G02*
X281670750Y-261717000I218750J0D01*
G01*
X282108250Y-261717000D01*
G75*
G02*
X282327000Y-261935750I0J-218750D01*
G01*
X282327000Y-262448250D01*
G75*
G02*
X282108250Y-262667000I-218750J0D01*
G01*
X281670750Y-262667000D01*
G75*
G02*
X281452000Y-262448250I0J218750D01*
G01*
G37*
G36*
G01*
X283027000Y-259400250D02*
X283027000Y-258887750D01*
G75*
G02*
X283245750Y-258669000I218750J0D01*
G01*
X283683250Y-258669000D01*
G75*
G02*
X283902000Y-258887750I0J-218750D01*
G01*
X283902000Y-259400250D01*
G75*
G02*
X283683250Y-259619000I-218750J0D01*
G01*
X283245750Y-259619000D01*
G75*
G02*
X283027000Y-259400250I0J218750D01*
G01*
G37*
G36*
G01*
X281452000Y-259400250D02*
X281452000Y-258887750D01*
G75*
G02*
X281670750Y-258669000I218750J0D01*
G01*
X282108250Y-258669000D01*
G75*
G02*
X282327000Y-258887750I0J-218750D01*
G01*
X282327000Y-259400250D01*
G75*
G02*
X282108250Y-259619000I-218750J0D01*
G01*
X281670750Y-259619000D01*
G75*
G02*
X281452000Y-259400250I0J218750D01*
G01*
G37*
G36*
G01*
X283027000Y-256542250D02*
X283027000Y-256029750D01*
G75*
G02*
X283245750Y-255811000I218750J0D01*
G01*
X283683250Y-255811000D01*
G75*
G02*
X283902000Y-256029750I0J-218750D01*
G01*
X283902000Y-256542250D01*
G75*
G02*
X283683250Y-256761000I-218750J0D01*
G01*
X283245750Y-256761000D01*
G75*
G02*
X283027000Y-256542250I0J218750D01*
G01*
G37*
G36*
G01*
X281452000Y-256542250D02*
X281452000Y-256029750D01*
G75*
G02*
X281670750Y-255811000I218750J0D01*
G01*
X282108250Y-255811000D01*
G75*
G02*
X282327000Y-256029750I0J-218750D01*
G01*
X282327000Y-256542250D01*
G75*
G02*
X282108250Y-256761000I-218750J0D01*
G01*
X281670750Y-256761000D01*
G75*
G02*
X281452000Y-256542250I0J218750D01*
G01*
G37*
G36*
G01*
X283027000Y-253558250D02*
X283027000Y-253045750D01*
G75*
G02*
X283245750Y-252827000I218750J0D01*
G01*
X283683250Y-252827000D01*
G75*
G02*
X283902000Y-253045750I0J-218750D01*
G01*
X283902000Y-253558250D01*
G75*
G02*
X283683250Y-253777000I-218750J0D01*
G01*
X283245750Y-253777000D01*
G75*
G02*
X283027000Y-253558250I0J218750D01*
G01*
G37*
G36*
G01*
X281452000Y-253558250D02*
X281452000Y-253045750D01*
G75*
G02*
X281670750Y-252827000I218750J0D01*
G01*
X282108250Y-252827000D01*
G75*
G02*
X282327000Y-253045750I0J-218750D01*
G01*
X282327000Y-253558250D01*
G75*
G02*
X282108250Y-253777000I-218750J0D01*
G01*
X281670750Y-253777000D01*
G75*
G02*
X281452000Y-253558250I0J218750D01*
G01*
G37*
G36*
G01*
X283052000Y-250573250D02*
X283052000Y-250060750D01*
G75*
G02*
X283270750Y-249842000I218750J0D01*
G01*
X283708250Y-249842000D01*
G75*
G02*
X283927000Y-250060750I0J-218750D01*
G01*
X283927000Y-250573250D01*
G75*
G02*
X283708250Y-250792000I-218750J0D01*
G01*
X283270750Y-250792000D01*
G75*
G02*
X283052000Y-250573250I0J218750D01*
G01*
G37*
G36*
G01*
X281477000Y-250573250D02*
X281477000Y-250060750D01*
G75*
G02*
X281695750Y-249842000I218750J0D01*
G01*
X282133250Y-249842000D01*
G75*
G02*
X282352000Y-250060750I0J-218750D01*
G01*
X282352000Y-250573250D01*
G75*
G02*
X282133250Y-250792000I-218750J0D01*
G01*
X281695750Y-250792000D01*
G75*
G02*
X281477000Y-250573250I0J218750D01*
G01*
G37*
G36*
G01*
X282988000Y-248541250D02*
X282988000Y-248028750D01*
G75*
G02*
X283206750Y-247810000I218750J0D01*
G01*
X283644250Y-247810000D01*
G75*
G02*
X283863000Y-248028750I0J-218750D01*
G01*
X283863000Y-248541250D01*
G75*
G02*
X283644250Y-248760000I-218750J0D01*
G01*
X283206750Y-248760000D01*
G75*
G02*
X282988000Y-248541250I0J218750D01*
G01*
G37*
G36*
G01*
X281413000Y-248541250D02*
X281413000Y-248028750D01*
G75*
G02*
X281631750Y-247810000I218750J0D01*
G01*
X282069250Y-247810000D01*
G75*
G02*
X282288000Y-248028750I0J-218750D01*
G01*
X282288000Y-248541250D01*
G75*
G02*
X282069250Y-248760000I-218750J0D01*
G01*
X281631750Y-248760000D01*
G75*
G02*
X281413000Y-248541250I0J218750D01*
G01*
G37*
G36*
G01*
X283027000Y-238711250D02*
X283027000Y-238198750D01*
G75*
G02*
X283245750Y-237980000I218750J0D01*
G01*
X283683250Y-237980000D01*
G75*
G02*
X283902000Y-238198750I0J-218750D01*
G01*
X283902000Y-238711250D01*
G75*
G02*
X283683250Y-238930000I-218750J0D01*
G01*
X283245750Y-238930000D01*
G75*
G02*
X283027000Y-238711250I0J218750D01*
G01*
G37*
G36*
G01*
X281452000Y-238711250D02*
X281452000Y-238198750D01*
G75*
G02*
X281670750Y-237980000I218750J0D01*
G01*
X282108250Y-237980000D01*
G75*
G02*
X282327000Y-238198750I0J-218750D01*
G01*
X282327000Y-238711250D01*
G75*
G02*
X282108250Y-238930000I-218750J0D01*
G01*
X281670750Y-238930000D01*
G75*
G02*
X281452000Y-238711250I0J218750D01*
G01*
G37*
G36*
G01*
X283027000Y-228983250D02*
X283027000Y-228470750D01*
G75*
G02*
X283245750Y-228252000I218750J0D01*
G01*
X283683250Y-228252000D01*
G75*
G02*
X283902000Y-228470750I0J-218750D01*
G01*
X283902000Y-228983250D01*
G75*
G02*
X283683250Y-229202000I-218750J0D01*
G01*
X283245750Y-229202000D01*
G75*
G02*
X283027000Y-228983250I0J218750D01*
G01*
G37*
G36*
G01*
X281452000Y-228983250D02*
X281452000Y-228470750D01*
G75*
G02*
X281670750Y-228252000I218750J0D01*
G01*
X282108250Y-228252000D01*
G75*
G02*
X282327000Y-228470750I0J-218750D01*
G01*
X282327000Y-228983250D01*
G75*
G02*
X282108250Y-229202000I-218750J0D01*
G01*
X281670750Y-229202000D01*
G75*
G02*
X281452000Y-228983250I0J218750D01*
G01*
G37*
G36*
G01*
X283027000Y-225998250D02*
X283027000Y-225485750D01*
G75*
G02*
X283245750Y-225267000I218750J0D01*
G01*
X283683250Y-225267000D01*
G75*
G02*
X283902000Y-225485750I0J-218750D01*
G01*
X283902000Y-225998250D01*
G75*
G02*
X283683250Y-226217000I-218750J0D01*
G01*
X283245750Y-226217000D01*
G75*
G02*
X283027000Y-225998250I0J218750D01*
G01*
G37*
G36*
G01*
X281452000Y-225998250D02*
X281452000Y-225485750D01*
G75*
G02*
X281670750Y-225267000I218750J0D01*
G01*
X282108250Y-225267000D01*
G75*
G02*
X282327000Y-225485750I0J-218750D01*
G01*
X282327000Y-225998250D01*
G75*
G02*
X282108250Y-226217000I-218750J0D01*
G01*
X281670750Y-226217000D01*
G75*
G02*
X281452000Y-225998250I0J218750D01*
G01*
G37*
G36*
G01*
X282988000Y-218950250D02*
X282988000Y-218437750D01*
G75*
G02*
X283206750Y-218219000I218750J0D01*
G01*
X283644250Y-218219000D01*
G75*
G02*
X283863000Y-218437750I0J-218750D01*
G01*
X283863000Y-218950250D01*
G75*
G02*
X283644250Y-219169000I-218750J0D01*
G01*
X283206750Y-219169000D01*
G75*
G02*
X282988000Y-218950250I0J218750D01*
G01*
G37*
G36*
G01*
X281413000Y-218950250D02*
X281413000Y-218437750D01*
G75*
G02*
X281631750Y-218219000I218750J0D01*
G01*
X282069250Y-218219000D01*
G75*
G02*
X282288000Y-218437750I0J-218750D01*
G01*
X282288000Y-218950250D01*
G75*
G02*
X282069250Y-219169000I-218750J0D01*
G01*
X281631750Y-219169000D01*
G75*
G02*
X281413000Y-218950250I0J218750D01*
G01*
G37*
G36*
G01*
X283027000Y-216029250D02*
X283027000Y-215516750D01*
G75*
G02*
X283245750Y-215298000I218750J0D01*
G01*
X283683250Y-215298000D01*
G75*
G02*
X283902000Y-215516750I0J-218750D01*
G01*
X283902000Y-216029250D01*
G75*
G02*
X283683250Y-216248000I-218750J0D01*
G01*
X283245750Y-216248000D01*
G75*
G02*
X283027000Y-216029250I0J218750D01*
G01*
G37*
G36*
G01*
X281452000Y-216029250D02*
X281452000Y-215516750D01*
G75*
G02*
X281670750Y-215298000I218750J0D01*
G01*
X282108250Y-215298000D01*
G75*
G02*
X282327000Y-215516750I0J-218750D01*
G01*
X282327000Y-216029250D01*
G75*
G02*
X282108250Y-216248000I-218750J0D01*
G01*
X281670750Y-216248000D01*
G75*
G02*
X281452000Y-216029250I0J218750D01*
G01*
G37*
G36*
G01*
X283027000Y-213108250D02*
X283027000Y-212595750D01*
G75*
G02*
X283245750Y-212377000I218750J0D01*
G01*
X283683250Y-212377000D01*
G75*
G02*
X283902000Y-212595750I0J-218750D01*
G01*
X283902000Y-213108250D01*
G75*
G02*
X283683250Y-213327000I-218750J0D01*
G01*
X283245750Y-213327000D01*
G75*
G02*
X283027000Y-213108250I0J218750D01*
G01*
G37*
G36*
G01*
X281452000Y-213108250D02*
X281452000Y-212595750D01*
G75*
G02*
X281670750Y-212377000I218750J0D01*
G01*
X282108250Y-212377000D01*
G75*
G02*
X282327000Y-212595750I0J-218750D01*
G01*
X282327000Y-213108250D01*
G75*
G02*
X282108250Y-213327000I-218750J0D01*
G01*
X281670750Y-213327000D01*
G75*
G02*
X281452000Y-213108250I0J218750D01*
G01*
G37*
G36*
G01*
X283027000Y-210124250D02*
X283027000Y-209611750D01*
G75*
G02*
X283245750Y-209393000I218750J0D01*
G01*
X283683250Y-209393000D01*
G75*
G02*
X283902000Y-209611750I0J-218750D01*
G01*
X283902000Y-210124250D01*
G75*
G02*
X283683250Y-210343000I-218750J0D01*
G01*
X283245750Y-210343000D01*
G75*
G02*
X283027000Y-210124250I0J218750D01*
G01*
G37*
G36*
G01*
X281452000Y-210124250D02*
X281452000Y-209611750D01*
G75*
G02*
X281670750Y-209393000I218750J0D01*
G01*
X282108250Y-209393000D01*
G75*
G02*
X282327000Y-209611750I0J-218750D01*
G01*
X282327000Y-210124250D01*
G75*
G02*
X282108250Y-210343000I-218750J0D01*
G01*
X281670750Y-210343000D01*
G75*
G02*
X281452000Y-210124250I0J218750D01*
G01*
G37*
G36*
G01*
X283027000Y-208218250D02*
X283027000Y-207705750D01*
G75*
G02*
X283245750Y-207487000I218750J0D01*
G01*
X283683250Y-207487000D01*
G75*
G02*
X283902000Y-207705750I0J-218750D01*
G01*
X283902000Y-208218250D01*
G75*
G02*
X283683250Y-208437000I-218750J0D01*
G01*
X283245750Y-208437000D01*
G75*
G02*
X283027000Y-208218250I0J218750D01*
G01*
G37*
G36*
G01*
X281452000Y-208218250D02*
X281452000Y-207705750D01*
G75*
G02*
X281670750Y-207487000I218750J0D01*
G01*
X282108250Y-207487000D01*
G75*
G02*
X282327000Y-207705750I0J-218750D01*
G01*
X282327000Y-208218250D01*
G75*
G02*
X282108250Y-208437000I-218750J0D01*
G01*
X281670750Y-208437000D01*
G75*
G02*
X281452000Y-208218250I0J218750D01*
G01*
G37*
G36*
G01*
X281452000Y-205996250D02*
X281452000Y-205483750D01*
G75*
G02*
X281670750Y-205265000I218750J0D01*
G01*
X282108250Y-205265000D01*
G75*
G02*
X282327000Y-205483750I0J-218750D01*
G01*
X282327000Y-205996250D01*
G75*
G02*
X282108250Y-206215000I-218750J0D01*
G01*
X281670750Y-206215000D01*
G75*
G02*
X281452000Y-205996250I0J218750D01*
G01*
G37*
G36*
G01*
X283027000Y-205996250D02*
X283027000Y-205483750D01*
G75*
G02*
X283245750Y-205265000I218750J0D01*
G01*
X283683250Y-205265000D01*
G75*
G02*
X283902000Y-205483750I0J-218750D01*
G01*
X283902000Y-205996250D01*
G75*
G02*
X283683250Y-206215000I-218750J0D01*
G01*
X283245750Y-206215000D01*
G75*
G02*
X283027000Y-205996250I0J218750D01*
G01*
G37*
G36*
G01*
X282327000Y-243380750D02*
X282327000Y-243893250D01*
G75*
G02*
X282108250Y-244112000I-218750J0D01*
G01*
X281670750Y-244112000D01*
G75*
G02*
X281452000Y-243893250I0J218750D01*
G01*
X281452000Y-243380750D01*
G75*
G02*
X281670750Y-243162000I218750J0D01*
G01*
X282108250Y-243162000D01*
G75*
G02*
X282327000Y-243380750I0J-218750D01*
G01*
G37*
G36*
G01*
X283902000Y-243380750D02*
X283902000Y-243893250D01*
G75*
G02*
X283683250Y-244112000I-218750J0D01*
G01*
X283245750Y-244112000D01*
G75*
G02*
X283027000Y-243893250I0J218750D01*
G01*
X283027000Y-243380750D01*
G75*
G02*
X283245750Y-243162000I218750J0D01*
G01*
X283683250Y-243162000D01*
G75*
G02*
X283902000Y-243380750I0J-218750D01*
G01*
G37*
G36*
G01*
X283052000Y-236286250D02*
X283052000Y-235773750D01*
G75*
G02*
X283270750Y-235555000I218750J0D01*
G01*
X283708250Y-235555000D01*
G75*
G02*
X283927000Y-235773750I0J-218750D01*
G01*
X283927000Y-236286250D01*
G75*
G02*
X283708250Y-236505000I-218750J0D01*
G01*
X283270750Y-236505000D01*
G75*
G02*
X283052000Y-236286250I0J218750D01*
G01*
G37*
G36*
G01*
X281477000Y-236286250D02*
X281477000Y-235773750D01*
G75*
G02*
X281695750Y-235555000I218750J0D01*
G01*
X282133250Y-235555000D01*
G75*
G02*
X282352000Y-235773750I0J-218750D01*
G01*
X282352000Y-236286250D01*
G75*
G02*
X282133250Y-236505000I-218750J0D01*
G01*
X281695750Y-236505000D01*
G75*
G02*
X281477000Y-236286250I0J218750D01*
G01*
G37*
G36*
G01*
X282988000Y-234063250D02*
X282988000Y-233550750D01*
G75*
G02*
X283206750Y-233332000I218750J0D01*
G01*
X283644250Y-233332000D01*
G75*
G02*
X283863000Y-233550750I0J-218750D01*
G01*
X283863000Y-234063250D01*
G75*
G02*
X283644250Y-234282000I-218750J0D01*
G01*
X283206750Y-234282000D01*
G75*
G02*
X282988000Y-234063250I0J218750D01*
G01*
G37*
G36*
G01*
X281413000Y-234063250D02*
X281413000Y-233550750D01*
G75*
G02*
X281631750Y-233332000I218750J0D01*
G01*
X282069250Y-233332000D01*
G75*
G02*
X282288000Y-233550750I0J-218750D01*
G01*
X282288000Y-234063250D01*
G75*
G02*
X282069250Y-234282000I-218750J0D01*
G01*
X281631750Y-234282000D01*
G75*
G02*
X281413000Y-234063250I0J218750D01*
G01*
G37*
G36*
G01*
X282327000Y-230629750D02*
X282327000Y-231142250D01*
G75*
G02*
X282108250Y-231361000I-218750J0D01*
G01*
X281670750Y-231361000D01*
G75*
G02*
X281452000Y-231142250I0J218750D01*
G01*
X281452000Y-230629750D01*
G75*
G02*
X281670750Y-230411000I218750J0D01*
G01*
X282108250Y-230411000D01*
G75*
G02*
X282327000Y-230629750I0J-218750D01*
G01*
G37*
G36*
G01*
X283902000Y-230629750D02*
X283902000Y-231142250D01*
G75*
G02*
X283683250Y-231361000I-218750J0D01*
G01*
X283245750Y-231361000D01*
G75*
G02*
X283027000Y-231142250I0J218750D01*
G01*
X283027000Y-230629750D01*
G75*
G02*
X283245750Y-230411000I218750J0D01*
G01*
X283683250Y-230411000D01*
G75*
G02*
X283902000Y-230629750I0J-218750D01*
G01*
G37*
G36*
G01*
X282352000Y-220913750D02*
X282352000Y-221426250D01*
G75*
G02*
X282133250Y-221645000I-218750J0D01*
G01*
X281695750Y-221645000D01*
G75*
G02*
X281477000Y-221426250I0J218750D01*
G01*
X281477000Y-220913750D01*
G75*
G02*
X281695750Y-220695000I218750J0D01*
G01*
X282133250Y-220695000D01*
G75*
G02*
X282352000Y-220913750I0J-218750D01*
G01*
G37*
G36*
G01*
X283927000Y-220913750D02*
X283927000Y-221426250D01*
G75*
G02*
X283708250Y-221645000I-218750J0D01*
G01*
X283270750Y-221645000D01*
G75*
G02*
X283052000Y-221426250I0J218750D01*
G01*
X283052000Y-220913750D01*
G75*
G02*
X283270750Y-220695000I218750J0D01*
G01*
X283708250Y-220695000D01*
G75*
G02*
X283927000Y-220913750I0J-218750D01*
G01*
G37*
G36*
G01*
X282352000Y-202499750D02*
X282352000Y-203012250D01*
G75*
G02*
X282133250Y-203231000I-218750J0D01*
G01*
X281695750Y-203231000D01*
G75*
G02*
X281477000Y-203012250I0J218750D01*
G01*
X281477000Y-202499750D01*
G75*
G02*
X281695750Y-202281000I218750J0D01*
G01*
X282133250Y-202281000D01*
G75*
G02*
X282352000Y-202499750I0J-218750D01*
G01*
G37*
G36*
G01*
X283927000Y-202499750D02*
X283927000Y-203012250D01*
G75*
G02*
X283708250Y-203231000I-218750J0D01*
G01*
X283270750Y-203231000D01*
G75*
G02*
X283052000Y-203012250I0J218750D01*
G01*
X283052000Y-202499750D01*
G75*
G02*
X283270750Y-202281000I218750J0D01*
G01*
X283708250Y-202281000D01*
G75*
G02*
X283927000Y-202499750I0J-218750D01*
G01*
G37*
G36*
G01*
X282352000Y-199641750D02*
X282352000Y-200154250D01*
G75*
G02*
X282133250Y-200373000I-218750J0D01*
G01*
X281695750Y-200373000D01*
G75*
G02*
X281477000Y-200154250I0J218750D01*
G01*
X281477000Y-199641750D01*
G75*
G02*
X281695750Y-199423000I218750J0D01*
G01*
X282133250Y-199423000D01*
G75*
G02*
X282352000Y-199641750I0J-218750D01*
G01*
G37*
G36*
G01*
X283927000Y-199641750D02*
X283927000Y-200154250D01*
G75*
G02*
X283708250Y-200373000I-218750J0D01*
G01*
X283270750Y-200373000D01*
G75*
G02*
X283052000Y-200154250I0J218750D01*
G01*
X283052000Y-199641750D01*
G75*
G02*
X283270750Y-199423000I218750J0D01*
G01*
X283708250Y-199423000D01*
G75*
G02*
X283927000Y-199641750I0J-218750D01*
G01*
G37*
G36*
G01*
X282288000Y-196783750D02*
X282288000Y-197296250D01*
G75*
G02*
X282069250Y-197515000I-218750J0D01*
G01*
X281631750Y-197515000D01*
G75*
G02*
X281413000Y-197296250I0J218750D01*
G01*
X281413000Y-196783750D01*
G75*
G02*
X281631750Y-196565000I218750J0D01*
G01*
X282069250Y-196565000D01*
G75*
G02*
X282288000Y-196783750I0J-218750D01*
G01*
G37*
G36*
G01*
X283863000Y-196783750D02*
X283863000Y-197296250D01*
G75*
G02*
X283644250Y-197515000I-218750J0D01*
G01*
X283206750Y-197515000D01*
G75*
G02*
X282988000Y-197296250I0J218750D01*
G01*
X282988000Y-196783750D01*
G75*
G02*
X283206750Y-196565000I218750J0D01*
G01*
X283644250Y-196565000D01*
G75*
G02*
X283863000Y-196783750I0J-218750D01*
G01*
G37*
G36*
G01*
X219258000Y-282902750D02*
X219258000Y-283415250D01*
G75*
G02*
X219039250Y-283634000I-218750J0D01*
G01*
X218601750Y-283634000D01*
G75*
G02*
X218383000Y-283415250I0J218750D01*
G01*
X218383000Y-282902750D01*
G75*
G02*
X218601750Y-282684000I218750J0D01*
G01*
X219039250Y-282684000D01*
G75*
G02*
X219258000Y-282902750I0J-218750D01*
G01*
G37*
G36*
G01*
X220833000Y-282902750D02*
X220833000Y-283415250D01*
G75*
G02*
X220614250Y-283634000I-218750J0D01*
G01*
X220176750Y-283634000D01*
G75*
G02*
X219958000Y-283415250I0J218750D01*
G01*
X219958000Y-282902750D01*
G75*
G02*
X220176750Y-282684000I218750J0D01*
G01*
X220614250Y-282684000D01*
G75*
G02*
X220833000Y-282902750I0J-218750D01*
G01*
G37*
G36*
G01*
X207639000Y-280862250D02*
X207639000Y-280349750D01*
G75*
G02*
X207857750Y-280131000I218750J0D01*
G01*
X208295250Y-280131000D01*
G75*
G02*
X208514000Y-280349750I0J-218750D01*
G01*
X208514000Y-280862250D01*
G75*
G02*
X208295250Y-281081000I-218750J0D01*
G01*
X207857750Y-281081000D01*
G75*
G02*
X207639000Y-280862250I0J218750D01*
G01*
G37*
G36*
G01*
X206064000Y-280862250D02*
X206064000Y-280349750D01*
G75*
G02*
X206282750Y-280131000I218750J0D01*
G01*
X206720250Y-280131000D01*
G75*
G02*
X206939000Y-280349750I0J-218750D01*
G01*
X206939000Y-280862250D01*
G75*
G02*
X206720250Y-281081000I-218750J0D01*
G01*
X206282750Y-281081000D01*
G75*
G02*
X206064000Y-280862250I0J218750D01*
G01*
G37*
G36*
G01*
X207639000Y-277383250D02*
X207639000Y-276870750D01*
G75*
G02*
X207857750Y-276652000I218750J0D01*
G01*
X208295250Y-276652000D01*
G75*
G02*
X208514000Y-276870750I0J-218750D01*
G01*
X208514000Y-277383250D01*
G75*
G02*
X208295250Y-277602000I-218750J0D01*
G01*
X207857750Y-277602000D01*
G75*
G02*
X207639000Y-277383250I0J218750D01*
G01*
G37*
G36*
G01*
X206064000Y-277383250D02*
X206064000Y-276870750D01*
G75*
G02*
X206282750Y-276652000I218750J0D01*
G01*
X206720250Y-276652000D01*
G75*
G02*
X206939000Y-276870750I0J-218750D01*
G01*
X206939000Y-277383250D01*
G75*
G02*
X206720250Y-277602000I-218750J0D01*
G01*
X206282750Y-277602000D01*
G75*
G02*
X206064000Y-277383250I0J218750D01*
G01*
G37*
G36*
G01*
X207639000Y-274068250D02*
X207639000Y-273555750D01*
G75*
G02*
X207857750Y-273337000I218750J0D01*
G01*
X208295250Y-273337000D01*
G75*
G02*
X208514000Y-273555750I0J-218750D01*
G01*
X208514000Y-274068250D01*
G75*
G02*
X208295250Y-274287000I-218750J0D01*
G01*
X207857750Y-274287000D01*
G75*
G02*
X207639000Y-274068250I0J218750D01*
G01*
G37*
G36*
G01*
X206064000Y-274068250D02*
X206064000Y-273555750D01*
G75*
G02*
X206282750Y-273337000I218750J0D01*
G01*
X206720250Y-273337000D01*
G75*
G02*
X206939000Y-273555750I0J-218750D01*
G01*
X206939000Y-274068250D01*
G75*
G02*
X206720250Y-274287000I-218750J0D01*
G01*
X206282750Y-274287000D01*
G75*
G02*
X206064000Y-274068250I0J218750D01*
G01*
G37*
G36*
G01*
X207614000Y-267146250D02*
X207614000Y-266633750D01*
G75*
G02*
X207832750Y-266415000I218750J0D01*
G01*
X208270250Y-266415000D01*
G75*
G02*
X208489000Y-266633750I0J-218750D01*
G01*
X208489000Y-267146250D01*
G75*
G02*
X208270250Y-267365000I-218750J0D01*
G01*
X207832750Y-267365000D01*
G75*
G02*
X207614000Y-267146250I0J218750D01*
G01*
G37*
G36*
G01*
X206039000Y-267146250D02*
X206039000Y-266633750D01*
G75*
G02*
X206257750Y-266415000I218750J0D01*
G01*
X206695250Y-266415000D01*
G75*
G02*
X206914000Y-266633750I0J-218750D01*
G01*
X206914000Y-267146250D01*
G75*
G02*
X206695250Y-267365000I-218750J0D01*
G01*
X206257750Y-267365000D01*
G75*
G02*
X206039000Y-267146250I0J218750D01*
G01*
G37*
G36*
G01*
X207639000Y-261724250D02*
X207639000Y-261211750D01*
G75*
G02*
X207857750Y-260993000I218750J0D01*
G01*
X208295250Y-260993000D01*
G75*
G02*
X208514000Y-261211750I0J-218750D01*
G01*
X208514000Y-261724250D01*
G75*
G02*
X208295250Y-261943000I-218750J0D01*
G01*
X207857750Y-261943000D01*
G75*
G02*
X207639000Y-261724250I0J218750D01*
G01*
G37*
G36*
G01*
X206064000Y-261724250D02*
X206064000Y-261211750D01*
G75*
G02*
X206282750Y-260993000I218750J0D01*
G01*
X206720250Y-260993000D01*
G75*
G02*
X206939000Y-261211750I0J-218750D01*
G01*
X206939000Y-261724250D01*
G75*
G02*
X206720250Y-261943000I-218750J0D01*
G01*
X206282750Y-261943000D01*
G75*
G02*
X206064000Y-261724250I0J218750D01*
G01*
G37*
G36*
G01*
X207639000Y-259272250D02*
X207639000Y-258759750D01*
G75*
G02*
X207857750Y-258541000I218750J0D01*
G01*
X208295250Y-258541000D01*
G75*
G02*
X208514000Y-258759750I0J-218750D01*
G01*
X208514000Y-259272250D01*
G75*
G02*
X208295250Y-259491000I-218750J0D01*
G01*
X207857750Y-259491000D01*
G75*
G02*
X207639000Y-259272250I0J218750D01*
G01*
G37*
G36*
G01*
X206064000Y-259272250D02*
X206064000Y-258759750D01*
G75*
G02*
X206282750Y-258541000I218750J0D01*
G01*
X206720250Y-258541000D01*
G75*
G02*
X206939000Y-258759750I0J-218750D01*
G01*
X206939000Y-259272250D01*
G75*
G02*
X206720250Y-259491000I-218750J0D01*
G01*
X206282750Y-259491000D01*
G75*
G02*
X206064000Y-259272250I0J218750D01*
G01*
G37*
G36*
G01*
X207639000Y-256745250D02*
X207639000Y-256232750D01*
G75*
G02*
X207857750Y-256014000I218750J0D01*
G01*
X208295250Y-256014000D01*
G75*
G02*
X208514000Y-256232750I0J-218750D01*
G01*
X208514000Y-256745250D01*
G75*
G02*
X208295250Y-256964000I-218750J0D01*
G01*
X207857750Y-256964000D01*
G75*
G02*
X207639000Y-256745250I0J218750D01*
G01*
G37*
G36*
G01*
X206064000Y-256745250D02*
X206064000Y-256232750D01*
G75*
G02*
X206282750Y-256014000I218750J0D01*
G01*
X206720250Y-256014000D01*
G75*
G02*
X206939000Y-256232750I0J-218750D01*
G01*
X206939000Y-256745250D01*
G75*
G02*
X206720250Y-256964000I-218750J0D01*
G01*
X206282750Y-256964000D01*
G75*
G02*
X206064000Y-256745250I0J218750D01*
G01*
G37*
G36*
G01*
X207639000Y-236222250D02*
X207639000Y-235709750D01*
G75*
G02*
X207857750Y-235491000I218750J0D01*
G01*
X208295250Y-235491000D01*
G75*
G02*
X208514000Y-235709750I0J-218750D01*
G01*
X208514000Y-236222250D01*
G75*
G02*
X208295250Y-236441000I-218750J0D01*
G01*
X207857750Y-236441000D01*
G75*
G02*
X207639000Y-236222250I0J218750D01*
G01*
G37*
G36*
G01*
X206064000Y-236222250D02*
X206064000Y-235709750D01*
G75*
G02*
X206282750Y-235491000I218750J0D01*
G01*
X206720250Y-235491000D01*
G75*
G02*
X206939000Y-235709750I0J-218750D01*
G01*
X206939000Y-236222250D01*
G75*
G02*
X206720250Y-236441000I-218750J0D01*
G01*
X206282750Y-236441000D01*
G75*
G02*
X206064000Y-236222250I0J218750D01*
G01*
G37*
G36*
G01*
X207639000Y-231091250D02*
X207639000Y-230578750D01*
G75*
G02*
X207857750Y-230360000I218750J0D01*
G01*
X208295250Y-230360000D01*
G75*
G02*
X208514000Y-230578750I0J-218750D01*
G01*
X208514000Y-231091250D01*
G75*
G02*
X208295250Y-231310000I-218750J0D01*
G01*
X207857750Y-231310000D01*
G75*
G02*
X207639000Y-231091250I0J218750D01*
G01*
G37*
G36*
G01*
X206064000Y-231091250D02*
X206064000Y-230578750D01*
G75*
G02*
X206282750Y-230360000I218750J0D01*
G01*
X206720250Y-230360000D01*
G75*
G02*
X206939000Y-230578750I0J-218750D01*
G01*
X206939000Y-231091250D01*
G75*
G02*
X206720250Y-231310000I-218750J0D01*
G01*
X206282750Y-231310000D01*
G75*
G02*
X206064000Y-231091250I0J218750D01*
G01*
G37*
G36*
G01*
X206939000Y-263598750D02*
X206939000Y-264111250D01*
G75*
G02*
X206720250Y-264330000I-218750J0D01*
G01*
X206282750Y-264330000D01*
G75*
G02*
X206064000Y-264111250I0J218750D01*
G01*
X206064000Y-263598750D01*
G75*
G02*
X206282750Y-263380000I218750J0D01*
G01*
X206720250Y-263380000D01*
G75*
G02*
X206939000Y-263598750I0J-218750D01*
G01*
G37*
G36*
G01*
X208514000Y-263598750D02*
X208514000Y-264111250D01*
G75*
G02*
X208295250Y-264330000I-218750J0D01*
G01*
X207857750Y-264330000D01*
G75*
G02*
X207639000Y-264111250I0J218750D01*
G01*
X207639000Y-263598750D01*
G75*
G02*
X207857750Y-263380000I218750J0D01*
G01*
X208295250Y-263380000D01*
G75*
G02*
X208514000Y-263598750I0J-218750D01*
G01*
G37*
G36*
G01*
X207614000Y-226506250D02*
X207614000Y-225993750D01*
G75*
G02*
X207832750Y-225775000I218750J0D01*
G01*
X208270250Y-225775000D01*
G75*
G02*
X208489000Y-225993750I0J-218750D01*
G01*
X208489000Y-226506250D01*
G75*
G02*
X208270250Y-226725000I-218750J0D01*
G01*
X207832750Y-226725000D01*
G75*
G02*
X207614000Y-226506250I0J218750D01*
G01*
G37*
G36*
G01*
X206039000Y-226506250D02*
X206039000Y-225993750D01*
G75*
G02*
X206257750Y-225775000I218750J0D01*
G01*
X206695250Y-225775000D01*
G75*
G02*
X206914000Y-225993750I0J-218750D01*
G01*
X206914000Y-226506250D01*
G75*
G02*
X206695250Y-226725000I-218750J0D01*
G01*
X206257750Y-226725000D01*
G75*
G02*
X206039000Y-226506250I0J218750D01*
G01*
G37*
G36*
G01*
X207639000Y-218544250D02*
X207639000Y-218031750D01*
G75*
G02*
X207857750Y-217813000I218750J0D01*
G01*
X208295250Y-217813000D01*
G75*
G02*
X208514000Y-218031750I0J-218750D01*
G01*
X208514000Y-218544250D01*
G75*
G02*
X208295250Y-218763000I-218750J0D01*
G01*
X207857750Y-218763000D01*
G75*
G02*
X207639000Y-218544250I0J218750D01*
G01*
G37*
G36*
G01*
X206064000Y-218544250D02*
X206064000Y-218031750D01*
G75*
G02*
X206282750Y-217813000I218750J0D01*
G01*
X206720250Y-217813000D01*
G75*
G02*
X206939000Y-218031750I0J-218750D01*
G01*
X206939000Y-218544250D01*
G75*
G02*
X206720250Y-218763000I-218750J0D01*
G01*
X206282750Y-218763000D01*
G75*
G02*
X206064000Y-218544250I0J218750D01*
G01*
G37*
G36*
G01*
X207639000Y-216105250D02*
X207639000Y-215592750D01*
G75*
G02*
X207857750Y-215374000I218750J0D01*
G01*
X208295250Y-215374000D01*
G75*
G02*
X208514000Y-215592750I0J-218750D01*
G01*
X208514000Y-216105250D01*
G75*
G02*
X208295250Y-216324000I-218750J0D01*
G01*
X207857750Y-216324000D01*
G75*
G02*
X207639000Y-216105250I0J218750D01*
G01*
G37*
G36*
G01*
X206064000Y-216105250D02*
X206064000Y-215592750D01*
G75*
G02*
X206282750Y-215374000I218750J0D01*
G01*
X206720250Y-215374000D01*
G75*
G02*
X206939000Y-215592750I0J-218750D01*
G01*
X206939000Y-216105250D01*
G75*
G02*
X206720250Y-216324000I-218750J0D01*
G01*
X206282750Y-216324000D01*
G75*
G02*
X206064000Y-216105250I0J218750D01*
G01*
G37*
G36*
G01*
X207614000Y-213489250D02*
X207614000Y-212976750D01*
G75*
G02*
X207832750Y-212758000I218750J0D01*
G01*
X208270250Y-212758000D01*
G75*
G02*
X208489000Y-212976750I0J-218750D01*
G01*
X208489000Y-213489250D01*
G75*
G02*
X208270250Y-213708000I-218750J0D01*
G01*
X207832750Y-213708000D01*
G75*
G02*
X207614000Y-213489250I0J218750D01*
G01*
G37*
G36*
G01*
X206039000Y-213489250D02*
X206039000Y-212976750D01*
G75*
G02*
X206257750Y-212758000I218750J0D01*
G01*
X206695250Y-212758000D01*
G75*
G02*
X206914000Y-212976750I0J-218750D01*
G01*
X206914000Y-213489250D01*
G75*
G02*
X206695250Y-213708000I-218750J0D01*
G01*
X206257750Y-213708000D01*
G75*
G02*
X206039000Y-213489250I0J218750D01*
G01*
G37*
G36*
G01*
X207614000Y-210124250D02*
X207614000Y-209611750D01*
G75*
G02*
X207832750Y-209393000I218750J0D01*
G01*
X208270250Y-209393000D01*
G75*
G02*
X208489000Y-209611750I0J-218750D01*
G01*
X208489000Y-210124250D01*
G75*
G02*
X208270250Y-210343000I-218750J0D01*
G01*
X207832750Y-210343000D01*
G75*
G02*
X207614000Y-210124250I0J218750D01*
G01*
G37*
G36*
G01*
X206039000Y-210124250D02*
X206039000Y-209611750D01*
G75*
G02*
X206257750Y-209393000I218750J0D01*
G01*
X206695250Y-209393000D01*
G75*
G02*
X206914000Y-209611750I0J-218750D01*
G01*
X206914000Y-210124250D01*
G75*
G02*
X206695250Y-210343000I-218750J0D01*
G01*
X206257750Y-210343000D01*
G75*
G02*
X206039000Y-210124250I0J218750D01*
G01*
G37*
G36*
G01*
X231592000Y-245214250D02*
X231592000Y-244701750D01*
G75*
G02*
X231810750Y-244483000I218750J0D01*
G01*
X232248250Y-244483000D01*
G75*
G02*
X232467000Y-244701750I0J-218750D01*
G01*
X232467000Y-245214250D01*
G75*
G02*
X232248250Y-245433000I-218750J0D01*
G01*
X231810750Y-245433000D01*
G75*
G02*
X231592000Y-245214250I0J218750D01*
G01*
G37*
G36*
G01*
X230017000Y-245214250D02*
X230017000Y-244701750D01*
G75*
G02*
X230235750Y-244483000I218750J0D01*
G01*
X230673250Y-244483000D01*
G75*
G02*
X230892000Y-244701750I0J-218750D01*
G01*
X230892000Y-245214250D01*
G75*
G02*
X230673250Y-245433000I-218750J0D01*
G01*
X230235750Y-245433000D01*
G75*
G02*
X230017000Y-245214250I0J218750D01*
G01*
G37*
G36*
G01*
X263088000Y-207037250D02*
X263088000Y-206524750D01*
G75*
G02*
X263306750Y-206306000I218750J0D01*
G01*
X263744250Y-206306000D01*
G75*
G02*
X263963000Y-206524750I0J-218750D01*
G01*
X263963000Y-207037250D01*
G75*
G02*
X263744250Y-207256000I-218750J0D01*
G01*
X263306750Y-207256000D01*
G75*
G02*
X263088000Y-207037250I0J218750D01*
G01*
G37*
G36*
G01*
X261513000Y-207037250D02*
X261513000Y-206524750D01*
G75*
G02*
X261731750Y-206306000I218750J0D01*
G01*
X262169250Y-206306000D01*
G75*
G02*
X262388000Y-206524750I0J-218750D01*
G01*
X262388000Y-207037250D01*
G75*
G02*
X262169250Y-207256000I-218750J0D01*
G01*
X261731750Y-207256000D01*
G75*
G02*
X261513000Y-207037250I0J218750D01*
G01*
G37*
G36*
G01*
X263088000Y-204497250D02*
X263088000Y-203984750D01*
G75*
G02*
X263306750Y-203766000I218750J0D01*
G01*
X263744250Y-203766000D01*
G75*
G02*
X263963000Y-203984750I0J-218750D01*
G01*
X263963000Y-204497250D01*
G75*
G02*
X263744250Y-204716000I-218750J0D01*
G01*
X263306750Y-204716000D01*
G75*
G02*
X263088000Y-204497250I0J218750D01*
G01*
G37*
G36*
G01*
X261513000Y-204497250D02*
X261513000Y-203984750D01*
G75*
G02*
X261731750Y-203766000I218750J0D01*
G01*
X262169250Y-203766000D01*
G75*
G02*
X262388000Y-203984750I0J-218750D01*
G01*
X262388000Y-204497250D01*
G75*
G02*
X262169250Y-204716000I-218750J0D01*
G01*
X261731750Y-204716000D01*
G75*
G02*
X261513000Y-204497250I0J218750D01*
G01*
G37*
G36*
G01*
X202596000Y-270063750D02*
X202596000Y-270576250D01*
G75*
G02*
X202377250Y-270795000I-218750J0D01*
G01*
X201939750Y-270795000D01*
G75*
G02*
X201721000Y-270576250I0J218750D01*
G01*
X201721000Y-270063750D01*
G75*
G02*
X201939750Y-269845000I218750J0D01*
G01*
X202377250Y-269845000D01*
G75*
G02*
X202596000Y-270063750I0J-218750D01*
G01*
G37*
G36*
G01*
X204171000Y-270063750D02*
X204171000Y-270576250D01*
G75*
G02*
X203952250Y-270795000I-218750J0D01*
G01*
X203514750Y-270795000D01*
G75*
G02*
X203296000Y-270576250I0J218750D01*
G01*
X203296000Y-270063750D01*
G75*
G02*
X203514750Y-269845000I218750J0D01*
G01*
X203952250Y-269845000D01*
G75*
G02*
X204171000Y-270063750I0J-218750D01*
G01*
G37*
G36*
G01*
X202621000Y-267561750D02*
X202621000Y-268074250D01*
G75*
G02*
X202402250Y-268293000I-218750J0D01*
G01*
X201964750Y-268293000D01*
G75*
G02*
X201746000Y-268074250I0J218750D01*
G01*
X201746000Y-267561750D01*
G75*
G02*
X201964750Y-267343000I218750J0D01*
G01*
X202402250Y-267343000D01*
G75*
G02*
X202621000Y-267561750I0J-218750D01*
G01*
G37*
G36*
G01*
X204196000Y-267561750D02*
X204196000Y-268074250D01*
G75*
G02*
X203977250Y-268293000I-218750J0D01*
G01*
X203539750Y-268293000D01*
G75*
G02*
X203321000Y-268074250I0J218750D01*
G01*
X203321000Y-267561750D01*
G75*
G02*
X203539750Y-267343000I218750J0D01*
G01*
X203977250Y-267343000D01*
G75*
G02*
X204196000Y-267561750I0J-218750D01*
G01*
G37*
G36*
G01*
X202621000Y-265071750D02*
X202621000Y-265584250D01*
G75*
G02*
X202402250Y-265803000I-218750J0D01*
G01*
X201964750Y-265803000D01*
G75*
G02*
X201746000Y-265584250I0J218750D01*
G01*
X201746000Y-265071750D01*
G75*
G02*
X201964750Y-264853000I218750J0D01*
G01*
X202402250Y-264853000D01*
G75*
G02*
X202621000Y-265071750I0J-218750D01*
G01*
G37*
G36*
G01*
X204196000Y-265071750D02*
X204196000Y-265584250D01*
G75*
G02*
X203977250Y-265803000I-218750J0D01*
G01*
X203539750Y-265803000D01*
G75*
G02*
X203321000Y-265584250I0J218750D01*
G01*
X203321000Y-265071750D01*
G75*
G02*
X203539750Y-264853000I218750J0D01*
G01*
X203977250Y-264853000D01*
G75*
G02*
X204196000Y-265071750I0J-218750D01*
G01*
G37*
G36*
G01*
X202621000Y-262684750D02*
X202621000Y-263197250D01*
G75*
G02*
X202402250Y-263416000I-218750J0D01*
G01*
X201964750Y-263416000D01*
G75*
G02*
X201746000Y-263197250I0J218750D01*
G01*
X201746000Y-262684750D01*
G75*
G02*
X201964750Y-262466000I218750J0D01*
G01*
X202402250Y-262466000D01*
G75*
G02*
X202621000Y-262684750I0J-218750D01*
G01*
G37*
G36*
G01*
X204196000Y-262684750D02*
X204196000Y-263197250D01*
G75*
G02*
X203977250Y-263416000I-218750J0D01*
G01*
X203539750Y-263416000D01*
G75*
G02*
X203321000Y-263197250I0J218750D01*
G01*
X203321000Y-262684750D01*
G75*
G02*
X203539750Y-262466000I218750J0D01*
G01*
X203977250Y-262466000D01*
G75*
G02*
X204196000Y-262684750I0J-218750D01*
G01*
G37*
G36*
G01*
X202621000Y-257299750D02*
X202621000Y-257812250D01*
G75*
G02*
X202402250Y-258031000I-218750J0D01*
G01*
X201964750Y-258031000D01*
G75*
G02*
X201746000Y-257812250I0J218750D01*
G01*
X201746000Y-257299750D01*
G75*
G02*
X201964750Y-257081000I218750J0D01*
G01*
X202402250Y-257081000D01*
G75*
G02*
X202621000Y-257299750I0J-218750D01*
G01*
G37*
G36*
G01*
X204196000Y-257299750D02*
X204196000Y-257812250D01*
G75*
G02*
X203977250Y-258031000I-218750J0D01*
G01*
X203539750Y-258031000D01*
G75*
G02*
X203321000Y-257812250I0J218750D01*
G01*
X203321000Y-257299750D01*
G75*
G02*
X203539750Y-257081000I218750J0D01*
G01*
X203977250Y-257081000D01*
G75*
G02*
X204196000Y-257299750I0J-218750D01*
G01*
G37*
G36*
G01*
X202621000Y-255115750D02*
X202621000Y-255628250D01*
G75*
G02*
X202402250Y-255847000I-218750J0D01*
G01*
X201964750Y-255847000D01*
G75*
G02*
X201746000Y-255628250I0J218750D01*
G01*
X201746000Y-255115750D01*
G75*
G02*
X201964750Y-254897000I218750J0D01*
G01*
X202402250Y-254897000D01*
G75*
G02*
X202621000Y-255115750I0J-218750D01*
G01*
G37*
G36*
G01*
X204196000Y-255115750D02*
X204196000Y-255628250D01*
G75*
G02*
X203977250Y-255847000I-218750J0D01*
G01*
X203539750Y-255847000D01*
G75*
G02*
X203321000Y-255628250I0J218750D01*
G01*
X203321000Y-255115750D01*
G75*
G02*
X203539750Y-254897000I218750J0D01*
G01*
X203977250Y-254897000D01*
G75*
G02*
X204196000Y-255115750I0J-218750D01*
G01*
G37*
G36*
G01*
X202621000Y-252575750D02*
X202621000Y-253088250D01*
G75*
G02*
X202402250Y-253307000I-218750J0D01*
G01*
X201964750Y-253307000D01*
G75*
G02*
X201746000Y-253088250I0J218750D01*
G01*
X201746000Y-252575750D01*
G75*
G02*
X201964750Y-252357000I218750J0D01*
G01*
X202402250Y-252357000D01*
G75*
G02*
X202621000Y-252575750I0J-218750D01*
G01*
G37*
G36*
G01*
X204196000Y-252575750D02*
X204196000Y-253088250D01*
G75*
G02*
X203977250Y-253307000I-218750J0D01*
G01*
X203539750Y-253307000D01*
G75*
G02*
X203321000Y-253088250I0J218750D01*
G01*
X203321000Y-252575750D01*
G75*
G02*
X203539750Y-252357000I218750J0D01*
G01*
X203977250Y-252357000D01*
G75*
G02*
X204196000Y-252575750I0J-218750D01*
G01*
G37*
G36*
G01*
X202621000Y-249882750D02*
X202621000Y-250395250D01*
G75*
G02*
X202402250Y-250614000I-218750J0D01*
G01*
X201964750Y-250614000D01*
G75*
G02*
X201746000Y-250395250I0J218750D01*
G01*
X201746000Y-249882750D01*
G75*
G02*
X201964750Y-249664000I218750J0D01*
G01*
X202402250Y-249664000D01*
G75*
G02*
X202621000Y-249882750I0J-218750D01*
G01*
G37*
G36*
G01*
X204196000Y-249882750D02*
X204196000Y-250395250D01*
G75*
G02*
X203977250Y-250614000I-218750J0D01*
G01*
X203539750Y-250614000D01*
G75*
G02*
X203321000Y-250395250I0J218750D01*
G01*
X203321000Y-249882750D01*
G75*
G02*
X203539750Y-249664000I218750J0D01*
G01*
X203977250Y-249664000D01*
G75*
G02*
X204196000Y-249882750I0J-218750D01*
G01*
G37*
G36*
G01*
X202621000Y-247329750D02*
X202621000Y-247842250D01*
G75*
G02*
X202402250Y-248061000I-218750J0D01*
G01*
X201964750Y-248061000D01*
G75*
G02*
X201746000Y-247842250I0J218750D01*
G01*
X201746000Y-247329750D01*
G75*
G02*
X201964750Y-247111000I218750J0D01*
G01*
X202402250Y-247111000D01*
G75*
G02*
X202621000Y-247329750I0J-218750D01*
G01*
G37*
G36*
G01*
X204196000Y-247329750D02*
X204196000Y-247842250D01*
G75*
G02*
X203977250Y-248061000I-218750J0D01*
G01*
X203539750Y-248061000D01*
G75*
G02*
X203321000Y-247842250I0J218750D01*
G01*
X203321000Y-247329750D01*
G75*
G02*
X203539750Y-247111000I218750J0D01*
G01*
X203977250Y-247111000D01*
G75*
G02*
X204196000Y-247329750I0J-218750D01*
G01*
G37*
G36*
G01*
X202621000Y-244853750D02*
X202621000Y-245366250D01*
G75*
G02*
X202402250Y-245585000I-218750J0D01*
G01*
X201964750Y-245585000D01*
G75*
G02*
X201746000Y-245366250I0J218750D01*
G01*
X201746000Y-244853750D01*
G75*
G02*
X201964750Y-244635000I218750J0D01*
G01*
X202402250Y-244635000D01*
G75*
G02*
X202621000Y-244853750I0J-218750D01*
G01*
G37*
G36*
G01*
X204196000Y-244853750D02*
X204196000Y-245366250D01*
G75*
G02*
X203977250Y-245585000I-218750J0D01*
G01*
X203539750Y-245585000D01*
G75*
G02*
X203321000Y-245366250I0J218750D01*
G01*
X203321000Y-244853750D01*
G75*
G02*
X203539750Y-244635000I218750J0D01*
G01*
X203977250Y-244635000D01*
G75*
G02*
X204196000Y-244853750I0J-218750D01*
G01*
G37*
G36*
G01*
X202621000Y-242008750D02*
X202621000Y-242521250D01*
G75*
G02*
X202402250Y-242740000I-218750J0D01*
G01*
X201964750Y-242740000D01*
G75*
G02*
X201746000Y-242521250I0J218750D01*
G01*
X201746000Y-242008750D01*
G75*
G02*
X201964750Y-241790000I218750J0D01*
G01*
X202402250Y-241790000D01*
G75*
G02*
X202621000Y-242008750I0J-218750D01*
G01*
G37*
G36*
G01*
X204196000Y-242008750D02*
X204196000Y-242521250D01*
G75*
G02*
X203977250Y-242740000I-218750J0D01*
G01*
X203539750Y-242740000D01*
G75*
G02*
X203321000Y-242521250I0J218750D01*
G01*
X203321000Y-242008750D01*
G75*
G02*
X203539750Y-241790000I218750J0D01*
G01*
X203977250Y-241790000D01*
G75*
G02*
X204196000Y-242008750I0J-218750D01*
G01*
G37*
G36*
G01*
X202621000Y-239519750D02*
X202621000Y-240032250D01*
G75*
G02*
X202402250Y-240251000I-218750J0D01*
G01*
X201964750Y-240251000D01*
G75*
G02*
X201746000Y-240032250I0J218750D01*
G01*
X201746000Y-239519750D01*
G75*
G02*
X201964750Y-239301000I218750J0D01*
G01*
X202402250Y-239301000D01*
G75*
G02*
X202621000Y-239519750I0J-218750D01*
G01*
G37*
G36*
G01*
X204196000Y-239519750D02*
X204196000Y-240032250D01*
G75*
G02*
X203977250Y-240251000I-218750J0D01*
G01*
X203539750Y-240251000D01*
G75*
G02*
X203321000Y-240032250I0J218750D01*
G01*
X203321000Y-239519750D01*
G75*
G02*
X203539750Y-239301000I218750J0D01*
G01*
X203977250Y-239301000D01*
G75*
G02*
X204196000Y-239519750I0J-218750D01*
G01*
G37*
G36*
G01*
X202621000Y-221891750D02*
X202621000Y-222404250D01*
G75*
G02*
X202402250Y-222623000I-218750J0D01*
G01*
X201964750Y-222623000D01*
G75*
G02*
X201746000Y-222404250I0J218750D01*
G01*
X201746000Y-221891750D01*
G75*
G02*
X201964750Y-221673000I218750J0D01*
G01*
X202402250Y-221673000D01*
G75*
G02*
X202621000Y-221891750I0J-218750D01*
G01*
G37*
G36*
G01*
X204196000Y-221891750D02*
X204196000Y-222404250D01*
G75*
G02*
X203977250Y-222623000I-218750J0D01*
G01*
X203539750Y-222623000D01*
G75*
G02*
X203321000Y-222404250I0J218750D01*
G01*
X203321000Y-221891750D01*
G75*
G02*
X203539750Y-221673000I218750J0D01*
G01*
X203977250Y-221673000D01*
G75*
G02*
X204196000Y-221891750I0J-218750D01*
G01*
G37*
G36*
G01*
X202621000Y-219402750D02*
X202621000Y-219915250D01*
G75*
G02*
X202402250Y-220134000I-218750J0D01*
G01*
X201964750Y-220134000D01*
G75*
G02*
X201746000Y-219915250I0J218750D01*
G01*
X201746000Y-219402750D01*
G75*
G02*
X201964750Y-219184000I218750J0D01*
G01*
X202402250Y-219184000D01*
G75*
G02*
X202621000Y-219402750I0J-218750D01*
G01*
G37*
G36*
G01*
X204196000Y-219402750D02*
X204196000Y-219915250D01*
G75*
G02*
X203977250Y-220134000I-218750J0D01*
G01*
X203539750Y-220134000D01*
G75*
G02*
X203321000Y-219915250I0J218750D01*
G01*
X203321000Y-219402750D01*
G75*
G02*
X203539750Y-219184000I218750J0D01*
G01*
X203977250Y-219184000D01*
G75*
G02*
X204196000Y-219402750I0J-218750D01*
G01*
G37*
G36*
G01*
X202621000Y-211884750D02*
X202621000Y-212397250D01*
G75*
G02*
X202402250Y-212616000I-218750J0D01*
G01*
X201964750Y-212616000D01*
G75*
G02*
X201746000Y-212397250I0J218750D01*
G01*
X201746000Y-211884750D01*
G75*
G02*
X201964750Y-211666000I218750J0D01*
G01*
X202402250Y-211666000D01*
G75*
G02*
X202621000Y-211884750I0J-218750D01*
G01*
G37*
G36*
G01*
X204196000Y-211884750D02*
X204196000Y-212397250D01*
G75*
G02*
X203977250Y-212616000I-218750J0D01*
G01*
X203539750Y-212616000D01*
G75*
G02*
X203321000Y-212397250I0J218750D01*
G01*
X203321000Y-211884750D01*
G75*
G02*
X203539750Y-211666000I218750J0D01*
G01*
X203977250Y-211666000D01*
G75*
G02*
X204196000Y-211884750I0J-218750D01*
G01*
G37*
G36*
G01*
X202621000Y-204111750D02*
X202621000Y-204624250D01*
G75*
G02*
X202402250Y-204843000I-218750J0D01*
G01*
X201964750Y-204843000D01*
G75*
G02*
X201746000Y-204624250I0J218750D01*
G01*
X201746000Y-204111750D01*
G75*
G02*
X201964750Y-203893000I218750J0D01*
G01*
X202402250Y-203893000D01*
G75*
G02*
X202621000Y-204111750I0J-218750D01*
G01*
G37*
G36*
G01*
X204196000Y-204111750D02*
X204196000Y-204624250D01*
G75*
G02*
X203977250Y-204843000I-218750J0D01*
G01*
X203539750Y-204843000D01*
G75*
G02*
X203321000Y-204624250I0J218750D01*
G01*
X203321000Y-204111750D01*
G75*
G02*
X203539750Y-203893000I218750J0D01*
G01*
X203977250Y-203893000D01*
G75*
G02*
X204196000Y-204111750I0J-218750D01*
G01*
G37*
G36*
G01*
X202621000Y-201622750D02*
X202621000Y-202135250D01*
G75*
G02*
X202402250Y-202354000I-218750J0D01*
G01*
X201964750Y-202354000D01*
G75*
G02*
X201746000Y-202135250I0J218750D01*
G01*
X201746000Y-201622750D01*
G75*
G02*
X201964750Y-201404000I218750J0D01*
G01*
X202402250Y-201404000D01*
G75*
G02*
X202621000Y-201622750I0J-218750D01*
G01*
G37*
G36*
G01*
X204196000Y-201622750D02*
X204196000Y-202135250D01*
G75*
G02*
X203977250Y-202354000I-218750J0D01*
G01*
X203539750Y-202354000D01*
G75*
G02*
X203321000Y-202135250I0J218750D01*
G01*
X203321000Y-201622750D01*
G75*
G02*
X203539750Y-201404000I218750J0D01*
G01*
X203977250Y-201404000D01*
G75*
G02*
X204196000Y-201622750I0J-218750D01*
G01*
G37*
G36*
G01*
X203321000Y-224843250D02*
X203321000Y-224330750D01*
G75*
G02*
X203539750Y-224112000I218750J0D01*
G01*
X203977250Y-224112000D01*
G75*
G02*
X204196000Y-224330750I0J-218750D01*
G01*
X204196000Y-224843250D01*
G75*
G02*
X203977250Y-225062000I-218750J0D01*
G01*
X203539750Y-225062000D01*
G75*
G02*
X203321000Y-224843250I0J218750D01*
G01*
G37*
G36*
G01*
X201746000Y-224843250D02*
X201746000Y-224330750D01*
G75*
G02*
X201964750Y-224112000I218750J0D01*
G01*
X202402250Y-224112000D01*
G75*
G02*
X202621000Y-224330750I0J-218750D01*
G01*
X202621000Y-224843250D01*
G75*
G02*
X202402250Y-225062000I-218750J0D01*
G01*
X201964750Y-225062000D01*
G75*
G02*
X201746000Y-224843250I0J218750D01*
G01*
G37*
G36*
G01*
X208295250Y-206025000D02*
X207782750Y-206025000D01*
G75*
G02*
X207564000Y-205806250I0J218750D01*
G01*
X207564000Y-205368750D01*
G75*
G02*
X207782750Y-205150000I218750J0D01*
G01*
X208295250Y-205150000D01*
G75*
G02*
X208514000Y-205368750I0J-218750D01*
G01*
X208514000Y-205806250D01*
G75*
G02*
X208295250Y-206025000I-218750J0D01*
G01*
G37*
G36*
G01*
X208295250Y-207600000D02*
X207782750Y-207600000D01*
G75*
G02*
X207564000Y-207381250I0J218750D01*
G01*
X207564000Y-206943750D01*
G75*
G02*
X207782750Y-206725000I218750J0D01*
G01*
X208295250Y-206725000D01*
G75*
G02*
X208514000Y-206943750I0J-218750D01*
G01*
X208514000Y-207381250D01*
G75*
G02*
X208295250Y-207600000I-218750J0D01*
G01*
G37*
G36*
G01*
X202621000Y-206804750D02*
X202621000Y-207317250D01*
G75*
G02*
X202402250Y-207536000I-218750J0D01*
G01*
X201964750Y-207536000D01*
G75*
G02*
X201746000Y-207317250I0J218750D01*
G01*
X201746000Y-206804750D01*
G75*
G02*
X201964750Y-206586000I218750J0D01*
G01*
X202402250Y-206586000D01*
G75*
G02*
X202621000Y-206804750I0J-218750D01*
G01*
G37*
G36*
G01*
X204196000Y-206804750D02*
X204196000Y-207317250D01*
G75*
G02*
X203977250Y-207536000I-218750J0D01*
G01*
X203539750Y-207536000D01*
G75*
G02*
X203321000Y-207317250I0J218750D01*
G01*
X203321000Y-206804750D01*
G75*
G02*
X203539750Y-206586000I218750J0D01*
G01*
X203977250Y-206586000D01*
G75*
G02*
X204196000Y-206804750I0J-218750D01*
G01*
G37*
G36*
G01*
X230892000Y-227073750D02*
X230892000Y-227586250D01*
G75*
G02*
X230673250Y-227805000I-218750J0D01*
G01*
X230235750Y-227805000D01*
G75*
G02*
X230017000Y-227586250I0J218750D01*
G01*
X230017000Y-227073750D01*
G75*
G02*
X230235750Y-226855000I218750J0D01*
G01*
X230673250Y-226855000D01*
G75*
G02*
X230892000Y-227073750I0J-218750D01*
G01*
G37*
G36*
G01*
X232467000Y-227073750D02*
X232467000Y-227586250D01*
G75*
G02*
X232248250Y-227805000I-218750J0D01*
G01*
X231810750Y-227805000D01*
G75*
G02*
X231592000Y-227586250I0J218750D01*
G01*
X231592000Y-227073750D01*
G75*
G02*
X231810750Y-226855000I218750J0D01*
G01*
X232248250Y-226855000D01*
G75*
G02*
X232467000Y-227073750I0J-218750D01*
G01*
G37*
G36*
G01*
X230892000Y-224330750D02*
X230892000Y-224843250D01*
G75*
G02*
X230673250Y-225062000I-218750J0D01*
G01*
X230235750Y-225062000D01*
G75*
G02*
X230017000Y-224843250I0J218750D01*
G01*
X230017000Y-224330750D01*
G75*
G02*
X230235750Y-224112000I218750J0D01*
G01*
X230673250Y-224112000D01*
G75*
G02*
X230892000Y-224330750I0J-218750D01*
G01*
G37*
G36*
G01*
X232467000Y-224330750D02*
X232467000Y-224843250D01*
G75*
G02*
X232248250Y-225062000I-218750J0D01*
G01*
X231810750Y-225062000D01*
G75*
G02*
X231592000Y-224843250I0J218750D01*
G01*
X231592000Y-224330750D01*
G75*
G02*
X231810750Y-224112000I218750J0D01*
G01*
X232248250Y-224112000D01*
G75*
G02*
X232467000Y-224330750I0J-218750D01*
G01*
G37*
G36*
G01*
X230892000Y-218996750D02*
X230892000Y-219509250D01*
G75*
G02*
X230673250Y-219728000I-218750J0D01*
G01*
X230235750Y-219728000D01*
G75*
G02*
X230017000Y-219509250I0J218750D01*
G01*
X230017000Y-218996750D01*
G75*
G02*
X230235750Y-218778000I218750J0D01*
G01*
X230673250Y-218778000D01*
G75*
G02*
X230892000Y-218996750I0J-218750D01*
G01*
G37*
G36*
G01*
X232467000Y-218996750D02*
X232467000Y-219509250D01*
G75*
G02*
X232248250Y-219728000I-218750J0D01*
G01*
X231810750Y-219728000D01*
G75*
G02*
X231592000Y-219509250I0J218750D01*
G01*
X231592000Y-218996750D01*
G75*
G02*
X231810750Y-218778000I218750J0D01*
G01*
X232248250Y-218778000D01*
G75*
G02*
X232467000Y-218996750I0J-218750D01*
G01*
G37*
G36*
G01*
X230892000Y-216405750D02*
X230892000Y-216918250D01*
G75*
G02*
X230673250Y-217137000I-218750J0D01*
G01*
X230235750Y-217137000D01*
G75*
G02*
X230017000Y-216918250I0J218750D01*
G01*
X230017000Y-216405750D01*
G75*
G02*
X230235750Y-216187000I218750J0D01*
G01*
X230673250Y-216187000D01*
G75*
G02*
X230892000Y-216405750I0J-218750D01*
G01*
G37*
G36*
G01*
X232467000Y-216405750D02*
X232467000Y-216918250D01*
G75*
G02*
X232248250Y-217137000I-218750J0D01*
G01*
X231810750Y-217137000D01*
G75*
G02*
X231592000Y-216918250I0J218750D01*
G01*
X231592000Y-216405750D01*
G75*
G02*
X231810750Y-216187000I218750J0D01*
G01*
X232248250Y-216187000D01*
G75*
G02*
X232467000Y-216405750I0J-218750D01*
G01*
G37*
G36*
G01*
X230892000Y-214221750D02*
X230892000Y-214734250D01*
G75*
G02*
X230673250Y-214953000I-218750J0D01*
G01*
X230235750Y-214953000D01*
G75*
G02*
X230017000Y-214734250I0J218750D01*
G01*
X230017000Y-214221750D01*
G75*
G02*
X230235750Y-214003000I218750J0D01*
G01*
X230673250Y-214003000D01*
G75*
G02*
X230892000Y-214221750I0J-218750D01*
G01*
G37*
G36*
G01*
X232467000Y-214221750D02*
X232467000Y-214734250D01*
G75*
G02*
X232248250Y-214953000I-218750J0D01*
G01*
X231810750Y-214953000D01*
G75*
G02*
X231592000Y-214734250I0J218750D01*
G01*
X231592000Y-214221750D01*
G75*
G02*
X231810750Y-214003000I218750J0D01*
G01*
X232248250Y-214003000D01*
G75*
G02*
X232467000Y-214221750I0J-218750D01*
G01*
G37*
G36*
G01*
X227223000Y-226367250D02*
X227223000Y-225854750D01*
G75*
G02*
X227441750Y-225636000I218750J0D01*
G01*
X227879250Y-225636000D01*
G75*
G02*
X228098000Y-225854750I0J-218750D01*
G01*
X228098000Y-226367250D01*
G75*
G02*
X227879250Y-226586000I-218750J0D01*
G01*
X227441750Y-226586000D01*
G75*
G02*
X227223000Y-226367250I0J218750D01*
G01*
G37*
G36*
G01*
X225648000Y-226367250D02*
X225648000Y-225854750D01*
G75*
G02*
X225866750Y-225636000I218750J0D01*
G01*
X226304250Y-225636000D01*
G75*
G02*
X226523000Y-225854750I0J-218750D01*
G01*
X226523000Y-226367250D01*
G75*
G02*
X226304250Y-226586000I-218750J0D01*
G01*
X225866750Y-226586000D01*
G75*
G02*
X225648000Y-226367250I0J218750D01*
G01*
G37*
G36*
G01*
X227223000Y-223725250D02*
X227223000Y-223212750D01*
G75*
G02*
X227441750Y-222994000I218750J0D01*
G01*
X227879250Y-222994000D01*
G75*
G02*
X228098000Y-223212750I0J-218750D01*
G01*
X228098000Y-223725250D01*
G75*
G02*
X227879250Y-223944000I-218750J0D01*
G01*
X227441750Y-223944000D01*
G75*
G02*
X227223000Y-223725250I0J218750D01*
G01*
G37*
G36*
G01*
X225648000Y-223725250D02*
X225648000Y-223212750D01*
G75*
G02*
X225866750Y-222994000I218750J0D01*
G01*
X226304250Y-222994000D01*
G75*
G02*
X226523000Y-223212750I0J-218750D01*
G01*
X226523000Y-223725250D01*
G75*
G02*
X226304250Y-223944000I-218750J0D01*
G01*
X225866750Y-223944000D01*
G75*
G02*
X225648000Y-223725250I0J218750D01*
G01*
G37*
G36*
G01*
X227236000Y-218950250D02*
X227236000Y-218437750D01*
G75*
G02*
X227454750Y-218219000I218750J0D01*
G01*
X227892250Y-218219000D01*
G75*
G02*
X228111000Y-218437750I0J-218750D01*
G01*
X228111000Y-218950250D01*
G75*
G02*
X227892250Y-219169000I-218750J0D01*
G01*
X227454750Y-219169000D01*
G75*
G02*
X227236000Y-218950250I0J218750D01*
G01*
G37*
G36*
G01*
X225661000Y-218950250D02*
X225661000Y-218437750D01*
G75*
G02*
X225879750Y-218219000I218750J0D01*
G01*
X226317250Y-218219000D01*
G75*
G02*
X226536000Y-218437750I0J-218750D01*
G01*
X226536000Y-218950250D01*
G75*
G02*
X226317250Y-219169000I-218750J0D01*
G01*
X225879750Y-219169000D01*
G75*
G02*
X225661000Y-218950250I0J218750D01*
G01*
G37*
G36*
G01*
X227223000Y-215902250D02*
X227223000Y-215389750D01*
G75*
G02*
X227441750Y-215171000I218750J0D01*
G01*
X227879250Y-215171000D01*
G75*
G02*
X228098000Y-215389750I0J-218750D01*
G01*
X228098000Y-215902250D01*
G75*
G02*
X227879250Y-216121000I-218750J0D01*
G01*
X227441750Y-216121000D01*
G75*
G02*
X227223000Y-215902250I0J218750D01*
G01*
G37*
G36*
G01*
X225648000Y-215902250D02*
X225648000Y-215389750D01*
G75*
G02*
X225866750Y-215171000I218750J0D01*
G01*
X226304250Y-215171000D01*
G75*
G02*
X226523000Y-215389750I0J-218750D01*
G01*
X226523000Y-215902250D01*
G75*
G02*
X226304250Y-216121000I-218750J0D01*
G01*
X225866750Y-216121000D01*
G75*
G02*
X225648000Y-215902250I0J218750D01*
G01*
G37*
G36*
G01*
X227223000Y-213362250D02*
X227223000Y-212849750D01*
G75*
G02*
X227441750Y-212631000I218750J0D01*
G01*
X227879250Y-212631000D01*
G75*
G02*
X228098000Y-212849750I0J-218750D01*
G01*
X228098000Y-213362250D01*
G75*
G02*
X227879250Y-213581000I-218750J0D01*
G01*
X227441750Y-213581000D01*
G75*
G02*
X227223000Y-213362250I0J218750D01*
G01*
G37*
G36*
G01*
X225648000Y-213362250D02*
X225648000Y-212849750D01*
G75*
G02*
X225866750Y-212631000I218750J0D01*
G01*
X226304250Y-212631000D01*
G75*
G02*
X226523000Y-212849750I0J-218750D01*
G01*
X226523000Y-213362250D01*
G75*
G02*
X226304250Y-213581000I-218750J0D01*
G01*
X225866750Y-213581000D01*
G75*
G02*
X225648000Y-213362250I0J218750D01*
G01*
G37*
G36*
G01*
X227223000Y-210974250D02*
X227223000Y-210461750D01*
G75*
G02*
X227441750Y-210243000I218750J0D01*
G01*
X227879250Y-210243000D01*
G75*
G02*
X228098000Y-210461750I0J-218750D01*
G01*
X228098000Y-210974250D01*
G75*
G02*
X227879250Y-211193000I-218750J0D01*
G01*
X227441750Y-211193000D01*
G75*
G02*
X227223000Y-210974250I0J218750D01*
G01*
G37*
G36*
G01*
X225648000Y-210974250D02*
X225648000Y-210461750D01*
G75*
G02*
X225866750Y-210243000I218750J0D01*
G01*
X226304250Y-210243000D01*
G75*
G02*
X226523000Y-210461750I0J-218750D01*
G01*
X226523000Y-210974250D01*
G75*
G02*
X226304250Y-211193000I-218750J0D01*
G01*
X225866750Y-211193000D01*
G75*
G02*
X225648000Y-210974250I0J218750D01*
G01*
G37*
G36*
G01*
X259481000Y-205894250D02*
X259481000Y-205381750D01*
G75*
G02*
X259699750Y-205163000I218750J0D01*
G01*
X260137250Y-205163000D01*
G75*
G02*
X260356000Y-205381750I0J-218750D01*
G01*
X260356000Y-205894250D01*
G75*
G02*
X260137250Y-206113000I-218750J0D01*
G01*
X259699750Y-206113000D01*
G75*
G02*
X259481000Y-205894250I0J218750D01*
G01*
G37*
G36*
G01*
X257906000Y-205894250D02*
X257906000Y-205381750D01*
G75*
G02*
X258124750Y-205163000I218750J0D01*
G01*
X258562250Y-205163000D01*
G75*
G02*
X258781000Y-205381750I0J-218750D01*
G01*
X258781000Y-205894250D01*
G75*
G02*
X258562250Y-206113000I-218750J0D01*
G01*
X258124750Y-206113000D01*
G75*
G02*
X257906000Y-205894250I0J218750D01*
G01*
G37*
D15*
X342915000Y-233461000D03*
X344815000Y-233461000D03*
X343865000Y-231461000D03*
X340497000Y-231461000D03*
X338597000Y-231461000D03*
X339547000Y-233461000D03*
D16*
X292296000Y-306184000D03*
D17*
X292296000Y-303644000D03*
D16*
X292296000Y-298564000D03*
X300896000Y-298564000D03*
D17*
X300896000Y-301104000D03*
X300896000Y-303644000D03*
D16*
X300896000Y-306184000D03*
D17*
X292296000Y-301104000D03*
D16*
X310856000Y-306184000D03*
D17*
X310856000Y-303644000D03*
D16*
X310856000Y-298564000D03*
X319456000Y-298564000D03*
D17*
X319456000Y-301104000D03*
X319456000Y-303644000D03*
D16*
X319456000Y-306184000D03*
D17*
X310856000Y-301104000D03*
D16*
X329443000Y-306184000D03*
D17*
X329443000Y-303644000D03*
D16*
X329443000Y-298564000D03*
X338043000Y-298564000D03*
D17*
X338043000Y-301104000D03*
X338043000Y-303644000D03*
D16*
X338043000Y-306184000D03*
D17*
X329443000Y-301104000D03*
G36*
G01*
X202913000Y-281062250D02*
X202913000Y-280149750D01*
G75*
G02*
X203156750Y-279906000I243750J0D01*
G01*
X203644250Y-279906000D01*
G75*
G02*
X203888000Y-280149750I0J-243750D01*
G01*
X203888000Y-281062250D01*
G75*
G02*
X203644250Y-281306000I-243750J0D01*
G01*
X203156750Y-281306000D01*
G75*
G02*
X202913000Y-281062250I0J243750D01*
G01*
G37*
G36*
G01*
X201038000Y-281062250D02*
X201038000Y-280149750D01*
G75*
G02*
X201281750Y-279906000I243750J0D01*
G01*
X201769250Y-279906000D01*
G75*
G02*
X202013000Y-280149750I0J-243750D01*
G01*
X202013000Y-281062250D01*
G75*
G02*
X201769250Y-281306000I-243750J0D01*
G01*
X201281750Y-281306000D01*
G75*
G02*
X201038000Y-281062250I0J243750D01*
G01*
G37*
G36*
G01*
X202964000Y-277557250D02*
X202964000Y-276644750D01*
G75*
G02*
X203207750Y-276401000I243750J0D01*
G01*
X203695250Y-276401000D01*
G75*
G02*
X203939000Y-276644750I0J-243750D01*
G01*
X203939000Y-277557250D01*
G75*
G02*
X203695250Y-277801000I-243750J0D01*
G01*
X203207750Y-277801000D01*
G75*
G02*
X202964000Y-277557250I0J243750D01*
G01*
G37*
G36*
G01*
X201089000Y-277557250D02*
X201089000Y-276644750D01*
G75*
G02*
X201332750Y-276401000I243750J0D01*
G01*
X201820250Y-276401000D01*
G75*
G02*
X202064000Y-276644750I0J-243750D01*
G01*
X202064000Y-277557250D01*
G75*
G02*
X201820250Y-277801000I-243750J0D01*
G01*
X201332750Y-277801000D01*
G75*
G02*
X201089000Y-277557250I0J243750D01*
G01*
G37*
G36*
G01*
X202964000Y-274268250D02*
X202964000Y-273355750D01*
G75*
G02*
X203207750Y-273112000I243750J0D01*
G01*
X203695250Y-273112000D01*
G75*
G02*
X203939000Y-273355750I0J-243750D01*
G01*
X203939000Y-274268250D01*
G75*
G02*
X203695250Y-274512000I-243750J0D01*
G01*
X203207750Y-274512000D01*
G75*
G02*
X202964000Y-274268250I0J243750D01*
G01*
G37*
G36*
G01*
X201089000Y-274268250D02*
X201089000Y-273355750D01*
G75*
G02*
X201332750Y-273112000I243750J0D01*
G01*
X201820250Y-273112000D01*
G75*
G02*
X202064000Y-273355750I0J-243750D01*
G01*
X202064000Y-274268250D01*
G75*
G02*
X201820250Y-274512000I-243750J0D01*
G01*
X201332750Y-274512000D01*
G75*
G02*
X201089000Y-274268250I0J243750D01*
G01*
G37*
G36*
G01*
X189656000Y-288405750D02*
X189656000Y-289318250D01*
G75*
G02*
X189412250Y-289562000I-243750J0D01*
G01*
X188924750Y-289562000D01*
G75*
G02*
X188681000Y-289318250I0J243750D01*
G01*
X188681000Y-288405750D01*
G75*
G02*
X188924750Y-288162000I243750J0D01*
G01*
X189412250Y-288162000D01*
G75*
G02*
X189656000Y-288405750I0J-243750D01*
G01*
G37*
G36*
G01*
X191531000Y-288405750D02*
X191531000Y-289318250D01*
G75*
G02*
X191287250Y-289562000I-243750J0D01*
G01*
X190799750Y-289562000D01*
G75*
G02*
X190556000Y-289318250I0J243750D01*
G01*
X190556000Y-288405750D01*
G75*
G02*
X190799750Y-288162000I243750J0D01*
G01*
X191287250Y-288162000D01*
G75*
G02*
X191531000Y-288405750I0J-243750D01*
G01*
G37*
G36*
G01*
X189656000Y-293485750D02*
X189656000Y-294398250D01*
G75*
G02*
X189412250Y-294642000I-243750J0D01*
G01*
X188924750Y-294642000D01*
G75*
G02*
X188681000Y-294398250I0J243750D01*
G01*
X188681000Y-293485750D01*
G75*
G02*
X188924750Y-293242000I243750J0D01*
G01*
X189412250Y-293242000D01*
G75*
G02*
X189656000Y-293485750I0J-243750D01*
G01*
G37*
G36*
G01*
X191531000Y-293485750D02*
X191531000Y-294398250D01*
G75*
G02*
X191287250Y-294642000I-243750J0D01*
G01*
X190799750Y-294642000D01*
G75*
G02*
X190556000Y-294398250I0J243750D01*
G01*
X190556000Y-293485750D01*
G75*
G02*
X190799750Y-293242000I243750J0D01*
G01*
X191287250Y-293242000D01*
G75*
G02*
X191531000Y-293485750I0J-243750D01*
G01*
G37*
G36*
G01*
X189656000Y-298565750D02*
X189656000Y-299478250D01*
G75*
G02*
X189412250Y-299722000I-243750J0D01*
G01*
X188924750Y-299722000D01*
G75*
G02*
X188681000Y-299478250I0J243750D01*
G01*
X188681000Y-298565750D01*
G75*
G02*
X188924750Y-298322000I243750J0D01*
G01*
X189412250Y-298322000D01*
G75*
G02*
X189656000Y-298565750I0J-243750D01*
G01*
G37*
G36*
G01*
X191531000Y-298565750D02*
X191531000Y-299478250D01*
G75*
G02*
X191287250Y-299722000I-243750J0D01*
G01*
X190799750Y-299722000D01*
G75*
G02*
X190556000Y-299478250I0J243750D01*
G01*
X190556000Y-298565750D01*
G75*
G02*
X190799750Y-298322000I243750J0D01*
G01*
X191287250Y-298322000D01*
G75*
G02*
X191531000Y-298565750I0J-243750D01*
G01*
G37*
G36*
G01*
X147657000Y-227470750D02*
X147657000Y-228383250D01*
G75*
G02*
X147413250Y-228627000I-243750J0D01*
G01*
X146925750Y-228627000D01*
G75*
G02*
X146682000Y-228383250I0J243750D01*
G01*
X146682000Y-227470750D01*
G75*
G02*
X146925750Y-227227000I243750J0D01*
G01*
X147413250Y-227227000D01*
G75*
G02*
X147657000Y-227470750I0J-243750D01*
G01*
G37*
G36*
G01*
X149532000Y-227470750D02*
X149532000Y-228383250D01*
G75*
G02*
X149288250Y-228627000I-243750J0D01*
G01*
X148800750Y-228627000D01*
G75*
G02*
X148557000Y-228383250I0J243750D01*
G01*
X148557000Y-227470750D01*
G75*
G02*
X148800750Y-227227000I243750J0D01*
G01*
X149288250Y-227227000D01*
G75*
G02*
X149532000Y-227470750I0J-243750D01*
G01*
G37*
G36*
G01*
X147607000Y-250228750D02*
X147607000Y-251141250D01*
G75*
G02*
X147363250Y-251385000I-243750J0D01*
G01*
X146875750Y-251385000D01*
G75*
G02*
X146632000Y-251141250I0J243750D01*
G01*
X146632000Y-250228750D01*
G75*
G02*
X146875750Y-249985000I243750J0D01*
G01*
X147363250Y-249985000D01*
G75*
G02*
X147607000Y-250228750I0J-243750D01*
G01*
G37*
G36*
G01*
X149482000Y-250228750D02*
X149482000Y-251141250D01*
G75*
G02*
X149238250Y-251385000I-243750J0D01*
G01*
X148750750Y-251385000D01*
G75*
G02*
X148507000Y-251141250I0J243750D01*
G01*
X148507000Y-250228750D01*
G75*
G02*
X148750750Y-249985000I243750J0D01*
G01*
X149238250Y-249985000D01*
G75*
G02*
X149482000Y-250228750I0J-243750D01*
G01*
G37*
G36*
G01*
X147634000Y-272936750D02*
X147634000Y-273849250D01*
G75*
G02*
X147390250Y-274093000I-243750J0D01*
G01*
X146902750Y-274093000D01*
G75*
G02*
X146659000Y-273849250I0J243750D01*
G01*
X146659000Y-272936750D01*
G75*
G02*
X146902750Y-272693000I243750J0D01*
G01*
X147390250Y-272693000D01*
G75*
G02*
X147634000Y-272936750I0J-243750D01*
G01*
G37*
G36*
G01*
X149509000Y-272936750D02*
X149509000Y-273849250D01*
G75*
G02*
X149265250Y-274093000I-243750J0D01*
G01*
X148777750Y-274093000D01*
G75*
G02*
X148534000Y-273849250I0J243750D01*
G01*
X148534000Y-272936750D01*
G75*
G02*
X148777750Y-272693000I243750J0D01*
G01*
X149265250Y-272693000D01*
G75*
G02*
X149509000Y-272936750I0J-243750D01*
G01*
G37*
G36*
G01*
X147810000Y-295948750D02*
X147810000Y-296861250D01*
G75*
G02*
X147566250Y-297105000I-243750J0D01*
G01*
X147078750Y-297105000D01*
G75*
G02*
X146835000Y-296861250I0J243750D01*
G01*
X146835000Y-295948750D01*
G75*
G02*
X147078750Y-295705000I243750J0D01*
G01*
X147566250Y-295705000D01*
G75*
G02*
X147810000Y-295948750I0J-243750D01*
G01*
G37*
G36*
G01*
X149685000Y-295948750D02*
X149685000Y-296861250D01*
G75*
G02*
X149441250Y-297105000I-243750J0D01*
G01*
X148953750Y-297105000D01*
G75*
G02*
X148710000Y-296861250I0J243750D01*
G01*
X148710000Y-295948750D01*
G75*
G02*
X148953750Y-295705000I243750J0D01*
G01*
X149441250Y-295705000D01*
G75*
G02*
X149685000Y-295948750I0J-243750D01*
G01*
G37*
G36*
G01*
X318310750Y-252026000D02*
X318823250Y-252026000D01*
G75*
G02*
X319042000Y-252244750I0J-218750D01*
G01*
X319042000Y-252682250D01*
G75*
G02*
X318823250Y-252901000I-218750J0D01*
G01*
X318310750Y-252901000D01*
G75*
G02*
X318092000Y-252682250I0J218750D01*
G01*
X318092000Y-252244750D01*
G75*
G02*
X318310750Y-252026000I218750J0D01*
G01*
G37*
G36*
G01*
X318310750Y-250451000D02*
X318823250Y-250451000D01*
G75*
G02*
X319042000Y-250669750I0J-218750D01*
G01*
X319042000Y-251107250D01*
G75*
G02*
X318823250Y-251326000I-218750J0D01*
G01*
X318310750Y-251326000D01*
G75*
G02*
X318092000Y-251107250I0J218750D01*
G01*
X318092000Y-250669750D01*
G75*
G02*
X318310750Y-250451000I218750J0D01*
G01*
G37*
G36*
G01*
X294256750Y-250362000D02*
X294769250Y-250362000D01*
G75*
G02*
X294988000Y-250580750I0J-218750D01*
G01*
X294988000Y-251018250D01*
G75*
G02*
X294769250Y-251237000I-218750J0D01*
G01*
X294256750Y-251237000D01*
G75*
G02*
X294038000Y-251018250I0J218750D01*
G01*
X294038000Y-250580750D01*
G75*
G02*
X294256750Y-250362000I218750J0D01*
G01*
G37*
G36*
G01*
X294256750Y-251937000D02*
X294769250Y-251937000D01*
G75*
G02*
X294988000Y-252155750I0J-218750D01*
G01*
X294988000Y-252593250D01*
G75*
G02*
X294769250Y-252812000I-218750J0D01*
G01*
X294256750Y-252812000D01*
G75*
G02*
X294038000Y-252593250I0J218750D01*
G01*
X294038000Y-252155750D01*
G75*
G02*
X294256750Y-251937000I218750J0D01*
G01*
G37*
G36*
G01*
X344393000Y-251208250D02*
X344393000Y-250695750D01*
G75*
G02*
X344611750Y-250477000I218750J0D01*
G01*
X345049250Y-250477000D01*
G75*
G02*
X345268000Y-250695750I0J-218750D01*
G01*
X345268000Y-251208250D01*
G75*
G02*
X345049250Y-251427000I-218750J0D01*
G01*
X344611750Y-251427000D01*
G75*
G02*
X344393000Y-251208250I0J218750D01*
G01*
G37*
G36*
G01*
X342818000Y-251208250D02*
X342818000Y-250695750D01*
G75*
G02*
X343036750Y-250477000I218750J0D01*
G01*
X343474250Y-250477000D01*
G75*
G02*
X343693000Y-250695750I0J-218750D01*
G01*
X343693000Y-251208250D01*
G75*
G02*
X343474250Y-251427000I-218750J0D01*
G01*
X343036750Y-251427000D01*
G75*
G02*
X342818000Y-251208250I0J218750D01*
G01*
G37*
G36*
G01*
X294383750Y-237573000D02*
X294896250Y-237573000D01*
G75*
G02*
X295115000Y-237791750I0J-218750D01*
G01*
X295115000Y-238229250D01*
G75*
G02*
X294896250Y-238448000I-218750J0D01*
G01*
X294383750Y-238448000D01*
G75*
G02*
X294165000Y-238229250I0J218750D01*
G01*
X294165000Y-237791750D01*
G75*
G02*
X294383750Y-237573000I218750J0D01*
G01*
G37*
G36*
G01*
X294383750Y-235998000D02*
X294896250Y-235998000D01*
G75*
G02*
X295115000Y-236216750I0J-218750D01*
G01*
X295115000Y-236654250D01*
G75*
G02*
X294896250Y-236873000I-218750J0D01*
G01*
X294383750Y-236873000D01*
G75*
G02*
X294165000Y-236654250I0J218750D01*
G01*
X294165000Y-236216750D01*
G75*
G02*
X294383750Y-235998000I218750J0D01*
G01*
G37*
G36*
G01*
X318310750Y-235998000D02*
X318823250Y-235998000D01*
G75*
G02*
X319042000Y-236216750I0J-218750D01*
G01*
X319042000Y-236654250D01*
G75*
G02*
X318823250Y-236873000I-218750J0D01*
G01*
X318310750Y-236873000D01*
G75*
G02*
X318092000Y-236654250I0J218750D01*
G01*
X318092000Y-236216750D01*
G75*
G02*
X318310750Y-235998000I218750J0D01*
G01*
G37*
G36*
G01*
X318310750Y-237573000D02*
X318823250Y-237573000D01*
G75*
G02*
X319042000Y-237791750I0J-218750D01*
G01*
X319042000Y-238229250D01*
G75*
G02*
X318823250Y-238448000I-218750J0D01*
G01*
X318310750Y-238448000D01*
G75*
G02*
X318092000Y-238229250I0J218750D01*
G01*
X318092000Y-237791750D01*
G75*
G02*
X318310750Y-237573000I218750J0D01*
G01*
G37*
G36*
G01*
X303850250Y-304945000D02*
X303337750Y-304945000D01*
G75*
G02*
X303119000Y-304726250I0J218750D01*
G01*
X303119000Y-304288750D01*
G75*
G02*
X303337750Y-304070000I218750J0D01*
G01*
X303850250Y-304070000D01*
G75*
G02*
X304069000Y-304288750I0J-218750D01*
G01*
X304069000Y-304726250D01*
G75*
G02*
X303850250Y-304945000I-218750J0D01*
G01*
G37*
G36*
G01*
X303850250Y-306520000D02*
X303337750Y-306520000D01*
G75*
G02*
X303119000Y-306301250I0J218750D01*
G01*
X303119000Y-305863750D01*
G75*
G02*
X303337750Y-305645000I218750J0D01*
G01*
X303850250Y-305645000D01*
G75*
G02*
X304069000Y-305863750I0J-218750D01*
G01*
X304069000Y-306301250D01*
G75*
G02*
X303850250Y-306520000I-218750J0D01*
G01*
G37*
G36*
G01*
X322379250Y-304983000D02*
X321866750Y-304983000D01*
G75*
G02*
X321648000Y-304764250I0J218750D01*
G01*
X321648000Y-304326750D01*
G75*
G02*
X321866750Y-304108000I218750J0D01*
G01*
X322379250Y-304108000D01*
G75*
G02*
X322598000Y-304326750I0J-218750D01*
G01*
X322598000Y-304764250D01*
G75*
G02*
X322379250Y-304983000I-218750J0D01*
G01*
G37*
G36*
G01*
X322379250Y-306558000D02*
X321866750Y-306558000D01*
G75*
G02*
X321648000Y-306339250I0J218750D01*
G01*
X321648000Y-305901750D01*
G75*
G02*
X321866750Y-305683000I218750J0D01*
G01*
X322379250Y-305683000D01*
G75*
G02*
X322598000Y-305901750I0J-218750D01*
G01*
X322598000Y-306339250D01*
G75*
G02*
X322379250Y-306558000I-218750J0D01*
G01*
G37*
G36*
G01*
X340934250Y-305009000D02*
X340421750Y-305009000D01*
G75*
G02*
X340203000Y-304790250I0J218750D01*
G01*
X340203000Y-304352750D01*
G75*
G02*
X340421750Y-304134000I218750J0D01*
G01*
X340934250Y-304134000D01*
G75*
G02*
X341153000Y-304352750I0J-218750D01*
G01*
X341153000Y-304790250D01*
G75*
G02*
X340934250Y-305009000I-218750J0D01*
G01*
G37*
G36*
G01*
X340934250Y-306584000D02*
X340421750Y-306584000D01*
G75*
G02*
X340203000Y-306365250I0J218750D01*
G01*
X340203000Y-305927750D01*
G75*
G02*
X340421750Y-305709000I218750J0D01*
G01*
X340934250Y-305709000D01*
G75*
G02*
X341153000Y-305927750I0J-218750D01*
G01*
X341153000Y-306365250D01*
G75*
G02*
X340934250Y-306584000I-218750J0D01*
G01*
G37*
M02*
