M48
INCH,TZ
T1C0.0157
T2C0.0315
T3C0.0354
T4C0.0394
T5C0.0453
T6C0.0787
T7C0.1250
T8C0.0787
%
G90
G05
T1
X56075Y-84175
X56075Y-93100
X56125Y-88425
X56125Y-97350
X56125Y-106300
X56125Y-115250
X56150Y-111000
X56175Y-101850
X56259Y-102324
X57350Y-107650
X57375Y-89725
X57375Y-98700
X57450Y-116700
X57515Y-95629
X57524Y-86669
X57553Y-114296
X60271Y-95516
X60684Y-104028
X60714Y-87511
X60736Y-105500
X60753Y-114248
X60825Y-110884
X60829Y-112459
X60918Y-86112
X61250Y-96026
X62059Y-103993
X62695Y-105968
X62750Y-91300
X63050Y-95911
X63750Y-96588
X63800Y-87398
X64801Y-95056
X64820Y-112832
X64946Y-114071
X65324Y-104034
X65700Y-92000
X65750Y-83050
X65800Y-100950
X65800Y-109900
X65952Y-86644
X66052Y-95427
X66197Y-112780
X67250Y-96015
X67250Y-104909
X67270Y-113896
X67639Y-87814
X68050Y-110200
X68550Y-83675
X68550Y-84175
X68550Y-84675
X68800Y-97200
X69050Y-83675
X69050Y-84175
X69050Y-84675
X69100Y-107150
X69550Y-83675
X69550Y-84175
X69550Y-84675
X70050Y-83675
X70050Y-84175
X70050Y-84675
X70550Y-83675
X70550Y-84175
X70550Y-84675
X71725Y-86228
X72795Y-88036
X73575Y-90400
X73653Y-115618
X73940Y-117440
X74274Y-113071
X74709Y-97554
X74727Y-91459
X75001Y-96571
X75001Y-97835
X75074Y-92588
X75075Y-87075
X75260Y-95341
X75300Y-99876
X75312Y-94142
X75336Y-106215
X75347Y-109167
X75350Y-100900
X75415Y-110686
X75428Y-107773
X75437Y-103109
X75441Y-90796
X75460Y-110223
X75500Y-92800
X75640Y-118150
X75643Y-114720
X75660Y-118670
X75680Y-115370
X75726Y-103587
X75750Y-113925
X75750Y-119700
X75825Y-81277
X75936Y-112397
X76152Y-78413
X76163Y-109489
X76192Y-82875
X76250Y-92150
X76258Y-94968
X76275Y-96250
X76367Y-112832
X76367Y-115962
X76450Y-110825
X76550Y-117600
X76648Y-97475
X76927Y-89926
X77201Y-100777
X77511Y-94464
X77521Y-100540
X77654Y-105143
X77847Y-99540
X78100Y-109625
X78137Y-96500
X78400Y-89000
X78725Y-112625
X78875Y-96050
X78893Y-98468
X79034Y-103412
X79049Y-106468
X79174Y-80537
X79175Y-87800
X79179Y-95380
X79180Y-79480
X79186Y-83632
X79190Y-81533
X79725Y-93653
X79762Y-87989
X79825Y-102425
X80797Y-103815
X80866Y-82564
X80885Y-84791
X80966Y-89399
X81003Y-87811
X81007Y-86322
X81088Y-95709
X81416Y-90455
X81600Y-84400
X82425Y-80925
X82512Y-104759
X82512Y-115088
X82862Y-118575
X84440Y-95968
X84475Y-118275
X84500Y-116475
X85000Y-118375
X85636Y-111724
X85900Y-118200
X86530Y-107970
X86541Y-110259
X86727Y-117204
X86750Y-78973
X87262Y-111673
X88075Y-79650
X89450Y-117875
X89950Y-87450
X90386Y-84756
X90801Y-113392
X90820Y-86750
X91225Y-86766
X91841Y-91263
X92100Y-96450
X98325Y-83625
X98325Y-85375
X99092Y-84306
X99340Y-81148
X99794Y-86354
X99960Y-85042
X100570Y-85898
X101120Y-80387
X101125Y-102475
X101280Y-96420
X101295Y-89358
X101300Y-101420
X101620Y-85991
X101700Y-90975
X101760Y-80390
X102400Y-73150
X102400Y-81950
X102520Y-80395
X102623Y-85811
X102747Y-88963
X102907Y-74805
X103020Y-85986
X104900Y-77825
X105880Y-75078
X106440Y-75375
X106650Y-92425
X107025Y-82009
X107275Y-107950
X107275Y-108950
X107440Y-75336
X109400Y-75600
X109547Y-81218
X109675Y-93550
X110039Y-102252
X110079Y-83199
X110100Y-92450
X110100Y-95250
X110374Y-104492
X110374Y-105404
X110374Y-106471
X110440Y-75600
X110572Y-85741
X110659Y-111474
X110837Y-99114
X110874Y-100461
X111004Y-92478
X111450Y-73625
X111450Y-75650
X111454Y-102793
X111478Y-103750
X111538Y-100155
X111661Y-111465
X111739Y-99301
X112010Y-80943
X112010Y-109889
X112014Y-83716
X112015Y-84940
X112021Y-111940
X112031Y-82069
X112065Y-78875
X112066Y-86658
X112120Y-101351
X112134Y-82601
X112137Y-80023
X112253Y-99990
X112268Y-103880
X112860Y-100136
X112944Y-91958
X113093Y-92367
X113150Y-92875
X113160Y-83867
X113205Y-112052
X113233Y-111048
X113250Y-96500
X113250Y-120625
X113265Y-95920
X113347Y-107850
X113485Y-102775
X113575Y-81164
X113601Y-117516
X113643Y-79360
X113657Y-85989
X113717Y-76546
X113750Y-98025
X113783Y-84663
X113861Y-106218
X113884Y-83319
X113896Y-75961
X113925Y-119501
X113979Y-78542
X113981Y-74132
X114008Y-90269
X114072Y-96266
X114101Y-111343
X114185Y-80360
X114188Y-92288
X114237Y-98376
X114364Y-89358
X114741Y-79392
X114775Y-72325
X114775Y-72825
X114775Y-73325
X114875Y-103775
X114900Y-80175
X114928Y-98219
X114975Y-114474
X115275Y-72325
X115275Y-72825
X115275Y-73325
X115332Y-88942
X115340Y-105079
X115575Y-74475
X115610Y-119045
X115625Y-94075
X115638Y-81104
X115728Y-97556
X115741Y-86025
X115775Y-72325
X115775Y-72825
X115775Y-73325
X115925Y-92100
X115950Y-99850
X116275Y-72325
X116275Y-72825
X116275Y-73325
X116599Y-100262
X116701Y-115859
X116775Y-72325
X116775Y-72825
X116775Y-73325
X116779Y-103399
X116800Y-94119
X116947Y-99770
X117565Y-116369
X117684Y-104974
X117750Y-112825
X117810Y-108013
X117824Y-119560
X118146Y-109919
X118146Y-114566
X118344Y-94053
X118669Y-80537
X118671Y-79451
X118741Y-94113
X119110Y-112257
X119188Y-107657
X119213Y-92783
X119224Y-94295
X119420Y-108128
X119514Y-92354
X119650Y-112815
X119770Y-88982
X119859Y-99515
X119863Y-98141
X119865Y-100422
X119876Y-101825
X119877Y-105007
X119892Y-103977
X119950Y-120057
X119965Y-103131
X119977Y-106566
X119980Y-111350
X120216Y-85192
X120232Y-82951
X120250Y-97550
X120325Y-82554
X120400Y-120525
X120475Y-83650
X120525Y-79350
X120575Y-86925
X120632Y-87793
X120700Y-75550
X120719Y-105864
X120935Y-112825
X121224Y-89613
X121246Y-95372
X121286Y-106876
X121305Y-103718
X121399Y-106353
X121499Y-94600
X121600Y-96225
X121699Y-112647
X121715Y-80428
X121752Y-120114
X121757Y-100270
X121760Y-92465
X121793Y-105292
X121825Y-108182
X121909Y-84080
X121950Y-100700
X122028Y-106935
X122325Y-99400
X122396Y-91529
X122429Y-103428
X122530Y-100568
X122567Y-76271
X122641Y-98828
X122696Y-97745
X122725Y-96425
X122754Y-99400
X122788Y-111442
X122826Y-90849
X122958Y-74922
X123022Y-119359
X123285Y-116770
X123325Y-109674
X124320Y-105190
X124418Y-101608
X124480Y-78851
X124506Y-112921
X124512Y-108161
X124568Y-100222
X124723Y-111355
X124757Y-97867
X124805Y-74845
X124813Y-101028
X124846Y-87004
X124850Y-83625
X124887Y-79138
X124975Y-99450
X124992Y-98708
X125141Y-89160
X125276Y-109944
X125276Y-114579
X125571Y-107620
X125571Y-111506
X125639Y-108661
X125668Y-113331
X126200Y-94119
X126227Y-89004
X126412Y-119500
X126596Y-99888
X127090Y-99819
X127092Y-101625
X127117Y-76271
X127134Y-84133
X127192Y-120176
X127414Y-79843
X127425Y-104100
X127494Y-74920
X127575Y-93850
X127606Y-120635
X127745Y-104960
X128001Y-108329
X128570Y-98748
X128706Y-111593
X128799Y-106927
X128799Y-108612
X128975Y-113215
X129002Y-88843
X129082Y-119122
X129131Y-98312
X129346Y-75204
X129371Y-87004
X129387Y-79138
X129400Y-83625
X130081Y-93904
X130100Y-116026
X130180Y-99937
X130190Y-100700
X130677Y-90101
X130822Y-95027
X130824Y-95745
X130875Y-88675
X130906Y-104783
X130981Y-103833
X131030Y-98344
X131038Y-93994
X131115Y-89455
X131662Y-116561
X131673Y-86646
X131847Y-90628
X131991Y-109956
X131991Y-114591
X132044Y-74937
X132044Y-78857
X132124Y-102222
X132132Y-111503
X132150Y-80129
X132208Y-96317
X132291Y-116111
X132438Y-107559
X132438Y-108072
X132438Y-113097
X132559Y-99930
X132870Y-108181
X133193Y-112872
X133400Y-87425
X133510Y-105376
X133720Y-95430
X133729Y-119511
X133800Y-75175
X133808Y-99231
X133808Y-100720
X133821Y-90356
X133828Y-89877
X133832Y-93484
X133833Y-103748
X133835Y-94292
X133837Y-92869
X133862Y-79138
X133919Y-98434
X133987Y-104891
X134060Y-104320
X134079Y-112949
X134175Y-83350
X134317Y-111454
X134645Y-84367
X134825Y-120650
X134957Y-90247
X135155Y-108015
X135208Y-84953
X135421Y-112939
X135427Y-111897
X135592Y-107672
X135930Y-100740
X136023Y-99250
X136217Y-84953
X136267Y-76271
X136607Y-82787
X136825Y-104506
X136937Y-92616
X137190Y-91076
X137200Y-84950
X137223Y-95482
X137566Y-96009
X137586Y-101886
X137950Y-79450
X137975Y-83450
T2
X72291Y-76199
X74555Y-79388
X74555Y-80175
X74555Y-80963
X74555Y-81750
X74654Y-84939
T3
X70430Y-79156
X70430Y-81715
T4
X103415Y-73090
X104415Y-73090
X105415Y-73090
X106415Y-73090
X107415Y-73090
X108415Y-73090
X109415Y-73090
X110415Y-73090
X134650Y-86650
X135650Y-86650
X136650Y-86650
X137650Y-86650
X78000Y-115195
X78000Y-116195
X78000Y-117195
X78000Y-118195
X60250Y-84300
X60250Y-89300
X61250Y-84300
X61250Y-89300
X62250Y-84300
X62250Y-89300
X63250Y-84300
X63250Y-89300
X64250Y-84300
X64250Y-89300
X65250Y-84300
X65250Y-89300
X66250Y-84300
X66250Y-89300
X67250Y-84300
X67250Y-85300
X67250Y-86300
X67250Y-89300
X83940Y-78468
X83940Y-79468
X83940Y-80468
X83940Y-81468
X83940Y-82468
X83940Y-83468
X83940Y-84468
X83940Y-85468
X83940Y-86468
X83940Y-87468
X83940Y-88468
X83940Y-89468
X83940Y-90468
X83940Y-91468
X83940Y-92468
X83940Y-93468
X83940Y-94468
X83940Y-95468
X83940Y-96468
X83940Y-97468
X83940Y-98468
X83940Y-99468
X83940Y-100468
X83940Y-101468
X83940Y-102468
X83940Y-103468
X83940Y-104468
X83940Y-105468
X83940Y-106468
X83940Y-107468
X83940Y-108468
X83940Y-109468
X83940Y-110468
X83940Y-111468
X83940Y-112468
X83940Y-113468
X84940Y-78468
X84940Y-79468
X84940Y-80468
X84940Y-81468
X84940Y-82468
X84940Y-83468
X84940Y-84468
X84940Y-85468
X84940Y-86468
X84940Y-87468
X84940Y-88468
X84940Y-89468
X84940Y-90468
X84940Y-91468
X84940Y-92468
X84940Y-93468
X84940Y-94468
X84940Y-95468
X84940Y-96468
X84940Y-97468
X84940Y-98468
X84940Y-99468
X84940Y-100468
X84940Y-101468
X84940Y-102468
X84940Y-103468
X84940Y-104468
X84940Y-105468
X84940Y-106468
X84940Y-107468
X84940Y-108468
X84940Y-109468
X84940Y-110468
X84940Y-111468
X84940Y-112468
X84940Y-113468
X86940Y-82468
X86940Y-83468
X86940Y-84468
X86940Y-85468
X86940Y-86468
X86940Y-87468
X86940Y-88468
X86940Y-89468
X86940Y-91468
X86940Y-92468
X86940Y-93468
X86940Y-94468
X86940Y-95468
X86940Y-96468
X86940Y-97468
X86940Y-98468
X86940Y-99468
X86940Y-100468
X86940Y-101468
X86940Y-102468
X86940Y-103468
X86940Y-104468
X86940Y-105468
X87940Y-82468
X87940Y-83468
X87940Y-84468
X87940Y-85468
X87940Y-86468
X87940Y-87468
X87940Y-88468
X87940Y-89468
X87940Y-91468
X87940Y-92468
X87940Y-93468
X87940Y-94468
X87940Y-95468
X87940Y-96468
X87940Y-97468
X87940Y-98468
X87940Y-99468
X87940Y-100468
X87940Y-101468
X87940Y-102468
X87940Y-103468
X87940Y-104468
X87940Y-105468
X104940Y-78968
X104940Y-79968
X104940Y-80968
X104940Y-81968
X104940Y-82968
X104940Y-83968
X104940Y-84968
X104940Y-85968
X104940Y-86968
X104940Y-87968
X104940Y-89468
X104940Y-90468
X104940Y-91468
X104940Y-92468
X104940Y-93468
X104940Y-94468
X104940Y-95468
X104940Y-96468
X104940Y-97468
X104940Y-98468
X104940Y-99468
X104940Y-100468
X104940Y-101468
X104940Y-102468
X104940Y-103468
X104940Y-104468
X104940Y-105468
X105940Y-78968
X105940Y-79968
X105940Y-80968
X105940Y-81968
X105940Y-82968
X105940Y-83968
X105940Y-84968
X105940Y-85968
X105940Y-86968
X105940Y-87968
X105940Y-89468
X105940Y-90468
X105940Y-91468
X105940Y-92468
X105940Y-93468
X105940Y-94468
X105940Y-95468
X105940Y-96468
X105940Y-97468
X105940Y-98468
X105940Y-99468
X105940Y-100468
X105940Y-101468
X105940Y-102468
X105940Y-103468
X105940Y-104468
X105940Y-105468
X107940Y-78468
X107940Y-79468
X107940Y-80468
X107940Y-81468
X107940Y-82468
X107940Y-83468
X107940Y-84468
X107940Y-85468
X107940Y-86468
X107940Y-87468
X107940Y-88468
X107940Y-89468
X107940Y-90468
X107940Y-91468
X107940Y-92468
X107940Y-93468
X107940Y-94468
X107940Y-95468
X107940Y-96468
X107940Y-97468
X107940Y-98468
X107940Y-99468
X107940Y-100468
X107940Y-101468
X107940Y-102468
X107940Y-103468
X107940Y-104468
X107940Y-105468
X107940Y-106468
X107940Y-107468
X107940Y-108468
X107940Y-109468
X107940Y-110468
X107940Y-111468
X107940Y-112468
X107940Y-113468
X108940Y-78468
X108940Y-79468
X108940Y-80468
X108940Y-81468
X108940Y-82468
X108940Y-83468
X108940Y-84468
X108940Y-85468
X108940Y-86468
X108940Y-87468
X108940Y-88468
X108940Y-89468
X108940Y-90468
X108940Y-91468
X108940Y-92468
X108940Y-93468
X108940Y-94468
X108940Y-95468
X108940Y-96468
X108940Y-97468
X108940Y-98468
X108940Y-99468
X108940Y-100468
X108940Y-101468
X108940Y-102468
X108940Y-103468
X108940Y-104468
X108940Y-105468
X108940Y-106468
X108940Y-107468
X108940Y-108468
X108940Y-109468
X108940Y-110468
X108940Y-111468
X108940Y-112468
X108940Y-113468
X60300Y-111250
X60300Y-116250
X61300Y-111250
X61300Y-116250
X62300Y-111250
X62300Y-116250
X63300Y-111250
X63300Y-116250
X64300Y-111250
X64300Y-116250
X65300Y-111250
X65300Y-116250
X66300Y-111250
X66300Y-116250
X67300Y-111250
X67300Y-112250
X67300Y-113250
X67300Y-116250
X60250Y-102250
X60250Y-107250
X61250Y-102250
X61250Y-107250
X62250Y-102250
X62250Y-107250
X63250Y-102250
X63250Y-107250
X64250Y-102250
X64250Y-107250
X65250Y-102250
X65250Y-107250
X66250Y-102250
X66250Y-107250
X67250Y-102250
X67250Y-103250
X67250Y-104250
X67250Y-107250
X60250Y-93300
X60250Y-98300
X61250Y-93300
X61250Y-98300
X62250Y-93300
X62250Y-98300
X63250Y-93300
X63250Y-98300
X64250Y-93300
X64250Y-98300
X65250Y-93300
X65250Y-98300
X66250Y-93300
X66250Y-98300
X67250Y-93300
X67250Y-94300
X67250Y-95300
X67250Y-98300
X80395Y-116205
X80395Y-117205
X80395Y-118205
X72925Y-115195
X72925Y-116195
X72925Y-117195
X72925Y-118195
T5
X71310Y-90715
X71310Y-91715
X71310Y-92715
X71310Y-93715
X71310Y-94715
X71310Y-95715
X71310Y-96715
X71310Y-97715
X72310Y-90715
X72310Y-91715
X72310Y-92715
X72310Y-93715
X72310Y-94715
X72310Y-95715
X72310Y-96715
X72310Y-97715
X71270Y-103694
X71270Y-104694
X71270Y-105694
X71270Y-106694
X71270Y-107694
X71270Y-108694
X71270Y-109694
X71270Y-110694
X72270Y-103694
X72270Y-104694
X72270Y-105694
X72270Y-106694
X72270Y-107694
X72270Y-108694
X72270Y-109694
X72270Y-110694
T6
X73472Y-75844
X73472Y-85293
T7
X96460Y-83900
X136775Y-73600
X56175Y-119225
X136775Y-119200
X96475Y-108880
X56200Y-73600
T8
X71130Y-76199
X71720Y-84939
X75815Y-76199
X75815Y-84939
T0
M30
