M48
;GenerationSoftware,Autodesk,EAGLE,9.6.0*%
;CreationDate,2020-04-05T21:24:29Z*%
FMAT,2
ICI,OFF
METRIC,TZ,000.000
T9C0.508
T8C0.813
T7C0.900
T6C1.016
T5C1.200
T4C2.032
T3C2.300
T2C2.997
T1C3.200
%
G90
M71
T1
X19050Y3810
X160020Y3810
X160020Y62230
X19050Y62230
T2
X9890Y8890
X3890Y8890
X6890Y4190
X8160Y53720
X5160Y58420
X11160Y58420
T3
X114300Y63500
X127000Y63500
X152400Y63500
X88900Y63500
T4
X147701Y28067
X147701Y15367
T5
X53224Y62992
X56724Y62992
X60224Y62992
X63724Y62992
X67224Y62992
X70724Y62992
X74224Y62992
X77724Y62992
T6
X20320Y26162
X22860Y26162
X25400Y26162
X30480Y26162
X33020Y26162
X35560Y26162
X38100Y26162
X38100Y41402
X35560Y41402
X33020Y41402
X30480Y41402
X27940Y41402
X25400Y41402
X22860Y41402
X20320Y41402
X17780Y41402
X15240Y41402
X12700Y41402
X38100Y38862
X7620Y41402
X38100Y33782
X5080Y26162
X38100Y36322
X38100Y28702
X5080Y41402
X5080Y44831
X10160Y44831
X10160Y47625
X83820Y64897
X83820Y62103
X121920Y64897
X121920Y62103
X43180Y4699
X26479Y2032
X43180Y1905
X82550Y4572
X82550Y1778
X120650Y4699
X120650Y1905
X162306Y10160
X159512Y10160
X162814Y48260
X162560Y55626
X161671Y14097
X161671Y16637
X161671Y19177
X161671Y21717
X161671Y24257
X161671Y26797
X161671Y29337
X5080Y47625
X40183Y65253
X46685Y65253
X40183Y60731
X46685Y60731
X26467Y65253
X32969Y65253
X26467Y60731
X32969Y60731
X115570Y34290
X113030Y34290
X110490Y34290
X107950Y34290
X105410Y34290
X102870Y34290
X100330Y34290
X97790Y34290
X95250Y34290
X92710Y34290
X90170Y34290
X87630Y34290
X115570Y39370
X115570Y41910
X115570Y44450
X115570Y46990
X110490Y64770
X107950Y64770
X105410Y64770
X102870Y64770
X100330Y64770
X97790Y64770
X95250Y64770
X92710Y64770
X153670Y34290
X151130Y34290
X148590Y34290
X146050Y34290
X143510Y34290
X140970Y34290
X138430Y34290
X135890Y34290
X133350Y34290
X130810Y34290
X128270Y34290
X125730Y34290
X153670Y39370
X153670Y41910
X153670Y44450
X153670Y46990
X148590Y64770
X146050Y64770
X143510Y64770
X140970Y64770
X138430Y64770
X135890Y64770
X133350Y64770
X130810Y64770
X26479Y4572
X27940Y26162
X26479Y7112
X26479Y9652
X39561Y9652
X39561Y7112
X39561Y4572
X39561Y2032
X46799Y4572
X46799Y2032
X46799Y7112
X46799Y9652
X59880Y9652
X59880Y7112
X59880Y4572
X59880Y2032
X65850Y4445
X65850Y1905
X65850Y6985
X65850Y9525
X78931Y9525
X78931Y6985
X78931Y4445
X78931Y1905
X86297Y4445
X86297Y1905
X86297Y6985
X86297Y9525
X99377Y9525
X99377Y6985
X99377Y4445
X99377Y1905
X104457Y4572
X104457Y2032
X104457Y7112
X104457Y9652
X117538Y9652
X117538Y7112
X117538Y4572
X117538Y2032
X123888Y4572
X123888Y2032
X123888Y7112
X123888Y9652
X136970Y9652
X136970Y7112
X136970Y4572
X136970Y2032
X142177Y4572
X142177Y2032
X142177Y7112
X142177Y9652
X155258Y9652
X155258Y7112
X155258Y4572
X155258Y2032
X7620Y26162
X10160Y26162
X12700Y26162
X15240Y26162
X38100Y31242
X10160Y41402
X17780Y26162
T7
X67310Y50038
X60198Y50038
X53288Y39116
X60198Y57658
X22860Y49784
X22860Y57404
X36830Y49784
X36830Y57404
X33528Y57404
X25908Y57404
X47244Y57404
X39624Y57404
X41910Y45720
X41910Y38100
X67310Y57658
X74168Y50038
X74168Y57658
X53086Y50038
X53086Y57658
X46788Y39116
T8
X43434Y50800
X43434Y53340
X29972Y50800
X29972Y53340
T9
X12700Y11430
X15240Y11938
X45720Y11938
X17780Y13462
X64770Y13462
X20320Y14732
X85090Y14732
X22860Y16002
X103124Y15748
X121920Y17272
X27940Y18542
X143510Y30226
X72644Y42672
X33020Y43942
X65786Y44704
X30734Y46990
X58674Y47498
X28702Y48260
X51308Y48514
X20574Y38100
X161544Y37592
X15240Y57404
X41910Y30226
X59690Y30226
X78994Y30226
X99314Y30226
X117094Y30226
X136652Y30226
X155194Y30226
X155194Y21590
X105410Y30226
X135255Y24384
X115570Y24384
X97790Y24384
X77216Y24384
X58420Y24384
X138430Y24384
X140970Y18542
X153670Y24384
X100330Y24384
X140970Y25908
X102870Y25908
X17780Y55880
X30480Y35052
X33020Y32512
X25400Y17272
M30