M48
; DRILL file {KiCad (5.1.5)-3} date 02-Jul-20 5:41:43 PM
; FORMAT={-:-/ absolute / inch / decimal}
; #@! TF.CreationDate,2020-07-02T17:41:43-07:00
; #@! TF.GenerationSoftware,Kicad,Pcbnew,(5.1.5)-3
; #@! TF.FileFunction,Plated,1,4,PTH
FMAT,2
INCH
T1C0.0079
T2C0.0080
T3C0.0197
T4C0.0394
T5C0.0402
T6C0.0630
T7C0.1180
T8C0.1181
T9C0.1260
%
G90
G05
T1
X6.6945Y-3.606
X6.724Y-3.606
X6.7535Y-3.606
T2
X3.603Y-3.212
X3.607Y-3.698
X3.608Y-3.73
X3.61Y-3.667
X3.611Y-4.749
X3.612Y-4.716
X3.614Y-3.07
X3.614Y-3.362
X3.614Y-3.496
X3.614Y-4.783
X3.62Y-4.308
X3.621Y-4.575
X3.621Y-4.915
X3.623Y-4.855
X3.624Y-3.877
X3.625Y-5.122
X3.628Y-3.148
X3.628Y-3.68
X3.628Y-3.719
X3.628Y-4.017
X3.628Y-4.161
X3.629Y-5.017
X3.631Y-4.428
X3.634Y-3.59
X3.634Y-4.975
X3.636Y-4.242
X3.637Y-3.651
X3.637Y-3.745
X3.637Y-4.767
X3.638Y-4.73
X3.639Y-3.006
X3.639Y-3.298
X3.639Y-3.432
X3.641Y-4.797
X3.642Y-4.699
X3.644Y-3.226
X3.646Y-4.511
X3.649Y-3.698
X3.649Y-3.813
X3.649Y-5.058
X3.653Y-3.953
X3.653Y-4.097
X3.655Y-3.084
X3.655Y-3.376
X3.655Y-3.51
X3.656Y-3.672
X3.656Y-4.364
X3.657Y-3.721
X3.658Y-4.751
X3.659Y-4.911
X3.662Y-4.589
X3.663Y-3.746
X3.665Y-3.891
X3.665Y-4.28
X3.668Y-3.649
X3.668Y-4.698
X3.668Y-4.797
X3.668Y-4.827
X3.669Y-4.031
X3.669Y-4.175
X3.672Y-3.182
X3.672Y-4.442
X3.673Y-3.264
X3.675Y-4.989
X3.683Y-3.04
X3.683Y-3.332
X3.683Y-3.466
X3.684Y-3.122
X3.684Y-3.414
X3.684Y-3.548
X3.69Y-4.545
X3.691Y-4.627
X3.693Y-3.847
X3.693Y-5.092
X3.694Y-3.929
X3.697Y-3.987
X3.697Y-4.131
X3.697Y-4.864
X3.698Y-4.069
X3.698Y-4.213
X3.7Y-4.398
X3.701Y-4.48
X3.718Y-3.006
X3.719Y-3.089
X3.72Y-4.934
X3.726Y-3.502
X3.729Y-5.017
X3.741Y-3.373
X3.753Y-4.166
X3.754Y-5.075
X3.758Y-3.854
X3.759Y-4.022
X3.766Y-3.043
X3.766Y-3.942
X3.769Y-4.091
X3.807Y-5.075
X3.83Y-3.015
X3.845Y-5.115
X3.855Y-2.951
X3.871Y-3.029
X3.881Y-5.2
X3.882Y-5.278
X3.883Y-2.741
X3.884Y-2.896
X3.885Y-5.075
X3.899Y-2.819
X3.899Y-2.985
X3.9Y-3.067
X3.92Y-5.244
X3.927Y-2.775
X3.928Y-2.857
X3.934Y-2.951
X3.935Y-3.034
X3.944Y-5.157
X3.953Y-5.279
X3.958Y-5.215
X3.962Y-2.741
X3.962Y-2.895
X3.963Y-2.824
X3.964Y-5.093
X3.982Y-2.988
X4.002Y-5.001
X4.002Y-5.243
X4.01Y-2.778
X4.011Y-2.88
X4.012Y-5.149
X4.013Y-5.063
X4.025Y-2.982
X4.036Y-5.199
X4.036Y-5.278
X4.037Y-2.762
X4.05Y-2.918
X4.057Y-2.727
X4.064Y-5.101
X4.065Y-5.179
X4.066Y-2.996
X4.07Y-5.028
X4.072Y-4.923
X4.094Y-2.952
X4.095Y-3.034
X4.101Y-2.761
X4.103Y-5.145
X4.106Y-5.305
X4.111Y-4.962
X4.128Y-2.727
X4.129Y-2.918
X4.13Y-3.001
X4.136Y-5.18
X4.139Y-5.061
X4.141Y-5.116
X4.144Y-5.224
X4.144Y-5.271
X4.148Y-5.006
X4.156Y-3.762
X4.172Y-2.761
X4.177Y-2.955
X4.177Y-5.306
X4.1819Y-3.7281
X4.182Y-5.242
X4.185Y-3.29
X4.185Y-5.144
X4.192Y-2.807
X4.197Y-3.752
X4.202Y-5.004
X4.21Y-3.226
X4.211Y-3.003
X4.211Y-3.157
X4.211Y-4.966
X4.212Y-3.086
X4.217Y-2.743
X4.218Y-2.898
X4.219Y-5.1
X4.219Y-5.179
X4.226Y-3.304
X4.226Y-5.27
X4.233Y-2.821
X4.239Y-3.751
X4.241Y-3.202
X4.25Y-5.006
X4.254Y-3.26
X4.255Y-3.342
X4.26Y-2.959
X4.26Y-5.226
X4.26Y-5.305
X4.261Y-2.777
X4.261Y-3.114
X4.262Y-2.859
X4.263Y-5.071
X4.264Y-5.149
X4.2651Y-3.7119
X4.276Y-3.037
X4.283Y-3.752
X4.288Y-3.161
X4.289Y-3.226
X4.289Y-4.248
X4.29Y-3.309
X4.291Y-4.017
X4.296Y-2.743
X4.296Y-2.897
X4.297Y-2.826
X4.302Y-5.115
X4.304Y-2.993
X4.305Y-3.075
X4.307Y-5.199
X4.308Y-5.277
X4.314Y-3.89
X4.332Y-3.195
X4.335Y-5.15
X4.337Y-3.263
X4.339Y-2.959
X4.339Y-3.113
X4.34Y-3.042
X4.34Y-5.086
X4.344Y-2.78
X4.345Y-2.882
X4.345Y-3.93
X4.346Y-5.243
X4.371Y-2.764
X4.379Y-5.278
X4.384Y-5.114
X4.384Y-5.214
X4.386Y-2.929
X4.39Y-2.852
X4.39Y-3.929
X4.4051Y-3.8889
X4.412Y-2.811
X4.416Y-2.734
X4.418Y-5.07
X4.418Y-5.149
X4.424Y-4.139
X4.427Y-3.927
X4.428Y-5.242
X4.433Y-2.902
X4.459Y-2.784
X4.461Y-2.853
X4.462Y-5.198
X4.462Y-5.277
X4.472Y-2.946
X4.474Y-3.927
X4.478Y-4.894
X4.478Y-5.036
X4.479Y-4.972
X4.479Y-5.114
X4.481Y-4.7213
X4.481Y-4.772
X4.482Y-3.221
X4.482Y-3.27
X4.483Y-3.889
X4.483Y-4.836
X4.484Y-3.175
X4.485Y-3.07
X4.485Y-3.129
X4.485Y-3.327
X4.485Y-4.236
X4.4856Y-4.1974
X4.487Y-2.735
X4.498Y-2.828
X4.51Y-2.917
X4.51Y-3.93
X4.517Y-4.938
X4.517Y-5.08
X4.523Y-4.262
X4.523Y-5.156
X4.524Y-5.234
X4.526Y-3.111
X4.533Y-3.061
X4.536Y-2.799
X4.544Y-2.852
X4.55Y-4.973
X4.55Y-5.115
X4.554Y-2.945
X4.554Y-3.087
X4.554Y-3.334
X4.554Y-5.306
X4.555Y-4.909
X4.555Y-5.051
X4.561Y-3.929
X4.562Y-5.2
X4.57Y-2.734
X4.579Y-3.991
X4.58Y-2.827
X4.588Y-3.062
X4.595Y-3.111
X4.595Y-5.235
X4.599Y-4.937
X4.599Y-5.079
X4.6Y-5.171
X4.616Y-2.774
X4.623Y-2.865
X4.628Y-4.7243
X4.631Y-4.772
X4.631Y-4.832
X4.633Y-4.893
X4.633Y-4.972
X4.633Y-5.035
X4.633Y-5.114
X4.634Y-3.266
X4.634Y-3.33
X4.636Y-3.07
X4.636Y-3.128
X4.636Y-3.174
X4.636Y-3.22
X4.641Y-5.282
X4.644Y-5.199
X4.657Y-2.821
X4.661Y-2.744
X4.678Y-5.155
X4.678Y-5.234
X4.702Y-5.314
X4.704Y-2.794
X4.705Y-2.872
X4.732Y-2.745
X4.732Y-4.922
X4.733Y-5.0
X4.7399Y-4.2581
X4.74Y-4.169
X4.742Y-5.198
X4.743Y-2.838
X4.743Y-5.056
X4.743Y-5.276
X4.744Y-5.134
X4.747Y-4.348
X4.759Y-3.89
X4.771Y-4.966
X4.776Y-2.873
X4.779Y-4.193
X4.781Y-2.809
X4.781Y-5.242
X4.782Y-5.1
X4.783Y-4.235
X4.785Y-4.28
X4.787Y-4.326
X4.804Y-5.001
X4.809Y-4.937
X4.814Y-5.277
X4.815Y-2.744
X4.815Y-5.135
X4.819Y-5.213
X4.82Y-5.071
X4.825Y-2.837
X4.838Y-3.92
X4.853Y-4.965
X4.855Y-3.715
X4.859Y-2.793
X4.859Y-2.872
X4.863Y-5.241
X4.864Y-5.099
X4.886Y-4.202
X4.887Y-4.921
X4.887Y-5.0
X4.897Y-5.197
X4.897Y-5.276
X4.898Y-5.055
X4.898Y-5.134
X4.909Y-3.756
X4.92Y-2.751
X4.921Y-2.829
X4.928Y-5.24
X4.93Y-4.044
X4.937Y-3.91
X4.939Y-3.944
X4.94Y-3.984
X4.942Y-4.014
X4.944Y-4.155
X4.957Y-3.714
X4.958Y-5.075
X4.959Y-2.795
X4.962Y-5.275
X4.966Y-5.181
X4.973Y-4.013
X4.979Y-3.886
X4.979Y-3.957
X4.992Y-2.83
X4.997Y-2.766
X5.008Y-5.114
X5.011Y-2.725
X5.026Y-5.239
X5.027Y-5.317
X5.035Y-4.345
X5.038Y-2.877
X5.038Y-3.82
X5.04Y-3.886
X5.041Y-2.794
X5.049Y-3.757
X5.063Y-4.114
X5.065Y-5.283
X5.068Y-4.253
X5.074Y-4.21
X5.075Y-2.75
X5.075Y-2.829
X5.075Y-3.863
X5.081Y-5.176
X5.085Y-3.899
X5.088Y-4.303
X5.089Y-3.228
X5.09Y-4.111
X5.098Y-5.318
X5.103Y-5.254
X5.109Y-4.126
X5.113Y-3.885
X5.114Y-4.155
X5.117Y-3.355
X5.13Y-5.046
X5.139Y-2.728
X5.139Y-2.793
X5.14Y-2.871
X5.14Y-3.871
X5.141Y-4.14
X5.147Y-5.282
X5.148Y-4.061
X5.149Y-3.951
X5.149Y-4.002
X5.161Y-3.147
X5.166Y-4.038
X5.172Y-3.979
X5.173Y-3.872
X5.173Y-4.14
X5.178Y-2.837
X5.181Y-5.238
X5.181Y-5.317
X5.196Y-4.004
X5.196Y-4.061
X5.197Y-3.951
X5.211Y-2.872
X5.213Y-3.65
X5.216Y-2.808
X5.222Y-2.727
X5.224Y-3.979
X5.225Y-4.043
X5.229Y-4.369
X5.232Y-5.246
X5.237Y-5.334
X5.251Y-3.951
X5.251Y-4.004
X5.252Y-4.062
X5.26Y-2.836
X5.262Y-3.647
X5.266Y-5.281
X5.273Y-4.141
X5.274Y-4.034
X5.277Y-3.873
X5.279Y-3.977
X5.294Y-2.792
X5.294Y-2.871
X5.298Y-4.065
X5.299Y-4.004
X5.3Y-3.951
X5.302Y-4.38
X5.304Y-2.743
X5.325Y-2.835
X5.327Y-4.182
X5.329Y-3.884
X5.33Y-5.245
X5.331Y-5.323
X5.332Y-4.22
X5.354Y-4.95
X5.359Y-2.87
X5.363Y-2.776
X5.368Y-4.412
X5.369Y-5.289
X5.37Y-2.717
X5.3716Y-4.0351
X5.379Y-4.08
X5.381Y-3.958
X5.3813Y-3.9336
X5.3842Y-4.0566
X5.39Y-2.813
X5.391Y-3.223
X5.393Y-3.902
X5.394Y-4.022
X5.402Y-4.753
X5.402Y-5.324
X5.403Y-3.762
X5.404Y-4.405
X5.407Y-5.26
X5.421Y-3.355
X5.43Y-4.886
X5.431Y-2.86
X5.435Y-2.783
X5.436Y-3.9166
X5.446Y-4.262
X5.451Y-5.288
X5.453Y-2.716
X5.473Y-3.152
X5.478Y-2.833
X5.482Y-4.275
X5.485Y-5.244
X5.485Y-5.323
X5.506Y-2.784
X5.517Y-2.877
X5.533Y-2.715
X5.552Y-5.255
X5.555Y-2.848
X5.5598Y-3.9867
X5.56Y-4.011
X5.586Y-5.29
X5.589Y-2.783
X5.59Y-4.103
X5.595Y-3.932
X5.597Y-4.399
X5.599Y-2.876
X5.602Y-2.712
X5.619Y-4.132
X5.633Y-2.832
X5.643Y-3.892
X5.65Y-5.254
X5.651Y-5.332
X5.659Y-4.94
X5.672Y-3.857
X5.675Y-4.146
X5.689Y-5.298
X5.694Y-2.79
X5.694Y-3.221
X5.695Y-2.868
X5.701Y-4.148
X5.707Y-4.767
X5.718Y-3.857
X5.722Y-5.333
X5.725Y-3.355
X5.727Y-5.269
X5.73Y-2.715
X5.733Y-2.834
X5.736Y-4.108
X5.737Y-3.892
X5.74Y-4.899
X5.759Y-3.146
X5.766Y-2.869
X5.771Y-2.805
X5.771Y-5.297
X5.805Y-5.253
X5.805Y-5.332
X5.813Y-2.714
X5.824Y-2.77
X5.835Y-2.863
X5.854Y-5.295
X5.873Y-2.834
X5.895Y-2.73
X5.907Y-2.769
X5.915Y-5.252
X5.917Y-2.862
X5.926Y-4.629
X5.927Y-4.597
X5.928Y-3.529
X5.928Y-3.581
X5.929Y-3.485
X5.93Y-3.641
X5.931Y-3.694
X5.932Y-4.367
X5.932Y-4.402
X5.934Y-4.438
X5.934Y-4.52
X5.935Y-4.478
X5.941Y-5.332
X5.951Y-2.818
X5.959Y-3.451
X5.961Y-2.704
X5.967Y-4.94
X5.97Y-4.573
X5.976Y-4.625
X5.976Y-5.237
X5.99Y-3.423
X6.008Y-3.692
X6.013Y-4.592
X6.014Y-3.114
X6.014Y-4.77
X6.026Y-3.448
X6.026Y-5.164
X6.027Y-5.308
X6.043Y-4.629
X6.043Y-4.904
X6.05Y-4.567
X6.052Y-3.425
X6.069Y-4.588
X6.083Y-4.545
X6.086Y-3.434
X6.086Y-3.473
X6.086Y-3.525
X6.086Y-3.578
X6.086Y-3.632
X6.086Y-3.683
X6.091Y-4.611
X6.118Y-4.578
X6.203Y-4.968
X6.225Y-5.023
X6.263Y-4.989
X6.297Y-5.071
X6.341Y-2.793
X6.348Y-2.884
X6.351Y-5.135
X6.352Y-5.217
X6.382Y-2.84
X6.382Y-2.919
X6.386Y-2.763
X6.386Y-5.101
X6.386Y-5.255
X6.387Y-5.184
X6.408Y-5.31
X6.429Y-2.813
X6.43Y-2.891
X6.446Y-5.276
X6.457Y-2.764
X6.468Y-2.857
X6.479Y-5.311
X6.501Y-2.892
X6.506Y-2.828
X6.511Y-3.59
X6.528Y-5.275
X6.54Y-2.763
X6.549Y-3.555
X6.55Y-2.856
X6.562Y-5.31
X6.584Y-2.812
X6.584Y-2.891
X6.591Y-3.601
X6.606Y-3.443
X6.607Y-3.47
X6.611Y-5.273
X6.612Y-4.089
X6.633Y-5.319
X6.641Y-3.418
X6.642Y-3.502
X6.645Y-2.77
X6.646Y-2.848
X6.668Y-4.424
X6.671Y-5.285
X6.673Y-4.321
X6.676Y-2.92
X6.68Y-4.344
X6.684Y-2.814
X6.704Y-5.32
X6.708Y-3.536
X6.717Y-2.849
X6.717Y-4.208
X6.722Y-2.785
X6.736Y-2.744
X6.74Y-3.674
X6.74Y-4.208
X6.752Y-4.084
X6.753Y-5.284
X6.763Y-2.896
X6.764Y-3.913
X6.766Y-2.813
X6.766Y-3.678
X6.767Y-3.76
X6.769Y-4.13
X6.787Y-5.319
X6.789Y-4.282
X6.795Y-4.554
X6.795Y-4.58
X6.796Y-4.519
X6.797Y-4.617
X6.798Y-3.682
X6.8Y-2.769
X6.8Y-2.848
X6.801Y-3.722
X6.803Y-3.915
X6.804Y-3.794
X6.819Y-3.968
X6.819Y-3.998
X6.82Y-3.756
X6.821Y-4.039
X6.821Y-4.069
X6.824Y-2.928
X6.826Y-4.484
X6.826Y-4.545
X6.826Y-4.575
X6.826Y-4.61
X6.827Y-4.515
X6.829Y-4.212
X6.836Y-5.282
X6.838Y-3.72
X6.84Y-3.785
X6.841Y-3.914
X6.841Y-4.426
X6.845Y-4.095
X6.845Y-4.123
X6.845Y-4.153
X6.845Y-4.186
X6.847Y-4.01
X6.847Y-4.036
X6.848Y-3.982
X6.848Y-4.068
X6.85Y-4.572
X6.851Y-4.48
X6.851Y-4.526
X6.851Y-4.548
X6.852Y-4.46
X6.852Y-4.502
X6.857Y-5.32
X6.864Y-2.747
X6.864Y-2.812
X6.865Y-2.89
X6.866Y-3.753
X6.874Y-3.683
X6.876Y-3.723
X6.877Y-3.963
X6.89Y-3.779
X6.903Y-2.856
X6.913Y-3.718
X6.913Y-4.377
X6.922Y-3.751
X6.922Y-4.199
X6.928Y-5.321
X6.936Y-2.891
X6.94Y-5.244
X6.941Y-2.827
X6.943Y-4.38
X6.946Y-3.782
X6.946Y-4.691
X6.947Y-2.746
X6.951Y-3.664
X6.952Y-3.724
X6.957Y-4.766
X6.959Y-4.186
X6.96Y-3.964
X6.961Y-4.159
X6.965Y-4.602
X6.966Y-4.425
X6.967Y-4.398
X6.968Y-4.511
X6.97Y-4.211
X6.973Y-3.755
X6.985Y-2.855
X6.987Y-3.725
X6.987Y-4.178
X6.987Y-4.747
X6.988Y-3.972
X6.997Y-4.412
X7.004Y-3.994
X7.005Y-4.605
X7.007Y-4.55
X7.008Y-4.058
X7.008Y-4.09
X7.01Y-3.782
X7.01Y-4.025
X7.011Y-4.119
X7.011Y-4.151
X7.011Y-4.474
X7.011Y-4.511
X7.011Y-4.768
X7.011Y-5.32
X7.014Y-4.44
X7.019Y-2.811
X7.019Y-2.89
X7.029Y-2.762
X7.029Y-3.973
X7.029Y-4.046
X7.029Y-4.174
X7.031Y-4.745
X7.032Y-3.683
X7.032Y-4.077
X7.032Y-4.106
X7.032Y-4.135
X7.032Y-4.379
X7.032Y-4.642
X7.033Y-4.009
X7.033Y-4.412
X7.034Y-4.534
X7.037Y-3.748
X7.037Y-4.486
X7.039Y-4.582
X7.041Y-3.715
X7.05Y-2.854
X7.052Y-4.036
X7.052Y-4.062
X7.052Y-4.09
X7.052Y-4.151
X7.053Y-4.122
X7.055Y-4.463
X7.057Y-4.512
X7.061Y-4.433
X7.061Y-4.555
X7.061Y-4.768
X7.064Y-3.783
X7.066Y-4.608
X7.067Y-3.961
X7.067Y-5.337
X7.07Y-3.996
X7.077Y-3.744
X7.084Y-2.889
X7.084Y-4.748
X7.088Y-2.795
X7.089Y-3.977
X7.095Y-2.736
X7.098Y-4.64
X7.1Y-4.472
X7.1Y-4.555
X7.101Y-4.008
X7.106Y-3.777
X7.115Y-2.832
X7.121Y-4.609
X7.122Y-2.923
X7.122Y-4.691
X7.125Y-4.764
X7.156Y-2.879
X7.156Y-2.958
X7.16Y-2.802
X7.161Y-5.326
X7.178Y-2.735
X7.198Y-3.528
X7.199Y-5.292
X7.203Y-2.852
X7.204Y-2.93
X7.231Y-2.803
X7.232Y-5.327
X7.242Y-2.896
X7.258Y-2.734
X7.275Y-2.931
X7.28Y-2.867
X7.281Y-5.291
X7.314Y-2.802
X7.315Y-5.326
X7.324Y-2.895
X7.326Y-3.811
X7.327Y-2.731
X7.358Y-2.851
X7.358Y-2.93
X7.37Y-3.897
X7.416Y-5.293
X7.419Y-2.809
X7.42Y-2.887
X7.45Y-2.959
X7.455Y-2.734
X7.458Y-2.853
X7.474Y-4.802
X7.481Y-5.335
X7.482Y-4.696
X7.491Y-2.888
X7.496Y-2.824
X7.515Y-4.731
X7.519Y-5.301
X7.52Y-4.667
X7.538Y-2.733
X7.549Y-2.789
X7.552Y-5.336
X7.56Y-2.882
X7.561Y-4.778
X7.564Y-4.695
X7.569Y-4.363
X7.598Y-2.853
X7.598Y-4.73
X7.6Y-3.397
X7.601Y-5.3
X7.62Y-2.749
X7.622Y-4.81
X7.632Y-2.788
X7.635Y-5.335
X7.641Y-3.215
X7.642Y-2.881
X7.642Y-3.562
X7.662Y-4.694
X7.663Y-4.772
X7.676Y-2.837
X7.684Y-5.298
X7.686Y-2.723
X7.701Y-4.738
X7.737Y-2.795
X7.738Y-2.873
X7.743Y-4.426
X7.746Y-3.199
X7.755Y-3.286
X7.769Y-2.722
X7.773Y-3.578
X7.776Y-2.839
X7.787Y-3.023
X7.809Y-2.874
X7.814Y-2.81
X7.849Y-2.721
X7.892Y-3.666
X7.959Y-5.311
X7.96Y-5.24
X8.009Y-5.275
X8.01Y-5.204
X8.05Y-5.309
X8.051Y-5.238
X8.217Y-3.941
X8.269Y-3.026
X8.274Y-3.332
X8.276Y-3.264
X8.277Y-4.414
X8.277Y-4.55
X8.278Y-4.343
X8.278Y-4.479
X8.285Y-3.126
X8.286Y-4.644
X8.288Y-3.897
X8.288Y-4.727
X8.289Y-4.809
X8.29Y-3.98
X8.291Y-4.062
X8.3Y-3.656
X8.301Y-3.585
X8.304Y-3.206
X8.306Y-2.995
X8.314Y-4.918
X8.314Y-5.072
X8.315Y-3.437
X8.315Y-5.001
X8.316Y-4.171
X8.316Y-4.325
X8.317Y-4.254
X8.323Y-4.693
X8.323Y-4.847
X8.324Y-4.469
X8.324Y-4.623
X8.324Y-4.776
X8.325Y-3.946
X8.325Y-4.1
X8.325Y-4.552
X8.326Y-3.722
X8.326Y-3.876
X8.326Y-4.029
X8.327Y-3.805
X8.33Y-3.272
X8.331Y-3.355
X8.332Y-3.061
X8.333Y-3.144
X8.341Y-3.503
X8.341Y-4.413
X8.342Y-3.586
X8.343Y-3.666
T3
X6.0724Y-2.839
X6.0984Y-2.7764
X6.0984Y-2.9016
X6.161Y-2.7504
X6.161Y-2.9276
X6.2236Y-2.7764
X6.2236Y-2.9016
X6.2496Y-2.839
X8.1325Y-2.835
X8.1602Y-2.7682
X8.1602Y-2.9018
X8.227Y-2.7405
X8.227Y-2.9295
X8.2938Y-2.7682
X8.2938Y-2.9018
X8.3215Y-2.835
X3.6394Y-5.243
X3.6654Y-5.1804
X3.6654Y-5.3056
X3.728Y-5.1544
X3.728Y-5.3316
X3.7906Y-5.1804
X3.7906Y-5.3056
X3.8166Y-5.243
X8.1334Y-5.226
X8.1594Y-5.1634
X8.1594Y-5.2886
X8.222Y-5.1374
X8.222Y-5.3146
X8.2846Y-5.1634
X8.2846Y-5.2886
X8.3106Y-5.226
X6.1015Y-5.215
X6.1292Y-5.1482
X6.1292Y-5.2818
X6.196Y-5.1205
X6.196Y-5.3095
X6.2628Y-5.1482
X6.2628Y-5.2818
X6.2905Y-5.215
X3.6454Y-2.844
X3.6714Y-2.7814
X3.6714Y-2.9066
X3.734Y-2.7554
X3.734Y-2.9326
X3.7966Y-2.7814
X3.7966Y-2.9066
X3.8226Y-2.844
T4
X7.999Y-3.1
X7.999Y-3.2
X7.999Y-3.3
X7.999Y-3.4
X7.999Y-3.5
X7.999Y-3.6
X7.999Y-3.7
X7.999Y-3.8
X8.099Y-3.1
X8.099Y-3.2
X8.099Y-3.3
X8.099Y-3.4
X8.099Y-3.5
X8.099Y-3.6
X8.099Y-3.7
X8.099Y-3.8
T5
X3.9571Y-3.249
X4.0752Y-3.249
X3.951Y-4.303
X4.0691Y-4.303
T6
X4.876Y-4.786
X7.713Y-3.66
X6.341Y-4.02
X5.2524Y-4.7946
X7.996Y-4.106
X7.996Y-4.306
X7.996Y-4.506
X7.996Y-4.706
X7.996Y-4.906
X6.993Y-3.463
X5.264Y-3.294
X4.885Y-3.299
X5.872Y-3.3
X5.552Y-4.789
X7.435Y-4.277
X5.862Y-4.785
X5.578Y-3.297
T7
X3.7668Y-3.698
X3.8849Y-3.883
X4.003Y-3.698
X3.7618Y-4.748
X3.8799Y-4.933
X3.998Y-4.748
T8
X6.161Y-2.839
X3.728Y-5.243
X8.222Y-5.226
X3.734Y-2.844
T9
X8.227Y-2.835
X6.196Y-5.215
T0
M30
