G04 #@! TF.GenerationSoftware,KiCad,Pcbnew,(5.1.5)-3*
G04 #@! TF.CreationDate,2020-07-02T21:41:10-07:00*
G04 #@! TF.ProjectId,Pufferfish-Power-1,50756666-6572-4666-9973-682d506f7765,v0.1*
G04 #@! TF.SameCoordinates,Original*
G04 #@! TF.FileFunction,Paste,Bot*
G04 #@! TF.FilePolarity,Positive*
%FSLAX46Y46*%
G04 Gerber Fmt 4.6, Leading zero omitted, Abs format (unit mm)*
G04 Created by KiCad (PCBNEW (5.1.5)-3) date 2020-07-02 21:41:10*
%MOMM*%
%LPD*%
G04 APERTURE LIST*
%ADD10C,0.100000*%
%ADD11R,0.800000X0.900000*%
%ADD12R,0.900000X0.800000*%
G04 APERTURE END LIST*
D10*
G36*
X199464491Y-94483253D02*
G01*
X199485726Y-94486403D01*
X199506550Y-94491619D01*
X199526762Y-94498851D01*
X199546168Y-94508030D01*
X199564581Y-94519066D01*
X199581824Y-94531854D01*
X199597730Y-94546270D01*
X199612146Y-94562176D01*
X199624934Y-94579419D01*
X199635970Y-94597832D01*
X199645149Y-94617238D01*
X199652381Y-94637450D01*
X199657597Y-94658274D01*
X199660747Y-94679509D01*
X199661800Y-94700950D01*
X199661800Y-95138450D01*
X199660747Y-95159891D01*
X199657597Y-95181126D01*
X199652381Y-95201950D01*
X199645149Y-95222162D01*
X199635970Y-95241568D01*
X199624934Y-95259981D01*
X199612146Y-95277224D01*
X199597730Y-95293130D01*
X199581824Y-95307546D01*
X199564581Y-95320334D01*
X199546168Y-95331370D01*
X199526762Y-95340549D01*
X199506550Y-95347781D01*
X199485726Y-95352997D01*
X199464491Y-95356147D01*
X199443050Y-95357200D01*
X198930550Y-95357200D01*
X198909109Y-95356147D01*
X198887874Y-95352997D01*
X198867050Y-95347781D01*
X198846838Y-95340549D01*
X198827432Y-95331370D01*
X198809019Y-95320334D01*
X198791776Y-95307546D01*
X198775870Y-95293130D01*
X198761454Y-95277224D01*
X198748666Y-95259981D01*
X198737630Y-95241568D01*
X198728451Y-95222162D01*
X198721219Y-95201950D01*
X198716003Y-95181126D01*
X198712853Y-95159891D01*
X198711800Y-95138450D01*
X198711800Y-94700950D01*
X198712853Y-94679509D01*
X198716003Y-94658274D01*
X198721219Y-94637450D01*
X198728451Y-94617238D01*
X198737630Y-94597832D01*
X198748666Y-94579419D01*
X198761454Y-94562176D01*
X198775870Y-94546270D01*
X198791776Y-94531854D01*
X198809019Y-94519066D01*
X198827432Y-94508030D01*
X198846838Y-94498851D01*
X198867050Y-94491619D01*
X198887874Y-94486403D01*
X198909109Y-94483253D01*
X198930550Y-94482200D01*
X199443050Y-94482200D01*
X199464491Y-94483253D01*
G37*
G36*
X199464491Y-96058253D02*
G01*
X199485726Y-96061403D01*
X199506550Y-96066619D01*
X199526762Y-96073851D01*
X199546168Y-96083030D01*
X199564581Y-96094066D01*
X199581824Y-96106854D01*
X199597730Y-96121270D01*
X199612146Y-96137176D01*
X199624934Y-96154419D01*
X199635970Y-96172832D01*
X199645149Y-96192238D01*
X199652381Y-96212450D01*
X199657597Y-96233274D01*
X199660747Y-96254509D01*
X199661800Y-96275950D01*
X199661800Y-96713450D01*
X199660747Y-96734891D01*
X199657597Y-96756126D01*
X199652381Y-96776950D01*
X199645149Y-96797162D01*
X199635970Y-96816568D01*
X199624934Y-96834981D01*
X199612146Y-96852224D01*
X199597730Y-96868130D01*
X199581824Y-96882546D01*
X199564581Y-96895334D01*
X199546168Y-96906370D01*
X199526762Y-96915549D01*
X199506550Y-96922781D01*
X199485726Y-96927997D01*
X199464491Y-96931147D01*
X199443050Y-96932200D01*
X198930550Y-96932200D01*
X198909109Y-96931147D01*
X198887874Y-96927997D01*
X198867050Y-96922781D01*
X198846838Y-96915549D01*
X198827432Y-96906370D01*
X198809019Y-96895334D01*
X198791776Y-96882546D01*
X198775870Y-96868130D01*
X198761454Y-96852224D01*
X198748666Y-96834981D01*
X198737630Y-96816568D01*
X198728451Y-96797162D01*
X198721219Y-96776950D01*
X198716003Y-96756126D01*
X198712853Y-96734891D01*
X198711800Y-96713450D01*
X198711800Y-96275950D01*
X198712853Y-96254509D01*
X198716003Y-96233274D01*
X198721219Y-96212450D01*
X198728451Y-96192238D01*
X198737630Y-96172832D01*
X198748666Y-96154419D01*
X198761454Y-96137176D01*
X198775870Y-96121270D01*
X198791776Y-96106854D01*
X198809019Y-96094066D01*
X198827432Y-96083030D01*
X198846838Y-96073851D01*
X198867050Y-96066619D01*
X198887874Y-96061403D01*
X198909109Y-96058253D01*
X198930550Y-96057200D01*
X199443050Y-96057200D01*
X199464491Y-96058253D01*
G37*
D11*
X148971000Y-126374400D03*
X149921000Y-124374400D03*
X148021000Y-124374400D03*
X148920200Y-78984600D03*
X147970200Y-80984600D03*
X149870200Y-80984600D03*
X141554200Y-126399800D03*
X142504200Y-124399800D03*
X140604200Y-124399800D03*
X141528800Y-78883000D03*
X140578800Y-80883000D03*
X142478800Y-80883000D03*
X133705600Y-126526800D03*
X134655600Y-124526800D03*
X132755600Y-124526800D03*
X133756400Y-78705200D03*
X132806400Y-80705200D03*
X134706400Y-80705200D03*
D10*
G36*
X144930691Y-82367453D02*
G01*
X144951926Y-82370603D01*
X144972750Y-82375819D01*
X144992962Y-82383051D01*
X145012368Y-82392230D01*
X145030781Y-82403266D01*
X145048024Y-82416054D01*
X145063930Y-82430470D01*
X145078346Y-82446376D01*
X145091134Y-82463619D01*
X145102170Y-82482032D01*
X145111349Y-82501438D01*
X145118581Y-82521650D01*
X145123797Y-82542474D01*
X145126947Y-82563709D01*
X145128000Y-82585150D01*
X145128000Y-83022650D01*
X145126947Y-83044091D01*
X145123797Y-83065326D01*
X145118581Y-83086150D01*
X145111349Y-83106362D01*
X145102170Y-83125768D01*
X145091134Y-83144181D01*
X145078346Y-83161424D01*
X145063930Y-83177330D01*
X145048024Y-83191746D01*
X145030781Y-83204534D01*
X145012368Y-83215570D01*
X144992962Y-83224749D01*
X144972750Y-83231981D01*
X144951926Y-83237197D01*
X144930691Y-83240347D01*
X144909250Y-83241400D01*
X144396750Y-83241400D01*
X144375309Y-83240347D01*
X144354074Y-83237197D01*
X144333250Y-83231981D01*
X144313038Y-83224749D01*
X144293632Y-83215570D01*
X144275219Y-83204534D01*
X144257976Y-83191746D01*
X144242070Y-83177330D01*
X144227654Y-83161424D01*
X144214866Y-83144181D01*
X144203830Y-83125768D01*
X144194651Y-83106362D01*
X144187419Y-83086150D01*
X144182203Y-83065326D01*
X144179053Y-83044091D01*
X144178000Y-83022650D01*
X144178000Y-82585150D01*
X144179053Y-82563709D01*
X144182203Y-82542474D01*
X144187419Y-82521650D01*
X144194651Y-82501438D01*
X144203830Y-82482032D01*
X144214866Y-82463619D01*
X144227654Y-82446376D01*
X144242070Y-82430470D01*
X144257976Y-82416054D01*
X144275219Y-82403266D01*
X144293632Y-82392230D01*
X144313038Y-82383051D01*
X144333250Y-82375819D01*
X144354074Y-82370603D01*
X144375309Y-82367453D01*
X144396750Y-82366400D01*
X144909250Y-82366400D01*
X144930691Y-82367453D01*
G37*
G36*
X144930691Y-83942453D02*
G01*
X144951926Y-83945603D01*
X144972750Y-83950819D01*
X144992962Y-83958051D01*
X145012368Y-83967230D01*
X145030781Y-83978266D01*
X145048024Y-83991054D01*
X145063930Y-84005470D01*
X145078346Y-84021376D01*
X145091134Y-84038619D01*
X145102170Y-84057032D01*
X145111349Y-84076438D01*
X145118581Y-84096650D01*
X145123797Y-84117474D01*
X145126947Y-84138709D01*
X145128000Y-84160150D01*
X145128000Y-84597650D01*
X145126947Y-84619091D01*
X145123797Y-84640326D01*
X145118581Y-84661150D01*
X145111349Y-84681362D01*
X145102170Y-84700768D01*
X145091134Y-84719181D01*
X145078346Y-84736424D01*
X145063930Y-84752330D01*
X145048024Y-84766746D01*
X145030781Y-84779534D01*
X145012368Y-84790570D01*
X144992962Y-84799749D01*
X144972750Y-84806981D01*
X144951926Y-84812197D01*
X144930691Y-84815347D01*
X144909250Y-84816400D01*
X144396750Y-84816400D01*
X144375309Y-84815347D01*
X144354074Y-84812197D01*
X144333250Y-84806981D01*
X144313038Y-84799749D01*
X144293632Y-84790570D01*
X144275219Y-84779534D01*
X144257976Y-84766746D01*
X144242070Y-84752330D01*
X144227654Y-84736424D01*
X144214866Y-84719181D01*
X144203830Y-84700768D01*
X144194651Y-84681362D01*
X144187419Y-84661150D01*
X144182203Y-84640326D01*
X144179053Y-84619091D01*
X144178000Y-84597650D01*
X144178000Y-84160150D01*
X144179053Y-84138709D01*
X144182203Y-84117474D01*
X144187419Y-84096650D01*
X144194651Y-84076438D01*
X144203830Y-84057032D01*
X144214866Y-84038619D01*
X144227654Y-84021376D01*
X144242070Y-84005470D01*
X144257976Y-83991054D01*
X144275219Y-83978266D01*
X144293632Y-83967230D01*
X144313038Y-83958051D01*
X144333250Y-83950819D01*
X144354074Y-83945603D01*
X144375309Y-83942453D01*
X144396750Y-83941400D01*
X144909250Y-83941400D01*
X144930691Y-83942453D01*
G37*
G36*
X153795291Y-123134653D02*
G01*
X153816526Y-123137803D01*
X153837350Y-123143019D01*
X153857562Y-123150251D01*
X153876968Y-123159430D01*
X153895381Y-123170466D01*
X153912624Y-123183254D01*
X153928530Y-123197670D01*
X153942946Y-123213576D01*
X153955734Y-123230819D01*
X153966770Y-123249232D01*
X153975949Y-123268638D01*
X153983181Y-123288850D01*
X153988397Y-123309674D01*
X153991547Y-123330909D01*
X153992600Y-123352350D01*
X153992600Y-123789850D01*
X153991547Y-123811291D01*
X153988397Y-123832526D01*
X153983181Y-123853350D01*
X153975949Y-123873562D01*
X153966770Y-123892968D01*
X153955734Y-123911381D01*
X153942946Y-123928624D01*
X153928530Y-123944530D01*
X153912624Y-123958946D01*
X153895381Y-123971734D01*
X153876968Y-123982770D01*
X153857562Y-123991949D01*
X153837350Y-123999181D01*
X153816526Y-124004397D01*
X153795291Y-124007547D01*
X153773850Y-124008600D01*
X153261350Y-124008600D01*
X153239909Y-124007547D01*
X153218674Y-124004397D01*
X153197850Y-123999181D01*
X153177638Y-123991949D01*
X153158232Y-123982770D01*
X153139819Y-123971734D01*
X153122576Y-123958946D01*
X153106670Y-123944530D01*
X153092254Y-123928624D01*
X153079466Y-123911381D01*
X153068430Y-123892968D01*
X153059251Y-123873562D01*
X153052019Y-123853350D01*
X153046803Y-123832526D01*
X153043653Y-123811291D01*
X153042600Y-123789850D01*
X153042600Y-123352350D01*
X153043653Y-123330909D01*
X153046803Y-123309674D01*
X153052019Y-123288850D01*
X153059251Y-123268638D01*
X153068430Y-123249232D01*
X153079466Y-123230819D01*
X153092254Y-123213576D01*
X153106670Y-123197670D01*
X153122576Y-123183254D01*
X153139819Y-123170466D01*
X153158232Y-123159430D01*
X153177638Y-123150251D01*
X153197850Y-123143019D01*
X153218674Y-123137803D01*
X153239909Y-123134653D01*
X153261350Y-123133600D01*
X153773850Y-123133600D01*
X153795291Y-123134653D01*
G37*
G36*
X153795291Y-121559653D02*
G01*
X153816526Y-121562803D01*
X153837350Y-121568019D01*
X153857562Y-121575251D01*
X153876968Y-121584430D01*
X153895381Y-121595466D01*
X153912624Y-121608254D01*
X153928530Y-121622670D01*
X153942946Y-121638576D01*
X153955734Y-121655819D01*
X153966770Y-121674232D01*
X153975949Y-121693638D01*
X153983181Y-121713850D01*
X153988397Y-121734674D01*
X153991547Y-121755909D01*
X153992600Y-121777350D01*
X153992600Y-122214850D01*
X153991547Y-122236291D01*
X153988397Y-122257526D01*
X153983181Y-122278350D01*
X153975949Y-122298562D01*
X153966770Y-122317968D01*
X153955734Y-122336381D01*
X153942946Y-122353624D01*
X153928530Y-122369530D01*
X153912624Y-122383946D01*
X153895381Y-122396734D01*
X153876968Y-122407770D01*
X153857562Y-122416949D01*
X153837350Y-122424181D01*
X153816526Y-122429397D01*
X153795291Y-122432547D01*
X153773850Y-122433600D01*
X153261350Y-122433600D01*
X153239909Y-122432547D01*
X153218674Y-122429397D01*
X153197850Y-122424181D01*
X153177638Y-122416949D01*
X153158232Y-122407770D01*
X153139819Y-122396734D01*
X153122576Y-122383946D01*
X153106670Y-122369530D01*
X153092254Y-122353624D01*
X153079466Y-122336381D01*
X153068430Y-122317968D01*
X153059251Y-122298562D01*
X153052019Y-122278350D01*
X153046803Y-122257526D01*
X153043653Y-122236291D01*
X153042600Y-122214850D01*
X153042600Y-121777350D01*
X153043653Y-121755909D01*
X153046803Y-121734674D01*
X153052019Y-121713850D01*
X153059251Y-121693638D01*
X153068430Y-121674232D01*
X153079466Y-121655819D01*
X153092254Y-121638576D01*
X153106670Y-121622670D01*
X153122576Y-121608254D01*
X153139819Y-121595466D01*
X153158232Y-121584430D01*
X153177638Y-121575251D01*
X153197850Y-121568019D01*
X153218674Y-121562803D01*
X153239909Y-121559653D01*
X153261350Y-121558600D01*
X153773850Y-121558600D01*
X153795291Y-121559653D01*
G37*
G36*
X137234491Y-82418253D02*
G01*
X137255726Y-82421403D01*
X137276550Y-82426619D01*
X137296762Y-82433851D01*
X137316168Y-82443030D01*
X137334581Y-82454066D01*
X137351824Y-82466854D01*
X137367730Y-82481270D01*
X137382146Y-82497176D01*
X137394934Y-82514419D01*
X137405970Y-82532832D01*
X137415149Y-82552238D01*
X137422381Y-82572450D01*
X137427597Y-82593274D01*
X137430747Y-82614509D01*
X137431800Y-82635950D01*
X137431800Y-83073450D01*
X137430747Y-83094891D01*
X137427597Y-83116126D01*
X137422381Y-83136950D01*
X137415149Y-83157162D01*
X137405970Y-83176568D01*
X137394934Y-83194981D01*
X137382146Y-83212224D01*
X137367730Y-83228130D01*
X137351824Y-83242546D01*
X137334581Y-83255334D01*
X137316168Y-83266370D01*
X137296762Y-83275549D01*
X137276550Y-83282781D01*
X137255726Y-83287997D01*
X137234491Y-83291147D01*
X137213050Y-83292200D01*
X136700550Y-83292200D01*
X136679109Y-83291147D01*
X136657874Y-83287997D01*
X136637050Y-83282781D01*
X136616838Y-83275549D01*
X136597432Y-83266370D01*
X136579019Y-83255334D01*
X136561776Y-83242546D01*
X136545870Y-83228130D01*
X136531454Y-83212224D01*
X136518666Y-83194981D01*
X136507630Y-83176568D01*
X136498451Y-83157162D01*
X136491219Y-83136950D01*
X136486003Y-83116126D01*
X136482853Y-83094891D01*
X136481800Y-83073450D01*
X136481800Y-82635950D01*
X136482853Y-82614509D01*
X136486003Y-82593274D01*
X136491219Y-82572450D01*
X136498451Y-82552238D01*
X136507630Y-82532832D01*
X136518666Y-82514419D01*
X136531454Y-82497176D01*
X136545870Y-82481270D01*
X136561776Y-82466854D01*
X136579019Y-82454066D01*
X136597432Y-82443030D01*
X136616838Y-82433851D01*
X136637050Y-82426619D01*
X136657874Y-82421403D01*
X136679109Y-82418253D01*
X136700550Y-82417200D01*
X137213050Y-82417200D01*
X137234491Y-82418253D01*
G37*
G36*
X137234491Y-83993253D02*
G01*
X137255726Y-83996403D01*
X137276550Y-84001619D01*
X137296762Y-84008851D01*
X137316168Y-84018030D01*
X137334581Y-84029066D01*
X137351824Y-84041854D01*
X137367730Y-84056270D01*
X137382146Y-84072176D01*
X137394934Y-84089419D01*
X137405970Y-84107832D01*
X137415149Y-84127238D01*
X137422381Y-84147450D01*
X137427597Y-84168274D01*
X137430747Y-84189509D01*
X137431800Y-84210950D01*
X137431800Y-84648450D01*
X137430747Y-84669891D01*
X137427597Y-84691126D01*
X137422381Y-84711950D01*
X137415149Y-84732162D01*
X137405970Y-84751568D01*
X137394934Y-84769981D01*
X137382146Y-84787224D01*
X137367730Y-84803130D01*
X137351824Y-84817546D01*
X137334581Y-84830334D01*
X137316168Y-84841370D01*
X137296762Y-84850549D01*
X137276550Y-84857781D01*
X137255726Y-84862997D01*
X137234491Y-84866147D01*
X137213050Y-84867200D01*
X136700550Y-84867200D01*
X136679109Y-84866147D01*
X136657874Y-84862997D01*
X136637050Y-84857781D01*
X136616838Y-84850549D01*
X136597432Y-84841370D01*
X136579019Y-84830334D01*
X136561776Y-84817546D01*
X136545870Y-84803130D01*
X136531454Y-84787224D01*
X136518666Y-84769981D01*
X136507630Y-84751568D01*
X136498451Y-84732162D01*
X136491219Y-84711950D01*
X136486003Y-84691126D01*
X136482853Y-84669891D01*
X136481800Y-84648450D01*
X136481800Y-84210950D01*
X136482853Y-84189509D01*
X136486003Y-84168274D01*
X136491219Y-84147450D01*
X136498451Y-84127238D01*
X136507630Y-84107832D01*
X136518666Y-84089419D01*
X136531454Y-84072176D01*
X136545870Y-84056270D01*
X136561776Y-84041854D01*
X136579019Y-84029066D01*
X136597432Y-84018030D01*
X136616838Y-84008851D01*
X136637050Y-84001619D01*
X136657874Y-83996403D01*
X136679109Y-83993253D01*
X136700550Y-83992200D01*
X137213050Y-83992200D01*
X137234491Y-83993253D01*
G37*
G36*
X146073691Y-123033053D02*
G01*
X146094926Y-123036203D01*
X146115750Y-123041419D01*
X146135962Y-123048651D01*
X146155368Y-123057830D01*
X146173781Y-123068866D01*
X146191024Y-123081654D01*
X146206930Y-123096070D01*
X146221346Y-123111976D01*
X146234134Y-123129219D01*
X146245170Y-123147632D01*
X146254349Y-123167038D01*
X146261581Y-123187250D01*
X146266797Y-123208074D01*
X146269947Y-123229309D01*
X146271000Y-123250750D01*
X146271000Y-123688250D01*
X146269947Y-123709691D01*
X146266797Y-123730926D01*
X146261581Y-123751750D01*
X146254349Y-123771962D01*
X146245170Y-123791368D01*
X146234134Y-123809781D01*
X146221346Y-123827024D01*
X146206930Y-123842930D01*
X146191024Y-123857346D01*
X146173781Y-123870134D01*
X146155368Y-123881170D01*
X146135962Y-123890349D01*
X146115750Y-123897581D01*
X146094926Y-123902797D01*
X146073691Y-123905947D01*
X146052250Y-123907000D01*
X145539750Y-123907000D01*
X145518309Y-123905947D01*
X145497074Y-123902797D01*
X145476250Y-123897581D01*
X145456038Y-123890349D01*
X145436632Y-123881170D01*
X145418219Y-123870134D01*
X145400976Y-123857346D01*
X145385070Y-123842930D01*
X145370654Y-123827024D01*
X145357866Y-123809781D01*
X145346830Y-123791368D01*
X145337651Y-123771962D01*
X145330419Y-123751750D01*
X145325203Y-123730926D01*
X145322053Y-123709691D01*
X145321000Y-123688250D01*
X145321000Y-123250750D01*
X145322053Y-123229309D01*
X145325203Y-123208074D01*
X145330419Y-123187250D01*
X145337651Y-123167038D01*
X145346830Y-123147632D01*
X145357866Y-123129219D01*
X145370654Y-123111976D01*
X145385070Y-123096070D01*
X145400976Y-123081654D01*
X145418219Y-123068866D01*
X145436632Y-123057830D01*
X145456038Y-123048651D01*
X145476250Y-123041419D01*
X145497074Y-123036203D01*
X145518309Y-123033053D01*
X145539750Y-123032000D01*
X146052250Y-123032000D01*
X146073691Y-123033053D01*
G37*
G36*
X146073691Y-121458053D02*
G01*
X146094926Y-121461203D01*
X146115750Y-121466419D01*
X146135962Y-121473651D01*
X146155368Y-121482830D01*
X146173781Y-121493866D01*
X146191024Y-121506654D01*
X146206930Y-121521070D01*
X146221346Y-121536976D01*
X146234134Y-121554219D01*
X146245170Y-121572632D01*
X146254349Y-121592038D01*
X146261581Y-121612250D01*
X146266797Y-121633074D01*
X146269947Y-121654309D01*
X146271000Y-121675750D01*
X146271000Y-122113250D01*
X146269947Y-122134691D01*
X146266797Y-122155926D01*
X146261581Y-122176750D01*
X146254349Y-122196962D01*
X146245170Y-122216368D01*
X146234134Y-122234781D01*
X146221346Y-122252024D01*
X146206930Y-122267930D01*
X146191024Y-122282346D01*
X146173781Y-122295134D01*
X146155368Y-122306170D01*
X146135962Y-122315349D01*
X146115750Y-122322581D01*
X146094926Y-122327797D01*
X146073691Y-122330947D01*
X146052250Y-122332000D01*
X145539750Y-122332000D01*
X145518309Y-122330947D01*
X145497074Y-122327797D01*
X145476250Y-122322581D01*
X145456038Y-122315349D01*
X145436632Y-122306170D01*
X145418219Y-122295134D01*
X145400976Y-122282346D01*
X145385070Y-122267930D01*
X145370654Y-122252024D01*
X145357866Y-122234781D01*
X145346830Y-122216368D01*
X145337651Y-122196962D01*
X145330419Y-122176750D01*
X145325203Y-122155926D01*
X145322053Y-122134691D01*
X145321000Y-122113250D01*
X145321000Y-121675750D01*
X145322053Y-121654309D01*
X145325203Y-121633074D01*
X145330419Y-121612250D01*
X145337651Y-121592038D01*
X145346830Y-121572632D01*
X145357866Y-121554219D01*
X145370654Y-121536976D01*
X145385070Y-121521070D01*
X145400976Y-121506654D01*
X145418219Y-121493866D01*
X145436632Y-121482830D01*
X145456038Y-121473651D01*
X145476250Y-121466419D01*
X145497074Y-121461203D01*
X145518309Y-121458053D01*
X145539750Y-121457000D01*
X146052250Y-121457000D01*
X146073691Y-121458053D01*
G37*
G36*
X138199691Y-122677453D02*
G01*
X138220926Y-122680603D01*
X138241750Y-122685819D01*
X138261962Y-122693051D01*
X138281368Y-122702230D01*
X138299781Y-122713266D01*
X138317024Y-122726054D01*
X138332930Y-122740470D01*
X138347346Y-122756376D01*
X138360134Y-122773619D01*
X138371170Y-122792032D01*
X138380349Y-122811438D01*
X138387581Y-122831650D01*
X138392797Y-122852474D01*
X138395947Y-122873709D01*
X138397000Y-122895150D01*
X138397000Y-123332650D01*
X138395947Y-123354091D01*
X138392797Y-123375326D01*
X138387581Y-123396150D01*
X138380349Y-123416362D01*
X138371170Y-123435768D01*
X138360134Y-123454181D01*
X138347346Y-123471424D01*
X138332930Y-123487330D01*
X138317024Y-123501746D01*
X138299781Y-123514534D01*
X138281368Y-123525570D01*
X138261962Y-123534749D01*
X138241750Y-123541981D01*
X138220926Y-123547197D01*
X138199691Y-123550347D01*
X138178250Y-123551400D01*
X137665750Y-123551400D01*
X137644309Y-123550347D01*
X137623074Y-123547197D01*
X137602250Y-123541981D01*
X137582038Y-123534749D01*
X137562632Y-123525570D01*
X137544219Y-123514534D01*
X137526976Y-123501746D01*
X137511070Y-123487330D01*
X137496654Y-123471424D01*
X137483866Y-123454181D01*
X137472830Y-123435768D01*
X137463651Y-123416362D01*
X137456419Y-123396150D01*
X137451203Y-123375326D01*
X137448053Y-123354091D01*
X137447000Y-123332650D01*
X137447000Y-122895150D01*
X137448053Y-122873709D01*
X137451203Y-122852474D01*
X137456419Y-122831650D01*
X137463651Y-122811438D01*
X137472830Y-122792032D01*
X137483866Y-122773619D01*
X137496654Y-122756376D01*
X137511070Y-122740470D01*
X137526976Y-122726054D01*
X137544219Y-122713266D01*
X137562632Y-122702230D01*
X137582038Y-122693051D01*
X137602250Y-122685819D01*
X137623074Y-122680603D01*
X137644309Y-122677453D01*
X137665750Y-122676400D01*
X138178250Y-122676400D01*
X138199691Y-122677453D01*
G37*
G36*
X138199691Y-121102453D02*
G01*
X138220926Y-121105603D01*
X138241750Y-121110819D01*
X138261962Y-121118051D01*
X138281368Y-121127230D01*
X138299781Y-121138266D01*
X138317024Y-121151054D01*
X138332930Y-121165470D01*
X138347346Y-121181376D01*
X138360134Y-121198619D01*
X138371170Y-121217032D01*
X138380349Y-121236438D01*
X138387581Y-121256650D01*
X138392797Y-121277474D01*
X138395947Y-121298709D01*
X138397000Y-121320150D01*
X138397000Y-121757650D01*
X138395947Y-121779091D01*
X138392797Y-121800326D01*
X138387581Y-121821150D01*
X138380349Y-121841362D01*
X138371170Y-121860768D01*
X138360134Y-121879181D01*
X138347346Y-121896424D01*
X138332930Y-121912330D01*
X138317024Y-121926746D01*
X138299781Y-121939534D01*
X138281368Y-121950570D01*
X138261962Y-121959749D01*
X138241750Y-121966981D01*
X138220926Y-121972197D01*
X138199691Y-121975347D01*
X138178250Y-121976400D01*
X137665750Y-121976400D01*
X137644309Y-121975347D01*
X137623074Y-121972197D01*
X137602250Y-121966981D01*
X137582038Y-121959749D01*
X137562632Y-121950570D01*
X137544219Y-121939534D01*
X137526976Y-121926746D01*
X137511070Y-121912330D01*
X137496654Y-121896424D01*
X137483866Y-121879181D01*
X137472830Y-121860768D01*
X137463651Y-121841362D01*
X137456419Y-121821150D01*
X137451203Y-121800326D01*
X137448053Y-121779091D01*
X137447000Y-121757650D01*
X137447000Y-121320150D01*
X137448053Y-121298709D01*
X137451203Y-121277474D01*
X137456419Y-121256650D01*
X137463651Y-121236438D01*
X137472830Y-121217032D01*
X137483866Y-121198619D01*
X137496654Y-121181376D01*
X137511070Y-121165470D01*
X137526976Y-121151054D01*
X137544219Y-121138266D01*
X137562632Y-121127230D01*
X137582038Y-121118051D01*
X137602250Y-121110819D01*
X137623074Y-121105603D01*
X137644309Y-121102453D01*
X137665750Y-121101400D01*
X138178250Y-121101400D01*
X138199691Y-121102453D01*
G37*
G36*
X129538291Y-82443653D02*
G01*
X129559526Y-82446803D01*
X129580350Y-82452019D01*
X129600562Y-82459251D01*
X129619968Y-82468430D01*
X129638381Y-82479466D01*
X129655624Y-82492254D01*
X129671530Y-82506670D01*
X129685946Y-82522576D01*
X129698734Y-82539819D01*
X129709770Y-82558232D01*
X129718949Y-82577638D01*
X129726181Y-82597850D01*
X129731397Y-82618674D01*
X129734547Y-82639909D01*
X129735600Y-82661350D01*
X129735600Y-83098850D01*
X129734547Y-83120291D01*
X129731397Y-83141526D01*
X129726181Y-83162350D01*
X129718949Y-83182562D01*
X129709770Y-83201968D01*
X129698734Y-83220381D01*
X129685946Y-83237624D01*
X129671530Y-83253530D01*
X129655624Y-83267946D01*
X129638381Y-83280734D01*
X129619968Y-83291770D01*
X129600562Y-83300949D01*
X129580350Y-83308181D01*
X129559526Y-83313397D01*
X129538291Y-83316547D01*
X129516850Y-83317600D01*
X129004350Y-83317600D01*
X128982909Y-83316547D01*
X128961674Y-83313397D01*
X128940850Y-83308181D01*
X128920638Y-83300949D01*
X128901232Y-83291770D01*
X128882819Y-83280734D01*
X128865576Y-83267946D01*
X128849670Y-83253530D01*
X128835254Y-83237624D01*
X128822466Y-83220381D01*
X128811430Y-83201968D01*
X128802251Y-83182562D01*
X128795019Y-83162350D01*
X128789803Y-83141526D01*
X128786653Y-83120291D01*
X128785600Y-83098850D01*
X128785600Y-82661350D01*
X128786653Y-82639909D01*
X128789803Y-82618674D01*
X128795019Y-82597850D01*
X128802251Y-82577638D01*
X128811430Y-82558232D01*
X128822466Y-82539819D01*
X128835254Y-82522576D01*
X128849670Y-82506670D01*
X128865576Y-82492254D01*
X128882819Y-82479466D01*
X128901232Y-82468430D01*
X128920638Y-82459251D01*
X128940850Y-82452019D01*
X128961674Y-82446803D01*
X128982909Y-82443653D01*
X129004350Y-82442600D01*
X129516850Y-82442600D01*
X129538291Y-82443653D01*
G37*
G36*
X129538291Y-84018653D02*
G01*
X129559526Y-84021803D01*
X129580350Y-84027019D01*
X129600562Y-84034251D01*
X129619968Y-84043430D01*
X129638381Y-84054466D01*
X129655624Y-84067254D01*
X129671530Y-84081670D01*
X129685946Y-84097576D01*
X129698734Y-84114819D01*
X129709770Y-84133232D01*
X129718949Y-84152638D01*
X129726181Y-84172850D01*
X129731397Y-84193674D01*
X129734547Y-84214909D01*
X129735600Y-84236350D01*
X129735600Y-84673850D01*
X129734547Y-84695291D01*
X129731397Y-84716526D01*
X129726181Y-84737350D01*
X129718949Y-84757562D01*
X129709770Y-84776968D01*
X129698734Y-84795381D01*
X129685946Y-84812624D01*
X129671530Y-84828530D01*
X129655624Y-84842946D01*
X129638381Y-84855734D01*
X129619968Y-84866770D01*
X129600562Y-84875949D01*
X129580350Y-84883181D01*
X129559526Y-84888397D01*
X129538291Y-84891547D01*
X129516850Y-84892600D01*
X129004350Y-84892600D01*
X128982909Y-84891547D01*
X128961674Y-84888397D01*
X128940850Y-84883181D01*
X128920638Y-84875949D01*
X128901232Y-84866770D01*
X128882819Y-84855734D01*
X128865576Y-84842946D01*
X128849670Y-84828530D01*
X128835254Y-84812624D01*
X128822466Y-84795381D01*
X128811430Y-84776968D01*
X128802251Y-84757562D01*
X128795019Y-84737350D01*
X128789803Y-84716526D01*
X128786653Y-84695291D01*
X128785600Y-84673850D01*
X128785600Y-84236350D01*
X128786653Y-84214909D01*
X128789803Y-84193674D01*
X128795019Y-84172850D01*
X128802251Y-84152638D01*
X128811430Y-84133232D01*
X128822466Y-84114819D01*
X128835254Y-84097576D01*
X128849670Y-84081670D01*
X128865576Y-84067254D01*
X128882819Y-84054466D01*
X128901232Y-84043430D01*
X128920638Y-84034251D01*
X128940850Y-84027019D01*
X128961674Y-84021803D01*
X128982909Y-84018653D01*
X129004350Y-84017600D01*
X129516850Y-84017600D01*
X129538291Y-84018653D01*
G37*
G36*
X183106891Y-92045053D02*
G01*
X183128126Y-92048203D01*
X183148950Y-92053419D01*
X183169162Y-92060651D01*
X183188568Y-92069830D01*
X183206981Y-92080866D01*
X183224224Y-92093654D01*
X183240130Y-92108070D01*
X183254546Y-92123976D01*
X183267334Y-92141219D01*
X183278370Y-92159632D01*
X183287549Y-92179038D01*
X183294781Y-92199250D01*
X183299997Y-92220074D01*
X183303147Y-92241309D01*
X183304200Y-92262750D01*
X183304200Y-92700250D01*
X183303147Y-92721691D01*
X183299997Y-92742926D01*
X183294781Y-92763750D01*
X183287549Y-92783962D01*
X183278370Y-92803368D01*
X183267334Y-92821781D01*
X183254546Y-92839024D01*
X183240130Y-92854930D01*
X183224224Y-92869346D01*
X183206981Y-92882134D01*
X183188568Y-92893170D01*
X183169162Y-92902349D01*
X183148950Y-92909581D01*
X183128126Y-92914797D01*
X183106891Y-92917947D01*
X183085450Y-92919000D01*
X182572950Y-92919000D01*
X182551509Y-92917947D01*
X182530274Y-92914797D01*
X182509450Y-92909581D01*
X182489238Y-92902349D01*
X182469832Y-92893170D01*
X182451419Y-92882134D01*
X182434176Y-92869346D01*
X182418270Y-92854930D01*
X182403854Y-92839024D01*
X182391066Y-92821781D01*
X182380030Y-92803368D01*
X182370851Y-92783962D01*
X182363619Y-92763750D01*
X182358403Y-92742926D01*
X182355253Y-92721691D01*
X182354200Y-92700250D01*
X182354200Y-92262750D01*
X182355253Y-92241309D01*
X182358403Y-92220074D01*
X182363619Y-92199250D01*
X182370851Y-92179038D01*
X182380030Y-92159632D01*
X182391066Y-92141219D01*
X182403854Y-92123976D01*
X182418270Y-92108070D01*
X182434176Y-92093654D01*
X182451419Y-92080866D01*
X182469832Y-92069830D01*
X182489238Y-92060651D01*
X182509450Y-92053419D01*
X182530274Y-92048203D01*
X182551509Y-92045053D01*
X182572950Y-92044000D01*
X183085450Y-92044000D01*
X183106891Y-92045053D01*
G37*
G36*
X183106891Y-90470053D02*
G01*
X183128126Y-90473203D01*
X183148950Y-90478419D01*
X183169162Y-90485651D01*
X183188568Y-90494830D01*
X183206981Y-90505866D01*
X183224224Y-90518654D01*
X183240130Y-90533070D01*
X183254546Y-90548976D01*
X183267334Y-90566219D01*
X183278370Y-90584632D01*
X183287549Y-90604038D01*
X183294781Y-90624250D01*
X183299997Y-90645074D01*
X183303147Y-90666309D01*
X183304200Y-90687750D01*
X183304200Y-91125250D01*
X183303147Y-91146691D01*
X183299997Y-91167926D01*
X183294781Y-91188750D01*
X183287549Y-91208962D01*
X183278370Y-91228368D01*
X183267334Y-91246781D01*
X183254546Y-91264024D01*
X183240130Y-91279930D01*
X183224224Y-91294346D01*
X183206981Y-91307134D01*
X183188568Y-91318170D01*
X183169162Y-91327349D01*
X183148950Y-91334581D01*
X183128126Y-91339797D01*
X183106891Y-91342947D01*
X183085450Y-91344000D01*
X182572950Y-91344000D01*
X182551509Y-91342947D01*
X182530274Y-91339797D01*
X182509450Y-91334581D01*
X182489238Y-91327349D01*
X182469832Y-91318170D01*
X182451419Y-91307134D01*
X182434176Y-91294346D01*
X182418270Y-91279930D01*
X182403854Y-91264024D01*
X182391066Y-91246781D01*
X182380030Y-91228368D01*
X182370851Y-91208962D01*
X182363619Y-91188750D01*
X182358403Y-91167926D01*
X182355253Y-91146691D01*
X182354200Y-91125250D01*
X182354200Y-90687750D01*
X182355253Y-90666309D01*
X182358403Y-90645074D01*
X182363619Y-90624250D01*
X182370851Y-90604038D01*
X182380030Y-90584632D01*
X182391066Y-90566219D01*
X182403854Y-90548976D01*
X182418270Y-90533070D01*
X182434176Y-90518654D01*
X182451419Y-90505866D01*
X182469832Y-90494830D01*
X182489238Y-90485651D01*
X182509450Y-90478419D01*
X182530274Y-90473203D01*
X182551509Y-90470053D01*
X182572950Y-90469000D01*
X183085450Y-90469000D01*
X183106891Y-90470053D01*
G37*
G36*
X192403291Y-113076253D02*
G01*
X192424526Y-113079403D01*
X192445350Y-113084619D01*
X192465562Y-113091851D01*
X192484968Y-113101030D01*
X192503381Y-113112066D01*
X192520624Y-113124854D01*
X192536530Y-113139270D01*
X192550946Y-113155176D01*
X192563734Y-113172419D01*
X192574770Y-113190832D01*
X192583949Y-113210238D01*
X192591181Y-113230450D01*
X192596397Y-113251274D01*
X192599547Y-113272509D01*
X192600600Y-113293950D01*
X192600600Y-113731450D01*
X192599547Y-113752891D01*
X192596397Y-113774126D01*
X192591181Y-113794950D01*
X192583949Y-113815162D01*
X192574770Y-113834568D01*
X192563734Y-113852981D01*
X192550946Y-113870224D01*
X192536530Y-113886130D01*
X192520624Y-113900546D01*
X192503381Y-113913334D01*
X192484968Y-113924370D01*
X192465562Y-113933549D01*
X192445350Y-113940781D01*
X192424526Y-113945997D01*
X192403291Y-113949147D01*
X192381850Y-113950200D01*
X191869350Y-113950200D01*
X191847909Y-113949147D01*
X191826674Y-113945997D01*
X191805850Y-113940781D01*
X191785638Y-113933549D01*
X191766232Y-113924370D01*
X191747819Y-113913334D01*
X191730576Y-113900546D01*
X191714670Y-113886130D01*
X191700254Y-113870224D01*
X191687466Y-113852981D01*
X191676430Y-113834568D01*
X191667251Y-113815162D01*
X191660019Y-113794950D01*
X191654803Y-113774126D01*
X191651653Y-113752891D01*
X191650600Y-113731450D01*
X191650600Y-113293950D01*
X191651653Y-113272509D01*
X191654803Y-113251274D01*
X191660019Y-113230450D01*
X191667251Y-113210238D01*
X191676430Y-113190832D01*
X191687466Y-113172419D01*
X191700254Y-113155176D01*
X191714670Y-113139270D01*
X191730576Y-113124854D01*
X191747819Y-113112066D01*
X191766232Y-113101030D01*
X191785638Y-113091851D01*
X191805850Y-113084619D01*
X191826674Y-113079403D01*
X191847909Y-113076253D01*
X191869350Y-113075200D01*
X192381850Y-113075200D01*
X192403291Y-113076253D01*
G37*
G36*
X192403291Y-111501253D02*
G01*
X192424526Y-111504403D01*
X192445350Y-111509619D01*
X192465562Y-111516851D01*
X192484968Y-111526030D01*
X192503381Y-111537066D01*
X192520624Y-111549854D01*
X192536530Y-111564270D01*
X192550946Y-111580176D01*
X192563734Y-111597419D01*
X192574770Y-111615832D01*
X192583949Y-111635238D01*
X192591181Y-111655450D01*
X192596397Y-111676274D01*
X192599547Y-111697509D01*
X192600600Y-111718950D01*
X192600600Y-112156450D01*
X192599547Y-112177891D01*
X192596397Y-112199126D01*
X192591181Y-112219950D01*
X192583949Y-112240162D01*
X192574770Y-112259568D01*
X192563734Y-112277981D01*
X192550946Y-112295224D01*
X192536530Y-112311130D01*
X192520624Y-112325546D01*
X192503381Y-112338334D01*
X192484968Y-112349370D01*
X192465562Y-112358549D01*
X192445350Y-112365781D01*
X192424526Y-112370997D01*
X192403291Y-112374147D01*
X192381850Y-112375200D01*
X191869350Y-112375200D01*
X191847909Y-112374147D01*
X191826674Y-112370997D01*
X191805850Y-112365781D01*
X191785638Y-112358549D01*
X191766232Y-112349370D01*
X191747819Y-112338334D01*
X191730576Y-112325546D01*
X191714670Y-112311130D01*
X191700254Y-112295224D01*
X191687466Y-112277981D01*
X191676430Y-112259568D01*
X191667251Y-112240162D01*
X191660019Y-112219950D01*
X191654803Y-112199126D01*
X191651653Y-112177891D01*
X191650600Y-112156450D01*
X191650600Y-111718950D01*
X191651653Y-111697509D01*
X191654803Y-111676274D01*
X191660019Y-111655450D01*
X191667251Y-111635238D01*
X191676430Y-111615832D01*
X191687466Y-111597419D01*
X191700254Y-111580176D01*
X191714670Y-111564270D01*
X191730576Y-111549854D01*
X191747819Y-111537066D01*
X191766232Y-111526030D01*
X191785638Y-111516851D01*
X191805850Y-111509619D01*
X191826674Y-111504403D01*
X191847909Y-111501253D01*
X191869350Y-111500200D01*
X192381850Y-111500200D01*
X192403291Y-111501253D01*
G37*
G36*
X197903091Y-85784453D02*
G01*
X197924326Y-85787603D01*
X197945150Y-85792819D01*
X197965362Y-85800051D01*
X197984768Y-85809230D01*
X198003181Y-85820266D01*
X198020424Y-85833054D01*
X198036330Y-85847470D01*
X198050746Y-85863376D01*
X198063534Y-85880619D01*
X198074570Y-85899032D01*
X198083749Y-85918438D01*
X198090981Y-85938650D01*
X198096197Y-85959474D01*
X198099347Y-85980709D01*
X198100400Y-86002150D01*
X198100400Y-86514650D01*
X198099347Y-86536091D01*
X198096197Y-86557326D01*
X198090981Y-86578150D01*
X198083749Y-86598362D01*
X198074570Y-86617768D01*
X198063534Y-86636181D01*
X198050746Y-86653424D01*
X198036330Y-86669330D01*
X198020424Y-86683746D01*
X198003181Y-86696534D01*
X197984768Y-86707570D01*
X197965362Y-86716749D01*
X197945150Y-86723981D01*
X197924326Y-86729197D01*
X197903091Y-86732347D01*
X197881650Y-86733400D01*
X197444150Y-86733400D01*
X197422709Y-86732347D01*
X197401474Y-86729197D01*
X197380650Y-86723981D01*
X197360438Y-86716749D01*
X197341032Y-86707570D01*
X197322619Y-86696534D01*
X197305376Y-86683746D01*
X197289470Y-86669330D01*
X197275054Y-86653424D01*
X197262266Y-86636181D01*
X197251230Y-86617768D01*
X197242051Y-86598362D01*
X197234819Y-86578150D01*
X197229603Y-86557326D01*
X197226453Y-86536091D01*
X197225400Y-86514650D01*
X197225400Y-86002150D01*
X197226453Y-85980709D01*
X197229603Y-85959474D01*
X197234819Y-85938650D01*
X197242051Y-85918438D01*
X197251230Y-85899032D01*
X197262266Y-85880619D01*
X197275054Y-85863376D01*
X197289470Y-85847470D01*
X197305376Y-85833054D01*
X197322619Y-85820266D01*
X197341032Y-85809230D01*
X197360438Y-85800051D01*
X197380650Y-85792819D01*
X197401474Y-85787603D01*
X197422709Y-85784453D01*
X197444150Y-85783400D01*
X197881650Y-85783400D01*
X197903091Y-85784453D01*
G37*
G36*
X196328091Y-85784453D02*
G01*
X196349326Y-85787603D01*
X196370150Y-85792819D01*
X196390362Y-85800051D01*
X196409768Y-85809230D01*
X196428181Y-85820266D01*
X196445424Y-85833054D01*
X196461330Y-85847470D01*
X196475746Y-85863376D01*
X196488534Y-85880619D01*
X196499570Y-85899032D01*
X196508749Y-85918438D01*
X196515981Y-85938650D01*
X196521197Y-85959474D01*
X196524347Y-85980709D01*
X196525400Y-86002150D01*
X196525400Y-86514650D01*
X196524347Y-86536091D01*
X196521197Y-86557326D01*
X196515981Y-86578150D01*
X196508749Y-86598362D01*
X196499570Y-86617768D01*
X196488534Y-86636181D01*
X196475746Y-86653424D01*
X196461330Y-86669330D01*
X196445424Y-86683746D01*
X196428181Y-86696534D01*
X196409768Y-86707570D01*
X196390362Y-86716749D01*
X196370150Y-86723981D01*
X196349326Y-86729197D01*
X196328091Y-86732347D01*
X196306650Y-86733400D01*
X195869150Y-86733400D01*
X195847709Y-86732347D01*
X195826474Y-86729197D01*
X195805650Y-86723981D01*
X195785438Y-86716749D01*
X195766032Y-86707570D01*
X195747619Y-86696534D01*
X195730376Y-86683746D01*
X195714470Y-86669330D01*
X195700054Y-86653424D01*
X195687266Y-86636181D01*
X195676230Y-86617768D01*
X195667051Y-86598362D01*
X195659819Y-86578150D01*
X195654603Y-86557326D01*
X195651453Y-86536091D01*
X195650400Y-86514650D01*
X195650400Y-86002150D01*
X195651453Y-85980709D01*
X195654603Y-85959474D01*
X195659819Y-85938650D01*
X195667051Y-85918438D01*
X195676230Y-85899032D01*
X195687266Y-85880619D01*
X195700054Y-85863376D01*
X195714470Y-85847470D01*
X195730376Y-85833054D01*
X195747619Y-85820266D01*
X195766032Y-85809230D01*
X195785438Y-85800051D01*
X195805650Y-85792819D01*
X195826474Y-85787603D01*
X195847709Y-85784453D01*
X195869150Y-85783400D01*
X196306650Y-85783400D01*
X196328091Y-85784453D01*
G37*
G36*
X107504291Y-102548453D02*
G01*
X107525526Y-102551603D01*
X107546350Y-102556819D01*
X107566562Y-102564051D01*
X107585968Y-102573230D01*
X107604381Y-102584266D01*
X107621624Y-102597054D01*
X107637530Y-102611470D01*
X107651946Y-102627376D01*
X107664734Y-102644619D01*
X107675770Y-102663032D01*
X107684949Y-102682438D01*
X107692181Y-102702650D01*
X107697397Y-102723474D01*
X107700547Y-102744709D01*
X107701600Y-102766150D01*
X107701600Y-103278650D01*
X107700547Y-103300091D01*
X107697397Y-103321326D01*
X107692181Y-103342150D01*
X107684949Y-103362362D01*
X107675770Y-103381768D01*
X107664734Y-103400181D01*
X107651946Y-103417424D01*
X107637530Y-103433330D01*
X107621624Y-103447746D01*
X107604381Y-103460534D01*
X107585968Y-103471570D01*
X107566562Y-103480749D01*
X107546350Y-103487981D01*
X107525526Y-103493197D01*
X107504291Y-103496347D01*
X107482850Y-103497400D01*
X107045350Y-103497400D01*
X107023909Y-103496347D01*
X107002674Y-103493197D01*
X106981850Y-103487981D01*
X106961638Y-103480749D01*
X106942232Y-103471570D01*
X106923819Y-103460534D01*
X106906576Y-103447746D01*
X106890670Y-103433330D01*
X106876254Y-103417424D01*
X106863466Y-103400181D01*
X106852430Y-103381768D01*
X106843251Y-103362362D01*
X106836019Y-103342150D01*
X106830803Y-103321326D01*
X106827653Y-103300091D01*
X106826600Y-103278650D01*
X106826600Y-102766150D01*
X106827653Y-102744709D01*
X106830803Y-102723474D01*
X106836019Y-102702650D01*
X106843251Y-102682438D01*
X106852430Y-102663032D01*
X106863466Y-102644619D01*
X106876254Y-102627376D01*
X106890670Y-102611470D01*
X106906576Y-102597054D01*
X106923819Y-102584266D01*
X106942232Y-102573230D01*
X106961638Y-102564051D01*
X106981850Y-102556819D01*
X107002674Y-102551603D01*
X107023909Y-102548453D01*
X107045350Y-102547400D01*
X107482850Y-102547400D01*
X107504291Y-102548453D01*
G37*
G36*
X109079291Y-102548453D02*
G01*
X109100526Y-102551603D01*
X109121350Y-102556819D01*
X109141562Y-102564051D01*
X109160968Y-102573230D01*
X109179381Y-102584266D01*
X109196624Y-102597054D01*
X109212530Y-102611470D01*
X109226946Y-102627376D01*
X109239734Y-102644619D01*
X109250770Y-102663032D01*
X109259949Y-102682438D01*
X109267181Y-102702650D01*
X109272397Y-102723474D01*
X109275547Y-102744709D01*
X109276600Y-102766150D01*
X109276600Y-103278650D01*
X109275547Y-103300091D01*
X109272397Y-103321326D01*
X109267181Y-103342150D01*
X109259949Y-103362362D01*
X109250770Y-103381768D01*
X109239734Y-103400181D01*
X109226946Y-103417424D01*
X109212530Y-103433330D01*
X109196624Y-103447746D01*
X109179381Y-103460534D01*
X109160968Y-103471570D01*
X109141562Y-103480749D01*
X109121350Y-103487981D01*
X109100526Y-103493197D01*
X109079291Y-103496347D01*
X109057850Y-103497400D01*
X108620350Y-103497400D01*
X108598909Y-103496347D01*
X108577674Y-103493197D01*
X108556850Y-103487981D01*
X108536638Y-103480749D01*
X108517232Y-103471570D01*
X108498819Y-103460534D01*
X108481576Y-103447746D01*
X108465670Y-103433330D01*
X108451254Y-103417424D01*
X108438466Y-103400181D01*
X108427430Y-103381768D01*
X108418251Y-103362362D01*
X108411019Y-103342150D01*
X108405803Y-103321326D01*
X108402653Y-103300091D01*
X108401600Y-103278650D01*
X108401600Y-102766150D01*
X108402653Y-102744709D01*
X108405803Y-102723474D01*
X108411019Y-102702650D01*
X108418251Y-102682438D01*
X108427430Y-102663032D01*
X108438466Y-102644619D01*
X108451254Y-102627376D01*
X108465670Y-102611470D01*
X108481576Y-102597054D01*
X108498819Y-102584266D01*
X108517232Y-102573230D01*
X108536638Y-102564051D01*
X108556850Y-102556819D01*
X108577674Y-102551603D01*
X108598909Y-102548453D01*
X108620350Y-102547400D01*
X109057850Y-102547400D01*
X109079291Y-102548453D01*
G37*
D11*
X182788600Y-93910400D03*
X181838600Y-95910400D03*
X183738600Y-95910400D03*
D12*
X193665600Y-112166400D03*
X195665600Y-113116400D03*
X195665600Y-111216400D03*
D11*
X197688200Y-87950800D03*
X196738200Y-89950800D03*
X198638200Y-89950800D03*
D12*
X106924600Y-105689400D03*
X108924600Y-106639400D03*
X108924600Y-104739400D03*
D10*
G36*
X146734091Y-125953853D02*
G01*
X146755326Y-125957003D01*
X146776150Y-125962219D01*
X146796362Y-125969451D01*
X146815768Y-125978630D01*
X146834181Y-125989666D01*
X146851424Y-126002454D01*
X146867330Y-126016870D01*
X146881746Y-126032776D01*
X146894534Y-126050019D01*
X146905570Y-126068432D01*
X146914749Y-126087838D01*
X146921981Y-126108050D01*
X146927197Y-126128874D01*
X146930347Y-126150109D01*
X146931400Y-126171550D01*
X146931400Y-126609050D01*
X146930347Y-126630491D01*
X146927197Y-126651726D01*
X146921981Y-126672550D01*
X146914749Y-126692762D01*
X146905570Y-126712168D01*
X146894534Y-126730581D01*
X146881746Y-126747824D01*
X146867330Y-126763730D01*
X146851424Y-126778146D01*
X146834181Y-126790934D01*
X146815768Y-126801970D01*
X146796362Y-126811149D01*
X146776150Y-126818381D01*
X146755326Y-126823597D01*
X146734091Y-126826747D01*
X146712650Y-126827800D01*
X146200150Y-126827800D01*
X146178709Y-126826747D01*
X146157474Y-126823597D01*
X146136650Y-126818381D01*
X146116438Y-126811149D01*
X146097032Y-126801970D01*
X146078619Y-126790934D01*
X146061376Y-126778146D01*
X146045470Y-126763730D01*
X146031054Y-126747824D01*
X146018266Y-126730581D01*
X146007230Y-126712168D01*
X145998051Y-126692762D01*
X145990819Y-126672550D01*
X145985603Y-126651726D01*
X145982453Y-126630491D01*
X145981400Y-126609050D01*
X145981400Y-126171550D01*
X145982453Y-126150109D01*
X145985603Y-126128874D01*
X145990819Y-126108050D01*
X145998051Y-126087838D01*
X146007230Y-126068432D01*
X146018266Y-126050019D01*
X146031054Y-126032776D01*
X146045470Y-126016870D01*
X146061376Y-126002454D01*
X146078619Y-125989666D01*
X146097032Y-125978630D01*
X146116438Y-125969451D01*
X146136650Y-125962219D01*
X146157474Y-125957003D01*
X146178709Y-125953853D01*
X146200150Y-125952800D01*
X146712650Y-125952800D01*
X146734091Y-125953853D01*
G37*
G36*
X146734091Y-127528853D02*
G01*
X146755326Y-127532003D01*
X146776150Y-127537219D01*
X146796362Y-127544451D01*
X146815768Y-127553630D01*
X146834181Y-127564666D01*
X146851424Y-127577454D01*
X146867330Y-127591870D01*
X146881746Y-127607776D01*
X146894534Y-127625019D01*
X146905570Y-127643432D01*
X146914749Y-127662838D01*
X146921981Y-127683050D01*
X146927197Y-127703874D01*
X146930347Y-127725109D01*
X146931400Y-127746550D01*
X146931400Y-128184050D01*
X146930347Y-128205491D01*
X146927197Y-128226726D01*
X146921981Y-128247550D01*
X146914749Y-128267762D01*
X146905570Y-128287168D01*
X146894534Y-128305581D01*
X146881746Y-128322824D01*
X146867330Y-128338730D01*
X146851424Y-128353146D01*
X146834181Y-128365934D01*
X146815768Y-128376970D01*
X146796362Y-128386149D01*
X146776150Y-128393381D01*
X146755326Y-128398597D01*
X146734091Y-128401747D01*
X146712650Y-128402800D01*
X146200150Y-128402800D01*
X146178709Y-128401747D01*
X146157474Y-128398597D01*
X146136650Y-128393381D01*
X146116438Y-128386149D01*
X146097032Y-128376970D01*
X146078619Y-128365934D01*
X146061376Y-128353146D01*
X146045470Y-128338730D01*
X146031054Y-128322824D01*
X146018266Y-128305581D01*
X146007230Y-128287168D01*
X145998051Y-128267762D01*
X145990819Y-128247550D01*
X145985603Y-128226726D01*
X145982453Y-128205491D01*
X145981400Y-128184050D01*
X145981400Y-127746550D01*
X145982453Y-127725109D01*
X145985603Y-127703874D01*
X145990819Y-127683050D01*
X145998051Y-127662838D01*
X146007230Y-127643432D01*
X146018266Y-127625019D01*
X146031054Y-127607776D01*
X146045470Y-127591870D01*
X146061376Y-127577454D01*
X146078619Y-127564666D01*
X146097032Y-127553630D01*
X146116438Y-127544451D01*
X146136650Y-127537219D01*
X146157474Y-127532003D01*
X146178709Y-127528853D01*
X146200150Y-127527800D01*
X146712650Y-127527800D01*
X146734091Y-127528853D01*
G37*
G36*
X139291891Y-124963253D02*
G01*
X139313126Y-124966403D01*
X139333950Y-124971619D01*
X139354162Y-124978851D01*
X139373568Y-124988030D01*
X139391981Y-124999066D01*
X139409224Y-125011854D01*
X139425130Y-125026270D01*
X139439546Y-125042176D01*
X139452334Y-125059419D01*
X139463370Y-125077832D01*
X139472549Y-125097238D01*
X139479781Y-125117450D01*
X139484997Y-125138274D01*
X139488147Y-125159509D01*
X139489200Y-125180950D01*
X139489200Y-125618450D01*
X139488147Y-125639891D01*
X139484997Y-125661126D01*
X139479781Y-125681950D01*
X139472549Y-125702162D01*
X139463370Y-125721568D01*
X139452334Y-125739981D01*
X139439546Y-125757224D01*
X139425130Y-125773130D01*
X139409224Y-125787546D01*
X139391981Y-125800334D01*
X139373568Y-125811370D01*
X139354162Y-125820549D01*
X139333950Y-125827781D01*
X139313126Y-125832997D01*
X139291891Y-125836147D01*
X139270450Y-125837200D01*
X138757950Y-125837200D01*
X138736509Y-125836147D01*
X138715274Y-125832997D01*
X138694450Y-125827781D01*
X138674238Y-125820549D01*
X138654832Y-125811370D01*
X138636419Y-125800334D01*
X138619176Y-125787546D01*
X138603270Y-125773130D01*
X138588854Y-125757224D01*
X138576066Y-125739981D01*
X138565030Y-125721568D01*
X138555851Y-125702162D01*
X138548619Y-125681950D01*
X138543403Y-125661126D01*
X138540253Y-125639891D01*
X138539200Y-125618450D01*
X138539200Y-125180950D01*
X138540253Y-125159509D01*
X138543403Y-125138274D01*
X138548619Y-125117450D01*
X138555851Y-125097238D01*
X138565030Y-125077832D01*
X138576066Y-125059419D01*
X138588854Y-125042176D01*
X138603270Y-125026270D01*
X138619176Y-125011854D01*
X138636419Y-124999066D01*
X138654832Y-124988030D01*
X138674238Y-124978851D01*
X138694450Y-124971619D01*
X138715274Y-124966403D01*
X138736509Y-124963253D01*
X138757950Y-124962200D01*
X139270450Y-124962200D01*
X139291891Y-124963253D01*
G37*
G36*
X139291891Y-126538253D02*
G01*
X139313126Y-126541403D01*
X139333950Y-126546619D01*
X139354162Y-126553851D01*
X139373568Y-126563030D01*
X139391981Y-126574066D01*
X139409224Y-126586854D01*
X139425130Y-126601270D01*
X139439546Y-126617176D01*
X139452334Y-126634419D01*
X139463370Y-126652832D01*
X139472549Y-126672238D01*
X139479781Y-126692450D01*
X139484997Y-126713274D01*
X139488147Y-126734509D01*
X139489200Y-126755950D01*
X139489200Y-127193450D01*
X139488147Y-127214891D01*
X139484997Y-127236126D01*
X139479781Y-127256950D01*
X139472549Y-127277162D01*
X139463370Y-127296568D01*
X139452334Y-127314981D01*
X139439546Y-127332224D01*
X139425130Y-127348130D01*
X139409224Y-127362546D01*
X139391981Y-127375334D01*
X139373568Y-127386370D01*
X139354162Y-127395549D01*
X139333950Y-127402781D01*
X139313126Y-127407997D01*
X139291891Y-127411147D01*
X139270450Y-127412200D01*
X138757950Y-127412200D01*
X138736509Y-127411147D01*
X138715274Y-127407997D01*
X138694450Y-127402781D01*
X138674238Y-127395549D01*
X138654832Y-127386370D01*
X138636419Y-127375334D01*
X138619176Y-127362546D01*
X138603270Y-127348130D01*
X138588854Y-127332224D01*
X138576066Y-127314981D01*
X138565030Y-127296568D01*
X138555851Y-127277162D01*
X138548619Y-127256950D01*
X138543403Y-127236126D01*
X138540253Y-127214891D01*
X138539200Y-127193450D01*
X138539200Y-126755950D01*
X138540253Y-126734509D01*
X138543403Y-126713274D01*
X138548619Y-126692450D01*
X138555851Y-126672238D01*
X138565030Y-126652832D01*
X138576066Y-126634419D01*
X138588854Y-126617176D01*
X138603270Y-126601270D01*
X138619176Y-126586854D01*
X138636419Y-126574066D01*
X138654832Y-126563030D01*
X138674238Y-126553851D01*
X138694450Y-126546619D01*
X138715274Y-126541403D01*
X138736509Y-126538253D01*
X138757950Y-126537200D01*
X139270450Y-126537200D01*
X139291891Y-126538253D01*
G37*
G36*
X131062291Y-124429853D02*
G01*
X131083526Y-124433003D01*
X131104350Y-124438219D01*
X131124562Y-124445451D01*
X131143968Y-124454630D01*
X131162381Y-124465666D01*
X131179624Y-124478454D01*
X131195530Y-124492870D01*
X131209946Y-124508776D01*
X131222734Y-124526019D01*
X131233770Y-124544432D01*
X131242949Y-124563838D01*
X131250181Y-124584050D01*
X131255397Y-124604874D01*
X131258547Y-124626109D01*
X131259600Y-124647550D01*
X131259600Y-125085050D01*
X131258547Y-125106491D01*
X131255397Y-125127726D01*
X131250181Y-125148550D01*
X131242949Y-125168762D01*
X131233770Y-125188168D01*
X131222734Y-125206581D01*
X131209946Y-125223824D01*
X131195530Y-125239730D01*
X131179624Y-125254146D01*
X131162381Y-125266934D01*
X131143968Y-125277970D01*
X131124562Y-125287149D01*
X131104350Y-125294381D01*
X131083526Y-125299597D01*
X131062291Y-125302747D01*
X131040850Y-125303800D01*
X130528350Y-125303800D01*
X130506909Y-125302747D01*
X130485674Y-125299597D01*
X130464850Y-125294381D01*
X130444638Y-125287149D01*
X130425232Y-125277970D01*
X130406819Y-125266934D01*
X130389576Y-125254146D01*
X130373670Y-125239730D01*
X130359254Y-125223824D01*
X130346466Y-125206581D01*
X130335430Y-125188168D01*
X130326251Y-125168762D01*
X130319019Y-125148550D01*
X130313803Y-125127726D01*
X130310653Y-125106491D01*
X130309600Y-125085050D01*
X130309600Y-124647550D01*
X130310653Y-124626109D01*
X130313803Y-124604874D01*
X130319019Y-124584050D01*
X130326251Y-124563838D01*
X130335430Y-124544432D01*
X130346466Y-124526019D01*
X130359254Y-124508776D01*
X130373670Y-124492870D01*
X130389576Y-124478454D01*
X130406819Y-124465666D01*
X130425232Y-124454630D01*
X130444638Y-124445451D01*
X130464850Y-124438219D01*
X130485674Y-124433003D01*
X130506909Y-124429853D01*
X130528350Y-124428800D01*
X131040850Y-124428800D01*
X131062291Y-124429853D01*
G37*
G36*
X131062291Y-126004853D02*
G01*
X131083526Y-126008003D01*
X131104350Y-126013219D01*
X131124562Y-126020451D01*
X131143968Y-126029630D01*
X131162381Y-126040666D01*
X131179624Y-126053454D01*
X131195530Y-126067870D01*
X131209946Y-126083776D01*
X131222734Y-126101019D01*
X131233770Y-126119432D01*
X131242949Y-126138838D01*
X131250181Y-126159050D01*
X131255397Y-126179874D01*
X131258547Y-126201109D01*
X131259600Y-126222550D01*
X131259600Y-126660050D01*
X131258547Y-126681491D01*
X131255397Y-126702726D01*
X131250181Y-126723550D01*
X131242949Y-126743762D01*
X131233770Y-126763168D01*
X131222734Y-126781581D01*
X131209946Y-126798824D01*
X131195530Y-126814730D01*
X131179624Y-126829146D01*
X131162381Y-126841934D01*
X131143968Y-126852970D01*
X131124562Y-126862149D01*
X131104350Y-126869381D01*
X131083526Y-126874597D01*
X131062291Y-126877747D01*
X131040850Y-126878800D01*
X130528350Y-126878800D01*
X130506909Y-126877747D01*
X130485674Y-126874597D01*
X130464850Y-126869381D01*
X130444638Y-126862149D01*
X130425232Y-126852970D01*
X130406819Y-126841934D01*
X130389576Y-126829146D01*
X130373670Y-126814730D01*
X130359254Y-126798824D01*
X130346466Y-126781581D01*
X130335430Y-126763168D01*
X130326251Y-126743762D01*
X130319019Y-126723550D01*
X130313803Y-126702726D01*
X130310653Y-126681491D01*
X130309600Y-126660050D01*
X130309600Y-126222550D01*
X130310653Y-126201109D01*
X130313803Y-126179874D01*
X130319019Y-126159050D01*
X130326251Y-126138838D01*
X130335430Y-126119432D01*
X130346466Y-126101019D01*
X130359254Y-126083776D01*
X130373670Y-126067870D01*
X130389576Y-126053454D01*
X130406819Y-126040666D01*
X130425232Y-126029630D01*
X130444638Y-126020451D01*
X130464850Y-126013219D01*
X130485674Y-126008003D01*
X130506909Y-126004853D01*
X130528350Y-126003800D01*
X131040850Y-126003800D01*
X131062291Y-126004853D01*
G37*
G36*
X151737891Y-80208653D02*
G01*
X151759126Y-80211803D01*
X151779950Y-80217019D01*
X151800162Y-80224251D01*
X151819568Y-80233430D01*
X151837981Y-80244466D01*
X151855224Y-80257254D01*
X151871130Y-80271670D01*
X151885546Y-80287576D01*
X151898334Y-80304819D01*
X151909370Y-80323232D01*
X151918549Y-80342638D01*
X151925781Y-80362850D01*
X151930997Y-80383674D01*
X151934147Y-80404909D01*
X151935200Y-80426350D01*
X151935200Y-80863850D01*
X151934147Y-80885291D01*
X151930997Y-80906526D01*
X151925781Y-80927350D01*
X151918549Y-80947562D01*
X151909370Y-80966968D01*
X151898334Y-80985381D01*
X151885546Y-81002624D01*
X151871130Y-81018530D01*
X151855224Y-81032946D01*
X151837981Y-81045734D01*
X151819568Y-81056770D01*
X151800162Y-81065949D01*
X151779950Y-81073181D01*
X151759126Y-81078397D01*
X151737891Y-81081547D01*
X151716450Y-81082600D01*
X151203950Y-81082600D01*
X151182509Y-81081547D01*
X151161274Y-81078397D01*
X151140450Y-81073181D01*
X151120238Y-81065949D01*
X151100832Y-81056770D01*
X151082419Y-81045734D01*
X151065176Y-81032946D01*
X151049270Y-81018530D01*
X151034854Y-81002624D01*
X151022066Y-80985381D01*
X151011030Y-80966968D01*
X151001851Y-80947562D01*
X150994619Y-80927350D01*
X150989403Y-80906526D01*
X150986253Y-80885291D01*
X150985200Y-80863850D01*
X150985200Y-80426350D01*
X150986253Y-80404909D01*
X150989403Y-80383674D01*
X150994619Y-80362850D01*
X151001851Y-80342638D01*
X151011030Y-80323232D01*
X151022066Y-80304819D01*
X151034854Y-80287576D01*
X151049270Y-80271670D01*
X151065176Y-80257254D01*
X151082419Y-80244466D01*
X151100832Y-80233430D01*
X151120238Y-80224251D01*
X151140450Y-80217019D01*
X151161274Y-80211803D01*
X151182509Y-80208653D01*
X151203950Y-80207600D01*
X151716450Y-80207600D01*
X151737891Y-80208653D01*
G37*
G36*
X151737891Y-78633653D02*
G01*
X151759126Y-78636803D01*
X151779950Y-78642019D01*
X151800162Y-78649251D01*
X151819568Y-78658430D01*
X151837981Y-78669466D01*
X151855224Y-78682254D01*
X151871130Y-78696670D01*
X151885546Y-78712576D01*
X151898334Y-78729819D01*
X151909370Y-78748232D01*
X151918549Y-78767638D01*
X151925781Y-78787850D01*
X151930997Y-78808674D01*
X151934147Y-78829909D01*
X151935200Y-78851350D01*
X151935200Y-79288850D01*
X151934147Y-79310291D01*
X151930997Y-79331526D01*
X151925781Y-79352350D01*
X151918549Y-79372562D01*
X151909370Y-79391968D01*
X151898334Y-79410381D01*
X151885546Y-79427624D01*
X151871130Y-79443530D01*
X151855224Y-79457946D01*
X151837981Y-79470734D01*
X151819568Y-79481770D01*
X151800162Y-79490949D01*
X151779950Y-79498181D01*
X151759126Y-79503397D01*
X151737891Y-79506547D01*
X151716450Y-79507600D01*
X151203950Y-79507600D01*
X151182509Y-79506547D01*
X151161274Y-79503397D01*
X151140450Y-79498181D01*
X151120238Y-79490949D01*
X151100832Y-79481770D01*
X151082419Y-79470734D01*
X151065176Y-79457946D01*
X151049270Y-79443530D01*
X151034854Y-79427624D01*
X151022066Y-79410381D01*
X151011030Y-79391968D01*
X151001851Y-79372562D01*
X150994619Y-79352350D01*
X150989403Y-79331526D01*
X150986253Y-79310291D01*
X150985200Y-79288850D01*
X150985200Y-78851350D01*
X150986253Y-78829909D01*
X150989403Y-78808674D01*
X150994619Y-78787850D01*
X151001851Y-78767638D01*
X151011030Y-78748232D01*
X151022066Y-78729819D01*
X151034854Y-78712576D01*
X151049270Y-78696670D01*
X151065176Y-78682254D01*
X151082419Y-78669466D01*
X151100832Y-78658430D01*
X151120238Y-78649251D01*
X151140450Y-78642019D01*
X151161274Y-78636803D01*
X151182509Y-78633653D01*
X151203950Y-78632600D01*
X151716450Y-78632600D01*
X151737891Y-78633653D01*
G37*
G36*
X144448091Y-80208653D02*
G01*
X144469326Y-80211803D01*
X144490150Y-80217019D01*
X144510362Y-80224251D01*
X144529768Y-80233430D01*
X144548181Y-80244466D01*
X144565424Y-80257254D01*
X144581330Y-80271670D01*
X144595746Y-80287576D01*
X144608534Y-80304819D01*
X144619570Y-80323232D01*
X144628749Y-80342638D01*
X144635981Y-80362850D01*
X144641197Y-80383674D01*
X144644347Y-80404909D01*
X144645400Y-80426350D01*
X144645400Y-80863850D01*
X144644347Y-80885291D01*
X144641197Y-80906526D01*
X144635981Y-80927350D01*
X144628749Y-80947562D01*
X144619570Y-80966968D01*
X144608534Y-80985381D01*
X144595746Y-81002624D01*
X144581330Y-81018530D01*
X144565424Y-81032946D01*
X144548181Y-81045734D01*
X144529768Y-81056770D01*
X144510362Y-81065949D01*
X144490150Y-81073181D01*
X144469326Y-81078397D01*
X144448091Y-81081547D01*
X144426650Y-81082600D01*
X143914150Y-81082600D01*
X143892709Y-81081547D01*
X143871474Y-81078397D01*
X143850650Y-81073181D01*
X143830438Y-81065949D01*
X143811032Y-81056770D01*
X143792619Y-81045734D01*
X143775376Y-81032946D01*
X143759470Y-81018530D01*
X143745054Y-81002624D01*
X143732266Y-80985381D01*
X143721230Y-80966968D01*
X143712051Y-80947562D01*
X143704819Y-80927350D01*
X143699603Y-80906526D01*
X143696453Y-80885291D01*
X143695400Y-80863850D01*
X143695400Y-80426350D01*
X143696453Y-80404909D01*
X143699603Y-80383674D01*
X143704819Y-80362850D01*
X143712051Y-80342638D01*
X143721230Y-80323232D01*
X143732266Y-80304819D01*
X143745054Y-80287576D01*
X143759470Y-80271670D01*
X143775376Y-80257254D01*
X143792619Y-80244466D01*
X143811032Y-80233430D01*
X143830438Y-80224251D01*
X143850650Y-80217019D01*
X143871474Y-80211803D01*
X143892709Y-80208653D01*
X143914150Y-80207600D01*
X144426650Y-80207600D01*
X144448091Y-80208653D01*
G37*
G36*
X144448091Y-78633653D02*
G01*
X144469326Y-78636803D01*
X144490150Y-78642019D01*
X144510362Y-78649251D01*
X144529768Y-78658430D01*
X144548181Y-78669466D01*
X144565424Y-78682254D01*
X144581330Y-78696670D01*
X144595746Y-78712576D01*
X144608534Y-78729819D01*
X144619570Y-78748232D01*
X144628749Y-78767638D01*
X144635981Y-78787850D01*
X144641197Y-78808674D01*
X144644347Y-78829909D01*
X144645400Y-78851350D01*
X144645400Y-79288850D01*
X144644347Y-79310291D01*
X144641197Y-79331526D01*
X144635981Y-79352350D01*
X144628749Y-79372562D01*
X144619570Y-79391968D01*
X144608534Y-79410381D01*
X144595746Y-79427624D01*
X144581330Y-79443530D01*
X144565424Y-79457946D01*
X144548181Y-79470734D01*
X144529768Y-79481770D01*
X144510362Y-79490949D01*
X144490150Y-79498181D01*
X144469326Y-79503397D01*
X144448091Y-79506547D01*
X144426650Y-79507600D01*
X143914150Y-79507600D01*
X143892709Y-79506547D01*
X143871474Y-79503397D01*
X143850650Y-79498181D01*
X143830438Y-79490949D01*
X143811032Y-79481770D01*
X143792619Y-79470734D01*
X143775376Y-79457946D01*
X143759470Y-79443530D01*
X143745054Y-79427624D01*
X143732266Y-79410381D01*
X143721230Y-79391968D01*
X143712051Y-79372562D01*
X143704819Y-79352350D01*
X143699603Y-79331526D01*
X143696453Y-79310291D01*
X143695400Y-79288850D01*
X143695400Y-78851350D01*
X143696453Y-78829909D01*
X143699603Y-78808674D01*
X143704819Y-78787850D01*
X143712051Y-78767638D01*
X143721230Y-78748232D01*
X143732266Y-78729819D01*
X143745054Y-78712576D01*
X143759470Y-78696670D01*
X143775376Y-78682254D01*
X143792619Y-78669466D01*
X143811032Y-78658430D01*
X143830438Y-78649251D01*
X143850650Y-78642019D01*
X143871474Y-78636803D01*
X143892709Y-78633653D01*
X143914150Y-78632600D01*
X144426650Y-78632600D01*
X144448091Y-78633653D01*
G37*
G36*
X136599491Y-79903853D02*
G01*
X136620726Y-79907003D01*
X136641550Y-79912219D01*
X136661762Y-79919451D01*
X136681168Y-79928630D01*
X136699581Y-79939666D01*
X136716824Y-79952454D01*
X136732730Y-79966870D01*
X136747146Y-79982776D01*
X136759934Y-80000019D01*
X136770970Y-80018432D01*
X136780149Y-80037838D01*
X136787381Y-80058050D01*
X136792597Y-80078874D01*
X136795747Y-80100109D01*
X136796800Y-80121550D01*
X136796800Y-80559050D01*
X136795747Y-80580491D01*
X136792597Y-80601726D01*
X136787381Y-80622550D01*
X136780149Y-80642762D01*
X136770970Y-80662168D01*
X136759934Y-80680581D01*
X136747146Y-80697824D01*
X136732730Y-80713730D01*
X136716824Y-80728146D01*
X136699581Y-80740934D01*
X136681168Y-80751970D01*
X136661762Y-80761149D01*
X136641550Y-80768381D01*
X136620726Y-80773597D01*
X136599491Y-80776747D01*
X136578050Y-80777800D01*
X136065550Y-80777800D01*
X136044109Y-80776747D01*
X136022874Y-80773597D01*
X136002050Y-80768381D01*
X135981838Y-80761149D01*
X135962432Y-80751970D01*
X135944019Y-80740934D01*
X135926776Y-80728146D01*
X135910870Y-80713730D01*
X135896454Y-80697824D01*
X135883666Y-80680581D01*
X135872630Y-80662168D01*
X135863451Y-80642762D01*
X135856219Y-80622550D01*
X135851003Y-80601726D01*
X135847853Y-80580491D01*
X135846800Y-80559050D01*
X135846800Y-80121550D01*
X135847853Y-80100109D01*
X135851003Y-80078874D01*
X135856219Y-80058050D01*
X135863451Y-80037838D01*
X135872630Y-80018432D01*
X135883666Y-80000019D01*
X135896454Y-79982776D01*
X135910870Y-79966870D01*
X135926776Y-79952454D01*
X135944019Y-79939666D01*
X135962432Y-79928630D01*
X135981838Y-79919451D01*
X136002050Y-79912219D01*
X136022874Y-79907003D01*
X136044109Y-79903853D01*
X136065550Y-79902800D01*
X136578050Y-79902800D01*
X136599491Y-79903853D01*
G37*
G36*
X136599491Y-78328853D02*
G01*
X136620726Y-78332003D01*
X136641550Y-78337219D01*
X136661762Y-78344451D01*
X136681168Y-78353630D01*
X136699581Y-78364666D01*
X136716824Y-78377454D01*
X136732730Y-78391870D01*
X136747146Y-78407776D01*
X136759934Y-78425019D01*
X136770970Y-78443432D01*
X136780149Y-78462838D01*
X136787381Y-78483050D01*
X136792597Y-78503874D01*
X136795747Y-78525109D01*
X136796800Y-78546550D01*
X136796800Y-78984050D01*
X136795747Y-79005491D01*
X136792597Y-79026726D01*
X136787381Y-79047550D01*
X136780149Y-79067762D01*
X136770970Y-79087168D01*
X136759934Y-79105581D01*
X136747146Y-79122824D01*
X136732730Y-79138730D01*
X136716824Y-79153146D01*
X136699581Y-79165934D01*
X136681168Y-79176970D01*
X136661762Y-79186149D01*
X136641550Y-79193381D01*
X136620726Y-79198597D01*
X136599491Y-79201747D01*
X136578050Y-79202800D01*
X136065550Y-79202800D01*
X136044109Y-79201747D01*
X136022874Y-79198597D01*
X136002050Y-79193381D01*
X135981838Y-79186149D01*
X135962432Y-79176970D01*
X135944019Y-79165934D01*
X135926776Y-79153146D01*
X135910870Y-79138730D01*
X135896454Y-79122824D01*
X135883666Y-79105581D01*
X135872630Y-79087168D01*
X135863451Y-79067762D01*
X135856219Y-79047550D01*
X135851003Y-79026726D01*
X135847853Y-79005491D01*
X135846800Y-78984050D01*
X135846800Y-78546550D01*
X135847853Y-78525109D01*
X135851003Y-78503874D01*
X135856219Y-78483050D01*
X135863451Y-78462838D01*
X135872630Y-78443432D01*
X135883666Y-78425019D01*
X135896454Y-78407776D01*
X135910870Y-78391870D01*
X135926776Y-78377454D01*
X135944019Y-78364666D01*
X135962432Y-78353630D01*
X135981838Y-78344451D01*
X136002050Y-78337219D01*
X136022874Y-78332003D01*
X136044109Y-78328853D01*
X136065550Y-78327800D01*
X136578050Y-78327800D01*
X136599491Y-78328853D01*
G37*
G36*
X197915091Y-97633053D02*
G01*
X197936326Y-97636203D01*
X197957150Y-97641419D01*
X197977362Y-97648651D01*
X197996768Y-97657830D01*
X198015181Y-97668866D01*
X198032424Y-97681654D01*
X198048330Y-97696070D01*
X198062746Y-97711976D01*
X198075534Y-97729219D01*
X198086570Y-97747632D01*
X198095749Y-97767038D01*
X198102981Y-97787250D01*
X198108197Y-97808074D01*
X198111347Y-97829309D01*
X198112400Y-97850750D01*
X198112400Y-98288250D01*
X198111347Y-98309691D01*
X198108197Y-98330926D01*
X198102981Y-98351750D01*
X198095749Y-98371962D01*
X198086570Y-98391368D01*
X198075534Y-98409781D01*
X198062746Y-98427024D01*
X198048330Y-98442930D01*
X198032424Y-98457346D01*
X198015181Y-98470134D01*
X197996768Y-98481170D01*
X197977362Y-98490349D01*
X197957150Y-98497581D01*
X197936326Y-98502797D01*
X197915091Y-98505947D01*
X197893650Y-98507000D01*
X197381150Y-98507000D01*
X197359709Y-98505947D01*
X197338474Y-98502797D01*
X197317650Y-98497581D01*
X197297438Y-98490349D01*
X197278032Y-98481170D01*
X197259619Y-98470134D01*
X197242376Y-98457346D01*
X197226470Y-98442930D01*
X197212054Y-98427024D01*
X197199266Y-98409781D01*
X197188230Y-98391368D01*
X197179051Y-98371962D01*
X197171819Y-98351750D01*
X197166603Y-98330926D01*
X197163453Y-98309691D01*
X197162400Y-98288250D01*
X197162400Y-97850750D01*
X197163453Y-97829309D01*
X197166603Y-97808074D01*
X197171819Y-97787250D01*
X197179051Y-97767038D01*
X197188230Y-97747632D01*
X197199266Y-97729219D01*
X197212054Y-97711976D01*
X197226470Y-97696070D01*
X197242376Y-97681654D01*
X197259619Y-97668866D01*
X197278032Y-97657830D01*
X197297438Y-97648651D01*
X197317650Y-97641419D01*
X197338474Y-97636203D01*
X197359709Y-97633053D01*
X197381150Y-97632000D01*
X197893650Y-97632000D01*
X197915091Y-97633053D01*
G37*
G36*
X197915091Y-96058053D02*
G01*
X197936326Y-96061203D01*
X197957150Y-96066419D01*
X197977362Y-96073651D01*
X197996768Y-96082830D01*
X198015181Y-96093866D01*
X198032424Y-96106654D01*
X198048330Y-96121070D01*
X198062746Y-96136976D01*
X198075534Y-96154219D01*
X198086570Y-96172632D01*
X198095749Y-96192038D01*
X198102981Y-96212250D01*
X198108197Y-96233074D01*
X198111347Y-96254309D01*
X198112400Y-96275750D01*
X198112400Y-96713250D01*
X198111347Y-96734691D01*
X198108197Y-96755926D01*
X198102981Y-96776750D01*
X198095749Y-96796962D01*
X198086570Y-96816368D01*
X198075534Y-96834781D01*
X198062746Y-96852024D01*
X198048330Y-96867930D01*
X198032424Y-96882346D01*
X198015181Y-96895134D01*
X197996768Y-96906170D01*
X197977362Y-96915349D01*
X197957150Y-96922581D01*
X197936326Y-96927797D01*
X197915091Y-96930947D01*
X197893650Y-96932000D01*
X197381150Y-96932000D01*
X197359709Y-96930947D01*
X197338474Y-96927797D01*
X197317650Y-96922581D01*
X197297438Y-96915349D01*
X197278032Y-96906170D01*
X197259619Y-96895134D01*
X197242376Y-96882346D01*
X197226470Y-96867930D01*
X197212054Y-96852024D01*
X197199266Y-96834781D01*
X197188230Y-96816368D01*
X197179051Y-96796962D01*
X197171819Y-96776750D01*
X197166603Y-96755926D01*
X197163453Y-96734691D01*
X197162400Y-96713250D01*
X197162400Y-96275750D01*
X197163453Y-96254309D01*
X197166603Y-96233074D01*
X197171819Y-96212250D01*
X197179051Y-96192038D01*
X197188230Y-96172632D01*
X197199266Y-96154219D01*
X197212054Y-96136976D01*
X197226470Y-96121070D01*
X197242376Y-96106654D01*
X197259619Y-96093866D01*
X197278032Y-96082830D01*
X197297438Y-96073651D01*
X197317650Y-96066419D01*
X197338474Y-96061203D01*
X197359709Y-96058053D01*
X197381150Y-96057000D01*
X197893650Y-96057000D01*
X197915091Y-96058053D01*
G37*
G36*
X196328291Y-95512653D02*
G01*
X196349526Y-95515803D01*
X196370350Y-95521019D01*
X196390562Y-95528251D01*
X196409968Y-95537430D01*
X196428381Y-95548466D01*
X196445624Y-95561254D01*
X196461530Y-95575670D01*
X196475946Y-95591576D01*
X196488734Y-95608819D01*
X196499770Y-95627232D01*
X196508949Y-95646638D01*
X196516181Y-95666850D01*
X196521397Y-95687674D01*
X196524547Y-95708909D01*
X196525600Y-95730350D01*
X196525600Y-96242850D01*
X196524547Y-96264291D01*
X196521397Y-96285526D01*
X196516181Y-96306350D01*
X196508949Y-96326562D01*
X196499770Y-96345968D01*
X196488734Y-96364381D01*
X196475946Y-96381624D01*
X196461530Y-96397530D01*
X196445624Y-96411946D01*
X196428381Y-96424734D01*
X196409968Y-96435770D01*
X196390562Y-96444949D01*
X196370350Y-96452181D01*
X196349526Y-96457397D01*
X196328291Y-96460547D01*
X196306850Y-96461600D01*
X195869350Y-96461600D01*
X195847909Y-96460547D01*
X195826674Y-96457397D01*
X195805850Y-96452181D01*
X195785638Y-96444949D01*
X195766232Y-96435770D01*
X195747819Y-96424734D01*
X195730576Y-96411946D01*
X195714670Y-96397530D01*
X195700254Y-96381624D01*
X195687466Y-96364381D01*
X195676430Y-96345968D01*
X195667251Y-96326562D01*
X195660019Y-96306350D01*
X195654803Y-96285526D01*
X195651653Y-96264291D01*
X195650600Y-96242850D01*
X195650600Y-95730350D01*
X195651653Y-95708909D01*
X195654803Y-95687674D01*
X195660019Y-95666850D01*
X195667251Y-95646638D01*
X195676430Y-95627232D01*
X195687466Y-95608819D01*
X195700254Y-95591576D01*
X195714670Y-95575670D01*
X195730576Y-95561254D01*
X195747819Y-95548466D01*
X195766232Y-95537430D01*
X195785638Y-95528251D01*
X195805850Y-95521019D01*
X195826674Y-95515803D01*
X195847909Y-95512653D01*
X195869350Y-95511600D01*
X196306850Y-95511600D01*
X196328291Y-95512653D01*
G37*
G36*
X194753291Y-95512653D02*
G01*
X194774526Y-95515803D01*
X194795350Y-95521019D01*
X194815562Y-95528251D01*
X194834968Y-95537430D01*
X194853381Y-95548466D01*
X194870624Y-95561254D01*
X194886530Y-95575670D01*
X194900946Y-95591576D01*
X194913734Y-95608819D01*
X194924770Y-95627232D01*
X194933949Y-95646638D01*
X194941181Y-95666850D01*
X194946397Y-95687674D01*
X194949547Y-95708909D01*
X194950600Y-95730350D01*
X194950600Y-96242850D01*
X194949547Y-96264291D01*
X194946397Y-96285526D01*
X194941181Y-96306350D01*
X194933949Y-96326562D01*
X194924770Y-96345968D01*
X194913734Y-96364381D01*
X194900946Y-96381624D01*
X194886530Y-96397530D01*
X194870624Y-96411946D01*
X194853381Y-96424734D01*
X194834968Y-96435770D01*
X194815562Y-96444949D01*
X194795350Y-96452181D01*
X194774526Y-96457397D01*
X194753291Y-96460547D01*
X194731850Y-96461600D01*
X194294350Y-96461600D01*
X194272909Y-96460547D01*
X194251674Y-96457397D01*
X194230850Y-96452181D01*
X194210638Y-96444949D01*
X194191232Y-96435770D01*
X194172819Y-96424734D01*
X194155576Y-96411946D01*
X194139670Y-96397530D01*
X194125254Y-96381624D01*
X194112466Y-96364381D01*
X194101430Y-96345968D01*
X194092251Y-96326562D01*
X194085019Y-96306350D01*
X194079803Y-96285526D01*
X194076653Y-96264291D01*
X194075600Y-96242850D01*
X194075600Y-95730350D01*
X194076653Y-95708909D01*
X194079803Y-95687674D01*
X194085019Y-95666850D01*
X194092251Y-95646638D01*
X194101430Y-95627232D01*
X194112466Y-95608819D01*
X194125254Y-95591576D01*
X194139670Y-95575670D01*
X194155576Y-95561254D01*
X194172819Y-95548466D01*
X194191232Y-95537430D01*
X194210638Y-95528251D01*
X194230850Y-95521019D01*
X194251674Y-95515803D01*
X194272909Y-95512653D01*
X194294350Y-95511600D01*
X194731850Y-95511600D01*
X194753291Y-95512653D01*
G37*
G36*
X199489891Y-92629253D02*
G01*
X199511126Y-92632403D01*
X199531950Y-92637619D01*
X199552162Y-92644851D01*
X199571568Y-92654030D01*
X199589981Y-92665066D01*
X199607224Y-92677854D01*
X199623130Y-92692270D01*
X199637546Y-92708176D01*
X199650334Y-92725419D01*
X199661370Y-92743832D01*
X199670549Y-92763238D01*
X199677781Y-92783450D01*
X199682997Y-92804274D01*
X199686147Y-92825509D01*
X199687200Y-92846950D01*
X199687200Y-93284450D01*
X199686147Y-93305891D01*
X199682997Y-93327126D01*
X199677781Y-93347950D01*
X199670549Y-93368162D01*
X199661370Y-93387568D01*
X199650334Y-93405981D01*
X199637546Y-93423224D01*
X199623130Y-93439130D01*
X199607224Y-93453546D01*
X199589981Y-93466334D01*
X199571568Y-93477370D01*
X199552162Y-93486549D01*
X199531950Y-93493781D01*
X199511126Y-93498997D01*
X199489891Y-93502147D01*
X199468450Y-93503200D01*
X198955950Y-93503200D01*
X198934509Y-93502147D01*
X198913274Y-93498997D01*
X198892450Y-93493781D01*
X198872238Y-93486549D01*
X198852832Y-93477370D01*
X198834419Y-93466334D01*
X198817176Y-93453546D01*
X198801270Y-93439130D01*
X198786854Y-93423224D01*
X198774066Y-93405981D01*
X198763030Y-93387568D01*
X198753851Y-93368162D01*
X198746619Y-93347950D01*
X198741403Y-93327126D01*
X198738253Y-93305891D01*
X198737200Y-93284450D01*
X198737200Y-92846950D01*
X198738253Y-92825509D01*
X198741403Y-92804274D01*
X198746619Y-92783450D01*
X198753851Y-92763238D01*
X198763030Y-92743832D01*
X198774066Y-92725419D01*
X198786854Y-92708176D01*
X198801270Y-92692270D01*
X198817176Y-92677854D01*
X198834419Y-92665066D01*
X198852832Y-92654030D01*
X198872238Y-92644851D01*
X198892450Y-92637619D01*
X198913274Y-92632403D01*
X198934509Y-92629253D01*
X198955950Y-92628200D01*
X199468450Y-92628200D01*
X199489891Y-92629253D01*
G37*
G36*
X199489891Y-91054253D02*
G01*
X199511126Y-91057403D01*
X199531950Y-91062619D01*
X199552162Y-91069851D01*
X199571568Y-91079030D01*
X199589981Y-91090066D01*
X199607224Y-91102854D01*
X199623130Y-91117270D01*
X199637546Y-91133176D01*
X199650334Y-91150419D01*
X199661370Y-91168832D01*
X199670549Y-91188238D01*
X199677781Y-91208450D01*
X199682997Y-91229274D01*
X199686147Y-91250509D01*
X199687200Y-91271950D01*
X199687200Y-91709450D01*
X199686147Y-91730891D01*
X199682997Y-91752126D01*
X199677781Y-91772950D01*
X199670549Y-91793162D01*
X199661370Y-91812568D01*
X199650334Y-91830981D01*
X199637546Y-91848224D01*
X199623130Y-91864130D01*
X199607224Y-91878546D01*
X199589981Y-91891334D01*
X199571568Y-91902370D01*
X199552162Y-91911549D01*
X199531950Y-91918781D01*
X199511126Y-91923997D01*
X199489891Y-91927147D01*
X199468450Y-91928200D01*
X198955950Y-91928200D01*
X198934509Y-91927147D01*
X198913274Y-91923997D01*
X198892450Y-91918781D01*
X198872238Y-91911549D01*
X198852832Y-91902370D01*
X198834419Y-91891334D01*
X198817176Y-91878546D01*
X198801270Y-91864130D01*
X198786854Y-91848224D01*
X198774066Y-91830981D01*
X198763030Y-91812568D01*
X198753851Y-91793162D01*
X198746619Y-91772950D01*
X198741403Y-91752126D01*
X198738253Y-91730891D01*
X198737200Y-91709450D01*
X198737200Y-91271950D01*
X198738253Y-91250509D01*
X198741403Y-91229274D01*
X198746619Y-91208450D01*
X198753851Y-91188238D01*
X198763030Y-91168832D01*
X198774066Y-91150419D01*
X198786854Y-91133176D01*
X198801270Y-91117270D01*
X198817176Y-91102854D01*
X198834419Y-91090066D01*
X198852832Y-91079030D01*
X198872238Y-91069851D01*
X198892450Y-91062619D01*
X198913274Y-91057403D01*
X198934509Y-91054253D01*
X198955950Y-91053200D01*
X199468450Y-91053200D01*
X199489891Y-91054253D01*
G37*
G36*
X191299091Y-89365853D02*
G01*
X191320326Y-89369003D01*
X191341150Y-89374219D01*
X191361362Y-89381451D01*
X191380768Y-89390630D01*
X191399181Y-89401666D01*
X191416424Y-89414454D01*
X191432330Y-89428870D01*
X191446746Y-89444776D01*
X191459534Y-89462019D01*
X191470570Y-89480432D01*
X191479749Y-89499838D01*
X191486981Y-89520050D01*
X191492197Y-89540874D01*
X191495347Y-89562109D01*
X191496400Y-89583550D01*
X191496400Y-90096050D01*
X191495347Y-90117491D01*
X191492197Y-90138726D01*
X191486981Y-90159550D01*
X191479749Y-90179762D01*
X191470570Y-90199168D01*
X191459534Y-90217581D01*
X191446746Y-90234824D01*
X191432330Y-90250730D01*
X191416424Y-90265146D01*
X191399181Y-90277934D01*
X191380768Y-90288970D01*
X191361362Y-90298149D01*
X191341150Y-90305381D01*
X191320326Y-90310597D01*
X191299091Y-90313747D01*
X191277650Y-90314800D01*
X190840150Y-90314800D01*
X190818709Y-90313747D01*
X190797474Y-90310597D01*
X190776650Y-90305381D01*
X190756438Y-90298149D01*
X190737032Y-90288970D01*
X190718619Y-90277934D01*
X190701376Y-90265146D01*
X190685470Y-90250730D01*
X190671054Y-90234824D01*
X190658266Y-90217581D01*
X190647230Y-90199168D01*
X190638051Y-90179762D01*
X190630819Y-90159550D01*
X190625603Y-90138726D01*
X190622453Y-90117491D01*
X190621400Y-90096050D01*
X190621400Y-89583550D01*
X190622453Y-89562109D01*
X190625603Y-89540874D01*
X190630819Y-89520050D01*
X190638051Y-89499838D01*
X190647230Y-89480432D01*
X190658266Y-89462019D01*
X190671054Y-89444776D01*
X190685470Y-89428870D01*
X190701376Y-89414454D01*
X190718619Y-89401666D01*
X190737032Y-89390630D01*
X190756438Y-89381451D01*
X190776650Y-89374219D01*
X190797474Y-89369003D01*
X190818709Y-89365853D01*
X190840150Y-89364800D01*
X191277650Y-89364800D01*
X191299091Y-89365853D01*
G37*
G36*
X189724091Y-89365853D02*
G01*
X189745326Y-89369003D01*
X189766150Y-89374219D01*
X189786362Y-89381451D01*
X189805768Y-89390630D01*
X189824181Y-89401666D01*
X189841424Y-89414454D01*
X189857330Y-89428870D01*
X189871746Y-89444776D01*
X189884534Y-89462019D01*
X189895570Y-89480432D01*
X189904749Y-89499838D01*
X189911981Y-89520050D01*
X189917197Y-89540874D01*
X189920347Y-89562109D01*
X189921400Y-89583550D01*
X189921400Y-90096050D01*
X189920347Y-90117491D01*
X189917197Y-90138726D01*
X189911981Y-90159550D01*
X189904749Y-90179762D01*
X189895570Y-90199168D01*
X189884534Y-90217581D01*
X189871746Y-90234824D01*
X189857330Y-90250730D01*
X189841424Y-90265146D01*
X189824181Y-90277934D01*
X189805768Y-90288970D01*
X189786362Y-90298149D01*
X189766150Y-90305381D01*
X189745326Y-90310597D01*
X189724091Y-90313747D01*
X189702650Y-90314800D01*
X189265150Y-90314800D01*
X189243709Y-90313747D01*
X189222474Y-90310597D01*
X189201650Y-90305381D01*
X189181438Y-90298149D01*
X189162032Y-90288970D01*
X189143619Y-90277934D01*
X189126376Y-90265146D01*
X189110470Y-90250730D01*
X189096054Y-90234824D01*
X189083266Y-90217581D01*
X189072230Y-90199168D01*
X189063051Y-90179762D01*
X189055819Y-90159550D01*
X189050603Y-90138726D01*
X189047453Y-90117491D01*
X189046400Y-90096050D01*
X189046400Y-89583550D01*
X189047453Y-89562109D01*
X189050603Y-89540874D01*
X189055819Y-89520050D01*
X189063051Y-89499838D01*
X189072230Y-89480432D01*
X189083266Y-89462019D01*
X189096054Y-89444776D01*
X189110470Y-89428870D01*
X189126376Y-89414454D01*
X189143619Y-89401666D01*
X189162032Y-89390630D01*
X189181438Y-89381451D01*
X189201650Y-89374219D01*
X189222474Y-89369003D01*
X189243709Y-89365853D01*
X189265150Y-89364800D01*
X189702650Y-89364800D01*
X189724091Y-89365853D01*
G37*
D12*
X193183000Y-88976200D03*
X195183000Y-89926200D03*
X195183000Y-88026200D03*
D11*
X190728600Y-91557600D03*
X189778600Y-93557600D03*
X191678600Y-93557600D03*
D10*
G36*
X185926291Y-93086453D02*
G01*
X185947526Y-93089603D01*
X185968350Y-93094819D01*
X185988562Y-93102051D01*
X186007968Y-93111230D01*
X186026381Y-93122266D01*
X186043624Y-93135054D01*
X186059530Y-93149470D01*
X186073946Y-93165376D01*
X186086734Y-93182619D01*
X186097770Y-93201032D01*
X186106949Y-93220438D01*
X186114181Y-93240650D01*
X186119397Y-93261474D01*
X186122547Y-93282709D01*
X186123600Y-93304150D01*
X186123600Y-93741650D01*
X186122547Y-93763091D01*
X186119397Y-93784326D01*
X186114181Y-93805150D01*
X186106949Y-93825362D01*
X186097770Y-93844768D01*
X186086734Y-93863181D01*
X186073946Y-93880424D01*
X186059530Y-93896330D01*
X186043624Y-93910746D01*
X186026381Y-93923534D01*
X186007968Y-93934570D01*
X185988562Y-93943749D01*
X185968350Y-93950981D01*
X185947526Y-93956197D01*
X185926291Y-93959347D01*
X185904850Y-93960400D01*
X185392350Y-93960400D01*
X185370909Y-93959347D01*
X185349674Y-93956197D01*
X185328850Y-93950981D01*
X185308638Y-93943749D01*
X185289232Y-93934570D01*
X185270819Y-93923534D01*
X185253576Y-93910746D01*
X185237670Y-93896330D01*
X185223254Y-93880424D01*
X185210466Y-93863181D01*
X185199430Y-93844768D01*
X185190251Y-93825362D01*
X185183019Y-93805150D01*
X185177803Y-93784326D01*
X185174653Y-93763091D01*
X185173600Y-93741650D01*
X185173600Y-93304150D01*
X185174653Y-93282709D01*
X185177803Y-93261474D01*
X185183019Y-93240650D01*
X185190251Y-93220438D01*
X185199430Y-93201032D01*
X185210466Y-93182619D01*
X185223254Y-93165376D01*
X185237670Y-93149470D01*
X185253576Y-93135054D01*
X185270819Y-93122266D01*
X185289232Y-93111230D01*
X185308638Y-93102051D01*
X185328850Y-93094819D01*
X185349674Y-93089603D01*
X185370909Y-93086453D01*
X185392350Y-93085400D01*
X185904850Y-93085400D01*
X185926291Y-93086453D01*
G37*
G36*
X185926291Y-91511453D02*
G01*
X185947526Y-91514603D01*
X185968350Y-91519819D01*
X185988562Y-91527051D01*
X186007968Y-91536230D01*
X186026381Y-91547266D01*
X186043624Y-91560054D01*
X186059530Y-91574470D01*
X186073946Y-91590376D01*
X186086734Y-91607619D01*
X186097770Y-91626032D01*
X186106949Y-91645438D01*
X186114181Y-91665650D01*
X186119397Y-91686474D01*
X186122547Y-91707709D01*
X186123600Y-91729150D01*
X186123600Y-92166650D01*
X186122547Y-92188091D01*
X186119397Y-92209326D01*
X186114181Y-92230150D01*
X186106949Y-92250362D01*
X186097770Y-92269768D01*
X186086734Y-92288181D01*
X186073946Y-92305424D01*
X186059530Y-92321330D01*
X186043624Y-92335746D01*
X186026381Y-92348534D01*
X186007968Y-92359570D01*
X185988562Y-92368749D01*
X185968350Y-92375981D01*
X185947526Y-92381197D01*
X185926291Y-92384347D01*
X185904850Y-92385400D01*
X185392350Y-92385400D01*
X185370909Y-92384347D01*
X185349674Y-92381197D01*
X185328850Y-92375981D01*
X185308638Y-92368749D01*
X185289232Y-92359570D01*
X185270819Y-92348534D01*
X185253576Y-92335746D01*
X185237670Y-92321330D01*
X185223254Y-92305424D01*
X185210466Y-92288181D01*
X185199430Y-92269768D01*
X185190251Y-92250362D01*
X185183019Y-92230150D01*
X185177803Y-92209326D01*
X185174653Y-92188091D01*
X185173600Y-92166650D01*
X185173600Y-91729150D01*
X185174653Y-91707709D01*
X185177803Y-91686474D01*
X185183019Y-91665650D01*
X185190251Y-91645438D01*
X185199430Y-91626032D01*
X185210466Y-91607619D01*
X185223254Y-91590376D01*
X185237670Y-91574470D01*
X185253576Y-91560054D01*
X185270819Y-91547266D01*
X185289232Y-91536230D01*
X185308638Y-91527051D01*
X185328850Y-91519819D01*
X185349674Y-91514603D01*
X185370909Y-91511453D01*
X185392350Y-91510400D01*
X185904850Y-91510400D01*
X185926291Y-91511453D01*
G37*
G36*
X194587691Y-109088453D02*
G01*
X194608926Y-109091603D01*
X194629750Y-109096819D01*
X194649962Y-109104051D01*
X194669368Y-109113230D01*
X194687781Y-109124266D01*
X194705024Y-109137054D01*
X194720930Y-109151470D01*
X194735346Y-109167376D01*
X194748134Y-109184619D01*
X194759170Y-109203032D01*
X194768349Y-109222438D01*
X194775581Y-109242650D01*
X194780797Y-109263474D01*
X194783947Y-109284709D01*
X194785000Y-109306150D01*
X194785000Y-109743650D01*
X194783947Y-109765091D01*
X194780797Y-109786326D01*
X194775581Y-109807150D01*
X194768349Y-109827362D01*
X194759170Y-109846768D01*
X194748134Y-109865181D01*
X194735346Y-109882424D01*
X194720930Y-109898330D01*
X194705024Y-109912746D01*
X194687781Y-109925534D01*
X194669368Y-109936570D01*
X194649962Y-109945749D01*
X194629750Y-109952981D01*
X194608926Y-109958197D01*
X194587691Y-109961347D01*
X194566250Y-109962400D01*
X194053750Y-109962400D01*
X194032309Y-109961347D01*
X194011074Y-109958197D01*
X193990250Y-109952981D01*
X193970038Y-109945749D01*
X193950632Y-109936570D01*
X193932219Y-109925534D01*
X193914976Y-109912746D01*
X193899070Y-109898330D01*
X193884654Y-109882424D01*
X193871866Y-109865181D01*
X193860830Y-109846768D01*
X193851651Y-109827362D01*
X193844419Y-109807150D01*
X193839203Y-109786326D01*
X193836053Y-109765091D01*
X193835000Y-109743650D01*
X193835000Y-109306150D01*
X193836053Y-109284709D01*
X193839203Y-109263474D01*
X193844419Y-109242650D01*
X193851651Y-109222438D01*
X193860830Y-109203032D01*
X193871866Y-109184619D01*
X193884654Y-109167376D01*
X193899070Y-109151470D01*
X193914976Y-109137054D01*
X193932219Y-109124266D01*
X193950632Y-109113230D01*
X193970038Y-109104051D01*
X193990250Y-109096819D01*
X194011074Y-109091603D01*
X194032309Y-109088453D01*
X194053750Y-109087400D01*
X194566250Y-109087400D01*
X194587691Y-109088453D01*
G37*
G36*
X194587691Y-107513453D02*
G01*
X194608926Y-107516603D01*
X194629750Y-107521819D01*
X194649962Y-107529051D01*
X194669368Y-107538230D01*
X194687781Y-107549266D01*
X194705024Y-107562054D01*
X194720930Y-107576470D01*
X194735346Y-107592376D01*
X194748134Y-107609619D01*
X194759170Y-107628032D01*
X194768349Y-107647438D01*
X194775581Y-107667650D01*
X194780797Y-107688474D01*
X194783947Y-107709709D01*
X194785000Y-107731150D01*
X194785000Y-108168650D01*
X194783947Y-108190091D01*
X194780797Y-108211326D01*
X194775581Y-108232150D01*
X194768349Y-108252362D01*
X194759170Y-108271768D01*
X194748134Y-108290181D01*
X194735346Y-108307424D01*
X194720930Y-108323330D01*
X194705024Y-108337746D01*
X194687781Y-108350534D01*
X194669368Y-108361570D01*
X194649962Y-108370749D01*
X194629750Y-108377981D01*
X194608926Y-108383197D01*
X194587691Y-108386347D01*
X194566250Y-108387400D01*
X194053750Y-108387400D01*
X194032309Y-108386347D01*
X194011074Y-108383197D01*
X193990250Y-108377981D01*
X193970038Y-108370749D01*
X193950632Y-108361570D01*
X193932219Y-108350534D01*
X193914976Y-108337746D01*
X193899070Y-108323330D01*
X193884654Y-108307424D01*
X193871866Y-108290181D01*
X193860830Y-108271768D01*
X193851651Y-108252362D01*
X193844419Y-108232150D01*
X193839203Y-108211326D01*
X193836053Y-108190091D01*
X193835000Y-108168650D01*
X193835000Y-107731150D01*
X193836053Y-107709709D01*
X193839203Y-107688474D01*
X193844419Y-107667650D01*
X193851651Y-107647438D01*
X193860830Y-107628032D01*
X193871866Y-107609619D01*
X193884654Y-107592376D01*
X193899070Y-107576470D01*
X193914976Y-107562054D01*
X193932219Y-107549266D01*
X193950632Y-107538230D01*
X193970038Y-107529051D01*
X193990250Y-107521819D01*
X194011074Y-107516603D01*
X194032309Y-107513453D01*
X194053750Y-107512400D01*
X194566250Y-107512400D01*
X194587691Y-107513453D01*
G37*
G36*
X124864691Y-97658453D02*
G01*
X124885926Y-97661603D01*
X124906750Y-97666819D01*
X124926962Y-97674051D01*
X124946368Y-97683230D01*
X124964781Y-97694266D01*
X124982024Y-97707054D01*
X124997930Y-97721470D01*
X125012346Y-97737376D01*
X125025134Y-97754619D01*
X125036170Y-97773032D01*
X125045349Y-97792438D01*
X125052581Y-97812650D01*
X125057797Y-97833474D01*
X125060947Y-97854709D01*
X125062000Y-97876150D01*
X125062000Y-98313650D01*
X125060947Y-98335091D01*
X125057797Y-98356326D01*
X125052581Y-98377150D01*
X125045349Y-98397362D01*
X125036170Y-98416768D01*
X125025134Y-98435181D01*
X125012346Y-98452424D01*
X124997930Y-98468330D01*
X124982024Y-98482746D01*
X124964781Y-98495534D01*
X124946368Y-98506570D01*
X124926962Y-98515749D01*
X124906750Y-98522981D01*
X124885926Y-98528197D01*
X124864691Y-98531347D01*
X124843250Y-98532400D01*
X124330750Y-98532400D01*
X124309309Y-98531347D01*
X124288074Y-98528197D01*
X124267250Y-98522981D01*
X124247038Y-98515749D01*
X124227632Y-98506570D01*
X124209219Y-98495534D01*
X124191976Y-98482746D01*
X124176070Y-98468330D01*
X124161654Y-98452424D01*
X124148866Y-98435181D01*
X124137830Y-98416768D01*
X124128651Y-98397362D01*
X124121419Y-98377150D01*
X124116203Y-98356326D01*
X124113053Y-98335091D01*
X124112000Y-98313650D01*
X124112000Y-97876150D01*
X124113053Y-97854709D01*
X124116203Y-97833474D01*
X124121419Y-97812650D01*
X124128651Y-97792438D01*
X124137830Y-97773032D01*
X124148866Y-97754619D01*
X124161654Y-97737376D01*
X124176070Y-97721470D01*
X124191976Y-97707054D01*
X124209219Y-97694266D01*
X124227632Y-97683230D01*
X124247038Y-97674051D01*
X124267250Y-97666819D01*
X124288074Y-97661603D01*
X124309309Y-97658453D01*
X124330750Y-97657400D01*
X124843250Y-97657400D01*
X124864691Y-97658453D01*
G37*
G36*
X124864691Y-96083453D02*
G01*
X124885926Y-96086603D01*
X124906750Y-96091819D01*
X124926962Y-96099051D01*
X124946368Y-96108230D01*
X124964781Y-96119266D01*
X124982024Y-96132054D01*
X124997930Y-96146470D01*
X125012346Y-96162376D01*
X125025134Y-96179619D01*
X125036170Y-96198032D01*
X125045349Y-96217438D01*
X125052581Y-96237650D01*
X125057797Y-96258474D01*
X125060947Y-96279709D01*
X125062000Y-96301150D01*
X125062000Y-96738650D01*
X125060947Y-96760091D01*
X125057797Y-96781326D01*
X125052581Y-96802150D01*
X125045349Y-96822362D01*
X125036170Y-96841768D01*
X125025134Y-96860181D01*
X125012346Y-96877424D01*
X124997930Y-96893330D01*
X124982024Y-96907746D01*
X124964781Y-96920534D01*
X124946368Y-96931570D01*
X124926962Y-96940749D01*
X124906750Y-96947981D01*
X124885926Y-96953197D01*
X124864691Y-96956347D01*
X124843250Y-96957400D01*
X124330750Y-96957400D01*
X124309309Y-96956347D01*
X124288074Y-96953197D01*
X124267250Y-96947981D01*
X124247038Y-96940749D01*
X124227632Y-96931570D01*
X124209219Y-96920534D01*
X124191976Y-96907746D01*
X124176070Y-96893330D01*
X124161654Y-96877424D01*
X124148866Y-96860181D01*
X124137830Y-96841768D01*
X124128651Y-96822362D01*
X124121419Y-96802150D01*
X124116203Y-96781326D01*
X124113053Y-96760091D01*
X124112000Y-96738650D01*
X124112000Y-96301150D01*
X124113053Y-96279709D01*
X124116203Y-96258474D01*
X124121419Y-96237650D01*
X124128651Y-96217438D01*
X124137830Y-96198032D01*
X124148866Y-96179619D01*
X124161654Y-96162376D01*
X124176070Y-96146470D01*
X124191976Y-96132054D01*
X124209219Y-96119266D01*
X124227632Y-96108230D01*
X124247038Y-96099051D01*
X124267250Y-96091819D01*
X124288074Y-96086603D01*
X124309309Y-96083453D01*
X124330750Y-96082400D01*
X124843250Y-96082400D01*
X124864691Y-96083453D01*
G37*
D12*
X120894600Y-97764600D03*
X122894600Y-98714600D03*
X122894600Y-96814600D03*
D10*
G36*
X132865691Y-106116653D02*
G01*
X132886926Y-106119803D01*
X132907750Y-106125019D01*
X132927962Y-106132251D01*
X132947368Y-106141430D01*
X132965781Y-106152466D01*
X132983024Y-106165254D01*
X132998930Y-106179670D01*
X133013346Y-106195576D01*
X133026134Y-106212819D01*
X133037170Y-106231232D01*
X133046349Y-106250638D01*
X133053581Y-106270850D01*
X133058797Y-106291674D01*
X133061947Y-106312909D01*
X133063000Y-106334350D01*
X133063000Y-106771850D01*
X133061947Y-106793291D01*
X133058797Y-106814526D01*
X133053581Y-106835350D01*
X133046349Y-106855562D01*
X133037170Y-106874968D01*
X133026134Y-106893381D01*
X133013346Y-106910624D01*
X132998930Y-106926530D01*
X132983024Y-106940946D01*
X132965781Y-106953734D01*
X132947368Y-106964770D01*
X132927962Y-106973949D01*
X132907750Y-106981181D01*
X132886926Y-106986397D01*
X132865691Y-106989547D01*
X132844250Y-106990600D01*
X132331750Y-106990600D01*
X132310309Y-106989547D01*
X132289074Y-106986397D01*
X132268250Y-106981181D01*
X132248038Y-106973949D01*
X132228632Y-106964770D01*
X132210219Y-106953734D01*
X132192976Y-106940946D01*
X132177070Y-106926530D01*
X132162654Y-106910624D01*
X132149866Y-106893381D01*
X132138830Y-106874968D01*
X132129651Y-106855562D01*
X132122419Y-106835350D01*
X132117203Y-106814526D01*
X132114053Y-106793291D01*
X132113000Y-106771850D01*
X132113000Y-106334350D01*
X132114053Y-106312909D01*
X132117203Y-106291674D01*
X132122419Y-106270850D01*
X132129651Y-106250638D01*
X132138830Y-106231232D01*
X132149866Y-106212819D01*
X132162654Y-106195576D01*
X132177070Y-106179670D01*
X132192976Y-106165254D01*
X132210219Y-106152466D01*
X132228632Y-106141430D01*
X132248038Y-106132251D01*
X132268250Y-106125019D01*
X132289074Y-106119803D01*
X132310309Y-106116653D01*
X132331750Y-106115600D01*
X132844250Y-106115600D01*
X132865691Y-106116653D01*
G37*
G36*
X132865691Y-104541653D02*
G01*
X132886926Y-104544803D01*
X132907750Y-104550019D01*
X132927962Y-104557251D01*
X132947368Y-104566430D01*
X132965781Y-104577466D01*
X132983024Y-104590254D01*
X132998930Y-104604670D01*
X133013346Y-104620576D01*
X133026134Y-104637819D01*
X133037170Y-104656232D01*
X133046349Y-104675638D01*
X133053581Y-104695850D01*
X133058797Y-104716674D01*
X133061947Y-104737909D01*
X133063000Y-104759350D01*
X133063000Y-105196850D01*
X133061947Y-105218291D01*
X133058797Y-105239526D01*
X133053581Y-105260350D01*
X133046349Y-105280562D01*
X133037170Y-105299968D01*
X133026134Y-105318381D01*
X133013346Y-105335624D01*
X132998930Y-105351530D01*
X132983024Y-105365946D01*
X132965781Y-105378734D01*
X132947368Y-105389770D01*
X132927962Y-105398949D01*
X132907750Y-105406181D01*
X132886926Y-105411397D01*
X132865691Y-105414547D01*
X132844250Y-105415600D01*
X132331750Y-105415600D01*
X132310309Y-105414547D01*
X132289074Y-105411397D01*
X132268250Y-105406181D01*
X132248038Y-105398949D01*
X132228632Y-105389770D01*
X132210219Y-105378734D01*
X132192976Y-105365946D01*
X132177070Y-105351530D01*
X132162654Y-105335624D01*
X132149866Y-105318381D01*
X132138830Y-105299968D01*
X132129651Y-105280562D01*
X132122419Y-105260350D01*
X132117203Y-105239526D01*
X132114053Y-105218291D01*
X132113000Y-105196850D01*
X132113000Y-104759350D01*
X132114053Y-104737909D01*
X132117203Y-104716674D01*
X132122419Y-104695850D01*
X132129651Y-104675638D01*
X132138830Y-104656232D01*
X132149866Y-104637819D01*
X132162654Y-104620576D01*
X132177070Y-104604670D01*
X132192976Y-104590254D01*
X132210219Y-104577466D01*
X132228632Y-104566430D01*
X132248038Y-104557251D01*
X132268250Y-104550019D01*
X132289074Y-104544803D01*
X132310309Y-104541653D01*
X132331750Y-104540600D01*
X132844250Y-104540600D01*
X132865691Y-104541653D01*
G37*
G36*
X127150691Y-95194453D02*
G01*
X127171926Y-95197603D01*
X127192750Y-95202819D01*
X127212962Y-95210051D01*
X127232368Y-95219230D01*
X127250781Y-95230266D01*
X127268024Y-95243054D01*
X127283930Y-95257470D01*
X127298346Y-95273376D01*
X127311134Y-95290619D01*
X127322170Y-95309032D01*
X127331349Y-95328438D01*
X127338581Y-95348650D01*
X127343797Y-95369474D01*
X127346947Y-95390709D01*
X127348000Y-95412150D01*
X127348000Y-95849650D01*
X127346947Y-95871091D01*
X127343797Y-95892326D01*
X127338581Y-95913150D01*
X127331349Y-95933362D01*
X127322170Y-95952768D01*
X127311134Y-95971181D01*
X127298346Y-95988424D01*
X127283930Y-96004330D01*
X127268024Y-96018746D01*
X127250781Y-96031534D01*
X127232368Y-96042570D01*
X127212962Y-96051749D01*
X127192750Y-96058981D01*
X127171926Y-96064197D01*
X127150691Y-96067347D01*
X127129250Y-96068400D01*
X126616750Y-96068400D01*
X126595309Y-96067347D01*
X126574074Y-96064197D01*
X126553250Y-96058981D01*
X126533038Y-96051749D01*
X126513632Y-96042570D01*
X126495219Y-96031534D01*
X126477976Y-96018746D01*
X126462070Y-96004330D01*
X126447654Y-95988424D01*
X126434866Y-95971181D01*
X126423830Y-95952768D01*
X126414651Y-95933362D01*
X126407419Y-95913150D01*
X126402203Y-95892326D01*
X126399053Y-95871091D01*
X126398000Y-95849650D01*
X126398000Y-95412150D01*
X126399053Y-95390709D01*
X126402203Y-95369474D01*
X126407419Y-95348650D01*
X126414651Y-95328438D01*
X126423830Y-95309032D01*
X126434866Y-95290619D01*
X126447654Y-95273376D01*
X126462070Y-95257470D01*
X126477976Y-95243054D01*
X126495219Y-95230266D01*
X126513632Y-95219230D01*
X126533038Y-95210051D01*
X126553250Y-95202819D01*
X126574074Y-95197603D01*
X126595309Y-95194453D01*
X126616750Y-95193400D01*
X127129250Y-95193400D01*
X127150691Y-95194453D01*
G37*
G36*
X127150691Y-96769453D02*
G01*
X127171926Y-96772603D01*
X127192750Y-96777819D01*
X127212962Y-96785051D01*
X127232368Y-96794230D01*
X127250781Y-96805266D01*
X127268024Y-96818054D01*
X127283930Y-96832470D01*
X127298346Y-96848376D01*
X127311134Y-96865619D01*
X127322170Y-96884032D01*
X127331349Y-96903438D01*
X127338581Y-96923650D01*
X127343797Y-96944474D01*
X127346947Y-96965709D01*
X127348000Y-96987150D01*
X127348000Y-97424650D01*
X127346947Y-97446091D01*
X127343797Y-97467326D01*
X127338581Y-97488150D01*
X127331349Y-97508362D01*
X127322170Y-97527768D01*
X127311134Y-97546181D01*
X127298346Y-97563424D01*
X127283930Y-97579330D01*
X127268024Y-97593746D01*
X127250781Y-97606534D01*
X127232368Y-97617570D01*
X127212962Y-97626749D01*
X127192750Y-97633981D01*
X127171926Y-97639197D01*
X127150691Y-97642347D01*
X127129250Y-97643400D01*
X126616750Y-97643400D01*
X126595309Y-97642347D01*
X126574074Y-97639197D01*
X126553250Y-97633981D01*
X126533038Y-97626749D01*
X126513632Y-97617570D01*
X126495219Y-97606534D01*
X126477976Y-97593746D01*
X126462070Y-97579330D01*
X126447654Y-97563424D01*
X126434866Y-97546181D01*
X126423830Y-97527768D01*
X126414651Y-97508362D01*
X126407419Y-97488150D01*
X126402203Y-97467326D01*
X126399053Y-97446091D01*
X126398000Y-97424650D01*
X126398000Y-96987150D01*
X126399053Y-96965709D01*
X126402203Y-96944474D01*
X126407419Y-96923650D01*
X126414651Y-96903438D01*
X126423830Y-96884032D01*
X126434866Y-96865619D01*
X126447654Y-96848376D01*
X126462070Y-96832470D01*
X126477976Y-96818054D01*
X126495219Y-96805266D01*
X126513632Y-96794230D01*
X126533038Y-96785051D01*
X126553250Y-96777819D01*
X126574074Y-96772603D01*
X126595309Y-96769453D01*
X126616750Y-96768400D01*
X127129250Y-96768400D01*
X127150691Y-96769453D01*
G37*
G36*
X128586758Y-105471710D02*
G01*
X128601076Y-105473834D01*
X128615117Y-105477351D01*
X128628746Y-105482228D01*
X128641831Y-105488417D01*
X128654247Y-105495858D01*
X128665873Y-105504481D01*
X128676598Y-105514202D01*
X128686319Y-105524927D01*
X128694942Y-105536553D01*
X128702383Y-105548969D01*
X128708572Y-105562054D01*
X128713449Y-105575683D01*
X128716966Y-105589724D01*
X128719090Y-105604042D01*
X128719800Y-105618500D01*
X128719800Y-105963500D01*
X128719090Y-105977958D01*
X128716966Y-105992276D01*
X128713449Y-106006317D01*
X128708572Y-106019946D01*
X128702383Y-106033031D01*
X128694942Y-106045447D01*
X128686319Y-106057073D01*
X128676598Y-106067798D01*
X128665873Y-106077519D01*
X128654247Y-106086142D01*
X128641831Y-106093583D01*
X128628746Y-106099772D01*
X128615117Y-106104649D01*
X128601076Y-106108166D01*
X128586758Y-106110290D01*
X128572300Y-106111000D01*
X128277300Y-106111000D01*
X128262842Y-106110290D01*
X128248524Y-106108166D01*
X128234483Y-106104649D01*
X128220854Y-106099772D01*
X128207769Y-106093583D01*
X128195353Y-106086142D01*
X128183727Y-106077519D01*
X128173002Y-106067798D01*
X128163281Y-106057073D01*
X128154658Y-106045447D01*
X128147217Y-106033031D01*
X128141028Y-106019946D01*
X128136151Y-106006317D01*
X128132634Y-105992276D01*
X128130510Y-105977958D01*
X128129800Y-105963500D01*
X128129800Y-105618500D01*
X128130510Y-105604042D01*
X128132634Y-105589724D01*
X128136151Y-105575683D01*
X128141028Y-105562054D01*
X128147217Y-105548969D01*
X128154658Y-105536553D01*
X128163281Y-105524927D01*
X128173002Y-105514202D01*
X128183727Y-105504481D01*
X128195353Y-105495858D01*
X128207769Y-105488417D01*
X128220854Y-105482228D01*
X128234483Y-105477351D01*
X128248524Y-105473834D01*
X128262842Y-105471710D01*
X128277300Y-105471000D01*
X128572300Y-105471000D01*
X128586758Y-105471710D01*
G37*
G36*
X127616758Y-105471710D02*
G01*
X127631076Y-105473834D01*
X127645117Y-105477351D01*
X127658746Y-105482228D01*
X127671831Y-105488417D01*
X127684247Y-105495858D01*
X127695873Y-105504481D01*
X127706598Y-105514202D01*
X127716319Y-105524927D01*
X127724942Y-105536553D01*
X127732383Y-105548969D01*
X127738572Y-105562054D01*
X127743449Y-105575683D01*
X127746966Y-105589724D01*
X127749090Y-105604042D01*
X127749800Y-105618500D01*
X127749800Y-105963500D01*
X127749090Y-105977958D01*
X127746966Y-105992276D01*
X127743449Y-106006317D01*
X127738572Y-106019946D01*
X127732383Y-106033031D01*
X127724942Y-106045447D01*
X127716319Y-106057073D01*
X127706598Y-106067798D01*
X127695873Y-106077519D01*
X127684247Y-106086142D01*
X127671831Y-106093583D01*
X127658746Y-106099772D01*
X127645117Y-106104649D01*
X127631076Y-106108166D01*
X127616758Y-106110290D01*
X127602300Y-106111000D01*
X127307300Y-106111000D01*
X127292842Y-106110290D01*
X127278524Y-106108166D01*
X127264483Y-106104649D01*
X127250854Y-106099772D01*
X127237769Y-106093583D01*
X127225353Y-106086142D01*
X127213727Y-106077519D01*
X127203002Y-106067798D01*
X127193281Y-106057073D01*
X127184658Y-106045447D01*
X127177217Y-106033031D01*
X127171028Y-106019946D01*
X127166151Y-106006317D01*
X127162634Y-105992276D01*
X127160510Y-105977958D01*
X127159800Y-105963500D01*
X127159800Y-105618500D01*
X127160510Y-105604042D01*
X127162634Y-105589724D01*
X127166151Y-105575683D01*
X127171028Y-105562054D01*
X127177217Y-105548969D01*
X127184658Y-105536553D01*
X127193281Y-105524927D01*
X127203002Y-105514202D01*
X127213727Y-105504481D01*
X127225353Y-105495858D01*
X127237769Y-105488417D01*
X127250854Y-105482228D01*
X127264483Y-105477351D01*
X127278524Y-105473834D01*
X127292842Y-105471710D01*
X127307300Y-105471000D01*
X127602300Y-105471000D01*
X127616758Y-105471710D01*
G37*
G36*
X130031758Y-106307110D02*
G01*
X130046076Y-106309234D01*
X130060117Y-106312751D01*
X130073746Y-106317628D01*
X130086831Y-106323817D01*
X130099247Y-106331258D01*
X130110873Y-106339881D01*
X130121598Y-106349602D01*
X130131319Y-106360327D01*
X130139942Y-106371953D01*
X130147383Y-106384369D01*
X130153572Y-106397454D01*
X130158449Y-106411083D01*
X130161966Y-106425124D01*
X130164090Y-106439442D01*
X130164800Y-106453900D01*
X130164800Y-106748900D01*
X130164090Y-106763358D01*
X130161966Y-106777676D01*
X130158449Y-106791717D01*
X130153572Y-106805346D01*
X130147383Y-106818431D01*
X130139942Y-106830847D01*
X130131319Y-106842473D01*
X130121598Y-106853198D01*
X130110873Y-106862919D01*
X130099247Y-106871542D01*
X130086831Y-106878983D01*
X130073746Y-106885172D01*
X130060117Y-106890049D01*
X130046076Y-106893566D01*
X130031758Y-106895690D01*
X130017300Y-106896400D01*
X129672300Y-106896400D01*
X129657842Y-106895690D01*
X129643524Y-106893566D01*
X129629483Y-106890049D01*
X129615854Y-106885172D01*
X129602769Y-106878983D01*
X129590353Y-106871542D01*
X129578727Y-106862919D01*
X129568002Y-106853198D01*
X129558281Y-106842473D01*
X129549658Y-106830847D01*
X129542217Y-106818431D01*
X129536028Y-106805346D01*
X129531151Y-106791717D01*
X129527634Y-106777676D01*
X129525510Y-106763358D01*
X129524800Y-106748900D01*
X129524800Y-106453900D01*
X129525510Y-106439442D01*
X129527634Y-106425124D01*
X129531151Y-106411083D01*
X129536028Y-106397454D01*
X129542217Y-106384369D01*
X129549658Y-106371953D01*
X129558281Y-106360327D01*
X129568002Y-106349602D01*
X129578727Y-106339881D01*
X129590353Y-106331258D01*
X129602769Y-106323817D01*
X129615854Y-106317628D01*
X129629483Y-106312751D01*
X129643524Y-106309234D01*
X129657842Y-106307110D01*
X129672300Y-106306400D01*
X130017300Y-106306400D01*
X130031758Y-106307110D01*
G37*
G36*
X130031758Y-107277110D02*
G01*
X130046076Y-107279234D01*
X130060117Y-107282751D01*
X130073746Y-107287628D01*
X130086831Y-107293817D01*
X130099247Y-107301258D01*
X130110873Y-107309881D01*
X130121598Y-107319602D01*
X130131319Y-107330327D01*
X130139942Y-107341953D01*
X130147383Y-107354369D01*
X130153572Y-107367454D01*
X130158449Y-107381083D01*
X130161966Y-107395124D01*
X130164090Y-107409442D01*
X130164800Y-107423900D01*
X130164800Y-107718900D01*
X130164090Y-107733358D01*
X130161966Y-107747676D01*
X130158449Y-107761717D01*
X130153572Y-107775346D01*
X130147383Y-107788431D01*
X130139942Y-107800847D01*
X130131319Y-107812473D01*
X130121598Y-107823198D01*
X130110873Y-107832919D01*
X130099247Y-107841542D01*
X130086831Y-107848983D01*
X130073746Y-107855172D01*
X130060117Y-107860049D01*
X130046076Y-107863566D01*
X130031758Y-107865690D01*
X130017300Y-107866400D01*
X129672300Y-107866400D01*
X129657842Y-107865690D01*
X129643524Y-107863566D01*
X129629483Y-107860049D01*
X129615854Y-107855172D01*
X129602769Y-107848983D01*
X129590353Y-107841542D01*
X129578727Y-107832919D01*
X129568002Y-107823198D01*
X129558281Y-107812473D01*
X129549658Y-107800847D01*
X129542217Y-107788431D01*
X129536028Y-107775346D01*
X129531151Y-107761717D01*
X129527634Y-107747676D01*
X129525510Y-107733358D01*
X129524800Y-107718900D01*
X129524800Y-107423900D01*
X129525510Y-107409442D01*
X129527634Y-107395124D01*
X129531151Y-107381083D01*
X129536028Y-107367454D01*
X129542217Y-107354369D01*
X129549658Y-107341953D01*
X129558281Y-107330327D01*
X129568002Y-107319602D01*
X129578727Y-107309881D01*
X129590353Y-107301258D01*
X129602769Y-107293817D01*
X129615854Y-107287628D01*
X129629483Y-107282751D01*
X129643524Y-107279234D01*
X129657842Y-107277110D01*
X129672300Y-107276400D01*
X130017300Y-107276400D01*
X130031758Y-107277110D01*
G37*
G36*
X131123958Y-106307110D02*
G01*
X131138276Y-106309234D01*
X131152317Y-106312751D01*
X131165946Y-106317628D01*
X131179031Y-106323817D01*
X131191447Y-106331258D01*
X131203073Y-106339881D01*
X131213798Y-106349602D01*
X131223519Y-106360327D01*
X131232142Y-106371953D01*
X131239583Y-106384369D01*
X131245772Y-106397454D01*
X131250649Y-106411083D01*
X131254166Y-106425124D01*
X131256290Y-106439442D01*
X131257000Y-106453900D01*
X131257000Y-106748900D01*
X131256290Y-106763358D01*
X131254166Y-106777676D01*
X131250649Y-106791717D01*
X131245772Y-106805346D01*
X131239583Y-106818431D01*
X131232142Y-106830847D01*
X131223519Y-106842473D01*
X131213798Y-106853198D01*
X131203073Y-106862919D01*
X131191447Y-106871542D01*
X131179031Y-106878983D01*
X131165946Y-106885172D01*
X131152317Y-106890049D01*
X131138276Y-106893566D01*
X131123958Y-106895690D01*
X131109500Y-106896400D01*
X130764500Y-106896400D01*
X130750042Y-106895690D01*
X130735724Y-106893566D01*
X130721683Y-106890049D01*
X130708054Y-106885172D01*
X130694969Y-106878983D01*
X130682553Y-106871542D01*
X130670927Y-106862919D01*
X130660202Y-106853198D01*
X130650481Y-106842473D01*
X130641858Y-106830847D01*
X130634417Y-106818431D01*
X130628228Y-106805346D01*
X130623351Y-106791717D01*
X130619834Y-106777676D01*
X130617710Y-106763358D01*
X130617000Y-106748900D01*
X130617000Y-106453900D01*
X130617710Y-106439442D01*
X130619834Y-106425124D01*
X130623351Y-106411083D01*
X130628228Y-106397454D01*
X130634417Y-106384369D01*
X130641858Y-106371953D01*
X130650481Y-106360327D01*
X130660202Y-106349602D01*
X130670927Y-106339881D01*
X130682553Y-106331258D01*
X130694969Y-106323817D01*
X130708054Y-106317628D01*
X130721683Y-106312751D01*
X130735724Y-106309234D01*
X130750042Y-106307110D01*
X130764500Y-106306400D01*
X131109500Y-106306400D01*
X131123958Y-106307110D01*
G37*
G36*
X131123958Y-107277110D02*
G01*
X131138276Y-107279234D01*
X131152317Y-107282751D01*
X131165946Y-107287628D01*
X131179031Y-107293817D01*
X131191447Y-107301258D01*
X131203073Y-107309881D01*
X131213798Y-107319602D01*
X131223519Y-107330327D01*
X131232142Y-107341953D01*
X131239583Y-107354369D01*
X131245772Y-107367454D01*
X131250649Y-107381083D01*
X131254166Y-107395124D01*
X131256290Y-107409442D01*
X131257000Y-107423900D01*
X131257000Y-107718900D01*
X131256290Y-107733358D01*
X131254166Y-107747676D01*
X131250649Y-107761717D01*
X131245772Y-107775346D01*
X131239583Y-107788431D01*
X131232142Y-107800847D01*
X131223519Y-107812473D01*
X131213798Y-107823198D01*
X131203073Y-107832919D01*
X131191447Y-107841542D01*
X131179031Y-107848983D01*
X131165946Y-107855172D01*
X131152317Y-107860049D01*
X131138276Y-107863566D01*
X131123958Y-107865690D01*
X131109500Y-107866400D01*
X130764500Y-107866400D01*
X130750042Y-107865690D01*
X130735724Y-107863566D01*
X130721683Y-107860049D01*
X130708054Y-107855172D01*
X130694969Y-107848983D01*
X130682553Y-107841542D01*
X130670927Y-107832919D01*
X130660202Y-107823198D01*
X130650481Y-107812473D01*
X130641858Y-107800847D01*
X130634417Y-107788431D01*
X130628228Y-107775346D01*
X130623351Y-107761717D01*
X130619834Y-107747676D01*
X130617710Y-107733358D01*
X130617000Y-107718900D01*
X130617000Y-107423900D01*
X130617710Y-107409442D01*
X130619834Y-107395124D01*
X130623351Y-107381083D01*
X130628228Y-107367454D01*
X130634417Y-107354369D01*
X130641858Y-107341953D01*
X130650481Y-107330327D01*
X130660202Y-107319602D01*
X130670927Y-107309881D01*
X130682553Y-107301258D01*
X130694969Y-107293817D01*
X130708054Y-107287628D01*
X130721683Y-107282751D01*
X130735724Y-107279234D01*
X130750042Y-107277110D01*
X130764500Y-107276400D01*
X131109500Y-107276400D01*
X131123958Y-107277110D01*
G37*
G36*
X129701558Y-96431310D02*
G01*
X129715876Y-96433434D01*
X129729917Y-96436951D01*
X129743546Y-96441828D01*
X129756631Y-96448017D01*
X129769047Y-96455458D01*
X129780673Y-96464081D01*
X129791398Y-96473802D01*
X129801119Y-96484527D01*
X129809742Y-96496153D01*
X129817183Y-96508569D01*
X129823372Y-96521654D01*
X129828249Y-96535283D01*
X129831766Y-96549324D01*
X129833890Y-96563642D01*
X129834600Y-96578100D01*
X129834600Y-96873100D01*
X129833890Y-96887558D01*
X129831766Y-96901876D01*
X129828249Y-96915917D01*
X129823372Y-96929546D01*
X129817183Y-96942631D01*
X129809742Y-96955047D01*
X129801119Y-96966673D01*
X129791398Y-96977398D01*
X129780673Y-96987119D01*
X129769047Y-96995742D01*
X129756631Y-97003183D01*
X129743546Y-97009372D01*
X129729917Y-97014249D01*
X129715876Y-97017766D01*
X129701558Y-97019890D01*
X129687100Y-97020600D01*
X129342100Y-97020600D01*
X129327642Y-97019890D01*
X129313324Y-97017766D01*
X129299283Y-97014249D01*
X129285654Y-97009372D01*
X129272569Y-97003183D01*
X129260153Y-96995742D01*
X129248527Y-96987119D01*
X129237802Y-96977398D01*
X129228081Y-96966673D01*
X129219458Y-96955047D01*
X129212017Y-96942631D01*
X129205828Y-96929546D01*
X129200951Y-96915917D01*
X129197434Y-96901876D01*
X129195310Y-96887558D01*
X129194600Y-96873100D01*
X129194600Y-96578100D01*
X129195310Y-96563642D01*
X129197434Y-96549324D01*
X129200951Y-96535283D01*
X129205828Y-96521654D01*
X129212017Y-96508569D01*
X129219458Y-96496153D01*
X129228081Y-96484527D01*
X129237802Y-96473802D01*
X129248527Y-96464081D01*
X129260153Y-96455458D01*
X129272569Y-96448017D01*
X129285654Y-96441828D01*
X129299283Y-96436951D01*
X129313324Y-96433434D01*
X129327642Y-96431310D01*
X129342100Y-96430600D01*
X129687100Y-96430600D01*
X129701558Y-96431310D01*
G37*
G36*
X129701558Y-95461310D02*
G01*
X129715876Y-95463434D01*
X129729917Y-95466951D01*
X129743546Y-95471828D01*
X129756631Y-95478017D01*
X129769047Y-95485458D01*
X129780673Y-95494081D01*
X129791398Y-95503802D01*
X129801119Y-95514527D01*
X129809742Y-95526153D01*
X129817183Y-95538569D01*
X129823372Y-95551654D01*
X129828249Y-95565283D01*
X129831766Y-95579324D01*
X129833890Y-95593642D01*
X129834600Y-95608100D01*
X129834600Y-95903100D01*
X129833890Y-95917558D01*
X129831766Y-95931876D01*
X129828249Y-95945917D01*
X129823372Y-95959546D01*
X129817183Y-95972631D01*
X129809742Y-95985047D01*
X129801119Y-95996673D01*
X129791398Y-96007398D01*
X129780673Y-96017119D01*
X129769047Y-96025742D01*
X129756631Y-96033183D01*
X129743546Y-96039372D01*
X129729917Y-96044249D01*
X129715876Y-96047766D01*
X129701558Y-96049890D01*
X129687100Y-96050600D01*
X129342100Y-96050600D01*
X129327642Y-96049890D01*
X129313324Y-96047766D01*
X129299283Y-96044249D01*
X129285654Y-96039372D01*
X129272569Y-96033183D01*
X129260153Y-96025742D01*
X129248527Y-96017119D01*
X129237802Y-96007398D01*
X129228081Y-95996673D01*
X129219458Y-95985047D01*
X129212017Y-95972631D01*
X129205828Y-95959546D01*
X129200951Y-95945917D01*
X129197434Y-95931876D01*
X129195310Y-95917558D01*
X129194600Y-95903100D01*
X129194600Y-95608100D01*
X129195310Y-95593642D01*
X129197434Y-95579324D01*
X129200951Y-95565283D01*
X129205828Y-95551654D01*
X129212017Y-95538569D01*
X129219458Y-95526153D01*
X129228081Y-95514527D01*
X129237802Y-95503802D01*
X129248527Y-95494081D01*
X129260153Y-95485458D01*
X129272569Y-95478017D01*
X129285654Y-95471828D01*
X129299283Y-95466951D01*
X129313324Y-95463434D01*
X129327642Y-95461310D01*
X129342100Y-95460600D01*
X129687100Y-95460600D01*
X129701558Y-95461310D01*
G37*
G36*
X130793758Y-96456710D02*
G01*
X130808076Y-96458834D01*
X130822117Y-96462351D01*
X130835746Y-96467228D01*
X130848831Y-96473417D01*
X130861247Y-96480858D01*
X130872873Y-96489481D01*
X130883598Y-96499202D01*
X130893319Y-96509927D01*
X130901942Y-96521553D01*
X130909383Y-96533969D01*
X130915572Y-96547054D01*
X130920449Y-96560683D01*
X130923966Y-96574724D01*
X130926090Y-96589042D01*
X130926800Y-96603500D01*
X130926800Y-96898500D01*
X130926090Y-96912958D01*
X130923966Y-96927276D01*
X130920449Y-96941317D01*
X130915572Y-96954946D01*
X130909383Y-96968031D01*
X130901942Y-96980447D01*
X130893319Y-96992073D01*
X130883598Y-97002798D01*
X130872873Y-97012519D01*
X130861247Y-97021142D01*
X130848831Y-97028583D01*
X130835746Y-97034772D01*
X130822117Y-97039649D01*
X130808076Y-97043166D01*
X130793758Y-97045290D01*
X130779300Y-97046000D01*
X130434300Y-97046000D01*
X130419842Y-97045290D01*
X130405524Y-97043166D01*
X130391483Y-97039649D01*
X130377854Y-97034772D01*
X130364769Y-97028583D01*
X130352353Y-97021142D01*
X130340727Y-97012519D01*
X130330002Y-97002798D01*
X130320281Y-96992073D01*
X130311658Y-96980447D01*
X130304217Y-96968031D01*
X130298028Y-96954946D01*
X130293151Y-96941317D01*
X130289634Y-96927276D01*
X130287510Y-96912958D01*
X130286800Y-96898500D01*
X130286800Y-96603500D01*
X130287510Y-96589042D01*
X130289634Y-96574724D01*
X130293151Y-96560683D01*
X130298028Y-96547054D01*
X130304217Y-96533969D01*
X130311658Y-96521553D01*
X130320281Y-96509927D01*
X130330002Y-96499202D01*
X130340727Y-96489481D01*
X130352353Y-96480858D01*
X130364769Y-96473417D01*
X130377854Y-96467228D01*
X130391483Y-96462351D01*
X130405524Y-96458834D01*
X130419842Y-96456710D01*
X130434300Y-96456000D01*
X130779300Y-96456000D01*
X130793758Y-96456710D01*
G37*
G36*
X130793758Y-95486710D02*
G01*
X130808076Y-95488834D01*
X130822117Y-95492351D01*
X130835746Y-95497228D01*
X130848831Y-95503417D01*
X130861247Y-95510858D01*
X130872873Y-95519481D01*
X130883598Y-95529202D01*
X130893319Y-95539927D01*
X130901942Y-95551553D01*
X130909383Y-95563969D01*
X130915572Y-95577054D01*
X130920449Y-95590683D01*
X130923966Y-95604724D01*
X130926090Y-95619042D01*
X130926800Y-95633500D01*
X130926800Y-95928500D01*
X130926090Y-95942958D01*
X130923966Y-95957276D01*
X130920449Y-95971317D01*
X130915572Y-95984946D01*
X130909383Y-95998031D01*
X130901942Y-96010447D01*
X130893319Y-96022073D01*
X130883598Y-96032798D01*
X130872873Y-96042519D01*
X130861247Y-96051142D01*
X130848831Y-96058583D01*
X130835746Y-96064772D01*
X130822117Y-96069649D01*
X130808076Y-96073166D01*
X130793758Y-96075290D01*
X130779300Y-96076000D01*
X130434300Y-96076000D01*
X130419842Y-96075290D01*
X130405524Y-96073166D01*
X130391483Y-96069649D01*
X130377854Y-96064772D01*
X130364769Y-96058583D01*
X130352353Y-96051142D01*
X130340727Y-96042519D01*
X130330002Y-96032798D01*
X130320281Y-96022073D01*
X130311658Y-96010447D01*
X130304217Y-95998031D01*
X130298028Y-95984946D01*
X130293151Y-95971317D01*
X130289634Y-95957276D01*
X130287510Y-95942958D01*
X130286800Y-95928500D01*
X130286800Y-95633500D01*
X130287510Y-95619042D01*
X130289634Y-95604724D01*
X130293151Y-95590683D01*
X130298028Y-95577054D01*
X130304217Y-95563969D01*
X130311658Y-95551553D01*
X130320281Y-95539927D01*
X130330002Y-95529202D01*
X130340727Y-95519481D01*
X130352353Y-95510858D01*
X130364769Y-95503417D01*
X130377854Y-95497228D01*
X130391483Y-95492351D01*
X130405524Y-95488834D01*
X130419842Y-95486710D01*
X130434300Y-95486000D01*
X130779300Y-95486000D01*
X130793758Y-95486710D01*
G37*
G36*
X131987558Y-96482110D02*
G01*
X132001876Y-96484234D01*
X132015917Y-96487751D01*
X132029546Y-96492628D01*
X132042631Y-96498817D01*
X132055047Y-96506258D01*
X132066673Y-96514881D01*
X132077398Y-96524602D01*
X132087119Y-96535327D01*
X132095742Y-96546953D01*
X132103183Y-96559369D01*
X132109372Y-96572454D01*
X132114249Y-96586083D01*
X132117766Y-96600124D01*
X132119890Y-96614442D01*
X132120600Y-96628900D01*
X132120600Y-96923900D01*
X132119890Y-96938358D01*
X132117766Y-96952676D01*
X132114249Y-96966717D01*
X132109372Y-96980346D01*
X132103183Y-96993431D01*
X132095742Y-97005847D01*
X132087119Y-97017473D01*
X132077398Y-97028198D01*
X132066673Y-97037919D01*
X132055047Y-97046542D01*
X132042631Y-97053983D01*
X132029546Y-97060172D01*
X132015917Y-97065049D01*
X132001876Y-97068566D01*
X131987558Y-97070690D01*
X131973100Y-97071400D01*
X131628100Y-97071400D01*
X131613642Y-97070690D01*
X131599324Y-97068566D01*
X131585283Y-97065049D01*
X131571654Y-97060172D01*
X131558569Y-97053983D01*
X131546153Y-97046542D01*
X131534527Y-97037919D01*
X131523802Y-97028198D01*
X131514081Y-97017473D01*
X131505458Y-97005847D01*
X131498017Y-96993431D01*
X131491828Y-96980346D01*
X131486951Y-96966717D01*
X131483434Y-96952676D01*
X131481310Y-96938358D01*
X131480600Y-96923900D01*
X131480600Y-96628900D01*
X131481310Y-96614442D01*
X131483434Y-96600124D01*
X131486951Y-96586083D01*
X131491828Y-96572454D01*
X131498017Y-96559369D01*
X131505458Y-96546953D01*
X131514081Y-96535327D01*
X131523802Y-96524602D01*
X131534527Y-96514881D01*
X131546153Y-96506258D01*
X131558569Y-96498817D01*
X131571654Y-96492628D01*
X131585283Y-96487751D01*
X131599324Y-96484234D01*
X131613642Y-96482110D01*
X131628100Y-96481400D01*
X131973100Y-96481400D01*
X131987558Y-96482110D01*
G37*
G36*
X131987558Y-95512110D02*
G01*
X132001876Y-95514234D01*
X132015917Y-95517751D01*
X132029546Y-95522628D01*
X132042631Y-95528817D01*
X132055047Y-95536258D01*
X132066673Y-95544881D01*
X132077398Y-95554602D01*
X132087119Y-95565327D01*
X132095742Y-95576953D01*
X132103183Y-95589369D01*
X132109372Y-95602454D01*
X132114249Y-95616083D01*
X132117766Y-95630124D01*
X132119890Y-95644442D01*
X132120600Y-95658900D01*
X132120600Y-95953900D01*
X132119890Y-95968358D01*
X132117766Y-95982676D01*
X132114249Y-95996717D01*
X132109372Y-96010346D01*
X132103183Y-96023431D01*
X132095742Y-96035847D01*
X132087119Y-96047473D01*
X132077398Y-96058198D01*
X132066673Y-96067919D01*
X132055047Y-96076542D01*
X132042631Y-96083983D01*
X132029546Y-96090172D01*
X132015917Y-96095049D01*
X132001876Y-96098566D01*
X131987558Y-96100690D01*
X131973100Y-96101400D01*
X131628100Y-96101400D01*
X131613642Y-96100690D01*
X131599324Y-96098566D01*
X131585283Y-96095049D01*
X131571654Y-96090172D01*
X131558569Y-96083983D01*
X131546153Y-96076542D01*
X131534527Y-96067919D01*
X131523802Y-96058198D01*
X131514081Y-96047473D01*
X131505458Y-96035847D01*
X131498017Y-96023431D01*
X131491828Y-96010346D01*
X131486951Y-95996717D01*
X131483434Y-95982676D01*
X131481310Y-95968358D01*
X131480600Y-95953900D01*
X131480600Y-95658900D01*
X131481310Y-95644442D01*
X131483434Y-95630124D01*
X131486951Y-95616083D01*
X131491828Y-95602454D01*
X131498017Y-95589369D01*
X131505458Y-95576953D01*
X131514081Y-95565327D01*
X131523802Y-95554602D01*
X131534527Y-95544881D01*
X131546153Y-95536258D01*
X131558569Y-95528817D01*
X131571654Y-95522628D01*
X131585283Y-95517751D01*
X131599324Y-95514234D01*
X131613642Y-95512110D01*
X131628100Y-95511400D01*
X131973100Y-95511400D01*
X131987558Y-95512110D01*
G37*
G36*
X135793158Y-101179110D02*
G01*
X135807476Y-101181234D01*
X135821517Y-101184751D01*
X135835146Y-101189628D01*
X135848231Y-101195817D01*
X135860647Y-101203258D01*
X135872273Y-101211881D01*
X135882998Y-101221602D01*
X135892719Y-101232327D01*
X135901342Y-101243953D01*
X135908783Y-101256369D01*
X135914972Y-101269454D01*
X135919849Y-101283083D01*
X135923366Y-101297124D01*
X135925490Y-101311442D01*
X135926200Y-101325900D01*
X135926200Y-101670900D01*
X135925490Y-101685358D01*
X135923366Y-101699676D01*
X135919849Y-101713717D01*
X135914972Y-101727346D01*
X135908783Y-101740431D01*
X135901342Y-101752847D01*
X135892719Y-101764473D01*
X135882998Y-101775198D01*
X135872273Y-101784919D01*
X135860647Y-101793542D01*
X135848231Y-101800983D01*
X135835146Y-101807172D01*
X135821517Y-101812049D01*
X135807476Y-101815566D01*
X135793158Y-101817690D01*
X135778700Y-101818400D01*
X135483700Y-101818400D01*
X135469242Y-101817690D01*
X135454924Y-101815566D01*
X135440883Y-101812049D01*
X135427254Y-101807172D01*
X135414169Y-101800983D01*
X135401753Y-101793542D01*
X135390127Y-101784919D01*
X135379402Y-101775198D01*
X135369681Y-101764473D01*
X135361058Y-101752847D01*
X135353617Y-101740431D01*
X135347428Y-101727346D01*
X135342551Y-101713717D01*
X135339034Y-101699676D01*
X135336910Y-101685358D01*
X135336200Y-101670900D01*
X135336200Y-101325900D01*
X135336910Y-101311442D01*
X135339034Y-101297124D01*
X135342551Y-101283083D01*
X135347428Y-101269454D01*
X135353617Y-101256369D01*
X135361058Y-101243953D01*
X135369681Y-101232327D01*
X135379402Y-101221602D01*
X135390127Y-101211881D01*
X135401753Y-101203258D01*
X135414169Y-101195817D01*
X135427254Y-101189628D01*
X135440883Y-101184751D01*
X135454924Y-101181234D01*
X135469242Y-101179110D01*
X135483700Y-101178400D01*
X135778700Y-101178400D01*
X135793158Y-101179110D01*
G37*
G36*
X136763158Y-101179110D02*
G01*
X136777476Y-101181234D01*
X136791517Y-101184751D01*
X136805146Y-101189628D01*
X136818231Y-101195817D01*
X136830647Y-101203258D01*
X136842273Y-101211881D01*
X136852998Y-101221602D01*
X136862719Y-101232327D01*
X136871342Y-101243953D01*
X136878783Y-101256369D01*
X136884972Y-101269454D01*
X136889849Y-101283083D01*
X136893366Y-101297124D01*
X136895490Y-101311442D01*
X136896200Y-101325900D01*
X136896200Y-101670900D01*
X136895490Y-101685358D01*
X136893366Y-101699676D01*
X136889849Y-101713717D01*
X136884972Y-101727346D01*
X136878783Y-101740431D01*
X136871342Y-101752847D01*
X136862719Y-101764473D01*
X136852998Y-101775198D01*
X136842273Y-101784919D01*
X136830647Y-101793542D01*
X136818231Y-101800983D01*
X136805146Y-101807172D01*
X136791517Y-101812049D01*
X136777476Y-101815566D01*
X136763158Y-101817690D01*
X136748700Y-101818400D01*
X136453700Y-101818400D01*
X136439242Y-101817690D01*
X136424924Y-101815566D01*
X136410883Y-101812049D01*
X136397254Y-101807172D01*
X136384169Y-101800983D01*
X136371753Y-101793542D01*
X136360127Y-101784919D01*
X136349402Y-101775198D01*
X136339681Y-101764473D01*
X136331058Y-101752847D01*
X136323617Y-101740431D01*
X136317428Y-101727346D01*
X136312551Y-101713717D01*
X136309034Y-101699676D01*
X136306910Y-101685358D01*
X136306200Y-101670900D01*
X136306200Y-101325900D01*
X136306910Y-101311442D01*
X136309034Y-101297124D01*
X136312551Y-101283083D01*
X136317428Y-101269454D01*
X136323617Y-101256369D01*
X136331058Y-101243953D01*
X136339681Y-101232327D01*
X136349402Y-101221602D01*
X136360127Y-101211881D01*
X136371753Y-101203258D01*
X136384169Y-101195817D01*
X136397254Y-101189628D01*
X136410883Y-101184751D01*
X136424924Y-101181234D01*
X136439242Y-101179110D01*
X136453700Y-101178400D01*
X136748700Y-101178400D01*
X136763158Y-101179110D01*
G37*
M02*
