G04 #@! TF.GenerationSoftware,KiCad,Pcbnew,(5.1.5)-3*
G04 #@! TF.CreationDate,2020-07-06T15:00:05-07:00*
G04 #@! TF.ProjectId,Pufferfish-Power-1,50756666-6572-4666-9973-682d506f7765,v0.1*
G04 #@! TF.SameCoordinates,Original*
G04 #@! TF.FileFunction,Legend,Bot*
G04 #@! TF.FilePolarity,Positive*
%FSLAX46Y46*%
G04 Gerber Fmt 4.6, Leading zero omitted, Abs format (unit mm)*
G04 Created by KiCad (PCBNEW (5.1.5)-3) date 2020-07-06 15:00:05*
%MOMM*%
%LPD*%
G04 APERTURE LIST*
%ADD10C,0.120000*%
%ADD11C,0.150000*%
G04 APERTURE END LIST*
D10*
X198676800Y-95869979D02*
X198676800Y-95544421D01*
X199696800Y-95869979D02*
X199696800Y-95544421D01*
D11*
X190599000Y-108635800D02*
G75*
G03X190599000Y-108635800I-1750000J0D01*
G01*
D10*
X150551000Y-126134400D02*
X150551000Y-124674400D01*
X147391000Y-126134400D02*
X147391000Y-123974400D01*
X147391000Y-126134400D02*
X148321000Y-126134400D01*
X150551000Y-126134400D02*
X149621000Y-126134400D01*
X147340200Y-79224600D02*
X147340200Y-80684600D01*
X150500200Y-79224600D02*
X150500200Y-81384600D01*
X150500200Y-79224600D02*
X149570200Y-79224600D01*
X147340200Y-79224600D02*
X148270200Y-79224600D01*
X143134200Y-126159800D02*
X143134200Y-124699800D01*
X139974200Y-126159800D02*
X139974200Y-123999800D01*
X139974200Y-126159800D02*
X140904200Y-126159800D01*
X143134200Y-126159800D02*
X142204200Y-126159800D01*
X139948800Y-79123000D02*
X139948800Y-80583000D01*
X143108800Y-79123000D02*
X143108800Y-81283000D01*
X143108800Y-79123000D02*
X142178800Y-79123000D01*
X139948800Y-79123000D02*
X140878800Y-79123000D01*
X135285600Y-126286800D02*
X135285600Y-124826800D01*
X132125600Y-126286800D02*
X132125600Y-124126800D01*
X132125600Y-126286800D02*
X133055600Y-126286800D01*
X135285600Y-126286800D02*
X134355600Y-126286800D01*
X132176400Y-78945200D02*
X132176400Y-80405200D01*
X135336400Y-78945200D02*
X135336400Y-81105200D01*
X135336400Y-78945200D02*
X134406400Y-78945200D01*
X132176400Y-78945200D02*
X133106400Y-78945200D01*
X144143000Y-83754179D02*
X144143000Y-83428621D01*
X145163000Y-83754179D02*
X145163000Y-83428621D01*
X154027600Y-122620821D02*
X154027600Y-122946379D01*
X153007600Y-122620821D02*
X153007600Y-122946379D01*
X136446800Y-83804979D02*
X136446800Y-83479421D01*
X137466800Y-83804979D02*
X137466800Y-83479421D01*
X146306000Y-122519221D02*
X146306000Y-122844779D01*
X145286000Y-122519221D02*
X145286000Y-122844779D01*
X138432000Y-122163621D02*
X138432000Y-122489179D01*
X137412000Y-122163621D02*
X137412000Y-122489179D01*
X128750600Y-83830379D02*
X128750600Y-83504821D01*
X129770600Y-83830379D02*
X129770600Y-83504821D01*
X183339200Y-91531221D02*
X183339200Y-91856779D01*
X182319200Y-91531221D02*
X182319200Y-91856779D01*
X192635600Y-112562421D02*
X192635600Y-112887979D01*
X191615600Y-112562421D02*
X191615600Y-112887979D01*
X196712621Y-85748400D02*
X197038179Y-85748400D01*
X196712621Y-86768400D02*
X197038179Y-86768400D01*
X108214379Y-103532400D02*
X107888821Y-103532400D01*
X108214379Y-102512400D02*
X107888821Y-102512400D01*
X181208600Y-94150400D02*
X181208600Y-95610400D01*
X184368600Y-94150400D02*
X184368600Y-96310400D01*
X184368600Y-94150400D02*
X183438600Y-94150400D01*
X181208600Y-94150400D02*
X182138600Y-94150400D01*
X193905600Y-113746400D02*
X195365600Y-113746400D01*
X193905600Y-110586400D02*
X196065600Y-110586400D01*
X193905600Y-110586400D02*
X193905600Y-111516400D01*
X193905600Y-113746400D02*
X193905600Y-112816400D01*
X196108200Y-88190800D02*
X196108200Y-89650800D01*
X199268200Y-88190800D02*
X199268200Y-90350800D01*
X199268200Y-88190800D02*
X198338200Y-88190800D01*
X196108200Y-88190800D02*
X197038200Y-88190800D01*
X107164600Y-107269400D02*
X108624600Y-107269400D01*
X107164600Y-104109400D02*
X109324600Y-104109400D01*
X107164600Y-104109400D02*
X107164600Y-105039400D01*
X107164600Y-107269400D02*
X107164600Y-106339400D01*
X145946400Y-127340579D02*
X145946400Y-127015021D01*
X146966400Y-127340579D02*
X146966400Y-127015021D01*
X138504200Y-126349979D02*
X138504200Y-126024421D01*
X139524200Y-126349979D02*
X139524200Y-126024421D01*
X130274600Y-125816579D02*
X130274600Y-125491021D01*
X131294600Y-125816579D02*
X131294600Y-125491021D01*
X151970200Y-79694821D02*
X151970200Y-80020379D01*
X150950200Y-79694821D02*
X150950200Y-80020379D01*
X144680400Y-79694821D02*
X144680400Y-80020379D01*
X143660400Y-79694821D02*
X143660400Y-80020379D01*
X136831800Y-79390021D02*
X136831800Y-79715579D01*
X135811800Y-79390021D02*
X135811800Y-79715579D01*
X198147400Y-97119221D02*
X198147400Y-97444779D01*
X197127400Y-97119221D02*
X197127400Y-97444779D01*
X195137821Y-95476600D02*
X195463379Y-95476600D01*
X195137821Y-96496600D02*
X195463379Y-96496600D01*
X199722200Y-92115421D02*
X199722200Y-92440979D01*
X198702200Y-92115421D02*
X198702200Y-92440979D01*
X190108621Y-89329800D02*
X190434179Y-89329800D01*
X190108621Y-90349800D02*
X190434179Y-90349800D01*
X193423000Y-90556200D02*
X194883000Y-90556200D01*
X193423000Y-87396200D02*
X195583000Y-87396200D01*
X193423000Y-87396200D02*
X193423000Y-88326200D01*
X193423000Y-90556200D02*
X193423000Y-89626200D01*
X189148600Y-91797600D02*
X189148600Y-93257600D01*
X192308600Y-91797600D02*
X192308600Y-93957600D01*
X192308600Y-91797600D02*
X191378600Y-91797600D01*
X189148600Y-91797600D02*
X190078600Y-91797600D01*
X186158600Y-92572621D02*
X186158600Y-92898179D01*
X185138600Y-92572621D02*
X185138600Y-92898179D01*
X194820000Y-108574621D02*
X194820000Y-108900179D01*
X193800000Y-108574621D02*
X193800000Y-108900179D01*
X125097000Y-97144621D02*
X125097000Y-97470179D01*
X124077000Y-97144621D02*
X124077000Y-97470179D01*
X121134600Y-99344600D02*
X122594600Y-99344600D01*
X121134600Y-96184600D02*
X123294600Y-96184600D01*
X121134600Y-96184600D02*
X121134600Y-97114600D01*
X121134600Y-99344600D02*
X121134600Y-98414600D01*
X133098000Y-105602821D02*
X133098000Y-105928379D01*
X132078000Y-105602821D02*
X132078000Y-105928379D01*
X126363000Y-96581179D02*
X126363000Y-96255621D01*
X127383000Y-96581179D02*
X127383000Y-96255621D01*
D11*
X199543942Y-98112342D02*
X199591561Y-98064723D01*
X199639180Y-97921866D01*
X199639180Y-97826628D01*
X199591561Y-97683771D01*
X199496323Y-97588533D01*
X199401085Y-97540914D01*
X199210609Y-97493295D01*
X199067752Y-97493295D01*
X198877276Y-97540914D01*
X198782038Y-97588533D01*
X198686800Y-97683771D01*
X198639180Y-97826628D01*
X198639180Y-97921866D01*
X198686800Y-98064723D01*
X198734419Y-98112342D01*
X198639180Y-99017104D02*
X198639180Y-98540914D01*
X199115371Y-98493295D01*
X199067752Y-98540914D01*
X199020133Y-98636152D01*
X199020133Y-98874247D01*
X199067752Y-98969485D01*
X199115371Y-99017104D01*
X199210609Y-99064723D01*
X199448704Y-99064723D01*
X199543942Y-99017104D01*
X199591561Y-98969485D01*
X199639180Y-98874247D01*
X199639180Y-98636152D01*
X199591561Y-98540914D01*
X199543942Y-98493295D01*
X198639180Y-99969485D02*
X198639180Y-99493295D01*
X199115371Y-99445676D01*
X199067752Y-99493295D01*
X199020133Y-99588533D01*
X199020133Y-99826628D01*
X199067752Y-99921866D01*
X199115371Y-99969485D01*
X199210609Y-100017104D01*
X199448704Y-100017104D01*
X199543942Y-99969485D01*
X199591561Y-99921866D01*
X199639180Y-99826628D01*
X199639180Y-99588533D01*
X199591561Y-99493295D01*
X199543942Y-99445676D01*
X190110904Y-110838180D02*
X189539476Y-110838180D01*
X189825190Y-111838180D02*
X189825190Y-110838180D01*
X189206142Y-111838180D02*
X189206142Y-110838180D01*
X188825190Y-110838180D01*
X188729952Y-110885800D01*
X188682333Y-110933419D01*
X188634714Y-111028657D01*
X188634714Y-111171514D01*
X188682333Y-111266752D01*
X188729952Y-111314371D01*
X188825190Y-111361990D01*
X189206142Y-111361990D01*
X187729952Y-110838180D02*
X188206142Y-110838180D01*
X188253761Y-111314371D01*
X188206142Y-111266752D01*
X188110904Y-111219133D01*
X187872809Y-111219133D01*
X187777571Y-111266752D01*
X187729952Y-111314371D01*
X187682333Y-111409609D01*
X187682333Y-111647704D01*
X187729952Y-111742942D01*
X187777571Y-111790561D01*
X187872809Y-111838180D01*
X188110904Y-111838180D01*
X188206142Y-111790561D01*
X188253761Y-111742942D01*
X149872628Y-128487419D02*
X149967866Y-128439800D01*
X150063104Y-128344561D01*
X150205961Y-128201704D01*
X150301200Y-128154085D01*
X150396438Y-128154085D01*
X150348819Y-128392180D02*
X150444057Y-128344561D01*
X150539295Y-128249323D01*
X150586914Y-128058847D01*
X150586914Y-127725514D01*
X150539295Y-127535038D01*
X150444057Y-127439800D01*
X150348819Y-127392180D01*
X150158342Y-127392180D01*
X150063104Y-127439800D01*
X149967866Y-127535038D01*
X149920247Y-127725514D01*
X149920247Y-128058847D01*
X149967866Y-128249323D01*
X150063104Y-128344561D01*
X150158342Y-128392180D01*
X150348819Y-128392180D01*
X148967866Y-128392180D02*
X149539295Y-128392180D01*
X149253580Y-128392180D02*
X149253580Y-127392180D01*
X149348819Y-127535038D01*
X149444057Y-127630276D01*
X149539295Y-127677895D01*
X148491676Y-128392180D02*
X148301200Y-128392180D01*
X148205961Y-128344561D01*
X148158342Y-128296942D01*
X148063104Y-128154085D01*
X148015485Y-127963609D01*
X148015485Y-127582657D01*
X148063104Y-127487419D01*
X148110723Y-127439800D01*
X148205961Y-127392180D01*
X148396438Y-127392180D01*
X148491676Y-127439800D01*
X148539295Y-127487419D01*
X148586914Y-127582657D01*
X148586914Y-127820752D01*
X148539295Y-127915990D01*
X148491676Y-127963609D01*
X148396438Y-128011228D01*
X148205961Y-128011228D01*
X148110723Y-127963609D01*
X148063104Y-127915990D01*
X148015485Y-127820752D01*
X149796428Y-77966819D02*
X149891666Y-77919200D01*
X149986904Y-77823961D01*
X150129761Y-77681104D01*
X150225000Y-77633485D01*
X150320238Y-77633485D01*
X150272619Y-77871580D02*
X150367857Y-77823961D01*
X150463095Y-77728723D01*
X150510714Y-77538247D01*
X150510714Y-77204914D01*
X150463095Y-77014438D01*
X150367857Y-76919200D01*
X150272619Y-76871580D01*
X150082142Y-76871580D01*
X149986904Y-76919200D01*
X149891666Y-77014438D01*
X149844047Y-77204914D01*
X149844047Y-77538247D01*
X149891666Y-77728723D01*
X149986904Y-77823961D01*
X150082142Y-77871580D01*
X150272619Y-77871580D01*
X148891666Y-77871580D02*
X149463095Y-77871580D01*
X149177380Y-77871580D02*
X149177380Y-76871580D01*
X149272619Y-77014438D01*
X149367857Y-77109676D01*
X149463095Y-77157295D01*
X148320238Y-77300152D02*
X148415476Y-77252533D01*
X148463095Y-77204914D01*
X148510714Y-77109676D01*
X148510714Y-77062057D01*
X148463095Y-76966819D01*
X148415476Y-76919200D01*
X148320238Y-76871580D01*
X148129761Y-76871580D01*
X148034523Y-76919200D01*
X147986904Y-76966819D01*
X147939285Y-77062057D01*
X147939285Y-77109676D01*
X147986904Y-77204914D01*
X148034523Y-77252533D01*
X148129761Y-77300152D01*
X148320238Y-77300152D01*
X148415476Y-77347771D01*
X148463095Y-77395390D01*
X148510714Y-77490628D01*
X148510714Y-77681104D01*
X148463095Y-77776342D01*
X148415476Y-77823961D01*
X148320238Y-77871580D01*
X148129761Y-77871580D01*
X148034523Y-77823961D01*
X147986904Y-77776342D01*
X147939285Y-77681104D01*
X147939285Y-77490628D01*
X147986904Y-77395390D01*
X148034523Y-77347771D01*
X148129761Y-77300152D01*
X142328828Y-128970019D02*
X142424066Y-128922400D01*
X142519304Y-128827161D01*
X142662161Y-128684304D01*
X142757400Y-128636685D01*
X142852638Y-128636685D01*
X142805019Y-128874780D02*
X142900257Y-128827161D01*
X142995495Y-128731923D01*
X143043114Y-128541447D01*
X143043114Y-128208114D01*
X142995495Y-128017638D01*
X142900257Y-127922400D01*
X142805019Y-127874780D01*
X142614542Y-127874780D01*
X142519304Y-127922400D01*
X142424066Y-128017638D01*
X142376447Y-128208114D01*
X142376447Y-128541447D01*
X142424066Y-128731923D01*
X142519304Y-128827161D01*
X142614542Y-128874780D01*
X142805019Y-128874780D01*
X141424066Y-128874780D02*
X141995495Y-128874780D01*
X141709780Y-128874780D02*
X141709780Y-127874780D01*
X141805019Y-128017638D01*
X141900257Y-128112876D01*
X141995495Y-128160495D01*
X141090733Y-127874780D02*
X140424066Y-127874780D01*
X140852638Y-128874780D01*
X142354228Y-78068419D02*
X142449466Y-78020800D01*
X142544704Y-77925561D01*
X142687561Y-77782704D01*
X142782800Y-77735085D01*
X142878038Y-77735085D01*
X142830419Y-77973180D02*
X142925657Y-77925561D01*
X143020895Y-77830323D01*
X143068514Y-77639847D01*
X143068514Y-77306514D01*
X143020895Y-77116038D01*
X142925657Y-77020800D01*
X142830419Y-76973180D01*
X142639942Y-76973180D01*
X142544704Y-77020800D01*
X142449466Y-77116038D01*
X142401847Y-77306514D01*
X142401847Y-77639847D01*
X142449466Y-77830323D01*
X142544704Y-77925561D01*
X142639942Y-77973180D01*
X142830419Y-77973180D01*
X141449466Y-77973180D02*
X142020895Y-77973180D01*
X141735180Y-77973180D02*
X141735180Y-76973180D01*
X141830419Y-77116038D01*
X141925657Y-77211276D01*
X142020895Y-77258895D01*
X140592323Y-76973180D02*
X140782800Y-76973180D01*
X140878038Y-77020800D01*
X140925657Y-77068419D01*
X141020895Y-77211276D01*
X141068514Y-77401752D01*
X141068514Y-77782704D01*
X141020895Y-77877942D01*
X140973276Y-77925561D01*
X140878038Y-77973180D01*
X140687561Y-77973180D01*
X140592323Y-77925561D01*
X140544704Y-77877942D01*
X140497085Y-77782704D01*
X140497085Y-77544609D01*
X140544704Y-77449371D01*
X140592323Y-77401752D01*
X140687561Y-77354133D01*
X140878038Y-77354133D01*
X140973276Y-77401752D01*
X141020895Y-77449371D01*
X141068514Y-77544609D01*
X134099228Y-128716019D02*
X134194466Y-128668400D01*
X134289704Y-128573161D01*
X134432561Y-128430304D01*
X134527800Y-128382685D01*
X134623038Y-128382685D01*
X134575419Y-128620780D02*
X134670657Y-128573161D01*
X134765895Y-128477923D01*
X134813514Y-128287447D01*
X134813514Y-127954114D01*
X134765895Y-127763638D01*
X134670657Y-127668400D01*
X134575419Y-127620780D01*
X134384942Y-127620780D01*
X134289704Y-127668400D01*
X134194466Y-127763638D01*
X134146847Y-127954114D01*
X134146847Y-128287447D01*
X134194466Y-128477923D01*
X134289704Y-128573161D01*
X134384942Y-128620780D01*
X134575419Y-128620780D01*
X133194466Y-128620780D02*
X133765895Y-128620780D01*
X133480180Y-128620780D02*
X133480180Y-127620780D01*
X133575419Y-127763638D01*
X133670657Y-127858876D01*
X133765895Y-127906495D01*
X132289704Y-127620780D02*
X132765895Y-127620780D01*
X132813514Y-128096971D01*
X132765895Y-128049352D01*
X132670657Y-128001733D01*
X132432561Y-128001733D01*
X132337323Y-128049352D01*
X132289704Y-128096971D01*
X132242085Y-128192209D01*
X132242085Y-128430304D01*
X132289704Y-128525542D01*
X132337323Y-128573161D01*
X132432561Y-128620780D01*
X132670657Y-128620780D01*
X132765895Y-128573161D01*
X132813514Y-128525542D01*
X134480228Y-77509619D02*
X134575466Y-77462000D01*
X134670704Y-77366761D01*
X134813561Y-77223904D01*
X134908800Y-77176285D01*
X135004038Y-77176285D01*
X134956419Y-77414380D02*
X135051657Y-77366761D01*
X135146895Y-77271523D01*
X135194514Y-77081047D01*
X135194514Y-76747714D01*
X135146895Y-76557238D01*
X135051657Y-76462000D01*
X134956419Y-76414380D01*
X134765942Y-76414380D01*
X134670704Y-76462000D01*
X134575466Y-76557238D01*
X134527847Y-76747714D01*
X134527847Y-77081047D01*
X134575466Y-77271523D01*
X134670704Y-77366761D01*
X134765942Y-77414380D01*
X134956419Y-77414380D01*
X133575466Y-77414380D02*
X134146895Y-77414380D01*
X133861180Y-77414380D02*
X133861180Y-76414380D01*
X133956419Y-76557238D01*
X134051657Y-76652476D01*
X134146895Y-76700095D01*
X132718323Y-76747714D02*
X132718323Y-77414380D01*
X132956419Y-76366761D02*
X133194514Y-77081047D01*
X132575466Y-77081047D01*
X145156180Y-86275942D02*
X144679990Y-85942609D01*
X145156180Y-85704514D02*
X144156180Y-85704514D01*
X144156180Y-86085466D01*
X144203800Y-86180704D01*
X144251419Y-86228323D01*
X144346657Y-86275942D01*
X144489514Y-86275942D01*
X144584752Y-86228323D01*
X144632371Y-86180704D01*
X144679990Y-86085466D01*
X144679990Y-85704514D01*
X144156180Y-87133085D02*
X144156180Y-86942609D01*
X144203800Y-86847371D01*
X144251419Y-86799752D01*
X144394276Y-86704514D01*
X144584752Y-86656895D01*
X144965704Y-86656895D01*
X145060942Y-86704514D01*
X145108561Y-86752133D01*
X145156180Y-86847371D01*
X145156180Y-87037847D01*
X145108561Y-87133085D01*
X145060942Y-87180704D01*
X144965704Y-87228323D01*
X144727609Y-87228323D01*
X144632371Y-87180704D01*
X144584752Y-87133085D01*
X144537133Y-87037847D01*
X144537133Y-86847371D01*
X144584752Y-86752133D01*
X144632371Y-86704514D01*
X144727609Y-86656895D01*
X144156180Y-87847371D02*
X144156180Y-87942609D01*
X144203800Y-88037847D01*
X144251419Y-88085466D01*
X144346657Y-88133085D01*
X144537133Y-88180704D01*
X144775228Y-88180704D01*
X144965704Y-88133085D01*
X145060942Y-88085466D01*
X145108561Y-88037847D01*
X145156180Y-87942609D01*
X145156180Y-87847371D01*
X145108561Y-87752133D01*
X145060942Y-87704514D01*
X144965704Y-87656895D01*
X144775228Y-87609276D01*
X144537133Y-87609276D01*
X144346657Y-87656895D01*
X144251419Y-87704514D01*
X144203800Y-87752133D01*
X144156180Y-87847371D01*
X152539980Y-122140742D02*
X152063790Y-121807409D01*
X152539980Y-121569314D02*
X151539980Y-121569314D01*
X151539980Y-121950266D01*
X151587600Y-122045504D01*
X151635219Y-122093123D01*
X151730457Y-122140742D01*
X151873314Y-122140742D01*
X151968552Y-122093123D01*
X152016171Y-122045504D01*
X152063790Y-121950266D01*
X152063790Y-121569314D01*
X151539980Y-123045504D02*
X151539980Y-122569314D01*
X152016171Y-122521695D01*
X151968552Y-122569314D01*
X151920933Y-122664552D01*
X151920933Y-122902647D01*
X151968552Y-122997885D01*
X152016171Y-123045504D01*
X152111409Y-123093123D01*
X152349504Y-123093123D01*
X152444742Y-123045504D01*
X152492361Y-122997885D01*
X152539980Y-122902647D01*
X152539980Y-122664552D01*
X152492361Y-122569314D01*
X152444742Y-122521695D01*
X152539980Y-123569314D02*
X152539980Y-123759790D01*
X152492361Y-123855028D01*
X152444742Y-123902647D01*
X152301885Y-123997885D01*
X152111409Y-124045504D01*
X151730457Y-124045504D01*
X151635219Y-123997885D01*
X151587600Y-123950266D01*
X151539980Y-123855028D01*
X151539980Y-123664552D01*
X151587600Y-123569314D01*
X151635219Y-123521695D01*
X151730457Y-123474076D01*
X151968552Y-123474076D01*
X152063790Y-123521695D01*
X152111409Y-123569314D01*
X152159028Y-123664552D01*
X152159028Y-123855028D01*
X152111409Y-123950266D01*
X152063790Y-123997885D01*
X151968552Y-124045504D01*
X137485380Y-86174342D02*
X137009190Y-85841009D01*
X137485380Y-85602914D02*
X136485380Y-85602914D01*
X136485380Y-85983866D01*
X136533000Y-86079104D01*
X136580619Y-86126723D01*
X136675857Y-86174342D01*
X136818714Y-86174342D01*
X136913952Y-86126723D01*
X136961571Y-86079104D01*
X137009190Y-85983866D01*
X137009190Y-85602914D01*
X136485380Y-87079104D02*
X136485380Y-86602914D01*
X136961571Y-86555295D01*
X136913952Y-86602914D01*
X136866333Y-86698152D01*
X136866333Y-86936247D01*
X136913952Y-87031485D01*
X136961571Y-87079104D01*
X137056809Y-87126723D01*
X137294904Y-87126723D01*
X137390142Y-87079104D01*
X137437761Y-87031485D01*
X137485380Y-86936247D01*
X137485380Y-86698152D01*
X137437761Y-86602914D01*
X137390142Y-86555295D01*
X136913952Y-87698152D02*
X136866333Y-87602914D01*
X136818714Y-87555295D01*
X136723476Y-87507676D01*
X136675857Y-87507676D01*
X136580619Y-87555295D01*
X136533000Y-87602914D01*
X136485380Y-87698152D01*
X136485380Y-87888628D01*
X136533000Y-87983866D01*
X136580619Y-88031485D01*
X136675857Y-88079104D01*
X136723476Y-88079104D01*
X136818714Y-88031485D01*
X136866333Y-87983866D01*
X136913952Y-87888628D01*
X136913952Y-87698152D01*
X136961571Y-87602914D01*
X137009190Y-87555295D01*
X137104428Y-87507676D01*
X137294904Y-87507676D01*
X137390142Y-87555295D01*
X137437761Y-87602914D01*
X137485380Y-87698152D01*
X137485380Y-87888628D01*
X137437761Y-87983866D01*
X137390142Y-88031485D01*
X137294904Y-88079104D01*
X137104428Y-88079104D01*
X137009190Y-88031485D01*
X136961571Y-87983866D01*
X136913952Y-87888628D01*
X144818380Y-122039142D02*
X144342190Y-121705809D01*
X144818380Y-121467714D02*
X143818380Y-121467714D01*
X143818380Y-121848666D01*
X143866000Y-121943904D01*
X143913619Y-121991523D01*
X144008857Y-122039142D01*
X144151714Y-122039142D01*
X144246952Y-121991523D01*
X144294571Y-121943904D01*
X144342190Y-121848666D01*
X144342190Y-121467714D01*
X143818380Y-122943904D02*
X143818380Y-122467714D01*
X144294571Y-122420095D01*
X144246952Y-122467714D01*
X144199333Y-122562952D01*
X144199333Y-122801047D01*
X144246952Y-122896285D01*
X144294571Y-122943904D01*
X144389809Y-122991523D01*
X144627904Y-122991523D01*
X144723142Y-122943904D01*
X144770761Y-122896285D01*
X144818380Y-122801047D01*
X144818380Y-122562952D01*
X144770761Y-122467714D01*
X144723142Y-122420095D01*
X143818380Y-123324857D02*
X143818380Y-123991523D01*
X144818380Y-123562952D01*
X136944380Y-121683542D02*
X136468190Y-121350209D01*
X136944380Y-121112114D02*
X135944380Y-121112114D01*
X135944380Y-121493066D01*
X135992000Y-121588304D01*
X136039619Y-121635923D01*
X136134857Y-121683542D01*
X136277714Y-121683542D01*
X136372952Y-121635923D01*
X136420571Y-121588304D01*
X136468190Y-121493066D01*
X136468190Y-121112114D01*
X135944380Y-122588304D02*
X135944380Y-122112114D01*
X136420571Y-122064495D01*
X136372952Y-122112114D01*
X136325333Y-122207352D01*
X136325333Y-122445447D01*
X136372952Y-122540685D01*
X136420571Y-122588304D01*
X136515809Y-122635923D01*
X136753904Y-122635923D01*
X136849142Y-122588304D01*
X136896761Y-122540685D01*
X136944380Y-122445447D01*
X136944380Y-122207352D01*
X136896761Y-122112114D01*
X136849142Y-122064495D01*
X135944380Y-123493066D02*
X135944380Y-123302590D01*
X135992000Y-123207352D01*
X136039619Y-123159733D01*
X136182476Y-123064495D01*
X136372952Y-123016876D01*
X136753904Y-123016876D01*
X136849142Y-123064495D01*
X136896761Y-123112114D01*
X136944380Y-123207352D01*
X136944380Y-123397828D01*
X136896761Y-123493066D01*
X136849142Y-123540685D01*
X136753904Y-123588304D01*
X136515809Y-123588304D01*
X136420571Y-123540685D01*
X136372952Y-123493066D01*
X136325333Y-123397828D01*
X136325333Y-123207352D01*
X136372952Y-123112114D01*
X136420571Y-123064495D01*
X136515809Y-123016876D01*
X129738380Y-86021942D02*
X129262190Y-85688609D01*
X129738380Y-85450514D02*
X128738380Y-85450514D01*
X128738380Y-85831466D01*
X128786000Y-85926704D01*
X128833619Y-85974323D01*
X128928857Y-86021942D01*
X129071714Y-86021942D01*
X129166952Y-85974323D01*
X129214571Y-85926704D01*
X129262190Y-85831466D01*
X129262190Y-85450514D01*
X128738380Y-86926704D02*
X128738380Y-86450514D01*
X129214571Y-86402895D01*
X129166952Y-86450514D01*
X129119333Y-86545752D01*
X129119333Y-86783847D01*
X129166952Y-86879085D01*
X129214571Y-86926704D01*
X129309809Y-86974323D01*
X129547904Y-86974323D01*
X129643142Y-86926704D01*
X129690761Y-86879085D01*
X129738380Y-86783847D01*
X129738380Y-86545752D01*
X129690761Y-86450514D01*
X129643142Y-86402895D01*
X128738380Y-87879085D02*
X128738380Y-87402895D01*
X129214571Y-87355276D01*
X129166952Y-87402895D01*
X129119333Y-87498133D01*
X129119333Y-87736228D01*
X129166952Y-87831466D01*
X129214571Y-87879085D01*
X129309809Y-87926704D01*
X129547904Y-87926704D01*
X129643142Y-87879085D01*
X129690761Y-87831466D01*
X129738380Y-87736228D01*
X129738380Y-87498133D01*
X129690761Y-87402895D01*
X129643142Y-87355276D01*
X184805580Y-91101942D02*
X184329390Y-90768609D01*
X184805580Y-90530514D02*
X183805580Y-90530514D01*
X183805580Y-90911466D01*
X183853200Y-91006704D01*
X183900819Y-91054323D01*
X183996057Y-91101942D01*
X184138914Y-91101942D01*
X184234152Y-91054323D01*
X184281771Y-91006704D01*
X184329390Y-90911466D01*
X184329390Y-90530514D01*
X183805580Y-92006704D02*
X183805580Y-91530514D01*
X184281771Y-91482895D01*
X184234152Y-91530514D01*
X184186533Y-91625752D01*
X184186533Y-91863847D01*
X184234152Y-91959085D01*
X184281771Y-92006704D01*
X184377009Y-92054323D01*
X184615104Y-92054323D01*
X184710342Y-92006704D01*
X184757961Y-91959085D01*
X184805580Y-91863847D01*
X184805580Y-91625752D01*
X184757961Y-91530514D01*
X184710342Y-91482895D01*
X184138914Y-92911466D02*
X184805580Y-92911466D01*
X183757961Y-92673371D02*
X184472247Y-92435276D01*
X184472247Y-93054323D01*
X193505057Y-115488980D02*
X193838390Y-115012790D01*
X194076485Y-115488980D02*
X194076485Y-114488980D01*
X193695533Y-114488980D01*
X193600295Y-114536600D01*
X193552676Y-114584219D01*
X193505057Y-114679457D01*
X193505057Y-114822314D01*
X193552676Y-114917552D01*
X193600295Y-114965171D01*
X193695533Y-115012790D01*
X194076485Y-115012790D01*
X192600295Y-114488980D02*
X193076485Y-114488980D01*
X193124104Y-114965171D01*
X193076485Y-114917552D01*
X192981247Y-114869933D01*
X192743152Y-114869933D01*
X192647914Y-114917552D01*
X192600295Y-114965171D01*
X192552676Y-115060409D01*
X192552676Y-115298504D01*
X192600295Y-115393742D01*
X192647914Y-115441361D01*
X192743152Y-115488980D01*
X192981247Y-115488980D01*
X193076485Y-115441361D01*
X193124104Y-115393742D01*
X192219342Y-114488980D02*
X191600295Y-114488980D01*
X191933628Y-114869933D01*
X191790771Y-114869933D01*
X191695533Y-114917552D01*
X191647914Y-114965171D01*
X191600295Y-115060409D01*
X191600295Y-115298504D01*
X191647914Y-115393742D01*
X191695533Y-115441361D01*
X191790771Y-115488980D01*
X192076485Y-115488980D01*
X192171723Y-115441361D01*
X192219342Y-115393742D01*
X197492857Y-85364580D02*
X197826190Y-84888390D01*
X198064285Y-85364580D02*
X198064285Y-84364580D01*
X197683333Y-84364580D01*
X197588095Y-84412200D01*
X197540476Y-84459819D01*
X197492857Y-84555057D01*
X197492857Y-84697914D01*
X197540476Y-84793152D01*
X197588095Y-84840771D01*
X197683333Y-84888390D01*
X198064285Y-84888390D01*
X197111904Y-84459819D02*
X197064285Y-84412200D01*
X196969047Y-84364580D01*
X196730952Y-84364580D01*
X196635714Y-84412200D01*
X196588095Y-84459819D01*
X196540476Y-84555057D01*
X196540476Y-84650295D01*
X196588095Y-84793152D01*
X197159523Y-85364580D01*
X196540476Y-85364580D01*
X195635714Y-84364580D02*
X196111904Y-84364580D01*
X196159523Y-84840771D01*
X196111904Y-84793152D01*
X196016666Y-84745533D01*
X195778571Y-84745533D01*
X195683333Y-84793152D01*
X195635714Y-84840771D01*
X195588095Y-84936009D01*
X195588095Y-85174104D01*
X195635714Y-85269342D01*
X195683333Y-85316961D01*
X195778571Y-85364580D01*
X196016666Y-85364580D01*
X196111904Y-85316961D01*
X196159523Y-85269342D01*
X108694457Y-102044780D02*
X109027790Y-101568590D01*
X109265885Y-102044780D02*
X109265885Y-101044780D01*
X108884933Y-101044780D01*
X108789695Y-101092400D01*
X108742076Y-101140019D01*
X108694457Y-101235257D01*
X108694457Y-101378114D01*
X108742076Y-101473352D01*
X108789695Y-101520971D01*
X108884933Y-101568590D01*
X109265885Y-101568590D01*
X108313504Y-101140019D02*
X108265885Y-101092400D01*
X108170647Y-101044780D01*
X107932552Y-101044780D01*
X107837314Y-101092400D01*
X107789695Y-101140019D01*
X107742076Y-101235257D01*
X107742076Y-101330495D01*
X107789695Y-101473352D01*
X108361123Y-102044780D01*
X107742076Y-102044780D01*
X106884933Y-101378114D02*
X106884933Y-102044780D01*
X107123028Y-100997161D02*
X107361123Y-101711447D01*
X106742076Y-101711447D01*
X180806419Y-95440571D02*
X180758800Y-95345333D01*
X180663561Y-95250095D01*
X180520704Y-95107238D01*
X180473085Y-95012000D01*
X180473085Y-94916761D01*
X180711180Y-94964380D02*
X180663561Y-94869142D01*
X180568323Y-94773904D01*
X180377847Y-94726285D01*
X180044514Y-94726285D01*
X179854038Y-94773904D01*
X179758800Y-94869142D01*
X179711180Y-94964380D01*
X179711180Y-95154857D01*
X179758800Y-95250095D01*
X179854038Y-95345333D01*
X180044514Y-95392952D01*
X180377847Y-95392952D01*
X180568323Y-95345333D01*
X180663561Y-95250095D01*
X180711180Y-95154857D01*
X180711180Y-94964380D01*
X180711180Y-96345333D02*
X180711180Y-95773904D01*
X180711180Y-96059619D02*
X179711180Y-96059619D01*
X179854038Y-95964380D01*
X179949276Y-95869142D01*
X179996895Y-95773904D01*
X179711180Y-96678666D02*
X179711180Y-97297714D01*
X180092133Y-96964380D01*
X180092133Y-97107238D01*
X180139752Y-97202476D01*
X180187371Y-97250095D01*
X180282609Y-97297714D01*
X180520704Y-97297714D01*
X180615942Y-97250095D01*
X180663561Y-97202476D01*
X180711180Y-97107238D01*
X180711180Y-96821523D01*
X180663561Y-96726285D01*
X180615942Y-96678666D01*
X198446828Y-112805419D02*
X198542066Y-112757800D01*
X198637304Y-112662561D01*
X198780161Y-112519704D01*
X198875400Y-112472085D01*
X198970638Y-112472085D01*
X198923019Y-112710180D02*
X199018257Y-112662561D01*
X199113495Y-112567323D01*
X199161114Y-112376847D01*
X199161114Y-112043514D01*
X199113495Y-111853038D01*
X199018257Y-111757800D01*
X198923019Y-111710180D01*
X198732542Y-111710180D01*
X198637304Y-111757800D01*
X198542066Y-111853038D01*
X198494447Y-112043514D01*
X198494447Y-112376847D01*
X198542066Y-112567323D01*
X198637304Y-112662561D01*
X198732542Y-112710180D01*
X198923019Y-112710180D01*
X197542066Y-112710180D02*
X198113495Y-112710180D01*
X197827780Y-112710180D02*
X197827780Y-111710180D01*
X197923019Y-111853038D01*
X198018257Y-111948276D01*
X198113495Y-111995895D01*
X197161114Y-111805419D02*
X197113495Y-111757800D01*
X197018257Y-111710180D01*
X196780161Y-111710180D01*
X196684923Y-111757800D01*
X196637304Y-111805419D01*
X196589685Y-111900657D01*
X196589685Y-111995895D01*
X196637304Y-112138752D01*
X197208733Y-112710180D01*
X196589685Y-112710180D01*
X200735819Y-88379371D02*
X200688200Y-88284133D01*
X200592961Y-88188895D01*
X200450104Y-88046038D01*
X200402485Y-87950800D01*
X200402485Y-87855561D01*
X200640580Y-87903180D02*
X200592961Y-87807942D01*
X200497723Y-87712704D01*
X200307247Y-87665085D01*
X199973914Y-87665085D01*
X199783438Y-87712704D01*
X199688200Y-87807942D01*
X199640580Y-87903180D01*
X199640580Y-88093657D01*
X199688200Y-88188895D01*
X199783438Y-88284133D01*
X199973914Y-88331752D01*
X200307247Y-88331752D01*
X200497723Y-88284133D01*
X200592961Y-88188895D01*
X200640580Y-88093657D01*
X200640580Y-87903180D01*
X200640580Y-89284133D02*
X200640580Y-88712704D01*
X200640580Y-88998419D02*
X199640580Y-88998419D01*
X199783438Y-88903180D01*
X199878676Y-88807942D01*
X199926295Y-88712704D01*
X200640580Y-90236514D02*
X200640580Y-89665085D01*
X200640580Y-89950800D02*
X199640580Y-89950800D01*
X199783438Y-89855561D01*
X199878676Y-89760323D01*
X199926295Y-89665085D01*
X109080228Y-109056419D02*
X109175466Y-109008800D01*
X109270704Y-108913561D01*
X109413561Y-108770704D01*
X109508800Y-108723085D01*
X109604038Y-108723085D01*
X109556419Y-108961180D02*
X109651657Y-108913561D01*
X109746895Y-108818323D01*
X109794514Y-108627847D01*
X109794514Y-108294514D01*
X109746895Y-108104038D01*
X109651657Y-108008800D01*
X109556419Y-107961180D01*
X109365942Y-107961180D01*
X109270704Y-108008800D01*
X109175466Y-108104038D01*
X109127847Y-108294514D01*
X109127847Y-108627847D01*
X109175466Y-108818323D01*
X109270704Y-108913561D01*
X109365942Y-108961180D01*
X109556419Y-108961180D01*
X108175466Y-108961180D02*
X108746895Y-108961180D01*
X108461180Y-108961180D02*
X108461180Y-107961180D01*
X108556419Y-108104038D01*
X108651657Y-108199276D01*
X108746895Y-108246895D01*
X107556419Y-107961180D02*
X107461180Y-107961180D01*
X107365942Y-108008800D01*
X107318323Y-108056419D01*
X107270704Y-108151657D01*
X107223085Y-108342133D01*
X107223085Y-108580228D01*
X107270704Y-108770704D01*
X107318323Y-108865942D01*
X107365942Y-108913561D01*
X107461180Y-108961180D01*
X107556419Y-108961180D01*
X107651657Y-108913561D01*
X107699276Y-108865942D01*
X107746895Y-108770704D01*
X107794514Y-108580228D01*
X107794514Y-108342133D01*
X107746895Y-108151657D01*
X107699276Y-108056419D01*
X107651657Y-108008800D01*
X107556419Y-107961180D01*
X146959580Y-129709942D02*
X146483390Y-129376609D01*
X146959580Y-129138514D02*
X145959580Y-129138514D01*
X145959580Y-129519466D01*
X146007200Y-129614704D01*
X146054819Y-129662323D01*
X146150057Y-129709942D01*
X146292914Y-129709942D01*
X146388152Y-129662323D01*
X146435771Y-129614704D01*
X146483390Y-129519466D01*
X146483390Y-129138514D01*
X145959580Y-130614704D02*
X145959580Y-130138514D01*
X146435771Y-130090895D01*
X146388152Y-130138514D01*
X146340533Y-130233752D01*
X146340533Y-130471847D01*
X146388152Y-130567085D01*
X146435771Y-130614704D01*
X146531009Y-130662323D01*
X146769104Y-130662323D01*
X146864342Y-130614704D01*
X146911961Y-130567085D01*
X146959580Y-130471847D01*
X146959580Y-130233752D01*
X146911961Y-130138514D01*
X146864342Y-130090895D01*
X146054819Y-131043276D02*
X146007200Y-131090895D01*
X145959580Y-131186133D01*
X145959580Y-131424228D01*
X146007200Y-131519466D01*
X146054819Y-131567085D01*
X146150057Y-131614704D01*
X146245295Y-131614704D01*
X146388152Y-131567085D01*
X146959580Y-130995657D01*
X146959580Y-131614704D01*
X139491980Y-128744742D02*
X139015790Y-128411409D01*
X139491980Y-128173314D02*
X138491980Y-128173314D01*
X138491980Y-128554266D01*
X138539600Y-128649504D01*
X138587219Y-128697123D01*
X138682457Y-128744742D01*
X138825314Y-128744742D01*
X138920552Y-128697123D01*
X138968171Y-128649504D01*
X139015790Y-128554266D01*
X139015790Y-128173314D01*
X138491980Y-129649504D02*
X138491980Y-129173314D01*
X138968171Y-129125695D01*
X138920552Y-129173314D01*
X138872933Y-129268552D01*
X138872933Y-129506647D01*
X138920552Y-129601885D01*
X138968171Y-129649504D01*
X139063409Y-129697123D01*
X139301504Y-129697123D01*
X139396742Y-129649504D01*
X139444361Y-129601885D01*
X139491980Y-129506647D01*
X139491980Y-129268552D01*
X139444361Y-129173314D01*
X139396742Y-129125695D01*
X139491980Y-130649504D02*
X139491980Y-130078076D01*
X139491980Y-130363790D02*
X138491980Y-130363790D01*
X138634838Y-130268552D01*
X138730076Y-130173314D01*
X138777695Y-130078076D01*
X131109980Y-128211342D02*
X130633790Y-127878009D01*
X131109980Y-127639914D02*
X130109980Y-127639914D01*
X130109980Y-128020866D01*
X130157600Y-128116104D01*
X130205219Y-128163723D01*
X130300457Y-128211342D01*
X130443314Y-128211342D01*
X130538552Y-128163723D01*
X130586171Y-128116104D01*
X130633790Y-128020866D01*
X130633790Y-127639914D01*
X130109980Y-129116104D02*
X130109980Y-128639914D01*
X130586171Y-128592295D01*
X130538552Y-128639914D01*
X130490933Y-128735152D01*
X130490933Y-128973247D01*
X130538552Y-129068485D01*
X130586171Y-129116104D01*
X130681409Y-129163723D01*
X130919504Y-129163723D01*
X131014742Y-129116104D01*
X131062361Y-129068485D01*
X131109980Y-128973247D01*
X131109980Y-128735152D01*
X131062361Y-128639914D01*
X131014742Y-128592295D01*
X130109980Y-129782771D02*
X130109980Y-129878009D01*
X130157600Y-129973247D01*
X130205219Y-130020866D01*
X130300457Y-130068485D01*
X130490933Y-130116104D01*
X130729028Y-130116104D01*
X130919504Y-130068485D01*
X131014742Y-130020866D01*
X131062361Y-129973247D01*
X131109980Y-129878009D01*
X131109980Y-129782771D01*
X131062361Y-129687533D01*
X131014742Y-129639914D01*
X130919504Y-129592295D01*
X130729028Y-129544676D01*
X130490933Y-129544676D01*
X130300457Y-129592295D01*
X130205219Y-129639914D01*
X130157600Y-129687533D01*
X130109980Y-129782771D01*
X153360380Y-79417942D02*
X152884190Y-79084609D01*
X153360380Y-78846514D02*
X152360380Y-78846514D01*
X152360380Y-79227466D01*
X152408000Y-79322704D01*
X152455619Y-79370323D01*
X152550857Y-79417942D01*
X152693714Y-79417942D01*
X152788952Y-79370323D01*
X152836571Y-79322704D01*
X152884190Y-79227466D01*
X152884190Y-78846514D01*
X152693714Y-80275085D02*
X153360380Y-80275085D01*
X152312761Y-80036990D02*
X153027047Y-79798895D01*
X153027047Y-80417942D01*
X153360380Y-80846514D02*
X153360380Y-81036990D01*
X153312761Y-81132228D01*
X153265142Y-81179847D01*
X153122285Y-81275085D01*
X152931809Y-81322704D01*
X152550857Y-81322704D01*
X152455619Y-81275085D01*
X152408000Y-81227466D01*
X152360380Y-81132228D01*
X152360380Y-80941752D01*
X152408000Y-80846514D01*
X152455619Y-80798895D01*
X152550857Y-80751276D01*
X152788952Y-80751276D01*
X152884190Y-80798895D01*
X152931809Y-80846514D01*
X152979428Y-80941752D01*
X152979428Y-81132228D01*
X152931809Y-81227466D01*
X152884190Y-81275085D01*
X152788952Y-81322704D01*
X146045180Y-79392542D02*
X145568990Y-79059209D01*
X146045180Y-78821114D02*
X145045180Y-78821114D01*
X145045180Y-79202066D01*
X145092800Y-79297304D01*
X145140419Y-79344923D01*
X145235657Y-79392542D01*
X145378514Y-79392542D01*
X145473752Y-79344923D01*
X145521371Y-79297304D01*
X145568990Y-79202066D01*
X145568990Y-78821114D01*
X145378514Y-80249685D02*
X146045180Y-80249685D01*
X144997561Y-80011590D02*
X145711847Y-79773495D01*
X145711847Y-80392542D01*
X145473752Y-80916352D02*
X145426133Y-80821114D01*
X145378514Y-80773495D01*
X145283276Y-80725876D01*
X145235657Y-80725876D01*
X145140419Y-80773495D01*
X145092800Y-80821114D01*
X145045180Y-80916352D01*
X145045180Y-81106828D01*
X145092800Y-81202066D01*
X145140419Y-81249685D01*
X145235657Y-81297304D01*
X145283276Y-81297304D01*
X145378514Y-81249685D01*
X145426133Y-81202066D01*
X145473752Y-81106828D01*
X145473752Y-80916352D01*
X145521371Y-80821114D01*
X145568990Y-80773495D01*
X145664228Y-80725876D01*
X145854704Y-80725876D01*
X145949942Y-80773495D01*
X145997561Y-80821114D01*
X146045180Y-80916352D01*
X146045180Y-81106828D01*
X145997561Y-81202066D01*
X145949942Y-81249685D01*
X145854704Y-81297304D01*
X145664228Y-81297304D01*
X145568990Y-81249685D01*
X145521371Y-81202066D01*
X145473752Y-81106828D01*
X138272780Y-78859142D02*
X137796590Y-78525809D01*
X138272780Y-78287714D02*
X137272780Y-78287714D01*
X137272780Y-78668666D01*
X137320400Y-78763904D01*
X137368019Y-78811523D01*
X137463257Y-78859142D01*
X137606114Y-78859142D01*
X137701352Y-78811523D01*
X137748971Y-78763904D01*
X137796590Y-78668666D01*
X137796590Y-78287714D01*
X137606114Y-79716285D02*
X138272780Y-79716285D01*
X137225161Y-79478190D02*
X137939447Y-79240095D01*
X137939447Y-79859142D01*
X137272780Y-80144857D02*
X137272780Y-80811523D01*
X138272780Y-80382952D01*
X198140580Y-99661742D02*
X197664390Y-99328409D01*
X198140580Y-99090314D02*
X197140580Y-99090314D01*
X197140580Y-99471266D01*
X197188200Y-99566504D01*
X197235819Y-99614123D01*
X197331057Y-99661742D01*
X197473914Y-99661742D01*
X197569152Y-99614123D01*
X197616771Y-99566504D01*
X197664390Y-99471266D01*
X197664390Y-99090314D01*
X197473914Y-100518885D02*
X198140580Y-100518885D01*
X197092961Y-100280790D02*
X197807247Y-100042695D01*
X197807247Y-100661742D01*
X197473914Y-101471266D02*
X198140580Y-101471266D01*
X197092961Y-101233171D02*
X197807247Y-100995076D01*
X197807247Y-101614123D01*
X195765657Y-98064580D02*
X196098990Y-97588390D01*
X196337085Y-98064580D02*
X196337085Y-97064580D01*
X195956133Y-97064580D01*
X195860895Y-97112200D01*
X195813276Y-97159819D01*
X195765657Y-97255057D01*
X195765657Y-97397914D01*
X195813276Y-97493152D01*
X195860895Y-97540771D01*
X195956133Y-97588390D01*
X196337085Y-97588390D01*
X194908514Y-97397914D02*
X194908514Y-98064580D01*
X195146609Y-97016961D02*
X195384704Y-97731247D01*
X194765657Y-97731247D01*
X194479942Y-97064580D02*
X193860895Y-97064580D01*
X194194228Y-97445533D01*
X194051371Y-97445533D01*
X193956133Y-97493152D01*
X193908514Y-97540771D01*
X193860895Y-97636009D01*
X193860895Y-97874104D01*
X193908514Y-97969342D01*
X193956133Y-98016961D01*
X194051371Y-98064580D01*
X194337085Y-98064580D01*
X194432323Y-98016961D01*
X194479942Y-97969342D01*
X201213980Y-91711542D02*
X200737790Y-91378209D01*
X201213980Y-91140114D02*
X200213980Y-91140114D01*
X200213980Y-91521066D01*
X200261600Y-91616304D01*
X200309219Y-91663923D01*
X200404457Y-91711542D01*
X200547314Y-91711542D01*
X200642552Y-91663923D01*
X200690171Y-91616304D01*
X200737790Y-91521066D01*
X200737790Y-91140114D01*
X200547314Y-92568685D02*
X201213980Y-92568685D01*
X200166361Y-92330590D02*
X200880647Y-92092495D01*
X200880647Y-92711542D01*
X200309219Y-93044876D02*
X200261600Y-93092495D01*
X200213980Y-93187733D01*
X200213980Y-93425828D01*
X200261600Y-93521066D01*
X200309219Y-93568685D01*
X200404457Y-93616304D01*
X200499695Y-93616304D01*
X200642552Y-93568685D01*
X201213980Y-92997257D01*
X201213980Y-93616304D01*
X190965057Y-88717380D02*
X191298390Y-88241190D01*
X191536485Y-88717380D02*
X191536485Y-87717380D01*
X191155533Y-87717380D01*
X191060295Y-87765000D01*
X191012676Y-87812619D01*
X190965057Y-87907857D01*
X190965057Y-88050714D01*
X191012676Y-88145952D01*
X191060295Y-88193571D01*
X191155533Y-88241190D01*
X191536485Y-88241190D01*
X190107914Y-88050714D02*
X190107914Y-88717380D01*
X190346009Y-87669761D02*
X190584104Y-88384047D01*
X189965057Y-88384047D01*
X189060295Y-88717380D02*
X189631723Y-88717380D01*
X189346009Y-88717380D02*
X189346009Y-87717380D01*
X189441247Y-87860238D01*
X189536485Y-87955476D01*
X189631723Y-88003095D01*
X194278238Y-87023819D02*
X194373476Y-86976200D01*
X194468714Y-86880961D01*
X194611571Y-86738104D01*
X194706809Y-86690485D01*
X194802047Y-86690485D01*
X194754428Y-86928580D02*
X194849666Y-86880961D01*
X194944904Y-86785723D01*
X194992523Y-86595247D01*
X194992523Y-86261914D01*
X194944904Y-86071438D01*
X194849666Y-85976200D01*
X194754428Y-85928580D01*
X194563952Y-85928580D01*
X194468714Y-85976200D01*
X194373476Y-86071438D01*
X194325857Y-86261914D01*
X194325857Y-86595247D01*
X194373476Y-86785723D01*
X194468714Y-86880961D01*
X194563952Y-86928580D01*
X194754428Y-86928580D01*
X193849666Y-86928580D02*
X193659190Y-86928580D01*
X193563952Y-86880961D01*
X193516333Y-86833342D01*
X193421095Y-86690485D01*
X193373476Y-86500009D01*
X193373476Y-86119057D01*
X193421095Y-86023819D01*
X193468714Y-85976200D01*
X193563952Y-85928580D01*
X193754428Y-85928580D01*
X193849666Y-85976200D01*
X193897285Y-86023819D01*
X193944904Y-86119057D01*
X193944904Y-86357152D01*
X193897285Y-86452390D01*
X193849666Y-86500009D01*
X193754428Y-86547628D01*
X193563952Y-86547628D01*
X193468714Y-86500009D01*
X193421095Y-86452390D01*
X193373476Y-86357152D01*
X190696838Y-95670619D02*
X190792076Y-95623000D01*
X190887314Y-95527761D01*
X191030171Y-95384904D01*
X191125409Y-95337285D01*
X191220647Y-95337285D01*
X191173028Y-95575380D02*
X191268266Y-95527761D01*
X191363504Y-95432523D01*
X191411123Y-95242047D01*
X191411123Y-94908714D01*
X191363504Y-94718238D01*
X191268266Y-94623000D01*
X191173028Y-94575380D01*
X190982552Y-94575380D01*
X190887314Y-94623000D01*
X190792076Y-94718238D01*
X190744457Y-94908714D01*
X190744457Y-95242047D01*
X190792076Y-95432523D01*
X190887314Y-95527761D01*
X190982552Y-95575380D01*
X191173028Y-95575380D01*
X190173028Y-95003952D02*
X190268266Y-94956333D01*
X190315885Y-94908714D01*
X190363504Y-94813476D01*
X190363504Y-94765857D01*
X190315885Y-94670619D01*
X190268266Y-94623000D01*
X190173028Y-94575380D01*
X189982552Y-94575380D01*
X189887314Y-94623000D01*
X189839695Y-94670619D01*
X189792076Y-94765857D01*
X189792076Y-94813476D01*
X189839695Y-94908714D01*
X189887314Y-94956333D01*
X189982552Y-95003952D01*
X190173028Y-95003952D01*
X190268266Y-95051571D01*
X190315885Y-95099190D01*
X190363504Y-95194428D01*
X190363504Y-95384904D01*
X190315885Y-95480142D01*
X190268266Y-95527761D01*
X190173028Y-95575380D01*
X189982552Y-95575380D01*
X189887314Y-95527761D01*
X189839695Y-95480142D01*
X189792076Y-95384904D01*
X189792076Y-95194428D01*
X189839695Y-95099190D01*
X189887314Y-95051571D01*
X189982552Y-95003952D01*
X184670980Y-92092542D02*
X184194790Y-91759209D01*
X184670980Y-91521114D02*
X183670980Y-91521114D01*
X183670980Y-91902066D01*
X183718600Y-91997304D01*
X183766219Y-92044923D01*
X183861457Y-92092542D01*
X184004314Y-92092542D01*
X184099552Y-92044923D01*
X184147171Y-91997304D01*
X184194790Y-91902066D01*
X184194790Y-91521114D01*
X183670980Y-92425876D02*
X183670980Y-93044923D01*
X184051933Y-92711590D01*
X184051933Y-92854447D01*
X184099552Y-92949685D01*
X184147171Y-92997304D01*
X184242409Y-93044923D01*
X184480504Y-93044923D01*
X184575742Y-92997304D01*
X184623361Y-92949685D01*
X184670980Y-92854447D01*
X184670980Y-92568733D01*
X184623361Y-92473495D01*
X184575742Y-92425876D01*
X184099552Y-93616352D02*
X184051933Y-93521114D01*
X184004314Y-93473495D01*
X183909076Y-93425876D01*
X183861457Y-93425876D01*
X183766219Y-93473495D01*
X183718600Y-93521114D01*
X183670980Y-93616352D01*
X183670980Y-93806828D01*
X183718600Y-93902066D01*
X183766219Y-93949685D01*
X183861457Y-93997304D01*
X183909076Y-93997304D01*
X184004314Y-93949685D01*
X184051933Y-93902066D01*
X184099552Y-93806828D01*
X184099552Y-93616352D01*
X184147171Y-93521114D01*
X184194790Y-93473495D01*
X184290028Y-93425876D01*
X184480504Y-93425876D01*
X184575742Y-93473495D01*
X184623361Y-93521114D01*
X184670980Y-93616352D01*
X184670980Y-93806828D01*
X184623361Y-93902066D01*
X184575742Y-93949685D01*
X184480504Y-93997304D01*
X184290028Y-93997304D01*
X184194790Y-93949685D01*
X184147171Y-93902066D01*
X184099552Y-93806828D01*
X193332380Y-108094542D02*
X192856190Y-107761209D01*
X193332380Y-107523114D02*
X192332380Y-107523114D01*
X192332380Y-107904066D01*
X192380000Y-107999304D01*
X192427619Y-108046923D01*
X192522857Y-108094542D01*
X192665714Y-108094542D01*
X192760952Y-108046923D01*
X192808571Y-107999304D01*
X192856190Y-107904066D01*
X192856190Y-107523114D01*
X192332380Y-108427876D02*
X192332380Y-109046923D01*
X192713333Y-108713590D01*
X192713333Y-108856447D01*
X192760952Y-108951685D01*
X192808571Y-108999304D01*
X192903809Y-109046923D01*
X193141904Y-109046923D01*
X193237142Y-108999304D01*
X193284761Y-108951685D01*
X193332380Y-108856447D01*
X193332380Y-108570733D01*
X193284761Y-108475495D01*
X193237142Y-108427876D01*
X192665714Y-109904066D02*
X193332380Y-109904066D01*
X192284761Y-109665971D02*
X192999047Y-109427876D01*
X192999047Y-110046923D01*
X124912380Y-100068142D02*
X124436190Y-99734809D01*
X124912380Y-99496714D02*
X123912380Y-99496714D01*
X123912380Y-99877666D01*
X123960000Y-99972904D01*
X124007619Y-100020523D01*
X124102857Y-100068142D01*
X124245714Y-100068142D01*
X124340952Y-100020523D01*
X124388571Y-99972904D01*
X124436190Y-99877666D01*
X124436190Y-99496714D01*
X124007619Y-100449095D02*
X123960000Y-100496714D01*
X123912380Y-100591952D01*
X123912380Y-100830047D01*
X123960000Y-100925285D01*
X124007619Y-100972904D01*
X124102857Y-101020523D01*
X124198095Y-101020523D01*
X124340952Y-100972904D01*
X124912380Y-100401476D01*
X124912380Y-101020523D01*
X123912380Y-101877666D02*
X123912380Y-101687190D01*
X123960000Y-101591952D01*
X124007619Y-101544333D01*
X124150476Y-101449095D01*
X124340952Y-101401476D01*
X124721904Y-101401476D01*
X124817142Y-101449095D01*
X124864761Y-101496714D01*
X124912380Y-101591952D01*
X124912380Y-101782428D01*
X124864761Y-101877666D01*
X124817142Y-101925285D01*
X124721904Y-101972904D01*
X124483809Y-101972904D01*
X124388571Y-101925285D01*
X124340952Y-101877666D01*
X124293333Y-101782428D01*
X124293333Y-101591952D01*
X124340952Y-101496714D01*
X124388571Y-101449095D01*
X124483809Y-101401476D01*
X121989838Y-95812219D02*
X122085076Y-95764600D01*
X122180314Y-95669361D01*
X122323171Y-95526504D01*
X122418409Y-95478885D01*
X122513647Y-95478885D01*
X122466028Y-95716980D02*
X122561266Y-95669361D01*
X122656504Y-95574123D01*
X122704123Y-95383647D01*
X122704123Y-95050314D01*
X122656504Y-94859838D01*
X122561266Y-94764600D01*
X122466028Y-94716980D01*
X122275552Y-94716980D01*
X122180314Y-94764600D01*
X122085076Y-94859838D01*
X122037457Y-95050314D01*
X122037457Y-95383647D01*
X122085076Y-95574123D01*
X122180314Y-95669361D01*
X122275552Y-95716980D01*
X122466028Y-95716980D01*
X121132695Y-94716980D02*
X121608885Y-94716980D01*
X121656504Y-95193171D01*
X121608885Y-95145552D01*
X121513647Y-95097933D01*
X121275552Y-95097933D01*
X121180314Y-95145552D01*
X121132695Y-95193171D01*
X121085076Y-95288409D01*
X121085076Y-95526504D01*
X121132695Y-95621742D01*
X121180314Y-95669361D01*
X121275552Y-95716980D01*
X121513647Y-95716980D01*
X121608885Y-95669361D01*
X121656504Y-95621742D01*
X201858428Y-73175571D02*
X202191761Y-73175571D01*
X202191761Y-73699380D02*
X202191761Y-72699380D01*
X201715571Y-72699380D01*
X201334619Y-73699380D02*
X201334619Y-72699380D01*
X200858428Y-73699380D02*
X200858428Y-72699380D01*
X200620333Y-72699380D01*
X200477476Y-72747000D01*
X200382238Y-72842238D01*
X200334619Y-72937476D01*
X200287000Y-73127952D01*
X200287000Y-73270809D01*
X200334619Y-73461285D01*
X200382238Y-73556523D01*
X200477476Y-73651761D01*
X200620333Y-73699380D01*
X200858428Y-73699380D01*
X199429857Y-72699380D02*
X199620333Y-72699380D01*
X199715571Y-72747000D01*
X199763190Y-72794619D01*
X199858428Y-72937476D01*
X199906047Y-73127952D01*
X199906047Y-73508904D01*
X199858428Y-73604142D01*
X199810809Y-73651761D01*
X199715571Y-73699380D01*
X199525095Y-73699380D01*
X199429857Y-73651761D01*
X199382238Y-73604142D01*
X199334619Y-73508904D01*
X199334619Y-73270809D01*
X199382238Y-73175571D01*
X199429857Y-73127952D01*
X199525095Y-73080333D01*
X199715571Y-73080333D01*
X199810809Y-73127952D01*
X199858428Y-73175571D01*
X199906047Y-73270809D01*
X104830428Y-74115371D02*
X105163761Y-74115371D01*
X105163761Y-74639180D02*
X105163761Y-73639180D01*
X104687571Y-73639180D01*
X104306619Y-74639180D02*
X104306619Y-73639180D01*
X103830428Y-74639180D02*
X103830428Y-73639180D01*
X103592333Y-73639180D01*
X103449476Y-73686800D01*
X103354238Y-73782038D01*
X103306619Y-73877276D01*
X103259000Y-74067752D01*
X103259000Y-74210609D01*
X103306619Y-74401085D01*
X103354238Y-74496323D01*
X103449476Y-74591561D01*
X103592333Y-74639180D01*
X103830428Y-74639180D01*
X102354238Y-73639180D02*
X102830428Y-73639180D01*
X102878047Y-74115371D01*
X102830428Y-74067752D01*
X102735190Y-74020133D01*
X102497095Y-74020133D01*
X102401857Y-74067752D01*
X102354238Y-74115371D01*
X102306619Y-74210609D01*
X102306619Y-74448704D01*
X102354238Y-74543942D01*
X102401857Y-74591561D01*
X102497095Y-74639180D01*
X102735190Y-74639180D01*
X102830428Y-74591561D01*
X102878047Y-74543942D01*
X104805028Y-135151571D02*
X105138361Y-135151571D01*
X105138361Y-135675380D02*
X105138361Y-134675380D01*
X104662171Y-134675380D01*
X104281219Y-135675380D02*
X104281219Y-134675380D01*
X103805028Y-135675380D02*
X103805028Y-134675380D01*
X103566933Y-134675380D01*
X103424076Y-134723000D01*
X103328838Y-134818238D01*
X103281219Y-134913476D01*
X103233600Y-135103952D01*
X103233600Y-135246809D01*
X103281219Y-135437285D01*
X103328838Y-135532523D01*
X103424076Y-135627761D01*
X103566933Y-135675380D01*
X103805028Y-135675380D01*
X102376457Y-135008714D02*
X102376457Y-135675380D01*
X102614552Y-134627761D02*
X102852647Y-135342047D01*
X102233600Y-135342047D01*
X132824457Y-104058980D02*
X133157790Y-103582790D01*
X133395885Y-104058980D02*
X133395885Y-103058980D01*
X133014933Y-103058980D01*
X132919695Y-103106600D01*
X132872076Y-103154219D01*
X132824457Y-103249457D01*
X132824457Y-103392314D01*
X132872076Y-103487552D01*
X132919695Y-103535171D01*
X133014933Y-103582790D01*
X133395885Y-103582790D01*
X132443504Y-103154219D02*
X132395885Y-103106600D01*
X132300647Y-103058980D01*
X132062552Y-103058980D01*
X131967314Y-103106600D01*
X131919695Y-103154219D01*
X131872076Y-103249457D01*
X131872076Y-103344695D01*
X131919695Y-103487552D01*
X132491123Y-104058980D01*
X131872076Y-104058980D01*
X130919695Y-104058980D02*
X131491123Y-104058980D01*
X131205409Y-104058980D02*
X131205409Y-103058980D01*
X131300647Y-103201838D01*
X131395885Y-103297076D01*
X131491123Y-103344695D01*
X127299980Y-92727542D02*
X126823790Y-92394209D01*
X127299980Y-92156114D02*
X126299980Y-92156114D01*
X126299980Y-92537066D01*
X126347600Y-92632304D01*
X126395219Y-92679923D01*
X126490457Y-92727542D01*
X126633314Y-92727542D01*
X126728552Y-92679923D01*
X126776171Y-92632304D01*
X126823790Y-92537066D01*
X126823790Y-92156114D01*
X126395219Y-93108495D02*
X126347600Y-93156114D01*
X126299980Y-93251352D01*
X126299980Y-93489447D01*
X126347600Y-93584685D01*
X126395219Y-93632304D01*
X126490457Y-93679923D01*
X126585695Y-93679923D01*
X126728552Y-93632304D01*
X127299980Y-93060876D01*
X127299980Y-93679923D01*
X126299980Y-94298971D02*
X126299980Y-94394209D01*
X126347600Y-94489447D01*
X126395219Y-94537066D01*
X126490457Y-94584685D01*
X126680933Y-94632304D01*
X126919028Y-94632304D01*
X127109504Y-94584685D01*
X127204742Y-94537066D01*
X127252361Y-94489447D01*
X127299980Y-94394209D01*
X127299980Y-94298971D01*
X127252361Y-94203733D01*
X127204742Y-94156114D01*
X127109504Y-94108495D01*
X126919028Y-94060876D01*
X126680933Y-94060876D01*
X126490457Y-94108495D01*
X126395219Y-94156114D01*
X126347600Y-94203733D01*
X126299980Y-94298971D01*
X127871457Y-107767380D02*
X128204790Y-107291190D01*
X128442885Y-107767380D02*
X128442885Y-106767380D01*
X128061933Y-106767380D01*
X127966695Y-106815000D01*
X127919076Y-106862619D01*
X127871457Y-106957857D01*
X127871457Y-107100714D01*
X127919076Y-107195952D01*
X127966695Y-107243571D01*
X128061933Y-107291190D01*
X128442885Y-107291190D01*
X126919076Y-107767380D02*
X127490504Y-107767380D01*
X127204790Y-107767380D02*
X127204790Y-106767380D01*
X127300028Y-106910238D01*
X127395266Y-107005476D01*
X127490504Y-107053095D01*
X126442885Y-107767380D02*
X126252409Y-107767380D01*
X126157171Y-107719761D01*
X126109552Y-107672142D01*
X126014314Y-107529285D01*
X125966695Y-107338809D01*
X125966695Y-106957857D01*
X126014314Y-106862619D01*
X126061933Y-106815000D01*
X126157171Y-106767380D01*
X126347647Y-106767380D01*
X126442885Y-106815000D01*
X126490504Y-106862619D01*
X126538123Y-106957857D01*
X126538123Y-107195952D01*
X126490504Y-107291190D01*
X126442885Y-107338809D01*
X126347647Y-107386428D01*
X126157171Y-107386428D01*
X126061933Y-107338809D01*
X126014314Y-107291190D01*
X125966695Y-107195952D01*
X130220980Y-109059742D02*
X129744790Y-108726409D01*
X130220980Y-108488314D02*
X129220980Y-108488314D01*
X129220980Y-108869266D01*
X129268600Y-108964504D01*
X129316219Y-109012123D01*
X129411457Y-109059742D01*
X129554314Y-109059742D01*
X129649552Y-109012123D01*
X129697171Y-108964504D01*
X129744790Y-108869266D01*
X129744790Y-108488314D01*
X130220980Y-110012123D02*
X130220980Y-109440695D01*
X130220980Y-109726409D02*
X129220980Y-109726409D01*
X129363838Y-109631171D01*
X129459076Y-109535933D01*
X129506695Y-109440695D01*
X129649552Y-110583552D02*
X129601933Y-110488314D01*
X129554314Y-110440695D01*
X129459076Y-110393076D01*
X129411457Y-110393076D01*
X129316219Y-110440695D01*
X129268600Y-110488314D01*
X129220980Y-110583552D01*
X129220980Y-110774028D01*
X129268600Y-110869266D01*
X129316219Y-110916885D01*
X129411457Y-110964504D01*
X129459076Y-110964504D01*
X129554314Y-110916885D01*
X129601933Y-110869266D01*
X129649552Y-110774028D01*
X129649552Y-110583552D01*
X129697171Y-110488314D01*
X129744790Y-110440695D01*
X129840028Y-110393076D01*
X130030504Y-110393076D01*
X130125742Y-110440695D01*
X130173361Y-110488314D01*
X130220980Y-110583552D01*
X130220980Y-110774028D01*
X130173361Y-110869266D01*
X130125742Y-110916885D01*
X130030504Y-110964504D01*
X129840028Y-110964504D01*
X129744790Y-110916885D01*
X129697171Y-110869266D01*
X129649552Y-110774028D01*
X131617980Y-109059742D02*
X131141790Y-108726409D01*
X131617980Y-108488314D02*
X130617980Y-108488314D01*
X130617980Y-108869266D01*
X130665600Y-108964504D01*
X130713219Y-109012123D01*
X130808457Y-109059742D01*
X130951314Y-109059742D01*
X131046552Y-109012123D01*
X131094171Y-108964504D01*
X131141790Y-108869266D01*
X131141790Y-108488314D01*
X131617980Y-110012123D02*
X131617980Y-109440695D01*
X131617980Y-109726409D02*
X130617980Y-109726409D01*
X130760838Y-109631171D01*
X130856076Y-109535933D01*
X130903695Y-109440695D01*
X130617980Y-110345457D02*
X130617980Y-111012123D01*
X131617980Y-110583552D01*
X129992380Y-98086942D02*
X129516190Y-97753609D01*
X129992380Y-97515514D02*
X128992380Y-97515514D01*
X128992380Y-97896466D01*
X129040000Y-97991704D01*
X129087619Y-98039323D01*
X129182857Y-98086942D01*
X129325714Y-98086942D01*
X129420952Y-98039323D01*
X129468571Y-97991704D01*
X129516190Y-97896466D01*
X129516190Y-97515514D01*
X129992380Y-99039323D02*
X129992380Y-98467895D01*
X129992380Y-98753609D02*
X128992380Y-98753609D01*
X129135238Y-98658371D01*
X129230476Y-98563133D01*
X129278095Y-98467895D01*
X128992380Y-99896466D02*
X128992380Y-99705990D01*
X129040000Y-99610752D01*
X129087619Y-99563133D01*
X129230476Y-99467895D01*
X129420952Y-99420276D01*
X129801904Y-99420276D01*
X129897142Y-99467895D01*
X129944761Y-99515514D01*
X129992380Y-99610752D01*
X129992380Y-99801228D01*
X129944761Y-99896466D01*
X129897142Y-99944085D01*
X129801904Y-99991704D01*
X129563809Y-99991704D01*
X129468571Y-99944085D01*
X129420952Y-99896466D01*
X129373333Y-99801228D01*
X129373333Y-99610752D01*
X129420952Y-99515514D01*
X129468571Y-99467895D01*
X129563809Y-99420276D01*
X131008380Y-93184742D02*
X130532190Y-92851409D01*
X131008380Y-92613314D02*
X130008380Y-92613314D01*
X130008380Y-92994266D01*
X130056000Y-93089504D01*
X130103619Y-93137123D01*
X130198857Y-93184742D01*
X130341714Y-93184742D01*
X130436952Y-93137123D01*
X130484571Y-93089504D01*
X130532190Y-92994266D01*
X130532190Y-92613314D01*
X131008380Y-94137123D02*
X131008380Y-93565695D01*
X131008380Y-93851409D02*
X130008380Y-93851409D01*
X130151238Y-93756171D01*
X130246476Y-93660933D01*
X130294095Y-93565695D01*
X130008380Y-95041885D02*
X130008380Y-94565695D01*
X130484571Y-94518076D01*
X130436952Y-94565695D01*
X130389333Y-94660933D01*
X130389333Y-94899028D01*
X130436952Y-94994266D01*
X130484571Y-95041885D01*
X130579809Y-95089504D01*
X130817904Y-95089504D01*
X130913142Y-95041885D01*
X130960761Y-94994266D01*
X131008380Y-94899028D01*
X131008380Y-94660933D01*
X130960761Y-94565695D01*
X130913142Y-94518076D01*
X133522980Y-95699342D02*
X133046790Y-95366009D01*
X133522980Y-95127914D02*
X132522980Y-95127914D01*
X132522980Y-95508866D01*
X132570600Y-95604104D01*
X132618219Y-95651723D01*
X132713457Y-95699342D01*
X132856314Y-95699342D01*
X132951552Y-95651723D01*
X132999171Y-95604104D01*
X133046790Y-95508866D01*
X133046790Y-95127914D01*
X133522980Y-96651723D02*
X133522980Y-96080295D01*
X133522980Y-96366009D02*
X132522980Y-96366009D01*
X132665838Y-96270771D01*
X132761076Y-96175533D01*
X132808695Y-96080295D01*
X132856314Y-97508866D02*
X133522980Y-97508866D01*
X132475361Y-97270771D02*
X133189647Y-97032676D01*
X133189647Y-97651723D01*
X134297657Y-102033342D02*
X134345276Y-102080961D01*
X134488133Y-102128580D01*
X134583371Y-102128580D01*
X134726228Y-102080961D01*
X134821466Y-101985723D01*
X134869085Y-101890485D01*
X134916704Y-101700009D01*
X134916704Y-101557152D01*
X134869085Y-101366676D01*
X134821466Y-101271438D01*
X134726228Y-101176200D01*
X134583371Y-101128580D01*
X134488133Y-101128580D01*
X134345276Y-101176200D01*
X134297657Y-101223819D01*
X133345276Y-102128580D02*
X133916704Y-102128580D01*
X133630990Y-102128580D02*
X133630990Y-101128580D01*
X133726228Y-101271438D01*
X133821466Y-101366676D01*
X133916704Y-101414295D01*
X132392895Y-102128580D02*
X132964323Y-102128580D01*
X132678609Y-102128580D02*
X132678609Y-101128580D01*
X132773847Y-101271438D01*
X132869085Y-101366676D01*
X132964323Y-101414295D01*
M02*
