G04 #@! TF.GenerationSoftware,KiCad,Pcbnew,(5.1.5)-3*
G04 #@! TF.CreationDate,2020-07-03T00:09:44-07:00*
G04 #@! TF.ProjectId,Pufferfish-Power-1,50756666-6572-4666-9973-682d506f7765,v0.1*
G04 #@! TF.SameCoordinates,Original*
G04 #@! TF.FileFunction,Soldermask,Bot*
G04 #@! TF.FilePolarity,Negative*
%FSLAX46Y46*%
G04 Gerber Fmt 4.6, Leading zero omitted, Abs format (unit mm)*
G04 Created by KiCad (PCBNEW (5.1.5)-3) date 2020-07-03 00:09:44*
%MOMM*%
%LPD*%
G04 APERTURE LIST*
%ADD10C,0.100000*%
G04 APERTURE END LIST*
D10*
G36*
X95581086Y-130238640D02*
G01*
X96136296Y-130468616D01*
X96635972Y-130802489D01*
X97060911Y-131227428D01*
X97394784Y-131727104D01*
X97624760Y-132282314D01*
X97742000Y-132871722D01*
X97742000Y-133472678D01*
X97624760Y-134062086D01*
X97394784Y-134617296D01*
X97060911Y-135116972D01*
X96635972Y-135541911D01*
X96136296Y-135875784D01*
X95581086Y-136105760D01*
X94991678Y-136223000D01*
X94390722Y-136223000D01*
X93801314Y-136105760D01*
X93246104Y-135875784D01*
X92746428Y-135541911D01*
X92321489Y-135116972D01*
X91987616Y-134617296D01*
X91757640Y-134062086D01*
X91640400Y-133472678D01*
X91640400Y-132871722D01*
X91757640Y-132282314D01*
X91987616Y-131727104D01*
X92321489Y-131227428D01*
X92746428Y-130802489D01*
X93246104Y-130468616D01*
X93801314Y-130238640D01*
X94390722Y-130121400D01*
X94991678Y-130121400D01*
X95581086Y-130238640D01*
G37*
G36*
X209728686Y-129806840D02*
G01*
X210283896Y-130036816D01*
X210783572Y-130370689D01*
X211208511Y-130795628D01*
X211542384Y-131295304D01*
X211772360Y-131850514D01*
X211889600Y-132439922D01*
X211889600Y-133040878D01*
X211772360Y-133630286D01*
X211542384Y-134185496D01*
X211208511Y-134685172D01*
X210783572Y-135110111D01*
X210283896Y-135443984D01*
X209728686Y-135673960D01*
X209139278Y-135791200D01*
X208538322Y-135791200D01*
X207948914Y-135673960D01*
X207393704Y-135443984D01*
X206894028Y-135110111D01*
X206469089Y-134685172D01*
X206135216Y-134185496D01*
X205905240Y-133630286D01*
X205788000Y-133040878D01*
X205788000Y-132439922D01*
X205905240Y-131850514D01*
X206135216Y-131295304D01*
X206469089Y-130795628D01*
X206894028Y-130370689D01*
X207393704Y-130036816D01*
X207948914Y-129806840D01*
X208538322Y-129689600D01*
X209139278Y-129689600D01*
X209728686Y-129806840D01*
G37*
G36*
X158012600Y-129272664D02*
G01*
X158326624Y-129335127D01*
X158918231Y-129580178D01*
X159450665Y-129935939D01*
X159903461Y-130388735D01*
X160259222Y-130921169D01*
X160504273Y-131512776D01*
X160511459Y-131548904D01*
X160629200Y-132140824D01*
X160629200Y-132781176D01*
X160577576Y-133040707D01*
X160504273Y-133409224D01*
X160259222Y-134000831D01*
X159903461Y-134533265D01*
X159450665Y-134986061D01*
X158918231Y-135341822D01*
X158326624Y-135586873D01*
X158080984Y-135635734D01*
X157698576Y-135711800D01*
X157058224Y-135711800D01*
X156675816Y-135635734D01*
X156430176Y-135586873D01*
X155838569Y-135341822D01*
X155306135Y-134986061D01*
X154853339Y-134533265D01*
X154497578Y-134000831D01*
X154252527Y-133409224D01*
X154179224Y-133040707D01*
X154127600Y-132781176D01*
X154127600Y-132140824D01*
X154245341Y-131548904D01*
X154252527Y-131512776D01*
X154497578Y-130921169D01*
X154853339Y-130388735D01*
X155306135Y-129935939D01*
X155838569Y-129580178D01*
X156430176Y-129335127D01*
X156744200Y-129272664D01*
X157058224Y-129210200D01*
X157698576Y-129210200D01*
X158012600Y-129272664D01*
G37*
G36*
X104025289Y-132261429D02*
G01*
X104207278Y-132336811D01*
X104371063Y-132446249D01*
X104510351Y-132585537D01*
X104619789Y-132749322D01*
X104695171Y-132931311D01*
X104733600Y-133124509D01*
X104733600Y-133321491D01*
X104695171Y-133514689D01*
X104619789Y-133696678D01*
X104510351Y-133860463D01*
X104371063Y-133999751D01*
X104207278Y-134109189D01*
X104025289Y-134184571D01*
X103832091Y-134223000D01*
X103635109Y-134223000D01*
X103441911Y-134184571D01*
X103259922Y-134109189D01*
X103096137Y-133999751D01*
X102956849Y-133860463D01*
X102847411Y-133696678D01*
X102772029Y-133514689D01*
X102733600Y-133321491D01*
X102733600Y-133124509D01*
X102772029Y-132931311D01*
X102847411Y-132749322D01*
X102956849Y-132585537D01*
X103096137Y-132446249D01*
X103259922Y-132336811D01*
X103441911Y-132261429D01*
X103635109Y-132223000D01*
X103832091Y-132223000D01*
X104025289Y-132261429D01*
G37*
G36*
X146836677Y-127481074D02*
G01*
X146870445Y-127491318D01*
X146901572Y-127507955D01*
X146928855Y-127530345D01*
X146951245Y-127557628D01*
X146967882Y-127588755D01*
X146978126Y-127622523D01*
X146982200Y-127663893D01*
X146982200Y-128266707D01*
X146978126Y-128308077D01*
X146967882Y-128341845D01*
X146951245Y-128372972D01*
X146928855Y-128400255D01*
X146901572Y-128422645D01*
X146870445Y-128439282D01*
X146836677Y-128449526D01*
X146795307Y-128453600D01*
X146117493Y-128453600D01*
X146076123Y-128449526D01*
X146042355Y-128439282D01*
X146011228Y-128422645D01*
X145983945Y-128400255D01*
X145961555Y-128372972D01*
X145944918Y-128341845D01*
X145934674Y-128308077D01*
X145930600Y-128266707D01*
X145930600Y-127663893D01*
X145934674Y-127622523D01*
X145944918Y-127588755D01*
X145961555Y-127557628D01*
X145983945Y-127530345D01*
X146011228Y-127507955D01*
X146042355Y-127491318D01*
X146076123Y-127481074D01*
X146117493Y-127477000D01*
X146795307Y-127477000D01*
X146836677Y-127481074D01*
G37*
G36*
X99208593Y-123125474D02*
G01*
X99619996Y-123295882D01*
X99784321Y-123405681D01*
X99990249Y-123543277D01*
X100305123Y-123858151D01*
X100403949Y-124006055D01*
X100552518Y-124228404D01*
X100722926Y-124639807D01*
X100809800Y-125076550D01*
X100809800Y-125521850D01*
X100722926Y-125958593D01*
X100552518Y-126369996D01*
X100439095Y-126539745D01*
X100305123Y-126740249D01*
X99990249Y-127055123D01*
X99805122Y-127178820D01*
X99619996Y-127302518D01*
X99208593Y-127472926D01*
X98771850Y-127559800D01*
X98326550Y-127559800D01*
X97889807Y-127472926D01*
X97478404Y-127302518D01*
X97293278Y-127178821D01*
X97108151Y-127055123D01*
X96793277Y-126740249D01*
X96659305Y-126539745D01*
X96545882Y-126369996D01*
X96375474Y-125958593D01*
X96288600Y-125521850D01*
X96288600Y-125076550D01*
X96375474Y-124639807D01*
X96545882Y-124228404D01*
X96694451Y-124006055D01*
X96793277Y-123858151D01*
X97108151Y-123543277D01*
X97314079Y-123405681D01*
X97478404Y-123295882D01*
X97889807Y-123125474D01*
X98326550Y-123038600D01*
X98771850Y-123038600D01*
X99208593Y-123125474D01*
G37*
G36*
X139394477Y-126490474D02*
G01*
X139428245Y-126500718D01*
X139459372Y-126517355D01*
X139486655Y-126539745D01*
X139509045Y-126567028D01*
X139525682Y-126598155D01*
X139535926Y-126631923D01*
X139540000Y-126673293D01*
X139540000Y-127276107D01*
X139535926Y-127317477D01*
X139525682Y-127351245D01*
X139509045Y-127382372D01*
X139486655Y-127409655D01*
X139459372Y-127432045D01*
X139428245Y-127448682D01*
X139394477Y-127458926D01*
X139353107Y-127463000D01*
X138675293Y-127463000D01*
X138633923Y-127458926D01*
X138600155Y-127448682D01*
X138569028Y-127432045D01*
X138541745Y-127409655D01*
X138519355Y-127382372D01*
X138502718Y-127351245D01*
X138492474Y-127317477D01*
X138488400Y-127276107D01*
X138488400Y-126673293D01*
X138492474Y-126631923D01*
X138502718Y-126598155D01*
X138519355Y-126567028D01*
X138541745Y-126539745D01*
X138569028Y-126517355D01*
X138600155Y-126500718D01*
X138633923Y-126490474D01*
X138675293Y-126486400D01*
X139353107Y-126486400D01*
X139394477Y-126490474D01*
G37*
G36*
X134156400Y-127027600D02*
G01*
X133254800Y-127027600D01*
X133254800Y-126026000D01*
X134156400Y-126026000D01*
X134156400Y-127027600D01*
G37*
G36*
X131164877Y-125957074D02*
G01*
X131198645Y-125967318D01*
X131229772Y-125983955D01*
X131257055Y-126006345D01*
X131279445Y-126033628D01*
X131296082Y-126064755D01*
X131306326Y-126098523D01*
X131310400Y-126139893D01*
X131310400Y-126742707D01*
X131306326Y-126784077D01*
X131296082Y-126817845D01*
X131279445Y-126848972D01*
X131257055Y-126876255D01*
X131229772Y-126898645D01*
X131198645Y-126915282D01*
X131164877Y-126925526D01*
X131123507Y-126929600D01*
X130445693Y-126929600D01*
X130404323Y-126925526D01*
X130370555Y-126915282D01*
X130339428Y-126898645D01*
X130312145Y-126876255D01*
X130289755Y-126848972D01*
X130273118Y-126817845D01*
X130262874Y-126784077D01*
X130258800Y-126742707D01*
X130258800Y-126139893D01*
X130262874Y-126098523D01*
X130273118Y-126064755D01*
X130289755Y-126033628D01*
X130312145Y-126006345D01*
X130339428Y-125983955D01*
X130370555Y-125967318D01*
X130404323Y-125957074D01*
X130445693Y-125953000D01*
X131123507Y-125953000D01*
X131164877Y-125957074D01*
G37*
G36*
X142005000Y-126900600D02*
G01*
X141103400Y-126900600D01*
X141103400Y-125899000D01*
X142005000Y-125899000D01*
X142005000Y-126900600D01*
G37*
G36*
X146836677Y-125906074D02*
G01*
X146870445Y-125916318D01*
X146901572Y-125932955D01*
X146928855Y-125955345D01*
X146951245Y-125982628D01*
X146967882Y-126013755D01*
X146978126Y-126047523D01*
X146982200Y-126088893D01*
X146982200Y-126691707D01*
X146978126Y-126733077D01*
X146967882Y-126766845D01*
X146951245Y-126797972D01*
X146928855Y-126825255D01*
X146901572Y-126847645D01*
X146870445Y-126864282D01*
X146836677Y-126874526D01*
X146795307Y-126878600D01*
X146117493Y-126878600D01*
X146076123Y-126874526D01*
X146042355Y-126864282D01*
X146011228Y-126847645D01*
X145983945Y-126825255D01*
X145961555Y-126797972D01*
X145944918Y-126766845D01*
X145934674Y-126733077D01*
X145930600Y-126691707D01*
X145930600Y-126088893D01*
X145934674Y-126047523D01*
X145944918Y-126013755D01*
X145961555Y-125982628D01*
X145983945Y-125955345D01*
X146011228Y-125932955D01*
X146042355Y-125916318D01*
X146076123Y-125906074D01*
X146117493Y-125902000D01*
X146795307Y-125902000D01*
X146836677Y-125906074D01*
G37*
G36*
X149421800Y-126875200D02*
G01*
X148520200Y-126875200D01*
X148520200Y-125873600D01*
X149421800Y-125873600D01*
X149421800Y-126875200D01*
G37*
G36*
X139394477Y-124915474D02*
G01*
X139428245Y-124925718D01*
X139459372Y-124942355D01*
X139486655Y-124964745D01*
X139509045Y-124992028D01*
X139525682Y-125023155D01*
X139535926Y-125056923D01*
X139540000Y-125098293D01*
X139540000Y-125701107D01*
X139535926Y-125742477D01*
X139525682Y-125776245D01*
X139509045Y-125807372D01*
X139486655Y-125834655D01*
X139459372Y-125857045D01*
X139428245Y-125873682D01*
X139394477Y-125883926D01*
X139353107Y-125888000D01*
X138675293Y-125888000D01*
X138633923Y-125883926D01*
X138600155Y-125873682D01*
X138569028Y-125857045D01*
X138541745Y-125834655D01*
X138519355Y-125807372D01*
X138502718Y-125776245D01*
X138492474Y-125742477D01*
X138488400Y-125701107D01*
X138488400Y-125098293D01*
X138492474Y-125056923D01*
X138502718Y-125023155D01*
X138519355Y-124992028D01*
X138541745Y-124964745D01*
X138569028Y-124942355D01*
X138600155Y-124925718D01*
X138633923Y-124915474D01*
X138675293Y-124911400D01*
X139353107Y-124911400D01*
X139394477Y-124915474D01*
G37*
G36*
X204349200Y-125863200D02*
G01*
X201847600Y-125863200D01*
X201847600Y-123361600D01*
X204349200Y-123361600D01*
X204349200Y-125863200D01*
G37*
G36*
X131164877Y-124382074D02*
G01*
X131198645Y-124392318D01*
X131229772Y-124408955D01*
X131257055Y-124431345D01*
X131279445Y-124458628D01*
X131296082Y-124489755D01*
X131306326Y-124523523D01*
X131310400Y-124564893D01*
X131310400Y-125167707D01*
X131306326Y-125209077D01*
X131296082Y-125242845D01*
X131279445Y-125273972D01*
X131257055Y-125301255D01*
X131229772Y-125323645D01*
X131198645Y-125340282D01*
X131164877Y-125350526D01*
X131123507Y-125354600D01*
X130445693Y-125354600D01*
X130404323Y-125350526D01*
X130370555Y-125340282D01*
X130339428Y-125323645D01*
X130312145Y-125301255D01*
X130289755Y-125273972D01*
X130273118Y-125242845D01*
X130262874Y-125209077D01*
X130258800Y-125167707D01*
X130258800Y-124564893D01*
X130262874Y-124523523D01*
X130273118Y-124489755D01*
X130289755Y-124458628D01*
X130312145Y-124431345D01*
X130339428Y-124408955D01*
X130370555Y-124392318D01*
X130404323Y-124382074D01*
X130445693Y-124378000D01*
X131123507Y-124378000D01*
X131164877Y-124382074D01*
G37*
G36*
X133206400Y-125027600D02*
G01*
X132304800Y-125027600D01*
X132304800Y-124026000D01*
X133206400Y-124026000D01*
X133206400Y-125027600D01*
G37*
G36*
X135106400Y-125027600D02*
G01*
X134204800Y-125027600D01*
X134204800Y-124026000D01*
X135106400Y-124026000D01*
X135106400Y-125027600D01*
G37*
G36*
X141055000Y-124900600D02*
G01*
X140153400Y-124900600D01*
X140153400Y-123899000D01*
X141055000Y-123899000D01*
X141055000Y-124900600D01*
G37*
G36*
X142955000Y-124900600D02*
G01*
X142053400Y-124900600D01*
X142053400Y-123899000D01*
X142955000Y-123899000D01*
X142955000Y-124900600D01*
G37*
G36*
X148471800Y-124875200D02*
G01*
X147570200Y-124875200D01*
X147570200Y-123873600D01*
X148471800Y-123873600D01*
X148471800Y-124875200D01*
G37*
G36*
X150371800Y-124875200D02*
G01*
X149470200Y-124875200D01*
X149470200Y-123873600D01*
X150371800Y-123873600D01*
X150371800Y-124875200D01*
G37*
G36*
X153897877Y-123086874D02*
G01*
X153931645Y-123097118D01*
X153962772Y-123113755D01*
X153990055Y-123136145D01*
X154012445Y-123163428D01*
X154029082Y-123194555D01*
X154039326Y-123228323D01*
X154043400Y-123269693D01*
X154043400Y-123872507D01*
X154039326Y-123913877D01*
X154029082Y-123947645D01*
X154012445Y-123978772D01*
X153990055Y-124006055D01*
X153962772Y-124028445D01*
X153931645Y-124045082D01*
X153897877Y-124055326D01*
X153856507Y-124059400D01*
X153178693Y-124059400D01*
X153137323Y-124055326D01*
X153103555Y-124045082D01*
X153072428Y-124028445D01*
X153045145Y-124006055D01*
X153022755Y-123978772D01*
X153006118Y-123947645D01*
X152995874Y-123913877D01*
X152991800Y-123872507D01*
X152991800Y-123269693D01*
X152995874Y-123228323D01*
X153006118Y-123194555D01*
X153022755Y-123163428D01*
X153045145Y-123136145D01*
X153072428Y-123113755D01*
X153103555Y-123097118D01*
X153137323Y-123086874D01*
X153178693Y-123082800D01*
X153856507Y-123082800D01*
X153897877Y-123086874D01*
G37*
G36*
X146176277Y-122985274D02*
G01*
X146210045Y-122995518D01*
X146241172Y-123012155D01*
X146268455Y-123034545D01*
X146290845Y-123061828D01*
X146307482Y-123092955D01*
X146317726Y-123126723D01*
X146321800Y-123168093D01*
X146321800Y-123770907D01*
X146317726Y-123812277D01*
X146307482Y-123846045D01*
X146290845Y-123877172D01*
X146268455Y-123904455D01*
X146241172Y-123926845D01*
X146210045Y-123943482D01*
X146176277Y-123953726D01*
X146134907Y-123957800D01*
X145457093Y-123957800D01*
X145415723Y-123953726D01*
X145381955Y-123943482D01*
X145350828Y-123926845D01*
X145323545Y-123904455D01*
X145301155Y-123877172D01*
X145284518Y-123846045D01*
X145274274Y-123812277D01*
X145270200Y-123770907D01*
X145270200Y-123168093D01*
X145274274Y-123126723D01*
X145284518Y-123092955D01*
X145301155Y-123061828D01*
X145323545Y-123034545D01*
X145350828Y-123012155D01*
X145381955Y-122995518D01*
X145415723Y-122985274D01*
X145457093Y-122981200D01*
X146134907Y-122981200D01*
X146176277Y-122985274D01*
G37*
G36*
X138302277Y-122629674D02*
G01*
X138336045Y-122639918D01*
X138367172Y-122656555D01*
X138394455Y-122678945D01*
X138416845Y-122706228D01*
X138433482Y-122737355D01*
X138443726Y-122771123D01*
X138447800Y-122812493D01*
X138447800Y-123415307D01*
X138443726Y-123456677D01*
X138433482Y-123490445D01*
X138416845Y-123521572D01*
X138394455Y-123548855D01*
X138367172Y-123571245D01*
X138336045Y-123587882D01*
X138302277Y-123598126D01*
X138260907Y-123602200D01*
X137583093Y-123602200D01*
X137541723Y-123598126D01*
X137507955Y-123587882D01*
X137476828Y-123571245D01*
X137449545Y-123548855D01*
X137427155Y-123521572D01*
X137410518Y-123490445D01*
X137400274Y-123456677D01*
X137396200Y-123415307D01*
X137396200Y-122812493D01*
X137400274Y-122771123D01*
X137410518Y-122737355D01*
X137427155Y-122706228D01*
X137449545Y-122678945D01*
X137476828Y-122656555D01*
X137507955Y-122639918D01*
X137541723Y-122629674D01*
X137583093Y-122625600D01*
X138260907Y-122625600D01*
X138302277Y-122629674D01*
G37*
G36*
X133833583Y-120386953D02*
G01*
X134097612Y-120496318D01*
X134335231Y-120655090D01*
X134537310Y-120857169D01*
X134696082Y-121094788D01*
X134805447Y-121358817D01*
X134861200Y-121639109D01*
X134861200Y-121924891D01*
X134805447Y-122205183D01*
X134696082Y-122469212D01*
X134537310Y-122706831D01*
X134335231Y-122908910D01*
X134097612Y-123067682D01*
X133833583Y-123177047D01*
X133553291Y-123232800D01*
X133267509Y-123232800D01*
X132987217Y-123177047D01*
X132723188Y-123067682D01*
X132485569Y-122908910D01*
X132283490Y-122706831D01*
X132124718Y-122469212D01*
X132015353Y-122205183D01*
X131959600Y-121924891D01*
X131959600Y-121639109D01*
X132015353Y-121358817D01*
X132124718Y-121094788D01*
X132283490Y-120857169D01*
X132485569Y-120655090D01*
X132723188Y-120496318D01*
X132987217Y-120386953D01*
X133267509Y-120331200D01*
X133553291Y-120331200D01*
X133833583Y-120386953D01*
G37*
G36*
X141443983Y-120245553D02*
G01*
X141708012Y-120354918D01*
X141945631Y-120513690D01*
X142147710Y-120715769D01*
X142306482Y-120953388D01*
X142415847Y-121217417D01*
X142471600Y-121497709D01*
X142471600Y-121783491D01*
X142415847Y-122063783D01*
X142306482Y-122327812D01*
X142147710Y-122565431D01*
X141945631Y-122767510D01*
X141708012Y-122926282D01*
X141443983Y-123035647D01*
X141163691Y-123091400D01*
X140877909Y-123091400D01*
X140597617Y-123035647D01*
X140333588Y-122926282D01*
X140095969Y-122767510D01*
X139893890Y-122565431D01*
X139735118Y-122327812D01*
X139625753Y-122063783D01*
X139570000Y-121783491D01*
X139570000Y-121497709D01*
X139625753Y-121217417D01*
X139735118Y-120953388D01*
X139893890Y-120715769D01*
X140095969Y-120513690D01*
X140333588Y-120354918D01*
X140597617Y-120245553D01*
X140877909Y-120189800D01*
X141163691Y-120189800D01*
X141443983Y-120245553D01*
G37*
G36*
X124273583Y-120169353D02*
G01*
X124537612Y-120278718D01*
X124775231Y-120437490D01*
X124977310Y-120639569D01*
X125136082Y-120877188D01*
X125245447Y-121141217D01*
X125301200Y-121421509D01*
X125301200Y-121707291D01*
X125245447Y-121987583D01*
X125136082Y-122251612D01*
X124977310Y-122489231D01*
X124775231Y-122691310D01*
X124537612Y-122850082D01*
X124273583Y-122959447D01*
X123993291Y-123015200D01*
X123707509Y-123015200D01*
X123427217Y-122959447D01*
X123163188Y-122850082D01*
X122925569Y-122691310D01*
X122723490Y-122489231D01*
X122564718Y-122251612D01*
X122455353Y-121987583D01*
X122399600Y-121707291D01*
X122399600Y-121421509D01*
X122455353Y-121141217D01*
X122564718Y-120877188D01*
X122723490Y-120639569D01*
X122925569Y-120437490D01*
X123163188Y-120278718D01*
X123427217Y-120169353D01*
X123707509Y-120113600D01*
X123993291Y-120113600D01*
X124273583Y-120169353D01*
G37*
G36*
X149317983Y-120143953D02*
G01*
X149582012Y-120253318D01*
X149819631Y-120412090D01*
X150021710Y-120614169D01*
X150180482Y-120851788D01*
X150289847Y-121115817D01*
X150345600Y-121396109D01*
X150345600Y-121681891D01*
X150289847Y-121962183D01*
X150180482Y-122226212D01*
X150021710Y-122463831D01*
X149819631Y-122665910D01*
X149582012Y-122824682D01*
X149317983Y-122934047D01*
X149037691Y-122989800D01*
X148751909Y-122989800D01*
X148471617Y-122934047D01*
X148207588Y-122824682D01*
X147969969Y-122665910D01*
X147767890Y-122463831D01*
X147609118Y-122226212D01*
X147499753Y-121962183D01*
X147444000Y-121681891D01*
X147444000Y-121396109D01*
X147499753Y-121115817D01*
X147609118Y-120851788D01*
X147767890Y-120614169D01*
X147969969Y-120412090D01*
X148207588Y-120253318D01*
X148471617Y-120143953D01*
X148751909Y-120088200D01*
X149037691Y-120088200D01*
X149317983Y-120143953D01*
G37*
G36*
X96208593Y-118425474D02*
G01*
X96619996Y-118595882D01*
X96805122Y-118719580D01*
X96990249Y-118843277D01*
X97305123Y-119158151D01*
X97428821Y-119343278D01*
X97552518Y-119528404D01*
X97722926Y-119939807D01*
X97809800Y-120376550D01*
X97809800Y-120821850D01*
X97722926Y-121258593D01*
X97552518Y-121669996D01*
X97476683Y-121783491D01*
X97305123Y-122040249D01*
X96990249Y-122355123D01*
X96843099Y-122453445D01*
X96619996Y-122602518D01*
X96208593Y-122772926D01*
X95771850Y-122859800D01*
X95326550Y-122859800D01*
X94889807Y-122772926D01*
X94478404Y-122602518D01*
X94255301Y-122453445D01*
X94108151Y-122355123D01*
X93793277Y-122040249D01*
X93621717Y-121783491D01*
X93545882Y-121669996D01*
X93375474Y-121258593D01*
X93288600Y-120821850D01*
X93288600Y-120376550D01*
X93375474Y-119939807D01*
X93545882Y-119528404D01*
X93669579Y-119343278D01*
X93793277Y-119158151D01*
X94108151Y-118843277D01*
X94293278Y-118719579D01*
X94478404Y-118595882D01*
X94889807Y-118425474D01*
X95326550Y-118338600D01*
X95771850Y-118338600D01*
X96208593Y-118425474D01*
G37*
G36*
X102208593Y-118425474D02*
G01*
X102619996Y-118595882D01*
X102805122Y-118719580D01*
X102990249Y-118843277D01*
X103305123Y-119158151D01*
X103428821Y-119343278D01*
X103552518Y-119528404D01*
X103722926Y-119939807D01*
X103809800Y-120376550D01*
X103809800Y-120821850D01*
X103722926Y-121258593D01*
X103552518Y-121669996D01*
X103476683Y-121783491D01*
X103305123Y-122040249D01*
X102990249Y-122355123D01*
X102843099Y-122453445D01*
X102619996Y-122602518D01*
X102208593Y-122772926D01*
X101771850Y-122859800D01*
X101326550Y-122859800D01*
X100889807Y-122772926D01*
X100478404Y-122602518D01*
X100255301Y-122453445D01*
X100108151Y-122355123D01*
X99793277Y-122040249D01*
X99621717Y-121783491D01*
X99545882Y-121669996D01*
X99375474Y-121258593D01*
X99288600Y-120821850D01*
X99288600Y-120376550D01*
X99375474Y-119939807D01*
X99545882Y-119528404D01*
X99669579Y-119343278D01*
X99793277Y-119158151D01*
X100108151Y-118843277D01*
X100293278Y-118719579D01*
X100478404Y-118595882D01*
X100889807Y-118425474D01*
X101326550Y-118338600D01*
X101771850Y-118338600D01*
X102208593Y-118425474D01*
G37*
G36*
X153897877Y-121511874D02*
G01*
X153931645Y-121522118D01*
X153962772Y-121538755D01*
X153990055Y-121561145D01*
X154012445Y-121588428D01*
X154029082Y-121619555D01*
X154039326Y-121653323D01*
X154043400Y-121694693D01*
X154043400Y-122297507D01*
X154039326Y-122338877D01*
X154029082Y-122372645D01*
X154012445Y-122403772D01*
X153990055Y-122431055D01*
X153962772Y-122453445D01*
X153931645Y-122470082D01*
X153897877Y-122480326D01*
X153856507Y-122484400D01*
X153178693Y-122484400D01*
X153137323Y-122480326D01*
X153103555Y-122470082D01*
X153072428Y-122453445D01*
X153045145Y-122431055D01*
X153022755Y-122403772D01*
X153006118Y-122372645D01*
X152995874Y-122338877D01*
X152991800Y-122297507D01*
X152991800Y-121694693D01*
X152995874Y-121653323D01*
X153006118Y-121619555D01*
X153022755Y-121588428D01*
X153045145Y-121561145D01*
X153072428Y-121538755D01*
X153103555Y-121522118D01*
X153137323Y-121511874D01*
X153178693Y-121507800D01*
X153856507Y-121507800D01*
X153897877Y-121511874D01*
G37*
G36*
X146176277Y-121410274D02*
G01*
X146210045Y-121420518D01*
X146241172Y-121437155D01*
X146268455Y-121459545D01*
X146290845Y-121486828D01*
X146307482Y-121517955D01*
X146317726Y-121551723D01*
X146321800Y-121593093D01*
X146321800Y-122195907D01*
X146317726Y-122237277D01*
X146307482Y-122271045D01*
X146290845Y-122302172D01*
X146268455Y-122329455D01*
X146241172Y-122351845D01*
X146210045Y-122368482D01*
X146176277Y-122378726D01*
X146134907Y-122382800D01*
X145457093Y-122382800D01*
X145415723Y-122378726D01*
X145381955Y-122368482D01*
X145350828Y-122351845D01*
X145323545Y-122329455D01*
X145301155Y-122302172D01*
X145284518Y-122271045D01*
X145274274Y-122237277D01*
X145270200Y-122195907D01*
X145270200Y-121593093D01*
X145274274Y-121551723D01*
X145284518Y-121517955D01*
X145301155Y-121486828D01*
X145323545Y-121459545D01*
X145350828Y-121437155D01*
X145381955Y-121420518D01*
X145415723Y-121410274D01*
X145457093Y-121406200D01*
X146134907Y-121406200D01*
X146176277Y-121410274D01*
G37*
G36*
X138302277Y-121054674D02*
G01*
X138336045Y-121064918D01*
X138367172Y-121081555D01*
X138394455Y-121103945D01*
X138416845Y-121131228D01*
X138433482Y-121162355D01*
X138443726Y-121196123D01*
X138447800Y-121237493D01*
X138447800Y-121840307D01*
X138443726Y-121881677D01*
X138433482Y-121915445D01*
X138416845Y-121946572D01*
X138394455Y-121973855D01*
X138367172Y-121996245D01*
X138336045Y-122012882D01*
X138302277Y-122023126D01*
X138260907Y-122027200D01*
X137583093Y-122027200D01*
X137541723Y-122023126D01*
X137507955Y-122012882D01*
X137476828Y-121996245D01*
X137449545Y-121973855D01*
X137427155Y-121946572D01*
X137410518Y-121915445D01*
X137400274Y-121881677D01*
X137396200Y-121840307D01*
X137396200Y-121237493D01*
X137400274Y-121196123D01*
X137410518Y-121162355D01*
X137427155Y-121131228D01*
X137449545Y-121103945D01*
X137476828Y-121081555D01*
X137507955Y-121064918D01*
X137541723Y-121054674D01*
X137583093Y-121050600D01*
X138260907Y-121050600D01*
X138302277Y-121054674D01*
G37*
G36*
X203342419Y-118305634D02*
G01*
X203463246Y-118329668D01*
X203690876Y-118423955D01*
X203895739Y-118560840D01*
X204069960Y-118735061D01*
X204206845Y-118939924D01*
X204301132Y-119167554D01*
X204349200Y-119409208D01*
X204349200Y-119655592D01*
X204301132Y-119897246D01*
X204206845Y-120124876D01*
X204069960Y-120329739D01*
X203895739Y-120503960D01*
X203690876Y-120640845D01*
X203463246Y-120735132D01*
X203342419Y-120759166D01*
X203221593Y-120783200D01*
X202975207Y-120783200D01*
X202854381Y-120759166D01*
X202733554Y-120735132D01*
X202505924Y-120640845D01*
X202301061Y-120503960D01*
X202126840Y-120329739D01*
X201989955Y-120124876D01*
X201895668Y-119897246D01*
X201847600Y-119655592D01*
X201847600Y-119409208D01*
X201895668Y-119167554D01*
X201989955Y-118939924D01*
X202126840Y-118735061D01*
X202301061Y-118560840D01*
X202505924Y-118423955D01*
X202733554Y-118329668D01*
X202854381Y-118305634D01*
X202975207Y-118281600D01*
X203221593Y-118281600D01*
X203342419Y-118305634D01*
G37*
G36*
X203318715Y-113220919D02*
G01*
X203463246Y-113249668D01*
X203690876Y-113343955D01*
X203895739Y-113480840D01*
X204069960Y-113655061D01*
X204206845Y-113859924D01*
X204301132Y-114087554D01*
X204349200Y-114329208D01*
X204349200Y-114575592D01*
X204301132Y-114817246D01*
X204206845Y-115044876D01*
X204069960Y-115249739D01*
X203895739Y-115423960D01*
X203690876Y-115560845D01*
X203463246Y-115655132D01*
X203342419Y-115679166D01*
X203221593Y-115703200D01*
X202975207Y-115703200D01*
X202854381Y-115679166D01*
X202733554Y-115655132D01*
X202505924Y-115560845D01*
X202301061Y-115423960D01*
X202126840Y-115249739D01*
X201989955Y-115044876D01*
X201895668Y-114817246D01*
X201847600Y-114575592D01*
X201847600Y-114329208D01*
X201895668Y-114087554D01*
X201989955Y-113859924D01*
X202126840Y-113655061D01*
X202301061Y-113480840D01*
X202505924Y-113343955D01*
X202733554Y-113249668D01*
X202878085Y-113220919D01*
X202975207Y-113201600D01*
X203221593Y-113201600D01*
X203318715Y-113220919D01*
G37*
G36*
X192505877Y-113028474D02*
G01*
X192539645Y-113038718D01*
X192570772Y-113055355D01*
X192598055Y-113077745D01*
X192620445Y-113105028D01*
X192637082Y-113136155D01*
X192647326Y-113169923D01*
X192651400Y-113211293D01*
X192651400Y-113814107D01*
X192647326Y-113855477D01*
X192637082Y-113889245D01*
X192620445Y-113920372D01*
X192598055Y-113947655D01*
X192570772Y-113970045D01*
X192539645Y-113986682D01*
X192505877Y-113996926D01*
X192464507Y-114001000D01*
X191786693Y-114001000D01*
X191745323Y-113996926D01*
X191711555Y-113986682D01*
X191680428Y-113970045D01*
X191653145Y-113947655D01*
X191630755Y-113920372D01*
X191614118Y-113889245D01*
X191603874Y-113855477D01*
X191599800Y-113814107D01*
X191599800Y-113211293D01*
X191603874Y-113169923D01*
X191614118Y-113136155D01*
X191630755Y-113105028D01*
X191653145Y-113077745D01*
X191680428Y-113055355D01*
X191711555Y-113038718D01*
X191745323Y-113028474D01*
X191786693Y-113024400D01*
X192464507Y-113024400D01*
X192505877Y-113028474D01*
G37*
G36*
X196166400Y-113567200D02*
G01*
X195164800Y-113567200D01*
X195164800Y-112665600D01*
X196166400Y-112665600D01*
X196166400Y-113567200D01*
G37*
G36*
X194166400Y-112617200D02*
G01*
X193164800Y-112617200D01*
X193164800Y-111715600D01*
X194166400Y-111715600D01*
X194166400Y-112617200D01*
G37*
G36*
X192505877Y-111453474D02*
G01*
X192539645Y-111463718D01*
X192570772Y-111480355D01*
X192598055Y-111502745D01*
X192620445Y-111530028D01*
X192637082Y-111561155D01*
X192647326Y-111594923D01*
X192651400Y-111636293D01*
X192651400Y-112239107D01*
X192647326Y-112280477D01*
X192637082Y-112314245D01*
X192620445Y-112345372D01*
X192598055Y-112372655D01*
X192570772Y-112395045D01*
X192539645Y-112411682D01*
X192505877Y-112421926D01*
X192464507Y-112426000D01*
X191786693Y-112426000D01*
X191745323Y-112421926D01*
X191711555Y-112411682D01*
X191680428Y-112395045D01*
X191653145Y-112372655D01*
X191630755Y-112345372D01*
X191614118Y-112314245D01*
X191603874Y-112280477D01*
X191599800Y-112239107D01*
X191599800Y-111636293D01*
X191603874Y-111594923D01*
X191614118Y-111561155D01*
X191630755Y-111530028D01*
X191653145Y-111502745D01*
X191680428Y-111480355D01*
X191711555Y-111463718D01*
X191745323Y-111453474D01*
X191786693Y-111449400D01*
X192464507Y-111449400D01*
X192505877Y-111453474D01*
G37*
G36*
X196166400Y-111667200D02*
G01*
X195164800Y-111667200D01*
X195164800Y-110765600D01*
X196166400Y-110765600D01*
X196166400Y-111667200D01*
G37*
G36*
X96487752Y-107804996D02*
G01*
X96769979Y-107921899D01*
X97023978Y-108091615D01*
X97239985Y-108307622D01*
X97409701Y-108561621D01*
X97526604Y-108843848D01*
X97586200Y-109143459D01*
X97586200Y-109448941D01*
X97526604Y-109748552D01*
X97409701Y-110030779D01*
X97239985Y-110284778D01*
X97023978Y-110500785D01*
X96769979Y-110670501D01*
X96487752Y-110787404D01*
X96188141Y-110847000D01*
X95882659Y-110847000D01*
X95583048Y-110787404D01*
X95300821Y-110670501D01*
X95046822Y-110500785D01*
X94830815Y-110284778D01*
X94661099Y-110030779D01*
X94544196Y-109748552D01*
X94484600Y-109448941D01*
X94484600Y-109143459D01*
X94544196Y-108843848D01*
X94661099Y-108561621D01*
X94830815Y-108307622D01*
X95046822Y-108091615D01*
X95300821Y-107921899D01*
X95583048Y-107804996D01*
X95882659Y-107745400D01*
X96188141Y-107745400D01*
X96487752Y-107804996D01*
G37*
G36*
X203342419Y-108145634D02*
G01*
X203463246Y-108169668D01*
X203690876Y-108263955D01*
X203895739Y-108400840D01*
X204069960Y-108575061D01*
X204206845Y-108779924D01*
X204301132Y-109007554D01*
X204307720Y-109040674D01*
X204349200Y-109249207D01*
X204349200Y-109495593D01*
X204336263Y-109560631D01*
X204301132Y-109737246D01*
X204206845Y-109964876D01*
X204069960Y-110169739D01*
X203895739Y-110343960D01*
X203690876Y-110480845D01*
X203463246Y-110575132D01*
X203342419Y-110599166D01*
X203221593Y-110623200D01*
X202975207Y-110623200D01*
X202854381Y-110599166D01*
X202733554Y-110575132D01*
X202505924Y-110480845D01*
X202301061Y-110343960D01*
X202126840Y-110169739D01*
X201989955Y-109964876D01*
X201895668Y-109737246D01*
X201860537Y-109560631D01*
X201847600Y-109495593D01*
X201847600Y-109249207D01*
X201889080Y-109040674D01*
X201895668Y-109007554D01*
X201989955Y-108779924D01*
X202126840Y-108575061D01*
X202301061Y-108400840D01*
X202505924Y-108263955D01*
X202733554Y-108169668D01*
X202854381Y-108145634D01*
X202975207Y-108121600D01*
X203221593Y-108121600D01*
X203342419Y-108145634D01*
G37*
G36*
X103588985Y-108526174D02*
G01*
X103644620Y-108549219D01*
X103734724Y-108586541D01*
X103818058Y-108642224D01*
X103865880Y-108674178D01*
X103977422Y-108785720D01*
X103977424Y-108785723D01*
X104065059Y-108916876D01*
X104065060Y-108916879D01*
X104125426Y-109062615D01*
X104156200Y-109217328D01*
X104156200Y-109375072D01*
X104125426Y-109529785D01*
X104112649Y-109560631D01*
X104065059Y-109675524D01*
X104023817Y-109737246D01*
X103977422Y-109806680D01*
X103865880Y-109918222D01*
X103865877Y-109918224D01*
X103734724Y-110005859D01*
X103717001Y-110013200D01*
X103588985Y-110066226D01*
X103434272Y-110097000D01*
X103276528Y-110097000D01*
X103121815Y-110066226D01*
X102993799Y-110013200D01*
X102976076Y-110005859D01*
X102844923Y-109918224D01*
X102844920Y-109918222D01*
X102733378Y-109806680D01*
X102686983Y-109737246D01*
X102645741Y-109675524D01*
X102598151Y-109560631D01*
X102585374Y-109529785D01*
X102554600Y-109375072D01*
X102554600Y-109217328D01*
X102585374Y-109062615D01*
X102645740Y-108916879D01*
X102645741Y-108916876D01*
X102733376Y-108785723D01*
X102733378Y-108785720D01*
X102844920Y-108674178D01*
X102892742Y-108642224D01*
X102976076Y-108586541D01*
X103066180Y-108549219D01*
X103121815Y-108526174D01*
X103276528Y-108495400D01*
X103434272Y-108495400D01*
X103588985Y-108526174D01*
G37*
G36*
X101009376Y-108499505D02*
G01*
X101043448Y-108509841D01*
X101074851Y-108526626D01*
X101102381Y-108549219D01*
X101124974Y-108576749D01*
X101141759Y-108608152D01*
X101152095Y-108642224D01*
X101156200Y-108683910D01*
X101156200Y-109908490D01*
X101152095Y-109950176D01*
X101141759Y-109984248D01*
X101124974Y-110015651D01*
X101102381Y-110043181D01*
X101074851Y-110065774D01*
X101043448Y-110082559D01*
X101009376Y-110092895D01*
X100967690Y-110097000D01*
X99743110Y-110097000D01*
X99701424Y-110092895D01*
X99667352Y-110082559D01*
X99635949Y-110065774D01*
X99608419Y-110043181D01*
X99585826Y-110015651D01*
X99569041Y-109984248D01*
X99558705Y-109950176D01*
X99554600Y-109908490D01*
X99554600Y-108683910D01*
X99558705Y-108642224D01*
X99569041Y-108608152D01*
X99585826Y-108576749D01*
X99608419Y-108549219D01*
X99635949Y-108526626D01*
X99667352Y-108509841D01*
X99701424Y-108499505D01*
X99743110Y-108495400D01*
X100967690Y-108495400D01*
X101009376Y-108499505D01*
G37*
G36*
X189272183Y-107240753D02*
G01*
X189536212Y-107350118D01*
X189773831Y-107508890D01*
X189975910Y-107710969D01*
X190134682Y-107948588D01*
X190244047Y-108212617D01*
X190299800Y-108492909D01*
X190299800Y-108778691D01*
X190244047Y-109058983D01*
X190134682Y-109323012D01*
X189975910Y-109560631D01*
X189773831Y-109762710D01*
X189536212Y-109921482D01*
X189272183Y-110030847D01*
X188991891Y-110086600D01*
X188706109Y-110086600D01*
X188425817Y-110030847D01*
X188161788Y-109921482D01*
X187924169Y-109762710D01*
X187722090Y-109560631D01*
X187563318Y-109323012D01*
X187453953Y-109058983D01*
X187398200Y-108778691D01*
X187398200Y-108492909D01*
X187453953Y-108212617D01*
X187563318Y-107948588D01*
X187722090Y-107710969D01*
X187924169Y-107508890D01*
X188161788Y-107350118D01*
X188425817Y-107240753D01*
X188706109Y-107185000D01*
X188991891Y-107185000D01*
X189272183Y-107240753D01*
G37*
G36*
X194690277Y-109040674D02*
G01*
X194724045Y-109050918D01*
X194755172Y-109067555D01*
X194782455Y-109089945D01*
X194804845Y-109117228D01*
X194821482Y-109148355D01*
X194831726Y-109182123D01*
X194835800Y-109223493D01*
X194835800Y-109826307D01*
X194831726Y-109867677D01*
X194821482Y-109901445D01*
X194804845Y-109932572D01*
X194782455Y-109959855D01*
X194755172Y-109982245D01*
X194724045Y-109998882D01*
X194690277Y-110009126D01*
X194648907Y-110013200D01*
X193971093Y-110013200D01*
X193929723Y-110009126D01*
X193895955Y-109998882D01*
X193864828Y-109982245D01*
X193837545Y-109959855D01*
X193815155Y-109932572D01*
X193798518Y-109901445D01*
X193788274Y-109867677D01*
X193784200Y-109826307D01*
X193784200Y-109223493D01*
X193788274Y-109182123D01*
X193798518Y-109148355D01*
X193815155Y-109117228D01*
X193837545Y-109089945D01*
X193864828Y-109067555D01*
X193895955Y-109050918D01*
X193929723Y-109040674D01*
X193971093Y-109036600D01*
X194648907Y-109036600D01*
X194690277Y-109040674D01*
G37*
G36*
X194690277Y-107465674D02*
G01*
X194724045Y-107475918D01*
X194755172Y-107492555D01*
X194782455Y-107514945D01*
X194804845Y-107542228D01*
X194821482Y-107573355D01*
X194831726Y-107607123D01*
X194835800Y-107648493D01*
X194835800Y-108251307D01*
X194831726Y-108292677D01*
X194821482Y-108326445D01*
X194804845Y-108357572D01*
X194782455Y-108384855D01*
X194755172Y-108407245D01*
X194724045Y-108423882D01*
X194690277Y-108434126D01*
X194648907Y-108438200D01*
X193971093Y-108438200D01*
X193929723Y-108434126D01*
X193895955Y-108423882D01*
X193864828Y-108407245D01*
X193837545Y-108384855D01*
X193815155Y-108357572D01*
X193798518Y-108326445D01*
X193788274Y-108292677D01*
X193784200Y-108251307D01*
X193784200Y-107648493D01*
X193788274Y-107607123D01*
X193798518Y-107573355D01*
X193815155Y-107542228D01*
X193837545Y-107514945D01*
X193864828Y-107492555D01*
X193895955Y-107475918D01*
X193929723Y-107465674D01*
X193971093Y-107461600D01*
X194648907Y-107461600D01*
X194690277Y-107465674D01*
G37*
G36*
X130127425Y-107228305D02*
G01*
X130147828Y-107234495D01*
X130166639Y-107244549D01*
X130183123Y-107258077D01*
X130196651Y-107274561D01*
X130206705Y-107293372D01*
X130212895Y-107313775D01*
X130215600Y-107341243D01*
X130215600Y-107801557D01*
X130212895Y-107829025D01*
X130206705Y-107849428D01*
X130196651Y-107868239D01*
X130183123Y-107884723D01*
X130166639Y-107898251D01*
X130147828Y-107908305D01*
X130127425Y-107914495D01*
X130099957Y-107917200D01*
X129589643Y-107917200D01*
X129562175Y-107914495D01*
X129541772Y-107908305D01*
X129522961Y-107898251D01*
X129506477Y-107884723D01*
X129492949Y-107868239D01*
X129482895Y-107849428D01*
X129476705Y-107829025D01*
X129474000Y-107801557D01*
X129474000Y-107341243D01*
X129476705Y-107313775D01*
X129482895Y-107293372D01*
X129492949Y-107274561D01*
X129506477Y-107258077D01*
X129522961Y-107244549D01*
X129541772Y-107234495D01*
X129562175Y-107228305D01*
X129589643Y-107225600D01*
X130099957Y-107225600D01*
X130127425Y-107228305D01*
G37*
G36*
X131219625Y-107228305D02*
G01*
X131240028Y-107234495D01*
X131258839Y-107244549D01*
X131275323Y-107258077D01*
X131288851Y-107274561D01*
X131298905Y-107293372D01*
X131305095Y-107313775D01*
X131307800Y-107341243D01*
X131307800Y-107801557D01*
X131305095Y-107829025D01*
X131298905Y-107849428D01*
X131288851Y-107868239D01*
X131275323Y-107884723D01*
X131258839Y-107898251D01*
X131240028Y-107908305D01*
X131219625Y-107914495D01*
X131192157Y-107917200D01*
X130681843Y-107917200D01*
X130654375Y-107914495D01*
X130633972Y-107908305D01*
X130615161Y-107898251D01*
X130598677Y-107884723D01*
X130585149Y-107868239D01*
X130575095Y-107849428D01*
X130568905Y-107829025D01*
X130566200Y-107801557D01*
X130566200Y-107341243D01*
X130568905Y-107313775D01*
X130575095Y-107293372D01*
X130585149Y-107274561D01*
X130598677Y-107258077D01*
X130615161Y-107244549D01*
X130633972Y-107234495D01*
X130654375Y-107228305D01*
X130681843Y-107225600D01*
X131192157Y-107225600D01*
X131219625Y-107228305D01*
G37*
G36*
X109425400Y-107090200D02*
G01*
X108423800Y-107090200D01*
X108423800Y-106188600D01*
X109425400Y-106188600D01*
X109425400Y-107090200D01*
G37*
G36*
X132968277Y-106068874D02*
G01*
X133002045Y-106079118D01*
X133033172Y-106095755D01*
X133060455Y-106118145D01*
X133082845Y-106145428D01*
X133099482Y-106176555D01*
X133109726Y-106210323D01*
X133113800Y-106251693D01*
X133113800Y-106854507D01*
X133109726Y-106895877D01*
X133099482Y-106929645D01*
X133082845Y-106960772D01*
X133060455Y-106988055D01*
X133033172Y-107010445D01*
X133002045Y-107027082D01*
X132968277Y-107037326D01*
X132926907Y-107041400D01*
X132249093Y-107041400D01*
X132207723Y-107037326D01*
X132173955Y-107027082D01*
X132142828Y-107010445D01*
X132115545Y-106988055D01*
X132093155Y-106960772D01*
X132076518Y-106929645D01*
X132066274Y-106895877D01*
X132062200Y-106854507D01*
X132062200Y-106251693D01*
X132066274Y-106210323D01*
X132076518Y-106176555D01*
X132093155Y-106145428D01*
X132115545Y-106118145D01*
X132142828Y-106095755D01*
X132173955Y-106079118D01*
X132207723Y-106068874D01*
X132249093Y-106064800D01*
X132926907Y-106064800D01*
X132968277Y-106068874D01*
G37*
G36*
X130127425Y-106258305D02*
G01*
X130147828Y-106264495D01*
X130166639Y-106274549D01*
X130183123Y-106288077D01*
X130196651Y-106304561D01*
X130206705Y-106323372D01*
X130212895Y-106343775D01*
X130215600Y-106371243D01*
X130215600Y-106831557D01*
X130212895Y-106859025D01*
X130206705Y-106879428D01*
X130196651Y-106898239D01*
X130183123Y-106914723D01*
X130166639Y-106928251D01*
X130147828Y-106938305D01*
X130127425Y-106944495D01*
X130099957Y-106947200D01*
X129589643Y-106947200D01*
X129562175Y-106944495D01*
X129541772Y-106938305D01*
X129522961Y-106928251D01*
X129506477Y-106914723D01*
X129492949Y-106898239D01*
X129482895Y-106879428D01*
X129476705Y-106859025D01*
X129474000Y-106831557D01*
X129474000Y-106371243D01*
X129476705Y-106343775D01*
X129482895Y-106323372D01*
X129492949Y-106304561D01*
X129506477Y-106288077D01*
X129522961Y-106274549D01*
X129541772Y-106264495D01*
X129562175Y-106258305D01*
X129589643Y-106255600D01*
X130099957Y-106255600D01*
X130127425Y-106258305D01*
G37*
G36*
X131219625Y-106258305D02*
G01*
X131240028Y-106264495D01*
X131258839Y-106274549D01*
X131275323Y-106288077D01*
X131288851Y-106304561D01*
X131298905Y-106323372D01*
X131305095Y-106343775D01*
X131307800Y-106371243D01*
X131307800Y-106831557D01*
X131305095Y-106859025D01*
X131298905Y-106879428D01*
X131288851Y-106898239D01*
X131275323Y-106914723D01*
X131258839Y-106928251D01*
X131240028Y-106938305D01*
X131219625Y-106944495D01*
X131192157Y-106947200D01*
X130681843Y-106947200D01*
X130654375Y-106944495D01*
X130633972Y-106938305D01*
X130615161Y-106928251D01*
X130598677Y-106914723D01*
X130585149Y-106898239D01*
X130575095Y-106879428D01*
X130568905Y-106859025D01*
X130566200Y-106831557D01*
X130566200Y-106371243D01*
X130568905Y-106343775D01*
X130575095Y-106323372D01*
X130585149Y-106304561D01*
X130598677Y-106288077D01*
X130615161Y-106274549D01*
X130633972Y-106264495D01*
X130654375Y-106258305D01*
X130681843Y-106255600D01*
X131192157Y-106255600D01*
X131219625Y-106258305D01*
G37*
G36*
X127712425Y-105422905D02*
G01*
X127732828Y-105429095D01*
X127751639Y-105439149D01*
X127768123Y-105452677D01*
X127781651Y-105469161D01*
X127791705Y-105487972D01*
X127797895Y-105508375D01*
X127800600Y-105535843D01*
X127800600Y-106046157D01*
X127797895Y-106073625D01*
X127791705Y-106094028D01*
X127781651Y-106112839D01*
X127768123Y-106129323D01*
X127751639Y-106142851D01*
X127732828Y-106152905D01*
X127712425Y-106159095D01*
X127684957Y-106161800D01*
X127224643Y-106161800D01*
X127197175Y-106159095D01*
X127176772Y-106152905D01*
X127157961Y-106142851D01*
X127141477Y-106129323D01*
X127127949Y-106112839D01*
X127117895Y-106094028D01*
X127111705Y-106073625D01*
X127109000Y-106046157D01*
X127109000Y-105535843D01*
X127111705Y-105508375D01*
X127117895Y-105487972D01*
X127127949Y-105469161D01*
X127141477Y-105452677D01*
X127157961Y-105439149D01*
X127176772Y-105429095D01*
X127197175Y-105422905D01*
X127224643Y-105420200D01*
X127684957Y-105420200D01*
X127712425Y-105422905D01*
G37*
G36*
X128682425Y-105422905D02*
G01*
X128702828Y-105429095D01*
X128721639Y-105439149D01*
X128738123Y-105452677D01*
X128751651Y-105469161D01*
X128761705Y-105487972D01*
X128767895Y-105508375D01*
X128770600Y-105535843D01*
X128770600Y-106046157D01*
X128767895Y-106073625D01*
X128761705Y-106094028D01*
X128751651Y-106112839D01*
X128738123Y-106129323D01*
X128721639Y-106142851D01*
X128702828Y-106152905D01*
X128682425Y-106159095D01*
X128654957Y-106161800D01*
X128194643Y-106161800D01*
X128167175Y-106159095D01*
X128146772Y-106152905D01*
X128127961Y-106142851D01*
X128111477Y-106129323D01*
X128097949Y-106112839D01*
X128087895Y-106094028D01*
X128081705Y-106073625D01*
X128079000Y-106046157D01*
X128079000Y-105535843D01*
X128081705Y-105508375D01*
X128087895Y-105487972D01*
X128097949Y-105469161D01*
X128111477Y-105452677D01*
X128127961Y-105439149D01*
X128146772Y-105429095D01*
X128167175Y-105422905D01*
X128194643Y-105420200D01*
X128654957Y-105420200D01*
X128682425Y-105422905D01*
G37*
G36*
X107425400Y-106140200D02*
G01*
X106423800Y-106140200D01*
X106423800Y-105238600D01*
X107425400Y-105238600D01*
X107425400Y-106140200D01*
G37*
G36*
X203342419Y-103065634D02*
G01*
X203463246Y-103089668D01*
X203690876Y-103183955D01*
X203895739Y-103320840D01*
X204069960Y-103495061D01*
X204206845Y-103699924D01*
X204301132Y-103927554D01*
X204349200Y-104169208D01*
X204349200Y-104415592D01*
X204301132Y-104657246D01*
X204206845Y-104884876D01*
X204069960Y-105089739D01*
X203895739Y-105263960D01*
X203690876Y-105400845D01*
X203463246Y-105495132D01*
X203396669Y-105508375D01*
X203221593Y-105543200D01*
X202975207Y-105543200D01*
X202800131Y-105508375D01*
X202733554Y-105495132D01*
X202505924Y-105400845D01*
X202301061Y-105263960D01*
X202126840Y-105089739D01*
X201989955Y-104884876D01*
X201895668Y-104657246D01*
X201847600Y-104415592D01*
X201847600Y-104169208D01*
X201895668Y-103927554D01*
X201989955Y-103699924D01*
X202126840Y-103495061D01*
X202301061Y-103320840D01*
X202505924Y-103183955D01*
X202733554Y-103089668D01*
X202854381Y-103065634D01*
X202975207Y-103041600D01*
X203221593Y-103041600D01*
X203342419Y-103065634D01*
G37*
G36*
X132968277Y-104493874D02*
G01*
X133002045Y-104504118D01*
X133033172Y-104520755D01*
X133060455Y-104543145D01*
X133082845Y-104570428D01*
X133099482Y-104601555D01*
X133109726Y-104635323D01*
X133113800Y-104676693D01*
X133113800Y-105279507D01*
X133109726Y-105320877D01*
X133099482Y-105354645D01*
X133082845Y-105385772D01*
X133060455Y-105413055D01*
X133033172Y-105435445D01*
X133002045Y-105452082D01*
X132968277Y-105462326D01*
X132926907Y-105466400D01*
X132249093Y-105466400D01*
X132207723Y-105462326D01*
X132173955Y-105452082D01*
X132142828Y-105435445D01*
X132115545Y-105413055D01*
X132093155Y-105385772D01*
X132076518Y-105354645D01*
X132066274Y-105320877D01*
X132062200Y-105279507D01*
X132062200Y-104676693D01*
X132066274Y-104635323D01*
X132076518Y-104601555D01*
X132093155Y-104570428D01*
X132115545Y-104543145D01*
X132142828Y-104520755D01*
X132173955Y-104504118D01*
X132207723Y-104493874D01*
X132249093Y-104489800D01*
X132926907Y-104489800D01*
X132968277Y-104493874D01*
G37*
G36*
X109425400Y-105190200D02*
G01*
X108423800Y-105190200D01*
X108423800Y-104288600D01*
X109425400Y-104288600D01*
X109425400Y-105190200D01*
G37*
G36*
X161484583Y-100712953D02*
G01*
X161748612Y-100822318D01*
X161986231Y-100981090D01*
X162188310Y-101183169D01*
X162347082Y-101420788D01*
X162456447Y-101684817D01*
X162512200Y-101965109D01*
X162512200Y-102250891D01*
X162456447Y-102531183D01*
X162347082Y-102795212D01*
X162188310Y-103032831D01*
X161986231Y-103234910D01*
X161748612Y-103393682D01*
X161484583Y-103503047D01*
X161204291Y-103558800D01*
X160918509Y-103558800D01*
X160638217Y-103503047D01*
X160374188Y-103393682D01*
X160136569Y-103234910D01*
X159934490Y-103032831D01*
X159775718Y-102795212D01*
X159666353Y-102531183D01*
X159610600Y-102250891D01*
X159610600Y-101965109D01*
X159666353Y-101684817D01*
X159775718Y-101420788D01*
X159934490Y-101183169D01*
X160136569Y-100981090D01*
X160374188Y-100822318D01*
X160638217Y-100712953D01*
X160918509Y-100657200D01*
X161204291Y-100657200D01*
X161484583Y-100712953D01*
G37*
G36*
X109181877Y-102500674D02*
G01*
X109215645Y-102510918D01*
X109246772Y-102527555D01*
X109274055Y-102549945D01*
X109296445Y-102577228D01*
X109313082Y-102608355D01*
X109323326Y-102642123D01*
X109327400Y-102683493D01*
X109327400Y-103361307D01*
X109323326Y-103402677D01*
X109313082Y-103436445D01*
X109296445Y-103467572D01*
X109274055Y-103494855D01*
X109246772Y-103517245D01*
X109215645Y-103533882D01*
X109181877Y-103544126D01*
X109140507Y-103548200D01*
X108537693Y-103548200D01*
X108496323Y-103544126D01*
X108462555Y-103533882D01*
X108431428Y-103517245D01*
X108404145Y-103494855D01*
X108381755Y-103467572D01*
X108365118Y-103436445D01*
X108354874Y-103402677D01*
X108350800Y-103361307D01*
X108350800Y-102683493D01*
X108354874Y-102642123D01*
X108365118Y-102608355D01*
X108381755Y-102577228D01*
X108404145Y-102549945D01*
X108431428Y-102527555D01*
X108462555Y-102510918D01*
X108496323Y-102500674D01*
X108537693Y-102496600D01*
X109140507Y-102496600D01*
X109181877Y-102500674D01*
G37*
G36*
X107606877Y-102500674D02*
G01*
X107640645Y-102510918D01*
X107671772Y-102527555D01*
X107699055Y-102549945D01*
X107721445Y-102577228D01*
X107738082Y-102608355D01*
X107748326Y-102642123D01*
X107752400Y-102683493D01*
X107752400Y-103361307D01*
X107748326Y-103402677D01*
X107738082Y-103436445D01*
X107721445Y-103467572D01*
X107699055Y-103494855D01*
X107671772Y-103517245D01*
X107640645Y-103533882D01*
X107606877Y-103544126D01*
X107565507Y-103548200D01*
X106962693Y-103548200D01*
X106921323Y-103544126D01*
X106887555Y-103533882D01*
X106856428Y-103517245D01*
X106829145Y-103494855D01*
X106806755Y-103467572D01*
X106790118Y-103436445D01*
X106779874Y-103402677D01*
X106775800Y-103361307D01*
X106775800Y-102683493D01*
X106779874Y-102642123D01*
X106790118Y-102608355D01*
X106806755Y-102577228D01*
X106829145Y-102549945D01*
X106856428Y-102527555D01*
X106887555Y-102510918D01*
X106921323Y-102500674D01*
X106962693Y-102496600D01*
X107565507Y-102496600D01*
X107606877Y-102500674D01*
G37*
G36*
X136858825Y-101130305D02*
G01*
X136879228Y-101136495D01*
X136898039Y-101146549D01*
X136914523Y-101160077D01*
X136928051Y-101176561D01*
X136938105Y-101195372D01*
X136944295Y-101215775D01*
X136947000Y-101243243D01*
X136947000Y-101753557D01*
X136944295Y-101781025D01*
X136938105Y-101801428D01*
X136928051Y-101820239D01*
X136914523Y-101836723D01*
X136898039Y-101850251D01*
X136879228Y-101860305D01*
X136858825Y-101866495D01*
X136831357Y-101869200D01*
X136371043Y-101869200D01*
X136343575Y-101866495D01*
X136323172Y-101860305D01*
X136304361Y-101850251D01*
X136287877Y-101836723D01*
X136274349Y-101820239D01*
X136264295Y-101801428D01*
X136258105Y-101781025D01*
X136255400Y-101753557D01*
X136255400Y-101243243D01*
X136258105Y-101215775D01*
X136264295Y-101195372D01*
X136274349Y-101176561D01*
X136287877Y-101160077D01*
X136304361Y-101146549D01*
X136323172Y-101136495D01*
X136343575Y-101130305D01*
X136371043Y-101127600D01*
X136831357Y-101127600D01*
X136858825Y-101130305D01*
G37*
G36*
X135888825Y-101130305D02*
G01*
X135909228Y-101136495D01*
X135928039Y-101146549D01*
X135944523Y-101160077D01*
X135958051Y-101176561D01*
X135968105Y-101195372D01*
X135974295Y-101215775D01*
X135977000Y-101243243D01*
X135977000Y-101753557D01*
X135974295Y-101781025D01*
X135968105Y-101801428D01*
X135958051Y-101820239D01*
X135944523Y-101836723D01*
X135928039Y-101850251D01*
X135909228Y-101860305D01*
X135888825Y-101866495D01*
X135861357Y-101869200D01*
X135401043Y-101869200D01*
X135373575Y-101866495D01*
X135353172Y-101860305D01*
X135334361Y-101850251D01*
X135317877Y-101836723D01*
X135304349Y-101820239D01*
X135294295Y-101801428D01*
X135288105Y-101781025D01*
X135285400Y-101753557D01*
X135285400Y-101243243D01*
X135288105Y-101215775D01*
X135294295Y-101195372D01*
X135304349Y-101176561D01*
X135317877Y-101160077D01*
X135334361Y-101146549D01*
X135353172Y-101136495D01*
X135373575Y-101130305D01*
X135401043Y-101127600D01*
X135861357Y-101127600D01*
X135888825Y-101130305D01*
G37*
G36*
X99335593Y-96455474D02*
G01*
X99746996Y-96625882D01*
X99891282Y-96722291D01*
X100117249Y-96873277D01*
X100432123Y-97188151D01*
X100519071Y-97318279D01*
X100679518Y-97558404D01*
X100849926Y-97969807D01*
X100936800Y-98406550D01*
X100936800Y-98851850D01*
X100849926Y-99288593D01*
X100679518Y-99699996D01*
X100555821Y-99885122D01*
X100432123Y-100070249D01*
X100117249Y-100385123D01*
X99932122Y-100508821D01*
X99746996Y-100632518D01*
X99335593Y-100802926D01*
X98898850Y-100889800D01*
X98453550Y-100889800D01*
X98016807Y-100802926D01*
X97605404Y-100632518D01*
X97420278Y-100508821D01*
X97235151Y-100385123D01*
X96920277Y-100070249D01*
X96796579Y-99885122D01*
X96672882Y-99699996D01*
X96502474Y-99288593D01*
X96415600Y-98851850D01*
X96415600Y-98406550D01*
X96502474Y-97969807D01*
X96672882Y-97558404D01*
X96833329Y-97318279D01*
X96920277Y-97188151D01*
X97235151Y-96873277D01*
X97461118Y-96722291D01*
X97605404Y-96625882D01*
X98016807Y-96455474D01*
X98453550Y-96368600D01*
X98898850Y-96368600D01*
X99335593Y-96455474D01*
G37*
G36*
X123395400Y-99165400D02*
G01*
X122393800Y-99165400D01*
X122393800Y-98263800D01*
X123395400Y-98263800D01*
X123395400Y-99165400D01*
G37*
G36*
X124967277Y-97610674D02*
G01*
X125001045Y-97620918D01*
X125032172Y-97637555D01*
X125059455Y-97659945D01*
X125081845Y-97687228D01*
X125098482Y-97718355D01*
X125108726Y-97752123D01*
X125112800Y-97793493D01*
X125112800Y-98396307D01*
X125108726Y-98437677D01*
X125098482Y-98471445D01*
X125081845Y-98502572D01*
X125059455Y-98529855D01*
X125032172Y-98552245D01*
X125001045Y-98568882D01*
X124967277Y-98579126D01*
X124925907Y-98583200D01*
X124248093Y-98583200D01*
X124206723Y-98579126D01*
X124172955Y-98568882D01*
X124141828Y-98552245D01*
X124114545Y-98529855D01*
X124092155Y-98502572D01*
X124075518Y-98471445D01*
X124065274Y-98437677D01*
X124061200Y-98396307D01*
X124061200Y-97793493D01*
X124065274Y-97752123D01*
X124075518Y-97718355D01*
X124092155Y-97687228D01*
X124114545Y-97659945D01*
X124141828Y-97637555D01*
X124172955Y-97620918D01*
X124206723Y-97610674D01*
X124248093Y-97606600D01*
X124925907Y-97606600D01*
X124967277Y-97610674D01*
G37*
G36*
X198017677Y-97585274D02*
G01*
X198051445Y-97595518D01*
X198082572Y-97612155D01*
X198109855Y-97634545D01*
X198132245Y-97661828D01*
X198148882Y-97692955D01*
X198159126Y-97726723D01*
X198163200Y-97768093D01*
X198163200Y-98370907D01*
X198159126Y-98412277D01*
X198148882Y-98446045D01*
X198132245Y-98477172D01*
X198109855Y-98504455D01*
X198082572Y-98526845D01*
X198051445Y-98543482D01*
X198017677Y-98553726D01*
X197976307Y-98557800D01*
X197298493Y-98557800D01*
X197257123Y-98553726D01*
X197223355Y-98543482D01*
X197192228Y-98526845D01*
X197164945Y-98504455D01*
X197142555Y-98477172D01*
X197125918Y-98446045D01*
X197115674Y-98412277D01*
X197111600Y-98370907D01*
X197111600Y-97768093D01*
X197115674Y-97726723D01*
X197125918Y-97692955D01*
X197142555Y-97661828D01*
X197164945Y-97634545D01*
X197192228Y-97612155D01*
X197223355Y-97595518D01*
X197257123Y-97585274D01*
X197298493Y-97581200D01*
X197976307Y-97581200D01*
X198017677Y-97585274D01*
G37*
G36*
X121395400Y-98215400D02*
G01*
X120393800Y-98215400D01*
X120393800Y-97313800D01*
X121395400Y-97313800D01*
X121395400Y-98215400D01*
G37*
G36*
X127253277Y-96721674D02*
G01*
X127287045Y-96731918D01*
X127318172Y-96748555D01*
X127345455Y-96770945D01*
X127367845Y-96798228D01*
X127384482Y-96829355D01*
X127394726Y-96863123D01*
X127398800Y-96904493D01*
X127398800Y-97507307D01*
X127394726Y-97548677D01*
X127384482Y-97582445D01*
X127367845Y-97613572D01*
X127345455Y-97640855D01*
X127318172Y-97663245D01*
X127287045Y-97679882D01*
X127253277Y-97690126D01*
X127211907Y-97694200D01*
X126534093Y-97694200D01*
X126492723Y-97690126D01*
X126458955Y-97679882D01*
X126427828Y-97663245D01*
X126400545Y-97640855D01*
X126378155Y-97613572D01*
X126361518Y-97582445D01*
X126351274Y-97548677D01*
X126347200Y-97507307D01*
X126347200Y-96904493D01*
X126351274Y-96863123D01*
X126361518Y-96829355D01*
X126378155Y-96798228D01*
X126400545Y-96770945D01*
X126427828Y-96748555D01*
X126458955Y-96731918D01*
X126492723Y-96721674D01*
X126534093Y-96717600D01*
X127211907Y-96717600D01*
X127253277Y-96721674D01*
G37*
G36*
X205977354Y-95653817D02*
G01*
X206141289Y-95721721D01*
X206288827Y-95820303D01*
X206414297Y-95945773D01*
X206512879Y-96093311D01*
X206580783Y-96257246D01*
X206615400Y-96431279D01*
X206615400Y-96608721D01*
X206580783Y-96782754D01*
X206512879Y-96946689D01*
X206414297Y-97094227D01*
X206288827Y-97219697D01*
X206141289Y-97318279D01*
X205977354Y-97386183D01*
X205803321Y-97420800D01*
X205625879Y-97420800D01*
X205451846Y-97386183D01*
X205287911Y-97318279D01*
X205140373Y-97219697D01*
X205014903Y-97094227D01*
X204916321Y-96946689D01*
X204848417Y-96782754D01*
X204813800Y-96608721D01*
X204813800Y-96431279D01*
X204848417Y-96257246D01*
X204916321Y-96093311D01*
X205014903Y-95945773D01*
X205140373Y-95820303D01*
X205287911Y-95721721D01*
X205451846Y-95653817D01*
X205625879Y-95619200D01*
X205803321Y-95619200D01*
X205977354Y-95653817D01*
G37*
G36*
X203437354Y-95653817D02*
G01*
X203601289Y-95721721D01*
X203748827Y-95820303D01*
X203874297Y-95945773D01*
X203972879Y-96093311D01*
X204040783Y-96257246D01*
X204075400Y-96431279D01*
X204075400Y-96608721D01*
X204040783Y-96782754D01*
X203972879Y-96946689D01*
X203874297Y-97094227D01*
X203748827Y-97219697D01*
X203601289Y-97318279D01*
X203437354Y-97386183D01*
X203263321Y-97420800D01*
X203085879Y-97420800D01*
X202911846Y-97386183D01*
X202747911Y-97318279D01*
X202600373Y-97219697D01*
X202474903Y-97094227D01*
X202376321Y-96946689D01*
X202308417Y-96782754D01*
X202273800Y-96608721D01*
X202273800Y-96431279D01*
X202308417Y-96257246D01*
X202376321Y-96093311D01*
X202474903Y-95945773D01*
X202600373Y-95820303D01*
X202747911Y-95721721D01*
X202911846Y-95653817D01*
X203085879Y-95619200D01*
X203263321Y-95619200D01*
X203437354Y-95653817D01*
G37*
G36*
X123395400Y-97265400D02*
G01*
X122393800Y-97265400D01*
X122393800Y-96363800D01*
X123395400Y-96363800D01*
X123395400Y-97265400D01*
G37*
G36*
X132083225Y-96433305D02*
G01*
X132103628Y-96439495D01*
X132122439Y-96449549D01*
X132138923Y-96463077D01*
X132152451Y-96479561D01*
X132162505Y-96498372D01*
X132168695Y-96518775D01*
X132171400Y-96546243D01*
X132171400Y-97006557D01*
X132168695Y-97034025D01*
X132162505Y-97054428D01*
X132152451Y-97073239D01*
X132138923Y-97089723D01*
X132122439Y-97103251D01*
X132103628Y-97113305D01*
X132083225Y-97119495D01*
X132055757Y-97122200D01*
X131545443Y-97122200D01*
X131517975Y-97119495D01*
X131497572Y-97113305D01*
X131478761Y-97103251D01*
X131462277Y-97089723D01*
X131448749Y-97073239D01*
X131438695Y-97054428D01*
X131432505Y-97034025D01*
X131429800Y-97006557D01*
X131429800Y-96546243D01*
X131432505Y-96518775D01*
X131438695Y-96498372D01*
X131448749Y-96479561D01*
X131462277Y-96463077D01*
X131478761Y-96449549D01*
X131497572Y-96439495D01*
X131517975Y-96433305D01*
X131545443Y-96430600D01*
X132055757Y-96430600D01*
X132083225Y-96433305D01*
G37*
G36*
X130889425Y-96407905D02*
G01*
X130909828Y-96414095D01*
X130928639Y-96424149D01*
X130945123Y-96437677D01*
X130958651Y-96454161D01*
X130968705Y-96472972D01*
X130974895Y-96493375D01*
X130977600Y-96520843D01*
X130977600Y-96981157D01*
X130974895Y-97008625D01*
X130968705Y-97029028D01*
X130958651Y-97047839D01*
X130945123Y-97064323D01*
X130928639Y-97077851D01*
X130909828Y-97087905D01*
X130889425Y-97094095D01*
X130861957Y-97096800D01*
X130351643Y-97096800D01*
X130324175Y-97094095D01*
X130303772Y-97087905D01*
X130284961Y-97077851D01*
X130268477Y-97064323D01*
X130254949Y-97047839D01*
X130244895Y-97029028D01*
X130238705Y-97008625D01*
X130236000Y-96981157D01*
X130236000Y-96520843D01*
X130238705Y-96493375D01*
X130244895Y-96472972D01*
X130254949Y-96454161D01*
X130268477Y-96437677D01*
X130284961Y-96424149D01*
X130303772Y-96414095D01*
X130324175Y-96407905D01*
X130351643Y-96405200D01*
X130861957Y-96405200D01*
X130889425Y-96407905D01*
G37*
G36*
X129797225Y-96382505D02*
G01*
X129817628Y-96388695D01*
X129836439Y-96398749D01*
X129852923Y-96412277D01*
X129866451Y-96428761D01*
X129876505Y-96447572D01*
X129882695Y-96467975D01*
X129885400Y-96495443D01*
X129885400Y-96955757D01*
X129882695Y-96983225D01*
X129876505Y-97003628D01*
X129866451Y-97022439D01*
X129852923Y-97038923D01*
X129836439Y-97052451D01*
X129817628Y-97062505D01*
X129797225Y-97068695D01*
X129769757Y-97071400D01*
X129259443Y-97071400D01*
X129231975Y-97068695D01*
X129211572Y-97062505D01*
X129192761Y-97052451D01*
X129176277Y-97038923D01*
X129162749Y-97022439D01*
X129152695Y-97003628D01*
X129146505Y-96983225D01*
X129143800Y-96955757D01*
X129143800Y-96495443D01*
X129146505Y-96467975D01*
X129152695Y-96447572D01*
X129162749Y-96428761D01*
X129176277Y-96412277D01*
X129192761Y-96398749D01*
X129211572Y-96388695D01*
X129231975Y-96382505D01*
X129259443Y-96379800D01*
X129769757Y-96379800D01*
X129797225Y-96382505D01*
G37*
G36*
X124967277Y-96035674D02*
G01*
X125001045Y-96045918D01*
X125032172Y-96062555D01*
X125059455Y-96084945D01*
X125081845Y-96112228D01*
X125098482Y-96143355D01*
X125108726Y-96177123D01*
X125112800Y-96218493D01*
X125112800Y-96821307D01*
X125108726Y-96862677D01*
X125098482Y-96896445D01*
X125081845Y-96927572D01*
X125059455Y-96954855D01*
X125032172Y-96977245D01*
X125001045Y-96993882D01*
X124967277Y-97004126D01*
X124925907Y-97008200D01*
X124248093Y-97008200D01*
X124206723Y-97004126D01*
X124172955Y-96993882D01*
X124141828Y-96977245D01*
X124114545Y-96954855D01*
X124092155Y-96927572D01*
X124075518Y-96896445D01*
X124065274Y-96862677D01*
X124061200Y-96821307D01*
X124061200Y-96218493D01*
X124065274Y-96177123D01*
X124075518Y-96143355D01*
X124092155Y-96112228D01*
X124114545Y-96084945D01*
X124141828Y-96062555D01*
X124172955Y-96045918D01*
X124206723Y-96035674D01*
X124248093Y-96031600D01*
X124925907Y-96031600D01*
X124967277Y-96035674D01*
G37*
G36*
X199567077Y-96010474D02*
G01*
X199600845Y-96020718D01*
X199631972Y-96037355D01*
X199659255Y-96059745D01*
X199681645Y-96087028D01*
X199698282Y-96118155D01*
X199708526Y-96151923D01*
X199712600Y-96193293D01*
X199712600Y-96796107D01*
X199708526Y-96837477D01*
X199698282Y-96871245D01*
X199681645Y-96902372D01*
X199659255Y-96929655D01*
X199631972Y-96952045D01*
X199600845Y-96968682D01*
X199567077Y-96978926D01*
X199525707Y-96983000D01*
X198847893Y-96983000D01*
X198806523Y-96978926D01*
X198772755Y-96968682D01*
X198741628Y-96952045D01*
X198714345Y-96929655D01*
X198691955Y-96902372D01*
X198675318Y-96871245D01*
X198665074Y-96837477D01*
X198661000Y-96796107D01*
X198661000Y-96193293D01*
X198665074Y-96151923D01*
X198675318Y-96118155D01*
X198691955Y-96087028D01*
X198714345Y-96059745D01*
X198741628Y-96037355D01*
X198772755Y-96020718D01*
X198806523Y-96010474D01*
X198847893Y-96006400D01*
X199525707Y-96006400D01*
X199567077Y-96010474D01*
G37*
G36*
X198017677Y-96010274D02*
G01*
X198051445Y-96020518D01*
X198082572Y-96037155D01*
X198109855Y-96059545D01*
X198132245Y-96086828D01*
X198148882Y-96117955D01*
X198159126Y-96151723D01*
X198163200Y-96193093D01*
X198163200Y-96795907D01*
X198159126Y-96837277D01*
X198148882Y-96871045D01*
X198132245Y-96902172D01*
X198109855Y-96929455D01*
X198082572Y-96951845D01*
X198051445Y-96968482D01*
X198017677Y-96978726D01*
X197976307Y-96982800D01*
X197298493Y-96982800D01*
X197257123Y-96978726D01*
X197223355Y-96968482D01*
X197192228Y-96951845D01*
X197164945Y-96929455D01*
X197142555Y-96902172D01*
X197125918Y-96871045D01*
X197115674Y-96837277D01*
X197111600Y-96795907D01*
X197111600Y-96193093D01*
X197115674Y-96151723D01*
X197125918Y-96117955D01*
X197142555Y-96086828D01*
X197164945Y-96059545D01*
X197192228Y-96037155D01*
X197223355Y-96020518D01*
X197257123Y-96010274D01*
X197298493Y-96006200D01*
X197976307Y-96006200D01*
X198017677Y-96010274D01*
G37*
G36*
X194855877Y-95464874D02*
G01*
X194889645Y-95475118D01*
X194920772Y-95491755D01*
X194948055Y-95514145D01*
X194970445Y-95541428D01*
X194987082Y-95572555D01*
X194997326Y-95606323D01*
X195001400Y-95647693D01*
X195001400Y-96325507D01*
X194997326Y-96366877D01*
X194987082Y-96400645D01*
X194970445Y-96431772D01*
X194948055Y-96459055D01*
X194920772Y-96481445D01*
X194889645Y-96498082D01*
X194855877Y-96508326D01*
X194814507Y-96512400D01*
X194211693Y-96512400D01*
X194170323Y-96508326D01*
X194136555Y-96498082D01*
X194105428Y-96481445D01*
X194078145Y-96459055D01*
X194055755Y-96431772D01*
X194039118Y-96400645D01*
X194028874Y-96366877D01*
X194024800Y-96325507D01*
X194024800Y-95647693D01*
X194028874Y-95606323D01*
X194039118Y-95572555D01*
X194055755Y-95541428D01*
X194078145Y-95514145D01*
X194105428Y-95491755D01*
X194136555Y-95475118D01*
X194170323Y-95464874D01*
X194211693Y-95460800D01*
X194814507Y-95460800D01*
X194855877Y-95464874D01*
G37*
G36*
X196430877Y-95464874D02*
G01*
X196464645Y-95475118D01*
X196495772Y-95491755D01*
X196523055Y-95514145D01*
X196545445Y-95541428D01*
X196562082Y-95572555D01*
X196572326Y-95606323D01*
X196576400Y-95647693D01*
X196576400Y-96325507D01*
X196572326Y-96366877D01*
X196562082Y-96400645D01*
X196545445Y-96431772D01*
X196523055Y-96459055D01*
X196495772Y-96481445D01*
X196464645Y-96498082D01*
X196430877Y-96508326D01*
X196389507Y-96512400D01*
X195786693Y-96512400D01*
X195745323Y-96508326D01*
X195711555Y-96498082D01*
X195680428Y-96481445D01*
X195653145Y-96459055D01*
X195630755Y-96431772D01*
X195614118Y-96400645D01*
X195603874Y-96366877D01*
X195599800Y-96325507D01*
X195599800Y-95647693D01*
X195603874Y-95606323D01*
X195614118Y-95572555D01*
X195630755Y-95541428D01*
X195653145Y-95514145D01*
X195680428Y-95491755D01*
X195711555Y-95475118D01*
X195745323Y-95464874D01*
X195786693Y-95460800D01*
X196389507Y-95460800D01*
X196430877Y-95464874D01*
G37*
G36*
X184189400Y-96411200D02*
G01*
X183287800Y-96411200D01*
X183287800Y-95409600D01*
X184189400Y-95409600D01*
X184189400Y-96411200D01*
G37*
G36*
X182289400Y-96411200D02*
G01*
X181387800Y-96411200D01*
X181387800Y-95409600D01*
X182289400Y-95409600D01*
X182289400Y-96411200D01*
G37*
G36*
X102335593Y-91755474D02*
G01*
X102746996Y-91925882D01*
X102909325Y-92034347D01*
X103117249Y-92173277D01*
X103432123Y-92488151D01*
X103527401Y-92630745D01*
X103679518Y-92858404D01*
X103849926Y-93269807D01*
X103936800Y-93706550D01*
X103936800Y-94151850D01*
X103849926Y-94588593D01*
X103679518Y-94999996D01*
X103584233Y-95142600D01*
X103432123Y-95370249D01*
X103117249Y-95685123D01*
X102932122Y-95808820D01*
X102746996Y-95932518D01*
X102335593Y-96102926D01*
X101898850Y-96189800D01*
X101453550Y-96189800D01*
X101016807Y-96102926D01*
X100605404Y-95932518D01*
X100420278Y-95808820D01*
X100235151Y-95685123D01*
X99920277Y-95370249D01*
X99768167Y-95142600D01*
X99672882Y-94999996D01*
X99502474Y-94588593D01*
X99415600Y-94151850D01*
X99415600Y-93706550D01*
X99502474Y-93269807D01*
X99672882Y-92858404D01*
X99824999Y-92630745D01*
X99920277Y-92488151D01*
X100235151Y-92173277D01*
X100443075Y-92034347D01*
X100605404Y-91925882D01*
X101016807Y-91755474D01*
X101453550Y-91668600D01*
X101898850Y-91668600D01*
X102335593Y-91755474D01*
G37*
G36*
X96335593Y-91755474D02*
G01*
X96746996Y-91925882D01*
X96909325Y-92034347D01*
X97117249Y-92173277D01*
X97432123Y-92488151D01*
X97527401Y-92630745D01*
X97679518Y-92858404D01*
X97849926Y-93269807D01*
X97936800Y-93706550D01*
X97936800Y-94151850D01*
X97849926Y-94588593D01*
X97679518Y-94999996D01*
X97584233Y-95142600D01*
X97432123Y-95370249D01*
X97117249Y-95685123D01*
X96932122Y-95808820D01*
X96746996Y-95932518D01*
X96335593Y-96102926D01*
X95898850Y-96189800D01*
X95453550Y-96189800D01*
X95016807Y-96102926D01*
X94605404Y-95932518D01*
X94420278Y-95808820D01*
X94235151Y-95685123D01*
X93920277Y-95370249D01*
X93768167Y-95142600D01*
X93672882Y-94999996D01*
X93502474Y-94588593D01*
X93415600Y-94151850D01*
X93415600Y-93706550D01*
X93502474Y-93269807D01*
X93672882Y-92858404D01*
X93824999Y-92630745D01*
X93920277Y-92488151D01*
X94235151Y-92173277D01*
X94443075Y-92034347D01*
X94605404Y-91925882D01*
X95016807Y-91755474D01*
X95453550Y-91668600D01*
X95898850Y-91668600D01*
X96335593Y-91755474D01*
G37*
G36*
X132083225Y-95463305D02*
G01*
X132103628Y-95469495D01*
X132122439Y-95479549D01*
X132138923Y-95493077D01*
X132152451Y-95509561D01*
X132162505Y-95528372D01*
X132168695Y-95548775D01*
X132171400Y-95576243D01*
X132171400Y-96036557D01*
X132168695Y-96064025D01*
X132162505Y-96084428D01*
X132152451Y-96103239D01*
X132138923Y-96119723D01*
X132122439Y-96133251D01*
X132103628Y-96143305D01*
X132083225Y-96149495D01*
X132055757Y-96152200D01*
X131545443Y-96152200D01*
X131517975Y-96149495D01*
X131497572Y-96143305D01*
X131478761Y-96133251D01*
X131462277Y-96119723D01*
X131448749Y-96103239D01*
X131438695Y-96084428D01*
X131432505Y-96064025D01*
X131429800Y-96036557D01*
X131429800Y-95576243D01*
X131432505Y-95548775D01*
X131438695Y-95528372D01*
X131448749Y-95509561D01*
X131462277Y-95493077D01*
X131478761Y-95479549D01*
X131497572Y-95469495D01*
X131517975Y-95463305D01*
X131545443Y-95460600D01*
X132055757Y-95460600D01*
X132083225Y-95463305D01*
G37*
G36*
X130889425Y-95437905D02*
G01*
X130909828Y-95444095D01*
X130928639Y-95454149D01*
X130945123Y-95467677D01*
X130958651Y-95484161D01*
X130968705Y-95502972D01*
X130974895Y-95523375D01*
X130977600Y-95550843D01*
X130977600Y-96011157D01*
X130974895Y-96038625D01*
X130968705Y-96059028D01*
X130958651Y-96077839D01*
X130945123Y-96094323D01*
X130928639Y-96107851D01*
X130909828Y-96117905D01*
X130889425Y-96124095D01*
X130861957Y-96126800D01*
X130351643Y-96126800D01*
X130324175Y-96124095D01*
X130303772Y-96117905D01*
X130284961Y-96107851D01*
X130268477Y-96094323D01*
X130254949Y-96077839D01*
X130244895Y-96059028D01*
X130238705Y-96038625D01*
X130236000Y-96011157D01*
X130236000Y-95550843D01*
X130238705Y-95523375D01*
X130244895Y-95502972D01*
X130254949Y-95484161D01*
X130268477Y-95467677D01*
X130284961Y-95454149D01*
X130303772Y-95444095D01*
X130324175Y-95437905D01*
X130351643Y-95435200D01*
X130861957Y-95435200D01*
X130889425Y-95437905D01*
G37*
G36*
X127253277Y-95146674D02*
G01*
X127287045Y-95156918D01*
X127318172Y-95173555D01*
X127345455Y-95195945D01*
X127367845Y-95223228D01*
X127384482Y-95254355D01*
X127394726Y-95288123D01*
X127398800Y-95329493D01*
X127398800Y-95932307D01*
X127394726Y-95973677D01*
X127384482Y-96007445D01*
X127367845Y-96038572D01*
X127345455Y-96065855D01*
X127318172Y-96088245D01*
X127287045Y-96104882D01*
X127253277Y-96115126D01*
X127211907Y-96119200D01*
X126534093Y-96119200D01*
X126492723Y-96115126D01*
X126458955Y-96104882D01*
X126427828Y-96088245D01*
X126400545Y-96065855D01*
X126378155Y-96038572D01*
X126361518Y-96007445D01*
X126351274Y-95973677D01*
X126347200Y-95932307D01*
X126347200Y-95329493D01*
X126351274Y-95288123D01*
X126361518Y-95254355D01*
X126378155Y-95223228D01*
X126400545Y-95195945D01*
X126427828Y-95173555D01*
X126458955Y-95156918D01*
X126492723Y-95146674D01*
X126534093Y-95142600D01*
X127211907Y-95142600D01*
X127253277Y-95146674D01*
G37*
G36*
X129797225Y-95412505D02*
G01*
X129817628Y-95418695D01*
X129836439Y-95428749D01*
X129852923Y-95442277D01*
X129866451Y-95458761D01*
X129876505Y-95477572D01*
X129882695Y-95497975D01*
X129885400Y-95525443D01*
X129885400Y-95985757D01*
X129882695Y-96013225D01*
X129876505Y-96033628D01*
X129866451Y-96052439D01*
X129852923Y-96068923D01*
X129836439Y-96082451D01*
X129817628Y-96092505D01*
X129797225Y-96098695D01*
X129769757Y-96101400D01*
X129259443Y-96101400D01*
X129231975Y-96098695D01*
X129211572Y-96092505D01*
X129192761Y-96082451D01*
X129176277Y-96068923D01*
X129162749Y-96052439D01*
X129152695Y-96033628D01*
X129146505Y-96013225D01*
X129143800Y-95985757D01*
X129143800Y-95525443D01*
X129146505Y-95497975D01*
X129152695Y-95477572D01*
X129162749Y-95458761D01*
X129176277Y-95442277D01*
X129192761Y-95428749D01*
X129211572Y-95418695D01*
X129231975Y-95412505D01*
X129259443Y-95409800D01*
X129769757Y-95409800D01*
X129797225Y-95412505D01*
G37*
G36*
X199567077Y-94435474D02*
G01*
X199600845Y-94445718D01*
X199631972Y-94462355D01*
X199659255Y-94484745D01*
X199681645Y-94512028D01*
X199698282Y-94543155D01*
X199708526Y-94576923D01*
X199712600Y-94618293D01*
X199712600Y-95221107D01*
X199708526Y-95262477D01*
X199698282Y-95296245D01*
X199681645Y-95327372D01*
X199659255Y-95354655D01*
X199631972Y-95377045D01*
X199600845Y-95393682D01*
X199567077Y-95403926D01*
X199525707Y-95408000D01*
X198847893Y-95408000D01*
X198806523Y-95403926D01*
X198772755Y-95393682D01*
X198741628Y-95377045D01*
X198714345Y-95354655D01*
X198691955Y-95327372D01*
X198675318Y-95296245D01*
X198665074Y-95262477D01*
X198661000Y-95221107D01*
X198661000Y-94618293D01*
X198665074Y-94576923D01*
X198675318Y-94543155D01*
X198691955Y-94512028D01*
X198714345Y-94484745D01*
X198741628Y-94462355D01*
X198772755Y-94445718D01*
X198806523Y-94435474D01*
X198847893Y-94431400D01*
X199525707Y-94431400D01*
X199567077Y-94435474D01*
G37*
G36*
X203437354Y-93113817D02*
G01*
X203601289Y-93181721D01*
X203748827Y-93280303D01*
X203874297Y-93405773D01*
X203972879Y-93553311D01*
X204040783Y-93717246D01*
X204075400Y-93891279D01*
X204075400Y-94068721D01*
X204040783Y-94242754D01*
X203972879Y-94406689D01*
X203874297Y-94554227D01*
X203748827Y-94679697D01*
X203601289Y-94778279D01*
X203437354Y-94846183D01*
X203263321Y-94880800D01*
X203085879Y-94880800D01*
X202911846Y-94846183D01*
X202747911Y-94778279D01*
X202600373Y-94679697D01*
X202474903Y-94554227D01*
X202376321Y-94406689D01*
X202308417Y-94242754D01*
X202273800Y-94068721D01*
X202273800Y-93891279D01*
X202308417Y-93717246D01*
X202376321Y-93553311D01*
X202474903Y-93405773D01*
X202600373Y-93280303D01*
X202747911Y-93181721D01*
X202911846Y-93113817D01*
X203085879Y-93079200D01*
X203263321Y-93079200D01*
X203437354Y-93113817D01*
G37*
G36*
X205977354Y-93113817D02*
G01*
X206141289Y-93181721D01*
X206288827Y-93280303D01*
X206414297Y-93405773D01*
X206512879Y-93553311D01*
X206580783Y-93717246D01*
X206615400Y-93891279D01*
X206615400Y-94068721D01*
X206580783Y-94242754D01*
X206512879Y-94406689D01*
X206414297Y-94554227D01*
X206288827Y-94679697D01*
X206141289Y-94778279D01*
X205977354Y-94846183D01*
X205803321Y-94880800D01*
X205625879Y-94880800D01*
X205451846Y-94846183D01*
X205287911Y-94778279D01*
X205140373Y-94679697D01*
X205014903Y-94554227D01*
X204916321Y-94406689D01*
X204848417Y-94242754D01*
X204813800Y-94068721D01*
X204813800Y-93891279D01*
X204848417Y-93717246D01*
X204916321Y-93553311D01*
X205014903Y-93405773D01*
X205140373Y-93280303D01*
X205287911Y-93181721D01*
X205451846Y-93113817D01*
X205625879Y-93079200D01*
X205803321Y-93079200D01*
X205977354Y-93113817D01*
G37*
G36*
X196333383Y-91568953D02*
G01*
X196597412Y-91678318D01*
X196835031Y-91837090D01*
X197037110Y-92039169D01*
X197195882Y-92276788D01*
X197305247Y-92540817D01*
X197361000Y-92821109D01*
X197361000Y-93106891D01*
X197305247Y-93387183D01*
X197195882Y-93651212D01*
X197037110Y-93888831D01*
X196835031Y-94090910D01*
X196597412Y-94249682D01*
X196333383Y-94359047D01*
X196053091Y-94414800D01*
X195767309Y-94414800D01*
X195487017Y-94359047D01*
X195222988Y-94249682D01*
X194985369Y-94090910D01*
X194783290Y-93888831D01*
X194624518Y-93651212D01*
X194515153Y-93387183D01*
X194459400Y-93106891D01*
X194459400Y-92821109D01*
X194515153Y-92540817D01*
X194624518Y-92276788D01*
X194783290Y-92039169D01*
X194985369Y-91837090D01*
X195222988Y-91678318D01*
X195487017Y-91568953D01*
X195767309Y-91513200D01*
X196053091Y-91513200D01*
X196333383Y-91568953D01*
G37*
G36*
X183239400Y-94411200D02*
G01*
X182337800Y-94411200D01*
X182337800Y-93409600D01*
X183239400Y-93409600D01*
X183239400Y-94411200D01*
G37*
G36*
X190229400Y-94058400D02*
G01*
X189327800Y-94058400D01*
X189327800Y-93056800D01*
X190229400Y-93056800D01*
X190229400Y-94058400D01*
G37*
G36*
X192129400Y-94058400D02*
G01*
X191227800Y-94058400D01*
X191227800Y-93056800D01*
X192129400Y-93056800D01*
X192129400Y-94058400D01*
G37*
G36*
X186028877Y-93038674D02*
G01*
X186062645Y-93048918D01*
X186093772Y-93065555D01*
X186121055Y-93087945D01*
X186143445Y-93115228D01*
X186160082Y-93146355D01*
X186170326Y-93180123D01*
X186174400Y-93221493D01*
X186174400Y-93824307D01*
X186170326Y-93865677D01*
X186160082Y-93899445D01*
X186143445Y-93930572D01*
X186121055Y-93957855D01*
X186093772Y-93980245D01*
X186062645Y-93996882D01*
X186028877Y-94007126D01*
X185987507Y-94011200D01*
X185309693Y-94011200D01*
X185268323Y-94007126D01*
X185234555Y-93996882D01*
X185203428Y-93980245D01*
X185176145Y-93957855D01*
X185153755Y-93930572D01*
X185137118Y-93899445D01*
X185126874Y-93865677D01*
X185122800Y-93824307D01*
X185122800Y-93221493D01*
X185126874Y-93180123D01*
X185137118Y-93146355D01*
X185153755Y-93115228D01*
X185176145Y-93087945D01*
X185203428Y-93065555D01*
X185234555Y-93048918D01*
X185268323Y-93038674D01*
X185309693Y-93034600D01*
X185987507Y-93034600D01*
X186028877Y-93038674D01*
G37*
G36*
X199592477Y-92581474D02*
G01*
X199626245Y-92591718D01*
X199657372Y-92608355D01*
X199684655Y-92630745D01*
X199707045Y-92658028D01*
X199723682Y-92689155D01*
X199733926Y-92722923D01*
X199738000Y-92764293D01*
X199738000Y-93367107D01*
X199733926Y-93408477D01*
X199723682Y-93442245D01*
X199707045Y-93473372D01*
X199684655Y-93500655D01*
X199657372Y-93523045D01*
X199626245Y-93539682D01*
X199592477Y-93549926D01*
X199551107Y-93554000D01*
X198873293Y-93554000D01*
X198831923Y-93549926D01*
X198798155Y-93539682D01*
X198767028Y-93523045D01*
X198739745Y-93500655D01*
X198717355Y-93473372D01*
X198700718Y-93442245D01*
X198690474Y-93408477D01*
X198686400Y-93367107D01*
X198686400Y-92764293D01*
X198690474Y-92722923D01*
X198700718Y-92689155D01*
X198717355Y-92658028D01*
X198739745Y-92630745D01*
X198767028Y-92608355D01*
X198798155Y-92591718D01*
X198831923Y-92581474D01*
X198873293Y-92577400D01*
X199551107Y-92577400D01*
X199592477Y-92581474D01*
G37*
G36*
X183209477Y-91997274D02*
G01*
X183243245Y-92007518D01*
X183274372Y-92024155D01*
X183301655Y-92046545D01*
X183324045Y-92073828D01*
X183340682Y-92104955D01*
X183350926Y-92138723D01*
X183355000Y-92180093D01*
X183355000Y-92782907D01*
X183350926Y-92824277D01*
X183340682Y-92858045D01*
X183324045Y-92889172D01*
X183301655Y-92916455D01*
X183274372Y-92938845D01*
X183243245Y-92955482D01*
X183209477Y-92965726D01*
X183168107Y-92969800D01*
X182490293Y-92969800D01*
X182448923Y-92965726D01*
X182415155Y-92955482D01*
X182384028Y-92938845D01*
X182356745Y-92916455D01*
X182334355Y-92889172D01*
X182317718Y-92858045D01*
X182307474Y-92824277D01*
X182303400Y-92782907D01*
X182303400Y-92180093D01*
X182307474Y-92138723D01*
X182317718Y-92104955D01*
X182334355Y-92073828D01*
X182356745Y-92046545D01*
X182384028Y-92024155D01*
X182415155Y-92007518D01*
X182448923Y-91997274D01*
X182490293Y-91993200D01*
X183168107Y-91993200D01*
X183209477Y-91997274D01*
G37*
G36*
X186028877Y-91463674D02*
G01*
X186062645Y-91473918D01*
X186093772Y-91490555D01*
X186121055Y-91512945D01*
X186143445Y-91540228D01*
X186160082Y-91571355D01*
X186170326Y-91605123D01*
X186174400Y-91646493D01*
X186174400Y-92249307D01*
X186170326Y-92290677D01*
X186160082Y-92324445D01*
X186143445Y-92355572D01*
X186121055Y-92382855D01*
X186093772Y-92405245D01*
X186062645Y-92421882D01*
X186028877Y-92432126D01*
X185987507Y-92436200D01*
X185309693Y-92436200D01*
X185268323Y-92432126D01*
X185234555Y-92421882D01*
X185203428Y-92405245D01*
X185176145Y-92382855D01*
X185153755Y-92355572D01*
X185137118Y-92324445D01*
X185126874Y-92290677D01*
X185122800Y-92249307D01*
X185122800Y-91646493D01*
X185126874Y-91605123D01*
X185137118Y-91571355D01*
X185153755Y-91540228D01*
X185176145Y-91512945D01*
X185203428Y-91490555D01*
X185234555Y-91473918D01*
X185268323Y-91463674D01*
X185309693Y-91459600D01*
X185987507Y-91459600D01*
X186028877Y-91463674D01*
G37*
G36*
X205977354Y-90573817D02*
G01*
X206141289Y-90641721D01*
X206288827Y-90740303D01*
X206414297Y-90865773D01*
X206512879Y-91013311D01*
X206580783Y-91177246D01*
X206615400Y-91351279D01*
X206615400Y-91528721D01*
X206580783Y-91702754D01*
X206512879Y-91866689D01*
X206414297Y-92014227D01*
X206288827Y-92139697D01*
X206141289Y-92238279D01*
X205977354Y-92306183D01*
X205803321Y-92340800D01*
X205625879Y-92340800D01*
X205451846Y-92306183D01*
X205287911Y-92238279D01*
X205140373Y-92139697D01*
X205014903Y-92014227D01*
X204916321Y-91866689D01*
X204848417Y-91702754D01*
X204813800Y-91528721D01*
X204813800Y-91351279D01*
X204848417Y-91177246D01*
X204916321Y-91013311D01*
X205014903Y-90865773D01*
X205140373Y-90740303D01*
X205287911Y-90641721D01*
X205451846Y-90573817D01*
X205625879Y-90539200D01*
X205803321Y-90539200D01*
X205977354Y-90573817D01*
G37*
G36*
X203437354Y-90573817D02*
G01*
X203601289Y-90641721D01*
X203748827Y-90740303D01*
X203874297Y-90865773D01*
X203972879Y-91013311D01*
X204040783Y-91177246D01*
X204075400Y-91351279D01*
X204075400Y-91528721D01*
X204040783Y-91702754D01*
X203972879Y-91866689D01*
X203874297Y-92014227D01*
X203748827Y-92139697D01*
X203601289Y-92238279D01*
X203437354Y-92306183D01*
X203263321Y-92340800D01*
X203085879Y-92340800D01*
X202911846Y-92306183D01*
X202747911Y-92238279D01*
X202600373Y-92139697D01*
X202474903Y-92014227D01*
X202376321Y-91866689D01*
X202308417Y-91702754D01*
X202273800Y-91528721D01*
X202273800Y-91351279D01*
X202308417Y-91177246D01*
X202376321Y-91013311D01*
X202474903Y-90865773D01*
X202600373Y-90740303D01*
X202747911Y-90641721D01*
X202911846Y-90573817D01*
X203085879Y-90539200D01*
X203263321Y-90539200D01*
X203437354Y-90573817D01*
G37*
G36*
X191179400Y-92058400D02*
G01*
X190277800Y-92058400D01*
X190277800Y-91056800D01*
X191179400Y-91056800D01*
X191179400Y-92058400D01*
G37*
G36*
X199592477Y-91006474D02*
G01*
X199626245Y-91016718D01*
X199657372Y-91033355D01*
X199684655Y-91055745D01*
X199707045Y-91083028D01*
X199723682Y-91114155D01*
X199733926Y-91147923D01*
X199738000Y-91189293D01*
X199738000Y-91792107D01*
X199733926Y-91833477D01*
X199723682Y-91867245D01*
X199707045Y-91898372D01*
X199684655Y-91925655D01*
X199657372Y-91948045D01*
X199626245Y-91964682D01*
X199592477Y-91974926D01*
X199551107Y-91979000D01*
X198873293Y-91979000D01*
X198831923Y-91974926D01*
X198798155Y-91964682D01*
X198767028Y-91948045D01*
X198739745Y-91925655D01*
X198717355Y-91898372D01*
X198700718Y-91867245D01*
X198690474Y-91833477D01*
X198686400Y-91792107D01*
X198686400Y-91189293D01*
X198690474Y-91147923D01*
X198700718Y-91114155D01*
X198717355Y-91083028D01*
X198739745Y-91055745D01*
X198767028Y-91033355D01*
X198798155Y-91016718D01*
X198831923Y-91006474D01*
X198873293Y-91002400D01*
X199551107Y-91002400D01*
X199592477Y-91006474D01*
G37*
G36*
X183209477Y-90422274D02*
G01*
X183243245Y-90432518D01*
X183274372Y-90449155D01*
X183301655Y-90471545D01*
X183324045Y-90498828D01*
X183340682Y-90529955D01*
X183350926Y-90563723D01*
X183355000Y-90605093D01*
X183355000Y-91207907D01*
X183350926Y-91249277D01*
X183340682Y-91283045D01*
X183324045Y-91314172D01*
X183301655Y-91341455D01*
X183274372Y-91363845D01*
X183243245Y-91380482D01*
X183209477Y-91390726D01*
X183168107Y-91394800D01*
X182490293Y-91394800D01*
X182448923Y-91390726D01*
X182415155Y-91380482D01*
X182384028Y-91363845D01*
X182356745Y-91341455D01*
X182334355Y-91314172D01*
X182317718Y-91283045D01*
X182307474Y-91249277D01*
X182303400Y-91207907D01*
X182303400Y-90605093D01*
X182307474Y-90563723D01*
X182317718Y-90529955D01*
X182334355Y-90498828D01*
X182356745Y-90471545D01*
X182384028Y-90449155D01*
X182415155Y-90432518D01*
X182448923Y-90422274D01*
X182490293Y-90418200D01*
X183168107Y-90418200D01*
X183209477Y-90422274D01*
G37*
G36*
X199089000Y-90451600D02*
G01*
X198187400Y-90451600D01*
X198187400Y-89450000D01*
X199089000Y-89450000D01*
X199089000Y-90451600D01*
G37*
G36*
X197189000Y-90451600D02*
G01*
X196287400Y-90451600D01*
X196287400Y-89450000D01*
X197189000Y-89450000D01*
X197189000Y-90451600D01*
G37*
G36*
X195683800Y-90377000D02*
G01*
X194682200Y-90377000D01*
X194682200Y-89475400D01*
X195683800Y-89475400D01*
X195683800Y-90377000D01*
G37*
G36*
X191401677Y-89318074D02*
G01*
X191435445Y-89328318D01*
X191466572Y-89344955D01*
X191493855Y-89367345D01*
X191516245Y-89394628D01*
X191532882Y-89425755D01*
X191543126Y-89459523D01*
X191547200Y-89500893D01*
X191547200Y-90178707D01*
X191543126Y-90220077D01*
X191532882Y-90253845D01*
X191516245Y-90284972D01*
X191493855Y-90312255D01*
X191466572Y-90334645D01*
X191435445Y-90351282D01*
X191401677Y-90361526D01*
X191360307Y-90365600D01*
X190757493Y-90365600D01*
X190716123Y-90361526D01*
X190682355Y-90351282D01*
X190651228Y-90334645D01*
X190623945Y-90312255D01*
X190601555Y-90284972D01*
X190584918Y-90253845D01*
X190574674Y-90220077D01*
X190570600Y-90178707D01*
X190570600Y-89500893D01*
X190574674Y-89459523D01*
X190584918Y-89425755D01*
X190601555Y-89394628D01*
X190623945Y-89367345D01*
X190651228Y-89344955D01*
X190682355Y-89328318D01*
X190716123Y-89318074D01*
X190757493Y-89314000D01*
X191360307Y-89314000D01*
X191401677Y-89318074D01*
G37*
G36*
X189826677Y-89318074D02*
G01*
X189860445Y-89328318D01*
X189891572Y-89344955D01*
X189918855Y-89367345D01*
X189941245Y-89394628D01*
X189957882Y-89425755D01*
X189968126Y-89459523D01*
X189972200Y-89500893D01*
X189972200Y-90178707D01*
X189968126Y-90220077D01*
X189957882Y-90253845D01*
X189941245Y-90284972D01*
X189918855Y-90312255D01*
X189891572Y-90334645D01*
X189860445Y-90351282D01*
X189826677Y-90361526D01*
X189785307Y-90365600D01*
X189182493Y-90365600D01*
X189141123Y-90361526D01*
X189107355Y-90351282D01*
X189076228Y-90334645D01*
X189048945Y-90312255D01*
X189026555Y-90284972D01*
X189009918Y-90253845D01*
X188999674Y-90220077D01*
X188995600Y-90178707D01*
X188995600Y-89500893D01*
X188999674Y-89459523D01*
X189009918Y-89425755D01*
X189026555Y-89394628D01*
X189048945Y-89367345D01*
X189076228Y-89344955D01*
X189107355Y-89328318D01*
X189141123Y-89318074D01*
X189182493Y-89314000D01*
X189785307Y-89314000D01*
X189826677Y-89318074D01*
G37*
G36*
X203437354Y-88033817D02*
G01*
X203601289Y-88101721D01*
X203748827Y-88200303D01*
X203874297Y-88325773D01*
X203972879Y-88473311D01*
X204040783Y-88637246D01*
X204075400Y-88811279D01*
X204075400Y-88988721D01*
X204040783Y-89162754D01*
X203972879Y-89326689D01*
X203874297Y-89474227D01*
X203748827Y-89599697D01*
X203601289Y-89698279D01*
X203437354Y-89766183D01*
X203263321Y-89800800D01*
X203085879Y-89800800D01*
X202911846Y-89766183D01*
X202747911Y-89698279D01*
X202600373Y-89599697D01*
X202474903Y-89474227D01*
X202376321Y-89326689D01*
X202308417Y-89162754D01*
X202273800Y-88988721D01*
X202273800Y-88811279D01*
X202308417Y-88637246D01*
X202376321Y-88473311D01*
X202474903Y-88325773D01*
X202600373Y-88200303D01*
X202747911Y-88101721D01*
X202911846Y-88033817D01*
X203085879Y-87999200D01*
X203263321Y-87999200D01*
X203437354Y-88033817D01*
G37*
G36*
X205977354Y-88033817D02*
G01*
X206141289Y-88101721D01*
X206288827Y-88200303D01*
X206414297Y-88325773D01*
X206512879Y-88473311D01*
X206580783Y-88637246D01*
X206615400Y-88811279D01*
X206615400Y-88988721D01*
X206580783Y-89162754D01*
X206512879Y-89326689D01*
X206414297Y-89474227D01*
X206288827Y-89599697D01*
X206141289Y-89698279D01*
X205977354Y-89766183D01*
X205803321Y-89800800D01*
X205625879Y-89800800D01*
X205451846Y-89766183D01*
X205287911Y-89698279D01*
X205140373Y-89599697D01*
X205014903Y-89474227D01*
X204916321Y-89326689D01*
X204848417Y-89162754D01*
X204813800Y-88988721D01*
X204813800Y-88811279D01*
X204848417Y-88637246D01*
X204916321Y-88473311D01*
X205014903Y-88325773D01*
X205140373Y-88200303D01*
X205287911Y-88101721D01*
X205451846Y-88033817D01*
X205625879Y-87999200D01*
X205803321Y-87999200D01*
X205977354Y-88033817D01*
G37*
G36*
X193683800Y-89427000D02*
G01*
X192682200Y-89427000D01*
X192682200Y-88525400D01*
X193683800Y-88525400D01*
X193683800Y-89427000D01*
G37*
G36*
X178045383Y-86565153D02*
G01*
X178309412Y-86674518D01*
X178547031Y-86833290D01*
X178749110Y-87035369D01*
X178907882Y-87272988D01*
X179017247Y-87537017D01*
X179073000Y-87817309D01*
X179073000Y-88103091D01*
X179017247Y-88383383D01*
X178907882Y-88647412D01*
X178749110Y-88885031D01*
X178547031Y-89087110D01*
X178309412Y-89245882D01*
X178045383Y-89355247D01*
X177765091Y-89411000D01*
X177479309Y-89411000D01*
X177199017Y-89355247D01*
X176934988Y-89245882D01*
X176697369Y-89087110D01*
X176495290Y-88885031D01*
X176336518Y-88647412D01*
X176227153Y-88383383D01*
X176171400Y-88103091D01*
X176171400Y-87817309D01*
X176227153Y-87537017D01*
X176336518Y-87272988D01*
X176495290Y-87035369D01*
X176697369Y-86833290D01*
X176934988Y-86674518D01*
X177199017Y-86565153D01*
X177479309Y-86509400D01*
X177765091Y-86509400D01*
X178045383Y-86565153D01*
G37*
G36*
X195683800Y-88477000D02*
G01*
X194682200Y-88477000D01*
X194682200Y-87575400D01*
X195683800Y-87575400D01*
X195683800Y-88477000D01*
G37*
G36*
X198139000Y-88451600D02*
G01*
X197237400Y-88451600D01*
X197237400Y-87450000D01*
X198139000Y-87450000D01*
X198139000Y-88451600D01*
G37*
G36*
X205977354Y-85493817D02*
G01*
X206141289Y-85561721D01*
X206288827Y-85660303D01*
X206414297Y-85785773D01*
X206512879Y-85933311D01*
X206580783Y-86097246D01*
X206615400Y-86271279D01*
X206615400Y-86448721D01*
X206580783Y-86622754D01*
X206512879Y-86786689D01*
X206414297Y-86934227D01*
X206288827Y-87059697D01*
X206141289Y-87158279D01*
X205977354Y-87226183D01*
X205803321Y-87260800D01*
X205625879Y-87260800D01*
X205451846Y-87226183D01*
X205287911Y-87158279D01*
X205140373Y-87059697D01*
X205014903Y-86934227D01*
X204916321Y-86786689D01*
X204848417Y-86622754D01*
X204813800Y-86448721D01*
X204813800Y-86271279D01*
X204848417Y-86097246D01*
X204916321Y-85933311D01*
X205014903Y-85785773D01*
X205140373Y-85660303D01*
X205287911Y-85561721D01*
X205451846Y-85493817D01*
X205625879Y-85459200D01*
X205803321Y-85459200D01*
X205977354Y-85493817D01*
G37*
G36*
X203437354Y-85493817D02*
G01*
X203601289Y-85561721D01*
X203748827Y-85660303D01*
X203874297Y-85785773D01*
X203972879Y-85933311D01*
X204040783Y-86097246D01*
X204075400Y-86271279D01*
X204075400Y-86448721D01*
X204040783Y-86622754D01*
X203972879Y-86786689D01*
X203874297Y-86934227D01*
X203748827Y-87059697D01*
X203601289Y-87158279D01*
X203437354Y-87226183D01*
X203263321Y-87260800D01*
X203085879Y-87260800D01*
X202911846Y-87226183D01*
X202747911Y-87158279D01*
X202600373Y-87059697D01*
X202474903Y-86934227D01*
X202376321Y-86786689D01*
X202308417Y-86622754D01*
X202273800Y-86448721D01*
X202273800Y-86271279D01*
X202308417Y-86097246D01*
X202376321Y-85933311D01*
X202474903Y-85785773D01*
X202600373Y-85660303D01*
X202747911Y-85561721D01*
X202911846Y-85493817D01*
X203085879Y-85459200D01*
X203263321Y-85459200D01*
X203437354Y-85493817D01*
G37*
G36*
X196430677Y-85736674D02*
G01*
X196464445Y-85746918D01*
X196495572Y-85763555D01*
X196522855Y-85785945D01*
X196545245Y-85813228D01*
X196561882Y-85844355D01*
X196572126Y-85878123D01*
X196576200Y-85919493D01*
X196576200Y-86597307D01*
X196572126Y-86638677D01*
X196561882Y-86672445D01*
X196545245Y-86703572D01*
X196522855Y-86730855D01*
X196495572Y-86753245D01*
X196464445Y-86769882D01*
X196430677Y-86780126D01*
X196389307Y-86784200D01*
X195786493Y-86784200D01*
X195745123Y-86780126D01*
X195711355Y-86769882D01*
X195680228Y-86753245D01*
X195652945Y-86730855D01*
X195630555Y-86703572D01*
X195613918Y-86672445D01*
X195603674Y-86638677D01*
X195599600Y-86597307D01*
X195599600Y-85919493D01*
X195603674Y-85878123D01*
X195613918Y-85844355D01*
X195630555Y-85813228D01*
X195652945Y-85785945D01*
X195680228Y-85763555D01*
X195711355Y-85746918D01*
X195745123Y-85736674D01*
X195786493Y-85732600D01*
X196389307Y-85732600D01*
X196430677Y-85736674D01*
G37*
G36*
X198005677Y-85736674D02*
G01*
X198039445Y-85746918D01*
X198070572Y-85763555D01*
X198097855Y-85785945D01*
X198120245Y-85813228D01*
X198136882Y-85844355D01*
X198147126Y-85878123D01*
X198151200Y-85919493D01*
X198151200Y-86597307D01*
X198147126Y-86638677D01*
X198136882Y-86672445D01*
X198120245Y-86703572D01*
X198097855Y-86730855D01*
X198070572Y-86753245D01*
X198039445Y-86769882D01*
X198005677Y-86780126D01*
X197964307Y-86784200D01*
X197361493Y-86784200D01*
X197320123Y-86780126D01*
X197286355Y-86769882D01*
X197255228Y-86753245D01*
X197227945Y-86730855D01*
X197205555Y-86703572D01*
X197188918Y-86672445D01*
X197178674Y-86638677D01*
X197174600Y-86597307D01*
X197174600Y-85919493D01*
X197178674Y-85878123D01*
X197188918Y-85844355D01*
X197205555Y-85813228D01*
X197227945Y-85785945D01*
X197255228Y-85763555D01*
X197286355Y-85746918D01*
X197320123Y-85736674D01*
X197361493Y-85732600D01*
X197964307Y-85732600D01*
X198005677Y-85736674D01*
G37*
G36*
X149571983Y-82424953D02*
G01*
X149836012Y-82534318D01*
X150073631Y-82693090D01*
X150275710Y-82895169D01*
X150434482Y-83132788D01*
X150543847Y-83396817D01*
X150599600Y-83677109D01*
X150599600Y-83962891D01*
X150543847Y-84243183D01*
X150434482Y-84507212D01*
X150275710Y-84744831D01*
X150073631Y-84946910D01*
X149836012Y-85105682D01*
X149571983Y-85215047D01*
X149291691Y-85270800D01*
X149005909Y-85270800D01*
X148725617Y-85215047D01*
X148461588Y-85105682D01*
X148223969Y-84946910D01*
X148021890Y-84744831D01*
X147863118Y-84507212D01*
X147753753Y-84243183D01*
X147698000Y-83962891D01*
X147698000Y-83677109D01*
X147753753Y-83396817D01*
X147863118Y-83132788D01*
X148021890Y-82895169D01*
X148223969Y-82693090D01*
X148461588Y-82534318D01*
X148725617Y-82424953D01*
X149005909Y-82369200D01*
X149291691Y-82369200D01*
X149571983Y-82424953D01*
G37*
G36*
X124502183Y-82399553D02*
G01*
X124766212Y-82508918D01*
X125003831Y-82667690D01*
X125205910Y-82869769D01*
X125364682Y-83107388D01*
X125474047Y-83371417D01*
X125529800Y-83651709D01*
X125529800Y-83937491D01*
X125474047Y-84217783D01*
X125364682Y-84481812D01*
X125205910Y-84719431D01*
X125003831Y-84921510D01*
X124766212Y-85080282D01*
X124502183Y-85189647D01*
X124221891Y-85245400D01*
X123936109Y-85245400D01*
X123655817Y-85189647D01*
X123391788Y-85080282D01*
X123154169Y-84921510D01*
X122952090Y-84719431D01*
X122793318Y-84481812D01*
X122683953Y-84217783D01*
X122628200Y-83937491D01*
X122628200Y-83651709D01*
X122683953Y-83371417D01*
X122793318Y-83107388D01*
X122952090Y-82869769D01*
X123154169Y-82667690D01*
X123391788Y-82508918D01*
X123655817Y-82399553D01*
X123936109Y-82343800D01*
X124221891Y-82343800D01*
X124502183Y-82399553D01*
G37*
G36*
X142104383Y-82348753D02*
G01*
X142368412Y-82458118D01*
X142606031Y-82616890D01*
X142808110Y-82818969D01*
X142966882Y-83056588D01*
X143076247Y-83320617D01*
X143132000Y-83600909D01*
X143132000Y-83886691D01*
X143076247Y-84166983D01*
X142966882Y-84431012D01*
X142808110Y-84668631D01*
X142606031Y-84870710D01*
X142368412Y-85029482D01*
X142104383Y-85138847D01*
X141824091Y-85194600D01*
X141538309Y-85194600D01*
X141258017Y-85138847D01*
X140993988Y-85029482D01*
X140756369Y-84870710D01*
X140554290Y-84668631D01*
X140395518Y-84431012D01*
X140286153Y-84166983D01*
X140230400Y-83886691D01*
X140230400Y-83600909D01*
X140286153Y-83320617D01*
X140395518Y-83056588D01*
X140554290Y-82818969D01*
X140756369Y-82616890D01*
X140993988Y-82458118D01*
X141258017Y-82348753D01*
X141538309Y-82293000D01*
X141824091Y-82293000D01*
X142104383Y-82348753D01*
G37*
G36*
X134128783Y-82272553D02*
G01*
X134392812Y-82381918D01*
X134630431Y-82540690D01*
X134832510Y-82742769D01*
X134991282Y-82980388D01*
X135100647Y-83244417D01*
X135156400Y-83524709D01*
X135156400Y-83810491D01*
X135100647Y-84090783D01*
X134991282Y-84354812D01*
X134832510Y-84592431D01*
X134630431Y-84794510D01*
X134392812Y-84953282D01*
X134128783Y-85062647D01*
X133848491Y-85118400D01*
X133562709Y-85118400D01*
X133282417Y-85062647D01*
X133018388Y-84953282D01*
X132780769Y-84794510D01*
X132578690Y-84592431D01*
X132419918Y-84354812D01*
X132310553Y-84090783D01*
X132254800Y-83810491D01*
X132254800Y-83524709D01*
X132310553Y-83244417D01*
X132419918Y-82980388D01*
X132578690Y-82742769D01*
X132780769Y-82540690D01*
X133018388Y-82381918D01*
X133282417Y-82272553D01*
X133562709Y-82216800D01*
X133848491Y-82216800D01*
X134128783Y-82272553D01*
G37*
G36*
X129640877Y-83970874D02*
G01*
X129674645Y-83981118D01*
X129705772Y-83997755D01*
X129733055Y-84020145D01*
X129755445Y-84047428D01*
X129772082Y-84078555D01*
X129782326Y-84112323D01*
X129786400Y-84153693D01*
X129786400Y-84756507D01*
X129782326Y-84797877D01*
X129772082Y-84831645D01*
X129755445Y-84862772D01*
X129733055Y-84890055D01*
X129705772Y-84912445D01*
X129674645Y-84929082D01*
X129640877Y-84939326D01*
X129599507Y-84943400D01*
X128921693Y-84943400D01*
X128880323Y-84939326D01*
X128846555Y-84929082D01*
X128815428Y-84912445D01*
X128788145Y-84890055D01*
X128765755Y-84862772D01*
X128749118Y-84831645D01*
X128738874Y-84797877D01*
X128734800Y-84756507D01*
X128734800Y-84153693D01*
X128738874Y-84112323D01*
X128749118Y-84078555D01*
X128765755Y-84047428D01*
X128788145Y-84020145D01*
X128815428Y-83997755D01*
X128846555Y-83981118D01*
X128880323Y-83970874D01*
X128921693Y-83966800D01*
X129599507Y-83966800D01*
X129640877Y-83970874D01*
G37*
G36*
X137337077Y-83945474D02*
G01*
X137370845Y-83955718D01*
X137401972Y-83972355D01*
X137429255Y-83994745D01*
X137451645Y-84022028D01*
X137468282Y-84053155D01*
X137478526Y-84086923D01*
X137482600Y-84128293D01*
X137482600Y-84731107D01*
X137478526Y-84772477D01*
X137468282Y-84806245D01*
X137451645Y-84837372D01*
X137429255Y-84864655D01*
X137401972Y-84887045D01*
X137370845Y-84903682D01*
X137337077Y-84913926D01*
X137295707Y-84918000D01*
X136617893Y-84918000D01*
X136576523Y-84913926D01*
X136542755Y-84903682D01*
X136511628Y-84887045D01*
X136484345Y-84864655D01*
X136461955Y-84837372D01*
X136445318Y-84806245D01*
X136435074Y-84772477D01*
X136431000Y-84731107D01*
X136431000Y-84128293D01*
X136435074Y-84086923D01*
X136445318Y-84053155D01*
X136461955Y-84022028D01*
X136484345Y-83994745D01*
X136511628Y-83972355D01*
X136542755Y-83955718D01*
X136576523Y-83945474D01*
X136617893Y-83941400D01*
X137295707Y-83941400D01*
X137337077Y-83945474D01*
G37*
G36*
X145033277Y-83894674D02*
G01*
X145067045Y-83904918D01*
X145098172Y-83921555D01*
X145125455Y-83943945D01*
X145147845Y-83971228D01*
X145164482Y-84002355D01*
X145174726Y-84036123D01*
X145178800Y-84077493D01*
X145178800Y-84680307D01*
X145174726Y-84721677D01*
X145164482Y-84755445D01*
X145147845Y-84786572D01*
X145125455Y-84813855D01*
X145098172Y-84836245D01*
X145067045Y-84852882D01*
X145033277Y-84863126D01*
X144991907Y-84867200D01*
X144314093Y-84867200D01*
X144272723Y-84863126D01*
X144238955Y-84852882D01*
X144207828Y-84836245D01*
X144180545Y-84813855D01*
X144158155Y-84786572D01*
X144141518Y-84755445D01*
X144131274Y-84721677D01*
X144127200Y-84680307D01*
X144127200Y-84077493D01*
X144131274Y-84036123D01*
X144141518Y-84002355D01*
X144158155Y-83971228D01*
X144180545Y-83943945D01*
X144207828Y-83921555D01*
X144238955Y-83904918D01*
X144272723Y-83894674D01*
X144314093Y-83890600D01*
X144991907Y-83890600D01*
X145033277Y-83894674D01*
G37*
G36*
X205977354Y-82953817D02*
G01*
X206141289Y-83021721D01*
X206288827Y-83120303D01*
X206414297Y-83245773D01*
X206512879Y-83393311D01*
X206580783Y-83557246D01*
X206615400Y-83731279D01*
X206615400Y-83908721D01*
X206580783Y-84082754D01*
X206512879Y-84246689D01*
X206414297Y-84394227D01*
X206288827Y-84519697D01*
X206141289Y-84618279D01*
X205977354Y-84686183D01*
X205803321Y-84720800D01*
X205625879Y-84720800D01*
X205451846Y-84686183D01*
X205287911Y-84618279D01*
X205140373Y-84519697D01*
X205014903Y-84394227D01*
X204916321Y-84246689D01*
X204848417Y-84082754D01*
X204813800Y-83908721D01*
X204813800Y-83731279D01*
X204848417Y-83557246D01*
X204916321Y-83393311D01*
X205014903Y-83245773D01*
X205140373Y-83120303D01*
X205287911Y-83021721D01*
X205451846Y-82953817D01*
X205625879Y-82919200D01*
X205803321Y-82919200D01*
X205977354Y-82953817D01*
G37*
G36*
X203437354Y-82953817D02*
G01*
X203601289Y-83021721D01*
X203748827Y-83120303D01*
X203874297Y-83245773D01*
X203972879Y-83393311D01*
X204040783Y-83557246D01*
X204075400Y-83731279D01*
X204075400Y-83908721D01*
X204040783Y-84082754D01*
X203972879Y-84246689D01*
X203874297Y-84394227D01*
X203748827Y-84519697D01*
X203601289Y-84618279D01*
X203437354Y-84686183D01*
X203263321Y-84720800D01*
X203085879Y-84720800D01*
X202911846Y-84686183D01*
X202747911Y-84618279D01*
X202600373Y-84519697D01*
X202474903Y-84394227D01*
X202376321Y-84246689D01*
X202308417Y-84082754D01*
X202273800Y-83908721D01*
X202273800Y-83731279D01*
X202308417Y-83557246D01*
X202376321Y-83393311D01*
X202474903Y-83245773D01*
X202600373Y-83120303D01*
X202747911Y-83021721D01*
X202911846Y-82953817D01*
X203085879Y-82919200D01*
X203263321Y-82919200D01*
X203437354Y-82953817D01*
G37*
G36*
X96642152Y-81033396D02*
G01*
X96924379Y-81150299D01*
X97178378Y-81320015D01*
X97394385Y-81536022D01*
X97564101Y-81790021D01*
X97681004Y-82072248D01*
X97740600Y-82371859D01*
X97740600Y-82677341D01*
X97681004Y-82976952D01*
X97564101Y-83259179D01*
X97394385Y-83513178D01*
X97178378Y-83729185D01*
X96924379Y-83898901D01*
X96642152Y-84015804D01*
X96342541Y-84075400D01*
X96037059Y-84075400D01*
X95737448Y-84015804D01*
X95455221Y-83898901D01*
X95201222Y-83729185D01*
X94985215Y-83513178D01*
X94815499Y-83259179D01*
X94698596Y-82976952D01*
X94639000Y-82677341D01*
X94639000Y-82371859D01*
X94698596Y-82072248D01*
X94815499Y-81790021D01*
X94985215Y-81536022D01*
X95201222Y-81320015D01*
X95455221Y-81150299D01*
X95737448Y-81033396D01*
X96037059Y-80973800D01*
X96342541Y-80973800D01*
X96642152Y-81033396D01*
G37*
G36*
X129640877Y-82395874D02*
G01*
X129674645Y-82406118D01*
X129705772Y-82422755D01*
X129733055Y-82445145D01*
X129755445Y-82472428D01*
X129772082Y-82503555D01*
X129782326Y-82537323D01*
X129786400Y-82578693D01*
X129786400Y-83181507D01*
X129782326Y-83222877D01*
X129772082Y-83256645D01*
X129755445Y-83287772D01*
X129733055Y-83315055D01*
X129705772Y-83337445D01*
X129674645Y-83354082D01*
X129640877Y-83364326D01*
X129599507Y-83368400D01*
X128921693Y-83368400D01*
X128880323Y-83364326D01*
X128846555Y-83354082D01*
X128815428Y-83337445D01*
X128788145Y-83315055D01*
X128765755Y-83287772D01*
X128749118Y-83256645D01*
X128738874Y-83222877D01*
X128734800Y-83181507D01*
X128734800Y-82578693D01*
X128738874Y-82537323D01*
X128749118Y-82503555D01*
X128765755Y-82472428D01*
X128788145Y-82445145D01*
X128815428Y-82422755D01*
X128846555Y-82406118D01*
X128880323Y-82395874D01*
X128921693Y-82391800D01*
X129599507Y-82391800D01*
X129640877Y-82395874D01*
G37*
G36*
X137337077Y-82370474D02*
G01*
X137370845Y-82380718D01*
X137401972Y-82397355D01*
X137429255Y-82419745D01*
X137451645Y-82447028D01*
X137468282Y-82478155D01*
X137478526Y-82511923D01*
X137482600Y-82553293D01*
X137482600Y-83156107D01*
X137478526Y-83197477D01*
X137468282Y-83231245D01*
X137451645Y-83262372D01*
X137429255Y-83289655D01*
X137401972Y-83312045D01*
X137370845Y-83328682D01*
X137337077Y-83338926D01*
X137295707Y-83343000D01*
X136617893Y-83343000D01*
X136576523Y-83338926D01*
X136542755Y-83328682D01*
X136511628Y-83312045D01*
X136484345Y-83289655D01*
X136461955Y-83262372D01*
X136445318Y-83231245D01*
X136435074Y-83197477D01*
X136431000Y-83156107D01*
X136431000Y-82553293D01*
X136435074Y-82511923D01*
X136445318Y-82478155D01*
X136461955Y-82447028D01*
X136484345Y-82419745D01*
X136511628Y-82397355D01*
X136542755Y-82380718D01*
X136576523Y-82370474D01*
X136617893Y-82366400D01*
X137295707Y-82366400D01*
X137337077Y-82370474D01*
G37*
G36*
X103743385Y-81754574D02*
G01*
X103799020Y-81777619D01*
X103889124Y-81814941D01*
X103972458Y-81870624D01*
X104020280Y-81902578D01*
X104131822Y-82014120D01*
X104131824Y-82014123D01*
X104219459Y-82145276D01*
X104234173Y-82180800D01*
X104279826Y-82291015D01*
X104310600Y-82445728D01*
X104310600Y-82603472D01*
X104279826Y-82758185D01*
X104254648Y-82818969D01*
X104219459Y-82903924D01*
X104140748Y-83021721D01*
X104131822Y-83035080D01*
X104020280Y-83146622D01*
X104020277Y-83146624D01*
X103889124Y-83234259D01*
X103888561Y-83234492D01*
X103743385Y-83294626D01*
X103588672Y-83325400D01*
X103430928Y-83325400D01*
X103276215Y-83294626D01*
X103131039Y-83234492D01*
X103130476Y-83234259D01*
X102999323Y-83146624D01*
X102999320Y-83146622D01*
X102887778Y-83035080D01*
X102878852Y-83021721D01*
X102800141Y-82903924D01*
X102764952Y-82818969D01*
X102739774Y-82758185D01*
X102709000Y-82603472D01*
X102709000Y-82445728D01*
X102739774Y-82291015D01*
X102785427Y-82180800D01*
X102800141Y-82145276D01*
X102887776Y-82014123D01*
X102887778Y-82014120D01*
X102999320Y-81902578D01*
X103047142Y-81870624D01*
X103130476Y-81814941D01*
X103220580Y-81777619D01*
X103276215Y-81754574D01*
X103430928Y-81723800D01*
X103588672Y-81723800D01*
X103743385Y-81754574D01*
G37*
G36*
X101163776Y-81727905D02*
G01*
X101197848Y-81738241D01*
X101229251Y-81755026D01*
X101256781Y-81777619D01*
X101279374Y-81805149D01*
X101296159Y-81836552D01*
X101306495Y-81870624D01*
X101310600Y-81912310D01*
X101310600Y-83136890D01*
X101306495Y-83178576D01*
X101296159Y-83212648D01*
X101279374Y-83244051D01*
X101256781Y-83271581D01*
X101229251Y-83294174D01*
X101197848Y-83310959D01*
X101163776Y-83321295D01*
X101122090Y-83325400D01*
X99897510Y-83325400D01*
X99855824Y-83321295D01*
X99821752Y-83310959D01*
X99790349Y-83294174D01*
X99762819Y-83271581D01*
X99740226Y-83244051D01*
X99723441Y-83212648D01*
X99713105Y-83178576D01*
X99709000Y-83136890D01*
X99709000Y-81912310D01*
X99713105Y-81870624D01*
X99723441Y-81836552D01*
X99740226Y-81805149D01*
X99762819Y-81777619D01*
X99790349Y-81755026D01*
X99821752Y-81738241D01*
X99855824Y-81727905D01*
X99897510Y-81723800D01*
X101122090Y-81723800D01*
X101163776Y-81727905D01*
G37*
G36*
X145033277Y-82319674D02*
G01*
X145067045Y-82329918D01*
X145098172Y-82346555D01*
X145125455Y-82368945D01*
X145147845Y-82396228D01*
X145164482Y-82427355D01*
X145174726Y-82461123D01*
X145178800Y-82502493D01*
X145178800Y-83105307D01*
X145174726Y-83146677D01*
X145164482Y-83180445D01*
X145147845Y-83211572D01*
X145125455Y-83238855D01*
X145098172Y-83261245D01*
X145067045Y-83277882D01*
X145033277Y-83288126D01*
X144991907Y-83292200D01*
X144314093Y-83292200D01*
X144272723Y-83288126D01*
X144238955Y-83277882D01*
X144207828Y-83261245D01*
X144180545Y-83238855D01*
X144158155Y-83211572D01*
X144141518Y-83180445D01*
X144131274Y-83146677D01*
X144127200Y-83105307D01*
X144127200Y-82502493D01*
X144131274Y-82461123D01*
X144141518Y-82427355D01*
X144158155Y-82396228D01*
X144180545Y-82368945D01*
X144207828Y-82346555D01*
X144238955Y-82329918D01*
X144272723Y-82319674D01*
X144314093Y-82315600D01*
X144991907Y-82315600D01*
X145033277Y-82319674D01*
G37*
G36*
X205977354Y-80413817D02*
G01*
X206141289Y-80481721D01*
X206288827Y-80580303D01*
X206414297Y-80705773D01*
X206512879Y-80853311D01*
X206580783Y-81017246D01*
X206615400Y-81191279D01*
X206615400Y-81368721D01*
X206580783Y-81542754D01*
X206512879Y-81706689D01*
X206414297Y-81854227D01*
X206288827Y-81979697D01*
X206141289Y-82078279D01*
X205977354Y-82146183D01*
X205803321Y-82180800D01*
X205625879Y-82180800D01*
X205451846Y-82146183D01*
X205287911Y-82078279D01*
X205140373Y-81979697D01*
X205014903Y-81854227D01*
X204916321Y-81706689D01*
X204848417Y-81542754D01*
X204813800Y-81368721D01*
X204813800Y-81191279D01*
X204848417Y-81017246D01*
X204916321Y-80853311D01*
X205014903Y-80705773D01*
X205140373Y-80580303D01*
X205287911Y-80481721D01*
X205451846Y-80413817D01*
X205625879Y-80379200D01*
X205803321Y-80379200D01*
X205977354Y-80413817D01*
G37*
G36*
X203437354Y-80413817D02*
G01*
X203601289Y-80481721D01*
X203748827Y-80580303D01*
X203874297Y-80705773D01*
X203972879Y-80853311D01*
X204040783Y-81017246D01*
X204075400Y-81191279D01*
X204075400Y-81368721D01*
X204040783Y-81542754D01*
X203972879Y-81706689D01*
X203874297Y-81854227D01*
X203748827Y-81979697D01*
X203601289Y-82078279D01*
X203437354Y-82146183D01*
X203263321Y-82180800D01*
X203085879Y-82180800D01*
X202911846Y-82146183D01*
X202747911Y-82078279D01*
X202600373Y-81979697D01*
X202474903Y-81854227D01*
X202376321Y-81706689D01*
X202308417Y-81542754D01*
X202273800Y-81368721D01*
X202273800Y-81191279D01*
X202308417Y-81017246D01*
X202376321Y-80853311D01*
X202474903Y-80705773D01*
X202600373Y-80580303D01*
X202747911Y-80481721D01*
X202911846Y-80413817D01*
X203085879Y-80379200D01*
X203263321Y-80379200D01*
X203437354Y-80413817D01*
G37*
G36*
X150321000Y-81485400D02*
G01*
X149419400Y-81485400D01*
X149419400Y-80483800D01*
X150321000Y-80483800D01*
X150321000Y-81485400D01*
G37*
G36*
X148421000Y-81485400D02*
G01*
X147519400Y-81485400D01*
X147519400Y-80483800D01*
X148421000Y-80483800D01*
X148421000Y-81485400D01*
G37*
G36*
X142929600Y-81383800D02*
G01*
X142028000Y-81383800D01*
X142028000Y-80382200D01*
X142929600Y-80382200D01*
X142929600Y-81383800D01*
G37*
G36*
X141029600Y-81383800D02*
G01*
X140128000Y-81383800D01*
X140128000Y-80382200D01*
X141029600Y-80382200D01*
X141029600Y-81383800D01*
G37*
G36*
X133257200Y-81206000D02*
G01*
X132355600Y-81206000D01*
X132355600Y-80204400D01*
X133257200Y-80204400D01*
X133257200Y-81206000D01*
G37*
G36*
X135157200Y-81206000D02*
G01*
X134255600Y-81206000D01*
X134255600Y-80204400D01*
X135157200Y-80204400D01*
X135157200Y-81206000D01*
G37*
G36*
X151840477Y-80160874D02*
G01*
X151874245Y-80171118D01*
X151905372Y-80187755D01*
X151932655Y-80210145D01*
X151955045Y-80237428D01*
X151971682Y-80268555D01*
X151981926Y-80302323D01*
X151986000Y-80343693D01*
X151986000Y-80946507D01*
X151981926Y-80987877D01*
X151971682Y-81021645D01*
X151955045Y-81052772D01*
X151932655Y-81080055D01*
X151905372Y-81102445D01*
X151874245Y-81119082D01*
X151840477Y-81129326D01*
X151799107Y-81133400D01*
X151121293Y-81133400D01*
X151079923Y-81129326D01*
X151046155Y-81119082D01*
X151015028Y-81102445D01*
X150987745Y-81080055D01*
X150965355Y-81052772D01*
X150948718Y-81021645D01*
X150938474Y-80987877D01*
X150934400Y-80946507D01*
X150934400Y-80343693D01*
X150938474Y-80302323D01*
X150948718Y-80268555D01*
X150965355Y-80237428D01*
X150987745Y-80210145D01*
X151015028Y-80187755D01*
X151046155Y-80171118D01*
X151079923Y-80160874D01*
X151121293Y-80156800D01*
X151799107Y-80156800D01*
X151840477Y-80160874D01*
G37*
G36*
X144550677Y-80160874D02*
G01*
X144584445Y-80171118D01*
X144615572Y-80187755D01*
X144642855Y-80210145D01*
X144665245Y-80237428D01*
X144681882Y-80268555D01*
X144692126Y-80302323D01*
X144696200Y-80343693D01*
X144696200Y-80946507D01*
X144692126Y-80987877D01*
X144681882Y-81021645D01*
X144665245Y-81052772D01*
X144642855Y-81080055D01*
X144615572Y-81102445D01*
X144584445Y-81119082D01*
X144550677Y-81129326D01*
X144509307Y-81133400D01*
X143831493Y-81133400D01*
X143790123Y-81129326D01*
X143756355Y-81119082D01*
X143725228Y-81102445D01*
X143697945Y-81080055D01*
X143675555Y-81052772D01*
X143658918Y-81021645D01*
X143648674Y-80987877D01*
X143644600Y-80946507D01*
X143644600Y-80343693D01*
X143648674Y-80302323D01*
X143658918Y-80268555D01*
X143675555Y-80237428D01*
X143697945Y-80210145D01*
X143725228Y-80187755D01*
X143756355Y-80171118D01*
X143790123Y-80160874D01*
X143831493Y-80156800D01*
X144509307Y-80156800D01*
X144550677Y-80160874D01*
G37*
G36*
X136702077Y-79856074D02*
G01*
X136735845Y-79866318D01*
X136766972Y-79882955D01*
X136794255Y-79905345D01*
X136816645Y-79932628D01*
X136833282Y-79963755D01*
X136843526Y-79997523D01*
X136847600Y-80038893D01*
X136847600Y-80641707D01*
X136843526Y-80683077D01*
X136833282Y-80716845D01*
X136816645Y-80747972D01*
X136794255Y-80775255D01*
X136766972Y-80797645D01*
X136735845Y-80814282D01*
X136702077Y-80824526D01*
X136660707Y-80828600D01*
X135982893Y-80828600D01*
X135941523Y-80824526D01*
X135907755Y-80814282D01*
X135876628Y-80797645D01*
X135849345Y-80775255D01*
X135826955Y-80747972D01*
X135810318Y-80716845D01*
X135800074Y-80683077D01*
X135796000Y-80641707D01*
X135796000Y-80038893D01*
X135800074Y-79997523D01*
X135810318Y-79963755D01*
X135826955Y-79932628D01*
X135849345Y-79905345D01*
X135876628Y-79882955D01*
X135907755Y-79866318D01*
X135941523Y-79856074D01*
X135982893Y-79852000D01*
X136660707Y-79852000D01*
X136702077Y-79856074D01*
G37*
G36*
X205977354Y-77873817D02*
G01*
X206141289Y-77941721D01*
X206288827Y-78040303D01*
X206414297Y-78165773D01*
X206512879Y-78313311D01*
X206580783Y-78477246D01*
X206615400Y-78651279D01*
X206615400Y-78828721D01*
X206580783Y-79002754D01*
X206512879Y-79166689D01*
X206414297Y-79314227D01*
X206288827Y-79439697D01*
X206141289Y-79538279D01*
X205977354Y-79606183D01*
X205803321Y-79640800D01*
X205625879Y-79640800D01*
X205451846Y-79606183D01*
X205287911Y-79538279D01*
X205140373Y-79439697D01*
X205014903Y-79314227D01*
X204916321Y-79166689D01*
X204848417Y-79002754D01*
X204813800Y-78828721D01*
X204813800Y-78651279D01*
X204848417Y-78477246D01*
X204916321Y-78313311D01*
X205014903Y-78165773D01*
X205140373Y-78040303D01*
X205287911Y-77941721D01*
X205451846Y-77873817D01*
X205625879Y-77839200D01*
X205803321Y-77839200D01*
X205977354Y-77873817D01*
G37*
G36*
X204075400Y-79640800D02*
G01*
X202273800Y-79640800D01*
X202273800Y-77839200D01*
X204075400Y-77839200D01*
X204075400Y-79640800D01*
G37*
G36*
X151840477Y-78585874D02*
G01*
X151874245Y-78596118D01*
X151905372Y-78612755D01*
X151932655Y-78635145D01*
X151955045Y-78662428D01*
X151971682Y-78693555D01*
X151981926Y-78727323D01*
X151986000Y-78768693D01*
X151986000Y-79371507D01*
X151981926Y-79412877D01*
X151971682Y-79446645D01*
X151955045Y-79477772D01*
X151932655Y-79505055D01*
X151905372Y-79527445D01*
X151874245Y-79544082D01*
X151840477Y-79554326D01*
X151799107Y-79558400D01*
X151121293Y-79558400D01*
X151079923Y-79554326D01*
X151046155Y-79544082D01*
X151015028Y-79527445D01*
X150987745Y-79505055D01*
X150965355Y-79477772D01*
X150948718Y-79446645D01*
X150938474Y-79412877D01*
X150934400Y-79371507D01*
X150934400Y-78768693D01*
X150938474Y-78727323D01*
X150948718Y-78693555D01*
X150965355Y-78662428D01*
X150987745Y-78635145D01*
X151015028Y-78612755D01*
X151046155Y-78596118D01*
X151079923Y-78585874D01*
X151121293Y-78581800D01*
X151799107Y-78581800D01*
X151840477Y-78585874D01*
G37*
G36*
X144550677Y-78585874D02*
G01*
X144584445Y-78596118D01*
X144615572Y-78612755D01*
X144642855Y-78635145D01*
X144665245Y-78662428D01*
X144681882Y-78693555D01*
X144692126Y-78727323D01*
X144696200Y-78768693D01*
X144696200Y-79371507D01*
X144692126Y-79412877D01*
X144681882Y-79446645D01*
X144665245Y-79477772D01*
X144642855Y-79505055D01*
X144615572Y-79527445D01*
X144584445Y-79544082D01*
X144550677Y-79554326D01*
X144509307Y-79558400D01*
X143831493Y-79558400D01*
X143790123Y-79554326D01*
X143756355Y-79544082D01*
X143725228Y-79527445D01*
X143697945Y-79505055D01*
X143675555Y-79477772D01*
X143658918Y-79446645D01*
X143648674Y-79412877D01*
X143644600Y-79371507D01*
X143644600Y-78768693D01*
X143648674Y-78727323D01*
X143658918Y-78693555D01*
X143675555Y-78662428D01*
X143697945Y-78635145D01*
X143725228Y-78612755D01*
X143756355Y-78596118D01*
X143790123Y-78585874D01*
X143831493Y-78581800D01*
X144509307Y-78581800D01*
X144550677Y-78585874D01*
G37*
G36*
X149371000Y-79485400D02*
G01*
X148469400Y-79485400D01*
X148469400Y-78483800D01*
X149371000Y-78483800D01*
X149371000Y-79485400D01*
G37*
G36*
X141979600Y-79383800D02*
G01*
X141078000Y-79383800D01*
X141078000Y-78382200D01*
X141979600Y-78382200D01*
X141979600Y-79383800D01*
G37*
G36*
X136702077Y-78281074D02*
G01*
X136735845Y-78291318D01*
X136766972Y-78307955D01*
X136794255Y-78330345D01*
X136816645Y-78357628D01*
X136833282Y-78388755D01*
X136843526Y-78422523D01*
X136847600Y-78463893D01*
X136847600Y-79066707D01*
X136843526Y-79108077D01*
X136833282Y-79141845D01*
X136816645Y-79172972D01*
X136794255Y-79200255D01*
X136766972Y-79222645D01*
X136735845Y-79239282D01*
X136702077Y-79249526D01*
X136660707Y-79253600D01*
X135982893Y-79253600D01*
X135941523Y-79249526D01*
X135907755Y-79239282D01*
X135876628Y-79222645D01*
X135849345Y-79200255D01*
X135826955Y-79172972D01*
X135810318Y-79141845D01*
X135800074Y-79108077D01*
X135796000Y-79066707D01*
X135796000Y-78463893D01*
X135800074Y-78422523D01*
X135810318Y-78388755D01*
X135826955Y-78357628D01*
X135849345Y-78330345D01*
X135876628Y-78307955D01*
X135907755Y-78291318D01*
X135941523Y-78281074D01*
X135982893Y-78277000D01*
X136660707Y-78277000D01*
X136702077Y-78281074D01*
G37*
G36*
X134207200Y-79206000D02*
G01*
X133305600Y-79206000D01*
X133305600Y-78204400D01*
X134207200Y-78204400D01*
X134207200Y-79206000D01*
G37*
G36*
X95733486Y-69304040D02*
G01*
X96288696Y-69534016D01*
X96788372Y-69867889D01*
X97213311Y-70292828D01*
X97547184Y-70792504D01*
X97777160Y-71347714D01*
X97894400Y-71937122D01*
X97894400Y-72538078D01*
X97777160Y-73127486D01*
X97547184Y-73682696D01*
X97213311Y-74182372D01*
X96788372Y-74607311D01*
X96288696Y-74941184D01*
X95733486Y-75171160D01*
X95144078Y-75288400D01*
X94543122Y-75288400D01*
X93953714Y-75171160D01*
X93398504Y-74941184D01*
X92898828Y-74607311D01*
X92473889Y-74182372D01*
X92140016Y-73682696D01*
X91910040Y-73127486D01*
X91792800Y-72538078D01*
X91792800Y-71937122D01*
X91910040Y-71347714D01*
X92140016Y-70792504D01*
X92473889Y-70292828D01*
X92898828Y-69867889D01*
X93398504Y-69534016D01*
X93953714Y-69304040D01*
X94543122Y-69186800D01*
X95144078Y-69186800D01*
X95733486Y-69304040D01*
G37*
G36*
X209600000Y-68820664D02*
G01*
X209914024Y-68883127D01*
X210505631Y-69128178D01*
X211038065Y-69483939D01*
X211490861Y-69936735D01*
X211846622Y-70469169D01*
X212091673Y-71060776D01*
X212091673Y-71060777D01*
X212216600Y-71688824D01*
X212216600Y-72329176D01*
X212165164Y-72587759D01*
X212091673Y-72957224D01*
X211846622Y-73548831D01*
X211490861Y-74081265D01*
X211038065Y-74534061D01*
X210505631Y-74889822D01*
X209914024Y-75134873D01*
X209731602Y-75171159D01*
X209285976Y-75259800D01*
X208645624Y-75259800D01*
X208199998Y-75171159D01*
X208017576Y-75134873D01*
X207425969Y-74889822D01*
X206893535Y-74534061D01*
X206440739Y-74081265D01*
X206084978Y-73548831D01*
X205839927Y-72957224D01*
X205766436Y-72587759D01*
X205715000Y-72329176D01*
X205715000Y-71688824D01*
X205839927Y-71060777D01*
X205839927Y-71060776D01*
X206084978Y-70469169D01*
X206440739Y-69936735D01*
X206893535Y-69483939D01*
X207425969Y-69128178D01*
X208017576Y-68883127D01*
X208331600Y-68820664D01*
X208645624Y-68758200D01*
X209285976Y-68758200D01*
X209600000Y-68820664D01*
G37*
G36*
X157379286Y-69177040D02*
G01*
X157934496Y-69407016D01*
X158434172Y-69740889D01*
X158859111Y-70165828D01*
X159192984Y-70665504D01*
X159422960Y-71220714D01*
X159540200Y-71810122D01*
X159540200Y-72411078D01*
X159422960Y-73000486D01*
X159192984Y-73555696D01*
X158859111Y-74055372D01*
X158434172Y-74480311D01*
X157934496Y-74814184D01*
X157379286Y-75044160D01*
X156789878Y-75161400D01*
X156188922Y-75161400D01*
X155599514Y-75044160D01*
X155044304Y-74814184D01*
X154544628Y-74480311D01*
X154119689Y-74055372D01*
X153785816Y-73555696D01*
X153555840Y-73000486D01*
X153438600Y-72411078D01*
X153438600Y-71810122D01*
X153555840Y-71220714D01*
X153785816Y-70665504D01*
X154119689Y-70165828D01*
X154544628Y-69740889D01*
X155044304Y-69407016D01*
X155599514Y-69177040D01*
X156188922Y-69059800D01*
X156789878Y-69059800D01*
X157379286Y-69177040D01*
G37*
G36*
X104050689Y-71225229D02*
G01*
X104232678Y-71300611D01*
X104396463Y-71410049D01*
X104535751Y-71549337D01*
X104645189Y-71713122D01*
X104720571Y-71895111D01*
X104759000Y-72088309D01*
X104759000Y-72285291D01*
X104720571Y-72478489D01*
X104645189Y-72660478D01*
X104535751Y-72824263D01*
X104396463Y-72963551D01*
X104232678Y-73072989D01*
X104050689Y-73148371D01*
X103857491Y-73186800D01*
X103660509Y-73186800D01*
X103467311Y-73148371D01*
X103285322Y-73072989D01*
X103121537Y-72963551D01*
X102982249Y-72824263D01*
X102872811Y-72660478D01*
X102797429Y-72478489D01*
X102759000Y-72285291D01*
X102759000Y-72088309D01*
X102797429Y-71895111D01*
X102872811Y-71713122D01*
X102982249Y-71549337D01*
X103121537Y-71410049D01*
X103285322Y-71300611D01*
X103467311Y-71225229D01*
X103660509Y-71186800D01*
X103857491Y-71186800D01*
X104050689Y-71225229D01*
G37*
G36*
X201078689Y-70285429D02*
G01*
X201260678Y-70360811D01*
X201424463Y-70470249D01*
X201563751Y-70609537D01*
X201673189Y-70773322D01*
X201748571Y-70955311D01*
X201787000Y-71148509D01*
X201787000Y-71345491D01*
X201748571Y-71538689D01*
X201673189Y-71720678D01*
X201563751Y-71884463D01*
X201424463Y-72023751D01*
X201260678Y-72133189D01*
X201078689Y-72208571D01*
X200885491Y-72247000D01*
X200688509Y-72247000D01*
X200495311Y-72208571D01*
X200313322Y-72133189D01*
X200149537Y-72023751D01*
X200010249Y-71884463D01*
X199900811Y-71720678D01*
X199825429Y-71538689D01*
X199787000Y-71345491D01*
X199787000Y-71148509D01*
X199825429Y-70955311D01*
X199900811Y-70773322D01*
X200010249Y-70609537D01*
X200149537Y-70470249D01*
X200313322Y-70360811D01*
X200495311Y-70285429D01*
X200688509Y-70247000D01*
X200885491Y-70247000D01*
X201078689Y-70285429D01*
G37*
M02*
