G04 #@! TF.GenerationSoftware,KiCad,Pcbnew,(5.1.2)-1*
G04 #@! TF.CreationDate,2021-03-24T13:07:53+05:45*
G04 #@! TF.ProjectId,Pufferfish-Power-MCU,50756666-6572-4666-9973-682d506f7765,0.0*
G04 #@! TF.SameCoordinates,Original*
G04 #@! TF.FileFunction,Other,User*
%FSLAX46Y46*%
G04 Gerber Fmt 4.6, Leading zero omitted, Abs format (unit mm)*
G04 Created by KiCad (PCBNEW (5.1.2)-1) date 2021-03-24 13:07:53*
%MOMM*%
%LPD*%
G04 APERTURE LIST*
%ADD10C,0.100000*%
%ADD11C,0.010000*%
%ADD12C,0.050000*%
%ADD13C,0.152400*%
%ADD14C,0.120000*%
%ADD15C,0.127000*%
G04 APERTURE END LIST*
D10*
X203287400Y-43052600D02*
X66977400Y-42972600D01*
X203287400Y-119552600D02*
X203287400Y-43052600D01*
X66977400Y-119552600D02*
X203287400Y-119552600D01*
X66977400Y-42972600D02*
X66977400Y-119552600D01*
X82946666Y-47752000D02*
G75*
G03X82946666Y-47752000I-1666666J0D01*
G01*
X78780000Y-47752000D02*
X83780000Y-47752000D01*
X81280000Y-45252000D02*
X81280000Y-50252000D01*
D11*
G04 #@! TO.C,U10*
X140437400Y-80742600D02*
X147787400Y-80742600D01*
X140437400Y-75042600D02*
X140437400Y-80742600D01*
X147787400Y-75042600D02*
X140437400Y-75042600D01*
X147787400Y-80742600D02*
X147787400Y-75042600D01*
G04 #@! TO.C,U9*
X124157400Y-92072600D02*
X131507400Y-92072600D01*
X124157400Y-86372600D02*
X124157400Y-92072600D01*
X131507400Y-86372600D02*
X124157400Y-86372600D01*
X131507400Y-92072600D02*
X131507400Y-86372600D01*
G04 #@! TO.C,U8*
X119437400Y-66882600D02*
X112087400Y-66882600D01*
X119437400Y-72582600D02*
X119437400Y-66882600D01*
X112087400Y-72582600D02*
X119437400Y-72582600D01*
X112087400Y-66882600D02*
X112087400Y-72582600D01*
G04 #@! TO.C,U7*
X108637400Y-81842600D02*
X115987400Y-81842600D01*
X108637400Y-76142600D02*
X108637400Y-81842600D01*
X115987400Y-76142600D02*
X108637400Y-76142600D01*
X115987400Y-81842600D02*
X115987400Y-76142600D01*
G04 #@! TO.C,Q6*
X120767400Y-101122600D02*
X128117400Y-101122600D01*
X120767400Y-95422600D02*
X120767400Y-101122600D01*
X128117400Y-95422600D02*
X120767400Y-95422600D01*
X128117400Y-101122600D02*
X128117400Y-95422600D01*
G04 #@! TO.C,Q5*
X133267400Y-91262600D02*
X140617400Y-91262600D01*
X133267400Y-85562600D02*
X133267400Y-91262600D01*
X140617400Y-85562600D02*
X133267400Y-85562600D01*
X140617400Y-91262600D02*
X140617400Y-85562600D01*
D12*
G04 #@! TO.C,D2*
X81908600Y-93808300D02*
X79608600Y-93808300D01*
X79608600Y-98208300D02*
X79608600Y-93808300D01*
X81908600Y-98208300D02*
X79608600Y-98208300D01*
X81908600Y-93808300D02*
X81908600Y-98208300D01*
G04 #@! TO.C,D1*
X81414000Y-64348000D02*
X79114000Y-64348000D01*
X79114000Y-68748000D02*
X79114000Y-64348000D01*
X81414000Y-68748000D02*
X79114000Y-68748000D01*
X81414000Y-64348000D02*
X81414000Y-68748000D01*
G04 #@! TO.C,P1*
X192678000Y-98060000D02*
X192678000Y-77200000D01*
X192678000Y-77200000D02*
X202038000Y-77200000D01*
X202038000Y-77200000D02*
X202038000Y-98060000D01*
X202038000Y-98060000D02*
X192678000Y-98060000D01*
D13*
G04 #@! TO.C,J5*
X78948802Y-73848288D02*
X78948802Y-60708310D01*
X68008801Y-73848288D02*
X78948802Y-73848288D01*
X68008801Y-60708310D02*
X68008801Y-73848288D01*
X78948802Y-60708310D02*
X68008801Y-60708310D01*
G04 #@! TO.C,J4*
X78897402Y-88132588D02*
X78897402Y-74992610D01*
X67957401Y-88132588D02*
X78897402Y-88132588D01*
X67957401Y-74992610D02*
X67957401Y-88132588D01*
X78897402Y-74992610D02*
X67957401Y-74992610D01*
G04 #@! TO.C,J6*
X78987402Y-90092610D02*
X68047401Y-90092610D01*
X68047401Y-90092610D02*
X68047401Y-103232588D01*
X68047401Y-103232588D02*
X78987402Y-103232588D01*
X78987402Y-103232588D02*
X78987402Y-90092610D01*
D12*
G04 #@! TO.C,C90*
X126206000Y-65449000D02*
X126206000Y-68409000D01*
X124746000Y-65449000D02*
X126206000Y-65449000D01*
X124746000Y-68409000D02*
X124746000Y-65449000D01*
X126206000Y-68409000D02*
X124746000Y-68409000D01*
G04 #@! TO.C,TP4*
X155978000Y-90678000D02*
G75*
G03X155978000Y-90678000I-1800000J0D01*
G01*
D14*
G04 #@! TO.C,L4*
X100087400Y-104647600D02*
X100087400Y-104697600D01*
X100087400Y-111097600D02*
X100087400Y-104647600D01*
X108137400Y-104647600D02*
X108137400Y-111147600D01*
X100637400Y-104647600D02*
X108137400Y-104647600D01*
X100637400Y-111147600D02*
X100637400Y-104647600D01*
D12*
X101777400Y-110177600D02*
X101777400Y-105657600D01*
X106297400Y-105657600D02*
X106297400Y-110177600D01*
D14*
X108137400Y-111147600D02*
X100637400Y-111147600D01*
D12*
G04 #@! TO.C,R26*
X153802400Y-85797600D02*
X156762400Y-85797600D01*
X153802400Y-87257600D02*
X153802400Y-85797600D01*
X156762400Y-87257600D02*
X153802400Y-87257600D01*
X156762400Y-85797600D02*
X156762400Y-87257600D01*
G04 #@! TO.C,F1*
X160005400Y-59676600D02*
X116005400Y-59676600D01*
X160005400Y-59676600D02*
X160005400Y-44176600D01*
X116005400Y-44176600D02*
X116005400Y-59676600D01*
X116005400Y-44176600D02*
X160005400Y-44176600D01*
G04 #@! TO.C,C24*
X85148000Y-108642000D02*
X86548000Y-108642000D01*
X85148000Y-106242000D02*
X85148000Y-108642000D01*
X86548000Y-106242000D02*
X85148000Y-106242000D01*
X86548000Y-108642000D02*
X86548000Y-111692000D01*
X86548000Y-103192000D02*
X86548000Y-106242000D01*
X86548000Y-103192000D02*
X87698000Y-102042000D01*
X86548000Y-111692000D02*
X87698000Y-112842000D01*
X87698000Y-102042000D02*
X97348000Y-102042000D01*
X87698000Y-112842000D02*
X97348000Y-112842000D01*
X97348000Y-108642000D02*
X97348000Y-112842000D01*
X98748000Y-108642000D02*
X97348000Y-108642000D01*
X98748000Y-106242000D02*
X98748000Y-108642000D01*
X97348000Y-106242000D02*
X98748000Y-106242000D01*
X97348000Y-102042000D02*
X97348000Y-106242000D01*
G04 #@! TO.C,FID1*
X201947400Y-112632600D02*
G75*
G03X201947400Y-112632600I-1250000J0D01*
G01*
X74947400Y-111362600D02*
G75*
G03X74947400Y-111362600I-1250000J0D01*
G01*
D15*
G04 #@! TO.C,L3*
X89950000Y-87000000D02*
X89950000Y-75200000D01*
X89950000Y-75200000D02*
X79450000Y-75200000D01*
X79450000Y-75200000D02*
X79450000Y-87000000D01*
X79450000Y-87000000D02*
X89950000Y-87000000D01*
D14*
G04 #@! TO.C,L5*
X122961400Y-84714100D02*
X122948700Y-91241900D01*
X114808000Y-91241900D02*
X114858800Y-84726800D01*
X122364500Y-91241900D02*
X114808000Y-91241900D01*
X122364500Y-84726800D02*
X122364500Y-91241900D01*
X114858800Y-84726800D02*
X122364500Y-84726800D01*
D12*
X121224000Y-85677600D02*
X121224000Y-90197600D01*
X116704000Y-90197600D02*
X116704000Y-85677600D01*
D14*
G04 #@! TO.C,L6*
X137820400Y-76136500D02*
X137807700Y-82664300D01*
X129667000Y-82664300D02*
X129717800Y-76149200D01*
X137223500Y-82664300D02*
X129667000Y-82664300D01*
X137223500Y-76149200D02*
X137223500Y-82664300D01*
X129717800Y-76149200D02*
X137223500Y-76149200D01*
D12*
X136083000Y-77100000D02*
X136083000Y-81620000D01*
X131563000Y-81620000D02*
X131563000Y-77100000D01*
G04 #@! TO.C,J2*
X176033000Y-103196000D02*
X176033000Y-112196000D01*
X194553000Y-103196000D02*
X176033000Y-103196000D01*
X194553000Y-112196000D02*
X194553000Y-103196000D01*
X176033000Y-112196000D02*
X194553000Y-112196000D01*
G04 #@! TO.C,C15*
X94710000Y-76244000D02*
X94710000Y-79204000D01*
X93250000Y-76244000D02*
X94710000Y-76244000D01*
X93250000Y-79204000D02*
X93250000Y-76244000D01*
X94710000Y-79204000D02*
X93250000Y-79204000D01*
G04 #@! TO.C,C80*
X102784000Y-86322000D02*
X100924000Y-86322000D01*
X102784000Y-85382000D02*
X102784000Y-86322000D01*
X100924000Y-85382000D02*
X102784000Y-85382000D01*
X100924000Y-86322000D02*
X100924000Y-85382000D01*
G04 #@! TO.C,J1*
X200528000Y-64460000D02*
X200528000Y-43850000D01*
X200528000Y-43850000D02*
X184028000Y-43850000D01*
X184028000Y-43850000D02*
X184028000Y-64460000D01*
X184028000Y-64460000D02*
X200528000Y-64460000D01*
G04 #@! TO.C,R29*
X158517400Y-78042600D02*
X160377400Y-78042600D01*
X158517400Y-78982600D02*
X158517400Y-78042600D01*
X160377400Y-78982600D02*
X158517400Y-78982600D01*
X160377400Y-78042600D02*
X160377400Y-78982600D01*
G04 #@! TO.C,C23*
X85910000Y-50730000D02*
X87310000Y-50730000D01*
X85910000Y-48330000D02*
X85910000Y-50730000D01*
X87310000Y-48330000D02*
X85910000Y-48330000D01*
X87310000Y-50730000D02*
X87310000Y-53780000D01*
X87310000Y-45280000D02*
X87310000Y-48330000D01*
X87310000Y-45280000D02*
X88460000Y-44130000D01*
X87310000Y-53780000D02*
X88460000Y-54930000D01*
X88460000Y-44130000D02*
X98110000Y-44130000D01*
X88460000Y-54930000D02*
X98110000Y-54930000D01*
X98110000Y-50730000D02*
X98110000Y-54930000D01*
X99510000Y-50730000D02*
X98110000Y-50730000D01*
X99510000Y-48330000D02*
X99510000Y-50730000D01*
X98110000Y-48330000D02*
X99510000Y-48330000D01*
X98110000Y-44130000D02*
X98110000Y-48330000D01*
G04 #@! TO.C,C110*
X185777400Y-66472600D02*
X185777400Y-67412600D01*
X185777400Y-67412600D02*
X183917400Y-67412600D01*
X183917400Y-67412600D02*
X183917400Y-66472600D01*
X183917400Y-66472600D02*
X185777400Y-66472600D01*
G04 #@! TO.C,C16*
X113725600Y-61882600D02*
X115585600Y-61882600D01*
X113725600Y-62822600D02*
X113725600Y-61882600D01*
X115585600Y-62822600D02*
X113725600Y-62822600D01*
X115585600Y-61882600D02*
X115585600Y-62822600D01*
G04 #@! TO.C,C14*
X103038000Y-71640800D02*
X101178000Y-71640800D01*
X103038000Y-70700800D02*
X103038000Y-71640800D01*
X101178000Y-70700800D02*
X103038000Y-70700800D01*
X101178000Y-71640800D02*
X101178000Y-70700800D01*
G04 #@! TO.C,C12*
X99713000Y-75222000D02*
X99713000Y-76162000D01*
X99713000Y-76162000D02*
X97853000Y-76162000D01*
X97853000Y-76162000D02*
X97853000Y-75222000D01*
X97853000Y-75222000D02*
X99713000Y-75222000D01*
G04 #@! TO.C,C9*
X98053800Y-64376200D02*
X99913800Y-64376200D01*
X98053800Y-65316200D02*
X98053800Y-64376200D01*
X99913800Y-65316200D02*
X98053800Y-65316200D01*
X99913800Y-64376200D02*
X99913800Y-65316200D01*
G04 #@! TO.C,C5*
X91420000Y-74070000D02*
X90480000Y-74070000D01*
X90480000Y-74070000D02*
X90480000Y-72210000D01*
X90480000Y-72210000D02*
X91420000Y-72210000D01*
X91420000Y-72210000D02*
X91420000Y-74070000D01*
G04 #@! TO.C,C3*
X90894000Y-63586000D02*
X90894000Y-65446000D01*
X89954000Y-63586000D02*
X90894000Y-63586000D01*
X89954000Y-65446000D02*
X89954000Y-63586000D01*
X90894000Y-65446000D02*
X89954000Y-65446000D01*
G04 #@! TO.C,C30*
X200697400Y-65072600D02*
X200697400Y-63212600D01*
X201637400Y-65072600D02*
X200697400Y-65072600D01*
X201637400Y-63212600D02*
X201637400Y-65072600D01*
X200697400Y-63212600D02*
X201637400Y-63212600D01*
G04 #@! TO.C,C29*
X197432400Y-66622600D02*
X195572400Y-66622600D01*
X197432400Y-65682600D02*
X197432400Y-66622600D01*
X195572400Y-65682600D02*
X197432400Y-65682600D01*
X195572400Y-66622600D02*
X195572400Y-65682600D01*
G04 #@! TO.C,C28*
X183857400Y-68802600D02*
X185717400Y-68802600D01*
X183857400Y-69742600D02*
X183857400Y-68802600D01*
X185717400Y-69742600D02*
X183857400Y-69742600D01*
X185717400Y-68802600D02*
X185717400Y-69742600D01*
G04 #@! TO.C,C27*
X176517400Y-66472600D02*
X178377400Y-66472600D01*
X176517400Y-67412600D02*
X176517400Y-66472600D01*
X178377400Y-67412600D02*
X176517400Y-67412600D01*
X178377400Y-66472600D02*
X178377400Y-67412600D01*
G04 #@! TO.C,C94*
X123812400Y-67772600D02*
X121952400Y-67772600D01*
X123812400Y-66832600D02*
X123812400Y-67772600D01*
X121952400Y-66832600D02*
X123812400Y-66832600D01*
X121952400Y-67772600D02*
X121952400Y-66832600D01*
G04 #@! TO.C,C93*
X122752400Y-75832600D02*
X124612400Y-75832600D01*
X122752400Y-76772600D02*
X122752400Y-75832600D01*
X124612400Y-76772600D02*
X122752400Y-76772600D01*
X124612400Y-75832600D02*
X124612400Y-76772600D01*
G04 #@! TO.C,C88*
X129148500Y-71624400D02*
X127288500Y-71624400D01*
X129148500Y-70684400D02*
X129148500Y-71624400D01*
X127288500Y-70684400D02*
X129148500Y-70684400D01*
X127288500Y-71624400D02*
X127288500Y-70684400D01*
G04 #@! TO.C,C76*
X98802400Y-93307600D02*
X100662400Y-93307600D01*
X98802400Y-94247600D02*
X98802400Y-93307600D01*
X100662400Y-94247600D02*
X98802400Y-94247600D01*
X100662400Y-93307600D02*
X100662400Y-94247600D01*
G04 #@! TO.C,C72*
X95618400Y-91526000D02*
X95618400Y-93386000D01*
X94678400Y-91526000D02*
X95618400Y-91526000D01*
X94678400Y-93386000D02*
X94678400Y-91526000D01*
X95618400Y-93386000D02*
X94678400Y-93386000D01*
G04 #@! TO.C,C59*
X145831000Y-95034000D02*
X145831000Y-93174000D01*
X146771000Y-95034000D02*
X145831000Y-95034000D01*
X146771000Y-93174000D02*
X146771000Y-95034000D01*
X145831000Y-93174000D02*
X146771000Y-93174000D01*
G04 #@! TO.C,C58*
X152435000Y-95034000D02*
X152435000Y-93174000D01*
X153375000Y-95034000D02*
X152435000Y-95034000D01*
X153375000Y-93174000D02*
X153375000Y-95034000D01*
X152435000Y-93174000D02*
X153375000Y-93174000D01*
G04 #@! TO.C,C48*
X186958500Y-88832000D02*
X185098500Y-88832000D01*
X186958500Y-87892000D02*
X186958500Y-88832000D01*
X185098500Y-87892000D02*
X186958500Y-87892000D01*
X185098500Y-88832000D02*
X185098500Y-87892000D01*
G04 #@! TO.C,C41*
X174393500Y-78270000D02*
X176253500Y-78270000D01*
X174393500Y-79210000D02*
X174393500Y-78270000D01*
X176253500Y-79210000D02*
X174393500Y-79210000D01*
X176253500Y-78270000D02*
X176253500Y-79210000D01*
G04 #@! TO.C,C40*
X160387400Y-80122600D02*
X158527400Y-80122600D01*
X160387400Y-79182600D02*
X160387400Y-80122600D01*
X158527400Y-79182600D02*
X160387400Y-79182600D01*
X158527400Y-80122600D02*
X158527400Y-79182600D01*
G04 #@! TO.C,C39*
X170376500Y-78757000D02*
X168516500Y-78757000D01*
X170376500Y-77817000D02*
X170376500Y-78757000D01*
X168516500Y-77817000D02*
X170376500Y-77817000D01*
X168516500Y-78757000D02*
X168516500Y-77817000D01*
G04 #@! TO.C,C38*
X169840000Y-75908000D02*
X167980000Y-75908000D01*
X169840000Y-74968000D02*
X169840000Y-75908000D01*
X167980000Y-74968000D02*
X169840000Y-74968000D01*
X167980000Y-75908000D02*
X167980000Y-74968000D01*
G04 #@! TO.C,C37*
X172511400Y-83410600D02*
X172511400Y-81550600D01*
X173451400Y-83410600D02*
X172511400Y-83410600D01*
X173451400Y-81550600D02*
X173451400Y-83410600D01*
X172511400Y-81550600D02*
X173451400Y-81550600D01*
G04 #@! TO.C,C36*
X174407400Y-83522600D02*
X174407400Y-81662600D01*
X175347400Y-83522600D02*
X174407400Y-83522600D01*
X175347400Y-81662600D02*
X175347400Y-83522600D01*
X174407400Y-81662600D02*
X175347400Y-81662600D01*
G04 #@! TO.C,C26*
X152477400Y-83722600D02*
X152477400Y-85582600D01*
X151537400Y-83722600D02*
X152477400Y-83722600D01*
X151537400Y-85582600D02*
X151537400Y-83722600D01*
X152477400Y-85582600D02*
X151537400Y-85582600D01*
G04 #@! TO.C,C17*
X77432000Y-58483000D02*
X77432000Y-60343000D01*
X76492000Y-58483000D02*
X77432000Y-58483000D01*
X76492000Y-60343000D02*
X76492000Y-58483000D01*
X77432000Y-60343000D02*
X76492000Y-60343000D01*
G04 #@! TO.C,C103*
X100220000Y-62530000D02*
X102080000Y-62530000D01*
X100220000Y-63470000D02*
X100220000Y-62530000D01*
X102080000Y-63470000D02*
X100220000Y-63470000D01*
X102080000Y-62530000D02*
X102080000Y-63470000D01*
G04 #@! TO.C,C6*
X92624000Y-68288000D02*
X90764000Y-68288000D01*
X92624000Y-67348000D02*
X92624000Y-68288000D01*
X90764000Y-67348000D02*
X92624000Y-67348000D01*
X90764000Y-68288000D02*
X90764000Y-67348000D01*
G04 #@! TO.C,C4*
X93304000Y-74968000D02*
X95164000Y-74968000D01*
X93304000Y-75908000D02*
X93304000Y-74968000D01*
X95164000Y-75908000D02*
X93304000Y-75908000D01*
X95164000Y-74968000D02*
X95164000Y-75908000D01*
G04 #@! TO.C,C2*
X86380000Y-72690000D02*
X86380000Y-74550000D01*
X85440000Y-72690000D02*
X86380000Y-72690000D01*
X85440000Y-74550000D02*
X85440000Y-72690000D01*
X86380000Y-74550000D02*
X85440000Y-74550000D01*
G04 #@! TO.C,C1*
X84720000Y-73546000D02*
X82860000Y-73546000D01*
X84720000Y-72606000D02*
X84720000Y-73546000D01*
X82860000Y-72606000D02*
X84720000Y-72606000D01*
X82860000Y-73546000D02*
X82860000Y-72606000D01*
G04 #@! TO.C,U1*
X92762000Y-65600000D02*
X99262000Y-65600000D01*
X99262000Y-65600000D02*
X99262000Y-74100000D01*
X99262000Y-74100000D02*
X92762000Y-74100000D01*
X92762000Y-74100000D02*
X92762000Y-65600000D01*
G04 #@! TO.C,D13*
X126797000Y-64455000D02*
X126797000Y-66355000D01*
X126797000Y-66355000D02*
X129997000Y-66355000D01*
X129997000Y-64455000D02*
X129997000Y-66355000D01*
X126797000Y-64455000D02*
X129997000Y-64455000D01*
G04 #@! TO.C,R38*
X185063500Y-89432000D02*
X188023500Y-89432000D01*
X185063500Y-90892000D02*
X185063500Y-89432000D01*
X188023500Y-90892000D02*
X185063500Y-90892000D01*
X188023500Y-89432000D02*
X188023500Y-90892000D01*
G04 #@! TO.C,R1*
X102597500Y-58134000D02*
X99637500Y-58134000D01*
X102597500Y-56674000D02*
X102597500Y-58134000D01*
X99637500Y-56674000D02*
X102597500Y-56674000D01*
X99637500Y-58134000D02*
X99637500Y-56674000D01*
G04 #@! TO.C,R2*
X99637500Y-59722000D02*
X102597500Y-59722000D01*
X99637500Y-61182000D02*
X99637500Y-59722000D01*
X102597500Y-61182000D02*
X99637500Y-61182000D01*
X102597500Y-59722000D02*
X102597500Y-61182000D01*
G04 #@! TO.C,R3*
X99270000Y-58134000D02*
X96310000Y-58134000D01*
X99270000Y-56674000D02*
X99270000Y-58134000D01*
X96310000Y-56674000D02*
X99270000Y-56674000D01*
X96310000Y-58134000D02*
X96310000Y-56674000D01*
G04 #@! TO.C,R4*
X99270000Y-61182000D02*
X96310000Y-61182000D01*
X99270000Y-59722000D02*
X99270000Y-61182000D01*
X96310000Y-59722000D02*
X99270000Y-59722000D01*
X96310000Y-61182000D02*
X96310000Y-59722000D01*
G04 #@! TO.C,R5*
X95968000Y-58134000D02*
X93008000Y-58134000D01*
X95968000Y-56674000D02*
X95968000Y-58134000D01*
X93008000Y-56674000D02*
X95968000Y-56674000D01*
X93008000Y-58134000D02*
X93008000Y-56674000D01*
G04 #@! TO.C,R6*
X95968000Y-61182000D02*
X93008000Y-61182000D01*
X95968000Y-59722000D02*
X95968000Y-61182000D01*
X93008000Y-59722000D02*
X95968000Y-59722000D01*
X93008000Y-61182000D02*
X93008000Y-59722000D01*
G04 #@! TO.C,R24*
X156696500Y-85667000D02*
X153736500Y-85667000D01*
X156696500Y-84207000D02*
X156696500Y-85667000D01*
X153736500Y-84207000D02*
X156696500Y-84207000D01*
X153736500Y-85667000D02*
X153736500Y-84207000D01*
G04 #@! TO.C,R30*
X164632500Y-74670000D02*
X167592500Y-74670000D01*
X164632500Y-76130000D02*
X164632500Y-74670000D01*
X167592500Y-76130000D02*
X164632500Y-76130000D01*
X167592500Y-74670000D02*
X167592500Y-76130000D01*
G04 #@! TO.C,R31*
X167780000Y-73930000D02*
X164820000Y-73930000D01*
X167780000Y-72470000D02*
X167780000Y-73930000D01*
X164820000Y-72470000D02*
X167780000Y-72470000D01*
X164820000Y-73930000D02*
X164820000Y-72470000D01*
G04 #@! TO.C,R33*
X176869800Y-77746200D02*
X173909800Y-77746200D01*
X176869800Y-76286200D02*
X176869800Y-77746200D01*
X173909800Y-76286200D02*
X176869800Y-76286200D01*
X173909800Y-77746200D02*
X173909800Y-76286200D01*
G04 #@! TO.C,R34*
X161500000Y-75660000D02*
X158540000Y-75660000D01*
X161500000Y-74200000D02*
X161500000Y-75660000D01*
X158540000Y-74200000D02*
X161500000Y-74200000D01*
X158540000Y-75660000D02*
X158540000Y-74200000D01*
G04 #@! TO.C,R35*
X173945000Y-74581000D02*
X176905000Y-74581000D01*
X173945000Y-76041000D02*
X173945000Y-74581000D01*
X176905000Y-76041000D02*
X173945000Y-76041000D01*
X176905000Y-74581000D02*
X176905000Y-76041000D01*
G04 #@! TO.C,R36*
X179837400Y-87432600D02*
X176877400Y-87432600D01*
X179837400Y-85972600D02*
X179837400Y-87432600D01*
X176877400Y-85972600D02*
X179837400Y-85972600D01*
X176877400Y-87432600D02*
X176877400Y-85972600D01*
G04 #@! TO.C,R37*
X179736500Y-82568500D02*
X179736500Y-85528500D01*
X178276500Y-82568500D02*
X179736500Y-82568500D01*
X178276500Y-85528500D02*
X178276500Y-82568500D01*
X179736500Y-85528500D02*
X178276500Y-85528500D01*
G04 #@! TO.C,R41*
X154277400Y-92172600D02*
X157237400Y-92172600D01*
X154277400Y-93632600D02*
X154277400Y-92172600D01*
X157237400Y-93632600D02*
X154277400Y-93632600D01*
X157237400Y-92172600D02*
X157237400Y-93632600D01*
G04 #@! TO.C,R10*
X87332000Y-68294000D02*
X84372000Y-68294000D01*
X87332000Y-66834000D02*
X87332000Y-68294000D01*
X84372000Y-66834000D02*
X87332000Y-66834000D01*
X84372000Y-68294000D02*
X84372000Y-66834000D01*
G04 #@! TO.C,R11*
X83720000Y-72240000D02*
X83720000Y-69280000D01*
X85180000Y-72240000D02*
X83720000Y-72240000D01*
X85180000Y-69280000D02*
X85180000Y-72240000D01*
X83720000Y-69280000D02*
X85180000Y-69280000D01*
G04 #@! TO.C,R12*
X92932000Y-74720000D02*
X92932000Y-77680000D01*
X91472000Y-74720000D02*
X92932000Y-74720000D01*
X91472000Y-77680000D02*
X91472000Y-74720000D01*
X92932000Y-77680000D02*
X91472000Y-77680000D01*
G04 #@! TO.C,R13*
X85600000Y-71530000D02*
X85600000Y-68570000D01*
X87060000Y-71530000D02*
X85600000Y-71530000D01*
X87060000Y-68570000D02*
X87060000Y-71530000D01*
X85600000Y-68570000D02*
X87060000Y-68570000D01*
G04 #@! TO.C,R14*
X81324000Y-66834000D02*
X84284000Y-66834000D01*
X81324000Y-68294000D02*
X81324000Y-66834000D01*
X84284000Y-68294000D02*
X81324000Y-68294000D01*
X84284000Y-66834000D02*
X84284000Y-68294000D01*
G04 #@! TO.C,R15*
X82300000Y-69630000D02*
X82300000Y-72590000D01*
X80840000Y-69630000D02*
X82300000Y-69630000D01*
X80840000Y-72590000D02*
X80840000Y-69630000D01*
X82300000Y-72590000D02*
X80840000Y-72590000D01*
G04 #@! TO.C,R17*
X90580000Y-68300000D02*
X87620000Y-68300000D01*
X90580000Y-66840000D02*
X90580000Y-68300000D01*
X87620000Y-66840000D02*
X90580000Y-66840000D01*
X87620000Y-68300000D02*
X87620000Y-66840000D01*
G04 #@! TO.C,R18*
X88250000Y-71760000D02*
X88250000Y-68800000D01*
X89710000Y-71760000D02*
X88250000Y-71760000D01*
X89710000Y-68800000D02*
X89710000Y-71760000D01*
X88250000Y-68800000D02*
X89710000Y-68800000D01*
G04 #@! TO.C,R19*
X89948000Y-77680000D02*
X89948000Y-74720000D01*
X91408000Y-77680000D02*
X89948000Y-77680000D01*
X91408000Y-74720000D02*
X91408000Y-77680000D01*
X89948000Y-74720000D02*
X91408000Y-74720000D01*
G04 #@! TO.C,R82*
X178273000Y-99078000D02*
X178273000Y-102038000D01*
X176813000Y-99078000D02*
X178273000Y-99078000D01*
X176813000Y-102038000D02*
X176813000Y-99078000D01*
X178273000Y-102038000D02*
X176813000Y-102038000D01*
G04 #@! TO.C,R83*
X180559000Y-99052500D02*
X180559000Y-102012500D01*
X179099000Y-99052500D02*
X180559000Y-99052500D01*
X179099000Y-102012500D02*
X179099000Y-99052500D01*
X180559000Y-102012500D02*
X179099000Y-102012500D01*
G04 #@! TO.C,R84*
X182591000Y-99078000D02*
X182591000Y-102038000D01*
X181131000Y-99078000D02*
X182591000Y-99078000D01*
X181131000Y-102038000D02*
X181131000Y-99078000D01*
X182591000Y-102038000D02*
X181131000Y-102038000D01*
G04 #@! TO.C,R85*
X187163000Y-99103500D02*
X187163000Y-102063500D01*
X185703000Y-99103500D02*
X187163000Y-99103500D01*
X185703000Y-102063500D02*
X185703000Y-99103500D01*
X187163000Y-102063500D02*
X185703000Y-102063500D01*
G04 #@! TO.C,R86*
X184877000Y-99078000D02*
X184877000Y-102038000D01*
X183417000Y-99078000D02*
X184877000Y-99078000D01*
X183417000Y-102038000D02*
X183417000Y-99078000D01*
X184877000Y-102038000D02*
X183417000Y-102038000D01*
G04 #@! TO.C,R87*
X191481000Y-99103500D02*
X191481000Y-102063500D01*
X190021000Y-99103500D02*
X191481000Y-99103500D01*
X190021000Y-102063500D02*
X190021000Y-99103500D01*
X191481000Y-102063500D02*
X190021000Y-102063500D01*
G04 #@! TO.C,R88*
X189195000Y-99052500D02*
X189195000Y-102012500D01*
X187735000Y-99052500D02*
X189195000Y-99052500D01*
X187735000Y-102012500D02*
X187735000Y-99052500D01*
X189195000Y-102012500D02*
X187735000Y-102012500D01*
G04 #@! TO.C,R89*
X193734000Y-99123500D02*
X193734000Y-102083500D01*
X192274000Y-99123500D02*
X193734000Y-99123500D01*
X192274000Y-102083500D02*
X192274000Y-99123500D01*
X193734000Y-102083500D02*
X192274000Y-102083500D01*
G04 #@! TO.C,U5*
X102815000Y-86755000D02*
X96575000Y-86755000D01*
X102815000Y-92995000D02*
X102815000Y-86755000D01*
X96575000Y-92995000D02*
X102815000Y-92995000D01*
X96575000Y-86755000D02*
X96575000Y-92995000D01*
G04 #@! TO.C,U4*
X152007400Y-89102600D02*
X152007400Y-86002600D01*
X148407400Y-89102600D02*
X148407400Y-86002600D01*
X148407400Y-86002600D02*
X152007400Y-86002600D01*
X148407400Y-89102600D02*
X152007400Y-89102600D01*
G04 #@! TO.C,U11*
X126310000Y-68762000D02*
X120070000Y-68762000D01*
X126310000Y-75002000D02*
X126310000Y-68762000D01*
X120070000Y-75002000D02*
X126310000Y-75002000D01*
X120070000Y-68762000D02*
X120070000Y-75002000D01*
G04 #@! TO.C,C104*
X145600000Y-70288000D02*
X147000000Y-70288000D01*
X145600000Y-67888000D02*
X145600000Y-70288000D01*
X147000000Y-67888000D02*
X145600000Y-67888000D01*
X147000000Y-70288000D02*
X147000000Y-73338000D01*
X147000000Y-64838000D02*
X147000000Y-67888000D01*
X147000000Y-64838000D02*
X148150000Y-63688000D01*
X147000000Y-73338000D02*
X148150000Y-74488000D01*
X148150000Y-63688000D02*
X157800000Y-63688000D01*
X148150000Y-74488000D02*
X157800000Y-74488000D01*
X157800000Y-70288000D02*
X157800000Y-74488000D01*
X159200000Y-70288000D02*
X157800000Y-70288000D01*
X159200000Y-67888000D02*
X159200000Y-70288000D01*
X157800000Y-67888000D02*
X159200000Y-67888000D01*
X157800000Y-63688000D02*
X157800000Y-67888000D01*
G04 #@! TO.C,C105*
X100134000Y-50476000D02*
X101534000Y-50476000D01*
X100134000Y-48076000D02*
X100134000Y-50476000D01*
X101534000Y-48076000D02*
X100134000Y-48076000D01*
X101534000Y-50476000D02*
X101534000Y-53526000D01*
X101534000Y-45026000D02*
X101534000Y-48076000D01*
X101534000Y-45026000D02*
X102684000Y-43876000D01*
X101534000Y-53526000D02*
X102684000Y-54676000D01*
X102684000Y-43876000D02*
X112334000Y-43876000D01*
X102684000Y-54676000D02*
X112334000Y-54676000D01*
X112334000Y-50476000D02*
X112334000Y-54676000D01*
X113734000Y-50476000D02*
X112334000Y-50476000D01*
X113734000Y-48076000D02*
X113734000Y-50476000D01*
X112334000Y-48076000D02*
X113734000Y-48076000D01*
X112334000Y-43876000D02*
X112334000Y-48076000D01*
G04 #@! TO.C,C101*
X106836000Y-60264000D02*
X106836000Y-62164000D01*
X106836000Y-62164000D02*
X103476000Y-62164000D01*
X103476000Y-62164000D02*
X103476000Y-60264000D01*
X103476000Y-60264000D02*
X106836000Y-60264000D01*
G04 #@! TO.C,C102*
X107090000Y-62804000D02*
X107090000Y-64704000D01*
X107090000Y-64704000D02*
X103730000Y-64704000D01*
X103730000Y-64704000D02*
X103730000Y-62804000D01*
X103730000Y-62804000D02*
X107090000Y-62804000D01*
G04 #@! TO.C,C19*
X75880000Y-60354000D02*
X73980000Y-60354000D01*
X73980000Y-60354000D02*
X73980000Y-56994000D01*
X73980000Y-56994000D02*
X75880000Y-56994000D01*
X75880000Y-56994000D02*
X75880000Y-60354000D01*
G04 #@! TO.C,C21*
X77372000Y-54930000D02*
X77372000Y-56830000D01*
X77372000Y-56830000D02*
X74012000Y-56830000D01*
X74012000Y-56830000D02*
X74012000Y-54930000D01*
X74012000Y-54930000D02*
X77372000Y-54930000D01*
G04 #@! TO.C,C25*
X156737400Y-88757600D02*
X153777400Y-88757600D01*
X156737400Y-87297600D02*
X156737400Y-88757600D01*
X153777400Y-87297600D02*
X156737400Y-87297600D01*
X153777400Y-88757600D02*
X153777400Y-87297600D01*
G04 #@! TO.C,C31*
X155307400Y-82582600D02*
X153407400Y-82582600D01*
X153407400Y-82582600D02*
X153407400Y-79222600D01*
X153407400Y-79222600D02*
X155307400Y-79222600D01*
X155307400Y-79222600D02*
X155307400Y-82582600D01*
G04 #@! TO.C,C32*
X157522800Y-81772000D02*
X159422800Y-81772000D01*
X159422800Y-81772000D02*
X159422800Y-85132000D01*
X159422800Y-85132000D02*
X157522800Y-85132000D01*
X157522800Y-85132000D02*
X157522800Y-81772000D01*
G04 #@! TO.C,C33*
X160427400Y-81734600D02*
X162327400Y-81734600D01*
X162327400Y-81734600D02*
X162327400Y-85094600D01*
X162327400Y-85094600D02*
X160427400Y-85094600D01*
X160427400Y-85094600D02*
X160427400Y-81734600D01*
G04 #@! TO.C,C34*
X169491400Y-80800600D02*
X171391400Y-80800600D01*
X171391400Y-80800600D02*
X171391400Y-84160600D01*
X171391400Y-84160600D02*
X169491400Y-84160600D01*
X169491400Y-84160600D02*
X169491400Y-80800600D01*
G04 #@! TO.C,C35*
X159527400Y-75632600D02*
X162487400Y-75632600D01*
X159527400Y-77092600D02*
X159527400Y-75632600D01*
X162487400Y-77092600D02*
X159527400Y-77092600D01*
X162487400Y-75632600D02*
X162487400Y-77092600D01*
G04 #@! TO.C,C42*
X179829500Y-81230500D02*
X177929500Y-81230500D01*
X177929500Y-81230500D02*
X177929500Y-77870500D01*
X177929500Y-77870500D02*
X179829500Y-77870500D01*
X179829500Y-77870500D02*
X179829500Y-81230500D01*
G04 #@! TO.C,C43*
X183385500Y-81230500D02*
X181485500Y-81230500D01*
X181485500Y-81230500D02*
X181485500Y-77870500D01*
X181485500Y-77870500D02*
X183385500Y-77870500D01*
X183385500Y-77870500D02*
X183385500Y-81230500D01*
G04 #@! TO.C,C44*
X157640200Y-87308500D02*
X159540200Y-87308500D01*
X159540200Y-87308500D02*
X159540200Y-90668500D01*
X159540200Y-90668500D02*
X157640200Y-90668500D01*
X157640200Y-90668500D02*
X157640200Y-87308500D01*
G04 #@! TO.C,C45*
X164287400Y-89212600D02*
X164287400Y-90462600D01*
X166387400Y-89212600D02*
X164287400Y-89212600D01*
X166387400Y-90462600D02*
X166387400Y-89212600D01*
X164287400Y-90462600D02*
X162937400Y-90462600D01*
X167737400Y-90462600D02*
X166387400Y-90462600D01*
X167737400Y-90462600D02*
X168887400Y-91612600D01*
X162937400Y-90462600D02*
X161787400Y-91612600D01*
X168887400Y-91612600D02*
X168887400Y-97562600D01*
X161787400Y-91612600D02*
X161787400Y-97562600D01*
X164287400Y-97562600D02*
X161787400Y-97562600D01*
X164287400Y-98812600D02*
X164287400Y-97562600D01*
X166387400Y-98812600D02*
X164287400Y-98812600D01*
X166387400Y-97562600D02*
X166387400Y-98812600D01*
X168887400Y-97562600D02*
X166387400Y-97562600D01*
G04 #@! TO.C,C46*
X176088000Y-90014000D02*
X177988000Y-90014000D01*
X177988000Y-90014000D02*
X177988000Y-93374000D01*
X177988000Y-93374000D02*
X176088000Y-93374000D01*
X176088000Y-93374000D02*
X176088000Y-90014000D01*
G04 #@! TO.C,C47*
X173802000Y-90014000D02*
X175702000Y-90014000D01*
X175702000Y-90014000D02*
X175702000Y-93374000D01*
X175702000Y-93374000D02*
X173802000Y-93374000D01*
X173802000Y-93374000D02*
X173802000Y-90014000D01*
G04 #@! TO.C,C49*
X178374000Y-90014000D02*
X180274000Y-90014000D01*
X180274000Y-90014000D02*
X180274000Y-93374000D01*
X180274000Y-93374000D02*
X178374000Y-93374000D01*
X178374000Y-93374000D02*
X178374000Y-90014000D01*
G04 #@! TO.C,C52*
X184686000Y-85412000D02*
X184686000Y-87312000D01*
X184686000Y-87312000D02*
X181326000Y-87312000D01*
X181326000Y-87312000D02*
X181326000Y-85412000D01*
X181326000Y-85412000D02*
X184686000Y-85412000D01*
G04 #@! TO.C,C53*
X185010000Y-85278000D02*
X185010000Y-83378000D01*
X185010000Y-83378000D02*
X188370000Y-83378000D01*
X188370000Y-83378000D02*
X188370000Y-85278000D01*
X188370000Y-85278000D02*
X185010000Y-85278000D01*
G04 #@! TO.C,C54*
X184672000Y-83378000D02*
X184672000Y-85278000D01*
X184672000Y-85278000D02*
X181312000Y-85278000D01*
X181312000Y-85278000D02*
X181312000Y-83378000D01*
X181312000Y-83378000D02*
X184672000Y-83378000D01*
G04 #@! TO.C,C55*
X149402400Y-85532600D02*
X149402400Y-82572600D01*
X150862400Y-85532600D02*
X149402400Y-85532600D01*
X150862400Y-82572600D02*
X150862400Y-85532600D01*
X149402400Y-82572600D02*
X150862400Y-82572600D01*
G04 #@! TO.C,C56*
X159761100Y-87293500D02*
X161661100Y-87293500D01*
X161661100Y-87293500D02*
X161661100Y-90653500D01*
X161661100Y-90653500D02*
X159761100Y-90653500D01*
X159761100Y-90653500D02*
X159761100Y-87293500D01*
G04 #@! TO.C,C60*
X143887400Y-89907600D02*
X140927400Y-89907600D01*
X143887400Y-88447600D02*
X143887400Y-89907600D01*
X140927400Y-88447600D02*
X143887400Y-88447600D01*
X140927400Y-89907600D02*
X140927400Y-88447600D01*
G04 #@! TO.C,C61*
X139327400Y-94445100D02*
X139327400Y-91485100D01*
X140787400Y-94445100D02*
X139327400Y-94445100D01*
X140787400Y-91485100D02*
X140787400Y-94445100D01*
X139327400Y-91485100D02*
X140787400Y-91485100D01*
G04 #@! TO.C,C62*
X120655400Y-93715500D02*
X120655400Y-96675500D01*
X119195400Y-93715500D02*
X120655400Y-93715500D01*
X119195400Y-96675500D02*
X119195400Y-93715500D01*
X120655400Y-96675500D02*
X119195400Y-96675500D01*
G04 #@! TO.C,C63*
X115702400Y-98822600D02*
X118662400Y-98822600D01*
X115702400Y-100282600D02*
X115702400Y-98822600D01*
X118662400Y-100282600D02*
X115702400Y-100282600D01*
X118662400Y-98822600D02*
X118662400Y-100282600D01*
G04 #@! TO.C,C65*
X115702400Y-96797600D02*
X118662400Y-96797600D01*
X115702400Y-98257600D02*
X115702400Y-96797600D01*
X118662400Y-98257600D02*
X115702400Y-98257600D01*
X118662400Y-96797600D02*
X118662400Y-98257600D01*
G04 #@! TO.C,C67*
X91472000Y-98508000D02*
X91472000Y-95548000D01*
X92932000Y-98508000D02*
X91472000Y-98508000D01*
X92932000Y-95548000D02*
X92932000Y-98508000D01*
X91472000Y-95548000D02*
X92932000Y-95548000D01*
G04 #@! TO.C,C68*
X94710000Y-95548000D02*
X94710000Y-98508000D01*
X93250000Y-95548000D02*
X94710000Y-95548000D01*
X93250000Y-98508000D02*
X93250000Y-95548000D01*
X94710000Y-98508000D02*
X93250000Y-98508000D01*
G04 #@! TO.C,C69*
X97553900Y-97183300D02*
X100513900Y-97183300D01*
X97553900Y-98643300D02*
X97553900Y-97183300D01*
X100513900Y-98643300D02*
X97553900Y-98643300D01*
X100513900Y-97183300D02*
X100513900Y-98643300D01*
G04 #@! TO.C,C71*
X97465000Y-101298100D02*
X100425000Y-101298100D01*
X97465000Y-102758100D02*
X97465000Y-101298100D01*
X100425000Y-102758100D02*
X97465000Y-102758100D01*
X100425000Y-101298100D02*
X100425000Y-102758100D01*
G04 #@! TO.C,C73*
X94037400Y-89232600D02*
X91077400Y-89232600D01*
X94037400Y-87772600D02*
X94037400Y-89232600D01*
X91077400Y-87772600D02*
X94037400Y-87772600D01*
X91077400Y-89232600D02*
X91077400Y-87772600D01*
G04 #@! TO.C,C74*
X97528500Y-99189900D02*
X100488500Y-99189900D01*
X97528500Y-100649900D02*
X97528500Y-99189900D01*
X100488500Y-100649900D02*
X97528500Y-100649900D01*
X100488500Y-99189900D02*
X100488500Y-100649900D01*
G04 #@! TO.C,C75*
X95282000Y-98508000D02*
X95282000Y-95548000D01*
X96742000Y-98508000D02*
X95282000Y-98508000D01*
X96742000Y-95548000D02*
X96742000Y-98508000D01*
X95282000Y-95548000D02*
X96742000Y-95548000D01*
G04 #@! TO.C,C77*
X110387400Y-93707600D02*
X107427400Y-93707600D01*
X110387400Y-92247600D02*
X110387400Y-93707600D01*
X107427400Y-92247600D02*
X110387400Y-92247600D01*
X107427400Y-93707600D02*
X107427400Y-92247600D01*
G04 #@! TO.C,C78*
X104184000Y-92234000D02*
X107144000Y-92234000D01*
X104184000Y-93694000D02*
X104184000Y-92234000D01*
X107144000Y-93694000D02*
X104184000Y-93694000D01*
X107144000Y-92234000D02*
X107144000Y-93694000D01*
G04 #@! TO.C,C79*
X113402400Y-85282600D02*
X113402400Y-82322600D01*
X114862400Y-85282600D02*
X113402400Y-85282600D01*
X114862400Y-82322600D02*
X114862400Y-85282600D01*
X113402400Y-82322600D02*
X114862400Y-82322600D01*
G04 #@! TO.C,C81*
X103887400Y-85557600D02*
X100927400Y-85557600D01*
X103887400Y-84097600D02*
X103887400Y-85557600D01*
X100927400Y-84097600D02*
X103887400Y-84097600D01*
X100927400Y-85557600D02*
X100927400Y-84097600D01*
G04 #@! TO.C,C82*
X119957400Y-104714600D02*
X119957400Y-101754600D01*
X121417400Y-104714600D02*
X119957400Y-104714600D01*
X121417400Y-101754600D02*
X121417400Y-104714600D01*
X119957400Y-101754600D02*
X121417400Y-101754600D01*
G04 #@! TO.C,C83*
X127323400Y-104714600D02*
X127323400Y-101754600D01*
X128783400Y-104714600D02*
X127323400Y-104714600D01*
X128783400Y-101754600D02*
X128783400Y-104714600D01*
X127323400Y-101754600D02*
X128783400Y-101754600D01*
G04 #@! TO.C,C84*
X122495000Y-104714600D02*
X122495000Y-101754600D01*
X123955000Y-104714600D02*
X122495000Y-104714600D01*
X123955000Y-101754600D02*
X123955000Y-104714600D01*
X122495000Y-101754600D02*
X123955000Y-101754600D01*
G04 #@! TO.C,C85*
X115237400Y-75242600D02*
X115237400Y-72282600D01*
X116697400Y-75242600D02*
X115237400Y-75242600D01*
X116697400Y-72282600D02*
X116697400Y-75242600D01*
X115237400Y-72282600D02*
X116697400Y-72282600D01*
G04 #@! TO.C,C86*
X124783400Y-104737000D02*
X124783400Y-101777000D01*
X126243400Y-104737000D02*
X124783400Y-104737000D01*
X126243400Y-101777000D02*
X126243400Y-104737000D01*
X124783400Y-101777000D02*
X126243400Y-101777000D01*
G04 #@! TO.C,C87*
X107398000Y-86836000D02*
X104438000Y-86836000D01*
X107398000Y-85376000D02*
X107398000Y-86836000D01*
X104438000Y-85376000D02*
X107398000Y-85376000D01*
X104438000Y-86836000D02*
X104438000Y-85376000D01*
G04 #@! TO.C,C92*
X129480000Y-69482600D02*
X126520000Y-69482600D01*
X129480000Y-68022600D02*
X129480000Y-69482600D01*
X126520000Y-68022600D02*
X129480000Y-68022600D01*
X126520000Y-69482600D02*
X126520000Y-68022600D01*
G04 #@! TO.C,C95*
X151454300Y-77349100D02*
X148494300Y-77349100D01*
X151454300Y-75889100D02*
X151454300Y-77349100D01*
X148494300Y-75889100D02*
X151454300Y-75889100D01*
X148494300Y-77349100D02*
X148494300Y-75889100D01*
G04 #@! TO.C,C96*
X151403500Y-79241400D02*
X148443500Y-79241400D01*
X151403500Y-77781400D02*
X151403500Y-79241400D01*
X148443500Y-77781400D02*
X151403500Y-77781400D01*
X148443500Y-79241400D02*
X148443500Y-77781400D01*
G04 #@! TO.C,C97*
X125813000Y-84677000D02*
X122853000Y-84677000D01*
X125813000Y-83217000D02*
X125813000Y-84677000D01*
X122853000Y-83217000D02*
X125813000Y-83217000D01*
X122853000Y-84677000D02*
X122853000Y-83217000D01*
G04 #@! TO.C,D5*
X161500000Y-73628000D02*
X158540000Y-73628000D01*
X161500000Y-72168000D02*
X161500000Y-73628000D01*
X158540000Y-72168000D02*
X161500000Y-72168000D01*
X158540000Y-73628000D02*
X158540000Y-72168000D01*
G04 #@! TO.C,D6*
X188717400Y-86262600D02*
X191677400Y-86262600D01*
X188717400Y-87722600D02*
X188717400Y-86262600D01*
X191677400Y-87722600D02*
X188717400Y-87722600D01*
X191677400Y-86262600D02*
X191677400Y-87722600D01*
G04 #@! TO.C,D9*
X133685400Y-103520600D02*
X136645400Y-103520600D01*
X133685400Y-104980600D02*
X133685400Y-103520600D01*
X136645400Y-104980600D02*
X133685400Y-104980600D01*
X136645400Y-103520600D02*
X136645400Y-104980600D01*
G04 #@! TO.C,D10*
X140506000Y-64548000D02*
X143466000Y-64548000D01*
X140506000Y-66008000D02*
X140506000Y-64548000D01*
X143466000Y-66008000D02*
X140506000Y-66008000D01*
X143466000Y-64548000D02*
X143466000Y-66008000D01*
G04 #@! TO.C,FID1*
X74947400Y-45322600D02*
G75*
G03X74947400Y-45322600I-1250000J0D01*
G01*
G04 #@! TO.C,H3*
X84777000Y-47780000D02*
G75*
G03X84777000Y-47780000I-3450000J0D01*
G01*
G04 #@! TO.C,J3*
X113857400Y-111567600D02*
X111027400Y-111567600D01*
X113857400Y-114327600D02*
X113857400Y-111567600D01*
X116357400Y-114327600D02*
X113857400Y-114327600D01*
X116357400Y-111567600D02*
X116357400Y-114327600D01*
X119187400Y-111567600D02*
X116357400Y-111567600D01*
X119187400Y-100657600D02*
X119187400Y-111567600D01*
X111027400Y-100657600D02*
X119187400Y-100657600D01*
X111027400Y-111567600D02*
X111027400Y-100657600D01*
G04 #@! TO.C,L1*
X163065800Y-84077200D02*
X163065800Y-89131800D01*
X168222000Y-89131800D02*
X163065800Y-89131800D01*
X168222000Y-84077200D02*
X163065800Y-84077200D01*
X168222000Y-84077200D02*
X168222000Y-89131800D01*
G04 #@! TO.C,R28*
X162867400Y-78032600D02*
X161007400Y-78032600D01*
X162867400Y-77092600D02*
X162867400Y-78032600D01*
X161007400Y-77092600D02*
X162867400Y-77092600D01*
X161007400Y-78032600D02*
X161007400Y-77092600D01*
G04 #@! TO.C,R32*
X160997400Y-78380600D02*
X162857400Y-78380600D01*
X160997400Y-79320600D02*
X160997400Y-78380600D01*
X162857400Y-79320600D02*
X160997400Y-79320600D01*
X162857400Y-78380600D02*
X162857400Y-79320600D01*
G04 #@! TO.C,R7*
X84743000Y-74816000D02*
X82883000Y-74816000D01*
X84743000Y-73876000D02*
X84743000Y-74816000D01*
X82883000Y-73876000D02*
X84743000Y-73876000D01*
X82883000Y-74816000D02*
X82883000Y-73876000D01*
G04 #@! TO.C,TP7*
X123207400Y-105752600D02*
X127707400Y-105752600D01*
X127707400Y-105752600D02*
X127707400Y-108252600D01*
X127707400Y-108252600D02*
X123207400Y-108252600D01*
X123207400Y-108252600D02*
X123207400Y-105752600D01*
G04 #@! TO.C,TP18*
X136832400Y-110727600D02*
X133732400Y-110727600D01*
X136832400Y-113027600D02*
X136832400Y-110727600D01*
X133732400Y-113027600D02*
X136832400Y-113027600D01*
X133732400Y-110727600D02*
X133732400Y-113027600D01*
G04 #@! TO.C,TP19*
X111024000Y-83178000D02*
X107924000Y-83178000D01*
X111024000Y-85478000D02*
X111024000Y-83178000D01*
X107924000Y-85478000D02*
X111024000Y-85478000D01*
X107924000Y-83178000D02*
X107924000Y-85478000D01*
G04 #@! TO.C,TP21*
X86925000Y-98000000D02*
X86925000Y-101100000D01*
X89225000Y-98000000D02*
X86925000Y-98000000D01*
X89225000Y-101100000D02*
X89225000Y-98000000D01*
X86925000Y-101100000D02*
X89225000Y-101100000D01*
G04 #@! TO.C,TP22*
X111182400Y-98902600D02*
X114282400Y-98902600D01*
X111182400Y-96602600D02*
X111182400Y-98902600D01*
X114282400Y-96602600D02*
X111182400Y-96602600D01*
X114282400Y-98902600D02*
X114282400Y-96602600D01*
G04 #@! TO.C,TP23*
X131607400Y-95852600D02*
X128507400Y-95852600D01*
X131607400Y-98152600D02*
X131607400Y-95852600D01*
X128507400Y-98152600D02*
X131607400Y-98152600D01*
X128507400Y-95852600D02*
X128507400Y-98152600D01*
G04 #@! TO.C,U2*
X163400000Y-82400000D02*
X163400000Y-78000000D01*
X167800000Y-82400000D02*
X163400000Y-82400000D01*
X167800000Y-78000000D02*
X167800000Y-82400000D01*
X163400000Y-78000000D02*
X167800000Y-78000000D01*
G04 #@! TO.C,U6*
X147203000Y-91173000D02*
X152003000Y-91173000D01*
X147203000Y-95973000D02*
X147203000Y-91173000D01*
X152003000Y-95973000D02*
X147203000Y-95973000D01*
X152003000Y-91173000D02*
X152003000Y-95973000D01*
G04 #@! TO.C,C89*
X120174000Y-79966000D02*
X120174000Y-77006000D01*
X121634000Y-79966000D02*
X120174000Y-79966000D01*
X121634000Y-77006000D02*
X121634000Y-79966000D01*
X120174000Y-77006000D02*
X121634000Y-77006000D01*
G04 #@! TO.C,C91*
X118052400Y-75297600D02*
X121012400Y-75297600D01*
X118052400Y-76757600D02*
X118052400Y-75297600D01*
X121012400Y-76757600D02*
X118052400Y-76757600D01*
X121012400Y-75297600D02*
X121012400Y-76757600D01*
G04 #@! TO.C,C7*
X85246000Y-63820000D02*
X85246000Y-65720000D01*
X85246000Y-65720000D02*
X81886000Y-65720000D01*
X81886000Y-65720000D02*
X81886000Y-63820000D01*
X81886000Y-63820000D02*
X85246000Y-63820000D01*
G04 #@! TO.C,C8*
X81936000Y-58034000D02*
X85296000Y-58034000D01*
X81936000Y-59934000D02*
X81936000Y-58034000D01*
X85296000Y-59934000D02*
X81936000Y-59934000D01*
X85296000Y-58034000D02*
X85296000Y-59934000D01*
G04 #@! TO.C,C10*
X100790000Y-68100000D02*
X100790000Y-66640000D01*
X100790000Y-66640000D02*
X103750000Y-66640000D01*
X103750000Y-66640000D02*
X103750000Y-68100000D01*
X103750000Y-68100000D02*
X100790000Y-68100000D01*
G04 #@! TO.C,C11*
X100160000Y-66160000D02*
X100160000Y-64260000D01*
X100160000Y-64260000D02*
X103520000Y-64260000D01*
X103520000Y-64260000D02*
X103520000Y-66160000D01*
X103520000Y-66160000D02*
X100160000Y-66160000D01*
G04 #@! TO.C,C13*
X100476300Y-71837100D02*
X101936300Y-71837100D01*
X101936300Y-71837100D02*
X101936300Y-74797100D01*
X101936300Y-74797100D02*
X100476300Y-74797100D01*
X100476300Y-74797100D02*
X100476300Y-71837100D01*
G04 #@! TO.C,C57*
X104160000Y-70490000D02*
X100800000Y-70490000D01*
X104160000Y-68590000D02*
X104160000Y-70490000D01*
X100800000Y-68590000D02*
X104160000Y-68590000D01*
X100800000Y-70490000D02*
X100800000Y-68590000D01*
G04 #@! TO.C,C106*
X95773200Y-75231200D02*
X97673200Y-75231200D01*
X97673200Y-75231200D02*
X97673200Y-78591200D01*
X97673200Y-78591200D02*
X95773200Y-78591200D01*
X95773200Y-78591200D02*
X95773200Y-75231200D01*
G04 #@! TO.C,C107*
X101087400Y-80627600D02*
X97727400Y-80627600D01*
X101087400Y-78727600D02*
X101087400Y-80627600D01*
X97727400Y-78727600D02*
X101087400Y-78727600D01*
X97727400Y-80627600D02*
X97727400Y-78727600D01*
G04 #@! TO.C,D11*
X104260000Y-70676000D02*
X104260000Y-65976000D01*
X104260000Y-65976000D02*
X106560000Y-65976000D01*
X106560000Y-65976000D02*
X106560000Y-70676000D01*
X104260000Y-70676000D02*
X106560000Y-70676000D01*
G04 #@! TO.C,H2*
X167477000Y-109550000D02*
G75*
G03X167477000Y-109550000I-3450000J0D01*
G01*
G04 #@! TO.C,H5*
X84777000Y-109550000D02*
G75*
G03X84777000Y-109550000I-3450000J0D01*
G01*
G04 #@! TO.C,H6*
X167480000Y-47735500D02*
G75*
G03X167480000Y-47735500I-3450000J0D01*
G01*
G04 #@! TO.C,J7*
X115726000Y-61778000D02*
X115726000Y-55028000D01*
X115726000Y-55028000D02*
X107326000Y-55028000D01*
X107326000Y-55028000D02*
X107326000Y-61778000D01*
X107326000Y-61778000D02*
X115726000Y-61778000D01*
G04 #@! TO.C,Q1*
X89376000Y-61600000D02*
X89376000Y-65400000D01*
X85376000Y-61600000D02*
X89376000Y-61600000D01*
X85376000Y-65400000D02*
X85376000Y-61600000D01*
X89376000Y-65400000D02*
X85376000Y-65400000D01*
G04 #@! TO.C,Q2*
X104380000Y-75600000D02*
X108180000Y-75600000D01*
X104380000Y-79100000D02*
X104380000Y-75600000D01*
X108180000Y-79100000D02*
X104380000Y-79100000D01*
X108180000Y-75600000D02*
X108180000Y-79100000D01*
G04 #@! TO.C,R8*
X92678000Y-65742000D02*
X91218000Y-65742000D01*
X91218000Y-65742000D02*
X91218000Y-62782000D01*
X91218000Y-62782000D02*
X92678000Y-62782000D01*
X92678000Y-62782000D02*
X92678000Y-65742000D01*
G04 #@! TO.C,R9*
X89960000Y-61182000D02*
X89960000Y-59722000D01*
X89960000Y-59722000D02*
X92920000Y-59722000D01*
X92920000Y-59722000D02*
X92920000Y-61182000D01*
X92920000Y-61182000D02*
X89960000Y-61182000D01*
G04 #@! TO.C,R21*
X98800000Y-61872000D02*
X98800000Y-64112000D01*
X98800000Y-64112000D02*
X94240000Y-64112000D01*
X94240000Y-64112000D02*
X94240000Y-61872000D01*
X94240000Y-61872000D02*
X98800000Y-61872000D01*
G04 #@! TO.C,R45*
X107912000Y-74590000D02*
X106972000Y-74590000D01*
X106972000Y-74590000D02*
X106972000Y-72730000D01*
X106972000Y-72730000D02*
X107912000Y-72730000D01*
X107912000Y-72730000D02*
X107912000Y-74590000D01*
G04 #@! TO.C,R46*
X104500000Y-74220000D02*
X104500000Y-73280000D01*
X104500000Y-73280000D02*
X106360000Y-73280000D01*
X106360000Y-73280000D02*
X106360000Y-74220000D01*
X106360000Y-74220000D02*
X104500000Y-74220000D01*
G04 #@! TO.C,R52*
X87310000Y-90522000D02*
X87310000Y-93882000D01*
X85410000Y-90522000D02*
X87310000Y-90522000D01*
X85410000Y-93882000D02*
X85410000Y-90522000D01*
X87310000Y-93882000D02*
X85410000Y-93882000D01*
G04 #@! TO.C,R59*
X87166000Y-72422000D02*
X90126000Y-72422000D01*
X87166000Y-73882000D02*
X87166000Y-72422000D01*
X90126000Y-73882000D02*
X87166000Y-73882000D01*
X90126000Y-72422000D02*
X90126000Y-73882000D01*
G04 #@! TO.C,R60*
X95602700Y-78752600D02*
X97462700Y-78752600D01*
X95602700Y-79692600D02*
X95602700Y-78752600D01*
X97462700Y-79692600D02*
X95602700Y-79692600D01*
X97462700Y-78752600D02*
X97462700Y-79692600D01*
G04 #@! TO.C,R62*
X116288000Y-64738000D02*
X113328000Y-64738000D01*
X116288000Y-63278000D02*
X116288000Y-64738000D01*
X113328000Y-63278000D02*
X116288000Y-63278000D01*
X113328000Y-64738000D02*
X113328000Y-63278000D01*
G04 #@! TO.C,R63*
X107302400Y-64182600D02*
X107302400Y-62722600D01*
X107302400Y-62722600D02*
X110262400Y-62722600D01*
X110262400Y-62722600D02*
X110262400Y-64182600D01*
X110262400Y-64182600D02*
X107302400Y-64182600D01*
G04 #@! TO.C,R72*
X87950000Y-90522000D02*
X89850000Y-90522000D01*
X89850000Y-90522000D02*
X89850000Y-93882000D01*
X89850000Y-93882000D02*
X87950000Y-93882000D01*
X87950000Y-93882000D02*
X87950000Y-90522000D01*
G04 #@! TO.C,R78*
X107598000Y-89220000D02*
X107598000Y-91120000D01*
X107598000Y-91120000D02*
X104238000Y-91120000D01*
X104238000Y-91120000D02*
X104238000Y-89220000D01*
X104238000Y-89220000D02*
X107598000Y-89220000D01*
G04 #@! TO.C,R79*
X104238000Y-89088000D02*
X104238000Y-87188000D01*
X104238000Y-87188000D02*
X107598000Y-87188000D01*
X107598000Y-87188000D02*
X107598000Y-89088000D01*
X107598000Y-89088000D02*
X104238000Y-89088000D01*
G04 #@! TO.C,R80*
X106177400Y-94052600D02*
X109537400Y-94052600D01*
X106177400Y-95952600D02*
X106177400Y-94052600D01*
X109537400Y-95952600D02*
X106177400Y-95952600D01*
X109537400Y-94052600D02*
X109537400Y-95952600D01*
G04 #@! TO.C,R93*
X134107400Y-69972600D02*
X137467400Y-69972600D01*
X134107400Y-71872600D02*
X134107400Y-69972600D01*
X137467400Y-71872600D02*
X134107400Y-71872600D01*
X137467400Y-69972600D02*
X137467400Y-71872600D01*
G04 #@! TO.C,R96*
X125632000Y-82865000D02*
X122272000Y-82865000D01*
X125632000Y-80965000D02*
X125632000Y-82865000D01*
X122272000Y-80965000D02*
X125632000Y-80965000D01*
X122272000Y-82865000D02*
X122272000Y-80965000D01*
G04 #@! TO.C,R_SENSE_3*
X122177400Y-76857600D02*
X126737400Y-76857600D01*
X122177400Y-79097600D02*
X122177400Y-76857600D01*
X126737400Y-79097600D02*
X122177400Y-79097600D01*
X126737400Y-76857600D02*
X126737400Y-79097600D01*
G04 #@! TO.C,Q3*
X111045000Y-65638000D02*
X111045000Y-69998000D01*
X111045000Y-69998000D02*
X107395000Y-69998000D01*
X107395000Y-69998000D02*
X107395000Y-65638000D01*
X107395000Y-65638000D02*
X111045000Y-65638000D01*
G04 #@! TO.C,R61*
X102356000Y-76350000D02*
X102356000Y-78590000D01*
X102356000Y-78590000D02*
X97796000Y-78590000D01*
X97796000Y-78590000D02*
X97796000Y-76350000D01*
X97796000Y-76350000D02*
X102356000Y-76350000D01*
G04 #@! TO.C,R_SENSE_1*
X90574000Y-94228000D02*
X90574000Y-89668000D01*
X92814000Y-94228000D02*
X90574000Y-94228000D01*
X92814000Y-89668000D02*
X92814000Y-94228000D01*
X90574000Y-89668000D02*
X92814000Y-89668000D01*
G04 #@! TO.C,R_SENSE_2*
X103412400Y-94532600D02*
X103412400Y-96772600D01*
X103412400Y-96772600D02*
X98852400Y-96772600D01*
X98852400Y-96772600D02*
X98852400Y-94532600D01*
X98852400Y-94532600D02*
X103412400Y-94532600D01*
G04 #@! TO.C,TP1*
X125444000Y-61468000D02*
G75*
G03X125444000Y-61468000I-2000000J0D01*
G01*
G04 #@! TO.C,TP2*
X83382400Y-54952600D02*
G75*
G03X83382400Y-54952600I-2000000J0D01*
G01*
G04 #@! TO.C,TP3*
X85727400Y-104152600D02*
G75*
G03X85727400Y-104152600I-2000000J0D01*
G01*
G04 #@! TO.C,TP5*
X189567400Y-71702600D02*
G75*
G03X189567400Y-71702600I-2000000J0D01*
G01*
G04 #@! TO.C,TP6*
X182547400Y-71402600D02*
G75*
G03X182547400Y-71402600I-2000000J0D01*
G01*
G04 #@! TO.C,TP9*
X92350000Y-57150000D02*
G75*
G03X92350000Y-57150000I-2000000J0D01*
G01*
G04 #@! TO.C,TP15*
X154957400Y-108204000D02*
G75*
G03X154957400Y-108204000I-2000000J0D01*
G01*
G04 #@! TO.C,TP16*
X141517000Y-108204000D02*
G75*
G03X141517000Y-108204000I-2000000J0D01*
G01*
G04 #@! TO.C,TP17*
X148217000Y-108204000D02*
G75*
G03X148217000Y-108204000I-2000000J0D01*
G01*
G04 #@! TO.C,D7*
X94887400Y-83797600D02*
X94887400Y-85257600D01*
X94887400Y-85257600D02*
X91927400Y-85257600D01*
X91927400Y-85257600D02*
X91927400Y-83797600D01*
X91927400Y-83797600D02*
X94887400Y-83797600D01*
G04 #@! TO.C,R44*
X103630000Y-83800000D02*
X100270000Y-83800000D01*
X103630000Y-81900000D02*
X103630000Y-83800000D01*
X100270000Y-81900000D02*
X103630000Y-81900000D01*
X100270000Y-83800000D02*
X100270000Y-81900000D01*
G04 #@! TO.C,R50*
X99016000Y-85566000D02*
X96056000Y-85566000D01*
X99016000Y-84106000D02*
X99016000Y-85566000D01*
X96056000Y-84106000D02*
X99016000Y-84106000D01*
X96056000Y-85566000D02*
X96056000Y-84106000D01*
G04 #@! TO.C,R66*
X111208000Y-89440000D02*
X111208000Y-90900000D01*
X111208000Y-90900000D02*
X108248000Y-90900000D01*
X108248000Y-90900000D02*
X108248000Y-89440000D01*
X108248000Y-89440000D02*
X111208000Y-89440000D01*
G04 #@! TO.C,R67*
X130613600Y-75609200D02*
X127653600Y-75609200D01*
X130613600Y-74149200D02*
X130613600Y-75609200D01*
X127653600Y-74149200D02*
X130613600Y-74149200D01*
X127653600Y-75609200D02*
X127653600Y-74149200D01*
G04 #@! TO.C,R68*
X133902000Y-66643000D02*
X133902000Y-65183000D01*
X133902000Y-65183000D02*
X136862000Y-65183000D01*
X136862000Y-65183000D02*
X136862000Y-66643000D01*
X136862000Y-66643000D02*
X133902000Y-66643000D01*
G04 #@! TO.C,R69*
X88780000Y-94808000D02*
X88780000Y-96708000D01*
X88780000Y-96708000D02*
X85420000Y-96708000D01*
X85420000Y-96708000D02*
X85420000Y-94808000D01*
X85420000Y-94808000D02*
X88780000Y-94808000D01*
G04 #@! TO.C,R98*
X107637400Y-82572600D02*
X107637400Y-84032600D01*
X107637400Y-84032600D02*
X104677400Y-84032600D01*
X104677400Y-84032600D02*
X104677400Y-82572600D01*
X104677400Y-82572600D02*
X107637400Y-82572600D01*
G04 #@! TO.C,R100*
X129317400Y-84112600D02*
X126357400Y-84112600D01*
X129317400Y-82652600D02*
X129317400Y-84112600D01*
X126357400Y-82652600D02*
X129317400Y-82652600D01*
X126357400Y-84112600D02*
X126357400Y-82652600D01*
G04 #@! TO.C,R101*
X135537400Y-75032600D02*
X132577400Y-75032600D01*
X135537400Y-73572600D02*
X135537400Y-75032600D01*
X132577400Y-73572600D02*
X135537400Y-73572600D01*
X132577400Y-75032600D02*
X132577400Y-73572600D01*
G04 #@! TO.C,C108*
X110457400Y-72547600D02*
X112357400Y-72547600D01*
X112357400Y-72547600D02*
X112357400Y-75907600D01*
X112357400Y-75907600D02*
X110457400Y-75907600D01*
X110457400Y-75907600D02*
X110457400Y-72547600D01*
G04 #@! TO.C,C109*
X108602400Y-70502600D02*
X111962400Y-70502600D01*
X108602400Y-72402600D02*
X108602400Y-70502600D01*
X111962400Y-72402600D02*
X108602400Y-72402600D01*
X111962400Y-70502600D02*
X111962400Y-72402600D01*
G04 #@! TO.C,R73*
X91120000Y-98708000D02*
X89220000Y-98708000D01*
X89220000Y-98708000D02*
X89220000Y-95348000D01*
X89220000Y-95348000D02*
X91120000Y-95348000D01*
X91120000Y-95348000D02*
X91120000Y-98708000D01*
G04 #@! TO.C,R94*
X128297400Y-77092600D02*
X124937400Y-77092600D01*
X128297400Y-75192600D02*
X128297400Y-77092600D01*
X124937400Y-75192600D02*
X128297400Y-75192600D01*
X124937400Y-77092600D02*
X124937400Y-75192600D01*
G04 #@! TO.C,TP10*
X171057400Y-69502600D02*
G75*
G03X171057400Y-69502600I-2000000J0D01*
G01*
G04 #@! TO.C,J8*
X132019400Y-119038600D02*
X132019400Y-112288600D01*
X132019400Y-112288600D02*
X123619400Y-112288600D01*
X123619400Y-112288600D02*
X123619400Y-119038600D01*
X123619400Y-119038600D02*
X132019400Y-119038600D01*
G04 #@! TO.C,R103*
X135209400Y-115712600D02*
X138169400Y-115712600D01*
X135209400Y-117172600D02*
X135209400Y-115712600D01*
X138169400Y-117172600D02*
X135209400Y-117172600D01*
X138169400Y-115712600D02*
X138169400Y-117172600D01*
G04 #@! TO.C,R25*
X118412400Y-115372600D02*
X118412400Y-116832600D01*
X118412400Y-116832600D02*
X115452400Y-116832600D01*
X115452400Y-116832600D02*
X115452400Y-115372600D01*
X115452400Y-115372600D02*
X118412400Y-115372600D01*
G04 #@! TD*
M02*
