G04 #@! TF.GenerationSoftware,KiCad,Pcbnew,(5.1.2)-1*
G04 #@! TF.CreationDate,2021-03-24T13:07:53+05:45*
G04 #@! TF.ProjectId,Pufferfish-Power-MCU,50756666-6572-4666-9973-682d506f7765,0.0*
G04 #@! TF.SameCoordinates,Original*
G04 #@! TF.FileFunction,Legend,Bot*
G04 #@! TF.FilePolarity,Positive*
%FSLAX46Y46*%
G04 Gerber Fmt 4.6, Leading zero omitted, Abs format (unit mm)*
G04 Created by KiCad (PCBNEW (5.1.2)-1) date 2021-03-24 13:07:53*
%MOMM*%
%LPD*%
G04 APERTURE LIST*
%ADD10C,0.100000*%
%ADD11C,0.200000*%
%ADD12C,0.175000*%
%ADD13C,0.250000*%
%ADD14C,0.120000*%
%ADD15C,0.010000*%
%ADD16C,0.150000*%
G04 APERTURE END LIST*
D10*
X203287400Y-43052600D02*
X66977400Y-42972600D01*
X203287400Y-119552600D02*
X203287400Y-43052600D01*
X66977400Y-119552600D02*
X203287400Y-119552600D01*
X66977400Y-42972600D02*
X66977400Y-119552600D01*
D11*
X140675019Y-60881171D02*
X140341685Y-60881171D01*
X140198828Y-61404980D02*
X140675019Y-61404980D01*
X140675019Y-60404980D01*
X140198828Y-60404980D01*
X139865495Y-60404980D02*
X139198828Y-61404980D01*
X139198828Y-60404980D02*
X139865495Y-61404980D01*
X138960733Y-60404980D02*
X138389304Y-60404980D01*
X138675019Y-61404980D02*
X138675019Y-60404980D01*
X138198828Y-60404980D02*
X137865495Y-61404980D01*
X137532161Y-60404980D01*
X136627400Y-61309742D02*
X136675019Y-61357361D01*
X136817876Y-61404980D01*
X136913114Y-61404980D01*
X137055971Y-61357361D01*
X137151209Y-61262123D01*
X137198828Y-61166885D01*
X137246447Y-60976409D01*
X137246447Y-60833552D01*
X137198828Y-60643076D01*
X137151209Y-60547838D01*
X137055971Y-60452600D01*
X136913114Y-60404980D01*
X136817876Y-60404980D01*
X136675019Y-60452600D01*
X136627400Y-60500219D01*
X135627400Y-61309742D02*
X135675019Y-61357361D01*
X135817876Y-61404980D01*
X135913114Y-61404980D01*
X136055971Y-61357361D01*
X136151209Y-61262123D01*
X136198828Y-61166885D01*
X136246447Y-60976409D01*
X136246447Y-60833552D01*
X136198828Y-60643076D01*
X136151209Y-60547838D01*
X136055971Y-60452600D01*
X135913114Y-60404980D01*
X135817876Y-60404980D01*
X135675019Y-60452600D01*
X135627400Y-60500219D01*
X135246447Y-60500219D02*
X135198828Y-60452600D01*
X135103590Y-60404980D01*
X134865495Y-60404980D01*
X134770257Y-60452600D01*
X134722638Y-60500219D01*
X134675019Y-60595457D01*
X134675019Y-60690695D01*
X134722638Y-60833552D01*
X135294066Y-61404980D01*
X134675019Y-61404980D01*
X133532161Y-61357361D02*
X133389304Y-61404980D01*
X133151209Y-61404980D01*
X133055971Y-61357361D01*
X133008352Y-61309742D01*
X132960733Y-61214504D01*
X132960733Y-61119266D01*
X133008352Y-61024028D01*
X133055971Y-60976409D01*
X133151209Y-60928790D01*
X133341685Y-60881171D01*
X133436923Y-60833552D01*
X133484542Y-60785933D01*
X133532161Y-60690695D01*
X133532161Y-60595457D01*
X133484542Y-60500219D01*
X133436923Y-60452600D01*
X133341685Y-60404980D01*
X133103590Y-60404980D01*
X132960733Y-60452600D01*
X132151209Y-61357361D02*
X132246447Y-61404980D01*
X132436923Y-61404980D01*
X132532161Y-61357361D01*
X132579780Y-61262123D01*
X132579780Y-60881171D01*
X132532161Y-60785933D01*
X132436923Y-60738314D01*
X132246447Y-60738314D01*
X132151209Y-60785933D01*
X132103590Y-60881171D01*
X132103590Y-60976409D01*
X132579780Y-61071647D01*
X131532161Y-61404980D02*
X131627400Y-61357361D01*
X131675019Y-61262123D01*
X131675019Y-60404980D01*
X130770257Y-61357361D02*
X130865495Y-61404980D01*
X131055971Y-61404980D01*
X131151209Y-61357361D01*
X131198828Y-61262123D01*
X131198828Y-60881171D01*
X131151209Y-60785933D01*
X131055971Y-60738314D01*
X130865495Y-60738314D01*
X130770257Y-60785933D01*
X130722638Y-60881171D01*
X130722638Y-60976409D01*
X131198828Y-61071647D01*
X129865495Y-61357361D02*
X129960733Y-61404980D01*
X130151209Y-61404980D01*
X130246447Y-61357361D01*
X130294066Y-61309742D01*
X130341685Y-61214504D01*
X130341685Y-60928790D01*
X130294066Y-60833552D01*
X130246447Y-60785933D01*
X130151209Y-60738314D01*
X129960733Y-60738314D01*
X129865495Y-60785933D01*
X129579780Y-60738314D02*
X129198828Y-60738314D01*
X129436923Y-60404980D02*
X129436923Y-61262123D01*
X129389304Y-61357361D01*
X129294066Y-61404980D01*
X129198828Y-61404980D01*
X128865495Y-61404980D02*
X128865495Y-60738314D01*
X128865495Y-60404980D02*
X128913114Y-60452600D01*
X128865495Y-60500219D01*
X128817876Y-60452600D01*
X128865495Y-60404980D01*
X128865495Y-60500219D01*
X128246447Y-61404980D02*
X128341685Y-61357361D01*
X128389304Y-61309742D01*
X128436923Y-61214504D01*
X128436923Y-60928790D01*
X128389304Y-60833552D01*
X128341685Y-60785933D01*
X128246447Y-60738314D01*
X128103590Y-60738314D01*
X128008352Y-60785933D01*
X127960733Y-60833552D01*
X127913114Y-60928790D01*
X127913114Y-61214504D01*
X127960733Y-61309742D01*
X128008352Y-61357361D01*
X128103590Y-61404980D01*
X128246447Y-61404980D01*
X127484542Y-60738314D02*
X127484542Y-61404980D01*
X127484542Y-60833552D02*
X127436923Y-60785933D01*
X127341685Y-60738314D01*
X127198828Y-60738314D01*
X127103590Y-60785933D01*
X127055971Y-60881171D01*
X127055971Y-61404980D01*
X126579780Y-61309742D02*
X126532161Y-61357361D01*
X126579780Y-61404980D01*
X126627400Y-61357361D01*
X126579780Y-61309742D01*
X126579780Y-61404980D01*
X111333333Y-80335380D02*
X111333333Y-79335380D01*
X111000000Y-80049666D01*
X110666666Y-79335380D01*
X110666666Y-80335380D01*
X110047619Y-80335380D02*
X110142857Y-80287761D01*
X110190476Y-80240142D01*
X110238095Y-80144904D01*
X110238095Y-79859190D01*
X110190476Y-79763952D01*
X110142857Y-79716333D01*
X110047619Y-79668714D01*
X109904761Y-79668714D01*
X109809523Y-79716333D01*
X109761904Y-79763952D01*
X109714285Y-79859190D01*
X109714285Y-80144904D01*
X109761904Y-80240142D01*
X109809523Y-80287761D01*
X109904761Y-80335380D01*
X110047619Y-80335380D01*
X108857142Y-80335380D02*
X108857142Y-79335380D01*
X108857142Y-80287761D02*
X108952380Y-80335380D01*
X109142857Y-80335380D01*
X109238095Y-80287761D01*
X109285714Y-80240142D01*
X109333333Y-80144904D01*
X109333333Y-79859190D01*
X109285714Y-79763952D01*
X109238095Y-79716333D01*
X109142857Y-79668714D01*
X108952380Y-79668714D01*
X108857142Y-79716333D01*
X108000000Y-80287761D02*
X108095238Y-80335380D01*
X108285714Y-80335380D01*
X108380952Y-80287761D01*
X108428571Y-80192523D01*
X108428571Y-79811571D01*
X108380952Y-79716333D01*
X108285714Y-79668714D01*
X108095238Y-79668714D01*
X108000000Y-79716333D01*
X107952380Y-79811571D01*
X107952380Y-79906809D01*
X108428571Y-80002047D01*
X106809523Y-80287761D02*
X106666666Y-80335380D01*
X106428571Y-80335380D01*
X106333333Y-80287761D01*
X106285714Y-80240142D01*
X106238095Y-80144904D01*
X106238095Y-80049666D01*
X106285714Y-79954428D01*
X106333333Y-79906809D01*
X106428571Y-79859190D01*
X106619047Y-79811571D01*
X106714285Y-79763952D01*
X106761904Y-79716333D01*
X106809523Y-79621095D01*
X106809523Y-79525857D01*
X106761904Y-79430619D01*
X106714285Y-79383000D01*
X106619047Y-79335380D01*
X106380952Y-79335380D01*
X106238095Y-79383000D01*
X105428571Y-80287761D02*
X105523809Y-80335380D01*
X105714285Y-80335380D01*
X105809523Y-80287761D01*
X105857142Y-80192523D01*
X105857142Y-79811571D01*
X105809523Y-79716333D01*
X105714285Y-79668714D01*
X105523809Y-79668714D01*
X105428571Y-79716333D01*
X105380952Y-79811571D01*
X105380952Y-79906809D01*
X105857142Y-80002047D01*
X104809523Y-80335380D02*
X104904761Y-80287761D01*
X104952380Y-80192523D01*
X104952380Y-79335380D01*
X104047619Y-80287761D02*
X104142857Y-80335380D01*
X104333333Y-80335380D01*
X104428571Y-80287761D01*
X104476190Y-80192523D01*
X104476190Y-79811571D01*
X104428571Y-79716333D01*
X104333333Y-79668714D01*
X104142857Y-79668714D01*
X104047619Y-79716333D01*
X104000000Y-79811571D01*
X104000000Y-79906809D01*
X104476190Y-80002047D01*
X103142857Y-80287761D02*
X103238095Y-80335380D01*
X103428571Y-80335380D01*
X103523809Y-80287761D01*
X103571428Y-80240142D01*
X103619047Y-80144904D01*
X103619047Y-79859190D01*
X103571428Y-79763952D01*
X103523809Y-79716333D01*
X103428571Y-79668714D01*
X103238095Y-79668714D01*
X103142857Y-79716333D01*
X102857142Y-79668714D02*
X102476190Y-79668714D01*
X102714285Y-79335380D02*
X102714285Y-80192523D01*
X102666666Y-80287761D01*
X102571428Y-80335380D01*
X102476190Y-80335380D01*
X101095238Y-79335380D02*
X101095238Y-80049666D01*
X101142857Y-80192523D01*
X101238095Y-80287761D01*
X101380952Y-80335380D01*
X101476190Y-80335380D01*
X100190476Y-79668714D02*
X100190476Y-80335380D01*
X100619047Y-79668714D02*
X100619047Y-80192523D01*
X100571428Y-80287761D01*
X100476190Y-80335380D01*
X100333333Y-80335380D01*
X100238095Y-80287761D01*
X100190476Y-80240142D01*
X99714285Y-80335380D02*
X99714285Y-79668714D01*
X99714285Y-79763952D02*
X99666666Y-79716333D01*
X99571428Y-79668714D01*
X99428571Y-79668714D01*
X99333333Y-79716333D01*
X99285714Y-79811571D01*
X99285714Y-80335380D01*
X99285714Y-79811571D02*
X99238095Y-79716333D01*
X99142857Y-79668714D01*
X99000000Y-79668714D01*
X98904761Y-79716333D01*
X98857142Y-79811571D01*
X98857142Y-80335380D01*
X98380952Y-79668714D02*
X98380952Y-80668714D01*
X98380952Y-79716333D02*
X98285714Y-79668714D01*
X98095238Y-79668714D01*
X98000000Y-79716333D01*
X97952380Y-79763952D01*
X97904761Y-79859190D01*
X97904761Y-80144904D01*
X97952380Y-80240142D01*
X98000000Y-80287761D01*
X98095238Y-80335380D01*
X98285714Y-80335380D01*
X98380952Y-80287761D01*
X97095238Y-80287761D02*
X97190476Y-80335380D01*
X97380952Y-80335380D01*
X97476190Y-80287761D01*
X97523809Y-80192523D01*
X97523809Y-79811571D01*
X97476190Y-79716333D01*
X97380952Y-79668714D01*
X97190476Y-79668714D01*
X97095238Y-79716333D01*
X97047619Y-79811571D01*
X97047619Y-79906809D01*
X97523809Y-80002047D01*
X96619047Y-80335380D02*
X96619047Y-79668714D01*
X96619047Y-79859190D02*
X96571428Y-79763952D01*
X96523809Y-79716333D01*
X96428571Y-79668714D01*
X96333333Y-79668714D01*
X96047619Y-80287761D02*
X95952380Y-80335380D01*
X95761904Y-80335380D01*
X95666666Y-80287761D01*
X95619047Y-80192523D01*
X95619047Y-80144904D01*
X95666666Y-80049666D01*
X95761904Y-80002047D01*
X95904761Y-80002047D01*
X96000000Y-79954428D01*
X96047619Y-79859190D01*
X96047619Y-79811571D01*
X96000000Y-79716333D01*
X95904761Y-79668714D01*
X95761904Y-79668714D01*
X95666666Y-79716333D01*
D10*
X82946666Y-47752000D02*
G75*
G03X82946666Y-47752000I-1666666J0D01*
G01*
X78780000Y-47752000D02*
X83780000Y-47752000D01*
X81280000Y-45252000D02*
X81280000Y-50252000D01*
D11*
X133274780Y-106774980D02*
X133149780Y-105774980D01*
X132768828Y-105774980D01*
X132679542Y-105822600D01*
X132637876Y-105870219D01*
X132602161Y-105965457D01*
X132620019Y-106108314D01*
X132679542Y-106203552D01*
X132733114Y-106251171D01*
X132834304Y-106298790D01*
X133215257Y-106298790D01*
X131631923Y-105822600D02*
X131721209Y-105774980D01*
X131864066Y-105774980D01*
X132012876Y-105822600D01*
X132120019Y-105917838D01*
X132179542Y-106013076D01*
X132250971Y-106203552D01*
X132268828Y-106346409D01*
X132245019Y-106536885D01*
X132209304Y-106632123D01*
X132125971Y-106727361D01*
X131989066Y-106774980D01*
X131893828Y-106774980D01*
X131745019Y-106727361D01*
X131691447Y-106679742D01*
X131649780Y-106346409D01*
X131840257Y-106346409D01*
X130959304Y-105774980D02*
X130768828Y-105774980D01*
X130679542Y-105822600D01*
X130596209Y-105917838D01*
X130572400Y-106108314D01*
X130614066Y-106441647D01*
X130685495Y-106632123D01*
X130792638Y-106727361D01*
X130893828Y-106774980D01*
X131084304Y-106774980D01*
X131173590Y-106727361D01*
X131256923Y-106632123D01*
X131280733Y-106441647D01*
X131239066Y-106108314D01*
X131167638Y-105917838D01*
X131060495Y-105822600D01*
X130959304Y-105774980D01*
X129911685Y-105774980D02*
X129721209Y-105774980D01*
X129631923Y-105822600D01*
X129548590Y-105917838D01*
X129524780Y-106108314D01*
X129566447Y-106441647D01*
X129637876Y-106632123D01*
X129745019Y-106727361D01*
X129846209Y-106774980D01*
X130036685Y-106774980D01*
X130125971Y-106727361D01*
X130209304Y-106632123D01*
X130233114Y-106441647D01*
X130191447Y-106108314D01*
X130120019Y-105917838D01*
X130012876Y-105822600D01*
X129911685Y-105774980D01*
X129179542Y-106774980D02*
X129054542Y-105774980D01*
X128816447Y-105774980D01*
X128679542Y-105822600D01*
X128596209Y-105917838D01*
X128560495Y-106013076D01*
X128536685Y-106203552D01*
X128554542Y-106346409D01*
X128625971Y-106536885D01*
X128685495Y-106632123D01*
X128792638Y-106727361D01*
X128941447Y-106774980D01*
X129179542Y-106774980D01*
X126834304Y-106679742D02*
X126887876Y-106727361D01*
X127036685Y-106774980D01*
X127131923Y-106774980D01*
X127268828Y-106727361D01*
X127352161Y-106632123D01*
X127387876Y-106536885D01*
X127411685Y-106346409D01*
X127393828Y-106203552D01*
X127322400Y-106013076D01*
X127262876Y-105917838D01*
X127155733Y-105822600D01*
X127006923Y-105774980D01*
X126911685Y-105774980D01*
X126774780Y-105822600D01*
X126733114Y-105870219D01*
X126274780Y-106774980D02*
X126364066Y-106727361D01*
X126405733Y-106679742D01*
X126441447Y-106584504D01*
X126405733Y-106298790D01*
X126346209Y-106203552D01*
X126292638Y-106155933D01*
X126191447Y-106108314D01*
X126048590Y-106108314D01*
X125959304Y-106155933D01*
X125917638Y-106203552D01*
X125881923Y-106298790D01*
X125917638Y-106584504D01*
X125977161Y-106679742D01*
X126030733Y-106727361D01*
X126131923Y-106774980D01*
X126274780Y-106774980D01*
X125512876Y-106774980D02*
X125429542Y-106108314D01*
X125441447Y-106203552D02*
X125387876Y-106155933D01*
X125286685Y-106108314D01*
X125143828Y-106108314D01*
X125054542Y-106155933D01*
X125018828Y-106251171D01*
X125084304Y-106774980D01*
X125018828Y-106251171D02*
X124959304Y-106155933D01*
X124858114Y-106108314D01*
X124715257Y-106108314D01*
X124625971Y-106155933D01*
X124590257Y-106251171D01*
X124655733Y-106774980D01*
X124179542Y-106774980D02*
X124054542Y-105774980D01*
X124102161Y-106155933D02*
X124000971Y-106108314D01*
X123810495Y-106108314D01*
X123721209Y-106155933D01*
X123679542Y-106203552D01*
X123643828Y-106298790D01*
X123679542Y-106584504D01*
X123739066Y-106679742D01*
X123792638Y-106727361D01*
X123893828Y-106774980D01*
X124084304Y-106774980D01*
X124173590Y-106727361D01*
X123274780Y-106774980D02*
X123191447Y-106108314D01*
X123149780Y-105774980D02*
X123203352Y-105822600D01*
X123161685Y-105870219D01*
X123108114Y-105822600D01*
X123149780Y-105774980D01*
X123161685Y-105870219D01*
X122715257Y-106108314D02*
X122798590Y-106774980D01*
X122727161Y-106203552D02*
X122673590Y-106155933D01*
X122572400Y-106108314D01*
X122429542Y-106108314D01*
X122340257Y-106155933D01*
X122304542Y-106251171D01*
X122370019Y-106774980D01*
X121465257Y-106774980D02*
X121399780Y-106251171D01*
X121435495Y-106155933D01*
X121524780Y-106108314D01*
X121715257Y-106108314D01*
X121816447Y-106155933D01*
X121459304Y-106727361D02*
X121560495Y-106774980D01*
X121798590Y-106774980D01*
X121887876Y-106727361D01*
X121923590Y-106632123D01*
X121911685Y-106536885D01*
X121852161Y-106441647D01*
X121750971Y-106394028D01*
X121512876Y-106394028D01*
X121411685Y-106346409D01*
X121048590Y-106108314D02*
X120667638Y-106108314D01*
X120864066Y-105774980D02*
X120971209Y-106632123D01*
X120935495Y-106727361D01*
X120846209Y-106774980D01*
X120750971Y-106774980D01*
X120417638Y-106774980D02*
X120334304Y-106108314D01*
X120292638Y-105774980D02*
X120346209Y-105822600D01*
X120304542Y-105870219D01*
X120250971Y-105822600D01*
X120292638Y-105774980D01*
X120304542Y-105870219D01*
X119798590Y-106774980D02*
X119887876Y-106727361D01*
X119929542Y-106679742D01*
X119965257Y-106584504D01*
X119929542Y-106298790D01*
X119870019Y-106203552D01*
X119816447Y-106155933D01*
X119715257Y-106108314D01*
X119572400Y-106108314D01*
X119483114Y-106155933D01*
X119441447Y-106203552D01*
X119405733Y-106298790D01*
X119441447Y-106584504D01*
X119500971Y-106679742D01*
X119554542Y-106727361D01*
X119655733Y-106774980D01*
X119798590Y-106774980D01*
X118953352Y-106108314D02*
X119036685Y-106774980D01*
X118965257Y-106203552D02*
X118911685Y-106155933D01*
X118810495Y-106108314D01*
X118667638Y-106108314D01*
X118578352Y-106155933D01*
X118542638Y-106251171D01*
X118608114Y-106774980D01*
D10*
X131251685Y-53384504D02*
X131251685Y-52584504D01*
X130985019Y-53155933D01*
X130718352Y-52584504D01*
X130718352Y-53384504D01*
X130185019Y-52584504D02*
X130032638Y-52584504D01*
X129956447Y-52622600D01*
X129880257Y-52698790D01*
X129842161Y-52851171D01*
X129842161Y-53117838D01*
X129880257Y-53270219D01*
X129956447Y-53346409D01*
X130032638Y-53384504D01*
X130185019Y-53384504D01*
X130261209Y-53346409D01*
X130337400Y-53270219D01*
X130375495Y-53117838D01*
X130375495Y-52851171D01*
X130337400Y-52698790D01*
X130261209Y-52622600D01*
X130185019Y-52584504D01*
X129499304Y-53384504D02*
X129499304Y-52584504D01*
X129308828Y-52584504D01*
X129194542Y-52622600D01*
X129118352Y-52698790D01*
X129080257Y-52774980D01*
X129042161Y-52927361D01*
X129042161Y-53041647D01*
X129080257Y-53194028D01*
X129118352Y-53270219D01*
X129194542Y-53346409D01*
X129308828Y-53384504D01*
X129499304Y-53384504D01*
X128699304Y-52965457D02*
X128432638Y-52965457D01*
X128318352Y-53384504D02*
X128699304Y-53384504D01*
X128699304Y-52584504D01*
X128318352Y-52584504D01*
X127404066Y-53346409D02*
X127289780Y-53384504D01*
X127099304Y-53384504D01*
X127023114Y-53346409D01*
X126985019Y-53308314D01*
X126946923Y-53232123D01*
X126946923Y-53155933D01*
X126985019Y-53079742D01*
X127023114Y-53041647D01*
X127099304Y-53003552D01*
X127251685Y-52965457D01*
X127327876Y-52927361D01*
X127365971Y-52889266D01*
X127404066Y-52813076D01*
X127404066Y-52736885D01*
X127365971Y-52660695D01*
X127327876Y-52622600D01*
X127251685Y-52584504D01*
X127061209Y-52584504D01*
X126946923Y-52622600D01*
X126604066Y-52965457D02*
X126337400Y-52965457D01*
X126223114Y-53384504D02*
X126604066Y-53384504D01*
X126604066Y-52584504D01*
X126223114Y-52584504D01*
X125499304Y-53384504D02*
X125880257Y-53384504D01*
X125880257Y-52584504D01*
X125232638Y-52965457D02*
X124965971Y-52965457D01*
X124851685Y-53384504D02*
X125232638Y-53384504D01*
X125232638Y-52584504D01*
X124851685Y-52584504D01*
X124051685Y-53308314D02*
X124089780Y-53346409D01*
X124204066Y-53384504D01*
X124280257Y-53384504D01*
X124394542Y-53346409D01*
X124470733Y-53270219D01*
X124508828Y-53194028D01*
X124546923Y-53041647D01*
X124546923Y-52927361D01*
X124508828Y-52774980D01*
X124470733Y-52698790D01*
X124394542Y-52622600D01*
X124280257Y-52584504D01*
X124204066Y-52584504D01*
X124089780Y-52622600D01*
X124051685Y-52660695D01*
X123823114Y-52584504D02*
X123365971Y-52584504D01*
X123594542Y-53384504D02*
X123594542Y-52584504D01*
X123099304Y-53384504D02*
X123099304Y-52584504D01*
X122565971Y-52584504D02*
X122413590Y-52584504D01*
X122337400Y-52622600D01*
X122261209Y-52698790D01*
X122223114Y-52851171D01*
X122223114Y-53117838D01*
X122261209Y-53270219D01*
X122337400Y-53346409D01*
X122413590Y-53384504D01*
X122565971Y-53384504D01*
X122642161Y-53346409D01*
X122718352Y-53270219D01*
X122756447Y-53117838D01*
X122756447Y-52851171D01*
X122718352Y-52698790D01*
X122642161Y-52622600D01*
X122565971Y-52584504D01*
X121880257Y-53384504D02*
X121880257Y-52584504D01*
X121423114Y-53384504D01*
X121423114Y-52584504D01*
X129004066Y-53884504D02*
X129004066Y-54455933D01*
X129042161Y-54570219D01*
X129118352Y-54646409D01*
X129232638Y-54684504D01*
X129308828Y-54684504D01*
X128623114Y-54684504D02*
X128623114Y-53884504D01*
X128318352Y-53884504D01*
X128242161Y-53922600D01*
X128204066Y-53960695D01*
X128165971Y-54036885D01*
X128165971Y-54151171D01*
X128204066Y-54227361D01*
X128242161Y-54265457D01*
X128318352Y-54303552D01*
X128623114Y-54303552D01*
X127404066Y-54684504D02*
X127861209Y-54684504D01*
X127632638Y-54684504D02*
X127632638Y-53884504D01*
X127708828Y-53998790D01*
X127785019Y-54074980D01*
X127861209Y-54113076D01*
X127061209Y-54608314D02*
X127023114Y-54646409D01*
X127061209Y-54684504D01*
X127099304Y-54646409D01*
X127061209Y-54608314D01*
X127061209Y-54684504D01*
X127061209Y-54189266D02*
X127023114Y-54227361D01*
X127061209Y-54265457D01*
X127099304Y-54227361D01*
X127061209Y-54189266D01*
X127061209Y-54265457D01*
X125804066Y-54265457D02*
X126070733Y-54265457D01*
X126070733Y-54684504D02*
X126070733Y-53884504D01*
X125689780Y-53884504D01*
X124927876Y-54608314D02*
X124965971Y-54646409D01*
X125080257Y-54684504D01*
X125156447Y-54684504D01*
X125270733Y-54646409D01*
X125346923Y-54570219D01*
X125385019Y-54494028D01*
X125423114Y-54341647D01*
X125423114Y-54227361D01*
X125385019Y-54074980D01*
X125346923Y-53998790D01*
X125270733Y-53922600D01*
X125156447Y-53884504D01*
X125080257Y-53884504D01*
X124965971Y-53922600D01*
X124927876Y-53960695D01*
X124585019Y-54684504D02*
X124585019Y-53884504D01*
X124318352Y-54455933D01*
X124051685Y-53884504D01*
X124051685Y-54684504D01*
X130394542Y-55984504D02*
X130661209Y-55603552D01*
X130851685Y-55984504D02*
X130851685Y-55184504D01*
X130546923Y-55184504D01*
X130470733Y-55222600D01*
X130432638Y-55260695D01*
X130394542Y-55336885D01*
X130394542Y-55451171D01*
X130432638Y-55527361D01*
X130470733Y-55565457D01*
X130546923Y-55603552D01*
X130851685Y-55603552D01*
X130013590Y-55984504D02*
X129861209Y-55984504D01*
X129785019Y-55946409D01*
X129746923Y-55908314D01*
X129670733Y-55794028D01*
X129632638Y-55641647D01*
X129632638Y-55336885D01*
X129670733Y-55260695D01*
X129708828Y-55222600D01*
X129785019Y-55184504D01*
X129937400Y-55184504D01*
X130013590Y-55222600D01*
X130051685Y-55260695D01*
X130089780Y-55336885D01*
X130089780Y-55527361D01*
X130051685Y-55603552D01*
X130013590Y-55641647D01*
X129937400Y-55679742D01*
X129785019Y-55679742D01*
X129708828Y-55641647D01*
X129670733Y-55603552D01*
X129632638Y-55527361D01*
X129137400Y-55184504D02*
X129061209Y-55184504D01*
X128985019Y-55222600D01*
X128946923Y-55260695D01*
X128908828Y-55336885D01*
X128870733Y-55489266D01*
X128870733Y-55679742D01*
X128908828Y-55832123D01*
X128946923Y-55908314D01*
X128985019Y-55946409D01*
X129061209Y-55984504D01*
X129137400Y-55984504D01*
X129213590Y-55946409D01*
X129251685Y-55908314D01*
X129289780Y-55832123D01*
X129327876Y-55679742D01*
X129327876Y-55489266D01*
X129289780Y-55336885D01*
X129251685Y-55260695D01*
X129213590Y-55222600D01*
X129137400Y-55184504D01*
X127918352Y-55679742D02*
X127308828Y-55679742D01*
X127613590Y-55984504D02*
X127613590Y-55374980D01*
X126699304Y-55184504D02*
X126699304Y-55755933D01*
X126737400Y-55870219D01*
X126813590Y-55946409D01*
X126927876Y-55984504D01*
X127004066Y-55984504D01*
X126318352Y-55984504D02*
X126318352Y-55184504D01*
X126013590Y-55184504D01*
X125937400Y-55222600D01*
X125899304Y-55260695D01*
X125861209Y-55336885D01*
X125861209Y-55451171D01*
X125899304Y-55527361D01*
X125937400Y-55565457D01*
X126013590Y-55603552D01*
X126318352Y-55603552D01*
X125099304Y-55984504D02*
X125556447Y-55984504D01*
X125327876Y-55984504D02*
X125327876Y-55184504D01*
X125404066Y-55298790D01*
X125480257Y-55374980D01*
X125556447Y-55413076D01*
X124794542Y-55260695D02*
X124756447Y-55222600D01*
X124680257Y-55184504D01*
X124489780Y-55184504D01*
X124413590Y-55222600D01*
X124375495Y-55260695D01*
X124337400Y-55336885D01*
X124337400Y-55413076D01*
X124375495Y-55527361D01*
X124832638Y-55984504D01*
X124337400Y-55984504D01*
X123994542Y-55908314D02*
X123956447Y-55946409D01*
X123994542Y-55984504D01*
X124032638Y-55946409D01*
X123994542Y-55908314D01*
X123994542Y-55984504D01*
X123994542Y-55489266D02*
X123956447Y-55527361D01*
X123994542Y-55565457D01*
X124032638Y-55527361D01*
X123994542Y-55489266D01*
X123994542Y-55565457D01*
X123004066Y-55984504D02*
X123004066Y-55184504D01*
X122699304Y-55184504D01*
X122623114Y-55222600D01*
X122585019Y-55260695D01*
X122546923Y-55336885D01*
X122546923Y-55451171D01*
X122585019Y-55527361D01*
X122623114Y-55565457D01*
X122699304Y-55603552D01*
X123004066Y-55603552D01*
X122242161Y-55946409D02*
X122127876Y-55984504D01*
X121937400Y-55984504D01*
X121861209Y-55946409D01*
X121823114Y-55908314D01*
X121785019Y-55832123D01*
X121785019Y-55755933D01*
X121823114Y-55679742D01*
X121861209Y-55641647D01*
X121937400Y-55603552D01*
X122089780Y-55565457D01*
X122165971Y-55527361D01*
X122204066Y-55489266D01*
X122242161Y-55413076D01*
X122242161Y-55336885D01*
X122204066Y-55260695D01*
X122165971Y-55222600D01*
X122089780Y-55184504D01*
X121899304Y-55184504D01*
X121785019Y-55222600D01*
X129480257Y-56484504D02*
X129480257Y-57055933D01*
X129518352Y-57170219D01*
X129594542Y-57246409D01*
X129708828Y-57284504D01*
X129785019Y-57284504D01*
X129099304Y-57284504D02*
X129099304Y-56484504D01*
X128794542Y-56484504D01*
X128718352Y-56522600D01*
X128680257Y-56560695D01*
X128642161Y-56636885D01*
X128642161Y-56751171D01*
X128680257Y-56827361D01*
X128718352Y-56865457D01*
X128794542Y-56903552D01*
X129099304Y-56903552D01*
X127880257Y-57284504D02*
X128337400Y-57284504D01*
X128108828Y-57284504D02*
X128108828Y-56484504D01*
X128185019Y-56598790D01*
X128261209Y-56674980D01*
X128337400Y-56713076D01*
X127613590Y-56484504D02*
X127118352Y-56484504D01*
X127385019Y-56789266D01*
X127270733Y-56789266D01*
X127194542Y-56827361D01*
X127156447Y-56865457D01*
X127118352Y-56941647D01*
X127118352Y-57132123D01*
X127156447Y-57208314D01*
X127194542Y-57246409D01*
X127270733Y-57284504D01*
X127499304Y-57284504D01*
X127575495Y-57246409D01*
X127613590Y-57208314D01*
X126775495Y-57208314D02*
X126737400Y-57246409D01*
X126775495Y-57284504D01*
X126813590Y-57246409D01*
X126775495Y-57208314D01*
X126775495Y-57284504D01*
X126775495Y-56789266D02*
X126737400Y-56827361D01*
X126775495Y-56865457D01*
X126813590Y-56827361D01*
X126775495Y-56789266D01*
X126775495Y-56865457D01*
X126127876Y-56865457D02*
X126013590Y-56903552D01*
X125975495Y-56941647D01*
X125937400Y-57017838D01*
X125937400Y-57132123D01*
X125975495Y-57208314D01*
X126013590Y-57246409D01*
X126089780Y-57284504D01*
X126394542Y-57284504D01*
X126394542Y-56484504D01*
X126127876Y-56484504D01*
X126051685Y-56522600D01*
X126013590Y-56560695D01*
X125975495Y-56636885D01*
X125975495Y-56713076D01*
X126013590Y-56789266D01*
X126051685Y-56827361D01*
X126127876Y-56865457D01*
X126394542Y-56865457D01*
X125594542Y-56484504D02*
X125594542Y-57132123D01*
X125556447Y-57208314D01*
X125518352Y-57246409D01*
X125442161Y-57284504D01*
X125289780Y-57284504D01*
X125213590Y-57246409D01*
X125175495Y-57208314D01*
X125137400Y-57132123D01*
X125137400Y-56484504D01*
X124299304Y-57284504D02*
X124565971Y-56903552D01*
X124756447Y-57284504D02*
X124756447Y-56484504D01*
X124451685Y-56484504D01*
X124375495Y-56522600D01*
X124337400Y-56560695D01*
X124299304Y-56636885D01*
X124299304Y-56751171D01*
X124337400Y-56827361D01*
X124375495Y-56865457D01*
X124451685Y-56903552D01*
X124756447Y-56903552D01*
X123994542Y-57246409D02*
X123880257Y-57284504D01*
X123689780Y-57284504D01*
X123613590Y-57246409D01*
X123575495Y-57208314D01*
X123537400Y-57132123D01*
X123537400Y-57055933D01*
X123575495Y-56979742D01*
X123613590Y-56941647D01*
X123689780Y-56903552D01*
X123842161Y-56865457D01*
X123918352Y-56827361D01*
X123956447Y-56789266D01*
X123994542Y-56713076D01*
X123994542Y-56636885D01*
X123956447Y-56560695D01*
X123918352Y-56522600D01*
X123842161Y-56484504D01*
X123651685Y-56484504D01*
X123537400Y-56522600D01*
X123308828Y-56484504D02*
X122851685Y-56484504D01*
X123080257Y-57284504D02*
X123080257Y-56484504D01*
D11*
X130110733Y-59104980D02*
X130110733Y-58104980D01*
X129777400Y-58819266D01*
X129444066Y-58104980D01*
X129444066Y-59104980D01*
X128825019Y-59104980D02*
X128920257Y-59057361D01*
X128967876Y-59009742D01*
X129015495Y-58914504D01*
X129015495Y-58628790D01*
X128967876Y-58533552D01*
X128920257Y-58485933D01*
X128825019Y-58438314D01*
X128682161Y-58438314D01*
X128586923Y-58485933D01*
X128539304Y-58533552D01*
X128491685Y-58628790D01*
X128491685Y-58914504D01*
X128539304Y-59009742D01*
X128586923Y-59057361D01*
X128682161Y-59104980D01*
X128825019Y-59104980D01*
X127634542Y-59104980D02*
X127634542Y-58104980D01*
X127634542Y-59057361D02*
X127729780Y-59104980D01*
X127920257Y-59104980D01*
X128015495Y-59057361D01*
X128063114Y-59009742D01*
X128110733Y-58914504D01*
X128110733Y-58628790D01*
X128063114Y-58533552D01*
X128015495Y-58485933D01*
X127920257Y-58438314D01*
X127729780Y-58438314D01*
X127634542Y-58485933D01*
X126777400Y-59057361D02*
X126872638Y-59104980D01*
X127063114Y-59104980D01*
X127158352Y-59057361D01*
X127205971Y-58962123D01*
X127205971Y-58581171D01*
X127158352Y-58485933D01*
X127063114Y-58438314D01*
X126872638Y-58438314D01*
X126777400Y-58485933D01*
X126729780Y-58581171D01*
X126729780Y-58676409D01*
X127205971Y-58771647D01*
X125586923Y-59057361D02*
X125444066Y-59104980D01*
X125205971Y-59104980D01*
X125110733Y-59057361D01*
X125063114Y-59009742D01*
X125015495Y-58914504D01*
X125015495Y-58819266D01*
X125063114Y-58724028D01*
X125110733Y-58676409D01*
X125205971Y-58628790D01*
X125396447Y-58581171D01*
X125491685Y-58533552D01*
X125539304Y-58485933D01*
X125586923Y-58390695D01*
X125586923Y-58295457D01*
X125539304Y-58200219D01*
X125491685Y-58152600D01*
X125396447Y-58104980D01*
X125158352Y-58104980D01*
X125015495Y-58152600D01*
X124205971Y-59057361D02*
X124301209Y-59104980D01*
X124491685Y-59104980D01*
X124586923Y-59057361D01*
X124634542Y-58962123D01*
X124634542Y-58581171D01*
X124586923Y-58485933D01*
X124491685Y-58438314D01*
X124301209Y-58438314D01*
X124205971Y-58485933D01*
X124158352Y-58581171D01*
X124158352Y-58676409D01*
X124634542Y-58771647D01*
X123586923Y-59104980D02*
X123682161Y-59057361D01*
X123729780Y-58962123D01*
X123729780Y-58104980D01*
X122825019Y-59057361D02*
X122920257Y-59104980D01*
X123110733Y-59104980D01*
X123205971Y-59057361D01*
X123253590Y-58962123D01*
X123253590Y-58581171D01*
X123205971Y-58485933D01*
X123110733Y-58438314D01*
X122920257Y-58438314D01*
X122825019Y-58485933D01*
X122777400Y-58581171D01*
X122777400Y-58676409D01*
X123253590Y-58771647D01*
X121920257Y-59057361D02*
X122015495Y-59104980D01*
X122205971Y-59104980D01*
X122301209Y-59057361D01*
X122348828Y-59009742D01*
X122396447Y-58914504D01*
X122396447Y-58628790D01*
X122348828Y-58533552D01*
X122301209Y-58485933D01*
X122205971Y-58438314D01*
X122015495Y-58438314D01*
X121920257Y-58485933D01*
X121634542Y-58438314D02*
X121253590Y-58438314D01*
X121491685Y-58104980D02*
X121491685Y-58962123D01*
X121444066Y-59057361D01*
X121348828Y-59104980D01*
X121253590Y-59104980D01*
X119872638Y-58104980D02*
X119872638Y-58819266D01*
X119920257Y-58962123D01*
X120015495Y-59057361D01*
X120158352Y-59104980D01*
X120253590Y-59104980D01*
X118967876Y-58438314D02*
X118967876Y-59104980D01*
X119396447Y-58438314D02*
X119396447Y-58962123D01*
X119348828Y-59057361D01*
X119253590Y-59104980D01*
X119110733Y-59104980D01*
X119015495Y-59057361D01*
X118967876Y-59009742D01*
X118491685Y-59104980D02*
X118491685Y-58438314D01*
X118491685Y-58533552D02*
X118444066Y-58485933D01*
X118348828Y-58438314D01*
X118205971Y-58438314D01*
X118110733Y-58485933D01*
X118063114Y-58581171D01*
X118063114Y-59104980D01*
X118063114Y-58581171D02*
X118015495Y-58485933D01*
X117920257Y-58438314D01*
X117777400Y-58438314D01*
X117682161Y-58485933D01*
X117634542Y-58581171D01*
X117634542Y-59104980D01*
X117158352Y-58438314D02*
X117158352Y-59438314D01*
X117158352Y-58485933D02*
X117063114Y-58438314D01*
X116872638Y-58438314D01*
X116777400Y-58485933D01*
X116729780Y-58533552D01*
X116682161Y-58628790D01*
X116682161Y-58914504D01*
X116729780Y-59009742D01*
X116777400Y-59057361D01*
X116872638Y-59104980D01*
X117063114Y-59104980D01*
X117158352Y-59057361D01*
X115872638Y-59057361D02*
X115967876Y-59104980D01*
X116158352Y-59104980D01*
X116253590Y-59057361D01*
X116301209Y-58962123D01*
X116301209Y-58581171D01*
X116253590Y-58485933D01*
X116158352Y-58438314D01*
X115967876Y-58438314D01*
X115872638Y-58485933D01*
X115825019Y-58581171D01*
X115825019Y-58676409D01*
X116301209Y-58771647D01*
X115396447Y-59104980D02*
X115396447Y-58438314D01*
X115396447Y-58628790D02*
X115348828Y-58533552D01*
X115301209Y-58485933D01*
X115205971Y-58438314D01*
X115110733Y-58438314D01*
X114825019Y-59057361D02*
X114729780Y-59104980D01*
X114539304Y-59104980D01*
X114444066Y-59057361D01*
X114396447Y-58962123D01*
X114396447Y-58914504D01*
X114444066Y-58819266D01*
X114539304Y-58771647D01*
X114682161Y-58771647D01*
X114777400Y-58724028D01*
X114825019Y-58628790D01*
X114825019Y-58581171D01*
X114777400Y-58485933D01*
X114682161Y-58438314D01*
X114539304Y-58438314D01*
X114444066Y-58485933D01*
D10*
X116375257Y-71021647D02*
X116375257Y-70688314D01*
X116794304Y-70688314D02*
X115994304Y-70688314D01*
X115994304Y-71164504D01*
X116794304Y-71545457D02*
X116260971Y-71545457D01*
X116413352Y-71545457D02*
X116337161Y-71593076D01*
X116299066Y-71640695D01*
X116260971Y-71735933D01*
X116260971Y-71831171D01*
X116756209Y-72545457D02*
X116794304Y-72450219D01*
X116794304Y-72259742D01*
X116756209Y-72164504D01*
X116680019Y-72116885D01*
X116375257Y-72116885D01*
X116299066Y-72164504D01*
X116260971Y-72259742D01*
X116260971Y-72450219D01*
X116299066Y-72545457D01*
X116375257Y-72593076D01*
X116451447Y-72593076D01*
X116527638Y-72116885D01*
X116260971Y-73450219D02*
X117060971Y-73450219D01*
X116756209Y-73450219D02*
X116794304Y-73354980D01*
X116794304Y-73164504D01*
X116756209Y-73069266D01*
X116718114Y-73021647D01*
X116641923Y-72974028D01*
X116413352Y-72974028D01*
X116337161Y-73021647D01*
X116299066Y-73069266D01*
X116260971Y-73164504D01*
X116260971Y-73354980D01*
X116299066Y-73450219D01*
X116260971Y-74354980D02*
X116794304Y-74354980D01*
X116260971Y-73926409D02*
X116680019Y-73926409D01*
X116756209Y-73974028D01*
X116794304Y-74069266D01*
X116794304Y-74212123D01*
X116756209Y-74307361D01*
X116718114Y-74354980D01*
X116756209Y-75212123D02*
X116794304Y-75116885D01*
X116794304Y-74926409D01*
X116756209Y-74831171D01*
X116680019Y-74783552D01*
X116375257Y-74783552D01*
X116299066Y-74831171D01*
X116260971Y-74926409D01*
X116260971Y-75116885D01*
X116299066Y-75212123D01*
X116375257Y-75259742D01*
X116451447Y-75259742D01*
X116527638Y-74783552D01*
X116260971Y-75688314D02*
X116794304Y-75688314D01*
X116337161Y-75688314D02*
X116299066Y-75735933D01*
X116260971Y-75831171D01*
X116260971Y-75974028D01*
X116299066Y-76069266D01*
X116375257Y-76116885D01*
X116794304Y-76116885D01*
X116756209Y-77021647D02*
X116794304Y-76926409D01*
X116794304Y-76735933D01*
X116756209Y-76640695D01*
X116718114Y-76593076D01*
X116641923Y-76545457D01*
X116413352Y-76545457D01*
X116337161Y-76593076D01*
X116299066Y-76640695D01*
X116260971Y-76735933D01*
X116260971Y-76926409D01*
X116299066Y-77021647D01*
X116260971Y-77354980D02*
X116794304Y-77593076D01*
X116260971Y-77831171D02*
X116794304Y-77593076D01*
X116984780Y-77497838D01*
X117022876Y-77450219D01*
X117060971Y-77354980D01*
X116756209Y-78926409D02*
X116794304Y-79069266D01*
X116794304Y-79307361D01*
X116756209Y-79402600D01*
X116718114Y-79450219D01*
X116641923Y-79497838D01*
X116565733Y-79497838D01*
X116489542Y-79450219D01*
X116451447Y-79402600D01*
X116413352Y-79307361D01*
X116375257Y-79116885D01*
X116337161Y-79021647D01*
X116299066Y-78974028D01*
X116222876Y-78926409D01*
X116146685Y-78926409D01*
X116070495Y-78974028D01*
X116032400Y-79021647D01*
X115994304Y-79116885D01*
X115994304Y-79354980D01*
X116032400Y-79497838D01*
X116756209Y-80307361D02*
X116794304Y-80212123D01*
X116794304Y-80021647D01*
X116756209Y-79926409D01*
X116680019Y-79878790D01*
X116375257Y-79878790D01*
X116299066Y-79926409D01*
X116260971Y-80021647D01*
X116260971Y-80212123D01*
X116299066Y-80307361D01*
X116375257Y-80354980D01*
X116451447Y-80354980D01*
X116527638Y-79878790D01*
X116794304Y-80926409D02*
X116756209Y-80831171D01*
X116680019Y-80783552D01*
X115994304Y-80783552D01*
X116756209Y-81688314D02*
X116794304Y-81593076D01*
X116794304Y-81402600D01*
X116756209Y-81307361D01*
X116680019Y-81259742D01*
X116375257Y-81259742D01*
X116299066Y-81307361D01*
X116260971Y-81402600D01*
X116260971Y-81593076D01*
X116299066Y-81688314D01*
X116375257Y-81735933D01*
X116451447Y-81735933D01*
X116527638Y-81259742D01*
X116756209Y-82593076D02*
X116794304Y-82497838D01*
X116794304Y-82307361D01*
X116756209Y-82212123D01*
X116718114Y-82164504D01*
X116641923Y-82116885D01*
X116413352Y-82116885D01*
X116337161Y-82164504D01*
X116299066Y-82212123D01*
X116260971Y-82307361D01*
X116260971Y-82497838D01*
X116299066Y-82593076D01*
X116260971Y-82878790D02*
X116260971Y-83259742D01*
X115994304Y-83021647D02*
X116680019Y-83021647D01*
X116756209Y-83069266D01*
X116794304Y-83164504D01*
X116794304Y-83259742D01*
X118399066Y-68521647D02*
X118360971Y-68474028D01*
X118246685Y-68378790D01*
X118170495Y-68331171D01*
X118056209Y-68283552D01*
X117865733Y-68235933D01*
X117713352Y-68235933D01*
X117522876Y-68283552D01*
X117408590Y-68331171D01*
X117332400Y-68378790D01*
X117218114Y-68474028D01*
X117180019Y-68521647D01*
X118056209Y-68854980D02*
X118094304Y-68997838D01*
X118094304Y-69235933D01*
X118056209Y-69331171D01*
X118018114Y-69378790D01*
X117941923Y-69426409D01*
X117865733Y-69426409D01*
X117789542Y-69378790D01*
X117751447Y-69331171D01*
X117713352Y-69235933D01*
X117675257Y-69045457D01*
X117637161Y-68950219D01*
X117599066Y-68902600D01*
X117522876Y-68854980D01*
X117446685Y-68854980D01*
X117370495Y-68902600D01*
X117332400Y-68950219D01*
X117294304Y-69045457D01*
X117294304Y-69283552D01*
X117332400Y-69426409D01*
X118094304Y-69854980D02*
X117294304Y-69854980D01*
X118094304Y-70283552D02*
X117675257Y-70283552D01*
X117599066Y-70235933D01*
X117560971Y-70140695D01*
X117560971Y-69997838D01*
X117599066Y-69902600D01*
X117637161Y-69854980D01*
X118094304Y-70902600D02*
X118056209Y-70807361D01*
X118018114Y-70759742D01*
X117941923Y-70712123D01*
X117713352Y-70712123D01*
X117637161Y-70759742D01*
X117599066Y-70807361D01*
X117560971Y-70902600D01*
X117560971Y-71045457D01*
X117599066Y-71140695D01*
X117637161Y-71188314D01*
X117713352Y-71235933D01*
X117941923Y-71235933D01*
X118018114Y-71188314D01*
X118056209Y-71140695D01*
X118094304Y-71045457D01*
X118094304Y-70902600D01*
X118094304Y-71664504D02*
X117560971Y-71664504D01*
X117713352Y-71664504D02*
X117637161Y-71712123D01*
X117599066Y-71759742D01*
X117560971Y-71854980D01*
X117560971Y-71950219D01*
X117560971Y-72140695D02*
X117560971Y-72521647D01*
X117294304Y-72283552D02*
X117980019Y-72283552D01*
X118056209Y-72331171D01*
X118094304Y-72426409D01*
X118094304Y-72521647D01*
X118094304Y-74188314D02*
X117713352Y-73854980D01*
X118094304Y-73616885D02*
X117294304Y-73616885D01*
X117294304Y-73997838D01*
X117332400Y-74093076D01*
X117370495Y-74140695D01*
X117446685Y-74188314D01*
X117560971Y-74188314D01*
X117637161Y-74140695D01*
X117675257Y-74093076D01*
X117713352Y-73997838D01*
X117713352Y-73616885D01*
X118094304Y-74664504D02*
X118094304Y-74854980D01*
X118056209Y-74950219D01*
X118018114Y-74997838D01*
X117903828Y-75093076D01*
X117751447Y-75140695D01*
X117446685Y-75140695D01*
X117370495Y-75093076D01*
X117332400Y-75045457D01*
X117294304Y-74950219D01*
X117294304Y-74759742D01*
X117332400Y-74664504D01*
X117370495Y-74616885D01*
X117446685Y-74569266D01*
X117637161Y-74569266D01*
X117713352Y-74616885D01*
X117751447Y-74664504D01*
X117789542Y-74759742D01*
X117789542Y-74950219D01*
X117751447Y-75045457D01*
X117713352Y-75093076D01*
X117637161Y-75140695D01*
X117370495Y-75521647D02*
X117332400Y-75569266D01*
X117294304Y-75664504D01*
X117294304Y-75902600D01*
X117332400Y-75997838D01*
X117370495Y-76045457D01*
X117446685Y-76093076D01*
X117522876Y-76093076D01*
X117637161Y-76045457D01*
X118094304Y-75474028D01*
X118094304Y-76093076D01*
X117560971Y-77140695D02*
X117560971Y-77521647D01*
X118094304Y-77283552D02*
X117408590Y-77283552D01*
X117332400Y-77331171D01*
X117294304Y-77426409D01*
X117294304Y-77521647D01*
X118094304Y-77997838D02*
X118056209Y-77902600D01*
X118018114Y-77854980D01*
X117941923Y-77807361D01*
X117713352Y-77807361D01*
X117637161Y-77854980D01*
X117599066Y-77902600D01*
X117560971Y-77997838D01*
X117560971Y-78140695D01*
X117599066Y-78235933D01*
X117637161Y-78283552D01*
X117713352Y-78331171D01*
X117941923Y-78331171D01*
X118018114Y-78283552D01*
X118056209Y-78235933D01*
X118094304Y-78140695D01*
X118094304Y-77997838D01*
X118094304Y-78759742D02*
X117560971Y-78759742D01*
X117713352Y-78759742D02*
X117637161Y-78807361D01*
X117599066Y-78854980D01*
X117560971Y-78950219D01*
X117560971Y-79045457D01*
X118094304Y-80569266D02*
X117294304Y-80569266D01*
X118056209Y-80569266D02*
X118094304Y-80474028D01*
X118094304Y-80283552D01*
X118056209Y-80188314D01*
X118018114Y-80140695D01*
X117941923Y-80093076D01*
X117713352Y-80093076D01*
X117637161Y-80140695D01*
X117599066Y-80188314D01*
X117560971Y-80283552D01*
X117560971Y-80474028D01*
X117599066Y-80569266D01*
X118056209Y-81426409D02*
X118094304Y-81331171D01*
X118094304Y-81140695D01*
X118056209Y-81045457D01*
X117980019Y-80997838D01*
X117675257Y-80997838D01*
X117599066Y-81045457D01*
X117560971Y-81140695D01*
X117560971Y-81331171D01*
X117599066Y-81426409D01*
X117675257Y-81474028D01*
X117751447Y-81474028D01*
X117827638Y-80997838D01*
X117560971Y-81759742D02*
X117560971Y-82140695D01*
X118094304Y-81902600D02*
X117408590Y-81902600D01*
X117332400Y-81950219D01*
X117294304Y-82045457D01*
X117294304Y-82140695D01*
X118094304Y-82902600D02*
X117675257Y-82902600D01*
X117599066Y-82854980D01*
X117560971Y-82759742D01*
X117560971Y-82569266D01*
X117599066Y-82474028D01*
X118056209Y-82902600D02*
X118094304Y-82807361D01*
X118094304Y-82569266D01*
X118056209Y-82474028D01*
X117980019Y-82426409D01*
X117903828Y-82426409D01*
X117827638Y-82474028D01*
X117789542Y-82569266D01*
X117789542Y-82807361D01*
X117751447Y-82902600D01*
X117560971Y-83807361D02*
X118094304Y-83807361D01*
X117560971Y-83378790D02*
X117980019Y-83378790D01*
X118056209Y-83426409D01*
X118094304Y-83521647D01*
X118094304Y-83664504D01*
X118056209Y-83759742D01*
X118018114Y-83807361D01*
X118094304Y-84426409D02*
X118056209Y-84331171D01*
X117980019Y-84283552D01*
X117294304Y-84283552D01*
X117560971Y-84664504D02*
X117560971Y-85045457D01*
X117294304Y-84807361D02*
X117980019Y-84807361D01*
X118056209Y-84854980D01*
X118094304Y-84950219D01*
X118094304Y-85045457D01*
X118399066Y-85283552D02*
X118360971Y-85331171D01*
X118246685Y-85426409D01*
X118170495Y-85474028D01*
X118056209Y-85521647D01*
X117865733Y-85569266D01*
X117713352Y-85569266D01*
X117522876Y-85521647D01*
X117408590Y-85474028D01*
X117332400Y-85426409D01*
X117218114Y-85331171D01*
X117180019Y-85283552D01*
X90315952Y-75215714D02*
X90277857Y-75253809D01*
X90315952Y-75291904D01*
X90354047Y-75253809D01*
X90315952Y-75215714D01*
X90315952Y-75291904D01*
X90315952Y-74796666D02*
X90277857Y-74834761D01*
X90315952Y-74872857D01*
X90354047Y-74834761D01*
X90315952Y-74796666D01*
X90315952Y-74872857D01*
X89782619Y-74491904D02*
X89706428Y-74491904D01*
X89630238Y-74530000D01*
X89592142Y-74568095D01*
X89554047Y-74644285D01*
X89515952Y-74796666D01*
X89515952Y-74987142D01*
X89554047Y-75139523D01*
X89592142Y-75215714D01*
X89630238Y-75253809D01*
X89706428Y-75291904D01*
X89782619Y-75291904D01*
X89858809Y-75253809D01*
X89896904Y-75215714D01*
X89935000Y-75139523D01*
X89973095Y-74987142D01*
X89973095Y-74796666D01*
X89935000Y-74644285D01*
X89896904Y-74568095D01*
X89858809Y-74530000D01*
X89782619Y-74491904D01*
X88715952Y-75291904D02*
X88982619Y-74910952D01*
X89173095Y-75291904D02*
X89173095Y-74491904D01*
X88868333Y-74491904D01*
X88792142Y-74530000D01*
X88754047Y-74568095D01*
X88715952Y-74644285D01*
X88715952Y-74758571D01*
X88754047Y-74834761D01*
X88792142Y-74872857D01*
X88868333Y-74910952D01*
X89173095Y-74910952D01*
X112746685Y-95214504D02*
X112746685Y-94414504D01*
X112480019Y-94985933D01*
X112213352Y-94414504D01*
X112213352Y-95214504D01*
X111680019Y-94414504D02*
X111527638Y-94414504D01*
X111451447Y-94452600D01*
X111375257Y-94528790D01*
X111337161Y-94681171D01*
X111337161Y-94947838D01*
X111375257Y-95100219D01*
X111451447Y-95176409D01*
X111527638Y-95214504D01*
X111680019Y-95214504D01*
X111756209Y-95176409D01*
X111832400Y-95100219D01*
X111870495Y-94947838D01*
X111870495Y-94681171D01*
X111832400Y-94528790D01*
X111756209Y-94452600D01*
X111680019Y-94414504D01*
X110994304Y-95214504D02*
X110994304Y-94414504D01*
X110803828Y-94414504D01*
X110689542Y-94452600D01*
X110613352Y-94528790D01*
X110575257Y-94604980D01*
X110537161Y-94757361D01*
X110537161Y-94871647D01*
X110575257Y-95024028D01*
X110613352Y-95100219D01*
X110689542Y-95176409D01*
X110803828Y-95214504D01*
X110994304Y-95214504D01*
X110194304Y-94795457D02*
X109927638Y-94795457D01*
X109813352Y-95214504D02*
X110194304Y-95214504D01*
X110194304Y-94414504D01*
X109813352Y-94414504D01*
X108899066Y-95176409D02*
X108784780Y-95214504D01*
X108594304Y-95214504D01*
X108518114Y-95176409D01*
X108480019Y-95138314D01*
X108441923Y-95062123D01*
X108441923Y-94985933D01*
X108480019Y-94909742D01*
X108518114Y-94871647D01*
X108594304Y-94833552D01*
X108746685Y-94795457D01*
X108822876Y-94757361D01*
X108860971Y-94719266D01*
X108899066Y-94643076D01*
X108899066Y-94566885D01*
X108860971Y-94490695D01*
X108822876Y-94452600D01*
X108746685Y-94414504D01*
X108556209Y-94414504D01*
X108441923Y-94452600D01*
X108099066Y-94795457D02*
X107832400Y-94795457D01*
X107718114Y-95214504D02*
X108099066Y-95214504D01*
X108099066Y-94414504D01*
X107718114Y-94414504D01*
X106994304Y-95214504D02*
X107375257Y-95214504D01*
X107375257Y-94414504D01*
X106727638Y-94795457D02*
X106460971Y-94795457D01*
X106346685Y-95214504D02*
X106727638Y-95214504D01*
X106727638Y-94414504D01*
X106346685Y-94414504D01*
X105546685Y-95138314D02*
X105584780Y-95176409D01*
X105699066Y-95214504D01*
X105775257Y-95214504D01*
X105889542Y-95176409D01*
X105965733Y-95100219D01*
X106003828Y-95024028D01*
X106041923Y-94871647D01*
X106041923Y-94757361D01*
X106003828Y-94604980D01*
X105965733Y-94528790D01*
X105889542Y-94452600D01*
X105775257Y-94414504D01*
X105699066Y-94414504D01*
X105584780Y-94452600D01*
X105546685Y-94490695D01*
X105318114Y-94414504D02*
X104860971Y-94414504D01*
X105089542Y-95214504D02*
X105089542Y-94414504D01*
X104594304Y-95214504D02*
X104594304Y-94414504D01*
X104060971Y-94414504D02*
X103908590Y-94414504D01*
X103832400Y-94452600D01*
X103756209Y-94528790D01*
X103718114Y-94681171D01*
X103718114Y-94947838D01*
X103756209Y-95100219D01*
X103832400Y-95176409D01*
X103908590Y-95214504D01*
X104060971Y-95214504D01*
X104137161Y-95176409D01*
X104213352Y-95100219D01*
X104251447Y-94947838D01*
X104251447Y-94681171D01*
X104213352Y-94528790D01*
X104137161Y-94452600D01*
X104060971Y-94414504D01*
X103375257Y-95214504D02*
X103375257Y-94414504D01*
X102918114Y-95214504D01*
X102918114Y-94414504D01*
X110499066Y-95714504D02*
X110499066Y-96285933D01*
X110537161Y-96400219D01*
X110613352Y-96476409D01*
X110727638Y-96514504D01*
X110803828Y-96514504D01*
X110118114Y-96514504D02*
X110118114Y-95714504D01*
X109813352Y-95714504D01*
X109737161Y-95752600D01*
X109699066Y-95790695D01*
X109660971Y-95866885D01*
X109660971Y-95981171D01*
X109699066Y-96057361D01*
X109737161Y-96095457D01*
X109813352Y-96133552D01*
X110118114Y-96133552D01*
X108975257Y-95981171D02*
X108975257Y-96514504D01*
X109165733Y-95676409D02*
X109356209Y-96247838D01*
X108860971Y-96247838D01*
X108556209Y-96438314D02*
X108518114Y-96476409D01*
X108556209Y-96514504D01*
X108594304Y-96476409D01*
X108556209Y-96438314D01*
X108556209Y-96514504D01*
X108556209Y-96019266D02*
X108518114Y-96057361D01*
X108556209Y-96095457D01*
X108594304Y-96057361D01*
X108556209Y-96019266D01*
X108556209Y-96095457D01*
X107299066Y-96095457D02*
X107565733Y-96095457D01*
X107565733Y-96514504D02*
X107565733Y-95714504D01*
X107184780Y-95714504D01*
X106422876Y-96438314D02*
X106460971Y-96476409D01*
X106575257Y-96514504D01*
X106651447Y-96514504D01*
X106765733Y-96476409D01*
X106841923Y-96400219D01*
X106880019Y-96324028D01*
X106918114Y-96171647D01*
X106918114Y-96057361D01*
X106880019Y-95904980D01*
X106841923Y-95828790D01*
X106765733Y-95752600D01*
X106651447Y-95714504D01*
X106575257Y-95714504D01*
X106460971Y-95752600D01*
X106422876Y-95790695D01*
X106080019Y-96514504D02*
X106080019Y-95714504D01*
X105813352Y-96285933D01*
X105546685Y-95714504D01*
X105546685Y-96514504D01*
X111508590Y-97814504D02*
X111775257Y-97433552D01*
X111965733Y-97814504D02*
X111965733Y-97014504D01*
X111660971Y-97014504D01*
X111584780Y-97052600D01*
X111546685Y-97090695D01*
X111508590Y-97166885D01*
X111508590Y-97281171D01*
X111546685Y-97357361D01*
X111584780Y-97395457D01*
X111660971Y-97433552D01*
X111965733Y-97433552D01*
X111241923Y-97014504D02*
X110708590Y-97014504D01*
X111051447Y-97814504D01*
X110060971Y-97281171D02*
X110060971Y-97814504D01*
X110251447Y-96976409D02*
X110441923Y-97547838D01*
X109946685Y-97547838D01*
X109032400Y-97509742D02*
X108422876Y-97509742D01*
X108727638Y-97814504D02*
X108727638Y-97204980D01*
X107813352Y-97014504D02*
X107813352Y-97585933D01*
X107851447Y-97700219D01*
X107927638Y-97776409D01*
X108041923Y-97814504D01*
X108118114Y-97814504D01*
X107432400Y-97814504D02*
X107432400Y-97014504D01*
X107127638Y-97014504D01*
X107051447Y-97052600D01*
X107013352Y-97090695D01*
X106975257Y-97166885D01*
X106975257Y-97281171D01*
X107013352Y-97357361D01*
X107051447Y-97395457D01*
X107127638Y-97433552D01*
X107432400Y-97433552D01*
X106251447Y-97014504D02*
X106632400Y-97014504D01*
X106670495Y-97395457D01*
X106632400Y-97357361D01*
X106556209Y-97319266D01*
X106365733Y-97319266D01*
X106289542Y-97357361D01*
X106251447Y-97395457D01*
X106213352Y-97471647D01*
X106213352Y-97662123D01*
X106251447Y-97738314D01*
X106289542Y-97776409D01*
X106365733Y-97814504D01*
X106556209Y-97814504D01*
X106632400Y-97776409D01*
X106670495Y-97738314D01*
X105870495Y-97738314D02*
X105832400Y-97776409D01*
X105870495Y-97814504D01*
X105908590Y-97776409D01*
X105870495Y-97738314D01*
X105870495Y-97814504D01*
X105870495Y-97319266D02*
X105832400Y-97357361D01*
X105870495Y-97395457D01*
X105908590Y-97357361D01*
X105870495Y-97319266D01*
X105870495Y-97395457D01*
X104880019Y-97814504D02*
X104880019Y-97014504D01*
X104575257Y-97014504D01*
X104499066Y-97052600D01*
X104460971Y-97090695D01*
X104422876Y-97166885D01*
X104422876Y-97281171D01*
X104460971Y-97357361D01*
X104499066Y-97395457D01*
X104575257Y-97433552D01*
X104880019Y-97433552D01*
X104118114Y-97776409D02*
X104003828Y-97814504D01*
X103813352Y-97814504D01*
X103737161Y-97776409D01*
X103699066Y-97738314D01*
X103660971Y-97662123D01*
X103660971Y-97585933D01*
X103699066Y-97509742D01*
X103737161Y-97471647D01*
X103813352Y-97433552D01*
X103965733Y-97395457D01*
X104041923Y-97357361D01*
X104080019Y-97319266D01*
X104118114Y-97243076D01*
X104118114Y-97166885D01*
X104080019Y-97090695D01*
X104041923Y-97052600D01*
X103965733Y-97014504D01*
X103775257Y-97014504D01*
X103660971Y-97052600D01*
X110594304Y-98314504D02*
X110594304Y-98885933D01*
X110632400Y-99000219D01*
X110708590Y-99076409D01*
X110822876Y-99114504D01*
X110899066Y-99114504D01*
X110213352Y-99114504D02*
X110213352Y-98314504D01*
X109908590Y-98314504D01*
X109832400Y-98352600D01*
X109794304Y-98390695D01*
X109756209Y-98466885D01*
X109756209Y-98581171D01*
X109794304Y-98657361D01*
X109832400Y-98695457D01*
X109908590Y-98733552D01*
X110213352Y-98733552D01*
X109070495Y-98314504D02*
X109222876Y-98314504D01*
X109299066Y-98352600D01*
X109337161Y-98390695D01*
X109413352Y-98504980D01*
X109451447Y-98657361D01*
X109451447Y-98962123D01*
X109413352Y-99038314D01*
X109375257Y-99076409D01*
X109299066Y-99114504D01*
X109146685Y-99114504D01*
X109070495Y-99076409D01*
X109032400Y-99038314D01*
X108994304Y-98962123D01*
X108994304Y-98771647D01*
X109032400Y-98695457D01*
X109070495Y-98657361D01*
X109146685Y-98619266D01*
X109299066Y-98619266D01*
X109375257Y-98657361D01*
X109413352Y-98695457D01*
X109451447Y-98771647D01*
X108651447Y-99038314D02*
X108613352Y-99076409D01*
X108651447Y-99114504D01*
X108689542Y-99076409D01*
X108651447Y-99038314D01*
X108651447Y-99114504D01*
X108651447Y-98619266D02*
X108613352Y-98657361D01*
X108651447Y-98695457D01*
X108689542Y-98657361D01*
X108651447Y-98619266D01*
X108651447Y-98695457D01*
X108003828Y-98695457D02*
X107889542Y-98733552D01*
X107851447Y-98771647D01*
X107813352Y-98847838D01*
X107813352Y-98962123D01*
X107851447Y-99038314D01*
X107889542Y-99076409D01*
X107965733Y-99114504D01*
X108270495Y-99114504D01*
X108270495Y-98314504D01*
X108003828Y-98314504D01*
X107927638Y-98352600D01*
X107889542Y-98390695D01*
X107851447Y-98466885D01*
X107851447Y-98543076D01*
X107889542Y-98619266D01*
X107927638Y-98657361D01*
X108003828Y-98695457D01*
X108270495Y-98695457D01*
X107470495Y-98314504D02*
X107470495Y-98962123D01*
X107432400Y-99038314D01*
X107394304Y-99076409D01*
X107318114Y-99114504D01*
X107165733Y-99114504D01*
X107089542Y-99076409D01*
X107051447Y-99038314D01*
X107013352Y-98962123D01*
X107013352Y-98314504D01*
X106175257Y-99114504D02*
X106441923Y-98733552D01*
X106632400Y-99114504D02*
X106632400Y-98314504D01*
X106327638Y-98314504D01*
X106251447Y-98352600D01*
X106213352Y-98390695D01*
X106175257Y-98466885D01*
X106175257Y-98581171D01*
X106213352Y-98657361D01*
X106251447Y-98695457D01*
X106327638Y-98733552D01*
X106632400Y-98733552D01*
X105870495Y-99076409D02*
X105756209Y-99114504D01*
X105565733Y-99114504D01*
X105489542Y-99076409D01*
X105451447Y-99038314D01*
X105413352Y-98962123D01*
X105413352Y-98885933D01*
X105451447Y-98809742D01*
X105489542Y-98771647D01*
X105565733Y-98733552D01*
X105718114Y-98695457D01*
X105794304Y-98657361D01*
X105832400Y-98619266D01*
X105870495Y-98543076D01*
X105870495Y-98466885D01*
X105832400Y-98390695D01*
X105794304Y-98352600D01*
X105718114Y-98314504D01*
X105527638Y-98314504D01*
X105413352Y-98352600D01*
X105184780Y-98314504D02*
X104727638Y-98314504D01*
X104956209Y-99114504D02*
X104956209Y-98314504D01*
D12*
X111364066Y-114008314D02*
X111230733Y-114674980D01*
X111097400Y-114198790D01*
X110964066Y-114674980D01*
X110830733Y-114008314D01*
X110630733Y-114008314D02*
X110497400Y-114674980D01*
X110364066Y-114198790D01*
X110230733Y-114674980D01*
X110097400Y-114008314D01*
X109897400Y-114008314D02*
X109764066Y-114674980D01*
X109630733Y-114198790D01*
X109497400Y-114674980D01*
X109364066Y-114008314D01*
X109097400Y-114579742D02*
X109064066Y-114627361D01*
X109097400Y-114674980D01*
X109130733Y-114627361D01*
X109097400Y-114579742D01*
X109097400Y-114674980D01*
X108764066Y-114008314D02*
X108764066Y-115008314D01*
X108764066Y-114055933D02*
X108697400Y-114008314D01*
X108564066Y-114008314D01*
X108497400Y-114055933D01*
X108464066Y-114103552D01*
X108430733Y-114198790D01*
X108430733Y-114484504D01*
X108464066Y-114579742D01*
X108497400Y-114627361D01*
X108564066Y-114674980D01*
X108697400Y-114674980D01*
X108764066Y-114627361D01*
X107864066Y-114627361D02*
X107930733Y-114674980D01*
X108064066Y-114674980D01*
X108130733Y-114627361D01*
X108164066Y-114532123D01*
X108164066Y-114151171D01*
X108130733Y-114055933D01*
X108064066Y-114008314D01*
X107930733Y-114008314D01*
X107864066Y-114055933D01*
X107830733Y-114151171D01*
X107830733Y-114246409D01*
X108164066Y-114341647D01*
X107597400Y-114008314D02*
X107230733Y-114008314D01*
X107597400Y-114674980D01*
X107230733Y-114674980D01*
X106964066Y-114294028D02*
X106430733Y-114294028D01*
X105797400Y-114008314D02*
X105797400Y-114817838D01*
X105830733Y-114913076D01*
X105864066Y-114960695D01*
X105930733Y-115008314D01*
X106030733Y-115008314D01*
X106097400Y-114960695D01*
X105797400Y-114627361D02*
X105864066Y-114674980D01*
X105997400Y-114674980D01*
X106064066Y-114627361D01*
X106097400Y-114579742D01*
X106130733Y-114484504D01*
X106130733Y-114198790D01*
X106097400Y-114103552D01*
X106064066Y-114055933D01*
X105997400Y-114008314D01*
X105864066Y-114008314D01*
X105797400Y-114055933D01*
X105364066Y-114674980D02*
X105430733Y-114627361D01*
X105464066Y-114532123D01*
X105464066Y-113674980D01*
X104997400Y-114674980D02*
X105064066Y-114627361D01*
X105097400Y-114579742D01*
X105130733Y-114484504D01*
X105130733Y-114198790D01*
X105097400Y-114103552D01*
X105064066Y-114055933D01*
X104997400Y-114008314D01*
X104897400Y-114008314D01*
X104830733Y-114055933D01*
X104797400Y-114103552D01*
X104764066Y-114198790D01*
X104764066Y-114484504D01*
X104797400Y-114579742D01*
X104830733Y-114627361D01*
X104897400Y-114674980D01*
X104997400Y-114674980D01*
X104464066Y-114674980D02*
X104464066Y-113674980D01*
X104464066Y-114055933D02*
X104397400Y-114008314D01*
X104264066Y-114008314D01*
X104197400Y-114055933D01*
X104164066Y-114103552D01*
X104130733Y-114198790D01*
X104130733Y-114484504D01*
X104164066Y-114579742D01*
X104197400Y-114627361D01*
X104264066Y-114674980D01*
X104397400Y-114674980D01*
X104464066Y-114627361D01*
X103730733Y-114674980D02*
X103797400Y-114627361D01*
X103830733Y-114579742D01*
X103864066Y-114484504D01*
X103864066Y-114198790D01*
X103830733Y-114103552D01*
X103797400Y-114055933D01*
X103730733Y-114008314D01*
X103630733Y-114008314D01*
X103564066Y-114055933D01*
X103530733Y-114103552D01*
X103497400Y-114198790D01*
X103497400Y-114484504D01*
X103530733Y-114579742D01*
X103564066Y-114627361D01*
X103630733Y-114674980D01*
X103730733Y-114674980D01*
X103197400Y-114579742D02*
X103164066Y-114627361D01*
X103197400Y-114674980D01*
X103230733Y-114627361D01*
X103197400Y-114579742D01*
X103197400Y-114674980D01*
X102764066Y-114674980D02*
X102830733Y-114627361D01*
X102864066Y-114579742D01*
X102897400Y-114484504D01*
X102897400Y-114198790D01*
X102864066Y-114103552D01*
X102830733Y-114055933D01*
X102764066Y-114008314D01*
X102664066Y-114008314D01*
X102597400Y-114055933D01*
X102564066Y-114103552D01*
X102530733Y-114198790D01*
X102530733Y-114484504D01*
X102564066Y-114579742D01*
X102597400Y-114627361D01*
X102664066Y-114674980D01*
X102764066Y-114674980D01*
X102230733Y-114674980D02*
X102230733Y-114008314D01*
X102230733Y-114198790D02*
X102197400Y-114103552D01*
X102164066Y-114055933D01*
X102097400Y-114008314D01*
X102030733Y-114008314D01*
X101497400Y-114008314D02*
X101497400Y-114817838D01*
X101530733Y-114913076D01*
X101564066Y-114960695D01*
X101630733Y-115008314D01*
X101730733Y-115008314D01*
X101797400Y-114960695D01*
X101497400Y-114627361D02*
X101564066Y-114674980D01*
X101697400Y-114674980D01*
X101764066Y-114627361D01*
X101797400Y-114579742D01*
X101830733Y-114484504D01*
X101830733Y-114198790D01*
X101797400Y-114103552D01*
X101764066Y-114055933D01*
X101697400Y-114008314D01*
X101564066Y-114008314D01*
X101497400Y-114055933D01*
D13*
X108682161Y-111149980D02*
X108682161Y-110149980D01*
X108301209Y-110149980D01*
X108205971Y-110197600D01*
X108158352Y-110245219D01*
X108110733Y-110340457D01*
X108110733Y-110483314D01*
X108158352Y-110578552D01*
X108205971Y-110626171D01*
X108301209Y-110673790D01*
X108682161Y-110673790D01*
X107253590Y-110483314D02*
X107253590Y-111149980D01*
X107682161Y-110483314D02*
X107682161Y-111007123D01*
X107634542Y-111102361D01*
X107539304Y-111149980D01*
X107396447Y-111149980D01*
X107301209Y-111102361D01*
X107253590Y-111054742D01*
X106920257Y-110483314D02*
X106539304Y-110483314D01*
X106777400Y-111149980D02*
X106777400Y-110292838D01*
X106729780Y-110197600D01*
X106634542Y-110149980D01*
X106539304Y-110149980D01*
X106348828Y-110483314D02*
X105967876Y-110483314D01*
X106205971Y-111149980D02*
X106205971Y-110292838D01*
X106158352Y-110197600D01*
X106063114Y-110149980D01*
X105967876Y-110149980D01*
X105253590Y-111102361D02*
X105348828Y-111149980D01*
X105539304Y-111149980D01*
X105634542Y-111102361D01*
X105682161Y-111007123D01*
X105682161Y-110626171D01*
X105634542Y-110530933D01*
X105539304Y-110483314D01*
X105348828Y-110483314D01*
X105253590Y-110530933D01*
X105205971Y-110626171D01*
X105205971Y-110721409D01*
X105682161Y-110816647D01*
X104777400Y-111149980D02*
X104777400Y-110483314D01*
X104777400Y-110673790D02*
X104729780Y-110578552D01*
X104682161Y-110530933D01*
X104586923Y-110483314D01*
X104491685Y-110483314D01*
X104301209Y-110483314D02*
X103920257Y-110483314D01*
X104158352Y-111149980D02*
X104158352Y-110292838D01*
X104110733Y-110197600D01*
X104015495Y-110149980D01*
X103920257Y-110149980D01*
X103586923Y-111149980D02*
X103586923Y-110483314D01*
X103586923Y-110149980D02*
X103634542Y-110197600D01*
X103586923Y-110245219D01*
X103539304Y-110197600D01*
X103586923Y-110149980D01*
X103586923Y-110245219D01*
X103158352Y-111102361D02*
X103063114Y-111149980D01*
X102872638Y-111149980D01*
X102777400Y-111102361D01*
X102729780Y-111007123D01*
X102729780Y-110959504D01*
X102777400Y-110864266D01*
X102872638Y-110816647D01*
X103015495Y-110816647D01*
X103110733Y-110769028D01*
X103158352Y-110673790D01*
X103158352Y-110626171D01*
X103110733Y-110530933D01*
X103015495Y-110483314D01*
X102872638Y-110483314D01*
X102777400Y-110530933D01*
X102301209Y-111149980D02*
X102301209Y-110149980D01*
X101872638Y-111149980D02*
X101872638Y-110626171D01*
X101920257Y-110530933D01*
X102015495Y-110483314D01*
X102158352Y-110483314D01*
X102253590Y-110530933D01*
X102301209Y-110578552D01*
X112182161Y-112899980D02*
X112182161Y-111899980D01*
X111801209Y-111899980D01*
X111705971Y-111947600D01*
X111658352Y-111995219D01*
X111610733Y-112090457D01*
X111610733Y-112233314D01*
X111658352Y-112328552D01*
X111705971Y-112376171D01*
X111801209Y-112423790D01*
X112182161Y-112423790D01*
X111039304Y-112899980D02*
X111134542Y-112852361D01*
X111182161Y-112804742D01*
X111229780Y-112709504D01*
X111229780Y-112423790D01*
X111182161Y-112328552D01*
X111134542Y-112280933D01*
X111039304Y-112233314D01*
X110896447Y-112233314D01*
X110801209Y-112280933D01*
X110753590Y-112328552D01*
X110705971Y-112423790D01*
X110705971Y-112709504D01*
X110753590Y-112804742D01*
X110801209Y-112852361D01*
X110896447Y-112899980D01*
X111039304Y-112899980D01*
X110372638Y-112233314D02*
X110182161Y-112899980D01*
X109991685Y-112423790D01*
X109801209Y-112899980D01*
X109610733Y-112233314D01*
X108848828Y-112852361D02*
X108944066Y-112899980D01*
X109134542Y-112899980D01*
X109229780Y-112852361D01*
X109277400Y-112757123D01*
X109277400Y-112376171D01*
X109229780Y-112280933D01*
X109134542Y-112233314D01*
X108944066Y-112233314D01*
X108848828Y-112280933D01*
X108801209Y-112376171D01*
X108801209Y-112471409D01*
X109277400Y-112566647D01*
X108372638Y-112899980D02*
X108372638Y-112233314D01*
X108372638Y-112423790D02*
X108325019Y-112328552D01*
X108277400Y-112280933D01*
X108182161Y-112233314D01*
X108086923Y-112233314D01*
X106658352Y-112376171D02*
X106515495Y-112423790D01*
X106467876Y-112471409D01*
X106420257Y-112566647D01*
X106420257Y-112709504D01*
X106467876Y-112804742D01*
X106515495Y-112852361D01*
X106610733Y-112899980D01*
X106991685Y-112899980D01*
X106991685Y-111899980D01*
X106658352Y-111899980D01*
X106563114Y-111947600D01*
X106515495Y-111995219D01*
X106467876Y-112090457D01*
X106467876Y-112185695D01*
X106515495Y-112280933D01*
X106563114Y-112328552D01*
X106658352Y-112376171D01*
X106991685Y-112376171D01*
X105848828Y-112899980D02*
X105944066Y-112852361D01*
X105991685Y-112804742D01*
X106039304Y-112709504D01*
X106039304Y-112423790D01*
X105991685Y-112328552D01*
X105944066Y-112280933D01*
X105848828Y-112233314D01*
X105705971Y-112233314D01*
X105610733Y-112280933D01*
X105563114Y-112328552D01*
X105515495Y-112423790D01*
X105515495Y-112709504D01*
X105563114Y-112804742D01*
X105610733Y-112852361D01*
X105705971Y-112899980D01*
X105848828Y-112899980D01*
X104658352Y-112899980D02*
X104658352Y-112376171D01*
X104705971Y-112280933D01*
X104801209Y-112233314D01*
X104991685Y-112233314D01*
X105086923Y-112280933D01*
X104658352Y-112852361D02*
X104753590Y-112899980D01*
X104991685Y-112899980D01*
X105086923Y-112852361D01*
X105134542Y-112757123D01*
X105134542Y-112661885D01*
X105086923Y-112566647D01*
X104991685Y-112519028D01*
X104753590Y-112519028D01*
X104658352Y-112471409D01*
X104182161Y-112899980D02*
X104182161Y-112233314D01*
X104182161Y-112423790D02*
X104134542Y-112328552D01*
X104086923Y-112280933D01*
X103991685Y-112233314D01*
X103896447Y-112233314D01*
X103134542Y-112899980D02*
X103134542Y-111899980D01*
X103134542Y-112852361D02*
X103229780Y-112899980D01*
X103420257Y-112899980D01*
X103515495Y-112852361D01*
X103563114Y-112804742D01*
X103610733Y-112709504D01*
X103610733Y-112423790D01*
X103563114Y-112328552D01*
X103515495Y-112280933D01*
X103420257Y-112233314D01*
X103229780Y-112233314D01*
X103134542Y-112280933D01*
X102039304Y-111899980D02*
X101705971Y-112899980D01*
X101372638Y-111899980D01*
X101086923Y-111995219D02*
X101039304Y-111947600D01*
X100944066Y-111899980D01*
X100705971Y-111899980D01*
X100610733Y-111947600D01*
X100563114Y-111995219D01*
X100515495Y-112090457D01*
X100515495Y-112185695D01*
X100563114Y-112328552D01*
X101134542Y-112899980D01*
X100515495Y-112899980D01*
X100086923Y-112804742D02*
X100039304Y-112852361D01*
X100086923Y-112899980D01*
X100134542Y-112852361D01*
X100086923Y-112804742D01*
X100086923Y-112899980D01*
X99420257Y-111899980D02*
X99325019Y-111899980D01*
X99229780Y-111947600D01*
X99182161Y-111995219D01*
X99134542Y-112090457D01*
X99086923Y-112280933D01*
X99086923Y-112519028D01*
X99134542Y-112709504D01*
X99182161Y-112804742D01*
X99229780Y-112852361D01*
X99325019Y-112899980D01*
X99420257Y-112899980D01*
X99515495Y-112852361D01*
X99563114Y-112804742D01*
X99610733Y-112709504D01*
X99658352Y-112519028D01*
X99658352Y-112280933D01*
X99610733Y-112090457D01*
X99563114Y-111995219D01*
X99515495Y-111947600D01*
X99420257Y-111899980D01*
D10*
X87870761Y-72063904D02*
X87413619Y-72063904D01*
X87642190Y-72863904D02*
X87642190Y-72063904D01*
X87146952Y-72863904D02*
X87146952Y-72330571D01*
X87146952Y-72482952D02*
X87108857Y-72406761D01*
X87070761Y-72368666D01*
X86994571Y-72330571D01*
X86918380Y-72330571D01*
X86308857Y-72863904D02*
X86308857Y-72444857D01*
X86346952Y-72368666D01*
X86423142Y-72330571D01*
X86575523Y-72330571D01*
X86651714Y-72368666D01*
X86308857Y-72825809D02*
X86385047Y-72863904D01*
X86575523Y-72863904D01*
X86651714Y-72825809D01*
X86689809Y-72749619D01*
X86689809Y-72673428D01*
X86651714Y-72597238D01*
X86575523Y-72559142D01*
X86385047Y-72559142D01*
X86308857Y-72521047D01*
X85585047Y-72825809D02*
X85661238Y-72863904D01*
X85813619Y-72863904D01*
X85889809Y-72825809D01*
X85927904Y-72787714D01*
X85966000Y-72711523D01*
X85966000Y-72482952D01*
X85927904Y-72406761D01*
X85889809Y-72368666D01*
X85813619Y-72330571D01*
X85661238Y-72330571D01*
X85585047Y-72368666D01*
X85242190Y-72863904D02*
X85242190Y-72063904D01*
X85166000Y-72559142D02*
X84937428Y-72863904D01*
X84937428Y-72330571D02*
X85242190Y-72635333D01*
X83832666Y-72063904D02*
X83680285Y-72063904D01*
X83604095Y-72102000D01*
X83527904Y-72178190D01*
X83489809Y-72330571D01*
X83489809Y-72597238D01*
X83527904Y-72749619D01*
X83604095Y-72825809D01*
X83680285Y-72863904D01*
X83832666Y-72863904D01*
X83908857Y-72825809D01*
X83985047Y-72749619D01*
X84023142Y-72597238D01*
X84023142Y-72330571D01*
X83985047Y-72178190D01*
X83908857Y-72102000D01*
X83832666Y-72063904D01*
X83146952Y-72330571D02*
X83146952Y-73130571D01*
X83146952Y-72368666D02*
X83070761Y-72330571D01*
X82918380Y-72330571D01*
X82842190Y-72368666D01*
X82804095Y-72406761D01*
X82766000Y-72482952D01*
X82766000Y-72711523D01*
X82804095Y-72787714D01*
X82842190Y-72825809D01*
X82918380Y-72863904D01*
X83070761Y-72863904D01*
X83146952Y-72825809D01*
X82537428Y-72330571D02*
X82232666Y-72330571D01*
X82423142Y-72063904D02*
X82423142Y-72749619D01*
X82385047Y-72825809D01*
X82308857Y-72863904D01*
X82232666Y-72863904D01*
X81966000Y-72863904D02*
X81966000Y-72330571D01*
X81966000Y-72063904D02*
X82004095Y-72102000D01*
X81966000Y-72140095D01*
X81927904Y-72102000D01*
X81966000Y-72063904D01*
X81966000Y-72140095D01*
X81470761Y-72863904D02*
X81546952Y-72825809D01*
X81585047Y-72787714D01*
X81623142Y-72711523D01*
X81623142Y-72482952D01*
X81585047Y-72406761D01*
X81546952Y-72368666D01*
X81470761Y-72330571D01*
X81356476Y-72330571D01*
X81280285Y-72368666D01*
X81242190Y-72406761D01*
X81204095Y-72482952D01*
X81204095Y-72711523D01*
X81242190Y-72787714D01*
X81280285Y-72825809D01*
X81356476Y-72863904D01*
X81470761Y-72863904D01*
X80861238Y-72330571D02*
X80861238Y-72863904D01*
X80861238Y-72406761D02*
X80823142Y-72368666D01*
X80746952Y-72330571D01*
X80632666Y-72330571D01*
X80556476Y-72368666D01*
X80518380Y-72444857D01*
X80518380Y-72863904D01*
X79794571Y-72863904D02*
X79794571Y-72444857D01*
X79832666Y-72368666D01*
X79908857Y-72330571D01*
X80061238Y-72330571D01*
X80137428Y-72368666D01*
X79794571Y-72825809D02*
X79870761Y-72863904D01*
X80061238Y-72863904D01*
X80137428Y-72825809D01*
X80175523Y-72749619D01*
X80175523Y-72673428D01*
X80137428Y-72597238D01*
X80061238Y-72559142D01*
X79870761Y-72559142D01*
X79794571Y-72521047D01*
X79299333Y-72863904D02*
X79375523Y-72825809D01*
X79413619Y-72749619D01*
X79413619Y-72063904D01*
X89394571Y-74163904D02*
X89394571Y-73363904D01*
X89204095Y-73363904D01*
X89089809Y-73402000D01*
X89013619Y-73478190D01*
X88975523Y-73554380D01*
X88937428Y-73706761D01*
X88937428Y-73821047D01*
X88975523Y-73973428D01*
X89013619Y-74049619D01*
X89089809Y-74125809D01*
X89204095Y-74163904D01*
X89394571Y-74163904D01*
X88289809Y-74125809D02*
X88366000Y-74163904D01*
X88518380Y-74163904D01*
X88594571Y-74125809D01*
X88632666Y-74049619D01*
X88632666Y-73744857D01*
X88594571Y-73668666D01*
X88518380Y-73630571D01*
X88366000Y-73630571D01*
X88289809Y-73668666D01*
X88251714Y-73744857D01*
X88251714Y-73821047D01*
X88632666Y-73897238D01*
X88023142Y-73630571D02*
X87718380Y-73630571D01*
X87908857Y-74163904D02*
X87908857Y-73478190D01*
X87870761Y-73402000D01*
X87794571Y-73363904D01*
X87718380Y-73363904D01*
X87108857Y-74163904D02*
X87108857Y-73744857D01*
X87146952Y-73668666D01*
X87223142Y-73630571D01*
X87375523Y-73630571D01*
X87451714Y-73668666D01*
X87108857Y-74125809D02*
X87185047Y-74163904D01*
X87375523Y-74163904D01*
X87451714Y-74125809D01*
X87489809Y-74049619D01*
X87489809Y-73973428D01*
X87451714Y-73897238D01*
X87375523Y-73859142D01*
X87185047Y-73859142D01*
X87108857Y-73821047D01*
X86385047Y-73630571D02*
X86385047Y-74163904D01*
X86727904Y-73630571D02*
X86727904Y-74049619D01*
X86689809Y-74125809D01*
X86613619Y-74163904D01*
X86499333Y-74163904D01*
X86423142Y-74125809D01*
X86385047Y-74087714D01*
X85889809Y-74163904D02*
X85966000Y-74125809D01*
X86004095Y-74049619D01*
X86004095Y-73363904D01*
X85699333Y-73630571D02*
X85394571Y-73630571D01*
X85585047Y-73363904D02*
X85585047Y-74049619D01*
X85546952Y-74125809D01*
X85470761Y-74163904D01*
X85394571Y-74163904D01*
X84518380Y-74163904D02*
X84518380Y-73363904D01*
X84061238Y-74163904D01*
X84061238Y-73363904D01*
X83566000Y-74163904D02*
X83642190Y-74125809D01*
X83680285Y-74087714D01*
X83718380Y-74011523D01*
X83718380Y-73782952D01*
X83680285Y-73706761D01*
X83642190Y-73668666D01*
X83566000Y-73630571D01*
X83451714Y-73630571D01*
X83375523Y-73668666D01*
X83337428Y-73706761D01*
X83299333Y-73782952D01*
X83299333Y-74011523D01*
X83337428Y-74087714D01*
X83375523Y-74125809D01*
X83451714Y-74163904D01*
X83566000Y-74163904D01*
X82461238Y-73363904D02*
X82004095Y-73363904D01*
X82232666Y-74163904D02*
X82232666Y-73363904D01*
X81737428Y-74163904D02*
X81737428Y-73630571D01*
X81737428Y-73782952D02*
X81699333Y-73706761D01*
X81661238Y-73668666D01*
X81585047Y-73630571D01*
X81508857Y-73630571D01*
X80899333Y-74163904D02*
X80899333Y-73744857D01*
X80937428Y-73668666D01*
X81013619Y-73630571D01*
X81166000Y-73630571D01*
X81242190Y-73668666D01*
X80899333Y-74125809D02*
X80975523Y-74163904D01*
X81166000Y-74163904D01*
X81242190Y-74125809D01*
X81280285Y-74049619D01*
X81280285Y-73973428D01*
X81242190Y-73897238D01*
X81166000Y-73859142D01*
X80975523Y-73859142D01*
X80899333Y-73821047D01*
X80175523Y-74125809D02*
X80251714Y-74163904D01*
X80404095Y-74163904D01*
X80480285Y-74125809D01*
X80518380Y-74087714D01*
X80556476Y-74011523D01*
X80556476Y-73782952D01*
X80518380Y-73706761D01*
X80480285Y-73668666D01*
X80404095Y-73630571D01*
X80251714Y-73630571D01*
X80175523Y-73668666D01*
X79832666Y-74163904D02*
X79832666Y-73363904D01*
X79756476Y-73859142D02*
X79527904Y-74163904D01*
X79527904Y-73630571D02*
X79832666Y-73935333D01*
X79185047Y-74163904D02*
X79185047Y-73630571D01*
X79185047Y-73363904D02*
X79223142Y-73402000D01*
X79185047Y-73440095D01*
X79146952Y-73402000D01*
X79185047Y-73363904D01*
X79185047Y-73440095D01*
X78804095Y-73630571D02*
X78804095Y-74163904D01*
X78804095Y-73706761D02*
X78766000Y-73668666D01*
X78689809Y-73630571D01*
X78575523Y-73630571D01*
X78499333Y-73668666D01*
X78461238Y-73744857D01*
X78461238Y-74163904D01*
X77737428Y-73630571D02*
X77737428Y-74278190D01*
X77775523Y-74354380D01*
X77813619Y-74392476D01*
X77889809Y-74430571D01*
X78004095Y-74430571D01*
X78080285Y-74392476D01*
X77737428Y-74125809D02*
X77813619Y-74163904D01*
X77966000Y-74163904D01*
X78042190Y-74125809D01*
X78080285Y-74087714D01*
X78118380Y-74011523D01*
X78118380Y-73782952D01*
X78080285Y-73706761D01*
X78042190Y-73668666D01*
X77966000Y-73630571D01*
X77813619Y-73630571D01*
X77737428Y-73668666D01*
D11*
X153543666Y-99817380D02*
X153353190Y-99817380D01*
X153263904Y-99865000D01*
X153180571Y-99960238D01*
X153156761Y-100150714D01*
X153198428Y-100484047D01*
X153269857Y-100674523D01*
X153377000Y-100769761D01*
X153478190Y-100817380D01*
X153668666Y-100817380D01*
X153757952Y-100769761D01*
X153841285Y-100674523D01*
X153865095Y-100484047D01*
X153823428Y-100150714D01*
X153752000Y-99960238D01*
X153644857Y-99865000D01*
X153543666Y-99817380D01*
X152728190Y-100150714D02*
X152853190Y-101150714D01*
X152734142Y-100198333D02*
X152632952Y-100150714D01*
X152442476Y-100150714D01*
X152353190Y-100198333D01*
X152311523Y-100245952D01*
X152275809Y-100341190D01*
X152311523Y-100626904D01*
X152371047Y-100722142D01*
X152424619Y-100769761D01*
X152525809Y-100817380D01*
X152716285Y-100817380D01*
X152805571Y-100769761D01*
X151966285Y-100150714D02*
X151585333Y-100150714D01*
X151781761Y-99817380D02*
X151888904Y-100674523D01*
X151853190Y-100769761D01*
X151763904Y-100817380D01*
X151668666Y-100817380D01*
X151335333Y-100817380D02*
X151252000Y-100150714D01*
X151210333Y-99817380D02*
X151263904Y-99865000D01*
X151222238Y-99912619D01*
X151168666Y-99865000D01*
X151210333Y-99817380D01*
X151222238Y-99912619D01*
X150716285Y-100817380D02*
X150805571Y-100769761D01*
X150847238Y-100722142D01*
X150882952Y-100626904D01*
X150847238Y-100341190D01*
X150787714Y-100245952D01*
X150734142Y-100198333D01*
X150632952Y-100150714D01*
X150490095Y-100150714D01*
X150400809Y-100198333D01*
X150359142Y-100245952D01*
X150323428Y-100341190D01*
X150359142Y-100626904D01*
X150418666Y-100722142D01*
X150472238Y-100769761D01*
X150573428Y-100817380D01*
X150716285Y-100817380D01*
X149871047Y-100150714D02*
X149954380Y-100817380D01*
X149882952Y-100245952D02*
X149829380Y-100198333D01*
X149728190Y-100150714D01*
X149585333Y-100150714D01*
X149496047Y-100198333D01*
X149460333Y-100293571D01*
X149525809Y-100817380D01*
X148621047Y-100817380D02*
X148555571Y-100293571D01*
X148591285Y-100198333D01*
X148680571Y-100150714D01*
X148871047Y-100150714D01*
X148972238Y-100198333D01*
X148615095Y-100769761D02*
X148716285Y-100817380D01*
X148954380Y-100817380D01*
X149043666Y-100769761D01*
X149079380Y-100674523D01*
X149067476Y-100579285D01*
X149007952Y-100484047D01*
X148906761Y-100436428D01*
X148668666Y-100436428D01*
X148567476Y-100388809D01*
X148002000Y-100817380D02*
X148091285Y-100769761D01*
X148127000Y-100674523D01*
X148019857Y-99817380D01*
X146859142Y-100817380D02*
X146734142Y-99817380D01*
X146353190Y-99817380D01*
X146263904Y-99865000D01*
X146222238Y-99912619D01*
X146186523Y-100007857D01*
X146204380Y-100150714D01*
X146263904Y-100245952D01*
X146317476Y-100293571D01*
X146418666Y-100341190D01*
X146799619Y-100341190D01*
X145347238Y-100150714D02*
X145430571Y-100817380D01*
X145775809Y-100150714D02*
X145841285Y-100674523D01*
X145805571Y-100769761D01*
X145716285Y-100817380D01*
X145573428Y-100817380D01*
X145472238Y-100769761D01*
X145418666Y-100722142D01*
X144811523Y-100817380D02*
X144900809Y-100769761D01*
X144936523Y-100674523D01*
X144829380Y-99817380D01*
X144287714Y-100817380D02*
X144377000Y-100769761D01*
X144412714Y-100674523D01*
X144305571Y-99817380D01*
X143859142Y-100436428D02*
X143097238Y-100436428D01*
X142543666Y-99817380D02*
X142644857Y-100626904D01*
X142609142Y-100722142D01*
X142567476Y-100769761D01*
X142478190Y-100817380D01*
X142287714Y-100817380D01*
X142186523Y-100769761D01*
X142132952Y-100722142D01*
X142073428Y-100626904D01*
X141972238Y-99817380D01*
X141537714Y-100150714D02*
X141662714Y-101150714D01*
X141543666Y-100198333D02*
X141442476Y-100150714D01*
X141252000Y-100150714D01*
X141162714Y-100198333D01*
X141121047Y-100245952D01*
X141085333Y-100341190D01*
X141121047Y-100626904D01*
X141180571Y-100722142D01*
X141234142Y-100769761D01*
X141335333Y-100817380D01*
X141525809Y-100817380D01*
X141615095Y-100769761D01*
X140757952Y-100769761D02*
X140668666Y-100817380D01*
X140478190Y-100817380D01*
X140377000Y-100769761D01*
X140317476Y-100674523D01*
X140311523Y-100626904D01*
X140347238Y-100531666D01*
X140436523Y-100484047D01*
X140579380Y-100484047D01*
X140668666Y-100436428D01*
X140704380Y-100341190D01*
X140698428Y-100293571D01*
X140638904Y-100198333D01*
X140537714Y-100150714D01*
X140394857Y-100150714D01*
X140305571Y-100198333D01*
D14*
G04 #@! TO.C,R99*
X109870179Y-72537600D02*
X109544621Y-72537600D01*
X109870179Y-71517600D02*
X109544621Y-71517600D01*
G04 #@! TO.C,R49*
X106176578Y-86816000D02*
X105659422Y-86816000D01*
X106176578Y-85396000D02*
X105659422Y-85396000D01*
G04 #@! TO.C,Q9*
X138547000Y-97127000D02*
X138547000Y-98057000D01*
X138547000Y-100287000D02*
X138547000Y-99357000D01*
X138547000Y-100287000D02*
X136387000Y-100287000D01*
X138547000Y-97127000D02*
X137087000Y-97127000D01*
G04 #@! TO.C,JP1*
X87757400Y-92152600D02*
X86357400Y-92152600D01*
X85657400Y-92852600D02*
X85657400Y-93452600D01*
X86357400Y-94152600D02*
X87757400Y-94152600D01*
X88457400Y-93452600D02*
X88457400Y-92852600D01*
X88457400Y-92852600D02*
G75*
G03X87757400Y-92152600I-700000J0D01*
G01*
X87757400Y-94152600D02*
G75*
G03X88457400Y-93452600I0J700000D01*
G01*
X85657400Y-93452600D02*
G75*
G03X86357400Y-94152600I700000J0D01*
G01*
X86357400Y-92152600D02*
G75*
G03X85657400Y-92852600I0J-700000D01*
G01*
G04 #@! TO.C,D3*
X93853000Y-83540600D02*
X92113100Y-83515200D01*
X93814000Y-83288000D02*
X93814000Y-80738000D01*
X92114000Y-83288000D02*
X92114000Y-80738000D01*
X93814000Y-83288000D02*
X92114000Y-83288000D01*
G04 #@! TO.C,D4*
X101117400Y-78105000D02*
X101142800Y-76365100D01*
X101370000Y-78066000D02*
X103920000Y-78066000D01*
X101370000Y-76366000D02*
X103920000Y-76366000D01*
X101370000Y-78066000D02*
X101370000Y-76366000D01*
D15*
G04 #@! TO.C,L2*
G36*
X104465126Y-99845460D02*
G01*
X103625829Y-100017818D01*
X102939513Y-100284926D01*
X102456832Y-100578571D01*
X101952812Y-100984402D01*
X101471134Y-101459071D01*
X101055475Y-101959229D01*
X100749516Y-102441528D01*
X100732460Y-102475267D01*
X100408432Y-103272510D01*
X100238579Y-104061580D01*
X100219597Y-104873680D01*
X100348178Y-105740015D01*
X100374510Y-105853874D01*
X100566761Y-106503509D01*
X100820592Y-107053720D01*
X101169253Y-107565755D01*
X101526603Y-107976100D01*
X102201123Y-108577592D01*
X102955687Y-109041125D01*
X103770139Y-109359315D01*
X104624319Y-109524780D01*
X105498070Y-109530137D01*
X105706708Y-109507011D01*
X106182975Y-109422403D01*
X106623599Y-109292051D01*
X107093126Y-109094179D01*
X107434815Y-108924016D01*
X107789191Y-108706776D01*
X108165975Y-108418988D01*
X108546685Y-108081777D01*
X108912840Y-107716263D01*
X109245960Y-107343572D01*
X109527561Y-106984824D01*
X109739164Y-106661145D01*
X109862286Y-106393655D01*
X109878446Y-106203479D01*
X109854715Y-106158244D01*
X109712322Y-106050754D01*
X109636009Y-106031267D01*
X109542946Y-106093230D01*
X109366866Y-106263077D01*
X109130878Y-106516737D01*
X108858092Y-106830143D01*
X108782833Y-106919837D01*
X108234865Y-107533075D01*
X107718687Y-108011041D01*
X107205966Y-108376762D01*
X106668366Y-108653265D01*
X106629810Y-108669565D01*
X106411437Y-108751333D01*
X106192496Y-108806543D01*
X105931865Y-108840311D01*
X105588421Y-108857750D01*
X105121040Y-108863976D01*
X105064958Y-108864181D01*
X103958183Y-108867600D01*
X103234402Y-108509088D01*
X102511606Y-108064962D01*
X101911607Y-107520888D01*
X101437665Y-106895630D01*
X101093039Y-106207952D01*
X100880990Y-105476617D01*
X100804778Y-104720389D01*
X100867663Y-103958031D01*
X101072905Y-103208307D01*
X101423764Y-102489981D01*
X101923499Y-101821817D01*
X102049288Y-101687969D01*
X102704026Y-101130853D01*
X103422205Y-100727894D01*
X104191861Y-100481629D01*
X105001028Y-100394600D01*
X105837741Y-100469344D01*
X106680962Y-100704998D01*
X107306230Y-101022615D01*
X107915995Y-101495840D01*
X108497451Y-102110968D01*
X109037792Y-102854294D01*
X109524210Y-103712113D01*
X109561549Y-103787600D01*
X109875431Y-104463775D01*
X110103209Y-105047748D01*
X110256917Y-105585314D01*
X110348591Y-106122266D01*
X110390265Y-106704397D01*
X110395643Y-106961430D01*
X110408121Y-107441430D01*
X110441233Y-107762192D01*
X110504855Y-107933469D01*
X110608864Y-107965015D01*
X110763137Y-107866582D01*
X110977550Y-107647924D01*
X111030519Y-107588352D01*
X111456691Y-106993572D01*
X111789044Y-106303678D01*
X112012213Y-105565448D01*
X112110833Y-104825658D01*
X112104205Y-104570770D01*
X111493508Y-104570770D01*
X111463129Y-105302301D01*
X111327973Y-105974622D01*
X111288933Y-106094767D01*
X111191547Y-106312885D01*
X111104649Y-106373871D01*
X111026302Y-106274832D01*
X110954570Y-106012871D01*
X110887517Y-105585094D01*
X110873896Y-105474326D01*
X110833067Y-105026967D01*
X110811621Y-104570137D01*
X110812053Y-104173887D01*
X110821868Y-104013826D01*
X110877064Y-103486210D01*
X110928846Y-103118242D01*
X110981977Y-102900435D01*
X111041222Y-102823301D01*
X111111344Y-102877352D01*
X111197109Y-103053101D01*
X111243704Y-103173767D01*
X111420052Y-103840951D01*
X111493508Y-104570770D01*
X112104205Y-104570770D01*
X112098149Y-104337933D01*
X111976506Y-103674877D01*
X111756428Y-103007704D01*
X111459011Y-102383050D01*
X111105351Y-101847551D01*
X110838606Y-101553521D01*
X110680191Y-101422367D01*
X110565991Y-101382756D01*
X110488907Y-101450017D01*
X110441842Y-101639480D01*
X110417697Y-101966476D01*
X110409375Y-102446336D01*
X110409222Y-102480937D01*
X110401925Y-102894100D01*
X110385070Y-103250615D01*
X110361130Y-103513506D01*
X110332578Y-103645797D01*
X110331158Y-103648190D01*
X110265949Y-103667538D01*
X110166469Y-103555812D01*
X110021292Y-103299680D01*
X110004626Y-103267190D01*
X109579786Y-102541356D01*
X109071973Y-101850710D01*
X108514288Y-101234320D01*
X107939831Y-100731258D01*
X107729005Y-100581236D01*
X106987219Y-100187234D01*
X106175914Y-99932029D01*
X105325185Y-99817484D01*
X104465126Y-99845460D01*
X104465126Y-99845460D01*
G37*
X104465126Y-99845460D02*
X103625829Y-100017818D01*
X102939513Y-100284926D01*
X102456832Y-100578571D01*
X101952812Y-100984402D01*
X101471134Y-101459071D01*
X101055475Y-101959229D01*
X100749516Y-102441528D01*
X100732460Y-102475267D01*
X100408432Y-103272510D01*
X100238579Y-104061580D01*
X100219597Y-104873680D01*
X100348178Y-105740015D01*
X100374510Y-105853874D01*
X100566761Y-106503509D01*
X100820592Y-107053720D01*
X101169253Y-107565755D01*
X101526603Y-107976100D01*
X102201123Y-108577592D01*
X102955687Y-109041125D01*
X103770139Y-109359315D01*
X104624319Y-109524780D01*
X105498070Y-109530137D01*
X105706708Y-109507011D01*
X106182975Y-109422403D01*
X106623599Y-109292051D01*
X107093126Y-109094179D01*
X107434815Y-108924016D01*
X107789191Y-108706776D01*
X108165975Y-108418988D01*
X108546685Y-108081777D01*
X108912840Y-107716263D01*
X109245960Y-107343572D01*
X109527561Y-106984824D01*
X109739164Y-106661145D01*
X109862286Y-106393655D01*
X109878446Y-106203479D01*
X109854715Y-106158244D01*
X109712322Y-106050754D01*
X109636009Y-106031267D01*
X109542946Y-106093230D01*
X109366866Y-106263077D01*
X109130878Y-106516737D01*
X108858092Y-106830143D01*
X108782833Y-106919837D01*
X108234865Y-107533075D01*
X107718687Y-108011041D01*
X107205966Y-108376762D01*
X106668366Y-108653265D01*
X106629810Y-108669565D01*
X106411437Y-108751333D01*
X106192496Y-108806543D01*
X105931865Y-108840311D01*
X105588421Y-108857750D01*
X105121040Y-108863976D01*
X105064958Y-108864181D01*
X103958183Y-108867600D01*
X103234402Y-108509088D01*
X102511606Y-108064962D01*
X101911607Y-107520888D01*
X101437665Y-106895630D01*
X101093039Y-106207952D01*
X100880990Y-105476617D01*
X100804778Y-104720389D01*
X100867663Y-103958031D01*
X101072905Y-103208307D01*
X101423764Y-102489981D01*
X101923499Y-101821817D01*
X102049288Y-101687969D01*
X102704026Y-101130853D01*
X103422205Y-100727894D01*
X104191861Y-100481629D01*
X105001028Y-100394600D01*
X105837741Y-100469344D01*
X106680962Y-100704998D01*
X107306230Y-101022615D01*
X107915995Y-101495840D01*
X108497451Y-102110968D01*
X109037792Y-102854294D01*
X109524210Y-103712113D01*
X109561549Y-103787600D01*
X109875431Y-104463775D01*
X110103209Y-105047748D01*
X110256917Y-105585314D01*
X110348591Y-106122266D01*
X110390265Y-106704397D01*
X110395643Y-106961430D01*
X110408121Y-107441430D01*
X110441233Y-107762192D01*
X110504855Y-107933469D01*
X110608864Y-107965015D01*
X110763137Y-107866582D01*
X110977550Y-107647924D01*
X111030519Y-107588352D01*
X111456691Y-106993572D01*
X111789044Y-106303678D01*
X112012213Y-105565448D01*
X112110833Y-104825658D01*
X112104205Y-104570770D01*
X111493508Y-104570770D01*
X111463129Y-105302301D01*
X111327973Y-105974622D01*
X111288933Y-106094767D01*
X111191547Y-106312885D01*
X111104649Y-106373871D01*
X111026302Y-106274832D01*
X110954570Y-106012871D01*
X110887517Y-105585094D01*
X110873896Y-105474326D01*
X110833067Y-105026967D01*
X110811621Y-104570137D01*
X110812053Y-104173887D01*
X110821868Y-104013826D01*
X110877064Y-103486210D01*
X110928846Y-103118242D01*
X110981977Y-102900435D01*
X111041222Y-102823301D01*
X111111344Y-102877352D01*
X111197109Y-103053101D01*
X111243704Y-103173767D01*
X111420052Y-103840951D01*
X111493508Y-104570770D01*
X112104205Y-104570770D01*
X112098149Y-104337933D01*
X111976506Y-103674877D01*
X111756428Y-103007704D01*
X111459011Y-102383050D01*
X111105351Y-101847551D01*
X110838606Y-101553521D01*
X110680191Y-101422367D01*
X110565991Y-101382756D01*
X110488907Y-101450017D01*
X110441842Y-101639480D01*
X110417697Y-101966476D01*
X110409375Y-102446336D01*
X110409222Y-102480937D01*
X110401925Y-102894100D01*
X110385070Y-103250615D01*
X110361130Y-103513506D01*
X110332578Y-103645797D01*
X110331158Y-103648190D01*
X110265949Y-103667538D01*
X110166469Y-103555812D01*
X110021292Y-103299680D01*
X110004626Y-103267190D01*
X109579786Y-102541356D01*
X109071973Y-101850710D01*
X108514288Y-101234320D01*
X107939831Y-100731258D01*
X107729005Y-100581236D01*
X106987219Y-100187234D01*
X106175914Y-99932029D01*
X105325185Y-99817484D01*
X104465126Y-99845460D01*
D14*
G04 #@! TO.C,R39*
X183406221Y-93234000D02*
X183731779Y-93234000D01*
X183406221Y-94254000D02*
X183731779Y-94254000D01*
G04 #@! TO.C,R40*
X186806221Y-93221500D02*
X187131779Y-93221500D01*
X186806221Y-94241500D02*
X187131779Y-94241500D01*
G04 #@! TO.C,R53*
X155162779Y-71410000D02*
X154837221Y-71410000D01*
X155162779Y-70390000D02*
X154837221Y-70390000D01*
G04 #@! TO.C,R54*
X190430179Y-79212600D02*
X190104621Y-79212600D01*
X190430179Y-78192600D02*
X190104621Y-78192600D01*
G04 #@! TO.C,R55*
X134737000Y-98869779D02*
X134737000Y-98544221D01*
X135757000Y-98869779D02*
X135757000Y-98544221D01*
G04 #@! TO.C,R56*
X139571000Y-68996779D02*
X139571000Y-68671221D01*
X140591000Y-68996779D02*
X140591000Y-68671221D01*
G04 #@! TO.C,R20*
X91602779Y-76964000D02*
X91277221Y-76964000D01*
X91602779Y-75944000D02*
X91277221Y-75944000D01*
G04 #@! TO.C,R22*
X101691221Y-71880000D02*
X102016779Y-71880000D01*
X101691221Y-72900000D02*
X102016779Y-72900000D01*
G04 #@! TO.C,R23*
X102016779Y-74932000D02*
X101691221Y-74932000D01*
X102016779Y-73912000D02*
X101691221Y-73912000D01*
G04 #@! TO.C,C20*
X77597400Y-91624022D02*
X77597400Y-92141178D01*
X79017400Y-91624022D02*
X79017400Y-92141178D01*
G04 #@! TO.C,C22*
X79707400Y-91624022D02*
X79707400Y-92141178D01*
X81127400Y-91624022D02*
X81127400Y-92141178D01*
G04 #@! TO.C,C64*
X94692400Y-90352321D02*
X94692400Y-90677879D01*
X93672400Y-90352321D02*
X93672400Y-90677879D01*
G04 #@! TO.C,C66*
X112613221Y-86358000D02*
X112938779Y-86358000D01*
X112613221Y-87378000D02*
X112938779Y-87378000D01*
G04 #@! TO.C,C98*
X128095179Y-70612600D02*
X127769621Y-70612600D01*
X128095179Y-69592600D02*
X127769621Y-69592600D01*
G04 #@! TO.C,C99*
X135798779Y-69471000D02*
X135473221Y-69471000D01*
X135798779Y-68451000D02*
X135473221Y-68451000D01*
G04 #@! TO.C,JP2*
X112157400Y-85277600D02*
X113557400Y-85277600D01*
X114257400Y-84577600D02*
X114257400Y-83977600D01*
X113557400Y-83277600D02*
X112157400Y-83277600D01*
X111457400Y-83977600D02*
X111457400Y-84577600D01*
X111457400Y-84577600D02*
G75*
G03X112157400Y-85277600I700000J0D01*
G01*
X112157400Y-83277600D02*
G75*
G03X111457400Y-83977600I0J-700000D01*
G01*
X114257400Y-83977600D02*
G75*
G03X113557400Y-83277600I-700000J0D01*
G01*
X113557400Y-85277600D02*
G75*
G03X114257400Y-84577600I0J700000D01*
G01*
G04 #@! TO.C,JP3*
X108774000Y-87360000D02*
X110174000Y-87360000D01*
X110874000Y-86660000D02*
X110874000Y-86060000D01*
X110174000Y-85360000D02*
X108774000Y-85360000D01*
X108074000Y-86060000D02*
X108074000Y-86660000D01*
X108074000Y-86660000D02*
G75*
G03X108774000Y-87360000I700000J0D01*
G01*
X108774000Y-85360000D02*
G75*
G03X108074000Y-86060000I0J-700000D01*
G01*
X110874000Y-86060000D02*
G75*
G03X110174000Y-85360000I-700000J0D01*
G01*
X110174000Y-87360000D02*
G75*
G03X110874000Y-86660000I0J700000D01*
G01*
G04 #@! TO.C,JP4*
X101154000Y-82915000D02*
X102554000Y-82915000D01*
X103254000Y-82215000D02*
X103254000Y-81615000D01*
X102554000Y-80915000D02*
X101154000Y-80915000D01*
X100454000Y-81615000D02*
X100454000Y-82215000D01*
X100454000Y-82215000D02*
G75*
G03X101154000Y-82915000I700000J0D01*
G01*
X101154000Y-80915000D02*
G75*
G03X100454000Y-81615000I0J-700000D01*
G01*
X103254000Y-81615000D02*
G75*
G03X102554000Y-80915000I-700000J0D01*
G01*
X102554000Y-82915000D02*
G75*
G03X103254000Y-82215000I0J700000D01*
G01*
G04 #@! TO.C,JP5*
X101408000Y-86852000D02*
X102808000Y-86852000D01*
X103508000Y-86152000D02*
X103508000Y-85552000D01*
X102808000Y-84852000D02*
X101408000Y-84852000D01*
X100708000Y-85552000D02*
X100708000Y-86152000D01*
X100708000Y-86152000D02*
G75*
G03X101408000Y-86852000I700000J0D01*
G01*
X101408000Y-84852000D02*
G75*
G03X100708000Y-85552000I0J-700000D01*
G01*
X103508000Y-85552000D02*
G75*
G03X102808000Y-84852000I-700000J0D01*
G01*
X102808000Y-86852000D02*
G75*
G03X103508000Y-86152000I0J700000D01*
G01*
G04 #@! TO.C,JP6*
X97090000Y-82915000D02*
X98490000Y-82915000D01*
X99190000Y-82215000D02*
X99190000Y-81615000D01*
X98490000Y-80915000D02*
X97090000Y-80915000D01*
X96390000Y-81615000D02*
X96390000Y-82215000D01*
X96390000Y-82215000D02*
G75*
G03X97090000Y-82915000I700000J0D01*
G01*
X97090000Y-80915000D02*
G75*
G03X96390000Y-81615000I0J-700000D01*
G01*
X99190000Y-81615000D02*
G75*
G03X98490000Y-80915000I-700000J0D01*
G01*
X98490000Y-82915000D02*
G75*
G03X99190000Y-82215000I0J700000D01*
G01*
G04 #@! TO.C,JP7*
X121730000Y-111034000D02*
X121730000Y-112434000D01*
X122430000Y-113134000D02*
X123030000Y-113134000D01*
X123730000Y-112434000D02*
X123730000Y-111034000D01*
X123030000Y-110334000D02*
X122430000Y-110334000D01*
X122430000Y-110334000D02*
G75*
G03X121730000Y-111034000I0J-700000D01*
G01*
X123730000Y-111034000D02*
G75*
G03X123030000Y-110334000I-700000J0D01*
G01*
X123030000Y-113134000D02*
G75*
G03X123730000Y-112434000I0J700000D01*
G01*
X121730000Y-112434000D02*
G75*
G03X122430000Y-113134000I700000J0D01*
G01*
G04 #@! TO.C,JP8*
X124630000Y-111034000D02*
X124630000Y-112434000D01*
X125330000Y-113134000D02*
X125930000Y-113134000D01*
X126630000Y-112434000D02*
X126630000Y-111034000D01*
X125930000Y-110334000D02*
X125330000Y-110334000D01*
X125330000Y-110334000D02*
G75*
G03X124630000Y-111034000I0J-700000D01*
G01*
X126630000Y-111034000D02*
G75*
G03X125930000Y-110334000I-700000J0D01*
G01*
X125930000Y-113134000D02*
G75*
G03X126630000Y-112434000I0J700000D01*
G01*
X124630000Y-112434000D02*
G75*
G03X125330000Y-113134000I700000J0D01*
G01*
G04 #@! TO.C,JP9*
X129430000Y-112434000D02*
X129430000Y-111034000D01*
X128730000Y-110334000D02*
X128130000Y-110334000D01*
X127430000Y-111034000D02*
X127430000Y-112434000D01*
X128130000Y-113134000D02*
X128730000Y-113134000D01*
X128730000Y-113134000D02*
G75*
G03X129430000Y-112434000I0J700000D01*
G01*
X127430000Y-112434000D02*
G75*
G03X128130000Y-113134000I700000J0D01*
G01*
X128130000Y-110334000D02*
G75*
G03X127430000Y-111034000I0J-700000D01*
G01*
X129430000Y-111034000D02*
G75*
G03X128730000Y-110334000I-700000J0D01*
G01*
G04 #@! TO.C,JP10*
X132130000Y-112434000D02*
X132130000Y-111034000D01*
X131430000Y-110334000D02*
X130830000Y-110334000D01*
X130130000Y-111034000D02*
X130130000Y-112434000D01*
X130830000Y-113134000D02*
X131430000Y-113134000D01*
X131430000Y-113134000D02*
G75*
G03X132130000Y-112434000I0J700000D01*
G01*
X130130000Y-112434000D02*
G75*
G03X130830000Y-113134000I700000J0D01*
G01*
X130830000Y-110334000D02*
G75*
G03X130130000Y-111034000I0J-700000D01*
G01*
X132130000Y-111034000D02*
G75*
G03X131430000Y-110334000I-700000J0D01*
G01*
G04 #@! TO.C,JP11*
X121550000Y-66000000D02*
X122950000Y-66000000D01*
X123650000Y-65300000D02*
X123650000Y-64700000D01*
X122950000Y-64000000D02*
X121550000Y-64000000D01*
X120850000Y-64700000D02*
X120850000Y-65300000D01*
X120850000Y-65300000D02*
G75*
G03X121550000Y-66000000I700000J0D01*
G01*
X121550000Y-64000000D02*
G75*
G03X120850000Y-64700000I0J-700000D01*
G01*
X123650000Y-64700000D02*
G75*
G03X122950000Y-64000000I-700000J0D01*
G01*
X122950000Y-66000000D02*
G75*
G03X123650000Y-65300000I0J700000D01*
G01*
G04 #@! TO.C,JP12*
X113900000Y-66100000D02*
X115300000Y-66100000D01*
X116000000Y-65400000D02*
X116000000Y-64800000D01*
X115300000Y-64100000D02*
X113900000Y-64100000D01*
X113200000Y-64800000D02*
X113200000Y-65400000D01*
X113200000Y-65400000D02*
G75*
G03X113900000Y-66100000I700000J0D01*
G01*
X113900000Y-64100000D02*
G75*
G03X113200000Y-64800000I0J-700000D01*
G01*
X116000000Y-64800000D02*
G75*
G03X115300000Y-64100000I-700000J0D01*
G01*
X115300000Y-66100000D02*
G75*
G03X116000000Y-65400000I0J700000D01*
G01*
G04 #@! TO.C,JP13*
X117800000Y-66100000D02*
X119200000Y-66100000D01*
X119900000Y-65400000D02*
X119900000Y-64800000D01*
X119200000Y-64100000D02*
X117800000Y-64100000D01*
X117100000Y-64800000D02*
X117100000Y-65400000D01*
X117100000Y-65400000D02*
G75*
G03X117800000Y-66100000I700000J0D01*
G01*
X117800000Y-64100000D02*
G75*
G03X117100000Y-64800000I0J-700000D01*
G01*
X119900000Y-64800000D02*
G75*
G03X119200000Y-64100000I-700000J0D01*
G01*
X119200000Y-66100000D02*
G75*
G03X119900000Y-65400000I0J700000D01*
G01*
G04 #@! TO.C,JP14*
X135828000Y-71644000D02*
X134428000Y-71644000D01*
X133728000Y-72344000D02*
X133728000Y-72944000D01*
X134428000Y-73644000D02*
X135828000Y-73644000D01*
X136528000Y-72944000D02*
X136528000Y-72344000D01*
X136528000Y-72344000D02*
G75*
G03X135828000Y-71644000I-700000J0D01*
G01*
X135828000Y-73644000D02*
G75*
G03X136528000Y-72944000I0J700000D01*
G01*
X133728000Y-72944000D02*
G75*
G03X134428000Y-73644000I700000J0D01*
G01*
X134428000Y-71644000D02*
G75*
G03X133728000Y-72344000I0J-700000D01*
G01*
G04 #@! TO.C,JP15*
X134800000Y-66532000D02*
X136200000Y-66532000D01*
X136900000Y-65832000D02*
X136900000Y-65232000D01*
X136200000Y-64532000D02*
X134800000Y-64532000D01*
X134100000Y-65232000D02*
X134100000Y-65832000D01*
X134100000Y-65832000D02*
G75*
G03X134800000Y-66532000I700000J0D01*
G01*
X134800000Y-64532000D02*
G75*
G03X134100000Y-65232000I0J-700000D01*
G01*
X136900000Y-65232000D02*
G75*
G03X136200000Y-64532000I-700000J0D01*
G01*
X136200000Y-66532000D02*
G75*
G03X136900000Y-65832000I0J700000D01*
G01*
G04 #@! TO.C,Q12*
X156327000Y-74674000D02*
X156327000Y-73214000D01*
X153167000Y-74674000D02*
X153167000Y-72514000D01*
X153167000Y-74674000D02*
X154097000Y-74674000D01*
X156327000Y-74674000D02*
X155397000Y-74674000D01*
G04 #@! TO.C,Q13*
X185121500Y-77982000D02*
X185121500Y-79442000D01*
X188281500Y-77982000D02*
X188281500Y-80142000D01*
X188281500Y-77982000D02*
X187351500Y-77982000D01*
X185121500Y-77982000D02*
X186051500Y-77982000D01*
G04 #@! TO.C,TP20*
X131097000Y-69594000D02*
X132207000Y-69594000D01*
X131097000Y-68834000D02*
X131097000Y-69594000D01*
X132770471Y-68074000D02*
X133317000Y-68074000D01*
X131097000Y-68074000D02*
X131643529Y-68074000D01*
X133317000Y-68074000D02*
X133317000Y-68139000D01*
X131097000Y-68074000D02*
X131097000Y-68139000D01*
X131097000Y-68074000D02*
X133317000Y-68074000D01*
G04 #@! TO.C,JP16*
X190370000Y-71328000D02*
X190370000Y-71928000D01*
X192470000Y-70628000D02*
X191070000Y-70628000D01*
X193170000Y-71928000D02*
X193170000Y-71328000D01*
X191070000Y-72628000D02*
X192470000Y-72628000D01*
X192470000Y-72628000D02*
G75*
G03X193170000Y-71928000I0J700000D01*
G01*
X193170000Y-71328000D02*
G75*
G03X192470000Y-70628000I-700000J0D01*
G01*
X191070000Y-70628000D02*
G75*
G03X190370000Y-71328000I0J-700000D01*
G01*
X190370000Y-71928000D02*
G75*
G03X191070000Y-72628000I700000J0D01*
G01*
G04 #@! TO.C,Q4*
X173480000Y-102052000D02*
X172020000Y-102052000D01*
X173480000Y-105212000D02*
X171320000Y-105212000D01*
X173480000Y-105212000D02*
X173480000Y-104282000D01*
X173480000Y-102052000D02*
X173480000Y-102982000D01*
G04 #@! TO.C,Q7*
X173480000Y-98242000D02*
X173480000Y-99172000D01*
X173480000Y-101402000D02*
X173480000Y-100472000D01*
X173480000Y-101402000D02*
X171320000Y-101402000D01*
X173480000Y-98242000D02*
X172020000Y-98242000D01*
G04 #@! TO.C,R16*
X87357221Y-67150000D02*
X87682779Y-67150000D01*
X87357221Y-68170000D02*
X87682779Y-68170000D01*
G04 #@! TO.C,R42*
X152758422Y-102555000D02*
X153275578Y-102555000D01*
X152758422Y-103975000D02*
X153275578Y-103975000D01*
G04 #@! TO.C,R47*
X114315978Y-92867600D02*
X113798822Y-92867600D01*
X114315978Y-94287600D02*
X113798822Y-94287600D01*
G04 #@! TO.C,R48*
X87165978Y-96462600D02*
X86648822Y-96462600D01*
X87165978Y-95042600D02*
X86648822Y-95042600D01*
G04 #@! TO.C,R51*
X110680336Y-90937600D02*
X111884464Y-90937600D01*
X110680336Y-89117600D02*
X111884464Y-89117600D01*
G04 #@! TO.C,R57*
X140114936Y-102255000D02*
X141319064Y-102255000D01*
X140114936Y-104075000D02*
X141319064Y-104075000D01*
G04 #@! TO.C,R58*
X145727436Y-104075000D02*
X146931564Y-104075000D01*
X145727436Y-102255000D02*
X146931564Y-102255000D01*
G04 #@! TO.C,R64*
X169275979Y-103204740D02*
X168950421Y-103204740D01*
X169275979Y-102184740D02*
X168950421Y-102184740D01*
G04 #@! TO.C,R65*
X169326779Y-99820000D02*
X169001221Y-99820000D01*
X169326779Y-100840000D02*
X169001221Y-100840000D01*
G04 #@! TO.C,R74*
X105786422Y-81205000D02*
X106303578Y-81205000D01*
X105786422Y-82625000D02*
X106303578Y-82625000D01*
G04 #@! TO.C,R75*
X93721422Y-95706000D02*
X94238578Y-95706000D01*
X93721422Y-94286000D02*
X94238578Y-94286000D01*
G04 #@! TO.C,R76*
X94238578Y-92000000D02*
X93721422Y-92000000D01*
X94238578Y-93420000D02*
X93721422Y-93420000D01*
G04 #@! TO.C,R77*
X96466922Y-89356000D02*
X96984078Y-89356000D01*
X96466922Y-87936000D02*
X96984078Y-87936000D01*
G04 #@! TO.C,R81*
X110948822Y-74492600D02*
X111465978Y-74492600D01*
X110948822Y-75912600D02*
X111465978Y-75912600D01*
G04 #@! TO.C,R90*
X118658578Y-63110000D02*
X118141422Y-63110000D01*
X118658578Y-61690000D02*
X118141422Y-61690000D01*
G04 #@! TO.C,R91*
X125773822Y-65967600D02*
X126290978Y-65967600D01*
X125773822Y-67387600D02*
X126290978Y-67387600D01*
G04 #@! TO.C,R92*
X120575000Y-80513422D02*
X120575000Y-81030578D01*
X121995000Y-80513422D02*
X121995000Y-81030578D01*
G04 #@! TO.C,R95*
X132790000Y-72902578D02*
X132790000Y-72385422D01*
X131370000Y-72902578D02*
X131370000Y-72385422D01*
G04 #@! TO.C,R97*
X130130336Y-63742600D02*
X131334464Y-63742600D01*
X130130336Y-65562600D02*
X131334464Y-65562600D01*
G04 #@! TO.C,Q8*
X93089000Y-86939000D02*
X91629000Y-86939000D01*
X93089000Y-90099000D02*
X90929000Y-90099000D01*
X93089000Y-90099000D02*
X93089000Y-89169000D01*
X93089000Y-86939000D02*
X93089000Y-87869000D01*
G04 #@! TO.C,Q10*
X144254000Y-67442000D02*
X144254000Y-68372000D01*
X144254000Y-70602000D02*
X144254000Y-69672000D01*
X144254000Y-70602000D02*
X142094000Y-70602000D01*
X144254000Y-67442000D02*
X142794000Y-67442000D01*
G04 #@! TO.C,R43*
X90172000Y-89062779D02*
X90172000Y-88737221D01*
X89152000Y-89062779D02*
X89152000Y-88737221D01*
G04 #@! TO.C,R70*
X116931221Y-95184500D02*
X117256779Y-95184500D01*
X116931221Y-96204500D02*
X117256779Y-96204500D01*
G04 #@! TO.C,R71*
X112544621Y-100612600D02*
X112870179Y-100612600D01*
X112544621Y-99592600D02*
X112870179Y-99592600D01*
G04 #@! TO.C,R102*
X160449522Y-103897500D02*
X160966678Y-103897500D01*
X160449522Y-102477500D02*
X160966678Y-102477500D01*
G04 #@! TO.C,JP17*
X118357400Y-109902600D02*
X119757400Y-109902600D01*
X120457400Y-109202600D02*
X120457400Y-108602600D01*
X119757400Y-107902600D02*
X118357400Y-107902600D01*
X117657400Y-108602600D02*
X117657400Y-109202600D01*
X117657400Y-109202600D02*
G75*
G03X118357400Y-109902600I700000J0D01*
G01*
X118357400Y-107902600D02*
G75*
G03X117657400Y-108602600I0J-700000D01*
G01*
X120457400Y-108602600D02*
G75*
G03X119757400Y-107902600I-700000J0D01*
G01*
X119757400Y-109902600D02*
G75*
G03X120457400Y-109202600I0J700000D01*
G01*
G04 #@! TO.C,JP18*
X163557400Y-101952600D02*
X163557400Y-102552600D01*
X165657400Y-101252600D02*
X164257400Y-101252600D01*
X166357400Y-102552600D02*
X166357400Y-101952600D01*
X164257400Y-103252600D02*
X165657400Y-103252600D01*
X165657400Y-103252600D02*
G75*
G03X166357400Y-102552600I0J700000D01*
G01*
X166357400Y-101952600D02*
G75*
G03X165657400Y-101252600I-700000J0D01*
G01*
X164257400Y-101252600D02*
G75*
G03X163557400Y-101952600I0J-700000D01*
G01*
X163557400Y-102552600D02*
G75*
G03X164257400Y-103252600I700000J0D01*
G01*
G04 #@! TD*
G04 #@! TO.C,R99*
D16*
X110350257Y-71049980D02*
X110683590Y-70573790D01*
X110921685Y-71049980D02*
X110921685Y-70049980D01*
X110540733Y-70049980D01*
X110445495Y-70097600D01*
X110397876Y-70145219D01*
X110350257Y-70240457D01*
X110350257Y-70383314D01*
X110397876Y-70478552D01*
X110445495Y-70526171D01*
X110540733Y-70573790D01*
X110921685Y-70573790D01*
X109874066Y-71049980D02*
X109683590Y-71049980D01*
X109588352Y-71002361D01*
X109540733Y-70954742D01*
X109445495Y-70811885D01*
X109397876Y-70621409D01*
X109397876Y-70240457D01*
X109445495Y-70145219D01*
X109493114Y-70097600D01*
X109588352Y-70049980D01*
X109778828Y-70049980D01*
X109874066Y-70097600D01*
X109921685Y-70145219D01*
X109969304Y-70240457D01*
X109969304Y-70478552D01*
X109921685Y-70573790D01*
X109874066Y-70621409D01*
X109778828Y-70669028D01*
X109588352Y-70669028D01*
X109493114Y-70621409D01*
X109445495Y-70573790D01*
X109397876Y-70478552D01*
X108921685Y-71049980D02*
X108731209Y-71049980D01*
X108635971Y-71002361D01*
X108588352Y-70954742D01*
X108493114Y-70811885D01*
X108445495Y-70621409D01*
X108445495Y-70240457D01*
X108493114Y-70145219D01*
X108540733Y-70097600D01*
X108635971Y-70049980D01*
X108826447Y-70049980D01*
X108921685Y-70097600D01*
X108969304Y-70145219D01*
X109016923Y-70240457D01*
X109016923Y-70478552D01*
X108969304Y-70573790D01*
X108921685Y-70621409D01*
X108826447Y-70669028D01*
X108635971Y-70669028D01*
X108540733Y-70621409D01*
X108493114Y-70573790D01*
X108445495Y-70478552D01*
G04 #@! TO.C,R49*
D10*
X106114000Y-88200666D02*
X106347333Y-87867333D01*
X106514000Y-88200666D02*
X106514000Y-87500666D01*
X106247333Y-87500666D01*
X106180666Y-87534000D01*
X106147333Y-87567333D01*
X106114000Y-87634000D01*
X106114000Y-87734000D01*
X106147333Y-87800666D01*
X106180666Y-87834000D01*
X106247333Y-87867333D01*
X106514000Y-87867333D01*
X105514000Y-87734000D02*
X105514000Y-88200666D01*
X105680666Y-87467333D02*
X105847333Y-87967333D01*
X105414000Y-87967333D01*
X105114000Y-88200666D02*
X104980666Y-88200666D01*
X104914000Y-88167333D01*
X104880666Y-88134000D01*
X104814000Y-88034000D01*
X104780666Y-87900666D01*
X104780666Y-87634000D01*
X104814000Y-87567333D01*
X104847333Y-87534000D01*
X104914000Y-87500666D01*
X105047333Y-87500666D01*
X105114000Y-87534000D01*
X105147333Y-87567333D01*
X105180666Y-87634000D01*
X105180666Y-87800666D01*
X105147333Y-87867333D01*
X105114000Y-87900666D01*
X105047333Y-87934000D01*
X104914000Y-87934000D01*
X104847333Y-87900666D01*
X104814000Y-87867333D01*
X104780666Y-87800666D01*
X106747333Y-88516666D02*
X106614000Y-88516666D01*
X106547333Y-88550000D01*
X106480666Y-88616666D01*
X106447333Y-88750000D01*
X106447333Y-88983333D01*
X106480666Y-89116666D01*
X106547333Y-89183333D01*
X106614000Y-89216666D01*
X106747333Y-89216666D01*
X106814000Y-89183333D01*
X106880666Y-89116666D01*
X106914000Y-88983333D01*
X106914000Y-88750000D01*
X106880666Y-88616666D01*
X106814000Y-88550000D01*
X106747333Y-88516666D01*
X106147333Y-89216666D02*
X106147333Y-88516666D01*
X105880666Y-88516666D01*
X105814000Y-88550000D01*
X105780666Y-88583333D01*
X105747333Y-88650000D01*
X105747333Y-88750000D01*
X105780666Y-88816666D01*
X105814000Y-88850000D01*
X105880666Y-88883333D01*
X106147333Y-88883333D01*
X105547333Y-88516666D02*
X105147333Y-88516666D01*
X105347333Y-89216666D02*
X105347333Y-88516666D01*
X104947333Y-89216666D02*
X104780666Y-89216666D01*
X104780666Y-89083333D01*
X104847333Y-89050000D01*
X104914000Y-88983333D01*
X104947333Y-88883333D01*
X104947333Y-88716666D01*
X104914000Y-88616666D01*
X104847333Y-88550000D01*
X104747333Y-88516666D01*
X104614000Y-88516666D01*
X104514000Y-88550000D01*
X104447333Y-88616666D01*
X104414000Y-88716666D01*
X104414000Y-88883333D01*
X104447333Y-88983333D01*
X104514000Y-89050000D01*
X104580666Y-89083333D01*
X104580666Y-89216666D01*
X104414000Y-89216666D01*
G04 #@! TO.C,Q9*
D16*
X137882238Y-101754619D02*
X137977476Y-101707000D01*
X138072714Y-101611761D01*
X138215571Y-101468904D01*
X138310809Y-101421285D01*
X138406047Y-101421285D01*
X138358428Y-101659380D02*
X138453666Y-101611761D01*
X138548904Y-101516523D01*
X138596523Y-101326047D01*
X138596523Y-100992714D01*
X138548904Y-100802238D01*
X138453666Y-100707000D01*
X138358428Y-100659380D01*
X138167952Y-100659380D01*
X138072714Y-100707000D01*
X137977476Y-100802238D01*
X137929857Y-100992714D01*
X137929857Y-101326047D01*
X137977476Y-101516523D01*
X138072714Y-101611761D01*
X138167952Y-101659380D01*
X138358428Y-101659380D01*
X137453666Y-101659380D02*
X137263190Y-101659380D01*
X137167952Y-101611761D01*
X137120333Y-101564142D01*
X137025095Y-101421285D01*
X136977476Y-101230809D01*
X136977476Y-100849857D01*
X137025095Y-100754619D01*
X137072714Y-100707000D01*
X137167952Y-100659380D01*
X137358428Y-100659380D01*
X137453666Y-100707000D01*
X137501285Y-100754619D01*
X137548904Y-100849857D01*
X137548904Y-101087952D01*
X137501285Y-101183190D01*
X137453666Y-101230809D01*
X137358428Y-101278428D01*
X137167952Y-101278428D01*
X137072714Y-101230809D01*
X137025095Y-101183190D01*
X136977476Y-101087952D01*
G04 #@! TO.C,C100*
D10*
X99170300Y-73130666D02*
X99203633Y-73097333D01*
X99236966Y-72997333D01*
X99236966Y-72930666D01*
X99203633Y-72830666D01*
X99136966Y-72764000D01*
X99070300Y-72730666D01*
X98936966Y-72697333D01*
X98836966Y-72697333D01*
X98703633Y-72730666D01*
X98636966Y-72764000D01*
X98570300Y-72830666D01*
X98536966Y-72930666D01*
X98536966Y-72997333D01*
X98570300Y-73097333D01*
X98603633Y-73130666D01*
X99236966Y-73797333D02*
X99236966Y-73397333D01*
X99236966Y-73597333D02*
X98536966Y-73597333D01*
X98636966Y-73530666D01*
X98703633Y-73464000D01*
X98736966Y-73397333D01*
X98536966Y-74230666D02*
X98536966Y-74297333D01*
X98570300Y-74364000D01*
X98603633Y-74397333D01*
X98670300Y-74430666D01*
X98803633Y-74464000D01*
X98970300Y-74464000D01*
X99103633Y-74430666D01*
X99170300Y-74397333D01*
X99203633Y-74364000D01*
X99236966Y-74297333D01*
X99236966Y-74230666D01*
X99203633Y-74164000D01*
X99170300Y-74130666D01*
X99103633Y-74097333D01*
X98970300Y-74064000D01*
X98803633Y-74064000D01*
X98670300Y-74097333D01*
X98603633Y-74130666D01*
X98570300Y-74164000D01*
X98536966Y-74230666D01*
X98536966Y-74897333D02*
X98536966Y-74964000D01*
X98570300Y-75030666D01*
X98603633Y-75064000D01*
X98670300Y-75097333D01*
X98803633Y-75130666D01*
X98970300Y-75130666D01*
X99103633Y-75097333D01*
X99170300Y-75064000D01*
X99203633Y-75030666D01*
X99236966Y-74964000D01*
X99236966Y-74897333D01*
X99203633Y-74830666D01*
X99170300Y-74797333D01*
X99103633Y-74764000D01*
X98970300Y-74730666D01*
X98803633Y-74730666D01*
X98670300Y-74764000D01*
X98603633Y-74797333D01*
X98570300Y-74830666D01*
X98536966Y-74897333D01*
G04 #@! TO.C,C70*
D16*
X95511857Y-84939142D02*
X95559476Y-84986761D01*
X95702333Y-85034380D01*
X95797571Y-85034380D01*
X95940428Y-84986761D01*
X96035666Y-84891523D01*
X96083285Y-84796285D01*
X96130904Y-84605809D01*
X96130904Y-84462952D01*
X96083285Y-84272476D01*
X96035666Y-84177238D01*
X95940428Y-84082000D01*
X95797571Y-84034380D01*
X95702333Y-84034380D01*
X95559476Y-84082000D01*
X95511857Y-84129619D01*
X95178523Y-84034380D02*
X94511857Y-84034380D01*
X94940428Y-85034380D01*
X93940428Y-84034380D02*
X93845190Y-84034380D01*
X93749952Y-84082000D01*
X93702333Y-84129619D01*
X93654714Y-84224857D01*
X93607095Y-84415333D01*
X93607095Y-84653428D01*
X93654714Y-84843904D01*
X93702333Y-84939142D01*
X93749952Y-84986761D01*
X93845190Y-85034380D01*
X93940428Y-85034380D01*
X94035666Y-84986761D01*
X94083285Y-84939142D01*
X94130904Y-84843904D01*
X94178523Y-84653428D01*
X94178523Y-84415333D01*
X94130904Y-84224857D01*
X94083285Y-84129619D01*
X94035666Y-84082000D01*
X93940428Y-84034380D01*
G04 #@! TO.C,C51*
D10*
X181231500Y-95786857D02*
X181264833Y-95819238D01*
X181364833Y-95851619D01*
X181431500Y-95851619D01*
X181531500Y-95819238D01*
X181598166Y-95754476D01*
X181631500Y-95689714D01*
X181664833Y-95560190D01*
X181664833Y-95463047D01*
X181631500Y-95333523D01*
X181598166Y-95268761D01*
X181531500Y-95204000D01*
X181431500Y-95171619D01*
X181364833Y-95171619D01*
X181264833Y-95204000D01*
X181231500Y-95236380D01*
X180598166Y-95171619D02*
X180931500Y-95171619D01*
X180964833Y-95495428D01*
X180931500Y-95463047D01*
X180864833Y-95430666D01*
X180698166Y-95430666D01*
X180631500Y-95463047D01*
X180598166Y-95495428D01*
X180564833Y-95560190D01*
X180564833Y-95722095D01*
X180598166Y-95786857D01*
X180631500Y-95819238D01*
X180698166Y-95851619D01*
X180864833Y-95851619D01*
X180931500Y-95819238D01*
X180964833Y-95786857D01*
X179898166Y-95851619D02*
X180298166Y-95851619D01*
X180098166Y-95851619D02*
X180098166Y-95171619D01*
X180164833Y-95268761D01*
X180231500Y-95333523D01*
X180298166Y-95365904D01*
G04 #@! TO.C,C50*
X188516500Y-95786857D02*
X188549833Y-95819238D01*
X188649833Y-95851619D01*
X188716500Y-95851619D01*
X188816500Y-95819238D01*
X188883166Y-95754476D01*
X188916500Y-95689714D01*
X188949833Y-95560190D01*
X188949833Y-95463047D01*
X188916500Y-95333523D01*
X188883166Y-95268761D01*
X188816500Y-95204000D01*
X188716500Y-95171619D01*
X188649833Y-95171619D01*
X188549833Y-95204000D01*
X188516500Y-95236380D01*
X187883166Y-95171619D02*
X188216500Y-95171619D01*
X188249833Y-95495428D01*
X188216500Y-95463047D01*
X188149833Y-95430666D01*
X187983166Y-95430666D01*
X187916500Y-95463047D01*
X187883166Y-95495428D01*
X187849833Y-95560190D01*
X187849833Y-95722095D01*
X187883166Y-95786857D01*
X187916500Y-95819238D01*
X187983166Y-95851619D01*
X188149833Y-95851619D01*
X188216500Y-95819238D01*
X188249833Y-95786857D01*
X187416500Y-95171619D02*
X187349833Y-95171619D01*
X187283166Y-95204000D01*
X187249833Y-95236380D01*
X187216500Y-95301142D01*
X187183166Y-95430666D01*
X187183166Y-95592571D01*
X187216500Y-95722095D01*
X187249833Y-95786857D01*
X187283166Y-95819238D01*
X187349833Y-95851619D01*
X187416500Y-95851619D01*
X187483166Y-95819238D01*
X187516500Y-95786857D01*
X187549833Y-95722095D01*
X187583166Y-95592571D01*
X187583166Y-95430666D01*
X187549833Y-95301142D01*
X187516500Y-95236380D01*
X187483166Y-95204000D01*
X187416500Y-95171619D01*
G04 #@! TO.C,C18*
X83497800Y-90934000D02*
X83531133Y-90900666D01*
X83564466Y-90800666D01*
X83564466Y-90734000D01*
X83531133Y-90634000D01*
X83464466Y-90567333D01*
X83397800Y-90534000D01*
X83264466Y-90500666D01*
X83164466Y-90500666D01*
X83031133Y-90534000D01*
X82964466Y-90567333D01*
X82897800Y-90634000D01*
X82864466Y-90734000D01*
X82864466Y-90800666D01*
X82897800Y-90900666D01*
X82931133Y-90934000D01*
X83564466Y-91600666D02*
X83564466Y-91200666D01*
X83564466Y-91400666D02*
X82864466Y-91400666D01*
X82964466Y-91334000D01*
X83031133Y-91267333D01*
X83064466Y-91200666D01*
X83164466Y-92000666D02*
X83131133Y-91934000D01*
X83097800Y-91900666D01*
X83031133Y-91867333D01*
X82997800Y-91867333D01*
X82931133Y-91900666D01*
X82897800Y-91934000D01*
X82864466Y-92000666D01*
X82864466Y-92134000D01*
X82897800Y-92200666D01*
X82931133Y-92234000D01*
X82997800Y-92267333D01*
X83031133Y-92267333D01*
X83097800Y-92234000D01*
X83131133Y-92200666D01*
X83164466Y-92134000D01*
X83164466Y-92000666D01*
X83197800Y-91934000D01*
X83231133Y-91900666D01*
X83297800Y-91867333D01*
X83431133Y-91867333D01*
X83497800Y-91900666D01*
X83531133Y-91934000D01*
X83564466Y-92000666D01*
X83564466Y-92134000D01*
X83531133Y-92200666D01*
X83497800Y-92234000D01*
X83431133Y-92267333D01*
X83297800Y-92267333D01*
X83231133Y-92234000D01*
X83197800Y-92200666D01*
X83164466Y-92134000D01*
G04 #@! TO.C,JP1*
D16*
X87682400Y-90941885D02*
X87682400Y-91477600D01*
X87718114Y-91584742D01*
X87789542Y-91656171D01*
X87896685Y-91691885D01*
X87968114Y-91691885D01*
X87325257Y-91691885D02*
X87325257Y-90941885D01*
X87039542Y-90941885D01*
X86968114Y-90977600D01*
X86932400Y-91013314D01*
X86896685Y-91084742D01*
X86896685Y-91191885D01*
X86932400Y-91263314D01*
X86968114Y-91299028D01*
X87039542Y-91334742D01*
X87325257Y-91334742D01*
X86182400Y-91691885D02*
X86610971Y-91691885D01*
X86396685Y-91691885D02*
X86396685Y-90941885D01*
X86468114Y-91049028D01*
X86539542Y-91120457D01*
X86610971Y-91156171D01*
G04 #@! TO.C,D3*
D10*
X94680666Y-80671333D02*
X93980666Y-80671333D01*
X93980666Y-80838000D01*
X94014000Y-80938000D01*
X94080666Y-81004666D01*
X94147333Y-81038000D01*
X94280666Y-81071333D01*
X94380666Y-81071333D01*
X94514000Y-81038000D01*
X94580666Y-81004666D01*
X94647333Y-80938000D01*
X94680666Y-80838000D01*
X94680666Y-80671333D01*
X93980666Y-81304666D02*
X93980666Y-81738000D01*
X94247333Y-81504666D01*
X94247333Y-81604666D01*
X94280666Y-81671333D01*
X94314000Y-81704666D01*
X94380666Y-81738000D01*
X94547333Y-81738000D01*
X94614000Y-81704666D01*
X94647333Y-81671333D01*
X94680666Y-81604666D01*
X94680666Y-81404666D01*
X94647333Y-81338000D01*
X94614000Y-81304666D01*
X91314000Y-79371333D02*
X91347333Y-79338000D01*
X91380666Y-79238000D01*
X91380666Y-79171333D01*
X91347333Y-79071333D01*
X91280666Y-79004666D01*
X91214000Y-78971333D01*
X91080666Y-78938000D01*
X90980666Y-78938000D01*
X90847333Y-78971333D01*
X90780666Y-79004666D01*
X90714000Y-79071333D01*
X90680666Y-79171333D01*
X90680666Y-79238000D01*
X90714000Y-79338000D01*
X90747333Y-79371333D01*
X91380666Y-79671333D02*
X90680666Y-79671333D01*
X91180666Y-79904666D01*
X90680666Y-80138000D01*
X91380666Y-80138000D01*
X91380666Y-80471333D02*
X90680666Y-80471333D01*
X90680666Y-80638000D01*
X90714000Y-80738000D01*
X90780666Y-80804666D01*
X90847333Y-80838000D01*
X90980666Y-80871333D01*
X91080666Y-80871333D01*
X91214000Y-80838000D01*
X91280666Y-80804666D01*
X91347333Y-80738000D01*
X91380666Y-80638000D01*
X91380666Y-80471333D01*
X91347333Y-81138000D02*
X91380666Y-81238000D01*
X91380666Y-81404666D01*
X91347333Y-81471333D01*
X91314000Y-81504666D01*
X91247333Y-81538000D01*
X91180666Y-81538000D01*
X91114000Y-81504666D01*
X91080666Y-81471333D01*
X91047333Y-81404666D01*
X91014000Y-81271333D01*
X90980666Y-81204666D01*
X90947333Y-81171333D01*
X90880666Y-81138000D01*
X90814000Y-81138000D01*
X90747333Y-81171333D01*
X90714000Y-81204666D01*
X90680666Y-81271333D01*
X90680666Y-81438000D01*
X90714000Y-81538000D01*
X91380666Y-81838000D02*
X90680666Y-81838000D01*
X91014000Y-81838000D02*
X91014000Y-82238000D01*
X91380666Y-82238000D02*
X90680666Y-82238000D01*
X91114000Y-82571333D02*
X91114000Y-83104666D01*
X90914000Y-83738000D02*
X91380666Y-83738000D01*
X90647333Y-83571333D02*
X91147333Y-83404666D01*
X91147333Y-83838000D01*
X91014000Y-84104666D02*
X91014000Y-84338000D01*
X91380666Y-84438000D02*
X91380666Y-84104666D01*
X90680666Y-84104666D01*
X90680666Y-84438000D01*
G04 #@! TO.C,D4*
X99526666Y-78800665D02*
X99526666Y-78100665D01*
X99360000Y-78100665D01*
X99260000Y-78133999D01*
X99193333Y-78200665D01*
X99160000Y-78267332D01*
X99126666Y-78400665D01*
X99126666Y-78500665D01*
X99160000Y-78633999D01*
X99193333Y-78700665D01*
X99260000Y-78767332D01*
X99360000Y-78800665D01*
X99526666Y-78800665D01*
X98526666Y-78333999D02*
X98526666Y-78800665D01*
X98693333Y-78067332D02*
X98860000Y-78567332D01*
X98426666Y-78567332D01*
X100818666Y-77717999D02*
X100852000Y-77751332D01*
X100952000Y-77784665D01*
X101018666Y-77784665D01*
X101118666Y-77751332D01*
X101185333Y-77684665D01*
X101218666Y-77617999D01*
X101252000Y-77484665D01*
X101252000Y-77384665D01*
X101218666Y-77251332D01*
X101185333Y-77184665D01*
X101118666Y-77117999D01*
X101018666Y-77084665D01*
X100952000Y-77084665D01*
X100852000Y-77117999D01*
X100818666Y-77151332D01*
X100518666Y-77784665D02*
X100518666Y-77084665D01*
X100285333Y-77584665D01*
X100052000Y-77084665D01*
X100052000Y-77784665D01*
X99718666Y-77784665D02*
X99718666Y-77084665D01*
X99552000Y-77084665D01*
X99452000Y-77117999D01*
X99385333Y-77184665D01*
X99352000Y-77251332D01*
X99318666Y-77384665D01*
X99318666Y-77484665D01*
X99352000Y-77617999D01*
X99385333Y-77684665D01*
X99452000Y-77751332D01*
X99552000Y-77784665D01*
X99718666Y-77784665D01*
X99052000Y-77751332D02*
X98952000Y-77784665D01*
X98785333Y-77784665D01*
X98718666Y-77751332D01*
X98685333Y-77717999D01*
X98652000Y-77651332D01*
X98652000Y-77584665D01*
X98685333Y-77517999D01*
X98718666Y-77484665D01*
X98785333Y-77451332D01*
X98918666Y-77417999D01*
X98985333Y-77384665D01*
X99018666Y-77351332D01*
X99052000Y-77284665D01*
X99052000Y-77217999D01*
X99018666Y-77151332D01*
X98985333Y-77117999D01*
X98918666Y-77084665D01*
X98752000Y-77084665D01*
X98652000Y-77117999D01*
X98352000Y-77784665D02*
X98352000Y-77084665D01*
X98352000Y-77417999D02*
X97952000Y-77417999D01*
X97952000Y-77784665D02*
X97952000Y-77084665D01*
X97618666Y-77517999D02*
X97085333Y-77517999D01*
X96452000Y-77317999D02*
X96452000Y-77784665D01*
X96618666Y-77051332D02*
X96785333Y-77551332D01*
X96352000Y-77551332D01*
X96085333Y-77417999D02*
X95852000Y-77417999D01*
X95752000Y-77784665D02*
X96085333Y-77784665D01*
X96085333Y-77084665D01*
X95752000Y-77084665D01*
G04 #@! TO.C,R39*
X184031500Y-92651619D02*
X184264833Y-92327809D01*
X184431500Y-92651619D02*
X184431500Y-91971619D01*
X184164833Y-91971619D01*
X184098166Y-92004000D01*
X184064833Y-92036380D01*
X184031500Y-92101142D01*
X184031500Y-92198285D01*
X184064833Y-92263047D01*
X184098166Y-92295428D01*
X184164833Y-92327809D01*
X184431500Y-92327809D01*
X183798166Y-91971619D02*
X183364833Y-91971619D01*
X183598166Y-92230666D01*
X183498166Y-92230666D01*
X183431500Y-92263047D01*
X183398166Y-92295428D01*
X183364833Y-92360190D01*
X183364833Y-92522095D01*
X183398166Y-92586857D01*
X183431500Y-92619238D01*
X183498166Y-92651619D01*
X183698166Y-92651619D01*
X183764833Y-92619238D01*
X183798166Y-92586857D01*
X183031500Y-92651619D02*
X182898166Y-92651619D01*
X182831500Y-92619238D01*
X182798166Y-92586857D01*
X182731500Y-92489714D01*
X182698166Y-92360190D01*
X182698166Y-92101142D01*
X182731500Y-92036380D01*
X182764833Y-92004000D01*
X182831500Y-91971619D01*
X182964833Y-91971619D01*
X183031500Y-92004000D01*
X183064833Y-92036380D01*
X183098166Y-92101142D01*
X183098166Y-92263047D01*
X183064833Y-92327809D01*
X183031500Y-92360190D01*
X182964833Y-92392571D01*
X182831500Y-92392571D01*
X182764833Y-92360190D01*
X182731500Y-92327809D01*
X182698166Y-92263047D01*
G04 #@! TO.C,R40*
X187419000Y-92251619D02*
X187652333Y-91927809D01*
X187819000Y-92251619D02*
X187819000Y-91571619D01*
X187552333Y-91571619D01*
X187485666Y-91604000D01*
X187452333Y-91636380D01*
X187419000Y-91701142D01*
X187419000Y-91798285D01*
X187452333Y-91863047D01*
X187485666Y-91895428D01*
X187552333Y-91927809D01*
X187819000Y-91927809D01*
X186819000Y-91798285D02*
X186819000Y-92251619D01*
X186985666Y-91539238D02*
X187152333Y-92024952D01*
X186719000Y-92024952D01*
X186319000Y-91571619D02*
X186252333Y-91571619D01*
X186185666Y-91604000D01*
X186152333Y-91636380D01*
X186119000Y-91701142D01*
X186085666Y-91830666D01*
X186085666Y-91992571D01*
X186119000Y-92122095D01*
X186152333Y-92186857D01*
X186185666Y-92219238D01*
X186252333Y-92251619D01*
X186319000Y-92251619D01*
X186385666Y-92219238D01*
X186419000Y-92186857D01*
X186452333Y-92122095D01*
X186485666Y-91992571D01*
X186485666Y-91830666D01*
X186452333Y-91701142D01*
X186419000Y-91636380D01*
X186385666Y-91604000D01*
X186319000Y-91571619D01*
G04 #@! TO.C,R53*
D16*
X152205642Y-71112285D02*
X152455642Y-70755142D01*
X152634214Y-71112285D02*
X152634214Y-70362285D01*
X152348500Y-70362285D01*
X152277071Y-70398000D01*
X152241357Y-70433714D01*
X152205642Y-70505142D01*
X152205642Y-70612285D01*
X152241357Y-70683714D01*
X152277071Y-70719428D01*
X152348500Y-70755142D01*
X152634214Y-70755142D01*
X151527071Y-70362285D02*
X151884214Y-70362285D01*
X151919928Y-70719428D01*
X151884214Y-70683714D01*
X151812785Y-70648000D01*
X151634214Y-70648000D01*
X151562785Y-70683714D01*
X151527071Y-70719428D01*
X151491357Y-70790857D01*
X151491357Y-70969428D01*
X151527071Y-71040857D01*
X151562785Y-71076571D01*
X151634214Y-71112285D01*
X151812785Y-71112285D01*
X151884214Y-71076571D01*
X151919928Y-71040857D01*
X151241357Y-70362285D02*
X150777071Y-70362285D01*
X151027071Y-70648000D01*
X150919928Y-70648000D01*
X150848500Y-70683714D01*
X150812785Y-70719428D01*
X150777071Y-70790857D01*
X150777071Y-70969428D01*
X150812785Y-71040857D01*
X150848500Y-71076571D01*
X150919928Y-71112285D01*
X151134214Y-71112285D01*
X151205642Y-71076571D01*
X151241357Y-71040857D01*
G04 #@! TO.C,R54*
D10*
X190385400Y-81342219D02*
X190618733Y-81018409D01*
X190785400Y-81342219D02*
X190785400Y-80662219D01*
X190518733Y-80662219D01*
X190452066Y-80694600D01*
X190418733Y-80726980D01*
X190385400Y-80791742D01*
X190385400Y-80888885D01*
X190418733Y-80953647D01*
X190452066Y-80986028D01*
X190518733Y-81018409D01*
X190785400Y-81018409D01*
X189752066Y-80662219D02*
X190085400Y-80662219D01*
X190118733Y-80986028D01*
X190085400Y-80953647D01*
X190018733Y-80921266D01*
X189852066Y-80921266D01*
X189785400Y-80953647D01*
X189752066Y-80986028D01*
X189718733Y-81050790D01*
X189718733Y-81212695D01*
X189752066Y-81277457D01*
X189785400Y-81309838D01*
X189852066Y-81342219D01*
X190018733Y-81342219D01*
X190085400Y-81309838D01*
X190118733Y-81277457D01*
X189118733Y-80888885D02*
X189118733Y-81342219D01*
X189285400Y-80629838D02*
X189452066Y-81115552D01*
X189018733Y-81115552D01*
G04 #@! TO.C,R55*
X135563666Y-100797000D02*
X135230333Y-100563666D01*
X135563666Y-100397000D02*
X134863666Y-100397000D01*
X134863666Y-100663666D01*
X134897000Y-100730333D01*
X134930333Y-100763666D01*
X134997000Y-100797000D01*
X135097000Y-100797000D01*
X135163666Y-100763666D01*
X135197000Y-100730333D01*
X135230333Y-100663666D01*
X135230333Y-100397000D01*
X134863666Y-101430333D02*
X134863666Y-101097000D01*
X135197000Y-101063666D01*
X135163666Y-101097000D01*
X135130333Y-101163666D01*
X135130333Y-101330333D01*
X135163666Y-101397000D01*
X135197000Y-101430333D01*
X135263666Y-101463666D01*
X135430333Y-101463666D01*
X135497000Y-101430333D01*
X135530333Y-101397000D01*
X135563666Y-101330333D01*
X135563666Y-101163666D01*
X135530333Y-101097000D01*
X135497000Y-101063666D01*
X134863666Y-102097000D02*
X134863666Y-101763666D01*
X135197000Y-101730333D01*
X135163666Y-101763666D01*
X135130333Y-101830333D01*
X135130333Y-101997000D01*
X135163666Y-102063666D01*
X135197000Y-102097000D01*
X135263666Y-102130333D01*
X135430333Y-102130333D01*
X135497000Y-102097000D01*
X135530333Y-102063666D01*
X135563666Y-101997000D01*
X135563666Y-101830333D01*
X135530333Y-101763666D01*
X135497000Y-101730333D01*
G04 #@! TO.C,R56*
X141667666Y-68384000D02*
X141334333Y-68150666D01*
X141667666Y-67984000D02*
X140967666Y-67984000D01*
X140967666Y-68250666D01*
X141001000Y-68317333D01*
X141034333Y-68350666D01*
X141101000Y-68384000D01*
X141201000Y-68384000D01*
X141267666Y-68350666D01*
X141301000Y-68317333D01*
X141334333Y-68250666D01*
X141334333Y-67984000D01*
X140967666Y-69017333D02*
X140967666Y-68684000D01*
X141301000Y-68650666D01*
X141267666Y-68684000D01*
X141234333Y-68750666D01*
X141234333Y-68917333D01*
X141267666Y-68984000D01*
X141301000Y-69017333D01*
X141367666Y-69050666D01*
X141534333Y-69050666D01*
X141601000Y-69017333D01*
X141634333Y-68984000D01*
X141667666Y-68917333D01*
X141667666Y-68750666D01*
X141634333Y-68684000D01*
X141601000Y-68650666D01*
X140967666Y-69650666D02*
X140967666Y-69517333D01*
X141001000Y-69450666D01*
X141034333Y-69417333D01*
X141134333Y-69350666D01*
X141267666Y-69317333D01*
X141534333Y-69317333D01*
X141601000Y-69350666D01*
X141634333Y-69384000D01*
X141667666Y-69450666D01*
X141667666Y-69584000D01*
X141634333Y-69650666D01*
X141601000Y-69684000D01*
X141534333Y-69717333D01*
X141367666Y-69717333D01*
X141301000Y-69684000D01*
X141267666Y-69650666D01*
X141234333Y-69584000D01*
X141234333Y-69450666D01*
X141267666Y-69384000D01*
X141301000Y-69350666D01*
X141367666Y-69317333D01*
G04 #@! TO.C,R20*
X91890000Y-75340666D02*
X92123333Y-75007333D01*
X92290000Y-75340666D02*
X92290000Y-74640666D01*
X92023333Y-74640666D01*
X91956666Y-74674000D01*
X91923333Y-74707333D01*
X91890000Y-74774000D01*
X91890000Y-74874000D01*
X91923333Y-74940666D01*
X91956666Y-74974000D01*
X92023333Y-75007333D01*
X92290000Y-75007333D01*
X91623333Y-74707333D02*
X91590000Y-74674000D01*
X91523333Y-74640666D01*
X91356666Y-74640666D01*
X91290000Y-74674000D01*
X91256666Y-74707333D01*
X91223333Y-74774000D01*
X91223333Y-74840666D01*
X91256666Y-74940666D01*
X91656666Y-75340666D01*
X91223333Y-75340666D01*
X90790000Y-74640666D02*
X90723333Y-74640666D01*
X90656666Y-74674000D01*
X90623333Y-74707333D01*
X90590000Y-74774000D01*
X90556666Y-74907333D01*
X90556666Y-75074000D01*
X90590000Y-75207333D01*
X90623333Y-75274000D01*
X90656666Y-75307333D01*
X90723333Y-75340666D01*
X90790000Y-75340666D01*
X90856666Y-75307333D01*
X90890000Y-75274000D01*
X90923333Y-75207333D01*
X90956666Y-75074000D01*
X90956666Y-74907333D01*
X90923333Y-74774000D01*
X90890000Y-74707333D01*
X90856666Y-74674000D01*
X90790000Y-74640666D01*
G04 #@! TO.C,R22*
X102558000Y-71436666D02*
X102791333Y-71103333D01*
X102958000Y-71436666D02*
X102958000Y-70736666D01*
X102691333Y-70736666D01*
X102624666Y-70770000D01*
X102591333Y-70803333D01*
X102558000Y-70870000D01*
X102558000Y-70970000D01*
X102591333Y-71036666D01*
X102624666Y-71070000D01*
X102691333Y-71103333D01*
X102958000Y-71103333D01*
X102291333Y-70803333D02*
X102258000Y-70770000D01*
X102191333Y-70736666D01*
X102024666Y-70736666D01*
X101958000Y-70770000D01*
X101924666Y-70803333D01*
X101891333Y-70870000D01*
X101891333Y-70936666D01*
X101924666Y-71036666D01*
X102324666Y-71436666D01*
X101891333Y-71436666D01*
X101624666Y-70803333D02*
X101591333Y-70770000D01*
X101524666Y-70736666D01*
X101358000Y-70736666D01*
X101291333Y-70770000D01*
X101258000Y-70803333D01*
X101224666Y-70870000D01*
X101224666Y-70936666D01*
X101258000Y-71036666D01*
X101658000Y-71436666D01*
X101224666Y-71436666D01*
G04 #@! TO.C,R23*
X104737400Y-74649266D02*
X104970733Y-74315933D01*
X105137400Y-74649266D02*
X105137400Y-73949266D01*
X104870733Y-73949266D01*
X104804066Y-73982600D01*
X104770733Y-74015933D01*
X104737400Y-74082600D01*
X104737400Y-74182600D01*
X104770733Y-74249266D01*
X104804066Y-74282600D01*
X104870733Y-74315933D01*
X105137400Y-74315933D01*
X104470733Y-74015933D02*
X104437400Y-73982600D01*
X104370733Y-73949266D01*
X104204066Y-73949266D01*
X104137400Y-73982600D01*
X104104066Y-74015933D01*
X104070733Y-74082600D01*
X104070733Y-74149266D01*
X104104066Y-74249266D01*
X104504066Y-74649266D01*
X104070733Y-74649266D01*
X103837400Y-73949266D02*
X103404066Y-73949266D01*
X103637400Y-74215933D01*
X103537400Y-74215933D01*
X103470733Y-74249266D01*
X103437400Y-74282600D01*
X103404066Y-74349266D01*
X103404066Y-74515933D01*
X103437400Y-74582600D01*
X103470733Y-74615933D01*
X103537400Y-74649266D01*
X103737400Y-74649266D01*
X103804066Y-74615933D01*
X103837400Y-74582600D01*
G04 #@! TO.C,C20*
X77382800Y-93820000D02*
X77416133Y-93786666D01*
X77449466Y-93686666D01*
X77449466Y-93620000D01*
X77416133Y-93520000D01*
X77349466Y-93453333D01*
X77282800Y-93420000D01*
X77149466Y-93386666D01*
X77049466Y-93386666D01*
X76916133Y-93420000D01*
X76849466Y-93453333D01*
X76782800Y-93520000D01*
X76749466Y-93620000D01*
X76749466Y-93686666D01*
X76782800Y-93786666D01*
X76816133Y-93820000D01*
X76816133Y-94086666D02*
X76782800Y-94120000D01*
X76749466Y-94186666D01*
X76749466Y-94353333D01*
X76782800Y-94420000D01*
X76816133Y-94453333D01*
X76882800Y-94486666D01*
X76949466Y-94486666D01*
X77049466Y-94453333D01*
X77449466Y-94053333D01*
X77449466Y-94486666D01*
X76749466Y-94920000D02*
X76749466Y-94986666D01*
X76782800Y-95053333D01*
X76816133Y-95086666D01*
X76882800Y-95120000D01*
X77016133Y-95153333D01*
X77182800Y-95153333D01*
X77316133Y-95120000D01*
X77382800Y-95086666D01*
X77416133Y-95053333D01*
X77449466Y-94986666D01*
X77449466Y-94920000D01*
X77416133Y-94853333D01*
X77382800Y-94820000D01*
X77316133Y-94786666D01*
X77182800Y-94753333D01*
X77016133Y-94753333D01*
X76882800Y-94786666D01*
X76816133Y-94820000D01*
X76782800Y-94853333D01*
X76749466Y-94920000D01*
G04 #@! TO.C,C22*
X80631800Y-96345000D02*
X80665133Y-96378333D01*
X80765133Y-96411666D01*
X80831800Y-96411666D01*
X80931800Y-96378333D01*
X80998466Y-96311666D01*
X81031800Y-96245000D01*
X81065133Y-96111666D01*
X81065133Y-96011666D01*
X81031800Y-95878333D01*
X80998466Y-95811666D01*
X80931800Y-95745000D01*
X80831800Y-95711666D01*
X80765133Y-95711666D01*
X80665133Y-95745000D01*
X80631800Y-95778333D01*
X80365133Y-95778333D02*
X80331800Y-95745000D01*
X80265133Y-95711666D01*
X80098466Y-95711666D01*
X80031800Y-95745000D01*
X79998466Y-95778333D01*
X79965133Y-95845000D01*
X79965133Y-95911666D01*
X79998466Y-96011666D01*
X80398466Y-96411666D01*
X79965133Y-96411666D01*
X79698466Y-95778333D02*
X79665133Y-95745000D01*
X79598466Y-95711666D01*
X79431800Y-95711666D01*
X79365133Y-95745000D01*
X79331800Y-95778333D01*
X79298466Y-95845000D01*
X79298466Y-95911666D01*
X79331800Y-96011666D01*
X79731800Y-96411666D01*
X79298466Y-96411666D01*
G04 #@! TO.C,C64*
X93162400Y-90319100D02*
X93195733Y-90285766D01*
X93229066Y-90185766D01*
X93229066Y-90119100D01*
X93195733Y-90019100D01*
X93129066Y-89952433D01*
X93062400Y-89919100D01*
X92929066Y-89885766D01*
X92829066Y-89885766D01*
X92695733Y-89919100D01*
X92629066Y-89952433D01*
X92562400Y-90019100D01*
X92529066Y-90119100D01*
X92529066Y-90185766D01*
X92562400Y-90285766D01*
X92595733Y-90319100D01*
X92529066Y-90919100D02*
X92529066Y-90785766D01*
X92562400Y-90719100D01*
X92595733Y-90685766D01*
X92695733Y-90619100D01*
X92829066Y-90585766D01*
X93095733Y-90585766D01*
X93162400Y-90619100D01*
X93195733Y-90652433D01*
X93229066Y-90719100D01*
X93229066Y-90852433D01*
X93195733Y-90919100D01*
X93162400Y-90952433D01*
X93095733Y-90985766D01*
X92929066Y-90985766D01*
X92862400Y-90952433D01*
X92829066Y-90919100D01*
X92795733Y-90852433D01*
X92795733Y-90719100D01*
X92829066Y-90652433D01*
X92862400Y-90619100D01*
X92929066Y-90585766D01*
X92762400Y-91585766D02*
X93229066Y-91585766D01*
X92495733Y-91419100D02*
X92995733Y-91252433D01*
X92995733Y-91685766D01*
G04 #@! TO.C,C66*
D16*
X113258142Y-88565857D02*
X113293857Y-88601571D01*
X113401000Y-88637285D01*
X113472428Y-88637285D01*
X113579571Y-88601571D01*
X113651000Y-88530142D01*
X113686714Y-88458714D01*
X113722428Y-88315857D01*
X113722428Y-88208714D01*
X113686714Y-88065857D01*
X113651000Y-87994428D01*
X113579571Y-87923000D01*
X113472428Y-87887285D01*
X113401000Y-87887285D01*
X113293857Y-87923000D01*
X113258142Y-87958714D01*
X112615285Y-87887285D02*
X112758142Y-87887285D01*
X112829571Y-87923000D01*
X112865285Y-87958714D01*
X112936714Y-88065857D01*
X112972428Y-88208714D01*
X112972428Y-88494428D01*
X112936714Y-88565857D01*
X112901000Y-88601571D01*
X112829571Y-88637285D01*
X112686714Y-88637285D01*
X112615285Y-88601571D01*
X112579571Y-88565857D01*
X112543857Y-88494428D01*
X112543857Y-88315857D01*
X112579571Y-88244428D01*
X112615285Y-88208714D01*
X112686714Y-88173000D01*
X112829571Y-88173000D01*
X112901000Y-88208714D01*
X112936714Y-88244428D01*
X112972428Y-88315857D01*
X111901000Y-87887285D02*
X112043857Y-87887285D01*
X112115285Y-87923000D01*
X112151000Y-87958714D01*
X112222428Y-88065857D01*
X112258142Y-88208714D01*
X112258142Y-88494428D01*
X112222428Y-88565857D01*
X112186714Y-88601571D01*
X112115285Y-88637285D01*
X111972428Y-88637285D01*
X111901000Y-88601571D01*
X111865285Y-88565857D01*
X111829571Y-88494428D01*
X111829571Y-88315857D01*
X111865285Y-88244428D01*
X111901000Y-88208714D01*
X111972428Y-88173000D01*
X112115285Y-88173000D01*
X112186714Y-88208714D01*
X112222428Y-88244428D01*
X112258142Y-88315857D01*
G04 #@! TO.C,C98*
D10*
X125939800Y-69489000D02*
X125973133Y-69455666D01*
X126006466Y-69355666D01*
X126006466Y-69289000D01*
X125973133Y-69189000D01*
X125906466Y-69122333D01*
X125839800Y-69089000D01*
X125706466Y-69055666D01*
X125606466Y-69055666D01*
X125473133Y-69089000D01*
X125406466Y-69122333D01*
X125339800Y-69189000D01*
X125306466Y-69289000D01*
X125306466Y-69355666D01*
X125339800Y-69455666D01*
X125373133Y-69489000D01*
X126006466Y-69822333D02*
X126006466Y-69955666D01*
X125973133Y-70022333D01*
X125939800Y-70055666D01*
X125839800Y-70122333D01*
X125706466Y-70155666D01*
X125439800Y-70155666D01*
X125373133Y-70122333D01*
X125339800Y-70089000D01*
X125306466Y-70022333D01*
X125306466Y-69889000D01*
X125339800Y-69822333D01*
X125373133Y-69789000D01*
X125439800Y-69755666D01*
X125606466Y-69755666D01*
X125673133Y-69789000D01*
X125706466Y-69822333D01*
X125739800Y-69889000D01*
X125739800Y-70022333D01*
X125706466Y-70089000D01*
X125673133Y-70122333D01*
X125606466Y-70155666D01*
X125606466Y-70555666D02*
X125573133Y-70489000D01*
X125539800Y-70455666D01*
X125473133Y-70422333D01*
X125439800Y-70422333D01*
X125373133Y-70455666D01*
X125339800Y-70489000D01*
X125306466Y-70555666D01*
X125306466Y-70689000D01*
X125339800Y-70755666D01*
X125373133Y-70789000D01*
X125439800Y-70822333D01*
X125473133Y-70822333D01*
X125539800Y-70789000D01*
X125573133Y-70755666D01*
X125606466Y-70689000D01*
X125606466Y-70555666D01*
X125639800Y-70489000D01*
X125673133Y-70455666D01*
X125739800Y-70422333D01*
X125873133Y-70422333D01*
X125939800Y-70455666D01*
X125973133Y-70489000D01*
X126006466Y-70555666D01*
X126006466Y-70689000D01*
X125973133Y-70755666D01*
X125939800Y-70789000D01*
X125873133Y-70822333D01*
X125739800Y-70822333D01*
X125673133Y-70789000D01*
X125639800Y-70755666D01*
X125606466Y-70689000D01*
G04 #@! TO.C,C99*
X136086000Y-70727857D02*
X136119333Y-70760238D01*
X136219333Y-70792619D01*
X136286000Y-70792619D01*
X136386000Y-70760238D01*
X136452666Y-70695476D01*
X136486000Y-70630714D01*
X136519333Y-70501190D01*
X136519333Y-70404047D01*
X136486000Y-70274523D01*
X136452666Y-70209761D01*
X136386000Y-70145000D01*
X136286000Y-70112619D01*
X136219333Y-70112619D01*
X136119333Y-70145000D01*
X136086000Y-70177380D01*
X135752666Y-70792619D02*
X135619333Y-70792619D01*
X135552666Y-70760238D01*
X135519333Y-70727857D01*
X135452666Y-70630714D01*
X135419333Y-70501190D01*
X135419333Y-70242142D01*
X135452666Y-70177380D01*
X135486000Y-70145000D01*
X135552666Y-70112619D01*
X135686000Y-70112619D01*
X135752666Y-70145000D01*
X135786000Y-70177380D01*
X135819333Y-70242142D01*
X135819333Y-70404047D01*
X135786000Y-70468809D01*
X135752666Y-70501190D01*
X135686000Y-70533571D01*
X135552666Y-70533571D01*
X135486000Y-70501190D01*
X135452666Y-70468809D01*
X135419333Y-70404047D01*
X135086000Y-70792619D02*
X134952666Y-70792619D01*
X134886000Y-70760238D01*
X134852666Y-70727857D01*
X134786000Y-70630714D01*
X134752666Y-70501190D01*
X134752666Y-70242142D01*
X134786000Y-70177380D01*
X134819333Y-70145000D01*
X134886000Y-70112619D01*
X135019333Y-70112619D01*
X135086000Y-70145000D01*
X135119333Y-70177380D01*
X135152666Y-70242142D01*
X135152666Y-70404047D01*
X135119333Y-70468809D01*
X135086000Y-70501190D01*
X135019333Y-70533571D01*
X134886000Y-70533571D01*
X134819333Y-70501190D01*
X134786000Y-70468809D01*
X134752666Y-70404047D01*
G04 #@! TO.C,FID2*
X199007400Y-112702600D02*
X199240733Y-112702600D01*
X199240733Y-113069266D02*
X199240733Y-112369266D01*
X198907400Y-112369266D01*
X198640733Y-113069266D02*
X198640733Y-112369266D01*
X198307400Y-113069266D02*
X198307400Y-112369266D01*
X198140733Y-112369266D01*
X198040733Y-112402600D01*
X197974066Y-112469266D01*
X197940733Y-112535933D01*
X197907400Y-112669266D01*
X197907400Y-112769266D01*
X197940733Y-112902600D01*
X197974066Y-112969266D01*
X198040733Y-113035933D01*
X198140733Y-113069266D01*
X198307400Y-113069266D01*
X197640733Y-112435933D02*
X197607400Y-112402600D01*
X197540733Y-112369266D01*
X197374066Y-112369266D01*
X197307400Y-112402600D01*
X197274066Y-112435933D01*
X197240733Y-112502600D01*
X197240733Y-112569266D01*
X197274066Y-112669266D01*
X197674066Y-113069266D01*
X197240733Y-113069266D01*
G04 #@! TO.C,FID3*
X74457400Y-47302600D02*
X74690733Y-47302600D01*
X74690733Y-47669266D02*
X74690733Y-46969266D01*
X74357400Y-46969266D01*
X74090733Y-47669266D02*
X74090733Y-46969266D01*
X73757400Y-47669266D02*
X73757400Y-46969266D01*
X73590733Y-46969266D01*
X73490733Y-47002600D01*
X73424066Y-47069266D01*
X73390733Y-47135933D01*
X73357400Y-47269266D01*
X73357400Y-47369266D01*
X73390733Y-47502600D01*
X73424066Y-47569266D01*
X73490733Y-47635933D01*
X73590733Y-47669266D01*
X73757400Y-47669266D01*
X73124066Y-46969266D02*
X72690733Y-46969266D01*
X72924066Y-47235933D01*
X72824066Y-47235933D01*
X72757400Y-47269266D01*
X72724066Y-47302600D01*
X72690733Y-47369266D01*
X72690733Y-47535933D01*
X72724066Y-47602600D01*
X72757400Y-47635933D01*
X72824066Y-47669266D01*
X73024066Y-47669266D01*
X73090733Y-47635933D01*
X73124066Y-47602600D01*
G04 #@! TO.C,FID4*
X201957400Y-47202600D02*
X202190733Y-47202600D01*
X202190733Y-47569266D02*
X202190733Y-46869266D01*
X201857400Y-46869266D01*
X201590733Y-47569266D02*
X201590733Y-46869266D01*
X201257400Y-47569266D02*
X201257400Y-46869266D01*
X201090733Y-46869266D01*
X200990733Y-46902600D01*
X200924066Y-46969266D01*
X200890733Y-47035933D01*
X200857400Y-47169266D01*
X200857400Y-47269266D01*
X200890733Y-47402600D01*
X200924066Y-47469266D01*
X200990733Y-47535933D01*
X201090733Y-47569266D01*
X201257400Y-47569266D01*
X200257400Y-47102600D02*
X200257400Y-47569266D01*
X200424066Y-46835933D02*
X200590733Y-47335933D01*
X200157400Y-47335933D01*
G04 #@! TO.C,JP2*
D16*
X113482400Y-85666885D02*
X113482400Y-86202600D01*
X113518114Y-86309742D01*
X113589542Y-86381171D01*
X113696685Y-86416885D01*
X113768114Y-86416885D01*
X113125257Y-86416885D02*
X113125257Y-85666885D01*
X112839542Y-85666885D01*
X112768114Y-85702600D01*
X112732400Y-85738314D01*
X112696685Y-85809742D01*
X112696685Y-85916885D01*
X112732400Y-85988314D01*
X112768114Y-86024028D01*
X112839542Y-86059742D01*
X113125257Y-86059742D01*
X112410971Y-85738314D02*
X112375257Y-85702600D01*
X112303828Y-85666885D01*
X112125257Y-85666885D01*
X112053828Y-85702600D01*
X112018114Y-85738314D01*
X111982400Y-85809742D01*
X111982400Y-85881171D01*
X112018114Y-85988314D01*
X112446685Y-86416885D01*
X111982400Y-86416885D01*
G04 #@! TO.C,JP3*
X110099000Y-87749285D02*
X110099000Y-88285000D01*
X110134714Y-88392142D01*
X110206142Y-88463571D01*
X110313285Y-88499285D01*
X110384714Y-88499285D01*
X109741857Y-88499285D02*
X109741857Y-87749285D01*
X109456142Y-87749285D01*
X109384714Y-87785000D01*
X109349000Y-87820714D01*
X109313285Y-87892142D01*
X109313285Y-87999285D01*
X109349000Y-88070714D01*
X109384714Y-88106428D01*
X109456142Y-88142142D01*
X109741857Y-88142142D01*
X109063285Y-87749285D02*
X108599000Y-87749285D01*
X108849000Y-88035000D01*
X108741857Y-88035000D01*
X108670428Y-88070714D01*
X108634714Y-88106428D01*
X108599000Y-88177857D01*
X108599000Y-88356428D01*
X108634714Y-88427857D01*
X108670428Y-88463571D01*
X108741857Y-88499285D01*
X108956142Y-88499285D01*
X109027571Y-88463571D01*
X109063285Y-88427857D01*
G04 #@! TO.C,JP4*
X102687333Y-83780380D02*
X102687333Y-84494666D01*
X102734952Y-84637523D01*
X102830190Y-84732761D01*
X102973047Y-84780380D01*
X103068285Y-84780380D01*
X102211142Y-84780380D02*
X102211142Y-83780380D01*
X101830190Y-83780380D01*
X101734952Y-83828000D01*
X101687333Y-83875619D01*
X101639714Y-83970857D01*
X101639714Y-84113714D01*
X101687333Y-84208952D01*
X101734952Y-84256571D01*
X101830190Y-84304190D01*
X102211142Y-84304190D01*
X100782571Y-84113714D02*
X100782571Y-84780380D01*
X101020666Y-83732761D02*
X101258761Y-84447047D01*
X100639714Y-84447047D01*
G04 #@! TO.C,JP5*
X102941333Y-87104380D02*
X102941333Y-87818666D01*
X102988952Y-87961523D01*
X103084190Y-88056761D01*
X103227047Y-88104380D01*
X103322285Y-88104380D01*
X102465142Y-88104380D02*
X102465142Y-87104380D01*
X102084190Y-87104380D01*
X101988952Y-87152000D01*
X101941333Y-87199619D01*
X101893714Y-87294857D01*
X101893714Y-87437714D01*
X101941333Y-87532952D01*
X101988952Y-87580571D01*
X102084190Y-87628190D01*
X102465142Y-87628190D01*
X100988952Y-87104380D02*
X101465142Y-87104380D01*
X101512761Y-87580571D01*
X101465142Y-87532952D01*
X101369904Y-87485333D01*
X101131809Y-87485333D01*
X101036571Y-87532952D01*
X100988952Y-87580571D01*
X100941333Y-87675809D01*
X100941333Y-87913904D01*
X100988952Y-88009142D01*
X101036571Y-88056761D01*
X101131809Y-88104380D01*
X101369904Y-88104380D01*
X101465142Y-88056761D01*
X101512761Y-88009142D01*
G04 #@! TO.C,JP6*
X98623333Y-83272380D02*
X98623333Y-83986666D01*
X98670952Y-84129523D01*
X98766190Y-84224761D01*
X98909047Y-84272380D01*
X99004285Y-84272380D01*
X98147142Y-84272380D02*
X98147142Y-83272380D01*
X97766190Y-83272380D01*
X97670952Y-83320000D01*
X97623333Y-83367619D01*
X97575714Y-83462857D01*
X97575714Y-83605714D01*
X97623333Y-83700952D01*
X97670952Y-83748571D01*
X97766190Y-83796190D01*
X98147142Y-83796190D01*
X96718571Y-83272380D02*
X96909047Y-83272380D01*
X97004285Y-83320000D01*
X97051904Y-83367619D01*
X97147142Y-83510476D01*
X97194761Y-83700952D01*
X97194761Y-84081904D01*
X97147142Y-84177142D01*
X97099523Y-84224761D01*
X97004285Y-84272380D01*
X96813809Y-84272380D01*
X96718571Y-84224761D01*
X96670952Y-84177142D01*
X96623333Y-84081904D01*
X96623333Y-83843809D01*
X96670952Y-83748571D01*
X96718571Y-83700952D01*
X96813809Y-83653333D01*
X97004285Y-83653333D01*
X97099523Y-83700952D01*
X97147142Y-83748571D01*
X97194761Y-83843809D01*
G04 #@! TO.C,JP7*
D10*
X122646666Y-108250666D02*
X123146666Y-108250666D01*
X123246666Y-108217333D01*
X123313333Y-108150666D01*
X123346666Y-108050666D01*
X123346666Y-107984000D01*
X123346666Y-108584000D02*
X122646666Y-108584000D01*
X122646666Y-108850666D01*
X122680000Y-108917333D01*
X122713333Y-108950666D01*
X122780000Y-108984000D01*
X122880000Y-108984000D01*
X122946666Y-108950666D01*
X122980000Y-108917333D01*
X123013333Y-108850666D01*
X123013333Y-108584000D01*
X122646666Y-109217333D02*
X122646666Y-109684000D01*
X123346666Y-109384000D01*
G04 #@! TO.C,JP8*
X125246666Y-107900666D02*
X125746666Y-107900666D01*
X125846666Y-107867333D01*
X125913333Y-107800666D01*
X125946666Y-107700666D01*
X125946666Y-107634000D01*
X125946666Y-108234000D02*
X125246666Y-108234000D01*
X125246666Y-108500666D01*
X125280000Y-108567333D01*
X125313333Y-108600666D01*
X125380000Y-108634000D01*
X125480000Y-108634000D01*
X125546666Y-108600666D01*
X125580000Y-108567333D01*
X125613333Y-108500666D01*
X125613333Y-108234000D01*
X125546666Y-109034000D02*
X125513333Y-108967333D01*
X125480000Y-108934000D01*
X125413333Y-108900666D01*
X125380000Y-108900666D01*
X125313333Y-108934000D01*
X125280000Y-108967333D01*
X125246666Y-109034000D01*
X125246666Y-109167333D01*
X125280000Y-109234000D01*
X125313333Y-109267333D01*
X125380000Y-109300666D01*
X125413333Y-109300666D01*
X125480000Y-109267333D01*
X125513333Y-109234000D01*
X125546666Y-109167333D01*
X125546666Y-109034000D01*
X125580000Y-108967333D01*
X125613333Y-108934000D01*
X125680000Y-108900666D01*
X125813333Y-108900666D01*
X125880000Y-108934000D01*
X125913333Y-108967333D01*
X125946666Y-109034000D01*
X125946666Y-109167333D01*
X125913333Y-109234000D01*
X125880000Y-109267333D01*
X125813333Y-109300666D01*
X125680000Y-109300666D01*
X125613333Y-109267333D01*
X125580000Y-109234000D01*
X125546666Y-109167333D01*
G04 #@! TO.C,JP9*
X128044066Y-107859266D02*
X128544066Y-107859266D01*
X128644066Y-107825933D01*
X128710733Y-107759266D01*
X128744066Y-107659266D01*
X128744066Y-107592600D01*
X128744066Y-108192600D02*
X128044066Y-108192600D01*
X128044066Y-108459266D01*
X128077400Y-108525933D01*
X128110733Y-108559266D01*
X128177400Y-108592600D01*
X128277400Y-108592600D01*
X128344066Y-108559266D01*
X128377400Y-108525933D01*
X128410733Y-108459266D01*
X128410733Y-108192600D01*
X128744066Y-108925933D02*
X128744066Y-109059266D01*
X128710733Y-109125933D01*
X128677400Y-109159266D01*
X128577400Y-109225933D01*
X128444066Y-109259266D01*
X128177400Y-109259266D01*
X128110733Y-109225933D01*
X128077400Y-109192600D01*
X128044066Y-109125933D01*
X128044066Y-108992600D01*
X128077400Y-108925933D01*
X128110733Y-108892600D01*
X128177400Y-108859266D01*
X128344066Y-108859266D01*
X128410733Y-108892600D01*
X128444066Y-108925933D01*
X128477400Y-108992600D01*
X128477400Y-109125933D01*
X128444066Y-109192600D01*
X128410733Y-109225933D01*
X128344066Y-109259266D01*
G04 #@! TO.C,JP10*
X130546666Y-107517333D02*
X131046666Y-107517333D01*
X131146666Y-107484000D01*
X131213333Y-107417333D01*
X131246666Y-107317333D01*
X131246666Y-107250666D01*
X131246666Y-107850666D02*
X130546666Y-107850666D01*
X130546666Y-108117333D01*
X130580000Y-108184000D01*
X130613333Y-108217333D01*
X130680000Y-108250666D01*
X130780000Y-108250666D01*
X130846666Y-108217333D01*
X130880000Y-108184000D01*
X130913333Y-108117333D01*
X130913333Y-107850666D01*
X131246666Y-108917333D02*
X131246666Y-108517333D01*
X131246666Y-108717333D02*
X130546666Y-108717333D01*
X130646666Y-108650666D01*
X130713333Y-108584000D01*
X130746666Y-108517333D01*
X130546666Y-109350666D02*
X130546666Y-109417333D01*
X130580000Y-109484000D01*
X130613333Y-109517333D01*
X130680000Y-109550666D01*
X130813333Y-109584000D01*
X130980000Y-109584000D01*
X131113333Y-109550666D01*
X131180000Y-109517333D01*
X131213333Y-109484000D01*
X131246666Y-109417333D01*
X131246666Y-109350666D01*
X131213333Y-109284000D01*
X131180000Y-109250666D01*
X131113333Y-109217333D01*
X130980000Y-109184000D01*
X130813333Y-109184000D01*
X130680000Y-109217333D01*
X130613333Y-109250666D01*
X130580000Y-109284000D01*
X130546666Y-109350666D01*
G04 #@! TO.C,JP11*
X123217666Y-66556619D02*
X123217666Y-67042333D01*
X123251000Y-67139476D01*
X123317666Y-67204238D01*
X123417666Y-67236619D01*
X123484333Y-67236619D01*
X122884333Y-67236619D02*
X122884333Y-66556619D01*
X122617666Y-66556619D01*
X122551000Y-66589000D01*
X122517666Y-66621380D01*
X122484333Y-66686142D01*
X122484333Y-66783285D01*
X122517666Y-66848047D01*
X122551000Y-66880428D01*
X122617666Y-66912809D01*
X122884333Y-66912809D01*
X121817666Y-67236619D02*
X122217666Y-67236619D01*
X122017666Y-67236619D02*
X122017666Y-66556619D01*
X122084333Y-66653761D01*
X122151000Y-66718523D01*
X122217666Y-66750904D01*
X121151000Y-67236619D02*
X121551000Y-67236619D01*
X121351000Y-67236619D02*
X121351000Y-66556619D01*
X121417666Y-66653761D01*
X121484333Y-66718523D01*
X121551000Y-66750904D01*
G04 #@! TO.C,JP12*
X115516666Y-66527619D02*
X115516666Y-67013333D01*
X115550000Y-67110476D01*
X115616666Y-67175238D01*
X115716666Y-67207619D01*
X115783333Y-67207619D01*
X115183333Y-67207619D02*
X115183333Y-66527619D01*
X114916666Y-66527619D01*
X114850000Y-66560000D01*
X114816666Y-66592380D01*
X114783333Y-66657142D01*
X114783333Y-66754285D01*
X114816666Y-66819047D01*
X114850000Y-66851428D01*
X114916666Y-66883809D01*
X115183333Y-66883809D01*
X114116666Y-67207619D02*
X114516666Y-67207619D01*
X114316666Y-67207619D02*
X114316666Y-66527619D01*
X114383333Y-66624761D01*
X114450000Y-66689523D01*
X114516666Y-66721904D01*
X113850000Y-66592380D02*
X113816666Y-66560000D01*
X113750000Y-66527619D01*
X113583333Y-66527619D01*
X113516666Y-66560000D01*
X113483333Y-66592380D01*
X113450000Y-66657142D01*
X113450000Y-66721904D01*
X113483333Y-66819047D01*
X113883333Y-67207619D01*
X113450000Y-67207619D01*
G04 #@! TO.C,JP13*
X119416666Y-66527619D02*
X119416666Y-67013333D01*
X119450000Y-67110476D01*
X119516666Y-67175238D01*
X119616666Y-67207619D01*
X119683333Y-67207619D01*
X119083333Y-67207619D02*
X119083333Y-66527619D01*
X118816666Y-66527619D01*
X118750000Y-66560000D01*
X118716666Y-66592380D01*
X118683333Y-66657142D01*
X118683333Y-66754285D01*
X118716666Y-66819047D01*
X118750000Y-66851428D01*
X118816666Y-66883809D01*
X119083333Y-66883809D01*
X118016666Y-67207619D02*
X118416666Y-67207619D01*
X118216666Y-67207619D02*
X118216666Y-66527619D01*
X118283333Y-66624761D01*
X118350000Y-66689523D01*
X118416666Y-66721904D01*
X117783333Y-66527619D02*
X117350000Y-66527619D01*
X117583333Y-66786666D01*
X117483333Y-66786666D01*
X117416666Y-66819047D01*
X117383333Y-66851428D01*
X117350000Y-66916190D01*
X117350000Y-67078095D01*
X117383333Y-67142857D01*
X117416666Y-67175238D01*
X117483333Y-67207619D01*
X117683333Y-67207619D01*
X117750000Y-67175238D01*
X117783333Y-67142857D01*
G04 #@! TO.C,JP14*
X135844666Y-74271619D02*
X135844666Y-74757333D01*
X135878000Y-74854476D01*
X135944666Y-74919238D01*
X136044666Y-74951619D01*
X136111333Y-74951619D01*
X135511333Y-74951619D02*
X135511333Y-74271619D01*
X135244666Y-74271619D01*
X135178000Y-74304000D01*
X135144666Y-74336380D01*
X135111333Y-74401142D01*
X135111333Y-74498285D01*
X135144666Y-74563047D01*
X135178000Y-74595428D01*
X135244666Y-74627809D01*
X135511333Y-74627809D01*
X134444666Y-74951619D02*
X134844666Y-74951619D01*
X134644666Y-74951619D02*
X134644666Y-74271619D01*
X134711333Y-74368761D01*
X134778000Y-74433523D01*
X134844666Y-74465904D01*
X133844666Y-74498285D02*
X133844666Y-74951619D01*
X134011333Y-74239238D02*
X134178000Y-74724952D01*
X133744666Y-74724952D01*
G04 #@! TO.C,JP15*
X139600666Y-65159619D02*
X139600666Y-65645333D01*
X139634000Y-65742476D01*
X139700666Y-65807238D01*
X139800666Y-65839619D01*
X139867333Y-65839619D01*
X139267333Y-65839619D02*
X139267333Y-65159619D01*
X139000666Y-65159619D01*
X138934000Y-65192000D01*
X138900666Y-65224380D01*
X138867333Y-65289142D01*
X138867333Y-65386285D01*
X138900666Y-65451047D01*
X138934000Y-65483428D01*
X139000666Y-65515809D01*
X139267333Y-65515809D01*
X138200666Y-65839619D02*
X138600666Y-65839619D01*
X138400666Y-65839619D02*
X138400666Y-65159619D01*
X138467333Y-65256761D01*
X138534000Y-65321523D01*
X138600666Y-65353904D01*
X137567333Y-65159619D02*
X137900666Y-65159619D01*
X137934000Y-65483428D01*
X137900666Y-65451047D01*
X137834000Y-65418666D01*
X137667333Y-65418666D01*
X137600666Y-65451047D01*
X137567333Y-65483428D01*
X137534000Y-65548190D01*
X137534000Y-65710095D01*
X137567333Y-65774857D01*
X137600666Y-65807238D01*
X137667333Y-65839619D01*
X137834000Y-65839619D01*
X137900666Y-65807238D01*
X137934000Y-65774857D01*
G04 #@! TO.C,Q12*
D16*
X152657714Y-73485428D02*
X152622000Y-73414000D01*
X152550571Y-73342571D01*
X152443428Y-73235428D01*
X152407714Y-73164000D01*
X152407714Y-73092571D01*
X152586285Y-73128285D02*
X152550571Y-73056857D01*
X152479142Y-72985428D01*
X152336285Y-72949714D01*
X152086285Y-72949714D01*
X151943428Y-72985428D01*
X151872000Y-73056857D01*
X151836285Y-73128285D01*
X151836285Y-73271142D01*
X151872000Y-73342571D01*
X151943428Y-73414000D01*
X152086285Y-73449714D01*
X152336285Y-73449714D01*
X152479142Y-73414000D01*
X152550571Y-73342571D01*
X152586285Y-73271142D01*
X152586285Y-73128285D01*
X152586285Y-74164000D02*
X152586285Y-73735428D01*
X152586285Y-73949714D02*
X151836285Y-73949714D01*
X151943428Y-73878285D01*
X152014857Y-73806857D01*
X152050571Y-73735428D01*
X151907714Y-74449714D02*
X151872000Y-74485428D01*
X151836285Y-74556857D01*
X151836285Y-74735428D01*
X151872000Y-74806857D01*
X151907714Y-74842571D01*
X151979142Y-74878285D01*
X152050571Y-74878285D01*
X152157714Y-74842571D01*
X152586285Y-74414000D01*
X152586285Y-74878285D01*
G04 #@! TO.C,Q13*
D10*
X187047400Y-76854980D02*
X187114066Y-76822600D01*
X187180733Y-76757838D01*
X187280733Y-76660695D01*
X187347400Y-76628314D01*
X187414066Y-76628314D01*
X187380733Y-76790219D02*
X187447400Y-76757838D01*
X187514066Y-76693076D01*
X187547400Y-76563552D01*
X187547400Y-76336885D01*
X187514066Y-76207361D01*
X187447400Y-76142600D01*
X187380733Y-76110219D01*
X187247400Y-76110219D01*
X187180733Y-76142600D01*
X187114066Y-76207361D01*
X187080733Y-76336885D01*
X187080733Y-76563552D01*
X187114066Y-76693076D01*
X187180733Y-76757838D01*
X187247400Y-76790219D01*
X187380733Y-76790219D01*
X186414066Y-76790219D02*
X186814066Y-76790219D01*
X186614066Y-76790219D02*
X186614066Y-76110219D01*
X186680733Y-76207361D01*
X186747400Y-76272123D01*
X186814066Y-76304504D01*
X186180733Y-76110219D02*
X185747400Y-76110219D01*
X185980733Y-76369266D01*
X185880733Y-76369266D01*
X185814066Y-76401647D01*
X185780733Y-76434028D01*
X185747400Y-76498790D01*
X185747400Y-76660695D01*
X185780733Y-76725457D01*
X185814066Y-76757838D01*
X185880733Y-76790219D01*
X186080733Y-76790219D01*
X186147400Y-76757838D01*
X186180733Y-76725457D01*
G04 #@! TO.C,TP20*
X129612119Y-67744333D02*
X129612119Y-68144333D01*
X130292119Y-67944333D02*
X129612119Y-67944333D01*
X130292119Y-68377666D02*
X129612119Y-68377666D01*
X129612119Y-68644333D01*
X129644500Y-68711000D01*
X129676880Y-68744333D01*
X129741642Y-68777666D01*
X129838785Y-68777666D01*
X129903547Y-68744333D01*
X129935928Y-68711000D01*
X129968309Y-68644333D01*
X129968309Y-68377666D01*
X129676880Y-69044333D02*
X129644500Y-69077666D01*
X129612119Y-69144333D01*
X129612119Y-69311000D01*
X129644500Y-69377666D01*
X129676880Y-69411000D01*
X129741642Y-69444333D01*
X129806404Y-69444333D01*
X129903547Y-69411000D01*
X130292119Y-69011000D01*
X130292119Y-69444333D01*
X129612119Y-69877666D02*
X129612119Y-69944333D01*
X129644500Y-70011000D01*
X129676880Y-70044333D01*
X129741642Y-70077666D01*
X129871166Y-70111000D01*
X130033071Y-70111000D01*
X130162595Y-70077666D01*
X130227357Y-70044333D01*
X130259738Y-70011000D01*
X130292119Y-69944333D01*
X130292119Y-69877666D01*
X130259738Y-69811000D01*
X130227357Y-69777666D01*
X130162595Y-69744333D01*
X130033071Y-69711000D01*
X129871166Y-69711000D01*
X129741642Y-69744333D01*
X129676880Y-69777666D01*
X129644500Y-69811000D01*
X129612119Y-69877666D01*
G04 #@! TO.C,JP16*
D16*
X193079523Y-72880380D02*
X193079523Y-73594666D01*
X193127142Y-73737523D01*
X193222380Y-73832761D01*
X193365238Y-73880380D01*
X193460476Y-73880380D01*
X192603333Y-73880380D02*
X192603333Y-72880380D01*
X192222380Y-72880380D01*
X192127142Y-72928000D01*
X192079523Y-72975619D01*
X192031904Y-73070857D01*
X192031904Y-73213714D01*
X192079523Y-73308952D01*
X192127142Y-73356571D01*
X192222380Y-73404190D01*
X192603333Y-73404190D01*
X191079523Y-73880380D02*
X191650952Y-73880380D01*
X191365238Y-73880380D02*
X191365238Y-72880380D01*
X191460476Y-73023238D01*
X191555714Y-73118476D01*
X191650952Y-73166095D01*
X190222380Y-72880380D02*
X190412857Y-72880380D01*
X190508095Y-72928000D01*
X190555714Y-72975619D01*
X190650952Y-73118476D01*
X190698571Y-73308952D01*
X190698571Y-73689904D01*
X190650952Y-73785142D01*
X190603333Y-73832761D01*
X190508095Y-73880380D01*
X190317619Y-73880380D01*
X190222380Y-73832761D01*
X190174761Y-73785142D01*
X190127142Y-73689904D01*
X190127142Y-73451809D01*
X190174761Y-73356571D01*
X190222380Y-73308952D01*
X190317619Y-73261333D01*
X190508095Y-73261333D01*
X190603333Y-73308952D01*
X190650952Y-73356571D01*
X190698571Y-73451809D01*
G04 #@! TO.C,Q4*
D10*
X172786666Y-106515333D02*
X172853333Y-106482000D01*
X172920000Y-106415333D01*
X173020000Y-106315333D01*
X173086666Y-106282000D01*
X173153333Y-106282000D01*
X173120000Y-106448666D02*
X173186666Y-106415333D01*
X173253333Y-106348666D01*
X173286666Y-106215333D01*
X173286666Y-105982000D01*
X173253333Y-105848666D01*
X173186666Y-105782000D01*
X173120000Y-105748666D01*
X172986666Y-105748666D01*
X172920000Y-105782000D01*
X172853333Y-105848666D01*
X172820000Y-105982000D01*
X172820000Y-106215333D01*
X172853333Y-106348666D01*
X172920000Y-106415333D01*
X172986666Y-106448666D01*
X173120000Y-106448666D01*
X172220000Y-105982000D02*
X172220000Y-106448666D01*
X172386666Y-105715333D02*
X172553333Y-106215333D01*
X172120000Y-106215333D01*
G04 #@! TO.C,Q7*
X172082666Y-97252885D02*
X172116000Y-97319552D01*
X172182666Y-97386219D01*
X172282666Y-97486219D01*
X172316000Y-97552885D01*
X172316000Y-97619552D01*
X172149333Y-97586219D02*
X172182666Y-97652885D01*
X172249333Y-97719552D01*
X172382666Y-97752885D01*
X172616000Y-97752885D01*
X172749333Y-97719552D01*
X172816000Y-97652885D01*
X172849333Y-97586219D01*
X172849333Y-97452885D01*
X172816000Y-97386219D01*
X172749333Y-97319552D01*
X172616000Y-97286219D01*
X172382666Y-97286219D01*
X172249333Y-97319552D01*
X172182666Y-97386219D01*
X172149333Y-97452885D01*
X172149333Y-97586219D01*
X172849333Y-97052885D02*
X172849333Y-96586219D01*
X172149333Y-96886219D01*
G04 #@! TO.C,R16*
X88852666Y-68988000D02*
X88519333Y-68754666D01*
X88852666Y-68588000D02*
X88152666Y-68588000D01*
X88152666Y-68854666D01*
X88186000Y-68921333D01*
X88219333Y-68954666D01*
X88286000Y-68988000D01*
X88386000Y-68988000D01*
X88452666Y-68954666D01*
X88486000Y-68921333D01*
X88519333Y-68854666D01*
X88519333Y-68588000D01*
X88852666Y-69654666D02*
X88852666Y-69254666D01*
X88852666Y-69454666D02*
X88152666Y-69454666D01*
X88252666Y-69388000D01*
X88319333Y-69321333D01*
X88352666Y-69254666D01*
X88152666Y-70254666D02*
X88152666Y-70121333D01*
X88186000Y-70054666D01*
X88219333Y-70021333D01*
X88319333Y-69954666D01*
X88452666Y-69921333D01*
X88719333Y-69921333D01*
X88786000Y-69954666D01*
X88819333Y-69988000D01*
X88852666Y-70054666D01*
X88852666Y-70188000D01*
X88819333Y-70254666D01*
X88786000Y-70288000D01*
X88719333Y-70321333D01*
X88552666Y-70321333D01*
X88486000Y-70288000D01*
X88452666Y-70254666D01*
X88419333Y-70188000D01*
X88419333Y-70054666D01*
X88452666Y-69988000D01*
X88486000Y-69954666D01*
X88552666Y-69921333D01*
G04 #@! TO.C,R42*
D16*
X153659857Y-105367380D02*
X153993190Y-104891190D01*
X154231285Y-105367380D02*
X154231285Y-104367380D01*
X153850333Y-104367380D01*
X153755095Y-104415000D01*
X153707476Y-104462619D01*
X153659857Y-104557857D01*
X153659857Y-104700714D01*
X153707476Y-104795952D01*
X153755095Y-104843571D01*
X153850333Y-104891190D01*
X154231285Y-104891190D01*
X152802714Y-104700714D02*
X152802714Y-105367380D01*
X153040809Y-104319761D02*
X153278904Y-105034047D01*
X152659857Y-105034047D01*
X152326523Y-104462619D02*
X152278904Y-104415000D01*
X152183666Y-104367380D01*
X151945571Y-104367380D01*
X151850333Y-104415000D01*
X151802714Y-104462619D01*
X151755095Y-104557857D01*
X151755095Y-104653095D01*
X151802714Y-104795952D01*
X152374142Y-105367380D01*
X151755095Y-105367380D01*
G04 #@! TO.C,R47*
X114748757Y-95934980D02*
X115082090Y-95458790D01*
X115320185Y-95934980D02*
X115320185Y-94934980D01*
X114939233Y-94934980D01*
X114843995Y-94982600D01*
X114796376Y-95030219D01*
X114748757Y-95125457D01*
X114748757Y-95268314D01*
X114796376Y-95363552D01*
X114843995Y-95411171D01*
X114939233Y-95458790D01*
X115320185Y-95458790D01*
X113891614Y-95268314D02*
X113891614Y-95934980D01*
X114129709Y-94887361D02*
X114367804Y-95601647D01*
X113748757Y-95601647D01*
X113463042Y-94934980D02*
X112796376Y-94934980D01*
X113224947Y-95934980D01*
G04 #@! TO.C,R48*
X87550257Y-94554980D02*
X87883590Y-94078790D01*
X88121685Y-94554980D02*
X88121685Y-93554980D01*
X87740733Y-93554980D01*
X87645495Y-93602600D01*
X87597876Y-93650219D01*
X87550257Y-93745457D01*
X87550257Y-93888314D01*
X87597876Y-93983552D01*
X87645495Y-94031171D01*
X87740733Y-94078790D01*
X88121685Y-94078790D01*
X86693114Y-93888314D02*
X86693114Y-94554980D01*
X86931209Y-93507361D02*
X87169304Y-94221647D01*
X86550257Y-94221647D01*
X86026447Y-93983552D02*
X86121685Y-93935933D01*
X86169304Y-93888314D01*
X86216923Y-93793076D01*
X86216923Y-93745457D01*
X86169304Y-93650219D01*
X86121685Y-93602600D01*
X86026447Y-93554980D01*
X85835971Y-93554980D01*
X85740733Y-93602600D01*
X85693114Y-93650219D01*
X85645495Y-93745457D01*
X85645495Y-93793076D01*
X85693114Y-93888314D01*
X85740733Y-93935933D01*
X85835971Y-93983552D01*
X86026447Y-93983552D01*
X86121685Y-94031171D01*
X86169304Y-94078790D01*
X86216923Y-94174028D01*
X86216923Y-94364504D01*
X86169304Y-94459742D01*
X86121685Y-94507361D01*
X86026447Y-94554980D01*
X85835971Y-94554980D01*
X85740733Y-94507361D01*
X85693114Y-94459742D01*
X85645495Y-94364504D01*
X85645495Y-94174028D01*
X85693114Y-94078790D01*
X85740733Y-94031171D01*
X85835971Y-93983552D01*
G04 #@! TO.C,R51*
X111925257Y-92299980D02*
X112258590Y-91823790D01*
X112496685Y-92299980D02*
X112496685Y-91299980D01*
X112115733Y-91299980D01*
X112020495Y-91347600D01*
X111972876Y-91395219D01*
X111925257Y-91490457D01*
X111925257Y-91633314D01*
X111972876Y-91728552D01*
X112020495Y-91776171D01*
X112115733Y-91823790D01*
X112496685Y-91823790D01*
X111020495Y-91299980D02*
X111496685Y-91299980D01*
X111544304Y-91776171D01*
X111496685Y-91728552D01*
X111401447Y-91680933D01*
X111163352Y-91680933D01*
X111068114Y-91728552D01*
X111020495Y-91776171D01*
X110972876Y-91871409D01*
X110972876Y-92109504D01*
X111020495Y-92204742D01*
X111068114Y-92252361D01*
X111163352Y-92299980D01*
X111401447Y-92299980D01*
X111496685Y-92252361D01*
X111544304Y-92204742D01*
X110020495Y-92299980D02*
X110591923Y-92299980D01*
X110306209Y-92299980D02*
X110306209Y-91299980D01*
X110401447Y-91442838D01*
X110496685Y-91538076D01*
X110591923Y-91585695D01*
G04 #@! TO.C,R57*
X141359857Y-105437380D02*
X141693190Y-104961190D01*
X141931285Y-105437380D02*
X141931285Y-104437380D01*
X141550333Y-104437380D01*
X141455095Y-104485000D01*
X141407476Y-104532619D01*
X141359857Y-104627857D01*
X141359857Y-104770714D01*
X141407476Y-104865952D01*
X141455095Y-104913571D01*
X141550333Y-104961190D01*
X141931285Y-104961190D01*
X140455095Y-104437380D02*
X140931285Y-104437380D01*
X140978904Y-104913571D01*
X140931285Y-104865952D01*
X140836047Y-104818333D01*
X140597952Y-104818333D01*
X140502714Y-104865952D01*
X140455095Y-104913571D01*
X140407476Y-105008809D01*
X140407476Y-105246904D01*
X140455095Y-105342142D01*
X140502714Y-105389761D01*
X140597952Y-105437380D01*
X140836047Y-105437380D01*
X140931285Y-105389761D01*
X140978904Y-105342142D01*
X140074142Y-104437380D02*
X139407476Y-104437380D01*
X139836047Y-105437380D01*
G04 #@! TO.C,R58*
X146972357Y-105437380D02*
X147305690Y-104961190D01*
X147543785Y-105437380D02*
X147543785Y-104437380D01*
X147162833Y-104437380D01*
X147067595Y-104485000D01*
X147019976Y-104532619D01*
X146972357Y-104627857D01*
X146972357Y-104770714D01*
X147019976Y-104865952D01*
X147067595Y-104913571D01*
X147162833Y-104961190D01*
X147543785Y-104961190D01*
X146067595Y-104437380D02*
X146543785Y-104437380D01*
X146591404Y-104913571D01*
X146543785Y-104865952D01*
X146448547Y-104818333D01*
X146210452Y-104818333D01*
X146115214Y-104865952D01*
X146067595Y-104913571D01*
X146019976Y-105008809D01*
X146019976Y-105246904D01*
X146067595Y-105342142D01*
X146115214Y-105389761D01*
X146210452Y-105437380D01*
X146448547Y-105437380D01*
X146543785Y-105389761D01*
X146591404Y-105342142D01*
X145448547Y-104865952D02*
X145543785Y-104818333D01*
X145591404Y-104770714D01*
X145639023Y-104675476D01*
X145639023Y-104627857D01*
X145591404Y-104532619D01*
X145543785Y-104485000D01*
X145448547Y-104437380D01*
X145258071Y-104437380D01*
X145162833Y-104485000D01*
X145115214Y-104532619D01*
X145067595Y-104627857D01*
X145067595Y-104675476D01*
X145115214Y-104770714D01*
X145162833Y-104818333D01*
X145258071Y-104865952D01*
X145448547Y-104865952D01*
X145543785Y-104913571D01*
X145591404Y-104961190D01*
X145639023Y-105056428D01*
X145639023Y-105246904D01*
X145591404Y-105342142D01*
X145543785Y-105389761D01*
X145448547Y-105437380D01*
X145258071Y-105437380D01*
X145162833Y-105389761D01*
X145115214Y-105342142D01*
X145067595Y-105246904D01*
X145067595Y-105056428D01*
X145115214Y-104961190D01*
X145162833Y-104913571D01*
X145258071Y-104865952D01*
G04 #@! TO.C,R64*
D10*
X167544066Y-102432600D02*
X167210733Y-102199266D01*
X167544066Y-102032600D02*
X166844066Y-102032600D01*
X166844066Y-102299266D01*
X166877400Y-102365933D01*
X166910733Y-102399266D01*
X166977400Y-102432600D01*
X167077400Y-102432600D01*
X167144066Y-102399266D01*
X167177400Y-102365933D01*
X167210733Y-102299266D01*
X167210733Y-102032600D01*
X166844066Y-103032600D02*
X166844066Y-102899266D01*
X166877400Y-102832600D01*
X166910733Y-102799266D01*
X167010733Y-102732600D01*
X167144066Y-102699266D01*
X167410733Y-102699266D01*
X167477400Y-102732600D01*
X167510733Y-102765933D01*
X167544066Y-102832600D01*
X167544066Y-102965933D01*
X167510733Y-103032600D01*
X167477400Y-103065933D01*
X167410733Y-103099266D01*
X167244066Y-103099266D01*
X167177400Y-103065933D01*
X167144066Y-103032600D01*
X167110733Y-102965933D01*
X167110733Y-102832600D01*
X167144066Y-102765933D01*
X167177400Y-102732600D01*
X167244066Y-102699266D01*
X167077400Y-103699266D02*
X167544066Y-103699266D01*
X166810733Y-103532600D02*
X167310733Y-103365933D01*
X167310733Y-103799266D01*
X169529866Y-104441406D02*
X169929866Y-104441406D01*
X169729866Y-104441406D02*
X169729866Y-103741406D01*
X169796533Y-103841406D01*
X169863200Y-103908073D01*
X169929866Y-103941406D01*
X169096533Y-103741406D02*
X169029866Y-103741406D01*
X168963200Y-103774740D01*
X168929866Y-103808073D01*
X168896533Y-103874740D01*
X168863200Y-104008073D01*
X168863200Y-104174740D01*
X168896533Y-104308073D01*
X168929866Y-104374740D01*
X168963200Y-104408073D01*
X169029866Y-104441406D01*
X169096533Y-104441406D01*
X169163200Y-104408073D01*
X169196533Y-104374740D01*
X169229866Y-104308073D01*
X169263200Y-104174740D01*
X169263200Y-104008073D01*
X169229866Y-103874740D01*
X169196533Y-103808073D01*
X169163200Y-103774740D01*
X169096533Y-103741406D01*
X168563200Y-104441406D02*
X168563200Y-103741406D01*
X168496533Y-104174740D02*
X168296533Y-104441406D01*
X168296533Y-103974740D02*
X168563200Y-104241406D01*
G04 #@! TO.C,R65*
X169614000Y-99216666D02*
X169847333Y-98883333D01*
X170014000Y-99216666D02*
X170014000Y-98516666D01*
X169747333Y-98516666D01*
X169680666Y-98550000D01*
X169647333Y-98583333D01*
X169614000Y-98650000D01*
X169614000Y-98750000D01*
X169647333Y-98816666D01*
X169680666Y-98850000D01*
X169747333Y-98883333D01*
X170014000Y-98883333D01*
X169014000Y-98516666D02*
X169147333Y-98516666D01*
X169214000Y-98550000D01*
X169247333Y-98583333D01*
X169314000Y-98683333D01*
X169347333Y-98816666D01*
X169347333Y-99083333D01*
X169314000Y-99150000D01*
X169280666Y-99183333D01*
X169214000Y-99216666D01*
X169080666Y-99216666D01*
X169014000Y-99183333D01*
X168980666Y-99150000D01*
X168947333Y-99083333D01*
X168947333Y-98916666D01*
X168980666Y-98850000D01*
X169014000Y-98816666D01*
X169080666Y-98783333D01*
X169214000Y-98783333D01*
X169280666Y-98816666D01*
X169314000Y-98850000D01*
X169347333Y-98916666D01*
X168314000Y-98516666D02*
X168647333Y-98516666D01*
X168680666Y-98850000D01*
X168647333Y-98816666D01*
X168580666Y-98783333D01*
X168414000Y-98783333D01*
X168347333Y-98816666D01*
X168314000Y-98850000D01*
X168280666Y-98916666D01*
X168280666Y-99083333D01*
X168314000Y-99150000D01*
X168347333Y-99183333D01*
X168414000Y-99216666D01*
X168580666Y-99216666D01*
X168647333Y-99183333D01*
X168680666Y-99150000D01*
X169580666Y-102076666D02*
X169980666Y-102076666D01*
X169780666Y-102076666D02*
X169780666Y-101376666D01*
X169847333Y-101476666D01*
X169914000Y-101543333D01*
X169980666Y-101576666D01*
X169147333Y-101376666D02*
X169080666Y-101376666D01*
X169014000Y-101410000D01*
X168980666Y-101443333D01*
X168947333Y-101510000D01*
X168914000Y-101643333D01*
X168914000Y-101810000D01*
X168947333Y-101943333D01*
X168980666Y-102010000D01*
X169014000Y-102043333D01*
X169080666Y-102076666D01*
X169147333Y-102076666D01*
X169214000Y-102043333D01*
X169247333Y-102010000D01*
X169280666Y-101943333D01*
X169314000Y-101810000D01*
X169314000Y-101643333D01*
X169280666Y-101510000D01*
X169247333Y-101443333D01*
X169214000Y-101410000D01*
X169147333Y-101376666D01*
X168614000Y-102076666D02*
X168614000Y-101376666D01*
X168547333Y-101810000D02*
X168347333Y-102076666D01*
X168347333Y-101610000D02*
X168614000Y-101876666D01*
G04 #@! TO.C,R74*
D16*
X109862857Y-82748380D02*
X110196190Y-82272190D01*
X110434285Y-82748380D02*
X110434285Y-81748380D01*
X110053333Y-81748380D01*
X109958095Y-81796000D01*
X109910476Y-81843619D01*
X109862857Y-81938857D01*
X109862857Y-82081714D01*
X109910476Y-82176952D01*
X109958095Y-82224571D01*
X110053333Y-82272190D01*
X110434285Y-82272190D01*
X109529523Y-81748380D02*
X108862857Y-81748380D01*
X109291428Y-82748380D01*
X108053333Y-82081714D02*
X108053333Y-82748380D01*
X108291428Y-81700761D02*
X108529523Y-82415047D01*
X107910476Y-82415047D01*
G04 #@! TO.C,R75*
D10*
X94430000Y-96962666D02*
X94663333Y-96629333D01*
X94830000Y-96962666D02*
X94830000Y-96262666D01*
X94563333Y-96262666D01*
X94496666Y-96296000D01*
X94463333Y-96329333D01*
X94430000Y-96396000D01*
X94430000Y-96496000D01*
X94463333Y-96562666D01*
X94496666Y-96596000D01*
X94563333Y-96629333D01*
X94830000Y-96629333D01*
X94196666Y-96262666D02*
X93730000Y-96262666D01*
X94030000Y-96962666D01*
X93130000Y-96262666D02*
X93463333Y-96262666D01*
X93496666Y-96596000D01*
X93463333Y-96562666D01*
X93396666Y-96529333D01*
X93230000Y-96529333D01*
X93163333Y-96562666D01*
X93130000Y-96596000D01*
X93096666Y-96662666D01*
X93096666Y-96829333D01*
X93130000Y-96896000D01*
X93163333Y-96929333D01*
X93230000Y-96962666D01*
X93396666Y-96962666D01*
X93463333Y-96929333D01*
X93496666Y-96896000D01*
G04 #@! TO.C,R76*
X92264666Y-92260000D02*
X91931333Y-92026666D01*
X92264666Y-91860000D02*
X91564666Y-91860000D01*
X91564666Y-92126666D01*
X91598000Y-92193333D01*
X91631333Y-92226666D01*
X91698000Y-92260000D01*
X91798000Y-92260000D01*
X91864666Y-92226666D01*
X91898000Y-92193333D01*
X91931333Y-92126666D01*
X91931333Y-91860000D01*
X91564666Y-92493333D02*
X91564666Y-92960000D01*
X92264666Y-92660000D01*
X91564666Y-93526666D02*
X91564666Y-93393333D01*
X91598000Y-93326666D01*
X91631333Y-93293333D01*
X91731333Y-93226666D01*
X91864666Y-93193333D01*
X92131333Y-93193333D01*
X92198000Y-93226666D01*
X92231333Y-93260000D01*
X92264666Y-93326666D01*
X92264666Y-93460000D01*
X92231333Y-93526666D01*
X92198000Y-93560000D01*
X92131333Y-93593333D01*
X91964666Y-93593333D01*
X91898000Y-93560000D01*
X91864666Y-93526666D01*
X91831333Y-93460000D01*
X91831333Y-93326666D01*
X91864666Y-93260000D01*
X91898000Y-93226666D01*
X91964666Y-93193333D01*
G04 #@! TO.C,R77*
X97175500Y-90612666D02*
X97408833Y-90279333D01*
X97575500Y-90612666D02*
X97575500Y-89912666D01*
X97308833Y-89912666D01*
X97242166Y-89946000D01*
X97208833Y-89979333D01*
X97175500Y-90046000D01*
X97175500Y-90146000D01*
X97208833Y-90212666D01*
X97242166Y-90246000D01*
X97308833Y-90279333D01*
X97575500Y-90279333D01*
X96942166Y-89912666D02*
X96475500Y-89912666D01*
X96775500Y-90612666D01*
X96275500Y-89912666D02*
X95808833Y-89912666D01*
X96108833Y-90612666D01*
X97158833Y-86612666D02*
X97092166Y-86612666D01*
X97025500Y-86646000D01*
X96992166Y-86679333D01*
X96958833Y-86746000D01*
X96925500Y-86879333D01*
X96925500Y-87046000D01*
X96958833Y-87179333D01*
X96992166Y-87246000D01*
X97025500Y-87279333D01*
X97092166Y-87312666D01*
X97158833Y-87312666D01*
X97225500Y-87279333D01*
X97258833Y-87246000D01*
X97292166Y-87179333D01*
X97325500Y-87046000D01*
X97325500Y-86879333D01*
X97292166Y-86746000D01*
X97258833Y-86679333D01*
X97225500Y-86646000D01*
X97158833Y-86612666D01*
X96658833Y-87312666D02*
X96492166Y-87312666D01*
X96492166Y-87179333D01*
X96558833Y-87146000D01*
X96625500Y-87079333D01*
X96658833Y-86979333D01*
X96658833Y-86812666D01*
X96625500Y-86712666D01*
X96558833Y-86646000D01*
X96458833Y-86612666D01*
X96325500Y-86612666D01*
X96225500Y-86646000D01*
X96158833Y-86712666D01*
X96125500Y-86812666D01*
X96125500Y-86979333D01*
X96158833Y-87079333D01*
X96225500Y-87146000D01*
X96292166Y-87179333D01*
X96292166Y-87312666D01*
X96125500Y-87312666D01*
G04 #@! TO.C,R81*
X111759000Y-77043266D02*
X111992333Y-76709933D01*
X112159000Y-77043266D02*
X112159000Y-76343266D01*
X111892333Y-76343266D01*
X111825666Y-76376600D01*
X111792333Y-76409933D01*
X111759000Y-76476600D01*
X111759000Y-76576600D01*
X111792333Y-76643266D01*
X111825666Y-76676600D01*
X111892333Y-76709933D01*
X112159000Y-76709933D01*
X111359000Y-76643266D02*
X111425666Y-76609933D01*
X111459000Y-76576600D01*
X111492333Y-76509933D01*
X111492333Y-76476600D01*
X111459000Y-76409933D01*
X111425666Y-76376600D01*
X111359000Y-76343266D01*
X111225666Y-76343266D01*
X111159000Y-76376600D01*
X111125666Y-76409933D01*
X111092333Y-76476600D01*
X111092333Y-76509933D01*
X111125666Y-76576600D01*
X111159000Y-76609933D01*
X111225666Y-76643266D01*
X111359000Y-76643266D01*
X111425666Y-76676600D01*
X111459000Y-76709933D01*
X111492333Y-76776600D01*
X111492333Y-76909933D01*
X111459000Y-76976600D01*
X111425666Y-77009933D01*
X111359000Y-77043266D01*
X111225666Y-77043266D01*
X111159000Y-77009933D01*
X111125666Y-76976600D01*
X111092333Y-76909933D01*
X111092333Y-76776600D01*
X111125666Y-76709933D01*
X111159000Y-76676600D01*
X111225666Y-76643266D01*
X110425666Y-77043266D02*
X110825666Y-77043266D01*
X110625666Y-77043266D02*
X110625666Y-76343266D01*
X110692333Y-76443266D01*
X110759000Y-76509933D01*
X110825666Y-76543266D01*
X108646666Y-75519266D02*
X108880000Y-75185933D01*
X109046666Y-75519266D02*
X109046666Y-74819266D01*
X108780000Y-74819266D01*
X108713333Y-74852600D01*
X108680000Y-74885933D01*
X108646666Y-74952600D01*
X108646666Y-75052600D01*
X108680000Y-75119266D01*
X108713333Y-75152600D01*
X108780000Y-75185933D01*
X109046666Y-75185933D01*
X108213333Y-74819266D02*
X108080000Y-74819266D01*
X108013333Y-74852600D01*
X107946666Y-74919266D01*
X107913333Y-75052600D01*
X107913333Y-75285933D01*
X107946666Y-75419266D01*
X108013333Y-75485933D01*
X108080000Y-75519266D01*
X108213333Y-75519266D01*
X108280000Y-75485933D01*
X108346666Y-75419266D01*
X108380000Y-75285933D01*
X108380000Y-75052600D01*
X108346666Y-74919266D01*
X108280000Y-74852600D01*
X108213333Y-74819266D01*
X107613333Y-75519266D02*
X107613333Y-74819266D01*
X107346666Y-74819266D01*
X107280000Y-74852600D01*
X107246666Y-74885933D01*
X107213333Y-74952600D01*
X107213333Y-75052600D01*
X107246666Y-75119266D01*
X107280000Y-75152600D01*
X107346666Y-75185933D01*
X107613333Y-75185933D01*
X107013333Y-74819266D02*
X106613333Y-74819266D01*
X106813333Y-75519266D02*
X106813333Y-74819266D01*
G04 #@! TO.C,R90*
D16*
X119042857Y-61202380D02*
X119376190Y-60726190D01*
X119614285Y-61202380D02*
X119614285Y-60202380D01*
X119233333Y-60202380D01*
X119138095Y-60250000D01*
X119090476Y-60297619D01*
X119042857Y-60392857D01*
X119042857Y-60535714D01*
X119090476Y-60630952D01*
X119138095Y-60678571D01*
X119233333Y-60726190D01*
X119614285Y-60726190D01*
X118566666Y-61202380D02*
X118376190Y-61202380D01*
X118280952Y-61154761D01*
X118233333Y-61107142D01*
X118138095Y-60964285D01*
X118090476Y-60773809D01*
X118090476Y-60392857D01*
X118138095Y-60297619D01*
X118185714Y-60250000D01*
X118280952Y-60202380D01*
X118471428Y-60202380D01*
X118566666Y-60250000D01*
X118614285Y-60297619D01*
X118661904Y-60392857D01*
X118661904Y-60630952D01*
X118614285Y-60726190D01*
X118566666Y-60773809D01*
X118471428Y-60821428D01*
X118280952Y-60821428D01*
X118185714Y-60773809D01*
X118138095Y-60726190D01*
X118090476Y-60630952D01*
X117471428Y-60202380D02*
X117376190Y-60202380D01*
X117280952Y-60250000D01*
X117233333Y-60297619D01*
X117185714Y-60392857D01*
X117138095Y-60583333D01*
X117138095Y-60821428D01*
X117185714Y-61011904D01*
X117233333Y-61107142D01*
X117280952Y-61154761D01*
X117376190Y-61202380D01*
X117471428Y-61202380D01*
X117566666Y-61154761D01*
X117614285Y-61107142D01*
X117661904Y-61011904D01*
X117709523Y-60821428D01*
X117709523Y-60583333D01*
X117661904Y-60392857D01*
X117614285Y-60297619D01*
X117566666Y-60250000D01*
X117471428Y-60202380D01*
G04 #@! TO.C,R91*
X126675257Y-68779980D02*
X127008590Y-68303790D01*
X127246685Y-68779980D02*
X127246685Y-67779980D01*
X126865733Y-67779980D01*
X126770495Y-67827600D01*
X126722876Y-67875219D01*
X126675257Y-67970457D01*
X126675257Y-68113314D01*
X126722876Y-68208552D01*
X126770495Y-68256171D01*
X126865733Y-68303790D01*
X127246685Y-68303790D01*
X126199066Y-68779980D02*
X126008590Y-68779980D01*
X125913352Y-68732361D01*
X125865733Y-68684742D01*
X125770495Y-68541885D01*
X125722876Y-68351409D01*
X125722876Y-67970457D01*
X125770495Y-67875219D01*
X125818114Y-67827600D01*
X125913352Y-67779980D01*
X126103828Y-67779980D01*
X126199066Y-67827600D01*
X126246685Y-67875219D01*
X126294304Y-67970457D01*
X126294304Y-68208552D01*
X126246685Y-68303790D01*
X126199066Y-68351409D01*
X126103828Y-68399028D01*
X125913352Y-68399028D01*
X125818114Y-68351409D01*
X125770495Y-68303790D01*
X125722876Y-68208552D01*
X124770495Y-68779980D02*
X125341923Y-68779980D01*
X125056209Y-68779980D02*
X125056209Y-67779980D01*
X125151447Y-67922838D01*
X125246685Y-68018076D01*
X125341923Y-68065695D01*
G04 #@! TO.C,R92*
X120149880Y-80065642D02*
X119673690Y-79732309D01*
X120149880Y-79494214D02*
X119149880Y-79494214D01*
X119149880Y-79875166D01*
X119197500Y-79970404D01*
X119245119Y-80018023D01*
X119340357Y-80065642D01*
X119483214Y-80065642D01*
X119578452Y-80018023D01*
X119626071Y-79970404D01*
X119673690Y-79875166D01*
X119673690Y-79494214D01*
X120149880Y-80541833D02*
X120149880Y-80732309D01*
X120102261Y-80827547D01*
X120054642Y-80875166D01*
X119911785Y-80970404D01*
X119721309Y-81018023D01*
X119340357Y-81018023D01*
X119245119Y-80970404D01*
X119197500Y-80922785D01*
X119149880Y-80827547D01*
X119149880Y-80637071D01*
X119197500Y-80541833D01*
X119245119Y-80494214D01*
X119340357Y-80446595D01*
X119578452Y-80446595D01*
X119673690Y-80494214D01*
X119721309Y-80541833D01*
X119768928Y-80637071D01*
X119768928Y-80827547D01*
X119721309Y-80922785D01*
X119673690Y-80970404D01*
X119578452Y-81018023D01*
X119245119Y-81398976D02*
X119197500Y-81446595D01*
X119149880Y-81541833D01*
X119149880Y-81779928D01*
X119197500Y-81875166D01*
X119245119Y-81922785D01*
X119340357Y-81970404D01*
X119435595Y-81970404D01*
X119578452Y-81922785D01*
X120149880Y-81351357D01*
X120149880Y-81970404D01*
G04 #@! TO.C,R95*
X132532380Y-75049142D02*
X132056190Y-74715809D01*
X132532380Y-74477714D02*
X131532380Y-74477714D01*
X131532380Y-74858666D01*
X131580000Y-74953904D01*
X131627619Y-75001523D01*
X131722857Y-75049142D01*
X131865714Y-75049142D01*
X131960952Y-75001523D01*
X132008571Y-74953904D01*
X132056190Y-74858666D01*
X132056190Y-74477714D01*
X132532380Y-75525333D02*
X132532380Y-75715809D01*
X132484761Y-75811047D01*
X132437142Y-75858666D01*
X132294285Y-75953904D01*
X132103809Y-76001523D01*
X131722857Y-76001523D01*
X131627619Y-75953904D01*
X131580000Y-75906285D01*
X131532380Y-75811047D01*
X131532380Y-75620571D01*
X131580000Y-75525333D01*
X131627619Y-75477714D01*
X131722857Y-75430095D01*
X131960952Y-75430095D01*
X132056190Y-75477714D01*
X132103809Y-75525333D01*
X132151428Y-75620571D01*
X132151428Y-75811047D01*
X132103809Y-75906285D01*
X132056190Y-75953904D01*
X131960952Y-76001523D01*
X131532380Y-76906285D02*
X131532380Y-76430095D01*
X132008571Y-76382476D01*
X131960952Y-76430095D01*
X131913333Y-76525333D01*
X131913333Y-76763428D01*
X131960952Y-76858666D01*
X132008571Y-76906285D01*
X132103809Y-76953904D01*
X132341904Y-76953904D01*
X132437142Y-76906285D01*
X132484761Y-76858666D01*
X132532380Y-76763428D01*
X132532380Y-76525333D01*
X132484761Y-76430095D01*
X132437142Y-76382476D01*
G04 #@! TO.C,R97*
X127565257Y-65104980D02*
X127898590Y-64628790D01*
X128136685Y-65104980D02*
X128136685Y-64104980D01*
X127755733Y-64104980D01*
X127660495Y-64152600D01*
X127612876Y-64200219D01*
X127565257Y-64295457D01*
X127565257Y-64438314D01*
X127612876Y-64533552D01*
X127660495Y-64581171D01*
X127755733Y-64628790D01*
X128136685Y-64628790D01*
X127089066Y-65104980D02*
X126898590Y-65104980D01*
X126803352Y-65057361D01*
X126755733Y-65009742D01*
X126660495Y-64866885D01*
X126612876Y-64676409D01*
X126612876Y-64295457D01*
X126660495Y-64200219D01*
X126708114Y-64152600D01*
X126803352Y-64104980D01*
X126993828Y-64104980D01*
X127089066Y-64152600D01*
X127136685Y-64200219D01*
X127184304Y-64295457D01*
X127184304Y-64533552D01*
X127136685Y-64628790D01*
X127089066Y-64676409D01*
X126993828Y-64724028D01*
X126803352Y-64724028D01*
X126708114Y-64676409D01*
X126660495Y-64628790D01*
X126612876Y-64533552D01*
X126279542Y-64104980D02*
X125612876Y-64104980D01*
X126041447Y-65104980D01*
G04 #@! TO.C,Q8*
X92424238Y-91566619D02*
X92519476Y-91519000D01*
X92614714Y-91423761D01*
X92757571Y-91280904D01*
X92852809Y-91233285D01*
X92948047Y-91233285D01*
X92900428Y-91471380D02*
X92995666Y-91423761D01*
X93090904Y-91328523D01*
X93138523Y-91138047D01*
X93138523Y-90804714D01*
X93090904Y-90614238D01*
X92995666Y-90519000D01*
X92900428Y-90471380D01*
X92709952Y-90471380D01*
X92614714Y-90519000D01*
X92519476Y-90614238D01*
X92471857Y-90804714D01*
X92471857Y-91138047D01*
X92519476Y-91328523D01*
X92614714Y-91423761D01*
X92709952Y-91471380D01*
X92900428Y-91471380D01*
X91900428Y-90899952D02*
X91995666Y-90852333D01*
X92043285Y-90804714D01*
X92090904Y-90709476D01*
X92090904Y-90661857D01*
X92043285Y-90566619D01*
X91995666Y-90519000D01*
X91900428Y-90471380D01*
X91709952Y-90471380D01*
X91614714Y-90519000D01*
X91567095Y-90566619D01*
X91519476Y-90661857D01*
X91519476Y-90709476D01*
X91567095Y-90804714D01*
X91614714Y-90852333D01*
X91709952Y-90899952D01*
X91900428Y-90899952D01*
X91995666Y-90947571D01*
X92043285Y-90995190D01*
X92090904Y-91090428D01*
X92090904Y-91280904D01*
X92043285Y-91376142D01*
X91995666Y-91423761D01*
X91900428Y-91471380D01*
X91709952Y-91471380D01*
X91614714Y-91423761D01*
X91567095Y-91376142D01*
X91519476Y-91280904D01*
X91519476Y-91090428D01*
X91567095Y-90995190D01*
X91614714Y-90947571D01*
X91709952Y-90899952D01*
G04 #@! TO.C,Q10*
X144065428Y-69950619D02*
X144160666Y-69903000D01*
X144255904Y-69807761D01*
X144398761Y-69664904D01*
X144494000Y-69617285D01*
X144589238Y-69617285D01*
X144541619Y-69855380D02*
X144636857Y-69807761D01*
X144732095Y-69712523D01*
X144779714Y-69522047D01*
X144779714Y-69188714D01*
X144732095Y-68998238D01*
X144636857Y-68903000D01*
X144541619Y-68855380D01*
X144351142Y-68855380D01*
X144255904Y-68903000D01*
X144160666Y-68998238D01*
X144113047Y-69188714D01*
X144113047Y-69522047D01*
X144160666Y-69712523D01*
X144255904Y-69807761D01*
X144351142Y-69855380D01*
X144541619Y-69855380D01*
X143160666Y-69855380D02*
X143732095Y-69855380D01*
X143446380Y-69855380D02*
X143446380Y-68855380D01*
X143541619Y-68998238D01*
X143636857Y-69093476D01*
X143732095Y-69141095D01*
X142541619Y-68855380D02*
X142446380Y-68855380D01*
X142351142Y-68903000D01*
X142303523Y-68950619D01*
X142255904Y-69045857D01*
X142208285Y-69236333D01*
X142208285Y-69474428D01*
X142255904Y-69664904D01*
X142303523Y-69760142D01*
X142351142Y-69807761D01*
X142446380Y-69855380D01*
X142541619Y-69855380D01*
X142636857Y-69807761D01*
X142684476Y-69760142D01*
X142732095Y-69664904D01*
X142779714Y-69474428D01*
X142779714Y-69236333D01*
X142732095Y-69045857D01*
X142684476Y-68950619D01*
X142636857Y-68903000D01*
X142541619Y-68855380D01*
G04 #@! TO.C,R43*
X91544380Y-88257142D02*
X91068190Y-87923809D01*
X91544380Y-87685714D02*
X90544380Y-87685714D01*
X90544380Y-88066666D01*
X90592000Y-88161904D01*
X90639619Y-88209523D01*
X90734857Y-88257142D01*
X90877714Y-88257142D01*
X90972952Y-88209523D01*
X91020571Y-88161904D01*
X91068190Y-88066666D01*
X91068190Y-87685714D01*
X90877714Y-89114285D02*
X91544380Y-89114285D01*
X90496761Y-88876190D02*
X91211047Y-88638095D01*
X91211047Y-89257142D01*
X90544380Y-89542857D02*
X90544380Y-90161904D01*
X90925333Y-89828571D01*
X90925333Y-89971428D01*
X90972952Y-90066666D01*
X91020571Y-90114285D01*
X91115809Y-90161904D01*
X91353904Y-90161904D01*
X91449142Y-90114285D01*
X91496761Y-90066666D01*
X91544380Y-89971428D01*
X91544380Y-89685714D01*
X91496761Y-89590476D01*
X91449142Y-89542857D01*
G04 #@! TO.C,R70*
X117736857Y-97576880D02*
X118070190Y-97100690D01*
X118308285Y-97576880D02*
X118308285Y-96576880D01*
X117927333Y-96576880D01*
X117832095Y-96624500D01*
X117784476Y-96672119D01*
X117736857Y-96767357D01*
X117736857Y-96910214D01*
X117784476Y-97005452D01*
X117832095Y-97053071D01*
X117927333Y-97100690D01*
X118308285Y-97100690D01*
X117403523Y-96576880D02*
X116736857Y-96576880D01*
X117165428Y-97576880D01*
X116165428Y-96576880D02*
X116070190Y-96576880D01*
X115974952Y-96624500D01*
X115927333Y-96672119D01*
X115879714Y-96767357D01*
X115832095Y-96957833D01*
X115832095Y-97195928D01*
X115879714Y-97386404D01*
X115927333Y-97481642D01*
X115974952Y-97529261D01*
X116070190Y-97576880D01*
X116165428Y-97576880D01*
X116260666Y-97529261D01*
X116308285Y-97481642D01*
X116355904Y-97386404D01*
X116403523Y-97195928D01*
X116403523Y-96957833D01*
X116355904Y-96767357D01*
X116308285Y-96672119D01*
X116260666Y-96624500D01*
X116165428Y-96576880D01*
G04 #@! TO.C,R71*
X113350257Y-101984980D02*
X113683590Y-101508790D01*
X113921685Y-101984980D02*
X113921685Y-100984980D01*
X113540733Y-100984980D01*
X113445495Y-101032600D01*
X113397876Y-101080219D01*
X113350257Y-101175457D01*
X113350257Y-101318314D01*
X113397876Y-101413552D01*
X113445495Y-101461171D01*
X113540733Y-101508790D01*
X113921685Y-101508790D01*
X113016923Y-100984980D02*
X112350257Y-100984980D01*
X112778828Y-101984980D01*
X111445495Y-101984980D02*
X112016923Y-101984980D01*
X111731209Y-101984980D02*
X111731209Y-100984980D01*
X111826447Y-101127838D01*
X111921685Y-101223076D01*
X112016923Y-101270695D01*
G04 #@! TO.C,R102*
X161827147Y-105289880D02*
X162160480Y-104813690D01*
X162398576Y-105289880D02*
X162398576Y-104289880D01*
X162017623Y-104289880D01*
X161922385Y-104337500D01*
X161874766Y-104385119D01*
X161827147Y-104480357D01*
X161827147Y-104623214D01*
X161874766Y-104718452D01*
X161922385Y-104766071D01*
X162017623Y-104813690D01*
X162398576Y-104813690D01*
X160874766Y-105289880D02*
X161446195Y-105289880D01*
X161160480Y-105289880D02*
X161160480Y-104289880D01*
X161255719Y-104432738D01*
X161350957Y-104527976D01*
X161446195Y-104575595D01*
X160255719Y-104289880D02*
X160160480Y-104289880D01*
X160065242Y-104337500D01*
X160017623Y-104385119D01*
X159970004Y-104480357D01*
X159922385Y-104670833D01*
X159922385Y-104908928D01*
X159970004Y-105099404D01*
X160017623Y-105194642D01*
X160065242Y-105242261D01*
X160160480Y-105289880D01*
X160255719Y-105289880D01*
X160350957Y-105242261D01*
X160398576Y-105194642D01*
X160446195Y-105099404D01*
X160493814Y-104908928D01*
X160493814Y-104670833D01*
X160446195Y-104480357D01*
X160398576Y-104385119D01*
X160350957Y-104337500D01*
X160255719Y-104289880D01*
X159541433Y-104385119D02*
X159493814Y-104337500D01*
X159398576Y-104289880D01*
X159160480Y-104289880D01*
X159065242Y-104337500D01*
X159017623Y-104385119D01*
X158970004Y-104480357D01*
X158970004Y-104575595D01*
X159017623Y-104718452D01*
X159589052Y-105289880D01*
X158970004Y-105289880D01*
G04 #@! TO.C,JP17*
X120336923Y-110164980D02*
X120336923Y-110879266D01*
X120384542Y-111022123D01*
X120479780Y-111117361D01*
X120622638Y-111164980D01*
X120717876Y-111164980D01*
X119860733Y-111164980D02*
X119860733Y-110164980D01*
X119479780Y-110164980D01*
X119384542Y-110212600D01*
X119336923Y-110260219D01*
X119289304Y-110355457D01*
X119289304Y-110498314D01*
X119336923Y-110593552D01*
X119384542Y-110641171D01*
X119479780Y-110688790D01*
X119860733Y-110688790D01*
X118336923Y-111164980D02*
X118908352Y-111164980D01*
X118622638Y-111164980D02*
X118622638Y-110164980D01*
X118717876Y-110307838D01*
X118813114Y-110403076D01*
X118908352Y-110450695D01*
X118003590Y-110164980D02*
X117336923Y-110164980D01*
X117765495Y-111164980D01*
G04 #@! TO.C,JP18*
X166266923Y-103504980D02*
X166266923Y-104219266D01*
X166314542Y-104362123D01*
X166409780Y-104457361D01*
X166552638Y-104504980D01*
X166647876Y-104504980D01*
X165790733Y-104504980D02*
X165790733Y-103504980D01*
X165409780Y-103504980D01*
X165314542Y-103552600D01*
X165266923Y-103600219D01*
X165219304Y-103695457D01*
X165219304Y-103838314D01*
X165266923Y-103933552D01*
X165314542Y-103981171D01*
X165409780Y-104028790D01*
X165790733Y-104028790D01*
X164266923Y-104504980D02*
X164838352Y-104504980D01*
X164552638Y-104504980D02*
X164552638Y-103504980D01*
X164647876Y-103647838D01*
X164743114Y-103743076D01*
X164838352Y-103790695D01*
X163695495Y-103933552D02*
X163790733Y-103885933D01*
X163838352Y-103838314D01*
X163885971Y-103743076D01*
X163885971Y-103695457D01*
X163838352Y-103600219D01*
X163790733Y-103552600D01*
X163695495Y-103504980D01*
X163505019Y-103504980D01*
X163409780Y-103552600D01*
X163362161Y-103600219D01*
X163314542Y-103695457D01*
X163314542Y-103743076D01*
X163362161Y-103838314D01*
X163409780Y-103885933D01*
X163505019Y-103933552D01*
X163695495Y-103933552D01*
X163790733Y-103981171D01*
X163838352Y-104028790D01*
X163885971Y-104124028D01*
X163885971Y-104314504D01*
X163838352Y-104409742D01*
X163790733Y-104457361D01*
X163695495Y-104504980D01*
X163505019Y-104504980D01*
X163409780Y-104457361D01*
X163362161Y-104409742D01*
X163314542Y-104314504D01*
X163314542Y-104124028D01*
X163362161Y-104028790D01*
X163409780Y-103981171D01*
X163505019Y-103933552D01*
G04 #@! TD*
M02*
