G04 #@! TF.GenerationSoftware,KiCad,Pcbnew,(5.1.6-0-10_14)*
G04 #@! TF.CreationDate,2020-08-18T13:46:32-04:00*
G04 #@! TF.ProjectId,Pufferfish-Interface-2,50756666-6572-4666-9973-682d496e7465,rev?*
G04 #@! TF.SameCoordinates,Original*
G04 #@! TF.FileFunction,Soldermask,Top*
G04 #@! TF.FilePolarity,Negative*
%FSLAX46Y46*%
G04 Gerber Fmt 4.6, Leading zero omitted, Abs format (unit mm)*
G04 Created by KiCad (PCBNEW (5.1.6-0-10_14)) date 2020-08-18 13:46:32*
%MOMM*%
%LPD*%
G01*
G04 APERTURE LIST*
%ADD10O,1.800000X1.800000*%
%ADD11R,1.800000X1.800000*%
%ADD12C,6.553200*%
%ADD13R,1.500000X1.100000*%
%ADD14R,1.000000X0.900000*%
%ADD15O,2.300000X2.300000*%
%ADD16R,2.300000X2.300000*%
%ADD17R,1.825000X1.825000*%
%ADD18C,1.825000*%
%ADD19C,1.700000*%
G04 APERTURE END LIST*
D10*
X17619980Y-4711700D03*
X20159980Y-4711700D03*
X22699980Y-4711700D03*
X25239980Y-4711700D03*
X27779980Y-4711700D03*
X30319980Y-4711700D03*
X32859980Y-4711700D03*
X35399980Y-4711700D03*
D11*
X37939980Y-4711700D03*
D12*
X-3810000Y-6350000D03*
X-3810000Y-50800000D03*
X64770000Y-50800000D03*
X64770000Y-6350000D03*
D13*
X38692000Y-53340000D03*
X36492000Y-54290000D03*
X36492000Y-52390000D03*
G36*
G01*
X19255480Y-27649560D02*
X18905480Y-27649560D01*
G75*
G02*
X18730480Y-27474560I0J175000D01*
G01*
X18730480Y-25749560D01*
G75*
G02*
X18905480Y-25574560I175000J0D01*
G01*
X19255480Y-25574560D01*
G75*
G02*
X19430480Y-25749560I0J-175000D01*
G01*
X19430480Y-27474560D01*
G75*
G02*
X19255480Y-27649560I-175000J0D01*
G01*
G37*
G36*
G01*
X20525480Y-27649560D02*
X20175480Y-27649560D01*
G75*
G02*
X20000480Y-27474560I0J175000D01*
G01*
X20000480Y-25749560D01*
G75*
G02*
X20175480Y-25574560I175000J0D01*
G01*
X20525480Y-25574560D01*
G75*
G02*
X20700480Y-25749560I0J-175000D01*
G01*
X20700480Y-27474560D01*
G75*
G02*
X20525480Y-27649560I-175000J0D01*
G01*
G37*
G36*
G01*
X21795480Y-27649560D02*
X21445480Y-27649560D01*
G75*
G02*
X21270480Y-27474560I0J175000D01*
G01*
X21270480Y-25749560D01*
G75*
G02*
X21445480Y-25574560I175000J0D01*
G01*
X21795480Y-25574560D01*
G75*
G02*
X21970480Y-25749560I0J-175000D01*
G01*
X21970480Y-27474560D01*
G75*
G02*
X21795480Y-27649560I-175000J0D01*
G01*
G37*
G36*
G01*
X23065480Y-27649560D02*
X22715480Y-27649560D01*
G75*
G02*
X22540480Y-27474560I0J175000D01*
G01*
X22540480Y-25749560D01*
G75*
G02*
X22715480Y-25574560I175000J0D01*
G01*
X23065480Y-25574560D01*
G75*
G02*
X23240480Y-25749560I0J-175000D01*
G01*
X23240480Y-27474560D01*
G75*
G02*
X23065480Y-27649560I-175000J0D01*
G01*
G37*
G36*
G01*
X24335480Y-27649560D02*
X23985480Y-27649560D01*
G75*
G02*
X23810480Y-27474560I0J175000D01*
G01*
X23810480Y-25749560D01*
G75*
G02*
X23985480Y-25574560I175000J0D01*
G01*
X24335480Y-25574560D01*
G75*
G02*
X24510480Y-25749560I0J-175000D01*
G01*
X24510480Y-27474560D01*
G75*
G02*
X24335480Y-27649560I-175000J0D01*
G01*
G37*
G36*
G01*
X25605480Y-27649560D02*
X25255480Y-27649560D01*
G75*
G02*
X25080480Y-27474560I0J175000D01*
G01*
X25080480Y-25749560D01*
G75*
G02*
X25255480Y-25574560I175000J0D01*
G01*
X25605480Y-25574560D01*
G75*
G02*
X25780480Y-25749560I0J-175000D01*
G01*
X25780480Y-27474560D01*
G75*
G02*
X25605480Y-27649560I-175000J0D01*
G01*
G37*
G36*
G01*
X26875480Y-27649560D02*
X26525480Y-27649560D01*
G75*
G02*
X26350480Y-27474560I0J175000D01*
G01*
X26350480Y-25749560D01*
G75*
G02*
X26525480Y-25574560I175000J0D01*
G01*
X26875480Y-25574560D01*
G75*
G02*
X27050480Y-25749560I0J-175000D01*
G01*
X27050480Y-27474560D01*
G75*
G02*
X26875480Y-27649560I-175000J0D01*
G01*
G37*
G36*
G01*
X28145480Y-27649560D02*
X27795480Y-27649560D01*
G75*
G02*
X27620480Y-27474560I0J175000D01*
G01*
X27620480Y-25749560D01*
G75*
G02*
X27795480Y-25574560I175000J0D01*
G01*
X28145480Y-25574560D01*
G75*
G02*
X28320480Y-25749560I0J-175000D01*
G01*
X28320480Y-27474560D01*
G75*
G02*
X28145480Y-27649560I-175000J0D01*
G01*
G37*
G36*
G01*
X28145480Y-20724560D02*
X27795480Y-20724560D01*
G75*
G02*
X27620480Y-20549560I0J175000D01*
G01*
X27620480Y-18824560D01*
G75*
G02*
X27795480Y-18649560I175000J0D01*
G01*
X28145480Y-18649560D01*
G75*
G02*
X28320480Y-18824560I0J-175000D01*
G01*
X28320480Y-20549560D01*
G75*
G02*
X28145480Y-20724560I-175000J0D01*
G01*
G37*
G36*
G01*
X26875480Y-20724560D02*
X26525480Y-20724560D01*
G75*
G02*
X26350480Y-20549560I0J175000D01*
G01*
X26350480Y-18824560D01*
G75*
G02*
X26525480Y-18649560I175000J0D01*
G01*
X26875480Y-18649560D01*
G75*
G02*
X27050480Y-18824560I0J-175000D01*
G01*
X27050480Y-20549560D01*
G75*
G02*
X26875480Y-20724560I-175000J0D01*
G01*
G37*
G36*
G01*
X25605480Y-20724560D02*
X25255480Y-20724560D01*
G75*
G02*
X25080480Y-20549560I0J175000D01*
G01*
X25080480Y-18824560D01*
G75*
G02*
X25255480Y-18649560I175000J0D01*
G01*
X25605480Y-18649560D01*
G75*
G02*
X25780480Y-18824560I0J-175000D01*
G01*
X25780480Y-20549560D01*
G75*
G02*
X25605480Y-20724560I-175000J0D01*
G01*
G37*
G36*
G01*
X24335480Y-20724560D02*
X23985480Y-20724560D01*
G75*
G02*
X23810480Y-20549560I0J175000D01*
G01*
X23810480Y-18824560D01*
G75*
G02*
X23985480Y-18649560I175000J0D01*
G01*
X24335480Y-18649560D01*
G75*
G02*
X24510480Y-18824560I0J-175000D01*
G01*
X24510480Y-20549560D01*
G75*
G02*
X24335480Y-20724560I-175000J0D01*
G01*
G37*
G36*
G01*
X23065480Y-20724560D02*
X22715480Y-20724560D01*
G75*
G02*
X22540480Y-20549560I0J175000D01*
G01*
X22540480Y-18824560D01*
G75*
G02*
X22715480Y-18649560I175000J0D01*
G01*
X23065480Y-18649560D01*
G75*
G02*
X23240480Y-18824560I0J-175000D01*
G01*
X23240480Y-20549560D01*
G75*
G02*
X23065480Y-20724560I-175000J0D01*
G01*
G37*
G36*
G01*
X21795480Y-20724560D02*
X21445480Y-20724560D01*
G75*
G02*
X21270480Y-20549560I0J175000D01*
G01*
X21270480Y-18824560D01*
G75*
G02*
X21445480Y-18649560I175000J0D01*
G01*
X21795480Y-18649560D01*
G75*
G02*
X21970480Y-18824560I0J-175000D01*
G01*
X21970480Y-20549560D01*
G75*
G02*
X21795480Y-20724560I-175000J0D01*
G01*
G37*
G36*
G01*
X20525480Y-20724560D02*
X20175480Y-20724560D01*
G75*
G02*
X20000480Y-20549560I0J175000D01*
G01*
X20000480Y-18824560D01*
G75*
G02*
X20175480Y-18649560I175000J0D01*
G01*
X20525480Y-18649560D01*
G75*
G02*
X20700480Y-18824560I0J-175000D01*
G01*
X20700480Y-20549560D01*
G75*
G02*
X20525480Y-20724560I-175000J0D01*
G01*
G37*
G36*
G01*
X19255480Y-20724560D02*
X18905480Y-20724560D01*
G75*
G02*
X18730480Y-20549560I0J175000D01*
G01*
X18730480Y-18824560D01*
G75*
G02*
X18905480Y-18649560I175000J0D01*
G01*
X19255480Y-18649560D01*
G75*
G02*
X19430480Y-18824560I0J-175000D01*
G01*
X19430480Y-20549560D01*
G75*
G02*
X19255480Y-20724560I-175000J0D01*
G01*
G37*
G36*
G01*
X57863000Y-18314750D02*
X57863000Y-19277250D01*
G75*
G02*
X57594250Y-19546000I-268750J0D01*
G01*
X57056750Y-19546000D01*
G75*
G02*
X56788000Y-19277250I0J268750D01*
G01*
X56788000Y-18314750D01*
G75*
G02*
X57056750Y-18046000I268750J0D01*
G01*
X57594250Y-18046000D01*
G75*
G02*
X57863000Y-18314750I0J-268750D01*
G01*
G37*
G36*
G01*
X55988000Y-18314750D02*
X55988000Y-19277250D01*
G75*
G02*
X55719250Y-19546000I-268750J0D01*
G01*
X55181750Y-19546000D01*
G75*
G02*
X54913000Y-19277250I0J268750D01*
G01*
X54913000Y-18314750D01*
G75*
G02*
X55181750Y-18046000I268750J0D01*
G01*
X55719250Y-18046000D01*
G75*
G02*
X55988000Y-18314750I0J-268750D01*
G01*
G37*
G36*
G01*
X56788000Y-16737250D02*
X56788000Y-15774750D01*
G75*
G02*
X57056750Y-15506000I268750J0D01*
G01*
X57594250Y-15506000D01*
G75*
G02*
X57863000Y-15774750I0J-268750D01*
G01*
X57863000Y-16737250D01*
G75*
G02*
X57594250Y-17006000I-268750J0D01*
G01*
X57056750Y-17006000D01*
G75*
G02*
X56788000Y-16737250I0J268750D01*
G01*
G37*
G36*
G01*
X54913000Y-16737250D02*
X54913000Y-15774750D01*
G75*
G02*
X55181750Y-15506000I268750J0D01*
G01*
X55719250Y-15506000D01*
G75*
G02*
X55988000Y-15774750I0J-268750D01*
G01*
X55988000Y-16737250D01*
G75*
G02*
X55719250Y-17006000I-268750J0D01*
G01*
X55181750Y-17006000D01*
G75*
G02*
X54913000Y-16737250I0J268750D01*
G01*
G37*
G36*
G01*
X36273000Y-18822750D02*
X36273000Y-19785250D01*
G75*
G02*
X36004250Y-20054000I-268750J0D01*
G01*
X35466750Y-20054000D01*
G75*
G02*
X35198000Y-19785250I0J268750D01*
G01*
X35198000Y-18822750D01*
G75*
G02*
X35466750Y-18554000I268750J0D01*
G01*
X36004250Y-18554000D01*
G75*
G02*
X36273000Y-18822750I0J-268750D01*
G01*
G37*
G36*
G01*
X34398000Y-18822750D02*
X34398000Y-19785250D01*
G75*
G02*
X34129250Y-20054000I-268750J0D01*
G01*
X33591750Y-20054000D01*
G75*
G02*
X33323000Y-19785250I0J268750D01*
G01*
X33323000Y-18822750D01*
G75*
G02*
X33591750Y-18554000I268750J0D01*
G01*
X34129250Y-18554000D01*
G75*
G02*
X34398000Y-18822750I0J-268750D01*
G01*
G37*
G36*
G01*
X42115000Y-18314750D02*
X42115000Y-19277250D01*
G75*
G02*
X41846250Y-19546000I-268750J0D01*
G01*
X41308750Y-19546000D01*
G75*
G02*
X41040000Y-19277250I0J268750D01*
G01*
X41040000Y-18314750D01*
G75*
G02*
X41308750Y-18046000I268750J0D01*
G01*
X41846250Y-18046000D01*
G75*
G02*
X42115000Y-18314750I0J-268750D01*
G01*
G37*
G36*
G01*
X40240000Y-18314750D02*
X40240000Y-19277250D01*
G75*
G02*
X39971250Y-19546000I-268750J0D01*
G01*
X39433750Y-19546000D01*
G75*
G02*
X39165000Y-19277250I0J268750D01*
G01*
X39165000Y-18314750D01*
G75*
G02*
X39433750Y-18046000I268750J0D01*
G01*
X39971250Y-18046000D01*
G75*
G02*
X40240000Y-18314750I0J-268750D01*
G01*
G37*
G36*
G01*
X45320000Y-18314750D02*
X45320000Y-19277250D01*
G75*
G02*
X45051250Y-19546000I-268750J0D01*
G01*
X44513750Y-19546000D01*
G75*
G02*
X44245000Y-19277250I0J268750D01*
G01*
X44245000Y-18314750D01*
G75*
G02*
X44513750Y-18046000I268750J0D01*
G01*
X45051250Y-18046000D01*
G75*
G02*
X45320000Y-18314750I0J-268750D01*
G01*
G37*
G36*
G01*
X47195000Y-18314750D02*
X47195000Y-19277250D01*
G75*
G02*
X46926250Y-19546000I-268750J0D01*
G01*
X46388750Y-19546000D01*
G75*
G02*
X46120000Y-19277250I0J268750D01*
G01*
X46120000Y-18314750D01*
G75*
G02*
X46388750Y-18046000I268750J0D01*
G01*
X46926250Y-18046000D01*
G75*
G02*
X47195000Y-18314750I0J-268750D01*
G01*
G37*
G36*
G01*
X52704500Y-18314750D02*
X52704500Y-19277250D01*
G75*
G02*
X52435750Y-19546000I-268750J0D01*
G01*
X51898250Y-19546000D01*
G75*
G02*
X51629500Y-19277250I0J268750D01*
G01*
X51629500Y-18314750D01*
G75*
G02*
X51898250Y-18046000I268750J0D01*
G01*
X52435750Y-18046000D01*
G75*
G02*
X52704500Y-18314750I0J-268750D01*
G01*
G37*
G36*
G01*
X50829500Y-18314750D02*
X50829500Y-19277250D01*
G75*
G02*
X50560750Y-19546000I-268750J0D01*
G01*
X50023250Y-19546000D01*
G75*
G02*
X49754500Y-19277250I0J268750D01*
G01*
X49754500Y-18314750D01*
G75*
G02*
X50023250Y-18046000I268750J0D01*
G01*
X50560750Y-18046000D01*
G75*
G02*
X50829500Y-18314750I0J-268750D01*
G01*
G37*
G36*
G01*
X35022500Y-17499250D02*
X35022500Y-16536750D01*
G75*
G02*
X35291250Y-16268000I268750J0D01*
G01*
X35828750Y-16268000D01*
G75*
G02*
X36097500Y-16536750I0J-268750D01*
G01*
X36097500Y-17499250D01*
G75*
G02*
X35828750Y-17768000I-268750J0D01*
G01*
X35291250Y-17768000D01*
G75*
G02*
X35022500Y-17499250I0J268750D01*
G01*
G37*
G36*
G01*
X33147500Y-17499250D02*
X33147500Y-16536750D01*
G75*
G02*
X33416250Y-16268000I268750J0D01*
G01*
X33953750Y-16268000D01*
G75*
G02*
X34222500Y-16536750I0J-268750D01*
G01*
X34222500Y-17499250D01*
G75*
G02*
X33953750Y-17768000I-268750J0D01*
G01*
X33416250Y-17768000D01*
G75*
G02*
X33147500Y-17499250I0J268750D01*
G01*
G37*
G36*
G01*
X40961500Y-16737250D02*
X40961500Y-15774750D01*
G75*
G02*
X41230250Y-15506000I268750J0D01*
G01*
X41767750Y-15506000D01*
G75*
G02*
X42036500Y-15774750I0J-268750D01*
G01*
X42036500Y-16737250D01*
G75*
G02*
X41767750Y-17006000I-268750J0D01*
G01*
X41230250Y-17006000D01*
G75*
G02*
X40961500Y-16737250I0J268750D01*
G01*
G37*
G36*
G01*
X39086500Y-16737250D02*
X39086500Y-15774750D01*
G75*
G02*
X39355250Y-15506000I268750J0D01*
G01*
X39892750Y-15506000D01*
G75*
G02*
X40161500Y-15774750I0J-268750D01*
G01*
X40161500Y-16737250D01*
G75*
G02*
X39892750Y-17006000I-268750J0D01*
G01*
X39355250Y-17006000D01*
G75*
G02*
X39086500Y-16737250I0J268750D01*
G01*
G37*
G36*
G01*
X44245000Y-16737250D02*
X44245000Y-15774750D01*
G75*
G02*
X44513750Y-15506000I268750J0D01*
G01*
X45051250Y-15506000D01*
G75*
G02*
X45320000Y-15774750I0J-268750D01*
G01*
X45320000Y-16737250D01*
G75*
G02*
X45051250Y-17006000I-268750J0D01*
G01*
X44513750Y-17006000D01*
G75*
G02*
X44245000Y-16737250I0J268750D01*
G01*
G37*
G36*
G01*
X46120000Y-16737250D02*
X46120000Y-15774750D01*
G75*
G02*
X46388750Y-15506000I268750J0D01*
G01*
X46926250Y-15506000D01*
G75*
G02*
X47195000Y-15774750I0J-268750D01*
G01*
X47195000Y-16737250D01*
G75*
G02*
X46926250Y-17006000I-268750J0D01*
G01*
X46388750Y-17006000D01*
G75*
G02*
X46120000Y-16737250I0J268750D01*
G01*
G37*
G36*
G01*
X49657500Y-16737250D02*
X49657500Y-15774750D01*
G75*
G02*
X49926250Y-15506000I268750J0D01*
G01*
X50463750Y-15506000D01*
G75*
G02*
X50732500Y-15774750I0J-268750D01*
G01*
X50732500Y-16737250D01*
G75*
G02*
X50463750Y-17006000I-268750J0D01*
G01*
X49926250Y-17006000D01*
G75*
G02*
X49657500Y-16737250I0J268750D01*
G01*
G37*
G36*
G01*
X51532500Y-16737250D02*
X51532500Y-15774750D01*
G75*
G02*
X51801250Y-15506000I268750J0D01*
G01*
X52338750Y-15506000D01*
G75*
G02*
X52607500Y-15774750I0J-268750D01*
G01*
X52607500Y-16737250D01*
G75*
G02*
X52338750Y-17006000I-268750J0D01*
G01*
X51801250Y-17006000D01*
G75*
G02*
X51532500Y-16737250I0J268750D01*
G01*
G37*
G36*
G01*
X17245410Y-11662360D02*
X18207910Y-11662360D01*
G75*
G02*
X18476660Y-11931110I0J-268750D01*
G01*
X18476660Y-12468610D01*
G75*
G02*
X18207910Y-12737360I-268750J0D01*
G01*
X17245410Y-12737360D01*
G75*
G02*
X16976660Y-12468610I0J268750D01*
G01*
X16976660Y-11931110D01*
G75*
G02*
X17245410Y-11662360I268750J0D01*
G01*
G37*
G36*
G01*
X17245410Y-9787360D02*
X18207910Y-9787360D01*
G75*
G02*
X18476660Y-10056110I0J-268750D01*
G01*
X18476660Y-10593610D01*
G75*
G02*
X18207910Y-10862360I-268750J0D01*
G01*
X17245410Y-10862360D01*
G75*
G02*
X16976660Y-10593610I0J268750D01*
G01*
X16976660Y-10056110D01*
G75*
G02*
X17245410Y-9787360I268750J0D01*
G01*
G37*
G36*
G01*
X20039410Y-9787360D02*
X21001910Y-9787360D01*
G75*
G02*
X21270660Y-10056110I0J-268750D01*
G01*
X21270660Y-10593610D01*
G75*
G02*
X21001910Y-10862360I-268750J0D01*
G01*
X20039410Y-10862360D01*
G75*
G02*
X19770660Y-10593610I0J268750D01*
G01*
X19770660Y-10056110D01*
G75*
G02*
X20039410Y-9787360I268750J0D01*
G01*
G37*
G36*
G01*
X20039410Y-11662360D02*
X21001910Y-11662360D01*
G75*
G02*
X21270660Y-11931110I0J-268750D01*
G01*
X21270660Y-12468610D01*
G75*
G02*
X21001910Y-12737360I-268750J0D01*
G01*
X20039410Y-12737360D01*
G75*
G02*
X19770660Y-12468610I0J268750D01*
G01*
X19770660Y-11931110D01*
G75*
G02*
X20039410Y-11662360I268750J0D01*
G01*
G37*
G36*
G01*
X22579410Y-11740860D02*
X23541910Y-11740860D01*
G75*
G02*
X23810660Y-12009610I0J-268750D01*
G01*
X23810660Y-12547110D01*
G75*
G02*
X23541910Y-12815860I-268750J0D01*
G01*
X22579410Y-12815860D01*
G75*
G02*
X22310660Y-12547110I0J268750D01*
G01*
X22310660Y-12009610D01*
G75*
G02*
X22579410Y-11740860I268750J0D01*
G01*
G37*
G36*
G01*
X22579410Y-9865860D02*
X23541910Y-9865860D01*
G75*
G02*
X23810660Y-10134610I0J-268750D01*
G01*
X23810660Y-10672110D01*
G75*
G02*
X23541910Y-10940860I-268750J0D01*
G01*
X22579410Y-10940860D01*
G75*
G02*
X22310660Y-10672110I0J268750D01*
G01*
X22310660Y-10134610D01*
G75*
G02*
X22579410Y-9865860I268750J0D01*
G01*
G37*
G36*
G01*
X25528350Y-9998420D02*
X26490850Y-9998420D01*
G75*
G02*
X26759600Y-10267170I0J-268750D01*
G01*
X26759600Y-10804670D01*
G75*
G02*
X26490850Y-11073420I-268750J0D01*
G01*
X25528350Y-11073420D01*
G75*
G02*
X25259600Y-10804670I0J268750D01*
G01*
X25259600Y-10267170D01*
G75*
G02*
X25528350Y-9998420I268750J0D01*
G01*
G37*
G36*
G01*
X25528350Y-11873420D02*
X26490850Y-11873420D01*
G75*
G02*
X26759600Y-12142170I0J-268750D01*
G01*
X26759600Y-12679670D01*
G75*
G02*
X26490850Y-12948420I-268750J0D01*
G01*
X25528350Y-12948420D01*
G75*
G02*
X25259600Y-12679670I0J268750D01*
G01*
X25259600Y-12142170D01*
G75*
G02*
X25528350Y-11873420I268750J0D01*
G01*
G37*
G36*
G01*
X10133250Y-14586000D02*
X9170750Y-14586000D01*
G75*
G02*
X8902000Y-14317250I0J268750D01*
G01*
X8902000Y-13779750D01*
G75*
G02*
X9170750Y-13511000I268750J0D01*
G01*
X10133250Y-13511000D01*
G75*
G02*
X10402000Y-13779750I0J-268750D01*
G01*
X10402000Y-14317250D01*
G75*
G02*
X10133250Y-14586000I-268750J0D01*
G01*
G37*
G36*
G01*
X10133250Y-16461000D02*
X9170750Y-16461000D01*
G75*
G02*
X8902000Y-16192250I0J268750D01*
G01*
X8902000Y-15654750D01*
G75*
G02*
X9170750Y-15386000I268750J0D01*
G01*
X10133250Y-15386000D01*
G75*
G02*
X10402000Y-15654750I0J-268750D01*
G01*
X10402000Y-16192250D01*
G75*
G02*
X10133250Y-16461000I-268750J0D01*
G01*
G37*
G36*
G01*
X10133250Y-20525000D02*
X9170750Y-20525000D01*
G75*
G02*
X8902000Y-20256250I0J268750D01*
G01*
X8902000Y-19718750D01*
G75*
G02*
X9170750Y-19450000I268750J0D01*
G01*
X10133250Y-19450000D01*
G75*
G02*
X10402000Y-19718750I0J-268750D01*
G01*
X10402000Y-20256250D01*
G75*
G02*
X10133250Y-20525000I-268750J0D01*
G01*
G37*
G36*
G01*
X10133250Y-18650000D02*
X9170750Y-18650000D01*
G75*
G02*
X8902000Y-18381250I0J268750D01*
G01*
X8902000Y-17843750D01*
G75*
G02*
X9170750Y-17575000I268750J0D01*
G01*
X10133250Y-17575000D01*
G75*
G02*
X10402000Y-17843750I0J-268750D01*
G01*
X10402000Y-18381250D01*
G75*
G02*
X10133250Y-18650000I-268750J0D01*
G01*
G37*
G36*
G01*
X10133250Y-22714000D02*
X9170750Y-22714000D01*
G75*
G02*
X8902000Y-22445250I0J268750D01*
G01*
X8902000Y-21907750D01*
G75*
G02*
X9170750Y-21639000I268750J0D01*
G01*
X10133250Y-21639000D01*
G75*
G02*
X10402000Y-21907750I0J-268750D01*
G01*
X10402000Y-22445250D01*
G75*
G02*
X10133250Y-22714000I-268750J0D01*
G01*
G37*
G36*
G01*
X10133250Y-24589000D02*
X9170750Y-24589000D01*
G75*
G02*
X8902000Y-24320250I0J268750D01*
G01*
X8902000Y-23782750D01*
G75*
G02*
X9170750Y-23514000I268750J0D01*
G01*
X10133250Y-23514000D01*
G75*
G02*
X10402000Y-23782750I0J-268750D01*
G01*
X10402000Y-24320250D01*
G75*
G02*
X10133250Y-24589000I-268750J0D01*
G01*
G37*
G36*
G01*
X34495000Y-51842750D02*
X34495000Y-52805250D01*
G75*
G02*
X34226250Y-53074000I-268750J0D01*
G01*
X33688750Y-53074000D01*
G75*
G02*
X33420000Y-52805250I0J268750D01*
G01*
X33420000Y-51842750D01*
G75*
G02*
X33688750Y-51574000I268750J0D01*
G01*
X34226250Y-51574000D01*
G75*
G02*
X34495000Y-51842750I0J-268750D01*
G01*
G37*
G36*
G01*
X32620000Y-51842750D02*
X32620000Y-52805250D01*
G75*
G02*
X32351250Y-53074000I-268750J0D01*
G01*
X31813750Y-53074000D01*
G75*
G02*
X31545000Y-52805250I0J268750D01*
G01*
X31545000Y-51842750D01*
G75*
G02*
X31813750Y-51574000I268750J0D01*
G01*
X32351250Y-51574000D01*
G75*
G02*
X32620000Y-51842750I0J-268750D01*
G01*
G37*
G36*
G01*
X52099020Y-29998750D02*
X52099020Y-30961250D01*
G75*
G02*
X51830270Y-31230000I-268750J0D01*
G01*
X51292770Y-31230000D01*
G75*
G02*
X51024020Y-30961250I0J268750D01*
G01*
X51024020Y-29998750D01*
G75*
G02*
X51292770Y-29730000I268750J0D01*
G01*
X51830270Y-29730000D01*
G75*
G02*
X52099020Y-29998750I0J-268750D01*
G01*
G37*
G36*
G01*
X53974020Y-29998750D02*
X53974020Y-30961250D01*
G75*
G02*
X53705270Y-31230000I-268750J0D01*
G01*
X53167770Y-31230000D01*
G75*
G02*
X52899020Y-30961250I0J268750D01*
G01*
X52899020Y-29998750D01*
G75*
G02*
X53167770Y-29730000I268750J0D01*
G01*
X53705270Y-29730000D01*
G75*
G02*
X53974020Y-29998750I0J-268750D01*
G01*
G37*
G36*
G01*
X47273500Y-30036850D02*
X47273500Y-30999350D01*
G75*
G02*
X47004750Y-31268100I-268750J0D01*
G01*
X46467250Y-31268100D01*
G75*
G02*
X46198500Y-30999350I0J268750D01*
G01*
X46198500Y-30036850D01*
G75*
G02*
X46467250Y-29768100I268750J0D01*
G01*
X47004750Y-29768100D01*
G75*
G02*
X47273500Y-30036850I0J-268750D01*
G01*
G37*
G36*
G01*
X45398500Y-30036850D02*
X45398500Y-30999350D01*
G75*
G02*
X45129750Y-31268100I-268750J0D01*
G01*
X44592250Y-31268100D01*
G75*
G02*
X44323500Y-30999350I0J268750D01*
G01*
X44323500Y-30036850D01*
G75*
G02*
X44592250Y-29768100I268750J0D01*
G01*
X45129750Y-29768100D01*
G75*
G02*
X45398500Y-30036850I0J-268750D01*
G01*
G37*
G36*
G01*
X38609320Y-29958110D02*
X38609320Y-30920610D01*
G75*
G02*
X38340570Y-31189360I-268750J0D01*
G01*
X37803070Y-31189360D01*
G75*
G02*
X37534320Y-30920610I0J268750D01*
G01*
X37534320Y-29958110D01*
G75*
G02*
X37803070Y-29689360I268750J0D01*
G01*
X38340570Y-29689360D01*
G75*
G02*
X38609320Y-29958110I0J-268750D01*
G01*
G37*
G36*
G01*
X40484320Y-29958110D02*
X40484320Y-30920610D01*
G75*
G02*
X40215570Y-31189360I-268750J0D01*
G01*
X39678070Y-31189360D01*
G75*
G02*
X39409320Y-30920610I0J268750D01*
G01*
X39409320Y-29958110D01*
G75*
G02*
X39678070Y-29689360I268750J0D01*
G01*
X40215570Y-29689360D01*
G75*
G02*
X40484320Y-29958110I0J-268750D01*
G01*
G37*
G36*
G01*
X33723080Y-29879370D02*
X33723080Y-30841870D01*
G75*
G02*
X33454330Y-31110620I-268750J0D01*
G01*
X32916830Y-31110620D01*
G75*
G02*
X32648080Y-30841870I0J268750D01*
G01*
X32648080Y-29879370D01*
G75*
G02*
X32916830Y-29610620I268750J0D01*
G01*
X33454330Y-29610620D01*
G75*
G02*
X33723080Y-29879370I0J-268750D01*
G01*
G37*
G36*
G01*
X31848080Y-29879370D02*
X31848080Y-30841870D01*
G75*
G02*
X31579330Y-31110620I-268750J0D01*
G01*
X31041830Y-31110620D01*
G75*
G02*
X30773080Y-30841870I0J268750D01*
G01*
X30773080Y-29879370D01*
G75*
G02*
X31041830Y-29610620I268750J0D01*
G01*
X31579330Y-29610620D01*
G75*
G02*
X31848080Y-29879370I0J-268750D01*
G01*
G37*
G36*
G01*
X56361250Y-35257000D02*
X55398750Y-35257000D01*
G75*
G02*
X55130000Y-34988250I0J268750D01*
G01*
X55130000Y-34450750D01*
G75*
G02*
X55398750Y-34182000I268750J0D01*
G01*
X56361250Y-34182000D01*
G75*
G02*
X56630000Y-34450750I0J-268750D01*
G01*
X56630000Y-34988250D01*
G75*
G02*
X56361250Y-35257000I-268750J0D01*
G01*
G37*
G36*
G01*
X56361250Y-33382000D02*
X55398750Y-33382000D01*
G75*
G02*
X55130000Y-33113250I0J268750D01*
G01*
X55130000Y-32575750D01*
G75*
G02*
X55398750Y-32307000I268750J0D01*
G01*
X56361250Y-32307000D01*
G75*
G02*
X56630000Y-32575750I0J-268750D01*
G01*
X56630000Y-33113250D01*
G75*
G02*
X56361250Y-33382000I-268750J0D01*
G01*
G37*
G36*
G01*
X49457530Y-33275320D02*
X48495030Y-33275320D01*
G75*
G02*
X48226280Y-33006570I0J268750D01*
G01*
X48226280Y-32469070D01*
G75*
G02*
X48495030Y-32200320I268750J0D01*
G01*
X49457530Y-32200320D01*
G75*
G02*
X49726280Y-32469070I0J-268750D01*
G01*
X49726280Y-33006570D01*
G75*
G02*
X49457530Y-33275320I-268750J0D01*
G01*
G37*
G36*
G01*
X49457530Y-35150320D02*
X48495030Y-35150320D01*
G75*
G02*
X48226280Y-34881570I0J268750D01*
G01*
X48226280Y-34344070D01*
G75*
G02*
X48495030Y-34075320I268750J0D01*
G01*
X49457530Y-34075320D01*
G75*
G02*
X49726280Y-34344070I0J-268750D01*
G01*
X49726280Y-34881570D01*
G75*
G02*
X49457530Y-35150320I-268750J0D01*
G01*
G37*
G36*
G01*
X42823050Y-35257000D02*
X41860550Y-35257000D01*
G75*
G02*
X41591800Y-34988250I0J268750D01*
G01*
X41591800Y-34450750D01*
G75*
G02*
X41860550Y-34182000I268750J0D01*
G01*
X42823050Y-34182000D01*
G75*
G02*
X43091800Y-34450750I0J-268750D01*
G01*
X43091800Y-34988250D01*
G75*
G02*
X42823050Y-35257000I-268750J0D01*
G01*
G37*
G36*
G01*
X42823050Y-33382000D02*
X41860550Y-33382000D01*
G75*
G02*
X41591800Y-33113250I0J268750D01*
G01*
X41591800Y-32575750D01*
G75*
G02*
X41860550Y-32307000I268750J0D01*
G01*
X42823050Y-32307000D01*
G75*
G02*
X43091800Y-32575750I0J-268750D01*
G01*
X43091800Y-33113250D01*
G75*
G02*
X42823050Y-33382000I-268750J0D01*
G01*
G37*
G36*
G01*
X36295250Y-33382000D02*
X35332750Y-33382000D01*
G75*
G02*
X35064000Y-33113250I0J268750D01*
G01*
X35064000Y-32575750D01*
G75*
G02*
X35332750Y-32307000I268750J0D01*
G01*
X36295250Y-32307000D01*
G75*
G02*
X36564000Y-32575750I0J-268750D01*
G01*
X36564000Y-33113250D01*
G75*
G02*
X36295250Y-33382000I-268750J0D01*
G01*
G37*
G36*
G01*
X36295250Y-35257000D02*
X35332750Y-35257000D01*
G75*
G02*
X35064000Y-34988250I0J268750D01*
G01*
X35064000Y-34450750D01*
G75*
G02*
X35332750Y-34182000I268750J0D01*
G01*
X36295250Y-34182000D01*
G75*
G02*
X36564000Y-34450750I0J-268750D01*
G01*
X36564000Y-34988250D01*
G75*
G02*
X36295250Y-35257000I-268750J0D01*
G01*
G37*
D14*
X4080000Y-14478000D03*
X6080000Y-13528000D03*
X6080000Y-15428000D03*
X4047740Y-18521720D03*
X6047740Y-17571720D03*
X6047740Y-19471720D03*
X5970780Y-23566160D03*
X5970780Y-21666160D03*
X3970780Y-22616160D03*
X51578000Y-33782000D03*
X53578000Y-32832000D03*
X53578000Y-34732000D03*
X46720000Y-34732000D03*
X46720000Y-32832000D03*
X44720000Y-33782000D03*
X38116000Y-33782000D03*
X40116000Y-32832000D03*
X40116000Y-34732000D03*
X33512000Y-34732000D03*
X33512000Y-32832000D03*
X31512000Y-33782000D03*
G36*
G01*
X57064000Y-24530000D02*
X57064000Y-23730000D01*
G75*
G02*
X57414000Y-23380000I350000J0D01*
G01*
X58114000Y-23380000D01*
G75*
G02*
X58464000Y-23730000I0J-350000D01*
G01*
X58464000Y-24530000D01*
G75*
G02*
X58114000Y-24880000I-350000J0D01*
G01*
X57414000Y-24880000D01*
G75*
G02*
X57064000Y-24530000I0J350000D01*
G01*
G37*
G36*
G01*
X54164000Y-24530000D02*
X54164000Y-23730000D01*
G75*
G02*
X54514000Y-23380000I350000J0D01*
G01*
X55214000Y-23380000D01*
G75*
G02*
X55564000Y-23730000I0J-350000D01*
G01*
X55564000Y-24530000D01*
G75*
G02*
X55214000Y-24880000I-350000J0D01*
G01*
X54514000Y-24880000D01*
G75*
G02*
X54164000Y-24530000I0J350000D01*
G01*
G37*
G36*
G01*
X35548000Y-24530000D02*
X35548000Y-23730000D01*
G75*
G02*
X35898000Y-23380000I350000J0D01*
G01*
X36598000Y-23380000D01*
G75*
G02*
X36948000Y-23730000I0J-350000D01*
G01*
X36948000Y-24530000D01*
G75*
G02*
X36598000Y-24880000I-350000J0D01*
G01*
X35898000Y-24880000D01*
G75*
G02*
X35548000Y-24530000I0J350000D01*
G01*
G37*
G36*
G01*
X32648000Y-24530000D02*
X32648000Y-23730000D01*
G75*
G02*
X32998000Y-23380000I350000J0D01*
G01*
X33698000Y-23380000D01*
G75*
G02*
X34048000Y-23730000I0J-350000D01*
G01*
X34048000Y-24530000D01*
G75*
G02*
X33698000Y-24880000I-350000J0D01*
G01*
X32998000Y-24880000D01*
G75*
G02*
X32648000Y-24530000I0J350000D01*
G01*
G37*
G36*
G01*
X41062000Y-24530000D02*
X41062000Y-23730000D01*
G75*
G02*
X41412000Y-23380000I350000J0D01*
G01*
X42112000Y-23380000D01*
G75*
G02*
X42462000Y-23730000I0J-350000D01*
G01*
X42462000Y-24530000D01*
G75*
G02*
X42112000Y-24880000I-350000J0D01*
G01*
X41412000Y-24880000D01*
G75*
G02*
X41062000Y-24530000I0J350000D01*
G01*
G37*
G36*
G01*
X38162000Y-24530000D02*
X38162000Y-23730000D01*
G75*
G02*
X38512000Y-23380000I350000J0D01*
G01*
X39212000Y-23380000D01*
G75*
G02*
X39562000Y-23730000I0J-350000D01*
G01*
X39562000Y-24530000D01*
G75*
G02*
X39212000Y-24880000I-350000J0D01*
G01*
X38512000Y-24880000D01*
G75*
G02*
X38162000Y-24530000I0J350000D01*
G01*
G37*
G36*
G01*
X43750000Y-24530000D02*
X43750000Y-23730000D01*
G75*
G02*
X44100000Y-23380000I350000J0D01*
G01*
X44800000Y-23380000D01*
G75*
G02*
X45150000Y-23730000I0J-350000D01*
G01*
X45150000Y-24530000D01*
G75*
G02*
X44800000Y-24880000I-350000J0D01*
G01*
X44100000Y-24880000D01*
G75*
G02*
X43750000Y-24530000I0J350000D01*
G01*
G37*
G36*
G01*
X46650000Y-24530000D02*
X46650000Y-23730000D01*
G75*
G02*
X47000000Y-23380000I350000J0D01*
G01*
X47700000Y-23380000D01*
G75*
G02*
X48050000Y-23730000I0J-350000D01*
G01*
X48050000Y-24530000D01*
G75*
G02*
X47700000Y-24880000I-350000J0D01*
G01*
X47000000Y-24880000D01*
G75*
G02*
X46650000Y-24530000I0J350000D01*
G01*
G37*
G36*
G01*
X49158000Y-24530000D02*
X49158000Y-23730000D01*
G75*
G02*
X49508000Y-23380000I350000J0D01*
G01*
X50208000Y-23380000D01*
G75*
G02*
X50558000Y-23730000I0J-350000D01*
G01*
X50558000Y-24530000D01*
G75*
G02*
X50208000Y-24880000I-350000J0D01*
G01*
X49508000Y-24880000D01*
G75*
G02*
X49158000Y-24530000I0J350000D01*
G01*
G37*
G36*
G01*
X52058000Y-24530000D02*
X52058000Y-23730000D01*
G75*
G02*
X52408000Y-23380000I350000J0D01*
G01*
X53108000Y-23380000D01*
G75*
G02*
X53458000Y-23730000I0J-350000D01*
G01*
X53458000Y-24530000D01*
G75*
G02*
X53108000Y-24880000I-350000J0D01*
G01*
X52408000Y-24880000D01*
G75*
G02*
X52058000Y-24530000I0J350000D01*
G01*
G37*
D15*
X2540000Y-27178000D03*
D16*
X2540000Y-37338000D03*
X18542000Y-53594000D03*
D15*
X28702000Y-53594000D03*
G36*
G01*
X54834500Y-21817250D02*
X54834500Y-20854750D01*
G75*
G02*
X55103250Y-20586000I268750J0D01*
G01*
X55640750Y-20586000D01*
G75*
G02*
X55909500Y-20854750I0J-268750D01*
G01*
X55909500Y-21817250D01*
G75*
G02*
X55640750Y-22086000I-268750J0D01*
G01*
X55103250Y-22086000D01*
G75*
G02*
X54834500Y-21817250I0J268750D01*
G01*
G37*
G36*
G01*
X56709500Y-21817250D02*
X56709500Y-20854750D01*
G75*
G02*
X56978250Y-20586000I268750J0D01*
G01*
X57515750Y-20586000D01*
G75*
G02*
X57784500Y-20854750I0J-268750D01*
G01*
X57784500Y-21817250D01*
G75*
G02*
X57515750Y-22086000I-268750J0D01*
G01*
X56978250Y-22086000D01*
G75*
G02*
X56709500Y-21817250I0J268750D01*
G01*
G37*
G36*
G01*
X33323000Y-22071250D02*
X33323000Y-21108750D01*
G75*
G02*
X33591750Y-20840000I268750J0D01*
G01*
X34129250Y-20840000D01*
G75*
G02*
X34398000Y-21108750I0J-268750D01*
G01*
X34398000Y-22071250D01*
G75*
G02*
X34129250Y-22340000I-268750J0D01*
G01*
X33591750Y-22340000D01*
G75*
G02*
X33323000Y-22071250I0J268750D01*
G01*
G37*
G36*
G01*
X35198000Y-22071250D02*
X35198000Y-21108750D01*
G75*
G02*
X35466750Y-20840000I268750J0D01*
G01*
X36004250Y-20840000D01*
G75*
G02*
X36273000Y-21108750I0J-268750D01*
G01*
X36273000Y-22071250D01*
G75*
G02*
X36004250Y-22340000I-268750J0D01*
G01*
X35466750Y-22340000D01*
G75*
G02*
X35198000Y-22071250I0J268750D01*
G01*
G37*
G36*
G01*
X39165000Y-21817250D02*
X39165000Y-20854750D01*
G75*
G02*
X39433750Y-20586000I268750J0D01*
G01*
X39971250Y-20586000D01*
G75*
G02*
X40240000Y-20854750I0J-268750D01*
G01*
X40240000Y-21817250D01*
G75*
G02*
X39971250Y-22086000I-268750J0D01*
G01*
X39433750Y-22086000D01*
G75*
G02*
X39165000Y-21817250I0J268750D01*
G01*
G37*
G36*
G01*
X41040000Y-21817250D02*
X41040000Y-20854750D01*
G75*
G02*
X41308750Y-20586000I268750J0D01*
G01*
X41846250Y-20586000D01*
G75*
G02*
X42115000Y-20854750I0J-268750D01*
G01*
X42115000Y-21817250D01*
G75*
G02*
X41846250Y-22086000I-268750J0D01*
G01*
X41308750Y-22086000D01*
G75*
G02*
X41040000Y-21817250I0J268750D01*
G01*
G37*
G36*
G01*
X46120000Y-21817250D02*
X46120000Y-20854750D01*
G75*
G02*
X46388750Y-20586000I268750J0D01*
G01*
X46926250Y-20586000D01*
G75*
G02*
X47195000Y-20854750I0J-268750D01*
G01*
X47195000Y-21817250D01*
G75*
G02*
X46926250Y-22086000I-268750J0D01*
G01*
X46388750Y-22086000D01*
G75*
G02*
X46120000Y-21817250I0J268750D01*
G01*
G37*
G36*
G01*
X44245000Y-21817250D02*
X44245000Y-20854750D01*
G75*
G02*
X44513750Y-20586000I268750J0D01*
G01*
X45051250Y-20586000D01*
G75*
G02*
X45320000Y-20854750I0J-268750D01*
G01*
X45320000Y-21817250D01*
G75*
G02*
X45051250Y-22086000I-268750J0D01*
G01*
X44513750Y-22086000D01*
G75*
G02*
X44245000Y-21817250I0J268750D01*
G01*
G37*
G36*
G01*
X51532500Y-21817250D02*
X51532500Y-20854750D01*
G75*
G02*
X51801250Y-20586000I268750J0D01*
G01*
X52338750Y-20586000D01*
G75*
G02*
X52607500Y-20854750I0J-268750D01*
G01*
X52607500Y-21817250D01*
G75*
G02*
X52338750Y-22086000I-268750J0D01*
G01*
X51801250Y-22086000D01*
G75*
G02*
X51532500Y-21817250I0J268750D01*
G01*
G37*
G36*
G01*
X49657500Y-21817250D02*
X49657500Y-20854750D01*
G75*
G02*
X49926250Y-20586000I268750J0D01*
G01*
X50463750Y-20586000D01*
G75*
G02*
X50732500Y-20854750I0J-268750D01*
G01*
X50732500Y-21817250D01*
G75*
G02*
X50463750Y-22086000I-268750J0D01*
G01*
X49926250Y-22086000D01*
G75*
G02*
X49657500Y-21817250I0J268750D01*
G01*
G37*
G36*
G01*
X40199260Y-38621890D02*
X40199260Y-37659390D01*
G75*
G02*
X40468010Y-37390640I268750J0D01*
G01*
X41005510Y-37390640D01*
G75*
G02*
X41274260Y-37659390I0J-268750D01*
G01*
X41274260Y-38621890D01*
G75*
G02*
X41005510Y-38890640I-268750J0D01*
G01*
X40468010Y-38890640D01*
G75*
G02*
X40199260Y-38621890I0J268750D01*
G01*
G37*
G36*
G01*
X38324260Y-38621890D02*
X38324260Y-37659390D01*
G75*
G02*
X38593010Y-37390640I268750J0D01*
G01*
X39130510Y-37390640D01*
G75*
G02*
X39399260Y-37659390I0J-268750D01*
G01*
X39399260Y-38621890D01*
G75*
G02*
X39130510Y-38890640I-268750J0D01*
G01*
X38593010Y-38890640D01*
G75*
G02*
X38324260Y-38621890I0J268750D01*
G01*
G37*
G36*
G01*
X42551430Y-38263780D02*
X43513930Y-38263780D01*
G75*
G02*
X43782680Y-38532530I0J-268750D01*
G01*
X43782680Y-39070030D01*
G75*
G02*
X43513930Y-39338780I-268750J0D01*
G01*
X42551430Y-39338780D01*
G75*
G02*
X42282680Y-39070030I0J268750D01*
G01*
X42282680Y-38532530D01*
G75*
G02*
X42551430Y-38263780I268750J0D01*
G01*
G37*
G36*
G01*
X42551430Y-36388780D02*
X43513930Y-36388780D01*
G75*
G02*
X43782680Y-36657530I0J-268750D01*
G01*
X43782680Y-37195030D01*
G75*
G02*
X43513930Y-37463780I-268750J0D01*
G01*
X42551430Y-37463780D01*
G75*
G02*
X42282680Y-37195030I0J268750D01*
G01*
X42282680Y-36657530D01*
G75*
G02*
X42551430Y-36388780I268750J0D01*
G01*
G37*
G36*
G01*
X45375910Y-38263780D02*
X46338410Y-38263780D01*
G75*
G02*
X46607160Y-38532530I0J-268750D01*
G01*
X46607160Y-39070030D01*
G75*
G02*
X46338410Y-39338780I-268750J0D01*
G01*
X45375910Y-39338780D01*
G75*
G02*
X45107160Y-39070030I0J268750D01*
G01*
X45107160Y-38532530D01*
G75*
G02*
X45375910Y-38263780I268750J0D01*
G01*
G37*
G36*
G01*
X45375910Y-36388780D02*
X46338410Y-36388780D01*
G75*
G02*
X46607160Y-36657530I0J-268750D01*
G01*
X46607160Y-37195030D01*
G75*
G02*
X46338410Y-37463780I-268750J0D01*
G01*
X45375910Y-37463780D01*
G75*
G02*
X45107160Y-37195030I0J268750D01*
G01*
X45107160Y-36657530D01*
G75*
G02*
X45375910Y-36388780I268750J0D01*
G01*
G37*
G36*
G01*
X48070850Y-38263780D02*
X49033350Y-38263780D01*
G75*
G02*
X49302100Y-38532530I0J-268750D01*
G01*
X49302100Y-39070030D01*
G75*
G02*
X49033350Y-39338780I-268750J0D01*
G01*
X48070850Y-39338780D01*
G75*
G02*
X47802100Y-39070030I0J268750D01*
G01*
X47802100Y-38532530D01*
G75*
G02*
X48070850Y-38263780I268750J0D01*
G01*
G37*
G36*
G01*
X48070850Y-36388780D02*
X49033350Y-36388780D01*
G75*
G02*
X49302100Y-36657530I0J-268750D01*
G01*
X49302100Y-37195030D01*
G75*
G02*
X49033350Y-37463780I-268750J0D01*
G01*
X48070850Y-37463780D01*
G75*
G02*
X47802100Y-37195030I0J268750D01*
G01*
X47802100Y-36657530D01*
G75*
G02*
X48070850Y-36388780I268750J0D01*
G01*
G37*
G36*
G01*
X53376910Y-38350140D02*
X54339410Y-38350140D01*
G75*
G02*
X54608160Y-38618890I0J-268750D01*
G01*
X54608160Y-39156390D01*
G75*
G02*
X54339410Y-39425140I-268750J0D01*
G01*
X53376910Y-39425140D01*
G75*
G02*
X53108160Y-39156390I0J268750D01*
G01*
X53108160Y-38618890D01*
G75*
G02*
X53376910Y-38350140I268750J0D01*
G01*
G37*
G36*
G01*
X53376910Y-36475140D02*
X54339410Y-36475140D01*
G75*
G02*
X54608160Y-36743890I0J-268750D01*
G01*
X54608160Y-37281390D01*
G75*
G02*
X54339410Y-37550140I-268750J0D01*
G01*
X53376910Y-37550140D01*
G75*
G02*
X53108160Y-37281390I0J268750D01*
G01*
X53108160Y-36743890D01*
G75*
G02*
X53376910Y-36475140I268750J0D01*
G01*
G37*
G36*
G01*
X56333470Y-39815480D02*
X57295970Y-39815480D01*
G75*
G02*
X57564720Y-40084230I0J-268750D01*
G01*
X57564720Y-40621730D01*
G75*
G02*
X57295970Y-40890480I-268750J0D01*
G01*
X56333470Y-40890480D01*
G75*
G02*
X56064720Y-40621730I0J268750D01*
G01*
X56064720Y-40084230D01*
G75*
G02*
X56333470Y-39815480I268750J0D01*
G01*
G37*
G36*
G01*
X56333470Y-37940480D02*
X57295970Y-37940480D01*
G75*
G02*
X57564720Y-38209230I0J-268750D01*
G01*
X57564720Y-38746730D01*
G75*
G02*
X57295970Y-39015480I-268750J0D01*
G01*
X56333470Y-39015480D01*
G75*
G02*
X56064720Y-38746730I0J268750D01*
G01*
X56064720Y-38209230D01*
G75*
G02*
X56333470Y-37940480I268750J0D01*
G01*
G37*
G36*
G01*
X41103740Y-47763350D02*
X41103740Y-46800850D01*
G75*
G02*
X41372490Y-46532100I268750J0D01*
G01*
X41909990Y-46532100D01*
G75*
G02*
X42178740Y-46800850I0J-268750D01*
G01*
X42178740Y-47763350D01*
G75*
G02*
X41909990Y-48032100I-268750J0D01*
G01*
X41372490Y-48032100D01*
G75*
G02*
X41103740Y-47763350I0J268750D01*
G01*
G37*
G36*
G01*
X39228740Y-47763350D02*
X39228740Y-46800850D01*
G75*
G02*
X39497490Y-46532100I268750J0D01*
G01*
X40034990Y-46532100D01*
G75*
G02*
X40303740Y-46800850I0J-268750D01*
G01*
X40303740Y-47763350D01*
G75*
G02*
X40034990Y-48032100I-268750J0D01*
G01*
X39497490Y-48032100D01*
G75*
G02*
X39228740Y-47763350I0J268750D01*
G01*
G37*
G36*
G01*
X40204440Y-49368790D02*
X40204440Y-50331290D01*
G75*
G02*
X39935690Y-50600040I-268750J0D01*
G01*
X39398190Y-50600040D01*
G75*
G02*
X39129440Y-50331290I0J268750D01*
G01*
X39129440Y-49368790D01*
G75*
G02*
X39398190Y-49100040I268750J0D01*
G01*
X39935690Y-49100040D01*
G75*
G02*
X40204440Y-49368790I0J-268750D01*
G01*
G37*
G36*
G01*
X42079440Y-49368790D02*
X42079440Y-50331290D01*
G75*
G02*
X41810690Y-50600040I-268750J0D01*
G01*
X41273190Y-50600040D01*
G75*
G02*
X41004440Y-50331290I0J268750D01*
G01*
X41004440Y-49368790D01*
G75*
G02*
X41273190Y-49100040I268750J0D01*
G01*
X41810690Y-49100040D01*
G75*
G02*
X42079440Y-49368790I0J-268750D01*
G01*
G37*
G36*
G01*
X55304640Y-52355670D02*
X55304640Y-51393170D01*
G75*
G02*
X55573390Y-51124420I268750J0D01*
G01*
X56110890Y-51124420D01*
G75*
G02*
X56379640Y-51393170I0J-268750D01*
G01*
X56379640Y-52355670D01*
G75*
G02*
X56110890Y-52624420I-268750J0D01*
G01*
X55573390Y-52624420D01*
G75*
G02*
X55304640Y-52355670I0J268750D01*
G01*
G37*
G36*
G01*
X53429640Y-52355670D02*
X53429640Y-51393170D01*
G75*
G02*
X53698390Y-51124420I268750J0D01*
G01*
X54235890Y-51124420D01*
G75*
G02*
X54504640Y-51393170I0J-268750D01*
G01*
X54504640Y-52355670D01*
G75*
G02*
X54235890Y-52624420I-268750J0D01*
G01*
X53698390Y-52624420D01*
G75*
G02*
X53429640Y-52355670I0J268750D01*
G01*
G37*
G36*
G01*
X57903030Y-43768060D02*
X56940530Y-43768060D01*
G75*
G02*
X56671780Y-43499310I0J268750D01*
G01*
X56671780Y-42961810D01*
G75*
G02*
X56940530Y-42693060I268750J0D01*
G01*
X57903030Y-42693060D01*
G75*
G02*
X58171780Y-42961810I0J-268750D01*
G01*
X58171780Y-43499310D01*
G75*
G02*
X57903030Y-43768060I-268750J0D01*
G01*
G37*
G36*
G01*
X57903030Y-45643060D02*
X56940530Y-45643060D01*
G75*
G02*
X56671780Y-45374310I0J268750D01*
G01*
X56671780Y-44836810D01*
G75*
G02*
X56940530Y-44568060I268750J0D01*
G01*
X57903030Y-44568060D01*
G75*
G02*
X58171780Y-44836810I0J-268750D01*
G01*
X58171780Y-45374310D01*
G75*
G02*
X57903030Y-45643060I-268750J0D01*
G01*
G37*
G36*
G01*
X13326160Y-19594910D02*
X13326160Y-20557410D01*
G75*
G02*
X13057410Y-20826160I-268750J0D01*
G01*
X12519910Y-20826160D01*
G75*
G02*
X12251160Y-20557410I0J268750D01*
G01*
X12251160Y-19594910D01*
G75*
G02*
X12519910Y-19326160I268750J0D01*
G01*
X13057410Y-19326160D01*
G75*
G02*
X13326160Y-19594910I0J-268750D01*
G01*
G37*
G36*
G01*
X15201160Y-19594910D02*
X15201160Y-20557410D01*
G75*
G02*
X14932410Y-20826160I-268750J0D01*
G01*
X14394910Y-20826160D01*
G75*
G02*
X14126160Y-20557410I0J268750D01*
G01*
X14126160Y-19594910D01*
G75*
G02*
X14394910Y-19326160I268750J0D01*
G01*
X14932410Y-19326160D01*
G75*
G02*
X15201160Y-19594910I0J-268750D01*
G01*
G37*
G36*
G01*
X13719860Y-22714030D02*
X13719860Y-23676530D01*
G75*
G02*
X13451110Y-23945280I-268750J0D01*
G01*
X12913610Y-23945280D01*
G75*
G02*
X12644860Y-23676530I0J268750D01*
G01*
X12644860Y-22714030D01*
G75*
G02*
X12913610Y-22445280I268750J0D01*
G01*
X13451110Y-22445280D01*
G75*
G02*
X13719860Y-22714030I0J-268750D01*
G01*
G37*
G36*
G01*
X15594860Y-22714030D02*
X15594860Y-23676530D01*
G75*
G02*
X15326110Y-23945280I-268750J0D01*
G01*
X14788610Y-23945280D01*
G75*
G02*
X14519860Y-23676530I0J268750D01*
G01*
X14519860Y-22714030D01*
G75*
G02*
X14788610Y-22445280I268750J0D01*
G01*
X15326110Y-22445280D01*
G75*
G02*
X15594860Y-22714030I0J-268750D01*
G01*
G37*
G36*
G01*
X13519200Y-16074470D02*
X13519200Y-17036970D01*
G75*
G02*
X13250450Y-17305720I-268750J0D01*
G01*
X12712950Y-17305720D01*
G75*
G02*
X12444200Y-17036970I0J268750D01*
G01*
X12444200Y-16074470D01*
G75*
G02*
X12712950Y-15805720I268750J0D01*
G01*
X13250450Y-15805720D01*
G75*
G02*
X13519200Y-16074470I0J-268750D01*
G01*
G37*
G36*
G01*
X15394200Y-16074470D02*
X15394200Y-17036970D01*
G75*
G02*
X15125450Y-17305720I-268750J0D01*
G01*
X14587950Y-17305720D01*
G75*
G02*
X14319200Y-17036970I0J268750D01*
G01*
X14319200Y-16074470D01*
G75*
G02*
X14587950Y-15805720I268750J0D01*
G01*
X15125450Y-15805720D01*
G75*
G02*
X15394200Y-16074470I0J-268750D01*
G01*
G37*
G36*
G01*
X30918070Y-15297440D02*
X29955570Y-15297440D01*
G75*
G02*
X29686820Y-15028690I0J268750D01*
G01*
X29686820Y-14491190D01*
G75*
G02*
X29955570Y-14222440I268750J0D01*
G01*
X30918070Y-14222440D01*
G75*
G02*
X31186820Y-14491190I0J-268750D01*
G01*
X31186820Y-15028690D01*
G75*
G02*
X30918070Y-15297440I-268750J0D01*
G01*
G37*
G36*
G01*
X30918070Y-17172440D02*
X29955570Y-17172440D01*
G75*
G02*
X29686820Y-16903690I0J268750D01*
G01*
X29686820Y-16366190D01*
G75*
G02*
X29955570Y-16097440I268750J0D01*
G01*
X30918070Y-16097440D01*
G75*
G02*
X31186820Y-16366190I0J-268750D01*
G01*
X31186820Y-16903690D01*
G75*
G02*
X30918070Y-17172440I-268750J0D01*
G01*
G37*
G36*
G01*
X25414020Y-16569770D02*
X25414020Y-17532270D01*
G75*
G02*
X25145270Y-17801020I-268750J0D01*
G01*
X24607770Y-17801020D01*
G75*
G02*
X24339020Y-17532270I0J268750D01*
G01*
X24339020Y-16569770D01*
G75*
G02*
X24607770Y-16301020I268750J0D01*
G01*
X25145270Y-16301020D01*
G75*
G02*
X25414020Y-16569770I0J-268750D01*
G01*
G37*
G36*
G01*
X27289020Y-16569770D02*
X27289020Y-17532270D01*
G75*
G02*
X27020270Y-17801020I-268750J0D01*
G01*
X26482770Y-17801020D01*
G75*
G02*
X26214020Y-17532270I0J268750D01*
G01*
X26214020Y-16569770D01*
G75*
G02*
X26482770Y-16301020I268750J0D01*
G01*
X27020270Y-16301020D01*
G75*
G02*
X27289020Y-16569770I0J-268750D01*
G01*
G37*
G36*
G01*
X21207780Y-16478330D02*
X21207780Y-17440830D01*
G75*
G02*
X20939030Y-17709580I-268750J0D01*
G01*
X20401530Y-17709580D01*
G75*
G02*
X20132780Y-17440830I0J268750D01*
G01*
X20132780Y-16478330D01*
G75*
G02*
X20401530Y-16209580I268750J0D01*
G01*
X20939030Y-16209580D01*
G75*
G02*
X21207780Y-16478330I0J-268750D01*
G01*
G37*
G36*
G01*
X23082780Y-16478330D02*
X23082780Y-17440830D01*
G75*
G02*
X22814030Y-17709580I-268750J0D01*
G01*
X22276530Y-17709580D01*
G75*
G02*
X22007780Y-17440830I0J268750D01*
G01*
X22007780Y-16478330D01*
G75*
G02*
X22276530Y-16209580I268750J0D01*
G01*
X22814030Y-16209580D01*
G75*
G02*
X23082780Y-16478330I0J-268750D01*
G01*
G37*
G36*
G01*
X13381910Y-11025160D02*
X12419410Y-11025160D01*
G75*
G02*
X12150660Y-10756410I0J268750D01*
G01*
X12150660Y-10218910D01*
G75*
G02*
X12419410Y-9950160I268750J0D01*
G01*
X13381910Y-9950160D01*
G75*
G02*
X13650660Y-10218910I0J-268750D01*
G01*
X13650660Y-10756410D01*
G75*
G02*
X13381910Y-11025160I-268750J0D01*
G01*
G37*
G36*
G01*
X13381910Y-12900160D02*
X12419410Y-12900160D01*
G75*
G02*
X12150660Y-12631410I0J268750D01*
G01*
X12150660Y-12093910D01*
G75*
G02*
X12419410Y-11825160I268750J0D01*
G01*
X13381910Y-11825160D01*
G75*
G02*
X13650660Y-12093910I0J-268750D01*
G01*
X13650660Y-12631410D01*
G75*
G02*
X13381910Y-12900160I-268750J0D01*
G01*
G37*
D17*
X35560000Y-41910000D03*
D18*
X35560000Y-44450000D03*
X38100000Y-41910000D03*
X38100000Y-44450000D03*
X40640000Y-41910000D03*
X40640000Y-44450000D03*
X43180000Y-41910000D03*
X43180000Y-44450000D03*
X45720000Y-41910000D03*
X45720000Y-44450000D03*
X48260000Y-41910000D03*
X48260000Y-44450000D03*
X50800000Y-41910000D03*
X50800000Y-44450000D03*
X53340000Y-41910000D03*
X53340000Y-44450000D03*
D19*
X11102000Y-44770000D03*
X11102000Y-42270000D03*
X8502000Y-39370000D03*
X23502000Y-39370000D03*
M02*
