G04 #@! TF.GenerationSoftware,KiCad,Pcbnew,(5.1.6-0-10_14)*
G04 #@! TF.CreationDate,2020-08-18T13:46:32-04:00*
G04 #@! TF.ProjectId,Pufferfish-Interface-2,50756666-6572-4666-9973-682d496e7465,rev?*
G04 #@! TF.SameCoordinates,Original*
G04 #@! TF.FileFunction,Copper,L2,Bot*
G04 #@! TF.FilePolarity,Positive*
%FSLAX46Y46*%
G04 Gerber Fmt 4.6, Leading zero omitted, Abs format (unit mm)*
G04 Created by KiCad (PCBNEW (5.1.6-0-10_14)) date 2020-08-18 13:46:32*
%MOMM*%
%LPD*%
G01*
G04 APERTURE LIST*
G04 #@! TA.AperFunction,ComponentPad*
%ADD10O,1.700000X1.700000*%
G04 #@! TD*
G04 #@! TA.AperFunction,ComponentPad*
%ADD11R,1.700000X1.700000*%
G04 #@! TD*
G04 #@! TA.AperFunction,ComponentPad*
%ADD12C,6.350000*%
G04 #@! TD*
G04 #@! TA.AperFunction,SMDPad,CuDef*
%ADD13R,1.400000X1.000000*%
G04 #@! TD*
G04 #@! TA.AperFunction,SMDPad,CuDef*
%ADD14R,1.000000X1.400000*%
G04 #@! TD*
G04 #@! TA.AperFunction,ComponentPad*
%ADD15O,2.200000X2.200000*%
G04 #@! TD*
G04 #@! TA.AperFunction,ComponentPad*
%ADD16R,2.200000X2.200000*%
G04 #@! TD*
G04 #@! TA.AperFunction,SMDPad,CuDef*
%ADD17R,1.600000X3.000000*%
G04 #@! TD*
G04 #@! TA.AperFunction,SMDPad,CuDef*
%ADD18R,1.000000X5.500000*%
G04 #@! TD*
G04 #@! TA.AperFunction,ComponentPad*
%ADD19R,1.725000X1.725000*%
G04 #@! TD*
G04 #@! TA.AperFunction,ComponentPad*
%ADD20C,1.725000*%
G04 #@! TD*
G04 #@! TA.AperFunction,ComponentPad*
%ADD21C,1.600000*%
G04 #@! TD*
G04 #@! TA.AperFunction,ViaPad*
%ADD22C,0.800000*%
G04 #@! TD*
G04 #@! TA.AperFunction,Conductor*
%ADD23C,0.250000*%
G04 #@! TD*
G04 #@! TA.AperFunction,Conductor*
%ADD24C,0.508000*%
G04 #@! TD*
G04 #@! TA.AperFunction,Conductor*
%ADD25C,0.254000*%
G04 #@! TD*
G04 APERTURE END LIST*
D10*
X17619980Y-4711700D03*
X20159980Y-4711700D03*
X22699980Y-4711700D03*
X25239980Y-4711700D03*
X27779980Y-4711700D03*
X30319980Y-4711700D03*
X32859980Y-4711700D03*
X35399980Y-4711700D03*
D11*
X37939980Y-4711700D03*
D12*
X-3810000Y-6350000D03*
X-3810000Y-50800000D03*
X64770000Y-50800000D03*
X64770000Y-6350000D03*
D13*
X20376060Y-33258760D03*
X18176060Y-32308760D03*
X18176060Y-34208760D03*
D14*
X12070120Y-49355100D03*
X13020120Y-47155100D03*
X11120120Y-47155100D03*
G04 #@! TA.AperFunction,SMDPad,CuDef*
G36*
G01*
X13987600Y-33307970D02*
X13987600Y-34220470D01*
G75*
G02*
X13743850Y-34464220I-243750J0D01*
G01*
X13256350Y-34464220D01*
G75*
G02*
X13012600Y-34220470I0J243750D01*
G01*
X13012600Y-33307970D01*
G75*
G02*
X13256350Y-33064220I243750J0D01*
G01*
X13743850Y-33064220D01*
G75*
G02*
X13987600Y-33307970I0J-243750D01*
G01*
G37*
G04 #@! TD.AperFunction*
G04 #@! TA.AperFunction,SMDPad,CuDef*
G36*
G01*
X15862600Y-33307970D02*
X15862600Y-34220470D01*
G75*
G02*
X15618850Y-34464220I-243750J0D01*
G01*
X15131350Y-34464220D01*
G75*
G02*
X14887600Y-34220470I0J243750D01*
G01*
X14887600Y-33307970D01*
G75*
G02*
X15131350Y-33064220I243750J0D01*
G01*
X15618850Y-33064220D01*
G75*
G02*
X15862600Y-33307970I0J-243750D01*
G01*
G37*
G04 #@! TD.AperFunction*
G04 #@! TA.AperFunction,SMDPad,CuDef*
G36*
G01*
X17574680Y-49191230D02*
X17574680Y-48278730D01*
G75*
G02*
X17818430Y-48034980I243750J0D01*
G01*
X18305930Y-48034980D01*
G75*
G02*
X18549680Y-48278730I0J-243750D01*
G01*
X18549680Y-49191230D01*
G75*
G02*
X18305930Y-49434980I-243750J0D01*
G01*
X17818430Y-49434980D01*
G75*
G02*
X17574680Y-49191230I0J243750D01*
G01*
G37*
G04 #@! TD.AperFunction*
G04 #@! TA.AperFunction,SMDPad,CuDef*
G36*
G01*
X15699680Y-49191230D02*
X15699680Y-48278730D01*
G75*
G02*
X15943430Y-48034980I243750J0D01*
G01*
X16430930Y-48034980D01*
G75*
G02*
X16674680Y-48278730I0J-243750D01*
G01*
X16674680Y-49191230D01*
G75*
G02*
X16430930Y-49434980I-243750J0D01*
G01*
X15943430Y-49434980D01*
G75*
G02*
X15699680Y-49191230I0J243750D01*
G01*
G37*
G04 #@! TD.AperFunction*
D15*
X2540000Y-27178000D03*
D16*
X2540000Y-37338000D03*
X18542000Y-53594000D03*
D15*
X28702000Y-53594000D03*
G04 #@! TA.AperFunction,SMDPad,CuDef*
G36*
G01*
X49506000Y-6842000D02*
X49506000Y-1842000D01*
G75*
G02*
X49756000Y-1592000I250000J0D01*
G01*
X50256000Y-1592000D01*
G75*
G02*
X50506000Y-1842000I0J-250000D01*
G01*
X50506000Y-6842000D01*
G75*
G02*
X50256000Y-7092000I-250000J0D01*
G01*
X49756000Y-7092000D01*
G75*
G02*
X49506000Y-6842000I0J250000D01*
G01*
G37*
G04 #@! TD.AperFunction*
G04 #@! TA.AperFunction,SMDPad,CuDef*
G36*
G01*
X45506000Y-6842000D02*
X45506000Y-1842000D01*
G75*
G02*
X45756000Y-1592000I250000J0D01*
G01*
X46256000Y-1592000D01*
G75*
G02*
X46506000Y-1842000I0J-250000D01*
G01*
X46506000Y-6842000D01*
G75*
G02*
X46256000Y-7092000I-250000J0D01*
G01*
X45756000Y-7092000D01*
G75*
G02*
X45506000Y-6842000I0J250000D01*
G01*
G37*
G04 #@! TD.AperFunction*
G04 #@! TA.AperFunction,SMDPad,CuDef*
G36*
G01*
X47506000Y-6842000D02*
X47506000Y-1842000D01*
G75*
G02*
X47756000Y-1592000I250000J0D01*
G01*
X48256000Y-1592000D01*
G75*
G02*
X48506000Y-1842000I0J-250000D01*
G01*
X48506000Y-6842000D01*
G75*
G02*
X48256000Y-7092000I-250000J0D01*
G01*
X47756000Y-7092000D01*
G75*
G02*
X47506000Y-6842000I0J250000D01*
G01*
G37*
G04 #@! TD.AperFunction*
G04 #@! TA.AperFunction,SMDPad,CuDef*
G36*
G01*
X42806000Y-7842400D02*
X42806000Y-5341600D01*
G75*
G02*
X43055600Y-5092000I249600J0D01*
G01*
X44156400Y-5092000D01*
G75*
G02*
X44406000Y-5341600I0J-249600D01*
G01*
X44406000Y-7842400D01*
G75*
G02*
X44156400Y-8092000I-249600J0D01*
G01*
X43055600Y-8092000D01*
G75*
G02*
X42806000Y-7842400I0J249600D01*
G01*
G37*
G04 #@! TD.AperFunction*
G04 #@! TA.AperFunction,SMDPad,CuDef*
G36*
G01*
X51606000Y-7842400D02*
X51606000Y-5341600D01*
G75*
G02*
X51855600Y-5092000I249600J0D01*
G01*
X52956400Y-5092000D01*
G75*
G02*
X53206000Y-5341600I0J-249600D01*
G01*
X53206000Y-7842400D01*
G75*
G02*
X52956400Y-8092000I-249600J0D01*
G01*
X51855600Y-8092000D01*
G75*
G02*
X51606000Y-7842400I0J249600D01*
G01*
G37*
G04 #@! TD.AperFunction*
D17*
X12766000Y-6568000D03*
X1966000Y-6568000D03*
D18*
X10366000Y-4318000D03*
X4366000Y-4318000D03*
X8366000Y-4318000D03*
X6366000Y-4318000D03*
G04 #@! TA.AperFunction,SMDPad,CuDef*
G36*
G01*
X30202720Y-48695290D02*
X30202720Y-49607790D01*
G75*
G02*
X29958970Y-49851540I-243750J0D01*
G01*
X29471470Y-49851540D01*
G75*
G02*
X29227720Y-49607790I0J243750D01*
G01*
X29227720Y-48695290D01*
G75*
G02*
X29471470Y-48451540I243750J0D01*
G01*
X29958970Y-48451540D01*
G75*
G02*
X30202720Y-48695290I0J-243750D01*
G01*
G37*
G04 #@! TD.AperFunction*
G04 #@! TA.AperFunction,SMDPad,CuDef*
G36*
G01*
X32077720Y-48695290D02*
X32077720Y-49607790D01*
G75*
G02*
X31833970Y-49851540I-243750J0D01*
G01*
X31346470Y-49851540D01*
G75*
G02*
X31102720Y-49607790I0J243750D01*
G01*
X31102720Y-48695290D01*
G75*
G02*
X31346470Y-48451540I243750J0D01*
G01*
X31833970Y-48451540D01*
G75*
G02*
X32077720Y-48695290I0J-243750D01*
G01*
G37*
G04 #@! TD.AperFunction*
G04 #@! TA.AperFunction,SMDPad,CuDef*
G36*
G01*
X46582940Y-49899250D02*
X46582940Y-50811750D01*
G75*
G02*
X46339190Y-51055500I-243750J0D01*
G01*
X45851690Y-51055500D01*
G75*
G02*
X45607940Y-50811750I0J243750D01*
G01*
X45607940Y-49899250D01*
G75*
G02*
X45851690Y-49655500I243750J0D01*
G01*
X46339190Y-49655500D01*
G75*
G02*
X46582940Y-49899250I0J-243750D01*
G01*
G37*
G04 #@! TD.AperFunction*
G04 #@! TA.AperFunction,SMDPad,CuDef*
G36*
G01*
X48457940Y-49899250D02*
X48457940Y-50811750D01*
G75*
G02*
X48214190Y-51055500I-243750J0D01*
G01*
X47726690Y-51055500D01*
G75*
G02*
X47482940Y-50811750I0J243750D01*
G01*
X47482940Y-49899250D01*
G75*
G02*
X47726690Y-49655500I243750J0D01*
G01*
X48214190Y-49655500D01*
G75*
G02*
X48457940Y-49899250I0J-243750D01*
G01*
G37*
G04 #@! TD.AperFunction*
D19*
X35560000Y-41910000D03*
D20*
X35560000Y-44450000D03*
X38100000Y-41910000D03*
X38100000Y-44450000D03*
X40640000Y-41910000D03*
X40640000Y-44450000D03*
X43180000Y-41910000D03*
X43180000Y-44450000D03*
X45720000Y-41910000D03*
X45720000Y-44450000D03*
X48260000Y-41910000D03*
X48260000Y-44450000D03*
X50800000Y-41910000D03*
X50800000Y-44450000D03*
X53340000Y-41910000D03*
X53340000Y-44450000D03*
D21*
X11102000Y-44770000D03*
X11102000Y-42270000D03*
X8502000Y-39370000D03*
X23502000Y-39370000D03*
D22*
X45974000Y-28956000D03*
X53340000Y-28956000D03*
X32992060Y-28821380D03*
X19050000Y-28448000D03*
X40604440Y-28823920D03*
X21066000Y-38934900D03*
X28557220Y-24985980D03*
X43180000Y-22352000D03*
X45974000Y-20066000D03*
X7620000Y-22098000D03*
X6350000Y-26670000D03*
X9318880Y-32178880D03*
X24892000Y-42164000D03*
X3307080Y-15788640D03*
X28702000Y-39370000D03*
X13764260Y-18280380D03*
X16802100Y-18280380D03*
X36226130Y-15335870D03*
X30988000Y-24638000D03*
X46736000Y-47752000D03*
X59776360Y-47114460D03*
X56654700Y-48818800D03*
X55046880Y-46075600D03*
X55257700Y-41185000D03*
X27432000Y-31750000D03*
X53848000Y-14478000D03*
X32004000Y-17018000D03*
X37592000Y-15494000D03*
X43180000Y-15494000D03*
X48514000Y-15494000D03*
X19702780Y-36974780D03*
X25654000Y-38973760D03*
X14488160Y-46217840D03*
X14488160Y-48407320D03*
X6604000Y-10414000D03*
X3810000Y-11938000D03*
X1778000Y-12446000D03*
X46990000Y-10668000D03*
X36068000Y-26924000D03*
X38358653Y-26919347D03*
X28950920Y-21268860D03*
X31983783Y-25437000D03*
X49847500Y-49690020D03*
X15323820Y-21556980D03*
X20165060Y-24785320D03*
X23131780Y-24533860D03*
X25311100Y-24683720D03*
X26492200Y-21993860D03*
D23*
X23502000Y-41335002D02*
X23502000Y-39370000D01*
X21442001Y-43395001D02*
X23502000Y-41335002D01*
X18757001Y-43395001D02*
X21442001Y-43395001D01*
X2540000Y-27178000D02*
X18757001Y-43395001D01*
D24*
X35560000Y-41910000D02*
X35560000Y-41402000D01*
X28448000Y-31496000D02*
X28448000Y-30988000D01*
X28448000Y-34290000D02*
X28448000Y-31496000D01*
X28448000Y-29210000D02*
X29718000Y-27940000D01*
X28448000Y-31496000D02*
X28448000Y-29210000D01*
X44958000Y-27940000D02*
X45974000Y-28956000D01*
X39878000Y-27940000D02*
X44958000Y-27940000D01*
X29718000Y-27940000D02*
X32004000Y-27940000D01*
X35560000Y-41402000D02*
X29210000Y-35052000D01*
X29210000Y-35052000D02*
X23114000Y-28956000D01*
X29210000Y-35052000D02*
X28448000Y-34290000D01*
X23114000Y-28956000D02*
X22606000Y-28448000D01*
X22606000Y-28448000D02*
X19050000Y-28448000D01*
X52324000Y-27940000D02*
X53340000Y-28956000D01*
X44958000Y-27940000D02*
X52324000Y-27940000D01*
X32110680Y-27940000D02*
X32992060Y-28821380D01*
X29718000Y-27940000D02*
X31912560Y-27940000D01*
X31912560Y-27940000D02*
X32110680Y-27940000D01*
X31912560Y-27940000D02*
X39878000Y-27940000D01*
X39878000Y-27940000D02*
X40065960Y-27940000D01*
X39878000Y-28097480D02*
X40604440Y-28823920D01*
X39878000Y-27940000D02*
X39878000Y-28097480D01*
D23*
X21066000Y-33020000D02*
X21066000Y-38934900D01*
X8382000Y-45466000D02*
X9078000Y-44770000D01*
X8382000Y-46736000D02*
X8382000Y-45466000D01*
X9078000Y-44770000D02*
X11102000Y-44770000D01*
X11001100Y-49355100D02*
X12070120Y-49355100D01*
X8382000Y-46736000D02*
X11001100Y-49355100D01*
X14303100Y-49355100D02*
X18542000Y-53594000D01*
X12070120Y-49355100D02*
X14303100Y-49355100D01*
D24*
X43688000Y-22352000D02*
X45974000Y-20066000D01*
X43180000Y-22352000D02*
X43688000Y-22352000D01*
X7620000Y-22098000D02*
X6350000Y-23368000D01*
X6350000Y-23368000D02*
X6350000Y-26670000D01*
X9318880Y-32178880D02*
X10922000Y-33782000D01*
X50006000Y-1592000D02*
X50006000Y-4342000D01*
X13764260Y-18280380D02*
X16802100Y-18280380D01*
X13482320Y-33782000D02*
X13500100Y-33764220D01*
X10922000Y-33782000D02*
X13482320Y-33782000D01*
X14955560Y-32308760D02*
X13500100Y-33764220D01*
X18176060Y-32308760D02*
X14955560Y-32308760D01*
X16482300Y-47155100D02*
X13020120Y-47155100D01*
X18062180Y-48734980D02*
X16482300Y-47155100D01*
X24799999Y-42071999D02*
X24892000Y-42164000D01*
X24799999Y-38563839D02*
X24799999Y-42071999D01*
X27451759Y-38119759D02*
X25244079Y-38119759D01*
X25244079Y-38119759D02*
X24799999Y-38563839D01*
X28702000Y-39370000D02*
X27451759Y-38119759D01*
D23*
X54573001Y-14129999D02*
X54573001Y-14826001D01*
X54573001Y-14826001D02*
X53180001Y-16219001D01*
X53180001Y-16219001D02*
X37109261Y-16219001D01*
X37109261Y-16219001D02*
X36226130Y-15335870D01*
X30988000Y-24638000D02*
X55118000Y-24638000D01*
X55118000Y-24638000D02*
X58420000Y-27940000D01*
X58420000Y-27940000D02*
X58420000Y-41127502D01*
X58420000Y-41127502D02*
X58420000Y-44958000D01*
X58420000Y-44958000D02*
X55626000Y-47752000D01*
X55626000Y-47752000D02*
X46736000Y-47752000D01*
X59776360Y-47114460D02*
X58074560Y-48816260D01*
X56657240Y-48816260D02*
X56654700Y-48818800D01*
X58074560Y-48816260D02*
X56657240Y-48816260D01*
X55046880Y-41395820D02*
X55257700Y-41185000D01*
X55046880Y-46075600D02*
X55046880Y-41395820D01*
D24*
X4366000Y-4318000D02*
X4366000Y-8080000D01*
X923999Y-11522001D02*
X923999Y-22513999D01*
X4366000Y-8080000D02*
X923999Y-11522001D01*
X923999Y-22513999D02*
X8636000Y-30226000D01*
X35557798Y-44450000D02*
X35560000Y-44450000D01*
X21333798Y-30226000D02*
X35557798Y-44450000D01*
X8636000Y-30226000D02*
X21333798Y-30226000D01*
X27432000Y-31750000D02*
X27432000Y-19304000D01*
X29845000Y-16891000D02*
X31877000Y-16891000D01*
X27432000Y-19304000D02*
X29845000Y-16891000D01*
X31877000Y-16891000D02*
X32004000Y-17018000D01*
X29845000Y-16891000D02*
X32258000Y-14478000D01*
X36576000Y-14478000D02*
X37592000Y-15494000D01*
X35814000Y-14478000D02*
X36576000Y-14478000D01*
X32258000Y-14478000D02*
X35814000Y-14478000D01*
X42418000Y-14732000D02*
X43180000Y-15494000D01*
X42418000Y-14478000D02*
X42418000Y-14732000D01*
X35814000Y-14478000D02*
X42418000Y-14478000D01*
X48006000Y-13462000D02*
X49022000Y-14478000D01*
X48006000Y-4342000D02*
X48006000Y-13462000D01*
X49022000Y-14478000D02*
X53848000Y-14478000D01*
X47498000Y-14478000D02*
X48514000Y-15494000D01*
X46990000Y-14478000D02*
X47498000Y-14478000D01*
X42418000Y-14478000D02*
X46990000Y-14478000D01*
X46990000Y-14478000D02*
X49022000Y-14478000D01*
D23*
X18088060Y-34020760D02*
X18276060Y-34208760D01*
X18276060Y-34208760D02*
X18276060Y-33823758D01*
X25654000Y-45090320D02*
X29715220Y-49151540D01*
X25654000Y-43273980D02*
X25654000Y-45090320D01*
X25654000Y-43273980D02*
X25654000Y-43472340D01*
X17731520Y-33764220D02*
X18176060Y-34208760D01*
X15819640Y-34208760D02*
X15375100Y-33764220D01*
X18176060Y-34208760D02*
X15819640Y-34208760D01*
X18176060Y-35448060D02*
X19702780Y-36974780D01*
X18176060Y-34208760D02*
X18176060Y-35448060D01*
X25654000Y-38973760D02*
X25654000Y-43273980D01*
X46031940Y-50292000D02*
X46095440Y-50355500D01*
X17744200Y-50292000D02*
X19001740Y-50292000D01*
X19001740Y-50292000D02*
X46031940Y-50292000D01*
X11120120Y-47155100D02*
X11120120Y-46956980D01*
X16187180Y-48537158D02*
X16187180Y-48734980D01*
X11120120Y-47155100D02*
X11120120Y-46913800D01*
X11120120Y-46913800D02*
X12275820Y-45758100D01*
X12275820Y-45758100D02*
X13662660Y-45758100D01*
X14028420Y-45758100D02*
X14488160Y-46217840D01*
X13662660Y-45758100D02*
X14028420Y-45758100D01*
X14488160Y-48407320D02*
X15336520Y-49255680D01*
X17384910Y-49932710D02*
X17744200Y-50292000D01*
X16707880Y-49255680D02*
X17384910Y-49932710D01*
X15336520Y-49255680D02*
X16707880Y-49255680D01*
X16187180Y-48734980D02*
X17384910Y-49932710D01*
X12766000Y-1844000D02*
X12766000Y-6568000D01*
X2794000Y-508000D02*
X11430000Y-508000D01*
X1966000Y-1336000D02*
X2794000Y-508000D01*
X11430000Y-508000D02*
X12766000Y-1844000D01*
X1966000Y-6568000D02*
X1966000Y-1336000D01*
X10366000Y-6652000D02*
X6604000Y-10414000D01*
X10366000Y-4318000D02*
X10366000Y-6652000D01*
X8366000Y-7382000D02*
X3810000Y-11938000D01*
X8366000Y-4318000D02*
X8366000Y-7382000D01*
X6366000Y-7858000D02*
X1778000Y-12446000D01*
X6366000Y-4318000D02*
X6366000Y-7858000D01*
X46006000Y-9684000D02*
X46990000Y-10668000D01*
X46006000Y-4342000D02*
X46006000Y-9684000D01*
X51562000Y-508000D02*
X52406000Y-1352000D01*
X52406000Y-1352000D02*
X52406000Y-6592000D01*
X44958000Y-508000D02*
X51562000Y-508000D01*
X43606000Y-1860000D02*
X44958000Y-508000D01*
X43606000Y-6592000D02*
X43606000Y-1860000D01*
X38354000Y-26924000D02*
X38358653Y-26919347D01*
X36068000Y-26924000D02*
X38354000Y-26924000D01*
X28950920Y-21268860D02*
X29476700Y-21794640D01*
X29476700Y-25176792D02*
X29736908Y-25437000D01*
X29736908Y-25437000D02*
X31983783Y-25437000D01*
X29476700Y-21794640D02*
X29476700Y-25176792D01*
X41018460Y-49151540D02*
X43155870Y-47014130D01*
X31590220Y-49151540D02*
X41018460Y-49151540D01*
X43155870Y-47014130D02*
X45720000Y-44450000D01*
X42618660Y-47551340D02*
X43155870Y-47014130D01*
X49182020Y-50355500D02*
X49847500Y-49690020D01*
X47970440Y-50355500D02*
X49182020Y-50355500D01*
X19944080Y-24785320D02*
X20165060Y-24785320D01*
X20165060Y-24785320D02*
X18552160Y-24785320D01*
X18552160Y-24785320D02*
X17035780Y-23268940D01*
X17035780Y-23268940D02*
X17754600Y-23987760D01*
X15323820Y-21556980D02*
X17035780Y-23268940D01*
X23030180Y-24533860D02*
X23131780Y-24533860D01*
X25311100Y-24617680D02*
X25311100Y-24683720D01*
X25311100Y-23174960D02*
X26492200Y-21993860D01*
X25311100Y-24683720D02*
X25311100Y-23174960D01*
D25*
G36*
X1454998Y-772201D02*
G01*
X1426000Y-795999D01*
X1402202Y-824997D01*
X1402201Y-824998D01*
X1331026Y-911724D01*
X1260454Y-1043754D01*
X1244508Y-1096323D01*
X1216998Y-1187014D01*
X1206001Y-1298667D01*
X1202324Y-1336000D01*
X1206001Y-1373332D01*
X1206000Y-4429928D01*
X1166000Y-4429928D01*
X1041518Y-4442188D01*
X921820Y-4478498D01*
X811506Y-4537463D01*
X714815Y-4616815D01*
X635463Y-4713506D01*
X576498Y-4823820D01*
X540188Y-4943518D01*
X527928Y-5068000D01*
X527928Y-8068000D01*
X540188Y-8192482D01*
X576498Y-8312180D01*
X635463Y-8422494D01*
X714815Y-8519185D01*
X811506Y-8598537D01*
X921820Y-8657502D01*
X1041518Y-8693812D01*
X1166000Y-8706072D01*
X2482692Y-8706072D01*
X326263Y-10862502D01*
X292340Y-10890342D01*
X181246Y-11025711D01*
X98696Y-11180151D01*
X47863Y-11347728D01*
X34999Y-11478335D01*
X34999Y-11478341D01*
X30699Y-11522001D01*
X34999Y-11565661D01*
X35000Y-22470329D01*
X30699Y-22513999D01*
X47863Y-22688273D01*
X98697Y-22855851D01*
X169913Y-22989086D01*
X181247Y-23010290D01*
X292341Y-23145658D01*
X326258Y-23173493D01*
X2595765Y-25443000D01*
X2369117Y-25443000D01*
X2033919Y-25509675D01*
X1718169Y-25640463D01*
X1434002Y-25830337D01*
X1192337Y-26072002D01*
X1002463Y-26356169D01*
X871675Y-26671919D01*
X805000Y-27007117D01*
X805000Y-27348883D01*
X871675Y-27684081D01*
X1002463Y-27999831D01*
X1192337Y-28283998D01*
X1434002Y-28525663D01*
X1718169Y-28715537D01*
X2033919Y-28846325D01*
X2369117Y-28913000D01*
X2710883Y-28913000D01*
X3046081Y-28846325D01*
X3107912Y-28820714D01*
X18193202Y-43906004D01*
X18217000Y-43935002D01*
X18332725Y-44029975D01*
X18464754Y-44100547D01*
X18608015Y-44144004D01*
X18719668Y-44155001D01*
X18719676Y-44155001D01*
X18757001Y-44158677D01*
X18794326Y-44155001D01*
X21404679Y-44155001D01*
X21442001Y-44158677D01*
X21479323Y-44155001D01*
X21479334Y-44155001D01*
X21590987Y-44144004D01*
X21734248Y-44100547D01*
X21866277Y-44029975D01*
X21982002Y-43935002D01*
X22005805Y-43905998D01*
X24013004Y-41898800D01*
X24042001Y-41875003D01*
X24136974Y-41759278D01*
X24207546Y-41627249D01*
X24251003Y-41483988D01*
X24262000Y-41372335D01*
X24262000Y-41372334D01*
X24265677Y-41335002D01*
X24262000Y-41297669D01*
X24262000Y-40588043D01*
X24416759Y-40484637D01*
X24616637Y-40284759D01*
X24773680Y-40049727D01*
X24881853Y-39788574D01*
X24894000Y-39727507D01*
X24894001Y-43236638D01*
X24894000Y-43236648D01*
X24894001Y-45052988D01*
X24890324Y-45090320D01*
X24904998Y-45239305D01*
X24948454Y-45382566D01*
X25019026Y-45514596D01*
X25077088Y-45585344D01*
X25114000Y-45630321D01*
X25142998Y-45654119D01*
X28589648Y-49100771D01*
X28589648Y-49532000D01*
X19178197Y-49532000D01*
X19187752Y-49434980D01*
X19184680Y-49020730D01*
X19025930Y-48861980D01*
X18189180Y-48861980D01*
X18189180Y-48881980D01*
X17935180Y-48881980D01*
X17935180Y-48861980D01*
X17915180Y-48861980D01*
X17915180Y-48607980D01*
X17935180Y-48607980D01*
X17935180Y-47558730D01*
X18189180Y-47558730D01*
X18189180Y-48607980D01*
X19025930Y-48607980D01*
X19184680Y-48449230D01*
X19187752Y-48034980D01*
X19175492Y-47910498D01*
X19139182Y-47790800D01*
X19080217Y-47680486D01*
X19000865Y-47583795D01*
X18904174Y-47504443D01*
X18793860Y-47445478D01*
X18674162Y-47409168D01*
X18549680Y-47396908D01*
X18347930Y-47399980D01*
X18189180Y-47558730D01*
X17935180Y-47558730D01*
X17776430Y-47399980D01*
X17574680Y-47396908D01*
X17450198Y-47409168D01*
X17330500Y-47445478D01*
X17220186Y-47504443D01*
X17123495Y-47583795D01*
X17059688Y-47661544D01*
X17054472Y-47655188D01*
X16920844Y-47545522D01*
X16768389Y-47464033D01*
X16602965Y-47413852D01*
X16430930Y-47396908D01*
X15943430Y-47396908D01*
X15771395Y-47413852D01*
X15605971Y-47464033D01*
X15453516Y-47545522D01*
X15319888Y-47655188D01*
X15265730Y-47721179D01*
X15147934Y-47603383D01*
X14978416Y-47490115D01*
X14790058Y-47412094D01*
X14590099Y-47372320D01*
X14386221Y-47372320D01*
X14186262Y-47412094D01*
X14143908Y-47429638D01*
X13996372Y-47282102D01*
X14155120Y-47282102D01*
X14155120Y-47200166D01*
X14186262Y-47213066D01*
X14386221Y-47252840D01*
X14590099Y-47252840D01*
X14790058Y-47213066D01*
X14978416Y-47135045D01*
X15147934Y-47021777D01*
X15292097Y-46877614D01*
X15405365Y-46708096D01*
X15483386Y-46519738D01*
X15523160Y-46319779D01*
X15523160Y-46115901D01*
X15483386Y-45915942D01*
X15405365Y-45727584D01*
X15292097Y-45558066D01*
X15147934Y-45413903D01*
X14978416Y-45300635D01*
X14790058Y-45222614D01*
X14590099Y-45182840D01*
X14525458Y-45182840D01*
X14452696Y-45123126D01*
X14320667Y-45052554D01*
X14177406Y-45009097D01*
X14065753Y-44998100D01*
X14065742Y-44998100D01*
X14028420Y-44994424D01*
X13991098Y-44998100D01*
X12519741Y-44998100D01*
X12537000Y-44911335D01*
X12537000Y-44628665D01*
X12481853Y-44351426D01*
X12373680Y-44090273D01*
X12216637Y-43855241D01*
X12016759Y-43655363D01*
X11814173Y-43520000D01*
X12016759Y-43384637D01*
X12216637Y-43184759D01*
X12373680Y-42949727D01*
X12481853Y-42688574D01*
X12537000Y-42411335D01*
X12537000Y-42128665D01*
X12481853Y-41851426D01*
X12373680Y-41590273D01*
X12216637Y-41355241D01*
X12016759Y-41155363D01*
X11781727Y-40998320D01*
X11520574Y-40890147D01*
X11243335Y-40835000D01*
X10960665Y-40835000D01*
X10683426Y-40890147D01*
X10422273Y-40998320D01*
X10187241Y-41155363D01*
X9987363Y-41355241D01*
X9830320Y-41590273D01*
X9722147Y-41851426D01*
X9667000Y-42128665D01*
X9667000Y-42411335D01*
X9722147Y-42688574D01*
X9830320Y-42949727D01*
X9987363Y-43184759D01*
X10187241Y-43384637D01*
X10389827Y-43520000D01*
X10187241Y-43655363D01*
X9987363Y-43855241D01*
X9883957Y-44010000D01*
X9115325Y-44010000D01*
X9078000Y-44006324D01*
X9040675Y-44010000D01*
X9040667Y-44010000D01*
X8929014Y-44020997D01*
X8785753Y-44064454D01*
X8653724Y-44135026D01*
X8537999Y-44229999D01*
X8514201Y-44258998D01*
X7870998Y-44902201D01*
X7842000Y-44925999D01*
X7818202Y-44954997D01*
X7818201Y-44954998D01*
X7747026Y-45041724D01*
X7676454Y-45173754D01*
X7663003Y-45218099D01*
X7635126Y-45310001D01*
X7632998Y-45317015D01*
X7618324Y-45466000D01*
X7622001Y-45503332D01*
X7622000Y-46698677D01*
X7618324Y-46736000D01*
X7622000Y-46773322D01*
X7622000Y-46773332D01*
X7632997Y-46884985D01*
X7668795Y-47002997D01*
X7676454Y-47028246D01*
X7747026Y-47160276D01*
X7749358Y-47163117D01*
X7841999Y-47276001D01*
X7871003Y-47299804D01*
X10437300Y-49866102D01*
X10461099Y-49895101D01*
X10576824Y-49990074D01*
X10708853Y-50060646D01*
X10852114Y-50104103D01*
X10937704Y-50112533D01*
X10944308Y-50179582D01*
X10980618Y-50299280D01*
X11039583Y-50409594D01*
X11118935Y-50506285D01*
X11215626Y-50585637D01*
X11325940Y-50644602D01*
X11445638Y-50680912D01*
X11570120Y-50693172D01*
X12570120Y-50693172D01*
X12694602Y-50680912D01*
X12814300Y-50644602D01*
X12924614Y-50585637D01*
X13021305Y-50506285D01*
X13100657Y-50409594D01*
X13159622Y-50299280D01*
X13195932Y-50179582D01*
X13202283Y-50115100D01*
X13988299Y-50115100D01*
X16803928Y-52930730D01*
X16803928Y-54694000D01*
X16816188Y-54818482D01*
X16852498Y-54938180D01*
X16911463Y-55048494D01*
X16990815Y-55145185D01*
X17087506Y-55224537D01*
X17197820Y-55283502D01*
X17317518Y-55319812D01*
X17442000Y-55332072D01*
X19642000Y-55332072D01*
X19766482Y-55319812D01*
X19886180Y-55283502D01*
X19996494Y-55224537D01*
X20093185Y-55145185D01*
X20172537Y-55048494D01*
X20231502Y-54938180D01*
X20267812Y-54818482D01*
X20280072Y-54694000D01*
X20280072Y-53423117D01*
X26967000Y-53423117D01*
X26967000Y-53764883D01*
X27033675Y-54100081D01*
X27164463Y-54415831D01*
X27354337Y-54699998D01*
X27596002Y-54941663D01*
X27880169Y-55131537D01*
X28195919Y-55262325D01*
X28531117Y-55329000D01*
X28872883Y-55329000D01*
X29208081Y-55262325D01*
X29523831Y-55131537D01*
X29807998Y-54941663D01*
X30049663Y-54699998D01*
X30239537Y-54415831D01*
X30370325Y-54100081D01*
X30437000Y-53764883D01*
X30437000Y-53423117D01*
X30370325Y-53087919D01*
X30239537Y-52772169D01*
X30049663Y-52488002D01*
X29807998Y-52246337D01*
X29523831Y-52056463D01*
X29208081Y-51925675D01*
X28872883Y-51859000D01*
X28531117Y-51859000D01*
X28195919Y-51925675D01*
X27880169Y-52056463D01*
X27596002Y-52246337D01*
X27354337Y-52488002D01*
X27164463Y-52772169D01*
X27033675Y-53087919D01*
X26967000Y-53423117D01*
X20280072Y-53423117D01*
X20280072Y-52494000D01*
X20267812Y-52369518D01*
X20231502Y-52249820D01*
X20172537Y-52139506D01*
X20093185Y-52042815D01*
X19996494Y-51963463D01*
X19886180Y-51904498D01*
X19766482Y-51868188D01*
X19642000Y-51855928D01*
X17878730Y-51855928D01*
X16095853Y-50073052D01*
X16430930Y-50073052D01*
X16448700Y-50071302D01*
X16873907Y-50496509D01*
X16873913Y-50496514D01*
X17180396Y-50802997D01*
X17204199Y-50832001D01*
X17319924Y-50926974D01*
X17451953Y-50997546D01*
X17595214Y-51041003D01*
X17706867Y-51052000D01*
X17706875Y-51052000D01*
X17744200Y-51055676D01*
X17781525Y-51052000D01*
X45007505Y-51052000D01*
X45036993Y-51149209D01*
X45118482Y-51301664D01*
X45228148Y-51435292D01*
X45361776Y-51544958D01*
X45514231Y-51626447D01*
X45679655Y-51676628D01*
X45851690Y-51693572D01*
X46339190Y-51693572D01*
X46511225Y-51676628D01*
X46676649Y-51626447D01*
X46829104Y-51544958D01*
X46962732Y-51435292D01*
X47032940Y-51349744D01*
X47103148Y-51435292D01*
X47236776Y-51544958D01*
X47389231Y-51626447D01*
X47554655Y-51676628D01*
X47726690Y-51693572D01*
X48214190Y-51693572D01*
X48386225Y-51676628D01*
X48551649Y-51626447D01*
X48704104Y-51544958D01*
X48837732Y-51435292D01*
X48947398Y-51301664D01*
X49028887Y-51149209D01*
X49039113Y-51115500D01*
X49144698Y-51115500D01*
X49182020Y-51119176D01*
X49219342Y-51115500D01*
X49219353Y-51115500D01*
X49331006Y-51104503D01*
X49474267Y-51061046D01*
X49606296Y-50990474D01*
X49722021Y-50895501D01*
X49745823Y-50866498D01*
X49887301Y-50725020D01*
X49949439Y-50725020D01*
X50149398Y-50685246D01*
X50337756Y-50607225D01*
X50507274Y-50493957D01*
X50651437Y-50349794D01*
X50764705Y-50180276D01*
X50842726Y-49991918D01*
X50882500Y-49791959D01*
X50882500Y-49588081D01*
X50842726Y-49388122D01*
X50764705Y-49199764D01*
X50651437Y-49030246D01*
X50507274Y-48886083D01*
X50337756Y-48772815D01*
X50149398Y-48694794D01*
X49949439Y-48655020D01*
X49745561Y-48655020D01*
X49545602Y-48694794D01*
X49357244Y-48772815D01*
X49187726Y-48886083D01*
X49043563Y-49030246D01*
X48930295Y-49199764D01*
X48878341Y-49325190D01*
X48837732Y-49275708D01*
X48704104Y-49166042D01*
X48551649Y-49084553D01*
X48386225Y-49034372D01*
X48214190Y-49017428D01*
X47726690Y-49017428D01*
X47554655Y-49034372D01*
X47389231Y-49084553D01*
X47236776Y-49166042D01*
X47103148Y-49275708D01*
X47032940Y-49361256D01*
X46962732Y-49275708D01*
X46829104Y-49166042D01*
X46676649Y-49084553D01*
X46511225Y-49034372D01*
X46339190Y-49017428D01*
X45851690Y-49017428D01*
X45679655Y-49034372D01*
X45514231Y-49084553D01*
X45361776Y-49166042D01*
X45228148Y-49275708D01*
X45118482Y-49409336D01*
X45052917Y-49532000D01*
X41712801Y-49532000D01*
X43719669Y-47525133D01*
X43719673Y-47525128D01*
X45342962Y-45901840D01*
X45572509Y-45947500D01*
X45867491Y-45947500D01*
X46156805Y-45889952D01*
X46429332Y-45777067D01*
X46674601Y-45613184D01*
X46883184Y-45404601D01*
X46990000Y-45244739D01*
X47096816Y-45404601D01*
X47305399Y-45613184D01*
X47550668Y-45777067D01*
X47823195Y-45889952D01*
X48112509Y-45947500D01*
X48407491Y-45947500D01*
X48696805Y-45889952D01*
X48969332Y-45777067D01*
X49214601Y-45613184D01*
X49423184Y-45404601D01*
X49530000Y-45244739D01*
X49636816Y-45404601D01*
X49845399Y-45613184D01*
X50090668Y-45777067D01*
X50363195Y-45889952D01*
X50652509Y-45947500D01*
X50947491Y-45947500D01*
X51236805Y-45889952D01*
X51509332Y-45777067D01*
X51754601Y-45613184D01*
X51963184Y-45404601D01*
X52070000Y-45244739D01*
X52176816Y-45404601D01*
X52385399Y-45613184D01*
X52630668Y-45777067D01*
X52903195Y-45889952D01*
X53192509Y-45947500D01*
X53487491Y-45947500D01*
X53776805Y-45889952D01*
X54049332Y-45777067D01*
X54051238Y-45775793D01*
X54011880Y-45973661D01*
X54011880Y-46177539D01*
X54051654Y-46377498D01*
X54129675Y-46565856D01*
X54242943Y-46735374D01*
X54387106Y-46879537D01*
X54555419Y-46992000D01*
X47439711Y-46992000D01*
X47395774Y-46948063D01*
X47226256Y-46834795D01*
X47037898Y-46756774D01*
X46837939Y-46717000D01*
X46634061Y-46717000D01*
X46434102Y-46756774D01*
X46245744Y-46834795D01*
X46076226Y-46948063D01*
X45932063Y-47092226D01*
X45818795Y-47261744D01*
X45740774Y-47450102D01*
X45701000Y-47650061D01*
X45701000Y-47853939D01*
X45740774Y-48053898D01*
X45818795Y-48242256D01*
X45932063Y-48411774D01*
X46076226Y-48555937D01*
X46245744Y-48669205D01*
X46434102Y-48747226D01*
X46634061Y-48787000D01*
X46837939Y-48787000D01*
X47037898Y-48747226D01*
X47226256Y-48669205D01*
X47395774Y-48555937D01*
X47439711Y-48512000D01*
X55588678Y-48512000D01*
X55626000Y-48515676D01*
X55661427Y-48512187D01*
X55659474Y-48516902D01*
X55619700Y-48716861D01*
X55619700Y-48920739D01*
X55659474Y-49120698D01*
X55737495Y-49309056D01*
X55850763Y-49478574D01*
X55994926Y-49622737D01*
X56164444Y-49736005D01*
X56352802Y-49814026D01*
X56552761Y-49853800D01*
X56756639Y-49853800D01*
X56956598Y-49814026D01*
X57144956Y-49736005D01*
X57314474Y-49622737D01*
X57360951Y-49576260D01*
X58037238Y-49576260D01*
X58074560Y-49579936D01*
X58111882Y-49576260D01*
X58111893Y-49576260D01*
X58223546Y-49565263D01*
X58366807Y-49521806D01*
X58498836Y-49451234D01*
X58614561Y-49356261D01*
X58638364Y-49327257D01*
X59816162Y-48149460D01*
X59878299Y-48149460D01*
X60078258Y-48109686D01*
X60266616Y-48031665D01*
X60436134Y-47918397D01*
X60580297Y-47774234D01*
X60693565Y-47604716D01*
X60771586Y-47416358D01*
X60811360Y-47216399D01*
X60811360Y-47012521D01*
X60771586Y-46812562D01*
X60693565Y-46624204D01*
X60580297Y-46454686D01*
X60436134Y-46310523D01*
X60266616Y-46197255D01*
X60078258Y-46119234D01*
X59878299Y-46079460D01*
X59674421Y-46079460D01*
X59474462Y-46119234D01*
X59286104Y-46197255D01*
X59116586Y-46310523D01*
X58972423Y-46454686D01*
X58859155Y-46624204D01*
X58781134Y-46812562D01*
X58741360Y-47012521D01*
X58741360Y-47074658D01*
X57759759Y-48056260D01*
X57355871Y-48056260D01*
X57314474Y-48014863D01*
X57144956Y-47901595D01*
X56956598Y-47823574D01*
X56756639Y-47783800D01*
X56669001Y-47783800D01*
X58931003Y-45521799D01*
X58960001Y-45498001D01*
X59054974Y-45382276D01*
X59125546Y-45250247D01*
X59169003Y-45106986D01*
X59180000Y-44995333D01*
X59180000Y-44995325D01*
X59183676Y-44958000D01*
X59180000Y-44920675D01*
X59180000Y-27977322D01*
X59183676Y-27939999D01*
X59180000Y-27902676D01*
X59180000Y-27902667D01*
X59169003Y-27791014D01*
X59125546Y-27647753D01*
X59054974Y-27515724D01*
X58960001Y-27399999D01*
X58931004Y-27376202D01*
X55681804Y-24127003D01*
X55658001Y-24097999D01*
X55542276Y-24003026D01*
X55410247Y-23932454D01*
X55266986Y-23888997D01*
X55155333Y-23878000D01*
X55155322Y-23878000D01*
X55118000Y-23874324D01*
X55080678Y-23878000D01*
X31691711Y-23878000D01*
X31647774Y-23834063D01*
X31478256Y-23720795D01*
X31289898Y-23642774D01*
X31089939Y-23603000D01*
X30886061Y-23603000D01*
X30686102Y-23642774D01*
X30497744Y-23720795D01*
X30328226Y-23834063D01*
X30236700Y-23925589D01*
X30236700Y-21831962D01*
X30240376Y-21794639D01*
X30236700Y-21757316D01*
X30236700Y-21757307D01*
X30225703Y-21645654D01*
X30182246Y-21502393D01*
X30111674Y-21370364D01*
X30016701Y-21254639D01*
X29987703Y-21230842D01*
X29985920Y-21229058D01*
X29985920Y-21166921D01*
X29946146Y-20966962D01*
X29868125Y-20778604D01*
X29754857Y-20609086D01*
X29610694Y-20464923D01*
X29441176Y-20351655D01*
X29252818Y-20273634D01*
X29052859Y-20233860D01*
X28848981Y-20233860D01*
X28649022Y-20273634D01*
X28460664Y-20351655D01*
X28321000Y-20444975D01*
X28321000Y-19672235D01*
X30213235Y-17780000D01*
X31302289Y-17780000D01*
X31344226Y-17821937D01*
X31513744Y-17935205D01*
X31702102Y-18013226D01*
X31902061Y-18053000D01*
X32105939Y-18053000D01*
X32305898Y-18013226D01*
X32494256Y-17935205D01*
X32663774Y-17821937D01*
X32807937Y-17677774D01*
X32921205Y-17508256D01*
X32999226Y-17319898D01*
X33039000Y-17119939D01*
X33039000Y-16916061D01*
X32999226Y-16716102D01*
X32921205Y-16527744D01*
X32807937Y-16358226D01*
X32663774Y-16214063D01*
X32494256Y-16100795D01*
X32305898Y-16022774D01*
X32105939Y-15983000D01*
X32010235Y-15983000D01*
X32626235Y-15367000D01*
X36207765Y-15367000D01*
X36586870Y-15746105D01*
X36596774Y-15795898D01*
X36674795Y-15984256D01*
X36788063Y-16153774D01*
X36932226Y-16297937D01*
X37101744Y-16411205D01*
X37290102Y-16489226D01*
X37490061Y-16529000D01*
X37693939Y-16529000D01*
X37893898Y-16489226D01*
X38082256Y-16411205D01*
X38251774Y-16297937D01*
X38395937Y-16153774D01*
X38509205Y-15984256D01*
X38587226Y-15795898D01*
X38627000Y-15595939D01*
X38627000Y-15392061D01*
X38622015Y-15367000D01*
X41790412Y-15367000D01*
X41820262Y-15391497D01*
X42174870Y-15746105D01*
X42184774Y-15795898D01*
X42262795Y-15984256D01*
X42376063Y-16153774D01*
X42520226Y-16297937D01*
X42689744Y-16411205D01*
X42878102Y-16489226D01*
X43078061Y-16529000D01*
X43281939Y-16529000D01*
X43481898Y-16489226D01*
X43670256Y-16411205D01*
X43839774Y-16297937D01*
X43983937Y-16153774D01*
X44097205Y-15984256D01*
X44175226Y-15795898D01*
X44215000Y-15595939D01*
X44215000Y-15392061D01*
X44210015Y-15367000D01*
X47129765Y-15367000D01*
X47508870Y-15746105D01*
X47518774Y-15795898D01*
X47596795Y-15984256D01*
X47710063Y-16153774D01*
X47854226Y-16297937D01*
X48023744Y-16411205D01*
X48212102Y-16489226D01*
X48412061Y-16529000D01*
X48615939Y-16529000D01*
X48815898Y-16489226D01*
X49004256Y-16411205D01*
X49173774Y-16297937D01*
X49317937Y-16153774D01*
X49431205Y-15984256D01*
X49509226Y-15795898D01*
X49549000Y-15595939D01*
X49549000Y-15392061D01*
X49544015Y-15367000D01*
X53315532Y-15367000D01*
X53357744Y-15395205D01*
X53546102Y-15473226D01*
X53746061Y-15513000D01*
X53949939Y-15513000D01*
X54149898Y-15473226D01*
X54338256Y-15395205D01*
X54507774Y-15281937D01*
X54651937Y-15137774D01*
X54765205Y-14968256D01*
X54843226Y-14779898D01*
X54883000Y-14579939D01*
X54883000Y-14376061D01*
X54843226Y-14176102D01*
X54765205Y-13987744D01*
X54651937Y-13818226D01*
X54507774Y-13674063D01*
X54338256Y-13560795D01*
X54149898Y-13482774D01*
X53949939Y-13443000D01*
X53746061Y-13443000D01*
X53546102Y-13482774D01*
X53357744Y-13560795D01*
X53315532Y-13589000D01*
X49390236Y-13589000D01*
X48895000Y-13093765D01*
X48895000Y-7456512D01*
X48946969Y-7393187D01*
X48975463Y-7446494D01*
X49054815Y-7543185D01*
X49151506Y-7622537D01*
X49261820Y-7681502D01*
X49381518Y-7717812D01*
X49506000Y-7730072D01*
X49720250Y-7727000D01*
X49879000Y-7568250D01*
X49879000Y-4469000D01*
X49859000Y-4469000D01*
X49859000Y-4215000D01*
X49879000Y-4215000D01*
X49879000Y-4195000D01*
X50133000Y-4195000D01*
X50133000Y-4215000D01*
X50982250Y-4215000D01*
X51141000Y-4056250D01*
X51144072Y-1592000D01*
X51131812Y-1467518D01*
X51095502Y-1347820D01*
X51052837Y-1268000D01*
X51247199Y-1268000D01*
X51646000Y-1666802D01*
X51646001Y-4482033D01*
X51515903Y-4521498D01*
X51362436Y-4603528D01*
X51227921Y-4713921D01*
X51141239Y-4819544D01*
X51141000Y-4627750D01*
X50982250Y-4469000D01*
X50133000Y-4469000D01*
X50133000Y-7568250D01*
X50291750Y-7727000D01*
X50506000Y-7730072D01*
X50630482Y-7717812D01*
X50750180Y-7681502D01*
X50860494Y-7622537D01*
X50957185Y-7543185D01*
X50967928Y-7530095D01*
X50967928Y-7842400D01*
X50984984Y-8015576D01*
X51035498Y-8182097D01*
X51117528Y-8335564D01*
X51227921Y-8470079D01*
X51362436Y-8580472D01*
X51515903Y-8662502D01*
X51682424Y-8713016D01*
X51855600Y-8730072D01*
X52956400Y-8730072D01*
X53129576Y-8713016D01*
X53296097Y-8662502D01*
X53449564Y-8580472D01*
X53584079Y-8470079D01*
X53694472Y-8335564D01*
X53776502Y-8182097D01*
X53827016Y-8015576D01*
X53844072Y-7842400D01*
X53844072Y-5341600D01*
X53827016Y-5168424D01*
X53776502Y-5001903D01*
X53694472Y-4848436D01*
X53584079Y-4713921D01*
X53449564Y-4603528D01*
X53296097Y-4521498D01*
X53166000Y-4482033D01*
X53166000Y-1389322D01*
X53169676Y-1351999D01*
X53166000Y-1314676D01*
X53166000Y-1314667D01*
X53155003Y-1203014D01*
X53111546Y-1059753D01*
X53040974Y-927724D01*
X52946001Y-811999D01*
X52917004Y-788202D01*
X52838802Y-710000D01*
X67870001Y-710000D01*
X67870001Y-4131661D01*
X67729420Y-3921267D01*
X67198733Y-3390580D01*
X66574712Y-2973622D01*
X65881336Y-2686416D01*
X65145252Y-2540000D01*
X64394748Y-2540000D01*
X63658664Y-2686416D01*
X62965288Y-2973622D01*
X62341267Y-3390580D01*
X61810580Y-3921267D01*
X61393622Y-4545288D01*
X61106416Y-5238664D01*
X60960000Y-5974748D01*
X60960000Y-6725252D01*
X61106416Y-7461336D01*
X61393622Y-8154712D01*
X61810580Y-8778733D01*
X62341267Y-9309420D01*
X62965288Y-9726378D01*
X63658664Y-10013584D01*
X64394748Y-10160000D01*
X65145252Y-10160000D01*
X65881336Y-10013584D01*
X66574712Y-9726378D01*
X67198733Y-9309420D01*
X67729420Y-8778733D01*
X67870001Y-8568339D01*
X67870000Y-48581660D01*
X67729420Y-48371267D01*
X67198733Y-47840580D01*
X66574712Y-47423622D01*
X65881336Y-47136416D01*
X65145252Y-46990000D01*
X64394748Y-46990000D01*
X63658664Y-47136416D01*
X62965288Y-47423622D01*
X62341267Y-47840580D01*
X61810580Y-48371267D01*
X61393622Y-48995288D01*
X61106416Y-49688664D01*
X60960000Y-50424748D01*
X60960000Y-51175252D01*
X61106416Y-51911336D01*
X61393622Y-52604712D01*
X61810580Y-53228733D01*
X62341267Y-53759420D01*
X62965288Y-54176378D01*
X63658664Y-54463584D01*
X64394748Y-54610000D01*
X65145252Y-54610000D01*
X65881336Y-54463584D01*
X66574712Y-54176378D01*
X67198733Y-53759420D01*
X67729420Y-53228733D01*
X67870000Y-53018340D01*
X67870000Y-56440000D01*
X-6910000Y-56440000D01*
X-6910000Y-53018340D01*
X-6769420Y-53228733D01*
X-6238733Y-53759420D01*
X-5614712Y-54176378D01*
X-4921336Y-54463584D01*
X-4185252Y-54610000D01*
X-3434748Y-54610000D01*
X-2698664Y-54463584D01*
X-2005288Y-54176378D01*
X-1381267Y-53759420D01*
X-850580Y-53228733D01*
X-433622Y-52604712D01*
X-146416Y-51911336D01*
X0Y-51175252D01*
X0Y-50424748D01*
X-146416Y-49688664D01*
X-433622Y-48995288D01*
X-850580Y-48371267D01*
X-1381267Y-47840580D01*
X-2005288Y-47423622D01*
X-2698664Y-47136416D01*
X-3434748Y-46990000D01*
X-4185252Y-46990000D01*
X-4921336Y-47136416D01*
X-5614712Y-47423622D01*
X-6238733Y-47840580D01*
X-6769420Y-48371267D01*
X-6910000Y-48581660D01*
X-6910000Y-39228665D01*
X7067000Y-39228665D01*
X7067000Y-39511335D01*
X7122147Y-39788574D01*
X7230320Y-40049727D01*
X7387363Y-40284759D01*
X7587241Y-40484637D01*
X7822273Y-40641680D01*
X8083426Y-40749853D01*
X8360665Y-40805000D01*
X8643335Y-40805000D01*
X8920574Y-40749853D01*
X9181727Y-40641680D01*
X9416759Y-40484637D01*
X9616637Y-40284759D01*
X9773680Y-40049727D01*
X9881853Y-39788574D01*
X9937000Y-39511335D01*
X9937000Y-39228665D01*
X9881853Y-38951426D01*
X9773680Y-38690273D01*
X9616637Y-38455241D01*
X9416759Y-38255363D01*
X9181727Y-38098320D01*
X8920574Y-37990147D01*
X8643335Y-37935000D01*
X8360665Y-37935000D01*
X8083426Y-37990147D01*
X7822273Y-38098320D01*
X7587241Y-38255363D01*
X7387363Y-38455241D01*
X7230320Y-38690273D01*
X7122147Y-38951426D01*
X7067000Y-39228665D01*
X-6910000Y-39228665D01*
X-6910000Y-36238000D01*
X801928Y-36238000D01*
X801928Y-38438000D01*
X814188Y-38562482D01*
X850498Y-38682180D01*
X909463Y-38792494D01*
X988815Y-38889185D01*
X1085506Y-38968537D01*
X1195820Y-39027502D01*
X1315518Y-39063812D01*
X1440000Y-39076072D01*
X3640000Y-39076072D01*
X3764482Y-39063812D01*
X3884180Y-39027502D01*
X3994494Y-38968537D01*
X4091185Y-38889185D01*
X4170537Y-38792494D01*
X4229502Y-38682180D01*
X4265812Y-38562482D01*
X4278072Y-38438000D01*
X4278072Y-36238000D01*
X4265812Y-36113518D01*
X4229502Y-35993820D01*
X4170537Y-35883506D01*
X4091185Y-35786815D01*
X3994494Y-35707463D01*
X3884180Y-35648498D01*
X3764482Y-35612188D01*
X3640000Y-35599928D01*
X1440000Y-35599928D01*
X1315518Y-35612188D01*
X1195820Y-35648498D01*
X1085506Y-35707463D01*
X988815Y-35786815D01*
X909463Y-35883506D01*
X850498Y-35993820D01*
X814188Y-36113518D01*
X801928Y-36238000D01*
X-6910000Y-36238000D01*
X-6910000Y-8568340D01*
X-6769420Y-8778733D01*
X-6238733Y-9309420D01*
X-5614712Y-9726378D01*
X-4921336Y-10013584D01*
X-4185252Y-10160000D01*
X-3434748Y-10160000D01*
X-2698664Y-10013584D01*
X-2005288Y-9726378D01*
X-1381267Y-9309420D01*
X-850580Y-8778733D01*
X-433622Y-8154712D01*
X-146416Y-7461336D01*
X0Y-6725252D01*
X0Y-5974748D01*
X-146416Y-5238664D01*
X-433622Y-4545288D01*
X-850580Y-3921267D01*
X-1381267Y-3390580D01*
X-2005288Y-2973622D01*
X-2698664Y-2686416D01*
X-3434748Y-2540000D01*
X-4185252Y-2540000D01*
X-4921336Y-2686416D01*
X-5614712Y-2973622D01*
X-6238733Y-3390580D01*
X-6769420Y-3921267D01*
X-6910000Y-4131660D01*
X-6910000Y-710000D01*
X1517199Y-710000D01*
X1454998Y-772201D01*
G37*
X1454998Y-772201D02*
X1426000Y-795999D01*
X1402202Y-824997D01*
X1402201Y-824998D01*
X1331026Y-911724D01*
X1260454Y-1043754D01*
X1244508Y-1096323D01*
X1216998Y-1187014D01*
X1206001Y-1298667D01*
X1202324Y-1336000D01*
X1206001Y-1373332D01*
X1206000Y-4429928D01*
X1166000Y-4429928D01*
X1041518Y-4442188D01*
X921820Y-4478498D01*
X811506Y-4537463D01*
X714815Y-4616815D01*
X635463Y-4713506D01*
X576498Y-4823820D01*
X540188Y-4943518D01*
X527928Y-5068000D01*
X527928Y-8068000D01*
X540188Y-8192482D01*
X576498Y-8312180D01*
X635463Y-8422494D01*
X714815Y-8519185D01*
X811506Y-8598537D01*
X921820Y-8657502D01*
X1041518Y-8693812D01*
X1166000Y-8706072D01*
X2482692Y-8706072D01*
X326263Y-10862502D01*
X292340Y-10890342D01*
X181246Y-11025711D01*
X98696Y-11180151D01*
X47863Y-11347728D01*
X34999Y-11478335D01*
X34999Y-11478341D01*
X30699Y-11522001D01*
X34999Y-11565661D01*
X35000Y-22470329D01*
X30699Y-22513999D01*
X47863Y-22688273D01*
X98697Y-22855851D01*
X169913Y-22989086D01*
X181247Y-23010290D01*
X292341Y-23145658D01*
X326258Y-23173493D01*
X2595765Y-25443000D01*
X2369117Y-25443000D01*
X2033919Y-25509675D01*
X1718169Y-25640463D01*
X1434002Y-25830337D01*
X1192337Y-26072002D01*
X1002463Y-26356169D01*
X871675Y-26671919D01*
X805000Y-27007117D01*
X805000Y-27348883D01*
X871675Y-27684081D01*
X1002463Y-27999831D01*
X1192337Y-28283998D01*
X1434002Y-28525663D01*
X1718169Y-28715537D01*
X2033919Y-28846325D01*
X2369117Y-28913000D01*
X2710883Y-28913000D01*
X3046081Y-28846325D01*
X3107912Y-28820714D01*
X18193202Y-43906004D01*
X18217000Y-43935002D01*
X18332725Y-44029975D01*
X18464754Y-44100547D01*
X18608015Y-44144004D01*
X18719668Y-44155001D01*
X18719676Y-44155001D01*
X18757001Y-44158677D01*
X18794326Y-44155001D01*
X21404679Y-44155001D01*
X21442001Y-44158677D01*
X21479323Y-44155001D01*
X21479334Y-44155001D01*
X21590987Y-44144004D01*
X21734248Y-44100547D01*
X21866277Y-44029975D01*
X21982002Y-43935002D01*
X22005805Y-43905998D01*
X24013004Y-41898800D01*
X24042001Y-41875003D01*
X24136974Y-41759278D01*
X24207546Y-41627249D01*
X24251003Y-41483988D01*
X24262000Y-41372335D01*
X24262000Y-41372334D01*
X24265677Y-41335002D01*
X24262000Y-41297669D01*
X24262000Y-40588043D01*
X24416759Y-40484637D01*
X24616637Y-40284759D01*
X24773680Y-40049727D01*
X24881853Y-39788574D01*
X24894000Y-39727507D01*
X24894001Y-43236638D01*
X24894000Y-43236648D01*
X24894001Y-45052988D01*
X24890324Y-45090320D01*
X24904998Y-45239305D01*
X24948454Y-45382566D01*
X25019026Y-45514596D01*
X25077088Y-45585344D01*
X25114000Y-45630321D01*
X25142998Y-45654119D01*
X28589648Y-49100771D01*
X28589648Y-49532000D01*
X19178197Y-49532000D01*
X19187752Y-49434980D01*
X19184680Y-49020730D01*
X19025930Y-48861980D01*
X18189180Y-48861980D01*
X18189180Y-48881980D01*
X17935180Y-48881980D01*
X17935180Y-48861980D01*
X17915180Y-48861980D01*
X17915180Y-48607980D01*
X17935180Y-48607980D01*
X17935180Y-47558730D01*
X18189180Y-47558730D01*
X18189180Y-48607980D01*
X19025930Y-48607980D01*
X19184680Y-48449230D01*
X19187752Y-48034980D01*
X19175492Y-47910498D01*
X19139182Y-47790800D01*
X19080217Y-47680486D01*
X19000865Y-47583795D01*
X18904174Y-47504443D01*
X18793860Y-47445478D01*
X18674162Y-47409168D01*
X18549680Y-47396908D01*
X18347930Y-47399980D01*
X18189180Y-47558730D01*
X17935180Y-47558730D01*
X17776430Y-47399980D01*
X17574680Y-47396908D01*
X17450198Y-47409168D01*
X17330500Y-47445478D01*
X17220186Y-47504443D01*
X17123495Y-47583795D01*
X17059688Y-47661544D01*
X17054472Y-47655188D01*
X16920844Y-47545522D01*
X16768389Y-47464033D01*
X16602965Y-47413852D01*
X16430930Y-47396908D01*
X15943430Y-47396908D01*
X15771395Y-47413852D01*
X15605971Y-47464033D01*
X15453516Y-47545522D01*
X15319888Y-47655188D01*
X15265730Y-47721179D01*
X15147934Y-47603383D01*
X14978416Y-47490115D01*
X14790058Y-47412094D01*
X14590099Y-47372320D01*
X14386221Y-47372320D01*
X14186262Y-47412094D01*
X14143908Y-47429638D01*
X13996372Y-47282102D01*
X14155120Y-47282102D01*
X14155120Y-47200166D01*
X14186262Y-47213066D01*
X14386221Y-47252840D01*
X14590099Y-47252840D01*
X14790058Y-47213066D01*
X14978416Y-47135045D01*
X15147934Y-47021777D01*
X15292097Y-46877614D01*
X15405365Y-46708096D01*
X15483386Y-46519738D01*
X15523160Y-46319779D01*
X15523160Y-46115901D01*
X15483386Y-45915942D01*
X15405365Y-45727584D01*
X15292097Y-45558066D01*
X15147934Y-45413903D01*
X14978416Y-45300635D01*
X14790058Y-45222614D01*
X14590099Y-45182840D01*
X14525458Y-45182840D01*
X14452696Y-45123126D01*
X14320667Y-45052554D01*
X14177406Y-45009097D01*
X14065753Y-44998100D01*
X14065742Y-44998100D01*
X14028420Y-44994424D01*
X13991098Y-44998100D01*
X12519741Y-44998100D01*
X12537000Y-44911335D01*
X12537000Y-44628665D01*
X12481853Y-44351426D01*
X12373680Y-44090273D01*
X12216637Y-43855241D01*
X12016759Y-43655363D01*
X11814173Y-43520000D01*
X12016759Y-43384637D01*
X12216637Y-43184759D01*
X12373680Y-42949727D01*
X12481853Y-42688574D01*
X12537000Y-42411335D01*
X12537000Y-42128665D01*
X12481853Y-41851426D01*
X12373680Y-41590273D01*
X12216637Y-41355241D01*
X12016759Y-41155363D01*
X11781727Y-40998320D01*
X11520574Y-40890147D01*
X11243335Y-40835000D01*
X10960665Y-40835000D01*
X10683426Y-40890147D01*
X10422273Y-40998320D01*
X10187241Y-41155363D01*
X9987363Y-41355241D01*
X9830320Y-41590273D01*
X9722147Y-41851426D01*
X9667000Y-42128665D01*
X9667000Y-42411335D01*
X9722147Y-42688574D01*
X9830320Y-42949727D01*
X9987363Y-43184759D01*
X10187241Y-43384637D01*
X10389827Y-43520000D01*
X10187241Y-43655363D01*
X9987363Y-43855241D01*
X9883957Y-44010000D01*
X9115325Y-44010000D01*
X9078000Y-44006324D01*
X9040675Y-44010000D01*
X9040667Y-44010000D01*
X8929014Y-44020997D01*
X8785753Y-44064454D01*
X8653724Y-44135026D01*
X8537999Y-44229999D01*
X8514201Y-44258998D01*
X7870998Y-44902201D01*
X7842000Y-44925999D01*
X7818202Y-44954997D01*
X7818201Y-44954998D01*
X7747026Y-45041724D01*
X7676454Y-45173754D01*
X7663003Y-45218099D01*
X7635126Y-45310001D01*
X7632998Y-45317015D01*
X7618324Y-45466000D01*
X7622001Y-45503332D01*
X7622000Y-46698677D01*
X7618324Y-46736000D01*
X7622000Y-46773322D01*
X7622000Y-46773332D01*
X7632997Y-46884985D01*
X7668795Y-47002997D01*
X7676454Y-47028246D01*
X7747026Y-47160276D01*
X7749358Y-47163117D01*
X7841999Y-47276001D01*
X7871003Y-47299804D01*
X10437300Y-49866102D01*
X10461099Y-49895101D01*
X10576824Y-49990074D01*
X10708853Y-50060646D01*
X10852114Y-50104103D01*
X10937704Y-50112533D01*
X10944308Y-50179582D01*
X10980618Y-50299280D01*
X11039583Y-50409594D01*
X11118935Y-50506285D01*
X11215626Y-50585637D01*
X11325940Y-50644602D01*
X11445638Y-50680912D01*
X11570120Y-50693172D01*
X12570120Y-50693172D01*
X12694602Y-50680912D01*
X12814300Y-50644602D01*
X12924614Y-50585637D01*
X13021305Y-50506285D01*
X13100657Y-50409594D01*
X13159622Y-50299280D01*
X13195932Y-50179582D01*
X13202283Y-50115100D01*
X13988299Y-50115100D01*
X16803928Y-52930730D01*
X16803928Y-54694000D01*
X16816188Y-54818482D01*
X16852498Y-54938180D01*
X16911463Y-55048494D01*
X16990815Y-55145185D01*
X17087506Y-55224537D01*
X17197820Y-55283502D01*
X17317518Y-55319812D01*
X17442000Y-55332072D01*
X19642000Y-55332072D01*
X19766482Y-55319812D01*
X19886180Y-55283502D01*
X19996494Y-55224537D01*
X20093185Y-55145185D01*
X20172537Y-55048494D01*
X20231502Y-54938180D01*
X20267812Y-54818482D01*
X20280072Y-54694000D01*
X20280072Y-53423117D01*
X26967000Y-53423117D01*
X26967000Y-53764883D01*
X27033675Y-54100081D01*
X27164463Y-54415831D01*
X27354337Y-54699998D01*
X27596002Y-54941663D01*
X27880169Y-55131537D01*
X28195919Y-55262325D01*
X28531117Y-55329000D01*
X28872883Y-55329000D01*
X29208081Y-55262325D01*
X29523831Y-55131537D01*
X29807998Y-54941663D01*
X30049663Y-54699998D01*
X30239537Y-54415831D01*
X30370325Y-54100081D01*
X30437000Y-53764883D01*
X30437000Y-53423117D01*
X30370325Y-53087919D01*
X30239537Y-52772169D01*
X30049663Y-52488002D01*
X29807998Y-52246337D01*
X29523831Y-52056463D01*
X29208081Y-51925675D01*
X28872883Y-51859000D01*
X28531117Y-51859000D01*
X28195919Y-51925675D01*
X27880169Y-52056463D01*
X27596002Y-52246337D01*
X27354337Y-52488002D01*
X27164463Y-52772169D01*
X27033675Y-53087919D01*
X26967000Y-53423117D01*
X20280072Y-53423117D01*
X20280072Y-52494000D01*
X20267812Y-52369518D01*
X20231502Y-52249820D01*
X20172537Y-52139506D01*
X20093185Y-52042815D01*
X19996494Y-51963463D01*
X19886180Y-51904498D01*
X19766482Y-51868188D01*
X19642000Y-51855928D01*
X17878730Y-51855928D01*
X16095853Y-50073052D01*
X16430930Y-50073052D01*
X16448700Y-50071302D01*
X16873907Y-50496509D01*
X16873913Y-50496514D01*
X17180396Y-50802997D01*
X17204199Y-50832001D01*
X17319924Y-50926974D01*
X17451953Y-50997546D01*
X17595214Y-51041003D01*
X17706867Y-51052000D01*
X17706875Y-51052000D01*
X17744200Y-51055676D01*
X17781525Y-51052000D01*
X45007505Y-51052000D01*
X45036993Y-51149209D01*
X45118482Y-51301664D01*
X45228148Y-51435292D01*
X45361776Y-51544958D01*
X45514231Y-51626447D01*
X45679655Y-51676628D01*
X45851690Y-51693572D01*
X46339190Y-51693572D01*
X46511225Y-51676628D01*
X46676649Y-51626447D01*
X46829104Y-51544958D01*
X46962732Y-51435292D01*
X47032940Y-51349744D01*
X47103148Y-51435292D01*
X47236776Y-51544958D01*
X47389231Y-51626447D01*
X47554655Y-51676628D01*
X47726690Y-51693572D01*
X48214190Y-51693572D01*
X48386225Y-51676628D01*
X48551649Y-51626447D01*
X48704104Y-51544958D01*
X48837732Y-51435292D01*
X48947398Y-51301664D01*
X49028887Y-51149209D01*
X49039113Y-51115500D01*
X49144698Y-51115500D01*
X49182020Y-51119176D01*
X49219342Y-51115500D01*
X49219353Y-51115500D01*
X49331006Y-51104503D01*
X49474267Y-51061046D01*
X49606296Y-50990474D01*
X49722021Y-50895501D01*
X49745823Y-50866498D01*
X49887301Y-50725020D01*
X49949439Y-50725020D01*
X50149398Y-50685246D01*
X50337756Y-50607225D01*
X50507274Y-50493957D01*
X50651437Y-50349794D01*
X50764705Y-50180276D01*
X50842726Y-49991918D01*
X50882500Y-49791959D01*
X50882500Y-49588081D01*
X50842726Y-49388122D01*
X50764705Y-49199764D01*
X50651437Y-49030246D01*
X50507274Y-48886083D01*
X50337756Y-48772815D01*
X50149398Y-48694794D01*
X49949439Y-48655020D01*
X49745561Y-48655020D01*
X49545602Y-48694794D01*
X49357244Y-48772815D01*
X49187726Y-48886083D01*
X49043563Y-49030246D01*
X48930295Y-49199764D01*
X48878341Y-49325190D01*
X48837732Y-49275708D01*
X48704104Y-49166042D01*
X48551649Y-49084553D01*
X48386225Y-49034372D01*
X48214190Y-49017428D01*
X47726690Y-49017428D01*
X47554655Y-49034372D01*
X47389231Y-49084553D01*
X47236776Y-49166042D01*
X47103148Y-49275708D01*
X47032940Y-49361256D01*
X46962732Y-49275708D01*
X46829104Y-49166042D01*
X46676649Y-49084553D01*
X46511225Y-49034372D01*
X46339190Y-49017428D01*
X45851690Y-49017428D01*
X45679655Y-49034372D01*
X45514231Y-49084553D01*
X45361776Y-49166042D01*
X45228148Y-49275708D01*
X45118482Y-49409336D01*
X45052917Y-49532000D01*
X41712801Y-49532000D01*
X43719669Y-47525133D01*
X43719673Y-47525128D01*
X45342962Y-45901840D01*
X45572509Y-45947500D01*
X45867491Y-45947500D01*
X46156805Y-45889952D01*
X46429332Y-45777067D01*
X46674601Y-45613184D01*
X46883184Y-45404601D01*
X46990000Y-45244739D01*
X47096816Y-45404601D01*
X47305399Y-45613184D01*
X47550668Y-45777067D01*
X47823195Y-45889952D01*
X48112509Y-45947500D01*
X48407491Y-45947500D01*
X48696805Y-45889952D01*
X48969332Y-45777067D01*
X49214601Y-45613184D01*
X49423184Y-45404601D01*
X49530000Y-45244739D01*
X49636816Y-45404601D01*
X49845399Y-45613184D01*
X50090668Y-45777067D01*
X50363195Y-45889952D01*
X50652509Y-45947500D01*
X50947491Y-45947500D01*
X51236805Y-45889952D01*
X51509332Y-45777067D01*
X51754601Y-45613184D01*
X51963184Y-45404601D01*
X52070000Y-45244739D01*
X52176816Y-45404601D01*
X52385399Y-45613184D01*
X52630668Y-45777067D01*
X52903195Y-45889952D01*
X53192509Y-45947500D01*
X53487491Y-45947500D01*
X53776805Y-45889952D01*
X54049332Y-45777067D01*
X54051238Y-45775793D01*
X54011880Y-45973661D01*
X54011880Y-46177539D01*
X54051654Y-46377498D01*
X54129675Y-46565856D01*
X54242943Y-46735374D01*
X54387106Y-46879537D01*
X54555419Y-46992000D01*
X47439711Y-46992000D01*
X47395774Y-46948063D01*
X47226256Y-46834795D01*
X47037898Y-46756774D01*
X46837939Y-46717000D01*
X46634061Y-46717000D01*
X46434102Y-46756774D01*
X46245744Y-46834795D01*
X46076226Y-46948063D01*
X45932063Y-47092226D01*
X45818795Y-47261744D01*
X45740774Y-47450102D01*
X45701000Y-47650061D01*
X45701000Y-47853939D01*
X45740774Y-48053898D01*
X45818795Y-48242256D01*
X45932063Y-48411774D01*
X46076226Y-48555937D01*
X46245744Y-48669205D01*
X46434102Y-48747226D01*
X46634061Y-48787000D01*
X46837939Y-48787000D01*
X47037898Y-48747226D01*
X47226256Y-48669205D01*
X47395774Y-48555937D01*
X47439711Y-48512000D01*
X55588678Y-48512000D01*
X55626000Y-48515676D01*
X55661427Y-48512187D01*
X55659474Y-48516902D01*
X55619700Y-48716861D01*
X55619700Y-48920739D01*
X55659474Y-49120698D01*
X55737495Y-49309056D01*
X55850763Y-49478574D01*
X55994926Y-49622737D01*
X56164444Y-49736005D01*
X56352802Y-49814026D01*
X56552761Y-49853800D01*
X56756639Y-49853800D01*
X56956598Y-49814026D01*
X57144956Y-49736005D01*
X57314474Y-49622737D01*
X57360951Y-49576260D01*
X58037238Y-49576260D01*
X58074560Y-49579936D01*
X58111882Y-49576260D01*
X58111893Y-49576260D01*
X58223546Y-49565263D01*
X58366807Y-49521806D01*
X58498836Y-49451234D01*
X58614561Y-49356261D01*
X58638364Y-49327257D01*
X59816162Y-48149460D01*
X59878299Y-48149460D01*
X60078258Y-48109686D01*
X60266616Y-48031665D01*
X60436134Y-47918397D01*
X60580297Y-47774234D01*
X60693565Y-47604716D01*
X60771586Y-47416358D01*
X60811360Y-47216399D01*
X60811360Y-47012521D01*
X60771586Y-46812562D01*
X60693565Y-46624204D01*
X60580297Y-46454686D01*
X60436134Y-46310523D01*
X60266616Y-46197255D01*
X60078258Y-46119234D01*
X59878299Y-46079460D01*
X59674421Y-46079460D01*
X59474462Y-46119234D01*
X59286104Y-46197255D01*
X59116586Y-46310523D01*
X58972423Y-46454686D01*
X58859155Y-46624204D01*
X58781134Y-46812562D01*
X58741360Y-47012521D01*
X58741360Y-47074658D01*
X57759759Y-48056260D01*
X57355871Y-48056260D01*
X57314474Y-48014863D01*
X57144956Y-47901595D01*
X56956598Y-47823574D01*
X56756639Y-47783800D01*
X56669001Y-47783800D01*
X58931003Y-45521799D01*
X58960001Y-45498001D01*
X59054974Y-45382276D01*
X59125546Y-45250247D01*
X59169003Y-45106986D01*
X59180000Y-44995333D01*
X59180000Y-44995325D01*
X59183676Y-44958000D01*
X59180000Y-44920675D01*
X59180000Y-27977322D01*
X59183676Y-27939999D01*
X59180000Y-27902676D01*
X59180000Y-27902667D01*
X59169003Y-27791014D01*
X59125546Y-27647753D01*
X59054974Y-27515724D01*
X58960001Y-27399999D01*
X58931004Y-27376202D01*
X55681804Y-24127003D01*
X55658001Y-24097999D01*
X55542276Y-24003026D01*
X55410247Y-23932454D01*
X55266986Y-23888997D01*
X55155333Y-23878000D01*
X55155322Y-23878000D01*
X55118000Y-23874324D01*
X55080678Y-23878000D01*
X31691711Y-23878000D01*
X31647774Y-23834063D01*
X31478256Y-23720795D01*
X31289898Y-23642774D01*
X31089939Y-23603000D01*
X30886061Y-23603000D01*
X30686102Y-23642774D01*
X30497744Y-23720795D01*
X30328226Y-23834063D01*
X30236700Y-23925589D01*
X30236700Y-21831962D01*
X30240376Y-21794639D01*
X30236700Y-21757316D01*
X30236700Y-21757307D01*
X30225703Y-21645654D01*
X30182246Y-21502393D01*
X30111674Y-21370364D01*
X30016701Y-21254639D01*
X29987703Y-21230842D01*
X29985920Y-21229058D01*
X29985920Y-21166921D01*
X29946146Y-20966962D01*
X29868125Y-20778604D01*
X29754857Y-20609086D01*
X29610694Y-20464923D01*
X29441176Y-20351655D01*
X29252818Y-20273634D01*
X29052859Y-20233860D01*
X28848981Y-20233860D01*
X28649022Y-20273634D01*
X28460664Y-20351655D01*
X28321000Y-20444975D01*
X28321000Y-19672235D01*
X30213235Y-17780000D01*
X31302289Y-17780000D01*
X31344226Y-17821937D01*
X31513744Y-17935205D01*
X31702102Y-18013226D01*
X31902061Y-18053000D01*
X32105939Y-18053000D01*
X32305898Y-18013226D01*
X32494256Y-17935205D01*
X32663774Y-17821937D01*
X32807937Y-17677774D01*
X32921205Y-17508256D01*
X32999226Y-17319898D01*
X33039000Y-17119939D01*
X33039000Y-16916061D01*
X32999226Y-16716102D01*
X32921205Y-16527744D01*
X32807937Y-16358226D01*
X32663774Y-16214063D01*
X32494256Y-16100795D01*
X32305898Y-16022774D01*
X32105939Y-15983000D01*
X32010235Y-15983000D01*
X32626235Y-15367000D01*
X36207765Y-15367000D01*
X36586870Y-15746105D01*
X36596774Y-15795898D01*
X36674795Y-15984256D01*
X36788063Y-16153774D01*
X36932226Y-16297937D01*
X37101744Y-16411205D01*
X37290102Y-16489226D01*
X37490061Y-16529000D01*
X37693939Y-16529000D01*
X37893898Y-16489226D01*
X38082256Y-16411205D01*
X38251774Y-16297937D01*
X38395937Y-16153774D01*
X38509205Y-15984256D01*
X38587226Y-15795898D01*
X38627000Y-15595939D01*
X38627000Y-15392061D01*
X38622015Y-15367000D01*
X41790412Y-15367000D01*
X41820262Y-15391497D01*
X42174870Y-15746105D01*
X42184774Y-15795898D01*
X42262795Y-15984256D01*
X42376063Y-16153774D01*
X42520226Y-16297937D01*
X42689744Y-16411205D01*
X42878102Y-16489226D01*
X43078061Y-16529000D01*
X43281939Y-16529000D01*
X43481898Y-16489226D01*
X43670256Y-16411205D01*
X43839774Y-16297937D01*
X43983937Y-16153774D01*
X44097205Y-15984256D01*
X44175226Y-15795898D01*
X44215000Y-15595939D01*
X44215000Y-15392061D01*
X44210015Y-15367000D01*
X47129765Y-15367000D01*
X47508870Y-15746105D01*
X47518774Y-15795898D01*
X47596795Y-15984256D01*
X47710063Y-16153774D01*
X47854226Y-16297937D01*
X48023744Y-16411205D01*
X48212102Y-16489226D01*
X48412061Y-16529000D01*
X48615939Y-16529000D01*
X48815898Y-16489226D01*
X49004256Y-16411205D01*
X49173774Y-16297937D01*
X49317937Y-16153774D01*
X49431205Y-15984256D01*
X49509226Y-15795898D01*
X49549000Y-15595939D01*
X49549000Y-15392061D01*
X49544015Y-15367000D01*
X53315532Y-15367000D01*
X53357744Y-15395205D01*
X53546102Y-15473226D01*
X53746061Y-15513000D01*
X53949939Y-15513000D01*
X54149898Y-15473226D01*
X54338256Y-15395205D01*
X54507774Y-15281937D01*
X54651937Y-15137774D01*
X54765205Y-14968256D01*
X54843226Y-14779898D01*
X54883000Y-14579939D01*
X54883000Y-14376061D01*
X54843226Y-14176102D01*
X54765205Y-13987744D01*
X54651937Y-13818226D01*
X54507774Y-13674063D01*
X54338256Y-13560795D01*
X54149898Y-13482774D01*
X53949939Y-13443000D01*
X53746061Y-13443000D01*
X53546102Y-13482774D01*
X53357744Y-13560795D01*
X53315532Y-13589000D01*
X49390236Y-13589000D01*
X48895000Y-13093765D01*
X48895000Y-7456512D01*
X48946969Y-7393187D01*
X48975463Y-7446494D01*
X49054815Y-7543185D01*
X49151506Y-7622537D01*
X49261820Y-7681502D01*
X49381518Y-7717812D01*
X49506000Y-7730072D01*
X49720250Y-7727000D01*
X49879000Y-7568250D01*
X49879000Y-4469000D01*
X49859000Y-4469000D01*
X49859000Y-4215000D01*
X49879000Y-4215000D01*
X49879000Y-4195000D01*
X50133000Y-4195000D01*
X50133000Y-4215000D01*
X50982250Y-4215000D01*
X51141000Y-4056250D01*
X51144072Y-1592000D01*
X51131812Y-1467518D01*
X51095502Y-1347820D01*
X51052837Y-1268000D01*
X51247199Y-1268000D01*
X51646000Y-1666802D01*
X51646001Y-4482033D01*
X51515903Y-4521498D01*
X51362436Y-4603528D01*
X51227921Y-4713921D01*
X51141239Y-4819544D01*
X51141000Y-4627750D01*
X50982250Y-4469000D01*
X50133000Y-4469000D01*
X50133000Y-7568250D01*
X50291750Y-7727000D01*
X50506000Y-7730072D01*
X50630482Y-7717812D01*
X50750180Y-7681502D01*
X50860494Y-7622537D01*
X50957185Y-7543185D01*
X50967928Y-7530095D01*
X50967928Y-7842400D01*
X50984984Y-8015576D01*
X51035498Y-8182097D01*
X51117528Y-8335564D01*
X51227921Y-8470079D01*
X51362436Y-8580472D01*
X51515903Y-8662502D01*
X51682424Y-8713016D01*
X51855600Y-8730072D01*
X52956400Y-8730072D01*
X53129576Y-8713016D01*
X53296097Y-8662502D01*
X53449564Y-8580472D01*
X53584079Y-8470079D01*
X53694472Y-8335564D01*
X53776502Y-8182097D01*
X53827016Y-8015576D01*
X53844072Y-7842400D01*
X53844072Y-5341600D01*
X53827016Y-5168424D01*
X53776502Y-5001903D01*
X53694472Y-4848436D01*
X53584079Y-4713921D01*
X53449564Y-4603528D01*
X53296097Y-4521498D01*
X53166000Y-4482033D01*
X53166000Y-1389322D01*
X53169676Y-1351999D01*
X53166000Y-1314676D01*
X53166000Y-1314667D01*
X53155003Y-1203014D01*
X53111546Y-1059753D01*
X53040974Y-927724D01*
X52946001Y-811999D01*
X52917004Y-788202D01*
X52838802Y-710000D01*
X67870001Y-710000D01*
X67870001Y-4131661D01*
X67729420Y-3921267D01*
X67198733Y-3390580D01*
X66574712Y-2973622D01*
X65881336Y-2686416D01*
X65145252Y-2540000D01*
X64394748Y-2540000D01*
X63658664Y-2686416D01*
X62965288Y-2973622D01*
X62341267Y-3390580D01*
X61810580Y-3921267D01*
X61393622Y-4545288D01*
X61106416Y-5238664D01*
X60960000Y-5974748D01*
X60960000Y-6725252D01*
X61106416Y-7461336D01*
X61393622Y-8154712D01*
X61810580Y-8778733D01*
X62341267Y-9309420D01*
X62965288Y-9726378D01*
X63658664Y-10013584D01*
X64394748Y-10160000D01*
X65145252Y-10160000D01*
X65881336Y-10013584D01*
X66574712Y-9726378D01*
X67198733Y-9309420D01*
X67729420Y-8778733D01*
X67870001Y-8568339D01*
X67870000Y-48581660D01*
X67729420Y-48371267D01*
X67198733Y-47840580D01*
X66574712Y-47423622D01*
X65881336Y-47136416D01*
X65145252Y-46990000D01*
X64394748Y-46990000D01*
X63658664Y-47136416D01*
X62965288Y-47423622D01*
X62341267Y-47840580D01*
X61810580Y-48371267D01*
X61393622Y-48995288D01*
X61106416Y-49688664D01*
X60960000Y-50424748D01*
X60960000Y-51175252D01*
X61106416Y-51911336D01*
X61393622Y-52604712D01*
X61810580Y-53228733D01*
X62341267Y-53759420D01*
X62965288Y-54176378D01*
X63658664Y-54463584D01*
X64394748Y-54610000D01*
X65145252Y-54610000D01*
X65881336Y-54463584D01*
X66574712Y-54176378D01*
X67198733Y-53759420D01*
X67729420Y-53228733D01*
X67870000Y-53018340D01*
X67870000Y-56440000D01*
X-6910000Y-56440000D01*
X-6910000Y-53018340D01*
X-6769420Y-53228733D01*
X-6238733Y-53759420D01*
X-5614712Y-54176378D01*
X-4921336Y-54463584D01*
X-4185252Y-54610000D01*
X-3434748Y-54610000D01*
X-2698664Y-54463584D01*
X-2005288Y-54176378D01*
X-1381267Y-53759420D01*
X-850580Y-53228733D01*
X-433622Y-52604712D01*
X-146416Y-51911336D01*
X0Y-51175252D01*
X0Y-50424748D01*
X-146416Y-49688664D01*
X-433622Y-48995288D01*
X-850580Y-48371267D01*
X-1381267Y-47840580D01*
X-2005288Y-47423622D01*
X-2698664Y-47136416D01*
X-3434748Y-46990000D01*
X-4185252Y-46990000D01*
X-4921336Y-47136416D01*
X-5614712Y-47423622D01*
X-6238733Y-47840580D01*
X-6769420Y-48371267D01*
X-6910000Y-48581660D01*
X-6910000Y-39228665D01*
X7067000Y-39228665D01*
X7067000Y-39511335D01*
X7122147Y-39788574D01*
X7230320Y-40049727D01*
X7387363Y-40284759D01*
X7587241Y-40484637D01*
X7822273Y-40641680D01*
X8083426Y-40749853D01*
X8360665Y-40805000D01*
X8643335Y-40805000D01*
X8920574Y-40749853D01*
X9181727Y-40641680D01*
X9416759Y-40484637D01*
X9616637Y-40284759D01*
X9773680Y-40049727D01*
X9881853Y-39788574D01*
X9937000Y-39511335D01*
X9937000Y-39228665D01*
X9881853Y-38951426D01*
X9773680Y-38690273D01*
X9616637Y-38455241D01*
X9416759Y-38255363D01*
X9181727Y-38098320D01*
X8920574Y-37990147D01*
X8643335Y-37935000D01*
X8360665Y-37935000D01*
X8083426Y-37990147D01*
X7822273Y-38098320D01*
X7587241Y-38255363D01*
X7387363Y-38455241D01*
X7230320Y-38690273D01*
X7122147Y-38951426D01*
X7067000Y-39228665D01*
X-6910000Y-39228665D01*
X-6910000Y-36238000D01*
X801928Y-36238000D01*
X801928Y-38438000D01*
X814188Y-38562482D01*
X850498Y-38682180D01*
X909463Y-38792494D01*
X988815Y-38889185D01*
X1085506Y-38968537D01*
X1195820Y-39027502D01*
X1315518Y-39063812D01*
X1440000Y-39076072D01*
X3640000Y-39076072D01*
X3764482Y-39063812D01*
X3884180Y-39027502D01*
X3994494Y-38968537D01*
X4091185Y-38889185D01*
X4170537Y-38792494D01*
X4229502Y-38682180D01*
X4265812Y-38562482D01*
X4278072Y-38438000D01*
X4278072Y-36238000D01*
X4265812Y-36113518D01*
X4229502Y-35993820D01*
X4170537Y-35883506D01*
X4091185Y-35786815D01*
X3994494Y-35707463D01*
X3884180Y-35648498D01*
X3764482Y-35612188D01*
X3640000Y-35599928D01*
X1440000Y-35599928D01*
X1315518Y-35612188D01*
X1195820Y-35648498D01*
X1085506Y-35707463D01*
X988815Y-35786815D01*
X909463Y-35883506D01*
X850498Y-35993820D01*
X814188Y-36113518D01*
X801928Y-36238000D01*
X-6910000Y-36238000D01*
X-6910000Y-8568340D01*
X-6769420Y-8778733D01*
X-6238733Y-9309420D01*
X-5614712Y-9726378D01*
X-4921336Y-10013584D01*
X-4185252Y-10160000D01*
X-3434748Y-10160000D01*
X-2698664Y-10013584D01*
X-2005288Y-9726378D01*
X-1381267Y-9309420D01*
X-850580Y-8778733D01*
X-433622Y-8154712D01*
X-146416Y-7461336D01*
X0Y-6725252D01*
X0Y-5974748D01*
X-146416Y-5238664D01*
X-433622Y-4545288D01*
X-850580Y-3921267D01*
X-1381267Y-3390580D01*
X-2005288Y-2973622D01*
X-2698664Y-2686416D01*
X-3434748Y-2540000D01*
X-4185252Y-2540000D01*
X-4921336Y-2686416D01*
X-5614712Y-2973622D01*
X-6238733Y-3390580D01*
X-6769420Y-3921267D01*
X-6910000Y-4131660D01*
X-6910000Y-710000D01*
X1517199Y-710000D01*
X1454998Y-772201D01*
G36*
X7976501Y-30823736D02*
G01*
X8004341Y-30857659D01*
X8139709Y-30968753D01*
X8294149Y-31051303D01*
X8360058Y-31071296D01*
X8461724Y-31102136D01*
X8494924Y-31105406D01*
X8592333Y-31115000D01*
X8592339Y-31115000D01*
X8635999Y-31119300D01*
X8679659Y-31115000D01*
X20965563Y-31115000D01*
X34077527Y-44226965D01*
X34062500Y-44302509D01*
X34062500Y-44597491D01*
X34120048Y-44886805D01*
X34232933Y-45159332D01*
X34396816Y-45404601D01*
X34605399Y-45613184D01*
X34850668Y-45777067D01*
X35123195Y-45889952D01*
X35412509Y-45947500D01*
X35707491Y-45947500D01*
X35996805Y-45889952D01*
X36269332Y-45777067D01*
X36514601Y-45613184D01*
X36723184Y-45404601D01*
X36830000Y-45244739D01*
X36936816Y-45404601D01*
X37145399Y-45613184D01*
X37390668Y-45777067D01*
X37663195Y-45889952D01*
X37952509Y-45947500D01*
X38247491Y-45947500D01*
X38536805Y-45889952D01*
X38809332Y-45777067D01*
X39054601Y-45613184D01*
X39263184Y-45404601D01*
X39370000Y-45244739D01*
X39476816Y-45404601D01*
X39685399Y-45613184D01*
X39930668Y-45777067D01*
X40203195Y-45889952D01*
X40492509Y-45947500D01*
X40787491Y-45947500D01*
X41076805Y-45889952D01*
X41349332Y-45777067D01*
X41594601Y-45613184D01*
X41803184Y-45404601D01*
X41910000Y-45244739D01*
X42016816Y-45404601D01*
X42225399Y-45613184D01*
X42470668Y-45777067D01*
X42743195Y-45889952D01*
X43032509Y-45947500D01*
X43147699Y-45947500D01*
X42644872Y-46450327D01*
X42644867Y-46450331D01*
X40703659Y-48391540D01*
X32658893Y-48391540D01*
X32648667Y-48357831D01*
X32567178Y-48205376D01*
X32457512Y-48071748D01*
X32323884Y-47962082D01*
X32171429Y-47880593D01*
X32006005Y-47830412D01*
X31833970Y-47813468D01*
X31346470Y-47813468D01*
X31174435Y-47830412D01*
X31009011Y-47880593D01*
X30856556Y-47962082D01*
X30722928Y-48071748D01*
X30652720Y-48157296D01*
X30582512Y-48071748D01*
X30448884Y-47962082D01*
X30296429Y-47880593D01*
X30131005Y-47830412D01*
X29958970Y-47813468D01*
X29471470Y-47813468D01*
X29453701Y-47815218D01*
X26414000Y-44775519D01*
X26414000Y-39677471D01*
X26457937Y-39633534D01*
X26571205Y-39464016D01*
X26649226Y-39275658D01*
X26689000Y-39075699D01*
X26689000Y-38871821D01*
X26649226Y-38671862D01*
X26571205Y-38483504D01*
X26457937Y-38313986D01*
X26313774Y-38169823D01*
X26144256Y-38056555D01*
X25955898Y-37978534D01*
X25755939Y-37938760D01*
X25552061Y-37938760D01*
X25352102Y-37978534D01*
X25163744Y-38056555D01*
X24994226Y-38169823D01*
X24850063Y-38313986D01*
X24736795Y-38483504D01*
X24698039Y-38577068D01*
X24616637Y-38455241D01*
X24416759Y-38255363D01*
X24181727Y-38098320D01*
X23920574Y-37990147D01*
X23643335Y-37935000D01*
X23360665Y-37935000D01*
X23083426Y-37990147D01*
X22822273Y-38098320D01*
X22587241Y-38255363D01*
X22387363Y-38455241D01*
X22230320Y-38690273D01*
X22122147Y-38951426D01*
X22067000Y-39228665D01*
X22067000Y-39511335D01*
X22122147Y-39788574D01*
X22230320Y-40049727D01*
X22387363Y-40284759D01*
X22587241Y-40484637D01*
X22742000Y-40588044D01*
X22742000Y-41020200D01*
X21127200Y-42635001D01*
X19071803Y-42635001D01*
X10901022Y-34464220D01*
X12374528Y-34464220D01*
X12386788Y-34588702D01*
X12423098Y-34708400D01*
X12482063Y-34818714D01*
X12561415Y-34915405D01*
X12658106Y-34994757D01*
X12768420Y-35053722D01*
X12888118Y-35090032D01*
X13012600Y-35102292D01*
X13214350Y-35099220D01*
X13373100Y-34940470D01*
X13373100Y-33891220D01*
X12536350Y-33891220D01*
X12377600Y-34049970D01*
X12374528Y-34464220D01*
X10901022Y-34464220D01*
X9501022Y-33064220D01*
X12374528Y-33064220D01*
X12377600Y-33478470D01*
X12536350Y-33637220D01*
X13373100Y-33637220D01*
X13373100Y-32587970D01*
X13627100Y-32587970D01*
X13627100Y-33637220D01*
X13647100Y-33637220D01*
X13647100Y-33891220D01*
X13627100Y-33891220D01*
X13627100Y-34940470D01*
X13785850Y-35099220D01*
X13987600Y-35102292D01*
X14112082Y-35090032D01*
X14231780Y-35053722D01*
X14342094Y-34994757D01*
X14438785Y-34915405D01*
X14502592Y-34837656D01*
X14507808Y-34844012D01*
X14641436Y-34953678D01*
X14793891Y-35035167D01*
X14959315Y-35085348D01*
X15131350Y-35102292D01*
X15618850Y-35102292D01*
X15790885Y-35085348D01*
X15956309Y-35035167D01*
X16080548Y-34968760D01*
X16895014Y-34968760D01*
X16945523Y-35063254D01*
X17024875Y-35159945D01*
X17121566Y-35239297D01*
X17231880Y-35298262D01*
X17351578Y-35334572D01*
X17416061Y-35340923D01*
X17416061Y-35410728D01*
X17412384Y-35448060D01*
X17416061Y-35485393D01*
X17427058Y-35597046D01*
X17431651Y-35612188D01*
X17470514Y-35740306D01*
X17541086Y-35872336D01*
X17600967Y-35945300D01*
X17636060Y-35988061D01*
X17665058Y-36011859D01*
X18667780Y-37014582D01*
X18667780Y-37076719D01*
X18707554Y-37276678D01*
X18785575Y-37465036D01*
X18898843Y-37634554D01*
X19043006Y-37778717D01*
X19212524Y-37891985D01*
X19400882Y-37970006D01*
X19600841Y-38009780D01*
X19804719Y-38009780D01*
X20004678Y-37970006D01*
X20193036Y-37891985D01*
X20306001Y-37816505D01*
X20306001Y-38231188D01*
X20262063Y-38275126D01*
X20148795Y-38444644D01*
X20070774Y-38633002D01*
X20031000Y-38832961D01*
X20031000Y-39036839D01*
X20070774Y-39236798D01*
X20148795Y-39425156D01*
X20262063Y-39594674D01*
X20406226Y-39738837D01*
X20575744Y-39852105D01*
X20764102Y-39930126D01*
X20964061Y-39969900D01*
X21167939Y-39969900D01*
X21367898Y-39930126D01*
X21556256Y-39852105D01*
X21725774Y-39738837D01*
X21869937Y-39594674D01*
X21983205Y-39425156D01*
X22061226Y-39236798D01*
X22101000Y-39036839D01*
X22101000Y-38832961D01*
X22061226Y-38633002D01*
X21983205Y-38444644D01*
X21869937Y-38275126D01*
X21826000Y-38231189D01*
X21826000Y-32982667D01*
X21815003Y-32871014D01*
X21771546Y-32727753D01*
X21700974Y-32595724D01*
X21683846Y-32574853D01*
X21665562Y-32514580D01*
X21606597Y-32404266D01*
X21527245Y-32307575D01*
X21430554Y-32228223D01*
X21320240Y-32169258D01*
X21200542Y-32132948D01*
X21076060Y-32120688D01*
X19676060Y-32120688D01*
X19551578Y-32132948D01*
X19431880Y-32169258D01*
X19408495Y-32181758D01*
X19352312Y-32181758D01*
X19511060Y-32023010D01*
X19514132Y-31808760D01*
X19501872Y-31684278D01*
X19465562Y-31564580D01*
X19406597Y-31454266D01*
X19327245Y-31357575D01*
X19230554Y-31278223D01*
X19120240Y-31219258D01*
X19000542Y-31182948D01*
X18876060Y-31170688D01*
X18461810Y-31173760D01*
X18303060Y-31332510D01*
X18303060Y-32181760D01*
X18323060Y-32181760D01*
X18323060Y-32435760D01*
X18303060Y-32435760D01*
X18303060Y-32455760D01*
X18049060Y-32455760D01*
X18049060Y-32435760D01*
X16999810Y-32435760D01*
X16841060Y-32594510D01*
X16837988Y-32808760D01*
X16850248Y-32933242D01*
X16886558Y-33052940D01*
X16945523Y-33163254D01*
X17023902Y-33258760D01*
X16945523Y-33354266D01*
X16895014Y-33448760D01*
X16500672Y-33448760D01*
X16500672Y-33307970D01*
X16483728Y-33135935D01*
X16433547Y-32970511D01*
X16352058Y-32818056D01*
X16242392Y-32684428D01*
X16108764Y-32574762D01*
X15956309Y-32493273D01*
X15790885Y-32443092D01*
X15618850Y-32426148D01*
X15131350Y-32426148D01*
X14959315Y-32443092D01*
X14793891Y-32493273D01*
X14641436Y-32574762D01*
X14507808Y-32684428D01*
X14502592Y-32690784D01*
X14438785Y-32613035D01*
X14342094Y-32533683D01*
X14231780Y-32474718D01*
X14112082Y-32438408D01*
X13987600Y-32426148D01*
X13785850Y-32429220D01*
X13627100Y-32587970D01*
X13373100Y-32587970D01*
X13214350Y-32429220D01*
X13012600Y-32426148D01*
X12888118Y-32438408D01*
X12768420Y-32474718D01*
X12658106Y-32533683D01*
X12561415Y-32613035D01*
X12482063Y-32709726D01*
X12423098Y-32820040D01*
X12386788Y-32939738D01*
X12374528Y-33064220D01*
X9501022Y-33064220D01*
X8245562Y-31808760D01*
X16837988Y-31808760D01*
X16841060Y-32023010D01*
X16999810Y-32181760D01*
X18049060Y-32181760D01*
X18049060Y-31332510D01*
X17890310Y-31173760D01*
X17476060Y-31170688D01*
X17351578Y-31182948D01*
X17231880Y-31219258D01*
X17121566Y-31278223D01*
X17024875Y-31357575D01*
X16945523Y-31454266D01*
X16886558Y-31564580D01*
X16850248Y-31684278D01*
X16837988Y-31808760D01*
X8245562Y-31808760D01*
X4182714Y-27745912D01*
X4208325Y-27684081D01*
X4275000Y-27348883D01*
X4275000Y-27122235D01*
X7976501Y-30823736D01*
G37*
X7976501Y-30823736D02*
X8004341Y-30857659D01*
X8139709Y-30968753D01*
X8294149Y-31051303D01*
X8360058Y-31071296D01*
X8461724Y-31102136D01*
X8494924Y-31105406D01*
X8592333Y-31115000D01*
X8592339Y-31115000D01*
X8635999Y-31119300D01*
X8679659Y-31115000D01*
X20965563Y-31115000D01*
X34077527Y-44226965D01*
X34062500Y-44302509D01*
X34062500Y-44597491D01*
X34120048Y-44886805D01*
X34232933Y-45159332D01*
X34396816Y-45404601D01*
X34605399Y-45613184D01*
X34850668Y-45777067D01*
X35123195Y-45889952D01*
X35412509Y-45947500D01*
X35707491Y-45947500D01*
X35996805Y-45889952D01*
X36269332Y-45777067D01*
X36514601Y-45613184D01*
X36723184Y-45404601D01*
X36830000Y-45244739D01*
X36936816Y-45404601D01*
X37145399Y-45613184D01*
X37390668Y-45777067D01*
X37663195Y-45889952D01*
X37952509Y-45947500D01*
X38247491Y-45947500D01*
X38536805Y-45889952D01*
X38809332Y-45777067D01*
X39054601Y-45613184D01*
X39263184Y-45404601D01*
X39370000Y-45244739D01*
X39476816Y-45404601D01*
X39685399Y-45613184D01*
X39930668Y-45777067D01*
X40203195Y-45889952D01*
X40492509Y-45947500D01*
X40787491Y-45947500D01*
X41076805Y-45889952D01*
X41349332Y-45777067D01*
X41594601Y-45613184D01*
X41803184Y-45404601D01*
X41910000Y-45244739D01*
X42016816Y-45404601D01*
X42225399Y-45613184D01*
X42470668Y-45777067D01*
X42743195Y-45889952D01*
X43032509Y-45947500D01*
X43147699Y-45947500D01*
X42644872Y-46450327D01*
X42644867Y-46450331D01*
X40703659Y-48391540D01*
X32658893Y-48391540D01*
X32648667Y-48357831D01*
X32567178Y-48205376D01*
X32457512Y-48071748D01*
X32323884Y-47962082D01*
X32171429Y-47880593D01*
X32006005Y-47830412D01*
X31833970Y-47813468D01*
X31346470Y-47813468D01*
X31174435Y-47830412D01*
X31009011Y-47880593D01*
X30856556Y-47962082D01*
X30722928Y-48071748D01*
X30652720Y-48157296D01*
X30582512Y-48071748D01*
X30448884Y-47962082D01*
X30296429Y-47880593D01*
X30131005Y-47830412D01*
X29958970Y-47813468D01*
X29471470Y-47813468D01*
X29453701Y-47815218D01*
X26414000Y-44775519D01*
X26414000Y-39677471D01*
X26457937Y-39633534D01*
X26571205Y-39464016D01*
X26649226Y-39275658D01*
X26689000Y-39075699D01*
X26689000Y-38871821D01*
X26649226Y-38671862D01*
X26571205Y-38483504D01*
X26457937Y-38313986D01*
X26313774Y-38169823D01*
X26144256Y-38056555D01*
X25955898Y-37978534D01*
X25755939Y-37938760D01*
X25552061Y-37938760D01*
X25352102Y-37978534D01*
X25163744Y-38056555D01*
X24994226Y-38169823D01*
X24850063Y-38313986D01*
X24736795Y-38483504D01*
X24698039Y-38577068D01*
X24616637Y-38455241D01*
X24416759Y-38255363D01*
X24181727Y-38098320D01*
X23920574Y-37990147D01*
X23643335Y-37935000D01*
X23360665Y-37935000D01*
X23083426Y-37990147D01*
X22822273Y-38098320D01*
X22587241Y-38255363D01*
X22387363Y-38455241D01*
X22230320Y-38690273D01*
X22122147Y-38951426D01*
X22067000Y-39228665D01*
X22067000Y-39511335D01*
X22122147Y-39788574D01*
X22230320Y-40049727D01*
X22387363Y-40284759D01*
X22587241Y-40484637D01*
X22742000Y-40588044D01*
X22742000Y-41020200D01*
X21127200Y-42635001D01*
X19071803Y-42635001D01*
X10901022Y-34464220D01*
X12374528Y-34464220D01*
X12386788Y-34588702D01*
X12423098Y-34708400D01*
X12482063Y-34818714D01*
X12561415Y-34915405D01*
X12658106Y-34994757D01*
X12768420Y-35053722D01*
X12888118Y-35090032D01*
X13012600Y-35102292D01*
X13214350Y-35099220D01*
X13373100Y-34940470D01*
X13373100Y-33891220D01*
X12536350Y-33891220D01*
X12377600Y-34049970D01*
X12374528Y-34464220D01*
X10901022Y-34464220D01*
X9501022Y-33064220D01*
X12374528Y-33064220D01*
X12377600Y-33478470D01*
X12536350Y-33637220D01*
X13373100Y-33637220D01*
X13373100Y-32587970D01*
X13627100Y-32587970D01*
X13627100Y-33637220D01*
X13647100Y-33637220D01*
X13647100Y-33891220D01*
X13627100Y-33891220D01*
X13627100Y-34940470D01*
X13785850Y-35099220D01*
X13987600Y-35102292D01*
X14112082Y-35090032D01*
X14231780Y-35053722D01*
X14342094Y-34994757D01*
X14438785Y-34915405D01*
X14502592Y-34837656D01*
X14507808Y-34844012D01*
X14641436Y-34953678D01*
X14793891Y-35035167D01*
X14959315Y-35085348D01*
X15131350Y-35102292D01*
X15618850Y-35102292D01*
X15790885Y-35085348D01*
X15956309Y-35035167D01*
X16080548Y-34968760D01*
X16895014Y-34968760D01*
X16945523Y-35063254D01*
X17024875Y-35159945D01*
X17121566Y-35239297D01*
X17231880Y-35298262D01*
X17351578Y-35334572D01*
X17416061Y-35340923D01*
X17416061Y-35410728D01*
X17412384Y-35448060D01*
X17416061Y-35485393D01*
X17427058Y-35597046D01*
X17431651Y-35612188D01*
X17470514Y-35740306D01*
X17541086Y-35872336D01*
X17600967Y-35945300D01*
X17636060Y-35988061D01*
X17665058Y-36011859D01*
X18667780Y-37014582D01*
X18667780Y-37076719D01*
X18707554Y-37276678D01*
X18785575Y-37465036D01*
X18898843Y-37634554D01*
X19043006Y-37778717D01*
X19212524Y-37891985D01*
X19400882Y-37970006D01*
X19600841Y-38009780D01*
X19804719Y-38009780D01*
X20004678Y-37970006D01*
X20193036Y-37891985D01*
X20306001Y-37816505D01*
X20306001Y-38231188D01*
X20262063Y-38275126D01*
X20148795Y-38444644D01*
X20070774Y-38633002D01*
X20031000Y-38832961D01*
X20031000Y-39036839D01*
X20070774Y-39236798D01*
X20148795Y-39425156D01*
X20262063Y-39594674D01*
X20406226Y-39738837D01*
X20575744Y-39852105D01*
X20764102Y-39930126D01*
X20964061Y-39969900D01*
X21167939Y-39969900D01*
X21367898Y-39930126D01*
X21556256Y-39852105D01*
X21725774Y-39738837D01*
X21869937Y-39594674D01*
X21983205Y-39425156D01*
X22061226Y-39236798D01*
X22101000Y-39036839D01*
X22101000Y-38832961D01*
X22061226Y-38633002D01*
X21983205Y-38444644D01*
X21869937Y-38275126D01*
X21826000Y-38231189D01*
X21826000Y-32982667D01*
X21815003Y-32871014D01*
X21771546Y-32727753D01*
X21700974Y-32595724D01*
X21683846Y-32574853D01*
X21665562Y-32514580D01*
X21606597Y-32404266D01*
X21527245Y-32307575D01*
X21430554Y-32228223D01*
X21320240Y-32169258D01*
X21200542Y-32132948D01*
X21076060Y-32120688D01*
X19676060Y-32120688D01*
X19551578Y-32132948D01*
X19431880Y-32169258D01*
X19408495Y-32181758D01*
X19352312Y-32181758D01*
X19511060Y-32023010D01*
X19514132Y-31808760D01*
X19501872Y-31684278D01*
X19465562Y-31564580D01*
X19406597Y-31454266D01*
X19327245Y-31357575D01*
X19230554Y-31278223D01*
X19120240Y-31219258D01*
X19000542Y-31182948D01*
X18876060Y-31170688D01*
X18461810Y-31173760D01*
X18303060Y-31332510D01*
X18303060Y-32181760D01*
X18323060Y-32181760D01*
X18323060Y-32435760D01*
X18303060Y-32435760D01*
X18303060Y-32455760D01*
X18049060Y-32455760D01*
X18049060Y-32435760D01*
X16999810Y-32435760D01*
X16841060Y-32594510D01*
X16837988Y-32808760D01*
X16850248Y-32933242D01*
X16886558Y-33052940D01*
X16945523Y-33163254D01*
X17023902Y-33258760D01*
X16945523Y-33354266D01*
X16895014Y-33448760D01*
X16500672Y-33448760D01*
X16500672Y-33307970D01*
X16483728Y-33135935D01*
X16433547Y-32970511D01*
X16352058Y-32818056D01*
X16242392Y-32684428D01*
X16108764Y-32574762D01*
X15956309Y-32493273D01*
X15790885Y-32443092D01*
X15618850Y-32426148D01*
X15131350Y-32426148D01*
X14959315Y-32443092D01*
X14793891Y-32493273D01*
X14641436Y-32574762D01*
X14507808Y-32684428D01*
X14502592Y-32690784D01*
X14438785Y-32613035D01*
X14342094Y-32533683D01*
X14231780Y-32474718D01*
X14112082Y-32438408D01*
X13987600Y-32426148D01*
X13785850Y-32429220D01*
X13627100Y-32587970D01*
X13373100Y-32587970D01*
X13214350Y-32429220D01*
X13012600Y-32426148D01*
X12888118Y-32438408D01*
X12768420Y-32474718D01*
X12658106Y-32533683D01*
X12561415Y-32613035D01*
X12482063Y-32709726D01*
X12423098Y-32820040D01*
X12386788Y-32939738D01*
X12374528Y-33064220D01*
X9501022Y-33064220D01*
X8245562Y-31808760D01*
X16837988Y-31808760D01*
X16841060Y-32023010D01*
X16999810Y-32181760D01*
X18049060Y-32181760D01*
X18049060Y-31332510D01*
X17890310Y-31173760D01*
X17476060Y-31170688D01*
X17351578Y-31182948D01*
X17231880Y-31219258D01*
X17121566Y-31278223D01*
X17024875Y-31357575D01*
X16945523Y-31454266D01*
X16886558Y-31564580D01*
X16850248Y-31684278D01*
X16837988Y-31808760D01*
X8245562Y-31808760D01*
X4182714Y-27745912D01*
X4208325Y-27684081D01*
X4275000Y-27348883D01*
X4275000Y-27122235D01*
X7976501Y-30823736D01*
G36*
X13147120Y-47028100D02*
G01*
X13167120Y-47028100D01*
X13167120Y-47282100D01*
X13147120Y-47282100D01*
X13147120Y-47302100D01*
X12893120Y-47302100D01*
X12893120Y-47282100D01*
X12873120Y-47282100D01*
X12873120Y-47028100D01*
X12893120Y-47028100D01*
X12893120Y-47008100D01*
X13147120Y-47008100D01*
X13147120Y-47028100D01*
G37*
X13147120Y-47028100D02*
X13167120Y-47028100D01*
X13167120Y-47282100D01*
X13147120Y-47282100D01*
X13147120Y-47302100D01*
X12893120Y-47302100D01*
X12893120Y-47282100D01*
X12873120Y-47282100D01*
X12873120Y-47028100D01*
X12893120Y-47028100D01*
X12893120Y-47008100D01*
X13147120Y-47008100D01*
X13147120Y-47028100D01*
G36*
X28460664Y-22186065D02*
G01*
X28649022Y-22264086D01*
X28716700Y-22277548D01*
X28716701Y-25139460D01*
X28713024Y-25176792D01*
X28716701Y-25214125D01*
X28722754Y-25275576D01*
X28727698Y-25325777D01*
X28771154Y-25469038D01*
X28841726Y-25601068D01*
X28900760Y-25673000D01*
X28936700Y-25716793D01*
X28965698Y-25740591D01*
X29173104Y-25947997D01*
X29196907Y-25977001D01*
X29312632Y-26071974D01*
X29444661Y-26142546D01*
X29587922Y-26186003D01*
X29699575Y-26197000D01*
X29699583Y-26197000D01*
X29736908Y-26200676D01*
X29774233Y-26197000D01*
X31280072Y-26197000D01*
X31324009Y-26240937D01*
X31493527Y-26354205D01*
X31681885Y-26432226D01*
X31881844Y-26472000D01*
X32085722Y-26472000D01*
X32285681Y-26432226D01*
X32474039Y-26354205D01*
X32643557Y-26240937D01*
X32787720Y-26096774D01*
X32900988Y-25927256D01*
X32979009Y-25738898D01*
X33018783Y-25538939D01*
X33018783Y-25398000D01*
X54803199Y-25398000D01*
X57660000Y-28254802D01*
X57660001Y-41090160D01*
X57660000Y-41090170D01*
X57660001Y-44643197D01*
X56071009Y-46232189D01*
X56081880Y-46177539D01*
X56081880Y-45973661D01*
X56042106Y-45773702D01*
X55964085Y-45585344D01*
X55850817Y-45415826D01*
X55806880Y-45371889D01*
X55806880Y-42062833D01*
X55917474Y-41988937D01*
X56061637Y-41844774D01*
X56174905Y-41675256D01*
X56252926Y-41486898D01*
X56292700Y-41286939D01*
X56292700Y-41083061D01*
X56252926Y-40883102D01*
X56174905Y-40694744D01*
X56061637Y-40525226D01*
X55917474Y-40381063D01*
X55747956Y-40267795D01*
X55559598Y-40189774D01*
X55359639Y-40150000D01*
X55155761Y-40150000D01*
X54955802Y-40189774D01*
X54767444Y-40267795D01*
X54597926Y-40381063D01*
X54453763Y-40525226D01*
X54340495Y-40694744D01*
X54311801Y-40764016D01*
X54294601Y-40746816D01*
X54049332Y-40582933D01*
X53776805Y-40470048D01*
X53487491Y-40412500D01*
X53192509Y-40412500D01*
X52903195Y-40470048D01*
X52630668Y-40582933D01*
X52385399Y-40746816D01*
X52176816Y-40955399D01*
X52070000Y-41115261D01*
X51963184Y-40955399D01*
X51754601Y-40746816D01*
X51509332Y-40582933D01*
X51236805Y-40470048D01*
X50947491Y-40412500D01*
X50652509Y-40412500D01*
X50363195Y-40470048D01*
X50090668Y-40582933D01*
X49845399Y-40746816D01*
X49636816Y-40955399D01*
X49530000Y-41115261D01*
X49423184Y-40955399D01*
X49214601Y-40746816D01*
X48969332Y-40582933D01*
X48696805Y-40470048D01*
X48407491Y-40412500D01*
X48112509Y-40412500D01*
X47823195Y-40470048D01*
X47550668Y-40582933D01*
X47305399Y-40746816D01*
X47096816Y-40955399D01*
X46990000Y-41115261D01*
X46883184Y-40955399D01*
X46674601Y-40746816D01*
X46429332Y-40582933D01*
X46156805Y-40470048D01*
X45867491Y-40412500D01*
X45572509Y-40412500D01*
X45283195Y-40470048D01*
X45010668Y-40582933D01*
X44765399Y-40746816D01*
X44556816Y-40955399D01*
X44450000Y-41115261D01*
X44343184Y-40955399D01*
X44134601Y-40746816D01*
X43889332Y-40582933D01*
X43616805Y-40470048D01*
X43327491Y-40412500D01*
X43032509Y-40412500D01*
X42743195Y-40470048D01*
X42470668Y-40582933D01*
X42225399Y-40746816D01*
X42016816Y-40955399D01*
X41910000Y-41115261D01*
X41803184Y-40955399D01*
X41594601Y-40746816D01*
X41349332Y-40582933D01*
X41076805Y-40470048D01*
X40787491Y-40412500D01*
X40492509Y-40412500D01*
X40203195Y-40470048D01*
X39930668Y-40582933D01*
X39685399Y-40746816D01*
X39476816Y-40955399D01*
X39364160Y-41124001D01*
X39137319Y-41052286D01*
X38279605Y-41910000D01*
X39137319Y-42767714D01*
X39364160Y-42695999D01*
X39476816Y-42864601D01*
X39685399Y-43073184D01*
X39845261Y-43180000D01*
X39685399Y-43286816D01*
X39476816Y-43495399D01*
X39370000Y-43655261D01*
X39263184Y-43495399D01*
X39054601Y-43286816D01*
X38885999Y-43174160D01*
X38957714Y-42947319D01*
X38100000Y-42089605D01*
X37242286Y-42947319D01*
X37314001Y-43174160D01*
X37145399Y-43286816D01*
X36936816Y-43495399D01*
X36830000Y-43655261D01*
X36723184Y-43495399D01*
X36607683Y-43379898D01*
X36666680Y-43362002D01*
X36776994Y-43303037D01*
X36873685Y-43223685D01*
X36953037Y-43126994D01*
X37012002Y-43016680D01*
X37048312Y-42896982D01*
X37060572Y-42772500D01*
X37060572Y-42767047D01*
X37062681Y-42767714D01*
X37920395Y-41910000D01*
X37062681Y-41052286D01*
X37060572Y-41052953D01*
X37060572Y-41047500D01*
X37048312Y-40923018D01*
X37033043Y-40872681D01*
X37242286Y-40872681D01*
X38100000Y-41730395D01*
X38957714Y-40872681D01*
X38878566Y-40622330D01*
X38612394Y-40495180D01*
X38326532Y-40422403D01*
X38031963Y-40406792D01*
X37740009Y-40448949D01*
X37461889Y-40547253D01*
X37321434Y-40622330D01*
X37242286Y-40872681D01*
X37033043Y-40872681D01*
X37012002Y-40803320D01*
X36953037Y-40693006D01*
X36873685Y-40596315D01*
X36776994Y-40516963D01*
X36666680Y-40457998D01*
X36546982Y-40421688D01*
X36422500Y-40409428D01*
X35824664Y-40409428D01*
X29869500Y-34454265D01*
X29869495Y-34454259D01*
X29337000Y-33921764D01*
X29337000Y-29578235D01*
X30086236Y-28829000D01*
X31742445Y-28829000D01*
X31986930Y-29073485D01*
X31996834Y-29123278D01*
X32074855Y-29311636D01*
X32188123Y-29481154D01*
X32332286Y-29625317D01*
X32501804Y-29738585D01*
X32690162Y-29816606D01*
X32890121Y-29856380D01*
X33093999Y-29856380D01*
X33293958Y-29816606D01*
X33482316Y-29738585D01*
X33651834Y-29625317D01*
X33795997Y-29481154D01*
X33909265Y-29311636D01*
X33987286Y-29123278D01*
X34027060Y-28923319D01*
X34027060Y-28829000D01*
X39352285Y-28829000D01*
X39599310Y-29076025D01*
X39609214Y-29125818D01*
X39687235Y-29314176D01*
X39800503Y-29483694D01*
X39944666Y-29627857D01*
X40114184Y-29741125D01*
X40302542Y-29819146D01*
X40502501Y-29858920D01*
X40706379Y-29858920D01*
X40906338Y-29819146D01*
X41094696Y-29741125D01*
X41264214Y-29627857D01*
X41408377Y-29483694D01*
X41521645Y-29314176D01*
X41599666Y-29125818D01*
X41639440Y-28925859D01*
X41639440Y-28829000D01*
X44589765Y-28829000D01*
X44968870Y-29208105D01*
X44978774Y-29257898D01*
X45056795Y-29446256D01*
X45170063Y-29615774D01*
X45314226Y-29759937D01*
X45483744Y-29873205D01*
X45672102Y-29951226D01*
X45872061Y-29991000D01*
X46075939Y-29991000D01*
X46275898Y-29951226D01*
X46464256Y-29873205D01*
X46633774Y-29759937D01*
X46777937Y-29615774D01*
X46891205Y-29446256D01*
X46969226Y-29257898D01*
X47009000Y-29057939D01*
X47009000Y-28854061D01*
X47004015Y-28829000D01*
X51955765Y-28829000D01*
X52334870Y-29208105D01*
X52344774Y-29257898D01*
X52422795Y-29446256D01*
X52536063Y-29615774D01*
X52680226Y-29759937D01*
X52849744Y-29873205D01*
X53038102Y-29951226D01*
X53238061Y-29991000D01*
X53441939Y-29991000D01*
X53641898Y-29951226D01*
X53830256Y-29873205D01*
X53999774Y-29759937D01*
X54143937Y-29615774D01*
X54257205Y-29446256D01*
X54335226Y-29257898D01*
X54375000Y-29057939D01*
X54375000Y-28854061D01*
X54335226Y-28654102D01*
X54257205Y-28465744D01*
X54143937Y-28296226D01*
X53999774Y-28152063D01*
X53830256Y-28038795D01*
X53641898Y-27960774D01*
X53592105Y-27950870D01*
X52983499Y-27342264D01*
X52955659Y-27308341D01*
X52820291Y-27197247D01*
X52665851Y-27114697D01*
X52498274Y-27063864D01*
X52367667Y-27051000D01*
X52367660Y-27051000D01*
X52324000Y-27046700D01*
X52280340Y-27051000D01*
X45001660Y-27051000D01*
X44958000Y-27046700D01*
X44914340Y-27051000D01*
X39921667Y-27051000D01*
X39878000Y-27046699D01*
X39834333Y-27051000D01*
X39387743Y-27051000D01*
X39393653Y-27021286D01*
X39393653Y-26817408D01*
X39353879Y-26617449D01*
X39275858Y-26429091D01*
X39162590Y-26259573D01*
X39018427Y-26115410D01*
X38848909Y-26002142D01*
X38660551Y-25924121D01*
X38460592Y-25884347D01*
X38256714Y-25884347D01*
X38056755Y-25924121D01*
X37868397Y-26002142D01*
X37698879Y-26115410D01*
X37650289Y-26164000D01*
X36771711Y-26164000D01*
X36727774Y-26120063D01*
X36558256Y-26006795D01*
X36369898Y-25928774D01*
X36169939Y-25889000D01*
X35966061Y-25889000D01*
X35766102Y-25928774D01*
X35577744Y-26006795D01*
X35408226Y-26120063D01*
X35264063Y-26264226D01*
X35150795Y-26433744D01*
X35072774Y-26622102D01*
X35033000Y-26822061D01*
X35033000Y-27025939D01*
X35037985Y-27051000D01*
X32154340Y-27051000D01*
X32110680Y-27046700D01*
X32067020Y-27051000D01*
X29761659Y-27051000D01*
X29717999Y-27046700D01*
X29674339Y-27051000D01*
X29674333Y-27051000D01*
X29576924Y-27060594D01*
X29543724Y-27063864D01*
X29442058Y-27094704D01*
X29376149Y-27114697D01*
X29221709Y-27197247D01*
X29086341Y-27308341D01*
X29058506Y-27342259D01*
X28321000Y-28079765D01*
X28321000Y-22092745D01*
X28460664Y-22186065D01*
G37*
X28460664Y-22186065D02*
X28649022Y-22264086D01*
X28716700Y-22277548D01*
X28716701Y-25139460D01*
X28713024Y-25176792D01*
X28716701Y-25214125D01*
X28722754Y-25275576D01*
X28727698Y-25325777D01*
X28771154Y-25469038D01*
X28841726Y-25601068D01*
X28900760Y-25673000D01*
X28936700Y-25716793D01*
X28965698Y-25740591D01*
X29173104Y-25947997D01*
X29196907Y-25977001D01*
X29312632Y-26071974D01*
X29444661Y-26142546D01*
X29587922Y-26186003D01*
X29699575Y-26197000D01*
X29699583Y-26197000D01*
X29736908Y-26200676D01*
X29774233Y-26197000D01*
X31280072Y-26197000D01*
X31324009Y-26240937D01*
X31493527Y-26354205D01*
X31681885Y-26432226D01*
X31881844Y-26472000D01*
X32085722Y-26472000D01*
X32285681Y-26432226D01*
X32474039Y-26354205D01*
X32643557Y-26240937D01*
X32787720Y-26096774D01*
X32900988Y-25927256D01*
X32979009Y-25738898D01*
X33018783Y-25538939D01*
X33018783Y-25398000D01*
X54803199Y-25398000D01*
X57660000Y-28254802D01*
X57660001Y-41090160D01*
X57660000Y-41090170D01*
X57660001Y-44643197D01*
X56071009Y-46232189D01*
X56081880Y-46177539D01*
X56081880Y-45973661D01*
X56042106Y-45773702D01*
X55964085Y-45585344D01*
X55850817Y-45415826D01*
X55806880Y-45371889D01*
X55806880Y-42062833D01*
X55917474Y-41988937D01*
X56061637Y-41844774D01*
X56174905Y-41675256D01*
X56252926Y-41486898D01*
X56292700Y-41286939D01*
X56292700Y-41083061D01*
X56252926Y-40883102D01*
X56174905Y-40694744D01*
X56061637Y-40525226D01*
X55917474Y-40381063D01*
X55747956Y-40267795D01*
X55559598Y-40189774D01*
X55359639Y-40150000D01*
X55155761Y-40150000D01*
X54955802Y-40189774D01*
X54767444Y-40267795D01*
X54597926Y-40381063D01*
X54453763Y-40525226D01*
X54340495Y-40694744D01*
X54311801Y-40764016D01*
X54294601Y-40746816D01*
X54049332Y-40582933D01*
X53776805Y-40470048D01*
X53487491Y-40412500D01*
X53192509Y-40412500D01*
X52903195Y-40470048D01*
X52630668Y-40582933D01*
X52385399Y-40746816D01*
X52176816Y-40955399D01*
X52070000Y-41115261D01*
X51963184Y-40955399D01*
X51754601Y-40746816D01*
X51509332Y-40582933D01*
X51236805Y-40470048D01*
X50947491Y-40412500D01*
X50652509Y-40412500D01*
X50363195Y-40470048D01*
X50090668Y-40582933D01*
X49845399Y-40746816D01*
X49636816Y-40955399D01*
X49530000Y-41115261D01*
X49423184Y-40955399D01*
X49214601Y-40746816D01*
X48969332Y-40582933D01*
X48696805Y-40470048D01*
X48407491Y-40412500D01*
X48112509Y-40412500D01*
X47823195Y-40470048D01*
X47550668Y-40582933D01*
X47305399Y-40746816D01*
X47096816Y-40955399D01*
X46990000Y-41115261D01*
X46883184Y-40955399D01*
X46674601Y-40746816D01*
X46429332Y-40582933D01*
X46156805Y-40470048D01*
X45867491Y-40412500D01*
X45572509Y-40412500D01*
X45283195Y-40470048D01*
X45010668Y-40582933D01*
X44765399Y-40746816D01*
X44556816Y-40955399D01*
X44450000Y-41115261D01*
X44343184Y-40955399D01*
X44134601Y-40746816D01*
X43889332Y-40582933D01*
X43616805Y-40470048D01*
X43327491Y-40412500D01*
X43032509Y-40412500D01*
X42743195Y-40470048D01*
X42470668Y-40582933D01*
X42225399Y-40746816D01*
X42016816Y-40955399D01*
X41910000Y-41115261D01*
X41803184Y-40955399D01*
X41594601Y-40746816D01*
X41349332Y-40582933D01*
X41076805Y-40470048D01*
X40787491Y-40412500D01*
X40492509Y-40412500D01*
X40203195Y-40470048D01*
X39930668Y-40582933D01*
X39685399Y-40746816D01*
X39476816Y-40955399D01*
X39364160Y-41124001D01*
X39137319Y-41052286D01*
X38279605Y-41910000D01*
X39137319Y-42767714D01*
X39364160Y-42695999D01*
X39476816Y-42864601D01*
X39685399Y-43073184D01*
X39845261Y-43180000D01*
X39685399Y-43286816D01*
X39476816Y-43495399D01*
X39370000Y-43655261D01*
X39263184Y-43495399D01*
X39054601Y-43286816D01*
X38885999Y-43174160D01*
X38957714Y-42947319D01*
X38100000Y-42089605D01*
X37242286Y-42947319D01*
X37314001Y-43174160D01*
X37145399Y-43286816D01*
X36936816Y-43495399D01*
X36830000Y-43655261D01*
X36723184Y-43495399D01*
X36607683Y-43379898D01*
X36666680Y-43362002D01*
X36776994Y-43303037D01*
X36873685Y-43223685D01*
X36953037Y-43126994D01*
X37012002Y-43016680D01*
X37048312Y-42896982D01*
X37060572Y-42772500D01*
X37060572Y-42767047D01*
X37062681Y-42767714D01*
X37920395Y-41910000D01*
X37062681Y-41052286D01*
X37060572Y-41052953D01*
X37060572Y-41047500D01*
X37048312Y-40923018D01*
X37033043Y-40872681D01*
X37242286Y-40872681D01*
X38100000Y-41730395D01*
X38957714Y-40872681D01*
X38878566Y-40622330D01*
X38612394Y-40495180D01*
X38326532Y-40422403D01*
X38031963Y-40406792D01*
X37740009Y-40448949D01*
X37461889Y-40547253D01*
X37321434Y-40622330D01*
X37242286Y-40872681D01*
X37033043Y-40872681D01*
X37012002Y-40803320D01*
X36953037Y-40693006D01*
X36873685Y-40596315D01*
X36776994Y-40516963D01*
X36666680Y-40457998D01*
X36546982Y-40421688D01*
X36422500Y-40409428D01*
X35824664Y-40409428D01*
X29869500Y-34454265D01*
X29869495Y-34454259D01*
X29337000Y-33921764D01*
X29337000Y-29578235D01*
X30086236Y-28829000D01*
X31742445Y-28829000D01*
X31986930Y-29073485D01*
X31996834Y-29123278D01*
X32074855Y-29311636D01*
X32188123Y-29481154D01*
X32332286Y-29625317D01*
X32501804Y-29738585D01*
X32690162Y-29816606D01*
X32890121Y-29856380D01*
X33093999Y-29856380D01*
X33293958Y-29816606D01*
X33482316Y-29738585D01*
X33651834Y-29625317D01*
X33795997Y-29481154D01*
X33909265Y-29311636D01*
X33987286Y-29123278D01*
X34027060Y-28923319D01*
X34027060Y-28829000D01*
X39352285Y-28829000D01*
X39599310Y-29076025D01*
X39609214Y-29125818D01*
X39687235Y-29314176D01*
X39800503Y-29483694D01*
X39944666Y-29627857D01*
X40114184Y-29741125D01*
X40302542Y-29819146D01*
X40502501Y-29858920D01*
X40706379Y-29858920D01*
X40906338Y-29819146D01*
X41094696Y-29741125D01*
X41264214Y-29627857D01*
X41408377Y-29483694D01*
X41521645Y-29314176D01*
X41599666Y-29125818D01*
X41639440Y-28925859D01*
X41639440Y-28829000D01*
X44589765Y-28829000D01*
X44968870Y-29208105D01*
X44978774Y-29257898D01*
X45056795Y-29446256D01*
X45170063Y-29615774D01*
X45314226Y-29759937D01*
X45483744Y-29873205D01*
X45672102Y-29951226D01*
X45872061Y-29991000D01*
X46075939Y-29991000D01*
X46275898Y-29951226D01*
X46464256Y-29873205D01*
X46633774Y-29759937D01*
X46777937Y-29615774D01*
X46891205Y-29446256D01*
X46969226Y-29257898D01*
X47009000Y-29057939D01*
X47009000Y-28854061D01*
X47004015Y-28829000D01*
X51955765Y-28829000D01*
X52334870Y-29208105D01*
X52344774Y-29257898D01*
X52422795Y-29446256D01*
X52536063Y-29615774D01*
X52680226Y-29759937D01*
X52849744Y-29873205D01*
X53038102Y-29951226D01*
X53238061Y-29991000D01*
X53441939Y-29991000D01*
X53641898Y-29951226D01*
X53830256Y-29873205D01*
X53999774Y-29759937D01*
X54143937Y-29615774D01*
X54257205Y-29446256D01*
X54335226Y-29257898D01*
X54375000Y-29057939D01*
X54375000Y-28854061D01*
X54335226Y-28654102D01*
X54257205Y-28465744D01*
X54143937Y-28296226D01*
X53999774Y-28152063D01*
X53830256Y-28038795D01*
X53641898Y-27960774D01*
X53592105Y-27950870D01*
X52983499Y-27342264D01*
X52955659Y-27308341D01*
X52820291Y-27197247D01*
X52665851Y-27114697D01*
X52498274Y-27063864D01*
X52367667Y-27051000D01*
X52367660Y-27051000D01*
X52324000Y-27046700D01*
X52280340Y-27051000D01*
X45001660Y-27051000D01*
X44958000Y-27046700D01*
X44914340Y-27051000D01*
X39921667Y-27051000D01*
X39878000Y-27046699D01*
X39834333Y-27051000D01*
X39387743Y-27051000D01*
X39393653Y-27021286D01*
X39393653Y-26817408D01*
X39353879Y-26617449D01*
X39275858Y-26429091D01*
X39162590Y-26259573D01*
X39018427Y-26115410D01*
X38848909Y-26002142D01*
X38660551Y-25924121D01*
X38460592Y-25884347D01*
X38256714Y-25884347D01*
X38056755Y-25924121D01*
X37868397Y-26002142D01*
X37698879Y-26115410D01*
X37650289Y-26164000D01*
X36771711Y-26164000D01*
X36727774Y-26120063D01*
X36558256Y-26006795D01*
X36369898Y-25928774D01*
X36169939Y-25889000D01*
X35966061Y-25889000D01*
X35766102Y-25928774D01*
X35577744Y-26006795D01*
X35408226Y-26120063D01*
X35264063Y-26264226D01*
X35150795Y-26433744D01*
X35072774Y-26622102D01*
X35033000Y-26822061D01*
X35033000Y-27025939D01*
X35037985Y-27051000D01*
X32154340Y-27051000D01*
X32110680Y-27046700D01*
X32067020Y-27051000D01*
X29761659Y-27051000D01*
X29717999Y-27046700D01*
X29674339Y-27051000D01*
X29674333Y-27051000D01*
X29576924Y-27060594D01*
X29543724Y-27063864D01*
X29442058Y-27094704D01*
X29376149Y-27114697D01*
X29221709Y-27197247D01*
X29086341Y-27308341D01*
X29058506Y-27342259D01*
X28321000Y-28079765D01*
X28321000Y-22092745D01*
X28460664Y-22186065D01*
G36*
X43094998Y-1296201D02*
G01*
X43066000Y-1319999D01*
X43042202Y-1348997D01*
X43042201Y-1348998D01*
X42971026Y-1435724D01*
X42900454Y-1567754D01*
X42870180Y-1667558D01*
X42861852Y-1695014D01*
X42856998Y-1711015D01*
X42842324Y-1860000D01*
X42846001Y-1897332D01*
X42846000Y-4482033D01*
X42715903Y-4521498D01*
X42562436Y-4603528D01*
X42427921Y-4713921D01*
X42317528Y-4848436D01*
X42235498Y-5001903D01*
X42184984Y-5168424D01*
X42167928Y-5341600D01*
X42167928Y-7842400D01*
X42184984Y-8015576D01*
X42235498Y-8182097D01*
X42317528Y-8335564D01*
X42427921Y-8470079D01*
X42562436Y-8580472D01*
X42715903Y-8662502D01*
X42882424Y-8713016D01*
X43055600Y-8730072D01*
X44156400Y-8730072D01*
X44329576Y-8713016D01*
X44496097Y-8662502D01*
X44649564Y-8580472D01*
X44784079Y-8470079D01*
X44894472Y-8335564D01*
X44976502Y-8182097D01*
X45027016Y-8015576D01*
X45044072Y-7842400D01*
X45044072Y-7367649D01*
X45128038Y-7469962D01*
X45246001Y-7566771D01*
X45246001Y-9646668D01*
X45242324Y-9684000D01*
X45256998Y-9832985D01*
X45300454Y-9976246D01*
X45371026Y-10108276D01*
X45428038Y-10177744D01*
X45466000Y-10224001D01*
X45494998Y-10247799D01*
X45955000Y-10707801D01*
X45955000Y-10769939D01*
X45994774Y-10969898D01*
X46072795Y-11158256D01*
X46186063Y-11327774D01*
X46330226Y-11471937D01*
X46499744Y-11585205D01*
X46688102Y-11663226D01*
X46888061Y-11703000D01*
X47091939Y-11703000D01*
X47117001Y-11698015D01*
X47117001Y-13418330D01*
X47112700Y-13462000D01*
X47125208Y-13589000D01*
X42461667Y-13589000D01*
X42418000Y-13584699D01*
X42374333Y-13589000D01*
X36619660Y-13589000D01*
X36576000Y-13584700D01*
X36532340Y-13589000D01*
X32301659Y-13589000D01*
X32257999Y-13584700D01*
X32214339Y-13589000D01*
X32214333Y-13589000D01*
X32116924Y-13598594D01*
X32083724Y-13601864D01*
X31982058Y-13632704D01*
X31916149Y-13652697D01*
X31761709Y-13735247D01*
X31626341Y-13846341D01*
X31598501Y-13880264D01*
X29247264Y-16231501D01*
X29213341Y-16259341D01*
X29185501Y-16293264D01*
X26834259Y-18644506D01*
X26800342Y-18672341D01*
X26772507Y-18706258D01*
X26772505Y-18706260D01*
X26689248Y-18807709D01*
X26606698Y-18962148D01*
X26555864Y-19129726D01*
X26538700Y-19304000D01*
X26543001Y-19347670D01*
X26543001Y-20958860D01*
X26390261Y-20958860D01*
X26190302Y-20998634D01*
X26001944Y-21076655D01*
X25832426Y-21189923D01*
X25688263Y-21334086D01*
X25574995Y-21503604D01*
X25496974Y-21691962D01*
X25457200Y-21891921D01*
X25457200Y-21954058D01*
X24800098Y-22611161D01*
X24771100Y-22634959D01*
X24747302Y-22663957D01*
X24747301Y-22663958D01*
X24676126Y-22750684D01*
X24605554Y-22882714D01*
X24562098Y-23025975D01*
X24547424Y-23174960D01*
X24551101Y-23212292D01*
X24551100Y-23980009D01*
X24507163Y-24023946D01*
X24393895Y-24193464D01*
X24315874Y-24381822D01*
X24276100Y-24581781D01*
X24276100Y-24785659D01*
X24315874Y-24985618D01*
X24393895Y-25173976D01*
X24507163Y-25343494D01*
X24651326Y-25487657D01*
X24820844Y-25600925D01*
X25009202Y-25678946D01*
X25209161Y-25718720D01*
X25413039Y-25718720D01*
X25612998Y-25678946D01*
X25801356Y-25600925D01*
X25970874Y-25487657D01*
X26115037Y-25343494D01*
X26228305Y-25173976D01*
X26306326Y-24985618D01*
X26346100Y-24785659D01*
X26346100Y-24581781D01*
X26306326Y-24381822D01*
X26228305Y-24193464D01*
X26115037Y-24023946D01*
X26071100Y-23980009D01*
X26071100Y-23489761D01*
X26532002Y-23028860D01*
X26543001Y-23028860D01*
X26543000Y-31127765D01*
X23265499Y-27850264D01*
X23237659Y-27816341D01*
X23102291Y-27705247D01*
X22947851Y-27622697D01*
X22780274Y-27571864D01*
X22649667Y-27559000D01*
X22649660Y-27559000D01*
X22606000Y-27554700D01*
X22562340Y-27559000D01*
X19582468Y-27559000D01*
X19540256Y-27530795D01*
X19351898Y-27452774D01*
X19151939Y-27413000D01*
X18948061Y-27413000D01*
X18748102Y-27452774D01*
X18559744Y-27530795D01*
X18390226Y-27644063D01*
X18246063Y-27788226D01*
X18132795Y-27957744D01*
X18054774Y-28146102D01*
X18015000Y-28346061D01*
X18015000Y-28549939D01*
X18054774Y-28749898D01*
X18132795Y-28938256D01*
X18246063Y-29107774D01*
X18390226Y-29251937D01*
X18517532Y-29337000D01*
X9004235Y-29337000D01*
X1812999Y-22145764D01*
X1812999Y-21455041D01*
X14288820Y-21455041D01*
X14288820Y-21658919D01*
X14328594Y-21858878D01*
X14406615Y-22047236D01*
X14519883Y-22216754D01*
X14664046Y-22360917D01*
X14833564Y-22474185D01*
X15021922Y-22552206D01*
X15221881Y-22591980D01*
X15284019Y-22591980D01*
X16524777Y-23832739D01*
X16524782Y-23832743D01*
X17243597Y-24551559D01*
X17243600Y-24551561D01*
X17988361Y-25296323D01*
X18012159Y-25325321D01*
X18127884Y-25420294D01*
X18259913Y-25490866D01*
X18403174Y-25534323D01*
X18514827Y-25545320D01*
X18514836Y-25545320D01*
X18552159Y-25548996D01*
X18589482Y-25545320D01*
X19461349Y-25545320D01*
X19505286Y-25589257D01*
X19674804Y-25702525D01*
X19863162Y-25780546D01*
X20063121Y-25820320D01*
X20266999Y-25820320D01*
X20466958Y-25780546D01*
X20655316Y-25702525D01*
X20824834Y-25589257D01*
X20968997Y-25445094D01*
X21082265Y-25275576D01*
X21160286Y-25087218D01*
X21200060Y-24887259D01*
X21200060Y-24683381D01*
X21160286Y-24483422D01*
X21138954Y-24431921D01*
X22096780Y-24431921D01*
X22096780Y-24635799D01*
X22136554Y-24835758D01*
X22214575Y-25024116D01*
X22327843Y-25193634D01*
X22472006Y-25337797D01*
X22641524Y-25451065D01*
X22829882Y-25529086D01*
X23029841Y-25568860D01*
X23233719Y-25568860D01*
X23433678Y-25529086D01*
X23622036Y-25451065D01*
X23791554Y-25337797D01*
X23935717Y-25193634D01*
X24048985Y-25024116D01*
X24127006Y-24835758D01*
X24166780Y-24635799D01*
X24166780Y-24431921D01*
X24127006Y-24231962D01*
X24048985Y-24043604D01*
X23935717Y-23874086D01*
X23791554Y-23729923D01*
X23622036Y-23616655D01*
X23433678Y-23538634D01*
X23233719Y-23498860D01*
X23029841Y-23498860D01*
X22829882Y-23538634D01*
X22641524Y-23616655D01*
X22472006Y-23729923D01*
X22327843Y-23874086D01*
X22214575Y-24043604D01*
X22136554Y-24231962D01*
X22096780Y-24431921D01*
X21138954Y-24431921D01*
X21082265Y-24295064D01*
X20968997Y-24125546D01*
X20824834Y-23981383D01*
X20655316Y-23868115D01*
X20466958Y-23790094D01*
X20266999Y-23750320D01*
X20063121Y-23750320D01*
X19863162Y-23790094D01*
X19674804Y-23868115D01*
X19505286Y-23981383D01*
X19461349Y-24025320D01*
X18866962Y-24025320D01*
X18318401Y-23476760D01*
X18318399Y-23476757D01*
X17599583Y-22757942D01*
X17599579Y-22757937D01*
X16358820Y-21517179D01*
X16358820Y-21455041D01*
X16319046Y-21255082D01*
X16241025Y-21066724D01*
X16127757Y-20897206D01*
X15983594Y-20753043D01*
X15814076Y-20639775D01*
X15625718Y-20561754D01*
X15425759Y-20521980D01*
X15221881Y-20521980D01*
X15021922Y-20561754D01*
X14833564Y-20639775D01*
X14664046Y-20753043D01*
X14519883Y-20897206D01*
X14406615Y-21066724D01*
X14328594Y-21255082D01*
X14288820Y-21455041D01*
X1812999Y-21455041D01*
X1812999Y-13481000D01*
X1879939Y-13481000D01*
X2079898Y-13441226D01*
X2268256Y-13363205D01*
X2437774Y-13249937D01*
X2581937Y-13105774D01*
X2695205Y-12936256D01*
X2773226Y-12747898D01*
X2813000Y-12547939D01*
X2813000Y-12485801D01*
X2886278Y-12412523D01*
X2892795Y-12428256D01*
X3006063Y-12597774D01*
X3150226Y-12741937D01*
X3319744Y-12855205D01*
X3508102Y-12933226D01*
X3708061Y-12973000D01*
X3911939Y-12973000D01*
X4111898Y-12933226D01*
X4300256Y-12855205D01*
X4469774Y-12741937D01*
X4613937Y-12597774D01*
X4727205Y-12428256D01*
X4805226Y-12239898D01*
X4845000Y-12039939D01*
X4845000Y-11977801D01*
X5779621Y-11043180D01*
X5800063Y-11073774D01*
X5944226Y-11217937D01*
X6113744Y-11331205D01*
X6302102Y-11409226D01*
X6502061Y-11449000D01*
X6705939Y-11449000D01*
X6905898Y-11409226D01*
X7094256Y-11331205D01*
X7263774Y-11217937D01*
X7407937Y-11073774D01*
X7521205Y-10904256D01*
X7599226Y-10715898D01*
X7639000Y-10515939D01*
X7639000Y-10453801D01*
X10386731Y-7706072D01*
X10866000Y-7706072D01*
X10990482Y-7693812D01*
X11110180Y-7657502D01*
X11220494Y-7598537D01*
X11317185Y-7519185D01*
X11327928Y-7506095D01*
X11327928Y-8068000D01*
X11340188Y-8192482D01*
X11376498Y-8312180D01*
X11435463Y-8422494D01*
X11514815Y-8519185D01*
X11611506Y-8598537D01*
X11721820Y-8657502D01*
X11841518Y-8693812D01*
X11966000Y-8706072D01*
X13566000Y-8706072D01*
X13690482Y-8693812D01*
X13810180Y-8657502D01*
X13920494Y-8598537D01*
X14017185Y-8519185D01*
X14096537Y-8422494D01*
X14155502Y-8312180D01*
X14191812Y-8192482D01*
X14204072Y-8068000D01*
X14204072Y-5068000D01*
X14191812Y-4943518D01*
X14155502Y-4823820D01*
X14096537Y-4713506D01*
X14017185Y-4616815D01*
X13954585Y-4565440D01*
X16134980Y-4565440D01*
X16134980Y-4857960D01*
X16192048Y-5144858D01*
X16303990Y-5415111D01*
X16466505Y-5658332D01*
X16673348Y-5865175D01*
X16916569Y-6027690D01*
X17186822Y-6139632D01*
X17473720Y-6196700D01*
X17766240Y-6196700D01*
X18053138Y-6139632D01*
X18323391Y-6027690D01*
X18566612Y-5865175D01*
X18773455Y-5658332D01*
X18889980Y-5483940D01*
X19006505Y-5658332D01*
X19213348Y-5865175D01*
X19456569Y-6027690D01*
X19726822Y-6139632D01*
X20013720Y-6196700D01*
X20306240Y-6196700D01*
X20593138Y-6139632D01*
X20863391Y-6027690D01*
X21106612Y-5865175D01*
X21313455Y-5658332D01*
X21429980Y-5483940D01*
X21546505Y-5658332D01*
X21753348Y-5865175D01*
X21996569Y-6027690D01*
X22266822Y-6139632D01*
X22553720Y-6196700D01*
X22846240Y-6196700D01*
X23133138Y-6139632D01*
X23403391Y-6027690D01*
X23646612Y-5865175D01*
X23853455Y-5658332D01*
X23969980Y-5483940D01*
X24086505Y-5658332D01*
X24293348Y-5865175D01*
X24536569Y-6027690D01*
X24806822Y-6139632D01*
X25093720Y-6196700D01*
X25386240Y-6196700D01*
X25673138Y-6139632D01*
X25943391Y-6027690D01*
X26186612Y-5865175D01*
X26393455Y-5658332D01*
X26509980Y-5483940D01*
X26626505Y-5658332D01*
X26833348Y-5865175D01*
X27076569Y-6027690D01*
X27346822Y-6139632D01*
X27633720Y-6196700D01*
X27926240Y-6196700D01*
X28213138Y-6139632D01*
X28483391Y-6027690D01*
X28726612Y-5865175D01*
X28933455Y-5658332D01*
X29049980Y-5483940D01*
X29166505Y-5658332D01*
X29373348Y-5865175D01*
X29616569Y-6027690D01*
X29886822Y-6139632D01*
X30173720Y-6196700D01*
X30466240Y-6196700D01*
X30753138Y-6139632D01*
X31023391Y-6027690D01*
X31266612Y-5865175D01*
X31473455Y-5658332D01*
X31589980Y-5483940D01*
X31706505Y-5658332D01*
X31913348Y-5865175D01*
X32156569Y-6027690D01*
X32426822Y-6139632D01*
X32713720Y-6196700D01*
X33006240Y-6196700D01*
X33293138Y-6139632D01*
X33563391Y-6027690D01*
X33806612Y-5865175D01*
X34013455Y-5658332D01*
X34129980Y-5483940D01*
X34246505Y-5658332D01*
X34453348Y-5865175D01*
X34696569Y-6027690D01*
X34966822Y-6139632D01*
X35253720Y-6196700D01*
X35546240Y-6196700D01*
X35833138Y-6139632D01*
X36103391Y-6027690D01*
X36346612Y-5865175D01*
X36478467Y-5733320D01*
X36500478Y-5805880D01*
X36559443Y-5916194D01*
X36638795Y-6012885D01*
X36735486Y-6092237D01*
X36845800Y-6151202D01*
X36965498Y-6187512D01*
X37089980Y-6199772D01*
X37654230Y-6196700D01*
X37812980Y-6037950D01*
X37812980Y-4838700D01*
X38066980Y-4838700D01*
X38066980Y-6037950D01*
X38225730Y-6196700D01*
X38789980Y-6199772D01*
X38914462Y-6187512D01*
X39034160Y-6151202D01*
X39144474Y-6092237D01*
X39241165Y-6012885D01*
X39320517Y-5916194D01*
X39379482Y-5805880D01*
X39415792Y-5686182D01*
X39428052Y-5561700D01*
X39424980Y-4997450D01*
X39266230Y-4838700D01*
X38066980Y-4838700D01*
X37812980Y-4838700D01*
X37792980Y-4838700D01*
X37792980Y-4584700D01*
X37812980Y-4584700D01*
X37812980Y-3385450D01*
X38066980Y-3385450D01*
X38066980Y-4584700D01*
X39266230Y-4584700D01*
X39424980Y-4425950D01*
X39428052Y-3861700D01*
X39415792Y-3737218D01*
X39379482Y-3617520D01*
X39320517Y-3507206D01*
X39241165Y-3410515D01*
X39144474Y-3331163D01*
X39034160Y-3272198D01*
X38914462Y-3235888D01*
X38789980Y-3223628D01*
X38225730Y-3226700D01*
X38066980Y-3385450D01*
X37812980Y-3385450D01*
X37654230Y-3226700D01*
X37089980Y-3223628D01*
X36965498Y-3235888D01*
X36845800Y-3272198D01*
X36735486Y-3331163D01*
X36638795Y-3410515D01*
X36559443Y-3507206D01*
X36500478Y-3617520D01*
X36478467Y-3690080D01*
X36346612Y-3558225D01*
X36103391Y-3395710D01*
X35833138Y-3283768D01*
X35546240Y-3226700D01*
X35253720Y-3226700D01*
X34966822Y-3283768D01*
X34696569Y-3395710D01*
X34453348Y-3558225D01*
X34246505Y-3765068D01*
X34129980Y-3939460D01*
X34013455Y-3765068D01*
X33806612Y-3558225D01*
X33563391Y-3395710D01*
X33293138Y-3283768D01*
X33006240Y-3226700D01*
X32713720Y-3226700D01*
X32426822Y-3283768D01*
X32156569Y-3395710D01*
X31913348Y-3558225D01*
X31706505Y-3765068D01*
X31589980Y-3939460D01*
X31473455Y-3765068D01*
X31266612Y-3558225D01*
X31023391Y-3395710D01*
X30753138Y-3283768D01*
X30466240Y-3226700D01*
X30173720Y-3226700D01*
X29886822Y-3283768D01*
X29616569Y-3395710D01*
X29373348Y-3558225D01*
X29166505Y-3765068D01*
X29049980Y-3939460D01*
X28933455Y-3765068D01*
X28726612Y-3558225D01*
X28483391Y-3395710D01*
X28213138Y-3283768D01*
X27926240Y-3226700D01*
X27633720Y-3226700D01*
X27346822Y-3283768D01*
X27076569Y-3395710D01*
X26833348Y-3558225D01*
X26626505Y-3765068D01*
X26509980Y-3939460D01*
X26393455Y-3765068D01*
X26186612Y-3558225D01*
X25943391Y-3395710D01*
X25673138Y-3283768D01*
X25386240Y-3226700D01*
X25093720Y-3226700D01*
X24806822Y-3283768D01*
X24536569Y-3395710D01*
X24293348Y-3558225D01*
X24086505Y-3765068D01*
X23969980Y-3939460D01*
X23853455Y-3765068D01*
X23646612Y-3558225D01*
X23403391Y-3395710D01*
X23133138Y-3283768D01*
X22846240Y-3226700D01*
X22553720Y-3226700D01*
X22266822Y-3283768D01*
X21996569Y-3395710D01*
X21753348Y-3558225D01*
X21546505Y-3765068D01*
X21429980Y-3939460D01*
X21313455Y-3765068D01*
X21106612Y-3558225D01*
X20863391Y-3395710D01*
X20593138Y-3283768D01*
X20306240Y-3226700D01*
X20013720Y-3226700D01*
X19726822Y-3283768D01*
X19456569Y-3395710D01*
X19213348Y-3558225D01*
X19006505Y-3765068D01*
X18889980Y-3939460D01*
X18773455Y-3765068D01*
X18566612Y-3558225D01*
X18323391Y-3395710D01*
X18053138Y-3283768D01*
X17766240Y-3226700D01*
X17473720Y-3226700D01*
X17186822Y-3283768D01*
X16916569Y-3395710D01*
X16673348Y-3558225D01*
X16466505Y-3765068D01*
X16303990Y-4008289D01*
X16192048Y-4278542D01*
X16134980Y-4565440D01*
X13954585Y-4565440D01*
X13920494Y-4537463D01*
X13810180Y-4478498D01*
X13690482Y-4442188D01*
X13566000Y-4429928D01*
X13526000Y-4429928D01*
X13526000Y-1881322D01*
X13529676Y-1843999D01*
X13526000Y-1806676D01*
X13526000Y-1806667D01*
X13515003Y-1695014D01*
X13471546Y-1551753D01*
X13400974Y-1419724D01*
X13306001Y-1303999D01*
X13277004Y-1280202D01*
X12706802Y-710000D01*
X43681199Y-710000D01*
X43094998Y-1296201D01*
G37*
X43094998Y-1296201D02*
X43066000Y-1319999D01*
X43042202Y-1348997D01*
X43042201Y-1348998D01*
X42971026Y-1435724D01*
X42900454Y-1567754D01*
X42870180Y-1667558D01*
X42861852Y-1695014D01*
X42856998Y-1711015D01*
X42842324Y-1860000D01*
X42846001Y-1897332D01*
X42846000Y-4482033D01*
X42715903Y-4521498D01*
X42562436Y-4603528D01*
X42427921Y-4713921D01*
X42317528Y-4848436D01*
X42235498Y-5001903D01*
X42184984Y-5168424D01*
X42167928Y-5341600D01*
X42167928Y-7842400D01*
X42184984Y-8015576D01*
X42235498Y-8182097D01*
X42317528Y-8335564D01*
X42427921Y-8470079D01*
X42562436Y-8580472D01*
X42715903Y-8662502D01*
X42882424Y-8713016D01*
X43055600Y-8730072D01*
X44156400Y-8730072D01*
X44329576Y-8713016D01*
X44496097Y-8662502D01*
X44649564Y-8580472D01*
X44784079Y-8470079D01*
X44894472Y-8335564D01*
X44976502Y-8182097D01*
X45027016Y-8015576D01*
X45044072Y-7842400D01*
X45044072Y-7367649D01*
X45128038Y-7469962D01*
X45246001Y-7566771D01*
X45246001Y-9646668D01*
X45242324Y-9684000D01*
X45256998Y-9832985D01*
X45300454Y-9976246D01*
X45371026Y-10108276D01*
X45428038Y-10177744D01*
X45466000Y-10224001D01*
X45494998Y-10247799D01*
X45955000Y-10707801D01*
X45955000Y-10769939D01*
X45994774Y-10969898D01*
X46072795Y-11158256D01*
X46186063Y-11327774D01*
X46330226Y-11471937D01*
X46499744Y-11585205D01*
X46688102Y-11663226D01*
X46888061Y-11703000D01*
X47091939Y-11703000D01*
X47117001Y-11698015D01*
X47117001Y-13418330D01*
X47112700Y-13462000D01*
X47125208Y-13589000D01*
X42461667Y-13589000D01*
X42418000Y-13584699D01*
X42374333Y-13589000D01*
X36619660Y-13589000D01*
X36576000Y-13584700D01*
X36532340Y-13589000D01*
X32301659Y-13589000D01*
X32257999Y-13584700D01*
X32214339Y-13589000D01*
X32214333Y-13589000D01*
X32116924Y-13598594D01*
X32083724Y-13601864D01*
X31982058Y-13632704D01*
X31916149Y-13652697D01*
X31761709Y-13735247D01*
X31626341Y-13846341D01*
X31598501Y-13880264D01*
X29247264Y-16231501D01*
X29213341Y-16259341D01*
X29185501Y-16293264D01*
X26834259Y-18644506D01*
X26800342Y-18672341D01*
X26772507Y-18706258D01*
X26772505Y-18706260D01*
X26689248Y-18807709D01*
X26606698Y-18962148D01*
X26555864Y-19129726D01*
X26538700Y-19304000D01*
X26543001Y-19347670D01*
X26543001Y-20958860D01*
X26390261Y-20958860D01*
X26190302Y-20998634D01*
X26001944Y-21076655D01*
X25832426Y-21189923D01*
X25688263Y-21334086D01*
X25574995Y-21503604D01*
X25496974Y-21691962D01*
X25457200Y-21891921D01*
X25457200Y-21954058D01*
X24800098Y-22611161D01*
X24771100Y-22634959D01*
X24747302Y-22663957D01*
X24747301Y-22663958D01*
X24676126Y-22750684D01*
X24605554Y-22882714D01*
X24562098Y-23025975D01*
X24547424Y-23174960D01*
X24551101Y-23212292D01*
X24551100Y-23980009D01*
X24507163Y-24023946D01*
X24393895Y-24193464D01*
X24315874Y-24381822D01*
X24276100Y-24581781D01*
X24276100Y-24785659D01*
X24315874Y-24985618D01*
X24393895Y-25173976D01*
X24507163Y-25343494D01*
X24651326Y-25487657D01*
X24820844Y-25600925D01*
X25009202Y-25678946D01*
X25209161Y-25718720D01*
X25413039Y-25718720D01*
X25612998Y-25678946D01*
X25801356Y-25600925D01*
X25970874Y-25487657D01*
X26115037Y-25343494D01*
X26228305Y-25173976D01*
X26306326Y-24985618D01*
X26346100Y-24785659D01*
X26346100Y-24581781D01*
X26306326Y-24381822D01*
X26228305Y-24193464D01*
X26115037Y-24023946D01*
X26071100Y-23980009D01*
X26071100Y-23489761D01*
X26532002Y-23028860D01*
X26543001Y-23028860D01*
X26543000Y-31127765D01*
X23265499Y-27850264D01*
X23237659Y-27816341D01*
X23102291Y-27705247D01*
X22947851Y-27622697D01*
X22780274Y-27571864D01*
X22649667Y-27559000D01*
X22649660Y-27559000D01*
X22606000Y-27554700D01*
X22562340Y-27559000D01*
X19582468Y-27559000D01*
X19540256Y-27530795D01*
X19351898Y-27452774D01*
X19151939Y-27413000D01*
X18948061Y-27413000D01*
X18748102Y-27452774D01*
X18559744Y-27530795D01*
X18390226Y-27644063D01*
X18246063Y-27788226D01*
X18132795Y-27957744D01*
X18054774Y-28146102D01*
X18015000Y-28346061D01*
X18015000Y-28549939D01*
X18054774Y-28749898D01*
X18132795Y-28938256D01*
X18246063Y-29107774D01*
X18390226Y-29251937D01*
X18517532Y-29337000D01*
X9004235Y-29337000D01*
X1812999Y-22145764D01*
X1812999Y-21455041D01*
X14288820Y-21455041D01*
X14288820Y-21658919D01*
X14328594Y-21858878D01*
X14406615Y-22047236D01*
X14519883Y-22216754D01*
X14664046Y-22360917D01*
X14833564Y-22474185D01*
X15021922Y-22552206D01*
X15221881Y-22591980D01*
X15284019Y-22591980D01*
X16524777Y-23832739D01*
X16524782Y-23832743D01*
X17243597Y-24551559D01*
X17243600Y-24551561D01*
X17988361Y-25296323D01*
X18012159Y-25325321D01*
X18127884Y-25420294D01*
X18259913Y-25490866D01*
X18403174Y-25534323D01*
X18514827Y-25545320D01*
X18514836Y-25545320D01*
X18552159Y-25548996D01*
X18589482Y-25545320D01*
X19461349Y-25545320D01*
X19505286Y-25589257D01*
X19674804Y-25702525D01*
X19863162Y-25780546D01*
X20063121Y-25820320D01*
X20266999Y-25820320D01*
X20466958Y-25780546D01*
X20655316Y-25702525D01*
X20824834Y-25589257D01*
X20968997Y-25445094D01*
X21082265Y-25275576D01*
X21160286Y-25087218D01*
X21200060Y-24887259D01*
X21200060Y-24683381D01*
X21160286Y-24483422D01*
X21138954Y-24431921D01*
X22096780Y-24431921D01*
X22096780Y-24635799D01*
X22136554Y-24835758D01*
X22214575Y-25024116D01*
X22327843Y-25193634D01*
X22472006Y-25337797D01*
X22641524Y-25451065D01*
X22829882Y-25529086D01*
X23029841Y-25568860D01*
X23233719Y-25568860D01*
X23433678Y-25529086D01*
X23622036Y-25451065D01*
X23791554Y-25337797D01*
X23935717Y-25193634D01*
X24048985Y-25024116D01*
X24127006Y-24835758D01*
X24166780Y-24635799D01*
X24166780Y-24431921D01*
X24127006Y-24231962D01*
X24048985Y-24043604D01*
X23935717Y-23874086D01*
X23791554Y-23729923D01*
X23622036Y-23616655D01*
X23433678Y-23538634D01*
X23233719Y-23498860D01*
X23029841Y-23498860D01*
X22829882Y-23538634D01*
X22641524Y-23616655D01*
X22472006Y-23729923D01*
X22327843Y-23874086D01*
X22214575Y-24043604D01*
X22136554Y-24231962D01*
X22096780Y-24431921D01*
X21138954Y-24431921D01*
X21082265Y-24295064D01*
X20968997Y-24125546D01*
X20824834Y-23981383D01*
X20655316Y-23868115D01*
X20466958Y-23790094D01*
X20266999Y-23750320D01*
X20063121Y-23750320D01*
X19863162Y-23790094D01*
X19674804Y-23868115D01*
X19505286Y-23981383D01*
X19461349Y-24025320D01*
X18866962Y-24025320D01*
X18318401Y-23476760D01*
X18318399Y-23476757D01*
X17599583Y-22757942D01*
X17599579Y-22757937D01*
X16358820Y-21517179D01*
X16358820Y-21455041D01*
X16319046Y-21255082D01*
X16241025Y-21066724D01*
X16127757Y-20897206D01*
X15983594Y-20753043D01*
X15814076Y-20639775D01*
X15625718Y-20561754D01*
X15425759Y-20521980D01*
X15221881Y-20521980D01*
X15021922Y-20561754D01*
X14833564Y-20639775D01*
X14664046Y-20753043D01*
X14519883Y-20897206D01*
X14406615Y-21066724D01*
X14328594Y-21255082D01*
X14288820Y-21455041D01*
X1812999Y-21455041D01*
X1812999Y-13481000D01*
X1879939Y-13481000D01*
X2079898Y-13441226D01*
X2268256Y-13363205D01*
X2437774Y-13249937D01*
X2581937Y-13105774D01*
X2695205Y-12936256D01*
X2773226Y-12747898D01*
X2813000Y-12547939D01*
X2813000Y-12485801D01*
X2886278Y-12412523D01*
X2892795Y-12428256D01*
X3006063Y-12597774D01*
X3150226Y-12741937D01*
X3319744Y-12855205D01*
X3508102Y-12933226D01*
X3708061Y-12973000D01*
X3911939Y-12973000D01*
X4111898Y-12933226D01*
X4300256Y-12855205D01*
X4469774Y-12741937D01*
X4613937Y-12597774D01*
X4727205Y-12428256D01*
X4805226Y-12239898D01*
X4845000Y-12039939D01*
X4845000Y-11977801D01*
X5779621Y-11043180D01*
X5800063Y-11073774D01*
X5944226Y-11217937D01*
X6113744Y-11331205D01*
X6302102Y-11409226D01*
X6502061Y-11449000D01*
X6705939Y-11449000D01*
X6905898Y-11409226D01*
X7094256Y-11331205D01*
X7263774Y-11217937D01*
X7407937Y-11073774D01*
X7521205Y-10904256D01*
X7599226Y-10715898D01*
X7639000Y-10515939D01*
X7639000Y-10453801D01*
X10386731Y-7706072D01*
X10866000Y-7706072D01*
X10990482Y-7693812D01*
X11110180Y-7657502D01*
X11220494Y-7598537D01*
X11317185Y-7519185D01*
X11327928Y-7506095D01*
X11327928Y-8068000D01*
X11340188Y-8192482D01*
X11376498Y-8312180D01*
X11435463Y-8422494D01*
X11514815Y-8519185D01*
X11611506Y-8598537D01*
X11721820Y-8657502D01*
X11841518Y-8693812D01*
X11966000Y-8706072D01*
X13566000Y-8706072D01*
X13690482Y-8693812D01*
X13810180Y-8657502D01*
X13920494Y-8598537D01*
X14017185Y-8519185D01*
X14096537Y-8422494D01*
X14155502Y-8312180D01*
X14191812Y-8192482D01*
X14204072Y-8068000D01*
X14204072Y-5068000D01*
X14191812Y-4943518D01*
X14155502Y-4823820D01*
X14096537Y-4713506D01*
X14017185Y-4616815D01*
X13954585Y-4565440D01*
X16134980Y-4565440D01*
X16134980Y-4857960D01*
X16192048Y-5144858D01*
X16303990Y-5415111D01*
X16466505Y-5658332D01*
X16673348Y-5865175D01*
X16916569Y-6027690D01*
X17186822Y-6139632D01*
X17473720Y-6196700D01*
X17766240Y-6196700D01*
X18053138Y-6139632D01*
X18323391Y-6027690D01*
X18566612Y-5865175D01*
X18773455Y-5658332D01*
X18889980Y-5483940D01*
X19006505Y-5658332D01*
X19213348Y-5865175D01*
X19456569Y-6027690D01*
X19726822Y-6139632D01*
X20013720Y-6196700D01*
X20306240Y-6196700D01*
X20593138Y-6139632D01*
X20863391Y-6027690D01*
X21106612Y-5865175D01*
X21313455Y-5658332D01*
X21429980Y-5483940D01*
X21546505Y-5658332D01*
X21753348Y-5865175D01*
X21996569Y-6027690D01*
X22266822Y-6139632D01*
X22553720Y-6196700D01*
X22846240Y-6196700D01*
X23133138Y-6139632D01*
X23403391Y-6027690D01*
X23646612Y-5865175D01*
X23853455Y-5658332D01*
X23969980Y-5483940D01*
X24086505Y-5658332D01*
X24293348Y-5865175D01*
X24536569Y-6027690D01*
X24806822Y-6139632D01*
X25093720Y-6196700D01*
X25386240Y-6196700D01*
X25673138Y-6139632D01*
X25943391Y-6027690D01*
X26186612Y-5865175D01*
X26393455Y-5658332D01*
X26509980Y-5483940D01*
X26626505Y-5658332D01*
X26833348Y-5865175D01*
X27076569Y-6027690D01*
X27346822Y-6139632D01*
X27633720Y-6196700D01*
X27926240Y-6196700D01*
X28213138Y-6139632D01*
X28483391Y-6027690D01*
X28726612Y-5865175D01*
X28933455Y-5658332D01*
X29049980Y-5483940D01*
X29166505Y-5658332D01*
X29373348Y-5865175D01*
X29616569Y-6027690D01*
X29886822Y-6139632D01*
X30173720Y-6196700D01*
X30466240Y-6196700D01*
X30753138Y-6139632D01*
X31023391Y-6027690D01*
X31266612Y-5865175D01*
X31473455Y-5658332D01*
X31589980Y-5483940D01*
X31706505Y-5658332D01*
X31913348Y-5865175D01*
X32156569Y-6027690D01*
X32426822Y-6139632D01*
X32713720Y-6196700D01*
X33006240Y-6196700D01*
X33293138Y-6139632D01*
X33563391Y-6027690D01*
X33806612Y-5865175D01*
X34013455Y-5658332D01*
X34129980Y-5483940D01*
X34246505Y-5658332D01*
X34453348Y-5865175D01*
X34696569Y-6027690D01*
X34966822Y-6139632D01*
X35253720Y-6196700D01*
X35546240Y-6196700D01*
X35833138Y-6139632D01*
X36103391Y-6027690D01*
X36346612Y-5865175D01*
X36478467Y-5733320D01*
X36500478Y-5805880D01*
X36559443Y-5916194D01*
X36638795Y-6012885D01*
X36735486Y-6092237D01*
X36845800Y-6151202D01*
X36965498Y-6187512D01*
X37089980Y-6199772D01*
X37654230Y-6196700D01*
X37812980Y-6037950D01*
X37812980Y-4838700D01*
X38066980Y-4838700D01*
X38066980Y-6037950D01*
X38225730Y-6196700D01*
X38789980Y-6199772D01*
X38914462Y-6187512D01*
X39034160Y-6151202D01*
X39144474Y-6092237D01*
X39241165Y-6012885D01*
X39320517Y-5916194D01*
X39379482Y-5805880D01*
X39415792Y-5686182D01*
X39428052Y-5561700D01*
X39424980Y-4997450D01*
X39266230Y-4838700D01*
X38066980Y-4838700D01*
X37812980Y-4838700D01*
X37792980Y-4838700D01*
X37792980Y-4584700D01*
X37812980Y-4584700D01*
X37812980Y-3385450D01*
X38066980Y-3385450D01*
X38066980Y-4584700D01*
X39266230Y-4584700D01*
X39424980Y-4425950D01*
X39428052Y-3861700D01*
X39415792Y-3737218D01*
X39379482Y-3617520D01*
X39320517Y-3507206D01*
X39241165Y-3410515D01*
X39144474Y-3331163D01*
X39034160Y-3272198D01*
X38914462Y-3235888D01*
X38789980Y-3223628D01*
X38225730Y-3226700D01*
X38066980Y-3385450D01*
X37812980Y-3385450D01*
X37654230Y-3226700D01*
X37089980Y-3223628D01*
X36965498Y-3235888D01*
X36845800Y-3272198D01*
X36735486Y-3331163D01*
X36638795Y-3410515D01*
X36559443Y-3507206D01*
X36500478Y-3617520D01*
X36478467Y-3690080D01*
X36346612Y-3558225D01*
X36103391Y-3395710D01*
X35833138Y-3283768D01*
X35546240Y-3226700D01*
X35253720Y-3226700D01*
X34966822Y-3283768D01*
X34696569Y-3395710D01*
X34453348Y-3558225D01*
X34246505Y-3765068D01*
X34129980Y-3939460D01*
X34013455Y-3765068D01*
X33806612Y-3558225D01*
X33563391Y-3395710D01*
X33293138Y-3283768D01*
X33006240Y-3226700D01*
X32713720Y-3226700D01*
X32426822Y-3283768D01*
X32156569Y-3395710D01*
X31913348Y-3558225D01*
X31706505Y-3765068D01*
X31589980Y-3939460D01*
X31473455Y-3765068D01*
X31266612Y-3558225D01*
X31023391Y-3395710D01*
X30753138Y-3283768D01*
X30466240Y-3226700D01*
X30173720Y-3226700D01*
X29886822Y-3283768D01*
X29616569Y-3395710D01*
X29373348Y-3558225D01*
X29166505Y-3765068D01*
X29049980Y-3939460D01*
X28933455Y-3765068D01*
X28726612Y-3558225D01*
X28483391Y-3395710D01*
X28213138Y-3283768D01*
X27926240Y-3226700D01*
X27633720Y-3226700D01*
X27346822Y-3283768D01*
X27076569Y-3395710D01*
X26833348Y-3558225D01*
X26626505Y-3765068D01*
X26509980Y-3939460D01*
X26393455Y-3765068D01*
X26186612Y-3558225D01*
X25943391Y-3395710D01*
X25673138Y-3283768D01*
X25386240Y-3226700D01*
X25093720Y-3226700D01*
X24806822Y-3283768D01*
X24536569Y-3395710D01*
X24293348Y-3558225D01*
X24086505Y-3765068D01*
X23969980Y-3939460D01*
X23853455Y-3765068D01*
X23646612Y-3558225D01*
X23403391Y-3395710D01*
X23133138Y-3283768D01*
X22846240Y-3226700D01*
X22553720Y-3226700D01*
X22266822Y-3283768D01*
X21996569Y-3395710D01*
X21753348Y-3558225D01*
X21546505Y-3765068D01*
X21429980Y-3939460D01*
X21313455Y-3765068D01*
X21106612Y-3558225D01*
X20863391Y-3395710D01*
X20593138Y-3283768D01*
X20306240Y-3226700D01*
X20013720Y-3226700D01*
X19726822Y-3283768D01*
X19456569Y-3395710D01*
X19213348Y-3558225D01*
X19006505Y-3765068D01*
X18889980Y-3939460D01*
X18773455Y-3765068D01*
X18566612Y-3558225D01*
X18323391Y-3395710D01*
X18053138Y-3283768D01*
X17766240Y-3226700D01*
X17473720Y-3226700D01*
X17186822Y-3283768D01*
X16916569Y-3395710D01*
X16673348Y-3558225D01*
X16466505Y-3765068D01*
X16303990Y-4008289D01*
X16192048Y-4278542D01*
X16134980Y-4565440D01*
X13954585Y-4565440D01*
X13920494Y-4537463D01*
X13810180Y-4478498D01*
X13690482Y-4442188D01*
X13566000Y-4429928D01*
X13526000Y-4429928D01*
X13526000Y-1881322D01*
X13529676Y-1843999D01*
X13526000Y-1806676D01*
X13526000Y-1806667D01*
X13515003Y-1695014D01*
X13471546Y-1551753D01*
X13400974Y-1419724D01*
X13306001Y-1303999D01*
X13277004Y-1280202D01*
X12706802Y-710000D01*
X43681199Y-710000D01*
X43094998Y-1296201D01*
M02*
