G04 #@! TF.GenerationSoftware,KiCad,Pcbnew,(5.1.6-0-10_14)*
G04 #@! TF.CreationDate,2020-07-01T11:00:56-07:00*
G04 #@! TF.ProjectId,Pufferfish-Interface-1,50756666-6572-4666-9973-682d496e7465,v0.1*
G04 #@! TF.SameCoordinates,Original*
G04 #@! TF.FileFunction,Legend,Bot*
G04 #@! TF.FilePolarity,Positive*
%FSLAX46Y46*%
G04 Gerber Fmt 4.6, Leading zero omitted, Abs format (unit mm)*
G04 Created by KiCad (PCBNEW (5.1.6-0-10_14)) date 2020-07-01 11:00:56*
%MOMM*%
%LPD*%
G01*
G04 APERTURE LIST*
%ADD10C,0.200000*%
%ADD11C,0.120000*%
%ADD12C,0.100000*%
%ADD13C,0.127000*%
%ADD14C,0.150000*%
G04 APERTURE END LIST*
D10*
X72390000Y-52832000D02*
X49530000Y-52832000D01*
X49530000Y-52832000D02*
X49530000Y-43561000D01*
X49530000Y-43561000D02*
X77470000Y-43561000D01*
X77470000Y-43561000D02*
X77470000Y-49530000D01*
X74237788Y-50990500D02*
G75*
G03*
X74237788Y-50990500I-323788J0D01*
G01*
D11*
X70616578Y-18594000D02*
X70099422Y-18594000D01*
X70616578Y-20014000D02*
X70099422Y-20014000D01*
X78998578Y-18340000D02*
X78481422Y-18340000D01*
X78998578Y-19760000D02*
X78481422Y-19760000D01*
X64178922Y-40080000D02*
X64696078Y-40080000D01*
X64178922Y-38660000D02*
X64696078Y-38660000D01*
X65480000Y-24388578D02*
X65480000Y-23871422D01*
X64060000Y-24388578D02*
X64060000Y-23871422D01*
X88826078Y-50090000D02*
X88308922Y-50090000D01*
X88826078Y-51510000D02*
X88308922Y-51510000D01*
X50208922Y-56590000D02*
X50726078Y-56590000D01*
X50208922Y-55170000D02*
X50726078Y-55170000D01*
X29136078Y-42470000D02*
X28618922Y-42470000D01*
X29136078Y-43890000D02*
X28618922Y-43890000D01*
X20061422Y-19760000D02*
X20578578Y-19760000D01*
X20061422Y-18340000D02*
X20578578Y-18340000D01*
X26110000Y-40898578D02*
X26110000Y-40381422D01*
X24690000Y-40898578D02*
X24690000Y-40381422D01*
X40898578Y-39930000D02*
X40381422Y-39930000D01*
X40898578Y-41350000D02*
X40381422Y-41350000D01*
X38358578Y-18340000D02*
X37841422Y-18340000D01*
X38358578Y-19760000D02*
X37841422Y-19760000D01*
X45461422Y-42620000D02*
X45978578Y-42620000D01*
X45461422Y-41200000D02*
X45978578Y-41200000D01*
X54351422Y-40080000D02*
X54868578Y-40080000D01*
X54351422Y-38660000D02*
X54868578Y-38660000D01*
D12*
X103445000Y-54446000D02*
G75*
G03*
X103445000Y-54446000I-127000J0D01*
G01*
D13*
X110668000Y-44571000D02*
X110668000Y-56521000D01*
D11*
X21030000Y-25658578D02*
X21030000Y-25141422D01*
X19610000Y-25658578D02*
X19610000Y-25141422D01*
X35000000Y-24388578D02*
X35000000Y-23871422D01*
X33580000Y-24388578D02*
X33580000Y-23871422D01*
X50240000Y-24388578D02*
X50240000Y-23871422D01*
X48820000Y-24388578D02*
X48820000Y-23871422D01*
X37841422Y-48970000D02*
X38358578Y-48970000D01*
X37841422Y-47550000D02*
X38358578Y-47550000D01*
D10*
X31915000Y-50840000D02*
X31915000Y-51590000D01*
X29690000Y-50840000D02*
X31915000Y-50840000D01*
X23965000Y-50840000D02*
X26190000Y-50840000D01*
X23965000Y-51590000D02*
X23965000Y-50840000D01*
X23965000Y-55840000D02*
X23965000Y-55090000D01*
X31915000Y-55840000D02*
X31915000Y-55090000D01*
X23965000Y-55840000D02*
X31915000Y-55840000D01*
D12*
X26057000Y-48666000D02*
G75*
G03*
X26057000Y-48666000I-200000J0D01*
G01*
D11*
X86180000Y-19250000D02*
X86180000Y-16310000D01*
X86180000Y-16310000D02*
X91620000Y-16310000D01*
X91620000Y-16310000D02*
X91620000Y-19250000D01*
X91620000Y-19250000D02*
X86180000Y-19250000D01*
X85160000Y-17780000D02*
X86180000Y-17780000D01*
X92640000Y-17780000D02*
X91620000Y-17780000D01*
X87080000Y-19250000D02*
X87080000Y-16310000D01*
X87200000Y-19250000D02*
X87200000Y-16310000D01*
X86960000Y-19250000D02*
X86960000Y-16310000D01*
X106860000Y-16310000D02*
X106860000Y-19250000D01*
X106860000Y-19250000D02*
X101420000Y-19250000D01*
X101420000Y-19250000D02*
X101420000Y-16310000D01*
X101420000Y-16310000D02*
X106860000Y-16310000D01*
X107880000Y-17780000D02*
X106860000Y-17780000D01*
X100400000Y-17780000D02*
X101420000Y-17780000D01*
X105960000Y-16310000D02*
X105960000Y-19250000D01*
X105840000Y-16310000D02*
X105840000Y-19250000D01*
X106080000Y-16310000D02*
X106080000Y-19250000D01*
X98550000Y-45410000D02*
X98550000Y-46340000D01*
X98550000Y-48570000D02*
X98550000Y-47640000D01*
X98550000Y-48570000D02*
X96390000Y-48570000D01*
X98550000Y-45410000D02*
X97090000Y-45410000D01*
X84130000Y-43940000D02*
X83200000Y-43940000D01*
X80970000Y-43940000D02*
X81900000Y-43940000D01*
X80970000Y-43940000D02*
X80970000Y-41780000D01*
X84130000Y-43940000D02*
X84130000Y-42480000D01*
X107440000Y-39060000D02*
X107440000Y-39990000D01*
X107440000Y-42220000D02*
X107440000Y-41290000D01*
X107440000Y-42220000D02*
X105280000Y-42220000D01*
X107440000Y-39060000D02*
X105980000Y-39060000D01*
X131632478Y-24444478D02*
G75*
G02*
X127194000Y-22606000I-1838478J1838478D01*
G01*
X131632478Y-20767522D02*
G75*
G03*
X127194000Y-22606000I-1838478J-1838478D01*
G01*
X131644000Y-20806000D02*
X131644000Y-24406000D01*
X56390000Y-56698000D02*
X56390000Y-55768000D01*
X56390000Y-53538000D02*
X56390000Y-54468000D01*
X56390000Y-53538000D02*
X58550000Y-53538000D01*
X56390000Y-56698000D02*
X57850000Y-56698000D01*
X66550000Y-56698000D02*
X66550000Y-55768000D01*
X66550000Y-53538000D02*
X66550000Y-54468000D01*
X66550000Y-53538000D02*
X68710000Y-53538000D01*
X66550000Y-56698000D02*
X68010000Y-56698000D01*
X61470000Y-56698000D02*
X61470000Y-55768000D01*
X61470000Y-53538000D02*
X61470000Y-54468000D01*
X61470000Y-53538000D02*
X63630000Y-53538000D01*
X61470000Y-56698000D02*
X62930000Y-56698000D01*
X59431422Y-42620000D02*
X59948578Y-42620000D01*
X59431422Y-41200000D02*
X59948578Y-41200000D01*
X79751422Y-38810000D02*
X80268578Y-38810000D01*
X79751422Y-37390000D02*
X80268578Y-37390000D01*
X117343422Y-51764000D02*
X117860578Y-51764000D01*
X117343422Y-50344000D02*
X117860578Y-50344000D01*
X119550922Y-46938000D02*
X120068078Y-46938000D01*
X119550922Y-45518000D02*
X120068078Y-45518000D01*
X127503422Y-56336000D02*
X128020578Y-56336000D01*
X127503422Y-54916000D02*
X128020578Y-54916000D01*
X128519422Y-46938000D02*
X129036578Y-46938000D01*
X128519422Y-45518000D02*
X129036578Y-45518000D01*
X46916078Y-51360000D02*
X46398922Y-51360000D01*
X46916078Y-52780000D02*
X46398922Y-52780000D01*
X59948578Y-18340000D02*
X59431422Y-18340000D01*
X59948578Y-19760000D02*
X59431422Y-19760000D01*
X45978578Y-20880000D02*
X45461422Y-20880000D01*
X45978578Y-22300000D02*
X45461422Y-22300000D01*
X20998922Y-47700000D02*
X21516078Y-47700000D01*
X20998922Y-46280000D02*
X21516078Y-46280000D01*
X34031422Y-47700000D02*
X34548578Y-47700000D01*
X34031422Y-46280000D02*
X34548578Y-46280000D01*
D14*
X66193095Y-16640380D02*
X66193095Y-15640380D01*
X65955000Y-15640380D01*
X65812142Y-15688000D01*
X65716904Y-15783238D01*
X65669285Y-15878476D01*
X65621666Y-16068952D01*
X65621666Y-16211809D01*
X65669285Y-16402285D01*
X65716904Y-16497523D01*
X65812142Y-16592761D01*
X65955000Y-16640380D01*
X66193095Y-16640380D01*
X65288333Y-15640380D02*
X64621666Y-15640380D01*
X65050238Y-16640380D01*
X21158095Y-41922380D02*
X21158095Y-40922380D01*
X20920000Y-40922380D01*
X20777142Y-40970000D01*
X20681904Y-41065238D01*
X20634285Y-41160476D01*
X20586666Y-41350952D01*
X20586666Y-41493809D01*
X20634285Y-41684285D01*
X20681904Y-41779523D01*
X20777142Y-41874761D01*
X20920000Y-41922380D01*
X21158095Y-41922380D01*
X19729523Y-40922380D02*
X19920000Y-40922380D01*
X20015238Y-40970000D01*
X20062857Y-41017619D01*
X20158095Y-41160476D01*
X20205714Y-41350952D01*
X20205714Y-41731904D01*
X20158095Y-41827142D01*
X20110476Y-41874761D01*
X20015238Y-41922380D01*
X19824761Y-41922380D01*
X19729523Y-41874761D01*
X19681904Y-41827142D01*
X19634285Y-41731904D01*
X19634285Y-41493809D01*
X19681904Y-41398571D01*
X19729523Y-41350952D01*
X19824761Y-41303333D01*
X20015238Y-41303333D01*
X20110476Y-41350952D01*
X20158095Y-41398571D01*
X20205714Y-41493809D01*
X39520095Y-55892380D02*
X39520095Y-54892380D01*
X39282000Y-54892380D01*
X39139142Y-54940000D01*
X39043904Y-55035238D01*
X38996285Y-55130476D01*
X38948666Y-55320952D01*
X38948666Y-55463809D01*
X38996285Y-55654285D01*
X39043904Y-55749523D01*
X39139142Y-55844761D01*
X39282000Y-55892380D01*
X39520095Y-55892380D01*
X38043904Y-54892380D02*
X38520095Y-54892380D01*
X38567714Y-55368571D01*
X38520095Y-55320952D01*
X38424857Y-55273333D01*
X38186761Y-55273333D01*
X38091523Y-55320952D01*
X38043904Y-55368571D01*
X37996285Y-55463809D01*
X37996285Y-55701904D01*
X38043904Y-55797142D01*
X38091523Y-55844761D01*
X38186761Y-55892380D01*
X38424857Y-55892380D01*
X38520095Y-55844761D01*
X38567714Y-55797142D01*
X34800095Y-41922380D02*
X34800095Y-40922380D01*
X34562000Y-40922380D01*
X34419142Y-40970000D01*
X34323904Y-41065238D01*
X34276285Y-41160476D01*
X34228666Y-41350952D01*
X34228666Y-41493809D01*
X34276285Y-41684285D01*
X34323904Y-41779523D01*
X34419142Y-41874761D01*
X34562000Y-41922380D01*
X34800095Y-41922380D01*
X33371523Y-41255714D02*
X33371523Y-41922380D01*
X33609619Y-40874761D02*
X33847714Y-41589047D01*
X33228666Y-41589047D01*
X50368095Y-39382380D02*
X50368095Y-38382380D01*
X50130000Y-38382380D01*
X49987142Y-38430000D01*
X49891904Y-38525238D01*
X49844285Y-38620476D01*
X49796666Y-38810952D01*
X49796666Y-38953809D01*
X49844285Y-39144285D01*
X49891904Y-39239523D01*
X49987142Y-39334761D01*
X50130000Y-39382380D01*
X50368095Y-39382380D01*
X49463333Y-38382380D02*
X48844285Y-38382380D01*
X49177619Y-38763333D01*
X49034761Y-38763333D01*
X48939523Y-38810952D01*
X48891904Y-38858571D01*
X48844285Y-38953809D01*
X48844285Y-39191904D01*
X48891904Y-39287142D01*
X48939523Y-39334761D01*
X49034761Y-39382380D01*
X49320476Y-39382380D01*
X49415714Y-39334761D01*
X49463333Y-39287142D01*
X75906095Y-42775142D02*
X75953714Y-42822761D01*
X76096571Y-42870380D01*
X76191809Y-42870380D01*
X76334666Y-42822761D01*
X76429904Y-42727523D01*
X76477523Y-42632285D01*
X76525142Y-42441809D01*
X76525142Y-42298952D01*
X76477523Y-42108476D01*
X76429904Y-42013238D01*
X76334666Y-41918000D01*
X76191809Y-41870380D01*
X76096571Y-41870380D01*
X75953714Y-41918000D01*
X75906095Y-41965619D01*
X75287047Y-41870380D02*
X75096571Y-41870380D01*
X75001333Y-41918000D01*
X74906095Y-42013238D01*
X74858476Y-42203714D01*
X74858476Y-42537047D01*
X74906095Y-42727523D01*
X75001333Y-42822761D01*
X75096571Y-42870380D01*
X75287047Y-42870380D01*
X75382285Y-42822761D01*
X75477523Y-42727523D01*
X75525142Y-42537047D01*
X75525142Y-42203714D01*
X75477523Y-42013238D01*
X75382285Y-41918000D01*
X75287047Y-41870380D01*
X74429904Y-42870380D02*
X74429904Y-41870380D01*
X73858476Y-42870380D01*
X73858476Y-41870380D01*
X73382285Y-42870380D02*
X73382285Y-41870380D01*
X72810857Y-42870380D01*
X72810857Y-41870380D01*
X72382285Y-41965619D02*
X72334666Y-41918000D01*
X72239428Y-41870380D01*
X72001333Y-41870380D01*
X71906095Y-41918000D01*
X71858476Y-41965619D01*
X71810857Y-42060857D01*
X71810857Y-42156095D01*
X71858476Y-42298952D01*
X72429904Y-42870380D01*
X71810857Y-42870380D01*
X74556857Y-19756380D02*
X74890190Y-19280190D01*
X75128285Y-19756380D02*
X75128285Y-18756380D01*
X74747333Y-18756380D01*
X74652095Y-18804000D01*
X74604476Y-18851619D01*
X74556857Y-18946857D01*
X74556857Y-19089714D01*
X74604476Y-19184952D01*
X74652095Y-19232571D01*
X74747333Y-19280190D01*
X75128285Y-19280190D01*
X74175904Y-18851619D02*
X74128285Y-18804000D01*
X74033047Y-18756380D01*
X73794952Y-18756380D01*
X73699714Y-18804000D01*
X73652095Y-18851619D01*
X73604476Y-18946857D01*
X73604476Y-19042095D01*
X73652095Y-19184952D01*
X74223523Y-19756380D01*
X73604476Y-19756380D01*
X73271142Y-18756380D02*
X72652095Y-18756380D01*
X72985428Y-19137333D01*
X72842571Y-19137333D01*
X72747333Y-19184952D01*
X72699714Y-19232571D01*
X72652095Y-19327809D01*
X72652095Y-19565904D01*
X72699714Y-19661142D01*
X72747333Y-19708761D01*
X72842571Y-19756380D01*
X73128285Y-19756380D01*
X73223523Y-19708761D01*
X73271142Y-19661142D01*
X82430857Y-21534380D02*
X82764190Y-21058190D01*
X83002285Y-21534380D02*
X83002285Y-20534380D01*
X82621333Y-20534380D01*
X82526095Y-20582000D01*
X82478476Y-20629619D01*
X82430857Y-20724857D01*
X82430857Y-20867714D01*
X82478476Y-20962952D01*
X82526095Y-21010571D01*
X82621333Y-21058190D01*
X83002285Y-21058190D01*
X82049904Y-20629619D02*
X82002285Y-20582000D01*
X81907047Y-20534380D01*
X81668952Y-20534380D01*
X81573714Y-20582000D01*
X81526095Y-20629619D01*
X81478476Y-20724857D01*
X81478476Y-20820095D01*
X81526095Y-20962952D01*
X82097523Y-21534380D01*
X81478476Y-21534380D01*
X80526095Y-21534380D02*
X81097523Y-21534380D01*
X80811809Y-21534380D02*
X80811809Y-20534380D01*
X80907047Y-20677238D01*
X81002285Y-20772476D01*
X81097523Y-20820095D01*
X65412857Y-38044380D02*
X65746190Y-37568190D01*
X65984285Y-38044380D02*
X65984285Y-37044380D01*
X65603333Y-37044380D01*
X65508095Y-37092000D01*
X65460476Y-37139619D01*
X65412857Y-37234857D01*
X65412857Y-37377714D01*
X65460476Y-37472952D01*
X65508095Y-37520571D01*
X65603333Y-37568190D01*
X65984285Y-37568190D01*
X64460476Y-38044380D02*
X65031904Y-38044380D01*
X64746190Y-38044380D02*
X64746190Y-37044380D01*
X64841428Y-37187238D01*
X64936666Y-37282476D01*
X65031904Y-37330095D01*
X63984285Y-38044380D02*
X63793809Y-38044380D01*
X63698571Y-37996761D01*
X63650952Y-37949142D01*
X63555714Y-37806285D01*
X63508095Y-37615809D01*
X63508095Y-37234857D01*
X63555714Y-37139619D01*
X63603333Y-37092000D01*
X63698571Y-37044380D01*
X63889047Y-37044380D01*
X63984285Y-37092000D01*
X64031904Y-37139619D01*
X64079523Y-37234857D01*
X64079523Y-37472952D01*
X64031904Y-37568190D01*
X63984285Y-37615809D01*
X63889047Y-37663428D01*
X63698571Y-37663428D01*
X63603333Y-37615809D01*
X63555714Y-37568190D01*
X63508095Y-37472952D01*
X66777142Y-23963333D02*
X66824761Y-23915714D01*
X66872380Y-23772857D01*
X66872380Y-23677619D01*
X66824761Y-23534761D01*
X66729523Y-23439523D01*
X66634285Y-23391904D01*
X66443809Y-23344285D01*
X66300952Y-23344285D01*
X66110476Y-23391904D01*
X66015238Y-23439523D01*
X65920000Y-23534761D01*
X65872380Y-23677619D01*
X65872380Y-23772857D01*
X65920000Y-23915714D01*
X65967619Y-23963333D01*
X65872380Y-24868095D02*
X65872380Y-24391904D01*
X66348571Y-24344285D01*
X66300952Y-24391904D01*
X66253333Y-24487142D01*
X66253333Y-24725238D01*
X66300952Y-24820476D01*
X66348571Y-24868095D01*
X66443809Y-24915714D01*
X66681904Y-24915714D01*
X66777142Y-24868095D01*
X66824761Y-24820476D01*
X66872380Y-24725238D01*
X66872380Y-24487142D01*
X66824761Y-24391904D01*
X66777142Y-24344285D01*
X89828666Y-53030380D02*
X90162000Y-52554190D01*
X90400095Y-53030380D02*
X90400095Y-52030380D01*
X90019142Y-52030380D01*
X89923904Y-52078000D01*
X89876285Y-52125619D01*
X89828666Y-52220857D01*
X89828666Y-52363714D01*
X89876285Y-52458952D01*
X89923904Y-52506571D01*
X90019142Y-52554190D01*
X90400095Y-52554190D01*
X89257238Y-52458952D02*
X89352476Y-52411333D01*
X89400095Y-52363714D01*
X89447714Y-52268476D01*
X89447714Y-52220857D01*
X89400095Y-52125619D01*
X89352476Y-52078000D01*
X89257238Y-52030380D01*
X89066761Y-52030380D01*
X88971523Y-52078000D01*
X88923904Y-52125619D01*
X88876285Y-52220857D01*
X88876285Y-52268476D01*
X88923904Y-52363714D01*
X88971523Y-52411333D01*
X89066761Y-52458952D01*
X89257238Y-52458952D01*
X89352476Y-52506571D01*
X89400095Y-52554190D01*
X89447714Y-52649428D01*
X89447714Y-52839904D01*
X89400095Y-52935142D01*
X89352476Y-52982761D01*
X89257238Y-53030380D01*
X89066761Y-53030380D01*
X88971523Y-52982761D01*
X88923904Y-52935142D01*
X88876285Y-52839904D01*
X88876285Y-52649428D01*
X88923904Y-52554190D01*
X88971523Y-52506571D01*
X89066761Y-52458952D01*
X50634166Y-57982380D02*
X50967500Y-57506190D01*
X51205595Y-57982380D02*
X51205595Y-56982380D01*
X50824642Y-56982380D01*
X50729404Y-57030000D01*
X50681785Y-57077619D01*
X50634166Y-57172857D01*
X50634166Y-57315714D01*
X50681785Y-57410952D01*
X50729404Y-57458571D01*
X50824642Y-57506190D01*
X51205595Y-57506190D01*
X50300833Y-56982380D02*
X49634166Y-56982380D01*
X50062738Y-57982380D01*
X32900857Y-43632380D02*
X33234190Y-43156190D01*
X33472285Y-43632380D02*
X33472285Y-42632380D01*
X33091333Y-42632380D01*
X32996095Y-42680000D01*
X32948476Y-42727619D01*
X32900857Y-42822857D01*
X32900857Y-42965714D01*
X32948476Y-43060952D01*
X32996095Y-43108571D01*
X33091333Y-43156190D01*
X33472285Y-43156190D01*
X32519904Y-42727619D02*
X32472285Y-42680000D01*
X32377047Y-42632380D01*
X32138952Y-42632380D01*
X32043714Y-42680000D01*
X31996095Y-42727619D01*
X31948476Y-42822857D01*
X31948476Y-42918095D01*
X31996095Y-43060952D01*
X32567523Y-43632380D01*
X31948476Y-43632380D01*
X31567523Y-42727619D02*
X31519904Y-42680000D01*
X31424666Y-42632380D01*
X31186571Y-42632380D01*
X31091333Y-42680000D01*
X31043714Y-42727619D01*
X30996095Y-42822857D01*
X30996095Y-42918095D01*
X31043714Y-43060952D01*
X31615142Y-43632380D01*
X30996095Y-43632380D01*
X21978857Y-21280380D02*
X22312190Y-20804190D01*
X22550285Y-21280380D02*
X22550285Y-20280380D01*
X22169333Y-20280380D01*
X22074095Y-20328000D01*
X22026476Y-20375619D01*
X21978857Y-20470857D01*
X21978857Y-20613714D01*
X22026476Y-20708952D01*
X22074095Y-20756571D01*
X22169333Y-20804190D01*
X22550285Y-20804190D01*
X21597904Y-20375619D02*
X21550285Y-20328000D01*
X21455047Y-20280380D01*
X21216952Y-20280380D01*
X21121714Y-20328000D01*
X21074095Y-20375619D01*
X21026476Y-20470857D01*
X21026476Y-20566095D01*
X21074095Y-20708952D01*
X21645523Y-21280380D01*
X21026476Y-21280380D01*
X20407428Y-20280380D02*
X20312190Y-20280380D01*
X20216952Y-20328000D01*
X20169333Y-20375619D01*
X20121714Y-20470857D01*
X20074095Y-20661333D01*
X20074095Y-20899428D01*
X20121714Y-21089904D01*
X20169333Y-21185142D01*
X20216952Y-21232761D01*
X20312190Y-21280380D01*
X20407428Y-21280380D01*
X20502666Y-21232761D01*
X20550285Y-21185142D01*
X20597904Y-21089904D01*
X20645523Y-20899428D01*
X20645523Y-20661333D01*
X20597904Y-20470857D01*
X20550285Y-20375619D01*
X20502666Y-20328000D01*
X20407428Y-20280380D01*
X24074380Y-39997142D02*
X23598190Y-39663809D01*
X24074380Y-39425714D02*
X23074380Y-39425714D01*
X23074380Y-39806666D01*
X23122000Y-39901904D01*
X23169619Y-39949523D01*
X23264857Y-39997142D01*
X23407714Y-39997142D01*
X23502952Y-39949523D01*
X23550571Y-39901904D01*
X23598190Y-39806666D01*
X23598190Y-39425714D01*
X24074380Y-40949523D02*
X24074380Y-40378095D01*
X24074380Y-40663809D02*
X23074380Y-40663809D01*
X23217238Y-40568571D01*
X23312476Y-40473333D01*
X23360095Y-40378095D01*
X23502952Y-41520952D02*
X23455333Y-41425714D01*
X23407714Y-41378095D01*
X23312476Y-41330476D01*
X23264857Y-41330476D01*
X23169619Y-41378095D01*
X23122000Y-41425714D01*
X23074380Y-41520952D01*
X23074380Y-41711428D01*
X23122000Y-41806666D01*
X23169619Y-41854285D01*
X23264857Y-41901904D01*
X23312476Y-41901904D01*
X23407714Y-41854285D01*
X23455333Y-41806666D01*
X23502952Y-41711428D01*
X23502952Y-41520952D01*
X23550571Y-41425714D01*
X23598190Y-41378095D01*
X23693428Y-41330476D01*
X23883904Y-41330476D01*
X23979142Y-41378095D01*
X24026761Y-41425714D01*
X24074380Y-41520952D01*
X24074380Y-41711428D01*
X24026761Y-41806666D01*
X23979142Y-41854285D01*
X23883904Y-41901904D01*
X23693428Y-41901904D01*
X23598190Y-41854285D01*
X23550571Y-41806666D01*
X23502952Y-41711428D01*
X41028857Y-39314380D02*
X41362190Y-38838190D01*
X41600285Y-39314380D02*
X41600285Y-38314380D01*
X41219333Y-38314380D01*
X41124095Y-38362000D01*
X41076476Y-38409619D01*
X41028857Y-38504857D01*
X41028857Y-38647714D01*
X41076476Y-38742952D01*
X41124095Y-38790571D01*
X41219333Y-38838190D01*
X41600285Y-38838190D01*
X40076476Y-39314380D02*
X40647904Y-39314380D01*
X40362190Y-39314380D02*
X40362190Y-38314380D01*
X40457428Y-38457238D01*
X40552666Y-38552476D01*
X40647904Y-38600095D01*
X39171714Y-38314380D02*
X39647904Y-38314380D01*
X39695523Y-38790571D01*
X39647904Y-38742952D01*
X39552666Y-38695333D01*
X39314571Y-38695333D01*
X39219333Y-38742952D01*
X39171714Y-38790571D01*
X39124095Y-38885809D01*
X39124095Y-39123904D01*
X39171714Y-39219142D01*
X39219333Y-39266761D01*
X39314571Y-39314380D01*
X39552666Y-39314380D01*
X39647904Y-39266761D01*
X39695523Y-39219142D01*
X36964857Y-17852380D02*
X37298190Y-17376190D01*
X37536285Y-17852380D02*
X37536285Y-16852380D01*
X37155333Y-16852380D01*
X37060095Y-16900000D01*
X37012476Y-16947619D01*
X36964857Y-17042857D01*
X36964857Y-17185714D01*
X37012476Y-17280952D01*
X37060095Y-17328571D01*
X37155333Y-17376190D01*
X37536285Y-17376190D01*
X36012476Y-17852380D02*
X36583904Y-17852380D01*
X36298190Y-17852380D02*
X36298190Y-16852380D01*
X36393428Y-16995238D01*
X36488666Y-17090476D01*
X36583904Y-17138095D01*
X35679142Y-16852380D02*
X35060095Y-16852380D01*
X35393428Y-17233333D01*
X35250571Y-17233333D01*
X35155333Y-17280952D01*
X35107714Y-17328571D01*
X35060095Y-17423809D01*
X35060095Y-17661904D01*
X35107714Y-17757142D01*
X35155333Y-17804761D01*
X35250571Y-17852380D01*
X35536285Y-17852380D01*
X35631523Y-17804761D01*
X35679142Y-17757142D01*
X49664857Y-42362380D02*
X49998190Y-41886190D01*
X50236285Y-42362380D02*
X50236285Y-41362380D01*
X49855333Y-41362380D01*
X49760095Y-41410000D01*
X49712476Y-41457619D01*
X49664857Y-41552857D01*
X49664857Y-41695714D01*
X49712476Y-41790952D01*
X49760095Y-41838571D01*
X49855333Y-41886190D01*
X50236285Y-41886190D01*
X48712476Y-42362380D02*
X49283904Y-42362380D01*
X48998190Y-42362380D02*
X48998190Y-41362380D01*
X49093428Y-41505238D01*
X49188666Y-41600476D01*
X49283904Y-41648095D01*
X47760095Y-42362380D02*
X48331523Y-42362380D01*
X48045809Y-42362380D02*
X48045809Y-41362380D01*
X48141047Y-41505238D01*
X48236285Y-41600476D01*
X48331523Y-41648095D01*
X55252857Y-41472380D02*
X55586190Y-40996190D01*
X55824285Y-41472380D02*
X55824285Y-40472380D01*
X55443333Y-40472380D01*
X55348095Y-40520000D01*
X55300476Y-40567619D01*
X55252857Y-40662857D01*
X55252857Y-40805714D01*
X55300476Y-40900952D01*
X55348095Y-40948571D01*
X55443333Y-40996190D01*
X55824285Y-40996190D01*
X54300476Y-41472380D02*
X54871904Y-41472380D01*
X54586190Y-41472380D02*
X54586190Y-40472380D01*
X54681428Y-40615238D01*
X54776666Y-40710476D01*
X54871904Y-40758095D01*
X53681428Y-40472380D02*
X53586190Y-40472380D01*
X53490952Y-40520000D01*
X53443333Y-40567619D01*
X53395714Y-40662857D01*
X53348095Y-40853333D01*
X53348095Y-41091428D01*
X53395714Y-41281904D01*
X53443333Y-41377142D01*
X53490952Y-41424761D01*
X53586190Y-41472380D01*
X53681428Y-41472380D01*
X53776666Y-41424761D01*
X53824285Y-41377142D01*
X53871904Y-41281904D01*
X53919523Y-41091428D01*
X53919523Y-40853333D01*
X53871904Y-40662857D01*
X53824285Y-40567619D01*
X53776666Y-40520000D01*
X53681428Y-40472380D01*
X112414831Y-52384226D02*
X112462484Y-52336572D01*
X112510138Y-52193612D01*
X112510138Y-52098305D01*
X112462484Y-51955344D01*
X112367177Y-51860037D01*
X112271870Y-51812384D01*
X112081256Y-51764730D01*
X111938296Y-51764730D01*
X111747682Y-51812384D01*
X111652375Y-51860037D01*
X111557068Y-51955344D01*
X111509414Y-52098305D01*
X111509414Y-52193612D01*
X111557068Y-52336572D01*
X111604721Y-52384226D01*
X111509414Y-53003722D02*
X111509414Y-53194336D01*
X111557068Y-53289643D01*
X111652375Y-53384950D01*
X111842989Y-53432603D01*
X112176563Y-53432603D01*
X112367177Y-53384950D01*
X112462484Y-53289643D01*
X112510138Y-53194336D01*
X112510138Y-53003722D01*
X112462484Y-52908415D01*
X112367177Y-52813108D01*
X112176563Y-52765454D01*
X111842989Y-52765454D01*
X111652375Y-52813108D01*
X111557068Y-52908415D01*
X111509414Y-53003722D01*
X112510138Y-53861485D02*
X111509414Y-53861485D01*
X112510138Y-54433327D01*
X111509414Y-54433327D01*
X112510138Y-54909863D02*
X111509414Y-54909863D01*
X112510138Y-55481705D01*
X111509414Y-55481705D01*
X112510138Y-56482429D02*
X112510138Y-55910587D01*
X112510138Y-56196508D02*
X111509414Y-56196508D01*
X111652375Y-56101201D01*
X111747682Y-56005894D01*
X111795335Y-55910587D01*
X22455142Y-24471333D02*
X22502761Y-24423714D01*
X22550380Y-24280857D01*
X22550380Y-24185619D01*
X22502761Y-24042761D01*
X22407523Y-23947523D01*
X22312285Y-23899904D01*
X22121809Y-23852285D01*
X21978952Y-23852285D01*
X21788476Y-23899904D01*
X21693238Y-23947523D01*
X21598000Y-24042761D01*
X21550380Y-24185619D01*
X21550380Y-24280857D01*
X21598000Y-24423714D01*
X21645619Y-24471333D01*
X21883714Y-25328476D02*
X22550380Y-25328476D01*
X21502761Y-25090380D02*
X22217047Y-24852285D01*
X22217047Y-25471333D01*
X36297142Y-23963333D02*
X36344761Y-23915714D01*
X36392380Y-23772857D01*
X36392380Y-23677619D01*
X36344761Y-23534761D01*
X36249523Y-23439523D01*
X36154285Y-23391904D01*
X35963809Y-23344285D01*
X35820952Y-23344285D01*
X35630476Y-23391904D01*
X35535238Y-23439523D01*
X35440000Y-23534761D01*
X35392380Y-23677619D01*
X35392380Y-23772857D01*
X35440000Y-23915714D01*
X35487619Y-23963333D01*
X35487619Y-24344285D02*
X35440000Y-24391904D01*
X35392380Y-24487142D01*
X35392380Y-24725238D01*
X35440000Y-24820476D01*
X35487619Y-24868095D01*
X35582857Y-24915714D01*
X35678095Y-24915714D01*
X35820952Y-24868095D01*
X36392380Y-24296666D01*
X36392380Y-24915714D01*
X51665142Y-23963333D02*
X51712761Y-23915714D01*
X51760380Y-23772857D01*
X51760380Y-23677619D01*
X51712761Y-23534761D01*
X51617523Y-23439523D01*
X51522285Y-23391904D01*
X51331809Y-23344285D01*
X51188952Y-23344285D01*
X50998476Y-23391904D01*
X50903238Y-23439523D01*
X50808000Y-23534761D01*
X50760380Y-23677619D01*
X50760380Y-23772857D01*
X50808000Y-23915714D01*
X50855619Y-23963333D01*
X51760380Y-24915714D02*
X51760380Y-24344285D01*
X51760380Y-24630000D02*
X50760380Y-24630000D01*
X50903238Y-24534761D01*
X50998476Y-24439523D01*
X51046095Y-24344285D01*
X38520666Y-50267142D02*
X38568285Y-50314761D01*
X38711142Y-50362380D01*
X38806380Y-50362380D01*
X38949238Y-50314761D01*
X39044476Y-50219523D01*
X39092095Y-50124285D01*
X39139714Y-49933809D01*
X39139714Y-49790952D01*
X39092095Y-49600476D01*
X39044476Y-49505238D01*
X38949238Y-49410000D01*
X38806380Y-49362380D01*
X38711142Y-49362380D01*
X38568285Y-49410000D01*
X38520666Y-49457619D01*
X38187333Y-49362380D02*
X37568285Y-49362380D01*
X37901619Y-49743333D01*
X37758761Y-49743333D01*
X37663523Y-49790952D01*
X37615904Y-49838571D01*
X37568285Y-49933809D01*
X37568285Y-50171904D01*
X37615904Y-50267142D01*
X37663523Y-50314761D01*
X37758761Y-50362380D01*
X38044476Y-50362380D01*
X38139714Y-50314761D01*
X38187333Y-50267142D01*
X22709603Y-51853660D02*
X22757284Y-51805980D01*
X22804964Y-51662938D01*
X22804964Y-51567577D01*
X22757284Y-51424536D01*
X22661923Y-51329175D01*
X22566562Y-51281494D01*
X22375840Y-51233814D01*
X22232798Y-51233814D01*
X22042076Y-51281494D01*
X21946715Y-51329175D01*
X21851354Y-51424536D01*
X21803673Y-51567577D01*
X21803673Y-51662938D01*
X21851354Y-51805980D01*
X21899035Y-51853660D01*
X21803673Y-52473507D02*
X21803673Y-52664229D01*
X21851354Y-52759590D01*
X21946715Y-52854951D01*
X22137437Y-52902632D01*
X22471201Y-52902632D01*
X22661923Y-52854951D01*
X22757284Y-52759590D01*
X22804964Y-52664229D01*
X22804964Y-52473507D01*
X22757284Y-52378146D01*
X22661923Y-52282785D01*
X22471201Y-52235105D01*
X22137437Y-52235105D01*
X21946715Y-52282785D01*
X21851354Y-52378146D01*
X21803673Y-52473507D01*
X22804964Y-53331757D02*
X21803673Y-53331757D01*
X22804964Y-53903923D01*
X21803673Y-53903923D01*
X22804964Y-54380728D02*
X21803673Y-54380728D01*
X22804964Y-54952894D01*
X21803673Y-54952894D01*
X21803673Y-55334339D02*
X21803673Y-55954185D01*
X22185118Y-55620422D01*
X22185118Y-55763463D01*
X22232798Y-55858824D01*
X22280479Y-55906505D01*
X22375840Y-55954185D01*
X22614242Y-55954185D01*
X22709603Y-55906505D01*
X22757284Y-55858824D01*
X22804964Y-55763463D01*
X22804964Y-55477380D01*
X22757284Y-55382019D01*
X22709603Y-55334339D01*
X88368095Y-20702380D02*
X88368095Y-19702380D01*
X88130000Y-19702380D01*
X87987142Y-19750000D01*
X87891904Y-19845238D01*
X87844285Y-19940476D01*
X87796666Y-20130952D01*
X87796666Y-20273809D01*
X87844285Y-20464285D01*
X87891904Y-20559523D01*
X87987142Y-20654761D01*
X88130000Y-20702380D01*
X88368095Y-20702380D01*
X86844285Y-20702380D02*
X87415714Y-20702380D01*
X87130000Y-20702380D02*
X87130000Y-19702380D01*
X87225238Y-19845238D01*
X87320476Y-19940476D01*
X87415714Y-19988095D01*
X104370095Y-20772380D02*
X104370095Y-19772380D01*
X104132000Y-19772380D01*
X103989142Y-19820000D01*
X103893904Y-19915238D01*
X103846285Y-20010476D01*
X103798666Y-20200952D01*
X103798666Y-20343809D01*
X103846285Y-20534285D01*
X103893904Y-20629523D01*
X103989142Y-20724761D01*
X104132000Y-20772380D01*
X104370095Y-20772380D01*
X103417714Y-19867619D02*
X103370095Y-19820000D01*
X103274857Y-19772380D01*
X103036761Y-19772380D01*
X102941523Y-19820000D01*
X102893904Y-19867619D01*
X102846285Y-19962857D01*
X102846285Y-20058095D01*
X102893904Y-20200952D01*
X103465333Y-20772380D01*
X102846285Y-20772380D01*
X100679238Y-47537619D02*
X100774476Y-47490000D01*
X100869714Y-47394761D01*
X101012571Y-47251904D01*
X101107809Y-47204285D01*
X101203047Y-47204285D01*
X101155428Y-47442380D02*
X101250666Y-47394761D01*
X101345904Y-47299523D01*
X101393523Y-47109047D01*
X101393523Y-46775714D01*
X101345904Y-46585238D01*
X101250666Y-46490000D01*
X101155428Y-46442380D01*
X100964952Y-46442380D01*
X100869714Y-46490000D01*
X100774476Y-46585238D01*
X100726857Y-46775714D01*
X100726857Y-47109047D01*
X100774476Y-47299523D01*
X100869714Y-47394761D01*
X100964952Y-47442380D01*
X101155428Y-47442380D01*
X99774476Y-47442380D02*
X100345904Y-47442380D01*
X100060190Y-47442380D02*
X100060190Y-46442380D01*
X100155428Y-46585238D01*
X100250666Y-46680476D01*
X100345904Y-46728095D01*
X80597619Y-43084761D02*
X80550000Y-42989523D01*
X80454761Y-42894285D01*
X80311904Y-42751428D01*
X80264285Y-42656190D01*
X80264285Y-42560952D01*
X80502380Y-42608571D02*
X80454761Y-42513333D01*
X80359523Y-42418095D01*
X80169047Y-42370476D01*
X79835714Y-42370476D01*
X79645238Y-42418095D01*
X79550000Y-42513333D01*
X79502380Y-42608571D01*
X79502380Y-42799047D01*
X79550000Y-42894285D01*
X79645238Y-42989523D01*
X79835714Y-43037142D01*
X80169047Y-43037142D01*
X80359523Y-42989523D01*
X80454761Y-42894285D01*
X80502380Y-42799047D01*
X80502380Y-42608571D01*
X79597619Y-43418095D02*
X79550000Y-43465714D01*
X79502380Y-43560952D01*
X79502380Y-43799047D01*
X79550000Y-43894285D01*
X79597619Y-43941904D01*
X79692857Y-43989523D01*
X79788095Y-43989523D01*
X79930952Y-43941904D01*
X80502380Y-43370476D01*
X80502380Y-43989523D01*
X109569238Y-42203619D02*
X109664476Y-42156000D01*
X109759714Y-42060761D01*
X109902571Y-41917904D01*
X109997809Y-41870285D01*
X110093047Y-41870285D01*
X110045428Y-42108380D02*
X110140666Y-42060761D01*
X110235904Y-41965523D01*
X110283523Y-41775047D01*
X110283523Y-41441714D01*
X110235904Y-41251238D01*
X110140666Y-41156000D01*
X110045428Y-41108380D01*
X109854952Y-41108380D01*
X109759714Y-41156000D01*
X109664476Y-41251238D01*
X109616857Y-41441714D01*
X109616857Y-41775047D01*
X109664476Y-41965523D01*
X109759714Y-42060761D01*
X109854952Y-42108380D01*
X110045428Y-42108380D01*
X109283523Y-41108380D02*
X108664476Y-41108380D01*
X108997809Y-41489333D01*
X108854952Y-41489333D01*
X108759714Y-41536952D01*
X108712095Y-41584571D01*
X108664476Y-41679809D01*
X108664476Y-41917904D01*
X108712095Y-42013142D01*
X108759714Y-42060761D01*
X108854952Y-42108380D01*
X109140666Y-42108380D01*
X109235904Y-42060761D01*
X109283523Y-42013142D01*
X126781619Y-22510761D02*
X126734000Y-22415523D01*
X126638761Y-22320285D01*
X126495904Y-22177428D01*
X126448285Y-22082190D01*
X126448285Y-21986952D01*
X126686380Y-22034571D02*
X126638761Y-21939333D01*
X126543523Y-21844095D01*
X126353047Y-21796476D01*
X126019714Y-21796476D01*
X125829238Y-21844095D01*
X125734000Y-21939333D01*
X125686380Y-22034571D01*
X125686380Y-22225047D01*
X125734000Y-22320285D01*
X125829238Y-22415523D01*
X126019714Y-22463142D01*
X126353047Y-22463142D01*
X126543523Y-22415523D01*
X126638761Y-22320285D01*
X126686380Y-22225047D01*
X126686380Y-22034571D01*
X126019714Y-23320285D02*
X126686380Y-23320285D01*
X125638761Y-23082190D02*
X126353047Y-22844095D01*
X126353047Y-23463142D01*
X56483238Y-58205619D02*
X56578476Y-58158000D01*
X56673714Y-58062761D01*
X56816571Y-57919904D01*
X56911809Y-57872285D01*
X57007047Y-57872285D01*
X56959428Y-58110380D02*
X57054666Y-58062761D01*
X57149904Y-57967523D01*
X57197523Y-57777047D01*
X57197523Y-57443714D01*
X57149904Y-57253238D01*
X57054666Y-57158000D01*
X56959428Y-57110380D01*
X56768952Y-57110380D01*
X56673714Y-57158000D01*
X56578476Y-57253238D01*
X56530857Y-57443714D01*
X56530857Y-57777047D01*
X56578476Y-57967523D01*
X56673714Y-58062761D01*
X56768952Y-58110380D01*
X56959428Y-58110380D01*
X55626095Y-57110380D02*
X56102285Y-57110380D01*
X56149904Y-57586571D01*
X56102285Y-57538952D01*
X56007047Y-57491333D01*
X55768952Y-57491333D01*
X55673714Y-57538952D01*
X55626095Y-57586571D01*
X55578476Y-57681809D01*
X55578476Y-57919904D01*
X55626095Y-58015142D01*
X55673714Y-58062761D01*
X55768952Y-58110380D01*
X56007047Y-58110380D01*
X56102285Y-58062761D01*
X56149904Y-58015142D01*
X70199238Y-56427619D02*
X70294476Y-56380000D01*
X70389714Y-56284761D01*
X70532571Y-56141904D01*
X70627809Y-56094285D01*
X70723047Y-56094285D01*
X70675428Y-56332380D02*
X70770666Y-56284761D01*
X70865904Y-56189523D01*
X70913523Y-55999047D01*
X70913523Y-55665714D01*
X70865904Y-55475238D01*
X70770666Y-55380000D01*
X70675428Y-55332380D01*
X70484952Y-55332380D01*
X70389714Y-55380000D01*
X70294476Y-55475238D01*
X70246857Y-55665714D01*
X70246857Y-55999047D01*
X70294476Y-56189523D01*
X70389714Y-56284761D01*
X70484952Y-56332380D01*
X70675428Y-56332380D01*
X69389714Y-55332380D02*
X69580190Y-55332380D01*
X69675428Y-55380000D01*
X69723047Y-55427619D01*
X69818285Y-55570476D01*
X69865904Y-55760952D01*
X69865904Y-56141904D01*
X69818285Y-56237142D01*
X69770666Y-56284761D01*
X69675428Y-56332380D01*
X69484952Y-56332380D01*
X69389714Y-56284761D01*
X69342095Y-56237142D01*
X69294476Y-56141904D01*
X69294476Y-55903809D01*
X69342095Y-55808571D01*
X69389714Y-55760952D01*
X69484952Y-55713333D01*
X69675428Y-55713333D01*
X69770666Y-55760952D01*
X69818285Y-55808571D01*
X69865904Y-55903809D01*
X63595238Y-52617619D02*
X63690476Y-52570000D01*
X63785714Y-52474761D01*
X63928571Y-52331904D01*
X64023809Y-52284285D01*
X64119047Y-52284285D01*
X64071428Y-52522380D02*
X64166666Y-52474761D01*
X64261904Y-52379523D01*
X64309523Y-52189047D01*
X64309523Y-51855714D01*
X64261904Y-51665238D01*
X64166666Y-51570000D01*
X64071428Y-51522380D01*
X63880952Y-51522380D01*
X63785714Y-51570000D01*
X63690476Y-51665238D01*
X63642857Y-51855714D01*
X63642857Y-52189047D01*
X63690476Y-52379523D01*
X63785714Y-52474761D01*
X63880952Y-52522380D01*
X64071428Y-52522380D01*
X63309523Y-51522380D02*
X62642857Y-51522380D01*
X63071428Y-52522380D01*
X62650666Y-42616380D02*
X62984000Y-42140190D01*
X63222095Y-42616380D02*
X63222095Y-41616380D01*
X62841142Y-41616380D01*
X62745904Y-41664000D01*
X62698285Y-41711619D01*
X62650666Y-41806857D01*
X62650666Y-41949714D01*
X62698285Y-42044952D01*
X62745904Y-42092571D01*
X62841142Y-42140190D01*
X63222095Y-42140190D01*
X61698285Y-42616380D02*
X62269714Y-42616380D01*
X61984000Y-42616380D02*
X61984000Y-41616380D01*
X62079238Y-41759238D01*
X62174476Y-41854476D01*
X62269714Y-41902095D01*
X81192666Y-40330380D02*
X81526000Y-39854190D01*
X81764095Y-40330380D02*
X81764095Y-39330380D01*
X81383142Y-39330380D01*
X81287904Y-39378000D01*
X81240285Y-39425619D01*
X81192666Y-39520857D01*
X81192666Y-39663714D01*
X81240285Y-39758952D01*
X81287904Y-39806571D01*
X81383142Y-39854190D01*
X81764095Y-39854190D01*
X80811714Y-39425619D02*
X80764095Y-39378000D01*
X80668857Y-39330380D01*
X80430761Y-39330380D01*
X80335523Y-39378000D01*
X80287904Y-39425619D01*
X80240285Y-39520857D01*
X80240285Y-39616095D01*
X80287904Y-39758952D01*
X80859333Y-40330380D01*
X80240285Y-40330380D01*
X117768666Y-53156380D02*
X118102000Y-52680190D01*
X118340095Y-53156380D02*
X118340095Y-52156380D01*
X117959142Y-52156380D01*
X117863904Y-52204000D01*
X117816285Y-52251619D01*
X117768666Y-52346857D01*
X117768666Y-52489714D01*
X117816285Y-52584952D01*
X117863904Y-52632571D01*
X117959142Y-52680190D01*
X118340095Y-52680190D01*
X117435333Y-52156380D02*
X116816285Y-52156380D01*
X117149619Y-52537333D01*
X117006761Y-52537333D01*
X116911523Y-52584952D01*
X116863904Y-52632571D01*
X116816285Y-52727809D01*
X116816285Y-52965904D01*
X116863904Y-53061142D01*
X116911523Y-53108761D01*
X117006761Y-53156380D01*
X117292476Y-53156380D01*
X117387714Y-53108761D01*
X117435333Y-53061142D01*
X119546666Y-48330380D02*
X119880000Y-47854190D01*
X120118095Y-48330380D02*
X120118095Y-47330380D01*
X119737142Y-47330380D01*
X119641904Y-47378000D01*
X119594285Y-47425619D01*
X119546666Y-47520857D01*
X119546666Y-47663714D01*
X119594285Y-47758952D01*
X119641904Y-47806571D01*
X119737142Y-47854190D01*
X120118095Y-47854190D01*
X118689523Y-47663714D02*
X118689523Y-48330380D01*
X118927619Y-47282761D02*
X119165714Y-47997047D01*
X118546666Y-47997047D01*
X127928666Y-57728380D02*
X128262000Y-57252190D01*
X128500095Y-57728380D02*
X128500095Y-56728380D01*
X128119142Y-56728380D01*
X128023904Y-56776000D01*
X127976285Y-56823619D01*
X127928666Y-56918857D01*
X127928666Y-57061714D01*
X127976285Y-57156952D01*
X128023904Y-57204571D01*
X128119142Y-57252190D01*
X128500095Y-57252190D01*
X127023904Y-56728380D02*
X127500095Y-56728380D01*
X127547714Y-57204571D01*
X127500095Y-57156952D01*
X127404857Y-57109333D01*
X127166761Y-57109333D01*
X127071523Y-57156952D01*
X127023904Y-57204571D01*
X126976285Y-57299809D01*
X126976285Y-57537904D01*
X127023904Y-57633142D01*
X127071523Y-57680761D01*
X127166761Y-57728380D01*
X127404857Y-57728380D01*
X127500095Y-57680761D01*
X127547714Y-57633142D01*
X129452666Y-44902380D02*
X129786000Y-44426190D01*
X130024095Y-44902380D02*
X130024095Y-43902380D01*
X129643142Y-43902380D01*
X129547904Y-43950000D01*
X129500285Y-43997619D01*
X129452666Y-44092857D01*
X129452666Y-44235714D01*
X129500285Y-44330952D01*
X129547904Y-44378571D01*
X129643142Y-44426190D01*
X130024095Y-44426190D01*
X128595523Y-43902380D02*
X128786000Y-43902380D01*
X128881238Y-43950000D01*
X128928857Y-43997619D01*
X129024095Y-44140476D01*
X129071714Y-44330952D01*
X129071714Y-44711904D01*
X129024095Y-44807142D01*
X128976476Y-44854761D01*
X128881238Y-44902380D01*
X128690761Y-44902380D01*
X128595523Y-44854761D01*
X128547904Y-44807142D01*
X128500285Y-44711904D01*
X128500285Y-44473809D01*
X128547904Y-44378571D01*
X128595523Y-44330952D01*
X128690761Y-44283333D01*
X128881238Y-44283333D01*
X128976476Y-44330952D01*
X129024095Y-44378571D01*
X129071714Y-44473809D01*
X46824166Y-50872380D02*
X47157500Y-50396190D01*
X47395595Y-50872380D02*
X47395595Y-49872380D01*
X47014642Y-49872380D01*
X46919404Y-49920000D01*
X46871785Y-49967619D01*
X46824166Y-50062857D01*
X46824166Y-50205714D01*
X46871785Y-50300952D01*
X46919404Y-50348571D01*
X47014642Y-50396190D01*
X47395595Y-50396190D01*
X46347976Y-50872380D02*
X46157500Y-50872380D01*
X46062261Y-50824761D01*
X46014642Y-50777142D01*
X45919404Y-50634285D01*
X45871785Y-50443809D01*
X45871785Y-50062857D01*
X45919404Y-49967619D01*
X45967023Y-49920000D01*
X46062261Y-49872380D01*
X46252738Y-49872380D01*
X46347976Y-49920000D01*
X46395595Y-49967619D01*
X46443214Y-50062857D01*
X46443214Y-50300952D01*
X46395595Y-50396190D01*
X46347976Y-50443809D01*
X46252738Y-50491428D01*
X46062261Y-50491428D01*
X45967023Y-50443809D01*
X45919404Y-50396190D01*
X45871785Y-50300952D01*
X61348857Y-21280380D02*
X61682190Y-20804190D01*
X61920285Y-21280380D02*
X61920285Y-20280380D01*
X61539333Y-20280380D01*
X61444095Y-20328000D01*
X61396476Y-20375619D01*
X61348857Y-20470857D01*
X61348857Y-20613714D01*
X61396476Y-20708952D01*
X61444095Y-20756571D01*
X61539333Y-20804190D01*
X61920285Y-20804190D01*
X60396476Y-21280380D02*
X60967904Y-21280380D01*
X60682190Y-21280380D02*
X60682190Y-20280380D01*
X60777428Y-20423238D01*
X60872666Y-20518476D01*
X60967904Y-20566095D01*
X60015523Y-20375619D02*
X59967904Y-20328000D01*
X59872666Y-20280380D01*
X59634571Y-20280380D01*
X59539333Y-20328000D01*
X59491714Y-20375619D01*
X59444095Y-20470857D01*
X59444095Y-20566095D01*
X59491714Y-20708952D01*
X60063142Y-21280380D01*
X59444095Y-21280380D01*
X45600857Y-20264380D02*
X45934190Y-19788190D01*
X46172285Y-20264380D02*
X46172285Y-19264380D01*
X45791333Y-19264380D01*
X45696095Y-19312000D01*
X45648476Y-19359619D01*
X45600857Y-19454857D01*
X45600857Y-19597714D01*
X45648476Y-19692952D01*
X45696095Y-19740571D01*
X45791333Y-19788190D01*
X46172285Y-19788190D01*
X44648476Y-20264380D02*
X45219904Y-20264380D01*
X44934190Y-20264380D02*
X44934190Y-19264380D01*
X45029428Y-19407238D01*
X45124666Y-19502476D01*
X45219904Y-19550095D01*
X43791333Y-19597714D02*
X43791333Y-20264380D01*
X44029428Y-19216761D02*
X44267523Y-19931047D01*
X43648476Y-19931047D01*
X21900357Y-49092380D02*
X22233690Y-48616190D01*
X22471785Y-49092380D02*
X22471785Y-48092380D01*
X22090833Y-48092380D01*
X21995595Y-48140000D01*
X21947976Y-48187619D01*
X21900357Y-48282857D01*
X21900357Y-48425714D01*
X21947976Y-48520952D01*
X21995595Y-48568571D01*
X22090833Y-48616190D01*
X22471785Y-48616190D01*
X20947976Y-49092380D02*
X21519404Y-49092380D01*
X21233690Y-49092380D02*
X21233690Y-48092380D01*
X21328928Y-48235238D01*
X21424166Y-48330476D01*
X21519404Y-48378095D01*
X20090833Y-48092380D02*
X20281309Y-48092380D01*
X20376547Y-48140000D01*
X20424166Y-48187619D01*
X20519404Y-48330476D01*
X20567023Y-48520952D01*
X20567023Y-48901904D01*
X20519404Y-48997142D01*
X20471785Y-49044761D01*
X20376547Y-49092380D01*
X20186071Y-49092380D01*
X20090833Y-49044761D01*
X20043214Y-48997142D01*
X19995595Y-48901904D01*
X19995595Y-48663809D01*
X20043214Y-48568571D01*
X20090833Y-48520952D01*
X20186071Y-48473333D01*
X20376547Y-48473333D01*
X20471785Y-48520952D01*
X20519404Y-48568571D01*
X20567023Y-48663809D01*
X34932857Y-49092380D02*
X35266190Y-48616190D01*
X35504285Y-49092380D02*
X35504285Y-48092380D01*
X35123333Y-48092380D01*
X35028095Y-48140000D01*
X34980476Y-48187619D01*
X34932857Y-48282857D01*
X34932857Y-48425714D01*
X34980476Y-48520952D01*
X35028095Y-48568571D01*
X35123333Y-48616190D01*
X35504285Y-48616190D01*
X33980476Y-49092380D02*
X34551904Y-49092380D01*
X34266190Y-49092380D02*
X34266190Y-48092380D01*
X34361428Y-48235238D01*
X34456666Y-48330476D01*
X34551904Y-48378095D01*
X33647142Y-48092380D02*
X32980476Y-48092380D01*
X33409047Y-49092380D01*
M02*
