G04 #@! TF.GenerationSoftware,KiCad,Pcbnew,(5.1.6-0-10_14)*
G04 #@! TF.CreationDate,2020-07-01T11:00:56-07:00*
G04 #@! TF.ProjectId,Pufferfish-Interface-1,50756666-6572-4666-9973-682d496e7465,v0.1*
G04 #@! TF.SameCoordinates,Original*
G04 #@! TF.FileFunction,Soldermask,Top*
G04 #@! TF.FilePolarity,Negative*
%FSLAX46Y46*%
G04 Gerber Fmt 4.6, Leading zero omitted, Abs format (unit mm)*
G04 Created by KiCad (PCBNEW (5.1.6-0-10_14)) date 2020-07-01 11:00:56*
%MOMM*%
%LPD*%
G01*
G04 APERTURE LIST*
%ADD10C,0.099822*%
G04 APERTURE END LIST*
D10*
G36*
X73303500Y-50443500D02*
G01*
X71476500Y-50443500D01*
X71476500Y-48616500D01*
X73303500Y-48616500D01*
X73303500Y-50443500D01*
G37*
G36*
X70028215Y-48634053D02*
G01*
X70116458Y-48651605D01*
X70185319Y-48680128D01*
X70282703Y-48720466D01*
X70432322Y-48820438D01*
X70559562Y-48947678D01*
X70659534Y-49097297D01*
X70728395Y-49263543D01*
X70763500Y-49440027D01*
X70763500Y-49619973D01*
X70728395Y-49796457D01*
X70659534Y-49962703D01*
X70559562Y-50112322D01*
X70432322Y-50239562D01*
X70282703Y-50339534D01*
X70185319Y-50379872D01*
X70116458Y-50408395D01*
X70028215Y-50425948D01*
X69939973Y-50443500D01*
X69760027Y-50443500D01*
X69671785Y-50425948D01*
X69583542Y-50408395D01*
X69514681Y-50379872D01*
X69417297Y-50339534D01*
X69267678Y-50239562D01*
X69140438Y-50112322D01*
X69040466Y-49962703D01*
X68971605Y-49796457D01*
X68936500Y-49619973D01*
X68936500Y-49440027D01*
X68971605Y-49263543D01*
X69040466Y-49097297D01*
X69140438Y-48947678D01*
X69267678Y-48820438D01*
X69417297Y-48720466D01*
X69514681Y-48680128D01*
X69583542Y-48651605D01*
X69671785Y-48634053D01*
X69760027Y-48616500D01*
X69939973Y-48616500D01*
X70028215Y-48634053D01*
G37*
G36*
X67488215Y-48634053D02*
G01*
X67576458Y-48651605D01*
X67645319Y-48680128D01*
X67742703Y-48720466D01*
X67892322Y-48820438D01*
X68019562Y-48947678D01*
X68119534Y-49097297D01*
X68188395Y-49263543D01*
X68223500Y-49440027D01*
X68223500Y-49619973D01*
X68188395Y-49796457D01*
X68119534Y-49962703D01*
X68019562Y-50112322D01*
X67892322Y-50239562D01*
X67742703Y-50339534D01*
X67645319Y-50379872D01*
X67576458Y-50408395D01*
X67488215Y-50425948D01*
X67399973Y-50443500D01*
X67220027Y-50443500D01*
X67131785Y-50425948D01*
X67043542Y-50408395D01*
X66974681Y-50379872D01*
X66877297Y-50339534D01*
X66727678Y-50239562D01*
X66600438Y-50112322D01*
X66500466Y-49962703D01*
X66431605Y-49796457D01*
X66396500Y-49619973D01*
X66396500Y-49440027D01*
X66431605Y-49263543D01*
X66500466Y-49097297D01*
X66600438Y-48947678D01*
X66727678Y-48820438D01*
X66877297Y-48720466D01*
X66974681Y-48680128D01*
X67043542Y-48651605D01*
X67131785Y-48634053D01*
X67220027Y-48616500D01*
X67399973Y-48616500D01*
X67488215Y-48634053D01*
G37*
G36*
X64948215Y-48634053D02*
G01*
X65036458Y-48651605D01*
X65105319Y-48680128D01*
X65202703Y-48720466D01*
X65352322Y-48820438D01*
X65479562Y-48947678D01*
X65579534Y-49097297D01*
X65648395Y-49263543D01*
X65683500Y-49440027D01*
X65683500Y-49619973D01*
X65648395Y-49796457D01*
X65579534Y-49962703D01*
X65479562Y-50112322D01*
X65352322Y-50239562D01*
X65202703Y-50339534D01*
X65105319Y-50379872D01*
X65036458Y-50408395D01*
X64948215Y-50425948D01*
X64859973Y-50443500D01*
X64680027Y-50443500D01*
X64591785Y-50425948D01*
X64503542Y-50408395D01*
X64434681Y-50379872D01*
X64337297Y-50339534D01*
X64187678Y-50239562D01*
X64060438Y-50112322D01*
X63960466Y-49962703D01*
X63891605Y-49796457D01*
X63856500Y-49619973D01*
X63856500Y-49440027D01*
X63891605Y-49263543D01*
X63960466Y-49097297D01*
X64060438Y-48947678D01*
X64187678Y-48820438D01*
X64337297Y-48720466D01*
X64434681Y-48680128D01*
X64503542Y-48651605D01*
X64591785Y-48634053D01*
X64680027Y-48616500D01*
X64859973Y-48616500D01*
X64948215Y-48634053D01*
G37*
G36*
X62408215Y-48634053D02*
G01*
X62496458Y-48651605D01*
X62565319Y-48680128D01*
X62662703Y-48720466D01*
X62812322Y-48820438D01*
X62939562Y-48947678D01*
X63039534Y-49097297D01*
X63108395Y-49263543D01*
X63143500Y-49440027D01*
X63143500Y-49619973D01*
X63108395Y-49796457D01*
X63039534Y-49962703D01*
X62939562Y-50112322D01*
X62812322Y-50239562D01*
X62662703Y-50339534D01*
X62565319Y-50379872D01*
X62496458Y-50408395D01*
X62408215Y-50425948D01*
X62319973Y-50443500D01*
X62140027Y-50443500D01*
X62051785Y-50425948D01*
X61963542Y-50408395D01*
X61894681Y-50379872D01*
X61797297Y-50339534D01*
X61647678Y-50239562D01*
X61520438Y-50112322D01*
X61420466Y-49962703D01*
X61351605Y-49796457D01*
X61316500Y-49619973D01*
X61316500Y-49440027D01*
X61351605Y-49263543D01*
X61420466Y-49097297D01*
X61520438Y-48947678D01*
X61647678Y-48820438D01*
X61797297Y-48720466D01*
X61894681Y-48680128D01*
X61963542Y-48651605D01*
X62051785Y-48634053D01*
X62140027Y-48616500D01*
X62319973Y-48616500D01*
X62408215Y-48634053D01*
G37*
G36*
X59868215Y-48634053D02*
G01*
X59956458Y-48651605D01*
X60025319Y-48680128D01*
X60122703Y-48720466D01*
X60272322Y-48820438D01*
X60399562Y-48947678D01*
X60499534Y-49097297D01*
X60568395Y-49263543D01*
X60603500Y-49440027D01*
X60603500Y-49619973D01*
X60568395Y-49796457D01*
X60499534Y-49962703D01*
X60399562Y-50112322D01*
X60272322Y-50239562D01*
X60122703Y-50339534D01*
X60025319Y-50379872D01*
X59956458Y-50408395D01*
X59868215Y-50425948D01*
X59779973Y-50443500D01*
X59600027Y-50443500D01*
X59511785Y-50425948D01*
X59423542Y-50408395D01*
X59354681Y-50379872D01*
X59257297Y-50339534D01*
X59107678Y-50239562D01*
X58980438Y-50112322D01*
X58880466Y-49962703D01*
X58811605Y-49796457D01*
X58776500Y-49619973D01*
X58776500Y-49440027D01*
X58811605Y-49263543D01*
X58880466Y-49097297D01*
X58980438Y-48947678D01*
X59107678Y-48820438D01*
X59257297Y-48720466D01*
X59354681Y-48680128D01*
X59423542Y-48651605D01*
X59511785Y-48634053D01*
X59600027Y-48616500D01*
X59779973Y-48616500D01*
X59868215Y-48634053D01*
G37*
G36*
X57328215Y-48634053D02*
G01*
X57416458Y-48651605D01*
X57485319Y-48680128D01*
X57582703Y-48720466D01*
X57732322Y-48820438D01*
X57859562Y-48947678D01*
X57959534Y-49097297D01*
X58028395Y-49263543D01*
X58063500Y-49440027D01*
X58063500Y-49619973D01*
X58028395Y-49796457D01*
X57959534Y-49962703D01*
X57859562Y-50112322D01*
X57732322Y-50239562D01*
X57582703Y-50339534D01*
X57485319Y-50379872D01*
X57416458Y-50408395D01*
X57328215Y-50425948D01*
X57239973Y-50443500D01*
X57060027Y-50443500D01*
X56971785Y-50425948D01*
X56883542Y-50408395D01*
X56814681Y-50379872D01*
X56717297Y-50339534D01*
X56567678Y-50239562D01*
X56440438Y-50112322D01*
X56340466Y-49962703D01*
X56271605Y-49796457D01*
X56236500Y-49619973D01*
X56236500Y-49440027D01*
X56271605Y-49263543D01*
X56340466Y-49097297D01*
X56440438Y-48947678D01*
X56567678Y-48820438D01*
X56717297Y-48720466D01*
X56814681Y-48680128D01*
X56883542Y-48651605D01*
X56971785Y-48634053D01*
X57060027Y-48616500D01*
X57239973Y-48616500D01*
X57328215Y-48634053D01*
G37*
G36*
X54788215Y-48634053D02*
G01*
X54876458Y-48651605D01*
X54945319Y-48680128D01*
X55042703Y-48720466D01*
X55192322Y-48820438D01*
X55319562Y-48947678D01*
X55419534Y-49097297D01*
X55488395Y-49263543D01*
X55523500Y-49440027D01*
X55523500Y-49619973D01*
X55488395Y-49796457D01*
X55419534Y-49962703D01*
X55319562Y-50112322D01*
X55192322Y-50239562D01*
X55042703Y-50339534D01*
X54945319Y-50379872D01*
X54876458Y-50408395D01*
X54788215Y-50425948D01*
X54699973Y-50443500D01*
X54520027Y-50443500D01*
X54431785Y-50425948D01*
X54343542Y-50408395D01*
X54274681Y-50379872D01*
X54177297Y-50339534D01*
X54027678Y-50239562D01*
X53900438Y-50112322D01*
X53800466Y-49962703D01*
X53731605Y-49796457D01*
X53696500Y-49619973D01*
X53696500Y-49440027D01*
X53731605Y-49263543D01*
X53800466Y-49097297D01*
X53900438Y-48947678D01*
X54027678Y-48820438D01*
X54177297Y-48720466D01*
X54274681Y-48680128D01*
X54343542Y-48651605D01*
X54431785Y-48634053D01*
X54520027Y-48616500D01*
X54699973Y-48616500D01*
X54788215Y-48634053D01*
G37*
G36*
X64948215Y-46094052D02*
G01*
X65036458Y-46111605D01*
X65105319Y-46140128D01*
X65202703Y-46180466D01*
X65352322Y-46280438D01*
X65479562Y-46407678D01*
X65579534Y-46557297D01*
X65648395Y-46723543D01*
X65683500Y-46900027D01*
X65683500Y-47079973D01*
X65648395Y-47256457D01*
X65579534Y-47422703D01*
X65479562Y-47572322D01*
X65352322Y-47699562D01*
X65202703Y-47799534D01*
X65105319Y-47839872D01*
X65036458Y-47868395D01*
X64948215Y-47885947D01*
X64859973Y-47903500D01*
X64680027Y-47903500D01*
X64591785Y-47885947D01*
X64503542Y-47868395D01*
X64434681Y-47839872D01*
X64337297Y-47799534D01*
X64187678Y-47699562D01*
X64060438Y-47572322D01*
X63960466Y-47422703D01*
X63891605Y-47256457D01*
X63856500Y-47079973D01*
X63856500Y-46900027D01*
X63891605Y-46723543D01*
X63960466Y-46557297D01*
X64060438Y-46407678D01*
X64187678Y-46280438D01*
X64337297Y-46180466D01*
X64434681Y-46140128D01*
X64503542Y-46111605D01*
X64591785Y-46094052D01*
X64680027Y-46076500D01*
X64859973Y-46076500D01*
X64948215Y-46094052D01*
G37*
G36*
X72568215Y-46094052D02*
G01*
X72656458Y-46111605D01*
X72725319Y-46140128D01*
X72822703Y-46180466D01*
X72972322Y-46280438D01*
X73099562Y-46407678D01*
X73199534Y-46557297D01*
X73268395Y-46723543D01*
X73303500Y-46900027D01*
X73303500Y-47079973D01*
X73268395Y-47256457D01*
X73199534Y-47422703D01*
X73099562Y-47572322D01*
X72972322Y-47699562D01*
X72822703Y-47799534D01*
X72725319Y-47839872D01*
X72656458Y-47868395D01*
X72568215Y-47885947D01*
X72479973Y-47903500D01*
X72300027Y-47903500D01*
X72211785Y-47885947D01*
X72123542Y-47868395D01*
X72054681Y-47839872D01*
X71957297Y-47799534D01*
X71807678Y-47699562D01*
X71680438Y-47572322D01*
X71580466Y-47422703D01*
X71511605Y-47256457D01*
X71476500Y-47079973D01*
X71476500Y-46900027D01*
X71511605Y-46723543D01*
X71580466Y-46557297D01*
X71680438Y-46407678D01*
X71807678Y-46280438D01*
X71957297Y-46180466D01*
X72054681Y-46140128D01*
X72123542Y-46111605D01*
X72211785Y-46094052D01*
X72300027Y-46076500D01*
X72479973Y-46076500D01*
X72568215Y-46094052D01*
G37*
G36*
X70028215Y-46094052D02*
G01*
X70116458Y-46111605D01*
X70185319Y-46140128D01*
X70282703Y-46180466D01*
X70432322Y-46280438D01*
X70559562Y-46407678D01*
X70659534Y-46557297D01*
X70728395Y-46723543D01*
X70763500Y-46900027D01*
X70763500Y-47079973D01*
X70728395Y-47256457D01*
X70659534Y-47422703D01*
X70559562Y-47572322D01*
X70432322Y-47699562D01*
X70282703Y-47799534D01*
X70185319Y-47839872D01*
X70116458Y-47868395D01*
X70028215Y-47885947D01*
X69939973Y-47903500D01*
X69760027Y-47903500D01*
X69671785Y-47885947D01*
X69583542Y-47868395D01*
X69514681Y-47839872D01*
X69417297Y-47799534D01*
X69267678Y-47699562D01*
X69140438Y-47572322D01*
X69040466Y-47422703D01*
X68971605Y-47256457D01*
X68936500Y-47079973D01*
X68936500Y-46900027D01*
X68971605Y-46723543D01*
X69040466Y-46557297D01*
X69140438Y-46407678D01*
X69267678Y-46280438D01*
X69417297Y-46180466D01*
X69514681Y-46140128D01*
X69583542Y-46111605D01*
X69671785Y-46094052D01*
X69760027Y-46076500D01*
X69939973Y-46076500D01*
X70028215Y-46094052D01*
G37*
G36*
X67488215Y-46094052D02*
G01*
X67576458Y-46111605D01*
X67645319Y-46140128D01*
X67742703Y-46180466D01*
X67892322Y-46280438D01*
X68019562Y-46407678D01*
X68119534Y-46557297D01*
X68188395Y-46723543D01*
X68223500Y-46900027D01*
X68223500Y-47079973D01*
X68188395Y-47256457D01*
X68119534Y-47422703D01*
X68019562Y-47572322D01*
X67892322Y-47699562D01*
X67742703Y-47799534D01*
X67645319Y-47839872D01*
X67576458Y-47868395D01*
X67488215Y-47885947D01*
X67399973Y-47903500D01*
X67220027Y-47903500D01*
X67131785Y-47885947D01*
X67043542Y-47868395D01*
X66974681Y-47839872D01*
X66877297Y-47799534D01*
X66727678Y-47699562D01*
X66600438Y-47572322D01*
X66500466Y-47422703D01*
X66431605Y-47256457D01*
X66396500Y-47079973D01*
X66396500Y-46900027D01*
X66431605Y-46723543D01*
X66500466Y-46557297D01*
X66600438Y-46407678D01*
X66727678Y-46280438D01*
X66877297Y-46180466D01*
X66974681Y-46140128D01*
X67043542Y-46111605D01*
X67131785Y-46094052D01*
X67220027Y-46076500D01*
X67399973Y-46076500D01*
X67488215Y-46094052D01*
G37*
G36*
X62408215Y-46094052D02*
G01*
X62496458Y-46111605D01*
X62565319Y-46140128D01*
X62662703Y-46180466D01*
X62812322Y-46280438D01*
X62939562Y-46407678D01*
X63039534Y-46557297D01*
X63108395Y-46723543D01*
X63143500Y-46900027D01*
X63143500Y-47079973D01*
X63108395Y-47256457D01*
X63039534Y-47422703D01*
X62939562Y-47572322D01*
X62812322Y-47699562D01*
X62662703Y-47799534D01*
X62565319Y-47839872D01*
X62496458Y-47868395D01*
X62408215Y-47885947D01*
X62319973Y-47903500D01*
X62140027Y-47903500D01*
X62051785Y-47885947D01*
X61963542Y-47868395D01*
X61894681Y-47839872D01*
X61797297Y-47799534D01*
X61647678Y-47699562D01*
X61520438Y-47572322D01*
X61420466Y-47422703D01*
X61351605Y-47256457D01*
X61316500Y-47079973D01*
X61316500Y-46900027D01*
X61351605Y-46723543D01*
X61420466Y-46557297D01*
X61520438Y-46407678D01*
X61647678Y-46280438D01*
X61797297Y-46180466D01*
X61894681Y-46140128D01*
X61963542Y-46111605D01*
X62051785Y-46094052D01*
X62140027Y-46076500D01*
X62319973Y-46076500D01*
X62408215Y-46094052D01*
G37*
G36*
X59868215Y-46094052D02*
G01*
X59956458Y-46111605D01*
X60025319Y-46140128D01*
X60122703Y-46180466D01*
X60272322Y-46280438D01*
X60399562Y-46407678D01*
X60499534Y-46557297D01*
X60568395Y-46723543D01*
X60603500Y-46900027D01*
X60603500Y-47079973D01*
X60568395Y-47256457D01*
X60499534Y-47422703D01*
X60399562Y-47572322D01*
X60272322Y-47699562D01*
X60122703Y-47799534D01*
X60025319Y-47839872D01*
X59956458Y-47868395D01*
X59868215Y-47885947D01*
X59779973Y-47903500D01*
X59600027Y-47903500D01*
X59511785Y-47885947D01*
X59423542Y-47868395D01*
X59354681Y-47839872D01*
X59257297Y-47799534D01*
X59107678Y-47699562D01*
X58980438Y-47572322D01*
X58880466Y-47422703D01*
X58811605Y-47256457D01*
X58776500Y-47079973D01*
X58776500Y-46900027D01*
X58811605Y-46723543D01*
X58880466Y-46557297D01*
X58980438Y-46407678D01*
X59107678Y-46280438D01*
X59257297Y-46180466D01*
X59354681Y-46140128D01*
X59423542Y-46111605D01*
X59511785Y-46094052D01*
X59600027Y-46076500D01*
X59779973Y-46076500D01*
X59868215Y-46094052D01*
G37*
G36*
X57328215Y-46094052D02*
G01*
X57416458Y-46111605D01*
X57485319Y-46140128D01*
X57582703Y-46180466D01*
X57732322Y-46280438D01*
X57859562Y-46407678D01*
X57959534Y-46557297D01*
X58028395Y-46723543D01*
X58063500Y-46900027D01*
X58063500Y-47079973D01*
X58028395Y-47256457D01*
X57959534Y-47422703D01*
X57859562Y-47572322D01*
X57732322Y-47699562D01*
X57582703Y-47799534D01*
X57485319Y-47839872D01*
X57416458Y-47868395D01*
X57328215Y-47885947D01*
X57239973Y-47903500D01*
X57060027Y-47903500D01*
X56971785Y-47885947D01*
X56883542Y-47868395D01*
X56814681Y-47839872D01*
X56717297Y-47799534D01*
X56567678Y-47699562D01*
X56440438Y-47572322D01*
X56340466Y-47422703D01*
X56271605Y-47256457D01*
X56236500Y-47079973D01*
X56236500Y-46900027D01*
X56271605Y-46723543D01*
X56340466Y-46557297D01*
X56440438Y-46407678D01*
X56567678Y-46280438D01*
X56717297Y-46180466D01*
X56814681Y-46140128D01*
X56883542Y-46111605D01*
X56971785Y-46094052D01*
X57060027Y-46076500D01*
X57239973Y-46076500D01*
X57328215Y-46094052D01*
G37*
G36*
X54788215Y-46094052D02*
G01*
X54876458Y-46111605D01*
X54945319Y-46140128D01*
X55042703Y-46180466D01*
X55192322Y-46280438D01*
X55319562Y-46407678D01*
X55419534Y-46557297D01*
X55488395Y-46723543D01*
X55523500Y-46900027D01*
X55523500Y-47079973D01*
X55488395Y-47256457D01*
X55419534Y-47422703D01*
X55319562Y-47572322D01*
X55192322Y-47699562D01*
X55042703Y-47799534D01*
X54945319Y-47839872D01*
X54876458Y-47868395D01*
X54788215Y-47885947D01*
X54699973Y-47903500D01*
X54520027Y-47903500D01*
X54431785Y-47885947D01*
X54343542Y-47868395D01*
X54274681Y-47839872D01*
X54177297Y-47799534D01*
X54027678Y-47699562D01*
X53900438Y-47572322D01*
X53800466Y-47422703D01*
X53731605Y-47256457D01*
X53696500Y-47079973D01*
X53696500Y-46900027D01*
X53731605Y-46723543D01*
X53800466Y-46557297D01*
X53900438Y-46407678D01*
X54027678Y-46280438D01*
X54177297Y-46180466D01*
X54274681Y-46140128D01*
X54343542Y-46111605D01*
X54431785Y-46094052D01*
X54520027Y-46076500D01*
X54699973Y-46076500D01*
X54788215Y-46094052D01*
G37*
G36*
X97858228Y-36503304D02*
G01*
X98013100Y-36567454D01*
X98152481Y-36660586D01*
X98271015Y-36779120D01*
X98364147Y-36918501D01*
X98428297Y-37073373D01*
X98461000Y-37237785D01*
X98461000Y-37405417D01*
X98428297Y-37569829D01*
X98364147Y-37724701D01*
X98271015Y-37864082D01*
X98152481Y-37982616D01*
X98013100Y-38075748D01*
X97858228Y-38139898D01*
X97693816Y-38172601D01*
X97526184Y-38172601D01*
X97361772Y-38139898D01*
X97206900Y-38075748D01*
X97067519Y-37982616D01*
X96948985Y-37864082D01*
X96855853Y-37724701D01*
X96791703Y-37569829D01*
X96759000Y-37405417D01*
X96759000Y-37237785D01*
X96791703Y-37073373D01*
X96855853Y-36918501D01*
X96948985Y-36779120D01*
X97067519Y-36660586D01*
X97206900Y-36567454D01*
X97361772Y-36503304D01*
X97526184Y-36470601D01*
X97693816Y-36470601D01*
X97858228Y-36503304D01*
G37*
G36*
X97858228Y-34003304D02*
G01*
X98013100Y-34067454D01*
X98152481Y-34160586D01*
X98271015Y-34279120D01*
X98364147Y-34418501D01*
X98428297Y-34573373D01*
X98461000Y-34737785D01*
X98461000Y-34905417D01*
X98428297Y-35069829D01*
X98364147Y-35224701D01*
X98271015Y-35364082D01*
X98152481Y-35482616D01*
X98013100Y-35575748D01*
X97858228Y-35639898D01*
X97693816Y-35672601D01*
X97526184Y-35672601D01*
X97361772Y-35639898D01*
X97206900Y-35575748D01*
X97067519Y-35482616D01*
X96948985Y-35364082D01*
X96855853Y-35224701D01*
X96791703Y-35069829D01*
X96759000Y-34905417D01*
X96759000Y-34737785D01*
X96791703Y-34573373D01*
X96855853Y-34418501D01*
X96948985Y-34279120D01*
X97067519Y-34160586D01*
X97206900Y-34067454D01*
X97361772Y-34003304D01*
X97526184Y-33970601D01*
X97693816Y-33970601D01*
X97858228Y-34003304D01*
G37*
G36*
X42147142Y-33668242D02*
G01*
X42295101Y-33729529D01*
X42428255Y-33818499D01*
X42541501Y-33931745D01*
X42630471Y-34064899D01*
X42691758Y-34212858D01*
X42723000Y-34369925D01*
X42723000Y-34530075D01*
X42691758Y-34687142D01*
X42630471Y-34835101D01*
X42541501Y-34968255D01*
X42428255Y-35081501D01*
X42295101Y-35170471D01*
X42147142Y-35231758D01*
X41990075Y-35263000D01*
X41829925Y-35263000D01*
X41672858Y-35231758D01*
X41524899Y-35170471D01*
X41391745Y-35081501D01*
X41278499Y-34968255D01*
X41189529Y-34835101D01*
X41128242Y-34687142D01*
X41097000Y-34530075D01*
X41097000Y-34369925D01*
X41128242Y-34212858D01*
X41189529Y-34064899D01*
X41278499Y-33931745D01*
X41391745Y-33818499D01*
X41524899Y-33729529D01*
X41672858Y-33668242D01*
X41829925Y-33637000D01*
X41990075Y-33637000D01*
X42147142Y-33668242D01*
G37*
G36*
X57387142Y-33668242D02*
G01*
X57535101Y-33729529D01*
X57668255Y-33818499D01*
X57781501Y-33931745D01*
X57870471Y-34064899D01*
X57931758Y-34212858D01*
X57963000Y-34369925D01*
X57963000Y-34530075D01*
X57931758Y-34687142D01*
X57870471Y-34835101D01*
X57781501Y-34968255D01*
X57668255Y-35081501D01*
X57535101Y-35170471D01*
X57387142Y-35231758D01*
X57230075Y-35263000D01*
X57069925Y-35263000D01*
X56912858Y-35231758D01*
X56764899Y-35170471D01*
X56631745Y-35081501D01*
X56518499Y-34968255D01*
X56429529Y-34835101D01*
X56368242Y-34687142D01*
X56337000Y-34530075D01*
X56337000Y-34369925D01*
X56368242Y-34212858D01*
X56429529Y-34064899D01*
X56518499Y-33931745D01*
X56631745Y-33818499D01*
X56764899Y-33729529D01*
X56912858Y-33668242D01*
X57069925Y-33637000D01*
X57230075Y-33637000D01*
X57387142Y-33668242D01*
G37*
G36*
X26907142Y-33668242D02*
G01*
X27055101Y-33729529D01*
X27188255Y-33818499D01*
X27301501Y-33931745D01*
X27390471Y-34064899D01*
X27451758Y-34212858D01*
X27483000Y-34369925D01*
X27483000Y-34530075D01*
X27451758Y-34687142D01*
X27390471Y-34835101D01*
X27301501Y-34968255D01*
X27188255Y-35081501D01*
X27055101Y-35170471D01*
X26907142Y-35231758D01*
X26750075Y-35263000D01*
X26589925Y-35263000D01*
X26432858Y-35231758D01*
X26284899Y-35170471D01*
X26151745Y-35081501D01*
X26038499Y-34968255D01*
X25949529Y-34835101D01*
X25888242Y-34687142D01*
X25857000Y-34530075D01*
X25857000Y-34369925D01*
X25888242Y-34212858D01*
X25949529Y-34064899D01*
X26038499Y-33931745D01*
X26151745Y-33818499D01*
X26284899Y-33729529D01*
X26432858Y-33668242D01*
X26589925Y-33637000D01*
X26750075Y-33637000D01*
X26907142Y-33668242D01*
G37*
G36*
X72627142Y-33668242D02*
G01*
X72775101Y-33729529D01*
X72908255Y-33818499D01*
X73021501Y-33931745D01*
X73110471Y-34064899D01*
X73171758Y-34212858D01*
X73203000Y-34369925D01*
X73203000Y-34530075D01*
X73171758Y-34687142D01*
X73110471Y-34835101D01*
X73021501Y-34968255D01*
X72908255Y-35081501D01*
X72775101Y-35170471D01*
X72627142Y-35231758D01*
X72470075Y-35263000D01*
X72309925Y-35263000D01*
X72152858Y-35231758D01*
X72004899Y-35170471D01*
X71871745Y-35081501D01*
X71758499Y-34968255D01*
X71669529Y-34835101D01*
X71608242Y-34687142D01*
X71577000Y-34530075D01*
X71577000Y-34369925D01*
X71608242Y-34212858D01*
X71669529Y-34064899D01*
X71758499Y-33931745D01*
X71871745Y-33818499D01*
X72004899Y-33729529D01*
X72152858Y-33668242D01*
X72309925Y-33637000D01*
X72470075Y-33637000D01*
X72627142Y-33668242D01*
G37*
G36*
X54847142Y-33508242D02*
G01*
X54995101Y-33569529D01*
X55128255Y-33658499D01*
X55241501Y-33771745D01*
X55330471Y-33904899D01*
X55391758Y-34052858D01*
X55423000Y-34209925D01*
X55423000Y-34370075D01*
X55391758Y-34527142D01*
X55330471Y-34675101D01*
X55241501Y-34808255D01*
X55128255Y-34921501D01*
X54995101Y-35010471D01*
X54847142Y-35071758D01*
X54690075Y-35103000D01*
X54529925Y-35103000D01*
X54372858Y-35071758D01*
X54224899Y-35010471D01*
X54091745Y-34921501D01*
X53978499Y-34808255D01*
X53889529Y-34675101D01*
X53828242Y-34527142D01*
X53797000Y-34370075D01*
X53797000Y-34209925D01*
X53828242Y-34052858D01*
X53889529Y-33904899D01*
X53978499Y-33771745D01*
X54091745Y-33658499D01*
X54224899Y-33569529D01*
X54372858Y-33508242D01*
X54529925Y-33477000D01*
X54690075Y-33477000D01*
X54847142Y-33508242D01*
G37*
G36*
X59927142Y-33508242D02*
G01*
X60075101Y-33569529D01*
X60208255Y-33658499D01*
X60321501Y-33771745D01*
X60410471Y-33904899D01*
X60471758Y-34052858D01*
X60503000Y-34209925D01*
X60503000Y-34370075D01*
X60471758Y-34527142D01*
X60410471Y-34675101D01*
X60321501Y-34808255D01*
X60208255Y-34921501D01*
X60075101Y-35010471D01*
X59927142Y-35071758D01*
X59770075Y-35103000D01*
X59609925Y-35103000D01*
X59452858Y-35071758D01*
X59304899Y-35010471D01*
X59171745Y-34921501D01*
X59058499Y-34808255D01*
X58969529Y-34675101D01*
X58908242Y-34527142D01*
X58877000Y-34370075D01*
X58877000Y-34209925D01*
X58908242Y-34052858D01*
X58969529Y-33904899D01*
X59058499Y-33771745D01*
X59171745Y-33658499D01*
X59304899Y-33569529D01*
X59452858Y-33508242D01*
X59609925Y-33477000D01*
X59770075Y-33477000D01*
X59927142Y-33508242D01*
G37*
G36*
X39607142Y-33508242D02*
G01*
X39755101Y-33569529D01*
X39888255Y-33658499D01*
X40001501Y-33771745D01*
X40090471Y-33904899D01*
X40151758Y-34052858D01*
X40183000Y-34209925D01*
X40183000Y-34370075D01*
X40151758Y-34527142D01*
X40090471Y-34675101D01*
X40001501Y-34808255D01*
X39888255Y-34921501D01*
X39755101Y-35010471D01*
X39607142Y-35071758D01*
X39450075Y-35103000D01*
X39289925Y-35103000D01*
X39132858Y-35071758D01*
X38984899Y-35010471D01*
X38851745Y-34921501D01*
X38738499Y-34808255D01*
X38649529Y-34675101D01*
X38588242Y-34527142D01*
X38557000Y-34370075D01*
X38557000Y-34209925D01*
X38588242Y-34052858D01*
X38649529Y-33904899D01*
X38738499Y-33771745D01*
X38851745Y-33658499D01*
X38984899Y-33569529D01*
X39132858Y-33508242D01*
X39289925Y-33477000D01*
X39450075Y-33477000D01*
X39607142Y-33508242D01*
G37*
G36*
X44687142Y-33508242D02*
G01*
X44835101Y-33569529D01*
X44968255Y-33658499D01*
X45081501Y-33771745D01*
X45170471Y-33904899D01*
X45231758Y-34052858D01*
X45263000Y-34209925D01*
X45263000Y-34370075D01*
X45231758Y-34527142D01*
X45170471Y-34675101D01*
X45081501Y-34808255D01*
X44968255Y-34921501D01*
X44835101Y-35010471D01*
X44687142Y-35071758D01*
X44530075Y-35103000D01*
X44369925Y-35103000D01*
X44212858Y-35071758D01*
X44064899Y-35010471D01*
X43931745Y-34921501D01*
X43818499Y-34808255D01*
X43729529Y-34675101D01*
X43668242Y-34527142D01*
X43637000Y-34370075D01*
X43637000Y-34209925D01*
X43668242Y-34052858D01*
X43729529Y-33904899D01*
X43818499Y-33771745D01*
X43931745Y-33658499D01*
X44064899Y-33569529D01*
X44212858Y-33508242D01*
X44369925Y-33477000D01*
X44530075Y-33477000D01*
X44687142Y-33508242D01*
G37*
G36*
X24367142Y-33508242D02*
G01*
X24515101Y-33569529D01*
X24648255Y-33658499D01*
X24761501Y-33771745D01*
X24850471Y-33904899D01*
X24911758Y-34052858D01*
X24943000Y-34209925D01*
X24943000Y-34370075D01*
X24911758Y-34527142D01*
X24850471Y-34675101D01*
X24761501Y-34808255D01*
X24648255Y-34921501D01*
X24515101Y-35010471D01*
X24367142Y-35071758D01*
X24210075Y-35103000D01*
X24049925Y-35103000D01*
X23892858Y-35071758D01*
X23744899Y-35010471D01*
X23611745Y-34921501D01*
X23498499Y-34808255D01*
X23409529Y-34675101D01*
X23348242Y-34527142D01*
X23317000Y-34370075D01*
X23317000Y-34209925D01*
X23348242Y-34052858D01*
X23409529Y-33904899D01*
X23498499Y-33771745D01*
X23611745Y-33658499D01*
X23744899Y-33569529D01*
X23892858Y-33508242D01*
X24049925Y-33477000D01*
X24210075Y-33477000D01*
X24367142Y-33508242D01*
G37*
G36*
X29447142Y-33508242D02*
G01*
X29595101Y-33569529D01*
X29728255Y-33658499D01*
X29841501Y-33771745D01*
X29930471Y-33904899D01*
X29991758Y-34052858D01*
X30023000Y-34209925D01*
X30023000Y-34370075D01*
X29991758Y-34527142D01*
X29930471Y-34675101D01*
X29841501Y-34808255D01*
X29728255Y-34921501D01*
X29595101Y-35010471D01*
X29447142Y-35071758D01*
X29290075Y-35103000D01*
X29129925Y-35103000D01*
X28972858Y-35071758D01*
X28824899Y-35010471D01*
X28691745Y-34921501D01*
X28578499Y-34808255D01*
X28489529Y-34675101D01*
X28428242Y-34527142D01*
X28397000Y-34370075D01*
X28397000Y-34209925D01*
X28428242Y-34052858D01*
X28489529Y-33904899D01*
X28578499Y-33771745D01*
X28691745Y-33658499D01*
X28824899Y-33569529D01*
X28972858Y-33508242D01*
X29129925Y-33477000D01*
X29290075Y-33477000D01*
X29447142Y-33508242D01*
G37*
G36*
X70087142Y-33508242D02*
G01*
X70235101Y-33569529D01*
X70368255Y-33658499D01*
X70481501Y-33771745D01*
X70570471Y-33904899D01*
X70631758Y-34052858D01*
X70663000Y-34209925D01*
X70663000Y-34370075D01*
X70631758Y-34527142D01*
X70570471Y-34675101D01*
X70481501Y-34808255D01*
X70368255Y-34921501D01*
X70235101Y-35010471D01*
X70087142Y-35071758D01*
X69930075Y-35103000D01*
X69769925Y-35103000D01*
X69612858Y-35071758D01*
X69464899Y-35010471D01*
X69331745Y-34921501D01*
X69218499Y-34808255D01*
X69129529Y-34675101D01*
X69068242Y-34527142D01*
X69037000Y-34370075D01*
X69037000Y-34209925D01*
X69068242Y-34052858D01*
X69129529Y-33904899D01*
X69218499Y-33771745D01*
X69331745Y-33658499D01*
X69464899Y-33569529D01*
X69612858Y-33508242D01*
X69769925Y-33477000D01*
X69930075Y-33477000D01*
X70087142Y-33508242D01*
G37*
G36*
X75167142Y-33508242D02*
G01*
X75315101Y-33569529D01*
X75448255Y-33658499D01*
X75561501Y-33771745D01*
X75650471Y-33904899D01*
X75711758Y-34052858D01*
X75743000Y-34209925D01*
X75743000Y-34370075D01*
X75711758Y-34527142D01*
X75650471Y-34675101D01*
X75561501Y-34808255D01*
X75448255Y-34921501D01*
X75315101Y-35010471D01*
X75167142Y-35071758D01*
X75010075Y-35103000D01*
X74849925Y-35103000D01*
X74692858Y-35071758D01*
X74544899Y-35010471D01*
X74411745Y-34921501D01*
X74298499Y-34808255D01*
X74209529Y-34675101D01*
X74148242Y-34527142D01*
X74117000Y-34370075D01*
X74117000Y-34209925D01*
X74148242Y-34052858D01*
X74209529Y-33904899D01*
X74298499Y-33771745D01*
X74411745Y-33658499D01*
X74544899Y-33569529D01*
X74692858Y-33508242D01*
X74849925Y-33477000D01*
X75010075Y-33477000D01*
X75167142Y-33508242D01*
G37*
G36*
X128776150Y-30792717D02*
G01*
X128887335Y-30814833D01*
X129096804Y-30901598D01*
X129285321Y-31027561D01*
X129445641Y-31187881D01*
X129571604Y-31376398D01*
X129571605Y-31376400D01*
X129658369Y-31585868D01*
X129702601Y-31808236D01*
X129702601Y-32034966D01*
X129658369Y-32257334D01*
X129572732Y-32464082D01*
X129571604Y-32466804D01*
X129445641Y-32655321D01*
X129285321Y-32815641D01*
X129096804Y-32941604D01*
X128887335Y-33028369D01*
X128776150Y-33050485D01*
X128664966Y-33072601D01*
X128438236Y-33072601D01*
X128327052Y-33050485D01*
X128215867Y-33028369D01*
X128006398Y-32941604D01*
X127817881Y-32815641D01*
X127657561Y-32655321D01*
X127531598Y-32466804D01*
X127530471Y-32464082D01*
X127444833Y-32257334D01*
X127400601Y-32034966D01*
X127400601Y-31808236D01*
X127444833Y-31585868D01*
X127531597Y-31376400D01*
X127531598Y-31376398D01*
X127657561Y-31187881D01*
X127817881Y-31027561D01*
X128006398Y-30901598D01*
X128215867Y-30814833D01*
X128327052Y-30792717D01*
X128438236Y-30770601D01*
X128664966Y-30770601D01*
X128776150Y-30792717D01*
G37*
G36*
X109776150Y-30792717D02*
G01*
X109887335Y-30814833D01*
X110096804Y-30901598D01*
X110285321Y-31027561D01*
X110445641Y-31187881D01*
X110571604Y-31376398D01*
X110571605Y-31376400D01*
X110658369Y-31585868D01*
X110702601Y-31808236D01*
X110702601Y-32034966D01*
X110658369Y-32257334D01*
X110572732Y-32464082D01*
X110571604Y-32466804D01*
X110445641Y-32655321D01*
X110285321Y-32815641D01*
X110096804Y-32941604D01*
X109887335Y-33028369D01*
X109776150Y-33050485D01*
X109664966Y-33072601D01*
X109438236Y-33072601D01*
X109327052Y-33050485D01*
X109215867Y-33028369D01*
X109006398Y-32941604D01*
X108817881Y-32815641D01*
X108657561Y-32655321D01*
X108531598Y-32466804D01*
X108530471Y-32464082D01*
X108444833Y-32257334D01*
X108400601Y-32034966D01*
X108400601Y-31808236D01*
X108444833Y-31585868D01*
X108531597Y-31376400D01*
X108531598Y-31376398D01*
X108657561Y-31187881D01*
X108817881Y-31027561D01*
X109006398Y-30901598D01*
X109215867Y-30814833D01*
X109327052Y-30792717D01*
X109438236Y-30770601D01*
X109664966Y-30770601D01*
X109776150Y-30792717D01*
G37*
G36*
X100458228Y-31103304D02*
G01*
X100613100Y-31167454D01*
X100752481Y-31260586D01*
X100871015Y-31379120D01*
X100964147Y-31518501D01*
X101028297Y-31673373D01*
X101061000Y-31837785D01*
X101061000Y-32005417D01*
X101028297Y-32169829D01*
X100964147Y-32324701D01*
X100871015Y-32464082D01*
X100752481Y-32582616D01*
X100613100Y-32675748D01*
X100458228Y-32739898D01*
X100293816Y-32772601D01*
X100126184Y-32772601D01*
X99961772Y-32739898D01*
X99806900Y-32675748D01*
X99667519Y-32582616D01*
X99548985Y-32464082D01*
X99455853Y-32324701D01*
X99391703Y-32169829D01*
X99359000Y-32005417D01*
X99359000Y-31837785D01*
X99391703Y-31673373D01*
X99455853Y-31518501D01*
X99548985Y-31379120D01*
X99667519Y-31260586D01*
X99806900Y-31167454D01*
X99961772Y-31103304D01*
X100126184Y-31070601D01*
X100293816Y-31070601D01*
X100458228Y-31103304D01*
G37*
G36*
X85458228Y-31103304D02*
G01*
X85613100Y-31167454D01*
X85752481Y-31260586D01*
X85871015Y-31379120D01*
X85964147Y-31518501D01*
X86028297Y-31673373D01*
X86061000Y-31837785D01*
X86061000Y-32005417D01*
X86028297Y-32169829D01*
X85964147Y-32324701D01*
X85871015Y-32464082D01*
X85752481Y-32582616D01*
X85613100Y-32675748D01*
X85458228Y-32739898D01*
X85293816Y-32772601D01*
X85126184Y-32772601D01*
X84961772Y-32739898D01*
X84806900Y-32675748D01*
X84667519Y-32582616D01*
X84548985Y-32464082D01*
X84455853Y-32324701D01*
X84391703Y-32169829D01*
X84359000Y-32005417D01*
X84359000Y-31837785D01*
X84391703Y-31673373D01*
X84455853Y-31518501D01*
X84548985Y-31379120D01*
X84667519Y-31260586D01*
X84806900Y-31167454D01*
X84961772Y-31103304D01*
X85126184Y-31070601D01*
X85293816Y-31070601D01*
X85458228Y-31103304D01*
G37*
G36*
X39607142Y-28428242D02*
G01*
X39755101Y-28489529D01*
X39888255Y-28578499D01*
X40001501Y-28691745D01*
X40090471Y-28824899D01*
X40151758Y-28972858D01*
X40183000Y-29129925D01*
X40183000Y-29290075D01*
X40151758Y-29447142D01*
X40090471Y-29595101D01*
X40001501Y-29728255D01*
X39888255Y-29841501D01*
X39755101Y-29930471D01*
X39607142Y-29991758D01*
X39450075Y-30023000D01*
X39289925Y-30023000D01*
X39132858Y-29991758D01*
X38984899Y-29930471D01*
X38851745Y-29841501D01*
X38738499Y-29728255D01*
X38649529Y-29595101D01*
X38588242Y-29447142D01*
X38557000Y-29290075D01*
X38557000Y-29129925D01*
X38588242Y-28972858D01*
X38649529Y-28824899D01*
X38738499Y-28691745D01*
X38851745Y-28578499D01*
X38984899Y-28489529D01*
X39132858Y-28428242D01*
X39289925Y-28397000D01*
X39450075Y-28397000D01*
X39607142Y-28428242D01*
G37*
G36*
X75167142Y-28428242D02*
G01*
X75315101Y-28489529D01*
X75448255Y-28578499D01*
X75561501Y-28691745D01*
X75650471Y-28824899D01*
X75711758Y-28972858D01*
X75743000Y-29129925D01*
X75743000Y-29290075D01*
X75711758Y-29447142D01*
X75650471Y-29595101D01*
X75561501Y-29728255D01*
X75448255Y-29841501D01*
X75315101Y-29930471D01*
X75167142Y-29991758D01*
X75010075Y-30023000D01*
X74849925Y-30023000D01*
X74692858Y-29991758D01*
X74544899Y-29930471D01*
X74411745Y-29841501D01*
X74298499Y-29728255D01*
X74209529Y-29595101D01*
X74148242Y-29447142D01*
X74117000Y-29290075D01*
X74117000Y-29129925D01*
X74148242Y-28972858D01*
X74209529Y-28824899D01*
X74298499Y-28691745D01*
X74411745Y-28578499D01*
X74544899Y-28489529D01*
X74692858Y-28428242D01*
X74849925Y-28397000D01*
X75010075Y-28397000D01*
X75167142Y-28428242D01*
G37*
G36*
X70087142Y-28428242D02*
G01*
X70235101Y-28489529D01*
X70368255Y-28578499D01*
X70481501Y-28691745D01*
X70570471Y-28824899D01*
X70631758Y-28972858D01*
X70663000Y-29129925D01*
X70663000Y-29290075D01*
X70631758Y-29447142D01*
X70570471Y-29595101D01*
X70481501Y-29728255D01*
X70368255Y-29841501D01*
X70235101Y-29930471D01*
X70087142Y-29991758D01*
X69930075Y-30023000D01*
X69769925Y-30023000D01*
X69612858Y-29991758D01*
X69464899Y-29930471D01*
X69331745Y-29841501D01*
X69218499Y-29728255D01*
X69129529Y-29595101D01*
X69068242Y-29447142D01*
X69037000Y-29290075D01*
X69037000Y-29129925D01*
X69068242Y-28972858D01*
X69129529Y-28824899D01*
X69218499Y-28691745D01*
X69331745Y-28578499D01*
X69464899Y-28489529D01*
X69612858Y-28428242D01*
X69769925Y-28397000D01*
X69930075Y-28397000D01*
X70087142Y-28428242D01*
G37*
G36*
X29447142Y-28428242D02*
G01*
X29595101Y-28489529D01*
X29728255Y-28578499D01*
X29841501Y-28691745D01*
X29930471Y-28824899D01*
X29991758Y-28972858D01*
X30023000Y-29129925D01*
X30023000Y-29290075D01*
X29991758Y-29447142D01*
X29930471Y-29595101D01*
X29841501Y-29728255D01*
X29728255Y-29841501D01*
X29595101Y-29930471D01*
X29447142Y-29991758D01*
X29290075Y-30023000D01*
X29129925Y-30023000D01*
X28972858Y-29991758D01*
X28824899Y-29930471D01*
X28691745Y-29841501D01*
X28578499Y-29728255D01*
X28489529Y-29595101D01*
X28428242Y-29447142D01*
X28397000Y-29290075D01*
X28397000Y-29129925D01*
X28428242Y-28972858D01*
X28489529Y-28824899D01*
X28578499Y-28691745D01*
X28691745Y-28578499D01*
X28824899Y-28489529D01*
X28972858Y-28428242D01*
X29129925Y-28397000D01*
X29290075Y-28397000D01*
X29447142Y-28428242D01*
G37*
G36*
X24367142Y-28428242D02*
G01*
X24515101Y-28489529D01*
X24648255Y-28578499D01*
X24761501Y-28691745D01*
X24850471Y-28824899D01*
X24911758Y-28972858D01*
X24943000Y-29129925D01*
X24943000Y-29290075D01*
X24911758Y-29447142D01*
X24850471Y-29595101D01*
X24761501Y-29728255D01*
X24648255Y-29841501D01*
X24515101Y-29930471D01*
X24367142Y-29991758D01*
X24210075Y-30023000D01*
X24049925Y-30023000D01*
X23892858Y-29991758D01*
X23744899Y-29930471D01*
X23611745Y-29841501D01*
X23498499Y-29728255D01*
X23409529Y-29595101D01*
X23348242Y-29447142D01*
X23317000Y-29290075D01*
X23317000Y-29129925D01*
X23348242Y-28972858D01*
X23409529Y-28824899D01*
X23498499Y-28691745D01*
X23611745Y-28578499D01*
X23744899Y-28489529D01*
X23892858Y-28428242D01*
X24049925Y-28397000D01*
X24210075Y-28397000D01*
X24367142Y-28428242D01*
G37*
G36*
X44687142Y-28428242D02*
G01*
X44835101Y-28489529D01*
X44968255Y-28578499D01*
X45081501Y-28691745D01*
X45170471Y-28824899D01*
X45231758Y-28972858D01*
X45263000Y-29129925D01*
X45263000Y-29290075D01*
X45231758Y-29447142D01*
X45170471Y-29595101D01*
X45081501Y-29728255D01*
X44968255Y-29841501D01*
X44835101Y-29930471D01*
X44687142Y-29991758D01*
X44530075Y-30023000D01*
X44369925Y-30023000D01*
X44212858Y-29991758D01*
X44064899Y-29930471D01*
X43931745Y-29841501D01*
X43818499Y-29728255D01*
X43729529Y-29595101D01*
X43668242Y-29447142D01*
X43637000Y-29290075D01*
X43637000Y-29129925D01*
X43668242Y-28972858D01*
X43729529Y-28824899D01*
X43818499Y-28691745D01*
X43931745Y-28578499D01*
X44064899Y-28489529D01*
X44212858Y-28428242D01*
X44369925Y-28397000D01*
X44530075Y-28397000D01*
X44687142Y-28428242D01*
G37*
G36*
X59927142Y-28428242D02*
G01*
X60075101Y-28489529D01*
X60208255Y-28578499D01*
X60321501Y-28691745D01*
X60410471Y-28824899D01*
X60471758Y-28972858D01*
X60503000Y-29129925D01*
X60503000Y-29290075D01*
X60471758Y-29447142D01*
X60410471Y-29595101D01*
X60321501Y-29728255D01*
X60208255Y-29841501D01*
X60075101Y-29930471D01*
X59927142Y-29991758D01*
X59770075Y-30023000D01*
X59609925Y-30023000D01*
X59452858Y-29991758D01*
X59304899Y-29930471D01*
X59171745Y-29841501D01*
X59058499Y-29728255D01*
X58969529Y-29595101D01*
X58908242Y-29447142D01*
X58877000Y-29290075D01*
X58877000Y-29129925D01*
X58908242Y-28972858D01*
X58969529Y-28824899D01*
X59058499Y-28691745D01*
X59171745Y-28578499D01*
X59304899Y-28489529D01*
X59452858Y-28428242D01*
X59609925Y-28397000D01*
X59770075Y-28397000D01*
X59927142Y-28428242D01*
G37*
G36*
X54847142Y-28428242D02*
G01*
X54995101Y-28489529D01*
X55128255Y-28578499D01*
X55241501Y-28691745D01*
X55330471Y-28824899D01*
X55391758Y-28972858D01*
X55423000Y-29129925D01*
X55423000Y-29290075D01*
X55391758Y-29447142D01*
X55330471Y-29595101D01*
X55241501Y-29728255D01*
X55128255Y-29841501D01*
X54995101Y-29930471D01*
X54847142Y-29991758D01*
X54690075Y-30023000D01*
X54529925Y-30023000D01*
X54372858Y-29991758D01*
X54224899Y-29930471D01*
X54091745Y-29841501D01*
X53978499Y-29728255D01*
X53889529Y-29595101D01*
X53828242Y-29447142D01*
X53797000Y-29290075D01*
X53797000Y-29129925D01*
X53828242Y-28972858D01*
X53889529Y-28824899D01*
X53978499Y-28691745D01*
X54091745Y-28578499D01*
X54224899Y-28489529D01*
X54372858Y-28428242D01*
X54529925Y-28397000D01*
X54690075Y-28397000D01*
X54847142Y-28428242D01*
G37*
G36*
X72627142Y-28268242D02*
G01*
X72775101Y-28329529D01*
X72908255Y-28418499D01*
X73021501Y-28531745D01*
X73110471Y-28664899D01*
X73171758Y-28812858D01*
X73203000Y-28969925D01*
X73203000Y-29130075D01*
X73171758Y-29287142D01*
X73110471Y-29435101D01*
X73021501Y-29568255D01*
X72908255Y-29681501D01*
X72775101Y-29770471D01*
X72627142Y-29831758D01*
X72470075Y-29863000D01*
X72309925Y-29863000D01*
X72152858Y-29831758D01*
X72004899Y-29770471D01*
X71871745Y-29681501D01*
X71758499Y-29568255D01*
X71669529Y-29435101D01*
X71608242Y-29287142D01*
X71577000Y-29130075D01*
X71577000Y-28969925D01*
X71608242Y-28812858D01*
X71669529Y-28664899D01*
X71758499Y-28531745D01*
X71871745Y-28418499D01*
X72004899Y-28329529D01*
X72152858Y-28268242D01*
X72309925Y-28237000D01*
X72470075Y-28237000D01*
X72627142Y-28268242D01*
G37*
G36*
X26907142Y-28268242D02*
G01*
X27055101Y-28329529D01*
X27188255Y-28418499D01*
X27301501Y-28531745D01*
X27390471Y-28664899D01*
X27451758Y-28812858D01*
X27483000Y-28969925D01*
X27483000Y-29130075D01*
X27451758Y-29287142D01*
X27390471Y-29435101D01*
X27301501Y-29568255D01*
X27188255Y-29681501D01*
X27055101Y-29770471D01*
X26907142Y-29831758D01*
X26750075Y-29863000D01*
X26589925Y-29863000D01*
X26432858Y-29831758D01*
X26284899Y-29770471D01*
X26151745Y-29681501D01*
X26038499Y-29568255D01*
X25949529Y-29435101D01*
X25888242Y-29287142D01*
X25857000Y-29130075D01*
X25857000Y-28969925D01*
X25888242Y-28812858D01*
X25949529Y-28664899D01*
X26038499Y-28531745D01*
X26151745Y-28418499D01*
X26284899Y-28329529D01*
X26432858Y-28268242D01*
X26589925Y-28237000D01*
X26750075Y-28237000D01*
X26907142Y-28268242D01*
G37*
G36*
X42147142Y-28268242D02*
G01*
X42295101Y-28329529D01*
X42428255Y-28418499D01*
X42541501Y-28531745D01*
X42630471Y-28664899D01*
X42691758Y-28812858D01*
X42723000Y-28969925D01*
X42723000Y-29130075D01*
X42691758Y-29287142D01*
X42630471Y-29435101D01*
X42541501Y-29568255D01*
X42428255Y-29681501D01*
X42295101Y-29770471D01*
X42147142Y-29831758D01*
X41990075Y-29863000D01*
X41829925Y-29863000D01*
X41672858Y-29831758D01*
X41524899Y-29770471D01*
X41391745Y-29681501D01*
X41278499Y-29568255D01*
X41189529Y-29435101D01*
X41128242Y-29287142D01*
X41097000Y-29130075D01*
X41097000Y-28969925D01*
X41128242Y-28812858D01*
X41189529Y-28664899D01*
X41278499Y-28531745D01*
X41391745Y-28418499D01*
X41524899Y-28329529D01*
X41672858Y-28268242D01*
X41829925Y-28237000D01*
X41990075Y-28237000D01*
X42147142Y-28268242D01*
G37*
G36*
X57387142Y-28268242D02*
G01*
X57535101Y-28329529D01*
X57668255Y-28418499D01*
X57781501Y-28531745D01*
X57870471Y-28664899D01*
X57931758Y-28812858D01*
X57963000Y-28969925D01*
X57963000Y-29130075D01*
X57931758Y-29287142D01*
X57870471Y-29435101D01*
X57781501Y-29568255D01*
X57668255Y-29681501D01*
X57535101Y-29770471D01*
X57387142Y-29831758D01*
X57230075Y-29863000D01*
X57069925Y-29863000D01*
X56912858Y-29831758D01*
X56764899Y-29770471D01*
X56631745Y-29681501D01*
X56518499Y-29568255D01*
X56429529Y-29435101D01*
X56368242Y-29287142D01*
X56337000Y-29130075D01*
X56337000Y-28969925D01*
X56368242Y-28812858D01*
X56429529Y-28664899D01*
X56518499Y-28531745D01*
X56631745Y-28418499D01*
X56764899Y-28329529D01*
X56912858Y-28268242D01*
X57069925Y-28237000D01*
X57230075Y-28237000D01*
X57387142Y-28268242D01*
G37*
G36*
X130595000Y-21912000D02*
G01*
X130430660Y-21912000D01*
X130406274Y-21914402D01*
X130382825Y-21921515D01*
X130361214Y-21933066D01*
X130342272Y-21948611D01*
X130326727Y-21967553D01*
X130315176Y-21989164D01*
X130308063Y-22012613D01*
X130305661Y-22036999D01*
X130308063Y-22061385D01*
X130315176Y-22084834D01*
X130326727Y-22106445D01*
X130342272Y-22125387D01*
X130351345Y-22133609D01*
X130428264Y-22196736D01*
X130500244Y-22284443D01*
X130534429Y-22348399D01*
X130553728Y-22384505D01*
X130553729Y-22384508D01*
X130586666Y-22493084D01*
X130597787Y-22606000D01*
X130586666Y-22718916D01*
X130553729Y-22827492D01*
X130553728Y-22827495D01*
X130534429Y-22863601D01*
X130500244Y-22927557D01*
X130428264Y-23015264D01*
X130340557Y-23087244D01*
X130259141Y-23130761D01*
X130238766Y-23144375D01*
X130221439Y-23161702D01*
X130207826Y-23182076D01*
X130198448Y-23204715D01*
X130193668Y-23228748D01*
X130193668Y-23253252D01*
X130198448Y-23277285D01*
X130207826Y-23299924D01*
X130221440Y-23320299D01*
X130238767Y-23337626D01*
X130259141Y-23351239D01*
X130340557Y-23394756D01*
X130428264Y-23466736D01*
X130500244Y-23554443D01*
X130534429Y-23618399D01*
X130553728Y-23654505D01*
X130553729Y-23654508D01*
X130586666Y-23763084D01*
X130597787Y-23876000D01*
X130586666Y-23988916D01*
X130553729Y-24097492D01*
X130553728Y-24097495D01*
X130534429Y-24133601D01*
X130500244Y-24197557D01*
X130428264Y-24285264D01*
X130340557Y-24357244D01*
X130276601Y-24391429D01*
X130240495Y-24410728D01*
X130240492Y-24410729D01*
X130131916Y-24443666D01*
X130047298Y-24452000D01*
X129540702Y-24452000D01*
X129456084Y-24443666D01*
X129347508Y-24410729D01*
X129347505Y-24410728D01*
X129311399Y-24391429D01*
X129247443Y-24357244D01*
X129159736Y-24285264D01*
X129087756Y-24197557D01*
X129053571Y-24133601D01*
X129034272Y-24097495D01*
X129034271Y-24097492D01*
X129001334Y-23988916D01*
X128990213Y-23876000D01*
X129001334Y-23763084D01*
X129034271Y-23654508D01*
X129034272Y-23654505D01*
X129053571Y-23618399D01*
X129087756Y-23554443D01*
X129159736Y-23466736D01*
X129247443Y-23394756D01*
X129328859Y-23351239D01*
X129349234Y-23337625D01*
X129366561Y-23320298D01*
X129380174Y-23299924D01*
X129389552Y-23277285D01*
X129394332Y-23253252D01*
X129394332Y-23228748D01*
X129389552Y-23204715D01*
X129380174Y-23182076D01*
X129366560Y-23161701D01*
X129349233Y-23144374D01*
X129328859Y-23130761D01*
X129247443Y-23087244D01*
X129159736Y-23015264D01*
X129087756Y-22927557D01*
X129053571Y-22863601D01*
X129034272Y-22827495D01*
X129034271Y-22827492D01*
X129001334Y-22718916D01*
X128990213Y-22606000D01*
X129001334Y-22493084D01*
X129034271Y-22384508D01*
X129034272Y-22384505D01*
X129053571Y-22348399D01*
X129087756Y-22284443D01*
X129159736Y-22196736D01*
X129236646Y-22133617D01*
X129253965Y-22116298D01*
X129267579Y-22095923D01*
X129276957Y-22073284D01*
X129281737Y-22049251D01*
X129281737Y-22024747D01*
X129276957Y-22000714D01*
X129267579Y-21978075D01*
X129253966Y-21957701D01*
X129236639Y-21940374D01*
X129216264Y-21926760D01*
X129193625Y-21917382D01*
X129169592Y-21912602D01*
X129157340Y-21912000D01*
X128993000Y-21912000D01*
X128993000Y-20760000D01*
X130595000Y-20760000D01*
X130595000Y-21912000D01*
G37*
G36*
X110371000Y-18931000D02*
G01*
X108069000Y-18931000D01*
X108069000Y-16629000D01*
X110371000Y-16629000D01*
X110371000Y-18931000D01*
G37*
G36*
X99284549Y-16651116D02*
G01*
X99395734Y-16673232D01*
X99605203Y-16759997D01*
X99793720Y-16885960D01*
X99954040Y-17046280D01*
X100080003Y-17234797D01*
X100166768Y-17444266D01*
X100211000Y-17666636D01*
X100211000Y-17893364D01*
X100166768Y-18115734D01*
X100080003Y-18325203D01*
X99954040Y-18513720D01*
X99793720Y-18674040D01*
X99605203Y-18800003D01*
X99395734Y-18886768D01*
X99284549Y-18908884D01*
X99173365Y-18931000D01*
X98946635Y-18931000D01*
X98835451Y-18908884D01*
X98724266Y-18886768D01*
X98514797Y-18800003D01*
X98326280Y-18674040D01*
X98165960Y-18513720D01*
X98039997Y-18325203D01*
X97953232Y-18115734D01*
X97909000Y-17893364D01*
X97909000Y-17666636D01*
X97953232Y-17444266D01*
X98039997Y-17234797D01*
X98165960Y-17046280D01*
X98326280Y-16885960D01*
X98514797Y-16759997D01*
X98724266Y-16673232D01*
X98835451Y-16651116D01*
X98946635Y-16629000D01*
X99173365Y-16629000D01*
X99284549Y-16651116D01*
G37*
G36*
X94204549Y-16651116D02*
G01*
X94315734Y-16673232D01*
X94525203Y-16759997D01*
X94713720Y-16885960D01*
X94874040Y-17046280D01*
X95000003Y-17234797D01*
X95086768Y-17444266D01*
X95131000Y-17666636D01*
X95131000Y-17893364D01*
X95086768Y-18115734D01*
X95000003Y-18325203D01*
X94874040Y-18513720D01*
X94713720Y-18674040D01*
X94525203Y-18800003D01*
X94315734Y-18886768D01*
X94204549Y-18908884D01*
X94093365Y-18931000D01*
X93866635Y-18931000D01*
X93755451Y-18908884D01*
X93644266Y-18886768D01*
X93434797Y-18800003D01*
X93246280Y-18674040D01*
X93085960Y-18513720D01*
X92959997Y-18325203D01*
X92873232Y-18115734D01*
X92829000Y-17893364D01*
X92829000Y-17666636D01*
X92873232Y-17444266D01*
X92959997Y-17234797D01*
X93085960Y-17046280D01*
X93246280Y-16885960D01*
X93434797Y-16759997D01*
X93644266Y-16673232D01*
X93755451Y-16651116D01*
X93866635Y-16629000D01*
X94093365Y-16629000D01*
X94204549Y-16651116D01*
G37*
G36*
X84971000Y-18931000D02*
G01*
X82669000Y-18931000D01*
X82669000Y-16629000D01*
X84971000Y-16629000D01*
X84971000Y-18931000D01*
G37*
M02*
