G04 #@! TF.GenerationSoftware,KiCad,Pcbnew,(5.1.6-0-10_14)*
G04 #@! TF.CreationDate,2020-07-01T11:00:56-07:00*
G04 #@! TF.ProjectId,Pufferfish-Interface-1,50756666-6572-4666-9973-682d496e7465,v0.1*
G04 #@! TF.SameCoordinates,Original*
G04 #@! TF.FileFunction,Legend,Top*
G04 #@! TF.FilePolarity,Positive*
%FSLAX46Y46*%
G04 Gerber Fmt 4.6, Leading zero omitted, Abs format (unit mm)*
G04 Created by KiCad (PCBNEW (5.1.6-0-10_14)) date 2020-07-01 11:00:56*
%MOMM*%
%LPD*%
G01*
G04 APERTURE LIST*
%ADD10C,0.150000*%
%ADD11C,0.120000*%
%ADD12C,0.203200*%
G04 APERTURE END LIST*
D10*
X111587595Y-16582380D02*
X111587595Y-15582380D01*
X111968547Y-15582380D01*
X112063785Y-15630000D01*
X112111404Y-15677619D01*
X112159023Y-15772857D01*
X112159023Y-15915714D01*
X112111404Y-16010952D01*
X112063785Y-16058571D01*
X111968547Y-16106190D01*
X111587595Y-16106190D01*
X112968547Y-16534761D02*
X112873309Y-16582380D01*
X112682833Y-16582380D01*
X112587595Y-16534761D01*
X112539976Y-16439523D01*
X112539976Y-16058571D01*
X112587595Y-15963333D01*
X112682833Y-15915714D01*
X112873309Y-15915714D01*
X112968547Y-15963333D01*
X113016166Y-16058571D01*
X113016166Y-16153809D01*
X112539976Y-16249047D01*
X113349500Y-15915714D02*
X113873309Y-15915714D01*
X113349500Y-16582380D01*
X113873309Y-16582380D01*
X115539976Y-15630000D02*
X115444738Y-15582380D01*
X115301880Y-15582380D01*
X115159023Y-15630000D01*
X115063785Y-15725238D01*
X115016166Y-15820476D01*
X114968547Y-16010952D01*
X114968547Y-16153809D01*
X115016166Y-16344285D01*
X115063785Y-16439523D01*
X115159023Y-16534761D01*
X115301880Y-16582380D01*
X115397119Y-16582380D01*
X115539976Y-16534761D01*
X115587595Y-16487142D01*
X115587595Y-16153809D01*
X115397119Y-16153809D01*
X116159023Y-16582380D02*
X116063785Y-16534761D01*
X116016166Y-16439523D01*
X116016166Y-15582380D01*
X116682833Y-16582380D02*
X116587595Y-16534761D01*
X116539976Y-16487142D01*
X116492357Y-16391904D01*
X116492357Y-16106190D01*
X116539976Y-16010952D01*
X116587595Y-15963333D01*
X116682833Y-15915714D01*
X116825690Y-15915714D01*
X116920928Y-15963333D01*
X116968547Y-16010952D01*
X117016166Y-16106190D01*
X117016166Y-16391904D01*
X116968547Y-16487142D01*
X116920928Y-16534761D01*
X116825690Y-16582380D01*
X116682833Y-16582380D01*
X117444738Y-16582380D02*
X117444738Y-15582380D01*
X117444738Y-15963333D02*
X117539976Y-15915714D01*
X117730452Y-15915714D01*
X117825690Y-15963333D01*
X117873309Y-16010952D01*
X117920928Y-16106190D01*
X117920928Y-16391904D01*
X117873309Y-16487142D01*
X117825690Y-16534761D01*
X117730452Y-16582380D01*
X117539976Y-16582380D01*
X117444738Y-16534761D01*
X118492357Y-16582380D02*
X118397119Y-16534761D01*
X118349500Y-16487142D01*
X118301880Y-16391904D01*
X118301880Y-16106190D01*
X118349500Y-16010952D01*
X118397119Y-15963333D01*
X118492357Y-15915714D01*
X118635214Y-15915714D01*
X118730452Y-15963333D01*
X118778071Y-16010952D01*
X118825690Y-16106190D01*
X118825690Y-16391904D01*
X118778071Y-16487142D01*
X118730452Y-16534761D01*
X118635214Y-16582380D01*
X118492357Y-16582380D01*
X111587595Y-18232380D02*
X111587595Y-17232380D01*
X112063785Y-17565714D02*
X112063785Y-18232380D01*
X112063785Y-17660952D02*
X112111404Y-17613333D01*
X112206642Y-17565714D01*
X112349500Y-17565714D01*
X112444738Y-17613333D01*
X112492357Y-17708571D01*
X112492357Y-18232380D01*
X112825690Y-17565714D02*
X113206642Y-17565714D01*
X112968547Y-17232380D02*
X112968547Y-18089523D01*
X113016166Y-18184761D01*
X113111404Y-18232380D01*
X113206642Y-18232380D01*
X113920928Y-18184761D02*
X113825690Y-18232380D01*
X113635214Y-18232380D01*
X113539976Y-18184761D01*
X113492357Y-18089523D01*
X113492357Y-17708571D01*
X113539976Y-17613333D01*
X113635214Y-17565714D01*
X113825690Y-17565714D01*
X113920928Y-17613333D01*
X113968547Y-17708571D01*
X113968547Y-17803809D01*
X113492357Y-17899047D01*
X114397119Y-18232380D02*
X114397119Y-17565714D01*
X114397119Y-17756190D02*
X114444738Y-17660952D01*
X114492357Y-17613333D01*
X114587595Y-17565714D01*
X114682833Y-17565714D01*
X114873309Y-17565714D02*
X115254261Y-17565714D01*
X115016166Y-18232380D02*
X115016166Y-17375238D01*
X115063785Y-17280000D01*
X115159023Y-17232380D01*
X115254261Y-17232380D01*
X116016166Y-18232380D02*
X116016166Y-17708571D01*
X115968547Y-17613333D01*
X115873309Y-17565714D01*
X115682833Y-17565714D01*
X115587595Y-17613333D01*
X116016166Y-18184761D02*
X115920928Y-18232380D01*
X115682833Y-18232380D01*
X115587595Y-18184761D01*
X115539976Y-18089523D01*
X115539976Y-17994285D01*
X115587595Y-17899047D01*
X115682833Y-17851428D01*
X115920928Y-17851428D01*
X116016166Y-17803809D01*
X116920928Y-18184761D02*
X116825690Y-18232380D01*
X116635214Y-18232380D01*
X116539976Y-18184761D01*
X116492357Y-18137142D01*
X116444738Y-18041904D01*
X116444738Y-17756190D01*
X116492357Y-17660952D01*
X116539976Y-17613333D01*
X116635214Y-17565714D01*
X116825690Y-17565714D01*
X116920928Y-17613333D01*
X117730452Y-18184761D02*
X117635214Y-18232380D01*
X117444738Y-18232380D01*
X117349500Y-18184761D01*
X117301880Y-18089523D01*
X117301880Y-17708571D01*
X117349500Y-17613333D01*
X117444738Y-17565714D01*
X117635214Y-17565714D01*
X117730452Y-17613333D01*
X117778071Y-17708571D01*
X117778071Y-17803809D01*
X117301880Y-17899047D01*
X119301880Y-17708571D02*
X119444738Y-17756190D01*
X119492357Y-17803809D01*
X119539976Y-17899047D01*
X119539976Y-18041904D01*
X119492357Y-18137142D01*
X119444738Y-18184761D01*
X119349500Y-18232380D01*
X118968547Y-18232380D01*
X118968547Y-17232380D01*
X119301880Y-17232380D01*
X119397119Y-17280000D01*
X119444738Y-17327619D01*
X119492357Y-17422857D01*
X119492357Y-17518095D01*
X119444738Y-17613333D01*
X119397119Y-17660952D01*
X119301880Y-17708571D01*
X118968547Y-17708571D01*
X120111404Y-18232380D02*
X120016166Y-18184761D01*
X119968547Y-18137142D01*
X119920928Y-18041904D01*
X119920928Y-17756190D01*
X119968547Y-17660952D01*
X120016166Y-17613333D01*
X120111404Y-17565714D01*
X120254261Y-17565714D01*
X120349500Y-17613333D01*
X120397119Y-17660952D01*
X120444738Y-17756190D01*
X120444738Y-18041904D01*
X120397119Y-18137142D01*
X120349500Y-18184761D01*
X120254261Y-18232380D01*
X120111404Y-18232380D01*
X121301880Y-18232380D02*
X121301880Y-17708571D01*
X121254261Y-17613333D01*
X121159023Y-17565714D01*
X120968547Y-17565714D01*
X120873309Y-17613333D01*
X121301880Y-18184761D02*
X121206642Y-18232380D01*
X120968547Y-18232380D01*
X120873309Y-18184761D01*
X120825690Y-18089523D01*
X120825690Y-17994285D01*
X120873309Y-17899047D01*
X120968547Y-17851428D01*
X121206642Y-17851428D01*
X121301880Y-17803809D01*
X121778071Y-18232380D02*
X121778071Y-17565714D01*
X121778071Y-17756190D02*
X121825690Y-17660952D01*
X121873309Y-17613333D01*
X121968547Y-17565714D01*
X122063785Y-17565714D01*
X122825690Y-18232380D02*
X122825690Y-17232380D01*
X122825690Y-18184761D02*
X122730452Y-18232380D01*
X122539976Y-18232380D01*
X122444738Y-18184761D01*
X122397119Y-18137142D01*
X122349500Y-18041904D01*
X122349500Y-17756190D01*
X122397119Y-17660952D01*
X122444738Y-17613333D01*
X122539976Y-17565714D01*
X122730452Y-17565714D01*
X122825690Y-17613333D01*
X123968547Y-17565714D02*
X124206642Y-18232380D01*
X124444738Y-17565714D01*
X125349500Y-18232380D02*
X124778071Y-18232380D01*
X125063785Y-18232380D02*
X125063785Y-17232380D01*
X124968547Y-17375238D01*
X124873309Y-17470476D01*
X124778071Y-17518095D01*
X125778071Y-18137142D02*
X125825690Y-18184761D01*
X125778071Y-18232380D01*
X125730452Y-18184761D01*
X125778071Y-18137142D01*
X125778071Y-18232380D01*
X126444738Y-17232380D02*
X126539976Y-17232380D01*
X126635214Y-17280000D01*
X126682833Y-17327619D01*
X126730452Y-17422857D01*
X126778071Y-17613333D01*
X126778071Y-17851428D01*
X126730452Y-18041904D01*
X126682833Y-18137142D01*
X126635214Y-18184761D01*
X126539976Y-18232380D01*
X126444738Y-18232380D01*
X126349500Y-18184761D01*
X126301880Y-18137142D01*
X126254261Y-18041904D01*
X126206642Y-17851428D01*
X126206642Y-17613333D01*
X126254261Y-17422857D01*
X126301880Y-17327619D01*
X126349500Y-17280000D01*
X126444738Y-17232380D01*
X111730452Y-19882380D02*
X111635214Y-19834761D01*
X111587595Y-19739523D01*
X111587595Y-18882380D01*
X112539976Y-19882380D02*
X112539976Y-19358571D01*
X112492357Y-19263333D01*
X112397119Y-19215714D01*
X112206642Y-19215714D01*
X112111404Y-19263333D01*
X112539976Y-19834761D02*
X112444738Y-19882380D01*
X112206642Y-19882380D01*
X112111404Y-19834761D01*
X112063785Y-19739523D01*
X112063785Y-19644285D01*
X112111404Y-19549047D01*
X112206642Y-19501428D01*
X112444738Y-19501428D01*
X112539976Y-19453809D01*
X113444738Y-19215714D02*
X113444738Y-19882380D01*
X113016166Y-19215714D02*
X113016166Y-19739523D01*
X113063785Y-19834761D01*
X113159023Y-19882380D01*
X113301880Y-19882380D01*
X113397119Y-19834761D01*
X113444738Y-19787142D01*
X113920928Y-19882380D02*
X113920928Y-19215714D01*
X113920928Y-19406190D02*
X113968547Y-19310952D01*
X114016166Y-19263333D01*
X114111404Y-19215714D01*
X114206642Y-19215714D01*
X114920928Y-19834761D02*
X114825690Y-19882380D01*
X114635214Y-19882380D01*
X114539976Y-19834761D01*
X114492357Y-19739523D01*
X114492357Y-19358571D01*
X114539976Y-19263333D01*
X114635214Y-19215714D01*
X114825690Y-19215714D01*
X114920928Y-19263333D01*
X114968547Y-19358571D01*
X114968547Y-19453809D01*
X114492357Y-19549047D01*
X115397119Y-19215714D02*
X115397119Y-19882380D01*
X115397119Y-19310952D02*
X115444738Y-19263333D01*
X115539976Y-19215714D01*
X115682833Y-19215714D01*
X115778071Y-19263333D01*
X115825690Y-19358571D01*
X115825690Y-19882380D01*
X116730452Y-19882380D02*
X116730452Y-19358571D01*
X116682833Y-19263333D01*
X116587595Y-19215714D01*
X116397119Y-19215714D01*
X116301880Y-19263333D01*
X116730452Y-19834761D02*
X116635214Y-19882380D01*
X116397119Y-19882380D01*
X116301880Y-19834761D01*
X116254261Y-19739523D01*
X116254261Y-19644285D01*
X116301880Y-19549047D01*
X116397119Y-19501428D01*
X116635214Y-19501428D01*
X116730452Y-19453809D01*
X117635214Y-19882380D02*
X117635214Y-18882380D01*
X117635214Y-19834761D02*
X117539976Y-19882380D01*
X117349500Y-19882380D01*
X117254261Y-19834761D01*
X117206642Y-19787142D01*
X117159023Y-19691904D01*
X117159023Y-19406190D01*
X117206642Y-19310952D01*
X117254261Y-19263333D01*
X117349500Y-19215714D01*
X117539976Y-19215714D01*
X117635214Y-19263333D01*
X118539976Y-19882380D02*
X118539976Y-19358571D01*
X118492357Y-19263333D01*
X118397119Y-19215714D01*
X118206642Y-19215714D01*
X118111404Y-19263333D01*
X118539976Y-19834761D02*
X118444738Y-19882380D01*
X118206642Y-19882380D01*
X118111404Y-19834761D01*
X118063785Y-19739523D01*
X118063785Y-19644285D01*
X118111404Y-19549047D01*
X118206642Y-19501428D01*
X118444738Y-19501428D01*
X118539976Y-19453809D01*
X119444738Y-19834761D02*
X119349500Y-19882380D01*
X119159023Y-19882380D01*
X119063785Y-19834761D01*
X119016166Y-19787142D01*
X118968547Y-19691904D01*
X118968547Y-19406190D01*
X119016166Y-19310952D01*
X119063785Y-19263333D01*
X119159023Y-19215714D01*
X119349500Y-19215714D01*
X119444738Y-19263333D01*
X119873309Y-19882380D02*
X119873309Y-18882380D01*
X120301880Y-19882380D02*
X120301880Y-19358571D01*
X120254261Y-19263333D01*
X120159023Y-19215714D01*
X120016166Y-19215714D01*
X119920928Y-19263333D01*
X119873309Y-19310952D01*
X120778071Y-19882380D02*
X120778071Y-19215714D01*
X120778071Y-18882380D02*
X120730452Y-18930000D01*
X120778071Y-18977619D01*
X120825690Y-18930000D01*
X120778071Y-18882380D01*
X120778071Y-18977619D01*
X122301880Y-20263333D02*
X122254261Y-20215714D01*
X122159023Y-20072857D01*
X122111404Y-19977619D01*
X122063785Y-19834761D01*
X122016166Y-19596666D01*
X122016166Y-19406190D01*
X122063785Y-19168095D01*
X122111404Y-19025238D01*
X122159023Y-18930000D01*
X122254261Y-18787142D01*
X122301880Y-18739523D01*
X122635214Y-18977619D02*
X122682833Y-18930000D01*
X122778071Y-18882380D01*
X123016166Y-18882380D01*
X123111404Y-18930000D01*
X123159023Y-18977619D01*
X123206642Y-19072857D01*
X123206642Y-19168095D01*
X123159023Y-19310952D01*
X122587595Y-19882380D01*
X123206642Y-19882380D01*
X123825690Y-18882380D02*
X123920928Y-18882380D01*
X124016166Y-18930000D01*
X124063785Y-18977619D01*
X124111404Y-19072857D01*
X124159023Y-19263333D01*
X124159023Y-19501428D01*
X124111404Y-19691904D01*
X124063785Y-19787142D01*
X124016166Y-19834761D01*
X123920928Y-19882380D01*
X123825690Y-19882380D01*
X123730452Y-19834761D01*
X123682833Y-19787142D01*
X123635214Y-19691904D01*
X123587595Y-19501428D01*
X123587595Y-19263333D01*
X123635214Y-19072857D01*
X123682833Y-18977619D01*
X123730452Y-18930000D01*
X123825690Y-18882380D01*
X124539976Y-18977619D02*
X124587595Y-18930000D01*
X124682833Y-18882380D01*
X124920928Y-18882380D01*
X125016166Y-18930000D01*
X125063785Y-18977619D01*
X125111404Y-19072857D01*
X125111404Y-19168095D01*
X125063785Y-19310952D01*
X124492357Y-19882380D01*
X125111404Y-19882380D01*
X125730452Y-18882380D02*
X125825690Y-18882380D01*
X125920928Y-18930000D01*
X125968547Y-18977619D01*
X126016166Y-19072857D01*
X126063785Y-19263333D01*
X126063785Y-19501428D01*
X126016166Y-19691904D01*
X125968547Y-19787142D01*
X125920928Y-19834761D01*
X125825690Y-19882380D01*
X125730452Y-19882380D01*
X125635214Y-19834761D01*
X125587595Y-19787142D01*
X125539976Y-19691904D01*
X125492357Y-19501428D01*
X125492357Y-19263333D01*
X125539976Y-19072857D01*
X125587595Y-18977619D01*
X125635214Y-18930000D01*
X125730452Y-18882380D01*
X127206642Y-18834761D02*
X126349500Y-20120476D01*
X127444738Y-18882380D02*
X128111404Y-18882380D01*
X127682833Y-19882380D01*
X129206642Y-18834761D02*
X128349500Y-20120476D01*
X130063785Y-19882380D02*
X129492357Y-19882380D01*
X129778071Y-19882380D02*
X129778071Y-18882380D01*
X129682833Y-19025238D01*
X129587595Y-19120476D01*
X129492357Y-19168095D01*
X130397119Y-20263333D02*
X130444738Y-20215714D01*
X130539976Y-20072857D01*
X130587595Y-19977619D01*
X130635214Y-19834761D01*
X130682833Y-19596666D01*
X130682833Y-19406190D01*
X130635214Y-19168095D01*
X130587595Y-19025238D01*
X130539976Y-18930000D01*
X130444738Y-18787142D01*
X130397119Y-18739523D01*
D11*
X79390000Y-31750000D02*
G75*
G03*
X79390000Y-31750000I-7000000J0D01*
G01*
X33670000Y-31750000D02*
G75*
G03*
X33670000Y-31750000I-7000000J0D01*
G01*
X48910000Y-31750000D02*
G75*
G03*
X48910000Y-31750000I-7000000J0D01*
G01*
X64150000Y-31750000D02*
G75*
G03*
X64150000Y-31750000I-7000000J0D01*
G01*
D12*
X130551601Y-31921601D02*
G75*
G03*
X130551601Y-31921601I-11500000J0D01*
G01*
X104210000Y-31921601D02*
G75*
G03*
X104210000Y-31921601I-11500000J0D01*
G01*
D10*
X75628666Y-25042761D02*
X75771523Y-25090380D01*
X76009619Y-25090380D01*
X76104857Y-25042761D01*
X76152476Y-24995142D01*
X76200095Y-24899904D01*
X76200095Y-24804666D01*
X76152476Y-24709428D01*
X76104857Y-24661809D01*
X76009619Y-24614190D01*
X75819142Y-24566571D01*
X75723904Y-24518952D01*
X75676285Y-24471333D01*
X75628666Y-24376095D01*
X75628666Y-24280857D01*
X75676285Y-24185619D01*
X75723904Y-24138000D01*
X75819142Y-24090380D01*
X76057238Y-24090380D01*
X76200095Y-24138000D01*
X76533428Y-24090380D02*
X76771523Y-25090380D01*
X76962000Y-24376095D01*
X77152476Y-25090380D01*
X77390571Y-24090380D01*
X78200095Y-24423714D02*
X78200095Y-25090380D01*
X77962000Y-24042761D02*
X77723904Y-24757047D01*
X78342952Y-24757047D01*
X23050666Y-24280761D02*
X23193523Y-24328380D01*
X23431619Y-24328380D01*
X23526857Y-24280761D01*
X23574476Y-24233142D01*
X23622095Y-24137904D01*
X23622095Y-24042666D01*
X23574476Y-23947428D01*
X23526857Y-23899809D01*
X23431619Y-23852190D01*
X23241142Y-23804571D01*
X23145904Y-23756952D01*
X23098285Y-23709333D01*
X23050666Y-23614095D01*
X23050666Y-23518857D01*
X23098285Y-23423619D01*
X23145904Y-23376000D01*
X23241142Y-23328380D01*
X23479238Y-23328380D01*
X23622095Y-23376000D01*
X23955428Y-23328380D02*
X24193523Y-24328380D01*
X24384000Y-23614095D01*
X24574476Y-24328380D01*
X24812571Y-23328380D01*
X25098285Y-23328380D02*
X25717333Y-23328380D01*
X25384000Y-23709333D01*
X25526857Y-23709333D01*
X25622095Y-23756952D01*
X25669714Y-23804571D01*
X25717333Y-23899809D01*
X25717333Y-24137904D01*
X25669714Y-24233142D01*
X25622095Y-24280761D01*
X25526857Y-24328380D01*
X25241142Y-24328380D01*
X25145904Y-24280761D01*
X25098285Y-24233142D01*
X38036666Y-24280761D02*
X38179523Y-24328380D01*
X38417619Y-24328380D01*
X38512857Y-24280761D01*
X38560476Y-24233142D01*
X38608095Y-24137904D01*
X38608095Y-24042666D01*
X38560476Y-23947428D01*
X38512857Y-23899809D01*
X38417619Y-23852190D01*
X38227142Y-23804571D01*
X38131904Y-23756952D01*
X38084285Y-23709333D01*
X38036666Y-23614095D01*
X38036666Y-23518857D01*
X38084285Y-23423619D01*
X38131904Y-23376000D01*
X38227142Y-23328380D01*
X38465238Y-23328380D01*
X38608095Y-23376000D01*
X38941428Y-23328380D02*
X39179523Y-24328380D01*
X39370000Y-23614095D01*
X39560476Y-24328380D01*
X39798571Y-23328380D01*
X40131904Y-23423619D02*
X40179523Y-23376000D01*
X40274761Y-23328380D01*
X40512857Y-23328380D01*
X40608095Y-23376000D01*
X40655714Y-23423619D01*
X40703333Y-23518857D01*
X40703333Y-23614095D01*
X40655714Y-23756952D01*
X40084285Y-24328380D01*
X40703333Y-24328380D01*
X60388666Y-25042761D02*
X60531523Y-25090380D01*
X60769619Y-25090380D01*
X60864857Y-25042761D01*
X60912476Y-24995142D01*
X60960095Y-24899904D01*
X60960095Y-24804666D01*
X60912476Y-24709428D01*
X60864857Y-24661809D01*
X60769619Y-24614190D01*
X60579142Y-24566571D01*
X60483904Y-24518952D01*
X60436285Y-24471333D01*
X60388666Y-24376095D01*
X60388666Y-24280857D01*
X60436285Y-24185619D01*
X60483904Y-24138000D01*
X60579142Y-24090380D01*
X60817238Y-24090380D01*
X60960095Y-24138000D01*
X61293428Y-24090380D02*
X61531523Y-25090380D01*
X61722000Y-24376095D01*
X61912476Y-25090380D01*
X62150571Y-24090380D01*
X63055333Y-25090380D02*
X62483904Y-25090380D01*
X62769619Y-25090380D02*
X62769619Y-24090380D01*
X62674380Y-24233238D01*
X62579142Y-24328476D01*
X62483904Y-24376095D01*
X123087047Y-43870571D02*
X123229904Y-43918190D01*
X123277523Y-43965809D01*
X123325142Y-44061047D01*
X123325142Y-44203904D01*
X123277523Y-44299142D01*
X123229904Y-44346761D01*
X123134666Y-44394380D01*
X122753714Y-44394380D01*
X122753714Y-43394380D01*
X123087047Y-43394380D01*
X123182285Y-43442000D01*
X123229904Y-43489619D01*
X123277523Y-43584857D01*
X123277523Y-43680095D01*
X123229904Y-43775333D01*
X123182285Y-43822952D01*
X123087047Y-43870571D01*
X122753714Y-43870571D01*
X123753714Y-43394380D02*
X123753714Y-44203904D01*
X123801333Y-44299142D01*
X123848952Y-44346761D01*
X123944190Y-44394380D01*
X124134666Y-44394380D01*
X124229904Y-44346761D01*
X124277523Y-44299142D01*
X124325142Y-44203904D01*
X124325142Y-43394380D01*
X124706095Y-43394380D02*
X125372761Y-43394380D01*
X124706095Y-44394380D01*
X125372761Y-44394380D01*
X125658476Y-43394380D02*
X126325142Y-43394380D01*
X125658476Y-44394380D01*
X126325142Y-44394380D01*
X127229904Y-44394380D02*
X126658476Y-44394380D01*
X126944190Y-44394380D02*
X126944190Y-43394380D01*
X126848952Y-43537238D01*
X126753714Y-43632476D01*
X126658476Y-43680095D01*
X86257047Y-44124571D02*
X86399904Y-44172190D01*
X86447523Y-44219809D01*
X86495142Y-44315047D01*
X86495142Y-44457904D01*
X86447523Y-44553142D01*
X86399904Y-44600761D01*
X86304666Y-44648380D01*
X85923714Y-44648380D01*
X85923714Y-43648380D01*
X86257047Y-43648380D01*
X86352285Y-43696000D01*
X86399904Y-43743619D01*
X86447523Y-43838857D01*
X86447523Y-43934095D01*
X86399904Y-44029333D01*
X86352285Y-44076952D01*
X86257047Y-44124571D01*
X85923714Y-44124571D01*
X86923714Y-43648380D02*
X86923714Y-44457904D01*
X86971333Y-44553142D01*
X87018952Y-44600761D01*
X87114190Y-44648380D01*
X87304666Y-44648380D01*
X87399904Y-44600761D01*
X87447523Y-44553142D01*
X87495142Y-44457904D01*
X87495142Y-43648380D01*
X87876095Y-43648380D02*
X88542761Y-43648380D01*
X87876095Y-44648380D01*
X88542761Y-44648380D01*
X88828476Y-43648380D02*
X89495142Y-43648380D01*
X88828476Y-44648380D01*
X89495142Y-44648380D01*
X89828476Y-43743619D02*
X89876095Y-43696000D01*
X89971333Y-43648380D01*
X90209428Y-43648380D01*
X90304666Y-43696000D01*
X90352285Y-43743619D01*
X90399904Y-43838857D01*
X90399904Y-43934095D01*
X90352285Y-44076952D01*
X89780857Y-44648380D01*
X90399904Y-44648380D01*
M02*
