G04 #@! TF.GenerationSoftware,KiCad,Pcbnew,(5.1.2)-1*
G04 #@! TF.CreationDate,2021-03-19T08:47:41+05:45*
G04 #@! TF.ProjectId,Pufferfish-Power-MCU,50756666-6572-4666-9973-682d506f7765,0.0*
G04 #@! TF.SameCoordinates,Original*
G04 #@! TF.FileFunction,Other,Fab,Bot*
%FSLAX46Y46*%
G04 Gerber Fmt 4.6, Leading zero omitted, Abs format (unit mm)*
G04 Created by KiCad (PCBNEW (5.1.2)-1) date 2021-03-19 08:47:41*
%MOMM*%
%LPD*%
G04 APERTURE LIST*
%ADD10C,0.100000*%
%ADD11C,0.120000*%
%ADD12C,0.150000*%
%ADD13C,0.060000*%
%ADD14C,0.080000*%
%ADD15C,0.075000*%
%ADD16C,0.040000*%
G04 APERTURE END LIST*
D10*
X203287400Y-43052600D02*
X66977400Y-42972600D01*
X203287400Y-119552600D02*
X203287400Y-43052600D01*
X66977400Y-119552600D02*
X203287400Y-119552600D01*
X66977400Y-42972600D02*
X66977400Y-119552600D01*
X82946666Y-47752000D02*
G75*
G03X82946666Y-47752000I-1666666J0D01*
G01*
X78780000Y-47752000D02*
X83780000Y-47752000D01*
X81280000Y-45252000D02*
X81280000Y-50252000D01*
G04 #@! TO.C,R99*
X108907400Y-72427600D02*
X110507400Y-72427600D01*
X108907400Y-71627600D02*
X108907400Y-72427600D01*
X110507400Y-71627600D02*
X108907400Y-71627600D01*
X110507400Y-72427600D02*
X110507400Y-71627600D01*
G04 #@! TO.C,R49*
X104918000Y-86706000D02*
X106918000Y-86706000D01*
X104918000Y-85506000D02*
X104918000Y-86706000D01*
X106918000Y-85506000D02*
X104918000Y-85506000D01*
X106918000Y-86706000D02*
X106918000Y-85506000D01*
G04 #@! TO.C,Q9*
X137087000Y-99657000D02*
X137087000Y-97207000D01*
X137637000Y-100227000D02*
X138487000Y-100227000D01*
X137087000Y-99657000D02*
X137637000Y-100227000D01*
X138487000Y-100227000D02*
X138487000Y-97187000D01*
X137087000Y-97187000D02*
X138487000Y-97187000D01*
G04 #@! TO.C,C100*
X99686300Y-74414000D02*
X100186300Y-74414000D01*
X100186300Y-74414000D02*
X100186300Y-73414000D01*
X100186300Y-73414000D02*
X99686300Y-73414000D01*
X99686300Y-73414000D02*
X99686300Y-74414000D01*
G04 #@! TO.C,C70*
X97401000Y-85475000D02*
X96401000Y-85475000D01*
X97401000Y-85975000D02*
X97401000Y-85475000D01*
X96401000Y-85975000D02*
X97401000Y-85975000D01*
X96401000Y-85475000D02*
X96401000Y-85975000D01*
G04 #@! TO.C,C51*
X183681500Y-95294000D02*
X182681500Y-95294000D01*
X183681500Y-95794000D02*
X183681500Y-95294000D01*
X182681500Y-95794000D02*
X183681500Y-95794000D01*
X182681500Y-95294000D02*
X182681500Y-95794000D01*
G04 #@! TO.C,C50*
X185881500Y-95294000D02*
X184881500Y-95294000D01*
X185881500Y-95794000D02*
X185881500Y-95294000D01*
X184881500Y-95794000D02*
X185881500Y-95794000D01*
X184881500Y-95294000D02*
X184881500Y-95794000D01*
G04 #@! TO.C,C18*
X82407400Y-91892600D02*
X82407400Y-90892600D01*
X81907400Y-91892600D02*
X82407400Y-91892600D01*
X81907400Y-90892600D02*
X81907400Y-91892600D01*
X82407400Y-90892600D02*
X81907400Y-90892600D01*
D11*
G04 #@! TO.C,D3*
X92113100Y-83426300D02*
X92100400Y-83426300D01*
X93853000Y-83439000D02*
X92100400Y-83439000D01*
D10*
X93664000Y-82688000D02*
X93664000Y-80888000D01*
X93664000Y-80888000D02*
X92264000Y-80888000D01*
X92264000Y-80888000D02*
X92264000Y-82688000D01*
X92264000Y-82688000D02*
X93664000Y-82688000D01*
X93314000Y-82088000D02*
X92614000Y-82088000D01*
X92964000Y-82088000D02*
X92964000Y-82288000D01*
X92964000Y-82088000D02*
X93314000Y-81588000D01*
X93314000Y-81588000D02*
X92614000Y-81588000D01*
X92614000Y-81588000D02*
X92964000Y-82088000D01*
X92964000Y-81588000D02*
X92964000Y-81338000D01*
D11*
G04 #@! TO.C,D4*
X101231700Y-76365100D02*
X101231700Y-76352400D01*
X101219000Y-78105000D02*
X101219000Y-76352400D01*
D10*
X101970000Y-77916000D02*
X103770000Y-77916000D01*
X103770000Y-77916000D02*
X103770000Y-76516000D01*
X103770000Y-76516000D02*
X101970000Y-76516000D01*
X101970000Y-76516000D02*
X101970000Y-77916000D01*
X102570000Y-77566000D02*
X102570000Y-76866000D01*
X102570000Y-77216000D02*
X102370000Y-77216000D01*
X102570000Y-77216000D02*
X103070000Y-77566000D01*
X103070000Y-77566000D02*
X103070000Y-76866000D01*
X103070000Y-76866000D02*
X102570000Y-77216000D01*
X103070000Y-77216000D02*
X103320000Y-77216000D01*
G04 #@! TO.C,R39*
X184369000Y-93344000D02*
X182769000Y-93344000D01*
X184369000Y-94144000D02*
X184369000Y-93344000D01*
X182769000Y-94144000D02*
X184369000Y-94144000D01*
X182769000Y-93344000D02*
X182769000Y-94144000D01*
G04 #@! TO.C,R40*
X187769000Y-93331500D02*
X186169000Y-93331500D01*
X187769000Y-94131500D02*
X187769000Y-93331500D01*
X186169000Y-94131500D02*
X187769000Y-94131500D01*
X186169000Y-93331500D02*
X186169000Y-94131500D01*
G04 #@! TO.C,R53*
X154200000Y-71300000D02*
X155800000Y-71300000D01*
X154200000Y-70500000D02*
X154200000Y-71300000D01*
X155800000Y-70500000D02*
X154200000Y-70500000D01*
X155800000Y-71300000D02*
X155800000Y-70500000D01*
G04 #@! TO.C,R54*
X189467400Y-79102600D02*
X191067400Y-79102600D01*
X189467400Y-78302600D02*
X189467400Y-79102600D01*
X191067400Y-78302600D02*
X189467400Y-78302600D01*
X191067400Y-79102600D02*
X191067400Y-78302600D01*
G04 #@! TO.C,R55*
X134847000Y-97907000D02*
X134847000Y-99507000D01*
X135647000Y-97907000D02*
X134847000Y-97907000D01*
X135647000Y-99507000D02*
X135647000Y-97907000D01*
X134847000Y-99507000D02*
X135647000Y-99507000D01*
G04 #@! TO.C,R56*
X139681000Y-68034000D02*
X139681000Y-69634000D01*
X140481000Y-68034000D02*
X139681000Y-68034000D01*
X140481000Y-69634000D02*
X140481000Y-68034000D01*
X139681000Y-69634000D02*
X140481000Y-69634000D01*
G04 #@! TO.C,R20*
X90640000Y-76854000D02*
X92240000Y-76854000D01*
X90640000Y-76054000D02*
X90640000Y-76854000D01*
X92240000Y-76054000D02*
X90640000Y-76054000D01*
X92240000Y-76854000D02*
X92240000Y-76054000D01*
G04 #@! TO.C,R22*
X102654000Y-71990000D02*
X101054000Y-71990000D01*
X102654000Y-72790000D02*
X102654000Y-71990000D01*
X101054000Y-72790000D02*
X102654000Y-72790000D01*
X101054000Y-71990000D02*
X101054000Y-72790000D01*
G04 #@! TO.C,R23*
X101054000Y-74822000D02*
X102654000Y-74822000D01*
X101054000Y-74022000D02*
X101054000Y-74822000D01*
X102654000Y-74022000D02*
X101054000Y-74022000D01*
X102654000Y-74822000D02*
X102654000Y-74022000D01*
G04 #@! TO.C,C20*
X78907400Y-90882600D02*
X77707400Y-90882600D01*
X77707400Y-90882600D02*
X77707400Y-92882600D01*
X77707400Y-92882600D02*
X78907400Y-92882600D01*
X78907400Y-92882600D02*
X78907400Y-90882600D01*
G04 #@! TO.C,C22*
X81017400Y-90882600D02*
X79817400Y-90882600D01*
X79817400Y-90882600D02*
X79817400Y-92882600D01*
X79817400Y-92882600D02*
X81017400Y-92882600D01*
X81017400Y-92882600D02*
X81017400Y-90882600D01*
G04 #@! TO.C,C64*
X94582400Y-91315100D02*
X94582400Y-89715100D01*
X93782400Y-91315100D02*
X94582400Y-91315100D01*
X93782400Y-89715100D02*
X93782400Y-91315100D01*
X94582400Y-89715100D02*
X93782400Y-89715100D01*
G04 #@! TO.C,C66*
X113576000Y-86468000D02*
X111976000Y-86468000D01*
X113576000Y-87268000D02*
X113576000Y-86468000D01*
X111976000Y-87268000D02*
X113576000Y-87268000D01*
X111976000Y-86468000D02*
X111976000Y-87268000D01*
G04 #@! TO.C,C98*
X127132400Y-70502600D02*
X128732400Y-70502600D01*
X127132400Y-69702600D02*
X127132400Y-70502600D01*
X128732400Y-69702600D02*
X127132400Y-69702600D01*
X128732400Y-70502600D02*
X128732400Y-69702600D01*
G04 #@! TO.C,C99*
X134836000Y-69361000D02*
X136436000Y-69361000D01*
X134836000Y-68561000D02*
X134836000Y-69361000D01*
X136436000Y-68561000D02*
X134836000Y-68561000D01*
X136436000Y-69361000D02*
X136436000Y-68561000D01*
G04 #@! TO.C,FID2*
X201707400Y-112702600D02*
G75*
G03X201707400Y-112702600I-1000000J0D01*
G01*
G04 #@! TO.C,FID3*
X74707400Y-45352600D02*
G75*
G03X74707400Y-45352600I-1000000J0D01*
G01*
G04 #@! TO.C,FID4*
X202207400Y-45252600D02*
G75*
G03X202207400Y-45252600I-1000000J0D01*
G01*
G04 #@! TO.C,Q12*
X156267000Y-73214000D02*
X156267000Y-74614000D01*
X153227000Y-74614000D02*
X156267000Y-74614000D01*
X153797000Y-73214000D02*
X153227000Y-73764000D01*
X153227000Y-73764000D02*
X153227000Y-74614000D01*
X153797000Y-73214000D02*
X156247000Y-73214000D01*
G04 #@! TO.C,Q13*
X185181500Y-79442000D02*
X185181500Y-78042000D01*
X188221500Y-78042000D02*
X185181500Y-78042000D01*
X187651500Y-79442000D02*
X188221500Y-78892000D01*
X188221500Y-78892000D02*
X188221500Y-78042000D01*
X187651500Y-79442000D02*
X185201500Y-79442000D01*
G04 #@! TO.C,TP20*
X131157000Y-68944000D02*
X131682000Y-69469000D01*
X131157000Y-68199000D02*
X131157000Y-68944000D01*
X133257000Y-68199000D02*
X131157000Y-68199000D01*
X133257000Y-69469000D02*
X133257000Y-68199000D01*
X131682000Y-69469000D02*
X133257000Y-69469000D01*
G04 #@! TO.C,Q4*
X172020000Y-102112000D02*
X173420000Y-102112000D01*
X173420000Y-105152000D02*
X173420000Y-102112000D01*
X172020000Y-104582000D02*
X172570000Y-105152000D01*
X172570000Y-105152000D02*
X173420000Y-105152000D01*
X172020000Y-104582000D02*
X172020000Y-102132000D01*
G04 #@! TO.C,Q7*
X172020000Y-100772000D02*
X172020000Y-98322000D01*
X172570000Y-101342000D02*
X173420000Y-101342000D01*
X172020000Y-100772000D02*
X172570000Y-101342000D01*
X173420000Y-101342000D02*
X173420000Y-98302000D01*
X172020000Y-98302000D02*
X173420000Y-98302000D01*
G04 #@! TO.C,R16*
X88320000Y-67260000D02*
X86720000Y-67260000D01*
X88320000Y-68060000D02*
X88320000Y-67260000D01*
X86720000Y-68060000D02*
X88320000Y-68060000D01*
X86720000Y-67260000D02*
X86720000Y-68060000D01*
G04 #@! TO.C,R42*
X154017000Y-102665000D02*
X152017000Y-102665000D01*
X154017000Y-103865000D02*
X154017000Y-102665000D01*
X152017000Y-103865000D02*
X154017000Y-103865000D01*
X152017000Y-102665000D02*
X152017000Y-103865000D01*
G04 #@! TO.C,R47*
X115057400Y-94177600D02*
X115057400Y-92977600D01*
X115057400Y-92977600D02*
X113057400Y-92977600D01*
X113057400Y-92977600D02*
X113057400Y-94177600D01*
X113057400Y-94177600D02*
X115057400Y-94177600D01*
G04 #@! TO.C,R48*
X85907400Y-96352600D02*
X87907400Y-96352600D01*
X85907400Y-95152600D02*
X85907400Y-96352600D01*
X87907400Y-95152600D02*
X85907400Y-95152600D01*
X87907400Y-96352600D02*
X87907400Y-95152600D01*
G04 #@! TO.C,R51*
X109682400Y-89227600D02*
X109682400Y-90827600D01*
X109682400Y-90827600D02*
X112882400Y-90827600D01*
X112882400Y-90827600D02*
X112882400Y-89227600D01*
X112882400Y-89227600D02*
X109682400Y-89227600D01*
G04 #@! TO.C,R57*
X142317000Y-102365000D02*
X139117000Y-102365000D01*
X142317000Y-103965000D02*
X142317000Y-102365000D01*
X139117000Y-103965000D02*
X142317000Y-103965000D01*
X139117000Y-102365000D02*
X139117000Y-103965000D01*
G04 #@! TO.C,R58*
X144729500Y-102365000D02*
X144729500Y-103965000D01*
X144729500Y-103965000D02*
X147929500Y-103965000D01*
X147929500Y-103965000D02*
X147929500Y-102365000D01*
X147929500Y-102365000D02*
X144729500Y-102365000D01*
G04 #@! TO.C,R64*
X168313200Y-103094740D02*
X169913200Y-103094740D01*
X168313200Y-102294740D02*
X168313200Y-103094740D01*
X169913200Y-102294740D02*
X168313200Y-102294740D01*
X169913200Y-103094740D02*
X169913200Y-102294740D01*
G04 #@! TO.C,R65*
X169964000Y-100730000D02*
X169964000Y-99930000D01*
X169964000Y-99930000D02*
X168364000Y-99930000D01*
X168364000Y-99930000D02*
X168364000Y-100730000D01*
X168364000Y-100730000D02*
X169964000Y-100730000D01*
G04 #@! TO.C,R74*
X107045000Y-81315000D02*
X105045000Y-81315000D01*
X107045000Y-82515000D02*
X107045000Y-81315000D01*
X105045000Y-82515000D02*
X107045000Y-82515000D01*
X105045000Y-81315000D02*
X105045000Y-82515000D01*
G04 #@! TO.C,R75*
X92980000Y-94396000D02*
X92980000Y-95596000D01*
X92980000Y-95596000D02*
X94980000Y-95596000D01*
X94980000Y-95596000D02*
X94980000Y-94396000D01*
X94980000Y-94396000D02*
X92980000Y-94396000D01*
G04 #@! TO.C,R76*
X94980000Y-93310000D02*
X94980000Y-92110000D01*
X94980000Y-92110000D02*
X92980000Y-92110000D01*
X92980000Y-92110000D02*
X92980000Y-93310000D01*
X92980000Y-93310000D02*
X94980000Y-93310000D01*
G04 #@! TO.C,R77*
X95725500Y-88046000D02*
X95725500Y-89246000D01*
X95725500Y-89246000D02*
X97725500Y-89246000D01*
X97725500Y-89246000D02*
X97725500Y-88046000D01*
X97725500Y-88046000D02*
X95725500Y-88046000D01*
G04 #@! TO.C,R81*
X112207400Y-74602600D02*
X110207400Y-74602600D01*
X112207400Y-75802600D02*
X112207400Y-74602600D01*
X110207400Y-75802600D02*
X112207400Y-75802600D01*
X110207400Y-74602600D02*
X110207400Y-75802600D01*
G04 #@! TO.C,R90*
X117400000Y-63000000D02*
X119400000Y-63000000D01*
X117400000Y-61800000D02*
X117400000Y-63000000D01*
X119400000Y-61800000D02*
X117400000Y-61800000D01*
X119400000Y-63000000D02*
X119400000Y-61800000D01*
G04 #@! TO.C,R91*
X127032400Y-66077600D02*
X125032400Y-66077600D01*
X127032400Y-67277600D02*
X127032400Y-66077600D01*
X125032400Y-67277600D02*
X127032400Y-67277600D01*
X125032400Y-66077600D02*
X125032400Y-67277600D01*
G04 #@! TO.C,R92*
X121885000Y-79772000D02*
X120685000Y-79772000D01*
X120685000Y-79772000D02*
X120685000Y-81772000D01*
X120685000Y-81772000D02*
X121885000Y-81772000D01*
X121885000Y-81772000D02*
X121885000Y-79772000D01*
G04 #@! TO.C,R95*
X131480000Y-73644000D02*
X132680000Y-73644000D01*
X132680000Y-73644000D02*
X132680000Y-71644000D01*
X132680000Y-71644000D02*
X131480000Y-71644000D01*
X131480000Y-71644000D02*
X131480000Y-73644000D01*
G04 #@! TO.C,R97*
X132332400Y-63852600D02*
X129132400Y-63852600D01*
X132332400Y-65452600D02*
X132332400Y-63852600D01*
X129132400Y-65452600D02*
X132332400Y-65452600D01*
X129132400Y-63852600D02*
X129132400Y-65452600D01*
G04 #@! TO.C,Q8*
X91629000Y-86999000D02*
X93029000Y-86999000D01*
X93029000Y-90039000D02*
X93029000Y-86999000D01*
X91629000Y-89469000D02*
X92179000Y-90039000D01*
X92179000Y-90039000D02*
X93029000Y-90039000D01*
X91629000Y-89469000D02*
X91629000Y-87019000D01*
G04 #@! TO.C,Q10*
X142794000Y-69972000D02*
X142794000Y-67522000D01*
X143344000Y-70542000D02*
X144194000Y-70542000D01*
X142794000Y-69972000D02*
X143344000Y-70542000D01*
X144194000Y-70542000D02*
X144194000Y-67502000D01*
X142794000Y-67502000D02*
X144194000Y-67502000D01*
G04 #@! TO.C,R43*
X89262000Y-89700000D02*
X90062000Y-89700000D01*
X90062000Y-89700000D02*
X90062000Y-88100000D01*
X90062000Y-88100000D02*
X89262000Y-88100000D01*
X89262000Y-88100000D02*
X89262000Y-89700000D01*
G04 #@! TO.C,R70*
X117894000Y-95294500D02*
X116294000Y-95294500D01*
X117894000Y-96094500D02*
X117894000Y-95294500D01*
X116294000Y-96094500D02*
X117894000Y-96094500D01*
X116294000Y-95294500D02*
X116294000Y-96094500D01*
G04 #@! TO.C,R71*
X111907400Y-99702600D02*
X111907400Y-100502600D01*
X111907400Y-100502600D02*
X113507400Y-100502600D01*
X113507400Y-100502600D02*
X113507400Y-99702600D01*
X113507400Y-99702600D02*
X111907400Y-99702600D01*
G04 #@! TO.C,R102*
X159708100Y-102587500D02*
X159708100Y-103787500D01*
X159708100Y-103787500D02*
X161708100Y-103787500D01*
X161708100Y-103787500D02*
X161708100Y-102587500D01*
X161708100Y-102587500D02*
X159708100Y-102587500D01*
G04 #@! TD*
G04 #@! TO.C,R99*
D12*
X110326447Y-72909980D02*
X110231209Y-72909980D01*
X110135971Y-72957600D01*
X110088352Y-73005219D01*
X110040733Y-73100457D01*
X109993114Y-73290933D01*
X109993114Y-73529028D01*
X110040733Y-73719504D01*
X110088352Y-73814742D01*
X110135971Y-73862361D01*
X110231209Y-73909980D01*
X110326447Y-73909980D01*
X110421685Y-73862361D01*
X110469304Y-73814742D01*
X110516923Y-73719504D01*
X110564542Y-73529028D01*
X110564542Y-73290933D01*
X110516923Y-73100457D01*
X110469304Y-73005219D01*
X110421685Y-72957600D01*
X110326447Y-72909980D01*
X109612161Y-73909980D02*
X109374066Y-73909980D01*
X109374066Y-73719504D01*
X109469304Y-73671885D01*
X109564542Y-73576647D01*
X109612161Y-73433790D01*
X109612161Y-73195695D01*
X109564542Y-73052838D01*
X109469304Y-72957600D01*
X109326447Y-72909980D01*
X109135971Y-72909980D01*
X108993114Y-72957600D01*
X108897876Y-73052838D01*
X108850257Y-73195695D01*
X108850257Y-73433790D01*
X108897876Y-73576647D01*
X108993114Y-73671885D01*
X109088352Y-73719504D01*
X109088352Y-73909980D01*
X108850257Y-73909980D01*
D13*
X109989542Y-72208552D02*
X110122876Y-72018076D01*
X110218114Y-72208552D02*
X110218114Y-71808552D01*
X110065733Y-71808552D01*
X110027638Y-71827600D01*
X110008590Y-71846647D01*
X109989542Y-71884742D01*
X109989542Y-71941885D01*
X110008590Y-71979980D01*
X110027638Y-71999028D01*
X110065733Y-72018076D01*
X110218114Y-72018076D01*
X109799066Y-72208552D02*
X109722876Y-72208552D01*
X109684780Y-72189504D01*
X109665733Y-72170457D01*
X109627638Y-72113314D01*
X109608590Y-72037123D01*
X109608590Y-71884742D01*
X109627638Y-71846647D01*
X109646685Y-71827600D01*
X109684780Y-71808552D01*
X109760971Y-71808552D01*
X109799066Y-71827600D01*
X109818114Y-71846647D01*
X109837161Y-71884742D01*
X109837161Y-71979980D01*
X109818114Y-72018076D01*
X109799066Y-72037123D01*
X109760971Y-72056171D01*
X109684780Y-72056171D01*
X109646685Y-72037123D01*
X109627638Y-72018076D01*
X109608590Y-71979980D01*
X109418114Y-72208552D02*
X109341923Y-72208552D01*
X109303828Y-72189504D01*
X109284780Y-72170457D01*
X109246685Y-72113314D01*
X109227638Y-72037123D01*
X109227638Y-71884742D01*
X109246685Y-71846647D01*
X109265733Y-71827600D01*
X109303828Y-71808552D01*
X109380019Y-71808552D01*
X109418114Y-71827600D01*
X109437161Y-71846647D01*
X109456209Y-71884742D01*
X109456209Y-71979980D01*
X109437161Y-72018076D01*
X109418114Y-72037123D01*
X109380019Y-72056171D01*
X109303828Y-72056171D01*
X109265733Y-72037123D01*
X109246685Y-72018076D01*
X109227638Y-71979980D01*
G04 #@! TO.C,R49*
D14*
X106239428Y-86332190D02*
X106406095Y-86094095D01*
X106525142Y-86332190D02*
X106525142Y-85832190D01*
X106334666Y-85832190D01*
X106287047Y-85856000D01*
X106263238Y-85879809D01*
X106239428Y-85927428D01*
X106239428Y-85998857D01*
X106263238Y-86046476D01*
X106287047Y-86070285D01*
X106334666Y-86094095D01*
X106525142Y-86094095D01*
X105810857Y-85998857D02*
X105810857Y-86332190D01*
X105929904Y-85808380D02*
X106048952Y-86165523D01*
X105739428Y-86165523D01*
X105525142Y-86332190D02*
X105429904Y-86332190D01*
X105382285Y-86308380D01*
X105358476Y-86284571D01*
X105310857Y-86213142D01*
X105287047Y-86117904D01*
X105287047Y-85927428D01*
X105310857Y-85879809D01*
X105334666Y-85856000D01*
X105382285Y-85832190D01*
X105477523Y-85832190D01*
X105525142Y-85856000D01*
X105548952Y-85879809D01*
X105572761Y-85927428D01*
X105572761Y-86046476D01*
X105548952Y-86094095D01*
X105525142Y-86117904D01*
X105477523Y-86141714D01*
X105382285Y-86141714D01*
X105334666Y-86117904D01*
X105310857Y-86094095D01*
X105287047Y-86046476D01*
G04 #@! TO.C,Q9*
D15*
X137513190Y-98754619D02*
X137537000Y-98802238D01*
X137584619Y-98849857D01*
X137656047Y-98921285D01*
X137679857Y-98968904D01*
X137679857Y-99016523D01*
X137560809Y-98992714D02*
X137584619Y-99040333D01*
X137632238Y-99087952D01*
X137727476Y-99111761D01*
X137894142Y-99111761D01*
X137989380Y-99087952D01*
X138037000Y-99040333D01*
X138060809Y-98992714D01*
X138060809Y-98897476D01*
X138037000Y-98849857D01*
X137989380Y-98802238D01*
X137894142Y-98778428D01*
X137727476Y-98778428D01*
X137632238Y-98802238D01*
X137584619Y-98849857D01*
X137560809Y-98897476D01*
X137560809Y-98992714D01*
X137560809Y-98540333D02*
X137560809Y-98445095D01*
X137584619Y-98397476D01*
X137608428Y-98373666D01*
X137679857Y-98326047D01*
X137775095Y-98302238D01*
X137965571Y-98302238D01*
X138013190Y-98326047D01*
X138037000Y-98349857D01*
X138060809Y-98397476D01*
X138060809Y-98492714D01*
X138037000Y-98540333D01*
X138013190Y-98564142D01*
X137965571Y-98587952D01*
X137846523Y-98587952D01*
X137798904Y-98564142D01*
X137775095Y-98540333D01*
X137751285Y-98492714D01*
X137751285Y-98397476D01*
X137775095Y-98349857D01*
X137798904Y-98326047D01*
X137846523Y-98302238D01*
G04 #@! TO.C,C100*
D16*
X100025585Y-73634238D02*
X100037490Y-73622333D01*
X100049395Y-73586619D01*
X100049395Y-73562809D01*
X100037490Y-73527095D01*
X100013680Y-73503285D01*
X99989871Y-73491380D01*
X99942252Y-73479476D01*
X99906538Y-73479476D01*
X99858919Y-73491380D01*
X99835109Y-73503285D01*
X99811300Y-73527095D01*
X99799395Y-73562809D01*
X99799395Y-73586619D01*
X99811300Y-73622333D01*
X99823204Y-73634238D01*
X100049395Y-73872333D02*
X100049395Y-73729476D01*
X100049395Y-73800904D02*
X99799395Y-73800904D01*
X99835109Y-73777095D01*
X99858919Y-73753285D01*
X99870823Y-73729476D01*
X99799395Y-74027095D02*
X99799395Y-74050904D01*
X99811300Y-74074714D01*
X99823204Y-74086619D01*
X99847014Y-74098523D01*
X99894633Y-74110428D01*
X99954157Y-74110428D01*
X100001776Y-74098523D01*
X100025585Y-74086619D01*
X100037490Y-74074714D01*
X100049395Y-74050904D01*
X100049395Y-74027095D01*
X100037490Y-74003285D01*
X100025585Y-73991380D01*
X100001776Y-73979476D01*
X99954157Y-73967571D01*
X99894633Y-73967571D01*
X99847014Y-73979476D01*
X99823204Y-73991380D01*
X99811300Y-74003285D01*
X99799395Y-74027095D01*
X99799395Y-74265190D02*
X99799395Y-74289000D01*
X99811300Y-74312809D01*
X99823204Y-74324714D01*
X99847014Y-74336619D01*
X99894633Y-74348523D01*
X99954157Y-74348523D01*
X100001776Y-74336619D01*
X100025585Y-74324714D01*
X100037490Y-74312809D01*
X100049395Y-74289000D01*
X100049395Y-74265190D01*
X100037490Y-74241380D01*
X100025585Y-74229476D01*
X100001776Y-74217571D01*
X99954157Y-74205666D01*
X99894633Y-74205666D01*
X99847014Y-74217571D01*
X99823204Y-74229476D01*
X99811300Y-74241380D01*
X99799395Y-74265190D01*
G04 #@! TO.C,C70*
X97061714Y-85814285D02*
X97073619Y-85826190D01*
X97109333Y-85838095D01*
X97133142Y-85838095D01*
X97168857Y-85826190D01*
X97192666Y-85802380D01*
X97204571Y-85778571D01*
X97216476Y-85730952D01*
X97216476Y-85695238D01*
X97204571Y-85647619D01*
X97192666Y-85623809D01*
X97168857Y-85600000D01*
X97133142Y-85588095D01*
X97109333Y-85588095D01*
X97073619Y-85600000D01*
X97061714Y-85611904D01*
X96978380Y-85588095D02*
X96811714Y-85588095D01*
X96918857Y-85838095D01*
X96668857Y-85588095D02*
X96645047Y-85588095D01*
X96621238Y-85600000D01*
X96609333Y-85611904D01*
X96597428Y-85635714D01*
X96585523Y-85683333D01*
X96585523Y-85742857D01*
X96597428Y-85790476D01*
X96609333Y-85814285D01*
X96621238Y-85826190D01*
X96645047Y-85838095D01*
X96668857Y-85838095D01*
X96692666Y-85826190D01*
X96704571Y-85814285D01*
X96716476Y-85790476D01*
X96728380Y-85742857D01*
X96728380Y-85683333D01*
X96716476Y-85635714D01*
X96704571Y-85611904D01*
X96692666Y-85600000D01*
X96668857Y-85588095D01*
G04 #@! TO.C,C51*
X183342214Y-95633285D02*
X183354119Y-95645190D01*
X183389833Y-95657095D01*
X183413642Y-95657095D01*
X183449357Y-95645190D01*
X183473166Y-95621380D01*
X183485071Y-95597571D01*
X183496976Y-95549952D01*
X183496976Y-95514238D01*
X183485071Y-95466619D01*
X183473166Y-95442809D01*
X183449357Y-95419000D01*
X183413642Y-95407095D01*
X183389833Y-95407095D01*
X183354119Y-95419000D01*
X183342214Y-95430904D01*
X183116023Y-95407095D02*
X183235071Y-95407095D01*
X183246976Y-95526142D01*
X183235071Y-95514238D01*
X183211261Y-95502333D01*
X183151738Y-95502333D01*
X183127928Y-95514238D01*
X183116023Y-95526142D01*
X183104119Y-95549952D01*
X183104119Y-95609476D01*
X183116023Y-95633285D01*
X183127928Y-95645190D01*
X183151738Y-95657095D01*
X183211261Y-95657095D01*
X183235071Y-95645190D01*
X183246976Y-95633285D01*
X182866023Y-95657095D02*
X183008880Y-95657095D01*
X182937452Y-95657095D02*
X182937452Y-95407095D01*
X182961261Y-95442809D01*
X182985071Y-95466619D01*
X183008880Y-95478523D01*
G04 #@! TO.C,C50*
X185542214Y-95633285D02*
X185554119Y-95645190D01*
X185589833Y-95657095D01*
X185613642Y-95657095D01*
X185649357Y-95645190D01*
X185673166Y-95621380D01*
X185685071Y-95597571D01*
X185696976Y-95549952D01*
X185696976Y-95514238D01*
X185685071Y-95466619D01*
X185673166Y-95442809D01*
X185649357Y-95419000D01*
X185613642Y-95407095D01*
X185589833Y-95407095D01*
X185554119Y-95419000D01*
X185542214Y-95430904D01*
X185316023Y-95407095D02*
X185435071Y-95407095D01*
X185446976Y-95526142D01*
X185435071Y-95514238D01*
X185411261Y-95502333D01*
X185351738Y-95502333D01*
X185327928Y-95514238D01*
X185316023Y-95526142D01*
X185304119Y-95549952D01*
X185304119Y-95609476D01*
X185316023Y-95633285D01*
X185327928Y-95645190D01*
X185351738Y-95657095D01*
X185411261Y-95657095D01*
X185435071Y-95645190D01*
X185446976Y-95633285D01*
X185149357Y-95407095D02*
X185125547Y-95407095D01*
X185101738Y-95419000D01*
X185089833Y-95430904D01*
X185077928Y-95454714D01*
X185066023Y-95502333D01*
X185066023Y-95561857D01*
X185077928Y-95609476D01*
X185089833Y-95633285D01*
X185101738Y-95645190D01*
X185125547Y-95657095D01*
X185149357Y-95657095D01*
X185173166Y-95645190D01*
X185185071Y-95633285D01*
X185196976Y-95609476D01*
X185208880Y-95561857D01*
X185208880Y-95502333D01*
X185196976Y-95454714D01*
X185185071Y-95430904D01*
X185173166Y-95419000D01*
X185149357Y-95407095D01*
G04 #@! TO.C,C18*
X82246685Y-91231885D02*
X82258590Y-91219980D01*
X82270495Y-91184266D01*
X82270495Y-91160457D01*
X82258590Y-91124742D01*
X82234780Y-91100933D01*
X82210971Y-91089028D01*
X82163352Y-91077123D01*
X82127638Y-91077123D01*
X82080019Y-91089028D01*
X82056209Y-91100933D01*
X82032400Y-91124742D01*
X82020495Y-91160457D01*
X82020495Y-91184266D01*
X82032400Y-91219980D01*
X82044304Y-91231885D01*
X82270495Y-91469980D02*
X82270495Y-91327123D01*
X82270495Y-91398552D02*
X82020495Y-91398552D01*
X82056209Y-91374742D01*
X82080019Y-91350933D01*
X82091923Y-91327123D01*
X82127638Y-91612838D02*
X82115733Y-91589028D01*
X82103828Y-91577123D01*
X82080019Y-91565219D01*
X82068114Y-91565219D01*
X82044304Y-91577123D01*
X82032400Y-91589028D01*
X82020495Y-91612838D01*
X82020495Y-91660457D01*
X82032400Y-91684266D01*
X82044304Y-91696171D01*
X82068114Y-91708076D01*
X82080019Y-91708076D01*
X82103828Y-91696171D01*
X82115733Y-91684266D01*
X82127638Y-91660457D01*
X82127638Y-91612838D01*
X82139542Y-91589028D01*
X82151447Y-91577123D01*
X82175257Y-91565219D01*
X82222876Y-91565219D01*
X82246685Y-91577123D01*
X82258590Y-91589028D01*
X82270495Y-91612838D01*
X82270495Y-91660457D01*
X82258590Y-91684266D01*
X82246685Y-91696171D01*
X82222876Y-91708076D01*
X82175257Y-91708076D01*
X82151447Y-91696171D01*
X82139542Y-91684266D01*
X82127638Y-91660457D01*
G04 #@! TO.C,D3*
D12*
X95266380Y-81049904D02*
X94266380Y-81049904D01*
X94266380Y-81288000D01*
X94314000Y-81430857D01*
X94409238Y-81526095D01*
X94504476Y-81573714D01*
X94694952Y-81621333D01*
X94837809Y-81621333D01*
X95028285Y-81573714D01*
X95123523Y-81526095D01*
X95218761Y-81430857D01*
X95266380Y-81288000D01*
X95266380Y-81049904D01*
X94266380Y-81954666D02*
X94266380Y-82573714D01*
X94647333Y-82240380D01*
X94647333Y-82383238D01*
X94694952Y-82478476D01*
X94742571Y-82526095D01*
X94837809Y-82573714D01*
X95075904Y-82573714D01*
X95171142Y-82526095D01*
X95218761Y-82478476D01*
X95266380Y-82383238D01*
X95266380Y-82097523D01*
X95218761Y-82002285D01*
X95171142Y-81954666D01*
G04 #@! TO.C,D4*
X103608095Y-79518380D02*
X103608095Y-78518380D01*
X103370000Y-78518380D01*
X103227142Y-78566000D01*
X103131904Y-78661238D01*
X103084285Y-78756476D01*
X103036666Y-78946952D01*
X103036666Y-79089809D01*
X103084285Y-79280285D01*
X103131904Y-79375523D01*
X103227142Y-79470761D01*
X103370000Y-79518380D01*
X103608095Y-79518380D01*
X102179523Y-78851714D02*
X102179523Y-79518380D01*
X102417619Y-78470761D02*
X102655714Y-79185047D01*
X102036666Y-79185047D01*
G04 #@! TO.C,R39*
D13*
X183826142Y-93924952D02*
X183959476Y-93734476D01*
X184054714Y-93924952D02*
X184054714Y-93524952D01*
X183902333Y-93524952D01*
X183864238Y-93544000D01*
X183845190Y-93563047D01*
X183826142Y-93601142D01*
X183826142Y-93658285D01*
X183845190Y-93696380D01*
X183864238Y-93715428D01*
X183902333Y-93734476D01*
X184054714Y-93734476D01*
X183692809Y-93524952D02*
X183445190Y-93524952D01*
X183578523Y-93677333D01*
X183521380Y-93677333D01*
X183483285Y-93696380D01*
X183464238Y-93715428D01*
X183445190Y-93753523D01*
X183445190Y-93848761D01*
X183464238Y-93886857D01*
X183483285Y-93905904D01*
X183521380Y-93924952D01*
X183635666Y-93924952D01*
X183673761Y-93905904D01*
X183692809Y-93886857D01*
X183254714Y-93924952D02*
X183178523Y-93924952D01*
X183140428Y-93905904D01*
X183121380Y-93886857D01*
X183083285Y-93829714D01*
X183064238Y-93753523D01*
X183064238Y-93601142D01*
X183083285Y-93563047D01*
X183102333Y-93544000D01*
X183140428Y-93524952D01*
X183216619Y-93524952D01*
X183254714Y-93544000D01*
X183273761Y-93563047D01*
X183292809Y-93601142D01*
X183292809Y-93696380D01*
X183273761Y-93734476D01*
X183254714Y-93753523D01*
X183216619Y-93772571D01*
X183140428Y-93772571D01*
X183102333Y-93753523D01*
X183083285Y-93734476D01*
X183064238Y-93696380D01*
G04 #@! TO.C,R40*
X187226142Y-93912452D02*
X187359476Y-93721976D01*
X187454714Y-93912452D02*
X187454714Y-93512452D01*
X187302333Y-93512452D01*
X187264238Y-93531500D01*
X187245190Y-93550547D01*
X187226142Y-93588642D01*
X187226142Y-93645785D01*
X187245190Y-93683880D01*
X187264238Y-93702928D01*
X187302333Y-93721976D01*
X187454714Y-93721976D01*
X186883285Y-93645785D02*
X186883285Y-93912452D01*
X186978523Y-93493404D02*
X187073761Y-93779119D01*
X186826142Y-93779119D01*
X186597571Y-93512452D02*
X186559476Y-93512452D01*
X186521380Y-93531500D01*
X186502333Y-93550547D01*
X186483285Y-93588642D01*
X186464238Y-93664833D01*
X186464238Y-93760071D01*
X186483285Y-93836261D01*
X186502333Y-93874357D01*
X186521380Y-93893404D01*
X186559476Y-93912452D01*
X186597571Y-93912452D01*
X186635666Y-93893404D01*
X186654714Y-93874357D01*
X186673761Y-93836261D01*
X186692809Y-93760071D01*
X186692809Y-93664833D01*
X186673761Y-93588642D01*
X186654714Y-93550547D01*
X186635666Y-93531500D01*
X186597571Y-93512452D01*
G04 #@! TO.C,R53*
X155257142Y-71080952D02*
X155390476Y-70890476D01*
X155485714Y-71080952D02*
X155485714Y-70680952D01*
X155333333Y-70680952D01*
X155295238Y-70700000D01*
X155276190Y-70719047D01*
X155257142Y-70757142D01*
X155257142Y-70814285D01*
X155276190Y-70852380D01*
X155295238Y-70871428D01*
X155333333Y-70890476D01*
X155485714Y-70890476D01*
X154895238Y-70680952D02*
X155085714Y-70680952D01*
X155104761Y-70871428D01*
X155085714Y-70852380D01*
X155047619Y-70833333D01*
X154952380Y-70833333D01*
X154914285Y-70852380D01*
X154895238Y-70871428D01*
X154876190Y-70909523D01*
X154876190Y-71004761D01*
X154895238Y-71042857D01*
X154914285Y-71061904D01*
X154952380Y-71080952D01*
X155047619Y-71080952D01*
X155085714Y-71061904D01*
X155104761Y-71042857D01*
X154742857Y-70680952D02*
X154495238Y-70680952D01*
X154628571Y-70833333D01*
X154571428Y-70833333D01*
X154533333Y-70852380D01*
X154514285Y-70871428D01*
X154495238Y-70909523D01*
X154495238Y-71004761D01*
X154514285Y-71042857D01*
X154533333Y-71061904D01*
X154571428Y-71080952D01*
X154685714Y-71080952D01*
X154723809Y-71061904D01*
X154742857Y-71042857D01*
G04 #@! TO.C,R54*
X190524542Y-78883552D02*
X190657876Y-78693076D01*
X190753114Y-78883552D02*
X190753114Y-78483552D01*
X190600733Y-78483552D01*
X190562638Y-78502600D01*
X190543590Y-78521647D01*
X190524542Y-78559742D01*
X190524542Y-78616885D01*
X190543590Y-78654980D01*
X190562638Y-78674028D01*
X190600733Y-78693076D01*
X190753114Y-78693076D01*
X190162638Y-78483552D02*
X190353114Y-78483552D01*
X190372161Y-78674028D01*
X190353114Y-78654980D01*
X190315019Y-78635933D01*
X190219780Y-78635933D01*
X190181685Y-78654980D01*
X190162638Y-78674028D01*
X190143590Y-78712123D01*
X190143590Y-78807361D01*
X190162638Y-78845457D01*
X190181685Y-78864504D01*
X190219780Y-78883552D01*
X190315019Y-78883552D01*
X190353114Y-78864504D01*
X190372161Y-78845457D01*
X189800733Y-78616885D02*
X189800733Y-78883552D01*
X189895971Y-78464504D02*
X189991209Y-78750219D01*
X189743590Y-78750219D01*
G04 #@! TO.C,R55*
X135427952Y-98449857D02*
X135237476Y-98316523D01*
X135427952Y-98221285D02*
X135027952Y-98221285D01*
X135027952Y-98373666D01*
X135047000Y-98411761D01*
X135066047Y-98430809D01*
X135104142Y-98449857D01*
X135161285Y-98449857D01*
X135199380Y-98430809D01*
X135218428Y-98411761D01*
X135237476Y-98373666D01*
X135237476Y-98221285D01*
X135027952Y-98811761D02*
X135027952Y-98621285D01*
X135218428Y-98602238D01*
X135199380Y-98621285D01*
X135180333Y-98659380D01*
X135180333Y-98754619D01*
X135199380Y-98792714D01*
X135218428Y-98811761D01*
X135256523Y-98830809D01*
X135351761Y-98830809D01*
X135389857Y-98811761D01*
X135408904Y-98792714D01*
X135427952Y-98754619D01*
X135427952Y-98659380D01*
X135408904Y-98621285D01*
X135389857Y-98602238D01*
X135027952Y-99192714D02*
X135027952Y-99002238D01*
X135218428Y-98983190D01*
X135199380Y-99002238D01*
X135180333Y-99040333D01*
X135180333Y-99135571D01*
X135199380Y-99173666D01*
X135218428Y-99192714D01*
X135256523Y-99211761D01*
X135351761Y-99211761D01*
X135389857Y-99192714D01*
X135408904Y-99173666D01*
X135427952Y-99135571D01*
X135427952Y-99040333D01*
X135408904Y-99002238D01*
X135389857Y-98983190D01*
G04 #@! TO.C,R56*
X140261952Y-68576857D02*
X140071476Y-68443523D01*
X140261952Y-68348285D02*
X139861952Y-68348285D01*
X139861952Y-68500666D01*
X139881000Y-68538761D01*
X139900047Y-68557809D01*
X139938142Y-68576857D01*
X139995285Y-68576857D01*
X140033380Y-68557809D01*
X140052428Y-68538761D01*
X140071476Y-68500666D01*
X140071476Y-68348285D01*
X139861952Y-68938761D02*
X139861952Y-68748285D01*
X140052428Y-68729238D01*
X140033380Y-68748285D01*
X140014333Y-68786380D01*
X140014333Y-68881619D01*
X140033380Y-68919714D01*
X140052428Y-68938761D01*
X140090523Y-68957809D01*
X140185761Y-68957809D01*
X140223857Y-68938761D01*
X140242904Y-68919714D01*
X140261952Y-68881619D01*
X140261952Y-68786380D01*
X140242904Y-68748285D01*
X140223857Y-68729238D01*
X139861952Y-69300666D02*
X139861952Y-69224476D01*
X139881000Y-69186380D01*
X139900047Y-69167333D01*
X139957190Y-69129238D01*
X140033380Y-69110190D01*
X140185761Y-69110190D01*
X140223857Y-69129238D01*
X140242904Y-69148285D01*
X140261952Y-69186380D01*
X140261952Y-69262571D01*
X140242904Y-69300666D01*
X140223857Y-69319714D01*
X140185761Y-69338761D01*
X140090523Y-69338761D01*
X140052428Y-69319714D01*
X140033380Y-69300666D01*
X140014333Y-69262571D01*
X140014333Y-69186380D01*
X140033380Y-69148285D01*
X140052428Y-69129238D01*
X140090523Y-69110190D01*
G04 #@! TO.C,R20*
X91697142Y-76634952D02*
X91830476Y-76444476D01*
X91925714Y-76634952D02*
X91925714Y-76234952D01*
X91773333Y-76234952D01*
X91735238Y-76254000D01*
X91716190Y-76273047D01*
X91697142Y-76311142D01*
X91697142Y-76368285D01*
X91716190Y-76406380D01*
X91735238Y-76425428D01*
X91773333Y-76444476D01*
X91925714Y-76444476D01*
X91544761Y-76273047D02*
X91525714Y-76254000D01*
X91487619Y-76234952D01*
X91392380Y-76234952D01*
X91354285Y-76254000D01*
X91335238Y-76273047D01*
X91316190Y-76311142D01*
X91316190Y-76349238D01*
X91335238Y-76406380D01*
X91563809Y-76634952D01*
X91316190Y-76634952D01*
X91068571Y-76234952D02*
X91030476Y-76234952D01*
X90992380Y-76254000D01*
X90973333Y-76273047D01*
X90954285Y-76311142D01*
X90935238Y-76387333D01*
X90935238Y-76482571D01*
X90954285Y-76558761D01*
X90973333Y-76596857D01*
X90992380Y-76615904D01*
X91030476Y-76634952D01*
X91068571Y-76634952D01*
X91106666Y-76615904D01*
X91125714Y-76596857D01*
X91144761Y-76558761D01*
X91163809Y-76482571D01*
X91163809Y-76387333D01*
X91144761Y-76311142D01*
X91125714Y-76273047D01*
X91106666Y-76254000D01*
X91068571Y-76234952D01*
G04 #@! TO.C,R22*
X102111142Y-72570952D02*
X102244476Y-72380476D01*
X102339714Y-72570952D02*
X102339714Y-72170952D01*
X102187333Y-72170952D01*
X102149238Y-72190000D01*
X102130190Y-72209047D01*
X102111142Y-72247142D01*
X102111142Y-72304285D01*
X102130190Y-72342380D01*
X102149238Y-72361428D01*
X102187333Y-72380476D01*
X102339714Y-72380476D01*
X101958761Y-72209047D02*
X101939714Y-72190000D01*
X101901619Y-72170952D01*
X101806380Y-72170952D01*
X101768285Y-72190000D01*
X101749238Y-72209047D01*
X101730190Y-72247142D01*
X101730190Y-72285238D01*
X101749238Y-72342380D01*
X101977809Y-72570952D01*
X101730190Y-72570952D01*
X101577809Y-72209047D02*
X101558761Y-72190000D01*
X101520666Y-72170952D01*
X101425428Y-72170952D01*
X101387333Y-72190000D01*
X101368285Y-72209047D01*
X101349238Y-72247142D01*
X101349238Y-72285238D01*
X101368285Y-72342380D01*
X101596857Y-72570952D01*
X101349238Y-72570952D01*
G04 #@! TO.C,R23*
X102111142Y-74602952D02*
X102244476Y-74412476D01*
X102339714Y-74602952D02*
X102339714Y-74202952D01*
X102187333Y-74202952D01*
X102149238Y-74222000D01*
X102130190Y-74241047D01*
X102111142Y-74279142D01*
X102111142Y-74336285D01*
X102130190Y-74374380D01*
X102149238Y-74393428D01*
X102187333Y-74412476D01*
X102339714Y-74412476D01*
X101958761Y-74241047D02*
X101939714Y-74222000D01*
X101901619Y-74202952D01*
X101806380Y-74202952D01*
X101768285Y-74222000D01*
X101749238Y-74241047D01*
X101730190Y-74279142D01*
X101730190Y-74317238D01*
X101749238Y-74374380D01*
X101977809Y-74602952D01*
X101730190Y-74602952D01*
X101596857Y-74202952D02*
X101349238Y-74202952D01*
X101482571Y-74355333D01*
X101425428Y-74355333D01*
X101387333Y-74374380D01*
X101368285Y-74393428D01*
X101349238Y-74431523D01*
X101349238Y-74526761D01*
X101368285Y-74564857D01*
X101387333Y-74583904D01*
X101425428Y-74602952D01*
X101539714Y-74602952D01*
X101577809Y-74583904D01*
X101596857Y-74564857D01*
G04 #@! TO.C,C20*
D14*
X78485971Y-91561171D02*
X78509780Y-91537361D01*
X78533590Y-91465933D01*
X78533590Y-91418314D01*
X78509780Y-91346885D01*
X78462161Y-91299266D01*
X78414542Y-91275457D01*
X78319304Y-91251647D01*
X78247876Y-91251647D01*
X78152638Y-91275457D01*
X78105019Y-91299266D01*
X78057400Y-91346885D01*
X78033590Y-91418314D01*
X78033590Y-91465933D01*
X78057400Y-91537361D01*
X78081209Y-91561171D01*
X78081209Y-91751647D02*
X78057400Y-91775457D01*
X78033590Y-91823076D01*
X78033590Y-91942123D01*
X78057400Y-91989742D01*
X78081209Y-92013552D01*
X78128828Y-92037361D01*
X78176447Y-92037361D01*
X78247876Y-92013552D01*
X78533590Y-91727838D01*
X78533590Y-92037361D01*
X78033590Y-92346885D02*
X78033590Y-92394504D01*
X78057400Y-92442123D01*
X78081209Y-92465933D01*
X78128828Y-92489742D01*
X78224066Y-92513552D01*
X78343114Y-92513552D01*
X78438352Y-92489742D01*
X78485971Y-92465933D01*
X78509780Y-92442123D01*
X78533590Y-92394504D01*
X78533590Y-92346885D01*
X78509780Y-92299266D01*
X78485971Y-92275457D01*
X78438352Y-92251647D01*
X78343114Y-92227838D01*
X78224066Y-92227838D01*
X78128828Y-92251647D01*
X78081209Y-92275457D01*
X78057400Y-92299266D01*
X78033590Y-92346885D01*
G04 #@! TO.C,C22*
X80595971Y-91561171D02*
X80619780Y-91537361D01*
X80643590Y-91465933D01*
X80643590Y-91418314D01*
X80619780Y-91346885D01*
X80572161Y-91299266D01*
X80524542Y-91275457D01*
X80429304Y-91251647D01*
X80357876Y-91251647D01*
X80262638Y-91275457D01*
X80215019Y-91299266D01*
X80167400Y-91346885D01*
X80143590Y-91418314D01*
X80143590Y-91465933D01*
X80167400Y-91537361D01*
X80191209Y-91561171D01*
X80191209Y-91751647D02*
X80167400Y-91775457D01*
X80143590Y-91823076D01*
X80143590Y-91942123D01*
X80167400Y-91989742D01*
X80191209Y-92013552D01*
X80238828Y-92037361D01*
X80286447Y-92037361D01*
X80357876Y-92013552D01*
X80643590Y-91727838D01*
X80643590Y-92037361D01*
X80191209Y-92227838D02*
X80167400Y-92251647D01*
X80143590Y-92299266D01*
X80143590Y-92418314D01*
X80167400Y-92465933D01*
X80191209Y-92489742D01*
X80238828Y-92513552D01*
X80286447Y-92513552D01*
X80357876Y-92489742D01*
X80643590Y-92204028D01*
X80643590Y-92513552D01*
G04 #@! TO.C,C64*
D13*
X94325257Y-90257957D02*
X94344304Y-90238909D01*
X94363352Y-90181766D01*
X94363352Y-90143671D01*
X94344304Y-90086528D01*
X94306209Y-90048433D01*
X94268114Y-90029385D01*
X94191923Y-90010338D01*
X94134780Y-90010338D01*
X94058590Y-90029385D01*
X94020495Y-90048433D01*
X93982400Y-90086528D01*
X93963352Y-90143671D01*
X93963352Y-90181766D01*
X93982400Y-90238909D01*
X94001447Y-90257957D01*
X93963352Y-90600814D02*
X93963352Y-90524623D01*
X93982400Y-90486528D01*
X94001447Y-90467480D01*
X94058590Y-90429385D01*
X94134780Y-90410338D01*
X94287161Y-90410338D01*
X94325257Y-90429385D01*
X94344304Y-90448433D01*
X94363352Y-90486528D01*
X94363352Y-90562719D01*
X94344304Y-90600814D01*
X94325257Y-90619861D01*
X94287161Y-90638909D01*
X94191923Y-90638909D01*
X94153828Y-90619861D01*
X94134780Y-90600814D01*
X94115733Y-90562719D01*
X94115733Y-90486528D01*
X94134780Y-90448433D01*
X94153828Y-90429385D01*
X94191923Y-90410338D01*
X94096685Y-90981766D02*
X94363352Y-90981766D01*
X93944304Y-90886528D02*
X94230019Y-90791290D01*
X94230019Y-91038909D01*
G04 #@! TO.C,C66*
X113045642Y-87010857D02*
X113064690Y-87029904D01*
X113121833Y-87048952D01*
X113159928Y-87048952D01*
X113217071Y-87029904D01*
X113255166Y-86991809D01*
X113274214Y-86953714D01*
X113293261Y-86877523D01*
X113293261Y-86820380D01*
X113274214Y-86744190D01*
X113255166Y-86706095D01*
X113217071Y-86668000D01*
X113159928Y-86648952D01*
X113121833Y-86648952D01*
X113064690Y-86668000D01*
X113045642Y-86687047D01*
X112702785Y-86648952D02*
X112778976Y-86648952D01*
X112817071Y-86668000D01*
X112836119Y-86687047D01*
X112874214Y-86744190D01*
X112893261Y-86820380D01*
X112893261Y-86972761D01*
X112874214Y-87010857D01*
X112855166Y-87029904D01*
X112817071Y-87048952D01*
X112740880Y-87048952D01*
X112702785Y-87029904D01*
X112683738Y-87010857D01*
X112664690Y-86972761D01*
X112664690Y-86877523D01*
X112683738Y-86839428D01*
X112702785Y-86820380D01*
X112740880Y-86801333D01*
X112817071Y-86801333D01*
X112855166Y-86820380D01*
X112874214Y-86839428D01*
X112893261Y-86877523D01*
X112321833Y-86648952D02*
X112398023Y-86648952D01*
X112436119Y-86668000D01*
X112455166Y-86687047D01*
X112493261Y-86744190D01*
X112512309Y-86820380D01*
X112512309Y-86972761D01*
X112493261Y-87010857D01*
X112474214Y-87029904D01*
X112436119Y-87048952D01*
X112359928Y-87048952D01*
X112321833Y-87029904D01*
X112302785Y-87010857D01*
X112283738Y-86972761D01*
X112283738Y-86877523D01*
X112302785Y-86839428D01*
X112321833Y-86820380D01*
X112359928Y-86801333D01*
X112436119Y-86801333D01*
X112474214Y-86820380D01*
X112493261Y-86839428D01*
X112512309Y-86877523D01*
G04 #@! TO.C,C98*
X128189542Y-70245457D02*
X128208590Y-70264504D01*
X128265733Y-70283552D01*
X128303828Y-70283552D01*
X128360971Y-70264504D01*
X128399066Y-70226409D01*
X128418114Y-70188314D01*
X128437161Y-70112123D01*
X128437161Y-70054980D01*
X128418114Y-69978790D01*
X128399066Y-69940695D01*
X128360971Y-69902600D01*
X128303828Y-69883552D01*
X128265733Y-69883552D01*
X128208590Y-69902600D01*
X128189542Y-69921647D01*
X127999066Y-70283552D02*
X127922876Y-70283552D01*
X127884780Y-70264504D01*
X127865733Y-70245457D01*
X127827638Y-70188314D01*
X127808590Y-70112123D01*
X127808590Y-69959742D01*
X127827638Y-69921647D01*
X127846685Y-69902600D01*
X127884780Y-69883552D01*
X127960971Y-69883552D01*
X127999066Y-69902600D01*
X128018114Y-69921647D01*
X128037161Y-69959742D01*
X128037161Y-70054980D01*
X128018114Y-70093076D01*
X127999066Y-70112123D01*
X127960971Y-70131171D01*
X127884780Y-70131171D01*
X127846685Y-70112123D01*
X127827638Y-70093076D01*
X127808590Y-70054980D01*
X127580019Y-70054980D02*
X127618114Y-70035933D01*
X127637161Y-70016885D01*
X127656209Y-69978790D01*
X127656209Y-69959742D01*
X127637161Y-69921647D01*
X127618114Y-69902600D01*
X127580019Y-69883552D01*
X127503828Y-69883552D01*
X127465733Y-69902600D01*
X127446685Y-69921647D01*
X127427638Y-69959742D01*
X127427638Y-69978790D01*
X127446685Y-70016885D01*
X127465733Y-70035933D01*
X127503828Y-70054980D01*
X127580019Y-70054980D01*
X127618114Y-70074028D01*
X127637161Y-70093076D01*
X127656209Y-70131171D01*
X127656209Y-70207361D01*
X127637161Y-70245457D01*
X127618114Y-70264504D01*
X127580019Y-70283552D01*
X127503828Y-70283552D01*
X127465733Y-70264504D01*
X127446685Y-70245457D01*
X127427638Y-70207361D01*
X127427638Y-70131171D01*
X127446685Y-70093076D01*
X127465733Y-70074028D01*
X127503828Y-70054980D01*
G04 #@! TO.C,C99*
X135893142Y-69103857D02*
X135912190Y-69122904D01*
X135969333Y-69141952D01*
X136007428Y-69141952D01*
X136064571Y-69122904D01*
X136102666Y-69084809D01*
X136121714Y-69046714D01*
X136140761Y-68970523D01*
X136140761Y-68913380D01*
X136121714Y-68837190D01*
X136102666Y-68799095D01*
X136064571Y-68761000D01*
X136007428Y-68741952D01*
X135969333Y-68741952D01*
X135912190Y-68761000D01*
X135893142Y-68780047D01*
X135702666Y-69141952D02*
X135626476Y-69141952D01*
X135588380Y-69122904D01*
X135569333Y-69103857D01*
X135531238Y-69046714D01*
X135512190Y-68970523D01*
X135512190Y-68818142D01*
X135531238Y-68780047D01*
X135550285Y-68761000D01*
X135588380Y-68741952D01*
X135664571Y-68741952D01*
X135702666Y-68761000D01*
X135721714Y-68780047D01*
X135740761Y-68818142D01*
X135740761Y-68913380D01*
X135721714Y-68951476D01*
X135702666Y-68970523D01*
X135664571Y-68989571D01*
X135588380Y-68989571D01*
X135550285Y-68970523D01*
X135531238Y-68951476D01*
X135512190Y-68913380D01*
X135321714Y-69141952D02*
X135245523Y-69141952D01*
X135207428Y-69122904D01*
X135188380Y-69103857D01*
X135150285Y-69046714D01*
X135131238Y-68970523D01*
X135131238Y-68818142D01*
X135150285Y-68780047D01*
X135169333Y-68761000D01*
X135207428Y-68741952D01*
X135283619Y-68741952D01*
X135321714Y-68761000D01*
X135340761Y-68780047D01*
X135359809Y-68818142D01*
X135359809Y-68913380D01*
X135340761Y-68951476D01*
X135321714Y-68970523D01*
X135283619Y-68989571D01*
X135207428Y-68989571D01*
X135169333Y-68970523D01*
X135150285Y-68951476D01*
X135131238Y-68913380D01*
G04 #@! TO.C,FID2*
X201135971Y-112674028D02*
X201269304Y-112674028D01*
X201269304Y-112883552D02*
X201269304Y-112483552D01*
X201078828Y-112483552D01*
X200926447Y-112883552D02*
X200926447Y-112483552D01*
X200735971Y-112883552D02*
X200735971Y-112483552D01*
X200640733Y-112483552D01*
X200583590Y-112502600D01*
X200545495Y-112540695D01*
X200526447Y-112578790D01*
X200507400Y-112654980D01*
X200507400Y-112712123D01*
X200526447Y-112788314D01*
X200545495Y-112826409D01*
X200583590Y-112864504D01*
X200640733Y-112883552D01*
X200735971Y-112883552D01*
X200355019Y-112521647D02*
X200335971Y-112502600D01*
X200297876Y-112483552D01*
X200202638Y-112483552D01*
X200164542Y-112502600D01*
X200145495Y-112521647D01*
X200126447Y-112559742D01*
X200126447Y-112597838D01*
X200145495Y-112654980D01*
X200374066Y-112883552D01*
X200126447Y-112883552D01*
G04 #@! TO.C,FID3*
X74135971Y-45324028D02*
X74269304Y-45324028D01*
X74269304Y-45533552D02*
X74269304Y-45133552D01*
X74078828Y-45133552D01*
X73926447Y-45533552D02*
X73926447Y-45133552D01*
X73735971Y-45533552D02*
X73735971Y-45133552D01*
X73640733Y-45133552D01*
X73583590Y-45152600D01*
X73545495Y-45190695D01*
X73526447Y-45228790D01*
X73507400Y-45304980D01*
X73507400Y-45362123D01*
X73526447Y-45438314D01*
X73545495Y-45476409D01*
X73583590Y-45514504D01*
X73640733Y-45533552D01*
X73735971Y-45533552D01*
X73374066Y-45133552D02*
X73126447Y-45133552D01*
X73259780Y-45285933D01*
X73202638Y-45285933D01*
X73164542Y-45304980D01*
X73145495Y-45324028D01*
X73126447Y-45362123D01*
X73126447Y-45457361D01*
X73145495Y-45495457D01*
X73164542Y-45514504D01*
X73202638Y-45533552D01*
X73316923Y-45533552D01*
X73355019Y-45514504D01*
X73374066Y-45495457D01*
G04 #@! TO.C,FID4*
X201635971Y-45224028D02*
X201769304Y-45224028D01*
X201769304Y-45433552D02*
X201769304Y-45033552D01*
X201578828Y-45033552D01*
X201426447Y-45433552D02*
X201426447Y-45033552D01*
X201235971Y-45433552D02*
X201235971Y-45033552D01*
X201140733Y-45033552D01*
X201083590Y-45052600D01*
X201045495Y-45090695D01*
X201026447Y-45128790D01*
X201007400Y-45204980D01*
X201007400Y-45262123D01*
X201026447Y-45338314D01*
X201045495Y-45376409D01*
X201083590Y-45414504D01*
X201140733Y-45433552D01*
X201235971Y-45433552D01*
X200664542Y-45166885D02*
X200664542Y-45433552D01*
X200759780Y-45014504D02*
X200855019Y-45300219D01*
X200607400Y-45300219D01*
G04 #@! TO.C,Q12*
D15*
X155032714Y-74187809D02*
X155080333Y-74164000D01*
X155127952Y-74116380D01*
X155199380Y-74044952D01*
X155247000Y-74021142D01*
X155294619Y-74021142D01*
X155270809Y-74140190D02*
X155318428Y-74116380D01*
X155366047Y-74068761D01*
X155389857Y-73973523D01*
X155389857Y-73806857D01*
X155366047Y-73711619D01*
X155318428Y-73664000D01*
X155270809Y-73640190D01*
X155175571Y-73640190D01*
X155127952Y-73664000D01*
X155080333Y-73711619D01*
X155056523Y-73806857D01*
X155056523Y-73973523D01*
X155080333Y-74068761D01*
X155127952Y-74116380D01*
X155175571Y-74140190D01*
X155270809Y-74140190D01*
X154580333Y-74140190D02*
X154866047Y-74140190D01*
X154723190Y-74140190D02*
X154723190Y-73640190D01*
X154770809Y-73711619D01*
X154818428Y-73759238D01*
X154866047Y-73783047D01*
X154389857Y-73687809D02*
X154366047Y-73664000D01*
X154318428Y-73640190D01*
X154199380Y-73640190D01*
X154151761Y-73664000D01*
X154127952Y-73687809D01*
X154104142Y-73735428D01*
X154104142Y-73783047D01*
X154127952Y-73854476D01*
X154413666Y-74140190D01*
X154104142Y-74140190D01*
G04 #@! TO.C,Q13*
X186987214Y-79015809D02*
X187034833Y-78992000D01*
X187082452Y-78944380D01*
X187153880Y-78872952D01*
X187201500Y-78849142D01*
X187249119Y-78849142D01*
X187225309Y-78968190D02*
X187272928Y-78944380D01*
X187320547Y-78896761D01*
X187344357Y-78801523D01*
X187344357Y-78634857D01*
X187320547Y-78539619D01*
X187272928Y-78492000D01*
X187225309Y-78468190D01*
X187130071Y-78468190D01*
X187082452Y-78492000D01*
X187034833Y-78539619D01*
X187011023Y-78634857D01*
X187011023Y-78801523D01*
X187034833Y-78896761D01*
X187082452Y-78944380D01*
X187130071Y-78968190D01*
X187225309Y-78968190D01*
X186534833Y-78968190D02*
X186820547Y-78968190D01*
X186677690Y-78968190D02*
X186677690Y-78468190D01*
X186725309Y-78539619D01*
X186772928Y-78587238D01*
X186820547Y-78611047D01*
X186368166Y-78468190D02*
X186058642Y-78468190D01*
X186225309Y-78658666D01*
X186153880Y-78658666D01*
X186106261Y-78682476D01*
X186082452Y-78706285D01*
X186058642Y-78753904D01*
X186058642Y-78872952D01*
X186082452Y-78920571D01*
X186106261Y-78944380D01*
X186153880Y-78968190D01*
X186296738Y-78968190D01*
X186344357Y-78944380D01*
X186368166Y-78920571D01*
G04 #@! TO.C,TP20*
D12*
X132754619Y-70572095D02*
X132754619Y-70000666D01*
X131754619Y-70286380D02*
X132754619Y-70286380D01*
X131754619Y-69667333D02*
X132754619Y-69667333D01*
X132754619Y-69286380D01*
X132707000Y-69191142D01*
X132659380Y-69143523D01*
X132564142Y-69095904D01*
X132421285Y-69095904D01*
X132326047Y-69143523D01*
X132278428Y-69191142D01*
X132230809Y-69286380D01*
X132230809Y-69667333D01*
X132659380Y-68714952D02*
X132707000Y-68667333D01*
X132754619Y-68572095D01*
X132754619Y-68334000D01*
X132707000Y-68238761D01*
X132659380Y-68191142D01*
X132564142Y-68143523D01*
X132468904Y-68143523D01*
X132326047Y-68191142D01*
X131754619Y-68762571D01*
X131754619Y-68143523D01*
X132754619Y-67524476D02*
X132754619Y-67429238D01*
X132707000Y-67334000D01*
X132659380Y-67286380D01*
X132564142Y-67238761D01*
X132373666Y-67191142D01*
X132135571Y-67191142D01*
X131945095Y-67238761D01*
X131849857Y-67286380D01*
X131802238Y-67334000D01*
X131754619Y-67429238D01*
X131754619Y-67524476D01*
X131802238Y-67619714D01*
X131849857Y-67667333D01*
X131945095Y-67714952D01*
X132135571Y-67762571D01*
X132373666Y-67762571D01*
X132564142Y-67714952D01*
X132659380Y-67667333D01*
X132707000Y-67619714D01*
X132754619Y-67524476D01*
G04 #@! TO.C,Q4*
D15*
X172446190Y-103679619D02*
X172470000Y-103727238D01*
X172517619Y-103774857D01*
X172589047Y-103846285D01*
X172612857Y-103893904D01*
X172612857Y-103941523D01*
X172493809Y-103917714D02*
X172517619Y-103965333D01*
X172565238Y-104012952D01*
X172660476Y-104036761D01*
X172827142Y-104036761D01*
X172922380Y-104012952D01*
X172970000Y-103965333D01*
X172993809Y-103917714D01*
X172993809Y-103822476D01*
X172970000Y-103774857D01*
X172922380Y-103727238D01*
X172827142Y-103703428D01*
X172660476Y-103703428D01*
X172565238Y-103727238D01*
X172517619Y-103774857D01*
X172493809Y-103822476D01*
X172493809Y-103917714D01*
X172827142Y-103274857D02*
X172493809Y-103274857D01*
X173017619Y-103393904D02*
X172660476Y-103512952D01*
X172660476Y-103203428D01*
G04 #@! TO.C,Q7*
X172446190Y-99869619D02*
X172470000Y-99917238D01*
X172517619Y-99964857D01*
X172589047Y-100036285D01*
X172612857Y-100083904D01*
X172612857Y-100131523D01*
X172493809Y-100107714D02*
X172517619Y-100155333D01*
X172565238Y-100202952D01*
X172660476Y-100226761D01*
X172827142Y-100226761D01*
X172922380Y-100202952D01*
X172970000Y-100155333D01*
X172993809Y-100107714D01*
X172993809Y-100012476D01*
X172970000Y-99964857D01*
X172922380Y-99917238D01*
X172827142Y-99893428D01*
X172660476Y-99893428D01*
X172565238Y-99917238D01*
X172517619Y-99964857D01*
X172493809Y-100012476D01*
X172493809Y-100107714D01*
X172993809Y-99726761D02*
X172993809Y-99393428D01*
X172493809Y-99607714D01*
G04 #@! TO.C,R16*
D13*
X87777142Y-67840952D02*
X87910476Y-67650476D01*
X88005714Y-67840952D02*
X88005714Y-67440952D01*
X87853333Y-67440952D01*
X87815238Y-67460000D01*
X87796190Y-67479047D01*
X87777142Y-67517142D01*
X87777142Y-67574285D01*
X87796190Y-67612380D01*
X87815238Y-67631428D01*
X87853333Y-67650476D01*
X88005714Y-67650476D01*
X87396190Y-67840952D02*
X87624761Y-67840952D01*
X87510476Y-67840952D02*
X87510476Y-67440952D01*
X87548571Y-67498095D01*
X87586666Y-67536190D01*
X87624761Y-67555238D01*
X87053333Y-67440952D02*
X87129523Y-67440952D01*
X87167619Y-67460000D01*
X87186666Y-67479047D01*
X87224761Y-67536190D01*
X87243809Y-67612380D01*
X87243809Y-67764761D01*
X87224761Y-67802857D01*
X87205714Y-67821904D01*
X87167619Y-67840952D01*
X87091428Y-67840952D01*
X87053333Y-67821904D01*
X87034285Y-67802857D01*
X87015238Y-67764761D01*
X87015238Y-67669523D01*
X87034285Y-67631428D01*
X87053333Y-67612380D01*
X87091428Y-67593333D01*
X87167619Y-67593333D01*
X87205714Y-67612380D01*
X87224761Y-67631428D01*
X87243809Y-67669523D01*
G04 #@! TO.C,R42*
D14*
X153338428Y-103491190D02*
X153505095Y-103253095D01*
X153624142Y-103491190D02*
X153624142Y-102991190D01*
X153433666Y-102991190D01*
X153386047Y-103015000D01*
X153362238Y-103038809D01*
X153338428Y-103086428D01*
X153338428Y-103157857D01*
X153362238Y-103205476D01*
X153386047Y-103229285D01*
X153433666Y-103253095D01*
X153624142Y-103253095D01*
X152909857Y-103157857D02*
X152909857Y-103491190D01*
X153028904Y-102967380D02*
X153147952Y-103324523D01*
X152838428Y-103324523D01*
X152671761Y-103038809D02*
X152647952Y-103015000D01*
X152600333Y-102991190D01*
X152481285Y-102991190D01*
X152433666Y-103015000D01*
X152409857Y-103038809D01*
X152386047Y-103086428D01*
X152386047Y-103134047D01*
X152409857Y-103205476D01*
X152695571Y-103491190D01*
X152386047Y-103491190D01*
G04 #@! TO.C,R47*
X114173328Y-93676790D02*
X114339995Y-93438695D01*
X114459042Y-93676790D02*
X114459042Y-93176790D01*
X114268566Y-93176790D01*
X114220947Y-93200600D01*
X114197138Y-93224409D01*
X114173328Y-93272028D01*
X114173328Y-93343457D01*
X114197138Y-93391076D01*
X114220947Y-93414885D01*
X114268566Y-93438695D01*
X114459042Y-93438695D01*
X113744757Y-93343457D02*
X113744757Y-93676790D01*
X113863804Y-93152980D02*
X113982852Y-93510123D01*
X113673328Y-93510123D01*
X113530471Y-93176790D02*
X113197138Y-93176790D01*
X113411423Y-93676790D01*
G04 #@! TO.C,R48*
X87228828Y-95978790D02*
X87395495Y-95740695D01*
X87514542Y-95978790D02*
X87514542Y-95478790D01*
X87324066Y-95478790D01*
X87276447Y-95502600D01*
X87252638Y-95526409D01*
X87228828Y-95574028D01*
X87228828Y-95645457D01*
X87252638Y-95693076D01*
X87276447Y-95716885D01*
X87324066Y-95740695D01*
X87514542Y-95740695D01*
X86800257Y-95645457D02*
X86800257Y-95978790D01*
X86919304Y-95454980D02*
X87038352Y-95812123D01*
X86728828Y-95812123D01*
X86466923Y-95693076D02*
X86514542Y-95669266D01*
X86538352Y-95645457D01*
X86562161Y-95597838D01*
X86562161Y-95574028D01*
X86538352Y-95526409D01*
X86514542Y-95502600D01*
X86466923Y-95478790D01*
X86371685Y-95478790D01*
X86324066Y-95502600D01*
X86300257Y-95526409D01*
X86276447Y-95574028D01*
X86276447Y-95597838D01*
X86300257Y-95645457D01*
X86324066Y-95669266D01*
X86371685Y-95693076D01*
X86466923Y-95693076D01*
X86514542Y-95716885D01*
X86538352Y-95740695D01*
X86562161Y-95788314D01*
X86562161Y-95883552D01*
X86538352Y-95931171D01*
X86514542Y-95954980D01*
X86466923Y-95978790D01*
X86371685Y-95978790D01*
X86324066Y-95954980D01*
X86300257Y-95931171D01*
X86276447Y-95883552D01*
X86276447Y-95788314D01*
X86300257Y-95740695D01*
X86324066Y-95716885D01*
X86371685Y-95693076D01*
G04 #@! TO.C,R51*
D11*
X111672685Y-89881504D02*
X111939352Y-89500552D01*
X112129828Y-89881504D02*
X112129828Y-89081504D01*
X111825066Y-89081504D01*
X111748876Y-89119600D01*
X111710780Y-89157695D01*
X111672685Y-89233885D01*
X111672685Y-89348171D01*
X111710780Y-89424361D01*
X111748876Y-89462457D01*
X111825066Y-89500552D01*
X112129828Y-89500552D01*
X110948876Y-89081504D02*
X111329828Y-89081504D01*
X111367923Y-89462457D01*
X111329828Y-89424361D01*
X111253638Y-89386266D01*
X111063161Y-89386266D01*
X110986971Y-89424361D01*
X110948876Y-89462457D01*
X110910780Y-89538647D01*
X110910780Y-89729123D01*
X110948876Y-89805314D01*
X110986971Y-89843409D01*
X111063161Y-89881504D01*
X111253638Y-89881504D01*
X111329828Y-89843409D01*
X111367923Y-89805314D01*
X110148876Y-89881504D02*
X110606019Y-89881504D01*
X110377447Y-89881504D02*
X110377447Y-89081504D01*
X110453638Y-89195790D01*
X110529828Y-89271980D01*
X110606019Y-89310076D01*
G04 #@! TO.C,R57*
X141231285Y-103526904D02*
X141497952Y-103145952D01*
X141688428Y-103526904D02*
X141688428Y-102726904D01*
X141383666Y-102726904D01*
X141307476Y-102765000D01*
X141269380Y-102803095D01*
X141231285Y-102879285D01*
X141231285Y-102993571D01*
X141269380Y-103069761D01*
X141307476Y-103107857D01*
X141383666Y-103145952D01*
X141688428Y-103145952D01*
X140507476Y-102726904D02*
X140888428Y-102726904D01*
X140926523Y-103107857D01*
X140888428Y-103069761D01*
X140812238Y-103031666D01*
X140621761Y-103031666D01*
X140545571Y-103069761D01*
X140507476Y-103107857D01*
X140469380Y-103184047D01*
X140469380Y-103374523D01*
X140507476Y-103450714D01*
X140545571Y-103488809D01*
X140621761Y-103526904D01*
X140812238Y-103526904D01*
X140888428Y-103488809D01*
X140926523Y-103450714D01*
X140202714Y-102726904D02*
X139669380Y-102726904D01*
X140012238Y-103526904D01*
G04 #@! TO.C,R58*
X146843785Y-103526904D02*
X147110452Y-103145952D01*
X147300928Y-103526904D02*
X147300928Y-102726904D01*
X146996166Y-102726904D01*
X146919976Y-102765000D01*
X146881880Y-102803095D01*
X146843785Y-102879285D01*
X146843785Y-102993571D01*
X146881880Y-103069761D01*
X146919976Y-103107857D01*
X146996166Y-103145952D01*
X147300928Y-103145952D01*
X146119976Y-102726904D02*
X146500928Y-102726904D01*
X146539023Y-103107857D01*
X146500928Y-103069761D01*
X146424738Y-103031666D01*
X146234261Y-103031666D01*
X146158071Y-103069761D01*
X146119976Y-103107857D01*
X146081880Y-103184047D01*
X146081880Y-103374523D01*
X146119976Y-103450714D01*
X146158071Y-103488809D01*
X146234261Y-103526904D01*
X146424738Y-103526904D01*
X146500928Y-103488809D01*
X146539023Y-103450714D01*
X145624738Y-103069761D02*
X145700928Y-103031666D01*
X145739023Y-102993571D01*
X145777119Y-102917380D01*
X145777119Y-102879285D01*
X145739023Y-102803095D01*
X145700928Y-102765000D01*
X145624738Y-102726904D01*
X145472357Y-102726904D01*
X145396166Y-102765000D01*
X145358071Y-102803095D01*
X145319976Y-102879285D01*
X145319976Y-102917380D01*
X145358071Y-102993571D01*
X145396166Y-103031666D01*
X145472357Y-103069761D01*
X145624738Y-103069761D01*
X145700928Y-103107857D01*
X145739023Y-103145952D01*
X145777119Y-103222142D01*
X145777119Y-103374523D01*
X145739023Y-103450714D01*
X145700928Y-103488809D01*
X145624738Y-103526904D01*
X145472357Y-103526904D01*
X145396166Y-103488809D01*
X145358071Y-103450714D01*
X145319976Y-103374523D01*
X145319976Y-103222142D01*
X145358071Y-103145952D01*
X145396166Y-103107857D01*
X145472357Y-103069761D01*
G04 #@! TO.C,R64*
D13*
X169370342Y-102875692D02*
X169503676Y-102685216D01*
X169598914Y-102875692D02*
X169598914Y-102475692D01*
X169446533Y-102475692D01*
X169408438Y-102494740D01*
X169389390Y-102513787D01*
X169370342Y-102551882D01*
X169370342Y-102609025D01*
X169389390Y-102647120D01*
X169408438Y-102666168D01*
X169446533Y-102685216D01*
X169598914Y-102685216D01*
X169027485Y-102475692D02*
X169103676Y-102475692D01*
X169141771Y-102494740D01*
X169160819Y-102513787D01*
X169198914Y-102570930D01*
X169217961Y-102647120D01*
X169217961Y-102799501D01*
X169198914Y-102837597D01*
X169179866Y-102856644D01*
X169141771Y-102875692D01*
X169065580Y-102875692D01*
X169027485Y-102856644D01*
X169008438Y-102837597D01*
X168989390Y-102799501D01*
X168989390Y-102704263D01*
X169008438Y-102666168D01*
X169027485Y-102647120D01*
X169065580Y-102628073D01*
X169141771Y-102628073D01*
X169179866Y-102647120D01*
X169198914Y-102666168D01*
X169217961Y-102704263D01*
X168646533Y-102609025D02*
X168646533Y-102875692D01*
X168741771Y-102456644D02*
X168837009Y-102742359D01*
X168589390Y-102742359D01*
G04 #@! TO.C,R65*
X169421142Y-100510952D02*
X169554476Y-100320476D01*
X169649714Y-100510952D02*
X169649714Y-100110952D01*
X169497333Y-100110952D01*
X169459238Y-100130000D01*
X169440190Y-100149047D01*
X169421142Y-100187142D01*
X169421142Y-100244285D01*
X169440190Y-100282380D01*
X169459238Y-100301428D01*
X169497333Y-100320476D01*
X169649714Y-100320476D01*
X169078285Y-100110952D02*
X169154476Y-100110952D01*
X169192571Y-100130000D01*
X169211619Y-100149047D01*
X169249714Y-100206190D01*
X169268761Y-100282380D01*
X169268761Y-100434761D01*
X169249714Y-100472857D01*
X169230666Y-100491904D01*
X169192571Y-100510952D01*
X169116380Y-100510952D01*
X169078285Y-100491904D01*
X169059238Y-100472857D01*
X169040190Y-100434761D01*
X169040190Y-100339523D01*
X169059238Y-100301428D01*
X169078285Y-100282380D01*
X169116380Y-100263333D01*
X169192571Y-100263333D01*
X169230666Y-100282380D01*
X169249714Y-100301428D01*
X169268761Y-100339523D01*
X168678285Y-100110952D02*
X168868761Y-100110952D01*
X168887809Y-100301428D01*
X168868761Y-100282380D01*
X168830666Y-100263333D01*
X168735428Y-100263333D01*
X168697333Y-100282380D01*
X168678285Y-100301428D01*
X168659238Y-100339523D01*
X168659238Y-100434761D01*
X168678285Y-100472857D01*
X168697333Y-100491904D01*
X168735428Y-100510952D01*
X168830666Y-100510952D01*
X168868761Y-100491904D01*
X168887809Y-100472857D01*
G04 #@! TO.C,R74*
D14*
X106366428Y-82141190D02*
X106533095Y-81903095D01*
X106652142Y-82141190D02*
X106652142Y-81641190D01*
X106461666Y-81641190D01*
X106414047Y-81665000D01*
X106390238Y-81688809D01*
X106366428Y-81736428D01*
X106366428Y-81807857D01*
X106390238Y-81855476D01*
X106414047Y-81879285D01*
X106461666Y-81903095D01*
X106652142Y-81903095D01*
X106199761Y-81641190D02*
X105866428Y-81641190D01*
X106080714Y-82141190D01*
X105461666Y-81807857D02*
X105461666Y-82141190D01*
X105580714Y-81617380D02*
X105699761Y-81974523D01*
X105390238Y-81974523D01*
G04 #@! TO.C,R75*
X94301428Y-95222190D02*
X94468095Y-94984095D01*
X94587142Y-95222190D02*
X94587142Y-94722190D01*
X94396666Y-94722190D01*
X94349047Y-94746000D01*
X94325238Y-94769809D01*
X94301428Y-94817428D01*
X94301428Y-94888857D01*
X94325238Y-94936476D01*
X94349047Y-94960285D01*
X94396666Y-94984095D01*
X94587142Y-94984095D01*
X94134761Y-94722190D02*
X93801428Y-94722190D01*
X94015714Y-95222190D01*
X93372857Y-94722190D02*
X93610952Y-94722190D01*
X93634761Y-94960285D01*
X93610952Y-94936476D01*
X93563333Y-94912666D01*
X93444285Y-94912666D01*
X93396666Y-94936476D01*
X93372857Y-94960285D01*
X93349047Y-95007904D01*
X93349047Y-95126952D01*
X93372857Y-95174571D01*
X93396666Y-95198380D01*
X93444285Y-95222190D01*
X93563333Y-95222190D01*
X93610952Y-95198380D01*
X93634761Y-95174571D01*
G04 #@! TO.C,R76*
X94301428Y-92936190D02*
X94468095Y-92698095D01*
X94587142Y-92936190D02*
X94587142Y-92436190D01*
X94396666Y-92436190D01*
X94349047Y-92460000D01*
X94325238Y-92483809D01*
X94301428Y-92531428D01*
X94301428Y-92602857D01*
X94325238Y-92650476D01*
X94349047Y-92674285D01*
X94396666Y-92698095D01*
X94587142Y-92698095D01*
X94134761Y-92436190D02*
X93801428Y-92436190D01*
X94015714Y-92936190D01*
X93396666Y-92436190D02*
X93491904Y-92436190D01*
X93539523Y-92460000D01*
X93563333Y-92483809D01*
X93610952Y-92555238D01*
X93634761Y-92650476D01*
X93634761Y-92840952D01*
X93610952Y-92888571D01*
X93587142Y-92912380D01*
X93539523Y-92936190D01*
X93444285Y-92936190D01*
X93396666Y-92912380D01*
X93372857Y-92888571D01*
X93349047Y-92840952D01*
X93349047Y-92721904D01*
X93372857Y-92674285D01*
X93396666Y-92650476D01*
X93444285Y-92626666D01*
X93539523Y-92626666D01*
X93587142Y-92650476D01*
X93610952Y-92674285D01*
X93634761Y-92721904D01*
G04 #@! TO.C,R77*
X97046928Y-88618190D02*
X97213595Y-88380095D01*
X97332642Y-88618190D02*
X97332642Y-88118190D01*
X97142166Y-88118190D01*
X97094547Y-88142000D01*
X97070738Y-88165809D01*
X97046928Y-88213428D01*
X97046928Y-88284857D01*
X97070738Y-88332476D01*
X97094547Y-88356285D01*
X97142166Y-88380095D01*
X97332642Y-88380095D01*
X96880261Y-88118190D02*
X96546928Y-88118190D01*
X96761214Y-88618190D01*
X96404071Y-88118190D02*
X96070738Y-88118190D01*
X96285023Y-88618190D01*
G04 #@! TO.C,R81*
X111528828Y-75428790D02*
X111695495Y-75190695D01*
X111814542Y-75428790D02*
X111814542Y-74928790D01*
X111624066Y-74928790D01*
X111576447Y-74952600D01*
X111552638Y-74976409D01*
X111528828Y-75024028D01*
X111528828Y-75095457D01*
X111552638Y-75143076D01*
X111576447Y-75166885D01*
X111624066Y-75190695D01*
X111814542Y-75190695D01*
X111243114Y-75143076D02*
X111290733Y-75119266D01*
X111314542Y-75095457D01*
X111338352Y-75047838D01*
X111338352Y-75024028D01*
X111314542Y-74976409D01*
X111290733Y-74952600D01*
X111243114Y-74928790D01*
X111147876Y-74928790D01*
X111100257Y-74952600D01*
X111076447Y-74976409D01*
X111052638Y-75024028D01*
X111052638Y-75047838D01*
X111076447Y-75095457D01*
X111100257Y-75119266D01*
X111147876Y-75143076D01*
X111243114Y-75143076D01*
X111290733Y-75166885D01*
X111314542Y-75190695D01*
X111338352Y-75238314D01*
X111338352Y-75333552D01*
X111314542Y-75381171D01*
X111290733Y-75404980D01*
X111243114Y-75428790D01*
X111147876Y-75428790D01*
X111100257Y-75404980D01*
X111076447Y-75381171D01*
X111052638Y-75333552D01*
X111052638Y-75238314D01*
X111076447Y-75190695D01*
X111100257Y-75166885D01*
X111147876Y-75143076D01*
X110576447Y-75428790D02*
X110862161Y-75428790D01*
X110719304Y-75428790D02*
X110719304Y-74928790D01*
X110766923Y-75000219D01*
X110814542Y-75047838D01*
X110862161Y-75071647D01*
G04 #@! TO.C,R90*
X118721428Y-62626190D02*
X118888095Y-62388095D01*
X119007142Y-62626190D02*
X119007142Y-62126190D01*
X118816666Y-62126190D01*
X118769047Y-62150000D01*
X118745238Y-62173809D01*
X118721428Y-62221428D01*
X118721428Y-62292857D01*
X118745238Y-62340476D01*
X118769047Y-62364285D01*
X118816666Y-62388095D01*
X119007142Y-62388095D01*
X118483333Y-62626190D02*
X118388095Y-62626190D01*
X118340476Y-62602380D01*
X118316666Y-62578571D01*
X118269047Y-62507142D01*
X118245238Y-62411904D01*
X118245238Y-62221428D01*
X118269047Y-62173809D01*
X118292857Y-62150000D01*
X118340476Y-62126190D01*
X118435714Y-62126190D01*
X118483333Y-62150000D01*
X118507142Y-62173809D01*
X118530952Y-62221428D01*
X118530952Y-62340476D01*
X118507142Y-62388095D01*
X118483333Y-62411904D01*
X118435714Y-62435714D01*
X118340476Y-62435714D01*
X118292857Y-62411904D01*
X118269047Y-62388095D01*
X118245238Y-62340476D01*
X117935714Y-62126190D02*
X117888095Y-62126190D01*
X117840476Y-62150000D01*
X117816666Y-62173809D01*
X117792857Y-62221428D01*
X117769047Y-62316666D01*
X117769047Y-62435714D01*
X117792857Y-62530952D01*
X117816666Y-62578571D01*
X117840476Y-62602380D01*
X117888095Y-62626190D01*
X117935714Y-62626190D01*
X117983333Y-62602380D01*
X118007142Y-62578571D01*
X118030952Y-62530952D01*
X118054761Y-62435714D01*
X118054761Y-62316666D01*
X118030952Y-62221428D01*
X118007142Y-62173809D01*
X117983333Y-62150000D01*
X117935714Y-62126190D01*
G04 #@! TO.C,R91*
X126353828Y-66903790D02*
X126520495Y-66665695D01*
X126639542Y-66903790D02*
X126639542Y-66403790D01*
X126449066Y-66403790D01*
X126401447Y-66427600D01*
X126377638Y-66451409D01*
X126353828Y-66499028D01*
X126353828Y-66570457D01*
X126377638Y-66618076D01*
X126401447Y-66641885D01*
X126449066Y-66665695D01*
X126639542Y-66665695D01*
X126115733Y-66903790D02*
X126020495Y-66903790D01*
X125972876Y-66879980D01*
X125949066Y-66856171D01*
X125901447Y-66784742D01*
X125877638Y-66689504D01*
X125877638Y-66499028D01*
X125901447Y-66451409D01*
X125925257Y-66427600D01*
X125972876Y-66403790D01*
X126068114Y-66403790D01*
X126115733Y-66427600D01*
X126139542Y-66451409D01*
X126163352Y-66499028D01*
X126163352Y-66618076D01*
X126139542Y-66665695D01*
X126115733Y-66689504D01*
X126068114Y-66713314D01*
X125972876Y-66713314D01*
X125925257Y-66689504D01*
X125901447Y-66665695D01*
X125877638Y-66618076D01*
X125401447Y-66903790D02*
X125687161Y-66903790D01*
X125544304Y-66903790D02*
X125544304Y-66403790D01*
X125591923Y-66475219D01*
X125639542Y-66522838D01*
X125687161Y-66546647D01*
G04 #@! TO.C,R92*
X121511190Y-80450571D02*
X121273095Y-80283904D01*
X121511190Y-80164857D02*
X121011190Y-80164857D01*
X121011190Y-80355333D01*
X121035000Y-80402952D01*
X121058809Y-80426761D01*
X121106428Y-80450571D01*
X121177857Y-80450571D01*
X121225476Y-80426761D01*
X121249285Y-80402952D01*
X121273095Y-80355333D01*
X121273095Y-80164857D01*
X121511190Y-80688666D02*
X121511190Y-80783904D01*
X121487380Y-80831523D01*
X121463571Y-80855333D01*
X121392142Y-80902952D01*
X121296904Y-80926761D01*
X121106428Y-80926761D01*
X121058809Y-80902952D01*
X121035000Y-80879142D01*
X121011190Y-80831523D01*
X121011190Y-80736285D01*
X121035000Y-80688666D01*
X121058809Y-80664857D01*
X121106428Y-80641047D01*
X121225476Y-80641047D01*
X121273095Y-80664857D01*
X121296904Y-80688666D01*
X121320714Y-80736285D01*
X121320714Y-80831523D01*
X121296904Y-80879142D01*
X121273095Y-80902952D01*
X121225476Y-80926761D01*
X121058809Y-81117238D02*
X121035000Y-81141047D01*
X121011190Y-81188666D01*
X121011190Y-81307714D01*
X121035000Y-81355333D01*
X121058809Y-81379142D01*
X121106428Y-81402952D01*
X121154047Y-81402952D01*
X121225476Y-81379142D01*
X121511190Y-81093428D01*
X121511190Y-81402952D01*
G04 #@! TO.C,R95*
X132306190Y-72322571D02*
X132068095Y-72155904D01*
X132306190Y-72036857D02*
X131806190Y-72036857D01*
X131806190Y-72227333D01*
X131830000Y-72274952D01*
X131853809Y-72298761D01*
X131901428Y-72322571D01*
X131972857Y-72322571D01*
X132020476Y-72298761D01*
X132044285Y-72274952D01*
X132068095Y-72227333D01*
X132068095Y-72036857D01*
X132306190Y-72560666D02*
X132306190Y-72655904D01*
X132282380Y-72703523D01*
X132258571Y-72727333D01*
X132187142Y-72774952D01*
X132091904Y-72798761D01*
X131901428Y-72798761D01*
X131853809Y-72774952D01*
X131830000Y-72751142D01*
X131806190Y-72703523D01*
X131806190Y-72608285D01*
X131830000Y-72560666D01*
X131853809Y-72536857D01*
X131901428Y-72513047D01*
X132020476Y-72513047D01*
X132068095Y-72536857D01*
X132091904Y-72560666D01*
X132115714Y-72608285D01*
X132115714Y-72703523D01*
X132091904Y-72751142D01*
X132068095Y-72774952D01*
X132020476Y-72798761D01*
X131806190Y-73251142D02*
X131806190Y-73013047D01*
X132044285Y-72989238D01*
X132020476Y-73013047D01*
X131996666Y-73060666D01*
X131996666Y-73179714D01*
X132020476Y-73227333D01*
X132044285Y-73251142D01*
X132091904Y-73274952D01*
X132210952Y-73274952D01*
X132258571Y-73251142D01*
X132282380Y-73227333D01*
X132306190Y-73179714D01*
X132306190Y-73060666D01*
X132282380Y-73013047D01*
X132258571Y-72989238D01*
G04 #@! TO.C,R97*
D11*
X131246685Y-65268504D02*
X131513352Y-64887552D01*
X131703828Y-65268504D02*
X131703828Y-64468504D01*
X131399066Y-64468504D01*
X131322876Y-64506600D01*
X131284780Y-64544695D01*
X131246685Y-64620885D01*
X131246685Y-64735171D01*
X131284780Y-64811361D01*
X131322876Y-64849457D01*
X131399066Y-64887552D01*
X131703828Y-64887552D01*
X130865733Y-65268504D02*
X130713352Y-65268504D01*
X130637161Y-65230409D01*
X130599066Y-65192314D01*
X130522876Y-65078028D01*
X130484780Y-64925647D01*
X130484780Y-64620885D01*
X130522876Y-64544695D01*
X130560971Y-64506600D01*
X130637161Y-64468504D01*
X130789542Y-64468504D01*
X130865733Y-64506600D01*
X130903828Y-64544695D01*
X130941923Y-64620885D01*
X130941923Y-64811361D01*
X130903828Y-64887552D01*
X130865733Y-64925647D01*
X130789542Y-64963742D01*
X130637161Y-64963742D01*
X130560971Y-64925647D01*
X130522876Y-64887552D01*
X130484780Y-64811361D01*
X130218114Y-64468504D02*
X129684780Y-64468504D01*
X130027638Y-65268504D01*
G04 #@! TO.C,Q8*
D12*
X95495666Y-85566619D02*
X95448047Y-85519000D01*
X95352809Y-85471380D01*
X95114714Y-85471380D01*
X95019476Y-85519000D01*
X94971857Y-85566619D01*
X94924238Y-85661857D01*
X94924238Y-85757095D01*
X94971857Y-85899952D01*
X95543285Y-86471380D01*
X94924238Y-86471380D01*
X94495666Y-86471380D02*
X94495666Y-85471380D01*
X93924238Y-86471380D01*
X93924238Y-85471380D01*
X93543285Y-85471380D02*
X92876619Y-85471380D01*
X93305190Y-86471380D01*
X92305190Y-85471380D02*
X92209952Y-85471380D01*
X92114714Y-85519000D01*
X92067095Y-85566619D01*
X92019476Y-85661857D01*
X91971857Y-85852333D01*
X91971857Y-86090428D01*
X92019476Y-86280904D01*
X92067095Y-86376142D01*
X92114714Y-86423761D01*
X92209952Y-86471380D01*
X92305190Y-86471380D01*
X92400428Y-86423761D01*
X92448047Y-86376142D01*
X92495666Y-86280904D01*
X92543285Y-86090428D01*
X92543285Y-85852333D01*
X92495666Y-85661857D01*
X92448047Y-85566619D01*
X92400428Y-85519000D01*
X92305190Y-85471380D01*
X91352809Y-85471380D02*
X91257571Y-85471380D01*
X91162333Y-85519000D01*
X91114714Y-85566619D01*
X91067095Y-85661857D01*
X91019476Y-85852333D01*
X91019476Y-86090428D01*
X91067095Y-86280904D01*
X91114714Y-86376142D01*
X91162333Y-86423761D01*
X91257571Y-86471380D01*
X91352809Y-86471380D01*
X91448047Y-86423761D01*
X91495666Y-86376142D01*
X91543285Y-86280904D01*
X91590904Y-86090428D01*
X91590904Y-85852333D01*
X91543285Y-85661857D01*
X91495666Y-85566619D01*
X91448047Y-85519000D01*
X91352809Y-85471380D01*
X90638523Y-85566619D02*
X90590904Y-85519000D01*
X90495666Y-85471380D01*
X90257571Y-85471380D01*
X90162333Y-85519000D01*
X90114714Y-85566619D01*
X90067095Y-85661857D01*
X90067095Y-85757095D01*
X90114714Y-85899952D01*
X90686142Y-86471380D01*
X90067095Y-86471380D01*
X89638523Y-85947571D02*
X89305190Y-85947571D01*
X89162333Y-86471380D02*
X89638523Y-86471380D01*
X89638523Y-85471380D01*
X89162333Y-85471380D01*
D15*
X92055190Y-88566619D02*
X92079000Y-88614238D01*
X92126619Y-88661857D01*
X92198047Y-88733285D01*
X92221857Y-88780904D01*
X92221857Y-88828523D01*
X92102809Y-88804714D02*
X92126619Y-88852333D01*
X92174238Y-88899952D01*
X92269476Y-88923761D01*
X92436142Y-88923761D01*
X92531380Y-88899952D01*
X92579000Y-88852333D01*
X92602809Y-88804714D01*
X92602809Y-88709476D01*
X92579000Y-88661857D01*
X92531380Y-88614238D01*
X92436142Y-88590428D01*
X92269476Y-88590428D01*
X92174238Y-88614238D01*
X92126619Y-88661857D01*
X92102809Y-88709476D01*
X92102809Y-88804714D01*
X92388523Y-88304714D02*
X92412333Y-88352333D01*
X92436142Y-88376142D01*
X92483761Y-88399952D01*
X92507571Y-88399952D01*
X92555190Y-88376142D01*
X92579000Y-88352333D01*
X92602809Y-88304714D01*
X92602809Y-88209476D01*
X92579000Y-88161857D01*
X92555190Y-88138047D01*
X92507571Y-88114238D01*
X92483761Y-88114238D01*
X92436142Y-88138047D01*
X92412333Y-88161857D01*
X92388523Y-88209476D01*
X92388523Y-88304714D01*
X92364714Y-88352333D01*
X92340904Y-88376142D01*
X92293285Y-88399952D01*
X92198047Y-88399952D01*
X92150428Y-88376142D01*
X92126619Y-88352333D01*
X92102809Y-88304714D01*
X92102809Y-88209476D01*
X92126619Y-88161857D01*
X92150428Y-88138047D01*
X92198047Y-88114238D01*
X92293285Y-88114238D01*
X92340904Y-88138047D01*
X92364714Y-88161857D01*
X92388523Y-88209476D01*
G04 #@! TO.C,Q10*
D12*
X146660666Y-66069619D02*
X146613047Y-66022000D01*
X146517809Y-65974380D01*
X146279714Y-65974380D01*
X146184476Y-66022000D01*
X146136857Y-66069619D01*
X146089238Y-66164857D01*
X146089238Y-66260095D01*
X146136857Y-66402952D01*
X146708285Y-66974380D01*
X146089238Y-66974380D01*
X145660666Y-66974380D02*
X145660666Y-65974380D01*
X145089238Y-66974380D01*
X145089238Y-65974380D01*
X144708285Y-65974380D02*
X144041619Y-65974380D01*
X144470190Y-66974380D01*
X143470190Y-65974380D02*
X143374952Y-65974380D01*
X143279714Y-66022000D01*
X143232095Y-66069619D01*
X143184476Y-66164857D01*
X143136857Y-66355333D01*
X143136857Y-66593428D01*
X143184476Y-66783904D01*
X143232095Y-66879142D01*
X143279714Y-66926761D01*
X143374952Y-66974380D01*
X143470190Y-66974380D01*
X143565428Y-66926761D01*
X143613047Y-66879142D01*
X143660666Y-66783904D01*
X143708285Y-66593428D01*
X143708285Y-66355333D01*
X143660666Y-66164857D01*
X143613047Y-66069619D01*
X143565428Y-66022000D01*
X143470190Y-65974380D01*
X142517809Y-65974380D02*
X142422571Y-65974380D01*
X142327333Y-66022000D01*
X142279714Y-66069619D01*
X142232095Y-66164857D01*
X142184476Y-66355333D01*
X142184476Y-66593428D01*
X142232095Y-66783904D01*
X142279714Y-66879142D01*
X142327333Y-66926761D01*
X142422571Y-66974380D01*
X142517809Y-66974380D01*
X142613047Y-66926761D01*
X142660666Y-66879142D01*
X142708285Y-66783904D01*
X142755904Y-66593428D01*
X142755904Y-66355333D01*
X142708285Y-66164857D01*
X142660666Y-66069619D01*
X142613047Y-66022000D01*
X142517809Y-65974380D01*
X141803523Y-66069619D02*
X141755904Y-66022000D01*
X141660666Y-65974380D01*
X141422571Y-65974380D01*
X141327333Y-66022000D01*
X141279714Y-66069619D01*
X141232095Y-66164857D01*
X141232095Y-66260095D01*
X141279714Y-66402952D01*
X141851142Y-66974380D01*
X141232095Y-66974380D01*
X140803523Y-66450571D02*
X140470190Y-66450571D01*
X140327333Y-66974380D02*
X140803523Y-66974380D01*
X140803523Y-65974380D01*
X140327333Y-65974380D01*
D15*
X143220190Y-69307714D02*
X143244000Y-69355333D01*
X143291619Y-69402952D01*
X143363047Y-69474380D01*
X143386857Y-69522000D01*
X143386857Y-69569619D01*
X143267809Y-69545809D02*
X143291619Y-69593428D01*
X143339238Y-69641047D01*
X143434476Y-69664857D01*
X143601142Y-69664857D01*
X143696380Y-69641047D01*
X143744000Y-69593428D01*
X143767809Y-69545809D01*
X143767809Y-69450571D01*
X143744000Y-69402952D01*
X143696380Y-69355333D01*
X143601142Y-69331523D01*
X143434476Y-69331523D01*
X143339238Y-69355333D01*
X143291619Y-69402952D01*
X143267809Y-69450571D01*
X143267809Y-69545809D01*
X143267809Y-68855333D02*
X143267809Y-69141047D01*
X143267809Y-68998190D02*
X143767809Y-68998190D01*
X143696380Y-69045809D01*
X143648761Y-69093428D01*
X143624952Y-69141047D01*
X143767809Y-68545809D02*
X143767809Y-68498190D01*
X143744000Y-68450571D01*
X143720190Y-68426761D01*
X143672571Y-68402952D01*
X143577333Y-68379142D01*
X143458285Y-68379142D01*
X143363047Y-68402952D01*
X143315428Y-68426761D01*
X143291619Y-68450571D01*
X143267809Y-68498190D01*
X143267809Y-68545809D01*
X143291619Y-68593428D01*
X143315428Y-68617238D01*
X143363047Y-68641047D01*
X143458285Y-68664857D01*
X143577333Y-68664857D01*
X143672571Y-68641047D01*
X143720190Y-68617238D01*
X143744000Y-68593428D01*
X143767809Y-68545809D01*
G04 #@! TO.C,R43*
D12*
X87684380Y-87685714D02*
X87684380Y-87209523D01*
X88160571Y-87161904D01*
X88112952Y-87209523D01*
X88065333Y-87304761D01*
X88065333Y-87542857D01*
X88112952Y-87638095D01*
X88160571Y-87685714D01*
X88255809Y-87733333D01*
X88493904Y-87733333D01*
X88589142Y-87685714D01*
X88636761Y-87638095D01*
X88684380Y-87542857D01*
X88684380Y-87304761D01*
X88636761Y-87209523D01*
X88589142Y-87161904D01*
X88684380Y-88685714D02*
X88684380Y-88114285D01*
X88684380Y-88400000D02*
X87684380Y-88400000D01*
X87827238Y-88304761D01*
X87922476Y-88209523D01*
X87970095Y-88114285D01*
X87684380Y-89304761D02*
X87684380Y-89400000D01*
X87732000Y-89495238D01*
X87779619Y-89542857D01*
X87874857Y-89590476D01*
X88065333Y-89638095D01*
X88303428Y-89638095D01*
X88493904Y-89590476D01*
X88589142Y-89542857D01*
X88636761Y-89495238D01*
X88684380Y-89400000D01*
X88684380Y-89304761D01*
X88636761Y-89209523D01*
X88589142Y-89161904D01*
X88493904Y-89114285D01*
X88303428Y-89066666D01*
X88065333Y-89066666D01*
X87874857Y-89114285D01*
X87779619Y-89161904D01*
X87732000Y-89209523D01*
X87684380Y-89304761D01*
X88684380Y-90638095D02*
X88208190Y-90304761D01*
X88684380Y-90066666D02*
X87684380Y-90066666D01*
X87684380Y-90447619D01*
X87732000Y-90542857D01*
X87779619Y-90590476D01*
X87874857Y-90638095D01*
X88017714Y-90638095D01*
X88112952Y-90590476D01*
X88160571Y-90542857D01*
X88208190Y-90447619D01*
X88208190Y-90066666D01*
D13*
X89842952Y-88642857D02*
X89652476Y-88509523D01*
X89842952Y-88414285D02*
X89442952Y-88414285D01*
X89442952Y-88566666D01*
X89462000Y-88604761D01*
X89481047Y-88623809D01*
X89519142Y-88642857D01*
X89576285Y-88642857D01*
X89614380Y-88623809D01*
X89633428Y-88604761D01*
X89652476Y-88566666D01*
X89652476Y-88414285D01*
X89576285Y-88985714D02*
X89842952Y-88985714D01*
X89423904Y-88890476D02*
X89709619Y-88795238D01*
X89709619Y-89042857D01*
X89442952Y-89157142D02*
X89442952Y-89404761D01*
X89595333Y-89271428D01*
X89595333Y-89328571D01*
X89614380Y-89366666D01*
X89633428Y-89385714D01*
X89671523Y-89404761D01*
X89766761Y-89404761D01*
X89804857Y-89385714D01*
X89823904Y-89366666D01*
X89842952Y-89328571D01*
X89842952Y-89214285D01*
X89823904Y-89176190D01*
X89804857Y-89157142D01*
G04 #@! TO.C,R70*
D12*
X117713047Y-93716880D02*
X117617809Y-93716880D01*
X117522571Y-93764500D01*
X117474952Y-93812119D01*
X117427333Y-93907357D01*
X117379714Y-94097833D01*
X117379714Y-94335928D01*
X117427333Y-94526404D01*
X117474952Y-94621642D01*
X117522571Y-94669261D01*
X117617809Y-94716880D01*
X117713047Y-94716880D01*
X117808285Y-94669261D01*
X117855904Y-94621642D01*
X117903523Y-94526404D01*
X117951142Y-94335928D01*
X117951142Y-94097833D01*
X117903523Y-93907357D01*
X117855904Y-93812119D01*
X117808285Y-93764500D01*
X117713047Y-93716880D01*
X116998761Y-94716880D02*
X116760666Y-94716880D01*
X116760666Y-94526404D01*
X116855904Y-94478785D01*
X116951142Y-94383547D01*
X116998761Y-94240690D01*
X116998761Y-94002595D01*
X116951142Y-93859738D01*
X116855904Y-93764500D01*
X116713047Y-93716880D01*
X116522571Y-93716880D01*
X116379714Y-93764500D01*
X116284476Y-93859738D01*
X116236857Y-94002595D01*
X116236857Y-94240690D01*
X116284476Y-94383547D01*
X116379714Y-94478785D01*
X116474952Y-94526404D01*
X116474952Y-94716880D01*
X116236857Y-94716880D01*
D13*
X117351142Y-95875452D02*
X117484476Y-95684976D01*
X117579714Y-95875452D02*
X117579714Y-95475452D01*
X117427333Y-95475452D01*
X117389238Y-95494500D01*
X117370190Y-95513547D01*
X117351142Y-95551642D01*
X117351142Y-95608785D01*
X117370190Y-95646880D01*
X117389238Y-95665928D01*
X117427333Y-95684976D01*
X117579714Y-95684976D01*
X117217809Y-95475452D02*
X116951142Y-95475452D01*
X117122571Y-95875452D01*
X116722571Y-95475452D02*
X116684476Y-95475452D01*
X116646380Y-95494500D01*
X116627333Y-95513547D01*
X116608285Y-95551642D01*
X116589238Y-95627833D01*
X116589238Y-95723071D01*
X116608285Y-95799261D01*
X116627333Y-95837357D01*
X116646380Y-95856404D01*
X116684476Y-95875452D01*
X116722571Y-95875452D01*
X116760666Y-95856404D01*
X116779714Y-95837357D01*
X116798761Y-95799261D01*
X116817809Y-95723071D01*
X116817809Y-95627833D01*
X116798761Y-95551642D01*
X116779714Y-95513547D01*
X116760666Y-95494500D01*
X116722571Y-95475452D01*
G04 #@! TO.C,R71*
D12*
X111101447Y-100879980D02*
X111006209Y-100879980D01*
X110910971Y-100927600D01*
X110863352Y-100975219D01*
X110815733Y-101070457D01*
X110768114Y-101260933D01*
X110768114Y-101499028D01*
X110815733Y-101689504D01*
X110863352Y-101784742D01*
X110910971Y-101832361D01*
X111006209Y-101879980D01*
X111101447Y-101879980D01*
X111196685Y-101832361D01*
X111244304Y-101784742D01*
X111291923Y-101689504D01*
X111339542Y-101499028D01*
X111339542Y-101260933D01*
X111291923Y-101070457D01*
X111244304Y-100975219D01*
X111196685Y-100927600D01*
X111101447Y-100879980D01*
X110387161Y-101879980D02*
X110149066Y-101879980D01*
X110149066Y-101689504D01*
X110244304Y-101641885D01*
X110339542Y-101546647D01*
X110387161Y-101403790D01*
X110387161Y-101165695D01*
X110339542Y-101022838D01*
X110244304Y-100927600D01*
X110101447Y-100879980D01*
X109910971Y-100879980D01*
X109768114Y-100927600D01*
X109672876Y-101022838D01*
X109625257Y-101165695D01*
X109625257Y-101403790D01*
X109672876Y-101546647D01*
X109768114Y-101641885D01*
X109863352Y-101689504D01*
X109863352Y-101879980D01*
X109625257Y-101879980D01*
D13*
X112964542Y-100283552D02*
X113097876Y-100093076D01*
X113193114Y-100283552D02*
X113193114Y-99883552D01*
X113040733Y-99883552D01*
X113002638Y-99902600D01*
X112983590Y-99921647D01*
X112964542Y-99959742D01*
X112964542Y-100016885D01*
X112983590Y-100054980D01*
X113002638Y-100074028D01*
X113040733Y-100093076D01*
X113193114Y-100093076D01*
X112831209Y-99883552D02*
X112564542Y-99883552D01*
X112735971Y-100283552D01*
X112202638Y-100283552D02*
X112431209Y-100283552D01*
X112316923Y-100283552D02*
X112316923Y-99883552D01*
X112355019Y-99940695D01*
X112393114Y-99978790D01*
X112431209Y-99997838D01*
G04 #@! TO.C,R102*
D12*
X164017623Y-101989880D02*
X164350957Y-101513690D01*
X164589052Y-101989880D02*
X164589052Y-100989880D01*
X164208100Y-100989880D01*
X164112861Y-101037500D01*
X164065242Y-101085119D01*
X164017623Y-101180357D01*
X164017623Y-101323214D01*
X164065242Y-101418452D01*
X164112861Y-101466071D01*
X164208100Y-101513690D01*
X164589052Y-101513690D01*
X163589052Y-101989880D02*
X163589052Y-100989880D01*
X163208100Y-100989880D01*
X163112861Y-101037500D01*
X163065242Y-101085119D01*
X163017623Y-101180357D01*
X163017623Y-101323214D01*
X163065242Y-101418452D01*
X163112861Y-101466071D01*
X163208100Y-101513690D01*
X163589052Y-101513690D01*
X162589052Y-100989880D02*
X162589052Y-101799404D01*
X162541433Y-101894642D01*
X162493814Y-101942261D01*
X162398576Y-101989880D01*
X162208100Y-101989880D01*
X162112861Y-101942261D01*
X162065242Y-101894642D01*
X162017623Y-101799404D01*
X162017623Y-100989880D01*
X161065242Y-101989880D02*
X161541433Y-101989880D01*
X161541433Y-100989880D01*
X160255719Y-101989880D02*
X160731909Y-101989880D01*
X160731909Y-100989880D01*
X160160480Y-102085119D02*
X159398576Y-102085119D01*
X158970004Y-100989880D02*
X158779528Y-100989880D01*
X158684290Y-101037500D01*
X158589052Y-101132738D01*
X158541433Y-101323214D01*
X158541433Y-101656547D01*
X158589052Y-101847023D01*
X158684290Y-101942261D01*
X158779528Y-101989880D01*
X158970004Y-101989880D01*
X159065242Y-101942261D01*
X159160480Y-101847023D01*
X159208100Y-101656547D01*
X159208100Y-101323214D01*
X159160480Y-101132738D01*
X159065242Y-101037500D01*
X158970004Y-100989880D01*
X158112861Y-101989880D02*
X158112861Y-100989880D01*
X157731909Y-100989880D01*
X157636671Y-101037500D01*
X157589052Y-101085119D01*
X157541433Y-101180357D01*
X157541433Y-101323214D01*
X157589052Y-101418452D01*
X157636671Y-101466071D01*
X157731909Y-101513690D01*
X158112861Y-101513690D01*
X157255719Y-100989880D02*
X156684290Y-100989880D01*
X156970004Y-101989880D02*
X156970004Y-100989880D01*
D14*
X161267623Y-103413690D02*
X161434290Y-103175595D01*
X161553338Y-103413690D02*
X161553338Y-102913690D01*
X161362861Y-102913690D01*
X161315242Y-102937500D01*
X161291433Y-102961309D01*
X161267623Y-103008928D01*
X161267623Y-103080357D01*
X161291433Y-103127976D01*
X161315242Y-103151785D01*
X161362861Y-103175595D01*
X161553338Y-103175595D01*
X160791433Y-103413690D02*
X161077147Y-103413690D01*
X160934290Y-103413690D02*
X160934290Y-102913690D01*
X160981909Y-102985119D01*
X161029528Y-103032738D01*
X161077147Y-103056547D01*
X160481909Y-102913690D02*
X160434290Y-102913690D01*
X160386671Y-102937500D01*
X160362861Y-102961309D01*
X160339052Y-103008928D01*
X160315242Y-103104166D01*
X160315242Y-103223214D01*
X160339052Y-103318452D01*
X160362861Y-103366071D01*
X160386671Y-103389880D01*
X160434290Y-103413690D01*
X160481909Y-103413690D01*
X160529528Y-103389880D01*
X160553338Y-103366071D01*
X160577147Y-103318452D01*
X160600957Y-103223214D01*
X160600957Y-103104166D01*
X160577147Y-103008928D01*
X160553338Y-102961309D01*
X160529528Y-102937500D01*
X160481909Y-102913690D01*
X160124766Y-102961309D02*
X160100957Y-102937500D01*
X160053338Y-102913690D01*
X159934290Y-102913690D01*
X159886671Y-102937500D01*
X159862861Y-102961309D01*
X159839052Y-103008928D01*
X159839052Y-103056547D01*
X159862861Y-103127976D01*
X160148576Y-103413690D01*
X159839052Y-103413690D01*
G04 #@! TO.C,JP17*
D12*
X126866923Y-105497361D02*
X126724066Y-105544980D01*
X126485971Y-105544980D01*
X126390733Y-105497361D01*
X126343114Y-105449742D01*
X126295495Y-105354504D01*
X126295495Y-105259266D01*
X126343114Y-105164028D01*
X126390733Y-105116409D01*
X126485971Y-105068790D01*
X126676447Y-105021171D01*
X126771685Y-104973552D01*
X126819304Y-104925933D01*
X126866923Y-104830695D01*
X126866923Y-104735457D01*
X126819304Y-104640219D01*
X126771685Y-104592600D01*
X126676447Y-104544980D01*
X126438352Y-104544980D01*
X126295495Y-104592600D01*
X125724066Y-105544980D02*
X125819304Y-105497361D01*
X125866923Y-105449742D01*
X125914542Y-105354504D01*
X125914542Y-105068790D01*
X125866923Y-104973552D01*
X125819304Y-104925933D01*
X125724066Y-104878314D01*
X125581209Y-104878314D01*
X125485971Y-104925933D01*
X125438352Y-104973552D01*
X125390733Y-105068790D01*
X125390733Y-105354504D01*
X125438352Y-105449742D01*
X125485971Y-105497361D01*
X125581209Y-105544980D01*
X125724066Y-105544980D01*
X124819304Y-105544980D02*
X124914542Y-105497361D01*
X124962161Y-105402123D01*
X124962161Y-104544980D01*
X124009780Y-105544980D02*
X124009780Y-104544980D01*
X124009780Y-105497361D02*
X124105019Y-105544980D01*
X124295495Y-105544980D01*
X124390733Y-105497361D01*
X124438352Y-105449742D01*
X124485971Y-105354504D01*
X124485971Y-105068790D01*
X124438352Y-104973552D01*
X124390733Y-104925933D01*
X124295495Y-104878314D01*
X124105019Y-104878314D01*
X124009780Y-104925933D01*
X123152638Y-105497361D02*
X123247876Y-105544980D01*
X123438352Y-105544980D01*
X123533590Y-105497361D01*
X123581209Y-105402123D01*
X123581209Y-105021171D01*
X123533590Y-104925933D01*
X123438352Y-104878314D01*
X123247876Y-104878314D01*
X123152638Y-104925933D01*
X123105019Y-105021171D01*
X123105019Y-105116409D01*
X123581209Y-105211647D01*
X122676447Y-105544980D02*
X122676447Y-104878314D01*
X122676447Y-105068790D02*
X122628828Y-104973552D01*
X122581209Y-104925933D01*
X122485971Y-104878314D01*
X122390733Y-104878314D01*
X121771685Y-104544980D02*
X121771685Y-105259266D01*
X121819304Y-105402123D01*
X121914542Y-105497361D01*
X122057400Y-105544980D01*
X122152638Y-105544980D01*
X120866923Y-104878314D02*
X120866923Y-105544980D01*
X121295495Y-104878314D02*
X121295495Y-105402123D01*
X121247876Y-105497361D01*
X121152638Y-105544980D01*
X121009780Y-105544980D01*
X120914542Y-105497361D01*
X120866923Y-105449742D01*
X120390733Y-105544980D02*
X120390733Y-104878314D01*
X120390733Y-104973552D02*
X120343114Y-104925933D01*
X120247876Y-104878314D01*
X120105019Y-104878314D01*
X120009780Y-104925933D01*
X119962161Y-105021171D01*
X119962161Y-105544980D01*
X119962161Y-105021171D02*
X119914542Y-104925933D01*
X119819304Y-104878314D01*
X119676447Y-104878314D01*
X119581209Y-104925933D01*
X119533590Y-105021171D01*
X119533590Y-105544980D01*
X119057400Y-104878314D02*
X119057400Y-105878314D01*
X119057400Y-104925933D02*
X118962161Y-104878314D01*
X118771685Y-104878314D01*
X118676447Y-104925933D01*
X118628828Y-104973552D01*
X118581209Y-105068790D01*
X118581209Y-105354504D01*
X118628828Y-105449742D01*
X118676447Y-105497361D01*
X118771685Y-105544980D01*
X118962161Y-105544980D01*
X119057400Y-105497361D01*
X117771685Y-105497361D02*
X117866923Y-105544980D01*
X118057400Y-105544980D01*
X118152638Y-105497361D01*
X118200257Y-105402123D01*
X118200257Y-105021171D01*
X118152638Y-104925933D01*
X118057400Y-104878314D01*
X117866923Y-104878314D01*
X117771685Y-104925933D01*
X117724066Y-105021171D01*
X117724066Y-105116409D01*
X118200257Y-105211647D01*
X117295495Y-105544980D02*
X117295495Y-104878314D01*
X117295495Y-105068790D02*
X117247876Y-104973552D01*
X117200257Y-104925933D01*
X117105019Y-104878314D01*
X117009780Y-104878314D01*
X116914542Y-105640219D02*
X116152638Y-105640219D01*
X115914542Y-105544980D02*
X115914542Y-104544980D01*
X115533590Y-104544980D01*
X115438352Y-104592600D01*
X115390733Y-104640219D01*
X115343114Y-104735457D01*
X115343114Y-104878314D01*
X115390733Y-104973552D01*
X115438352Y-105021171D01*
X115533590Y-105068790D01*
X115914542Y-105068790D01*
X114390733Y-104592600D02*
X114485971Y-104544980D01*
X114628828Y-104544980D01*
X114771685Y-104592600D01*
X114866923Y-104687838D01*
X114914542Y-104783076D01*
X114962161Y-104973552D01*
X114962161Y-105116409D01*
X114914542Y-105306885D01*
X114866923Y-105402123D01*
X114771685Y-105497361D01*
X114628828Y-105544980D01*
X114533590Y-105544980D01*
X114390733Y-105497361D01*
X114343114Y-105449742D01*
X114343114Y-105116409D01*
X114533590Y-105116409D01*
X113724066Y-104544980D02*
X113533590Y-104544980D01*
X113438352Y-104592600D01*
X113343114Y-104687838D01*
X113295495Y-104878314D01*
X113295495Y-105211647D01*
X113343114Y-105402123D01*
X113438352Y-105497361D01*
X113533590Y-105544980D01*
X113724066Y-105544980D01*
X113819304Y-105497361D01*
X113914542Y-105402123D01*
X113962161Y-105211647D01*
X113962161Y-104878314D01*
X113914542Y-104687838D01*
X113819304Y-104592600D01*
X113724066Y-104544980D01*
X112676447Y-104544980D02*
X112485971Y-104544980D01*
X112390733Y-104592600D01*
X112295495Y-104687838D01*
X112247876Y-104878314D01*
X112247876Y-105211647D01*
X112295495Y-105402123D01*
X112390733Y-105497361D01*
X112485971Y-105544980D01*
X112676447Y-105544980D01*
X112771685Y-105497361D01*
X112866923Y-105402123D01*
X112914542Y-105211647D01*
X112914542Y-104878314D01*
X112866923Y-104687838D01*
X112771685Y-104592600D01*
X112676447Y-104544980D01*
X111819304Y-105544980D02*
X111819304Y-104544980D01*
X111581209Y-104544980D01*
X111438352Y-104592600D01*
X111343114Y-104687838D01*
X111295495Y-104783076D01*
X111247876Y-104973552D01*
X111247876Y-105116409D01*
X111295495Y-105306885D01*
X111343114Y-105402123D01*
X111438352Y-105497361D01*
X111581209Y-105544980D01*
X111819304Y-105544980D01*
G04 #@! TO.C,JP18*
X172766923Y-100757361D02*
X172624066Y-100804980D01*
X172385971Y-100804980D01*
X172290733Y-100757361D01*
X172243114Y-100709742D01*
X172195495Y-100614504D01*
X172195495Y-100519266D01*
X172243114Y-100424028D01*
X172290733Y-100376409D01*
X172385971Y-100328790D01*
X172576447Y-100281171D01*
X172671685Y-100233552D01*
X172719304Y-100185933D01*
X172766923Y-100090695D01*
X172766923Y-99995457D01*
X172719304Y-99900219D01*
X172671685Y-99852600D01*
X172576447Y-99804980D01*
X172338352Y-99804980D01*
X172195495Y-99852600D01*
X171624066Y-100804980D02*
X171719304Y-100757361D01*
X171766923Y-100709742D01*
X171814542Y-100614504D01*
X171814542Y-100328790D01*
X171766923Y-100233552D01*
X171719304Y-100185933D01*
X171624066Y-100138314D01*
X171481209Y-100138314D01*
X171385971Y-100185933D01*
X171338352Y-100233552D01*
X171290733Y-100328790D01*
X171290733Y-100614504D01*
X171338352Y-100709742D01*
X171385971Y-100757361D01*
X171481209Y-100804980D01*
X171624066Y-100804980D01*
X170719304Y-100804980D02*
X170814542Y-100757361D01*
X170862161Y-100662123D01*
X170862161Y-99804980D01*
X169909780Y-100804980D02*
X169909780Y-99804980D01*
X169909780Y-100757361D02*
X170005019Y-100804980D01*
X170195495Y-100804980D01*
X170290733Y-100757361D01*
X170338352Y-100709742D01*
X170385971Y-100614504D01*
X170385971Y-100328790D01*
X170338352Y-100233552D01*
X170290733Y-100185933D01*
X170195495Y-100138314D01*
X170005019Y-100138314D01*
X169909780Y-100185933D01*
X169052638Y-100757361D02*
X169147876Y-100804980D01*
X169338352Y-100804980D01*
X169433590Y-100757361D01*
X169481209Y-100662123D01*
X169481209Y-100281171D01*
X169433590Y-100185933D01*
X169338352Y-100138314D01*
X169147876Y-100138314D01*
X169052638Y-100185933D01*
X169005019Y-100281171D01*
X169005019Y-100376409D01*
X169481209Y-100471647D01*
X168576447Y-100804980D02*
X168576447Y-100138314D01*
X168576447Y-100328790D02*
X168528828Y-100233552D01*
X168481209Y-100185933D01*
X168385971Y-100138314D01*
X168290733Y-100138314D01*
X167671685Y-99804980D02*
X167671685Y-100519266D01*
X167719304Y-100662123D01*
X167814542Y-100757361D01*
X167957400Y-100804980D01*
X168052638Y-100804980D01*
X166766923Y-100138314D02*
X166766923Y-100804980D01*
X167195495Y-100138314D02*
X167195495Y-100662123D01*
X167147876Y-100757361D01*
X167052638Y-100804980D01*
X166909780Y-100804980D01*
X166814542Y-100757361D01*
X166766923Y-100709742D01*
X166290733Y-100804980D02*
X166290733Y-100138314D01*
X166290733Y-100233552D02*
X166243114Y-100185933D01*
X166147876Y-100138314D01*
X166005019Y-100138314D01*
X165909780Y-100185933D01*
X165862161Y-100281171D01*
X165862161Y-100804980D01*
X165862161Y-100281171D02*
X165814542Y-100185933D01*
X165719304Y-100138314D01*
X165576447Y-100138314D01*
X165481209Y-100185933D01*
X165433590Y-100281171D01*
X165433590Y-100804980D01*
X164957400Y-100138314D02*
X164957400Y-101138314D01*
X164957400Y-100185933D02*
X164862161Y-100138314D01*
X164671685Y-100138314D01*
X164576447Y-100185933D01*
X164528828Y-100233552D01*
X164481209Y-100328790D01*
X164481209Y-100614504D01*
X164528828Y-100709742D01*
X164576447Y-100757361D01*
X164671685Y-100804980D01*
X164862161Y-100804980D01*
X164957400Y-100757361D01*
X163671685Y-100757361D02*
X163766923Y-100804980D01*
X163957400Y-100804980D01*
X164052638Y-100757361D01*
X164100257Y-100662123D01*
X164100257Y-100281171D01*
X164052638Y-100185933D01*
X163957400Y-100138314D01*
X163766923Y-100138314D01*
X163671685Y-100185933D01*
X163624066Y-100281171D01*
X163624066Y-100376409D01*
X164100257Y-100471647D01*
X163195495Y-100804980D02*
X163195495Y-100138314D01*
X163195495Y-100328790D02*
X163147876Y-100233552D01*
X163100257Y-100185933D01*
X163005019Y-100138314D01*
X162909780Y-100138314D01*
X162814542Y-100900219D02*
X162052638Y-100900219D01*
X161814542Y-100804980D02*
X161814542Y-99804980D01*
X161433590Y-99804980D01*
X161338352Y-99852600D01*
X161290733Y-99900219D01*
X161243114Y-99995457D01*
X161243114Y-100138314D01*
X161290733Y-100233552D01*
X161338352Y-100281171D01*
X161433590Y-100328790D01*
X161814542Y-100328790D01*
X160290733Y-99852600D02*
X160385971Y-99804980D01*
X160528828Y-99804980D01*
X160671685Y-99852600D01*
X160766923Y-99947838D01*
X160814542Y-100043076D01*
X160862161Y-100233552D01*
X160862161Y-100376409D01*
X160814542Y-100566885D01*
X160766923Y-100662123D01*
X160671685Y-100757361D01*
X160528828Y-100804980D01*
X160433590Y-100804980D01*
X160290733Y-100757361D01*
X160243114Y-100709742D01*
X160243114Y-100376409D01*
X160433590Y-100376409D01*
X159624066Y-99804980D02*
X159433590Y-99804980D01*
X159338352Y-99852600D01*
X159243114Y-99947838D01*
X159195495Y-100138314D01*
X159195495Y-100471647D01*
X159243114Y-100662123D01*
X159338352Y-100757361D01*
X159433590Y-100804980D01*
X159624066Y-100804980D01*
X159719304Y-100757361D01*
X159814542Y-100662123D01*
X159862161Y-100471647D01*
X159862161Y-100138314D01*
X159814542Y-99947838D01*
X159719304Y-99852600D01*
X159624066Y-99804980D01*
X158576447Y-99804980D02*
X158385971Y-99804980D01*
X158290733Y-99852600D01*
X158195495Y-99947838D01*
X158147876Y-100138314D01*
X158147876Y-100471647D01*
X158195495Y-100662123D01*
X158290733Y-100757361D01*
X158385971Y-100804980D01*
X158576447Y-100804980D01*
X158671685Y-100757361D01*
X158766923Y-100662123D01*
X158814542Y-100471647D01*
X158814542Y-100138314D01*
X158766923Y-99947838D01*
X158671685Y-99852600D01*
X158576447Y-99804980D01*
X157719304Y-100804980D02*
X157719304Y-99804980D01*
X157481209Y-99804980D01*
X157338352Y-99852600D01*
X157243114Y-99947838D01*
X157195495Y-100043076D01*
X157147876Y-100233552D01*
X157147876Y-100376409D01*
X157195495Y-100566885D01*
X157243114Y-100662123D01*
X157338352Y-100757361D01*
X157481209Y-100804980D01*
X157719304Y-100804980D01*
G04 #@! TD*
M02*
