G04 #@! TF.GenerationSoftware,KiCad,Pcbnew,(5.1.6-0-10_14)*
G04 #@! TF.CreationDate,2020-08-18T13:46:32-04:00*
G04 #@! TF.ProjectId,Pufferfish-Interface-2,50756666-6572-4666-9973-682d496e7465,rev?*
G04 #@! TF.SameCoordinates,Original*
G04 #@! TF.FileFunction,Legend,Bot*
G04 #@! TF.FilePolarity,Positive*
%FSLAX46Y46*%
G04 Gerber Fmt 4.6, Leading zero omitted, Abs format (unit mm)*
G04 Created by KiCad (PCBNEW (5.1.6-0-10_14)) date 2020-08-18 13:46:32*
%MOMM*%
%LPD*%
G01*
G04 APERTURE LIST*
%ADD10C,0.120000*%
%ADD11C,0.127000*%
%ADD12C,0.100000*%
%ADD13C,0.200000*%
%ADD14C,0.150000*%
G04 APERTURE END LIST*
D10*
X16289980Y-6041700D02*
X16289980Y-3381700D01*
X36669980Y-6041700D02*
X16289980Y-6041700D01*
X36669980Y-3381700D02*
X16289980Y-3381700D01*
X36669980Y-6041700D02*
X36669980Y-3381700D01*
X37939980Y-6041700D02*
X39269980Y-6041700D01*
X39269980Y-6041700D02*
X39269980Y-4711700D01*
X20126060Y-34858760D02*
X20126060Y-33908760D01*
X17526060Y-34858760D02*
X20126060Y-34858760D01*
X20126060Y-32608760D02*
X20126060Y-31808760D01*
X10470120Y-49105100D02*
X11420120Y-49105100D01*
X10470120Y-46505100D02*
X10470120Y-49105100D01*
X12720120Y-49105100D02*
X13520120Y-49105100D01*
X14696178Y-33054220D02*
X14179022Y-33054220D01*
X14696178Y-34474220D02*
X14179022Y-34474220D01*
X16866102Y-49444980D02*
X17383258Y-49444980D01*
X16866102Y-48024980D02*
X17383258Y-48024980D01*
X45246000Y-3982000D02*
X45246000Y-1592000D01*
X53091000Y-4832000D02*
X53091000Y-3982000D01*
X53091000Y-3982000D02*
X50766000Y-3982000D01*
X42921000Y-8352000D02*
X42921000Y-9202000D01*
X42921000Y-4832000D02*
X42921000Y-3982000D01*
X42921000Y-3982000D02*
X45246000Y-3982000D01*
X42921000Y-9202000D02*
X53091000Y-9202000D01*
X53091000Y-9202000D02*
X53091000Y-8352000D01*
D11*
X13341000Y-9068000D02*
X1391000Y-9068000D01*
D12*
X3593000Y-1718000D02*
G75*
G03*
X3593000Y-1718000I-127000J0D01*
G01*
D10*
X30911298Y-48441540D02*
X30394142Y-48441540D01*
X30911298Y-49861540D02*
X30394142Y-49861540D01*
X47291518Y-49645500D02*
X46774362Y-49645500D01*
X47291518Y-51065500D02*
X46774362Y-51065500D01*
D13*
X34359788Y-40449500D02*
G75*
G03*
X34359788Y-40449500I-323788J0D01*
G01*
X30480000Y-47879000D02*
X30480000Y-41910000D01*
X58420000Y-47879000D02*
X30480000Y-47879000D01*
X58420000Y-38608000D02*
X58420000Y-47879000D01*
X35560000Y-38608000D02*
X58420000Y-38608000D01*
D14*
X28987073Y-6986020D02*
X28987073Y-7700306D01*
X29034692Y-7843163D01*
X29129930Y-7938401D01*
X29272787Y-7986020D01*
X29368025Y-7986020D01*
X27987073Y-7986020D02*
X28558501Y-7986020D01*
X28272787Y-7986020D02*
X28272787Y-6986020D01*
X28368025Y-7128878D01*
X28463263Y-7224116D01*
X28558501Y-7271735D01*
X19371298Y-36156379D02*
X19466536Y-36108760D01*
X19561774Y-36013521D01*
X19704631Y-35870664D01*
X19799869Y-35823045D01*
X19895107Y-35823045D01*
X19847488Y-36061140D02*
X19942726Y-36013521D01*
X20037964Y-35918283D01*
X20085583Y-35727807D01*
X20085583Y-35394474D01*
X20037964Y-35203998D01*
X19942726Y-35108760D01*
X19847488Y-35061140D01*
X19657012Y-35061140D01*
X19561774Y-35108760D01*
X19466536Y-35203998D01*
X19418917Y-35394474D01*
X19418917Y-35727807D01*
X19466536Y-35918283D01*
X19561774Y-36013521D01*
X19657012Y-36061140D01*
X19847488Y-36061140D01*
X18561774Y-35061140D02*
X18752250Y-35061140D01*
X18847488Y-35108760D01*
X18895107Y-35156379D01*
X18990345Y-35299236D01*
X19037964Y-35489712D01*
X19037964Y-35870664D01*
X18990345Y-35965902D01*
X18942726Y-36013521D01*
X18847488Y-36061140D01*
X18657012Y-36061140D01*
X18561774Y-36013521D01*
X18514155Y-35965902D01*
X18466536Y-35870664D01*
X18466536Y-35632569D01*
X18514155Y-35537331D01*
X18561774Y-35489712D01*
X18657012Y-35442093D01*
X18847488Y-35442093D01*
X18942726Y-35489712D01*
X18990345Y-35537331D01*
X19037964Y-35632569D01*
X10192039Y-48162401D02*
X10144420Y-48067163D01*
X10049181Y-47971925D01*
X9906324Y-47829068D01*
X9858705Y-47733830D01*
X9858705Y-47638592D01*
X10096800Y-47686211D02*
X10049181Y-47590973D01*
X9953943Y-47495735D01*
X9763467Y-47448116D01*
X9430134Y-47448116D01*
X9239658Y-47495735D01*
X9144420Y-47590973D01*
X9096800Y-47686211D01*
X9096800Y-47876687D01*
X9144420Y-47971925D01*
X9239658Y-48067163D01*
X9430134Y-48114782D01*
X9763467Y-48114782D01*
X9953943Y-48067163D01*
X10049181Y-47971925D01*
X10096800Y-47876687D01*
X10096800Y-47686211D01*
X9096800Y-49019544D02*
X9096800Y-48543354D01*
X9572991Y-48495735D01*
X9525372Y-48543354D01*
X9477753Y-48638592D01*
X9477753Y-48876687D01*
X9525372Y-48971925D01*
X9572991Y-49019544D01*
X9668229Y-49067163D01*
X9906324Y-49067163D01*
X10001562Y-49019544D01*
X10049181Y-48971925D01*
X10096800Y-48876687D01*
X10096800Y-48638592D01*
X10049181Y-48543354D01*
X10001562Y-48495735D01*
X15026877Y-32509720D02*
X15360210Y-32033530D01*
X15598305Y-32509720D02*
X15598305Y-31509720D01*
X15217353Y-31509720D01*
X15122115Y-31557340D01*
X15074496Y-31604959D01*
X15026877Y-31700197D01*
X15026877Y-31843054D01*
X15074496Y-31938292D01*
X15122115Y-31985911D01*
X15217353Y-32033530D01*
X15598305Y-32033530D01*
X14074496Y-32509720D02*
X14645924Y-32509720D01*
X14360210Y-32509720D02*
X14360210Y-31509720D01*
X14455448Y-31652578D01*
X14550686Y-31747816D01*
X14645924Y-31795435D01*
X13455448Y-31509720D02*
X13360210Y-31509720D01*
X13264972Y-31557340D01*
X13217353Y-31604959D01*
X13169734Y-31700197D01*
X13122115Y-31890673D01*
X13122115Y-32128768D01*
X13169734Y-32319244D01*
X13217353Y-32414482D01*
X13264972Y-32462101D01*
X13360210Y-32509720D01*
X13455448Y-32509720D01*
X13550686Y-32462101D01*
X13598305Y-32414482D01*
X13645924Y-32319244D01*
X13693543Y-32128768D01*
X13693543Y-31890673D01*
X13645924Y-31700197D01*
X13598305Y-31604959D01*
X13550686Y-31557340D01*
X13455448Y-31509720D01*
X20331486Y-49156880D02*
X20664820Y-48680690D01*
X20902915Y-49156880D02*
X20902915Y-48156880D01*
X20521962Y-48156880D01*
X20426724Y-48204500D01*
X20379105Y-48252119D01*
X20331486Y-48347357D01*
X20331486Y-48490214D01*
X20379105Y-48585452D01*
X20426724Y-48633071D01*
X20521962Y-48680690D01*
X20902915Y-48680690D01*
X19855296Y-49156880D02*
X19664820Y-49156880D01*
X19569581Y-49109261D01*
X19521962Y-49061642D01*
X19426724Y-48918785D01*
X19379105Y-48728309D01*
X19379105Y-48347357D01*
X19426724Y-48252119D01*
X19474343Y-48204500D01*
X19569581Y-48156880D01*
X19760058Y-48156880D01*
X19855296Y-48204500D01*
X19902915Y-48252119D01*
X19950534Y-48347357D01*
X19950534Y-48585452D01*
X19902915Y-48680690D01*
X19855296Y-48728309D01*
X19760058Y-48775928D01*
X19569581Y-48775928D01*
X19474343Y-48728309D01*
X19426724Y-48680690D01*
X19379105Y-48585452D01*
X55122082Y-3113304D02*
X55169701Y-3065685D01*
X55217320Y-2922828D01*
X55217320Y-2827590D01*
X55169701Y-2684733D01*
X55074463Y-2589495D01*
X54979225Y-2541876D01*
X54788749Y-2494257D01*
X54645892Y-2494257D01*
X54455416Y-2541876D01*
X54360178Y-2589495D01*
X54264940Y-2684733D01*
X54217320Y-2827590D01*
X54217320Y-2922828D01*
X54264940Y-3065685D01*
X54312559Y-3113304D01*
X54217320Y-3732352D02*
X54217320Y-3922828D01*
X54264940Y-4018066D01*
X54360178Y-4113304D01*
X54550654Y-4160923D01*
X54883987Y-4160923D01*
X55074463Y-4113304D01*
X55169701Y-4018066D01*
X55217320Y-3922828D01*
X55217320Y-3732352D01*
X55169701Y-3637114D01*
X55074463Y-3541876D01*
X54883987Y-3494257D01*
X54550654Y-3494257D01*
X54360178Y-3541876D01*
X54264940Y-3637114D01*
X54217320Y-3732352D01*
X55217320Y-4589495D02*
X54217320Y-4589495D01*
X55217320Y-5160923D01*
X54217320Y-5160923D01*
X55217320Y-5637114D02*
X54217320Y-5637114D01*
X55217320Y-6208542D01*
X54217320Y-6208542D01*
X54217320Y-6589495D02*
X54217320Y-7208542D01*
X54598273Y-6875209D01*
X54598273Y-7018066D01*
X54645892Y-7113304D01*
X54693511Y-7160923D01*
X54788749Y-7208542D01*
X55026844Y-7208542D01*
X55122082Y-7160923D01*
X55169701Y-7113304D01*
X55217320Y-7018066D01*
X55217320Y-6732352D01*
X55169701Y-6637114D01*
X55122082Y-6589495D01*
X13141413Y-11076201D02*
X13189067Y-11123854D01*
X13332027Y-11171508D01*
X13427334Y-11171508D01*
X13570295Y-11123854D01*
X13665602Y-11028547D01*
X13713255Y-10933240D01*
X13760909Y-10742626D01*
X13760909Y-10599666D01*
X13713255Y-10409052D01*
X13665602Y-10313745D01*
X13570295Y-10218438D01*
X13427334Y-10170784D01*
X13332027Y-10170784D01*
X13189067Y-10218438D01*
X13141413Y-10266091D01*
X12521917Y-10170784D02*
X12331303Y-10170784D01*
X12235996Y-10218438D01*
X12140689Y-10313745D01*
X12093036Y-10504359D01*
X12093036Y-10837933D01*
X12140689Y-11028547D01*
X12235996Y-11123854D01*
X12331303Y-11171508D01*
X12521917Y-11171508D01*
X12617224Y-11123854D01*
X12712531Y-11028547D01*
X12760185Y-10837933D01*
X12760185Y-10504359D01*
X12712531Y-10313745D01*
X12617224Y-10218438D01*
X12521917Y-10170784D01*
X11664154Y-11171508D02*
X11664154Y-10170784D01*
X11092312Y-11171508D01*
X11092312Y-10170784D01*
X10615776Y-11171508D02*
X10615776Y-10170784D01*
X10043934Y-11171508D01*
X10043934Y-10170784D01*
X9615052Y-10266091D02*
X9567399Y-10218438D01*
X9472092Y-10170784D01*
X9233824Y-10170784D01*
X9138517Y-10218438D01*
X9090864Y-10266091D01*
X9043210Y-10361398D01*
X9043210Y-10456705D01*
X9090864Y-10599666D01*
X9662706Y-11171508D01*
X9043210Y-11171508D01*
X27963097Y-49636940D02*
X28296430Y-49160750D01*
X28534525Y-49636940D02*
X28534525Y-48636940D01*
X28153573Y-48636940D01*
X28058335Y-48684560D01*
X28010716Y-48732179D01*
X27963097Y-48827417D01*
X27963097Y-48970274D01*
X28010716Y-49065512D01*
X28058335Y-49113131D01*
X28153573Y-49160750D01*
X28534525Y-49160750D01*
X27629763Y-48636940D02*
X27010716Y-48636940D01*
X27344049Y-49017893D01*
X27201192Y-49017893D01*
X27105954Y-49065512D01*
X27058335Y-49113131D01*
X27010716Y-49208369D01*
X27010716Y-49446464D01*
X27058335Y-49541702D01*
X27105954Y-49589321D01*
X27201192Y-49636940D01*
X27486906Y-49636940D01*
X27582144Y-49589321D01*
X27629763Y-49541702D01*
X26677382Y-48636940D02*
X26010716Y-48636940D01*
X26439287Y-49636940D01*
X47719217Y-52700180D02*
X48052550Y-52223990D01*
X48290645Y-52700180D02*
X48290645Y-51700180D01*
X47909693Y-51700180D01*
X47814455Y-51747800D01*
X47766836Y-51795419D01*
X47719217Y-51890657D01*
X47719217Y-52033514D01*
X47766836Y-52128752D01*
X47814455Y-52176371D01*
X47909693Y-52223990D01*
X48290645Y-52223990D01*
X47385883Y-51700180D02*
X46766836Y-51700180D01*
X47100169Y-52081133D01*
X46957312Y-52081133D01*
X46862074Y-52128752D01*
X46814455Y-52176371D01*
X46766836Y-52271609D01*
X46766836Y-52509704D01*
X46814455Y-52604942D01*
X46862074Y-52652561D01*
X46957312Y-52700180D01*
X47243026Y-52700180D01*
X47338264Y-52652561D01*
X47385883Y-52604942D01*
X46195407Y-52128752D02*
X46290645Y-52081133D01*
X46338264Y-52033514D01*
X46385883Y-51938276D01*
X46385883Y-51890657D01*
X46338264Y-51795419D01*
X46290645Y-51747800D01*
X46195407Y-51700180D01*
X46004931Y-51700180D01*
X45909693Y-51747800D01*
X45862074Y-51795419D01*
X45814455Y-51890657D01*
X45814455Y-51938276D01*
X45862074Y-52033514D01*
X45909693Y-52081133D01*
X46004931Y-52128752D01*
X46195407Y-52128752D01*
X46290645Y-52176371D01*
X46338264Y-52223990D01*
X46385883Y-52319228D01*
X46385883Y-52509704D01*
X46338264Y-52604942D01*
X46290645Y-52652561D01*
X46195407Y-52700180D01*
X46004931Y-52700180D01*
X45909693Y-52652561D01*
X45862074Y-52604942D01*
X45814455Y-52509704D01*
X45814455Y-52319228D01*
X45862074Y-52223990D01*
X45909693Y-52176371D01*
X46004931Y-52128752D01*
X37077115Y-38065982D02*
X37124734Y-38113601D01*
X37267591Y-38161220D01*
X37362829Y-38161220D01*
X37505686Y-38113601D01*
X37600924Y-38018363D01*
X37648543Y-37923125D01*
X37696162Y-37732649D01*
X37696162Y-37589792D01*
X37648543Y-37399316D01*
X37600924Y-37304078D01*
X37505686Y-37208840D01*
X37362829Y-37161220D01*
X37267591Y-37161220D01*
X37124734Y-37208840D01*
X37077115Y-37256459D01*
X36458067Y-37161220D02*
X36267591Y-37161220D01*
X36172353Y-37208840D01*
X36077115Y-37304078D01*
X36029496Y-37494554D01*
X36029496Y-37827887D01*
X36077115Y-38018363D01*
X36172353Y-38113601D01*
X36267591Y-38161220D01*
X36458067Y-38161220D01*
X36553305Y-38113601D01*
X36648543Y-38018363D01*
X36696162Y-37827887D01*
X36696162Y-37494554D01*
X36648543Y-37304078D01*
X36553305Y-37208840D01*
X36458067Y-37161220D01*
X35600924Y-38161220D02*
X35600924Y-37161220D01*
X35029496Y-38161220D01*
X35029496Y-37161220D01*
X34553305Y-38161220D02*
X34553305Y-37161220D01*
X33981877Y-38161220D01*
X33981877Y-37161220D01*
X32981877Y-38161220D02*
X33553305Y-38161220D01*
X33267591Y-38161220D02*
X33267591Y-37161220D01*
X33362829Y-37304078D01*
X33458067Y-37399316D01*
X33553305Y-37446935D01*
M02*
