M48
; DRILL file {KiCad (5.1.2)-1} date 2/18/2021 6:56:19 PM
; FORMAT={3:3/ absolute / metric / suppress leading zeros}
; #@! TF.CreationDate,2021-02-18T18:56:19+05:45
; #@! TF.GenerationSoftware,Kicad,Pcbnew,(5.1.2)-1
; #@! TF.FileFunction,Plated,1,4,PTH
FMAT,2
METRIC,TZ
T1C0.254
T2C0.257
T3C0.300
T4C0.350
T5C0.400
T6C0.500
T7C0.650
T8C0.800
T9C1.000
T10C1.016
T11C1.020
T12C1.300
T13C1.600
T14C2.000
T15C3.200
%
G90
G05
T1
X182880Y-89420
X182880Y-90170
X182880Y-90920
T2
X71792Y-106778
X71792Y-107413
X71792Y-107997
X71792Y-108620
X71792Y-109255
X71792Y-109902
X71792Y-110588
X71792Y-111223
X71792Y-111858
X71792Y-112493
X71792Y-113128
X71792Y-113763
X71842Y-114888
X71892Y-116113
X71976Y-96440
X71983Y-97266
X71983Y-98015
X71983Y-98650
X71983Y-99285
X71983Y-99920
X71983Y-100555
X72011Y-43982
X72011Y-44744
X72011Y-51666
X72011Y-52428
X72011Y-53190
X72011Y-54022
X72040Y-86188
X72046Y-84077
X72046Y-85125
X72075Y-45570
X72075Y-46332
X72075Y-47094
X72075Y-47856
X72075Y-48618
X72075Y-49380
X72075Y-50206
X72075Y-50968
X72075Y-54721
X72075Y-55292
X72075Y-81892
X72075Y-82591
X72075Y-83352
X72117Y-117113
X72167Y-118188
X72173Y-56118
X72173Y-56943
X72173Y-57578
X72675Y-96440
X72681Y-97266
X72681Y-98015
X72681Y-98650
X72681Y-99285
X72681Y-99920
X72681Y-100555
X72745Y-106778
X72745Y-107413
X72745Y-107997
X72745Y-108620
X72745Y-109255
X72745Y-109902
X72745Y-112493
X72745Y-113128
X72745Y-113763
X72795Y-114888
X72845Y-116113
X72935Y-43926
X73070Y-117113
X73075Y-51673
X73075Y-52435
X73075Y-53197
X73119Y-86252
X73120Y-118188
X73126Y-56943
X73126Y-57578
X73126Y-84140
X73126Y-85188
X73138Y-47101
X73138Y-47863
X73138Y-48625
X73138Y-49387
X73138Y-50212
X73138Y-50974
X73138Y-81899
X73138Y-82597
X73138Y-83359
X73437Y-96440
X73443Y-97266
X73443Y-98015
X73443Y-98650
X73443Y-99285
X73443Y-99920
X73443Y-100555
X73634Y-106778
X73634Y-107413
X73634Y-107997
X73634Y-108620
X73634Y-109255
X73634Y-109902
X73634Y-113763
X73684Y-114888
X73734Y-116113
X73945Y-96250
X73959Y-117113
X74009Y-118188
X74078Y-43862
X74123Y-51673
X74123Y-52435
X74123Y-53197
X74123Y-53895
X74123Y-54530
X74186Y-47101
X74186Y-47863
X74186Y-48625
X74186Y-49387
X74186Y-50212
X74186Y-50974
X74186Y-81899
X74186Y-82597
X74186Y-83359
X74186Y-84121
X74586Y-106778
X74586Y-107413
X74586Y-107997
X74586Y-108620
X74586Y-109255
X74586Y-109902
X74586Y-113128
X74586Y-113763
X74636Y-114888
X74643Y-96250
X74686Y-116113
X74911Y-117113
X74961Y-118188
X75158Y-43989
X75158Y-44751
X75158Y-51673
X75158Y-52435
X75158Y-53197
X75158Y-53895
X75158Y-54530
X75221Y-45577
X75221Y-46339
X75221Y-47101
X75221Y-47863
X75221Y-48625
X75221Y-49387
X75221Y-50212
X75221Y-50974
X75357Y-110588
X75357Y-111858
X75357Y-112503
X75405Y-96250
X75539Y-106778
X75539Y-107413
X75539Y-107997
X75539Y-108620
X75539Y-109255
X75539Y-109902
X75539Y-113128
X75539Y-113763
X75589Y-114888
X75639Y-116113
X75864Y-117113
X75914Y-118188
X76167Y-96250
X76364Y-43989
X76364Y-44751
X76364Y-51673
X76364Y-52435
X76364Y-53197
X76428Y-45577
X76428Y-46339
X76428Y-47101
X76428Y-47863
X76428Y-48625
X76428Y-49387
X76428Y-50212
X76428Y-50974
X76491Y-106778
X76491Y-107413
X76491Y-107997
X76491Y-108620
X76491Y-109255
X76491Y-109902
X76491Y-110588
X76491Y-111223
X76491Y-111858
X76491Y-112493
X76491Y-113128
X76491Y-113763
X76541Y-114888
X76591Y-116113
X76682Y-98714
X76682Y-99285
X76682Y-99920
X76809Y-100492
X76816Y-117113
X76866Y-96250
X76866Y-118188
X77317Y-97329
X77317Y-98028
X77317Y-106842
X77317Y-107477
X77317Y-108061
X77317Y-108683
X77317Y-109318
X77317Y-109966
X77317Y-110652
X77317Y-111287
X77317Y-111922
X77317Y-112557
X77317Y-113192
X77317Y-113827
X77367Y-114952
X77380Y-98714
X77380Y-99285
X77380Y-99920
X77417Y-116177
X77444Y-96250
X77507Y-100492
X77642Y-117177
X77692Y-118252
X77774Y-80057
X77774Y-81264
X77774Y-82089
X77825Y-83613
X77825Y-84883
X77825Y-96694
X77837Y-78089
X77837Y-78978
X78015Y-112125
X78079Y-97901
X78079Y-106588
X78079Y-107223
X78079Y-113839
X78129Y-114964
X78142Y-98714
X78142Y-99285
X78142Y-99920
X78179Y-116189
X78269Y-100492
X78333Y-97202
X78404Y-117189
X78454Y-118264
X78460Y-88433
X78523Y-80057
X78523Y-81264
X78523Y-82089
X78523Y-82978
X78523Y-83931
X78523Y-84756
X78587Y-78089
X78587Y-78978
X78587Y-112760
X78777Y-97647
X78777Y-98714
X78777Y-99285
X78777Y-99920
X78790Y-113839
X78840Y-114964
X78890Y-116189
X78904Y-100492
X79115Y-117189
X79158Y-87804
X79158Y-88439
X79165Y-118264
X79222Y-98091
X79349Y-80051
X79349Y-81257
X79349Y-82083
X79349Y-82972
X79349Y-83924
X79349Y-84750
X79412Y-78082
X79412Y-78971
X79425Y-113839
X79475Y-114964
X79476Y-99285
X79476Y-99920
X79476Y-113204
X79525Y-116189
X79603Y-100492
X79666Y-98599
X79750Y-117189
X79800Y-118264
X79984Y-87804
X79984Y-88433
X80060Y-113839
X80110Y-114964
X80160Y-116189
X80174Y-99044
X80238Y-99920
X80365Y-100492
X80385Y-117189
X80435Y-118264
X80555Y-99488
X80619Y-87804
X80619Y-88439
X80809Y-113827
X80859Y-114952
X80909Y-116177
X80936Y-99933
X80936Y-100568
X81134Y-117177
X81184Y-118252
X81571Y-113839
X81621Y-114964
X81671Y-116189
X81896Y-117189
X81946Y-118264
X82282Y-113839
X82332Y-114964
X82382Y-116189
X82607Y-117189
X82657Y-118264
X82917Y-113839
X82967Y-114964
X83017Y-116189
X83242Y-117189
X83292Y-118264
X83349Y-113204
X83552Y-113839
X83602Y-114964
X83652Y-116189
X83877Y-117189
X83921Y-112823
X83927Y-118264
X84365Y-112379
X84365Y-113827
X84415Y-114952
X84465Y-116177
X84690Y-117177
X84740Y-118252
X84873Y-111680
X84873Y-112950
X85127Y-113839
X85177Y-114964
X85227Y-116189
X85452Y-117189
X85502Y-118264
X85508Y-110461
X85508Y-111223
X85508Y-112049
X85572Y-112938
X85838Y-113839
X85888Y-114964
X85938Y-116189
X86163Y-117189
X86213Y-118264
X86270Y-110474
X86270Y-111236
X86270Y-112061
X86334Y-112950
X86473Y-113839
X86523Y-114964
X86573Y-116189
X86798Y-117189
X86848Y-118264
X86969Y-110461
X86969Y-111223
X86969Y-112049
X87032Y-112938
X87108Y-113839
X87158Y-114964
X87208Y-116189
X87433Y-117189
X87483Y-118264
X87667Y-111236
X87667Y-112061
X87731Y-110474
X87731Y-112950
X87858Y-113827
X87908Y-114952
X87958Y-116177
X88183Y-117177
X88233Y-118252
X88493Y-110461
X88493Y-111236
X88493Y-112061
X88556Y-112950
X88620Y-113839
X88670Y-114964
X88720Y-116189
X88945Y-117189
X88995Y-118264
X89331Y-113839
X89381Y-114964
X89382Y-110474
X89382Y-111172
X89382Y-111998
X89431Y-116189
X89445Y-112887
X89656Y-117189
X89706Y-118264
X89966Y-113839
X90016Y-114964
X90066Y-116189
X90144Y-110461
X90144Y-111172
X90144Y-111998
X90207Y-112887
X90291Y-117189
X90341Y-118264
X90601Y-113839
X90651Y-114964
X90701Y-116189
X90842Y-110474
X90842Y-111172
X90842Y-111998
X90842Y-112887
X90926Y-117189
X90976Y-118264
X91287Y-113827
X91337Y-114952
X91350Y-103362
X91350Y-104124
X91387Y-116177
X91414Y-104822
X91414Y-110474
X91477Y-111172
X91477Y-111998
X91477Y-112887
X91604Y-105457
X91612Y-117177
X91662Y-118252
X91985Y-110855
X92049Y-113839
X92099Y-114964
X92149Y-116189
X92176Y-103997
X92176Y-106029
X92176Y-112061
X92176Y-112950
X92232Y-103453
X92239Y-104695
X92374Y-117189
X92424Y-118264
X92430Y-105330
X92493Y-111299
X92557Y-106588
X92760Y-113839
X92810Y-114964
X92811Y-113014
X92860Y-116189
X92874Y-103743
X92938Y-104441
X93001Y-105902
X93046Y-54270
X93046Y-54905
X93065Y-53698
X93065Y-55483
X93065Y-111871
X93085Y-117189
X93109Y-43665
X93109Y-44363
X93109Y-45125
X93109Y-45887
X93109Y-46586
X93109Y-47285
X93109Y-47920
X93109Y-48618
X93109Y-49317
X93109Y-50015
X93109Y-50650
X93128Y-51355
X93128Y-105076
X93135Y-118264
X93192Y-106588
X93192Y-107223
X93395Y-113839
X93445Y-114964
X93446Y-113141
X93495Y-116189
X93509Y-104314
X93573Y-112379
X93681Y-54270
X93681Y-54905
X93700Y-53698
X93700Y-55483
X93720Y-117189
X93751Y-105584
X93763Y-104949
X93770Y-118264
X94017Y-112823
X94030Y-113839
X94080Y-114964
X94130Y-116189
X94271Y-51355
X94300Y-43602
X94300Y-44300
X94300Y-45062
X94300Y-45824
X94300Y-46523
X94300Y-47221
X94300Y-47856
X94316Y-48555
X94316Y-49253
X94316Y-49952
X94316Y-50587
X94335Y-105013
X94355Y-117189
X94386Y-105584
X94398Y-113268
X94405Y-118264
X94652Y-53698
X94652Y-113827
X94681Y-54270
X94681Y-54905
X94681Y-55476
X94702Y-114952
X94752Y-116177
X94977Y-117177
X95021Y-105584
X95027Y-118252
X95097Y-51482
X95363Y-43665
X95363Y-44363
X95363Y-45125
X95363Y-45887
X95363Y-46586
X95363Y-47285
X95363Y-47920
X95656Y-105584
X95668Y-53698
X95681Y-54270
X95681Y-54905
X95681Y-55476
X95783Y-109394
X95859Y-51482
X96267Y-118263
X96411Y-43665
X96411Y-44363
X96411Y-45125
X96411Y-45887
X96411Y-46586
X96411Y-47285
X96411Y-47920
X96475Y-54270
X96475Y-54905
X96475Y-55546
X96494Y-53698
X96863Y-109394
X97220Y-118263
X97256Y-53705
X97256Y-54270
X97256Y-54905
X97475Y-43665
X97475Y-44363
X97475Y-45125
X97475Y-45887
X97475Y-46586
X97475Y-47285
X97475Y-47920
X97498Y-109394
X97954Y-51101
X98109Y-118263
X98133Y-109394
X98538Y-43665
X98538Y-44363
X98538Y-45125
X98538Y-45887
X98538Y-46586
X98538Y-47285
X98538Y-47920
X98768Y-109394
X99061Y-118263
X99478Y-106485
X99478Y-107120
X99478Y-107755
X99478Y-108390
X99538Y-43665
X100014Y-118263
X100285Y-43665
X100966Y-118263
X101285Y-43665
X101792Y-118327
X102285Y-43665
X102554Y-118339
X103265Y-118339
X103285Y-43665
X103900Y-118339
X104158Y-43665
X104535Y-118339
X105158Y-43665
X105284Y-118327
X106046Y-118339
X106158Y-43665
X106757Y-118339
X107132Y-50278
X107158Y-43665
X107193Y-46053
X107193Y-47881
X107193Y-48881
X107193Y-49558
X107392Y-118339
X108027Y-118339
X108132Y-50378
X108159Y-43665
X108159Y-44665
X108159Y-46053
X108209Y-47729
X108209Y-48729
X108840Y-118327
X109159Y-43665
X109159Y-44665
X109159Y-46053
X109194Y-47736
X109602Y-118339
X110159Y-43665
X110159Y-44665
X110159Y-46053
X110159Y-47736
X110313Y-118339
X110948Y-118339
X111159Y-43665
X111159Y-44665
X111159Y-46053
X111162Y-47742
X111583Y-118339
X111918Y-46015
X111924Y-47736
X112242Y-50911
X112333Y-118327
X112426Y-43767
X112426Y-44767
X112750Y-46015
X113095Y-118339
X113426Y-43767
X113426Y-44767
X113696Y-46021
X113702Y-47736
X113806Y-118339
X114401Y-46021
X114401Y-47736
X114426Y-43767
X114426Y-44767
X114441Y-118339
X115076Y-118339
X115426Y-43767
X115426Y-44767
X115480Y-45577
X115762Y-118327
X116524Y-118339
X117235Y-118339
X117870Y-118339
X118505Y-118339
X119127Y-118327
X120442Y-118313
X121395Y-118313
X122284Y-118313
X123236Y-118313
X123449Y-45783
X123449Y-46799
X124116Y-86471
X124189Y-118313
X124449Y-45783
X124449Y-46799
X124497Y-85899
X124815Y-86471
X125141Y-118313
X125259Y-85899
X125449Y-45783
X125449Y-46799
X125577Y-86471
X125967Y-118377
X126449Y-45783
X126449Y-46799
X126729Y-118389
X127440Y-118389
X127449Y-45783
X127449Y-46799
X128075Y-118389
X128449Y-45783
X128449Y-46799
X128710Y-118389
X129449Y-45783
X129449Y-46799
X129459Y-118377
X130221Y-118389
X130449Y-45783
X130449Y-46799
X130932Y-118389
X131567Y-118389
X131577Y-45783
X131577Y-46799
X132202Y-118389
X132577Y-45783
X132577Y-46799
X133015Y-118377
X133577Y-46799
X133777Y-118389
X134488Y-118389
X134577Y-45783
X134577Y-46799
X135123Y-118389
X135577Y-45783
X135577Y-46799
X135758Y-118389
X136508Y-118377
X136577Y-45783
X136577Y-46799
X137270Y-118389
X137577Y-45783
X137577Y-46799
X137981Y-118389
X138577Y-45783
X138577Y-46799
X138594Y-44815
X138616Y-118389
X139251Y-118389
X139451Y-45783
X139451Y-46799
X139937Y-118377
X140451Y-45783
X140451Y-46799
X140699Y-118389
X141071Y-112950
X141168Y-116737
X141354Y-114518
X141368Y-115312
X141410Y-118389
X141451Y-46799
X141579Y-112379
X142045Y-118389
X142150Y-111807
X142168Y-116737
X142368Y-114262
X142368Y-115312
X142451Y-45783
X142451Y-46799
X142621Y-111775
X142680Y-118389
X143168Y-116737
X143189Y-111201
X143293Y-113712
X143302Y-118377
X143432Y-108915
X143432Y-109677
X143432Y-110439
X143451Y-45783
X143451Y-46799
X143484Y-112950
X143793Y-115237
X144168Y-116787
X144293Y-113712
X144309Y-113014
X144451Y-45783
X144451Y-46799
X144643Y-118312
X144793Y-115237
X144817Y-112379
X145071Y-110093
X145071Y-111363
X145168Y-116787
X145293Y-113712
X145451Y-45783
X145451Y-46799
X145643Y-118312
X145753Y-112347
X145793Y-115237
X145833Y-110347
X145833Y-111363
X146168Y-116787
X146293Y-113712
X146451Y-45783
X146451Y-46799
X146595Y-106283
X146595Y-110347
X146643Y-118312
X146753Y-112347
X146769Y-111347
X146793Y-115237
X147168Y-116787
X147293Y-113712
X147357Y-106537
X147357Y-110093
X147643Y-118312
X147769Y-111347
X147793Y-115237
X147865Y-106791
X147865Y-109585
X147865Y-112379
X148119Y-107553
X148119Y-109077
X148168Y-116787
X148293Y-113712
X148373Y-108315
X148643Y-118312
X148769Y-111347
X148793Y-115237
X148881Y-112379
X149168Y-116787
X149293Y-113712
X149643Y-118312
X149769Y-111347
X149793Y-115237
X149897Y-112379
X150168Y-116787
X150293Y-113712
X150643Y-118312
X150769Y-111347
X150793Y-115237
X150913Y-107807
X150913Y-108823
X150913Y-112379
X151168Y-116787
X151293Y-113712
X151421Y-105775
X151421Y-106791
X151421Y-109839
X151643Y-118312
X151793Y-115237
X151913Y-111363
X151929Y-112379
X152168Y-116787
X152293Y-113712
X152643Y-118312
X152793Y-115237
X152913Y-111363
X152945Y-110347
X152945Y-112379
X153168Y-116787
X153293Y-113712
X153643Y-118312
X153793Y-115237
X153913Y-111363
X153961Y-112379
X154088Y-104822
X154168Y-116787
X154293Y-113712
X154469Y-105775
X154469Y-106791
X154469Y-109839
X154643Y-118312
X154793Y-115237
X154913Y-111363
X154977Y-107807
X154977Y-108823
X154977Y-112379
X155104Y-105457
X155167Y-110220
X155168Y-116787
X155293Y-113712
X155485Y-107108
X155548Y-109204
X155643Y-118312
X155676Y-105965
X155739Y-108061
X155793Y-115237
X155913Y-111363
X155993Y-112379
X156057Y-106537
X156167Y-110220
X156168Y-116787
X156293Y-113712
X156485Y-107108
X156548Y-109204
X156643Y-118312
X156739Y-108061
X156793Y-115237
X156913Y-111363
X157009Y-112379
X157167Y-110220
X157168Y-116787
X157293Y-113712
X157416Y-48269
X157485Y-107108
X157548Y-109204
X157643Y-118312
X157739Y-108061
X157793Y-115237
X157913Y-111363
X158025Y-112379
X158076Y-48574
X158167Y-110220
X158168Y-116787
X158293Y-113712
X158485Y-107108
X158533Y-47761
X158548Y-109204
X158584Y-49082
X158643Y-118312
X158739Y-108061
X158793Y-115237
X158838Y-49691
X158913Y-111363
X159041Y-112523
X159167Y-110220
X159168Y-116787
X159293Y-113712
X159422Y-48688
X159485Y-107108
X159549Y-47812
X159643Y-118312
X159739Y-108061
X159793Y-115237
X159913Y-111363
X160057Y-108823
X160057Y-109839
X160057Y-112379
X160168Y-116787
X160210Y-47812
X160261Y-48574
X160413Y-46897
X160565Y-49336
X160565Y-107807
X160643Y-118312
X161023Y-49996
X161073Y-106791
X161581Y-50707
X162191Y-44408
X162343Y-51114
X163410Y-51469
X164325Y-43799
X164375Y-51520
X165188Y-51368
X166001Y-51114
X166153Y-44561
X166723Y-51641
X166763Y-50657
X167220Y-50098
X167322Y-45424
X167474Y-49336
X167627Y-46288
X167755Y-51641
X167830Y-48421
X167881Y-47304
X168169Y-44561
X168185Y-43799
X168247Y-49863
X168439Y-45831
X168439Y-48879
X168501Y-46815
X168501Y-47831
X168517Y-50879
X168755Y-51641
X169201Y-43799
X169201Y-44561
X169263Y-48847
X169279Y-49863
X169439Y-45831
X169517Y-50879
X169533Y-46815
X169533Y-47831
X169755Y-51641
X170201Y-44561
X170217Y-43799
X170279Y-47831
X170279Y-49863
X170295Y-48847
X170471Y-45831
X170471Y-46847
X170517Y-50879
X170755Y-51641
X171233Y-43799
X171279Y-49863
X171295Y-46815
X171295Y-48847
X171311Y-44783
X171311Y-47831
X171471Y-45831
X171517Y-50879
X172249Y-43799
X172279Y-49863
X172295Y-48847
X172311Y-44783
X172311Y-45799
X172311Y-47831
X172327Y-46815
X178343Y-44783
X178345Y-43799
X179343Y-44783
X179361Y-43799
X180343Y-44783
X180377Y-43799
X181343Y-44783
X181393Y-43799
X182343Y-44783
X182409Y-43799
X183343Y-44783
X183425Y-43799
X184343Y-44783
X184441Y-43799
X185343Y-44783
X185457Y-43799
X186343Y-44783
X186473Y-43799
X187343Y-44783
X187489Y-43799
X188343Y-44783
X188505Y-43799
X189343Y-44783
X189521Y-43799
X190343Y-44783
X190537Y-43799
X191343Y-44783
X191553Y-43799
X192569Y-43799
X192677Y-44799
X193585Y-43799
X193677Y-44799
X194601Y-43799
X194677Y-44799
X195617Y-43799
X195677Y-44799
X196633Y-43799
X196677Y-44799
X197649Y-43799
X197649Y-44815
X197903Y-45577
X198665Y-43799
X198665Y-44815
X198665Y-45831
X198919Y-46593
X199681Y-43799
X199681Y-44815
X199681Y-45831
X199681Y-46631
X199681Y-47355
X200697Y-43799
X200697Y-46631
X200697Y-47355
X200697Y-48117
X200951Y-48879
X201713Y-43799
X201713Y-46631
X201713Y-47355
X201713Y-48117
X201713Y-48879
X201713Y-49641
X202457Y-46707
X202457Y-48879
X202475Y-43799
X202475Y-45831
X202475Y-47355
X202475Y-48117
X202475Y-49641
X202475Y-50403
X202539Y-44815
T3
X85157Y-95903
X85957Y-97103
X88857Y-94503
X90237Y-90503
X90257Y-91103
X90660Y-91500
X91057Y-95403
X91205Y-91903
X92957Y-90603
X94532Y-98503
X94857Y-97903
X95357Y-98703
X95696Y-77977
X97057Y-97103
X97561Y-84015
X99682Y-78653
X100037Y-68682
X100126Y-67433
X109382Y-73451
X109956Y-73451
X111377Y-85423
X116433Y-44767
X116484Y-43646
X116897Y-73953
X117385Y-44767
X117385Y-45529
X117436Y-43646
X118385Y-44767
X118385Y-45529
X118452Y-43646
X119385Y-44767
X119385Y-45529
X119417Y-43646
X120385Y-44767
X120385Y-45529
X120433Y-43646
X121385Y-44767
X121385Y-45529
X121399Y-43646
X121957Y-70723
X121957Y-71485
X121957Y-72247
X121957Y-73009
X122364Y-43646
X122385Y-44767
X122385Y-45529
X122973Y-70723
X122973Y-71485
X122973Y-72247
X122973Y-73009
X123385Y-44767
X123431Y-43646
X123989Y-70723
X123989Y-71485
X123989Y-72247
X123989Y-73009
X124057Y-88003
X124057Y-88703
X124057Y-89403
X124057Y-90103
X124082Y-87328
X124385Y-44767
X124497Y-43646
X125385Y-43646
X125385Y-44767
X126377Y-43646
X126385Y-44767
X127385Y-43659
X127385Y-44767
X128385Y-43659
X128385Y-44767
X129385Y-43659
X129385Y-44767
X130385Y-43659
X130385Y-44767
X131385Y-43659
X131385Y-44767
X132385Y-43659
X132385Y-44767
X133385Y-43659
X133385Y-44767
X133577Y-45783
X134385Y-43659
X134385Y-44767
X135385Y-43659
X135385Y-44767
X136385Y-43659
X136385Y-44767
X137385Y-43659
X137385Y-44767
X138594Y-43672
X139385Y-43659
X139385Y-44767
X140385Y-43659
X140385Y-44767
X141385Y-43659
X141385Y-44767
X141451Y-45783
X142385Y-43659
X142385Y-44767
X143385Y-43659
X143385Y-44767
X143467Y-90363
X144385Y-43659
X144385Y-44767
X145385Y-43659
X145385Y-44767
X146385Y-43659
X146385Y-44767
X147357Y-43799
X147357Y-44799
X147357Y-45799
X147357Y-46799
X148357Y-43799
X148357Y-44799
X148357Y-45799
X148357Y-46799
X149357Y-43799
X149357Y-44799
X149357Y-45799
X149357Y-46799
X150357Y-43799
X150357Y-44799
X150357Y-45799
X150357Y-46799
X151218Y-68437
X151357Y-43799
X151357Y-44799
X151357Y-45799
X151357Y-46799
X151777Y-67979
X152285Y-67471
X152357Y-43799
X152357Y-44799
X152357Y-45799
X152357Y-46799
X152772Y-67033
X153357Y-44799
X153357Y-45799
X153357Y-46799
X153453Y-43767
X153534Y-66271
X153961Y-65795
X154157Y-68053
X154182Y-68953
X154182Y-69728
X154296Y-65255
X154357Y-44799
X154357Y-45799
X154357Y-46799
X154453Y-43767
X154825Y-64677
X154914Y-67294
X155231Y-70659
X155295Y-65579
X155453Y-43767
X155485Y-44815
X155485Y-45831
X155485Y-46847
X155803Y-67294
X156120Y-65579
X156453Y-43767
X156501Y-44815
X156501Y-45831
X156501Y-46847
X156565Y-67230
X156882Y-70596
X157454Y-67230
X157517Y-43799
X157517Y-44815
X157517Y-45831
X157517Y-46847
X157687Y-85447
X158533Y-43799
X158533Y-44815
X158533Y-45799
X158533Y-46815
X159345Y-85447
X159549Y-43799
X159549Y-44815
X159549Y-45831
X159549Y-46847
X160057Y-90789
X160293Y-113712
X160565Y-43799
X160565Y-44815
X160565Y-45831
X160615Y-85447
X160793Y-115237
X161073Y-112379
X161168Y-116787
X161293Y-113712
X161377Y-85447
X161581Y-43799
X161581Y-44815
X161643Y-118312
X161793Y-115237
X162139Y-85447
X162168Y-116787
X162483Y-113712
X162597Y-43799
X162643Y-118312
X162983Y-115237
X163358Y-116787
X163613Y-43799
X163737Y-113712
X163833Y-118312
X164237Y-115237
X164612Y-116787
X164737Y-113712
X165087Y-118312
X165137Y-43799
X165237Y-115237
X165612Y-116787
X165737Y-113712
X166087Y-118312
X166153Y-43799
X166153Y-112633
X166237Y-115237
X166529Y-56111
X166563Y-57356
X166612Y-116787
X166627Y-58816
X166661Y-61261
X166661Y-62214
X166661Y-63103
X166661Y-64182
X166661Y-65071
X166661Y-106791
X166691Y-60086
X166737Y-113712
X167087Y-118312
X167169Y-43799
X167169Y-44561
X167169Y-106791
X167169Y-112379
X167237Y-115237
X167516Y-57292
X167529Y-56111
X167550Y-61261
X167550Y-62214
X167550Y-63103
X167550Y-64182
X167550Y-65071
X167580Y-58753
X167612Y-116787
X167643Y-60023
X167677Y-111617
X167737Y-113712
X167931Y-108315
X167931Y-109331
X167931Y-110601
X168087Y-118312
X168237Y-115237
X168307Y-78978
X168468Y-57356
X168503Y-61261
X168503Y-62214
X168503Y-63103
X168503Y-64182
X168503Y-65071
X168529Y-56111
X168532Y-58816
X168596Y-60086
X168612Y-116787
X168674Y-113712
X168947Y-108315
X168947Y-109331
X168947Y-110601
X168947Y-111617
X168947Y-112379
X169087Y-118312
X169174Y-115237
X169392Y-61261
X169392Y-62214
X169392Y-63103
X169392Y-64182
X169392Y-65071
X169484Y-57419
X169529Y-56111
X169548Y-58880
X169549Y-116787
X169612Y-60150
X169646Y-113712
X169709Y-108315
X169709Y-109331
X169963Y-110601
X169963Y-111617
X169963Y-112379
X170024Y-118312
X170146Y-115237
X170344Y-61261
X170344Y-62214
X170344Y-63103
X170344Y-64182
X170344Y-65071
X170408Y-113712
X170500Y-57483
X170521Y-116787
X170529Y-56111
X170535Y-108315
X170535Y-109331
X170564Y-58943
X170628Y-60213
X170908Y-115237
X170979Y-111617
X170979Y-112379
X170996Y-118312
X171170Y-61261
X171170Y-62214
X171170Y-63103
X171170Y-64182
X171170Y-65071
X171170Y-113712
X171283Y-116787
X171529Y-56111
X171580Y-57483
X171644Y-58943
X171670Y-115237
X171707Y-60213
X171741Y-112379
X171758Y-118312
X171995Y-65071
X172045Y-116787
X172059Y-61261
X172059Y-62214
X172059Y-63103
X172059Y-64182
X172186Y-113712
X172313Y-56118
X172503Y-112379
X172520Y-118312
X172596Y-57546
X172660Y-59007
X172686Y-115237
X172723Y-60277
X172757Y-65135
X172821Y-62214
X172821Y-63103
X172821Y-64246
X172884Y-61261
X173061Y-116787
X173075Y-55864
X173202Y-113712
X173265Y-43799
X173295Y-48847
X173311Y-47831
X173327Y-46815
X173343Y-44783
X173343Y-45799
X173358Y-57546
X173422Y-59007
X173456Y-112379
X173485Y-60277
X173536Y-118312
X173646Y-65135
X173702Y-115237
X173710Y-61229
X173710Y-62214
X173710Y-63103
X173710Y-64246
X173803Y-55451
X174077Y-116787
X174183Y-57229
X174218Y-59039
X174218Y-113712
X174281Y-43799
X174281Y-107299
X174281Y-108188
X174281Y-108950
X174281Y-112379
X174311Y-47831
X174327Y-46815
X174343Y-44783
X174343Y-45799
X174472Y-65135
X174535Y-60309
X174535Y-61198
X174535Y-62214
X174535Y-63103
X174535Y-64246
X174552Y-118312
X174565Y-54689
X174718Y-115237
X175093Y-116787
X175234Y-112379
X175263Y-56403
X175297Y-43799
X175327Y-57864
X175327Y-46815
X175327Y-53673
X175343Y-44783
X175343Y-45799
X175361Y-61452
X175361Y-62214
X175361Y-63103
X175361Y-64246
X175361Y-65198
X175390Y-59134
X175424Y-60055
X175488Y-113712
X175568Y-118312
X175869Y-112887
X175988Y-115237
X176186Y-65198
X176250Y-60817
X176250Y-62214
X176250Y-63103
X176250Y-64309
X176313Y-43799
X176313Y-100822
X176313Y-101393
X176343Y-44783
X176343Y-45799
X176343Y-52657
X176363Y-116787
X176469Y-55578
X176504Y-113712
X176533Y-57038
X176597Y-58308
X176631Y-59578
X176838Y-118312
X176885Y-65008
X176948Y-60817
X176948Y-62214
X176948Y-63103
X176948Y-64309
X177004Y-115237
X177329Y-43799
X177343Y-44783
X177359Y-51641
X177379Y-116787
X177520Y-113712
X177647Y-62214
X177647Y-63103
X177739Y-53927
X177803Y-55387
X177837Y-59864
X177837Y-60817
X177837Y-65008
X177854Y-118312
X177867Y-56657
X177901Y-57927
X177901Y-58975
X177901Y-64309
X178020Y-115237
X178375Y-50625
X178395Y-116787
X178663Y-113712
X178870Y-118312
X178882Y-52530
X178946Y-53990
X178980Y-64627
X179010Y-55260
X179044Y-56530
X179044Y-58023
X179044Y-58975
X179044Y-59864
X179044Y-60753
X179044Y-61515
X179044Y-62214
X179044Y-63103
X179163Y-115237
X179391Y-49609
X179538Y-116787
X179552Y-63992
X179679Y-62277
X179742Y-60817
X179742Y-61515
X179869Y-113712
X180013Y-118312
X180089Y-51387
X180089Y-52466
X180089Y-49101
X180123Y-63420
X180152Y-50371
X180153Y-53927
X180216Y-55197
X180250Y-56467
X180250Y-58023
X180250Y-58975
X180369Y-115237
X180377Y-59864
X180631Y-62912
X180744Y-116787
X181076Y-113712
X181089Y-51387
X181089Y-49101
X181152Y-50371
X181168Y-52403
X181203Y-62468
X181219Y-118312
X181232Y-53863
X181296Y-55133
X181330Y-56403
X181330Y-57959
X181330Y-59039
X181330Y-59864
X181330Y-61007
X181576Y-115237
X181711Y-61960
X181951Y-116787
X182089Y-51387
X182089Y-49101
X182152Y-50371
X182219Y-61388
X182346Y-113712
X182375Y-52339
X182426Y-118312
X182439Y-53800
X182502Y-55070
X182536Y-56340
X182536Y-57896
X182536Y-59039
X182536Y-59801
X182727Y-60880
X182846Y-115237
X183089Y-51387
X183089Y-49101
X183152Y-50371
X183221Y-116787
X183581Y-52276
X183645Y-53736
X183679Y-113712
X183696Y-118312
X183708Y-51387
X183709Y-55006
X183743Y-56276
X183743Y-57832
X183743Y-59039
X183743Y-60182
X183835Y-50371
X184089Y-49101
X184179Y-115237
X184554Y-116787
X184581Y-52276
X184645Y-53736
X184695Y-56276
X184695Y-57832
X184695Y-59039
X184695Y-60055
X184708Y-51387
X184709Y-55006
X184835Y-50371
X184886Y-113712
X185029Y-118312
X185089Y-49101
X185386Y-115237
X185581Y-52276
X185645Y-53736
X185648Y-59039
X185648Y-60055
X185708Y-51387
X185709Y-55006
X185761Y-116787
X185835Y-50371
X185836Y-56276
X186089Y-49101
X186090Y-57864
X186219Y-113712
X186236Y-118312
X186581Y-52276
X186645Y-53736
X186708Y-51387
X186709Y-55006
X186719Y-115237
X186835Y-50371
X186836Y-56276
X187089Y-49101
X187090Y-57864
X187094Y-116787
X187553Y-113712
X187569Y-118312
X187645Y-53736
X187709Y-55006
X187836Y-56276
X188053Y-115237
X188089Y-49101
X188090Y-57864
X188428Y-116787
X188645Y-53736
X188696Y-113712
X188709Y-55006
X188836Y-56276
X188903Y-118312
X189089Y-49101
X189090Y-57864
X189196Y-115237
X189571Y-116787
X189645Y-53736
X189709Y-55006
X189836Y-56276
X189966Y-113712
X190046Y-118312
X190089Y-49101
X190090Y-57864
X190466Y-115237
X190645Y-53736
X190709Y-55006
X190836Y-56276
X190841Y-116787
X191089Y-49101
X191089Y-50307
X191090Y-57864
X191153Y-52212
X191236Y-113712
X191316Y-118312
X191645Y-53736
X191709Y-55006
X191736Y-115237
X191836Y-56276
X192090Y-57864
X192111Y-116787
X192423Y-49117
X192423Y-50323
X192487Y-52228
X192586Y-118312
X192633Y-112203
X192633Y-113712
X192645Y-53736
X192709Y-55006
X192836Y-56276
X193090Y-57864
X193133Y-115237
X193423Y-49117
X193423Y-50323
X193487Y-52228
X193508Y-116787
X193645Y-53736
X193709Y-55006
X193776Y-113712
X193819Y-112153
X193836Y-56276
X193983Y-118312
X194090Y-57864
X194276Y-115237
X194423Y-49117
X194645Y-53736
X194651Y-116787
X194709Y-55006
X194836Y-56276
X195046Y-111998
X195046Y-113712
X195090Y-57864
X195126Y-118312
X195300Y-110982
X195546Y-115237
X195554Y-75199
X195554Y-76311
X195554Y-77390
X195554Y-78311
X195554Y-79136
X195554Y-79898
X195617Y-80787
X195921Y-116787
X195979Y-53752
X195998Y-111998
X196170Y-56292
X196297Y-54768
X196316Y-113776
X196379Y-78311
X196379Y-79136
X196379Y-79898
X196379Y-111045
X196396Y-118312
X196424Y-57880
X196443Y-80787
X196443Y-109902
X196506Y-68151
X196506Y-69230
X196506Y-70246
X196506Y-71389
X196506Y-72532
X196570Y-73961
X196570Y-75072
X196570Y-76342
X196570Y-77358
X196697Y-105013
X196697Y-105965
X196697Y-106918
X196697Y-107680
X196697Y-108442
X196697Y-109204
X196816Y-115301
X196951Y-111998
X196979Y-53752
X197014Y-67167
X197078Y-65135
X197141Y-98282
X197141Y-99234
X197141Y-100250
X197141Y-101203
X197141Y-102282
X197141Y-103108
X197141Y-104060
X197170Y-56292
X197191Y-116851
X197205Y-78311
X197205Y-79136
X197205Y-79898
X197268Y-80787
X197268Y-111045
X197297Y-54768
X197332Y-68151
X197332Y-69230
X197332Y-70246
X197332Y-71389
X197332Y-72532
X197395Y-73961
X197395Y-75072
X197395Y-76342
X197395Y-77358
X197424Y-57880
X197459Y-113776
X197522Y-109966
X197586Y-111617
X197666Y-118376
X197776Y-106029
X197776Y-106981
X197776Y-107743
X197776Y-108505
X197776Y-109267
X197840Y-51736
X197840Y-105267
X197959Y-115301
X197967Y-53070
X197967Y-97647
X197967Y-98599
X197967Y-99615
X197967Y-100568
X197967Y-101647
X197967Y-102473
X197967Y-103425
X197967Y-104441
X197979Y-53752
X198094Y-78311
X198094Y-79136
X198094Y-79898
X198094Y-111109
X198157Y-70246
X198157Y-71389
X198157Y-72532
X198157Y-73866
X198157Y-80787
X198170Y-56292
X198221Y-66182
X198221Y-67135
X198221Y-68151
X198221Y-69230
X198221Y-75072
X198221Y-76342
X198221Y-77358
X198297Y-54768
X198334Y-116851
X198348Y-113331
X198411Y-109966
X198424Y-57880
X198602Y-110601
X198665Y-106029
X198665Y-106981
X198665Y-107743
X198665Y-108505
X198665Y-109267
X198809Y-118376
X198856Y-52943
X198856Y-96821
X198856Y-98345
X198856Y-99298
X198856Y-100377
X198856Y-101203
X198856Y-102155
X198856Y-103171
X198856Y-104124
X198856Y-104949
X198919Y-78311
X198919Y-79136
X198919Y-79898
X198983Y-53705
X198983Y-70246
X198983Y-80787
X199046Y-54784
X199046Y-69230
X199046Y-73866
X199046Y-113776
X199110Y-56279
X199110Y-57896
X199110Y-66182
X199110Y-67135
X199110Y-68151
X199110Y-71389
X199110Y-72532
X199110Y-75072
X199110Y-76342
X199110Y-77358
X199110Y-110093
X199546Y-115301
X199554Y-106092
X199554Y-107045
X199554Y-107807
X199554Y-108569
X199554Y-109331
X199618Y-94535
X199618Y-95488
X199618Y-96440
X199618Y-97393
X199618Y-98409
X199618Y-99361
X199618Y-100441
X199618Y-101266
X199618Y-102219
X199618Y-103235
X199618Y-104187
X199618Y-105267
X199808Y-70246
X199872Y-69230
X199872Y-73866
X199921Y-116851
X199935Y-66182
X199935Y-67135
X199935Y-68151
X199935Y-71389
X199935Y-72532
X199935Y-75072
X199935Y-76342
X199935Y-77358
X199935Y-78438
X199935Y-79263
X199935Y-80025
X199935Y-80883
X200396Y-118376
X200697Y-70246
X200761Y-69230
X200761Y-73866
X200761Y-79771
X200761Y-80914
X200761Y-82311
X200761Y-83454
X200761Y-85137
X200761Y-86090
X200761Y-87360
X200761Y-88280
X200761Y-89392
X200824Y-66182
X200824Y-67135
X200824Y-68151
X200824Y-71389
X200824Y-72532
X200824Y-75072
X200824Y-76342
X200824Y-77358
X200824Y-78501
X201586Y-70246
X201650Y-69230
X201650Y-73866
X201650Y-79771
X201650Y-80914
X201650Y-82311
X201713Y-66182
X201713Y-67135
X201713Y-68151
X201713Y-71389
X201713Y-72532
X201713Y-75072
X201713Y-76342
X201713Y-77358
X201713Y-78501
X201713Y-91614
X201713Y-92567
X201713Y-93583
X201713Y-94535
X201713Y-95615
X201713Y-106410
X201713Y-107362
X201713Y-108378
X201713Y-109331
X201777Y-96758
X201777Y-97710
X201777Y-98726
X201777Y-99679
X201777Y-100758
X201777Y-101584
X201777Y-102536
X201777Y-103552
X201777Y-104505
X201777Y-105584
X202031Y-84788
X202094Y-83454
X202094Y-85994
X202094Y-87264
X202094Y-88280
X202094Y-89423
X202475Y-70246
X202475Y-110442
X202475Y-111553
X202475Y-112379
X202539Y-69230
X202539Y-73866
X202539Y-79771
X202539Y-80914
X202539Y-82311
X202539Y-90757
X202539Y-91932
X202539Y-93106
X202539Y-94154
X202539Y-95456
X202539Y-96377
X202539Y-97234
X202539Y-98409
X202539Y-99583
X202539Y-100631
X202539Y-101933
X202539Y-102854
X202539Y-103838
X202539Y-105013
X202539Y-106187
X202539Y-107235
X202539Y-108537
X202539Y-109458
X202602Y-66182
X202602Y-67135
X202602Y-68151
X202602Y-71389
X202602Y-72532
X202602Y-75072
X202602Y-76342
X202602Y-77358
X202602Y-78501
X149103Y-93073
X149103Y-94073
X150103Y-93073
X150103Y-94073
T4
X72057Y-58223
X73080Y-54010
X73120Y-58207
X73126Y-56118
X73144Y-54709
X73144Y-55280
X76290Y-58420
X76760Y-57900
X77697Y-89113
X77825Y-82940
X77825Y-84248
X78427Y-89103
X79137Y-89103
X79782Y-69103
X79887Y-89113
X80257Y-69603
X80617Y-89113
X80652Y-71897
X81407Y-89113
X81457Y-63603
X81664Y-58762
X82218Y-90494
X82282Y-63203
X82657Y-57860
X83223Y-63203
X83320Y-68650
X83728Y-72373
X85020Y-73160
X85123Y-74801
X85930Y-65922
X86070Y-72190
X86530Y-71630
X86730Y-73130
X86855Y-66355
X87171Y-73953
X87426Y-71710
X87588Y-69863
X88182Y-71753
X88857Y-92203
X89050Y-66210
X89200Y-61080
X89300Y-60310
X89589Y-64511
X89635Y-74638
X90036Y-91867
X90100Y-68470
X90150Y-69900
X90171Y-71832
X90195Y-95310
X90407Y-66403
X90696Y-74391
X90740Y-71590
X90858Y-70832
X90966Y-66710
X91160Y-77809
X91160Y-96211
X91486Y-69590
X91535Y-70396
X91661Y-66596
X91730Y-73925
X91857Y-94878
X92123Y-71455
X92152Y-85948
X92171Y-72242
X92450Y-73190
X92469Y-68615
X92480Y-74500
X92494Y-66160
X92806Y-85697
X92857Y-78403
X93140Y-77670
X93167Y-59483
X93207Y-89828
X93257Y-98503
X93332Y-87353
X93382Y-74428
X93385Y-91325
X93400Y-65055
X93590Y-63280
X93957Y-98688
X94145Y-87365
X94580Y-59190
X94679Y-65291
X94804Y-87600
X94827Y-76620
X94842Y-89026
X95055Y-74320
X95121Y-85291
X95132Y-90750
X95214Y-79406
X95402Y-65057
X95468Y-58882
X95582Y-74797
X95837Y-59293
X95860Y-85179
X96005Y-90081
X96012Y-98748
X96120Y-58550
X96169Y-93431
X96187Y-63774
X96291Y-64732
X96390Y-87433
X96607Y-59383
X96657Y-98603
X96730Y-58470
X96944Y-97816
X96965Y-61722
X96973Y-96287
X97041Y-65089
X97083Y-87338
X97126Y-92570
X97147Y-100033
X97207Y-58978
X97307Y-74905
X97357Y-93528
X97482Y-86678
X97487Y-98893
X97868Y-61288
X98105Y-93932
X98134Y-86400
X98757Y-86067
X98980Y-61620
X99375Y-85671
X99644Y-72504
X99732Y-84503
X99907Y-86206
X100182Y-78453
X100400Y-62110
X100460Y-69260
X100497Y-69959
X100782Y-67003
X102280Y-75527
X102520Y-58740
X102632Y-87362
X102882Y-92603
X103063Y-91172
X103070Y-61660
X103070Y-63230
X103359Y-89049
X103431Y-70906
X103532Y-89728
X103758Y-91026
X103831Y-66033
X103887Y-90283
X103907Y-84003
X103920Y-65370
X104057Y-85078
X104122Y-82428
X104180Y-60020
X104282Y-68978
X104673Y-84683
X104729Y-91483
X105482Y-84828
X105857Y-94213
X106296Y-84941
X106497Y-91883
X106857Y-91233
X107057Y-75503
X107240Y-92175
X107417Y-91377
X107691Y-84790
X107832Y-89678
X108007Y-62078
X108057Y-88028
X108132Y-91153
X108632Y-73128
X108636Y-64477
X109321Y-74850
X109532Y-57578
X109982Y-99503
X110357Y-63428
X111257Y-57903
X111482Y-82278
X113257Y-91778
X113447Y-87813
X113532Y-85703
X113757Y-61278
X114867Y-95753
X115357Y-84203
X115431Y-99553
X115457Y-97503
X116327Y-83013
X116357Y-98603
X117782Y-112928
X119901Y-105025
X120078Y-100052
X120681Y-105421
X121157Y-75303
X121703Y-105521
X121757Y-82828
X122275Y-104962
X122832Y-68178
X123007Y-105023
X123937Y-105023
X124007Y-66587
X125507Y-105023
X125539Y-74403
X126245Y-68526
X126247Y-105013
X126354Y-74034
X126838Y-72228
X126957Y-105025
X127787Y-63443
X128057Y-105013
X128289Y-77847
X128339Y-73088
X128407Y-67328
X128432Y-72003
X129117Y-104003
X129182Y-67653
X129557Y-82762
X129831Y-106791
X131582Y-74678
X131787Y-70853
X133387Y-112125
X133641Y-102981
X133837Y-71028
X134917Y-68093
X135617Y-67893
X136882Y-74253
X137737Y-70923
X138957Y-74403
X139282Y-81003
X141020Y-93790
X142477Y-66943
X144967Y-100833
X146837Y-92073
X147247Y-94423
X147277Y-89980
X147357Y-93703
X147577Y-91423
X148452Y-97398
X148957Y-89623
X149135Y-85337
X149157Y-83213
X149907Y-90403
X150177Y-82293
X150233Y-96277
X150737Y-79533
X150757Y-100303
X150777Y-75553
X150927Y-103193
X151107Y-83283
X151282Y-91153
X151421Y-79613
X151675Y-75803
X151747Y-78511
X151751Y-89596
X151791Y-76619
X151807Y-77603
X152197Y-86223
X152197Y-86753
X152287Y-87573
X153117Y-86083
X153207Y-79393
X153657Y-78913
X153657Y-94493
X154297Y-78613
X157432Y-90803
X157517Y-93483
X157637Y-71128
X157687Y-79603
X158207Y-78513
X158237Y-70473
X158400Y-85415
X158577Y-77603
X158617Y-90863
X159052Y-70498
X159197Y-76413
X159317Y-90943
X159397Y-77223
X160717Y-90853
X161407Y-91128
X162107Y-90478
X162757Y-86803
X163557Y-82353
X164167Y-96813
X164182Y-82478
X166500Y-77803
X166777Y-76573
X166915Y-96885
X168357Y-76303
X169396Y-76316
X169437Y-74583
X169457Y-79233
X169857Y-104578
X170061Y-75438
X170582Y-77603
X170657Y-78953
X170707Y-78303
X173357Y-106403
X173467Y-92633
X173727Y-93573
X174052Y-98493
X174697Y-93803
X174757Y-101113
X175697Y-79683
X176067Y-93773
X176821Y-76374
X176957Y-77703
X177044Y-77016
X177057Y-93793
X177427Y-80643
X177797Y-93673
X178091Y-77835
X178097Y-82513
X178517Y-93643
X178853Y-77835
X178957Y-94871
X178967Y-82223
X179107Y-102753
X179337Y-93793
X179615Y-77835
X179967Y-82403
X180277Y-93603
X180557Y-92643
X180725Y-95521
X180885Y-111426
X180907Y-90613
X180967Y-84323
X180997Y-85263
X181057Y-86333
X181227Y-87323
X181247Y-83223
X181647Y-77835
X182037Y-87633
X182097Y-82863
X182171Y-92867
X182432Y-77835
X182757Y-92903
X183171Y-77835
X183397Y-92823
X184557Y-79778
X184697Y-80443
X184737Y-90943
X184757Y-78993
X185203Y-99806
X185775Y-110791
X185857Y-89303
X186277Y-94843
X186357Y-96090
X186557Y-87703
X186557Y-95503
X187257Y-88403
X187357Y-99803
X187426Y-100695
X188237Y-94633
X188382Y-98153
X188442Y-111109
X188557Y-93703
X188657Y-83603
X188657Y-85003
X188657Y-84303
X189432Y-100453
X191167Y-85563
X191236Y-110728
X191407Y-98228
X192506Y-103616
X195490Y-105330
X111660Y-80615
X111696Y-77582
X113037Y-79116
X114195Y-77500
X114195Y-80569
X136337Y-90013
X136373Y-86980
X137714Y-88514
X138872Y-86898
X138872Y-89967
X143500Y-79421
X143535Y-76388
X144877Y-77922
X146035Y-76307
X146035Y-79375
X113967Y-68282
X113967Y-71350
X115126Y-69735
X116467Y-71269
X116502Y-68236
X123960Y-99802
X123996Y-96769
X125337Y-98303
X126495Y-96687
X126495Y-99756
X127210Y-90752
X127246Y-87719
X128587Y-89253
X129745Y-87637
X129745Y-90706
T5
X74316Y-97917
X74570Y-98738
X81580Y-73490
X81687Y-66389
X82107Y-68978
X82610Y-71897
X84200Y-68940
X85031Y-93263
X88560Y-88595
X90190Y-61850
X90827Y-86773
X90937Y-83290
X95357Y-56303
X95542Y-82956
X97057Y-51003
X98146Y-74384
X98382Y-113653
X98645Y-51115
X98907Y-90923
X98977Y-90003
X99701Y-65933
X99777Y-89073
X99887Y-90083
X99957Y-91103
X100698Y-70828
X100698Y-75637
X100732Y-84486
X100807Y-89103
X101741Y-94128
X102307Y-79343
X103230Y-76600
X104657Y-72678
X105132Y-65353
X105577Y-74902
X105627Y-91421
X106797Y-72343
X106907Y-93893
X107170Y-71180
X108257Y-49523
X109237Y-91523
X109765Y-101203
X110276Y-57384
X111091Y-64084
X111548Y-67370
X112457Y-114803
X112813Y-47101
X112813Y-62849
X114207Y-116128
X114401Y-48815
X118732Y-93855
X118757Y-77133
X118932Y-113753
X119482Y-75137
X119757Y-71078
X119847Y-79513
X120732Y-80978
X121007Y-93923
X121357Y-116753
X122613Y-83947
X124243Y-116189
X125476Y-65203
X126529Y-114603
X126839Y-74732
X126884Y-110103
X127965Y-81949
X128497Y-77023
X128577Y-76113
X129983Y-73778
X130907Y-62428
X132587Y-86743
X132587Y-87593
X132587Y-88473
X132600Y-89442
X132668Y-90921
X134232Y-106653
X134441Y-100695
X136435Y-101203
X136689Y-106791
X137457Y-84403
X138067Y-97213
X139176Y-72604
X139307Y-82353
X139483Y-116443
X140057Y-67053
X140088Y-97933
X140607Y-96153
X141282Y-69828
X141886Y-73874
X144192Y-96631
X144494Y-67746
X145217Y-91094
X146301Y-95446
X147212Y-97603
X152357Y-71403
X152732Y-95428
X152807Y-78253
X153682Y-95403
X156107Y-83578
X156782Y-89653
X157007Y-102903
X157557Y-91603
X157657Y-92603
X158458Y-67170
X159267Y-67643
X159689Y-69415
X159715Y-68462
X160082Y-61053
X163359Y-98663
X164121Y-99171
X165137Y-99171
X166153Y-99171
X166915Y-98663
X168252Y-73200
X169807Y-96603
X171682Y-107203
X172479Y-74084
X173494Y-105406
X178117Y-65993
X186487Y-98253
X190957Y-102728
X196017Y-67133
X201677Y-62793
T6
X161630Y-47735
X162333Y-46038
X162333Y-49433
X164030Y-45335
X164030Y-50136
X165727Y-46038
X165727Y-49433
X166430Y-47735
X161627Y-109550
X162330Y-107853
X162330Y-111247
X164027Y-107150
X164027Y-111950
X165724Y-107853
X165724Y-111247
X166427Y-109550
X78927Y-109550
X79630Y-107853
X79630Y-111247
X81327Y-107150
X81327Y-111950
X83024Y-107853
X83024Y-111247
X83727Y-109550
X78927Y-47780
X79630Y-46083
X79630Y-49477
X81327Y-45380
X81327Y-50180
X83024Y-46083
X83024Y-49477
X83727Y-47780
T7
X88075Y-99550
X130057Y-97003
X135282Y-111878
X109474Y-84328
X132207Y-68834
X112732Y-97753
T8
X91276Y-79303
X111706Y-65583
X114982Y-52528
X157157Y-105503
X168867Y-92503
X172827Y-90113
X174437Y-80783
T9
X75567Y-88923
X78332Y-76253
X82889Y-88263
X87733Y-60212
X89832Y-52628
X91110Y-100255
X104143Y-57253
X105918Y-80129
X106902Y-68203
X113906Y-73580
X123557Y-80003
X155657Y-95503
X161647Y-80923
X126569Y-116189
X129069Y-116189
X169057Y-69503
X110276Y-58928
X112776Y-58928
T10
X196088Y-82550
X196088Y-85090
X196088Y-87630
X196088Y-90170
X196088Y-92710
X198628Y-82550
X198628Y-85090
X198628Y-87630
X198628Y-90170
X198628Y-92710
T11
X75819Y-79558
X75819Y-83058
X75692Y-94417
X75692Y-97917
X115107Y-110078
X115107Y-113078
X75819Y-64953
X75819Y-68453
X187028Y-59460
X187028Y-62460
X190528Y-59460
X190528Y-62460
X194028Y-59460
X194028Y-62460
X197528Y-59460
X197528Y-62460
T12
X154178Y-90678
X119255Y-51927
X156755Y-51927
T13
X123444Y-61468
X83082Y-103703
X187567Y-71703
X81382Y-54953
X152957Y-108204
X180547Y-71403
X90350Y-57150
X139517Y-108204
X146217Y-108204
T14
X84825Y-81403
T15
X164020Y-47780
X164027Y-109550
X81327Y-109550
X81320Y-47780
T0
M30
