G04 #@! TF.GenerationSoftware,KiCad,Pcbnew,(5.1.6-0-10_14)*
G04 #@! TF.CreationDate,2020-09-03T15:34:08-04:00*
G04 #@! TF.ProjectId,Pufferfish-Interface-2,50756666-6572-4666-9973-682d496e7465,rev?*
G04 #@! TF.SameCoordinates,Original*
G04 #@! TF.FileFunction,Paste,Bot*
G04 #@! TF.FilePolarity,Positive*
%FSLAX46Y46*%
G04 Gerber Fmt 4.6, Leading zero omitted, Abs format (unit mm)*
G04 Created by KiCad (PCBNEW (5.1.6-0-10_14)) date 2020-09-03 15:34:08*
%MOMM*%
%LPD*%
G01*
G04 APERTURE LIST*
%ADD10R,1.400000X1.000000*%
%ADD11R,1.000000X1.400000*%
%ADD12R,1.000000X5.500000*%
%ADD13R,1.600000X3.000000*%
G04 APERTURE END LIST*
G36*
G01*
X56137500Y-26456250D02*
X56137500Y-25543750D01*
G75*
G02*
X56381250Y-25300000I243750J0D01*
G01*
X56868750Y-25300000D01*
G75*
G02*
X57112500Y-25543750I0J-243750D01*
G01*
X57112500Y-26456250D01*
G75*
G02*
X56868750Y-26700000I-243750J0D01*
G01*
X56381250Y-26700000D01*
G75*
G02*
X56137500Y-26456250I0J243750D01*
G01*
G37*
G36*
G01*
X54262500Y-26456250D02*
X54262500Y-25543750D01*
G75*
G02*
X54506250Y-25300000I243750J0D01*
G01*
X54993750Y-25300000D01*
G75*
G02*
X55237500Y-25543750I0J-243750D01*
G01*
X55237500Y-26456250D01*
G75*
G02*
X54993750Y-26700000I-243750J0D01*
G01*
X54506250Y-26700000D01*
G75*
G02*
X54262500Y-26456250I0J243750D01*
G01*
G37*
D10*
X20376060Y-33258760D03*
X18176060Y-32308760D03*
X18176060Y-34208760D03*
D11*
X12070120Y-49355100D03*
X13020120Y-47155100D03*
X11120120Y-47155100D03*
G36*
G01*
X13987600Y-33307970D02*
X13987600Y-34220470D01*
G75*
G02*
X13743850Y-34464220I-243750J0D01*
G01*
X13256350Y-34464220D01*
G75*
G02*
X13012600Y-34220470I0J243750D01*
G01*
X13012600Y-33307970D01*
G75*
G02*
X13256350Y-33064220I243750J0D01*
G01*
X13743850Y-33064220D01*
G75*
G02*
X13987600Y-33307970I0J-243750D01*
G01*
G37*
G36*
G01*
X15862600Y-33307970D02*
X15862600Y-34220470D01*
G75*
G02*
X15618850Y-34464220I-243750J0D01*
G01*
X15131350Y-34464220D01*
G75*
G02*
X14887600Y-34220470I0J243750D01*
G01*
X14887600Y-33307970D01*
G75*
G02*
X15131350Y-33064220I243750J0D01*
G01*
X15618850Y-33064220D01*
G75*
G02*
X15862600Y-33307970I0J-243750D01*
G01*
G37*
G36*
G01*
X17574680Y-49191230D02*
X17574680Y-48278730D01*
G75*
G02*
X17818430Y-48034980I243750J0D01*
G01*
X18305930Y-48034980D01*
G75*
G02*
X18549680Y-48278730I0J-243750D01*
G01*
X18549680Y-49191230D01*
G75*
G02*
X18305930Y-49434980I-243750J0D01*
G01*
X17818430Y-49434980D01*
G75*
G02*
X17574680Y-49191230I0J243750D01*
G01*
G37*
G36*
G01*
X15699680Y-49191230D02*
X15699680Y-48278730D01*
G75*
G02*
X15943430Y-48034980I243750J0D01*
G01*
X16430930Y-48034980D01*
G75*
G02*
X16674680Y-48278730I0J-243750D01*
G01*
X16674680Y-49191230D01*
G75*
G02*
X16430930Y-49434980I-243750J0D01*
G01*
X15943430Y-49434980D01*
G75*
G02*
X15699680Y-49191230I0J243750D01*
G01*
G37*
D12*
X-4573780Y-4645660D03*
X-2573780Y-4645660D03*
X-6573780Y-4645660D03*
X-573780Y-4645660D03*
D13*
X-8973780Y-6895660D03*
X1826220Y-6895660D03*
M02*
