G04 #@! TF.GenerationSoftware,KiCad,Pcbnew,(5.1.6-0-10_14)*
G04 #@! TF.CreationDate,2020-09-03T15:34:08-04:00*
G04 #@! TF.ProjectId,Pufferfish-Interface-2,50756666-6572-4666-9973-682d496e7465,rev?*
G04 #@! TF.SameCoordinates,Original*
G04 #@! TF.FileFunction,Soldermask,Bot*
G04 #@! TF.FilePolarity,Negative*
%FSLAX46Y46*%
G04 Gerber Fmt 4.6, Leading zero omitted, Abs format (unit mm)*
G04 Created by KiCad (PCBNEW (5.1.6-0-10_14)) date 2020-09-03 15:34:08*
%MOMM*%
%LPD*%
G01*
G04 APERTURE LIST*
%ADD10C,6.553200*%
%ADD11O,1.800000X1.800000*%
%ADD12R,1.800000X1.800000*%
%ADD13O,2.300000X2.300000*%
%ADD14R,2.300000X2.300000*%
%ADD15R,2.100000X2.100000*%
%ADD16C,2.100000*%
%ADD17C,1.110000*%
%ADD18R,1.400000X1.400000*%
%ADD19C,1.400000*%
%ADD20C,1.825000*%
%ADD21R,1.825000X1.825000*%
%ADD22R,1.500000X1.100000*%
%ADD23R,1.100000X1.500000*%
%ADD24R,1.100000X5.600000*%
%ADD25R,1.700000X3.100000*%
%ADD26C,1.700000*%
G04 APERTURE END LIST*
D10*
X75500000Y-51250000D03*
X76000000Y750000D03*
X-16500000Y-51500000D03*
X-16750000Y-750000D03*
D11*
X3020000Y1500000D03*
X5560000Y1500000D03*
X8100000Y1500000D03*
X10640000Y1500000D03*
X13180000Y1500000D03*
X15720000Y1500000D03*
X18260000Y1500000D03*
X20800000Y1500000D03*
X23340000Y1500000D03*
X25880000Y1500000D03*
X28420000Y1500000D03*
X30960000Y1500000D03*
D12*
X33500000Y1500000D03*
D13*
X645380Y-51745980D03*
D14*
X-9514620Y-51745980D03*
D15*
X-6370000Y-39370000D03*
D16*
X130000Y-39370000D03*
D17*
X37050000Y-2100000D03*
X38950000Y-2100000D03*
G36*
G01*
X56087500Y-26481250D02*
X56087500Y-25518750D01*
G75*
G02*
X56356250Y-25250000I268750J0D01*
G01*
X56893750Y-25250000D01*
G75*
G02*
X57162500Y-25518750I0J-268750D01*
G01*
X57162500Y-26481250D01*
G75*
G02*
X56893750Y-26750000I-268750J0D01*
G01*
X56356250Y-26750000D01*
G75*
G02*
X56087500Y-26481250I0J268750D01*
G01*
G37*
G36*
G01*
X54212500Y-26481250D02*
X54212500Y-25518750D01*
G75*
G02*
X54481250Y-25250000I268750J0D01*
G01*
X55018750Y-25250000D01*
G75*
G02*
X55287500Y-25518750I0J-268750D01*
G01*
X55287500Y-26481250D01*
G75*
G02*
X55018750Y-26750000I-268750J0D01*
G01*
X54481250Y-26750000D01*
G75*
G02*
X54212500Y-26481250I0J268750D01*
G01*
G37*
D18*
X6630000Y-53920000D03*
D19*
X6630000Y-51380000D03*
X5360000Y-52650000D03*
D20*
X58453500Y-44409840D03*
X58453500Y-41869840D03*
X55913500Y-44409840D03*
X55913500Y-41869840D03*
X48293500Y-41869840D03*
X48293500Y-44409840D03*
X50833500Y-41869840D03*
X50833500Y-44409840D03*
X53373500Y-41869840D03*
X53373500Y-44409840D03*
X40673500Y-41869840D03*
X35593500Y-44409840D03*
X38133500Y-41869840D03*
X40673500Y-44409840D03*
D21*
X35593500Y-41869840D03*
D20*
X43213500Y-41869840D03*
X43213500Y-44409840D03*
X45753500Y-41869840D03*
X45753500Y-44409840D03*
X38133500Y-44409840D03*
D22*
X20376060Y-33258760D03*
X18176060Y-32308760D03*
X18176060Y-34208760D03*
D23*
X12070120Y-49355100D03*
X13020120Y-47155100D03*
X11120120Y-47155100D03*
G36*
G01*
X14037600Y-33282970D02*
X14037600Y-34245470D01*
G75*
G02*
X13768850Y-34514220I-268750J0D01*
G01*
X13231350Y-34514220D01*
G75*
G02*
X12962600Y-34245470I0J268750D01*
G01*
X12962600Y-33282970D01*
G75*
G02*
X13231350Y-33014220I268750J0D01*
G01*
X13768850Y-33014220D01*
G75*
G02*
X14037600Y-33282970I0J-268750D01*
G01*
G37*
G36*
G01*
X15912600Y-33282970D02*
X15912600Y-34245470D01*
G75*
G02*
X15643850Y-34514220I-268750J0D01*
G01*
X15106350Y-34514220D01*
G75*
G02*
X14837600Y-34245470I0J268750D01*
G01*
X14837600Y-33282970D01*
G75*
G02*
X15106350Y-33014220I268750J0D01*
G01*
X15643850Y-33014220D01*
G75*
G02*
X15912600Y-33282970I0J-268750D01*
G01*
G37*
G36*
G01*
X17524680Y-49216230D02*
X17524680Y-48253730D01*
G75*
G02*
X17793430Y-47984980I268750J0D01*
G01*
X18330930Y-47984980D01*
G75*
G02*
X18599680Y-48253730I0J-268750D01*
G01*
X18599680Y-49216230D01*
G75*
G02*
X18330930Y-49484980I-268750J0D01*
G01*
X17793430Y-49484980D01*
G75*
G02*
X17524680Y-49216230I0J268750D01*
G01*
G37*
G36*
G01*
X15649680Y-49216230D02*
X15649680Y-48253730D01*
G75*
G02*
X15918430Y-47984980I268750J0D01*
G01*
X16455930Y-47984980D01*
G75*
G02*
X16724680Y-48253730I0J-268750D01*
G01*
X16724680Y-49216230D01*
G75*
G02*
X16455930Y-49484980I-268750J0D01*
G01*
X15918430Y-49484980D01*
G75*
G02*
X15649680Y-49216230I0J268750D01*
G01*
G37*
D13*
X1550000Y-32130000D03*
D14*
X-8610000Y-32130000D03*
D13*
X28702000Y-53594000D03*
D14*
X18542000Y-53594000D03*
D24*
X-4573780Y-4645660D03*
X-2573780Y-4645660D03*
X-6573780Y-4645660D03*
X-573780Y-4645660D03*
D25*
X-8973780Y-6895660D03*
X1826220Y-6895660D03*
D26*
X11102000Y-44770000D03*
X11102000Y-42270000D03*
X8502000Y-39370000D03*
X23502000Y-39370000D03*
M02*
