  0
SECTION
  2
HEADER
  9
$ANGBASE
  50
0.0
  9
$ANGDIR
  70
1
  9
$MEASUREMENT
  70
0
  0
ENDSEC
  0
SECTION
  2
TABLES
  0
TABLE
  2
LTYPE
  70
4
  0
LTYPE
  5
40F
  2
CONTINUOUS
  70
0
  3
Solid line
  72
65
  73
0
  40
0.0
  0
LTYPE
  5
410
  2
DASHDOT
 70
0
  3
Dash Dot ____ _ ____ _
 72
65
 73
4
 40
2.0
 49
1.25
 49
-0.25
 49
0.25
 49
-0.25
  0
LTYPE
  5
411
  2
DASHED
 70
0
  3
Dashed __ __ __ __ __
 72
65
 73
2
 40
0.75
 49
0.5
 49
-0.25
  0
LTYPE
  5
43B
  2
DOTTED
 70
0
  3
Dotted .  .  .  .
 72
65
 73
2
 40
0.2
 49
0.0
 49
-0.2
  0
ENDTAB
  0
TABLE
  2
STYLE
  70
4
  0
STYLE
  2
KICAD
  70
0
  40
0
  41
1
  42
1
  50
0
  71
0
  3
isocp.shx
  0
STYLE
  2
KICADB
  70
0
  40
0
  41
1
  42
1
  50
0
  71
0
  3
isocp.shx
  0
STYLE
  2
KICADI
  70
0
  40
0
  41
1
  42
1
  50
15
  71
0
  3
isocp.shx
  0
STYLE
  2
KICADBI
  70
0
  40
0
  41
1
  42
1
  50
15
  71
0
  3
isocp.shx
  0
ENDTAB
  0
TABLE
  2
LAYER
  70
1
  0
LAYER
  2
BLACK
  70
0
  62
7
  6
CONTINUOUS
  0
ENDTAB
  0
ENDSEC
  0
SECTION
  2
ENTITIES
0
LINE
8
BLACK
6
CONTINUOUS
10
2.88596
20
-1.98596
11
2.81404
21
-1.98596
0
LINE
8
BLACK
6
CONTINUOUS
10
2.81404
20
-1.98596
11
2.81404
21
-1.91404
0
LINE
8
BLACK
6
CONTINUOUS
10
2.81404
20
-1.91404
11
2.88596
21
-1.91404
0
LINE
8
BLACK
6
CONTINUOUS
10
2.88596
20
-1.91404
11
2.88596
21
-1.98596
0
LINE
8
BLACK
6
CONTINUOUS
10
2.75702
20
-1.91473
11
2.76049
21
-1.91542
0
LINE
8
BLACK
6
CONTINUOUS
10
2.76049
20
-1.91542
11
2.7632
21
-1.91654
0
LINE
8
BLACK
6
CONTINUOUS
10
2.7632
20
-1.91654
11
2.76704
21
-1.91813
0
LINE
8
BLACK
6
CONTINUOUS
10
2.76704
20
-1.91813
11
2.77293
21
-1.92206
0
LINE
8
BLACK
6
CONTINUOUS
10
2.77293
20
-1.92206
11
2.77794
21
-1.92707
0
LINE
8
BLACK
6
CONTINUOUS
10
2.77794
20
-1.92707
11
2.78187
21
-1.93296
0
LINE
8
BLACK
6
CONTINUOUS
10
2.78187
20
-1.93296
11
2.78458
21
-1.93951
0
LINE
8
BLACK
6
CONTINUOUS
10
2.78458
20
-1.93951
11
2.78596
21
-1.94646
0
LINE
8
BLACK
6
CONTINUOUS
10
2.78596
20
-1.94646
11
2.78596
21
-1.95354
0
LINE
8
BLACK
6
CONTINUOUS
10
2.78596
20
-1.95354
11
2.78458
21
-1.96049
0
LINE
8
BLACK
6
CONTINUOUS
10
2.78458
20
-1.96049
11
2.78187
21
-1.96704
0
LINE
8
BLACK
6
CONTINUOUS
10
2.78187
20
-1.96704
11
2.77794
21
-1.97293
0
LINE
8
BLACK
6
CONTINUOUS
10
2.77794
20
-1.97293
11
2.77293
21
-1.97794
0
LINE
8
BLACK
6
CONTINUOUS
10
2.77293
20
-1.97794
11
2.76704
21
-1.98187
0
LINE
8
BLACK
6
CONTINUOUS
10
2.76704
20
-1.98187
11
2.7632
21
-1.98346
0
LINE
8
BLACK
6
CONTINUOUS
10
2.7632
20
-1.98346
11
2.76049
21
-1.98458
0
LINE
8
BLACK
6
CONTINUOUS
10
2.76049
20
-1.98458
11
2.75702
21
-1.98527
0
LINE
8
BLACK
6
CONTINUOUS
10
2.75702
20
-1.98527
11
2.75354
21
-1.98596
0
LINE
8
BLACK
6
CONTINUOUS
10
2.75354
20
-1.98596
11
2.74646
21
-1.98596
0
LINE
8
BLACK
6
CONTINUOUS
10
2.74646
20
-1.98596
11
2.74298
21
-1.98527
0
LINE
8
BLACK
6
CONTINUOUS
10
2.74298
20
-1.98527
11
2.73951
21
-1.98458
0
LINE
8
BLACK
6
CONTINUOUS
10
2.73951
20
-1.98458
11
2.7368
21
-1.98346
0
LINE
8
BLACK
6
CONTINUOUS
10
2.7368
20
-1.98346
11
2.73296
21
-1.98187
0
LINE
8
BLACK
6
CONTINUOUS
10
2.73296
20
-1.98187
11
2.72707
21
-1.97794
0
LINE
8
BLACK
6
CONTINUOUS
10
2.72707
20
-1.97794
11
2.72206
21
-1.97293
0
LINE
8
BLACK
6
CONTINUOUS
10
2.72206
20
-1.97293
11
2.71813
21
-1.96704
0
LINE
8
BLACK
6
CONTINUOUS
10
2.71813
20
-1.96704
11
2.71542
21
-1.96049
0
LINE
8
BLACK
6
CONTINUOUS
10
2.71542
20
-1.96049
11
2.71404
21
-1.95354
0
LINE
8
BLACK
6
CONTINUOUS
10
2.71404
20
-1.95354
11
2.71404
21
-1.94646
0
LINE
8
BLACK
6
CONTINUOUS
10
2.71404
20
-1.94646
11
2.71542
21
-1.93951
0
LINE
8
BLACK
6
CONTINUOUS
10
2.71542
20
-1.93951
11
2.71813
21
-1.93296
0
LINE
8
BLACK
6
CONTINUOUS
10
2.71813
20
-1.93296
11
2.72206
21
-1.92707
0
LINE
8
BLACK
6
CONTINUOUS
10
2.72206
20
-1.92707
11
2.72707
21
-1.92206
0
LINE
8
BLACK
6
CONTINUOUS
10
2.72707
20
-1.92206
11
2.73296
21
-1.91813
0
LINE
8
BLACK
6
CONTINUOUS
10
2.73296
20
-1.91813
11
2.7368
21
-1.91654
0
LINE
8
BLACK
6
CONTINUOUS
10
2.7368
20
-1.91654
11
2.73951
21
-1.91542
0
LINE
8
BLACK
6
CONTINUOUS
10
2.73951
20
-1.91542
11
2.74298
21
-1.91473
0
LINE
8
BLACK
6
CONTINUOUS
10
2.74298
20
-1.91473
11
2.74646
21
-1.91404
0
LINE
8
BLACK
6
CONTINUOUS
10
2.74646
20
-1.91404
11
2.75354
21
-1.91404
0
LINE
8
BLACK
6
CONTINUOUS
10
2.75354
20
-1.91404
11
2.75702
21
-1.91473
0
LINE
8
BLACK
6
CONTINUOUS
10
2.65702
20
-1.91473
11
2.66049
21
-1.91542
0
LINE
8
BLACK
6
CONTINUOUS
10
2.66049
20
-1.91542
11
2.6632
21
-1.91654
0
LINE
8
BLACK
6
CONTINUOUS
10
2.6632
20
-1.91654
11
2.66704
21
-1.91813
0
LINE
8
BLACK
6
CONTINUOUS
10
2.66704
20
-1.91813
11
2.67293
21
-1.92206
0
LINE
8
BLACK
6
CONTINUOUS
10
2.67293
20
-1.92206
11
2.67794
21
-1.92707
0
LINE
8
BLACK
6
CONTINUOUS
10
2.67794
20
-1.92707
11
2.68187
21
-1.93296
0
LINE
8
BLACK
6
CONTINUOUS
10
2.68187
20
-1.93296
11
2.68458
21
-1.93951
0
LINE
8
BLACK
6
CONTINUOUS
10
2.68458
20
-1.93951
11
2.68596
21
-1.94646
0
LINE
8
BLACK
6
CONTINUOUS
10
2.68596
20
-1.94646
11
2.68596
21
-1.95354
0
LINE
8
BLACK
6
CONTINUOUS
10
2.68596
20
-1.95354
11
2.68458
21
-1.96049
0
LINE
8
BLACK
6
CONTINUOUS
10
2.68458
20
-1.96049
11
2.68187
21
-1.96704
0
LINE
8
BLACK
6
CONTINUOUS
10
2.68187
20
-1.96704
11
2.67794
21
-1.97293
0
LINE
8
BLACK
6
CONTINUOUS
10
2.67794
20
-1.97293
11
2.67293
21
-1.97794
0
LINE
8
BLACK
6
CONTINUOUS
10
2.67293
20
-1.97794
11
2.66704
21
-1.98187
0
LINE
8
BLACK
6
CONTINUOUS
10
2.66704
20
-1.98187
11
2.6632
21
-1.98346
0
LINE
8
BLACK
6
CONTINUOUS
10
2.6632
20
-1.98346
11
2.66049
21
-1.98458
0
LINE
8
BLACK
6
CONTINUOUS
10
2.66049
20
-1.98458
11
2.65702
21
-1.98527
0
LINE
8
BLACK
6
CONTINUOUS
10
2.65702
20
-1.98527
11
2.65354
21
-1.98596
0
LINE
8
BLACK
6
CONTINUOUS
10
2.65354
20
-1.98596
11
2.64646
21
-1.98596
0
LINE
8
BLACK
6
CONTINUOUS
10
2.64646
20
-1.98596
11
2.64298
21
-1.98527
0
LINE
8
BLACK
6
CONTINUOUS
10
2.64298
20
-1.98527
11
2.63951
21
-1.98458
0
LINE
8
BLACK
6
CONTINUOUS
10
2.63951
20
-1.98458
11
2.6368
21
-1.98346
0
LINE
8
BLACK
6
CONTINUOUS
10
2.6368
20
-1.98346
11
2.63296
21
-1.98187
0
LINE
8
BLACK
6
CONTINUOUS
10
2.63296
20
-1.98187
11
2.62707
21
-1.97794
0
LINE
8
BLACK
6
CONTINUOUS
10
2.62707
20
-1.97794
11
2.62206
21
-1.97293
0
LINE
8
BLACK
6
CONTINUOUS
10
2.62206
20
-1.97293
11
2.61813
21
-1.96704
0
LINE
8
BLACK
6
CONTINUOUS
10
2.61813
20
-1.96704
11
2.61542
21
-1.96049
0
LINE
8
BLACK
6
CONTINUOUS
10
2.61542
20
-1.96049
11
2.61404
21
-1.95354
0
LINE
8
BLACK
6
CONTINUOUS
10
2.61404
20
-1.95354
11
2.61404
21
-1.94646
0
LINE
8
BLACK
6
CONTINUOUS
10
2.61404
20
-1.94646
11
2.61542
21
-1.93951
0
LINE
8
BLACK
6
CONTINUOUS
10
2.61542
20
-1.93951
11
2.61813
21
-1.93296
0
LINE
8
BLACK
6
CONTINUOUS
10
2.61813
20
-1.93296
11
2.62206
21
-1.92707
0
LINE
8
BLACK
6
CONTINUOUS
10
2.62206
20
-1.92707
11
2.62707
21
-1.92206
0
LINE
8
BLACK
6
CONTINUOUS
10
2.62707
20
-1.92206
11
2.63296
21
-1.91813
0
LINE
8
BLACK
6
CONTINUOUS
10
2.63296
20
-1.91813
11
2.6368
21
-1.91654
0
LINE
8
BLACK
6
CONTINUOUS
10
2.6368
20
-1.91654
11
2.63951
21
-1.91542
0
LINE
8
BLACK
6
CONTINUOUS
10
2.63951
20
-1.91542
11
2.64298
21
-1.91473
0
LINE
8
BLACK
6
CONTINUOUS
10
2.64298
20
-1.91473
11
2.64646
21
-1.91404
0
LINE
8
BLACK
6
CONTINUOUS
10
2.64646
20
-1.91404
11
2.65354
21
-1.91404
0
LINE
8
BLACK
6
CONTINUOUS
10
2.65354
20
-1.91404
11
2.65702
21
-1.91473
0
LINE
8
BLACK
6
CONTINUOUS
10
2.55702
20
-1.91473
11
2.56049
21
-1.91542
0
LINE
8
BLACK
6
CONTINUOUS
10
2.56049
20
-1.91542
11
2.5632
21
-1.91654
0
LINE
8
BLACK
6
CONTINUOUS
10
2.5632
20
-1.91654
11
2.56704
21
-1.91813
0
LINE
8
BLACK
6
CONTINUOUS
10
2.56704
20
-1.91813
11
2.57293
21
-1.92206
0
LINE
8
BLACK
6
CONTINUOUS
10
2.57293
20
-1.92206
11
2.57794
21
-1.92707
0
LINE
8
BLACK
6
CONTINUOUS
10
2.57794
20
-1.92707
11
2.58187
21
-1.93296
0
LINE
8
BLACK
6
CONTINUOUS
10
2.58187
20
-1.93296
11
2.58458
21
-1.93951
0
LINE
8
BLACK
6
CONTINUOUS
10
2.58458
20
-1.93951
11
2.58596
21
-1.94646
0
LINE
8
BLACK
6
CONTINUOUS
10
2.58596
20
-1.94646
11
2.58596
21
-1.95354
0
LINE
8
BLACK
6
CONTINUOUS
10
2.58596
20
-1.95354
11
2.58458
21
-1.96049
0
LINE
8
BLACK
6
CONTINUOUS
10
2.58458
20
-1.96049
11
2.58187
21
-1.96704
0
LINE
8
BLACK
6
CONTINUOUS
10
2.58187
20
-1.96704
11
2.57794
21
-1.97293
0
LINE
8
BLACK
6
CONTINUOUS
10
2.57794
20
-1.97293
11
2.57293
21
-1.97794
0
LINE
8
BLACK
6
CONTINUOUS
10
2.57293
20
-1.97794
11
2.56704
21
-1.98187
0
LINE
8
BLACK
6
CONTINUOUS
10
2.56704
20
-1.98187
11
2.5632
21
-1.98346
0
LINE
8
BLACK
6
CONTINUOUS
10
2.5632
20
-1.98346
11
2.56049
21
-1.98458
0
LINE
8
BLACK
6
CONTINUOUS
10
2.56049
20
-1.98458
11
2.55702
21
-1.98527
0
LINE
8
BLACK
6
CONTINUOUS
10
2.55702
20
-1.98527
11
2.55354
21
-1.98596
0
LINE
8
BLACK
6
CONTINUOUS
10
2.55354
20
-1.98596
11
2.54646
21
-1.98596
0
LINE
8
BLACK
6
CONTINUOUS
10
2.54646
20
-1.98596
11
2.54298
21
-1.98527
0
LINE
8
BLACK
6
CONTINUOUS
10
2.54298
20
-1.98527
11
2.53951
21
-1.98458
0
LINE
8
BLACK
6
CONTINUOUS
10
2.53951
20
-1.98458
11
2.5368
21
-1.98346
0
LINE
8
BLACK
6
CONTINUOUS
10
2.5368
20
-1.98346
11
2.53296
21
-1.98187
0
LINE
8
BLACK
6
CONTINUOUS
10
2.53296
20
-1.98187
11
2.52707
21
-1.97794
0
LINE
8
BLACK
6
CONTINUOUS
10
2.52707
20
-1.97794
11
2.52206
21
-1.97293
0
LINE
8
BLACK
6
CONTINUOUS
10
2.52206
20
-1.97293
11
2.51813
21
-1.96704
0
LINE
8
BLACK
6
CONTINUOUS
10
2.51813
20
-1.96704
11
2.51542
21
-1.96049
0
LINE
8
BLACK
6
CONTINUOUS
10
2.51542
20
-1.96049
11
2.51404
21
-1.95354
0
LINE
8
BLACK
6
CONTINUOUS
10
2.51404
20
-1.95354
11
2.51404
21
-1.94646
0
LINE
8
BLACK
6
CONTINUOUS
10
2.51404
20
-1.94646
11
2.51542
21
-1.93951
0
LINE
8
BLACK
6
CONTINUOUS
10
2.51542
20
-1.93951
11
2.51813
21
-1.93296
0
LINE
8
BLACK
6
CONTINUOUS
10
2.51813
20
-1.93296
11
2.52206
21
-1.92707
0
LINE
8
BLACK
6
CONTINUOUS
10
2.52206
20
-1.92707
11
2.52707
21
-1.92206
0
LINE
8
BLACK
6
CONTINUOUS
10
2.52707
20
-1.92206
11
2.53296
21
-1.91813
0
LINE
8
BLACK
6
CONTINUOUS
10
2.53296
20
-1.91813
11
2.5368
21
-1.91654
0
LINE
8
BLACK
6
CONTINUOUS
10
2.5368
20
-1.91654
11
2.53951
21
-1.91542
0
LINE
8
BLACK
6
CONTINUOUS
10
2.53951
20
-1.91542
11
2.54298
21
-1.91473
0
LINE
8
BLACK
6
CONTINUOUS
10
2.54298
20
-1.91473
11
2.54646
21
-1.91404
0
LINE
8
BLACK
6
CONTINUOUS
10
2.54646
20
-1.91404
11
2.55354
21
-1.91404
0
LINE
8
BLACK
6
CONTINUOUS
10
2.55354
20
-1.91404
11
2.55702
21
-1.91473
0
LINE
8
BLACK
6
CONTINUOUS
10
2.45702
20
-1.91473
11
2.46049
21
-1.91542
0
LINE
8
BLACK
6
CONTINUOUS
10
2.46049
20
-1.91542
11
2.4632
21
-1.91654
0
LINE
8
BLACK
6
CONTINUOUS
10
2.4632
20
-1.91654
11
2.46704
21
-1.91813
0
LINE
8
BLACK
6
CONTINUOUS
10
2.46704
20
-1.91813
11
2.47293
21
-1.92206
0
LINE
8
BLACK
6
CONTINUOUS
10
2.47293
20
-1.92206
11
2.47794
21
-1.92707
0
LINE
8
BLACK
6
CONTINUOUS
10
2.47794
20
-1.92707
11
2.48187
21
-1.93296
0
LINE
8
BLACK
6
CONTINUOUS
10
2.48187
20
-1.93296
11
2.48458
21
-1.93951
0
LINE
8
BLACK
6
CONTINUOUS
10
2.48458
20
-1.93951
11
2.48596
21
-1.94646
0
LINE
8
BLACK
6
CONTINUOUS
10
2.48596
20
-1.94646
11
2.48596
21
-1.95354
0
LINE
8
BLACK
6
CONTINUOUS
10
2.48596
20
-1.95354
11
2.48458
21
-1.96049
0
LINE
8
BLACK
6
CONTINUOUS
10
2.48458
20
-1.96049
11
2.48187
21
-1.96704
0
LINE
8
BLACK
6
CONTINUOUS
10
2.48187
20
-1.96704
11
2.47794
21
-1.97293
0
LINE
8
BLACK
6
CONTINUOUS
10
2.47794
20
-1.97293
11
2.47293
21
-1.97794
0
LINE
8
BLACK
6
CONTINUOUS
10
2.47293
20
-1.97794
11
2.46704
21
-1.98187
0
LINE
8
BLACK
6
CONTINUOUS
10
2.46704
20
-1.98187
11
2.4632
21
-1.98346
0
LINE
8
BLACK
6
CONTINUOUS
10
2.4632
20
-1.98346
11
2.46049
21
-1.98458
0
LINE
8
BLACK
6
CONTINUOUS
10
2.46049
20
-1.98458
11
2.45702
21
-1.98527
0
LINE
8
BLACK
6
CONTINUOUS
10
2.45702
20
-1.98527
11
2.45354
21
-1.98596
0
LINE
8
BLACK
6
CONTINUOUS
10
2.45354
20
-1.98596
11
2.44646
21
-1.98596
0
LINE
8
BLACK
6
CONTINUOUS
10
2.44646
20
-1.98596
11
2.44298
21
-1.98527
0
LINE
8
BLACK
6
CONTINUOUS
10
2.44298
20
-1.98527
11
2.43951
21
-1.98458
0
LINE
8
BLACK
6
CONTINUOUS
10
2.43951
20
-1.98458
11
2.4368
21
-1.98346
0
LINE
8
BLACK
6
CONTINUOUS
10
2.4368
20
-1.98346
11
2.43296
21
-1.98187
0
LINE
8
BLACK
6
CONTINUOUS
10
2.43296
20
-1.98187
11
2.42707
21
-1.97794
0
LINE
8
BLACK
6
CONTINUOUS
10
2.42707
20
-1.97794
11
2.42206
21
-1.97293
0
LINE
8
BLACK
6
CONTINUOUS
10
2.42206
20
-1.97293
11
2.41813
21
-1.96704
0
LINE
8
BLACK
6
CONTINUOUS
10
2.41813
20
-1.96704
11
2.41542
21
-1.96049
0
LINE
8
BLACK
6
CONTINUOUS
10
2.41542
20
-1.96049
11
2.41404
21
-1.95354
0
LINE
8
BLACK
6
CONTINUOUS
10
2.41404
20
-1.95354
11
2.41404
21
-1.94646
0
LINE
8
BLACK
6
CONTINUOUS
10
2.41404
20
-1.94646
11
2.41542
21
-1.93951
0
LINE
8
BLACK
6
CONTINUOUS
10
2.41542
20
-1.93951
11
2.41813
21
-1.93296
0
LINE
8
BLACK
6
CONTINUOUS
10
2.41813
20
-1.93296
11
2.42206
21
-1.92707
0
LINE
8
BLACK
6
CONTINUOUS
10
2.42206
20
-1.92707
11
2.42707
21
-1.92206
0
LINE
8
BLACK
6
CONTINUOUS
10
2.42707
20
-1.92206
11
2.43296
21
-1.91813
0
LINE
8
BLACK
6
CONTINUOUS
10
2.43296
20
-1.91813
11
2.4368
21
-1.91654
0
LINE
8
BLACK
6
CONTINUOUS
10
2.4368
20
-1.91654
11
2.43951
21
-1.91542
0
LINE
8
BLACK
6
CONTINUOUS
10
2.43951
20
-1.91542
11
2.44298
21
-1.91473
0
LINE
8
BLACK
6
CONTINUOUS
10
2.44298
20
-1.91473
11
2.44646
21
-1.91404
0
LINE
8
BLACK
6
CONTINUOUS
10
2.44646
20
-1.91404
11
2.45354
21
-1.91404
0
LINE
8
BLACK
6
CONTINUOUS
10
2.45354
20
-1.91404
11
2.45702
21
-1.91473
0
LINE
8
BLACK
6
CONTINUOUS
10
2.35702
20
-1.91473
11
2.36049
21
-1.91542
0
LINE
8
BLACK
6
CONTINUOUS
10
2.36049
20
-1.91542
11
2.3632
21
-1.91654
0
LINE
8
BLACK
6
CONTINUOUS
10
2.3632
20
-1.91654
11
2.36704
21
-1.91813
0
LINE
8
BLACK
6
CONTINUOUS
10
2.36704
20
-1.91813
11
2.37293
21
-1.92206
0
LINE
8
BLACK
6
CONTINUOUS
10
2.37293
20
-1.92206
11
2.37794
21
-1.92707
0
LINE
8
BLACK
6
CONTINUOUS
10
2.37794
20
-1.92707
11
2.38187
21
-1.93296
0
LINE
8
BLACK
6
CONTINUOUS
10
2.38187
20
-1.93296
11
2.38458
21
-1.93951
0
LINE
8
BLACK
6
CONTINUOUS
10
2.38458
20
-1.93951
11
2.38596
21
-1.94646
0
LINE
8
BLACK
6
CONTINUOUS
10
2.38596
20
-1.94646
11
2.38596
21
-1.95354
0
LINE
8
BLACK
6
CONTINUOUS
10
2.38596
20
-1.95354
11
2.38458
21
-1.96049
0
LINE
8
BLACK
6
CONTINUOUS
10
2.38458
20
-1.96049
11
2.38187
21
-1.96704
0
LINE
8
BLACK
6
CONTINUOUS
10
2.38187
20
-1.96704
11
2.37794
21
-1.97293
0
LINE
8
BLACK
6
CONTINUOUS
10
2.37794
20
-1.97293
11
2.37293
21
-1.97794
0
LINE
8
BLACK
6
CONTINUOUS
10
2.37293
20
-1.97794
11
2.36704
21
-1.98187
0
LINE
8
BLACK
6
CONTINUOUS
10
2.36704
20
-1.98187
11
2.3632
21
-1.98346
0
LINE
8
BLACK
6
CONTINUOUS
10
2.3632
20
-1.98346
11
2.36049
21
-1.98458
0
LINE
8
BLACK
6
CONTINUOUS
10
2.36049
20
-1.98458
11
2.35702
21
-1.98527
0
LINE
8
BLACK
6
CONTINUOUS
10
2.35702
20
-1.98527
11
2.35354
21
-1.98596
0
LINE
8
BLACK
6
CONTINUOUS
10
2.35354
20
-1.98596
11
2.34646
21
-1.98596
0
LINE
8
BLACK
6
CONTINUOUS
10
2.34646
20
-1.98596
11
2.34298
21
-1.98527
0
LINE
8
BLACK
6
CONTINUOUS
10
2.34298
20
-1.98527
11
2.33951
21
-1.98458
0
LINE
8
BLACK
6
CONTINUOUS
10
2.33951
20
-1.98458
11
2.3368
21
-1.98346
0
LINE
8
BLACK
6
CONTINUOUS
10
2.3368
20
-1.98346
11
2.33296
21
-1.98187
0
LINE
8
BLACK
6
CONTINUOUS
10
2.33296
20
-1.98187
11
2.32707
21
-1.97794
0
LINE
8
BLACK
6
CONTINUOUS
10
2.32707
20
-1.97794
11
2.32206
21
-1.97293
0
LINE
8
BLACK
6
CONTINUOUS
10
2.32206
20
-1.97293
11
2.31813
21
-1.96704
0
LINE
8
BLACK
6
CONTINUOUS
10
2.31813
20
-1.96704
11
2.31542
21
-1.96049
0
LINE
8
BLACK
6
CONTINUOUS
10
2.31542
20
-1.96049
11
2.31404
21
-1.95354
0
LINE
8
BLACK
6
CONTINUOUS
10
2.31404
20
-1.95354
11
2.31404
21
-1.94646
0
LINE
8
BLACK
6
CONTINUOUS
10
2.31404
20
-1.94646
11
2.31542
21
-1.93951
0
LINE
8
BLACK
6
CONTINUOUS
10
2.31542
20
-1.93951
11
2.31813
21
-1.93296
0
LINE
8
BLACK
6
CONTINUOUS
10
2.31813
20
-1.93296
11
2.32206
21
-1.92707
0
LINE
8
BLACK
6
CONTINUOUS
10
2.32206
20
-1.92707
11
2.32707
21
-1.92206
0
LINE
8
BLACK
6
CONTINUOUS
10
2.32707
20
-1.92206
11
2.33296
21
-1.91813
0
LINE
8
BLACK
6
CONTINUOUS
10
2.33296
20
-1.91813
11
2.3368
21
-1.91654
0
LINE
8
BLACK
6
CONTINUOUS
10
2.3368
20
-1.91654
11
2.33951
21
-1.91542
0
LINE
8
BLACK
6
CONTINUOUS
10
2.33951
20
-1.91542
11
2.34298
21
-1.91473
0
LINE
8
BLACK
6
CONTINUOUS
10
2.34298
20
-1.91473
11
2.34646
21
-1.91404
0
LINE
8
BLACK
6
CONTINUOUS
10
2.34646
20
-1.91404
11
2.35354
21
-1.91404
0
LINE
8
BLACK
6
CONTINUOUS
10
2.35354
20
-1.91404
11
2.35702
21
-1.91473
0
LINE
8
BLACK
6
CONTINUOUS
10
2.25702
20
-1.91473
11
2.26049
21
-1.91542
0
LINE
8
BLACK
6
CONTINUOUS
10
2.26049
20
-1.91542
11
2.2632
21
-1.91654
0
LINE
8
BLACK
6
CONTINUOUS
10
2.2632
20
-1.91654
11
2.26704
21
-1.91813
0
LINE
8
BLACK
6
CONTINUOUS
10
2.26704
20
-1.91813
11
2.27293
21
-1.92206
0
LINE
8
BLACK
6
CONTINUOUS
10
2.27293
20
-1.92206
11
2.27794
21
-1.92707
0
LINE
8
BLACK
6
CONTINUOUS
10
2.27794
20
-1.92707
11
2.28187
21
-1.93296
0
LINE
8
BLACK
6
CONTINUOUS
10
2.28187
20
-1.93296
11
2.28458
21
-1.93951
0
LINE
8
BLACK
6
CONTINUOUS
10
2.28458
20
-1.93951
11
2.28596
21
-1.94646
0
LINE
8
BLACK
6
CONTINUOUS
10
2.28596
20
-1.94646
11
2.28596
21
-1.95354
0
LINE
8
BLACK
6
CONTINUOUS
10
2.28596
20
-1.95354
11
2.28458
21
-1.96049
0
LINE
8
BLACK
6
CONTINUOUS
10
2.28458
20
-1.96049
11
2.28187
21
-1.96704
0
LINE
8
BLACK
6
CONTINUOUS
10
2.28187
20
-1.96704
11
2.27794
21
-1.97293
0
LINE
8
BLACK
6
CONTINUOUS
10
2.27794
20
-1.97293
11
2.27293
21
-1.97794
0
LINE
8
BLACK
6
CONTINUOUS
10
2.27293
20
-1.97794
11
2.26704
21
-1.98187
0
LINE
8
BLACK
6
CONTINUOUS
10
2.26704
20
-1.98187
11
2.2632
21
-1.98346
0
LINE
8
BLACK
6
CONTINUOUS
10
2.2632
20
-1.98346
11
2.26049
21
-1.98458
0
LINE
8
BLACK
6
CONTINUOUS
10
2.26049
20
-1.98458
11
2.25702
21
-1.98527
0
LINE
8
BLACK
6
CONTINUOUS
10
2.25702
20
-1.98527
11
2.25354
21
-1.98596
0
LINE
8
BLACK
6
CONTINUOUS
10
2.25354
20
-1.98596
11
2.24646
21
-1.98596
0
LINE
8
BLACK
6
CONTINUOUS
10
2.24646
20
-1.98596
11
2.24298
21
-1.98527
0
LINE
8
BLACK
6
CONTINUOUS
10
2.24298
20
-1.98527
11
2.23951
21
-1.98458
0
LINE
8
BLACK
6
CONTINUOUS
10
2.23951
20
-1.98458
11
2.2368
21
-1.98346
0
LINE
8
BLACK
6
CONTINUOUS
10
2.2368
20
-1.98346
11
2.23296
21
-1.98187
0
LINE
8
BLACK
6
CONTINUOUS
10
2.23296
20
-1.98187
11
2.22707
21
-1.97794
0
LINE
8
BLACK
6
CONTINUOUS
10
2.22707
20
-1.97794
11
2.22206
21
-1.97293
0
LINE
8
BLACK
6
CONTINUOUS
10
2.22206
20
-1.97293
11
2.21813
21
-1.96704
0
LINE
8
BLACK
6
CONTINUOUS
10
2.21813
20
-1.96704
11
2.21542
21
-1.96049
0
LINE
8
BLACK
6
CONTINUOUS
10
2.21542
20
-1.96049
11
2.21404
21
-1.95354
0
LINE
8
BLACK
6
CONTINUOUS
10
2.21404
20
-1.95354
11
2.21404
21
-1.94646
0
LINE
8
BLACK
6
CONTINUOUS
10
2.21404
20
-1.94646
11
2.21542
21
-1.93951
0
LINE
8
BLACK
6
CONTINUOUS
10
2.21542
20
-1.93951
11
2.21813
21
-1.93296
0
LINE
8
BLACK
6
CONTINUOUS
10
2.21813
20
-1.93296
11
2.22206
21
-1.92707
0
LINE
8
BLACK
6
CONTINUOUS
10
2.22206
20
-1.92707
11
2.22707
21
-1.92206
0
LINE
8
BLACK
6
CONTINUOUS
10
2.22707
20
-1.92206
11
2.23296
21
-1.91813
0
LINE
8
BLACK
6
CONTINUOUS
10
2.23296
20
-1.91813
11
2.2368
21
-1.91654
0
LINE
8
BLACK
6
CONTINUOUS
10
2.2368
20
-1.91654
11
2.23951
21
-1.91542
0
LINE
8
BLACK
6
CONTINUOUS
10
2.23951
20
-1.91542
11
2.24298
21
-1.91473
0
LINE
8
BLACK
6
CONTINUOUS
10
2.24298
20
-1.91473
11
2.24646
21
-1.91404
0
LINE
8
BLACK
6
CONTINUOUS
10
2.24646
20
-1.91404
11
2.25354
21
-1.91404
0
LINE
8
BLACK
6
CONTINUOUS
10
2.25354
20
-1.91404
11
2.25702
21
-1.91473
0
LINE
8
BLACK
6
CONTINUOUS
10
2.15702
20
-1.91473
11
2.16049
21
-1.91542
0
LINE
8
BLACK
6
CONTINUOUS
10
2.16049
20
-1.91542
11
2.1632
21
-1.91654
0
LINE
8
BLACK
6
CONTINUOUS
10
2.1632
20
-1.91654
11
2.16704
21
-1.91813
0
LINE
8
BLACK
6
CONTINUOUS
10
2.16704
20
-1.91813
11
2.17293
21
-1.92206
0
LINE
8
BLACK
6
CONTINUOUS
10
2.17293
20
-1.92206
11
2.17794
21
-1.92707
0
LINE
8
BLACK
6
CONTINUOUS
10
2.17794
20
-1.92707
11
2.18187
21
-1.93296
0
LINE
8
BLACK
6
CONTINUOUS
10
2.18187
20
-1.93296
11
2.18458
21
-1.93951
0
LINE
8
BLACK
6
CONTINUOUS
10
2.18458
20
-1.93951
11
2.18596
21
-1.94646
0
LINE
8
BLACK
6
CONTINUOUS
10
2.18596
20
-1.94646
11
2.18596
21
-1.95354
0
LINE
8
BLACK
6
CONTINUOUS
10
2.18596
20
-1.95354
11
2.18458
21
-1.96049
0
LINE
8
BLACK
6
CONTINUOUS
10
2.18458
20
-1.96049
11
2.18187
21
-1.96704
0
LINE
8
BLACK
6
CONTINUOUS
10
2.18187
20
-1.96704
11
2.17794
21
-1.97293
0
LINE
8
BLACK
6
CONTINUOUS
10
2.17794
20
-1.97293
11
2.17293
21
-1.97794
0
LINE
8
BLACK
6
CONTINUOUS
10
2.17293
20
-1.97794
11
2.16704
21
-1.98187
0
LINE
8
BLACK
6
CONTINUOUS
10
2.16704
20
-1.98187
11
2.1632
21
-1.98346
0
LINE
8
BLACK
6
CONTINUOUS
10
2.1632
20
-1.98346
11
2.16049
21
-1.98458
0
LINE
8
BLACK
6
CONTINUOUS
10
2.16049
20
-1.98458
11
2.15702
21
-1.98527
0
LINE
8
BLACK
6
CONTINUOUS
10
2.15702
20
-1.98527
11
2.15354
21
-1.98596
0
LINE
8
BLACK
6
CONTINUOUS
10
2.15354
20
-1.98596
11
2.14646
21
-1.98596
0
LINE
8
BLACK
6
CONTINUOUS
10
2.14646
20
-1.98596
11
2.14298
21
-1.98527
0
LINE
8
BLACK
6
CONTINUOUS
10
2.14298
20
-1.98527
11
2.13951
21
-1.98458
0
LINE
8
BLACK
6
CONTINUOUS
10
2.13951
20
-1.98458
11
2.1368
21
-1.98346
0
LINE
8
BLACK
6
CONTINUOUS
10
2.1368
20
-1.98346
11
2.13296
21
-1.98187
0
LINE
8
BLACK
6
CONTINUOUS
10
2.13296
20
-1.98187
11
2.12707
21
-1.97794
0
LINE
8
BLACK
6
CONTINUOUS
10
2.12707
20
-1.97794
11
2.12206
21
-1.97293
0
LINE
8
BLACK
6
CONTINUOUS
10
2.12206
20
-1.97293
11
2.11813
21
-1.96704
0
LINE
8
BLACK
6
CONTINUOUS
10
2.11813
20
-1.96704
11
2.11542
21
-1.96049
0
LINE
8
BLACK
6
CONTINUOUS
10
2.11542
20
-1.96049
11
2.11404
21
-1.95354
0
LINE
8
BLACK
6
CONTINUOUS
10
2.11404
20
-1.95354
11
2.11404
21
-1.94646
0
LINE
8
BLACK
6
CONTINUOUS
10
2.11404
20
-1.94646
11
2.11542
21
-1.93951
0
LINE
8
BLACK
6
CONTINUOUS
10
2.11542
20
-1.93951
11
2.11813
21
-1.93296
0
LINE
8
BLACK
6
CONTINUOUS
10
2.11813
20
-1.93296
11
2.12206
21
-1.92707
0
LINE
8
BLACK
6
CONTINUOUS
10
2.12206
20
-1.92707
11
2.12707
21
-1.92206
0
LINE
8
BLACK
6
CONTINUOUS
10
2.12707
20
-1.92206
11
2.13296
21
-1.91813
0
LINE
8
BLACK
6
CONTINUOUS
10
2.13296
20
-1.91813
11
2.1368
21
-1.91654
0
LINE
8
BLACK
6
CONTINUOUS
10
2.1368
20
-1.91654
11
2.13951
21
-1.91542
0
LINE
8
BLACK
6
CONTINUOUS
10
2.13951
20
-1.91542
11
2.14298
21
-1.91473
0
LINE
8
BLACK
6
CONTINUOUS
10
2.14298
20
-1.91473
11
2.14646
21
-1.91404
0
LINE
8
BLACK
6
CONTINUOUS
10
2.14646
20
-1.91404
11
2.15354
21
-1.91404
0
LINE
8
BLACK
6
CONTINUOUS
10
2.15354
20
-1.91404
11
2.15702
21
-1.91473
0
LINE
8
BLACK
6
CONTINUOUS
10
2.55702
20
-1.81473
11
2.56049
21
-1.81542
0
LINE
8
BLACK
6
CONTINUOUS
10
2.56049
20
-1.81542
11
2.5632
21
-1.81654
0
LINE
8
BLACK
6
CONTINUOUS
10
2.5632
20
-1.81654
11
2.56704
21
-1.81813
0
LINE
8
BLACK
6
CONTINUOUS
10
2.56704
20
-1.81813
11
2.57293
21
-1.82206
0
LINE
8
BLACK
6
CONTINUOUS
10
2.57293
20
-1.82206
11
2.57794
21
-1.82707
0
LINE
8
BLACK
6
CONTINUOUS
10
2.57794
20
-1.82707
11
2.58187
21
-1.83296
0
LINE
8
BLACK
6
CONTINUOUS
10
2.58187
20
-1.83296
11
2.58458
21
-1.83951
0
LINE
8
BLACK
6
CONTINUOUS
10
2.58458
20
-1.83951
11
2.58596
21
-1.84646
0
LINE
8
BLACK
6
CONTINUOUS
10
2.58596
20
-1.84646
11
2.58596
21
-1.85354
0
LINE
8
BLACK
6
CONTINUOUS
10
2.58596
20
-1.85354
11
2.58458
21
-1.86049
0
LINE
8
BLACK
6
CONTINUOUS
10
2.58458
20
-1.86049
11
2.58187
21
-1.86704
0
LINE
8
BLACK
6
CONTINUOUS
10
2.58187
20
-1.86704
11
2.57794
21
-1.87293
0
LINE
8
BLACK
6
CONTINUOUS
10
2.57794
20
-1.87293
11
2.57293
21
-1.87794
0
LINE
8
BLACK
6
CONTINUOUS
10
2.57293
20
-1.87794
11
2.56704
21
-1.88187
0
LINE
8
BLACK
6
CONTINUOUS
10
2.56704
20
-1.88187
11
2.5632
21
-1.88346
0
LINE
8
BLACK
6
CONTINUOUS
10
2.5632
20
-1.88346
11
2.56049
21
-1.88458
0
LINE
8
BLACK
6
CONTINUOUS
10
2.56049
20
-1.88458
11
2.55702
21
-1.88527
0
LINE
8
BLACK
6
CONTINUOUS
10
2.55702
20
-1.88527
11
2.55354
21
-1.88596
0
LINE
8
BLACK
6
CONTINUOUS
10
2.55354
20
-1.88596
11
2.54646
21
-1.88596
0
LINE
8
BLACK
6
CONTINUOUS
10
2.54646
20
-1.88596
11
2.54298
21
-1.88527
0
LINE
8
BLACK
6
CONTINUOUS
10
2.54298
20
-1.88527
11
2.53951
21
-1.88458
0
LINE
8
BLACK
6
CONTINUOUS
10
2.53951
20
-1.88458
11
2.5368
21
-1.88346
0
LINE
8
BLACK
6
CONTINUOUS
10
2.5368
20
-1.88346
11
2.53296
21
-1.88187
0
LINE
8
BLACK
6
CONTINUOUS
10
2.53296
20
-1.88187
11
2.52707
21
-1.87794
0
LINE
8
BLACK
6
CONTINUOUS
10
2.52707
20
-1.87794
11
2.52206
21
-1.87293
0
LINE
8
BLACK
6
CONTINUOUS
10
2.52206
20
-1.87293
11
2.51813
21
-1.86704
0
LINE
8
BLACK
6
CONTINUOUS
10
2.51813
20
-1.86704
11
2.51542
21
-1.86049
0
LINE
8
BLACK
6
CONTINUOUS
10
2.51542
20
-1.86049
11
2.51404
21
-1.85354
0
LINE
8
BLACK
6
CONTINUOUS
10
2.51404
20
-1.85354
11
2.51404
21
-1.84646
0
LINE
8
BLACK
6
CONTINUOUS
10
2.51404
20
-1.84646
11
2.51542
21
-1.83951
0
LINE
8
BLACK
6
CONTINUOUS
10
2.51542
20
-1.83951
11
2.51813
21
-1.83296
0
LINE
8
BLACK
6
CONTINUOUS
10
2.51813
20
-1.83296
11
2.52206
21
-1.82707
0
LINE
8
BLACK
6
CONTINUOUS
10
2.52206
20
-1.82707
11
2.52707
21
-1.82206
0
LINE
8
BLACK
6
CONTINUOUS
10
2.52707
20
-1.82206
11
2.53296
21
-1.81813
0
LINE
8
BLACK
6
CONTINUOUS
10
2.53296
20
-1.81813
11
2.5368
21
-1.81654
0
LINE
8
BLACK
6
CONTINUOUS
10
2.5368
20
-1.81654
11
2.53951
21
-1.81542
0
LINE
8
BLACK
6
CONTINUOUS
10
2.53951
20
-1.81542
11
2.54298
21
-1.81473
0
LINE
8
BLACK
6
CONTINUOUS
10
2.54298
20
-1.81473
11
2.54646
21
-1.81404
0
LINE
8
BLACK
6
CONTINUOUS
10
2.54646
20
-1.81404
11
2.55354
21
-1.81404
0
LINE
8
BLACK
6
CONTINUOUS
10
2.55354
20
-1.81404
11
2.55702
21
-1.81473
0
LINE
8
BLACK
6
CONTINUOUS
10
2.85702
20
-1.81473
11
2.86049
21
-1.81542
0
LINE
8
BLACK
6
CONTINUOUS
10
2.86049
20
-1.81542
11
2.8632
21
-1.81654
0
LINE
8
BLACK
6
CONTINUOUS
10
2.8632
20
-1.81654
11
2.86704
21
-1.81813
0
LINE
8
BLACK
6
CONTINUOUS
10
2.86704
20
-1.81813
11
2.87293
21
-1.82206
0
LINE
8
BLACK
6
CONTINUOUS
10
2.87293
20
-1.82206
11
2.87794
21
-1.82707
0
LINE
8
BLACK
6
CONTINUOUS
10
2.87794
20
-1.82707
11
2.88187
21
-1.83296
0
LINE
8
BLACK
6
CONTINUOUS
10
2.88187
20
-1.83296
11
2.88458
21
-1.83951
0
LINE
8
BLACK
6
CONTINUOUS
10
2.88458
20
-1.83951
11
2.88596
21
-1.84646
0
LINE
8
BLACK
6
CONTINUOUS
10
2.88596
20
-1.84646
11
2.88596
21
-1.85354
0
LINE
8
BLACK
6
CONTINUOUS
10
2.88596
20
-1.85354
11
2.88458
21
-1.86049
0
LINE
8
BLACK
6
CONTINUOUS
10
2.88458
20
-1.86049
11
2.88187
21
-1.86704
0
LINE
8
BLACK
6
CONTINUOUS
10
2.88187
20
-1.86704
11
2.87794
21
-1.87293
0
LINE
8
BLACK
6
CONTINUOUS
10
2.87794
20
-1.87293
11
2.87293
21
-1.87794
0
LINE
8
BLACK
6
CONTINUOUS
10
2.87293
20
-1.87794
11
2.86704
21
-1.88187
0
LINE
8
BLACK
6
CONTINUOUS
10
2.86704
20
-1.88187
11
2.8632
21
-1.88346
0
LINE
8
BLACK
6
CONTINUOUS
10
2.8632
20
-1.88346
11
2.86049
21
-1.88458
0
LINE
8
BLACK
6
CONTINUOUS
10
2.86049
20
-1.88458
11
2.85702
21
-1.88527
0
LINE
8
BLACK
6
CONTINUOUS
10
2.85702
20
-1.88527
11
2.85354
21
-1.88596
0
LINE
8
BLACK
6
CONTINUOUS
10
2.85354
20
-1.88596
11
2.84646
21
-1.88596
0
LINE
8
BLACK
6
CONTINUOUS
10
2.84646
20
-1.88596
11
2.84298
21
-1.88527
0
LINE
8
BLACK
6
CONTINUOUS
10
2.84298
20
-1.88527
11
2.83951
21
-1.88458
0
LINE
8
BLACK
6
CONTINUOUS
10
2.83951
20
-1.88458
11
2.8368
21
-1.88346
0
LINE
8
BLACK
6
CONTINUOUS
10
2.8368
20
-1.88346
11
2.83296
21
-1.88187
0
LINE
8
BLACK
6
CONTINUOUS
10
2.83296
20
-1.88187
11
2.82707
21
-1.87794
0
LINE
8
BLACK
6
CONTINUOUS
10
2.82707
20
-1.87794
11
2.82206
21
-1.87293
0
LINE
8
BLACK
6
CONTINUOUS
10
2.82206
20
-1.87293
11
2.81813
21
-1.86704
0
LINE
8
BLACK
6
CONTINUOUS
10
2.81813
20
-1.86704
11
2.81542
21
-1.86049
0
LINE
8
BLACK
6
CONTINUOUS
10
2.81542
20
-1.86049
11
2.81404
21
-1.85354
0
LINE
8
BLACK
6
CONTINUOUS
10
2.81404
20
-1.85354
11
2.81404
21
-1.84646
0
LINE
8
BLACK
6
CONTINUOUS
10
2.81404
20
-1.84646
11
2.81542
21
-1.83951
0
LINE
8
BLACK
6
CONTINUOUS
10
2.81542
20
-1.83951
11
2.81813
21
-1.83296
0
LINE
8
BLACK
6
CONTINUOUS
10
2.81813
20
-1.83296
11
2.82206
21
-1.82707
0
LINE
8
BLACK
6
CONTINUOUS
10
2.82206
20
-1.82707
11
2.82707
21
-1.82206
0
LINE
8
BLACK
6
CONTINUOUS
10
2.82707
20
-1.82206
11
2.83296
21
-1.81813
0
LINE
8
BLACK
6
CONTINUOUS
10
2.83296
20
-1.81813
11
2.8368
21
-1.81654
0
LINE
8
BLACK
6
CONTINUOUS
10
2.8368
20
-1.81654
11
2.83951
21
-1.81542
0
LINE
8
BLACK
6
CONTINUOUS
10
2.83951
20
-1.81542
11
2.84298
21
-1.81473
0
LINE
8
BLACK
6
CONTINUOUS
10
2.84298
20
-1.81473
11
2.84646
21
-1.81404
0
LINE
8
BLACK
6
CONTINUOUS
10
2.84646
20
-1.81404
11
2.85354
21
-1.81404
0
LINE
8
BLACK
6
CONTINUOUS
10
2.85354
20
-1.81404
11
2.85702
21
-1.81473
0
LINE
8
BLACK
6
CONTINUOUS
10
2.75702
20
-1.81473
11
2.76049
21
-1.81542
0
LINE
8
BLACK
6
CONTINUOUS
10
2.76049
20
-1.81542
11
2.7632
21
-1.81654
0
LINE
8
BLACK
6
CONTINUOUS
10
2.7632
20
-1.81654
11
2.76704
21
-1.81813
0
LINE
8
BLACK
6
CONTINUOUS
10
2.76704
20
-1.81813
11
2.77293
21
-1.82206
0
LINE
8
BLACK
6
CONTINUOUS
10
2.77293
20
-1.82206
11
2.77794
21
-1.82707
0
LINE
8
BLACK
6
CONTINUOUS
10
2.77794
20
-1.82707
11
2.78187
21
-1.83296
0
LINE
8
BLACK
6
CONTINUOUS
10
2.78187
20
-1.83296
11
2.78458
21
-1.83951
0
LINE
8
BLACK
6
CONTINUOUS
10
2.78458
20
-1.83951
11
2.78596
21
-1.84646
0
LINE
8
BLACK
6
CONTINUOUS
10
2.78596
20
-1.84646
11
2.78596
21
-1.85354
0
LINE
8
BLACK
6
CONTINUOUS
10
2.78596
20
-1.85354
11
2.78458
21
-1.86049
0
LINE
8
BLACK
6
CONTINUOUS
10
2.78458
20
-1.86049
11
2.78187
21
-1.86704
0
LINE
8
BLACK
6
CONTINUOUS
10
2.78187
20
-1.86704
11
2.77794
21
-1.87293
0
LINE
8
BLACK
6
CONTINUOUS
10
2.77794
20
-1.87293
11
2.77293
21
-1.87794
0
LINE
8
BLACK
6
CONTINUOUS
10
2.77293
20
-1.87794
11
2.76704
21
-1.88187
0
LINE
8
BLACK
6
CONTINUOUS
10
2.76704
20
-1.88187
11
2.7632
21
-1.88346
0
LINE
8
BLACK
6
CONTINUOUS
10
2.7632
20
-1.88346
11
2.76049
21
-1.88458
0
LINE
8
BLACK
6
CONTINUOUS
10
2.76049
20
-1.88458
11
2.75702
21
-1.88527
0
LINE
8
BLACK
6
CONTINUOUS
10
2.75702
20
-1.88527
11
2.75354
21
-1.88596
0
LINE
8
BLACK
6
CONTINUOUS
10
2.75354
20
-1.88596
11
2.74646
21
-1.88596
0
LINE
8
BLACK
6
CONTINUOUS
10
2.74646
20
-1.88596
11
2.74298
21
-1.88527
0
LINE
8
BLACK
6
CONTINUOUS
10
2.74298
20
-1.88527
11
2.73951
21
-1.88458
0
LINE
8
BLACK
6
CONTINUOUS
10
2.73951
20
-1.88458
11
2.7368
21
-1.88346
0
LINE
8
BLACK
6
CONTINUOUS
10
2.7368
20
-1.88346
11
2.73296
21
-1.88187
0
LINE
8
BLACK
6
CONTINUOUS
10
2.73296
20
-1.88187
11
2.72707
21
-1.87794
0
LINE
8
BLACK
6
CONTINUOUS
10
2.72707
20
-1.87794
11
2.72206
21
-1.87293
0
LINE
8
BLACK
6
CONTINUOUS
10
2.72206
20
-1.87293
11
2.71813
21
-1.86704
0
LINE
8
BLACK
6
CONTINUOUS
10
2.71813
20
-1.86704
11
2.71542
21
-1.86049
0
LINE
8
BLACK
6
CONTINUOUS
10
2.71542
20
-1.86049
11
2.71404
21
-1.85354
0
LINE
8
BLACK
6
CONTINUOUS
10
2.71404
20
-1.85354
11
2.71404
21
-1.84646
0
LINE
8
BLACK
6
CONTINUOUS
10
2.71404
20
-1.84646
11
2.71542
21
-1.83951
0
LINE
8
BLACK
6
CONTINUOUS
10
2.71542
20
-1.83951
11
2.71813
21
-1.83296
0
LINE
8
BLACK
6
CONTINUOUS
10
2.71813
20
-1.83296
11
2.72206
21
-1.82707
0
LINE
8
BLACK
6
CONTINUOUS
10
2.72206
20
-1.82707
11
2.72707
21
-1.82206
0
LINE
8
BLACK
6
CONTINUOUS
10
2.72707
20
-1.82206
11
2.73296
21
-1.81813
0
LINE
8
BLACK
6
CONTINUOUS
10
2.73296
20
-1.81813
11
2.7368
21
-1.81654
0
LINE
8
BLACK
6
CONTINUOUS
10
2.7368
20
-1.81654
11
2.73951
21
-1.81542
0
LINE
8
BLACK
6
CONTINUOUS
10
2.73951
20
-1.81542
11
2.74298
21
-1.81473
0
LINE
8
BLACK
6
CONTINUOUS
10
2.74298
20
-1.81473
11
2.74646
21
-1.81404
0
LINE
8
BLACK
6
CONTINUOUS
10
2.74646
20
-1.81404
11
2.75354
21
-1.81404
0
LINE
8
BLACK
6
CONTINUOUS
10
2.75354
20
-1.81404
11
2.75702
21
-1.81473
0
LINE
8
BLACK
6
CONTINUOUS
10
2.65702
20
-1.81473
11
2.66049
21
-1.81542
0
LINE
8
BLACK
6
CONTINUOUS
10
2.66049
20
-1.81542
11
2.6632
21
-1.81654
0
LINE
8
BLACK
6
CONTINUOUS
10
2.6632
20
-1.81654
11
2.66704
21
-1.81813
0
LINE
8
BLACK
6
CONTINUOUS
10
2.66704
20
-1.81813
11
2.67293
21
-1.82206
0
LINE
8
BLACK
6
CONTINUOUS
10
2.67293
20
-1.82206
11
2.67794
21
-1.82707
0
LINE
8
BLACK
6
CONTINUOUS
10
2.67794
20
-1.82707
11
2.68187
21
-1.83296
0
LINE
8
BLACK
6
CONTINUOUS
10
2.68187
20
-1.83296
11
2.68458
21
-1.83951
0
LINE
8
BLACK
6
CONTINUOUS
10
2.68458
20
-1.83951
11
2.68596
21
-1.84646
0
LINE
8
BLACK
6
CONTINUOUS
10
2.68596
20
-1.84646
11
2.68596
21
-1.85354
0
LINE
8
BLACK
6
CONTINUOUS
10
2.68596
20
-1.85354
11
2.68458
21
-1.86049
0
LINE
8
BLACK
6
CONTINUOUS
10
2.68458
20
-1.86049
11
2.68187
21
-1.86704
0
LINE
8
BLACK
6
CONTINUOUS
10
2.68187
20
-1.86704
11
2.67794
21
-1.87293
0
LINE
8
BLACK
6
CONTINUOUS
10
2.67794
20
-1.87293
11
2.67293
21
-1.87794
0
LINE
8
BLACK
6
CONTINUOUS
10
2.67293
20
-1.87794
11
2.66704
21
-1.88187
0
LINE
8
BLACK
6
CONTINUOUS
10
2.66704
20
-1.88187
11
2.6632
21
-1.88346
0
LINE
8
BLACK
6
CONTINUOUS
10
2.6632
20
-1.88346
11
2.66049
21
-1.88458
0
LINE
8
BLACK
6
CONTINUOUS
10
2.66049
20
-1.88458
11
2.65702
21
-1.88527
0
LINE
8
BLACK
6
CONTINUOUS
10
2.65702
20
-1.88527
11
2.65354
21
-1.88596
0
LINE
8
BLACK
6
CONTINUOUS
10
2.65354
20
-1.88596
11
2.64646
21
-1.88596
0
LINE
8
BLACK
6
CONTINUOUS
10
2.64646
20
-1.88596
11
2.64298
21
-1.88527
0
LINE
8
BLACK
6
CONTINUOUS
10
2.64298
20
-1.88527
11
2.63951
21
-1.88458
0
LINE
8
BLACK
6
CONTINUOUS
10
2.63951
20
-1.88458
11
2.6368
21
-1.88346
0
LINE
8
BLACK
6
CONTINUOUS
10
2.6368
20
-1.88346
11
2.63296
21
-1.88187
0
LINE
8
BLACK
6
CONTINUOUS
10
2.63296
20
-1.88187
11
2.62707
21
-1.87794
0
LINE
8
BLACK
6
CONTINUOUS
10
2.62707
20
-1.87794
11
2.62206
21
-1.87293
0
LINE
8
BLACK
6
CONTINUOUS
10
2.62206
20
-1.87293
11
2.61813
21
-1.86704
0
LINE
8
BLACK
6
CONTINUOUS
10
2.61813
20
-1.86704
11
2.61542
21
-1.86049
0
LINE
8
BLACK
6
CONTINUOUS
10
2.61542
20
-1.86049
11
2.61404
21
-1.85354
0
LINE
8
BLACK
6
CONTINUOUS
10
2.61404
20
-1.85354
11
2.61404
21
-1.84646
0
LINE
8
BLACK
6
CONTINUOUS
10
2.61404
20
-1.84646
11
2.61542
21
-1.83951
0
LINE
8
BLACK
6
CONTINUOUS
10
2.61542
20
-1.83951
11
2.61813
21
-1.83296
0
LINE
8
BLACK
6
CONTINUOUS
10
2.61813
20
-1.83296
11
2.62206
21
-1.82707
0
LINE
8
BLACK
6
CONTINUOUS
10
2.62206
20
-1.82707
11
2.62707
21
-1.82206
0
LINE
8
BLACK
6
CONTINUOUS
10
2.62707
20
-1.82206
11
2.63296
21
-1.81813
0
LINE
8
BLACK
6
CONTINUOUS
10
2.63296
20
-1.81813
11
2.6368
21
-1.81654
0
LINE
8
BLACK
6
CONTINUOUS
10
2.6368
20
-1.81654
11
2.63951
21
-1.81542
0
LINE
8
BLACK
6
CONTINUOUS
10
2.63951
20
-1.81542
11
2.64298
21
-1.81473
0
LINE
8
BLACK
6
CONTINUOUS
10
2.64298
20
-1.81473
11
2.64646
21
-1.81404
0
LINE
8
BLACK
6
CONTINUOUS
10
2.64646
20
-1.81404
11
2.65354
21
-1.81404
0
LINE
8
BLACK
6
CONTINUOUS
10
2.65354
20
-1.81404
11
2.65702
21
-1.81473
0
LINE
8
BLACK
6
CONTINUOUS
10
2.45702
20
-1.81473
11
2.46049
21
-1.81542
0
LINE
8
BLACK
6
CONTINUOUS
10
2.46049
20
-1.81542
11
2.4632
21
-1.81654
0
LINE
8
BLACK
6
CONTINUOUS
10
2.4632
20
-1.81654
11
2.46704
21
-1.81813
0
LINE
8
BLACK
6
CONTINUOUS
10
2.46704
20
-1.81813
11
2.47293
21
-1.82206
0
LINE
8
BLACK
6
CONTINUOUS
10
2.47293
20
-1.82206
11
2.47794
21
-1.82707
0
LINE
8
BLACK
6
CONTINUOUS
10
2.47794
20
-1.82707
11
2.48187
21
-1.83296
0
LINE
8
BLACK
6
CONTINUOUS
10
2.48187
20
-1.83296
11
2.48458
21
-1.83951
0
LINE
8
BLACK
6
CONTINUOUS
10
2.48458
20
-1.83951
11
2.48596
21
-1.84646
0
LINE
8
BLACK
6
CONTINUOUS
10
2.48596
20
-1.84646
11
2.48596
21
-1.85354
0
LINE
8
BLACK
6
CONTINUOUS
10
2.48596
20
-1.85354
11
2.48458
21
-1.86049
0
LINE
8
BLACK
6
CONTINUOUS
10
2.48458
20
-1.86049
11
2.48187
21
-1.86704
0
LINE
8
BLACK
6
CONTINUOUS
10
2.48187
20
-1.86704
11
2.47794
21
-1.87293
0
LINE
8
BLACK
6
CONTINUOUS
10
2.47794
20
-1.87293
11
2.47293
21
-1.87794
0
LINE
8
BLACK
6
CONTINUOUS
10
2.47293
20
-1.87794
11
2.46704
21
-1.88187
0
LINE
8
BLACK
6
CONTINUOUS
10
2.46704
20
-1.88187
11
2.4632
21
-1.88346
0
LINE
8
BLACK
6
CONTINUOUS
10
2.4632
20
-1.88346
11
2.46049
21
-1.88458
0
LINE
8
BLACK
6
CONTINUOUS
10
2.46049
20
-1.88458
11
2.45702
21
-1.88527
0
LINE
8
BLACK
6
CONTINUOUS
10
2.45702
20
-1.88527
11
2.45354
21
-1.88596
0
LINE
8
BLACK
6
CONTINUOUS
10
2.45354
20
-1.88596
11
2.44646
21
-1.88596
0
LINE
8
BLACK
6
CONTINUOUS
10
2.44646
20
-1.88596
11
2.44298
21
-1.88527
0
LINE
8
BLACK
6
CONTINUOUS
10
2.44298
20
-1.88527
11
2.43951
21
-1.88458
0
LINE
8
BLACK
6
CONTINUOUS
10
2.43951
20
-1.88458
11
2.4368
21
-1.88346
0
LINE
8
BLACK
6
CONTINUOUS
10
2.4368
20
-1.88346
11
2.43296
21
-1.88187
0
LINE
8
BLACK
6
CONTINUOUS
10
2.43296
20
-1.88187
11
2.42707
21
-1.87794
0
LINE
8
BLACK
6
CONTINUOUS
10
2.42707
20
-1.87794
11
2.42206
21
-1.87293
0
LINE
8
BLACK
6
CONTINUOUS
10
2.42206
20
-1.87293
11
2.41813
21
-1.86704
0
LINE
8
BLACK
6
CONTINUOUS
10
2.41813
20
-1.86704
11
2.41542
21
-1.86049
0
LINE
8
BLACK
6
CONTINUOUS
10
2.41542
20
-1.86049
11
2.41404
21
-1.85354
0
LINE
8
BLACK
6
CONTINUOUS
10
2.41404
20
-1.85354
11
2.41404
21
-1.84646
0
LINE
8
BLACK
6
CONTINUOUS
10
2.41404
20
-1.84646
11
2.41542
21
-1.83951
0
LINE
8
BLACK
6
CONTINUOUS
10
2.41542
20
-1.83951
11
2.41813
21
-1.83296
0
LINE
8
BLACK
6
CONTINUOUS
10
2.41813
20
-1.83296
11
2.42206
21
-1.82707
0
LINE
8
BLACK
6
CONTINUOUS
10
2.42206
20
-1.82707
11
2.42707
21
-1.82206
0
LINE
8
BLACK
6
CONTINUOUS
10
2.42707
20
-1.82206
11
2.43296
21
-1.81813
0
LINE
8
BLACK
6
CONTINUOUS
10
2.43296
20
-1.81813
11
2.4368
21
-1.81654
0
LINE
8
BLACK
6
CONTINUOUS
10
2.4368
20
-1.81654
11
2.43951
21
-1.81542
0
LINE
8
BLACK
6
CONTINUOUS
10
2.43951
20
-1.81542
11
2.44298
21
-1.81473
0
LINE
8
BLACK
6
CONTINUOUS
10
2.44298
20
-1.81473
11
2.44646
21
-1.81404
0
LINE
8
BLACK
6
CONTINUOUS
10
2.44646
20
-1.81404
11
2.45354
21
-1.81404
0
LINE
8
BLACK
6
CONTINUOUS
10
2.45354
20
-1.81404
11
2.45702
21
-1.81473
0
LINE
8
BLACK
6
CONTINUOUS
10
2.35702
20
-1.81473
11
2.36049
21
-1.81542
0
LINE
8
BLACK
6
CONTINUOUS
10
2.36049
20
-1.81542
11
2.3632
21
-1.81654
0
LINE
8
BLACK
6
CONTINUOUS
10
2.3632
20
-1.81654
11
2.36704
21
-1.81813
0
LINE
8
BLACK
6
CONTINUOUS
10
2.36704
20
-1.81813
11
2.37293
21
-1.82206
0
LINE
8
BLACK
6
CONTINUOUS
10
2.37293
20
-1.82206
11
2.37794
21
-1.82707
0
LINE
8
BLACK
6
CONTINUOUS
10
2.37794
20
-1.82707
11
2.38187
21
-1.83296
0
LINE
8
BLACK
6
CONTINUOUS
10
2.38187
20
-1.83296
11
2.38458
21
-1.83951
0
LINE
8
BLACK
6
CONTINUOUS
10
2.38458
20
-1.83951
11
2.38596
21
-1.84646
0
LINE
8
BLACK
6
CONTINUOUS
10
2.38596
20
-1.84646
11
2.38596
21
-1.85354
0
LINE
8
BLACK
6
CONTINUOUS
10
2.38596
20
-1.85354
11
2.38458
21
-1.86049
0
LINE
8
BLACK
6
CONTINUOUS
10
2.38458
20
-1.86049
11
2.38187
21
-1.86704
0
LINE
8
BLACK
6
CONTINUOUS
10
2.38187
20
-1.86704
11
2.37794
21
-1.87293
0
LINE
8
BLACK
6
CONTINUOUS
10
2.37794
20
-1.87293
11
2.37293
21
-1.87794
0
LINE
8
BLACK
6
CONTINUOUS
10
2.37293
20
-1.87794
11
2.36704
21
-1.88187
0
LINE
8
BLACK
6
CONTINUOUS
10
2.36704
20
-1.88187
11
2.3632
21
-1.88346
0
LINE
8
BLACK
6
CONTINUOUS
10
2.3632
20
-1.88346
11
2.36049
21
-1.88458
0
LINE
8
BLACK
6
CONTINUOUS
10
2.36049
20
-1.88458
11
2.35702
21
-1.88527
0
LINE
8
BLACK
6
CONTINUOUS
10
2.35702
20
-1.88527
11
2.35354
21
-1.88596
0
LINE
8
BLACK
6
CONTINUOUS
10
2.35354
20
-1.88596
11
2.34646
21
-1.88596
0
LINE
8
BLACK
6
CONTINUOUS
10
2.34646
20
-1.88596
11
2.34298
21
-1.88527
0
LINE
8
BLACK
6
CONTINUOUS
10
2.34298
20
-1.88527
11
2.33951
21
-1.88458
0
LINE
8
BLACK
6
CONTINUOUS
10
2.33951
20
-1.88458
11
2.3368
21
-1.88346
0
LINE
8
BLACK
6
CONTINUOUS
10
2.3368
20
-1.88346
11
2.33296
21
-1.88187
0
LINE
8
BLACK
6
CONTINUOUS
10
2.33296
20
-1.88187
11
2.32707
21
-1.87794
0
LINE
8
BLACK
6
CONTINUOUS
10
2.32707
20
-1.87794
11
2.32206
21
-1.87293
0
LINE
8
BLACK
6
CONTINUOUS
10
2.32206
20
-1.87293
11
2.31813
21
-1.86704
0
LINE
8
BLACK
6
CONTINUOUS
10
2.31813
20
-1.86704
11
2.31542
21
-1.86049
0
LINE
8
BLACK
6
CONTINUOUS
10
2.31542
20
-1.86049
11
2.31404
21
-1.85354
0
LINE
8
BLACK
6
CONTINUOUS
10
2.31404
20
-1.85354
11
2.31404
21
-1.84646
0
LINE
8
BLACK
6
CONTINUOUS
10
2.31404
20
-1.84646
11
2.31542
21
-1.83951
0
LINE
8
BLACK
6
CONTINUOUS
10
2.31542
20
-1.83951
11
2.31813
21
-1.83296
0
LINE
8
BLACK
6
CONTINUOUS
10
2.31813
20
-1.83296
11
2.32206
21
-1.82707
0
LINE
8
BLACK
6
CONTINUOUS
10
2.32206
20
-1.82707
11
2.32707
21
-1.82206
0
LINE
8
BLACK
6
CONTINUOUS
10
2.32707
20
-1.82206
11
2.33296
21
-1.81813
0
LINE
8
BLACK
6
CONTINUOUS
10
2.33296
20
-1.81813
11
2.3368
21
-1.81654
0
LINE
8
BLACK
6
CONTINUOUS
10
2.3368
20
-1.81654
11
2.33951
21
-1.81542
0
LINE
8
BLACK
6
CONTINUOUS
10
2.33951
20
-1.81542
11
2.34298
21
-1.81473
0
LINE
8
BLACK
6
CONTINUOUS
10
2.34298
20
-1.81473
11
2.34646
21
-1.81404
0
LINE
8
BLACK
6
CONTINUOUS
10
2.34646
20
-1.81404
11
2.35354
21
-1.81404
0
LINE
8
BLACK
6
CONTINUOUS
10
2.35354
20
-1.81404
11
2.35702
21
-1.81473
0
LINE
8
BLACK
6
CONTINUOUS
10
2.25702
20
-1.81473
11
2.26049
21
-1.81542
0
LINE
8
BLACK
6
CONTINUOUS
10
2.26049
20
-1.81542
11
2.2632
21
-1.81654
0
LINE
8
BLACK
6
CONTINUOUS
10
2.2632
20
-1.81654
11
2.26704
21
-1.81813
0
LINE
8
BLACK
6
CONTINUOUS
10
2.26704
20
-1.81813
11
2.27293
21
-1.82206
0
LINE
8
BLACK
6
CONTINUOUS
10
2.27293
20
-1.82206
11
2.27794
21
-1.82707
0
LINE
8
BLACK
6
CONTINUOUS
10
2.27794
20
-1.82707
11
2.28187
21
-1.83296
0
LINE
8
BLACK
6
CONTINUOUS
10
2.28187
20
-1.83296
11
2.28458
21
-1.83951
0
LINE
8
BLACK
6
CONTINUOUS
10
2.28458
20
-1.83951
11
2.28596
21
-1.84646
0
LINE
8
BLACK
6
CONTINUOUS
10
2.28596
20
-1.84646
11
2.28596
21
-1.85354
0
LINE
8
BLACK
6
CONTINUOUS
10
2.28596
20
-1.85354
11
2.28458
21
-1.86049
0
LINE
8
BLACK
6
CONTINUOUS
10
2.28458
20
-1.86049
11
2.28187
21
-1.86704
0
LINE
8
BLACK
6
CONTINUOUS
10
2.28187
20
-1.86704
11
2.27794
21
-1.87293
0
LINE
8
BLACK
6
CONTINUOUS
10
2.27794
20
-1.87293
11
2.27293
21
-1.87794
0
LINE
8
BLACK
6
CONTINUOUS
10
2.27293
20
-1.87794
11
2.26704
21
-1.88187
0
LINE
8
BLACK
6
CONTINUOUS
10
2.26704
20
-1.88187
11
2.2632
21
-1.88346
0
LINE
8
BLACK
6
CONTINUOUS
10
2.2632
20
-1.88346
11
2.26049
21
-1.88458
0
LINE
8
BLACK
6
CONTINUOUS
10
2.26049
20
-1.88458
11
2.25702
21
-1.88527
0
LINE
8
BLACK
6
CONTINUOUS
10
2.25702
20
-1.88527
11
2.25354
21
-1.88596
0
LINE
8
BLACK
6
CONTINUOUS
10
2.25354
20
-1.88596
11
2.24646
21
-1.88596
0
LINE
8
BLACK
6
CONTINUOUS
10
2.24646
20
-1.88596
11
2.24298
21
-1.88527
0
LINE
8
BLACK
6
CONTINUOUS
10
2.24298
20
-1.88527
11
2.23951
21
-1.88458
0
LINE
8
BLACK
6
CONTINUOUS
10
2.23951
20
-1.88458
11
2.2368
21
-1.88346
0
LINE
8
BLACK
6
CONTINUOUS
10
2.2368
20
-1.88346
11
2.23296
21
-1.88187
0
LINE
8
BLACK
6
CONTINUOUS
10
2.23296
20
-1.88187
11
2.22707
21
-1.87794
0
LINE
8
BLACK
6
CONTINUOUS
10
2.22707
20
-1.87794
11
2.22206
21
-1.87293
0
LINE
8
BLACK
6
CONTINUOUS
10
2.22206
20
-1.87293
11
2.21813
21
-1.86704
0
LINE
8
BLACK
6
CONTINUOUS
10
2.21813
20
-1.86704
11
2.21542
21
-1.86049
0
LINE
8
BLACK
6
CONTINUOUS
10
2.21542
20
-1.86049
11
2.21404
21
-1.85354
0
LINE
8
BLACK
6
CONTINUOUS
10
2.21404
20
-1.85354
11
2.21404
21
-1.84646
0
LINE
8
BLACK
6
CONTINUOUS
10
2.21404
20
-1.84646
11
2.21542
21
-1.83951
0
LINE
8
BLACK
6
CONTINUOUS
10
2.21542
20
-1.83951
11
2.21813
21
-1.83296
0
LINE
8
BLACK
6
CONTINUOUS
10
2.21813
20
-1.83296
11
2.22206
21
-1.82707
0
LINE
8
BLACK
6
CONTINUOUS
10
2.22206
20
-1.82707
11
2.22707
21
-1.82206
0
LINE
8
BLACK
6
CONTINUOUS
10
2.22707
20
-1.82206
11
2.23296
21
-1.81813
0
LINE
8
BLACK
6
CONTINUOUS
10
2.23296
20
-1.81813
11
2.2368
21
-1.81654
0
LINE
8
BLACK
6
CONTINUOUS
10
2.2368
20
-1.81654
11
2.23951
21
-1.81542
0
LINE
8
BLACK
6
CONTINUOUS
10
2.23951
20
-1.81542
11
2.24298
21
-1.81473
0
LINE
8
BLACK
6
CONTINUOUS
10
2.24298
20
-1.81473
11
2.24646
21
-1.81404
0
LINE
8
BLACK
6
CONTINUOUS
10
2.24646
20
-1.81404
11
2.25354
21
-1.81404
0
LINE
8
BLACK
6
CONTINUOUS
10
2.25354
20
-1.81404
11
2.25702
21
-1.81473
0
LINE
8
BLACK
6
CONTINUOUS
10
2.15702
20
-1.81473
11
2.16049
21
-1.81542
0
LINE
8
BLACK
6
CONTINUOUS
10
2.16049
20
-1.81542
11
2.1632
21
-1.81654
0
LINE
8
BLACK
6
CONTINUOUS
10
2.1632
20
-1.81654
11
2.16704
21
-1.81813
0
LINE
8
BLACK
6
CONTINUOUS
10
2.16704
20
-1.81813
11
2.17293
21
-1.82206
0
LINE
8
BLACK
6
CONTINUOUS
10
2.17293
20
-1.82206
11
2.17794
21
-1.82707
0
LINE
8
BLACK
6
CONTINUOUS
10
2.17794
20
-1.82707
11
2.18187
21
-1.83296
0
LINE
8
BLACK
6
CONTINUOUS
10
2.18187
20
-1.83296
11
2.18458
21
-1.83951
0
LINE
8
BLACK
6
CONTINUOUS
10
2.18458
20
-1.83951
11
2.18596
21
-1.84646
0
LINE
8
BLACK
6
CONTINUOUS
10
2.18596
20
-1.84646
11
2.18596
21
-1.85354
0
LINE
8
BLACK
6
CONTINUOUS
10
2.18596
20
-1.85354
11
2.18458
21
-1.86049
0
LINE
8
BLACK
6
CONTINUOUS
10
2.18458
20
-1.86049
11
2.18187
21
-1.86704
0
LINE
8
BLACK
6
CONTINUOUS
10
2.18187
20
-1.86704
11
2.17794
21
-1.87293
0
LINE
8
BLACK
6
CONTINUOUS
10
2.17794
20
-1.87293
11
2.17293
21
-1.87794
0
LINE
8
BLACK
6
CONTINUOUS
10
2.17293
20
-1.87794
11
2.16704
21
-1.88187
0
LINE
8
BLACK
6
CONTINUOUS
10
2.16704
20
-1.88187
11
2.1632
21
-1.88346
0
LINE
8
BLACK
6
CONTINUOUS
10
2.1632
20
-1.88346
11
2.16049
21
-1.88458
0
LINE
8
BLACK
6
CONTINUOUS
10
2.16049
20
-1.88458
11
2.15702
21
-1.88527
0
LINE
8
BLACK
6
CONTINUOUS
10
2.15702
20
-1.88527
11
2.15354
21
-1.88596
0
LINE
8
BLACK
6
CONTINUOUS
10
2.15354
20
-1.88596
11
2.14646
21
-1.88596
0
LINE
8
BLACK
6
CONTINUOUS
10
2.14646
20
-1.88596
11
2.14298
21
-1.88527
0
LINE
8
BLACK
6
CONTINUOUS
10
2.14298
20
-1.88527
11
2.13951
21
-1.88458
0
LINE
8
BLACK
6
CONTINUOUS
10
2.13951
20
-1.88458
11
2.1368
21
-1.88346
0
LINE
8
BLACK
6
CONTINUOUS
10
2.1368
20
-1.88346
11
2.13296
21
-1.88187
0
LINE
8
BLACK
6
CONTINUOUS
10
2.13296
20
-1.88187
11
2.12707
21
-1.87794
0
LINE
8
BLACK
6
CONTINUOUS
10
2.12707
20
-1.87794
11
2.12206
21
-1.87293
0
LINE
8
BLACK
6
CONTINUOUS
10
2.12206
20
-1.87293
11
2.11813
21
-1.86704
0
LINE
8
BLACK
6
CONTINUOUS
10
2.11813
20
-1.86704
11
2.11542
21
-1.86049
0
LINE
8
BLACK
6
CONTINUOUS
10
2.11542
20
-1.86049
11
2.11404
21
-1.85354
0
LINE
8
BLACK
6
CONTINUOUS
10
2.11404
20
-1.85354
11
2.11404
21
-1.84646
0
LINE
8
BLACK
6
CONTINUOUS
10
2.11404
20
-1.84646
11
2.11542
21
-1.83951
0
LINE
8
BLACK
6
CONTINUOUS
10
2.11542
20
-1.83951
11
2.11813
21
-1.83296
0
LINE
8
BLACK
6
CONTINUOUS
10
2.11813
20
-1.83296
11
2.12206
21
-1.82707
0
LINE
8
BLACK
6
CONTINUOUS
10
2.12206
20
-1.82707
11
2.12707
21
-1.82206
0
LINE
8
BLACK
6
CONTINUOUS
10
2.12707
20
-1.82206
11
2.13296
21
-1.81813
0
LINE
8
BLACK
6
CONTINUOUS
10
2.13296
20
-1.81813
11
2.1368
21
-1.81654
0
LINE
8
BLACK
6
CONTINUOUS
10
2.1368
20
-1.81654
11
2.13951
21
-1.81542
0
LINE
8
BLACK
6
CONTINUOUS
10
2.13951
20
-1.81542
11
2.14298
21
-1.81473
0
LINE
8
BLACK
6
CONTINUOUS
10
2.14298
20
-1.81473
11
2.14646
21
-1.81404
0
LINE
8
BLACK
6
CONTINUOUS
10
2.14646
20
-1.81404
11
2.15354
21
-1.81404
0
LINE
8
BLACK
6
CONTINUOUS
10
2.15354
20
-1.81404
11
2.15702
21
-1.81473
0
LINE
8
BLACK
6
CONTINUOUS
10
3.85269
20
-1.43714
11
3.85878
21
-1.43966
0
LINE
8
BLACK
6
CONTINUOUS
10
3.85878
20
-1.43966
11
3.86427
21
-1.44333
0
LINE
8
BLACK
6
CONTINUOUS
10
3.86427
20
-1.44333
11
3.86894
21
-1.448
0
LINE
8
BLACK
6
CONTINUOUS
10
3.86894
20
-1.448
11
3.8726
21
-1.45348
0
LINE
8
BLACK
6
CONTINUOUS
10
3.8726
20
-1.45348
11
3.87513
21
-1.45958
0
LINE
8
BLACK
6
CONTINUOUS
10
3.87513
20
-1.45958
11
3.87642
21
-1.46605
0
LINE
8
BLACK
6
CONTINUOUS
10
3.87642
20
-1.46605
11
3.87642
21
-1.47265
0
LINE
8
BLACK
6
CONTINUOUS
10
3.87642
20
-1.47265
11
3.87513
21
-1.47913
0
LINE
8
BLACK
6
CONTINUOUS
10
3.87513
20
-1.47913
11
3.8726
21
-1.48522
0
LINE
8
BLACK
6
CONTINUOUS
10
3.8726
20
-1.48522
11
3.86894
21
-1.49071
0
LINE
8
BLACK
6
CONTINUOUS
10
3.86894
20
-1.49071
11
3.86427
21
-1.49538
0
LINE
8
BLACK
6
CONTINUOUS
10
3.86427
20
-1.49538
11
3.85878
21
-1.49905
0
LINE
8
BLACK
6
CONTINUOUS
10
3.85878
20
-1.49905
11
3.85269
21
-1.50157
0
LINE
8
BLACK
6
CONTINUOUS
10
3.85269
20
-1.50157
11
3.84621
21
-1.50286
0
LINE
8
BLACK
6
CONTINUOUS
10
3.84621
20
-1.50286
11
3.83961
21
-1.50286
0
LINE
8
BLACK
6
CONTINUOUS
10
3.83961
20
-1.50286
11
3.83314
21
-1.50157
0
LINE
8
BLACK
6
CONTINUOUS
10
3.83314
20
-1.50157
11
3.82704
21
-1.49905
0
LINE
8
BLACK
6
CONTINUOUS
10
3.82704
20
-1.49905
11
3.82156
21
-1.49538
0
LINE
8
BLACK
6
CONTINUOUS
10
3.82156
20
-1.49538
11
3.81689
21
-1.49071
0
LINE
8
BLACK
6
CONTINUOUS
10
3.81689
20
-1.49071
11
3.81322
21
-1.48522
0
LINE
8
BLACK
6
CONTINUOUS
10
3.81322
20
-1.48522
11
3.8107
21
-1.47913
0
LINE
8
BLACK
6
CONTINUOUS
10
3.8107
20
-1.47913
11
3.80941
21
-1.47265
0
LINE
8
BLACK
6
CONTINUOUS
10
3.80941
20
-1.47265
11
3.80941
21
-1.46605
0
LINE
8
BLACK
6
CONTINUOUS
10
3.80941
20
-1.46605
11
3.8107
21
-1.45958
0
LINE
8
BLACK
6
CONTINUOUS
10
3.8107
20
-1.45958
11
3.81322
21
-1.45348
0
LINE
8
BLACK
6
CONTINUOUS
10
3.81322
20
-1.45348
11
3.81689
21
-1.448
0
LINE
8
BLACK
6
CONTINUOUS
10
3.81689
20
-1.448
11
3.82156
21
-1.44333
0
LINE
8
BLACK
6
CONTINUOUS
10
3.82156
20
-1.44333
11
3.82704
21
-1.43966
0
LINE
8
BLACK
6
CONTINUOUS
10
3.82704
20
-1.43966
11
3.83314
21
-1.43714
0
LINE
8
BLACK
6
CONTINUOUS
10
3.83314
20
-1.43714
11
3.83961
21
-1.43585
0
LINE
8
BLACK
6
CONTINUOUS
10
3.83961
20
-1.43585
11
3.84621
21
-1.43585
0
LINE
8
BLACK
6
CONTINUOUS
10
3.84621
20
-1.43585
11
3.85269
21
-1.43714
0
LINE
8
BLACK
6
CONTINUOUS
10
3.85269
20
-1.33871
11
3.85878
21
-1.34124
0
LINE
8
BLACK
6
CONTINUOUS
10
3.85878
20
-1.34124
11
3.86427
21
-1.3449
0
LINE
8
BLACK
6
CONTINUOUS
10
3.86427
20
-1.3449
11
3.86894
21
-1.34957
0
LINE
8
BLACK
6
CONTINUOUS
10
3.86894
20
-1.34957
11
3.8726
21
-1.35506
0
LINE
8
BLACK
6
CONTINUOUS
10
3.8726
20
-1.35506
11
3.87513
21
-1.36116
0
LINE
8
BLACK
6
CONTINUOUS
10
3.87513
20
-1.36116
11
3.87642
21
-1.36763
0
LINE
8
BLACK
6
CONTINUOUS
10
3.87642
20
-1.36763
11
3.87642
21
-1.37423
0
LINE
8
BLACK
6
CONTINUOUS
10
3.87642
20
-1.37423
11
3.87513
21
-1.3807
0
LINE
8
BLACK
6
CONTINUOUS
10
3.87513
20
-1.3807
11
3.8726
21
-1.3868
0
LINE
8
BLACK
6
CONTINUOUS
10
3.8726
20
-1.3868
11
3.86894
21
-1.39229
0
LINE
8
BLACK
6
CONTINUOUS
10
3.86894
20
-1.39229
11
3.86427
21
-1.39695
0
LINE
8
BLACK
6
CONTINUOUS
10
3.86427
20
-1.39695
11
3.85878
21
-1.40062
0
LINE
8
BLACK
6
CONTINUOUS
10
3.85878
20
-1.40062
11
3.85269
21
-1.40315
0
LINE
8
BLACK
6
CONTINUOUS
10
3.85269
20
-1.40315
11
3.84621
21
-1.40443
0
LINE
8
BLACK
6
CONTINUOUS
10
3.84621
20
-1.40443
11
3.83961
21
-1.40443
0
LINE
8
BLACK
6
CONTINUOUS
10
3.83961
20
-1.40443
11
3.83314
21
-1.40315
0
LINE
8
BLACK
6
CONTINUOUS
10
3.83314
20
-1.40315
11
3.82704
21
-1.40062
0
LINE
8
BLACK
6
CONTINUOUS
10
3.82704
20
-1.40062
11
3.82156
21
-1.39695
0
LINE
8
BLACK
6
CONTINUOUS
10
3.82156
20
-1.39695
11
3.81689
21
-1.39229
0
LINE
8
BLACK
6
CONTINUOUS
10
3.81689
20
-1.39229
11
3.81322
21
-1.3868
0
LINE
8
BLACK
6
CONTINUOUS
10
3.81322
20
-1.3868
11
3.8107
21
-1.3807
0
LINE
8
BLACK
6
CONTINUOUS
10
3.8107
20
-1.3807
11
3.80941
21
-1.37423
0
LINE
8
BLACK
6
CONTINUOUS
10
3.80941
20
-1.37423
11
3.80941
21
-1.36763
0
LINE
8
BLACK
6
CONTINUOUS
10
3.80941
20
-1.36763
11
3.8107
21
-1.36116
0
LINE
8
BLACK
6
CONTINUOUS
10
3.8107
20
-1.36116
11
3.81322
21
-1.35506
0
LINE
8
BLACK
6
CONTINUOUS
10
3.81322
20
-1.35506
11
3.81689
21
-1.34957
0
LINE
8
BLACK
6
CONTINUOUS
10
3.81689
20
-1.34957
11
3.82156
21
-1.3449
0
LINE
8
BLACK
6
CONTINUOUS
10
3.82156
20
-1.3449
11
3.82704
21
-1.34124
0
LINE
8
BLACK
6
CONTINUOUS
10
3.82704
20
-1.34124
11
3.83314
21
-1.33871
0
LINE
8
BLACK
6
CONTINUOUS
10
3.83314
20
-1.33871
11
3.83961
21
-1.33743
0
LINE
8
BLACK
6
CONTINUOUS
10
3.83961
20
-1.33743
11
3.84621
21
-1.33743
0
LINE
8
BLACK
6
CONTINUOUS
10
3.84621
20
-1.33743
11
3.85269
21
-1.33871
0
LINE
8
BLACK
6
CONTINUOUS
10
1.65934
20
-1.32552
11
1.66516
21
-1.32793
0
LINE
8
BLACK
6
CONTINUOUS
10
1.66516
20
-1.32793
11
1.6704
21
-1.33144
0
LINE
8
BLACK
6
CONTINUOUS
10
1.6704
20
-1.33144
11
1.67486
21
-1.3359
0
LINE
8
BLACK
6
CONTINUOUS
10
1.67486
20
-1.3359
11
1.67836
21
-1.34114
0
LINE
8
BLACK
6
CONTINUOUS
10
1.67836
20
-1.34114
11
1.68078
21
-1.34696
0
LINE
8
BLACK
6
CONTINUOUS
10
1.68078
20
-1.34696
11
1.68201
21
-1.35315
0
LINE
8
BLACK
6
CONTINUOUS
10
1.68201
20
-1.35315
11
1.68201
21
-1.35945
0
LINE
8
BLACK
6
CONTINUOUS
10
1.68201
20
-1.35945
11
1.68078
21
-1.36564
0
LINE
8
BLACK
6
CONTINUOUS
10
1.68078
20
-1.36564
11
1.67836
21
-1.37146
0
LINE
8
BLACK
6
CONTINUOUS
10
1.67836
20
-1.37146
11
1.67486
21
-1.3767
0
LINE
8
BLACK
6
CONTINUOUS
10
1.67486
20
-1.3767
11
1.6704
21
-1.38116
0
LINE
8
BLACK
6
CONTINUOUS
10
1.6704
20
-1.38116
11
1.66516
21
-1.38466
0
LINE
8
BLACK
6
CONTINUOUS
10
1.66516
20
-1.38466
11
1.65934
21
-1.38708
0
LINE
8
BLACK
6
CONTINUOUS
10
1.65934
20
-1.38708
11
1.65315
21
-1.38831
0
LINE
8
BLACK
6
CONTINUOUS
10
1.65315
20
-1.38831
11
1.64685
21
-1.38831
0
LINE
8
BLACK
6
CONTINUOUS
10
1.64685
20
-1.38831
11
1.64066
21
-1.38708
0
LINE
8
BLACK
6
CONTINUOUS
10
1.64066
20
-1.38708
11
1.63484
21
-1.38466
0
LINE
8
BLACK
6
CONTINUOUS
10
1.63484
20
-1.38466
11
1.6296
21
-1.38116
0
LINE
8
BLACK
6
CONTINUOUS
10
1.6296
20
-1.38116
11
1.62514
21
-1.3767
0
LINE
8
BLACK
6
CONTINUOUS
10
1.62514
20
-1.3767
11
1.62163
21
-1.37146
0
LINE
8
BLACK
6
CONTINUOUS
10
1.62163
20
-1.37146
11
1.61922
21
-1.36564
0
LINE
8
BLACK
6
CONTINUOUS
10
1.61922
20
-1.36564
11
1.61799
21
-1.35945
0
LINE
8
BLACK
6
CONTINUOUS
10
1.61799
20
-1.35945
11
1.61799
21
-1.35315
0
LINE
8
BLACK
6
CONTINUOUS
10
1.61799
20
-1.35315
11
1.61922
21
-1.34696
0
LINE
8
BLACK
6
CONTINUOUS
10
1.61922
20
-1.34696
11
1.62163
21
-1.34114
0
LINE
8
BLACK
6
CONTINUOUS
10
1.62163
20
-1.34114
11
1.62514
21
-1.3359
0
LINE
8
BLACK
6
CONTINUOUS
10
1.62514
20
-1.3359
11
1.6296
21
-1.33144
0
LINE
8
BLACK
6
CONTINUOUS
10
1.6296
20
-1.33144
11
1.63484
21
-1.32793
0
LINE
8
BLACK
6
CONTINUOUS
10
1.63484
20
-1.32793
11
1.64066
21
-1.32552
0
LINE
8
BLACK
6
CONTINUOUS
10
1.64066
20
-1.32552
11
1.64685
21
-1.32429
0
LINE
8
BLACK
6
CONTINUOUS
10
1.64685
20
-1.32429
11
1.65315
21
-1.32429
0
LINE
8
BLACK
6
CONTINUOUS
10
1.65315
20
-1.32429
11
1.65934
21
-1.32552
0
LINE
8
BLACK
6
CONTINUOUS
10
2.25934
20
-1.32552
11
2.26516
21
-1.32793
0
LINE
8
BLACK
6
CONTINUOUS
10
2.26516
20
-1.32793
11
2.2704
21
-1.33144
0
LINE
8
BLACK
6
CONTINUOUS
10
2.2704
20
-1.33144
11
2.27486
21
-1.3359
0
LINE
8
BLACK
6
CONTINUOUS
10
2.27486
20
-1.3359
11
2.27836
21
-1.34114
0
LINE
8
BLACK
6
CONTINUOUS
10
2.27836
20
-1.34114
11
2.28078
21
-1.34696
0
LINE
8
BLACK
6
CONTINUOUS
10
2.28078
20
-1.34696
11
2.28201
21
-1.35315
0
LINE
8
BLACK
6
CONTINUOUS
10
2.28201
20
-1.35315
11
2.28201
21
-1.35945
0
LINE
8
BLACK
6
CONTINUOUS
10
2.28201
20
-1.35945
11
2.28078
21
-1.36564
0
LINE
8
BLACK
6
CONTINUOUS
10
2.28078
20
-1.36564
11
2.27836
21
-1.37146
0
LINE
8
BLACK
6
CONTINUOUS
10
2.27836
20
-1.37146
11
2.27486
21
-1.3767
0
LINE
8
BLACK
6
CONTINUOUS
10
2.27486
20
-1.3767
11
2.2704
21
-1.38116
0
LINE
8
BLACK
6
CONTINUOUS
10
2.2704
20
-1.38116
11
2.26516
21
-1.38466
0
LINE
8
BLACK
6
CONTINUOUS
10
2.26516
20
-1.38466
11
2.25934
21
-1.38708
0
LINE
8
BLACK
6
CONTINUOUS
10
2.25934
20
-1.38708
11
2.25315
21
-1.38831
0
LINE
8
BLACK
6
CONTINUOUS
10
2.25315
20
-1.38831
11
2.24685
21
-1.38831
0
LINE
8
BLACK
6
CONTINUOUS
10
2.24685
20
-1.38831
11
2.24066
21
-1.38708
0
LINE
8
BLACK
6
CONTINUOUS
10
2.24066
20
-1.38708
11
2.23484
21
-1.38466
0
LINE
8
BLACK
6
CONTINUOUS
10
2.23484
20
-1.38466
11
2.2296
21
-1.38116
0
LINE
8
BLACK
6
CONTINUOUS
10
2.2296
20
-1.38116
11
2.22514
21
-1.3767
0
LINE
8
BLACK
6
CONTINUOUS
10
2.22514
20
-1.3767
11
2.22164
21
-1.37146
0
LINE
8
BLACK
6
CONTINUOUS
10
2.22164
20
-1.37146
11
2.21922
21
-1.36564
0
LINE
8
BLACK
6
CONTINUOUS
10
2.21922
20
-1.36564
11
2.21799
21
-1.35945
0
LINE
8
BLACK
6
CONTINUOUS
10
2.21799
20
-1.35945
11
2.21799
21
-1.35315
0
LINE
8
BLACK
6
CONTINUOUS
10
2.21799
20
-1.35315
11
2.21922
21
-1.34696
0
LINE
8
BLACK
6
CONTINUOUS
10
2.21922
20
-1.34696
11
2.22164
21
-1.34114
0
LINE
8
BLACK
6
CONTINUOUS
10
2.22164
20
-1.34114
11
2.22514
21
-1.3359
0
LINE
8
BLACK
6
CONTINUOUS
10
2.22514
20
-1.3359
11
2.2296
21
-1.33144
0
LINE
8
BLACK
6
CONTINUOUS
10
2.2296
20
-1.33144
11
2.23484
21
-1.32793
0
LINE
8
BLACK
6
CONTINUOUS
10
2.23484
20
-1.32793
11
2.24066
21
-1.32552
0
LINE
8
BLACK
6
CONTINUOUS
10
2.24066
20
-1.32552
11
2.24685
21
-1.32429
0
LINE
8
BLACK
6
CONTINUOUS
10
2.24685
20
-1.32429
11
2.25315
21
-1.32429
0
LINE
8
BLACK
6
CONTINUOUS
10
2.25315
20
-1.32429
11
2.25934
21
-1.32552
0
LINE
8
BLACK
6
CONTINUOUS
10
1.05934
20
-1.32552
11
1.06516
21
-1.32793
0
LINE
8
BLACK
6
CONTINUOUS
10
1.06516
20
-1.32793
11
1.0704
21
-1.33144
0
LINE
8
BLACK
6
CONTINUOUS
10
1.0704
20
-1.33144
11
1.07486
21
-1.3359
0
LINE
8
BLACK
6
CONTINUOUS
10
1.07486
20
-1.3359
11
1.07837
21
-1.34114
0
LINE
8
BLACK
6
CONTINUOUS
10
1.07837
20
-1.34114
11
1.08078
21
-1.34696
0
LINE
8
BLACK
6
CONTINUOUS
10
1.08078
20
-1.34696
11
1.08201
21
-1.35315
0
LINE
8
BLACK
6
CONTINUOUS
10
1.08201
20
-1.35315
11
1.08201
21
-1.35945
0
LINE
8
BLACK
6
CONTINUOUS
10
1.08201
20
-1.35945
11
1.08078
21
-1.36564
0
LINE
8
BLACK
6
CONTINUOUS
10
1.08078
20
-1.36564
11
1.07837
21
-1.37146
0
LINE
8
BLACK
6
CONTINUOUS
10
1.07837
20
-1.37146
11
1.07486
21
-1.3767
0
LINE
8
BLACK
6
CONTINUOUS
10
1.07486
20
-1.3767
11
1.0704
21
-1.38116
0
LINE
8
BLACK
6
CONTINUOUS
10
1.0704
20
-1.38116
11
1.06516
21
-1.38466
0
LINE
8
BLACK
6
CONTINUOUS
10
1.06516
20
-1.38466
11
1.05934
21
-1.38708
0
LINE
8
BLACK
6
CONTINUOUS
10
1.05934
20
-1.38708
11
1.05315
21
-1.38831
0
LINE
8
BLACK
6
CONTINUOUS
10
1.05315
20
-1.38831
11
1.04685
21
-1.38831
0
LINE
8
BLACK
6
CONTINUOUS
10
1.04685
20
-1.38831
11
1.04066
21
-1.38708
0
LINE
8
BLACK
6
CONTINUOUS
10
1.04066
20
-1.38708
11
1.03484
21
-1.38466
0
LINE
8
BLACK
6
CONTINUOUS
10
1.03484
20
-1.38466
11
1.0296
21
-1.38116
0
LINE
8
BLACK
6
CONTINUOUS
10
1.0296
20
-1.38116
11
1.02514
21
-1.3767
0
LINE
8
BLACK
6
CONTINUOUS
10
1.02514
20
-1.3767
11
1.02164
21
-1.37146
0
LINE
8
BLACK
6
CONTINUOUS
10
1.02164
20
-1.37146
11
1.01922
21
-1.36564
0
LINE
8
BLACK
6
CONTINUOUS
10
1.01922
20
-1.36564
11
1.01799
21
-1.35945
0
LINE
8
BLACK
6
CONTINUOUS
10
1.01799
20
-1.35945
11
1.01799
21
-1.35315
0
LINE
8
BLACK
6
CONTINUOUS
10
1.01799
20
-1.35315
11
1.01922
21
-1.34696
0
LINE
8
BLACK
6
CONTINUOUS
10
1.01922
20
-1.34696
11
1.02164
21
-1.34114
0
LINE
8
BLACK
6
CONTINUOUS
10
1.02164
20
-1.34114
11
1.02514
21
-1.3359
0
LINE
8
BLACK
6
CONTINUOUS
10
1.02514
20
-1.3359
11
1.0296
21
-1.33144
0
LINE
8
BLACK
6
CONTINUOUS
10
1.0296
20
-1.33144
11
1.03484
21
-1.32793
0
LINE
8
BLACK
6
CONTINUOUS
10
1.03484
20
-1.32793
11
1.04066
21
-1.32552
0
LINE
8
BLACK
6
CONTINUOUS
10
1.04066
20
-1.32552
11
1.04685
21
-1.32429
0
LINE
8
BLACK
6
CONTINUOUS
10
1.04685
20
-1.32429
11
1.05315
21
-1.32429
0
LINE
8
BLACK
6
CONTINUOUS
10
1.05315
20
-1.32429
11
1.05934
21
-1.32552
0
LINE
8
BLACK
6
CONTINUOUS
10
2.85934
20
-1.32552
11
2.86516
21
-1.32793
0
LINE
8
BLACK
6
CONTINUOUS
10
2.86516
20
-1.32793
11
2.8704
21
-1.33144
0
LINE
8
BLACK
6
CONTINUOUS
10
2.8704
20
-1.33144
11
2.87486
21
-1.3359
0
LINE
8
BLACK
6
CONTINUOUS
10
2.87486
20
-1.3359
11
2.87837
21
-1.34114
0
LINE
8
BLACK
6
CONTINUOUS
10
2.87837
20
-1.34114
11
2.88078
21
-1.34696
0
LINE
8
BLACK
6
CONTINUOUS
10
2.88078
20
-1.34696
11
2.88201
21
-1.35315
0
LINE
8
BLACK
6
CONTINUOUS
10
2.88201
20
-1.35315
11
2.88201
21
-1.35945
0
LINE
8
BLACK
6
CONTINUOUS
10
2.88201
20
-1.35945
11
2.88078
21
-1.36564
0
LINE
8
BLACK
6
CONTINUOUS
10
2.88078
20
-1.36564
11
2.87837
21
-1.37146
0
LINE
8
BLACK
6
CONTINUOUS
10
2.87837
20
-1.37146
11
2.87486
21
-1.3767
0
LINE
8
BLACK
6
CONTINUOUS
10
2.87486
20
-1.3767
11
2.8704
21
-1.38116
0
LINE
8
BLACK
6
CONTINUOUS
10
2.8704
20
-1.38116
11
2.86516
21
-1.38466
0
LINE
8
BLACK
6
CONTINUOUS
10
2.86516
20
-1.38466
11
2.85934
21
-1.38708
0
LINE
8
BLACK
6
CONTINUOUS
10
2.85934
20
-1.38708
11
2.85315
21
-1.38831
0
LINE
8
BLACK
6
CONTINUOUS
10
2.85315
20
-1.38831
11
2.84685
21
-1.38831
0
LINE
8
BLACK
6
CONTINUOUS
10
2.84685
20
-1.38831
11
2.84066
21
-1.38708
0
LINE
8
BLACK
6
CONTINUOUS
10
2.84066
20
-1.38708
11
2.83484
21
-1.38466
0
LINE
8
BLACK
6
CONTINUOUS
10
2.83484
20
-1.38466
11
2.8296
21
-1.38116
0
LINE
8
BLACK
6
CONTINUOUS
10
2.8296
20
-1.38116
11
2.82514
21
-1.3767
0
LINE
8
BLACK
6
CONTINUOUS
10
2.82514
20
-1.3767
11
2.82164
21
-1.37146
0
LINE
8
BLACK
6
CONTINUOUS
10
2.82164
20
-1.37146
11
2.81922
21
-1.36564
0
LINE
8
BLACK
6
CONTINUOUS
10
2.81922
20
-1.36564
11
2.81799
21
-1.35945
0
LINE
8
BLACK
6
CONTINUOUS
10
2.81799
20
-1.35945
11
2.81799
21
-1.35315
0
LINE
8
BLACK
6
CONTINUOUS
10
2.81799
20
-1.35315
11
2.81922
21
-1.34696
0
LINE
8
BLACK
6
CONTINUOUS
10
2.81922
20
-1.34696
11
2.82164
21
-1.34114
0
LINE
8
BLACK
6
CONTINUOUS
10
2.82164
20
-1.34114
11
2.82514
21
-1.3359
0
LINE
8
BLACK
6
CONTINUOUS
10
2.82514
20
-1.3359
11
2.8296
21
-1.33144
0
LINE
8
BLACK
6
CONTINUOUS
10
2.8296
20
-1.33144
11
2.83484
21
-1.32793
0
LINE
8
BLACK
6
CONTINUOUS
10
2.83484
20
-1.32793
11
2.84066
21
-1.32552
0
LINE
8
BLACK
6
CONTINUOUS
10
2.84066
20
-1.32552
11
2.84685
21
-1.32429
0
LINE
8
BLACK
6
CONTINUOUS
10
2.84685
20
-1.32429
11
2.85315
21
-1.32429
0
LINE
8
BLACK
6
CONTINUOUS
10
2.85315
20
-1.32429
11
2.85934
21
-1.32552
0
LINE
8
BLACK
6
CONTINUOUS
10
2.15934
20
-1.31922
11
2.16516
21
-1.32163
0
LINE
8
BLACK
6
CONTINUOUS
10
2.16516
20
-1.32163
11
2.1704
21
-1.32514
0
LINE
8
BLACK
6
CONTINUOUS
10
2.1704
20
-1.32514
11
2.17486
21
-1.3296
0
LINE
8
BLACK
6
CONTINUOUS
10
2.17486
20
-1.3296
11
2.17836
21
-1.33484
0
LINE
8
BLACK
6
CONTINUOUS
10
2.17836
20
-1.33484
11
2.18078
21
-1.34066
0
LINE
8
BLACK
6
CONTINUOUS
10
2.18078
20
-1.34066
11
2.18201
21
-1.34685
0
LINE
8
BLACK
6
CONTINUOUS
10
2.18201
20
-1.34685
11
2.18201
21
-1.35315
0
LINE
8
BLACK
6
CONTINUOUS
10
2.18201
20
-1.35315
11
2.18078
21
-1.35934
0
LINE
8
BLACK
6
CONTINUOUS
10
2.18078
20
-1.35934
11
2.17836
21
-1.36516
0
LINE
8
BLACK
6
CONTINUOUS
10
2.17836
20
-1.36516
11
2.17486
21
-1.3704
0
LINE
8
BLACK
6
CONTINUOUS
10
2.17486
20
-1.3704
11
2.1704
21
-1.37486
0
LINE
8
BLACK
6
CONTINUOUS
10
2.1704
20
-1.37486
11
2.16516
21
-1.37837
0
LINE
8
BLACK
6
CONTINUOUS
10
2.16516
20
-1.37837
11
2.15934
21
-1.38078
0
LINE
8
BLACK
6
CONTINUOUS
10
2.15934
20
-1.38078
11
2.15315
21
-1.38201
0
LINE
8
BLACK
6
CONTINUOUS
10
2.15315
20
-1.38201
11
2.14685
21
-1.38201
0
LINE
8
BLACK
6
CONTINUOUS
10
2.14685
20
-1.38201
11
2.14066
21
-1.38078
0
LINE
8
BLACK
6
CONTINUOUS
10
2.14066
20
-1.38078
11
2.13484
21
-1.37837
0
LINE
8
BLACK
6
CONTINUOUS
10
2.13484
20
-1.37837
11
2.1296
21
-1.37486
0
LINE
8
BLACK
6
CONTINUOUS
10
2.1296
20
-1.37486
11
2.12514
21
-1.3704
0
LINE
8
BLACK
6
CONTINUOUS
10
2.12514
20
-1.3704
11
2.12163
21
-1.36516
0
LINE
8
BLACK
6
CONTINUOUS
10
2.12163
20
-1.36516
11
2.11922
21
-1.35934
0
LINE
8
BLACK
6
CONTINUOUS
10
2.11922
20
-1.35934
11
2.11799
21
-1.35315
0
LINE
8
BLACK
6
CONTINUOUS
10
2.11799
20
-1.35315
11
2.11799
21
-1.34685
0
LINE
8
BLACK
6
CONTINUOUS
10
2.11799
20
-1.34685
11
2.11922
21
-1.34066
0
LINE
8
BLACK
6
CONTINUOUS
10
2.11922
20
-1.34066
11
2.12163
21
-1.33484
0
LINE
8
BLACK
6
CONTINUOUS
10
2.12163
20
-1.33484
11
2.12514
21
-1.3296
0
LINE
8
BLACK
6
CONTINUOUS
10
2.12514
20
-1.3296
11
2.1296
21
-1.32514
0
LINE
8
BLACK
6
CONTINUOUS
10
2.1296
20
-1.32514
11
2.13484
21
-1.32163
0
LINE
8
BLACK
6
CONTINUOUS
10
2.13484
20
-1.32163
11
2.14066
21
-1.31922
0
LINE
8
BLACK
6
CONTINUOUS
10
2.14066
20
-1.31922
11
2.14685
21
-1.31799
0
LINE
8
BLACK
6
CONTINUOUS
10
2.14685
20
-1.31799
11
2.15315
21
-1.31799
0
LINE
8
BLACK
6
CONTINUOUS
10
2.15315
20
-1.31799
11
2.15934
21
-1.31922
0
LINE
8
BLACK
6
CONTINUOUS
10
2.35934
20
-1.31922
11
2.36516
21
-1.32163
0
LINE
8
BLACK
6
CONTINUOUS
10
2.36516
20
-1.32163
11
2.3704
21
-1.32514
0
LINE
8
BLACK
6
CONTINUOUS
10
2.3704
20
-1.32514
11
2.37486
21
-1.3296
0
LINE
8
BLACK
6
CONTINUOUS
10
2.37486
20
-1.3296
11
2.37837
21
-1.33484
0
LINE
8
BLACK
6
CONTINUOUS
10
2.37837
20
-1.33484
11
2.38078
21
-1.34066
0
LINE
8
BLACK
6
CONTINUOUS
10
2.38078
20
-1.34066
11
2.38201
21
-1.34685
0
LINE
8
BLACK
6
CONTINUOUS
10
2.38201
20
-1.34685
11
2.38201
21
-1.35315
0
LINE
8
BLACK
6
CONTINUOUS
10
2.38201
20
-1.35315
11
2.38078
21
-1.35934
0
LINE
8
BLACK
6
CONTINUOUS
10
2.38078
20
-1.35934
11
2.37837
21
-1.36516
0
LINE
8
BLACK
6
CONTINUOUS
10
2.37837
20
-1.36516
11
2.37486
21
-1.3704
0
LINE
8
BLACK
6
CONTINUOUS
10
2.37486
20
-1.3704
11
2.3704
21
-1.37486
0
LINE
8
BLACK
6
CONTINUOUS
10
2.3704
20
-1.37486
11
2.36516
21
-1.37837
0
LINE
8
BLACK
6
CONTINUOUS
10
2.36516
20
-1.37837
11
2.35934
21
-1.38078
0
LINE
8
BLACK
6
CONTINUOUS
10
2.35934
20
-1.38078
11
2.35315
21
-1.38201
0
LINE
8
BLACK
6
CONTINUOUS
10
2.35315
20
-1.38201
11
2.34685
21
-1.38201
0
LINE
8
BLACK
6
CONTINUOUS
10
2.34685
20
-1.38201
11
2.34066
21
-1.38078
0
LINE
8
BLACK
6
CONTINUOUS
10
2.34066
20
-1.38078
11
2.33484
21
-1.37837
0
LINE
8
BLACK
6
CONTINUOUS
10
2.33484
20
-1.37837
11
2.3296
21
-1.37486
0
LINE
8
BLACK
6
CONTINUOUS
10
2.3296
20
-1.37486
11
2.32514
21
-1.3704
0
LINE
8
BLACK
6
CONTINUOUS
10
2.32514
20
-1.3704
11
2.32164
21
-1.36516
0
LINE
8
BLACK
6
CONTINUOUS
10
2.32164
20
-1.36516
11
2.31922
21
-1.35934
0
LINE
8
BLACK
6
CONTINUOUS
10
2.31922
20
-1.35934
11
2.31799
21
-1.35315
0
LINE
8
BLACK
6
CONTINUOUS
10
2.31799
20
-1.35315
11
2.31799
21
-1.34685
0
LINE
8
BLACK
6
CONTINUOUS
10
2.31799
20
-1.34685
11
2.31922
21
-1.34066
0
LINE
8
BLACK
6
CONTINUOUS
10
2.31922
20
-1.34066
11
2.32164
21
-1.33484
0
LINE
8
BLACK
6
CONTINUOUS
10
2.32164
20
-1.33484
11
2.32514
21
-1.3296
0
LINE
8
BLACK
6
CONTINUOUS
10
2.32514
20
-1.3296
11
2.3296
21
-1.32514
0
LINE
8
BLACK
6
CONTINUOUS
10
2.3296
20
-1.32514
11
2.33484
21
-1.32163
0
LINE
8
BLACK
6
CONTINUOUS
10
2.33484
20
-1.32163
11
2.34066
21
-1.31922
0
LINE
8
BLACK
6
CONTINUOUS
10
2.34066
20
-1.31922
11
2.34685
21
-1.31799
0
LINE
8
BLACK
6
CONTINUOUS
10
2.34685
20
-1.31799
11
2.35315
21
-1.31799
0
LINE
8
BLACK
6
CONTINUOUS
10
2.35315
20
-1.31799
11
2.35934
21
-1.31922
0
LINE
8
BLACK
6
CONTINUOUS
10
1.55934
20
-1.31922
11
1.56516
21
-1.32163
0
LINE
8
BLACK
6
CONTINUOUS
10
1.56516
20
-1.32163
11
1.5704
21
-1.32514
0
LINE
8
BLACK
6
CONTINUOUS
10
1.5704
20
-1.32514
11
1.57486
21
-1.3296
0
LINE
8
BLACK
6
CONTINUOUS
10
1.57486
20
-1.3296
11
1.57837
21
-1.33484
0
LINE
8
BLACK
6
CONTINUOUS
10
1.57837
20
-1.33484
11
1.58078
21
-1.34066
0
LINE
8
BLACK
6
CONTINUOUS
10
1.58078
20
-1.34066
11
1.58201
21
-1.34685
0
LINE
8
BLACK
6
CONTINUOUS
10
1.58201
20
-1.34685
11
1.58201
21
-1.35315
0
LINE
8
BLACK
6
CONTINUOUS
10
1.58201
20
-1.35315
11
1.58078
21
-1.35934
0
LINE
8
BLACK
6
CONTINUOUS
10
1.58078
20
-1.35934
11
1.57837
21
-1.36516
0
LINE
8
BLACK
6
CONTINUOUS
10
1.57837
20
-1.36516
11
1.57486
21
-1.3704
0
LINE
8
BLACK
6
CONTINUOUS
10
1.57486
20
-1.3704
11
1.5704
21
-1.37486
0
LINE
8
BLACK
6
CONTINUOUS
10
1.5704
20
-1.37486
11
1.56516
21
-1.37837
0
LINE
8
BLACK
6
CONTINUOUS
10
1.56516
20
-1.37837
11
1.55934
21
-1.38078
0
LINE
8
BLACK
6
CONTINUOUS
10
1.55934
20
-1.38078
11
1.55315
21
-1.38201
0
LINE
8
BLACK
6
CONTINUOUS
10
1.55315
20
-1.38201
11
1.54685
21
-1.38201
0
LINE
8
BLACK
6
CONTINUOUS
10
1.54685
20
-1.38201
11
1.54066
21
-1.38078
0
LINE
8
BLACK
6
CONTINUOUS
10
1.54066
20
-1.38078
11
1.53484
21
-1.37837
0
LINE
8
BLACK
6
CONTINUOUS
10
1.53484
20
-1.37837
11
1.5296
21
-1.37486
0
LINE
8
BLACK
6
CONTINUOUS
10
1.5296
20
-1.37486
11
1.52514
21
-1.3704
0
LINE
8
BLACK
6
CONTINUOUS
10
1.52514
20
-1.3704
11
1.52164
21
-1.36516
0
LINE
8
BLACK
6
CONTINUOUS
10
1.52164
20
-1.36516
11
1.51922
21
-1.35934
0
LINE
8
BLACK
6
CONTINUOUS
10
1.51922
20
-1.35934
11
1.51799
21
-1.35315
0
LINE
8
BLACK
6
CONTINUOUS
10
1.51799
20
-1.35315
11
1.51799
21
-1.34685
0
LINE
8
BLACK
6
CONTINUOUS
10
1.51799
20
-1.34685
11
1.51922
21
-1.34066
0
LINE
8
BLACK
6
CONTINUOUS
10
1.51922
20
-1.34066
11
1.52164
21
-1.33484
0
LINE
8
BLACK
6
CONTINUOUS
10
1.52164
20
-1.33484
11
1.52514
21
-1.3296
0
LINE
8
BLACK
6
CONTINUOUS
10
1.52514
20
-1.3296
11
1.5296
21
-1.32514
0
LINE
8
BLACK
6
CONTINUOUS
10
1.5296
20
-1.32514
11
1.53484
21
-1.32163
0
LINE
8
BLACK
6
CONTINUOUS
10
1.53484
20
-1.32163
11
1.54066
21
-1.31922
0
LINE
8
BLACK
6
CONTINUOUS
10
1.54066
20
-1.31922
11
1.54685
21
-1.31799
0
LINE
8
BLACK
6
CONTINUOUS
10
1.54685
20
-1.31799
11
1.55315
21
-1.31799
0
LINE
8
BLACK
6
CONTINUOUS
10
1.55315
20
-1.31799
11
1.55934
21
-1.31922
0
LINE
8
BLACK
6
CONTINUOUS
10
1.75934
20
-1.31922
11
1.76516
21
-1.32163
0
LINE
8
BLACK
6
CONTINUOUS
10
1.76516
20
-1.32163
11
1.7704
21
-1.32514
0
LINE
8
BLACK
6
CONTINUOUS
10
1.7704
20
-1.32514
11
1.77486
21
-1.3296
0
LINE
8
BLACK
6
CONTINUOUS
10
1.77486
20
-1.3296
11
1.77836
21
-1.33484
0
LINE
8
BLACK
6
CONTINUOUS
10
1.77836
20
-1.33484
11
1.78078
21
-1.34066
0
LINE
8
BLACK
6
CONTINUOUS
10
1.78078
20
-1.34066
11
1.78201
21
-1.34685
0
LINE
8
BLACK
6
CONTINUOUS
10
1.78201
20
-1.34685
11
1.78201
21
-1.35315
0
LINE
8
BLACK
6
CONTINUOUS
10
1.78201
20
-1.35315
11
1.78078
21
-1.35934
0
LINE
8
BLACK
6
CONTINUOUS
10
1.78078
20
-1.35934
11
1.77836
21
-1.36516
0
LINE
8
BLACK
6
CONTINUOUS
10
1.77836
20
-1.36516
11
1.77486
21
-1.3704
0
LINE
8
BLACK
6
CONTINUOUS
10
1.77486
20
-1.3704
11
1.7704
21
-1.37486
0
LINE
8
BLACK
6
CONTINUOUS
10
1.7704
20
-1.37486
11
1.76516
21
-1.37837
0
LINE
8
BLACK
6
CONTINUOUS
10
1.76516
20
-1.37837
11
1.75934
21
-1.38078
0
LINE
8
BLACK
6
CONTINUOUS
10
1.75934
20
-1.38078
11
1.75315
21
-1.38201
0
LINE
8
BLACK
6
CONTINUOUS
10
1.75315
20
-1.38201
11
1.74685
21
-1.38201
0
LINE
8
BLACK
6
CONTINUOUS
10
1.74685
20
-1.38201
11
1.74066
21
-1.38078
0
LINE
8
BLACK
6
CONTINUOUS
10
1.74066
20
-1.38078
11
1.73484
21
-1.37837
0
LINE
8
BLACK
6
CONTINUOUS
10
1.73484
20
-1.37837
11
1.7296
21
-1.37486
0
LINE
8
BLACK
6
CONTINUOUS
10
1.7296
20
-1.37486
11
1.72514
21
-1.3704
0
LINE
8
BLACK
6
CONTINUOUS
10
1.72514
20
-1.3704
11
1.72164
21
-1.36516
0
LINE
8
BLACK
6
CONTINUOUS
10
1.72164
20
-1.36516
11
1.71922
21
-1.35934
0
LINE
8
BLACK
6
CONTINUOUS
10
1.71922
20
-1.35934
11
1.71799
21
-1.35315
0
LINE
8
BLACK
6
CONTINUOUS
10
1.71799
20
-1.35315
11
1.71799
21
-1.34685
0
LINE
8
BLACK
6
CONTINUOUS
10
1.71799
20
-1.34685
11
1.71922
21
-1.34066
0
LINE
8
BLACK
6
CONTINUOUS
10
1.71922
20
-1.34066
11
1.72164
21
-1.33484
0
LINE
8
BLACK
6
CONTINUOUS
10
1.72164
20
-1.33484
11
1.72514
21
-1.3296
0
LINE
8
BLACK
6
CONTINUOUS
10
1.72514
20
-1.3296
11
1.7296
21
-1.32514
0
LINE
8
BLACK
6
CONTINUOUS
10
1.7296
20
-1.32514
11
1.73484
21
-1.32163
0
LINE
8
BLACK
6
CONTINUOUS
10
1.73484
20
-1.32163
11
1.74066
21
-1.31922
0
LINE
8
BLACK
6
CONTINUOUS
10
1.74066
20
-1.31922
11
1.74685
21
-1.31799
0
LINE
8
BLACK
6
CONTINUOUS
10
1.74685
20
-1.31799
11
1.75315
21
-1.31799
0
LINE
8
BLACK
6
CONTINUOUS
10
1.75315
20
-1.31799
11
1.75934
21
-1.31922
0
LINE
8
BLACK
6
CONTINUOUS
10
0.959336
20
-1.31922
11
0.965161
21
-1.32163
0
LINE
8
BLACK
6
CONTINUOUS
10
0.965161
20
-1.32163
11
0.970404
21
-1.32514
0
LINE
8
BLACK
6
CONTINUOUS
10
0.970404
20
-1.32514
11
0.974862
21
-1.3296
0
LINE
8
BLACK
6
CONTINUOUS
10
0.974862
20
-1.3296
11
0.978365
21
-1.33484
0
LINE
8
BLACK
6
CONTINUOUS
10
0.978365
20
-1.33484
11
0.980778
21
-1.34066
0
LINE
8
BLACK
6
CONTINUOUS
10
0.980778
20
-1.34066
11
0.982008
21
-1.34685
0
LINE
8
BLACK
6
CONTINUOUS
10
0.982008
20
-1.34685
11
0.982008
21
-1.35315
0
LINE
8
BLACK
6
CONTINUOUS
10
0.982008
20
-1.35315
11
0.980778
21
-1.35934
0
LINE
8
BLACK
6
CONTINUOUS
10
0.980778
20
-1.35934
11
0.978365
21
-1.36516
0
LINE
8
BLACK
6
CONTINUOUS
10
0.978365
20
-1.36516
11
0.974862
21
-1.3704
0
LINE
8
BLACK
6
CONTINUOUS
10
0.974862
20
-1.3704
11
0.970404
21
-1.37486
0
LINE
8
BLACK
6
CONTINUOUS
10
0.970404
20
-1.37486
11
0.965161
21
-1.37837
0
LINE
8
BLACK
6
CONTINUOUS
10
0.965161
20
-1.37837
11
0.959336
21
-1.38078
0
LINE
8
BLACK
6
CONTINUOUS
10
0.959336
20
-1.38078
11
0.953153
21
-1.38201
0
LINE
8
BLACK
6
CONTINUOUS
10
0.953153
20
-1.38201
11
0.946847
21
-1.38201
0
LINE
8
BLACK
6
CONTINUOUS
10
0.946847
20
-1.38201
11
0.940664
21
-1.38078
0
LINE
8
BLACK
6
CONTINUOUS
10
0.940664
20
-1.38078
11
0.934839
21
-1.37837
0
LINE
8
BLACK
6
CONTINUOUS
10
0.934839
20
-1.37837
11
0.929596
21
-1.37486
0
LINE
8
BLACK
6
CONTINUOUS
10
0.929596
20
-1.37486
11
0.925138
21
-1.3704
0
LINE
8
BLACK
6
CONTINUOUS
10
0.925138
20
-1.3704
11
0.921635
21
-1.36516
0
LINE
8
BLACK
6
CONTINUOUS
10
0.921635
20
-1.36516
11
0.919222
21
-1.35934
0
LINE
8
BLACK
6
CONTINUOUS
10
0.919222
20
-1.35934
11
0.917992
21
-1.35315
0
LINE
8
BLACK
6
CONTINUOUS
10
0.917992
20
-1.35315
11
0.917992
21
-1.34685
0
LINE
8
BLACK
6
CONTINUOUS
10
0.917992
20
-1.34685
11
0.919222
21
-1.34066
0
LINE
8
BLACK
6
CONTINUOUS
10
0.919222
20
-1.34066
11
0.921635
21
-1.33484
0
LINE
8
BLACK
6
CONTINUOUS
10
0.921635
20
-1.33484
11
0.925138
21
-1.3296
0
LINE
8
BLACK
6
CONTINUOUS
10
0.925138
20
-1.3296
11
0.929596
21
-1.32514
0
LINE
8
BLACK
6
CONTINUOUS
10
0.929596
20
-1.32514
11
0.934839
21
-1.32163
0
LINE
8
BLACK
6
CONTINUOUS
10
0.934839
20
-1.32163
11
0.940664
21
-1.31922
0
LINE
8
BLACK
6
CONTINUOUS
10
0.940664
20
-1.31922
11
0.946847
21
-1.31799
0
LINE
8
BLACK
6
CONTINUOUS
10
0.946847
20
-1.31799
11
0.953153
21
-1.31799
0
LINE
8
BLACK
6
CONTINUOUS
10
0.953153
20
-1.31799
11
0.959336
21
-1.31922
0
LINE
8
BLACK
6
CONTINUOUS
10
1.15934
20
-1.31922
11
1.16516
21
-1.32163
0
LINE
8
BLACK
6
CONTINUOUS
10
1.16516
20
-1.32163
11
1.1704
21
-1.32514
0
LINE
8
BLACK
6
CONTINUOUS
10
1.1704
20
-1.32514
11
1.17486
21
-1.3296
0
LINE
8
BLACK
6
CONTINUOUS
10
1.17486
20
-1.3296
11
1.17836
21
-1.33484
0
LINE
8
BLACK
6
CONTINUOUS
10
1.17836
20
-1.33484
11
1.18078
21
-1.34066
0
LINE
8
BLACK
6
CONTINUOUS
10
1.18078
20
-1.34066
11
1.18201
21
-1.34685
0
LINE
8
BLACK
6
CONTINUOUS
10
1.18201
20
-1.34685
11
1.18201
21
-1.35315
0
LINE
8
BLACK
6
CONTINUOUS
10
1.18201
20
-1.35315
11
1.18078
21
-1.35934
0
LINE
8
BLACK
6
CONTINUOUS
10
1.18078
20
-1.35934
11
1.17836
21
-1.36516
0
LINE
8
BLACK
6
CONTINUOUS
10
1.17836
20
-1.36516
11
1.17486
21
-1.3704
0
LINE
8
BLACK
6
CONTINUOUS
10
1.17486
20
-1.3704
11
1.1704
21
-1.37486
0
LINE
8
BLACK
6
CONTINUOUS
10
1.1704
20
-1.37486
11
1.16516
21
-1.37837
0
LINE
8
BLACK
6
CONTINUOUS
10
1.16516
20
-1.37837
11
1.15934
21
-1.38078
0
LINE
8
BLACK
6
CONTINUOUS
10
1.15934
20
-1.38078
11
1.15315
21
-1.38201
0
LINE
8
BLACK
6
CONTINUOUS
10
1.15315
20
-1.38201
11
1.14685
21
-1.38201
0
LINE
8
BLACK
6
CONTINUOUS
10
1.14685
20
-1.38201
11
1.14066
21
-1.38078
0
LINE
8
BLACK
6
CONTINUOUS
10
1.14066
20
-1.38078
11
1.13484
21
-1.37837
0
LINE
8
BLACK
6
CONTINUOUS
10
1.13484
20
-1.37837
11
1.1296
21
-1.37486
0
LINE
8
BLACK
6
CONTINUOUS
10
1.1296
20
-1.37486
11
1.12514
21
-1.3704
0
LINE
8
BLACK
6
CONTINUOUS
10
1.12514
20
-1.3704
11
1.12163
21
-1.36516
0
LINE
8
BLACK
6
CONTINUOUS
10
1.12163
20
-1.36516
11
1.11922
21
-1.35934
0
LINE
8
BLACK
6
CONTINUOUS
10
1.11922
20
-1.35934
11
1.11799
21
-1.35315
0
LINE
8
BLACK
6
CONTINUOUS
10
1.11799
20
-1.35315
11
1.11799
21
-1.34685
0
LINE
8
BLACK
6
CONTINUOUS
10
1.11799
20
-1.34685
11
1.11922
21
-1.34066
0
LINE
8
BLACK
6
CONTINUOUS
10
1.11922
20
-1.34066
11
1.12163
21
-1.33484
0
LINE
8
BLACK
6
CONTINUOUS
10
1.12163
20
-1.33484
11
1.12514
21
-1.3296
0
LINE
8
BLACK
6
CONTINUOUS
10
1.12514
20
-1.3296
11
1.1296
21
-1.32514
0
LINE
8
BLACK
6
CONTINUOUS
10
1.1296
20
-1.32514
11
1.13484
21
-1.32163
0
LINE
8
BLACK
6
CONTINUOUS
10
1.13484
20
-1.32163
11
1.14066
21
-1.31922
0
LINE
8
BLACK
6
CONTINUOUS
10
1.14066
20
-1.31922
11
1.14685
21
-1.31799
0
LINE
8
BLACK
6
CONTINUOUS
10
1.14685
20
-1.31799
11
1.15315
21
-1.31799
0
LINE
8
BLACK
6
CONTINUOUS
10
1.15315
20
-1.31799
11
1.15934
21
-1.31922
0
LINE
8
BLACK
6
CONTINUOUS
10
2.75934
20
-1.31922
11
2.76516
21
-1.32163
0
LINE
8
BLACK
6
CONTINUOUS
10
2.76516
20
-1.32163
11
2.7704
21
-1.32514
0
LINE
8
BLACK
6
CONTINUOUS
10
2.7704
20
-1.32514
11
2.77486
21
-1.3296
0
LINE
8
BLACK
6
CONTINUOUS
10
2.77486
20
-1.3296
11
2.77836
21
-1.33484
0
LINE
8
BLACK
6
CONTINUOUS
10
2.77836
20
-1.33484
11
2.78078
21
-1.34066
0
LINE
8
BLACK
6
CONTINUOUS
10
2.78078
20
-1.34066
11
2.78201
21
-1.34685
0
LINE
8
BLACK
6
CONTINUOUS
10
2.78201
20
-1.34685
11
2.78201
21
-1.35315
0
LINE
8
BLACK
6
CONTINUOUS
10
2.78201
20
-1.35315
11
2.78078
21
-1.35934
0
LINE
8
BLACK
6
CONTINUOUS
10
2.78078
20
-1.35934
11
2.77836
21
-1.36516
0
LINE
8
BLACK
6
CONTINUOUS
10
2.77836
20
-1.36516
11
2.77486
21
-1.3704
0
LINE
8
BLACK
6
CONTINUOUS
10
2.77486
20
-1.3704
11
2.7704
21
-1.37486
0
LINE
8
BLACK
6
CONTINUOUS
10
2.7704
20
-1.37486
11
2.76516
21
-1.37837
0
LINE
8
BLACK
6
CONTINUOUS
10
2.76516
20
-1.37837
11
2.75934
21
-1.38078
0
LINE
8
BLACK
6
CONTINUOUS
10
2.75934
20
-1.38078
11
2.75315
21
-1.38201
0
LINE
8
BLACK
6
CONTINUOUS
10
2.75315
20
-1.38201
11
2.74685
21
-1.38201
0
LINE
8
BLACK
6
CONTINUOUS
10
2.74685
20
-1.38201
11
2.74066
21
-1.38078
0
LINE
8
BLACK
6
CONTINUOUS
10
2.74066
20
-1.38078
11
2.73484
21
-1.37837
0
LINE
8
BLACK
6
CONTINUOUS
10
2.73484
20
-1.37837
11
2.7296
21
-1.37486
0
LINE
8
BLACK
6
CONTINUOUS
10
2.7296
20
-1.37486
11
2.72514
21
-1.3704
0
LINE
8
BLACK
6
CONTINUOUS
10
2.72514
20
-1.3704
11
2.72164
21
-1.36516
0
LINE
8
BLACK
6
CONTINUOUS
10
2.72164
20
-1.36516
11
2.71922
21
-1.35934
0
LINE
8
BLACK
6
CONTINUOUS
10
2.71922
20
-1.35934
11
2.71799
21
-1.35315
0
LINE
8
BLACK
6
CONTINUOUS
10
2.71799
20
-1.35315
11
2.71799
21
-1.34685
0
LINE
8
BLACK
6
CONTINUOUS
10
2.71799
20
-1.34685
11
2.71922
21
-1.34066
0
LINE
8
BLACK
6
CONTINUOUS
10
2.71922
20
-1.34066
11
2.72164
21
-1.33484
0
LINE
8
BLACK
6
CONTINUOUS
10
2.72164
20
-1.33484
11
2.72514
21
-1.3296
0
LINE
8
BLACK
6
CONTINUOUS
10
2.72514
20
-1.3296
11
2.7296
21
-1.32514
0
LINE
8
BLACK
6
CONTINUOUS
10
2.7296
20
-1.32514
11
2.73484
21
-1.32163
0
LINE
8
BLACK
6
CONTINUOUS
10
2.73484
20
-1.32163
11
2.74066
21
-1.31922
0
LINE
8
BLACK
6
CONTINUOUS
10
2.74066
20
-1.31922
11
2.74685
21
-1.31799
0
LINE
8
BLACK
6
CONTINUOUS
10
2.74685
20
-1.31799
11
2.75315
21
-1.31799
0
LINE
8
BLACK
6
CONTINUOUS
10
2.75315
20
-1.31799
11
2.75934
21
-1.31922
0
LINE
8
BLACK
6
CONTINUOUS
10
2.95934
20
-1.31922
11
2.96516
21
-1.32163
0
LINE
8
BLACK
6
CONTINUOUS
10
2.96516
20
-1.32163
11
2.9704
21
-1.32514
0
LINE
8
BLACK
6
CONTINUOUS
10
2.9704
20
-1.32514
11
2.97486
21
-1.3296
0
LINE
8
BLACK
6
CONTINUOUS
10
2.97486
20
-1.3296
11
2.97837
21
-1.33484
0
LINE
8
BLACK
6
CONTINUOUS
10
2.97837
20
-1.33484
11
2.98078
21
-1.34066
0
LINE
8
BLACK
6
CONTINUOUS
10
2.98078
20
-1.34066
11
2.98201
21
-1.34685
0
LINE
8
BLACK
6
CONTINUOUS
10
2.98201
20
-1.34685
11
2.98201
21
-1.35315
0
LINE
8
BLACK
6
CONTINUOUS
10
2.98201
20
-1.35315
11
2.98078
21
-1.35934
0
LINE
8
BLACK
6
CONTINUOUS
10
2.98078
20
-1.35934
11
2.97837
21
-1.36516
0
LINE
8
BLACK
6
CONTINUOUS
10
2.97837
20
-1.36516
11
2.97486
21
-1.3704
0
LINE
8
BLACK
6
CONTINUOUS
10
2.97486
20
-1.3704
11
2.9704
21
-1.37486
0
LINE
8
BLACK
6
CONTINUOUS
10
2.9704
20
-1.37486
11
2.96516
21
-1.37837
0
LINE
8
BLACK
6
CONTINUOUS
10
2.96516
20
-1.37837
11
2.95934
21
-1.38078
0
LINE
8
BLACK
6
CONTINUOUS
10
2.95934
20
-1.38078
11
2.95315
21
-1.38201
0
LINE
8
BLACK
6
CONTINUOUS
10
2.95315
20
-1.38201
11
2.94685
21
-1.38201
0
LINE
8
BLACK
6
CONTINUOUS
10
2.94685
20
-1.38201
11
2.94066
21
-1.38078
0
LINE
8
BLACK
6
CONTINUOUS
10
2.94066
20
-1.38078
11
2.93484
21
-1.37837
0
LINE
8
BLACK
6
CONTINUOUS
10
2.93484
20
-1.37837
11
2.9296
21
-1.37486
0
LINE
8
BLACK
6
CONTINUOUS
10
2.9296
20
-1.37486
11
2.92514
21
-1.3704
0
LINE
8
BLACK
6
CONTINUOUS
10
2.92514
20
-1.3704
11
2.92163
21
-1.36516
0
LINE
8
BLACK
6
CONTINUOUS
10
2.92163
20
-1.36516
11
2.91922
21
-1.35934
0
LINE
8
BLACK
6
CONTINUOUS
10
2.91922
20
-1.35934
11
2.91799
21
-1.35315
0
LINE
8
BLACK
6
CONTINUOUS
10
2.91799
20
-1.35315
11
2.91799
21
-1.34685
0
LINE
8
BLACK
6
CONTINUOUS
10
2.91799
20
-1.34685
11
2.91922
21
-1.34066
0
LINE
8
BLACK
6
CONTINUOUS
10
2.91922
20
-1.34066
11
2.92163
21
-1.33484
0
LINE
8
BLACK
6
CONTINUOUS
10
2.92163
20
-1.33484
11
2.92514
21
-1.3296
0
LINE
8
BLACK
6
CONTINUOUS
10
2.92514
20
-1.3296
11
2.9296
21
-1.32514
0
LINE
8
BLACK
6
CONTINUOUS
10
2.9296
20
-1.32514
11
2.93484
21
-1.32163
0
LINE
8
BLACK
6
CONTINUOUS
10
2.93484
20
-1.32163
11
2.94066
21
-1.31922
0
LINE
8
BLACK
6
CONTINUOUS
10
2.94066
20
-1.31922
11
2.94685
21
-1.31799
0
LINE
8
BLACK
6
CONTINUOUS
10
2.94685
20
-1.31799
11
2.95315
21
-1.31799
0
LINE
8
BLACK
6
CONTINUOUS
10
2.95315
20
-1.31799
11
2.95934
21
-1.31922
0
LINE
8
BLACK
6
CONTINUOUS
10
5.06993
20
-1.21231
11
5.0743
21
-1.21318
0
LINE
8
BLACK
6
CONTINUOUS
10
5.0743
20
-1.21318
11
5.08255
21
-1.2166
0
LINE
8
BLACK
6
CONTINUOUS
10
5.08255
20
-1.2166
11
5.08997
21
-1.22156
0
LINE
8
BLACK
6
CONTINUOUS
10
5.08997
20
-1.22156
11
5.09629
21
-1.22787
0
LINE
8
BLACK
6
CONTINUOUS
10
5.09629
20
-1.22787
11
5.10124
21
-1.23529
0
LINE
8
BLACK
6
CONTINUOUS
10
5.10124
20
-1.23529
11
5.10124
21
-1.23529
0
LINE
8
BLACK
6
CONTINUOUS
10
5.10124
20
-1.23529
11
5.10466
21
-1.24354
0
LINE
8
BLACK
6
CONTINUOUS
10
5.10466
20
-1.24354
11
5.1064
21
-1.25229
0
LINE
8
BLACK
6
CONTINUOUS
10
5.1064
20
-1.25229
11
5.1064
21
-1.26122
0
LINE
8
BLACK
6
CONTINUOUS
10
5.1064
20
-1.26122
11
5.10466
21
-1.26997
0
LINE
8
BLACK
6
CONTINUOUS
10
5.10466
20
-1.26997
11
5.10129
21
-1.27811
0
LINE
8
BLACK
6
CONTINUOUS
10
5.10129
20
-1.27811
11
5.10124
21
-1.27822
0
LINE
8
BLACK
6
CONTINUOUS
10
5.10124
20
-1.27822
11
5.09629
21
-1.28564
0
LINE
8
BLACK
6
CONTINUOUS
10
5.09629
20
-1.28564
11
5.08997
21
-1.29195
0
LINE
8
BLACK
6
CONTINUOUS
10
5.08997
20
-1.29195
11
5.08255
21
-1.29691
0
LINE
8
BLACK
6
CONTINUOUS
10
5.08255
20
-1.29691
11
5.0743
21
-1.30033
0
LINE
8
BLACK
6
CONTINUOUS
10
5.0743
20
-1.30033
11
5.06993
21
-1.3012
0
LINE
8
BLACK
6
CONTINUOUS
10
5.06993
20
-1.3012
11
5.06555
21
-1.30207
0
LINE
8
BLACK
6
CONTINUOUS
10
5.06555
20
-1.30207
11
5.05662
21
-1.30207
0
LINE
8
BLACK
6
CONTINUOUS
10
5.05662
20
-1.30207
11
5.05225
21
-1.3012
0
LINE
8
BLACK
6
CONTINUOUS
10
5.05225
20
-1.3012
11
5.04787
21
-1.30033
0
LINE
8
BLACK
6
CONTINUOUS
10
5.04787
20
-1.30033
11
5.03962
21
-1.29691
0
LINE
8
BLACK
6
CONTINUOUS
10
5.03962
20
-1.29691
11
5.0322
21
-1.29195
0
LINE
8
BLACK
6
CONTINUOUS
10
5.0322
20
-1.29195
11
5.02589
21
-1.28564
0
LINE
8
BLACK
6
CONTINUOUS
10
5.02589
20
-1.28564
11
5.02093
21
-1.27822
0
LINE
8
BLACK
6
CONTINUOUS
10
5.02093
20
-1.27822
11
5.02088
21
-1.27811
0
LINE
8
BLACK
6
CONTINUOUS
10
5.02088
20
-1.27811
11
5.01751
21
-1.26997
0
LINE
8
BLACK
6
CONTINUOUS
10
5.01751
20
-1.26997
11
5.01577
21
-1.26122
0
LINE
8
BLACK
6
CONTINUOUS
10
5.01577
20
-1.26122
11
5.01577
21
-1.25229
0
LINE
8
BLACK
6
CONTINUOUS
10
5.01577
20
-1.25229
11
5.01751
21
-1.24354
0
LINE
8
BLACK
6
CONTINUOUS
10
5.01751
20
-1.24354
11
5.02093
21
-1.23529
0
LINE
8
BLACK
6
CONTINUOUS
10
5.02093
20
-1.23529
11
5.02093
21
-1.23529
0
LINE
8
BLACK
6
CONTINUOUS
10
5.02093
20
-1.23529
11
5.02589
21
-1.22787
0
LINE
8
BLACK
6
CONTINUOUS
10
5.02589
20
-1.22787
11
5.0322
21
-1.22156
0
LINE
8
BLACK
6
CONTINUOUS
10
5.0322
20
-1.22156
11
5.03962
21
-1.2166
0
LINE
8
BLACK
6
CONTINUOUS
10
5.03962
20
-1.2166
11
5.04787
21
-1.21318
0
LINE
8
BLACK
6
CONTINUOUS
10
5.04787
20
-1.21318
11
5.05225
21
-1.21231
0
LINE
8
BLACK
6
CONTINUOUS
10
5.05225
20
-1.21231
11
5.05662
21
-1.21144
0
LINE
8
BLACK
6
CONTINUOUS
10
5.05662
20
-1.21144
11
5.06555
21
-1.21144
0
LINE
8
BLACK
6
CONTINUOUS
10
5.06555
20
-1.21144
11
5.06993
21
-1.21231
0
LINE
8
BLACK
6
CONTINUOUS
10
4.3219
20
-1.21231
11
4.32627
21
-1.21318
0
LINE
8
BLACK
6
CONTINUOUS
10
4.32627
20
-1.21318
11
4.33452
21
-1.2166
0
LINE
8
BLACK
6
CONTINUOUS
10
4.33452
20
-1.2166
11
4.34194
21
-1.22156
0
LINE
8
BLACK
6
CONTINUOUS
10
4.34194
20
-1.22156
11
4.34825
21
-1.22787
0
LINE
8
BLACK
6
CONTINUOUS
10
4.34825
20
-1.22787
11
4.35321
21
-1.23529
0
LINE
8
BLACK
6
CONTINUOUS
10
4.35321
20
-1.23529
11
4.35321
21
-1.23529
0
LINE
8
BLACK
6
CONTINUOUS
10
4.35321
20
-1.23529
11
4.35663
21
-1.24354
0
LINE
8
BLACK
6
CONTINUOUS
10
4.35663
20
-1.24354
11
4.35837
21
-1.25229
0
LINE
8
BLACK
6
CONTINUOUS
10
4.35837
20
-1.25229
11
4.35837
21
-1.26122
0
LINE
8
BLACK
6
CONTINUOUS
10
4.35837
20
-1.26122
11
4.35663
21
-1.26997
0
LINE
8
BLACK
6
CONTINUOUS
10
4.35663
20
-1.26997
11
4.35326
21
-1.27811
0
LINE
8
BLACK
6
CONTINUOUS
10
4.35326
20
-1.27811
11
4.35321
21
-1.27822
0
LINE
8
BLACK
6
CONTINUOUS
10
4.35321
20
-1.27822
11
4.34825
21
-1.28564
0
LINE
8
BLACK
6
CONTINUOUS
10
4.34825
20
-1.28564
11
4.34194
21
-1.29195
0
LINE
8
BLACK
6
CONTINUOUS
10
4.34194
20
-1.29195
11
4.33452
21
-1.29691
0
LINE
8
BLACK
6
CONTINUOUS
10
4.33452
20
-1.29691
11
4.32627
21
-1.30033
0
LINE
8
BLACK
6
CONTINUOUS
10
4.32627
20
-1.30033
11
4.3219
21
-1.3012
0
LINE
8
BLACK
6
CONTINUOUS
10
4.3219
20
-1.3012
11
4.31752
21
-1.30207
0
LINE
8
BLACK
6
CONTINUOUS
10
4.31752
20
-1.30207
11
4.30859
21
-1.30207
0
LINE
8
BLACK
6
CONTINUOUS
10
4.30859
20
-1.30207
11
4.30421
21
-1.3012
0
LINE
8
BLACK
6
CONTINUOUS
10
4.30421
20
-1.3012
11
4.29984
21
-1.30033
0
LINE
8
BLACK
6
CONTINUOUS
10
4.29984
20
-1.30033
11
4.29159
21
-1.29691
0
LINE
8
BLACK
6
CONTINUOUS
10
4.29159
20
-1.29691
11
4.28417
21
-1.29195
0
LINE
8
BLACK
6
CONTINUOUS
10
4.28417
20
-1.29195
11
4.27786
21
-1.28564
0
LINE
8
BLACK
6
CONTINUOUS
10
4.27786
20
-1.28564
11
4.2729
21
-1.27822
0
LINE
8
BLACK
6
CONTINUOUS
10
4.2729
20
-1.27822
11
4.27285
21
-1.27811
0
LINE
8
BLACK
6
CONTINUOUS
10
4.27285
20
-1.27811
11
4.26948
21
-1.26997
0
LINE
8
BLACK
6
CONTINUOUS
10
4.26948
20
-1.26997
11
4.26774
21
-1.26122
0
LINE
8
BLACK
6
CONTINUOUS
10
4.26774
20
-1.26122
11
4.26774
21
-1.25229
0
LINE
8
BLACK
6
CONTINUOUS
10
4.26774
20
-1.25229
11
4.26948
21
-1.24354
0
LINE
8
BLACK
6
CONTINUOUS
10
4.26948
20
-1.24354
11
4.2729
21
-1.23529
0
LINE
8
BLACK
6
CONTINUOUS
10
4.2729
20
-1.23529
11
4.2729
21
-1.23529
0
LINE
8
BLACK
6
CONTINUOUS
10
4.2729
20
-1.23529
11
4.27786
21
-1.22787
0
LINE
8
BLACK
6
CONTINUOUS
10
4.27786
20
-1.22787
11
4.28417
21
-1.22156
0
LINE
8
BLACK
6
CONTINUOUS
10
4.28417
20
-1.22156
11
4.29159
21
-1.2166
0
LINE
8
BLACK
6
CONTINUOUS
10
4.29159
20
-1.2166
11
4.29984
21
-1.21318
0
LINE
8
BLACK
6
CONTINUOUS
10
4.29984
20
-1.21318
11
4.30421
21
-1.21231
0
LINE
8
BLACK
6
CONTINUOUS
10
4.30421
20
-1.21231
11
4.30859
21
-1.21144
0
LINE
8
BLACK
6
CONTINUOUS
10
4.30859
20
-1.21144
11
4.31752
21
-1.21144
0
LINE
8
BLACK
6
CONTINUOUS
10
4.31752
20
-1.21144
11
4.3219
21
-1.21231
0
LINE
8
BLACK
6
CONTINUOUS
10
3.95505
20
-1.22454
11
3.96115
21
-1.22707
0
LINE
8
BLACK
6
CONTINUOUS
10
3.96115
20
-1.22707
11
3.96663
21
-1.23073
0
LINE
8
BLACK
6
CONTINUOUS
10
3.96663
20
-1.23073
11
3.9713
21
-1.2354
0
LINE
8
BLACK
6
CONTINUOUS
10
3.9713
20
-1.2354
11
3.97497
21
-1.24089
0
LINE
8
BLACK
6
CONTINUOUS
10
3.97497
20
-1.24089
11
3.97749
21
-1.24698
0
LINE
8
BLACK
6
CONTINUOUS
10
3.97749
20
-1.24698
11
3.97878
21
-1.25346
0
LINE
8
BLACK
6
CONTINUOUS
10
3.97878
20
-1.25346
11
3.97878
21
-1.26006
0
LINE
8
BLACK
6
CONTINUOUS
10
3.97878
20
-1.26006
11
3.97749
21
-1.26653
0
LINE
8
BLACK
6
CONTINUOUS
10
3.97749
20
-1.26653
11
3.97497
21
-1.27263
0
LINE
8
BLACK
6
CONTINUOUS
10
3.97497
20
-1.27263
11
3.9713
21
-1.27811
0
LINE
8
BLACK
6
CONTINUOUS
10
3.9713
20
-1.27811
11
3.96663
21
-1.28278
0
LINE
8
BLACK
6
CONTINUOUS
10
3.96663
20
-1.28278
11
3.96115
21
-1.28645
0
LINE
8
BLACK
6
CONTINUOUS
10
3.96115
20
-1.28645
11
3.95505
21
-1.28897
0
LINE
8
BLACK
6
CONTINUOUS
10
3.95505
20
-1.28897
11
3.94858
21
-1.29026
0
LINE
8
BLACK
6
CONTINUOUS
10
3.94858
20
-1.29026
11
3.94198
21
-1.29026
0
LINE
8
BLACK
6
CONTINUOUS
10
3.94198
20
-1.29026
11
3.9355
21
-1.28897
0
LINE
8
BLACK
6
CONTINUOUS
10
3.9355
20
-1.28897
11
3.92941
21
-1.28645
0
LINE
8
BLACK
6
CONTINUOUS
10
3.92941
20
-1.28645
11
3.92392
21
-1.28278
0
LINE
8
BLACK
6
CONTINUOUS
10
3.92392
20
-1.28278
11
3.91925
21
-1.27811
0
LINE
8
BLACK
6
CONTINUOUS
10
3.91925
20
-1.27811
11
3.91558
21
-1.27263
0
LINE
8
BLACK
6
CONTINUOUS
10
3.91558
20
-1.27263
11
3.91306
21
-1.26653
0
LINE
8
BLACK
6
CONTINUOUS
10
3.91306
20
-1.26653
11
3.91177
21
-1.26006
0
LINE
8
BLACK
6
CONTINUOUS
10
3.91177
20
-1.26006
11
3.91177
21
-1.25346
0
LINE
8
BLACK
6
CONTINUOUS
10
3.91177
20
-1.25346
11
3.91306
21
-1.24698
0
LINE
8
BLACK
6
CONTINUOUS
10
3.91306
20
-1.24698
11
3.91558
21
-1.24089
0
LINE
8
BLACK
6
CONTINUOUS
10
3.91558
20
-1.24089
11
3.91925
21
-1.2354
0
LINE
8
BLACK
6
CONTINUOUS
10
3.91925
20
-1.2354
11
3.92392
21
-1.23073
0
LINE
8
BLACK
6
CONTINUOUS
10
3.92392
20
-1.23073
11
3.92941
21
-1.22707
0
LINE
8
BLACK
6
CONTINUOUS
10
3.92941
20
-1.22707
11
3.9355
21
-1.22454
0
LINE
8
BLACK
6
CONTINUOUS
10
3.9355
20
-1.22454
11
3.94198
21
-1.22325
0
LINE
8
BLACK
6
CONTINUOUS
10
3.94198
20
-1.22325
11
3.94858
21
-1.22325
0
LINE
8
BLACK
6
CONTINUOUS
10
3.94858
20
-1.22325
11
3.95505
21
-1.22454
0
LINE
8
BLACK
6
CONTINUOUS
10
3.3645
20
-1.22454
11
3.37059
21
-1.22707
0
LINE
8
BLACK
6
CONTINUOUS
10
3.37059
20
-1.22707
11
3.37608
21
-1.23073
0
LINE
8
BLACK
6
CONTINUOUS
10
3.37608
20
-1.23073
11
3.38075
21
-1.2354
0
LINE
8
BLACK
6
CONTINUOUS
10
3.38075
20
-1.2354
11
3.38442
21
-1.24089
0
LINE
8
BLACK
6
CONTINUOUS
10
3.38442
20
-1.24089
11
3.38694
21
-1.24698
0
LINE
8
BLACK
6
CONTINUOUS
10
3.38694
20
-1.24698
11
3.38823
21
-1.25346
0
LINE
8
BLACK
6
CONTINUOUS
10
3.38823
20
-1.25346
11
3.38823
21
-1.26006
0
LINE
8
BLACK
6
CONTINUOUS
10
3.38823
20
-1.26006
11
3.38694
21
-1.26653
0
LINE
8
BLACK
6
CONTINUOUS
10
3.38694
20
-1.26653
11
3.38442
21
-1.27263
0
LINE
8
BLACK
6
CONTINUOUS
10
3.38442
20
-1.27263
11
3.38075
21
-1.27811
0
LINE
8
BLACK
6
CONTINUOUS
10
3.38075
20
-1.27811
11
3.37608
21
-1.28278
0
LINE
8
BLACK
6
CONTINUOUS
10
3.37608
20
-1.28278
11
3.37059
21
-1.28645
0
LINE
8
BLACK
6
CONTINUOUS
10
3.37059
20
-1.28645
11
3.3645
21
-1.28897
0
LINE
8
BLACK
6
CONTINUOUS
10
3.3645
20
-1.28897
11
3.35802
21
-1.29026
0
LINE
8
BLACK
6
CONTINUOUS
10
3.35802
20
-1.29026
11
3.35142
21
-1.29026
0
LINE
8
BLACK
6
CONTINUOUS
10
3.35142
20
-1.29026
11
3.34495
21
-1.28897
0
LINE
8
BLACK
6
CONTINUOUS
10
3.34495
20
-1.28897
11
3.33885
21
-1.28645
0
LINE
8
BLACK
6
CONTINUOUS
10
3.33885
20
-1.28645
11
3.33337
21
-1.28278
0
LINE
8
BLACK
6
CONTINUOUS
10
3.33337
20
-1.28278
11
3.3287
21
-1.27811
0
LINE
8
BLACK
6
CONTINUOUS
10
3.3287
20
-1.27811
11
3.32503
21
-1.27263
0
LINE
8
BLACK
6
CONTINUOUS
10
3.32503
20
-1.27263
11
3.32251
21
-1.26653
0
LINE
8
BLACK
6
CONTINUOUS
10
3.32251
20
-1.26653
11
3.32122
21
-1.26006
0
LINE
8
BLACK
6
CONTINUOUS
10
3.32122
20
-1.26006
11
3.32122
21
-1.25346
0
LINE
8
BLACK
6
CONTINUOUS
10
3.32122
20
-1.25346
11
3.32251
21
-1.24698
0
LINE
8
BLACK
6
CONTINUOUS
10
3.32251
20
-1.24698
11
3.32503
21
-1.24089
0
LINE
8
BLACK
6
CONTINUOUS
10
3.32503
20
-1.24089
11
3.3287
21
-1.2354
0
LINE
8
BLACK
6
CONTINUOUS
10
3.3287
20
-1.2354
11
3.33337
21
-1.23073
0
LINE
8
BLACK
6
CONTINUOUS
10
3.33337
20
-1.23073
11
3.33885
21
-1.22707
0
LINE
8
BLACK
6
CONTINUOUS
10
3.33885
20
-1.22707
11
3.34495
21
-1.22454
0
LINE
8
BLACK
6
CONTINUOUS
10
3.34495
20
-1.22454
11
3.35142
21
-1.22325
0
LINE
8
BLACK
6
CONTINUOUS
10
3.35142
20
-1.22325
11
3.35802
21
-1.22325
0
LINE
8
BLACK
6
CONTINUOUS
10
3.35802
20
-1.22325
11
3.3645
21
-1.22454
0
LINE
8
BLACK
6
CONTINUOUS
10
1.55934
20
-1.11922
11
1.56516
21
-1.12163
0
LINE
8
BLACK
6
CONTINUOUS
10
1.56516
20
-1.12163
11
1.5704
21
-1.12514
0
LINE
8
BLACK
6
CONTINUOUS
10
1.5704
20
-1.12514
11
1.57486
21
-1.1296
0
LINE
8
BLACK
6
CONTINUOUS
10
1.57486
20
-1.1296
11
1.57837
21
-1.13484
0
LINE
8
BLACK
6
CONTINUOUS
10
1.57837
20
-1.13484
11
1.58078
21
-1.14066
0
LINE
8
BLACK
6
CONTINUOUS
10
1.58078
20
-1.14066
11
1.58201
21
-1.14685
0
LINE
8
BLACK
6
CONTINUOUS
10
1.58201
20
-1.14685
11
1.58201
21
-1.15315
0
LINE
8
BLACK
6
CONTINUOUS
10
1.58201
20
-1.15315
11
1.58078
21
-1.15934
0
LINE
8
BLACK
6
CONTINUOUS
10
1.58078
20
-1.15934
11
1.57837
21
-1.16516
0
LINE
8
BLACK
6
CONTINUOUS
10
1.57837
20
-1.16516
11
1.57486
21
-1.1704
0
LINE
8
BLACK
6
CONTINUOUS
10
1.57486
20
-1.1704
11
1.5704
21
-1.17486
0
LINE
8
BLACK
6
CONTINUOUS
10
1.5704
20
-1.17486
11
1.56516
21
-1.17836
0
LINE
8
BLACK
6
CONTINUOUS
10
1.56516
20
-1.17836
11
1.55934
21
-1.18078
0
LINE
8
BLACK
6
CONTINUOUS
10
1.55934
20
-1.18078
11
1.55315
21
-1.18201
0
LINE
8
BLACK
6
CONTINUOUS
10
1.55315
20
-1.18201
11
1.54685
21
-1.18201
0
LINE
8
BLACK
6
CONTINUOUS
10
1.54685
20
-1.18201
11
1.54066
21
-1.18078
0
LINE
8
BLACK
6
CONTINUOUS
10
1.54066
20
-1.18078
11
1.53484
21
-1.17836
0
LINE
8
BLACK
6
CONTINUOUS
10
1.53484
20
-1.17836
11
1.5296
21
-1.17486
0
LINE
8
BLACK
6
CONTINUOUS
10
1.5296
20
-1.17486
11
1.52514
21
-1.1704
0
LINE
8
BLACK
6
CONTINUOUS
10
1.52514
20
-1.1704
11
1.52164
21
-1.16516
0
LINE
8
BLACK
6
CONTINUOUS
10
1.52164
20
-1.16516
11
1.51922
21
-1.15934
0
LINE
8
BLACK
6
CONTINUOUS
10
1.51922
20
-1.15934
11
1.51799
21
-1.15315
0
LINE
8
BLACK
6
CONTINUOUS
10
1.51799
20
-1.15315
11
1.51799
21
-1.14685
0
LINE
8
BLACK
6
CONTINUOUS
10
1.51799
20
-1.14685
11
1.51922
21
-1.14066
0
LINE
8
BLACK
6
CONTINUOUS
10
1.51922
20
-1.14066
11
1.52164
21
-1.13484
0
LINE
8
BLACK
6
CONTINUOUS
10
1.52164
20
-1.13484
11
1.52514
21
-1.1296
0
LINE
8
BLACK
6
CONTINUOUS
10
1.52514
20
-1.1296
11
1.5296
21
-1.12514
0
LINE
8
BLACK
6
CONTINUOUS
10
1.5296
20
-1.12514
11
1.53484
21
-1.12163
0
LINE
8
BLACK
6
CONTINUOUS
10
1.53484
20
-1.12163
11
1.54066
21
-1.11922
0
LINE
8
BLACK
6
CONTINUOUS
10
1.54066
20
-1.11922
11
1.54685
21
-1.11799
0
LINE
8
BLACK
6
CONTINUOUS
10
1.54685
20
-1.11799
11
1.55315
21
-1.11799
0
LINE
8
BLACK
6
CONTINUOUS
10
1.55315
20
-1.11799
11
1.55934
21
-1.11922
0
LINE
8
BLACK
6
CONTINUOUS
10
2.95934
20
-1.11922
11
2.96516
21
-1.12163
0
LINE
8
BLACK
6
CONTINUOUS
10
2.96516
20
-1.12163
11
2.9704
21
-1.12514
0
LINE
8
BLACK
6
CONTINUOUS
10
2.9704
20
-1.12514
11
2.97486
21
-1.1296
0
LINE
8
BLACK
6
CONTINUOUS
10
2.97486
20
-1.1296
11
2.97837
21
-1.13484
0
LINE
8
BLACK
6
CONTINUOUS
10
2.97837
20
-1.13484
11
2.98078
21
-1.14066
0
LINE
8
BLACK
6
CONTINUOUS
10
2.98078
20
-1.14066
11
2.98201
21
-1.14685
0
LINE
8
BLACK
6
CONTINUOUS
10
2.98201
20
-1.14685
11
2.98201
21
-1.15315
0
LINE
8
BLACK
6
CONTINUOUS
10
2.98201
20
-1.15315
11
2.98078
21
-1.15934
0
LINE
8
BLACK
6
CONTINUOUS
10
2.98078
20
-1.15934
11
2.97837
21
-1.16516
0
LINE
8
BLACK
6
CONTINUOUS
10
2.97837
20
-1.16516
11
2.97486
21
-1.1704
0
LINE
8
BLACK
6
CONTINUOUS
10
2.97486
20
-1.1704
11
2.9704
21
-1.17486
0
LINE
8
BLACK
6
CONTINUOUS
10
2.9704
20
-1.17486
11
2.96516
21
-1.17836
0
LINE
8
BLACK
6
CONTINUOUS
10
2.96516
20
-1.17836
11
2.95934
21
-1.18078
0
LINE
8
BLACK
6
CONTINUOUS
10
2.95934
20
-1.18078
11
2.95315
21
-1.18201
0
LINE
8
BLACK
6
CONTINUOUS
10
2.95315
20
-1.18201
11
2.94685
21
-1.18201
0
LINE
8
BLACK
6
CONTINUOUS
10
2.94685
20
-1.18201
11
2.94066
21
-1.18078
0
LINE
8
BLACK
6
CONTINUOUS
10
2.94066
20
-1.18078
11
2.93484
21
-1.17836
0
LINE
8
BLACK
6
CONTINUOUS
10
2.93484
20
-1.17836
11
2.9296
21
-1.17486
0
LINE
8
BLACK
6
CONTINUOUS
10
2.9296
20
-1.17486
11
2.92514
21
-1.1704
0
LINE
8
BLACK
6
CONTINUOUS
10
2.92514
20
-1.1704
11
2.92163
21
-1.16516
0
LINE
8
BLACK
6
CONTINUOUS
10
2.92163
20
-1.16516
11
2.91922
21
-1.15934
0
LINE
8
BLACK
6
CONTINUOUS
10
2.91922
20
-1.15934
11
2.91799
21
-1.15315
0
LINE
8
BLACK
6
CONTINUOUS
10
2.91799
20
-1.15315
11
2.91799
21
-1.14685
0
LINE
8
BLACK
6
CONTINUOUS
10
2.91799
20
-1.14685
11
2.91922
21
-1.14066
0
LINE
8
BLACK
6
CONTINUOUS
10
2.91922
20
-1.14066
11
2.92163
21
-1.13484
0
LINE
8
BLACK
6
CONTINUOUS
10
2.92163
20
-1.13484
11
2.92514
21
-1.1296
0
LINE
8
BLACK
6
CONTINUOUS
10
2.92514
20
-1.1296
11
2.9296
21
-1.12514
0
LINE
8
BLACK
6
CONTINUOUS
10
2.9296
20
-1.12514
11
2.93484
21
-1.12163
0
LINE
8
BLACK
6
CONTINUOUS
10
2.93484
20
-1.12163
11
2.94066
21
-1.11922
0
LINE
8
BLACK
6
CONTINUOUS
10
2.94066
20
-1.11922
11
2.94685
21
-1.11799
0
LINE
8
BLACK
6
CONTINUOUS
10
2.94685
20
-1.11799
11
2.95315
21
-1.11799
0
LINE
8
BLACK
6
CONTINUOUS
10
2.95315
20
-1.11799
11
2.95934
21
-1.11922
0
LINE
8
BLACK
6
CONTINUOUS
10
2.75934
20
-1.11922
11
2.76516
21
-1.12163
0
LINE
8
BLACK
6
CONTINUOUS
10
2.76516
20
-1.12163
11
2.7704
21
-1.12514
0
LINE
8
BLACK
6
CONTINUOUS
10
2.7704
20
-1.12514
11
2.77486
21
-1.1296
0
LINE
8
BLACK
6
CONTINUOUS
10
2.77486
20
-1.1296
11
2.77836
21
-1.13484
0
LINE
8
BLACK
6
CONTINUOUS
10
2.77836
20
-1.13484
11
2.78078
21
-1.14066
0
LINE
8
BLACK
6
CONTINUOUS
10
2.78078
20
-1.14066
11
2.78201
21
-1.14685
0
LINE
8
BLACK
6
CONTINUOUS
10
2.78201
20
-1.14685
11
2.78201
21
-1.15315
0
LINE
8
BLACK
6
CONTINUOUS
10
2.78201
20
-1.15315
11
2.78078
21
-1.15934
0
LINE
8
BLACK
6
CONTINUOUS
10
2.78078
20
-1.15934
11
2.77836
21
-1.16516
0
LINE
8
BLACK
6
CONTINUOUS
10
2.77836
20
-1.16516
11
2.77486
21
-1.1704
0
LINE
8
BLACK
6
CONTINUOUS
10
2.77486
20
-1.1704
11
2.7704
21
-1.17486
0
LINE
8
BLACK
6
CONTINUOUS
10
2.7704
20
-1.17486
11
2.76516
21
-1.17836
0
LINE
8
BLACK
6
CONTINUOUS
10
2.76516
20
-1.17836
11
2.75934
21
-1.18078
0
LINE
8
BLACK
6
CONTINUOUS
10
2.75934
20
-1.18078
11
2.75315
21
-1.18201
0
LINE
8
BLACK
6
CONTINUOUS
10
2.75315
20
-1.18201
11
2.74685
21
-1.18201
0
LINE
8
BLACK
6
CONTINUOUS
10
2.74685
20
-1.18201
11
2.74066
21
-1.18078
0
LINE
8
BLACK
6
CONTINUOUS
10
2.74066
20
-1.18078
11
2.73484
21
-1.17836
0
LINE
8
BLACK
6
CONTINUOUS
10
2.73484
20
-1.17836
11
2.7296
21
-1.17486
0
LINE
8
BLACK
6
CONTINUOUS
10
2.7296
20
-1.17486
11
2.72514
21
-1.1704
0
LINE
8
BLACK
6
CONTINUOUS
10
2.72514
20
-1.1704
11
2.72164
21
-1.16516
0
LINE
8
BLACK
6
CONTINUOUS
10
2.72164
20
-1.16516
11
2.71922
21
-1.15934
0
LINE
8
BLACK
6
CONTINUOUS
10
2.71922
20
-1.15934
11
2.71799
21
-1.15315
0
LINE
8
BLACK
6
CONTINUOUS
10
2.71799
20
-1.15315
11
2.71799
21
-1.14685
0
LINE
8
BLACK
6
CONTINUOUS
10
2.71799
20
-1.14685
11
2.71922
21
-1.14066
0
LINE
8
BLACK
6
CONTINUOUS
10
2.71922
20
-1.14066
11
2.72164
21
-1.13484
0
LINE
8
BLACK
6
CONTINUOUS
10
2.72164
20
-1.13484
11
2.72514
21
-1.1296
0
LINE
8
BLACK
6
CONTINUOUS
10
2.72514
20
-1.1296
11
2.7296
21
-1.12514
0
LINE
8
BLACK
6
CONTINUOUS
10
2.7296
20
-1.12514
11
2.73484
21
-1.12163
0
LINE
8
BLACK
6
CONTINUOUS
10
2.73484
20
-1.12163
11
2.74066
21
-1.11922
0
LINE
8
BLACK
6
CONTINUOUS
10
2.74066
20
-1.11922
11
2.74685
21
-1.11799
0
LINE
8
BLACK
6
CONTINUOUS
10
2.74685
20
-1.11799
11
2.75315
21
-1.11799
0
LINE
8
BLACK
6
CONTINUOUS
10
2.75315
20
-1.11799
11
2.75934
21
-1.11922
0
LINE
8
BLACK
6
CONTINUOUS
10
1.15934
20
-1.11922
11
1.16516
21
-1.12163
0
LINE
8
BLACK
6
CONTINUOUS
10
1.16516
20
-1.12163
11
1.1704
21
-1.12514
0
LINE
8
BLACK
6
CONTINUOUS
10
1.1704
20
-1.12514
11
1.17486
21
-1.1296
0
LINE
8
BLACK
6
CONTINUOUS
10
1.17486
20
-1.1296
11
1.17836
21
-1.13484
0
LINE
8
BLACK
6
CONTINUOUS
10
1.17836
20
-1.13484
11
1.18078
21
-1.14066
0
LINE
8
BLACK
6
CONTINUOUS
10
1.18078
20
-1.14066
11
1.18201
21
-1.14685
0
LINE
8
BLACK
6
CONTINUOUS
10
1.18201
20
-1.14685
11
1.18201
21
-1.15315
0
LINE
8
BLACK
6
CONTINUOUS
10
1.18201
20
-1.15315
11
1.18078
21
-1.15934
0
LINE
8
BLACK
6
CONTINUOUS
10
1.18078
20
-1.15934
11
1.17836
21
-1.16516
0
LINE
8
BLACK
6
CONTINUOUS
10
1.17836
20
-1.16516
11
1.17486
21
-1.1704
0
LINE
8
BLACK
6
CONTINUOUS
10
1.17486
20
-1.1704
11
1.1704
21
-1.17486
0
LINE
8
BLACK
6
CONTINUOUS
10
1.1704
20
-1.17486
11
1.16516
21
-1.17836
0
LINE
8
BLACK
6
CONTINUOUS
10
1.16516
20
-1.17836
11
1.15934
21
-1.18078
0
LINE
8
BLACK
6
CONTINUOUS
10
1.15934
20
-1.18078
11
1.15315
21
-1.18201
0
LINE
8
BLACK
6
CONTINUOUS
10
1.15315
20
-1.18201
11
1.14685
21
-1.18201
0
LINE
8
BLACK
6
CONTINUOUS
10
1.14685
20
-1.18201
11
1.14066
21
-1.18078
0
LINE
8
BLACK
6
CONTINUOUS
10
1.14066
20
-1.18078
11
1.13484
21
-1.17836
0
LINE
8
BLACK
6
CONTINUOUS
10
1.13484
20
-1.17836
11
1.1296
21
-1.17486
0
LINE
8
BLACK
6
CONTINUOUS
10
1.1296
20
-1.17486
11
1.12514
21
-1.1704
0
LINE
8
BLACK
6
CONTINUOUS
10
1.12514
20
-1.1704
11
1.12163
21
-1.16516
0
LINE
8
BLACK
6
CONTINUOUS
10
1.12163
20
-1.16516
11
1.11922
21
-1.15934
0
LINE
8
BLACK
6
CONTINUOUS
10
1.11922
20
-1.15934
11
1.11799
21
-1.15315
0
LINE
8
BLACK
6
CONTINUOUS
10
1.11799
20
-1.15315
11
1.11799
21
-1.14685
0
LINE
8
BLACK
6
CONTINUOUS
10
1.11799
20
-1.14685
11
1.11922
21
-1.14066
0
LINE
8
BLACK
6
CONTINUOUS
10
1.11922
20
-1.14066
11
1.12163
21
-1.13484
0
LINE
8
BLACK
6
CONTINUOUS
10
1.12163
20
-1.13484
11
1.12514
21
-1.1296
0
LINE
8
BLACK
6
CONTINUOUS
10
1.12514
20
-1.1296
11
1.1296
21
-1.12514
0
LINE
8
BLACK
6
CONTINUOUS
10
1.1296
20
-1.12514
11
1.13484
21
-1.12163
0
LINE
8
BLACK
6
CONTINUOUS
10
1.13484
20
-1.12163
11
1.14066
21
-1.11922
0
LINE
8
BLACK
6
CONTINUOUS
10
1.14066
20
-1.11922
11
1.14685
21
-1.11799
0
LINE
8
BLACK
6
CONTINUOUS
10
1.14685
20
-1.11799
11
1.15315
21
-1.11799
0
LINE
8
BLACK
6
CONTINUOUS
10
1.15315
20
-1.11799
11
1.15934
21
-1.11922
0
LINE
8
BLACK
6
CONTINUOUS
10
0.959336
20
-1.11922
11
0.965161
21
-1.12163
0
LINE
8
BLACK
6
CONTINUOUS
10
0.965161
20
-1.12163
11
0.970404
21
-1.12514
0
LINE
8
BLACK
6
CONTINUOUS
10
0.970404
20
-1.12514
11
0.974862
21
-1.1296
0
LINE
8
BLACK
6
CONTINUOUS
10
0.974862
20
-1.1296
11
0.978365
21
-1.13484
0
LINE
8
BLACK
6
CONTINUOUS
10
0.978365
20
-1.13484
11
0.980778
21
-1.14066
0
LINE
8
BLACK
6
CONTINUOUS
10
0.980778
20
-1.14066
11
0.982008
21
-1.14685
0
LINE
8
BLACK
6
CONTINUOUS
10
0.982008
20
-1.14685
11
0.982008
21
-1.15315
0
LINE
8
BLACK
6
CONTINUOUS
10
0.982008
20
-1.15315
11
0.980778
21
-1.15934
0
LINE
8
BLACK
6
CONTINUOUS
10
0.980778
20
-1.15934
11
0.978365
21
-1.16516
0
LINE
8
BLACK
6
CONTINUOUS
10
0.978365
20
-1.16516
11
0.974862
21
-1.1704
0
LINE
8
BLACK
6
CONTINUOUS
10
0.974862
20
-1.1704
11
0.970404
21
-1.17486
0
LINE
8
BLACK
6
CONTINUOUS
10
0.970404
20
-1.17486
11
0.965161
21
-1.17836
0
LINE
8
BLACK
6
CONTINUOUS
10
0.965161
20
-1.17836
11
0.959336
21
-1.18078
0
LINE
8
BLACK
6
CONTINUOUS
10
0.959336
20
-1.18078
11
0.953153
21
-1.18201
0
LINE
8
BLACK
6
CONTINUOUS
10
0.953153
20
-1.18201
11
0.946847
21
-1.18201
0
LINE
8
BLACK
6
CONTINUOUS
10
0.946847
20
-1.18201
11
0.940664
21
-1.18078
0
LINE
8
BLACK
6
CONTINUOUS
10
0.940664
20
-1.18078
11
0.934839
21
-1.17836
0
LINE
8
BLACK
6
CONTINUOUS
10
0.934839
20
-1.17836
11
0.929596
21
-1.17486
0
LINE
8
BLACK
6
CONTINUOUS
10
0.929596
20
-1.17486
11
0.925138
21
-1.1704
0
LINE
8
BLACK
6
CONTINUOUS
10
0.925138
20
-1.1704
11
0.921635
21
-1.16516
0
LINE
8
BLACK
6
CONTINUOUS
10
0.921635
20
-1.16516
11
0.919222
21
-1.15934
0
LINE
8
BLACK
6
CONTINUOUS
10
0.919222
20
-1.15934
11
0.917992
21
-1.15315
0
LINE
8
BLACK
6
CONTINUOUS
10
0.917992
20
-1.15315
11
0.917992
21
-1.14685
0
LINE
8
BLACK
6
CONTINUOUS
10
0.917992
20
-1.14685
11
0.919222
21
-1.14066
0
LINE
8
BLACK
6
CONTINUOUS
10
0.919222
20
-1.14066
11
0.921635
21
-1.13484
0
LINE
8
BLACK
6
CONTINUOUS
10
0.921635
20
-1.13484
11
0.925138
21
-1.1296
0
LINE
8
BLACK
6
CONTINUOUS
10
0.925138
20
-1.1296
11
0.929596
21
-1.12514
0
LINE
8
BLACK
6
CONTINUOUS
10
0.929596
20
-1.12514
11
0.934839
21
-1.12163
0
LINE
8
BLACK
6
CONTINUOUS
10
0.934839
20
-1.12163
11
0.940664
21
-1.11922
0
LINE
8
BLACK
6
CONTINUOUS
10
0.940664
20
-1.11922
11
0.946847
21
-1.11799
0
LINE
8
BLACK
6
CONTINUOUS
10
0.946847
20
-1.11799
11
0.953153
21
-1.11799
0
LINE
8
BLACK
6
CONTINUOUS
10
0.953153
20
-1.11799
11
0.959336
21
-1.11922
0
LINE
8
BLACK
6
CONTINUOUS
10
1.75934
20
-1.11922
11
1.76516
21
-1.12163
0
LINE
8
BLACK
6
CONTINUOUS
10
1.76516
20
-1.12163
11
1.7704
21
-1.12514
0
LINE
8
BLACK
6
CONTINUOUS
10
1.7704
20
-1.12514
11
1.77486
21
-1.1296
0
LINE
8
BLACK
6
CONTINUOUS
10
1.77486
20
-1.1296
11
1.77836
21
-1.13484
0
LINE
8
BLACK
6
CONTINUOUS
10
1.77836
20
-1.13484
11
1.78078
21
-1.14066
0
LINE
8
BLACK
6
CONTINUOUS
10
1.78078
20
-1.14066
11
1.78201
21
-1.14685
0
LINE
8
BLACK
6
CONTINUOUS
10
1.78201
20
-1.14685
11
1.78201
21
-1.15315
0
LINE
8
BLACK
6
CONTINUOUS
10
1.78201
20
-1.15315
11
1.78078
21
-1.15934
0
LINE
8
BLACK
6
CONTINUOUS
10
1.78078
20
-1.15934
11
1.77836
21
-1.16516
0
LINE
8
BLACK
6
CONTINUOUS
10
1.77836
20
-1.16516
11
1.77486
21
-1.1704
0
LINE
8
BLACK
6
CONTINUOUS
10
1.77486
20
-1.1704
11
1.7704
21
-1.17486
0
LINE
8
BLACK
6
CONTINUOUS
10
1.7704
20
-1.17486
11
1.76516
21
-1.17836
0
LINE
8
BLACK
6
CONTINUOUS
10
1.76516
20
-1.17836
11
1.75934
21
-1.18078
0
LINE
8
BLACK
6
CONTINUOUS
10
1.75934
20
-1.18078
11
1.75315
21
-1.18201
0
LINE
8
BLACK
6
CONTINUOUS
10
1.75315
20
-1.18201
11
1.74685
21
-1.18201
0
LINE
8
BLACK
6
CONTINUOUS
10
1.74685
20
-1.18201
11
1.74066
21
-1.18078
0
LINE
8
BLACK
6
CONTINUOUS
10
1.74066
20
-1.18078
11
1.73484
21
-1.17836
0
LINE
8
BLACK
6
CONTINUOUS
10
1.73484
20
-1.17836
11
1.7296
21
-1.17486
0
LINE
8
BLACK
6
CONTINUOUS
10
1.7296
20
-1.17486
11
1.72514
21
-1.1704
0
LINE
8
BLACK
6
CONTINUOUS
10
1.72514
20
-1.1704
11
1.72164
21
-1.16516
0
LINE
8
BLACK
6
CONTINUOUS
10
1.72164
20
-1.16516
11
1.71922
21
-1.15934
0
LINE
8
BLACK
6
CONTINUOUS
10
1.71922
20
-1.15934
11
1.71799
21
-1.15315
0
LINE
8
BLACK
6
CONTINUOUS
10
1.71799
20
-1.15315
11
1.71799
21
-1.14685
0
LINE
8
BLACK
6
CONTINUOUS
10
1.71799
20
-1.14685
11
1.71922
21
-1.14066
0
LINE
8
BLACK
6
CONTINUOUS
10
1.71922
20
-1.14066
11
1.72164
21
-1.13484
0
LINE
8
BLACK
6
CONTINUOUS
10
1.72164
20
-1.13484
11
1.72514
21
-1.1296
0
LINE
8
BLACK
6
CONTINUOUS
10
1.72514
20
-1.1296
11
1.7296
21
-1.12514
0
LINE
8
BLACK
6
CONTINUOUS
10
1.7296
20
-1.12514
11
1.73484
21
-1.12163
0
LINE
8
BLACK
6
CONTINUOUS
10
1.73484
20
-1.12163
11
1.74066
21
-1.11922
0
LINE
8
BLACK
6
CONTINUOUS
10
1.74066
20
-1.11922
11
1.74685
21
-1.11799
0
LINE
8
BLACK
6
CONTINUOUS
10
1.74685
20
-1.11799
11
1.75315
21
-1.11799
0
LINE
8
BLACK
6
CONTINUOUS
10
1.75315
20
-1.11799
11
1.75934
21
-1.11922
0
LINE
8
BLACK
6
CONTINUOUS
10
2.35934
20
-1.11922
11
2.36516
21
-1.12163
0
LINE
8
BLACK
6
CONTINUOUS
10
2.36516
20
-1.12163
11
2.3704
21
-1.12514
0
LINE
8
BLACK
6
CONTINUOUS
10
2.3704
20
-1.12514
11
2.37486
21
-1.1296
0
LINE
8
BLACK
6
CONTINUOUS
10
2.37486
20
-1.1296
11
2.37837
21
-1.13484
0
LINE
8
BLACK
6
CONTINUOUS
10
2.37837
20
-1.13484
11
2.38078
21
-1.14066
0
LINE
8
BLACK
6
CONTINUOUS
10
2.38078
20
-1.14066
11
2.38201
21
-1.14685
0
LINE
8
BLACK
6
CONTINUOUS
10
2.38201
20
-1.14685
11
2.38201
21
-1.15315
0
LINE
8
BLACK
6
CONTINUOUS
10
2.38201
20
-1.15315
11
2.38078
21
-1.15934
0
LINE
8
BLACK
6
CONTINUOUS
10
2.38078
20
-1.15934
11
2.37837
21
-1.16516
0
LINE
8
BLACK
6
CONTINUOUS
10
2.37837
20
-1.16516
11
2.37486
21
-1.1704
0
LINE
8
BLACK
6
CONTINUOUS
10
2.37486
20
-1.1704
11
2.3704
21
-1.17486
0
LINE
8
BLACK
6
CONTINUOUS
10
2.3704
20
-1.17486
11
2.36516
21
-1.17836
0
LINE
8
BLACK
6
CONTINUOUS
10
2.36516
20
-1.17836
11
2.35934
21
-1.18078
0
LINE
8
BLACK
6
CONTINUOUS
10
2.35934
20
-1.18078
11
2.35315
21
-1.18201
0
LINE
8
BLACK
6
CONTINUOUS
10
2.35315
20
-1.18201
11
2.34685
21
-1.18201
0
LINE
8
BLACK
6
CONTINUOUS
10
2.34685
20
-1.18201
11
2.34066
21
-1.18078
0
LINE
8
BLACK
6
CONTINUOUS
10
2.34066
20
-1.18078
11
2.33484
21
-1.17836
0
LINE
8
BLACK
6
CONTINUOUS
10
2.33484
20
-1.17836
11
2.3296
21
-1.17486
0
LINE
8
BLACK
6
CONTINUOUS
10
2.3296
20
-1.17486
11
2.32514
21
-1.1704
0
LINE
8
BLACK
6
CONTINUOUS
10
2.32514
20
-1.1704
11
2.32164
21
-1.16516
0
LINE
8
BLACK
6
CONTINUOUS
10
2.32164
20
-1.16516
11
2.31922
21
-1.15934
0
LINE
8
BLACK
6
CONTINUOUS
10
2.31922
20
-1.15934
11
2.31799
21
-1.15315
0
LINE
8
BLACK
6
CONTINUOUS
10
2.31799
20
-1.15315
11
2.31799
21
-1.14685
0
LINE
8
BLACK
6
CONTINUOUS
10
2.31799
20
-1.14685
11
2.31922
21
-1.14066
0
LINE
8
BLACK
6
CONTINUOUS
10
2.31922
20
-1.14066
11
2.32164
21
-1.13484
0
LINE
8
BLACK
6
CONTINUOUS
10
2.32164
20
-1.13484
11
2.32514
21
-1.1296
0
LINE
8
BLACK
6
CONTINUOUS
10
2.32514
20
-1.1296
11
2.3296
21
-1.12514
0
LINE
8
BLACK
6
CONTINUOUS
10
2.3296
20
-1.12514
11
2.33484
21
-1.12163
0
LINE
8
BLACK
6
CONTINUOUS
10
2.33484
20
-1.12163
11
2.34066
21
-1.11922
0
LINE
8
BLACK
6
CONTINUOUS
10
2.34066
20
-1.11922
11
2.34685
21
-1.11799
0
LINE
8
BLACK
6
CONTINUOUS
10
2.34685
20
-1.11799
11
2.35315
21
-1.11799
0
LINE
8
BLACK
6
CONTINUOUS
10
2.35315
20
-1.11799
11
2.35934
21
-1.11922
0
LINE
8
BLACK
6
CONTINUOUS
10
2.15934
20
-1.11922
11
2.16516
21
-1.12163
0
LINE
8
BLACK
6
CONTINUOUS
10
2.16516
20
-1.12163
11
2.1704
21
-1.12514
0
LINE
8
BLACK
6
CONTINUOUS
10
2.1704
20
-1.12514
11
2.17486
21
-1.1296
0
LINE
8
BLACK
6
CONTINUOUS
10
2.17486
20
-1.1296
11
2.17836
21
-1.13484
0
LINE
8
BLACK
6
CONTINUOUS
10
2.17836
20
-1.13484
11
2.18078
21
-1.14066
0
LINE
8
BLACK
6
CONTINUOUS
10
2.18078
20
-1.14066
11
2.18201
21
-1.14685
0
LINE
8
BLACK
6
CONTINUOUS
10
2.18201
20
-1.14685
11
2.18201
21
-1.15315
0
LINE
8
BLACK
6
CONTINUOUS
10
2.18201
20
-1.15315
11
2.18078
21
-1.15934
0
LINE
8
BLACK
6
CONTINUOUS
10
2.18078
20
-1.15934
11
2.17836
21
-1.16516
0
LINE
8
BLACK
6
CONTINUOUS
10
2.17836
20
-1.16516
11
2.17486
21
-1.1704
0
LINE
8
BLACK
6
CONTINUOUS
10
2.17486
20
-1.1704
11
2.1704
21
-1.17486
0
LINE
8
BLACK
6
CONTINUOUS
10
2.1704
20
-1.17486
11
2.16516
21
-1.17836
0
LINE
8
BLACK
6
CONTINUOUS
10
2.16516
20
-1.17836
11
2.15934
21
-1.18078
0
LINE
8
BLACK
6
CONTINUOUS
10
2.15934
20
-1.18078
11
2.15315
21
-1.18201
0
LINE
8
BLACK
6
CONTINUOUS
10
2.15315
20
-1.18201
11
2.14685
21
-1.18201
0
LINE
8
BLACK
6
CONTINUOUS
10
2.14685
20
-1.18201
11
2.14066
21
-1.18078
0
LINE
8
BLACK
6
CONTINUOUS
10
2.14066
20
-1.18078
11
2.13484
21
-1.17836
0
LINE
8
BLACK
6
CONTINUOUS
10
2.13484
20
-1.17836
11
2.1296
21
-1.17486
0
LINE
8
BLACK
6
CONTINUOUS
10
2.1296
20
-1.17486
11
2.12514
21
-1.1704
0
LINE
8
BLACK
6
CONTINUOUS
10
2.12514
20
-1.1704
11
2.12163
21
-1.16516
0
LINE
8
BLACK
6
CONTINUOUS
10
2.12163
20
-1.16516
11
2.11922
21
-1.15934
0
LINE
8
BLACK
6
CONTINUOUS
10
2.11922
20
-1.15934
11
2.11799
21
-1.15315
0
LINE
8
BLACK
6
CONTINUOUS
10
2.11799
20
-1.15315
11
2.11799
21
-1.14685
0
LINE
8
BLACK
6
CONTINUOUS
10
2.11799
20
-1.14685
11
2.11922
21
-1.14066
0
LINE
8
BLACK
6
CONTINUOUS
10
2.11922
20
-1.14066
11
2.12163
21
-1.13484
0
LINE
8
BLACK
6
CONTINUOUS
10
2.12163
20
-1.13484
11
2.12514
21
-1.1296
0
LINE
8
BLACK
6
CONTINUOUS
10
2.12514
20
-1.1296
11
2.1296
21
-1.12514
0
LINE
8
BLACK
6
CONTINUOUS
10
2.1296
20
-1.12514
11
2.13484
21
-1.12163
0
LINE
8
BLACK
6
CONTINUOUS
10
2.13484
20
-1.12163
11
2.14066
21
-1.11922
0
LINE
8
BLACK
6
CONTINUOUS
10
2.14066
20
-1.11922
11
2.14685
21
-1.11799
0
LINE
8
BLACK
6
CONTINUOUS
10
2.14685
20
-1.11799
11
2.15315
21
-1.11799
0
LINE
8
BLACK
6
CONTINUOUS
10
2.15315
20
-1.11799
11
2.15934
21
-1.11922
0
LINE
8
BLACK
6
CONTINUOUS
10
2.85934
20
-1.11292
11
2.86516
21
-1.11534
0
LINE
8
BLACK
6
CONTINUOUS
10
2.86516
20
-1.11534
11
2.8704
21
-1.11884
0
LINE
8
BLACK
6
CONTINUOUS
10
2.8704
20
-1.11884
11
2.87486
21
-1.1233
0
LINE
8
BLACK
6
CONTINUOUS
10
2.87486
20
-1.1233
11
2.87837
21
-1.12854
0
LINE
8
BLACK
6
CONTINUOUS
10
2.87837
20
-1.12854
11
2.88078
21
-1.13436
0
LINE
8
BLACK
6
CONTINUOUS
10
2.88078
20
-1.13436
11
2.88201
21
-1.14055
0
LINE
8
BLACK
6
CONTINUOUS
10
2.88201
20
-1.14055
11
2.88201
21
-1.14685
0
LINE
8
BLACK
6
CONTINUOUS
10
2.88201
20
-1.14685
11
2.88078
21
-1.15304
0
LINE
8
BLACK
6
CONTINUOUS
10
2.88078
20
-1.15304
11
2.87837
21
-1.15886
0
LINE
8
BLACK
6
CONTINUOUS
10
2.87837
20
-1.15886
11
2.87486
21
-1.1641
0
LINE
8
BLACK
6
CONTINUOUS
10
2.87486
20
-1.1641
11
2.8704
21
-1.16856
0
LINE
8
BLACK
6
CONTINUOUS
10
2.8704
20
-1.16856
11
2.86516
21
-1.17207
0
LINE
8
BLACK
6
CONTINUOUS
10
2.86516
20
-1.17207
11
2.85934
21
-1.17448
0
LINE
8
BLACK
6
CONTINUOUS
10
2.85934
20
-1.17448
11
2.85315
21
-1.17571
0
LINE
8
BLACK
6
CONTINUOUS
10
2.85315
20
-1.17571
11
2.84685
21
-1.17571
0
LINE
8
BLACK
6
CONTINUOUS
10
2.84685
20
-1.17571
11
2.84066
21
-1.17448
0
LINE
8
BLACK
6
CONTINUOUS
10
2.84066
20
-1.17448
11
2.83484
21
-1.17207
0
LINE
8
BLACK
6
CONTINUOUS
10
2.83484
20
-1.17207
11
2.8296
21
-1.16856
0
LINE
8
BLACK
6
CONTINUOUS
10
2.8296
20
-1.16856
11
2.82514
21
-1.1641
0
LINE
8
BLACK
6
CONTINUOUS
10
2.82514
20
-1.1641
11
2.82164
21
-1.15886
0
LINE
8
BLACK
6
CONTINUOUS
10
2.82164
20
-1.15886
11
2.81922
21
-1.15304
0
LINE
8
BLACK
6
CONTINUOUS
10
2.81922
20
-1.15304
11
2.81799
21
-1.14685
0
LINE
8
BLACK
6
CONTINUOUS
10
2.81799
20
-1.14685
11
2.81799
21
-1.14055
0
LINE
8
BLACK
6
CONTINUOUS
10
2.81799
20
-1.14055
11
2.81922
21
-1.13436
0
LINE
8
BLACK
6
CONTINUOUS
10
2.81922
20
-1.13436
11
2.82164
21
-1.12854
0
LINE
8
BLACK
6
CONTINUOUS
10
2.82164
20
-1.12854
11
2.82514
21
-1.1233
0
LINE
8
BLACK
6
CONTINUOUS
10
2.82514
20
-1.1233
11
2.8296
21
-1.11884
0
LINE
8
BLACK
6
CONTINUOUS
10
2.8296
20
-1.11884
11
2.83484
21
-1.11534
0
LINE
8
BLACK
6
CONTINUOUS
10
2.83484
20
-1.11534
11
2.84066
21
-1.11292
0
LINE
8
BLACK
6
CONTINUOUS
10
2.84066
20
-1.11292
11
2.84685
21
-1.11169
0
LINE
8
BLACK
6
CONTINUOUS
10
2.84685
20
-1.11169
11
2.85315
21
-1.11169
0
LINE
8
BLACK
6
CONTINUOUS
10
2.85315
20
-1.11169
11
2.85934
21
-1.11292
0
LINE
8
BLACK
6
CONTINUOUS
10
1.05934
20
-1.11292
11
1.06516
21
-1.11534
0
LINE
8
BLACK
6
CONTINUOUS
10
1.06516
20
-1.11534
11
1.0704
21
-1.11884
0
LINE
8
BLACK
6
CONTINUOUS
10
1.0704
20
-1.11884
11
1.07486
21
-1.1233
0
LINE
8
BLACK
6
CONTINUOUS
10
1.07486
20
-1.1233
11
1.07837
21
-1.12854
0
LINE
8
BLACK
6
CONTINUOUS
10
1.07837
20
-1.12854
11
1.08078
21
-1.13436
0
LINE
8
BLACK
6
CONTINUOUS
10
1.08078
20
-1.13436
11
1.08201
21
-1.14055
0
LINE
8
BLACK
6
CONTINUOUS
10
1.08201
20
-1.14055
11
1.08201
21
-1.14685
0
LINE
8
BLACK
6
CONTINUOUS
10
1.08201
20
-1.14685
11
1.08078
21
-1.15304
0
LINE
8
BLACK
6
CONTINUOUS
10
1.08078
20
-1.15304
11
1.07837
21
-1.15886
0
LINE
8
BLACK
6
CONTINUOUS
10
1.07837
20
-1.15886
11
1.07486
21
-1.1641
0
LINE
8
BLACK
6
CONTINUOUS
10
1.07486
20
-1.1641
11
1.0704
21
-1.16856
0
LINE
8
BLACK
6
CONTINUOUS
10
1.0704
20
-1.16856
11
1.06516
21
-1.17207
0
LINE
8
BLACK
6
CONTINUOUS
10
1.06516
20
-1.17207
11
1.05934
21
-1.17448
0
LINE
8
BLACK
6
CONTINUOUS
10
1.05934
20
-1.17448
11
1.05315
21
-1.17571
0
LINE
8
BLACK
6
CONTINUOUS
10
1.05315
20
-1.17571
11
1.04685
21
-1.17571
0
LINE
8
BLACK
6
CONTINUOUS
10
1.04685
20
-1.17571
11
1.04066
21
-1.17448
0
LINE
8
BLACK
6
CONTINUOUS
10
1.04066
20
-1.17448
11
1.03484
21
-1.17207
0
LINE
8
BLACK
6
CONTINUOUS
10
1.03484
20
-1.17207
11
1.0296
21
-1.16856
0
LINE
8
BLACK
6
CONTINUOUS
10
1.0296
20
-1.16856
11
1.02514
21
-1.1641
0
LINE
8
BLACK
6
CONTINUOUS
10
1.02514
20
-1.1641
11
1.02164
21
-1.15886
0
LINE
8
BLACK
6
CONTINUOUS
10
1.02164
20
-1.15886
11
1.01922
21
-1.15304
0
LINE
8
BLACK
6
CONTINUOUS
10
1.01922
20
-1.15304
11
1.01799
21
-1.14685
0
LINE
8
BLACK
6
CONTINUOUS
10
1.01799
20
-1.14685
11
1.01799
21
-1.14055
0
LINE
8
BLACK
6
CONTINUOUS
10
1.01799
20
-1.14055
11
1.01922
21
-1.13436
0
LINE
8
BLACK
6
CONTINUOUS
10
1.01922
20
-1.13436
11
1.02164
21
-1.12854
0
LINE
8
BLACK
6
CONTINUOUS
10
1.02164
20
-1.12854
11
1.02514
21
-1.1233
0
LINE
8
BLACK
6
CONTINUOUS
10
1.02514
20
-1.1233
11
1.0296
21
-1.11884
0
LINE
8
BLACK
6
CONTINUOUS
10
1.0296
20
-1.11884
11
1.03484
21
-1.11534
0
LINE
8
BLACK
6
CONTINUOUS
10
1.03484
20
-1.11534
11
1.04066
21
-1.11292
0
LINE
8
BLACK
6
CONTINUOUS
10
1.04066
20
-1.11292
11
1.04685
21
-1.11169
0
LINE
8
BLACK
6
CONTINUOUS
10
1.04685
20
-1.11169
11
1.05315
21
-1.11169
0
LINE
8
BLACK
6
CONTINUOUS
10
1.05315
20
-1.11169
11
1.05934
21
-1.11292
0
LINE
8
BLACK
6
CONTINUOUS
10
1.65934
20
-1.11292
11
1.66516
21
-1.11534
0
LINE
8
BLACK
6
CONTINUOUS
10
1.66516
20
-1.11534
11
1.6704
21
-1.11884
0
LINE
8
BLACK
6
CONTINUOUS
10
1.6704
20
-1.11884
11
1.67486
21
-1.1233
0
LINE
8
BLACK
6
CONTINUOUS
10
1.67486
20
-1.1233
11
1.67836
21
-1.12854
0
LINE
8
BLACK
6
CONTINUOUS
10
1.67836
20
-1.12854
11
1.68078
21
-1.13436
0
LINE
8
BLACK
6
CONTINUOUS
10
1.68078
20
-1.13436
11
1.68201
21
-1.14055
0
LINE
8
BLACK
6
CONTINUOUS
10
1.68201
20
-1.14055
11
1.68201
21
-1.14685
0
LINE
8
BLACK
6
CONTINUOUS
10
1.68201
20
-1.14685
11
1.68078
21
-1.15304
0
LINE
8
BLACK
6
CONTINUOUS
10
1.68078
20
-1.15304
11
1.67836
21
-1.15886
0
LINE
8
BLACK
6
CONTINUOUS
10
1.67836
20
-1.15886
11
1.67486
21
-1.1641
0
LINE
8
BLACK
6
CONTINUOUS
10
1.67486
20
-1.1641
11
1.6704
21
-1.16856
0
LINE
8
BLACK
6
CONTINUOUS
10
1.6704
20
-1.16856
11
1.66516
21
-1.17207
0
LINE
8
BLACK
6
CONTINUOUS
10
1.66516
20
-1.17207
11
1.65934
21
-1.17448
0
LINE
8
BLACK
6
CONTINUOUS
10
1.65934
20
-1.17448
11
1.65315
21
-1.17571
0
LINE
8
BLACK
6
CONTINUOUS
10
1.65315
20
-1.17571
11
1.64685
21
-1.17571
0
LINE
8
BLACK
6
CONTINUOUS
10
1.64685
20
-1.17571
11
1.64066
21
-1.17448
0
LINE
8
BLACK
6
CONTINUOUS
10
1.64066
20
-1.17448
11
1.63484
21
-1.17207
0
LINE
8
BLACK
6
CONTINUOUS
10
1.63484
20
-1.17207
11
1.6296
21
-1.16856
0
LINE
8
BLACK
6
CONTINUOUS
10
1.6296
20
-1.16856
11
1.62514
21
-1.1641
0
LINE
8
BLACK
6
CONTINUOUS
10
1.62514
20
-1.1641
11
1.62163
21
-1.15886
0
LINE
8
BLACK
6
CONTINUOUS
10
1.62163
20
-1.15886
11
1.61922
21
-1.15304
0
LINE
8
BLACK
6
CONTINUOUS
10
1.61922
20
-1.15304
11
1.61799
21
-1.14685
0
LINE
8
BLACK
6
CONTINUOUS
10
1.61799
20
-1.14685
11
1.61799
21
-1.14055
0
LINE
8
BLACK
6
CONTINUOUS
10
1.61799
20
-1.14055
11
1.61922
21
-1.13436
0
LINE
8
BLACK
6
CONTINUOUS
10
1.61922
20
-1.13436
11
1.62163
21
-1.12854
0
LINE
8
BLACK
6
CONTINUOUS
10
1.62163
20
-1.12854
11
1.62514
21
-1.1233
0
LINE
8
BLACK
6
CONTINUOUS
10
1.62514
20
-1.1233
11
1.6296
21
-1.11884
0
LINE
8
BLACK
6
CONTINUOUS
10
1.6296
20
-1.11884
11
1.63484
21
-1.11534
0
LINE
8
BLACK
6
CONTINUOUS
10
1.63484
20
-1.11534
11
1.64066
21
-1.11292
0
LINE
8
BLACK
6
CONTINUOUS
10
1.64066
20
-1.11292
11
1.64685
21
-1.11169
0
LINE
8
BLACK
6
CONTINUOUS
10
1.64685
20
-1.11169
11
1.65315
21
-1.11169
0
LINE
8
BLACK
6
CONTINUOUS
10
1.65315
20
-1.11169
11
1.65934
21
-1.11292
0
LINE
8
BLACK
6
CONTINUOUS
10
2.25934
20
-1.11292
11
2.26516
21
-1.11534
0
LINE
8
BLACK
6
CONTINUOUS
10
2.26516
20
-1.11534
11
2.2704
21
-1.11884
0
LINE
8
BLACK
6
CONTINUOUS
10
2.2704
20
-1.11884
11
2.27486
21
-1.1233
0
LINE
8
BLACK
6
CONTINUOUS
10
2.27486
20
-1.1233
11
2.27836
21
-1.12854
0
LINE
8
BLACK
6
CONTINUOUS
10
2.27836
20
-1.12854
11
2.28078
21
-1.13436
0
LINE
8
BLACK
6
CONTINUOUS
10
2.28078
20
-1.13436
11
2.28201
21
-1.14055
0
LINE
8
BLACK
6
CONTINUOUS
10
2.28201
20
-1.14055
11
2.28201
21
-1.14685
0
LINE
8
BLACK
6
CONTINUOUS
10
2.28201
20
-1.14685
11
2.28078
21
-1.15304
0
LINE
8
BLACK
6
CONTINUOUS
10
2.28078
20
-1.15304
11
2.27836
21
-1.15886
0
LINE
8
BLACK
6
CONTINUOUS
10
2.27836
20
-1.15886
11
2.27486
21
-1.1641
0
LINE
8
BLACK
6
CONTINUOUS
10
2.27486
20
-1.1641
11
2.2704
21
-1.16856
0
LINE
8
BLACK
6
CONTINUOUS
10
2.2704
20
-1.16856
11
2.26516
21
-1.17207
0
LINE
8
BLACK
6
CONTINUOUS
10
2.26516
20
-1.17207
11
2.25934
21
-1.17448
0
LINE
8
BLACK
6
CONTINUOUS
10
2.25934
20
-1.17448
11
2.25315
21
-1.17571
0
LINE
8
BLACK
6
CONTINUOUS
10
2.25315
20
-1.17571
11
2.24685
21
-1.17571
0
LINE
8
BLACK
6
CONTINUOUS
10
2.24685
20
-1.17571
11
2.24066
21
-1.17448
0
LINE
8
BLACK
6
CONTINUOUS
10
2.24066
20
-1.17448
11
2.23484
21
-1.17207
0
LINE
8
BLACK
6
CONTINUOUS
10
2.23484
20
-1.17207
11
2.2296
21
-1.16856
0
LINE
8
BLACK
6
CONTINUOUS
10
2.2296
20
-1.16856
11
2.22514
21
-1.1641
0
LINE
8
BLACK
6
CONTINUOUS
10
2.22514
20
-1.1641
11
2.22164
21
-1.15886
0
LINE
8
BLACK
6
CONTINUOUS
10
2.22164
20
-1.15886
11
2.21922
21
-1.15304
0
LINE
8
BLACK
6
CONTINUOUS
10
2.21922
20
-1.15304
11
2.21799
21
-1.14685
0
LINE
8
BLACK
6
CONTINUOUS
10
2.21799
20
-1.14685
11
2.21799
21
-1.14055
0
LINE
8
BLACK
6
CONTINUOUS
10
2.21799
20
-1.14055
11
2.21922
21
-1.13436
0
LINE
8
BLACK
6
CONTINUOUS
10
2.21922
20
-1.13436
11
2.22164
21
-1.12854
0
LINE
8
BLACK
6
CONTINUOUS
10
2.22164
20
-1.12854
11
2.22514
21
-1.1233
0
LINE
8
BLACK
6
CONTINUOUS
10
2.22514
20
-1.1233
11
2.2296
21
-1.11884
0
LINE
8
BLACK
6
CONTINUOUS
10
2.2296
20
-1.11884
11
2.23484
21
-1.11534
0
LINE
8
BLACK
6
CONTINUOUS
10
2.23484
20
-1.11534
11
2.24066
21
-1.11292
0
LINE
8
BLACK
6
CONTINUOUS
10
2.24066
20
-1.11292
11
2.24685
21
-1.11169
0
LINE
8
BLACK
6
CONTINUOUS
10
2.24685
20
-1.11169
11
2.25315
21
-1.11169
0
LINE
8
BLACK
6
CONTINUOUS
10
2.25315
20
-1.11169
11
2.25934
21
-1.11292
0
LINE
8
BLACK
6
CONTINUOUS
10
5.14154
20
-0.862677
11
5.13507
21
-0.862677
0
LINE
8
BLACK
6
CONTINUOUS
10
5.13507
20
-0.862677
11
5.13411
21
-0.862772
0
LINE
8
BLACK
6
CONTINUOUS
10
5.13411
20
-0.862772
11
5.13318
21
-0.863052
0
LINE
8
BLACK
6
CONTINUOUS
10
5.13318
20
-0.863052
11
5.13233
21
-0.863507
0
LINE
8
BLACK
6
CONTINUOUS
10
5.13233
20
-0.863507
11
5.13159
21
-0.864119
0
LINE
8
BLACK
6
CONTINUOUS
10
5.13159
20
-0.864119
11
5.13097
21
-0.864864
0
LINE
8
BLACK
6
CONTINUOUS
10
5.13097
20
-0.864864
11
5.13052
21
-0.865715
0
LINE
8
BLACK
6
CONTINUOUS
10
5.13052
20
-0.865715
11
5.13024
21
-0.866638
0
LINE
8
BLACK
6
CONTINUOUS
10
5.13024
20
-0.866638
11
5.13014
21
-0.867598
0
LINE
8
BLACK
6
CONTINUOUS
10
5.13014
20
-0.867598
11
5.13024
21
-0.868558
0
LINE
8
BLACK
6
CONTINUOUS
10
5.13024
20
-0.868558
11
5.13052
21
-0.869482
0
LINE
8
BLACK
6
CONTINUOUS
10
5.13052
20
-0.869482
11
5.13097
21
-0.870332
0
LINE
8
BLACK
6
CONTINUOUS
10
5.13097
20
-0.870332
11
5.13159
21
-0.871078
0
LINE
8
BLACK
6
CONTINUOUS
10
5.13159
20
-0.871078
11
5.13194
21
-0.871402
0
LINE
8
BLACK
6
CONTINUOUS
10
5.13194
20
-0.871402
11
5.13497
21
-0.873887
0
LINE
8
BLACK
6
CONTINUOUS
10
5.13497
20
-0.873887
11
5.1378
21
-0.87734
0
LINE
8
BLACK
6
CONTINUOUS
10
5.1378
20
-0.87734
11
5.13915
21
-0.879858
0
LINE
8
BLACK
6
CONTINUOUS
10
5.13915
20
-0.879858
11
5.13991
21
-0.88128
0
LINE
8
BLACK
6
CONTINUOUS
10
5.13991
20
-0.88128
11
5.13991
21
-0.88128
0
LINE
8
BLACK
6
CONTINUOUS
10
5.13991
20
-0.88128
11
5.14121
21
-0.885554
0
LINE
8
BLACK
6
CONTINUOUS
10
5.14121
20
-0.885554
11
5.14165
21
-0.89
0
LINE
8
BLACK
6
CONTINUOUS
10
5.14165
20
-0.89
11
5.14121
21
-0.894446
0
LINE
8
BLACK
6
CONTINUOUS
10
5.14121
20
-0.894446
11
5.13991
21
-0.89872
0
LINE
8
BLACK
6
CONTINUOUS
10
5.13991
20
-0.89872
11
5.13991
21
-0.89872
0
LINE
8
BLACK
6
CONTINUOUS
10
5.13991
20
-0.89872
11
5.13915
21
-0.900142
0
LINE
8
BLACK
6
CONTINUOUS
10
5.13915
20
-0.900142
11
5.1378
21
-0.90266
0
LINE
8
BLACK
6
CONTINUOUS
10
5.1378
20
-0.90266
11
5.13497
21
-0.906113
0
LINE
8
BLACK
6
CONTINUOUS
10
5.13497
20
-0.906113
11
5.13152
21
-0.908947
0
LINE
8
BLACK
6
CONTINUOUS
10
5.13152
20
-0.908947
11
5.12831
21
-0.91066
0
LINE
8
BLACK
6
CONTINUOUS
10
5.12831
20
-0.91066
11
5.12751
21
-0.911196
0
LINE
8
BLACK
6
CONTINUOUS
10
5.12751
20
-0.911196
11
5.12683
21
-0.911878
0
LINE
8
BLACK
6
CONTINUOUS
10
5.12683
20
-0.911878
11
5.12629
21
-0.91268
0
LINE
8
BLACK
6
CONTINUOUS
10
5.12629
20
-0.91268
11
5.12592
21
-0.913571
0
LINE
8
BLACK
6
CONTINUOUS
10
5.12592
20
-0.913571
11
5.12573
21
-0.914518
0
LINE
8
BLACK
6
CONTINUOUS
10
5.12573
20
-0.914518
11
5.12573
21
-0.915482
0
LINE
8
BLACK
6
CONTINUOUS
10
5.12573
20
-0.915482
11
5.12592
21
-0.916429
0
LINE
8
BLACK
6
CONTINUOUS
10
5.12592
20
-0.916429
11
5.12629
21
-0.91732
0
LINE
8
BLACK
6
CONTINUOUS
10
5.12629
20
-0.91732
11
5.12683
21
-0.918122
0
LINE
8
BLACK
6
CONTINUOUS
10
5.12683
20
-0.918122
11
5.12751
21
-0.918804
0
LINE
8
BLACK
6
CONTINUOUS
10
5.12751
20
-0.918804
11
5.12831
21
-0.91934
0
LINE
8
BLACK
6
CONTINUOUS
10
5.12831
20
-0.91934
11
5.13152
21
-0.921053
0
LINE
8
BLACK
6
CONTINUOUS
10
5.13152
20
-0.921053
11
5.13497
21
-0.923887
0
LINE
8
BLACK
6
CONTINUOUS
10
5.13497
20
-0.923887
11
5.1378
21
-0.92734
0
LINE
8
BLACK
6
CONTINUOUS
10
5.1378
20
-0.92734
11
5.13915
21
-0.929858
0
LINE
8
BLACK
6
CONTINUOUS
10
5.13915
20
-0.929858
11
5.13991
21
-0.93128
0
LINE
8
BLACK
6
CONTINUOUS
10
5.13991
20
-0.93128
11
5.13991
21
-0.93128
0
LINE
8
BLACK
6
CONTINUOUS
10
5.13991
20
-0.93128
11
5.14121
21
-0.935554
0
LINE
8
BLACK
6
CONTINUOUS
10
5.14121
20
-0.935554
11
5.14165
21
-0.94
0
LINE
8
BLACK
6
CONTINUOUS
10
5.14165
20
-0.94
11
5.14121
21
-0.944446
0
LINE
8
BLACK
6
CONTINUOUS
10
5.14121
20
-0.944446
11
5.13991
21
-0.94872
0
LINE
8
BLACK
6
CONTINUOUS
10
5.13991
20
-0.94872
11
5.13991
21
-0.94872
0
LINE
8
BLACK
6
CONTINUOUS
10
5.13991
20
-0.94872
11
5.13915
21
-0.950142
0
LINE
8
BLACK
6
CONTINUOUS
10
5.13915
20
-0.950142
11
5.1378
21
-0.95266
0
LINE
8
BLACK
6
CONTINUOUS
10
5.1378
20
-0.95266
11
5.13497
21
-0.956113
0
LINE
8
BLACK
6
CONTINUOUS
10
5.13497
20
-0.956113
11
5.13152
21
-0.958947
0
LINE
8
BLACK
6
CONTINUOUS
10
5.13152
20
-0.958947
11
5.129
21
-0.960292
0
LINE
8
BLACK
6
CONTINUOUS
10
5.129
20
-0.960292
11
5.12758
21
-0.961052
0
LINE
8
BLACK
6
CONTINUOUS
10
5.12758
20
-0.961052
11
5.12758
21
-0.961052
0
LINE
8
BLACK
6
CONTINUOUS
10
5.12758
20
-0.961052
11
5.1233
21
-0.962349
0
LINE
8
BLACK
6
CONTINUOUS
10
5.1233
20
-0.962349
11
5.11997
21
-0.962677
0
LINE
8
BLACK
6
CONTINUOUS
10
5.11997
20
-0.962677
11
5.10003
21
-0.962677
0
LINE
8
BLACK
6
CONTINUOUS
10
5.10003
20
-0.962677
11
5.0967
21
-0.962349
0
LINE
8
BLACK
6
CONTINUOUS
10
5.0967
20
-0.962349
11
5.09242
21
-0.961052
0
LINE
8
BLACK
6
CONTINUOUS
10
5.09242
20
-0.961052
11
5.09242
21
-0.961052
0
LINE
8
BLACK
6
CONTINUOUS
10
5.09242
20
-0.961052
11
5.091
21
-0.960292
0
LINE
8
BLACK
6
CONTINUOUS
10
5.091
20
-0.960292
11
5.08848
21
-0.958947
0
LINE
8
BLACK
6
CONTINUOUS
10
5.08848
20
-0.958947
11
5.08503
21
-0.956113
0
LINE
8
BLACK
6
CONTINUOUS
10
5.08503
20
-0.956113
11
5.0822
21
-0.95266
0
LINE
8
BLACK
6
CONTINUOUS
10
5.0822
20
-0.95266
11
5.08085
21
-0.950142
0
LINE
8
BLACK
6
CONTINUOUS
10
5.08085
20
-0.950142
11
5.08009
21
-0.94872
0
LINE
8
BLACK
6
CONTINUOUS
10
5.08009
20
-0.94872
11
5.08009
21
-0.94872
0
LINE
8
BLACK
6
CONTINUOUS
10
5.08009
20
-0.94872
11
5.07879
21
-0.944446
0
LINE
8
BLACK
6
CONTINUOUS
10
5.07879
20
-0.944446
11
5.07835
21
-0.94
0
LINE
8
BLACK
6
CONTINUOUS
10
5.07835
20
-0.94
11
5.07879
21
-0.935554
0
LINE
8
BLACK
6
CONTINUOUS
10
5.07879
20
-0.935554
11
5.08009
21
-0.93128
0
LINE
8
BLACK
6
CONTINUOUS
10
5.08009
20
-0.93128
11
5.08009
21
-0.93128
0
LINE
8
BLACK
6
CONTINUOUS
10
5.08009
20
-0.93128
11
5.08085
21
-0.929858
0
LINE
8
BLACK
6
CONTINUOUS
10
5.08085
20
-0.929858
11
5.0822
21
-0.92734
0
LINE
8
BLACK
6
CONTINUOUS
10
5.0822
20
-0.92734
11
5.08503
21
-0.923887
0
LINE
8
BLACK
6
CONTINUOUS
10
5.08503
20
-0.923887
11
5.08848
21
-0.921053
0
LINE
8
BLACK
6
CONTINUOUS
10
5.08848
20
-0.921053
11
5.09169
21
-0.91934
0
LINE
8
BLACK
6
CONTINUOUS
10
5.09169
20
-0.91934
11
5.09249
21
-0.918804
0
LINE
8
BLACK
6
CONTINUOUS
10
5.09249
20
-0.918804
11
5.09317
21
-0.918122
0
LINE
8
BLACK
6
CONTINUOUS
10
5.09317
20
-0.918122
11
5.09371
21
-0.91732
0
LINE
8
BLACK
6
CONTINUOUS
10
5.09371
20
-0.91732
11
5.09408
21
-0.916429
0
LINE
8
BLACK
6
CONTINUOUS
10
5.09408
20
-0.916429
11
5.09427
21
-0.915482
0
LINE
8
BLACK
6
CONTINUOUS
10
5.09427
20
-0.915482
11
5.09427
21
-0.914518
0
LINE
8
BLACK
6
CONTINUOUS
10
5.09427
20
-0.914518
11
5.09408
21
-0.913571
0
LINE
8
BLACK
6
CONTINUOUS
10
5.09408
20
-0.913571
11
5.09371
21
-0.91268
0
LINE
8
BLACK
6
CONTINUOUS
10
5.09371
20
-0.91268
11
5.09317
21
-0.911878
0
LINE
8
BLACK
6
CONTINUOUS
10
5.09317
20
-0.911878
11
5.09249
21
-0.911196
0
LINE
8
BLACK
6
CONTINUOUS
10
5.09249
20
-0.911196
11
5.09169
21
-0.91066
0
LINE
8
BLACK
6
CONTINUOUS
10
5.09169
20
-0.91066
11
5.08848
21
-0.908947
0
LINE
8
BLACK
6
CONTINUOUS
10
5.08848
20
-0.908947
11
5.08503
21
-0.906113
0
LINE
8
BLACK
6
CONTINUOUS
10
5.08503
20
-0.906113
11
5.0822
21
-0.90266
0
LINE
8
BLACK
6
CONTINUOUS
10
5.0822
20
-0.90266
11
5.08085
21
-0.900142
0
LINE
8
BLACK
6
CONTINUOUS
10
5.08085
20
-0.900142
11
5.08009
21
-0.89872
0
LINE
8
BLACK
6
CONTINUOUS
10
5.08009
20
-0.89872
11
5.08009
21
-0.89872
0
LINE
8
BLACK
6
CONTINUOUS
10
5.08009
20
-0.89872
11
5.07879
21
-0.894446
0
LINE
8
BLACK
6
CONTINUOUS
10
5.07879
20
-0.894446
11
5.07835
21
-0.89
0
LINE
8
BLACK
6
CONTINUOUS
10
5.07835
20
-0.89
11
5.07879
21
-0.885554
0
LINE
8
BLACK
6
CONTINUOUS
10
5.07879
20
-0.885554
11
5.08009
21
-0.88128
0
LINE
8
BLACK
6
CONTINUOUS
10
5.08009
20
-0.88128
11
5.08009
21
-0.88128
0
LINE
8
BLACK
6
CONTINUOUS
10
5.08009
20
-0.88128
11
5.08085
21
-0.879858
0
LINE
8
BLACK
6
CONTINUOUS
10
5.08085
20
-0.879858
11
5.0822
21
-0.87734
0
LINE
8
BLACK
6
CONTINUOUS
10
5.0822
20
-0.87734
11
5.08503
21
-0.873887
0
LINE
8
BLACK
6
CONTINUOUS
10
5.08503
20
-0.873887
11
5.08806
21
-0.871402
0
LINE
8
BLACK
6
CONTINUOUS
10
5.08806
20
-0.871402
11
5.08874
21
-0.87072
0
LINE
8
BLACK
6
CONTINUOUS
10
5.08874
20
-0.87072
11
5.08927
21
-0.869918
0
LINE
8
BLACK
6
CONTINUOUS
10
5.08927
20
-0.869918
11
5.08964
21
-0.869027
0
LINE
8
BLACK
6
CONTINUOUS
10
5.08964
20
-0.869027
11
5.08983
21
-0.868081
0
LINE
8
BLACK
6
CONTINUOUS
10
5.08983
20
-0.868081
11
5.08983
21
-0.867116
0
LINE
8
BLACK
6
CONTINUOUS
10
5.08983
20
-0.867116
11
5.08964
21
-0.86617
0
LINE
8
BLACK
6
CONTINUOUS
10
5.08964
20
-0.86617
11
5.08927
21
-0.865279
0
LINE
8
BLACK
6
CONTINUOUS
10
5.08927
20
-0.865279
11
5.08874
21
-0.864476
0
LINE
8
BLACK
6
CONTINUOUS
10
5.08874
20
-0.864476
11
5.08806
21
-0.863794
0
LINE
8
BLACK
6
CONTINUOUS
10
5.08806
20
-0.863794
11
5.08725
21
-0.863258
0
LINE
8
BLACK
6
CONTINUOUS
10
5.08725
20
-0.863258
11
5.08636
21
-0.862889
0
LINE
8
BLACK
6
CONTINUOUS
10
5.08636
20
-0.862889
11
5.08542
21
-0.862701
0
LINE
8
BLACK
6
CONTINUOUS
10
5.08542
20
-0.862701
11
5.08493
21
-0.862677
0
LINE
8
BLACK
6
CONTINUOUS
10
5.08493
20
-0.862677
11
5.07846
21
-0.862677
0
LINE
8
BLACK
6
CONTINUOUS
10
5.07846
20
-0.862677
11
5.07846
21
-0.817323
0
LINE
8
BLACK
6
CONTINUOUS
10
5.07846
20
-0.817323
11
5.14154
21
-0.817323
0
LINE
8
BLACK
6
CONTINUOUS
10
5.14154
20
-0.817323
11
5.14154
21
-0.862677
0
LINE
8
BLACK
6
CONTINUOUS
10
4.34531
20
-0.745315
11
4.25469
21
-0.745315
0
LINE
8
BLACK
6
CONTINUOUS
10
4.25469
20
-0.745315
11
4.25469
21
-0.654685
0
LINE
8
BLACK
6
CONTINUOUS
10
4.25469
20
-0.654685
11
4.34531
21
-0.654685
0
LINE
8
BLACK
6
CONTINUOUS
10
4.34531
20
-0.654685
11
4.34531
21
-0.745315
0
LINE
8
BLACK
6
CONTINUOUS
10
3.90884
20
-0.655556
11
3.91322
21
-0.656426
0
LINE
8
BLACK
6
CONTINUOUS
10
3.91322
20
-0.656426
11
3.92146
21
-0.659842
0
LINE
8
BLACK
6
CONTINUOUS
10
3.92146
20
-0.659842
11
3.92889
21
-0.664802
0
LINE
8
BLACK
6
CONTINUOUS
10
3.92889
20
-0.664802
11
3.9352
21
-0.671113
0
LINE
8
BLACK
6
CONTINUOUS
10
3.9352
20
-0.671113
11
3.94016
21
-0.678535
0
LINE
8
BLACK
6
CONTINUOUS
10
3.94016
20
-0.678535
11
3.94357
21
-0.686782
0
LINE
8
BLACK
6
CONTINUOUS
10
3.94357
20
-0.686782
11
3.94531
21
-0.695537
0
LINE
8
BLACK
6
CONTINUOUS
10
3.94531
20
-0.695537
11
3.94531
21
-0.704463
0
LINE
8
BLACK
6
CONTINUOUS
10
3.94531
20
-0.704463
11
3.94357
21
-0.713218
0
LINE
8
BLACK
6
CONTINUOUS
10
3.94357
20
-0.713218
11
3.94016
21
-0.721465
0
LINE
8
BLACK
6
CONTINUOUS
10
3.94016
20
-0.721465
11
3.9352
21
-0.728887
0
LINE
8
BLACK
6
CONTINUOUS
10
3.9352
20
-0.728887
11
3.92889
21
-0.735198
0
LINE
8
BLACK
6
CONTINUOUS
10
3.92889
20
-0.735198
11
3.92146
21
-0.740158
0
LINE
8
BLACK
6
CONTINUOUS
10
3.92146
20
-0.740158
11
3.91322
21
-0.743574
0
LINE
8
BLACK
6
CONTINUOUS
10
3.91322
20
-0.743574
11
3.90884
21
-0.744444
0
LINE
8
BLACK
6
CONTINUOUS
10
3.90884
20
-0.744444
11
3.90446
21
-0.745315
0
LINE
8
BLACK
6
CONTINUOUS
10
3.90446
20
-0.745315
11
3.89554
21
-0.745315
0
LINE
8
BLACK
6
CONTINUOUS
10
3.89554
20
-0.745315
11
3.89116
21
-0.744444
0
LINE
8
BLACK
6
CONTINUOUS
10
3.89116
20
-0.744444
11
3.88678
21
-0.743574
0
LINE
8
BLACK
6
CONTINUOUS
10
3.88678
20
-0.743574
11
3.87854
21
-0.740158
0
LINE
8
BLACK
6
CONTINUOUS
10
3.87854
20
-0.740158
11
3.87111
21
-0.735198
0
LINE
8
BLACK
6
CONTINUOUS
10
3.87111
20
-0.735198
11
3.8648
21
-0.728887
0
LINE
8
BLACK
6
CONTINUOUS
10
3.8648
20
-0.728887
11
3.85984
21
-0.721465
0
LINE
8
BLACK
6
CONTINUOUS
10
3.85984
20
-0.721465
11
3.85643
21
-0.713218
0
LINE
8
BLACK
6
CONTINUOUS
10
3.85643
20
-0.713218
11
3.85469
21
-0.704463
0
LINE
8
BLACK
6
CONTINUOUS
10
3.85469
20
-0.704463
11
3.85469
21
-0.695537
0
LINE
8
BLACK
6
CONTINUOUS
10
3.85469
20
-0.695537
11
3.85643
21
-0.686782
0
LINE
8
BLACK
6
CONTINUOUS
10
3.85643
20
-0.686782
11
3.85984
21
-0.678535
0
LINE
8
BLACK
6
CONTINUOUS
10
3.85984
20
-0.678535
11
3.8648
21
-0.671113
0
LINE
8
BLACK
6
CONTINUOUS
10
3.8648
20
-0.671113
11
3.87111
21
-0.664802
0
LINE
8
BLACK
6
CONTINUOUS
10
3.87111
20
-0.664802
11
3.87854
21
-0.659842
0
LINE
8
BLACK
6
CONTINUOUS
10
3.87854
20
-0.659842
11
3.88678
21
-0.656426
0
LINE
8
BLACK
6
CONTINUOUS
10
3.88678
20
-0.656426
11
3.89116
21
-0.655556
0
LINE
8
BLACK
6
CONTINUOUS
10
3.89116
20
-0.655556
11
3.89554
21
-0.654685
0
LINE
8
BLACK
6
CONTINUOUS
10
3.89554
20
-0.654685
11
3.90446
21
-0.654685
0
LINE
8
BLACK
6
CONTINUOUS
10
3.90446
20
-0.654685
11
3.90884
21
-0.655556
0
LINE
8
BLACK
6
CONTINUOUS
10
3.70884
20
-0.655556
11
3.71322
21
-0.656426
0
LINE
8
BLACK
6
CONTINUOUS
10
3.71322
20
-0.656426
11
3.72146
21
-0.659842
0
LINE
8
BLACK
6
CONTINUOUS
10
3.72146
20
-0.659842
11
3.72889
21
-0.664802
0
LINE
8
BLACK
6
CONTINUOUS
10
3.72889
20
-0.664802
11
3.7352
21
-0.671113
0
LINE
8
BLACK
6
CONTINUOUS
10
3.7352
20
-0.671113
11
3.74016
21
-0.678535
0
LINE
8
BLACK
6
CONTINUOUS
10
3.74016
20
-0.678535
11
3.74357
21
-0.686782
0
LINE
8
BLACK
6
CONTINUOUS
10
3.74357
20
-0.686782
11
3.74531
21
-0.695537
0
LINE
8
BLACK
6
CONTINUOUS
10
3.74531
20
-0.695537
11
3.74531
21
-0.704463
0
LINE
8
BLACK
6
CONTINUOUS
10
3.74531
20
-0.704463
11
3.74357
21
-0.713218
0
LINE
8
BLACK
6
CONTINUOUS
10
3.74357
20
-0.713218
11
3.74016
21
-0.721465
0
LINE
8
BLACK
6
CONTINUOUS
10
3.74016
20
-0.721465
11
3.7352
21
-0.728887
0
LINE
8
BLACK
6
CONTINUOUS
10
3.7352
20
-0.728887
11
3.72889
21
-0.735198
0
LINE
8
BLACK
6
CONTINUOUS
10
3.72889
20
-0.735198
11
3.72146
21
-0.740158
0
LINE
8
BLACK
6
CONTINUOUS
10
3.72146
20
-0.740158
11
3.71322
21
-0.743574
0
LINE
8
BLACK
6
CONTINUOUS
10
3.71322
20
-0.743574
11
3.70884
21
-0.744444
0
LINE
8
BLACK
6
CONTINUOUS
10
3.70884
20
-0.744444
11
3.70446
21
-0.745315
0
LINE
8
BLACK
6
CONTINUOUS
10
3.70446
20
-0.745315
11
3.69554
21
-0.745315
0
LINE
8
BLACK
6
CONTINUOUS
10
3.69554
20
-0.745315
11
3.69116
21
-0.744444
0
LINE
8
BLACK
6
CONTINUOUS
10
3.69116
20
-0.744444
11
3.68678
21
-0.743574
0
LINE
8
BLACK
6
CONTINUOUS
10
3.68678
20
-0.743574
11
3.67854
21
-0.740158
0
LINE
8
BLACK
6
CONTINUOUS
10
3.67854
20
-0.740158
11
3.67111
21
-0.735198
0
LINE
8
BLACK
6
CONTINUOUS
10
3.67111
20
-0.735198
11
3.6648
21
-0.728887
0
LINE
8
BLACK
6
CONTINUOUS
10
3.6648
20
-0.728887
11
3.65984
21
-0.721465
0
LINE
8
BLACK
6
CONTINUOUS
10
3.65984
20
-0.721465
11
3.65643
21
-0.713218
0
LINE
8
BLACK
6
CONTINUOUS
10
3.65643
20
-0.713218
11
3.65469
21
-0.704463
0
LINE
8
BLACK
6
CONTINUOUS
10
3.65469
20
-0.704463
11
3.65469
21
-0.695537
0
LINE
8
BLACK
6
CONTINUOUS
10
3.65469
20
-0.695537
11
3.65643
21
-0.686782
0
LINE
8
BLACK
6
CONTINUOUS
10
3.65643
20
-0.686782
11
3.65984
21
-0.678535
0
LINE
8
BLACK
6
CONTINUOUS
10
3.65984
20
-0.678535
11
3.6648
21
-0.671113
0
LINE
8
BLACK
6
CONTINUOUS
10
3.6648
20
-0.671113
11
3.67111
21
-0.664802
0
LINE
8
BLACK
6
CONTINUOUS
10
3.67111
20
-0.664802
11
3.67854
21
-0.659842
0
LINE
8
BLACK
6
CONTINUOUS
10
3.67854
20
-0.659842
11
3.68678
21
-0.656426
0
LINE
8
BLACK
6
CONTINUOUS
10
3.68678
20
-0.656426
11
3.69116
21
-0.655556
0
LINE
8
BLACK
6
CONTINUOUS
10
3.69116
20
-0.655556
11
3.69554
21
-0.654685
0
LINE
8
BLACK
6
CONTINUOUS
10
3.69554
20
-0.654685
11
3.70446
21
-0.654685
0
LINE
8
BLACK
6
CONTINUOUS
10
3.70446
20
-0.654685
11
3.70884
21
-0.655556
0
LINE
8
BLACK
6
CONTINUOUS
10
3.34531
20
-0.745315
11
3.25469
21
-0.745315
0
LINE
8
BLACK
6
CONTINUOUS
10
3.25469
20
-0.745315
11
3.25469
21
-0.654685
0
LINE
8
BLACK
6
CONTINUOUS
10
3.25469
20
-0.654685
11
3.34531
21
-0.654685
0
LINE
8
BLACK
6
CONTINUOUS
10
3.34531
20
-0.654685
11
3.34531
21
-0.745315
  0
ENDSEC
  0
EOF
