  0
SECTION
  2
HEADER
  9
$ANGBASE
  50
0.0
  9
$ANGDIR
  70
1
  9
$MEASUREMENT
  70
0
  0
ENDSEC
  0
SECTION
  2
TABLES
  0
TABLE
  2
LTYPE
  70
4
  0
LTYPE
  5
40F
  2
CONTINUOUS
  70
0
  3
Solid line
  72
65
  73
0
  40
0.0
  0
LTYPE
  5
410
  2
DASHDOT
 70
0
  3
Dash Dot ____ _ ____ _
 72
65
 73
4
 40
2.0
 49
1.25
 49
-0.25
 49
0.25
 49
-0.25
  0
LTYPE
  5
411
  2
DASHED
 70
0
  3
Dashed __ __ __ __ __
 72
65
 73
2
 40
0.75
 49
0.5
 49
-0.25
  0
LTYPE
  5
43B
  2
DOTTED
 70
0
  3
Dotted .  .  .  .
 72
65
 73
2
 40
0.2
 49
0.0
 49
-0.2
  0
ENDTAB
  0
TABLE
  2
STYLE
  70
4
  0
STYLE
  2
KICAD
  70
0
  40
0
  41
1
  42
1
  50
0
  71
0
  3
isocp.shx
  0
STYLE
  2
KICADB
  70
0
  40
0
  41
1
  42
1
  50
0
  71
0
  3
isocp.shx
  0
STYLE
  2
KICADI
  70
0
  40
0
  41
1
  42
1
  50
15
  71
0
  3
isocp.shx
  0
STYLE
  2
KICADBI
  70
0
  40
0
  41
1
  42
1
  50
15
  71
0
  3
isocp.shx
  0
ENDTAB
  0
TABLE
  2
LAYER
  70
1
  0
LAYER
  2
BLACK
  70
0
  62
7
  6
CONTINUOUS
  0
ENDTAB
  0
ENDSEC
  0
SECTION
  2
ENTITIES
0
LINE
8
BLACK
6
CONTINUOUS
10
5.20002
20
-0.5995
11
5.2001
21
-0.599507
0
LINE
8
BLACK
6
CONTINUOUS
10
5.2001
20
-0.599507
11
5.20019
21
-0.599536
0
LINE
8
BLACK
6
CONTINUOUS
10
5.20019
20
-0.599536
11
5.20028
21
-0.599582
0
LINE
8
BLACK
6
CONTINUOUS
10
5.20028
20
-0.599582
11
5.20036
21
-0.599645
0
LINE
8
BLACK
6
CONTINUOUS
10
5.20036
20
-0.599645
11
5.20042
21
-0.599721
0
LINE
8
BLACK
6
CONTINUOUS
10
5.20042
20
-0.599721
11
5.20046
21
-0.599808
0
LINE
8
BLACK
6
CONTINUOUS
10
5.20046
20
-0.599808
11
5.20049
21
-0.599902
0
LINE
8
BLACK
6
CONTINUOUS
10
5.20049
20
-0.599902
11
5.2005
21
-0.6
0
LINE
8
BLACK
6
CONTINUOUS
10
5.2005
20
-0.6
11
5.2005
21
-0.600024
0
LINE
8
BLACK
6
CONTINUOUS
10
5.2005
20
-0.600024
11
5.2005
21
-2.29998
0
LINE
8
BLACK
6
CONTINUOUS
10
5.2005
20
-2.29998
11
5.2005
21
-2.3
0
LINE
8
BLACK
6
CONTINUOUS
10
5.2005
20
-2.3
11
5.20049
21
-2.3001
0
LINE
8
BLACK
6
CONTINUOUS
10
5.20049
20
-2.3001
11
5.20046
21
-2.30019
0
LINE
8
BLACK
6
CONTINUOUS
10
5.20046
20
-2.30019
11
5.20042
21
-2.30028
0
LINE
8
BLACK
6
CONTINUOUS
10
5.20042
20
-2.30028
11
5.20036
21
-2.30036
0
LINE
8
BLACK
6
CONTINUOUS
10
5.20036
20
-2.30036
11
5.20028
21
-2.30042
0
LINE
8
BLACK
6
CONTINUOUS
10
5.20028
20
-2.30042
11
5.20019
21
-2.30046
0
LINE
8
BLACK
6
CONTINUOUS
10
5.20019
20
-2.30046
11
5.2001
21
-2.30049
0
LINE
8
BLACK
6
CONTINUOUS
10
5.2001
20
-2.30049
11
5.20002
21
-2.3005
0
LINE
8
BLACK
6
CONTINUOUS
10
5.20002
20
-2.3005
11
5.2
21
-2.3005
0
LINE
8
BLACK
6
CONTINUOUS
10
5.2
20
-2.3005
11
5.19998
21
-2.3005
0
LINE
8
BLACK
6
CONTINUOUS
10
5.19998
20
-2.3005
11
0.700024
21
-2.3005
0
LINE
8
BLACK
6
CONTINUOUS
10
0.700024
20
-2.3005
11
0.7
21
-2.3005
0
LINE
8
BLACK
6
CONTINUOUS
10
0.7
20
-2.3005
11
0.699902
21
-2.30049
0
LINE
8
BLACK
6
CONTINUOUS
10
0.699902
20
-2.30049
11
0.699808
21
-2.30046
0
LINE
8
BLACK
6
CONTINUOUS
10
0.699808
20
-2.30046
11
0.699721
21
-2.30042
0
LINE
8
BLACK
6
CONTINUOUS
10
0.699721
20
-2.30042
11
0.699645
21
-2.30036
0
LINE
8
BLACK
6
CONTINUOUS
10
0.699645
20
-2.30036
11
0.699582
21
-2.30028
0
LINE
8
BLACK
6
CONTINUOUS
10
0.699582
20
-2.30028
11
0.699536
21
-2.30019
0
LINE
8
BLACK
6
CONTINUOUS
10
0.699536
20
-2.30019
11
0.699507
21
-2.3001
0
LINE
8
BLACK
6
CONTINUOUS
10
0.699507
20
-2.3001
11
0.699498
21
-2.3
0
LINE
8
BLACK
6
CONTINUOUS
10
0.699498
20
-2.3
11
0.6995
21
-2.29998
0
LINE
8
BLACK
6
CONTINUOUS
10
0.6995
20
-2.29998
11
0.6995
21
-0.600025
0
LINE
8
BLACK
6
CONTINUOUS
10
0.6995
20
-0.600025
11
0.699498
21
-0.6
0
LINE
8
BLACK
6
CONTINUOUS
10
0.699498
20
-0.6
11
0.699507
21
-0.599902
0
LINE
8
BLACK
6
CONTINUOUS
10
0.699507
20
-0.599902
11
0.699536
21
-0.599808
0
LINE
8
BLACK
6
CONTINUOUS
10
0.699536
20
-0.599808
11
0.699582
21
-0.599721
0
LINE
8
BLACK
6
CONTINUOUS
10
0.699582
20
-0.599721
11
0.699645
21
-0.599645
0
LINE
8
BLACK
6
CONTINUOUS
10
0.699645
20
-0.599645
11
0.699721
21
-0.599582
0
LINE
8
BLACK
6
CONTINUOUS
10
0.699721
20
-0.599582
11
0.699808
21
-0.599536
0
LINE
8
BLACK
6
CONTINUOUS
10
0.699808
20
-0.599536
11
0.699902
21
-0.599507
0
LINE
8
BLACK
6
CONTINUOUS
10
0.699902
20
-0.599507
11
0.699976
21
-0.5995
0
LINE
8
BLACK
6
CONTINUOUS
10
0.699976
20
-0.5995
11
0.7
21
-0.599498
0
LINE
8
BLACK
6
CONTINUOUS
10
0.7
20
-0.599498
11
0.700024
21
-0.5995
0
LINE
8
BLACK
6
CONTINUOUS
10
0.700024
20
-0.5995
11
5.19998
21
-0.5995
0
LINE
8
BLACK
6
CONTINUOUS
10
5.19998
20
-0.5995
11
5.2
21
-0.599498
0
LINE
8
BLACK
6
CONTINUOUS
10
5.2
20
-0.599498
11
5.20002
21
-0.5995
0
LINE
8
BLACK
6
CONTINUOUS
10
0.7005
20
-0.6005
11
0.7005
21
-2.2995
0
LINE
8
BLACK
6
CONTINUOUS
10
0.7005
20
-2.2995
11
5.1995
21
-2.2995
0
LINE
8
BLACK
6
CONTINUOUS
10
5.1995
20
-2.2995
11
5.1995
21
-0.6005
0
LINE
8
BLACK
6
CONTINUOUS
10
5.1995
20
-0.6005
11
0.7005
21
-0.6005
  0
ENDSEC
  0
EOF
