G04 #@! TF.GenerationSoftware,KiCad,Pcbnew,(5.1.6-0-10_14)*
G04 #@! TF.CreationDate,2020-06-30T11:40:46-07:00*
G04 #@! TF.ProjectId,Pufferfish-Interface-1,50756666-6572-4666-9973-682d496e7465,v0.1*
G04 #@! TF.SameCoordinates,Original*
G04 #@! TF.FileFunction,Copper,L1,Top*
G04 #@! TF.FilePolarity,Positive*
%FSLAX46Y46*%
G04 Gerber Fmt 4.6, Leading zero omitted, Abs format (unit mm)*
G04 Created by KiCad (PCBNEW (5.1.6-0-10_14)) date 2020-06-30 11:40:46*
%MOMM*%
%LPD*%
G01*
G04 APERTURE LIST*
G04 #@! TA.AperFunction,ComponentPad*
%ADD10C,1.725000*%
G04 #@! TD*
G04 #@! TA.AperFunction,ComponentPad*
%ADD11R,1.725000X1.725000*%
G04 #@! TD*
G04 #@! TA.AperFunction,ComponentPad*
%ADD12C,1.524000*%
G04 #@! TD*
G04 #@! TA.AperFunction,ComponentPad*
%ADD13C,2.200000*%
G04 #@! TD*
G04 #@! TA.AperFunction,ComponentPad*
%ADD14C,1.600000*%
G04 #@! TD*
G04 #@! TA.AperFunction,ComponentPad*
%ADD15O,2.200000X2.200000*%
G04 #@! TD*
G04 #@! TA.AperFunction,ComponentPad*
%ADD16R,2.200000X2.200000*%
G04 #@! TD*
G04 #@! TA.AperFunction,ComponentPad*
%ADD17R,1.500000X1.050000*%
G04 #@! TD*
G04 #@! TA.AperFunction,ComponentPad*
%ADD18O,1.500000X1.050000*%
G04 #@! TD*
G04 #@! TA.AperFunction,ViaPad*
%ADD19C,0.800000*%
G04 #@! TD*
G04 #@! TA.AperFunction,Conductor*
%ADD20C,0.508000*%
G04 #@! TD*
G04 #@! TA.AperFunction,Conductor*
%ADD21C,0.250000*%
G04 #@! TD*
G04 #@! TA.AperFunction,Conductor*
%ADD22C,0.254000*%
G04 #@! TD*
G04 APERTURE END LIST*
D10*
X54610000Y-46990000D03*
X54610000Y-49530000D03*
X57150000Y-46990000D03*
X57150000Y-49530000D03*
X59690000Y-46990000D03*
X59690000Y-49530000D03*
X62230000Y-46990000D03*
X62230000Y-49530000D03*
X64770000Y-46990000D03*
X64770000Y-49530000D03*
X67310000Y-46990000D03*
X67310000Y-49530000D03*
X69850000Y-46990000D03*
X69850000Y-49530000D03*
X72390000Y-46990000D03*
D11*
X72390000Y-49530000D03*
D12*
X74930000Y-34290000D03*
X72390000Y-34450000D03*
X69850000Y-34290000D03*
X74930000Y-29210000D03*
X72390000Y-29050000D03*
X69850000Y-29210000D03*
X29210000Y-34290000D03*
X26670000Y-34450000D03*
X24130000Y-34290000D03*
X29210000Y-29210000D03*
X26670000Y-29050000D03*
X24130000Y-29210000D03*
X44450000Y-34290000D03*
X41910000Y-34450000D03*
X39370000Y-34290000D03*
X44450000Y-29210000D03*
X41910000Y-29050000D03*
X39370000Y-29210000D03*
X59690000Y-34290000D03*
X57150000Y-34450000D03*
X54610000Y-34290000D03*
X59690000Y-29210000D03*
X57150000Y-29050000D03*
X54610000Y-29210000D03*
D13*
X128551601Y-31921601D03*
X109551601Y-31921601D03*
D14*
X97610000Y-37321601D03*
X97610000Y-34821601D03*
X85210000Y-31921601D03*
X100210000Y-31921601D03*
D15*
X93980000Y-17780000D03*
D16*
X83820000Y-17780000D03*
D15*
X99060000Y-17780000D03*
D16*
X109220000Y-17780000D03*
D17*
X128270000Y-19050000D03*
D18*
X128270000Y-21590000D03*
X128270000Y-20320000D03*
D19*
X69342000Y-17526000D03*
X69596000Y-21082000D03*
X61976000Y-40386000D03*
X94488000Y-47452501D03*
X102108000Y-50546000D03*
X19668153Y-41037847D03*
X19050000Y-43434000D03*
X71120000Y-51562000D03*
X71628000Y-56134000D03*
X85090000Y-50038000D03*
X53340000Y-44704000D03*
X54864000Y-43180000D03*
X65024000Y-42926000D03*
X28448000Y-41656000D03*
X73406000Y-44450000D03*
X68326000Y-44450000D03*
X18392700Y-22860000D03*
X20828000Y-43905000D03*
X77978000Y-34036000D03*
X120650000Y-54102000D03*
X81534000Y-52324000D03*
X96266000Y-41656000D03*
X100076000Y-41656000D03*
X118872000Y-42418000D03*
X58166000Y-52070000D03*
X60960000Y-52070000D03*
X65024000Y-52070000D03*
X82042000Y-50800000D03*
X60706000Y-38100000D03*
X42672000Y-37592000D03*
X44704000Y-39624000D03*
X75184000Y-46990000D03*
X102001653Y-53487653D03*
D20*
X69596000Y-17780000D02*
X69342000Y-17526000D01*
X69596000Y-21082000D02*
X69596000Y-21082000D01*
X69596000Y-21082000D02*
X69596000Y-17780000D01*
X68072000Y-34290000D02*
X61976000Y-40386000D01*
X69850000Y-34290000D02*
X68072000Y-34290000D01*
X19668153Y-42815847D02*
X19050000Y-43434000D01*
X19668153Y-41037847D02*
X19668153Y-42815847D01*
X71120000Y-51562000D02*
X71628000Y-52070000D01*
X71628000Y-52070000D02*
X71628000Y-56134000D01*
X85852000Y-46990000D02*
X92456000Y-46990000D01*
X85090000Y-47752000D02*
X85852000Y-46990000D01*
X85090000Y-50038000D02*
X85090000Y-47752000D01*
X92456000Y-46990000D02*
X94488000Y-49022000D01*
X94488000Y-47452501D02*
X94488000Y-49022000D01*
X94488000Y-49022000D02*
X94488000Y-49784000D01*
X95250000Y-50546000D02*
X102108000Y-50546000D01*
X94488000Y-49784000D02*
X95250000Y-50546000D01*
D21*
X72390000Y-48747502D02*
X72390000Y-49530000D01*
D20*
X28448000Y-41656000D02*
X37592000Y-41656000D01*
X37592000Y-41656000D02*
X39878000Y-43942000D01*
X54102000Y-43942000D02*
X54864000Y-43180000D01*
X39878000Y-43942000D02*
X54102000Y-43942000D01*
X53340000Y-44704000D02*
X54102000Y-43942000D01*
X73805999Y-48114001D02*
X72390000Y-49530000D01*
X73805999Y-44849999D02*
X73805999Y-48114001D01*
X73406000Y-44450000D02*
X73805999Y-44849999D01*
X73706501Y-48213499D02*
X73706501Y-47183499D01*
X73706501Y-47183499D02*
X85210000Y-35680000D01*
X72390000Y-49530000D02*
X73706501Y-48213499D01*
D21*
X85210000Y-35680000D02*
X85210000Y-35927502D01*
D20*
X85210000Y-31921601D02*
X85210000Y-35680000D01*
X66802000Y-42926000D02*
X68326000Y-44450000D01*
X65024000Y-42926000D02*
X66802000Y-42926000D01*
X18392700Y-22860000D02*
X18392700Y-36426700D01*
X20828000Y-38862000D02*
X20828000Y-43905000D01*
X18392700Y-36426700D02*
X20828000Y-38862000D01*
X69850000Y-46990000D02*
X69850000Y-42164000D01*
X69850000Y-42164000D02*
X77978000Y-34036000D01*
D21*
X120650000Y-54102000D02*
X117348000Y-57404000D01*
X117348000Y-57404000D02*
X86868000Y-57404000D01*
X81788000Y-52324000D02*
X81534000Y-52324000D01*
X86868000Y-57404000D02*
X81788000Y-52324000D01*
X96266000Y-41656000D02*
X100076000Y-41656000D01*
X118872000Y-30988000D02*
X118872000Y-42418000D01*
X128270000Y-21590000D02*
X118872000Y-30988000D01*
X58166000Y-52070000D02*
X60960000Y-52070000D01*
X128270000Y-20320000D02*
X130810000Y-20320000D01*
X130810000Y-20320000D02*
X131572000Y-21082000D01*
X131572000Y-21082000D02*
X131572000Y-31242000D01*
X130892399Y-31921601D02*
X128551601Y-31921601D01*
X131572000Y-31242000D02*
X130892399Y-31921601D01*
X65024000Y-52070000D02*
X66040000Y-51054000D01*
X66294000Y-50800000D02*
X82042000Y-50800000D01*
X66040000Y-51054000D02*
X66294000Y-50800000D01*
X93980000Y-17780000D02*
X99060000Y-17780000D01*
X99060000Y-30771601D02*
X100210000Y-31921601D01*
X99060000Y-17780000D02*
X99060000Y-30771601D01*
X109220000Y-17780000D02*
X109220000Y-20320000D01*
X109220000Y-20320000D02*
X102489000Y-27051000D01*
X102489000Y-27051000D02*
X102489000Y-32131000D01*
X102489000Y-27051000D02*
X102362000Y-27178000D01*
X102489000Y-32131000D02*
X99822000Y-34798000D01*
X97633601Y-34798000D02*
X97610000Y-34821601D01*
X99822000Y-34798000D02*
X97633601Y-34798000D01*
X83820000Y-23531601D02*
X97610000Y-37321601D01*
X83820000Y-17780000D02*
X83820000Y-23531601D01*
X60706000Y-40386000D02*
X67310000Y-46990000D01*
X60706000Y-38100000D02*
X60706000Y-40386000D01*
X42672000Y-37592000D02*
X44704000Y-39624000D01*
D20*
X75184000Y-46990000D02*
X80264000Y-46990000D01*
X80264000Y-46990000D02*
X86868000Y-53594000D01*
D21*
X101895306Y-53594000D02*
X102001653Y-53487653D01*
D20*
X86868000Y-53594000D02*
X101895306Y-53594000D01*
D22*
G36*
X131432301Y-19867500D02*
G01*
X131373803Y-19809002D01*
X131350001Y-19779999D01*
X131234276Y-19685026D01*
X131102247Y-19614454D01*
X130958986Y-19570997D01*
X130847333Y-19560000D01*
X130847322Y-19560000D01*
X130810000Y-19556324D01*
X130772678Y-19560000D01*
X129657879Y-19560000D01*
X129655000Y-19335750D01*
X129496250Y-19177000D01*
X128723109Y-19177000D01*
X128722400Y-19176785D01*
X128551979Y-19160000D01*
X127988021Y-19160000D01*
X127817600Y-19176785D01*
X127816891Y-19177000D01*
X127043750Y-19177000D01*
X126885000Y-19335750D01*
X126881928Y-19575000D01*
X126894188Y-19699482D01*
X126930498Y-19819180D01*
X126965093Y-19883902D01*
X126901785Y-20092600D01*
X126879388Y-20320000D01*
X126901785Y-20547400D01*
X126968115Y-20766060D01*
X127069105Y-20955000D01*
X126968115Y-21143940D01*
X126901785Y-21362600D01*
X126879388Y-21590000D01*
X126901785Y-21817400D01*
X126917149Y-21868049D01*
X118361003Y-30424196D01*
X118331999Y-30447999D01*
X118295070Y-30492998D01*
X118237026Y-30563724D01*
X118175836Y-30678201D01*
X118166454Y-30695754D01*
X118122997Y-30839015D01*
X118112000Y-30950668D01*
X118112000Y-30950678D01*
X118108324Y-30988000D01*
X118112000Y-31025322D01*
X118112001Y-41714288D01*
X118068063Y-41758226D01*
X117954795Y-41927744D01*
X117876774Y-42116102D01*
X117837000Y-42316061D01*
X117837000Y-42519939D01*
X117876774Y-42719898D01*
X117954795Y-42908256D01*
X118068063Y-43077774D01*
X118212226Y-43221937D01*
X118381744Y-43335205D01*
X118570102Y-43413226D01*
X118770061Y-43453000D01*
X118973939Y-43453000D01*
X119173898Y-43413226D01*
X119362256Y-43335205D01*
X119531774Y-43221937D01*
X119675937Y-43077774D01*
X119789205Y-42908256D01*
X119867226Y-42719898D01*
X119907000Y-42519939D01*
X119907000Y-42316061D01*
X119867226Y-42116102D01*
X119789205Y-41927744D01*
X119675937Y-41758226D01*
X119632000Y-41714289D01*
X119632000Y-31302801D01*
X128184802Y-22750000D01*
X128551979Y-22750000D01*
X128722400Y-22733215D01*
X128941060Y-22666885D01*
X129142579Y-22559171D01*
X129319212Y-22414212D01*
X129464171Y-22237579D01*
X129571885Y-22036060D01*
X129638215Y-21817400D01*
X129660612Y-21590000D01*
X129638215Y-21362600D01*
X129571885Y-21143940D01*
X129537708Y-21080000D01*
X130495199Y-21080000D01*
X130812000Y-21396802D01*
X130812001Y-30927197D01*
X130577598Y-31161601D01*
X130114749Y-31161601D01*
X130089138Y-31099770D01*
X129899264Y-30815603D01*
X129657599Y-30573938D01*
X129373432Y-30384064D01*
X129057682Y-30253276D01*
X128722484Y-30186601D01*
X128380718Y-30186601D01*
X128045520Y-30253276D01*
X127729770Y-30384064D01*
X127445603Y-30573938D01*
X127203938Y-30815603D01*
X127014064Y-31099770D01*
X126883276Y-31415520D01*
X126816601Y-31750718D01*
X126816601Y-32092484D01*
X126883276Y-32427682D01*
X127014064Y-32743432D01*
X127203938Y-33027599D01*
X127445603Y-33269264D01*
X127729770Y-33459138D01*
X128045520Y-33589926D01*
X128380718Y-33656601D01*
X128722484Y-33656601D01*
X129057682Y-33589926D01*
X129373432Y-33459138D01*
X129657599Y-33269264D01*
X129899264Y-33027599D01*
X130089138Y-32743432D01*
X130114749Y-32681601D01*
X130855077Y-32681601D01*
X130892399Y-32685277D01*
X130929721Y-32681601D01*
X130929732Y-32681601D01*
X131041385Y-32670604D01*
X131184646Y-32627147D01*
X131316675Y-32556575D01*
X131432301Y-32461684D01*
X131432300Y-57772300D01*
X118054501Y-57772300D01*
X120689802Y-55137000D01*
X120751939Y-55137000D01*
X120951898Y-55097226D01*
X121140256Y-55019205D01*
X121309774Y-54905937D01*
X121453937Y-54761774D01*
X121567205Y-54592256D01*
X121645226Y-54403898D01*
X121685000Y-54203939D01*
X121685000Y-54000061D01*
X121645226Y-53800102D01*
X121567205Y-53611744D01*
X121453937Y-53442226D01*
X121309774Y-53298063D01*
X121140256Y-53184795D01*
X120951898Y-53106774D01*
X120751939Y-53067000D01*
X120548061Y-53067000D01*
X120348102Y-53106774D01*
X120159744Y-53184795D01*
X119990226Y-53298063D01*
X119846063Y-53442226D01*
X119732795Y-53611744D01*
X119654774Y-53800102D01*
X119615000Y-54000061D01*
X119615000Y-54062198D01*
X117033199Y-56644000D01*
X87182802Y-56644000D01*
X82506827Y-51968026D01*
X82451205Y-51833744D01*
X82407786Y-51768763D01*
X82532256Y-51717205D01*
X82701774Y-51603937D01*
X82845937Y-51459774D01*
X82959205Y-51290256D01*
X83037226Y-51101898D01*
X83050737Y-51033972D01*
X86208501Y-54191736D01*
X86236341Y-54225659D01*
X86371709Y-54336753D01*
X86526149Y-54419303D01*
X86592058Y-54439296D01*
X86693724Y-54470136D01*
X86726924Y-54473406D01*
X86824333Y-54483000D01*
X86824339Y-54483000D01*
X86867999Y-54487300D01*
X86911659Y-54483000D01*
X101700363Y-54483000D01*
X101899714Y-54522653D01*
X102103592Y-54522653D01*
X102303551Y-54482879D01*
X102491909Y-54404858D01*
X102661427Y-54291590D01*
X102805590Y-54147427D01*
X102918858Y-53977909D01*
X102996879Y-53789551D01*
X103036653Y-53589592D01*
X103036653Y-53385714D01*
X102996879Y-53185755D01*
X102918858Y-52997397D01*
X102805590Y-52827879D01*
X102661427Y-52683716D01*
X102491909Y-52570448D01*
X102303551Y-52492427D01*
X102103592Y-52452653D01*
X101899714Y-52452653D01*
X101699755Y-52492427D01*
X101511397Y-52570448D01*
X101341879Y-52683716D01*
X101320595Y-52705000D01*
X87236235Y-52705000D01*
X80923499Y-46392264D01*
X80895659Y-46358341D01*
X80760291Y-46247247D01*
X80605851Y-46164697D01*
X80438274Y-46113864D01*
X80307667Y-46101000D01*
X80307660Y-46101000D01*
X80264000Y-46096700D01*
X80220340Y-46101000D01*
X76046235Y-46101000D01*
X80593174Y-41554061D01*
X95231000Y-41554061D01*
X95231000Y-41757939D01*
X95270774Y-41957898D01*
X95348795Y-42146256D01*
X95462063Y-42315774D01*
X95606226Y-42459937D01*
X95775744Y-42573205D01*
X95964102Y-42651226D01*
X96164061Y-42691000D01*
X96367939Y-42691000D01*
X96567898Y-42651226D01*
X96756256Y-42573205D01*
X96925774Y-42459937D01*
X96969711Y-42416000D01*
X99372289Y-42416000D01*
X99416226Y-42459937D01*
X99585744Y-42573205D01*
X99774102Y-42651226D01*
X99974061Y-42691000D01*
X100177939Y-42691000D01*
X100377898Y-42651226D01*
X100566256Y-42573205D01*
X100735774Y-42459937D01*
X100879937Y-42315774D01*
X100993205Y-42146256D01*
X101071226Y-41957898D01*
X101111000Y-41757939D01*
X101111000Y-41554061D01*
X101071226Y-41354102D01*
X100993205Y-41165744D01*
X100879937Y-40996226D01*
X100735774Y-40852063D01*
X100566256Y-40738795D01*
X100377898Y-40660774D01*
X100177939Y-40621000D01*
X99974061Y-40621000D01*
X99774102Y-40660774D01*
X99585744Y-40738795D01*
X99416226Y-40852063D01*
X99372289Y-40896000D01*
X96969711Y-40896000D01*
X96925774Y-40852063D01*
X96756256Y-40738795D01*
X96567898Y-40660774D01*
X96367939Y-40621000D01*
X96164061Y-40621000D01*
X95964102Y-40660774D01*
X95775744Y-40738795D01*
X95606226Y-40852063D01*
X95462063Y-40996226D01*
X95348795Y-41165744D01*
X95270774Y-41354102D01*
X95231000Y-41554061D01*
X80593174Y-41554061D01*
X85527898Y-36619337D01*
X85634276Y-36562476D01*
X85750001Y-36467503D01*
X85844974Y-36351778D01*
X85912666Y-36225137D01*
X85952753Y-36176291D01*
X86035303Y-36021851D01*
X86076330Y-35886601D01*
X86086136Y-35854276D01*
X86092140Y-35793314D01*
X86099000Y-35723667D01*
X86099000Y-35723661D01*
X86103300Y-35680001D01*
X86099000Y-35636341D01*
X86099000Y-33053450D01*
X86124759Y-33036238D01*
X86324637Y-32836360D01*
X86481680Y-32601328D01*
X86589853Y-32340175D01*
X86645000Y-32062936D01*
X86645000Y-31780266D01*
X86589853Y-31503027D01*
X86481680Y-31241874D01*
X86324637Y-31006842D01*
X86124759Y-30806964D01*
X85889727Y-30649921D01*
X85628574Y-30541748D01*
X85351335Y-30486601D01*
X85068665Y-30486601D01*
X84791426Y-30541748D01*
X84530273Y-30649921D01*
X84295241Y-30806964D01*
X84095363Y-31006842D01*
X83938320Y-31241874D01*
X83830147Y-31503027D01*
X83775000Y-31780266D01*
X83775000Y-32062936D01*
X83830147Y-32340175D01*
X83938320Y-32601328D01*
X84095363Y-32836360D01*
X84295241Y-33036238D01*
X84321000Y-33053450D01*
X84321001Y-35311764D01*
X74694999Y-44937766D01*
X74694999Y-44893658D01*
X74699299Y-44849998D01*
X74694999Y-44806338D01*
X74694999Y-44806332D01*
X74682135Y-44675725D01*
X74631302Y-44508148D01*
X74548752Y-44353708D01*
X74437658Y-44218340D01*
X74410815Y-44196311D01*
X74401226Y-44148102D01*
X74323205Y-43959744D01*
X74209937Y-43790226D01*
X74065774Y-43646063D01*
X73896256Y-43532795D01*
X73707898Y-43454774D01*
X73507939Y-43415000D01*
X73304061Y-43415000D01*
X73104102Y-43454774D01*
X72915744Y-43532795D01*
X72746226Y-43646063D01*
X72602063Y-43790226D01*
X72488795Y-43959744D01*
X72410774Y-44148102D01*
X72371000Y-44348061D01*
X72371000Y-44551939D01*
X72410774Y-44751898D01*
X72488795Y-44940256D01*
X72602063Y-45109774D01*
X72746226Y-45253937D01*
X72915744Y-45367205D01*
X72916999Y-45367725D01*
X72916999Y-45587408D01*
X72826805Y-45550048D01*
X72537491Y-45492500D01*
X72242509Y-45492500D01*
X71953195Y-45550048D01*
X71680668Y-45662933D01*
X71435399Y-45826816D01*
X71226816Y-46035399D01*
X71120000Y-46195261D01*
X71013184Y-46035399D01*
X70804601Y-45826816D01*
X70739000Y-45782983D01*
X70739000Y-42532235D01*
X78230106Y-35041130D01*
X78279898Y-35031226D01*
X78468256Y-34953205D01*
X78637774Y-34839937D01*
X78781937Y-34695774D01*
X78895205Y-34526256D01*
X78973226Y-34337898D01*
X79013000Y-34137939D01*
X79013000Y-33934061D01*
X78973226Y-33734102D01*
X78895205Y-33545744D01*
X78781937Y-33376226D01*
X78637774Y-33232063D01*
X78468256Y-33118795D01*
X78279898Y-33040774D01*
X78079939Y-33001000D01*
X77876061Y-33001000D01*
X77676102Y-33040774D01*
X77487744Y-33118795D01*
X77318226Y-33232063D01*
X77174063Y-33376226D01*
X77060795Y-33545744D01*
X76982774Y-33734102D01*
X76972870Y-33783894D01*
X76326461Y-34430303D01*
X76327000Y-34427592D01*
X76327000Y-34152408D01*
X76273314Y-33882510D01*
X76168005Y-33628273D01*
X76015120Y-33399465D01*
X75820535Y-33204880D01*
X75591727Y-33051995D01*
X75337490Y-32946686D01*
X75067592Y-32893000D01*
X74792408Y-32893000D01*
X74522510Y-32946686D01*
X74268273Y-33051995D01*
X74039465Y-33204880D01*
X73844880Y-33399465D01*
X73691995Y-33628273D01*
X73626595Y-33786162D01*
X73475120Y-33559465D01*
X73280535Y-33364880D01*
X73051727Y-33211995D01*
X72797490Y-33106686D01*
X72527592Y-33053000D01*
X72252408Y-33053000D01*
X71982510Y-33106686D01*
X71728273Y-33211995D01*
X71499465Y-33364880D01*
X71304880Y-33559465D01*
X71153386Y-33786191D01*
X71117636Y-33686977D01*
X71055656Y-33571020D01*
X70815565Y-33504040D01*
X70029605Y-34290000D01*
X70815565Y-35075960D01*
X71055656Y-35008980D01*
X71084249Y-34948174D01*
X71151995Y-35111727D01*
X71304880Y-35340535D01*
X71499465Y-35535120D01*
X71728273Y-35688005D01*
X71982510Y-35793314D01*
X72252408Y-35847000D01*
X72527592Y-35847000D01*
X72797490Y-35793314D01*
X73051727Y-35688005D01*
X73280535Y-35535120D01*
X73475120Y-35340535D01*
X73628005Y-35111727D01*
X73693405Y-34953838D01*
X73844880Y-35180535D01*
X74039465Y-35375120D01*
X74268273Y-35528005D01*
X74522510Y-35633314D01*
X74792408Y-35687000D01*
X75067592Y-35687000D01*
X75070304Y-35686461D01*
X69252259Y-41504506D01*
X69218342Y-41532341D01*
X69190507Y-41566258D01*
X69190505Y-41566260D01*
X69107248Y-41667709D01*
X69024698Y-41822148D01*
X68973864Y-41989726D01*
X68956700Y-42164000D01*
X68961001Y-42207670D01*
X68961001Y-43629510D01*
X68816256Y-43532795D01*
X68627898Y-43454774D01*
X68578105Y-43444870D01*
X67461499Y-42328264D01*
X67433659Y-42294341D01*
X67298291Y-42183247D01*
X67143851Y-42100697D01*
X66976274Y-42049864D01*
X66845667Y-42037000D01*
X66845660Y-42037000D01*
X66802000Y-42032700D01*
X66758340Y-42037000D01*
X65556468Y-42037000D01*
X65514256Y-42008795D01*
X65325898Y-41930774D01*
X65125939Y-41891000D01*
X64922061Y-41891000D01*
X64722102Y-41930774D01*
X64533744Y-42008795D01*
X64364226Y-42122063D01*
X64220063Y-42266226D01*
X64106795Y-42435744D01*
X64028774Y-42624102D01*
X64027136Y-42632335D01*
X61466000Y-40071199D01*
X61466000Y-38803711D01*
X61509937Y-38759774D01*
X61623205Y-38590256D01*
X61701226Y-38401898D01*
X61741000Y-38201939D01*
X61741000Y-37998061D01*
X61701226Y-37798102D01*
X61623205Y-37609744D01*
X61509937Y-37440226D01*
X61365774Y-37296063D01*
X61196256Y-37182795D01*
X61007898Y-37104774D01*
X60807939Y-37065000D01*
X60604061Y-37065000D01*
X60404102Y-37104774D01*
X60215744Y-37182795D01*
X60046226Y-37296063D01*
X59902063Y-37440226D01*
X59788795Y-37609744D01*
X59710774Y-37798102D01*
X59671000Y-37998061D01*
X59671000Y-38201939D01*
X59710774Y-38401898D01*
X59788795Y-38590256D01*
X59902063Y-38759774D01*
X59946000Y-38803711D01*
X59946001Y-40348668D01*
X59942324Y-40386000D01*
X59946001Y-40423333D01*
X59956998Y-40534986D01*
X59970180Y-40578442D01*
X60000454Y-40678246D01*
X60071026Y-40810276D01*
X60141379Y-40896000D01*
X60166000Y-40926001D01*
X60194998Y-40949799D01*
X64737698Y-45492500D01*
X64622509Y-45492500D01*
X64333195Y-45550048D01*
X64060668Y-45662933D01*
X63815399Y-45826816D01*
X63606816Y-46035399D01*
X63500000Y-46195261D01*
X63393184Y-46035399D01*
X63184601Y-45826816D01*
X62939332Y-45662933D01*
X62666805Y-45550048D01*
X62377491Y-45492500D01*
X62082509Y-45492500D01*
X61793195Y-45550048D01*
X61520668Y-45662933D01*
X61275399Y-45826816D01*
X61066816Y-46035399D01*
X60960000Y-46195261D01*
X60853184Y-46035399D01*
X60644601Y-45826816D01*
X60399332Y-45662933D01*
X60126805Y-45550048D01*
X59837491Y-45492500D01*
X59542509Y-45492500D01*
X59253195Y-45550048D01*
X58980668Y-45662933D01*
X58735399Y-45826816D01*
X58526816Y-46035399D01*
X58420000Y-46195261D01*
X58313184Y-46035399D01*
X58104601Y-45826816D01*
X57859332Y-45662933D01*
X57586805Y-45550048D01*
X57297491Y-45492500D01*
X57002509Y-45492500D01*
X56713195Y-45550048D01*
X56440668Y-45662933D01*
X56195399Y-45826816D01*
X55986816Y-46035399D01*
X55880000Y-46195261D01*
X55773184Y-46035399D01*
X55564601Y-45826816D01*
X55319332Y-45662933D01*
X55046805Y-45550048D01*
X54757491Y-45492500D01*
X54462509Y-45492500D01*
X54173195Y-45550048D01*
X53900668Y-45662933D01*
X53655399Y-45826816D01*
X53446816Y-46035399D01*
X53282933Y-46280668D01*
X53170048Y-46553195D01*
X53112500Y-46842509D01*
X53112500Y-47137491D01*
X53170048Y-47426805D01*
X53282933Y-47699332D01*
X53446816Y-47944601D01*
X53655399Y-48153184D01*
X53815261Y-48260000D01*
X53655399Y-48366816D01*
X53446816Y-48575399D01*
X53282933Y-48820668D01*
X53170048Y-49093195D01*
X53112500Y-49382509D01*
X53112500Y-49677491D01*
X53170048Y-49966805D01*
X53282933Y-50239332D01*
X53446816Y-50484601D01*
X53655399Y-50693184D01*
X53900668Y-50857067D01*
X54173195Y-50969952D01*
X54462509Y-51027500D01*
X54757491Y-51027500D01*
X55046805Y-50969952D01*
X55319332Y-50857067D01*
X55564601Y-50693184D01*
X55773184Y-50484601D01*
X55880000Y-50324739D01*
X55986816Y-50484601D01*
X56195399Y-50693184D01*
X56440668Y-50857067D01*
X56713195Y-50969952D01*
X57002509Y-51027500D01*
X57297491Y-51027500D01*
X57586805Y-50969952D01*
X57859332Y-50857067D01*
X58104601Y-50693184D01*
X58313184Y-50484601D01*
X58420000Y-50324739D01*
X58526816Y-50484601D01*
X58735399Y-50693184D01*
X58980668Y-50857067D01*
X59253195Y-50969952D01*
X59542509Y-51027500D01*
X59837491Y-51027500D01*
X60126805Y-50969952D01*
X60399332Y-50857067D01*
X60644601Y-50693184D01*
X60853184Y-50484601D01*
X60960000Y-50324739D01*
X61066816Y-50484601D01*
X61275399Y-50693184D01*
X61520668Y-50857067D01*
X61793195Y-50969952D01*
X62082509Y-51027500D01*
X62377491Y-51027500D01*
X62666805Y-50969952D01*
X62939332Y-50857067D01*
X63184601Y-50693184D01*
X63393184Y-50484601D01*
X63500000Y-50324739D01*
X63606816Y-50484601D01*
X63815399Y-50693184D01*
X64060668Y-50857067D01*
X64333195Y-50969952D01*
X64622509Y-51027500D01*
X64917491Y-51027500D01*
X65010124Y-51009074D01*
X64984199Y-51035000D01*
X64922061Y-51035000D01*
X64722102Y-51074774D01*
X64533744Y-51152795D01*
X64364226Y-51266063D01*
X64220063Y-51410226D01*
X64106795Y-51579744D01*
X64028774Y-51768102D01*
X63989000Y-51968061D01*
X63989000Y-52171939D01*
X64028774Y-52371898D01*
X64106795Y-52560256D01*
X64220063Y-52729774D01*
X64364226Y-52873937D01*
X64533744Y-52987205D01*
X64722102Y-53065226D01*
X64922061Y-53105000D01*
X65125939Y-53105000D01*
X65325898Y-53065226D01*
X65514256Y-52987205D01*
X65683774Y-52873937D01*
X65827937Y-52729774D01*
X65941205Y-52560256D01*
X66019226Y-52371898D01*
X66059000Y-52171939D01*
X66059000Y-52109801D01*
X66603799Y-51565003D01*
X66603804Y-51564997D01*
X66608801Y-51560000D01*
X80834289Y-51560000D01*
X80730063Y-51664226D01*
X80616795Y-51833744D01*
X80538774Y-52022102D01*
X80499000Y-52222061D01*
X80499000Y-52425939D01*
X80538774Y-52625898D01*
X80616795Y-52814256D01*
X80730063Y-52983774D01*
X80874226Y-53127937D01*
X81043744Y-53241205D01*
X81232102Y-53319226D01*
X81432061Y-53359000D01*
X81635939Y-53359000D01*
X81729574Y-53340375D01*
X86161498Y-57772300D01*
X18427700Y-57772300D01*
X18427700Y-51968061D01*
X57131000Y-51968061D01*
X57131000Y-52171939D01*
X57170774Y-52371898D01*
X57248795Y-52560256D01*
X57362063Y-52729774D01*
X57506226Y-52873937D01*
X57675744Y-52987205D01*
X57864102Y-53065226D01*
X58064061Y-53105000D01*
X58267939Y-53105000D01*
X58467898Y-53065226D01*
X58656256Y-52987205D01*
X58825774Y-52873937D01*
X58869711Y-52830000D01*
X60256289Y-52830000D01*
X60300226Y-52873937D01*
X60469744Y-52987205D01*
X60658102Y-53065226D01*
X60858061Y-53105000D01*
X61061939Y-53105000D01*
X61261898Y-53065226D01*
X61450256Y-52987205D01*
X61619774Y-52873937D01*
X61763937Y-52729774D01*
X61877205Y-52560256D01*
X61955226Y-52371898D01*
X61995000Y-52171939D01*
X61995000Y-51968061D01*
X61955226Y-51768102D01*
X61877205Y-51579744D01*
X61763937Y-51410226D01*
X61619774Y-51266063D01*
X61450256Y-51152795D01*
X61261898Y-51074774D01*
X61061939Y-51035000D01*
X60858061Y-51035000D01*
X60658102Y-51074774D01*
X60469744Y-51152795D01*
X60300226Y-51266063D01*
X60256289Y-51310000D01*
X58869711Y-51310000D01*
X58825774Y-51266063D01*
X58656256Y-51152795D01*
X58467898Y-51074774D01*
X58267939Y-51035000D01*
X58064061Y-51035000D01*
X57864102Y-51074774D01*
X57675744Y-51152795D01*
X57506226Y-51266063D01*
X57362063Y-51410226D01*
X57248795Y-51579744D01*
X57170774Y-51768102D01*
X57131000Y-51968061D01*
X18427700Y-51968061D01*
X18427700Y-37718935D01*
X19939000Y-39230235D01*
X19939001Y-43372531D01*
X19910795Y-43414744D01*
X19832774Y-43603102D01*
X19793000Y-43803061D01*
X19793000Y-44006939D01*
X19832774Y-44206898D01*
X19910795Y-44395256D01*
X20024063Y-44564774D01*
X20168226Y-44708937D01*
X20337744Y-44822205D01*
X20526102Y-44900226D01*
X20726061Y-44940000D01*
X20929939Y-44940000D01*
X21129898Y-44900226D01*
X21318256Y-44822205D01*
X21487774Y-44708937D01*
X21631937Y-44564774D01*
X21745205Y-44395256D01*
X21823226Y-44206898D01*
X21863000Y-44006939D01*
X21863000Y-43803061D01*
X21823226Y-43603102D01*
X21745205Y-43414744D01*
X21717000Y-43372532D01*
X21717000Y-41554061D01*
X27413000Y-41554061D01*
X27413000Y-41757939D01*
X27452774Y-41957898D01*
X27530795Y-42146256D01*
X27644063Y-42315774D01*
X27788226Y-42459937D01*
X27957744Y-42573205D01*
X28146102Y-42651226D01*
X28346061Y-42691000D01*
X28549939Y-42691000D01*
X28749898Y-42651226D01*
X28938256Y-42573205D01*
X28980468Y-42545000D01*
X37223765Y-42545000D01*
X39218505Y-44539741D01*
X39246341Y-44573659D01*
X39381709Y-44684753D01*
X39536149Y-44767303D01*
X39602058Y-44787296D01*
X39703724Y-44818136D01*
X39736924Y-44821406D01*
X39834333Y-44831000D01*
X39834339Y-44831000D01*
X39877999Y-44835300D01*
X39921659Y-44831000D01*
X52309985Y-44831000D01*
X52344774Y-45005898D01*
X52422795Y-45194256D01*
X52536063Y-45363774D01*
X52680226Y-45507937D01*
X52849744Y-45621205D01*
X53038102Y-45699226D01*
X53238061Y-45739000D01*
X53441939Y-45739000D01*
X53641898Y-45699226D01*
X53830256Y-45621205D01*
X53999774Y-45507937D01*
X54143937Y-45363774D01*
X54257205Y-45194256D01*
X54335226Y-45005898D01*
X54345130Y-44956105D01*
X54699741Y-44601495D01*
X54733659Y-44573659D01*
X54761499Y-44539737D01*
X55116105Y-44185130D01*
X55165898Y-44175226D01*
X55354256Y-44097205D01*
X55523774Y-43983937D01*
X55667937Y-43839774D01*
X55781205Y-43670256D01*
X55859226Y-43481898D01*
X55899000Y-43281939D01*
X55899000Y-43078061D01*
X55859226Y-42878102D01*
X55781205Y-42689744D01*
X55667937Y-42520226D01*
X55523774Y-42376063D01*
X55354256Y-42262795D01*
X55165898Y-42184774D01*
X54965939Y-42145000D01*
X54762061Y-42145000D01*
X54562102Y-42184774D01*
X54373744Y-42262795D01*
X54204226Y-42376063D01*
X54060063Y-42520226D01*
X53946795Y-42689744D01*
X53868774Y-42878102D01*
X53858870Y-42927895D01*
X53733765Y-43053000D01*
X40246236Y-43053000D01*
X38251499Y-41058264D01*
X38223659Y-41024341D01*
X38088291Y-40913247D01*
X37933851Y-40830697D01*
X37766274Y-40779864D01*
X37635667Y-40767000D01*
X37635660Y-40767000D01*
X37592000Y-40762700D01*
X37548340Y-40767000D01*
X28980468Y-40767000D01*
X28938256Y-40738795D01*
X28749898Y-40660774D01*
X28549939Y-40621000D01*
X28346061Y-40621000D01*
X28146102Y-40660774D01*
X27957744Y-40738795D01*
X27788226Y-40852063D01*
X27644063Y-40996226D01*
X27530795Y-41165744D01*
X27452774Y-41354102D01*
X27413000Y-41554061D01*
X21717000Y-41554061D01*
X21717000Y-38905659D01*
X21721300Y-38861999D01*
X21717000Y-38818334D01*
X21717000Y-38818333D01*
X21704136Y-38687726D01*
X21704136Y-38687724D01*
X21653302Y-38520147D01*
X21647453Y-38509205D01*
X21570753Y-38365709D01*
X21459659Y-38230341D01*
X21425737Y-38202502D01*
X20713296Y-37490061D01*
X41637000Y-37490061D01*
X41637000Y-37693939D01*
X41676774Y-37893898D01*
X41754795Y-38082256D01*
X41868063Y-38251774D01*
X42012226Y-38395937D01*
X42181744Y-38509205D01*
X42370102Y-38587226D01*
X42570061Y-38627000D01*
X42632199Y-38627000D01*
X43669000Y-39663802D01*
X43669000Y-39725939D01*
X43708774Y-39925898D01*
X43786795Y-40114256D01*
X43900063Y-40283774D01*
X44044226Y-40427937D01*
X44213744Y-40541205D01*
X44402102Y-40619226D01*
X44602061Y-40659000D01*
X44805939Y-40659000D01*
X45005898Y-40619226D01*
X45194256Y-40541205D01*
X45363774Y-40427937D01*
X45507937Y-40283774D01*
X45621205Y-40114256D01*
X45699226Y-39925898D01*
X45739000Y-39725939D01*
X45739000Y-39522061D01*
X45699226Y-39322102D01*
X45621205Y-39133744D01*
X45507937Y-38964226D01*
X45363774Y-38820063D01*
X45194256Y-38706795D01*
X45005898Y-38628774D01*
X44805939Y-38589000D01*
X44743802Y-38589000D01*
X43707000Y-37552199D01*
X43707000Y-37490061D01*
X43667226Y-37290102D01*
X43589205Y-37101744D01*
X43475937Y-36932226D01*
X43331774Y-36788063D01*
X43162256Y-36674795D01*
X42973898Y-36596774D01*
X42773939Y-36557000D01*
X42570061Y-36557000D01*
X42370102Y-36596774D01*
X42181744Y-36674795D01*
X42012226Y-36788063D01*
X41868063Y-36932226D01*
X41754795Y-37101744D01*
X41676774Y-37290102D01*
X41637000Y-37490061D01*
X20713296Y-37490061D01*
X19281700Y-36058465D01*
X19281700Y-35255565D01*
X23344040Y-35255565D01*
X23411020Y-35495656D01*
X23660048Y-35612756D01*
X23927135Y-35679023D01*
X24202017Y-35691910D01*
X24474133Y-35650922D01*
X24733023Y-35557636D01*
X24848980Y-35495656D01*
X24915960Y-35255565D01*
X24130000Y-34469605D01*
X23344040Y-35255565D01*
X19281700Y-35255565D01*
X19281700Y-34362017D01*
X22728090Y-34362017D01*
X22769078Y-34634133D01*
X22862364Y-34893023D01*
X22924344Y-35008980D01*
X23164435Y-35075960D01*
X23950395Y-34290000D01*
X24309605Y-34290000D01*
X25095565Y-35075960D01*
X25335656Y-35008980D01*
X25364249Y-34948174D01*
X25431995Y-35111727D01*
X25584880Y-35340535D01*
X25779465Y-35535120D01*
X26008273Y-35688005D01*
X26262510Y-35793314D01*
X26532408Y-35847000D01*
X26807592Y-35847000D01*
X27077490Y-35793314D01*
X27331727Y-35688005D01*
X27560535Y-35535120D01*
X27755120Y-35340535D01*
X27908005Y-35111727D01*
X27973405Y-34953838D01*
X28124880Y-35180535D01*
X28319465Y-35375120D01*
X28548273Y-35528005D01*
X28802510Y-35633314D01*
X29072408Y-35687000D01*
X29347592Y-35687000D01*
X29617490Y-35633314D01*
X29871727Y-35528005D01*
X30100535Y-35375120D01*
X30220090Y-35255565D01*
X38584040Y-35255565D01*
X38651020Y-35495656D01*
X38900048Y-35612756D01*
X39167135Y-35679023D01*
X39442017Y-35691910D01*
X39714133Y-35650922D01*
X39973023Y-35557636D01*
X40088980Y-35495656D01*
X40155960Y-35255565D01*
X39370000Y-34469605D01*
X38584040Y-35255565D01*
X30220090Y-35255565D01*
X30295120Y-35180535D01*
X30448005Y-34951727D01*
X30553314Y-34697490D01*
X30607000Y-34427592D01*
X30607000Y-34362017D01*
X37968090Y-34362017D01*
X38009078Y-34634133D01*
X38102364Y-34893023D01*
X38164344Y-35008980D01*
X38404435Y-35075960D01*
X39190395Y-34290000D01*
X39549605Y-34290000D01*
X40335565Y-35075960D01*
X40575656Y-35008980D01*
X40604249Y-34948174D01*
X40671995Y-35111727D01*
X40824880Y-35340535D01*
X41019465Y-35535120D01*
X41248273Y-35688005D01*
X41502510Y-35793314D01*
X41772408Y-35847000D01*
X42047592Y-35847000D01*
X42317490Y-35793314D01*
X42571727Y-35688005D01*
X42800535Y-35535120D01*
X42995120Y-35340535D01*
X43148005Y-35111727D01*
X43213405Y-34953838D01*
X43364880Y-35180535D01*
X43559465Y-35375120D01*
X43788273Y-35528005D01*
X44042510Y-35633314D01*
X44312408Y-35687000D01*
X44587592Y-35687000D01*
X44857490Y-35633314D01*
X45111727Y-35528005D01*
X45340535Y-35375120D01*
X45460090Y-35255565D01*
X53824040Y-35255565D01*
X53891020Y-35495656D01*
X54140048Y-35612756D01*
X54407135Y-35679023D01*
X54682017Y-35691910D01*
X54954133Y-35650922D01*
X55213023Y-35557636D01*
X55328980Y-35495656D01*
X55395960Y-35255565D01*
X54610000Y-34469605D01*
X53824040Y-35255565D01*
X45460090Y-35255565D01*
X45535120Y-35180535D01*
X45688005Y-34951727D01*
X45793314Y-34697490D01*
X45847000Y-34427592D01*
X45847000Y-34362017D01*
X53208090Y-34362017D01*
X53249078Y-34634133D01*
X53342364Y-34893023D01*
X53404344Y-35008980D01*
X53644435Y-35075960D01*
X54430395Y-34290000D01*
X54789605Y-34290000D01*
X55575565Y-35075960D01*
X55815656Y-35008980D01*
X55844249Y-34948174D01*
X55911995Y-35111727D01*
X56064880Y-35340535D01*
X56259465Y-35535120D01*
X56488273Y-35688005D01*
X56742510Y-35793314D01*
X57012408Y-35847000D01*
X57287592Y-35847000D01*
X57557490Y-35793314D01*
X57811727Y-35688005D01*
X58040535Y-35535120D01*
X58235120Y-35340535D01*
X58388005Y-35111727D01*
X58453405Y-34953838D01*
X58604880Y-35180535D01*
X58799465Y-35375120D01*
X59028273Y-35528005D01*
X59282510Y-35633314D01*
X59552408Y-35687000D01*
X59827592Y-35687000D01*
X60097490Y-35633314D01*
X60351727Y-35528005D01*
X60580535Y-35375120D01*
X60700090Y-35255565D01*
X69064040Y-35255565D01*
X69131020Y-35495656D01*
X69380048Y-35612756D01*
X69647135Y-35679023D01*
X69922017Y-35691910D01*
X70194133Y-35650922D01*
X70453023Y-35557636D01*
X70568980Y-35495656D01*
X70635960Y-35255565D01*
X69850000Y-34469605D01*
X69064040Y-35255565D01*
X60700090Y-35255565D01*
X60775120Y-35180535D01*
X60928005Y-34951727D01*
X61033314Y-34697490D01*
X61087000Y-34427592D01*
X61087000Y-34362017D01*
X68448090Y-34362017D01*
X68489078Y-34634133D01*
X68582364Y-34893023D01*
X68644344Y-35008980D01*
X68884435Y-35075960D01*
X69670395Y-34290000D01*
X68884435Y-33504040D01*
X68644344Y-33571020D01*
X68527244Y-33820048D01*
X68460977Y-34087135D01*
X68448090Y-34362017D01*
X61087000Y-34362017D01*
X61087000Y-34152408D01*
X61033314Y-33882510D01*
X60928005Y-33628273D01*
X60775120Y-33399465D01*
X60700090Y-33324435D01*
X69064040Y-33324435D01*
X69850000Y-34110395D01*
X70635960Y-33324435D01*
X70568980Y-33084344D01*
X70319952Y-32967244D01*
X70052865Y-32900977D01*
X69777983Y-32888090D01*
X69505867Y-32929078D01*
X69246977Y-33022364D01*
X69131020Y-33084344D01*
X69064040Y-33324435D01*
X60700090Y-33324435D01*
X60580535Y-33204880D01*
X60351727Y-33051995D01*
X60097490Y-32946686D01*
X59827592Y-32893000D01*
X59552408Y-32893000D01*
X59282510Y-32946686D01*
X59028273Y-33051995D01*
X58799465Y-33204880D01*
X58604880Y-33399465D01*
X58451995Y-33628273D01*
X58386595Y-33786162D01*
X58235120Y-33559465D01*
X58040535Y-33364880D01*
X57811727Y-33211995D01*
X57557490Y-33106686D01*
X57287592Y-33053000D01*
X57012408Y-33053000D01*
X56742510Y-33106686D01*
X56488273Y-33211995D01*
X56259465Y-33364880D01*
X56064880Y-33559465D01*
X55913386Y-33786191D01*
X55877636Y-33686977D01*
X55815656Y-33571020D01*
X55575565Y-33504040D01*
X54789605Y-34290000D01*
X54430395Y-34290000D01*
X53644435Y-33504040D01*
X53404344Y-33571020D01*
X53287244Y-33820048D01*
X53220977Y-34087135D01*
X53208090Y-34362017D01*
X45847000Y-34362017D01*
X45847000Y-34152408D01*
X45793314Y-33882510D01*
X45688005Y-33628273D01*
X45535120Y-33399465D01*
X45460090Y-33324435D01*
X53824040Y-33324435D01*
X54610000Y-34110395D01*
X55395960Y-33324435D01*
X55328980Y-33084344D01*
X55079952Y-32967244D01*
X54812865Y-32900977D01*
X54537983Y-32888090D01*
X54265867Y-32929078D01*
X54006977Y-33022364D01*
X53891020Y-33084344D01*
X53824040Y-33324435D01*
X45460090Y-33324435D01*
X45340535Y-33204880D01*
X45111727Y-33051995D01*
X44857490Y-32946686D01*
X44587592Y-32893000D01*
X44312408Y-32893000D01*
X44042510Y-32946686D01*
X43788273Y-33051995D01*
X43559465Y-33204880D01*
X43364880Y-33399465D01*
X43211995Y-33628273D01*
X43146595Y-33786162D01*
X42995120Y-33559465D01*
X42800535Y-33364880D01*
X42571727Y-33211995D01*
X42317490Y-33106686D01*
X42047592Y-33053000D01*
X41772408Y-33053000D01*
X41502510Y-33106686D01*
X41248273Y-33211995D01*
X41019465Y-33364880D01*
X40824880Y-33559465D01*
X40673386Y-33786191D01*
X40637636Y-33686977D01*
X40575656Y-33571020D01*
X40335565Y-33504040D01*
X39549605Y-34290000D01*
X39190395Y-34290000D01*
X38404435Y-33504040D01*
X38164344Y-33571020D01*
X38047244Y-33820048D01*
X37980977Y-34087135D01*
X37968090Y-34362017D01*
X30607000Y-34362017D01*
X30607000Y-34152408D01*
X30553314Y-33882510D01*
X30448005Y-33628273D01*
X30295120Y-33399465D01*
X30220090Y-33324435D01*
X38584040Y-33324435D01*
X39370000Y-34110395D01*
X40155960Y-33324435D01*
X40088980Y-33084344D01*
X39839952Y-32967244D01*
X39572865Y-32900977D01*
X39297983Y-32888090D01*
X39025867Y-32929078D01*
X38766977Y-33022364D01*
X38651020Y-33084344D01*
X38584040Y-33324435D01*
X30220090Y-33324435D01*
X30100535Y-33204880D01*
X29871727Y-33051995D01*
X29617490Y-32946686D01*
X29347592Y-32893000D01*
X29072408Y-32893000D01*
X28802510Y-32946686D01*
X28548273Y-33051995D01*
X28319465Y-33204880D01*
X28124880Y-33399465D01*
X27971995Y-33628273D01*
X27906595Y-33786162D01*
X27755120Y-33559465D01*
X27560535Y-33364880D01*
X27331727Y-33211995D01*
X27077490Y-33106686D01*
X26807592Y-33053000D01*
X26532408Y-33053000D01*
X26262510Y-33106686D01*
X26008273Y-33211995D01*
X25779465Y-33364880D01*
X25584880Y-33559465D01*
X25433386Y-33786191D01*
X25397636Y-33686977D01*
X25335656Y-33571020D01*
X25095565Y-33504040D01*
X24309605Y-34290000D01*
X23950395Y-34290000D01*
X23164435Y-33504040D01*
X22924344Y-33571020D01*
X22807244Y-33820048D01*
X22740977Y-34087135D01*
X22728090Y-34362017D01*
X19281700Y-34362017D01*
X19281700Y-33324435D01*
X23344040Y-33324435D01*
X24130000Y-34110395D01*
X24915960Y-33324435D01*
X24848980Y-33084344D01*
X24599952Y-32967244D01*
X24332865Y-32900977D01*
X24057983Y-32888090D01*
X23785867Y-32929078D01*
X23526977Y-33022364D01*
X23411020Y-33084344D01*
X23344040Y-33324435D01*
X19281700Y-33324435D01*
X19281700Y-30175565D01*
X23344040Y-30175565D01*
X23411020Y-30415656D01*
X23660048Y-30532756D01*
X23927135Y-30599023D01*
X24202017Y-30611910D01*
X24474133Y-30570922D01*
X24733023Y-30477636D01*
X24848980Y-30415656D01*
X24915960Y-30175565D01*
X24130000Y-29389605D01*
X23344040Y-30175565D01*
X19281700Y-30175565D01*
X19281700Y-29282017D01*
X22728090Y-29282017D01*
X22769078Y-29554133D01*
X22862364Y-29813023D01*
X22924344Y-29928980D01*
X23164435Y-29995960D01*
X23950395Y-29210000D01*
X24309605Y-29210000D01*
X25095565Y-29995960D01*
X25335656Y-29928980D01*
X25435411Y-29716839D01*
X25584880Y-29940535D01*
X25779465Y-30135120D01*
X26008273Y-30288005D01*
X26262510Y-30393314D01*
X26532408Y-30447000D01*
X26807592Y-30447000D01*
X27077490Y-30393314D01*
X27331727Y-30288005D01*
X27560535Y-30135120D01*
X27755120Y-29940535D01*
X27906595Y-29713838D01*
X27971995Y-29871727D01*
X28124880Y-30100535D01*
X28319465Y-30295120D01*
X28548273Y-30448005D01*
X28802510Y-30553314D01*
X29072408Y-30607000D01*
X29347592Y-30607000D01*
X29617490Y-30553314D01*
X29871727Y-30448005D01*
X30100535Y-30295120D01*
X30220090Y-30175565D01*
X38584040Y-30175565D01*
X38651020Y-30415656D01*
X38900048Y-30532756D01*
X39167135Y-30599023D01*
X39442017Y-30611910D01*
X39714133Y-30570922D01*
X39973023Y-30477636D01*
X40088980Y-30415656D01*
X40155960Y-30175565D01*
X39370000Y-29389605D01*
X38584040Y-30175565D01*
X30220090Y-30175565D01*
X30295120Y-30100535D01*
X30448005Y-29871727D01*
X30553314Y-29617490D01*
X30607000Y-29347592D01*
X30607000Y-29282017D01*
X37968090Y-29282017D01*
X38009078Y-29554133D01*
X38102364Y-29813023D01*
X38164344Y-29928980D01*
X38404435Y-29995960D01*
X39190395Y-29210000D01*
X39549605Y-29210000D01*
X40335565Y-29995960D01*
X40575656Y-29928980D01*
X40675411Y-29716839D01*
X40824880Y-29940535D01*
X41019465Y-30135120D01*
X41248273Y-30288005D01*
X41502510Y-30393314D01*
X41772408Y-30447000D01*
X42047592Y-30447000D01*
X42317490Y-30393314D01*
X42571727Y-30288005D01*
X42800535Y-30135120D01*
X42995120Y-29940535D01*
X43146595Y-29713838D01*
X43211995Y-29871727D01*
X43364880Y-30100535D01*
X43559465Y-30295120D01*
X43788273Y-30448005D01*
X44042510Y-30553314D01*
X44312408Y-30607000D01*
X44587592Y-30607000D01*
X44857490Y-30553314D01*
X45111727Y-30448005D01*
X45340535Y-30295120D01*
X45460090Y-30175565D01*
X53824040Y-30175565D01*
X53891020Y-30415656D01*
X54140048Y-30532756D01*
X54407135Y-30599023D01*
X54682017Y-30611910D01*
X54954133Y-30570922D01*
X55213023Y-30477636D01*
X55328980Y-30415656D01*
X55395960Y-30175565D01*
X54610000Y-29389605D01*
X53824040Y-30175565D01*
X45460090Y-30175565D01*
X45535120Y-30100535D01*
X45688005Y-29871727D01*
X45793314Y-29617490D01*
X45847000Y-29347592D01*
X45847000Y-29282017D01*
X53208090Y-29282017D01*
X53249078Y-29554133D01*
X53342364Y-29813023D01*
X53404344Y-29928980D01*
X53644435Y-29995960D01*
X54430395Y-29210000D01*
X54789605Y-29210000D01*
X55575565Y-29995960D01*
X55815656Y-29928980D01*
X55915411Y-29716839D01*
X56064880Y-29940535D01*
X56259465Y-30135120D01*
X56488273Y-30288005D01*
X56742510Y-30393314D01*
X57012408Y-30447000D01*
X57287592Y-30447000D01*
X57557490Y-30393314D01*
X57811727Y-30288005D01*
X58040535Y-30135120D01*
X58235120Y-29940535D01*
X58386595Y-29713838D01*
X58451995Y-29871727D01*
X58604880Y-30100535D01*
X58799465Y-30295120D01*
X59028273Y-30448005D01*
X59282510Y-30553314D01*
X59552408Y-30607000D01*
X59827592Y-30607000D01*
X60097490Y-30553314D01*
X60351727Y-30448005D01*
X60580535Y-30295120D01*
X60700090Y-30175565D01*
X69064040Y-30175565D01*
X69131020Y-30415656D01*
X69380048Y-30532756D01*
X69647135Y-30599023D01*
X69922017Y-30611910D01*
X70194133Y-30570922D01*
X70453023Y-30477636D01*
X70568980Y-30415656D01*
X70635960Y-30175565D01*
X69850000Y-29389605D01*
X69064040Y-30175565D01*
X60700090Y-30175565D01*
X60775120Y-30100535D01*
X60928005Y-29871727D01*
X61033314Y-29617490D01*
X61087000Y-29347592D01*
X61087000Y-29282017D01*
X68448090Y-29282017D01*
X68489078Y-29554133D01*
X68582364Y-29813023D01*
X68644344Y-29928980D01*
X68884435Y-29995960D01*
X69670395Y-29210000D01*
X70029605Y-29210000D01*
X70815565Y-29995960D01*
X71055656Y-29928980D01*
X71155411Y-29716839D01*
X71304880Y-29940535D01*
X71499465Y-30135120D01*
X71728273Y-30288005D01*
X71982510Y-30393314D01*
X72252408Y-30447000D01*
X72527592Y-30447000D01*
X72797490Y-30393314D01*
X73051727Y-30288005D01*
X73280535Y-30135120D01*
X73475120Y-29940535D01*
X73626595Y-29713838D01*
X73691995Y-29871727D01*
X73844880Y-30100535D01*
X74039465Y-30295120D01*
X74268273Y-30448005D01*
X74522510Y-30553314D01*
X74792408Y-30607000D01*
X75067592Y-30607000D01*
X75337490Y-30553314D01*
X75591727Y-30448005D01*
X75820535Y-30295120D01*
X76015120Y-30100535D01*
X76168005Y-29871727D01*
X76273314Y-29617490D01*
X76327000Y-29347592D01*
X76327000Y-29072408D01*
X76273314Y-28802510D01*
X76168005Y-28548273D01*
X76015120Y-28319465D01*
X75820535Y-28124880D01*
X75591727Y-27971995D01*
X75337490Y-27866686D01*
X75067592Y-27813000D01*
X74792408Y-27813000D01*
X74522510Y-27866686D01*
X74268273Y-27971995D01*
X74039465Y-28124880D01*
X73844880Y-28319465D01*
X73693405Y-28546162D01*
X73628005Y-28388273D01*
X73475120Y-28159465D01*
X73280535Y-27964880D01*
X73051727Y-27811995D01*
X72797490Y-27706686D01*
X72527592Y-27653000D01*
X72252408Y-27653000D01*
X71982510Y-27706686D01*
X71728273Y-27811995D01*
X71499465Y-27964880D01*
X71304880Y-28159465D01*
X71151995Y-28388273D01*
X71085955Y-28547706D01*
X71055656Y-28491020D01*
X70815565Y-28424040D01*
X70029605Y-29210000D01*
X69670395Y-29210000D01*
X68884435Y-28424040D01*
X68644344Y-28491020D01*
X68527244Y-28740048D01*
X68460977Y-29007135D01*
X68448090Y-29282017D01*
X61087000Y-29282017D01*
X61087000Y-29072408D01*
X61033314Y-28802510D01*
X60928005Y-28548273D01*
X60775120Y-28319465D01*
X60700090Y-28244435D01*
X69064040Y-28244435D01*
X69850000Y-29030395D01*
X70635960Y-28244435D01*
X70568980Y-28004344D01*
X70319952Y-27887244D01*
X70052865Y-27820977D01*
X69777983Y-27808090D01*
X69505867Y-27849078D01*
X69246977Y-27942364D01*
X69131020Y-28004344D01*
X69064040Y-28244435D01*
X60700090Y-28244435D01*
X60580535Y-28124880D01*
X60351727Y-27971995D01*
X60097490Y-27866686D01*
X59827592Y-27813000D01*
X59552408Y-27813000D01*
X59282510Y-27866686D01*
X59028273Y-27971995D01*
X58799465Y-28124880D01*
X58604880Y-28319465D01*
X58453405Y-28546162D01*
X58388005Y-28388273D01*
X58235120Y-28159465D01*
X58040535Y-27964880D01*
X57811727Y-27811995D01*
X57557490Y-27706686D01*
X57287592Y-27653000D01*
X57012408Y-27653000D01*
X56742510Y-27706686D01*
X56488273Y-27811995D01*
X56259465Y-27964880D01*
X56064880Y-28159465D01*
X55911995Y-28388273D01*
X55845955Y-28547706D01*
X55815656Y-28491020D01*
X55575565Y-28424040D01*
X54789605Y-29210000D01*
X54430395Y-29210000D01*
X53644435Y-28424040D01*
X53404344Y-28491020D01*
X53287244Y-28740048D01*
X53220977Y-29007135D01*
X53208090Y-29282017D01*
X45847000Y-29282017D01*
X45847000Y-29072408D01*
X45793314Y-28802510D01*
X45688005Y-28548273D01*
X45535120Y-28319465D01*
X45460090Y-28244435D01*
X53824040Y-28244435D01*
X54610000Y-29030395D01*
X55395960Y-28244435D01*
X55328980Y-28004344D01*
X55079952Y-27887244D01*
X54812865Y-27820977D01*
X54537983Y-27808090D01*
X54265867Y-27849078D01*
X54006977Y-27942364D01*
X53891020Y-28004344D01*
X53824040Y-28244435D01*
X45460090Y-28244435D01*
X45340535Y-28124880D01*
X45111727Y-27971995D01*
X44857490Y-27866686D01*
X44587592Y-27813000D01*
X44312408Y-27813000D01*
X44042510Y-27866686D01*
X43788273Y-27971995D01*
X43559465Y-28124880D01*
X43364880Y-28319465D01*
X43213405Y-28546162D01*
X43148005Y-28388273D01*
X42995120Y-28159465D01*
X42800535Y-27964880D01*
X42571727Y-27811995D01*
X42317490Y-27706686D01*
X42047592Y-27653000D01*
X41772408Y-27653000D01*
X41502510Y-27706686D01*
X41248273Y-27811995D01*
X41019465Y-27964880D01*
X40824880Y-28159465D01*
X40671995Y-28388273D01*
X40605955Y-28547706D01*
X40575656Y-28491020D01*
X40335565Y-28424040D01*
X39549605Y-29210000D01*
X39190395Y-29210000D01*
X38404435Y-28424040D01*
X38164344Y-28491020D01*
X38047244Y-28740048D01*
X37980977Y-29007135D01*
X37968090Y-29282017D01*
X30607000Y-29282017D01*
X30607000Y-29072408D01*
X30553314Y-28802510D01*
X30448005Y-28548273D01*
X30295120Y-28319465D01*
X30220090Y-28244435D01*
X38584040Y-28244435D01*
X39370000Y-29030395D01*
X40155960Y-28244435D01*
X40088980Y-28004344D01*
X39839952Y-27887244D01*
X39572865Y-27820977D01*
X39297983Y-27808090D01*
X39025867Y-27849078D01*
X38766977Y-27942364D01*
X38651020Y-28004344D01*
X38584040Y-28244435D01*
X30220090Y-28244435D01*
X30100535Y-28124880D01*
X29871727Y-27971995D01*
X29617490Y-27866686D01*
X29347592Y-27813000D01*
X29072408Y-27813000D01*
X28802510Y-27866686D01*
X28548273Y-27971995D01*
X28319465Y-28124880D01*
X28124880Y-28319465D01*
X27973405Y-28546162D01*
X27908005Y-28388273D01*
X27755120Y-28159465D01*
X27560535Y-27964880D01*
X27331727Y-27811995D01*
X27077490Y-27706686D01*
X26807592Y-27653000D01*
X26532408Y-27653000D01*
X26262510Y-27706686D01*
X26008273Y-27811995D01*
X25779465Y-27964880D01*
X25584880Y-28159465D01*
X25431995Y-28388273D01*
X25365955Y-28547706D01*
X25335656Y-28491020D01*
X25095565Y-28424040D01*
X24309605Y-29210000D01*
X23950395Y-29210000D01*
X23164435Y-28424040D01*
X22924344Y-28491020D01*
X22807244Y-28740048D01*
X22740977Y-29007135D01*
X22728090Y-29282017D01*
X19281700Y-29282017D01*
X19281700Y-28244435D01*
X23344040Y-28244435D01*
X24130000Y-29030395D01*
X24915960Y-28244435D01*
X24848980Y-28004344D01*
X24599952Y-27887244D01*
X24332865Y-27820977D01*
X24057983Y-27808090D01*
X23785867Y-27849078D01*
X23526977Y-27942364D01*
X23411020Y-28004344D01*
X23344040Y-28244435D01*
X19281700Y-28244435D01*
X19281700Y-23392468D01*
X19309905Y-23350256D01*
X19387926Y-23161898D01*
X19427700Y-22961939D01*
X19427700Y-22758061D01*
X19387926Y-22558102D01*
X19309905Y-22369744D01*
X19196637Y-22200226D01*
X19052474Y-22056063D01*
X18882956Y-21942795D01*
X18694598Y-21864774D01*
X18494639Y-21825000D01*
X18427700Y-21825000D01*
X18427700Y-16680000D01*
X82081928Y-16680000D01*
X82081928Y-18880000D01*
X82094188Y-19004482D01*
X82130498Y-19124180D01*
X82189463Y-19234494D01*
X82268815Y-19331185D01*
X82365506Y-19410537D01*
X82475820Y-19469502D01*
X82595518Y-19505812D01*
X82720000Y-19518072D01*
X83060000Y-19518072D01*
X83060001Y-23494269D01*
X83056324Y-23531601D01*
X83070998Y-23680586D01*
X83114454Y-23823847D01*
X83185026Y-23955877D01*
X83256201Y-24042603D01*
X83280000Y-24071602D01*
X83308998Y-24095400D01*
X96211312Y-36997715D01*
X96175000Y-37180266D01*
X96175000Y-37462936D01*
X96230147Y-37740175D01*
X96338320Y-38001328D01*
X96495363Y-38236360D01*
X96695241Y-38436238D01*
X96930273Y-38593281D01*
X97191426Y-38701454D01*
X97468665Y-38756601D01*
X97751335Y-38756601D01*
X98028574Y-38701454D01*
X98289727Y-38593281D01*
X98524759Y-38436238D01*
X98724637Y-38236360D01*
X98881680Y-38001328D01*
X98989853Y-37740175D01*
X99045000Y-37462936D01*
X99045000Y-37180266D01*
X98989853Y-36903027D01*
X98881680Y-36641874D01*
X98724637Y-36406842D01*
X98524759Y-36206964D01*
X98322173Y-36071601D01*
X98524759Y-35936238D01*
X98724637Y-35736360D01*
X98843813Y-35558000D01*
X99784678Y-35558000D01*
X99822000Y-35561676D01*
X99859322Y-35558000D01*
X99859333Y-35558000D01*
X99970986Y-35547003D01*
X100114247Y-35503546D01*
X100246276Y-35432974D01*
X100362001Y-35338001D01*
X100385804Y-35308997D01*
X103000003Y-32694799D01*
X103029001Y-32671001D01*
X103123974Y-32555276D01*
X103194546Y-32423247D01*
X103238003Y-32279986D01*
X103249000Y-32168333D01*
X103252677Y-32131000D01*
X103249000Y-32093667D01*
X103249000Y-31750718D01*
X107816601Y-31750718D01*
X107816601Y-32092484D01*
X107883276Y-32427682D01*
X108014064Y-32743432D01*
X108203938Y-33027599D01*
X108445603Y-33269264D01*
X108729770Y-33459138D01*
X109045520Y-33589926D01*
X109380718Y-33656601D01*
X109722484Y-33656601D01*
X110057682Y-33589926D01*
X110373432Y-33459138D01*
X110657599Y-33269264D01*
X110899264Y-33027599D01*
X111089138Y-32743432D01*
X111219926Y-32427682D01*
X111286601Y-32092484D01*
X111286601Y-31750718D01*
X111219926Y-31415520D01*
X111089138Y-31099770D01*
X110899264Y-30815603D01*
X110657599Y-30573938D01*
X110373432Y-30384064D01*
X110057682Y-30253276D01*
X109722484Y-30186601D01*
X109380718Y-30186601D01*
X109045520Y-30253276D01*
X108729770Y-30384064D01*
X108445603Y-30573938D01*
X108203938Y-30815603D01*
X108014064Y-31099770D01*
X107883276Y-31415520D01*
X107816601Y-31750718D01*
X103249000Y-31750718D01*
X103249000Y-27365801D01*
X109731008Y-20883795D01*
X109760001Y-20860001D01*
X109783795Y-20831008D01*
X109783799Y-20831004D01*
X109854973Y-20744277D01*
X109854974Y-20744276D01*
X109925546Y-20612247D01*
X109969003Y-20468986D01*
X109980000Y-20357333D01*
X109980000Y-20357324D01*
X109983676Y-20320001D01*
X109980000Y-20282678D01*
X109980000Y-19518072D01*
X110320000Y-19518072D01*
X110444482Y-19505812D01*
X110564180Y-19469502D01*
X110674494Y-19410537D01*
X110771185Y-19331185D01*
X110850537Y-19234494D01*
X110909502Y-19124180D01*
X110945812Y-19004482D01*
X110958072Y-18880000D01*
X110958072Y-18525000D01*
X126881928Y-18525000D01*
X126885000Y-18764250D01*
X127043750Y-18923000D01*
X128143000Y-18923000D01*
X128143000Y-18048750D01*
X128397000Y-18048750D01*
X128397000Y-18923000D01*
X129496250Y-18923000D01*
X129655000Y-18764250D01*
X129658072Y-18525000D01*
X129645812Y-18400518D01*
X129609502Y-18280820D01*
X129550537Y-18170506D01*
X129471185Y-18073815D01*
X129374494Y-17994463D01*
X129264180Y-17935498D01*
X129144482Y-17899188D01*
X129020000Y-17886928D01*
X128555750Y-17890000D01*
X128397000Y-18048750D01*
X128143000Y-18048750D01*
X127984250Y-17890000D01*
X127520000Y-17886928D01*
X127395518Y-17899188D01*
X127275820Y-17935498D01*
X127165506Y-17994463D01*
X127068815Y-18073815D01*
X126989463Y-18170506D01*
X126930498Y-18280820D01*
X126894188Y-18400518D01*
X126881928Y-18525000D01*
X110958072Y-18525000D01*
X110958072Y-16680000D01*
X110945812Y-16555518D01*
X110909502Y-16435820D01*
X110850537Y-16325506D01*
X110771185Y-16228815D01*
X110674494Y-16149463D01*
X110564180Y-16090498D01*
X110444482Y-16054188D01*
X110320000Y-16041928D01*
X108120000Y-16041928D01*
X107995518Y-16054188D01*
X107875820Y-16090498D01*
X107765506Y-16149463D01*
X107668815Y-16228815D01*
X107589463Y-16325506D01*
X107530498Y-16435820D01*
X107494188Y-16555518D01*
X107481928Y-16680000D01*
X107481928Y-18880000D01*
X107494188Y-19004482D01*
X107530498Y-19124180D01*
X107589463Y-19234494D01*
X107668815Y-19331185D01*
X107765506Y-19410537D01*
X107875820Y-19469502D01*
X107995518Y-19505812D01*
X108120000Y-19518072D01*
X108460001Y-19518072D01*
X108460001Y-20005196D01*
X101978003Y-26487196D01*
X101948999Y-26510999D01*
X101925197Y-26540002D01*
X101798201Y-26666998D01*
X101727026Y-26753724D01*
X101656454Y-26885754D01*
X101612998Y-27029015D01*
X101598324Y-27178000D01*
X101612998Y-27326985D01*
X101656454Y-27470246D01*
X101727026Y-27602276D01*
X101729000Y-27604681D01*
X101729001Y-31816197D01*
X101645000Y-31900198D01*
X101645000Y-31780266D01*
X101589853Y-31503027D01*
X101481680Y-31241874D01*
X101324637Y-31006842D01*
X101124759Y-30806964D01*
X100889727Y-30649921D01*
X100628574Y-30541748D01*
X100351335Y-30486601D01*
X100068665Y-30486601D01*
X99886113Y-30522913D01*
X99820000Y-30456800D01*
X99820000Y-19343148D01*
X99881831Y-19317537D01*
X100165998Y-19127663D01*
X100407663Y-18885998D01*
X100597537Y-18601831D01*
X100728325Y-18286081D01*
X100795000Y-17950883D01*
X100795000Y-17609117D01*
X100728325Y-17273919D01*
X100597537Y-16958169D01*
X100407663Y-16674002D01*
X100165998Y-16432337D01*
X99881831Y-16242463D01*
X99566081Y-16111675D01*
X99230883Y-16045000D01*
X98889117Y-16045000D01*
X98553919Y-16111675D01*
X98238169Y-16242463D01*
X97954002Y-16432337D01*
X97712337Y-16674002D01*
X97522463Y-16958169D01*
X97496852Y-17020000D01*
X95543148Y-17020000D01*
X95517537Y-16958169D01*
X95327663Y-16674002D01*
X95085998Y-16432337D01*
X94801831Y-16242463D01*
X94486081Y-16111675D01*
X94150883Y-16045000D01*
X93809117Y-16045000D01*
X93473919Y-16111675D01*
X93158169Y-16242463D01*
X92874002Y-16432337D01*
X92632337Y-16674002D01*
X92442463Y-16958169D01*
X92311675Y-17273919D01*
X92245000Y-17609117D01*
X92245000Y-17950883D01*
X92311675Y-18286081D01*
X92442463Y-18601831D01*
X92632337Y-18885998D01*
X92874002Y-19127663D01*
X93158169Y-19317537D01*
X93473919Y-19448325D01*
X93809117Y-19515000D01*
X94150883Y-19515000D01*
X94486081Y-19448325D01*
X94801831Y-19317537D01*
X95085998Y-19127663D01*
X95327663Y-18885998D01*
X95517537Y-18601831D01*
X95543148Y-18540000D01*
X97496852Y-18540000D01*
X97522463Y-18601831D01*
X97712337Y-18885998D01*
X97954002Y-19127663D01*
X98238169Y-19317537D01*
X98300000Y-19343148D01*
X98300001Y-30734269D01*
X98296324Y-30771601D01*
X98310998Y-30920586D01*
X98354454Y-31063847D01*
X98425026Y-31195877D01*
X98494267Y-31280246D01*
X98520000Y-31311602D01*
X98548998Y-31335400D01*
X98811312Y-31597714D01*
X98775000Y-31780266D01*
X98775000Y-32062936D01*
X98830147Y-32340175D01*
X98938320Y-32601328D01*
X99095363Y-32836360D01*
X99295241Y-33036238D01*
X99530273Y-33193281D01*
X99791426Y-33301454D01*
X100068665Y-33356601D01*
X100188598Y-33356601D01*
X99507199Y-34038000D01*
X98812274Y-34038000D01*
X98724637Y-33906842D01*
X98524759Y-33706964D01*
X98289727Y-33549921D01*
X98028574Y-33441748D01*
X97751335Y-33386601D01*
X97468665Y-33386601D01*
X97191426Y-33441748D01*
X96930273Y-33549921D01*
X96695241Y-33706964D01*
X96495363Y-33906842D01*
X96338320Y-34141874D01*
X96230147Y-34403027D01*
X96175000Y-34680266D01*
X96175000Y-34811799D01*
X84580000Y-23216800D01*
X84580000Y-19518072D01*
X84920000Y-19518072D01*
X85044482Y-19505812D01*
X85164180Y-19469502D01*
X85274494Y-19410537D01*
X85371185Y-19331185D01*
X85450537Y-19234494D01*
X85509502Y-19124180D01*
X85545812Y-19004482D01*
X85558072Y-18880000D01*
X85558072Y-16680000D01*
X85545812Y-16555518D01*
X85509502Y-16435820D01*
X85450537Y-16325506D01*
X85371185Y-16228815D01*
X85274494Y-16149463D01*
X85164180Y-16090498D01*
X85044482Y-16054188D01*
X84920000Y-16041928D01*
X82720000Y-16041928D01*
X82595518Y-16054188D01*
X82475820Y-16090498D01*
X82365506Y-16149463D01*
X82268815Y-16228815D01*
X82189463Y-16325506D01*
X82130498Y-16435820D01*
X82094188Y-16555518D01*
X82081928Y-16680000D01*
X18427700Y-16680000D01*
X18427700Y-15887700D01*
X131432301Y-15887700D01*
X131432301Y-19867500D01*
G37*
X131432301Y-19867500D02*
X131373803Y-19809002D01*
X131350001Y-19779999D01*
X131234276Y-19685026D01*
X131102247Y-19614454D01*
X130958986Y-19570997D01*
X130847333Y-19560000D01*
X130847322Y-19560000D01*
X130810000Y-19556324D01*
X130772678Y-19560000D01*
X129657879Y-19560000D01*
X129655000Y-19335750D01*
X129496250Y-19177000D01*
X128723109Y-19177000D01*
X128722400Y-19176785D01*
X128551979Y-19160000D01*
X127988021Y-19160000D01*
X127817600Y-19176785D01*
X127816891Y-19177000D01*
X127043750Y-19177000D01*
X126885000Y-19335750D01*
X126881928Y-19575000D01*
X126894188Y-19699482D01*
X126930498Y-19819180D01*
X126965093Y-19883902D01*
X126901785Y-20092600D01*
X126879388Y-20320000D01*
X126901785Y-20547400D01*
X126968115Y-20766060D01*
X127069105Y-20955000D01*
X126968115Y-21143940D01*
X126901785Y-21362600D01*
X126879388Y-21590000D01*
X126901785Y-21817400D01*
X126917149Y-21868049D01*
X118361003Y-30424196D01*
X118331999Y-30447999D01*
X118295070Y-30492998D01*
X118237026Y-30563724D01*
X118175836Y-30678201D01*
X118166454Y-30695754D01*
X118122997Y-30839015D01*
X118112000Y-30950668D01*
X118112000Y-30950678D01*
X118108324Y-30988000D01*
X118112000Y-31025322D01*
X118112001Y-41714288D01*
X118068063Y-41758226D01*
X117954795Y-41927744D01*
X117876774Y-42116102D01*
X117837000Y-42316061D01*
X117837000Y-42519939D01*
X117876774Y-42719898D01*
X117954795Y-42908256D01*
X118068063Y-43077774D01*
X118212226Y-43221937D01*
X118381744Y-43335205D01*
X118570102Y-43413226D01*
X118770061Y-43453000D01*
X118973939Y-43453000D01*
X119173898Y-43413226D01*
X119362256Y-43335205D01*
X119531774Y-43221937D01*
X119675937Y-43077774D01*
X119789205Y-42908256D01*
X119867226Y-42719898D01*
X119907000Y-42519939D01*
X119907000Y-42316061D01*
X119867226Y-42116102D01*
X119789205Y-41927744D01*
X119675937Y-41758226D01*
X119632000Y-41714289D01*
X119632000Y-31302801D01*
X128184802Y-22750000D01*
X128551979Y-22750000D01*
X128722400Y-22733215D01*
X128941060Y-22666885D01*
X129142579Y-22559171D01*
X129319212Y-22414212D01*
X129464171Y-22237579D01*
X129571885Y-22036060D01*
X129638215Y-21817400D01*
X129660612Y-21590000D01*
X129638215Y-21362600D01*
X129571885Y-21143940D01*
X129537708Y-21080000D01*
X130495199Y-21080000D01*
X130812000Y-21396802D01*
X130812001Y-30927197D01*
X130577598Y-31161601D01*
X130114749Y-31161601D01*
X130089138Y-31099770D01*
X129899264Y-30815603D01*
X129657599Y-30573938D01*
X129373432Y-30384064D01*
X129057682Y-30253276D01*
X128722484Y-30186601D01*
X128380718Y-30186601D01*
X128045520Y-30253276D01*
X127729770Y-30384064D01*
X127445603Y-30573938D01*
X127203938Y-30815603D01*
X127014064Y-31099770D01*
X126883276Y-31415520D01*
X126816601Y-31750718D01*
X126816601Y-32092484D01*
X126883276Y-32427682D01*
X127014064Y-32743432D01*
X127203938Y-33027599D01*
X127445603Y-33269264D01*
X127729770Y-33459138D01*
X128045520Y-33589926D01*
X128380718Y-33656601D01*
X128722484Y-33656601D01*
X129057682Y-33589926D01*
X129373432Y-33459138D01*
X129657599Y-33269264D01*
X129899264Y-33027599D01*
X130089138Y-32743432D01*
X130114749Y-32681601D01*
X130855077Y-32681601D01*
X130892399Y-32685277D01*
X130929721Y-32681601D01*
X130929732Y-32681601D01*
X131041385Y-32670604D01*
X131184646Y-32627147D01*
X131316675Y-32556575D01*
X131432301Y-32461684D01*
X131432300Y-57772300D01*
X118054501Y-57772300D01*
X120689802Y-55137000D01*
X120751939Y-55137000D01*
X120951898Y-55097226D01*
X121140256Y-55019205D01*
X121309774Y-54905937D01*
X121453937Y-54761774D01*
X121567205Y-54592256D01*
X121645226Y-54403898D01*
X121685000Y-54203939D01*
X121685000Y-54000061D01*
X121645226Y-53800102D01*
X121567205Y-53611744D01*
X121453937Y-53442226D01*
X121309774Y-53298063D01*
X121140256Y-53184795D01*
X120951898Y-53106774D01*
X120751939Y-53067000D01*
X120548061Y-53067000D01*
X120348102Y-53106774D01*
X120159744Y-53184795D01*
X119990226Y-53298063D01*
X119846063Y-53442226D01*
X119732795Y-53611744D01*
X119654774Y-53800102D01*
X119615000Y-54000061D01*
X119615000Y-54062198D01*
X117033199Y-56644000D01*
X87182802Y-56644000D01*
X82506827Y-51968026D01*
X82451205Y-51833744D01*
X82407786Y-51768763D01*
X82532256Y-51717205D01*
X82701774Y-51603937D01*
X82845937Y-51459774D01*
X82959205Y-51290256D01*
X83037226Y-51101898D01*
X83050737Y-51033972D01*
X86208501Y-54191736D01*
X86236341Y-54225659D01*
X86371709Y-54336753D01*
X86526149Y-54419303D01*
X86592058Y-54439296D01*
X86693724Y-54470136D01*
X86726924Y-54473406D01*
X86824333Y-54483000D01*
X86824339Y-54483000D01*
X86867999Y-54487300D01*
X86911659Y-54483000D01*
X101700363Y-54483000D01*
X101899714Y-54522653D01*
X102103592Y-54522653D01*
X102303551Y-54482879D01*
X102491909Y-54404858D01*
X102661427Y-54291590D01*
X102805590Y-54147427D01*
X102918858Y-53977909D01*
X102996879Y-53789551D01*
X103036653Y-53589592D01*
X103036653Y-53385714D01*
X102996879Y-53185755D01*
X102918858Y-52997397D01*
X102805590Y-52827879D01*
X102661427Y-52683716D01*
X102491909Y-52570448D01*
X102303551Y-52492427D01*
X102103592Y-52452653D01*
X101899714Y-52452653D01*
X101699755Y-52492427D01*
X101511397Y-52570448D01*
X101341879Y-52683716D01*
X101320595Y-52705000D01*
X87236235Y-52705000D01*
X80923499Y-46392264D01*
X80895659Y-46358341D01*
X80760291Y-46247247D01*
X80605851Y-46164697D01*
X80438274Y-46113864D01*
X80307667Y-46101000D01*
X80307660Y-46101000D01*
X80264000Y-46096700D01*
X80220340Y-46101000D01*
X76046235Y-46101000D01*
X80593174Y-41554061D01*
X95231000Y-41554061D01*
X95231000Y-41757939D01*
X95270774Y-41957898D01*
X95348795Y-42146256D01*
X95462063Y-42315774D01*
X95606226Y-42459937D01*
X95775744Y-42573205D01*
X95964102Y-42651226D01*
X96164061Y-42691000D01*
X96367939Y-42691000D01*
X96567898Y-42651226D01*
X96756256Y-42573205D01*
X96925774Y-42459937D01*
X96969711Y-42416000D01*
X99372289Y-42416000D01*
X99416226Y-42459937D01*
X99585744Y-42573205D01*
X99774102Y-42651226D01*
X99974061Y-42691000D01*
X100177939Y-42691000D01*
X100377898Y-42651226D01*
X100566256Y-42573205D01*
X100735774Y-42459937D01*
X100879937Y-42315774D01*
X100993205Y-42146256D01*
X101071226Y-41957898D01*
X101111000Y-41757939D01*
X101111000Y-41554061D01*
X101071226Y-41354102D01*
X100993205Y-41165744D01*
X100879937Y-40996226D01*
X100735774Y-40852063D01*
X100566256Y-40738795D01*
X100377898Y-40660774D01*
X100177939Y-40621000D01*
X99974061Y-40621000D01*
X99774102Y-40660774D01*
X99585744Y-40738795D01*
X99416226Y-40852063D01*
X99372289Y-40896000D01*
X96969711Y-40896000D01*
X96925774Y-40852063D01*
X96756256Y-40738795D01*
X96567898Y-40660774D01*
X96367939Y-40621000D01*
X96164061Y-40621000D01*
X95964102Y-40660774D01*
X95775744Y-40738795D01*
X95606226Y-40852063D01*
X95462063Y-40996226D01*
X95348795Y-41165744D01*
X95270774Y-41354102D01*
X95231000Y-41554061D01*
X80593174Y-41554061D01*
X85527898Y-36619337D01*
X85634276Y-36562476D01*
X85750001Y-36467503D01*
X85844974Y-36351778D01*
X85912666Y-36225137D01*
X85952753Y-36176291D01*
X86035303Y-36021851D01*
X86076330Y-35886601D01*
X86086136Y-35854276D01*
X86092140Y-35793314D01*
X86099000Y-35723667D01*
X86099000Y-35723661D01*
X86103300Y-35680001D01*
X86099000Y-35636341D01*
X86099000Y-33053450D01*
X86124759Y-33036238D01*
X86324637Y-32836360D01*
X86481680Y-32601328D01*
X86589853Y-32340175D01*
X86645000Y-32062936D01*
X86645000Y-31780266D01*
X86589853Y-31503027D01*
X86481680Y-31241874D01*
X86324637Y-31006842D01*
X86124759Y-30806964D01*
X85889727Y-30649921D01*
X85628574Y-30541748D01*
X85351335Y-30486601D01*
X85068665Y-30486601D01*
X84791426Y-30541748D01*
X84530273Y-30649921D01*
X84295241Y-30806964D01*
X84095363Y-31006842D01*
X83938320Y-31241874D01*
X83830147Y-31503027D01*
X83775000Y-31780266D01*
X83775000Y-32062936D01*
X83830147Y-32340175D01*
X83938320Y-32601328D01*
X84095363Y-32836360D01*
X84295241Y-33036238D01*
X84321000Y-33053450D01*
X84321001Y-35311764D01*
X74694999Y-44937766D01*
X74694999Y-44893658D01*
X74699299Y-44849998D01*
X74694999Y-44806338D01*
X74694999Y-44806332D01*
X74682135Y-44675725D01*
X74631302Y-44508148D01*
X74548752Y-44353708D01*
X74437658Y-44218340D01*
X74410815Y-44196311D01*
X74401226Y-44148102D01*
X74323205Y-43959744D01*
X74209937Y-43790226D01*
X74065774Y-43646063D01*
X73896256Y-43532795D01*
X73707898Y-43454774D01*
X73507939Y-43415000D01*
X73304061Y-43415000D01*
X73104102Y-43454774D01*
X72915744Y-43532795D01*
X72746226Y-43646063D01*
X72602063Y-43790226D01*
X72488795Y-43959744D01*
X72410774Y-44148102D01*
X72371000Y-44348061D01*
X72371000Y-44551939D01*
X72410774Y-44751898D01*
X72488795Y-44940256D01*
X72602063Y-45109774D01*
X72746226Y-45253937D01*
X72915744Y-45367205D01*
X72916999Y-45367725D01*
X72916999Y-45587408D01*
X72826805Y-45550048D01*
X72537491Y-45492500D01*
X72242509Y-45492500D01*
X71953195Y-45550048D01*
X71680668Y-45662933D01*
X71435399Y-45826816D01*
X71226816Y-46035399D01*
X71120000Y-46195261D01*
X71013184Y-46035399D01*
X70804601Y-45826816D01*
X70739000Y-45782983D01*
X70739000Y-42532235D01*
X78230106Y-35041130D01*
X78279898Y-35031226D01*
X78468256Y-34953205D01*
X78637774Y-34839937D01*
X78781937Y-34695774D01*
X78895205Y-34526256D01*
X78973226Y-34337898D01*
X79013000Y-34137939D01*
X79013000Y-33934061D01*
X78973226Y-33734102D01*
X78895205Y-33545744D01*
X78781937Y-33376226D01*
X78637774Y-33232063D01*
X78468256Y-33118795D01*
X78279898Y-33040774D01*
X78079939Y-33001000D01*
X77876061Y-33001000D01*
X77676102Y-33040774D01*
X77487744Y-33118795D01*
X77318226Y-33232063D01*
X77174063Y-33376226D01*
X77060795Y-33545744D01*
X76982774Y-33734102D01*
X76972870Y-33783894D01*
X76326461Y-34430303D01*
X76327000Y-34427592D01*
X76327000Y-34152408D01*
X76273314Y-33882510D01*
X76168005Y-33628273D01*
X76015120Y-33399465D01*
X75820535Y-33204880D01*
X75591727Y-33051995D01*
X75337490Y-32946686D01*
X75067592Y-32893000D01*
X74792408Y-32893000D01*
X74522510Y-32946686D01*
X74268273Y-33051995D01*
X74039465Y-33204880D01*
X73844880Y-33399465D01*
X73691995Y-33628273D01*
X73626595Y-33786162D01*
X73475120Y-33559465D01*
X73280535Y-33364880D01*
X73051727Y-33211995D01*
X72797490Y-33106686D01*
X72527592Y-33053000D01*
X72252408Y-33053000D01*
X71982510Y-33106686D01*
X71728273Y-33211995D01*
X71499465Y-33364880D01*
X71304880Y-33559465D01*
X71153386Y-33786191D01*
X71117636Y-33686977D01*
X71055656Y-33571020D01*
X70815565Y-33504040D01*
X70029605Y-34290000D01*
X70815565Y-35075960D01*
X71055656Y-35008980D01*
X71084249Y-34948174D01*
X71151995Y-35111727D01*
X71304880Y-35340535D01*
X71499465Y-35535120D01*
X71728273Y-35688005D01*
X71982510Y-35793314D01*
X72252408Y-35847000D01*
X72527592Y-35847000D01*
X72797490Y-35793314D01*
X73051727Y-35688005D01*
X73280535Y-35535120D01*
X73475120Y-35340535D01*
X73628005Y-35111727D01*
X73693405Y-34953838D01*
X73844880Y-35180535D01*
X74039465Y-35375120D01*
X74268273Y-35528005D01*
X74522510Y-35633314D01*
X74792408Y-35687000D01*
X75067592Y-35687000D01*
X75070304Y-35686461D01*
X69252259Y-41504506D01*
X69218342Y-41532341D01*
X69190507Y-41566258D01*
X69190505Y-41566260D01*
X69107248Y-41667709D01*
X69024698Y-41822148D01*
X68973864Y-41989726D01*
X68956700Y-42164000D01*
X68961001Y-42207670D01*
X68961001Y-43629510D01*
X68816256Y-43532795D01*
X68627898Y-43454774D01*
X68578105Y-43444870D01*
X67461499Y-42328264D01*
X67433659Y-42294341D01*
X67298291Y-42183247D01*
X67143851Y-42100697D01*
X66976274Y-42049864D01*
X66845667Y-42037000D01*
X66845660Y-42037000D01*
X66802000Y-42032700D01*
X66758340Y-42037000D01*
X65556468Y-42037000D01*
X65514256Y-42008795D01*
X65325898Y-41930774D01*
X65125939Y-41891000D01*
X64922061Y-41891000D01*
X64722102Y-41930774D01*
X64533744Y-42008795D01*
X64364226Y-42122063D01*
X64220063Y-42266226D01*
X64106795Y-42435744D01*
X64028774Y-42624102D01*
X64027136Y-42632335D01*
X61466000Y-40071199D01*
X61466000Y-38803711D01*
X61509937Y-38759774D01*
X61623205Y-38590256D01*
X61701226Y-38401898D01*
X61741000Y-38201939D01*
X61741000Y-37998061D01*
X61701226Y-37798102D01*
X61623205Y-37609744D01*
X61509937Y-37440226D01*
X61365774Y-37296063D01*
X61196256Y-37182795D01*
X61007898Y-37104774D01*
X60807939Y-37065000D01*
X60604061Y-37065000D01*
X60404102Y-37104774D01*
X60215744Y-37182795D01*
X60046226Y-37296063D01*
X59902063Y-37440226D01*
X59788795Y-37609744D01*
X59710774Y-37798102D01*
X59671000Y-37998061D01*
X59671000Y-38201939D01*
X59710774Y-38401898D01*
X59788795Y-38590256D01*
X59902063Y-38759774D01*
X59946000Y-38803711D01*
X59946001Y-40348668D01*
X59942324Y-40386000D01*
X59946001Y-40423333D01*
X59956998Y-40534986D01*
X59970180Y-40578442D01*
X60000454Y-40678246D01*
X60071026Y-40810276D01*
X60141379Y-40896000D01*
X60166000Y-40926001D01*
X60194998Y-40949799D01*
X64737698Y-45492500D01*
X64622509Y-45492500D01*
X64333195Y-45550048D01*
X64060668Y-45662933D01*
X63815399Y-45826816D01*
X63606816Y-46035399D01*
X63500000Y-46195261D01*
X63393184Y-46035399D01*
X63184601Y-45826816D01*
X62939332Y-45662933D01*
X62666805Y-45550048D01*
X62377491Y-45492500D01*
X62082509Y-45492500D01*
X61793195Y-45550048D01*
X61520668Y-45662933D01*
X61275399Y-45826816D01*
X61066816Y-46035399D01*
X60960000Y-46195261D01*
X60853184Y-46035399D01*
X60644601Y-45826816D01*
X60399332Y-45662933D01*
X60126805Y-45550048D01*
X59837491Y-45492500D01*
X59542509Y-45492500D01*
X59253195Y-45550048D01*
X58980668Y-45662933D01*
X58735399Y-45826816D01*
X58526816Y-46035399D01*
X58420000Y-46195261D01*
X58313184Y-46035399D01*
X58104601Y-45826816D01*
X57859332Y-45662933D01*
X57586805Y-45550048D01*
X57297491Y-45492500D01*
X57002509Y-45492500D01*
X56713195Y-45550048D01*
X56440668Y-45662933D01*
X56195399Y-45826816D01*
X55986816Y-46035399D01*
X55880000Y-46195261D01*
X55773184Y-46035399D01*
X55564601Y-45826816D01*
X55319332Y-45662933D01*
X55046805Y-45550048D01*
X54757491Y-45492500D01*
X54462509Y-45492500D01*
X54173195Y-45550048D01*
X53900668Y-45662933D01*
X53655399Y-45826816D01*
X53446816Y-46035399D01*
X53282933Y-46280668D01*
X53170048Y-46553195D01*
X53112500Y-46842509D01*
X53112500Y-47137491D01*
X53170048Y-47426805D01*
X53282933Y-47699332D01*
X53446816Y-47944601D01*
X53655399Y-48153184D01*
X53815261Y-48260000D01*
X53655399Y-48366816D01*
X53446816Y-48575399D01*
X53282933Y-48820668D01*
X53170048Y-49093195D01*
X53112500Y-49382509D01*
X53112500Y-49677491D01*
X53170048Y-49966805D01*
X53282933Y-50239332D01*
X53446816Y-50484601D01*
X53655399Y-50693184D01*
X53900668Y-50857067D01*
X54173195Y-50969952D01*
X54462509Y-51027500D01*
X54757491Y-51027500D01*
X55046805Y-50969952D01*
X55319332Y-50857067D01*
X55564601Y-50693184D01*
X55773184Y-50484601D01*
X55880000Y-50324739D01*
X55986816Y-50484601D01*
X56195399Y-50693184D01*
X56440668Y-50857067D01*
X56713195Y-50969952D01*
X57002509Y-51027500D01*
X57297491Y-51027500D01*
X57586805Y-50969952D01*
X57859332Y-50857067D01*
X58104601Y-50693184D01*
X58313184Y-50484601D01*
X58420000Y-50324739D01*
X58526816Y-50484601D01*
X58735399Y-50693184D01*
X58980668Y-50857067D01*
X59253195Y-50969952D01*
X59542509Y-51027500D01*
X59837491Y-51027500D01*
X60126805Y-50969952D01*
X60399332Y-50857067D01*
X60644601Y-50693184D01*
X60853184Y-50484601D01*
X60960000Y-50324739D01*
X61066816Y-50484601D01*
X61275399Y-50693184D01*
X61520668Y-50857067D01*
X61793195Y-50969952D01*
X62082509Y-51027500D01*
X62377491Y-51027500D01*
X62666805Y-50969952D01*
X62939332Y-50857067D01*
X63184601Y-50693184D01*
X63393184Y-50484601D01*
X63500000Y-50324739D01*
X63606816Y-50484601D01*
X63815399Y-50693184D01*
X64060668Y-50857067D01*
X64333195Y-50969952D01*
X64622509Y-51027500D01*
X64917491Y-51027500D01*
X65010124Y-51009074D01*
X64984199Y-51035000D01*
X64922061Y-51035000D01*
X64722102Y-51074774D01*
X64533744Y-51152795D01*
X64364226Y-51266063D01*
X64220063Y-51410226D01*
X64106795Y-51579744D01*
X64028774Y-51768102D01*
X63989000Y-51968061D01*
X63989000Y-52171939D01*
X64028774Y-52371898D01*
X64106795Y-52560256D01*
X64220063Y-52729774D01*
X64364226Y-52873937D01*
X64533744Y-52987205D01*
X64722102Y-53065226D01*
X64922061Y-53105000D01*
X65125939Y-53105000D01*
X65325898Y-53065226D01*
X65514256Y-52987205D01*
X65683774Y-52873937D01*
X65827937Y-52729774D01*
X65941205Y-52560256D01*
X66019226Y-52371898D01*
X66059000Y-52171939D01*
X66059000Y-52109801D01*
X66603799Y-51565003D01*
X66603804Y-51564997D01*
X66608801Y-51560000D01*
X80834289Y-51560000D01*
X80730063Y-51664226D01*
X80616795Y-51833744D01*
X80538774Y-52022102D01*
X80499000Y-52222061D01*
X80499000Y-52425939D01*
X80538774Y-52625898D01*
X80616795Y-52814256D01*
X80730063Y-52983774D01*
X80874226Y-53127937D01*
X81043744Y-53241205D01*
X81232102Y-53319226D01*
X81432061Y-53359000D01*
X81635939Y-53359000D01*
X81729574Y-53340375D01*
X86161498Y-57772300D01*
X18427700Y-57772300D01*
X18427700Y-51968061D01*
X57131000Y-51968061D01*
X57131000Y-52171939D01*
X57170774Y-52371898D01*
X57248795Y-52560256D01*
X57362063Y-52729774D01*
X57506226Y-52873937D01*
X57675744Y-52987205D01*
X57864102Y-53065226D01*
X58064061Y-53105000D01*
X58267939Y-53105000D01*
X58467898Y-53065226D01*
X58656256Y-52987205D01*
X58825774Y-52873937D01*
X58869711Y-52830000D01*
X60256289Y-52830000D01*
X60300226Y-52873937D01*
X60469744Y-52987205D01*
X60658102Y-53065226D01*
X60858061Y-53105000D01*
X61061939Y-53105000D01*
X61261898Y-53065226D01*
X61450256Y-52987205D01*
X61619774Y-52873937D01*
X61763937Y-52729774D01*
X61877205Y-52560256D01*
X61955226Y-52371898D01*
X61995000Y-52171939D01*
X61995000Y-51968061D01*
X61955226Y-51768102D01*
X61877205Y-51579744D01*
X61763937Y-51410226D01*
X61619774Y-51266063D01*
X61450256Y-51152795D01*
X61261898Y-51074774D01*
X61061939Y-51035000D01*
X60858061Y-51035000D01*
X60658102Y-51074774D01*
X60469744Y-51152795D01*
X60300226Y-51266063D01*
X60256289Y-51310000D01*
X58869711Y-51310000D01*
X58825774Y-51266063D01*
X58656256Y-51152795D01*
X58467898Y-51074774D01*
X58267939Y-51035000D01*
X58064061Y-51035000D01*
X57864102Y-51074774D01*
X57675744Y-51152795D01*
X57506226Y-51266063D01*
X57362063Y-51410226D01*
X57248795Y-51579744D01*
X57170774Y-51768102D01*
X57131000Y-51968061D01*
X18427700Y-51968061D01*
X18427700Y-37718935D01*
X19939000Y-39230235D01*
X19939001Y-43372531D01*
X19910795Y-43414744D01*
X19832774Y-43603102D01*
X19793000Y-43803061D01*
X19793000Y-44006939D01*
X19832774Y-44206898D01*
X19910795Y-44395256D01*
X20024063Y-44564774D01*
X20168226Y-44708937D01*
X20337744Y-44822205D01*
X20526102Y-44900226D01*
X20726061Y-44940000D01*
X20929939Y-44940000D01*
X21129898Y-44900226D01*
X21318256Y-44822205D01*
X21487774Y-44708937D01*
X21631937Y-44564774D01*
X21745205Y-44395256D01*
X21823226Y-44206898D01*
X21863000Y-44006939D01*
X21863000Y-43803061D01*
X21823226Y-43603102D01*
X21745205Y-43414744D01*
X21717000Y-43372532D01*
X21717000Y-41554061D01*
X27413000Y-41554061D01*
X27413000Y-41757939D01*
X27452774Y-41957898D01*
X27530795Y-42146256D01*
X27644063Y-42315774D01*
X27788226Y-42459937D01*
X27957744Y-42573205D01*
X28146102Y-42651226D01*
X28346061Y-42691000D01*
X28549939Y-42691000D01*
X28749898Y-42651226D01*
X28938256Y-42573205D01*
X28980468Y-42545000D01*
X37223765Y-42545000D01*
X39218505Y-44539741D01*
X39246341Y-44573659D01*
X39381709Y-44684753D01*
X39536149Y-44767303D01*
X39602058Y-44787296D01*
X39703724Y-44818136D01*
X39736924Y-44821406D01*
X39834333Y-44831000D01*
X39834339Y-44831000D01*
X39877999Y-44835300D01*
X39921659Y-44831000D01*
X52309985Y-44831000D01*
X52344774Y-45005898D01*
X52422795Y-45194256D01*
X52536063Y-45363774D01*
X52680226Y-45507937D01*
X52849744Y-45621205D01*
X53038102Y-45699226D01*
X53238061Y-45739000D01*
X53441939Y-45739000D01*
X53641898Y-45699226D01*
X53830256Y-45621205D01*
X53999774Y-45507937D01*
X54143937Y-45363774D01*
X54257205Y-45194256D01*
X54335226Y-45005898D01*
X54345130Y-44956105D01*
X54699741Y-44601495D01*
X54733659Y-44573659D01*
X54761499Y-44539737D01*
X55116105Y-44185130D01*
X55165898Y-44175226D01*
X55354256Y-44097205D01*
X55523774Y-43983937D01*
X55667937Y-43839774D01*
X55781205Y-43670256D01*
X55859226Y-43481898D01*
X55899000Y-43281939D01*
X55899000Y-43078061D01*
X55859226Y-42878102D01*
X55781205Y-42689744D01*
X55667937Y-42520226D01*
X55523774Y-42376063D01*
X55354256Y-42262795D01*
X55165898Y-42184774D01*
X54965939Y-42145000D01*
X54762061Y-42145000D01*
X54562102Y-42184774D01*
X54373744Y-42262795D01*
X54204226Y-42376063D01*
X54060063Y-42520226D01*
X53946795Y-42689744D01*
X53868774Y-42878102D01*
X53858870Y-42927895D01*
X53733765Y-43053000D01*
X40246236Y-43053000D01*
X38251499Y-41058264D01*
X38223659Y-41024341D01*
X38088291Y-40913247D01*
X37933851Y-40830697D01*
X37766274Y-40779864D01*
X37635667Y-40767000D01*
X37635660Y-40767000D01*
X37592000Y-40762700D01*
X37548340Y-40767000D01*
X28980468Y-40767000D01*
X28938256Y-40738795D01*
X28749898Y-40660774D01*
X28549939Y-40621000D01*
X28346061Y-40621000D01*
X28146102Y-40660774D01*
X27957744Y-40738795D01*
X27788226Y-40852063D01*
X27644063Y-40996226D01*
X27530795Y-41165744D01*
X27452774Y-41354102D01*
X27413000Y-41554061D01*
X21717000Y-41554061D01*
X21717000Y-38905659D01*
X21721300Y-38861999D01*
X21717000Y-38818334D01*
X21717000Y-38818333D01*
X21704136Y-38687726D01*
X21704136Y-38687724D01*
X21653302Y-38520147D01*
X21647453Y-38509205D01*
X21570753Y-38365709D01*
X21459659Y-38230341D01*
X21425737Y-38202502D01*
X20713296Y-37490061D01*
X41637000Y-37490061D01*
X41637000Y-37693939D01*
X41676774Y-37893898D01*
X41754795Y-38082256D01*
X41868063Y-38251774D01*
X42012226Y-38395937D01*
X42181744Y-38509205D01*
X42370102Y-38587226D01*
X42570061Y-38627000D01*
X42632199Y-38627000D01*
X43669000Y-39663802D01*
X43669000Y-39725939D01*
X43708774Y-39925898D01*
X43786795Y-40114256D01*
X43900063Y-40283774D01*
X44044226Y-40427937D01*
X44213744Y-40541205D01*
X44402102Y-40619226D01*
X44602061Y-40659000D01*
X44805939Y-40659000D01*
X45005898Y-40619226D01*
X45194256Y-40541205D01*
X45363774Y-40427937D01*
X45507937Y-40283774D01*
X45621205Y-40114256D01*
X45699226Y-39925898D01*
X45739000Y-39725939D01*
X45739000Y-39522061D01*
X45699226Y-39322102D01*
X45621205Y-39133744D01*
X45507937Y-38964226D01*
X45363774Y-38820063D01*
X45194256Y-38706795D01*
X45005898Y-38628774D01*
X44805939Y-38589000D01*
X44743802Y-38589000D01*
X43707000Y-37552199D01*
X43707000Y-37490061D01*
X43667226Y-37290102D01*
X43589205Y-37101744D01*
X43475937Y-36932226D01*
X43331774Y-36788063D01*
X43162256Y-36674795D01*
X42973898Y-36596774D01*
X42773939Y-36557000D01*
X42570061Y-36557000D01*
X42370102Y-36596774D01*
X42181744Y-36674795D01*
X42012226Y-36788063D01*
X41868063Y-36932226D01*
X41754795Y-37101744D01*
X41676774Y-37290102D01*
X41637000Y-37490061D01*
X20713296Y-37490061D01*
X19281700Y-36058465D01*
X19281700Y-35255565D01*
X23344040Y-35255565D01*
X23411020Y-35495656D01*
X23660048Y-35612756D01*
X23927135Y-35679023D01*
X24202017Y-35691910D01*
X24474133Y-35650922D01*
X24733023Y-35557636D01*
X24848980Y-35495656D01*
X24915960Y-35255565D01*
X24130000Y-34469605D01*
X23344040Y-35255565D01*
X19281700Y-35255565D01*
X19281700Y-34362017D01*
X22728090Y-34362017D01*
X22769078Y-34634133D01*
X22862364Y-34893023D01*
X22924344Y-35008980D01*
X23164435Y-35075960D01*
X23950395Y-34290000D01*
X24309605Y-34290000D01*
X25095565Y-35075960D01*
X25335656Y-35008980D01*
X25364249Y-34948174D01*
X25431995Y-35111727D01*
X25584880Y-35340535D01*
X25779465Y-35535120D01*
X26008273Y-35688005D01*
X26262510Y-35793314D01*
X26532408Y-35847000D01*
X26807592Y-35847000D01*
X27077490Y-35793314D01*
X27331727Y-35688005D01*
X27560535Y-35535120D01*
X27755120Y-35340535D01*
X27908005Y-35111727D01*
X27973405Y-34953838D01*
X28124880Y-35180535D01*
X28319465Y-35375120D01*
X28548273Y-35528005D01*
X28802510Y-35633314D01*
X29072408Y-35687000D01*
X29347592Y-35687000D01*
X29617490Y-35633314D01*
X29871727Y-35528005D01*
X30100535Y-35375120D01*
X30220090Y-35255565D01*
X38584040Y-35255565D01*
X38651020Y-35495656D01*
X38900048Y-35612756D01*
X39167135Y-35679023D01*
X39442017Y-35691910D01*
X39714133Y-35650922D01*
X39973023Y-35557636D01*
X40088980Y-35495656D01*
X40155960Y-35255565D01*
X39370000Y-34469605D01*
X38584040Y-35255565D01*
X30220090Y-35255565D01*
X30295120Y-35180535D01*
X30448005Y-34951727D01*
X30553314Y-34697490D01*
X30607000Y-34427592D01*
X30607000Y-34362017D01*
X37968090Y-34362017D01*
X38009078Y-34634133D01*
X38102364Y-34893023D01*
X38164344Y-35008980D01*
X38404435Y-35075960D01*
X39190395Y-34290000D01*
X39549605Y-34290000D01*
X40335565Y-35075960D01*
X40575656Y-35008980D01*
X40604249Y-34948174D01*
X40671995Y-35111727D01*
X40824880Y-35340535D01*
X41019465Y-35535120D01*
X41248273Y-35688005D01*
X41502510Y-35793314D01*
X41772408Y-35847000D01*
X42047592Y-35847000D01*
X42317490Y-35793314D01*
X42571727Y-35688005D01*
X42800535Y-35535120D01*
X42995120Y-35340535D01*
X43148005Y-35111727D01*
X43213405Y-34953838D01*
X43364880Y-35180535D01*
X43559465Y-35375120D01*
X43788273Y-35528005D01*
X44042510Y-35633314D01*
X44312408Y-35687000D01*
X44587592Y-35687000D01*
X44857490Y-35633314D01*
X45111727Y-35528005D01*
X45340535Y-35375120D01*
X45460090Y-35255565D01*
X53824040Y-35255565D01*
X53891020Y-35495656D01*
X54140048Y-35612756D01*
X54407135Y-35679023D01*
X54682017Y-35691910D01*
X54954133Y-35650922D01*
X55213023Y-35557636D01*
X55328980Y-35495656D01*
X55395960Y-35255565D01*
X54610000Y-34469605D01*
X53824040Y-35255565D01*
X45460090Y-35255565D01*
X45535120Y-35180535D01*
X45688005Y-34951727D01*
X45793314Y-34697490D01*
X45847000Y-34427592D01*
X45847000Y-34362017D01*
X53208090Y-34362017D01*
X53249078Y-34634133D01*
X53342364Y-34893023D01*
X53404344Y-35008980D01*
X53644435Y-35075960D01*
X54430395Y-34290000D01*
X54789605Y-34290000D01*
X55575565Y-35075960D01*
X55815656Y-35008980D01*
X55844249Y-34948174D01*
X55911995Y-35111727D01*
X56064880Y-35340535D01*
X56259465Y-35535120D01*
X56488273Y-35688005D01*
X56742510Y-35793314D01*
X57012408Y-35847000D01*
X57287592Y-35847000D01*
X57557490Y-35793314D01*
X57811727Y-35688005D01*
X58040535Y-35535120D01*
X58235120Y-35340535D01*
X58388005Y-35111727D01*
X58453405Y-34953838D01*
X58604880Y-35180535D01*
X58799465Y-35375120D01*
X59028273Y-35528005D01*
X59282510Y-35633314D01*
X59552408Y-35687000D01*
X59827592Y-35687000D01*
X60097490Y-35633314D01*
X60351727Y-35528005D01*
X60580535Y-35375120D01*
X60700090Y-35255565D01*
X69064040Y-35255565D01*
X69131020Y-35495656D01*
X69380048Y-35612756D01*
X69647135Y-35679023D01*
X69922017Y-35691910D01*
X70194133Y-35650922D01*
X70453023Y-35557636D01*
X70568980Y-35495656D01*
X70635960Y-35255565D01*
X69850000Y-34469605D01*
X69064040Y-35255565D01*
X60700090Y-35255565D01*
X60775120Y-35180535D01*
X60928005Y-34951727D01*
X61033314Y-34697490D01*
X61087000Y-34427592D01*
X61087000Y-34362017D01*
X68448090Y-34362017D01*
X68489078Y-34634133D01*
X68582364Y-34893023D01*
X68644344Y-35008980D01*
X68884435Y-35075960D01*
X69670395Y-34290000D01*
X68884435Y-33504040D01*
X68644344Y-33571020D01*
X68527244Y-33820048D01*
X68460977Y-34087135D01*
X68448090Y-34362017D01*
X61087000Y-34362017D01*
X61087000Y-34152408D01*
X61033314Y-33882510D01*
X60928005Y-33628273D01*
X60775120Y-33399465D01*
X60700090Y-33324435D01*
X69064040Y-33324435D01*
X69850000Y-34110395D01*
X70635960Y-33324435D01*
X70568980Y-33084344D01*
X70319952Y-32967244D01*
X70052865Y-32900977D01*
X69777983Y-32888090D01*
X69505867Y-32929078D01*
X69246977Y-33022364D01*
X69131020Y-33084344D01*
X69064040Y-33324435D01*
X60700090Y-33324435D01*
X60580535Y-33204880D01*
X60351727Y-33051995D01*
X60097490Y-32946686D01*
X59827592Y-32893000D01*
X59552408Y-32893000D01*
X59282510Y-32946686D01*
X59028273Y-33051995D01*
X58799465Y-33204880D01*
X58604880Y-33399465D01*
X58451995Y-33628273D01*
X58386595Y-33786162D01*
X58235120Y-33559465D01*
X58040535Y-33364880D01*
X57811727Y-33211995D01*
X57557490Y-33106686D01*
X57287592Y-33053000D01*
X57012408Y-33053000D01*
X56742510Y-33106686D01*
X56488273Y-33211995D01*
X56259465Y-33364880D01*
X56064880Y-33559465D01*
X55913386Y-33786191D01*
X55877636Y-33686977D01*
X55815656Y-33571020D01*
X55575565Y-33504040D01*
X54789605Y-34290000D01*
X54430395Y-34290000D01*
X53644435Y-33504040D01*
X53404344Y-33571020D01*
X53287244Y-33820048D01*
X53220977Y-34087135D01*
X53208090Y-34362017D01*
X45847000Y-34362017D01*
X45847000Y-34152408D01*
X45793314Y-33882510D01*
X45688005Y-33628273D01*
X45535120Y-33399465D01*
X45460090Y-33324435D01*
X53824040Y-33324435D01*
X54610000Y-34110395D01*
X55395960Y-33324435D01*
X55328980Y-33084344D01*
X55079952Y-32967244D01*
X54812865Y-32900977D01*
X54537983Y-32888090D01*
X54265867Y-32929078D01*
X54006977Y-33022364D01*
X53891020Y-33084344D01*
X53824040Y-33324435D01*
X45460090Y-33324435D01*
X45340535Y-33204880D01*
X45111727Y-33051995D01*
X44857490Y-32946686D01*
X44587592Y-32893000D01*
X44312408Y-32893000D01*
X44042510Y-32946686D01*
X43788273Y-33051995D01*
X43559465Y-33204880D01*
X43364880Y-33399465D01*
X43211995Y-33628273D01*
X43146595Y-33786162D01*
X42995120Y-33559465D01*
X42800535Y-33364880D01*
X42571727Y-33211995D01*
X42317490Y-33106686D01*
X42047592Y-33053000D01*
X41772408Y-33053000D01*
X41502510Y-33106686D01*
X41248273Y-33211995D01*
X41019465Y-33364880D01*
X40824880Y-33559465D01*
X40673386Y-33786191D01*
X40637636Y-33686977D01*
X40575656Y-33571020D01*
X40335565Y-33504040D01*
X39549605Y-34290000D01*
X39190395Y-34290000D01*
X38404435Y-33504040D01*
X38164344Y-33571020D01*
X38047244Y-33820048D01*
X37980977Y-34087135D01*
X37968090Y-34362017D01*
X30607000Y-34362017D01*
X30607000Y-34152408D01*
X30553314Y-33882510D01*
X30448005Y-33628273D01*
X30295120Y-33399465D01*
X30220090Y-33324435D01*
X38584040Y-33324435D01*
X39370000Y-34110395D01*
X40155960Y-33324435D01*
X40088980Y-33084344D01*
X39839952Y-32967244D01*
X39572865Y-32900977D01*
X39297983Y-32888090D01*
X39025867Y-32929078D01*
X38766977Y-33022364D01*
X38651020Y-33084344D01*
X38584040Y-33324435D01*
X30220090Y-33324435D01*
X30100535Y-33204880D01*
X29871727Y-33051995D01*
X29617490Y-32946686D01*
X29347592Y-32893000D01*
X29072408Y-32893000D01*
X28802510Y-32946686D01*
X28548273Y-33051995D01*
X28319465Y-33204880D01*
X28124880Y-33399465D01*
X27971995Y-33628273D01*
X27906595Y-33786162D01*
X27755120Y-33559465D01*
X27560535Y-33364880D01*
X27331727Y-33211995D01*
X27077490Y-33106686D01*
X26807592Y-33053000D01*
X26532408Y-33053000D01*
X26262510Y-33106686D01*
X26008273Y-33211995D01*
X25779465Y-33364880D01*
X25584880Y-33559465D01*
X25433386Y-33786191D01*
X25397636Y-33686977D01*
X25335656Y-33571020D01*
X25095565Y-33504040D01*
X24309605Y-34290000D01*
X23950395Y-34290000D01*
X23164435Y-33504040D01*
X22924344Y-33571020D01*
X22807244Y-33820048D01*
X22740977Y-34087135D01*
X22728090Y-34362017D01*
X19281700Y-34362017D01*
X19281700Y-33324435D01*
X23344040Y-33324435D01*
X24130000Y-34110395D01*
X24915960Y-33324435D01*
X24848980Y-33084344D01*
X24599952Y-32967244D01*
X24332865Y-32900977D01*
X24057983Y-32888090D01*
X23785867Y-32929078D01*
X23526977Y-33022364D01*
X23411020Y-33084344D01*
X23344040Y-33324435D01*
X19281700Y-33324435D01*
X19281700Y-30175565D01*
X23344040Y-30175565D01*
X23411020Y-30415656D01*
X23660048Y-30532756D01*
X23927135Y-30599023D01*
X24202017Y-30611910D01*
X24474133Y-30570922D01*
X24733023Y-30477636D01*
X24848980Y-30415656D01*
X24915960Y-30175565D01*
X24130000Y-29389605D01*
X23344040Y-30175565D01*
X19281700Y-30175565D01*
X19281700Y-29282017D01*
X22728090Y-29282017D01*
X22769078Y-29554133D01*
X22862364Y-29813023D01*
X22924344Y-29928980D01*
X23164435Y-29995960D01*
X23950395Y-29210000D01*
X24309605Y-29210000D01*
X25095565Y-29995960D01*
X25335656Y-29928980D01*
X25435411Y-29716839D01*
X25584880Y-29940535D01*
X25779465Y-30135120D01*
X26008273Y-30288005D01*
X26262510Y-30393314D01*
X26532408Y-30447000D01*
X26807592Y-30447000D01*
X27077490Y-30393314D01*
X27331727Y-30288005D01*
X27560535Y-30135120D01*
X27755120Y-29940535D01*
X27906595Y-29713838D01*
X27971995Y-29871727D01*
X28124880Y-30100535D01*
X28319465Y-30295120D01*
X28548273Y-30448005D01*
X28802510Y-30553314D01*
X29072408Y-30607000D01*
X29347592Y-30607000D01*
X29617490Y-30553314D01*
X29871727Y-30448005D01*
X30100535Y-30295120D01*
X30220090Y-30175565D01*
X38584040Y-30175565D01*
X38651020Y-30415656D01*
X38900048Y-30532756D01*
X39167135Y-30599023D01*
X39442017Y-30611910D01*
X39714133Y-30570922D01*
X39973023Y-30477636D01*
X40088980Y-30415656D01*
X40155960Y-30175565D01*
X39370000Y-29389605D01*
X38584040Y-30175565D01*
X30220090Y-30175565D01*
X30295120Y-30100535D01*
X30448005Y-29871727D01*
X30553314Y-29617490D01*
X30607000Y-29347592D01*
X30607000Y-29282017D01*
X37968090Y-29282017D01*
X38009078Y-29554133D01*
X38102364Y-29813023D01*
X38164344Y-29928980D01*
X38404435Y-29995960D01*
X39190395Y-29210000D01*
X39549605Y-29210000D01*
X40335565Y-29995960D01*
X40575656Y-29928980D01*
X40675411Y-29716839D01*
X40824880Y-29940535D01*
X41019465Y-30135120D01*
X41248273Y-30288005D01*
X41502510Y-30393314D01*
X41772408Y-30447000D01*
X42047592Y-30447000D01*
X42317490Y-30393314D01*
X42571727Y-30288005D01*
X42800535Y-30135120D01*
X42995120Y-29940535D01*
X43146595Y-29713838D01*
X43211995Y-29871727D01*
X43364880Y-30100535D01*
X43559465Y-30295120D01*
X43788273Y-30448005D01*
X44042510Y-30553314D01*
X44312408Y-30607000D01*
X44587592Y-30607000D01*
X44857490Y-30553314D01*
X45111727Y-30448005D01*
X45340535Y-30295120D01*
X45460090Y-30175565D01*
X53824040Y-30175565D01*
X53891020Y-30415656D01*
X54140048Y-30532756D01*
X54407135Y-30599023D01*
X54682017Y-30611910D01*
X54954133Y-30570922D01*
X55213023Y-30477636D01*
X55328980Y-30415656D01*
X55395960Y-30175565D01*
X54610000Y-29389605D01*
X53824040Y-30175565D01*
X45460090Y-30175565D01*
X45535120Y-30100535D01*
X45688005Y-29871727D01*
X45793314Y-29617490D01*
X45847000Y-29347592D01*
X45847000Y-29282017D01*
X53208090Y-29282017D01*
X53249078Y-29554133D01*
X53342364Y-29813023D01*
X53404344Y-29928980D01*
X53644435Y-29995960D01*
X54430395Y-29210000D01*
X54789605Y-29210000D01*
X55575565Y-29995960D01*
X55815656Y-29928980D01*
X55915411Y-29716839D01*
X56064880Y-29940535D01*
X56259465Y-30135120D01*
X56488273Y-30288005D01*
X56742510Y-30393314D01*
X57012408Y-30447000D01*
X57287592Y-30447000D01*
X57557490Y-30393314D01*
X57811727Y-30288005D01*
X58040535Y-30135120D01*
X58235120Y-29940535D01*
X58386595Y-29713838D01*
X58451995Y-29871727D01*
X58604880Y-30100535D01*
X58799465Y-30295120D01*
X59028273Y-30448005D01*
X59282510Y-30553314D01*
X59552408Y-30607000D01*
X59827592Y-30607000D01*
X60097490Y-30553314D01*
X60351727Y-30448005D01*
X60580535Y-30295120D01*
X60700090Y-30175565D01*
X69064040Y-30175565D01*
X69131020Y-30415656D01*
X69380048Y-30532756D01*
X69647135Y-30599023D01*
X69922017Y-30611910D01*
X70194133Y-30570922D01*
X70453023Y-30477636D01*
X70568980Y-30415656D01*
X70635960Y-30175565D01*
X69850000Y-29389605D01*
X69064040Y-30175565D01*
X60700090Y-30175565D01*
X60775120Y-30100535D01*
X60928005Y-29871727D01*
X61033314Y-29617490D01*
X61087000Y-29347592D01*
X61087000Y-29282017D01*
X68448090Y-29282017D01*
X68489078Y-29554133D01*
X68582364Y-29813023D01*
X68644344Y-29928980D01*
X68884435Y-29995960D01*
X69670395Y-29210000D01*
X70029605Y-29210000D01*
X70815565Y-29995960D01*
X71055656Y-29928980D01*
X71155411Y-29716839D01*
X71304880Y-29940535D01*
X71499465Y-30135120D01*
X71728273Y-30288005D01*
X71982510Y-30393314D01*
X72252408Y-30447000D01*
X72527592Y-30447000D01*
X72797490Y-30393314D01*
X73051727Y-30288005D01*
X73280535Y-30135120D01*
X73475120Y-29940535D01*
X73626595Y-29713838D01*
X73691995Y-29871727D01*
X73844880Y-30100535D01*
X74039465Y-30295120D01*
X74268273Y-30448005D01*
X74522510Y-30553314D01*
X74792408Y-30607000D01*
X75067592Y-30607000D01*
X75337490Y-30553314D01*
X75591727Y-30448005D01*
X75820535Y-30295120D01*
X76015120Y-30100535D01*
X76168005Y-29871727D01*
X76273314Y-29617490D01*
X76327000Y-29347592D01*
X76327000Y-29072408D01*
X76273314Y-28802510D01*
X76168005Y-28548273D01*
X76015120Y-28319465D01*
X75820535Y-28124880D01*
X75591727Y-27971995D01*
X75337490Y-27866686D01*
X75067592Y-27813000D01*
X74792408Y-27813000D01*
X74522510Y-27866686D01*
X74268273Y-27971995D01*
X74039465Y-28124880D01*
X73844880Y-28319465D01*
X73693405Y-28546162D01*
X73628005Y-28388273D01*
X73475120Y-28159465D01*
X73280535Y-27964880D01*
X73051727Y-27811995D01*
X72797490Y-27706686D01*
X72527592Y-27653000D01*
X72252408Y-27653000D01*
X71982510Y-27706686D01*
X71728273Y-27811995D01*
X71499465Y-27964880D01*
X71304880Y-28159465D01*
X71151995Y-28388273D01*
X71085955Y-28547706D01*
X71055656Y-28491020D01*
X70815565Y-28424040D01*
X70029605Y-29210000D01*
X69670395Y-29210000D01*
X68884435Y-28424040D01*
X68644344Y-28491020D01*
X68527244Y-28740048D01*
X68460977Y-29007135D01*
X68448090Y-29282017D01*
X61087000Y-29282017D01*
X61087000Y-29072408D01*
X61033314Y-28802510D01*
X60928005Y-28548273D01*
X60775120Y-28319465D01*
X60700090Y-28244435D01*
X69064040Y-28244435D01*
X69850000Y-29030395D01*
X70635960Y-28244435D01*
X70568980Y-28004344D01*
X70319952Y-27887244D01*
X70052865Y-27820977D01*
X69777983Y-27808090D01*
X69505867Y-27849078D01*
X69246977Y-27942364D01*
X69131020Y-28004344D01*
X69064040Y-28244435D01*
X60700090Y-28244435D01*
X60580535Y-28124880D01*
X60351727Y-27971995D01*
X60097490Y-27866686D01*
X59827592Y-27813000D01*
X59552408Y-27813000D01*
X59282510Y-27866686D01*
X59028273Y-27971995D01*
X58799465Y-28124880D01*
X58604880Y-28319465D01*
X58453405Y-28546162D01*
X58388005Y-28388273D01*
X58235120Y-28159465D01*
X58040535Y-27964880D01*
X57811727Y-27811995D01*
X57557490Y-27706686D01*
X57287592Y-27653000D01*
X57012408Y-27653000D01*
X56742510Y-27706686D01*
X56488273Y-27811995D01*
X56259465Y-27964880D01*
X56064880Y-28159465D01*
X55911995Y-28388273D01*
X55845955Y-28547706D01*
X55815656Y-28491020D01*
X55575565Y-28424040D01*
X54789605Y-29210000D01*
X54430395Y-29210000D01*
X53644435Y-28424040D01*
X53404344Y-28491020D01*
X53287244Y-28740048D01*
X53220977Y-29007135D01*
X53208090Y-29282017D01*
X45847000Y-29282017D01*
X45847000Y-29072408D01*
X45793314Y-28802510D01*
X45688005Y-28548273D01*
X45535120Y-28319465D01*
X45460090Y-28244435D01*
X53824040Y-28244435D01*
X54610000Y-29030395D01*
X55395960Y-28244435D01*
X55328980Y-28004344D01*
X55079952Y-27887244D01*
X54812865Y-27820977D01*
X54537983Y-27808090D01*
X54265867Y-27849078D01*
X54006977Y-27942364D01*
X53891020Y-28004344D01*
X53824040Y-28244435D01*
X45460090Y-28244435D01*
X45340535Y-28124880D01*
X45111727Y-27971995D01*
X44857490Y-27866686D01*
X44587592Y-27813000D01*
X44312408Y-27813000D01*
X44042510Y-27866686D01*
X43788273Y-27971995D01*
X43559465Y-28124880D01*
X43364880Y-28319465D01*
X43213405Y-28546162D01*
X43148005Y-28388273D01*
X42995120Y-28159465D01*
X42800535Y-27964880D01*
X42571727Y-27811995D01*
X42317490Y-27706686D01*
X42047592Y-27653000D01*
X41772408Y-27653000D01*
X41502510Y-27706686D01*
X41248273Y-27811995D01*
X41019465Y-27964880D01*
X40824880Y-28159465D01*
X40671995Y-28388273D01*
X40605955Y-28547706D01*
X40575656Y-28491020D01*
X40335565Y-28424040D01*
X39549605Y-29210000D01*
X39190395Y-29210000D01*
X38404435Y-28424040D01*
X38164344Y-28491020D01*
X38047244Y-28740048D01*
X37980977Y-29007135D01*
X37968090Y-29282017D01*
X30607000Y-29282017D01*
X30607000Y-29072408D01*
X30553314Y-28802510D01*
X30448005Y-28548273D01*
X30295120Y-28319465D01*
X30220090Y-28244435D01*
X38584040Y-28244435D01*
X39370000Y-29030395D01*
X40155960Y-28244435D01*
X40088980Y-28004344D01*
X39839952Y-27887244D01*
X39572865Y-27820977D01*
X39297983Y-27808090D01*
X39025867Y-27849078D01*
X38766977Y-27942364D01*
X38651020Y-28004344D01*
X38584040Y-28244435D01*
X30220090Y-28244435D01*
X30100535Y-28124880D01*
X29871727Y-27971995D01*
X29617490Y-27866686D01*
X29347592Y-27813000D01*
X29072408Y-27813000D01*
X28802510Y-27866686D01*
X28548273Y-27971995D01*
X28319465Y-28124880D01*
X28124880Y-28319465D01*
X27973405Y-28546162D01*
X27908005Y-28388273D01*
X27755120Y-28159465D01*
X27560535Y-27964880D01*
X27331727Y-27811995D01*
X27077490Y-27706686D01*
X26807592Y-27653000D01*
X26532408Y-27653000D01*
X26262510Y-27706686D01*
X26008273Y-27811995D01*
X25779465Y-27964880D01*
X25584880Y-28159465D01*
X25431995Y-28388273D01*
X25365955Y-28547706D01*
X25335656Y-28491020D01*
X25095565Y-28424040D01*
X24309605Y-29210000D01*
X23950395Y-29210000D01*
X23164435Y-28424040D01*
X22924344Y-28491020D01*
X22807244Y-28740048D01*
X22740977Y-29007135D01*
X22728090Y-29282017D01*
X19281700Y-29282017D01*
X19281700Y-28244435D01*
X23344040Y-28244435D01*
X24130000Y-29030395D01*
X24915960Y-28244435D01*
X24848980Y-28004344D01*
X24599952Y-27887244D01*
X24332865Y-27820977D01*
X24057983Y-27808090D01*
X23785867Y-27849078D01*
X23526977Y-27942364D01*
X23411020Y-28004344D01*
X23344040Y-28244435D01*
X19281700Y-28244435D01*
X19281700Y-23392468D01*
X19309905Y-23350256D01*
X19387926Y-23161898D01*
X19427700Y-22961939D01*
X19427700Y-22758061D01*
X19387926Y-22558102D01*
X19309905Y-22369744D01*
X19196637Y-22200226D01*
X19052474Y-22056063D01*
X18882956Y-21942795D01*
X18694598Y-21864774D01*
X18494639Y-21825000D01*
X18427700Y-21825000D01*
X18427700Y-16680000D01*
X82081928Y-16680000D01*
X82081928Y-18880000D01*
X82094188Y-19004482D01*
X82130498Y-19124180D01*
X82189463Y-19234494D01*
X82268815Y-19331185D01*
X82365506Y-19410537D01*
X82475820Y-19469502D01*
X82595518Y-19505812D01*
X82720000Y-19518072D01*
X83060000Y-19518072D01*
X83060001Y-23494269D01*
X83056324Y-23531601D01*
X83070998Y-23680586D01*
X83114454Y-23823847D01*
X83185026Y-23955877D01*
X83256201Y-24042603D01*
X83280000Y-24071602D01*
X83308998Y-24095400D01*
X96211312Y-36997715D01*
X96175000Y-37180266D01*
X96175000Y-37462936D01*
X96230147Y-37740175D01*
X96338320Y-38001328D01*
X96495363Y-38236360D01*
X96695241Y-38436238D01*
X96930273Y-38593281D01*
X97191426Y-38701454D01*
X97468665Y-38756601D01*
X97751335Y-38756601D01*
X98028574Y-38701454D01*
X98289727Y-38593281D01*
X98524759Y-38436238D01*
X98724637Y-38236360D01*
X98881680Y-38001328D01*
X98989853Y-37740175D01*
X99045000Y-37462936D01*
X99045000Y-37180266D01*
X98989853Y-36903027D01*
X98881680Y-36641874D01*
X98724637Y-36406842D01*
X98524759Y-36206964D01*
X98322173Y-36071601D01*
X98524759Y-35936238D01*
X98724637Y-35736360D01*
X98843813Y-35558000D01*
X99784678Y-35558000D01*
X99822000Y-35561676D01*
X99859322Y-35558000D01*
X99859333Y-35558000D01*
X99970986Y-35547003D01*
X100114247Y-35503546D01*
X100246276Y-35432974D01*
X100362001Y-35338001D01*
X100385804Y-35308997D01*
X103000003Y-32694799D01*
X103029001Y-32671001D01*
X103123974Y-32555276D01*
X103194546Y-32423247D01*
X103238003Y-32279986D01*
X103249000Y-32168333D01*
X103252677Y-32131000D01*
X103249000Y-32093667D01*
X103249000Y-31750718D01*
X107816601Y-31750718D01*
X107816601Y-32092484D01*
X107883276Y-32427682D01*
X108014064Y-32743432D01*
X108203938Y-33027599D01*
X108445603Y-33269264D01*
X108729770Y-33459138D01*
X109045520Y-33589926D01*
X109380718Y-33656601D01*
X109722484Y-33656601D01*
X110057682Y-33589926D01*
X110373432Y-33459138D01*
X110657599Y-33269264D01*
X110899264Y-33027599D01*
X111089138Y-32743432D01*
X111219926Y-32427682D01*
X111286601Y-32092484D01*
X111286601Y-31750718D01*
X111219926Y-31415520D01*
X111089138Y-31099770D01*
X110899264Y-30815603D01*
X110657599Y-30573938D01*
X110373432Y-30384064D01*
X110057682Y-30253276D01*
X109722484Y-30186601D01*
X109380718Y-30186601D01*
X109045520Y-30253276D01*
X108729770Y-30384064D01*
X108445603Y-30573938D01*
X108203938Y-30815603D01*
X108014064Y-31099770D01*
X107883276Y-31415520D01*
X107816601Y-31750718D01*
X103249000Y-31750718D01*
X103249000Y-27365801D01*
X109731008Y-20883795D01*
X109760001Y-20860001D01*
X109783795Y-20831008D01*
X109783799Y-20831004D01*
X109854973Y-20744277D01*
X109854974Y-20744276D01*
X109925546Y-20612247D01*
X109969003Y-20468986D01*
X109980000Y-20357333D01*
X109980000Y-20357324D01*
X109983676Y-20320001D01*
X109980000Y-20282678D01*
X109980000Y-19518072D01*
X110320000Y-19518072D01*
X110444482Y-19505812D01*
X110564180Y-19469502D01*
X110674494Y-19410537D01*
X110771185Y-19331185D01*
X110850537Y-19234494D01*
X110909502Y-19124180D01*
X110945812Y-19004482D01*
X110958072Y-18880000D01*
X110958072Y-18525000D01*
X126881928Y-18525000D01*
X126885000Y-18764250D01*
X127043750Y-18923000D01*
X128143000Y-18923000D01*
X128143000Y-18048750D01*
X128397000Y-18048750D01*
X128397000Y-18923000D01*
X129496250Y-18923000D01*
X129655000Y-18764250D01*
X129658072Y-18525000D01*
X129645812Y-18400518D01*
X129609502Y-18280820D01*
X129550537Y-18170506D01*
X129471185Y-18073815D01*
X129374494Y-17994463D01*
X129264180Y-17935498D01*
X129144482Y-17899188D01*
X129020000Y-17886928D01*
X128555750Y-17890000D01*
X128397000Y-18048750D01*
X128143000Y-18048750D01*
X127984250Y-17890000D01*
X127520000Y-17886928D01*
X127395518Y-17899188D01*
X127275820Y-17935498D01*
X127165506Y-17994463D01*
X127068815Y-18073815D01*
X126989463Y-18170506D01*
X126930498Y-18280820D01*
X126894188Y-18400518D01*
X126881928Y-18525000D01*
X110958072Y-18525000D01*
X110958072Y-16680000D01*
X110945812Y-16555518D01*
X110909502Y-16435820D01*
X110850537Y-16325506D01*
X110771185Y-16228815D01*
X110674494Y-16149463D01*
X110564180Y-16090498D01*
X110444482Y-16054188D01*
X110320000Y-16041928D01*
X108120000Y-16041928D01*
X107995518Y-16054188D01*
X107875820Y-16090498D01*
X107765506Y-16149463D01*
X107668815Y-16228815D01*
X107589463Y-16325506D01*
X107530498Y-16435820D01*
X107494188Y-16555518D01*
X107481928Y-16680000D01*
X107481928Y-18880000D01*
X107494188Y-19004482D01*
X107530498Y-19124180D01*
X107589463Y-19234494D01*
X107668815Y-19331185D01*
X107765506Y-19410537D01*
X107875820Y-19469502D01*
X107995518Y-19505812D01*
X108120000Y-19518072D01*
X108460001Y-19518072D01*
X108460001Y-20005196D01*
X101978003Y-26487196D01*
X101948999Y-26510999D01*
X101925197Y-26540002D01*
X101798201Y-26666998D01*
X101727026Y-26753724D01*
X101656454Y-26885754D01*
X101612998Y-27029015D01*
X101598324Y-27178000D01*
X101612998Y-27326985D01*
X101656454Y-27470246D01*
X101727026Y-27602276D01*
X101729000Y-27604681D01*
X101729001Y-31816197D01*
X101645000Y-31900198D01*
X101645000Y-31780266D01*
X101589853Y-31503027D01*
X101481680Y-31241874D01*
X101324637Y-31006842D01*
X101124759Y-30806964D01*
X100889727Y-30649921D01*
X100628574Y-30541748D01*
X100351335Y-30486601D01*
X100068665Y-30486601D01*
X99886113Y-30522913D01*
X99820000Y-30456800D01*
X99820000Y-19343148D01*
X99881831Y-19317537D01*
X100165998Y-19127663D01*
X100407663Y-18885998D01*
X100597537Y-18601831D01*
X100728325Y-18286081D01*
X100795000Y-17950883D01*
X100795000Y-17609117D01*
X100728325Y-17273919D01*
X100597537Y-16958169D01*
X100407663Y-16674002D01*
X100165998Y-16432337D01*
X99881831Y-16242463D01*
X99566081Y-16111675D01*
X99230883Y-16045000D01*
X98889117Y-16045000D01*
X98553919Y-16111675D01*
X98238169Y-16242463D01*
X97954002Y-16432337D01*
X97712337Y-16674002D01*
X97522463Y-16958169D01*
X97496852Y-17020000D01*
X95543148Y-17020000D01*
X95517537Y-16958169D01*
X95327663Y-16674002D01*
X95085998Y-16432337D01*
X94801831Y-16242463D01*
X94486081Y-16111675D01*
X94150883Y-16045000D01*
X93809117Y-16045000D01*
X93473919Y-16111675D01*
X93158169Y-16242463D01*
X92874002Y-16432337D01*
X92632337Y-16674002D01*
X92442463Y-16958169D01*
X92311675Y-17273919D01*
X92245000Y-17609117D01*
X92245000Y-17950883D01*
X92311675Y-18286081D01*
X92442463Y-18601831D01*
X92632337Y-18885998D01*
X92874002Y-19127663D01*
X93158169Y-19317537D01*
X93473919Y-19448325D01*
X93809117Y-19515000D01*
X94150883Y-19515000D01*
X94486081Y-19448325D01*
X94801831Y-19317537D01*
X95085998Y-19127663D01*
X95327663Y-18885998D01*
X95517537Y-18601831D01*
X95543148Y-18540000D01*
X97496852Y-18540000D01*
X97522463Y-18601831D01*
X97712337Y-18885998D01*
X97954002Y-19127663D01*
X98238169Y-19317537D01*
X98300000Y-19343148D01*
X98300001Y-30734269D01*
X98296324Y-30771601D01*
X98310998Y-30920586D01*
X98354454Y-31063847D01*
X98425026Y-31195877D01*
X98494267Y-31280246D01*
X98520000Y-31311602D01*
X98548998Y-31335400D01*
X98811312Y-31597714D01*
X98775000Y-31780266D01*
X98775000Y-32062936D01*
X98830147Y-32340175D01*
X98938320Y-32601328D01*
X99095363Y-32836360D01*
X99295241Y-33036238D01*
X99530273Y-33193281D01*
X99791426Y-33301454D01*
X100068665Y-33356601D01*
X100188598Y-33356601D01*
X99507199Y-34038000D01*
X98812274Y-34038000D01*
X98724637Y-33906842D01*
X98524759Y-33706964D01*
X98289727Y-33549921D01*
X98028574Y-33441748D01*
X97751335Y-33386601D01*
X97468665Y-33386601D01*
X97191426Y-33441748D01*
X96930273Y-33549921D01*
X96695241Y-33706964D01*
X96495363Y-33906842D01*
X96338320Y-34141874D01*
X96230147Y-34403027D01*
X96175000Y-34680266D01*
X96175000Y-34811799D01*
X84580000Y-23216800D01*
X84580000Y-19518072D01*
X84920000Y-19518072D01*
X85044482Y-19505812D01*
X85164180Y-19469502D01*
X85274494Y-19410537D01*
X85371185Y-19331185D01*
X85450537Y-19234494D01*
X85509502Y-19124180D01*
X85545812Y-19004482D01*
X85558072Y-18880000D01*
X85558072Y-16680000D01*
X85545812Y-16555518D01*
X85509502Y-16435820D01*
X85450537Y-16325506D01*
X85371185Y-16228815D01*
X85274494Y-16149463D01*
X85164180Y-16090498D01*
X85044482Y-16054188D01*
X84920000Y-16041928D01*
X82720000Y-16041928D01*
X82595518Y-16054188D01*
X82475820Y-16090498D01*
X82365506Y-16149463D01*
X82268815Y-16228815D01*
X82189463Y-16325506D01*
X82130498Y-16435820D01*
X82094188Y-16555518D01*
X82081928Y-16680000D01*
X18427700Y-16680000D01*
X18427700Y-15887700D01*
X131432301Y-15887700D01*
X131432301Y-19867500D01*
G36*
X71226816Y-47944601D02*
G01*
X71342317Y-48060102D01*
X71283320Y-48077998D01*
X71173006Y-48136963D01*
X71076315Y-48216315D01*
X70996963Y-48313006D01*
X70937998Y-48423320D01*
X70901688Y-48543018D01*
X70889428Y-48667500D01*
X70889428Y-48672953D01*
X70887319Y-48672286D01*
X70029605Y-49530000D01*
X70043748Y-49544143D01*
X69864143Y-49723748D01*
X69850000Y-49709605D01*
X69835858Y-49723748D01*
X69656253Y-49544143D01*
X69670395Y-49530000D01*
X68812681Y-48672286D01*
X68585840Y-48744001D01*
X68473184Y-48575399D01*
X68264601Y-48366816D01*
X68104739Y-48260000D01*
X68264601Y-48153184D01*
X68473184Y-47944601D01*
X68580000Y-47784739D01*
X68686816Y-47944601D01*
X68895399Y-48153184D01*
X69064001Y-48265840D01*
X68992286Y-48492681D01*
X69850000Y-49350395D01*
X70707714Y-48492681D01*
X70635999Y-48265840D01*
X70804601Y-48153184D01*
X71013184Y-47944601D01*
X71120000Y-47784739D01*
X71226816Y-47944601D01*
G37*
X71226816Y-47944601D02*
X71342317Y-48060102D01*
X71283320Y-48077998D01*
X71173006Y-48136963D01*
X71076315Y-48216315D01*
X70996963Y-48313006D01*
X70937998Y-48423320D01*
X70901688Y-48543018D01*
X70889428Y-48667500D01*
X70889428Y-48672953D01*
X70887319Y-48672286D01*
X70029605Y-49530000D01*
X70043748Y-49544143D01*
X69864143Y-49723748D01*
X69850000Y-49709605D01*
X69835858Y-49723748D01*
X69656253Y-49544143D01*
X69670395Y-49530000D01*
X68812681Y-48672286D01*
X68585840Y-48744001D01*
X68473184Y-48575399D01*
X68264601Y-48366816D01*
X68104739Y-48260000D01*
X68264601Y-48153184D01*
X68473184Y-47944601D01*
X68580000Y-47784739D01*
X68686816Y-47944601D01*
X68895399Y-48153184D01*
X69064001Y-48265840D01*
X68992286Y-48492681D01*
X69850000Y-49350395D01*
X70707714Y-48492681D01*
X70635999Y-48265840D01*
X70804601Y-48153184D01*
X71013184Y-47944601D01*
X71120000Y-47784739D01*
X71226816Y-47944601D01*
M02*
