M48
; DRILL file {KiCad (5.1.6-0-10_14)} date Tuesday, June 30, 2020 at 11:37:50 AM
; FORMAT={3:3/ absolute / metric / suppress leading zeros}
; #@! TF.CreationDate,2020-06-30T11:37:50-07:00
; #@! TF.GenerationSoftware,Kicad,Pcbnew,(5.1.6-0-10_14)
FMAT,2
METRIC,TZ
T1C0.400
T2C0.750
T3C0.762
T4C1.000
T5C1.100
T6C1.150
T7C1.600
%
G90
G05
T1
X18393Y-22860
X19050Y-43434
X19668Y-41038
X20828Y-43905
X28448Y-41656
X42672Y-37592
X44704Y-39624
X53340Y-44704
X54864Y-43180
X58166Y-52070
X60706Y-38100
X60960Y-52070
X61976Y-40386
X65024Y-42926
X65024Y-52070
X68326Y-44450
X69342Y-17526
X69596Y-21082
X71120Y-51562
X71628Y-56134
X73406Y-44450
X75184Y-46990
X77978Y-34036
X81534Y-52324
X82042Y-50800
X85090Y-50038
X94488Y-47453
X96266Y-41656
X100076Y-41656
X102002Y-53488
X102108Y-50546
X118872Y-42418
X120650Y-54102
T2
X128270Y-19050
X128270Y-20320
X128270Y-21590
T3
X24130Y-29210
X24130Y-34290
X26670Y-29050
X26670Y-34450
X29210Y-29210
X29210Y-34290
X54610Y-29210
X54610Y-34290
X57150Y-29050
X57150Y-34450
X59690Y-29210
X59690Y-34290
X39370Y-29210
X39370Y-34290
X41910Y-29050
X41910Y-34450
X44450Y-29210
X44450Y-34290
X69850Y-29210
X69850Y-34290
X72390Y-29050
X72390Y-34450
X74930Y-29210
X74930Y-34290
T4
X85210Y-31922
X97610Y-34822
X97610Y-37322
X100210Y-31922
T5
X99060Y-17780
X109220Y-17780
X83820Y-17780
X93980Y-17780
T6
X54610Y-46990
X54610Y-49530
X57150Y-46990
X57150Y-49530
X59690Y-46990
X59690Y-49530
X62230Y-46990
X62230Y-49530
X64770Y-46990
X64770Y-49530
X67310Y-46990
X67310Y-49530
X69850Y-46990
X69850Y-49530
X72390Y-46990
X72390Y-49530
T7
X109552Y-31922
X128552Y-31922
T0
M30
