G04 #@! TF.GenerationSoftware,KiCad,Pcbnew,(5.1.6-0-10_14)*
G04 #@! TF.CreationDate,2020-06-30T11:40:46-07:00*
G04 #@! TF.ProjectId,Pufferfish-Interface-1,50756666-6572-4666-9973-682d496e7465,v0.1*
G04 #@! TF.SameCoordinates,Original*
G04 #@! TF.FileFunction,Legend,Bot*
G04 #@! TF.FilePolarity,Positive*
%FSLAX46Y46*%
G04 Gerber Fmt 4.6, Leading zero omitted, Abs format (unit mm)*
G04 Created by KiCad (PCBNEW (5.1.6-0-10_14)) date 2020-06-30 11:40:46*
%MOMM*%
%LPD*%
G01*
G04 APERTURE LIST*
%ADD10C,0.200000*%
%ADD11C,0.120000*%
%ADD12C,0.100000*%
%ADD13C,0.127000*%
%ADD14C,0.150000*%
G04 APERTURE END LIST*
D10*
X74237788Y-50990500D02*
G75*
G03*
X74237788Y-50990500I-323788J0D01*
G01*
X77470000Y-43561000D02*
X77470000Y-49530000D01*
X49530000Y-43561000D02*
X77470000Y-43561000D01*
X49530000Y-52832000D02*
X49530000Y-43561000D01*
X72390000Y-52832000D02*
X49530000Y-52832000D01*
D11*
X70616578Y-18594000D02*
X70099422Y-18594000D01*
X70616578Y-20014000D02*
X70099422Y-20014000D01*
X78998578Y-18340000D02*
X78481422Y-18340000D01*
X78998578Y-19760000D02*
X78481422Y-19760000D01*
X64178922Y-40080000D02*
X64696078Y-40080000D01*
X64178922Y-38660000D02*
X64696078Y-38660000D01*
X65480000Y-24388578D02*
X65480000Y-23871422D01*
X64060000Y-24388578D02*
X64060000Y-23871422D01*
X88826078Y-50090000D02*
X88308922Y-50090000D01*
X88826078Y-51510000D02*
X88308922Y-51510000D01*
X50208922Y-56590000D02*
X50726078Y-56590000D01*
X50208922Y-55170000D02*
X50726078Y-55170000D01*
X29136078Y-43890000D02*
X28618922Y-43890000D01*
X29136078Y-42470000D02*
X28618922Y-42470000D01*
X20061422Y-18340000D02*
X20578578Y-18340000D01*
X20061422Y-19760000D02*
X20578578Y-19760000D01*
X24690000Y-40898578D02*
X24690000Y-40381422D01*
X26110000Y-40898578D02*
X26110000Y-40381422D01*
X40898578Y-39930000D02*
X40381422Y-39930000D01*
X40898578Y-41350000D02*
X40381422Y-41350000D01*
X38358578Y-19760000D02*
X37841422Y-19760000D01*
X38358578Y-18340000D02*
X37841422Y-18340000D01*
X45461422Y-42620000D02*
X45978578Y-42620000D01*
X45461422Y-41200000D02*
X45978578Y-41200000D01*
X54351422Y-38660000D02*
X54868578Y-38660000D01*
X54351422Y-40080000D02*
X54868578Y-40080000D01*
D12*
X103445000Y-54446000D02*
G75*
G03*
X103445000Y-54446000I-127000J0D01*
G01*
D13*
X110668000Y-44571000D02*
X110668000Y-56521000D01*
D11*
X19610000Y-25658578D02*
X19610000Y-25141422D01*
X21030000Y-25658578D02*
X21030000Y-25141422D01*
X33580000Y-24388578D02*
X33580000Y-23871422D01*
X35000000Y-24388578D02*
X35000000Y-23871422D01*
X48820000Y-24388578D02*
X48820000Y-23871422D01*
X50240000Y-24388578D02*
X50240000Y-23871422D01*
X37841422Y-47550000D02*
X38358578Y-47550000D01*
X37841422Y-48970000D02*
X38358578Y-48970000D01*
D12*
X26057000Y-48666000D02*
G75*
G03*
X26057000Y-48666000I-200000J0D01*
G01*
D10*
X23965000Y-55840000D02*
X31915000Y-55840000D01*
X31915000Y-55840000D02*
X31915000Y-55090000D01*
X23965000Y-55840000D02*
X23965000Y-55090000D01*
X23965000Y-51590000D02*
X23965000Y-50840000D01*
X23965000Y-50840000D02*
X26190000Y-50840000D01*
X29690000Y-50840000D02*
X31915000Y-50840000D01*
X31915000Y-50840000D02*
X31915000Y-51590000D01*
D11*
X86960000Y-19250000D02*
X86960000Y-16310000D01*
X87200000Y-19250000D02*
X87200000Y-16310000D01*
X87080000Y-19250000D02*
X87080000Y-16310000D01*
X92640000Y-17780000D02*
X91620000Y-17780000D01*
X85160000Y-17780000D02*
X86180000Y-17780000D01*
X91620000Y-19250000D02*
X86180000Y-19250000D01*
X91620000Y-16310000D02*
X91620000Y-19250000D01*
X86180000Y-16310000D02*
X91620000Y-16310000D01*
X86180000Y-19250000D02*
X86180000Y-16310000D01*
X106080000Y-16310000D02*
X106080000Y-19250000D01*
X105840000Y-16310000D02*
X105840000Y-19250000D01*
X105960000Y-16310000D02*
X105960000Y-19250000D01*
X100400000Y-17780000D02*
X101420000Y-17780000D01*
X107880000Y-17780000D02*
X106860000Y-17780000D01*
X101420000Y-16310000D02*
X106860000Y-16310000D01*
X101420000Y-19250000D02*
X101420000Y-16310000D01*
X106860000Y-19250000D02*
X101420000Y-19250000D01*
X106860000Y-16310000D02*
X106860000Y-19250000D01*
X98550000Y-45410000D02*
X97090000Y-45410000D01*
X98550000Y-48570000D02*
X96390000Y-48570000D01*
X98550000Y-48570000D02*
X98550000Y-47640000D01*
X98550000Y-45410000D02*
X98550000Y-46340000D01*
X84130000Y-43940000D02*
X84130000Y-42480000D01*
X80970000Y-43940000D02*
X80970000Y-41780000D01*
X80970000Y-43940000D02*
X81900000Y-43940000D01*
X84130000Y-43940000D02*
X83200000Y-43940000D01*
X107440000Y-39060000D02*
X105980000Y-39060000D01*
X107440000Y-42220000D02*
X105280000Y-42220000D01*
X107440000Y-42220000D02*
X107440000Y-41290000D01*
X107440000Y-39060000D02*
X107440000Y-39990000D01*
X130120000Y-18520000D02*
X130120000Y-22120000D01*
X130108478Y-22158478D02*
G75*
G02*
X125670000Y-20320000I-1838478J1838478D01*
G01*
X130108478Y-18481522D02*
G75*
G03*
X125670000Y-20320000I-1838478J-1838478D01*
G01*
X56390000Y-56698000D02*
X56390000Y-55768000D01*
X56390000Y-53538000D02*
X56390000Y-54468000D01*
X56390000Y-53538000D02*
X58550000Y-53538000D01*
X56390000Y-56698000D02*
X57850000Y-56698000D01*
X66550000Y-56698000D02*
X66550000Y-55768000D01*
X66550000Y-53538000D02*
X66550000Y-54468000D01*
X66550000Y-53538000D02*
X68710000Y-53538000D01*
X66550000Y-56698000D02*
X68010000Y-56698000D01*
X61470000Y-56698000D02*
X61470000Y-55768000D01*
X61470000Y-53538000D02*
X61470000Y-54468000D01*
X61470000Y-53538000D02*
X63630000Y-53538000D01*
X61470000Y-56698000D02*
X62930000Y-56698000D01*
X59431422Y-41200000D02*
X59948578Y-41200000D01*
X59431422Y-42620000D02*
X59948578Y-42620000D01*
X79751422Y-37390000D02*
X80268578Y-37390000D01*
X79751422Y-38810000D02*
X80268578Y-38810000D01*
X117343422Y-50344000D02*
X117860578Y-50344000D01*
X117343422Y-51764000D02*
X117860578Y-51764000D01*
X119550922Y-45518000D02*
X120068078Y-45518000D01*
X119550922Y-46938000D02*
X120068078Y-46938000D01*
X127503422Y-54916000D02*
X128020578Y-54916000D01*
X127503422Y-56336000D02*
X128020578Y-56336000D01*
X128519422Y-45518000D02*
X129036578Y-45518000D01*
X128519422Y-46938000D02*
X129036578Y-46938000D01*
X46916078Y-51360000D02*
X46398922Y-51360000D01*
X46916078Y-52780000D02*
X46398922Y-52780000D01*
X59948578Y-19760000D02*
X59431422Y-19760000D01*
X59948578Y-18340000D02*
X59431422Y-18340000D01*
X45978578Y-20880000D02*
X45461422Y-20880000D01*
X45978578Y-22300000D02*
X45461422Y-22300000D01*
X20998922Y-46280000D02*
X21516078Y-46280000D01*
X20998922Y-47700000D02*
X21516078Y-47700000D01*
X34031422Y-46280000D02*
X34548578Y-46280000D01*
X34031422Y-47700000D02*
X34548578Y-47700000D01*
D14*
X77620595Y-54776642D02*
X77668214Y-54824261D01*
X77811071Y-54871880D01*
X77906309Y-54871880D01*
X78049166Y-54824261D01*
X78144404Y-54729023D01*
X78192023Y-54633785D01*
X78239642Y-54443309D01*
X78239642Y-54300452D01*
X78192023Y-54109976D01*
X78144404Y-54014738D01*
X78049166Y-53919500D01*
X77906309Y-53871880D01*
X77811071Y-53871880D01*
X77668214Y-53919500D01*
X77620595Y-53967119D01*
X77001547Y-53871880D02*
X76811071Y-53871880D01*
X76715833Y-53919500D01*
X76620595Y-54014738D01*
X76572976Y-54205214D01*
X76572976Y-54538547D01*
X76620595Y-54729023D01*
X76715833Y-54824261D01*
X76811071Y-54871880D01*
X77001547Y-54871880D01*
X77096785Y-54824261D01*
X77192023Y-54729023D01*
X77239642Y-54538547D01*
X77239642Y-54205214D01*
X77192023Y-54014738D01*
X77096785Y-53919500D01*
X77001547Y-53871880D01*
X76144404Y-54871880D02*
X76144404Y-53871880D01*
X75572976Y-54871880D01*
X75572976Y-53871880D01*
X75096785Y-54871880D02*
X75096785Y-53871880D01*
X74525357Y-54871880D01*
X74525357Y-53871880D01*
X74096785Y-53967119D02*
X74049166Y-53919500D01*
X73953928Y-53871880D01*
X73715833Y-53871880D01*
X73620595Y-53919500D01*
X73572976Y-53967119D01*
X73525357Y-54062357D01*
X73525357Y-54157595D01*
X73572976Y-54300452D01*
X74144404Y-54871880D01*
X73525357Y-54871880D01*
X71000857Y-18106380D02*
X71334190Y-17630190D01*
X71572285Y-18106380D02*
X71572285Y-17106380D01*
X71191333Y-17106380D01*
X71096095Y-17154000D01*
X71048476Y-17201619D01*
X71000857Y-17296857D01*
X71000857Y-17439714D01*
X71048476Y-17534952D01*
X71096095Y-17582571D01*
X71191333Y-17630190D01*
X71572285Y-17630190D01*
X70619904Y-17201619D02*
X70572285Y-17154000D01*
X70477047Y-17106380D01*
X70238952Y-17106380D01*
X70143714Y-17154000D01*
X70096095Y-17201619D01*
X70048476Y-17296857D01*
X70048476Y-17392095D01*
X70096095Y-17534952D01*
X70667523Y-18106380D01*
X70048476Y-18106380D01*
X69715142Y-17106380D02*
X69096095Y-17106380D01*
X69429428Y-17487333D01*
X69286571Y-17487333D01*
X69191333Y-17534952D01*
X69143714Y-17582571D01*
X69096095Y-17677809D01*
X69096095Y-17915904D01*
X69143714Y-18011142D01*
X69191333Y-18058761D01*
X69286571Y-18106380D01*
X69572285Y-18106380D01*
X69667523Y-18058761D01*
X69715142Y-18011142D01*
X79382857Y-17852380D02*
X79716190Y-17376190D01*
X79954285Y-17852380D02*
X79954285Y-16852380D01*
X79573333Y-16852380D01*
X79478095Y-16900000D01*
X79430476Y-16947619D01*
X79382857Y-17042857D01*
X79382857Y-17185714D01*
X79430476Y-17280952D01*
X79478095Y-17328571D01*
X79573333Y-17376190D01*
X79954285Y-17376190D01*
X79001904Y-16947619D02*
X78954285Y-16900000D01*
X78859047Y-16852380D01*
X78620952Y-16852380D01*
X78525714Y-16900000D01*
X78478095Y-16947619D01*
X78430476Y-17042857D01*
X78430476Y-17138095D01*
X78478095Y-17280952D01*
X79049523Y-17852380D01*
X78430476Y-17852380D01*
X77478095Y-17852380D02*
X78049523Y-17852380D01*
X77763809Y-17852380D02*
X77763809Y-16852380D01*
X77859047Y-16995238D01*
X77954285Y-17090476D01*
X78049523Y-17138095D01*
X65080357Y-41472380D02*
X65413690Y-40996190D01*
X65651785Y-41472380D02*
X65651785Y-40472380D01*
X65270833Y-40472380D01*
X65175595Y-40520000D01*
X65127976Y-40567619D01*
X65080357Y-40662857D01*
X65080357Y-40805714D01*
X65127976Y-40900952D01*
X65175595Y-40948571D01*
X65270833Y-40996190D01*
X65651785Y-40996190D01*
X64127976Y-41472380D02*
X64699404Y-41472380D01*
X64413690Y-41472380D02*
X64413690Y-40472380D01*
X64508928Y-40615238D01*
X64604166Y-40710476D01*
X64699404Y-40758095D01*
X63651785Y-41472380D02*
X63461309Y-41472380D01*
X63366071Y-41424761D01*
X63318452Y-41377142D01*
X63223214Y-41234285D01*
X63175595Y-41043809D01*
X63175595Y-40662857D01*
X63223214Y-40567619D01*
X63270833Y-40520000D01*
X63366071Y-40472380D01*
X63556547Y-40472380D01*
X63651785Y-40520000D01*
X63699404Y-40567619D01*
X63747023Y-40662857D01*
X63747023Y-40900952D01*
X63699404Y-40996190D01*
X63651785Y-41043809D01*
X63556547Y-41091428D01*
X63366071Y-41091428D01*
X63270833Y-41043809D01*
X63223214Y-40996190D01*
X63175595Y-40900952D01*
X66193095Y-16640380D02*
X66193095Y-15640380D01*
X65955000Y-15640380D01*
X65812142Y-15688000D01*
X65716904Y-15783238D01*
X65669285Y-15878476D01*
X65621666Y-16068952D01*
X65621666Y-16211809D01*
X65669285Y-16402285D01*
X65716904Y-16497523D01*
X65812142Y-16592761D01*
X65955000Y-16640380D01*
X66193095Y-16640380D01*
X65288333Y-15640380D02*
X64621666Y-15640380D01*
X65050238Y-16640380D01*
X66777142Y-23963333D02*
X66824761Y-23915714D01*
X66872380Y-23772857D01*
X66872380Y-23677619D01*
X66824761Y-23534761D01*
X66729523Y-23439523D01*
X66634285Y-23391904D01*
X66443809Y-23344285D01*
X66300952Y-23344285D01*
X66110476Y-23391904D01*
X66015238Y-23439523D01*
X65920000Y-23534761D01*
X65872380Y-23677619D01*
X65872380Y-23772857D01*
X65920000Y-23915714D01*
X65967619Y-23963333D01*
X65872380Y-24868095D02*
X65872380Y-24391904D01*
X66348571Y-24344285D01*
X66300952Y-24391904D01*
X66253333Y-24487142D01*
X66253333Y-24725238D01*
X66300952Y-24820476D01*
X66348571Y-24868095D01*
X66443809Y-24915714D01*
X66681904Y-24915714D01*
X66777142Y-24868095D01*
X66824761Y-24820476D01*
X66872380Y-24725238D01*
X66872380Y-24487142D01*
X66824761Y-24391904D01*
X66777142Y-24344285D01*
X88734166Y-49602380D02*
X89067500Y-49126190D01*
X89305595Y-49602380D02*
X89305595Y-48602380D01*
X88924642Y-48602380D01*
X88829404Y-48650000D01*
X88781785Y-48697619D01*
X88734166Y-48792857D01*
X88734166Y-48935714D01*
X88781785Y-49030952D01*
X88829404Y-49078571D01*
X88924642Y-49126190D01*
X89305595Y-49126190D01*
X88162738Y-49030952D02*
X88257976Y-48983333D01*
X88305595Y-48935714D01*
X88353214Y-48840476D01*
X88353214Y-48792857D01*
X88305595Y-48697619D01*
X88257976Y-48650000D01*
X88162738Y-48602380D01*
X87972261Y-48602380D01*
X87877023Y-48650000D01*
X87829404Y-48697619D01*
X87781785Y-48792857D01*
X87781785Y-48840476D01*
X87829404Y-48935714D01*
X87877023Y-48983333D01*
X87972261Y-49030952D01*
X88162738Y-49030952D01*
X88257976Y-49078571D01*
X88305595Y-49126190D01*
X88353214Y-49221428D01*
X88353214Y-49411904D01*
X88305595Y-49507142D01*
X88257976Y-49554761D01*
X88162738Y-49602380D01*
X87972261Y-49602380D01*
X87877023Y-49554761D01*
X87829404Y-49507142D01*
X87781785Y-49411904D01*
X87781785Y-49221428D01*
X87829404Y-49126190D01*
X87877023Y-49078571D01*
X87972261Y-49030952D01*
X50634166Y-57982380D02*
X50967500Y-57506190D01*
X51205595Y-57982380D02*
X51205595Y-56982380D01*
X50824642Y-56982380D01*
X50729404Y-57030000D01*
X50681785Y-57077619D01*
X50634166Y-57172857D01*
X50634166Y-57315714D01*
X50681785Y-57410952D01*
X50729404Y-57458571D01*
X50824642Y-57506190D01*
X51205595Y-57506190D01*
X50300833Y-56982380D02*
X49634166Y-56982380D01*
X50062738Y-57982380D01*
X29520357Y-41982380D02*
X29853690Y-41506190D01*
X30091785Y-41982380D02*
X30091785Y-40982380D01*
X29710833Y-40982380D01*
X29615595Y-41030000D01*
X29567976Y-41077619D01*
X29520357Y-41172857D01*
X29520357Y-41315714D01*
X29567976Y-41410952D01*
X29615595Y-41458571D01*
X29710833Y-41506190D01*
X30091785Y-41506190D01*
X29139404Y-41077619D02*
X29091785Y-41030000D01*
X28996547Y-40982380D01*
X28758452Y-40982380D01*
X28663214Y-41030000D01*
X28615595Y-41077619D01*
X28567976Y-41172857D01*
X28567976Y-41268095D01*
X28615595Y-41410952D01*
X29187023Y-41982380D01*
X28567976Y-41982380D01*
X28187023Y-41077619D02*
X28139404Y-41030000D01*
X28044166Y-40982380D01*
X27806071Y-40982380D01*
X27710833Y-41030000D01*
X27663214Y-41077619D01*
X27615595Y-41172857D01*
X27615595Y-41268095D01*
X27663214Y-41410952D01*
X28234642Y-41982380D01*
X27615595Y-41982380D01*
X20962857Y-21152380D02*
X21296190Y-20676190D01*
X21534285Y-21152380D02*
X21534285Y-20152380D01*
X21153333Y-20152380D01*
X21058095Y-20200000D01*
X21010476Y-20247619D01*
X20962857Y-20342857D01*
X20962857Y-20485714D01*
X21010476Y-20580952D01*
X21058095Y-20628571D01*
X21153333Y-20676190D01*
X21534285Y-20676190D01*
X20581904Y-20247619D02*
X20534285Y-20200000D01*
X20439047Y-20152380D01*
X20200952Y-20152380D01*
X20105714Y-20200000D01*
X20058095Y-20247619D01*
X20010476Y-20342857D01*
X20010476Y-20438095D01*
X20058095Y-20580952D01*
X20629523Y-21152380D01*
X20010476Y-21152380D01*
X19391428Y-20152380D02*
X19296190Y-20152380D01*
X19200952Y-20200000D01*
X19153333Y-20247619D01*
X19105714Y-20342857D01*
X19058095Y-20533333D01*
X19058095Y-20771428D01*
X19105714Y-20961904D01*
X19153333Y-21057142D01*
X19200952Y-21104761D01*
X19296190Y-21152380D01*
X19391428Y-21152380D01*
X19486666Y-21104761D01*
X19534285Y-21057142D01*
X19581904Y-20961904D01*
X19629523Y-20771428D01*
X19629523Y-20533333D01*
X19581904Y-20342857D01*
X19534285Y-20247619D01*
X19486666Y-20200000D01*
X19391428Y-20152380D01*
X27502380Y-39997142D02*
X27026190Y-39663809D01*
X27502380Y-39425714D02*
X26502380Y-39425714D01*
X26502380Y-39806666D01*
X26550000Y-39901904D01*
X26597619Y-39949523D01*
X26692857Y-39997142D01*
X26835714Y-39997142D01*
X26930952Y-39949523D01*
X26978571Y-39901904D01*
X27026190Y-39806666D01*
X27026190Y-39425714D01*
X27502380Y-40949523D02*
X27502380Y-40378095D01*
X27502380Y-40663809D02*
X26502380Y-40663809D01*
X26645238Y-40568571D01*
X26740476Y-40473333D01*
X26788095Y-40378095D01*
X26930952Y-41520952D02*
X26883333Y-41425714D01*
X26835714Y-41378095D01*
X26740476Y-41330476D01*
X26692857Y-41330476D01*
X26597619Y-41378095D01*
X26550000Y-41425714D01*
X26502380Y-41520952D01*
X26502380Y-41711428D01*
X26550000Y-41806666D01*
X26597619Y-41854285D01*
X26692857Y-41901904D01*
X26740476Y-41901904D01*
X26835714Y-41854285D01*
X26883333Y-41806666D01*
X26930952Y-41711428D01*
X26930952Y-41520952D01*
X26978571Y-41425714D01*
X27026190Y-41378095D01*
X27121428Y-41330476D01*
X27311904Y-41330476D01*
X27407142Y-41378095D01*
X27454761Y-41425714D01*
X27502380Y-41520952D01*
X27502380Y-41711428D01*
X27454761Y-41806666D01*
X27407142Y-41854285D01*
X27311904Y-41901904D01*
X27121428Y-41901904D01*
X27026190Y-41854285D01*
X26978571Y-41806666D01*
X26930952Y-41711428D01*
X41282857Y-39442380D02*
X41616190Y-38966190D01*
X41854285Y-39442380D02*
X41854285Y-38442380D01*
X41473333Y-38442380D01*
X41378095Y-38490000D01*
X41330476Y-38537619D01*
X41282857Y-38632857D01*
X41282857Y-38775714D01*
X41330476Y-38870952D01*
X41378095Y-38918571D01*
X41473333Y-38966190D01*
X41854285Y-38966190D01*
X40330476Y-39442380D02*
X40901904Y-39442380D01*
X40616190Y-39442380D02*
X40616190Y-38442380D01*
X40711428Y-38585238D01*
X40806666Y-38680476D01*
X40901904Y-38728095D01*
X39425714Y-38442380D02*
X39901904Y-38442380D01*
X39949523Y-38918571D01*
X39901904Y-38870952D01*
X39806666Y-38823333D01*
X39568571Y-38823333D01*
X39473333Y-38870952D01*
X39425714Y-38918571D01*
X39378095Y-39013809D01*
X39378095Y-39251904D01*
X39425714Y-39347142D01*
X39473333Y-39394761D01*
X39568571Y-39442380D01*
X39806666Y-39442380D01*
X39901904Y-39394761D01*
X39949523Y-39347142D01*
X38742857Y-17852380D02*
X39076190Y-17376190D01*
X39314285Y-17852380D02*
X39314285Y-16852380D01*
X38933333Y-16852380D01*
X38838095Y-16900000D01*
X38790476Y-16947619D01*
X38742857Y-17042857D01*
X38742857Y-17185714D01*
X38790476Y-17280952D01*
X38838095Y-17328571D01*
X38933333Y-17376190D01*
X39314285Y-17376190D01*
X37790476Y-17852380D02*
X38361904Y-17852380D01*
X38076190Y-17852380D02*
X38076190Y-16852380D01*
X38171428Y-16995238D01*
X38266666Y-17090476D01*
X38361904Y-17138095D01*
X37457142Y-16852380D02*
X36838095Y-16852380D01*
X37171428Y-17233333D01*
X37028571Y-17233333D01*
X36933333Y-17280952D01*
X36885714Y-17328571D01*
X36838095Y-17423809D01*
X36838095Y-17661904D01*
X36885714Y-17757142D01*
X36933333Y-17804761D01*
X37028571Y-17852380D01*
X37314285Y-17852380D01*
X37409523Y-17804761D01*
X37457142Y-17757142D01*
X46362857Y-44012380D02*
X46696190Y-43536190D01*
X46934285Y-44012380D02*
X46934285Y-43012380D01*
X46553333Y-43012380D01*
X46458095Y-43060000D01*
X46410476Y-43107619D01*
X46362857Y-43202857D01*
X46362857Y-43345714D01*
X46410476Y-43440952D01*
X46458095Y-43488571D01*
X46553333Y-43536190D01*
X46934285Y-43536190D01*
X45410476Y-44012380D02*
X45981904Y-44012380D01*
X45696190Y-44012380D02*
X45696190Y-43012380D01*
X45791428Y-43155238D01*
X45886666Y-43250476D01*
X45981904Y-43298095D01*
X44458095Y-44012380D02*
X45029523Y-44012380D01*
X44743809Y-44012380D02*
X44743809Y-43012380D01*
X44839047Y-43155238D01*
X44934285Y-43250476D01*
X45029523Y-43298095D01*
X55252857Y-41472380D02*
X55586190Y-40996190D01*
X55824285Y-41472380D02*
X55824285Y-40472380D01*
X55443333Y-40472380D01*
X55348095Y-40520000D01*
X55300476Y-40567619D01*
X55252857Y-40662857D01*
X55252857Y-40805714D01*
X55300476Y-40900952D01*
X55348095Y-40948571D01*
X55443333Y-40996190D01*
X55824285Y-40996190D01*
X54300476Y-41472380D02*
X54871904Y-41472380D01*
X54586190Y-41472380D02*
X54586190Y-40472380D01*
X54681428Y-40615238D01*
X54776666Y-40710476D01*
X54871904Y-40758095D01*
X53681428Y-40472380D02*
X53586190Y-40472380D01*
X53490952Y-40520000D01*
X53443333Y-40567619D01*
X53395714Y-40662857D01*
X53348095Y-40853333D01*
X53348095Y-41091428D01*
X53395714Y-41281904D01*
X53443333Y-41377142D01*
X53490952Y-41424761D01*
X53586190Y-41472380D01*
X53681428Y-41472380D01*
X53776666Y-41424761D01*
X53824285Y-41377142D01*
X53871904Y-41281904D01*
X53919523Y-41091428D01*
X53919523Y-40853333D01*
X53871904Y-40662857D01*
X53824285Y-40567619D01*
X53776666Y-40520000D01*
X53681428Y-40472380D01*
X19788095Y-39092380D02*
X19788095Y-38092380D01*
X19550000Y-38092380D01*
X19407142Y-38140000D01*
X19311904Y-38235238D01*
X19264285Y-38330476D01*
X19216666Y-38520952D01*
X19216666Y-38663809D01*
X19264285Y-38854285D01*
X19311904Y-38949523D01*
X19407142Y-39044761D01*
X19550000Y-39092380D01*
X19788095Y-39092380D01*
X18359523Y-38092380D02*
X18550000Y-38092380D01*
X18645238Y-38140000D01*
X18692857Y-38187619D01*
X18788095Y-38330476D01*
X18835714Y-38520952D01*
X18835714Y-38901904D01*
X18788095Y-38997142D01*
X18740476Y-39044761D01*
X18645238Y-39092380D01*
X18454761Y-39092380D01*
X18359523Y-39044761D01*
X18311904Y-38997142D01*
X18264285Y-38901904D01*
X18264285Y-38663809D01*
X18311904Y-38568571D01*
X18359523Y-38520952D01*
X18454761Y-38473333D01*
X18645238Y-38473333D01*
X18740476Y-38520952D01*
X18788095Y-38568571D01*
X18835714Y-38663809D01*
X33758095Y-37822380D02*
X33758095Y-36822380D01*
X33520000Y-36822380D01*
X33377142Y-36870000D01*
X33281904Y-36965238D01*
X33234285Y-37060476D01*
X33186666Y-37250952D01*
X33186666Y-37393809D01*
X33234285Y-37584285D01*
X33281904Y-37679523D01*
X33377142Y-37774761D01*
X33520000Y-37822380D01*
X33758095Y-37822380D01*
X32329523Y-37155714D02*
X32329523Y-37822380D01*
X32567619Y-36774761D02*
X32805714Y-37489047D01*
X32186666Y-37489047D01*
X112414831Y-52384226D02*
X112462484Y-52336572D01*
X112510138Y-52193612D01*
X112510138Y-52098305D01*
X112462484Y-51955344D01*
X112367177Y-51860037D01*
X112271870Y-51812384D01*
X112081256Y-51764730D01*
X111938296Y-51764730D01*
X111747682Y-51812384D01*
X111652375Y-51860037D01*
X111557068Y-51955344D01*
X111509414Y-52098305D01*
X111509414Y-52193612D01*
X111557068Y-52336572D01*
X111604721Y-52384226D01*
X111509414Y-53003722D02*
X111509414Y-53194336D01*
X111557068Y-53289643D01*
X111652375Y-53384950D01*
X111842989Y-53432603D01*
X112176563Y-53432603D01*
X112367177Y-53384950D01*
X112462484Y-53289643D01*
X112510138Y-53194336D01*
X112510138Y-53003722D01*
X112462484Y-52908415D01*
X112367177Y-52813108D01*
X112176563Y-52765454D01*
X111842989Y-52765454D01*
X111652375Y-52813108D01*
X111557068Y-52908415D01*
X111509414Y-53003722D01*
X112510138Y-53861485D02*
X111509414Y-53861485D01*
X112510138Y-54433327D01*
X111509414Y-54433327D01*
X112510138Y-54909863D02*
X111509414Y-54909863D01*
X112510138Y-55481705D01*
X111509414Y-55481705D01*
X112510138Y-56482429D02*
X112510138Y-55910587D01*
X112510138Y-56196508D02*
X111509414Y-56196508D01*
X111652375Y-56101201D01*
X111747682Y-56005894D01*
X111795335Y-55910587D01*
X22327142Y-25233333D02*
X22374761Y-25185714D01*
X22422380Y-25042857D01*
X22422380Y-24947619D01*
X22374761Y-24804761D01*
X22279523Y-24709523D01*
X22184285Y-24661904D01*
X21993809Y-24614285D01*
X21850952Y-24614285D01*
X21660476Y-24661904D01*
X21565238Y-24709523D01*
X21470000Y-24804761D01*
X21422380Y-24947619D01*
X21422380Y-25042857D01*
X21470000Y-25185714D01*
X21517619Y-25233333D01*
X21755714Y-26090476D02*
X22422380Y-26090476D01*
X21374761Y-25852380D02*
X22089047Y-25614285D01*
X22089047Y-26233333D01*
X36297142Y-23963333D02*
X36344761Y-23915714D01*
X36392380Y-23772857D01*
X36392380Y-23677619D01*
X36344761Y-23534761D01*
X36249523Y-23439523D01*
X36154285Y-23391904D01*
X35963809Y-23344285D01*
X35820952Y-23344285D01*
X35630476Y-23391904D01*
X35535238Y-23439523D01*
X35440000Y-23534761D01*
X35392380Y-23677619D01*
X35392380Y-23772857D01*
X35440000Y-23915714D01*
X35487619Y-23963333D01*
X35487619Y-24344285D02*
X35440000Y-24391904D01*
X35392380Y-24487142D01*
X35392380Y-24725238D01*
X35440000Y-24820476D01*
X35487619Y-24868095D01*
X35582857Y-24915714D01*
X35678095Y-24915714D01*
X35820952Y-24868095D01*
X36392380Y-24296666D01*
X36392380Y-24915714D01*
X51537142Y-23963333D02*
X51584761Y-23915714D01*
X51632380Y-23772857D01*
X51632380Y-23677619D01*
X51584761Y-23534761D01*
X51489523Y-23439523D01*
X51394285Y-23391904D01*
X51203809Y-23344285D01*
X51060952Y-23344285D01*
X50870476Y-23391904D01*
X50775238Y-23439523D01*
X50680000Y-23534761D01*
X50632380Y-23677619D01*
X50632380Y-23772857D01*
X50680000Y-23915714D01*
X50727619Y-23963333D01*
X51632380Y-24915714D02*
X51632380Y-24344285D01*
X51632380Y-24630000D02*
X50632380Y-24630000D01*
X50775238Y-24534761D01*
X50870476Y-24439523D01*
X50918095Y-24344285D01*
X38266666Y-50267142D02*
X38314285Y-50314761D01*
X38457142Y-50362380D01*
X38552380Y-50362380D01*
X38695238Y-50314761D01*
X38790476Y-50219523D01*
X38838095Y-50124285D01*
X38885714Y-49933809D01*
X38885714Y-49790952D01*
X38838095Y-49600476D01*
X38790476Y-49505238D01*
X38695238Y-49410000D01*
X38552380Y-49362380D01*
X38457142Y-49362380D01*
X38314285Y-49410000D01*
X38266666Y-49457619D01*
X37933333Y-49362380D02*
X37314285Y-49362380D01*
X37647619Y-49743333D01*
X37504761Y-49743333D01*
X37409523Y-49790952D01*
X37361904Y-49838571D01*
X37314285Y-49933809D01*
X37314285Y-50171904D01*
X37361904Y-50267142D01*
X37409523Y-50314761D01*
X37504761Y-50362380D01*
X37790476Y-50362380D01*
X37885714Y-50314761D01*
X37933333Y-50267142D01*
X28353619Y-57089893D02*
X28401299Y-57137574D01*
X28544341Y-57185254D01*
X28639702Y-57185254D01*
X28782743Y-57137574D01*
X28878104Y-57042213D01*
X28925785Y-56946852D01*
X28973465Y-56756130D01*
X28973465Y-56613088D01*
X28925785Y-56422366D01*
X28878104Y-56327005D01*
X28782743Y-56231644D01*
X28639702Y-56183963D01*
X28544341Y-56183963D01*
X28401299Y-56231644D01*
X28353619Y-56279325D01*
X27733772Y-56183963D02*
X27543050Y-56183963D01*
X27447689Y-56231644D01*
X27352328Y-56327005D01*
X27304647Y-56517727D01*
X27304647Y-56851491D01*
X27352328Y-57042213D01*
X27447689Y-57137574D01*
X27543050Y-57185254D01*
X27733772Y-57185254D01*
X27829133Y-57137574D01*
X27924494Y-57042213D01*
X27972174Y-56851491D01*
X27972174Y-56517727D01*
X27924494Y-56327005D01*
X27829133Y-56231644D01*
X27733772Y-56183963D01*
X26875522Y-57185254D02*
X26875522Y-56183963D01*
X26303356Y-57185254D01*
X26303356Y-56183963D01*
X25826551Y-57185254D02*
X25826551Y-56183963D01*
X25254385Y-57185254D01*
X25254385Y-56183963D01*
X24872940Y-56183963D02*
X24253094Y-56183963D01*
X24586857Y-56565408D01*
X24443816Y-56565408D01*
X24348455Y-56613088D01*
X24300774Y-56660769D01*
X24253094Y-56756130D01*
X24253094Y-56994532D01*
X24300774Y-57089893D01*
X24348455Y-57137574D01*
X24443816Y-57185254D01*
X24729899Y-57185254D01*
X24825260Y-57137574D01*
X24872940Y-57089893D01*
X89638095Y-20702380D02*
X89638095Y-19702380D01*
X89400000Y-19702380D01*
X89257142Y-19750000D01*
X89161904Y-19845238D01*
X89114285Y-19940476D01*
X89066666Y-20130952D01*
X89066666Y-20273809D01*
X89114285Y-20464285D01*
X89161904Y-20559523D01*
X89257142Y-20654761D01*
X89400000Y-20702380D01*
X89638095Y-20702380D01*
X88114285Y-20702380D02*
X88685714Y-20702380D01*
X88400000Y-20702380D02*
X88400000Y-19702380D01*
X88495238Y-19845238D01*
X88590476Y-19940476D01*
X88685714Y-19988095D01*
X104878095Y-15762380D02*
X104878095Y-14762380D01*
X104640000Y-14762380D01*
X104497142Y-14810000D01*
X104401904Y-14905238D01*
X104354285Y-15000476D01*
X104306666Y-15190952D01*
X104306666Y-15333809D01*
X104354285Y-15524285D01*
X104401904Y-15619523D01*
X104497142Y-15714761D01*
X104640000Y-15762380D01*
X104878095Y-15762380D01*
X103925714Y-14857619D02*
X103878095Y-14810000D01*
X103782857Y-14762380D01*
X103544761Y-14762380D01*
X103449523Y-14810000D01*
X103401904Y-14857619D01*
X103354285Y-14952857D01*
X103354285Y-15048095D01*
X103401904Y-15190952D01*
X103973333Y-15762380D01*
X103354285Y-15762380D01*
X50268095Y-35282380D02*
X50268095Y-34282380D01*
X50030000Y-34282380D01*
X49887142Y-34330000D01*
X49791904Y-34425238D01*
X49744285Y-34520476D01*
X49696666Y-34710952D01*
X49696666Y-34853809D01*
X49744285Y-35044285D01*
X49791904Y-35139523D01*
X49887142Y-35234761D01*
X50030000Y-35282380D01*
X50268095Y-35282380D01*
X49363333Y-34282380D02*
X48744285Y-34282380D01*
X49077619Y-34663333D01*
X48934761Y-34663333D01*
X48839523Y-34710952D01*
X48791904Y-34758571D01*
X48744285Y-34853809D01*
X48744285Y-35091904D01*
X48791904Y-35187142D01*
X48839523Y-35234761D01*
X48934761Y-35282380D01*
X49220476Y-35282380D01*
X49315714Y-35234761D01*
X49363333Y-35187142D01*
X38838095Y-51792380D02*
X38838095Y-50792380D01*
X38600000Y-50792380D01*
X38457142Y-50840000D01*
X38361904Y-50935238D01*
X38314285Y-51030476D01*
X38266666Y-51220952D01*
X38266666Y-51363809D01*
X38314285Y-51554285D01*
X38361904Y-51649523D01*
X38457142Y-51744761D01*
X38600000Y-51792380D01*
X38838095Y-51792380D01*
X37361904Y-50792380D02*
X37838095Y-50792380D01*
X37885714Y-51268571D01*
X37838095Y-51220952D01*
X37742857Y-51173333D01*
X37504761Y-51173333D01*
X37409523Y-51220952D01*
X37361904Y-51268571D01*
X37314285Y-51363809D01*
X37314285Y-51601904D01*
X37361904Y-51697142D01*
X37409523Y-51744761D01*
X37504761Y-51792380D01*
X37742857Y-51792380D01*
X37838095Y-51744761D01*
X37885714Y-51697142D01*
X97885238Y-50037619D02*
X97980476Y-49990000D01*
X98075714Y-49894761D01*
X98218571Y-49751904D01*
X98313809Y-49704285D01*
X98409047Y-49704285D01*
X98361428Y-49942380D02*
X98456666Y-49894761D01*
X98551904Y-49799523D01*
X98599523Y-49609047D01*
X98599523Y-49275714D01*
X98551904Y-49085238D01*
X98456666Y-48990000D01*
X98361428Y-48942380D01*
X98170952Y-48942380D01*
X98075714Y-48990000D01*
X97980476Y-49085238D01*
X97932857Y-49275714D01*
X97932857Y-49609047D01*
X97980476Y-49799523D01*
X98075714Y-49894761D01*
X98170952Y-49942380D01*
X98361428Y-49942380D01*
X96980476Y-49942380D02*
X97551904Y-49942380D01*
X97266190Y-49942380D02*
X97266190Y-48942380D01*
X97361428Y-49085238D01*
X97456666Y-49180476D01*
X97551904Y-49228095D01*
X80597619Y-43084761D02*
X80550000Y-42989523D01*
X80454761Y-42894285D01*
X80311904Y-42751428D01*
X80264285Y-42656190D01*
X80264285Y-42560952D01*
X80502380Y-42608571D02*
X80454761Y-42513333D01*
X80359523Y-42418095D01*
X80169047Y-42370476D01*
X79835714Y-42370476D01*
X79645238Y-42418095D01*
X79550000Y-42513333D01*
X79502380Y-42608571D01*
X79502380Y-42799047D01*
X79550000Y-42894285D01*
X79645238Y-42989523D01*
X79835714Y-43037142D01*
X80169047Y-43037142D01*
X80359523Y-42989523D01*
X80454761Y-42894285D01*
X80502380Y-42799047D01*
X80502380Y-42608571D01*
X79597619Y-43418095D02*
X79550000Y-43465714D01*
X79502380Y-43560952D01*
X79502380Y-43799047D01*
X79550000Y-43894285D01*
X79597619Y-43941904D01*
X79692857Y-43989523D01*
X79788095Y-43989523D01*
X79930952Y-43941904D01*
X80502380Y-43370476D01*
X80502380Y-43989523D01*
X106775238Y-43687619D02*
X106870476Y-43640000D01*
X106965714Y-43544761D01*
X107108571Y-43401904D01*
X107203809Y-43354285D01*
X107299047Y-43354285D01*
X107251428Y-43592380D02*
X107346666Y-43544761D01*
X107441904Y-43449523D01*
X107489523Y-43259047D01*
X107489523Y-42925714D01*
X107441904Y-42735238D01*
X107346666Y-42640000D01*
X107251428Y-42592380D01*
X107060952Y-42592380D01*
X106965714Y-42640000D01*
X106870476Y-42735238D01*
X106822857Y-42925714D01*
X106822857Y-43259047D01*
X106870476Y-43449523D01*
X106965714Y-43544761D01*
X107060952Y-43592380D01*
X107251428Y-43592380D01*
X106489523Y-42592380D02*
X105870476Y-42592380D01*
X106203809Y-42973333D01*
X106060952Y-42973333D01*
X105965714Y-43020952D01*
X105918095Y-43068571D01*
X105870476Y-43163809D01*
X105870476Y-43401904D01*
X105918095Y-43497142D01*
X105965714Y-43544761D01*
X106060952Y-43592380D01*
X106346666Y-43592380D01*
X106441904Y-43544761D01*
X106489523Y-43497142D01*
X125257619Y-20224761D02*
X125210000Y-20129523D01*
X125114761Y-20034285D01*
X124971904Y-19891428D01*
X124924285Y-19796190D01*
X124924285Y-19700952D01*
X125162380Y-19748571D02*
X125114761Y-19653333D01*
X125019523Y-19558095D01*
X124829047Y-19510476D01*
X124495714Y-19510476D01*
X124305238Y-19558095D01*
X124210000Y-19653333D01*
X124162380Y-19748571D01*
X124162380Y-19939047D01*
X124210000Y-20034285D01*
X124305238Y-20129523D01*
X124495714Y-20177142D01*
X124829047Y-20177142D01*
X125019523Y-20129523D01*
X125114761Y-20034285D01*
X125162380Y-19939047D01*
X125162380Y-19748571D01*
X124495714Y-21034285D02*
X125162380Y-21034285D01*
X124114761Y-20796190D02*
X124829047Y-20558095D01*
X124829047Y-21177142D01*
X57245238Y-53165619D02*
X57340476Y-53118000D01*
X57435714Y-53022761D01*
X57578571Y-52879904D01*
X57673809Y-52832285D01*
X57769047Y-52832285D01*
X57721428Y-53070380D02*
X57816666Y-53022761D01*
X57911904Y-52927523D01*
X57959523Y-52737047D01*
X57959523Y-52403714D01*
X57911904Y-52213238D01*
X57816666Y-52118000D01*
X57721428Y-52070380D01*
X57530952Y-52070380D01*
X57435714Y-52118000D01*
X57340476Y-52213238D01*
X57292857Y-52403714D01*
X57292857Y-52737047D01*
X57340476Y-52927523D01*
X57435714Y-53022761D01*
X57530952Y-53070380D01*
X57721428Y-53070380D01*
X56388095Y-52070380D02*
X56864285Y-52070380D01*
X56911904Y-52546571D01*
X56864285Y-52498952D01*
X56769047Y-52451333D01*
X56530952Y-52451333D01*
X56435714Y-52498952D01*
X56388095Y-52546571D01*
X56340476Y-52641809D01*
X56340476Y-52879904D01*
X56388095Y-52975142D01*
X56435714Y-53022761D01*
X56530952Y-53070380D01*
X56769047Y-53070380D01*
X56864285Y-53022761D01*
X56911904Y-52975142D01*
X67405238Y-53165619D02*
X67500476Y-53118000D01*
X67595714Y-53022761D01*
X67738571Y-52879904D01*
X67833809Y-52832285D01*
X67929047Y-52832285D01*
X67881428Y-53070380D02*
X67976666Y-53022761D01*
X68071904Y-52927523D01*
X68119523Y-52737047D01*
X68119523Y-52403714D01*
X68071904Y-52213238D01*
X67976666Y-52118000D01*
X67881428Y-52070380D01*
X67690952Y-52070380D01*
X67595714Y-52118000D01*
X67500476Y-52213238D01*
X67452857Y-52403714D01*
X67452857Y-52737047D01*
X67500476Y-52927523D01*
X67595714Y-53022761D01*
X67690952Y-53070380D01*
X67881428Y-53070380D01*
X66595714Y-52070380D02*
X66786190Y-52070380D01*
X66881428Y-52118000D01*
X66929047Y-52165619D01*
X67024285Y-52308476D01*
X67071904Y-52498952D01*
X67071904Y-52879904D01*
X67024285Y-52975142D01*
X66976666Y-53022761D01*
X66881428Y-53070380D01*
X66690952Y-53070380D01*
X66595714Y-53022761D01*
X66548095Y-52975142D01*
X66500476Y-52879904D01*
X66500476Y-52641809D01*
X66548095Y-52546571D01*
X66595714Y-52498952D01*
X66690952Y-52451333D01*
X66881428Y-52451333D01*
X66976666Y-52498952D01*
X67024285Y-52546571D01*
X67071904Y-52641809D01*
X62325238Y-53165619D02*
X62420476Y-53118000D01*
X62515714Y-53022761D01*
X62658571Y-52879904D01*
X62753809Y-52832285D01*
X62849047Y-52832285D01*
X62801428Y-53070380D02*
X62896666Y-53022761D01*
X62991904Y-52927523D01*
X63039523Y-52737047D01*
X63039523Y-52403714D01*
X62991904Y-52213238D01*
X62896666Y-52118000D01*
X62801428Y-52070380D01*
X62610952Y-52070380D01*
X62515714Y-52118000D01*
X62420476Y-52213238D01*
X62372857Y-52403714D01*
X62372857Y-52737047D01*
X62420476Y-52927523D01*
X62515714Y-53022761D01*
X62610952Y-53070380D01*
X62801428Y-53070380D01*
X62039523Y-52070380D02*
X61372857Y-52070380D01*
X61801428Y-53070380D01*
X59856666Y-44012380D02*
X60190000Y-43536190D01*
X60428095Y-44012380D02*
X60428095Y-43012380D01*
X60047142Y-43012380D01*
X59951904Y-43060000D01*
X59904285Y-43107619D01*
X59856666Y-43202857D01*
X59856666Y-43345714D01*
X59904285Y-43440952D01*
X59951904Y-43488571D01*
X60047142Y-43536190D01*
X60428095Y-43536190D01*
X58904285Y-44012380D02*
X59475714Y-44012380D01*
X59190000Y-44012380D02*
X59190000Y-43012380D01*
X59285238Y-43155238D01*
X59380476Y-43250476D01*
X59475714Y-43298095D01*
X80176666Y-40202380D02*
X80510000Y-39726190D01*
X80748095Y-40202380D02*
X80748095Y-39202380D01*
X80367142Y-39202380D01*
X80271904Y-39250000D01*
X80224285Y-39297619D01*
X80176666Y-39392857D01*
X80176666Y-39535714D01*
X80224285Y-39630952D01*
X80271904Y-39678571D01*
X80367142Y-39726190D01*
X80748095Y-39726190D01*
X79795714Y-39297619D02*
X79748095Y-39250000D01*
X79652857Y-39202380D01*
X79414761Y-39202380D01*
X79319523Y-39250000D01*
X79271904Y-39297619D01*
X79224285Y-39392857D01*
X79224285Y-39488095D01*
X79271904Y-39630952D01*
X79843333Y-40202380D01*
X79224285Y-40202380D01*
X117768666Y-53156380D02*
X118102000Y-52680190D01*
X118340095Y-53156380D02*
X118340095Y-52156380D01*
X117959142Y-52156380D01*
X117863904Y-52204000D01*
X117816285Y-52251619D01*
X117768666Y-52346857D01*
X117768666Y-52489714D01*
X117816285Y-52584952D01*
X117863904Y-52632571D01*
X117959142Y-52680190D01*
X118340095Y-52680190D01*
X117435333Y-52156380D02*
X116816285Y-52156380D01*
X117149619Y-52537333D01*
X117006761Y-52537333D01*
X116911523Y-52584952D01*
X116863904Y-52632571D01*
X116816285Y-52727809D01*
X116816285Y-52965904D01*
X116863904Y-53061142D01*
X116911523Y-53108761D01*
X117006761Y-53156380D01*
X117292476Y-53156380D01*
X117387714Y-53108761D01*
X117435333Y-53061142D01*
X119976166Y-48330380D02*
X120309500Y-47854190D01*
X120547595Y-48330380D02*
X120547595Y-47330380D01*
X120166642Y-47330380D01*
X120071404Y-47378000D01*
X120023785Y-47425619D01*
X119976166Y-47520857D01*
X119976166Y-47663714D01*
X120023785Y-47758952D01*
X120071404Y-47806571D01*
X120166642Y-47854190D01*
X120547595Y-47854190D01*
X119119023Y-47663714D02*
X119119023Y-48330380D01*
X119357119Y-47282761D02*
X119595214Y-47997047D01*
X118976166Y-47997047D01*
X127928666Y-57728380D02*
X128262000Y-57252190D01*
X128500095Y-57728380D02*
X128500095Y-56728380D01*
X128119142Y-56728380D01*
X128023904Y-56776000D01*
X127976285Y-56823619D01*
X127928666Y-56918857D01*
X127928666Y-57061714D01*
X127976285Y-57156952D01*
X128023904Y-57204571D01*
X128119142Y-57252190D01*
X128500095Y-57252190D01*
X127023904Y-56728380D02*
X127500095Y-56728380D01*
X127547714Y-57204571D01*
X127500095Y-57156952D01*
X127404857Y-57109333D01*
X127166761Y-57109333D01*
X127071523Y-57156952D01*
X127023904Y-57204571D01*
X126976285Y-57299809D01*
X126976285Y-57537904D01*
X127023904Y-57633142D01*
X127071523Y-57680761D01*
X127166761Y-57728380D01*
X127404857Y-57728380D01*
X127500095Y-57680761D01*
X127547714Y-57633142D01*
X128944666Y-48330380D02*
X129278000Y-47854190D01*
X129516095Y-48330380D02*
X129516095Y-47330380D01*
X129135142Y-47330380D01*
X129039904Y-47378000D01*
X128992285Y-47425619D01*
X128944666Y-47520857D01*
X128944666Y-47663714D01*
X128992285Y-47758952D01*
X129039904Y-47806571D01*
X129135142Y-47854190D01*
X129516095Y-47854190D01*
X128087523Y-47330380D02*
X128278000Y-47330380D01*
X128373238Y-47378000D01*
X128420857Y-47425619D01*
X128516095Y-47568476D01*
X128563714Y-47758952D01*
X128563714Y-48139904D01*
X128516095Y-48235142D01*
X128468476Y-48282761D01*
X128373238Y-48330380D01*
X128182761Y-48330380D01*
X128087523Y-48282761D01*
X128039904Y-48235142D01*
X127992285Y-48139904D01*
X127992285Y-47901809D01*
X128039904Y-47806571D01*
X128087523Y-47758952D01*
X128182761Y-47711333D01*
X128373238Y-47711333D01*
X128468476Y-47758952D01*
X128516095Y-47806571D01*
X128563714Y-47901809D01*
X46824166Y-50872380D02*
X47157500Y-50396190D01*
X47395595Y-50872380D02*
X47395595Y-49872380D01*
X47014642Y-49872380D01*
X46919404Y-49920000D01*
X46871785Y-49967619D01*
X46824166Y-50062857D01*
X46824166Y-50205714D01*
X46871785Y-50300952D01*
X46919404Y-50348571D01*
X47014642Y-50396190D01*
X47395595Y-50396190D01*
X46347976Y-50872380D02*
X46157500Y-50872380D01*
X46062261Y-50824761D01*
X46014642Y-50777142D01*
X45919404Y-50634285D01*
X45871785Y-50443809D01*
X45871785Y-50062857D01*
X45919404Y-49967619D01*
X45967023Y-49920000D01*
X46062261Y-49872380D01*
X46252738Y-49872380D01*
X46347976Y-49920000D01*
X46395595Y-49967619D01*
X46443214Y-50062857D01*
X46443214Y-50300952D01*
X46395595Y-50396190D01*
X46347976Y-50443809D01*
X46252738Y-50491428D01*
X46062261Y-50491428D01*
X45967023Y-50443809D01*
X45919404Y-50396190D01*
X45871785Y-50300952D01*
X60332857Y-17852380D02*
X60666190Y-17376190D01*
X60904285Y-17852380D02*
X60904285Y-16852380D01*
X60523333Y-16852380D01*
X60428095Y-16900000D01*
X60380476Y-16947619D01*
X60332857Y-17042857D01*
X60332857Y-17185714D01*
X60380476Y-17280952D01*
X60428095Y-17328571D01*
X60523333Y-17376190D01*
X60904285Y-17376190D01*
X59380476Y-17852380D02*
X59951904Y-17852380D01*
X59666190Y-17852380D02*
X59666190Y-16852380D01*
X59761428Y-16995238D01*
X59856666Y-17090476D01*
X59951904Y-17138095D01*
X58999523Y-16947619D02*
X58951904Y-16900000D01*
X58856666Y-16852380D01*
X58618571Y-16852380D01*
X58523333Y-16900000D01*
X58475714Y-16947619D01*
X58428095Y-17042857D01*
X58428095Y-17138095D01*
X58475714Y-17280952D01*
X59047142Y-17852380D01*
X58428095Y-17852380D01*
X46362857Y-20392380D02*
X46696190Y-19916190D01*
X46934285Y-20392380D02*
X46934285Y-19392380D01*
X46553333Y-19392380D01*
X46458095Y-19440000D01*
X46410476Y-19487619D01*
X46362857Y-19582857D01*
X46362857Y-19725714D01*
X46410476Y-19820952D01*
X46458095Y-19868571D01*
X46553333Y-19916190D01*
X46934285Y-19916190D01*
X45410476Y-20392380D02*
X45981904Y-20392380D01*
X45696190Y-20392380D02*
X45696190Y-19392380D01*
X45791428Y-19535238D01*
X45886666Y-19630476D01*
X45981904Y-19678095D01*
X44553333Y-19725714D02*
X44553333Y-20392380D01*
X44791428Y-19344761D02*
X45029523Y-20059047D01*
X44410476Y-20059047D01*
X21900357Y-49092380D02*
X22233690Y-48616190D01*
X22471785Y-49092380D02*
X22471785Y-48092380D01*
X22090833Y-48092380D01*
X21995595Y-48140000D01*
X21947976Y-48187619D01*
X21900357Y-48282857D01*
X21900357Y-48425714D01*
X21947976Y-48520952D01*
X21995595Y-48568571D01*
X22090833Y-48616190D01*
X22471785Y-48616190D01*
X20947976Y-49092380D02*
X21519404Y-49092380D01*
X21233690Y-49092380D02*
X21233690Y-48092380D01*
X21328928Y-48235238D01*
X21424166Y-48330476D01*
X21519404Y-48378095D01*
X20090833Y-48092380D02*
X20281309Y-48092380D01*
X20376547Y-48140000D01*
X20424166Y-48187619D01*
X20519404Y-48330476D01*
X20567023Y-48520952D01*
X20567023Y-48901904D01*
X20519404Y-48997142D01*
X20471785Y-49044761D01*
X20376547Y-49092380D01*
X20186071Y-49092380D01*
X20090833Y-49044761D01*
X20043214Y-48997142D01*
X19995595Y-48901904D01*
X19995595Y-48663809D01*
X20043214Y-48568571D01*
X20090833Y-48520952D01*
X20186071Y-48473333D01*
X20376547Y-48473333D01*
X20471785Y-48520952D01*
X20519404Y-48568571D01*
X20567023Y-48663809D01*
X34932857Y-49092380D02*
X35266190Y-48616190D01*
X35504285Y-49092380D02*
X35504285Y-48092380D01*
X35123333Y-48092380D01*
X35028095Y-48140000D01*
X34980476Y-48187619D01*
X34932857Y-48282857D01*
X34932857Y-48425714D01*
X34980476Y-48520952D01*
X35028095Y-48568571D01*
X35123333Y-48616190D01*
X35504285Y-48616190D01*
X33980476Y-49092380D02*
X34551904Y-49092380D01*
X34266190Y-49092380D02*
X34266190Y-48092380D01*
X34361428Y-48235238D01*
X34456666Y-48330476D01*
X34551904Y-48378095D01*
X33647142Y-48092380D02*
X32980476Y-48092380D01*
X33409047Y-49092380D01*
M02*
