G04 #@! TF.GenerationSoftware,KiCad,Pcbnew,(5.1.6-0-10_14)*
G04 #@! TF.CreationDate,2020-06-30T11:40:46-07:00*
G04 #@! TF.ProjectId,Pufferfish-Interface-1,50756666-6572-4666-9973-682d496e7465,v0.1*
G04 #@! TF.SameCoordinates,Original*
G04 #@! TF.FileFunction,Soldermask,Bot*
G04 #@! TF.FilePolarity,Negative*
%FSLAX46Y46*%
G04 Gerber Fmt 4.6, Leading zero omitted, Abs format (unit mm)*
G04 Created by KiCad (PCBNEW (5.1.6-0-10_14)) date 2020-06-30 11:40:46*
%MOMM*%
%LPD*%
G01*
G04 APERTURE LIST*
%ADD10C,0.020000*%
G04 APERTURE END LIST*
D10*
G36*
X109719000Y-56797000D02*
G01*
X106617000Y-56797000D01*
X106617000Y-55095000D01*
X109719000Y-55095000D01*
X109719000Y-56797000D01*
G37*
G36*
X49901968Y-55133565D02*
G01*
X49940638Y-55145296D01*
X49976277Y-55164346D01*
X50007517Y-55189983D01*
X50033154Y-55221223D01*
X50052204Y-55256862D01*
X50063935Y-55295532D01*
X50068500Y-55341888D01*
X50068500Y-56418112D01*
X50063935Y-56464468D01*
X50052204Y-56503138D01*
X50033154Y-56538777D01*
X50007517Y-56570017D01*
X49976277Y-56595654D01*
X49940638Y-56614704D01*
X49901968Y-56626435D01*
X49855612Y-56631000D01*
X49204388Y-56631000D01*
X49158032Y-56626435D01*
X49119362Y-56614704D01*
X49083723Y-56595654D01*
X49052483Y-56570017D01*
X49026846Y-56538777D01*
X49007796Y-56503138D01*
X48996065Y-56464468D01*
X48991500Y-56418112D01*
X48991500Y-55341888D01*
X48996065Y-55295532D01*
X49007796Y-55256862D01*
X49026846Y-55221223D01*
X49052483Y-55189983D01*
X49083723Y-55164346D01*
X49119362Y-55145296D01*
X49158032Y-55133565D01*
X49204388Y-55129000D01*
X49855612Y-55129000D01*
X49901968Y-55133565D01*
G37*
G36*
X51776968Y-55133565D02*
G01*
X51815638Y-55145296D01*
X51851277Y-55164346D01*
X51882517Y-55189983D01*
X51908154Y-55221223D01*
X51927204Y-55256862D01*
X51938935Y-55295532D01*
X51943500Y-55341888D01*
X51943500Y-56418112D01*
X51938935Y-56464468D01*
X51927204Y-56503138D01*
X51908154Y-56538777D01*
X51882517Y-56570017D01*
X51851277Y-56595654D01*
X51815638Y-56614704D01*
X51776968Y-56626435D01*
X51730612Y-56631000D01*
X51079388Y-56631000D01*
X51033032Y-56626435D01*
X50994362Y-56614704D01*
X50958723Y-56595654D01*
X50927483Y-56570017D01*
X50901846Y-56538777D01*
X50882796Y-56503138D01*
X50871065Y-56464468D01*
X50866500Y-56418112D01*
X50866500Y-55341888D01*
X50871065Y-55295532D01*
X50882796Y-55256862D01*
X50901846Y-55221223D01*
X50927483Y-55189983D01*
X50958723Y-55164346D01*
X50994362Y-55145296D01*
X51033032Y-55133565D01*
X51079388Y-55129000D01*
X51730612Y-55129000D01*
X51776968Y-55133565D01*
G37*
G36*
X68811000Y-56519000D02*
G01*
X67809000Y-56519000D01*
X67809000Y-55617000D01*
X68811000Y-55617000D01*
X68811000Y-56519000D01*
G37*
G36*
X58651000Y-56519000D02*
G01*
X57649000Y-56519000D01*
X57649000Y-55617000D01*
X58651000Y-55617000D01*
X58651000Y-56519000D01*
G37*
G36*
X63731000Y-56519000D02*
G01*
X62729000Y-56519000D01*
X62729000Y-55617000D01*
X63731000Y-55617000D01*
X63731000Y-56519000D01*
G37*
G36*
X127196468Y-54879565D02*
G01*
X127235138Y-54891296D01*
X127270777Y-54910346D01*
X127302017Y-54935983D01*
X127327654Y-54967223D01*
X127346704Y-55002862D01*
X127358435Y-55041532D01*
X127363000Y-55087888D01*
X127363000Y-56164112D01*
X127358435Y-56210468D01*
X127346704Y-56249138D01*
X127327654Y-56284777D01*
X127302017Y-56316017D01*
X127270777Y-56341654D01*
X127235138Y-56360704D01*
X127196468Y-56372435D01*
X127150112Y-56377000D01*
X126498888Y-56377000D01*
X126452532Y-56372435D01*
X126413862Y-56360704D01*
X126378223Y-56341654D01*
X126346983Y-56316017D01*
X126321346Y-56284777D01*
X126302296Y-56249138D01*
X126290565Y-56210468D01*
X126286000Y-56164112D01*
X126286000Y-55087888D01*
X126290565Y-55041532D01*
X126302296Y-55002862D01*
X126321346Y-54967223D01*
X126346983Y-54935983D01*
X126378223Y-54910346D01*
X126413862Y-54891296D01*
X126452532Y-54879565D01*
X126498888Y-54875000D01*
X127150112Y-54875000D01*
X127196468Y-54879565D01*
G37*
G36*
X129071468Y-54879565D02*
G01*
X129110138Y-54891296D01*
X129145777Y-54910346D01*
X129177017Y-54935983D01*
X129202654Y-54967223D01*
X129221704Y-55002862D01*
X129233435Y-55041532D01*
X129238000Y-55087888D01*
X129238000Y-56164112D01*
X129233435Y-56210468D01*
X129221704Y-56249138D01*
X129202654Y-56284777D01*
X129177017Y-56316017D01*
X129145777Y-56341654D01*
X129110138Y-56360704D01*
X129071468Y-56372435D01*
X129025112Y-56377000D01*
X128373888Y-56377000D01*
X128327532Y-56372435D01*
X128288862Y-56360704D01*
X128253223Y-56341654D01*
X128221983Y-56316017D01*
X128196346Y-56284777D01*
X128177296Y-56249138D01*
X128165565Y-56210468D01*
X128161000Y-56164112D01*
X128161000Y-55087888D01*
X128165565Y-55041532D01*
X128177296Y-55002862D01*
X128196346Y-54967223D01*
X128221983Y-54935983D01*
X128253223Y-54910346D01*
X128288862Y-54891296D01*
X128327532Y-54879565D01*
X128373888Y-54875000D01*
X129025112Y-54875000D01*
X129071468Y-54879565D01*
G37*
G36*
X56651000Y-55569000D02*
G01*
X55649000Y-55569000D01*
X55649000Y-54667000D01*
X56651000Y-54667000D01*
X56651000Y-55569000D01*
G37*
G36*
X61731000Y-55569000D02*
G01*
X60729000Y-55569000D01*
X60729000Y-54667000D01*
X61731000Y-54667000D01*
X61731000Y-55569000D01*
G37*
G36*
X66811000Y-55569000D02*
G01*
X65809000Y-55569000D01*
X65809000Y-54667000D01*
X66811000Y-54667000D01*
X66811000Y-55569000D01*
G37*
G36*
X32191000Y-54891000D02*
G01*
X30489000Y-54891000D01*
X30489000Y-51789000D01*
X32191000Y-51789000D01*
X32191000Y-54891000D01*
G37*
G36*
X25391000Y-54891000D02*
G01*
X23689000Y-54891000D01*
X23689000Y-51789000D01*
X25391000Y-51789000D01*
X25391000Y-54891000D01*
G37*
G36*
X68811000Y-54619000D02*
G01*
X67809000Y-54619000D01*
X67809000Y-53717000D01*
X68811000Y-53717000D01*
X68811000Y-54619000D01*
G37*
G36*
X63731000Y-54619000D02*
G01*
X62729000Y-54619000D01*
X62729000Y-53717000D01*
X63731000Y-53717000D01*
X63731000Y-54619000D01*
G37*
G36*
X58651000Y-54619000D02*
G01*
X57649000Y-54619000D01*
X57649000Y-53717000D01*
X58651000Y-53717000D01*
X58651000Y-54619000D01*
G37*
G36*
X108719000Y-54097000D02*
G01*
X103117000Y-54097000D01*
X103117000Y-52995000D01*
X108719000Y-52995000D01*
X108719000Y-54097000D01*
G37*
G36*
X29491000Y-53891000D02*
G01*
X28389000Y-53891000D01*
X28389000Y-48289000D01*
X29491000Y-48289000D01*
X29491000Y-53891000D01*
G37*
G36*
X27491000Y-53891000D02*
G01*
X26389000Y-53891000D01*
X26389000Y-48289000D01*
X27491000Y-48289000D01*
X27491000Y-53891000D01*
G37*
G36*
X38841938Y-52971716D02*
G01*
X38862557Y-52977971D01*
X38881553Y-52988124D01*
X38898208Y-53001792D01*
X38911876Y-53018447D01*
X38922029Y-53037443D01*
X38928284Y-53058062D01*
X38931000Y-53085640D01*
X38931000Y-53594360D01*
X38928284Y-53621938D01*
X38922029Y-53642557D01*
X38911876Y-53661553D01*
X38898208Y-53678208D01*
X38881553Y-53691876D01*
X38862557Y-53702029D01*
X38841938Y-53708284D01*
X38814360Y-53711000D01*
X38355640Y-53711000D01*
X38328062Y-53708284D01*
X38307443Y-53702029D01*
X38288447Y-53691876D01*
X38271792Y-53678208D01*
X38258124Y-53661553D01*
X38247971Y-53642557D01*
X38241716Y-53621938D01*
X38239000Y-53594360D01*
X38239000Y-53085640D01*
X38241716Y-53058062D01*
X38247971Y-53037443D01*
X38258124Y-53018447D01*
X38271792Y-53001792D01*
X38288447Y-52988124D01*
X38307443Y-52977971D01*
X38328062Y-52971716D01*
X38355640Y-52969000D01*
X38814360Y-52969000D01*
X38841938Y-52971716D01*
G37*
G36*
X37871938Y-52971716D02*
G01*
X37892557Y-52977971D01*
X37911553Y-52988124D01*
X37928208Y-53001792D01*
X37941876Y-53018447D01*
X37952029Y-53037443D01*
X37958284Y-53058062D01*
X37961000Y-53085640D01*
X37961000Y-53594360D01*
X37958284Y-53621938D01*
X37952029Y-53642557D01*
X37941876Y-53661553D01*
X37928208Y-53678208D01*
X37911553Y-53691876D01*
X37892557Y-53702029D01*
X37871938Y-53708284D01*
X37844360Y-53711000D01*
X37385640Y-53711000D01*
X37358062Y-53708284D01*
X37337443Y-53702029D01*
X37318447Y-53691876D01*
X37301792Y-53678208D01*
X37288124Y-53661553D01*
X37277971Y-53642557D01*
X37271716Y-53621938D01*
X37269000Y-53594360D01*
X37269000Y-53085640D01*
X37271716Y-53058062D01*
X37277971Y-53037443D01*
X37288124Y-53018447D01*
X37301792Y-53001792D01*
X37318447Y-52988124D01*
X37337443Y-52977971D01*
X37358062Y-52971716D01*
X37385640Y-52969000D01*
X37844360Y-52969000D01*
X37871938Y-52971716D01*
G37*
G36*
X46091968Y-51323565D02*
G01*
X46130638Y-51335296D01*
X46166277Y-51354346D01*
X46197517Y-51379983D01*
X46223154Y-51411223D01*
X46242204Y-51446862D01*
X46253935Y-51485532D01*
X46258500Y-51531888D01*
X46258500Y-52608112D01*
X46253935Y-52654468D01*
X46242204Y-52693138D01*
X46223154Y-52728777D01*
X46197517Y-52760017D01*
X46166277Y-52785654D01*
X46130638Y-52804704D01*
X46091968Y-52816435D01*
X46045612Y-52821000D01*
X45394388Y-52821000D01*
X45348032Y-52816435D01*
X45309362Y-52804704D01*
X45273723Y-52785654D01*
X45242483Y-52760017D01*
X45216846Y-52728777D01*
X45197796Y-52693138D01*
X45186065Y-52654468D01*
X45181500Y-52608112D01*
X45181500Y-51531888D01*
X45186065Y-51485532D01*
X45197796Y-51446862D01*
X45216846Y-51411223D01*
X45242483Y-51379983D01*
X45273723Y-51354346D01*
X45309362Y-51335296D01*
X45348032Y-51323565D01*
X45394388Y-51319000D01*
X46045612Y-51319000D01*
X46091968Y-51323565D01*
G37*
G36*
X47966968Y-51323565D02*
G01*
X48005638Y-51335296D01*
X48041277Y-51354346D01*
X48072517Y-51379983D01*
X48098154Y-51411223D01*
X48117204Y-51446862D01*
X48128935Y-51485532D01*
X48133500Y-51531888D01*
X48133500Y-52608112D01*
X48128935Y-52654468D01*
X48117204Y-52693138D01*
X48098154Y-52728777D01*
X48072517Y-52760017D01*
X48041277Y-52785654D01*
X48005638Y-52804704D01*
X47966968Y-52816435D01*
X47920612Y-52821000D01*
X47269388Y-52821000D01*
X47223032Y-52816435D01*
X47184362Y-52804704D01*
X47148723Y-52785654D01*
X47117483Y-52760017D01*
X47091846Y-52728777D01*
X47072796Y-52693138D01*
X47061065Y-52654468D01*
X47056500Y-52608112D01*
X47056500Y-51531888D01*
X47061065Y-51485532D01*
X47072796Y-51446862D01*
X47091846Y-51411223D01*
X47117483Y-51379983D01*
X47148723Y-51354346D01*
X47184362Y-51335296D01*
X47223032Y-51323565D01*
X47269388Y-51319000D01*
X47920612Y-51319000D01*
X47966968Y-51323565D01*
G37*
G36*
X108719000Y-52097000D02*
G01*
X103117000Y-52097000D01*
X103117000Y-50995000D01*
X108719000Y-50995000D01*
X108719000Y-52097000D01*
G37*
G36*
X117036468Y-50307565D02*
G01*
X117075138Y-50319296D01*
X117110777Y-50338346D01*
X117142017Y-50363983D01*
X117167654Y-50395223D01*
X117186704Y-50430862D01*
X117198435Y-50469532D01*
X117203000Y-50515888D01*
X117203000Y-51592112D01*
X117198435Y-51638468D01*
X117186704Y-51677138D01*
X117167654Y-51712777D01*
X117142017Y-51744017D01*
X117110777Y-51769654D01*
X117075138Y-51788704D01*
X117036468Y-51800435D01*
X116990112Y-51805000D01*
X116338888Y-51805000D01*
X116292532Y-51800435D01*
X116253862Y-51788704D01*
X116218223Y-51769654D01*
X116186983Y-51744017D01*
X116161346Y-51712777D01*
X116142296Y-51677138D01*
X116130565Y-51638468D01*
X116126000Y-51592112D01*
X116126000Y-50515888D01*
X116130565Y-50469532D01*
X116142296Y-50430862D01*
X116161346Y-50395223D01*
X116186983Y-50363983D01*
X116218223Y-50338346D01*
X116253862Y-50319296D01*
X116292532Y-50307565D01*
X116338888Y-50303000D01*
X116990112Y-50303000D01*
X117036468Y-50307565D01*
G37*
G36*
X118911468Y-50307565D02*
G01*
X118950138Y-50319296D01*
X118985777Y-50338346D01*
X119017017Y-50363983D01*
X119042654Y-50395223D01*
X119061704Y-50430862D01*
X119073435Y-50469532D01*
X119078000Y-50515888D01*
X119078000Y-51592112D01*
X119073435Y-51638468D01*
X119061704Y-51677138D01*
X119042654Y-51712777D01*
X119017017Y-51744017D01*
X118985777Y-51769654D01*
X118950138Y-51788704D01*
X118911468Y-51800435D01*
X118865112Y-51805000D01*
X118213888Y-51805000D01*
X118167532Y-51800435D01*
X118128862Y-51788704D01*
X118093223Y-51769654D01*
X118061983Y-51744017D01*
X118036346Y-51712777D01*
X118017296Y-51677138D01*
X118005565Y-51638468D01*
X118001000Y-51592112D01*
X118001000Y-50515888D01*
X118005565Y-50469532D01*
X118017296Y-50430862D01*
X118036346Y-50395223D01*
X118061983Y-50363983D01*
X118093223Y-50338346D01*
X118128862Y-50319296D01*
X118167532Y-50307565D01*
X118213888Y-50303000D01*
X118865112Y-50303000D01*
X118911468Y-50307565D01*
G37*
G36*
X88001968Y-50053565D02*
G01*
X88040638Y-50065296D01*
X88076277Y-50084346D01*
X88107517Y-50109983D01*
X88133154Y-50141223D01*
X88152204Y-50176862D01*
X88163935Y-50215532D01*
X88168500Y-50261888D01*
X88168500Y-51338112D01*
X88163935Y-51384468D01*
X88152204Y-51423138D01*
X88133154Y-51458777D01*
X88107517Y-51490017D01*
X88076277Y-51515654D01*
X88040638Y-51534704D01*
X88001968Y-51546435D01*
X87955612Y-51551000D01*
X87304388Y-51551000D01*
X87258032Y-51546435D01*
X87219362Y-51534704D01*
X87183723Y-51515654D01*
X87152483Y-51490017D01*
X87126846Y-51458777D01*
X87107796Y-51423138D01*
X87096065Y-51384468D01*
X87091500Y-51338112D01*
X87091500Y-50261888D01*
X87096065Y-50215532D01*
X87107796Y-50176862D01*
X87126846Y-50141223D01*
X87152483Y-50109983D01*
X87183723Y-50084346D01*
X87219362Y-50065296D01*
X87258032Y-50053565D01*
X87304388Y-50049000D01*
X87955612Y-50049000D01*
X88001968Y-50053565D01*
G37*
G36*
X89876968Y-50053565D02*
G01*
X89915638Y-50065296D01*
X89951277Y-50084346D01*
X89982517Y-50109983D01*
X90008154Y-50141223D01*
X90027204Y-50176862D01*
X90038935Y-50215532D01*
X90043500Y-50261888D01*
X90043500Y-51338112D01*
X90038935Y-51384468D01*
X90027204Y-51423138D01*
X90008154Y-51458777D01*
X89982517Y-51490017D01*
X89951277Y-51515654D01*
X89915638Y-51534704D01*
X89876968Y-51546435D01*
X89830612Y-51551000D01*
X89179388Y-51551000D01*
X89133032Y-51546435D01*
X89094362Y-51534704D01*
X89058723Y-51515654D01*
X89027483Y-51490017D01*
X89001846Y-51458777D01*
X88982796Y-51423138D01*
X88971065Y-51384468D01*
X88966500Y-51338112D01*
X88966500Y-50261888D01*
X88971065Y-50215532D01*
X88982796Y-50176862D01*
X89001846Y-50141223D01*
X89027483Y-50109983D01*
X89058723Y-50084346D01*
X89094362Y-50065296D01*
X89133032Y-50053565D01*
X89179388Y-50049000D01*
X89830612Y-50049000D01*
X89876968Y-50053565D01*
G37*
G36*
X54788215Y-48634053D02*
G01*
X54876458Y-48651605D01*
X54945319Y-48680128D01*
X55042703Y-48720466D01*
X55192322Y-48820438D01*
X55319562Y-48947678D01*
X55419534Y-49097297D01*
X55488395Y-49263543D01*
X55523500Y-49440027D01*
X55523500Y-49619973D01*
X55488395Y-49796457D01*
X55419534Y-49962703D01*
X55319562Y-50112322D01*
X55192322Y-50239562D01*
X55042703Y-50339534D01*
X54945319Y-50379872D01*
X54876458Y-50408395D01*
X54804727Y-50422663D01*
X54699973Y-50443500D01*
X54520027Y-50443500D01*
X54415273Y-50422663D01*
X54343542Y-50408395D01*
X54274681Y-50379872D01*
X54177297Y-50339534D01*
X54027678Y-50239562D01*
X53900438Y-50112322D01*
X53800466Y-49962703D01*
X53731605Y-49796457D01*
X53696500Y-49619973D01*
X53696500Y-49440027D01*
X53731605Y-49263543D01*
X53800466Y-49097297D01*
X53900438Y-48947678D01*
X54027678Y-48820438D01*
X54177297Y-48720466D01*
X54274681Y-48680128D01*
X54343542Y-48651605D01*
X54431785Y-48634053D01*
X54520027Y-48616500D01*
X54699973Y-48616500D01*
X54788215Y-48634053D01*
G37*
G36*
X57328215Y-48634053D02*
G01*
X57416458Y-48651605D01*
X57485319Y-48680128D01*
X57582703Y-48720466D01*
X57732322Y-48820438D01*
X57859562Y-48947678D01*
X57959534Y-49097297D01*
X58028395Y-49263543D01*
X58063500Y-49440027D01*
X58063500Y-49619973D01*
X58028395Y-49796457D01*
X57959534Y-49962703D01*
X57859562Y-50112322D01*
X57732322Y-50239562D01*
X57582703Y-50339534D01*
X57485319Y-50379872D01*
X57416458Y-50408395D01*
X57344727Y-50422663D01*
X57239973Y-50443500D01*
X57060027Y-50443500D01*
X56955273Y-50422663D01*
X56883542Y-50408395D01*
X56814681Y-50379872D01*
X56717297Y-50339534D01*
X56567678Y-50239562D01*
X56440438Y-50112322D01*
X56340466Y-49962703D01*
X56271605Y-49796457D01*
X56236500Y-49619973D01*
X56236500Y-49440027D01*
X56271605Y-49263543D01*
X56340466Y-49097297D01*
X56440438Y-48947678D01*
X56567678Y-48820438D01*
X56717297Y-48720466D01*
X56814681Y-48680128D01*
X56883542Y-48651605D01*
X56971785Y-48634053D01*
X57060027Y-48616500D01*
X57239973Y-48616500D01*
X57328215Y-48634053D01*
G37*
G36*
X59868215Y-48634053D02*
G01*
X59956458Y-48651605D01*
X60025319Y-48680128D01*
X60122703Y-48720466D01*
X60272322Y-48820438D01*
X60399562Y-48947678D01*
X60499534Y-49097297D01*
X60568395Y-49263543D01*
X60603500Y-49440027D01*
X60603500Y-49619973D01*
X60568395Y-49796457D01*
X60499534Y-49962703D01*
X60399562Y-50112322D01*
X60272322Y-50239562D01*
X60122703Y-50339534D01*
X60025319Y-50379872D01*
X59956458Y-50408395D01*
X59884727Y-50422663D01*
X59779973Y-50443500D01*
X59600027Y-50443500D01*
X59495273Y-50422663D01*
X59423542Y-50408395D01*
X59354681Y-50379872D01*
X59257297Y-50339534D01*
X59107678Y-50239562D01*
X58980438Y-50112322D01*
X58880466Y-49962703D01*
X58811605Y-49796457D01*
X58776500Y-49619973D01*
X58776500Y-49440027D01*
X58811605Y-49263543D01*
X58880466Y-49097297D01*
X58980438Y-48947678D01*
X59107678Y-48820438D01*
X59257297Y-48720466D01*
X59354681Y-48680128D01*
X59423542Y-48651605D01*
X59511785Y-48634053D01*
X59600027Y-48616500D01*
X59779973Y-48616500D01*
X59868215Y-48634053D01*
G37*
G36*
X62408215Y-48634053D02*
G01*
X62496458Y-48651605D01*
X62565319Y-48680128D01*
X62662703Y-48720466D01*
X62812322Y-48820438D01*
X62939562Y-48947678D01*
X63039534Y-49097297D01*
X63108395Y-49263543D01*
X63143500Y-49440027D01*
X63143500Y-49619973D01*
X63108395Y-49796457D01*
X63039534Y-49962703D01*
X62939562Y-50112322D01*
X62812322Y-50239562D01*
X62662703Y-50339534D01*
X62565319Y-50379872D01*
X62496458Y-50408395D01*
X62424727Y-50422663D01*
X62319973Y-50443500D01*
X62140027Y-50443500D01*
X62035273Y-50422663D01*
X61963542Y-50408395D01*
X61894681Y-50379872D01*
X61797297Y-50339534D01*
X61647678Y-50239562D01*
X61520438Y-50112322D01*
X61420466Y-49962703D01*
X61351605Y-49796457D01*
X61316500Y-49619973D01*
X61316500Y-49440027D01*
X61351605Y-49263543D01*
X61420466Y-49097297D01*
X61520438Y-48947678D01*
X61647678Y-48820438D01*
X61797297Y-48720466D01*
X61894681Y-48680128D01*
X61963542Y-48651605D01*
X62051785Y-48634053D01*
X62140027Y-48616500D01*
X62319973Y-48616500D01*
X62408215Y-48634053D01*
G37*
G36*
X64948215Y-48634053D02*
G01*
X65036458Y-48651605D01*
X65105319Y-48680128D01*
X65202703Y-48720466D01*
X65352322Y-48820438D01*
X65479562Y-48947678D01*
X65579534Y-49097297D01*
X65648395Y-49263543D01*
X65683500Y-49440027D01*
X65683500Y-49619973D01*
X65648395Y-49796457D01*
X65579534Y-49962703D01*
X65479562Y-50112322D01*
X65352322Y-50239562D01*
X65202703Y-50339534D01*
X65105319Y-50379872D01*
X65036458Y-50408395D01*
X64964727Y-50422663D01*
X64859973Y-50443500D01*
X64680027Y-50443500D01*
X64575273Y-50422663D01*
X64503542Y-50408395D01*
X64434681Y-50379872D01*
X64337297Y-50339534D01*
X64187678Y-50239562D01*
X64060438Y-50112322D01*
X63960466Y-49962703D01*
X63891605Y-49796457D01*
X63856500Y-49619973D01*
X63856500Y-49440027D01*
X63891605Y-49263543D01*
X63960466Y-49097297D01*
X64060438Y-48947678D01*
X64187678Y-48820438D01*
X64337297Y-48720466D01*
X64434681Y-48680128D01*
X64503542Y-48651605D01*
X64591785Y-48634053D01*
X64680027Y-48616500D01*
X64859973Y-48616500D01*
X64948215Y-48634053D01*
G37*
G36*
X73303500Y-50443500D02*
G01*
X71476500Y-50443500D01*
X71476500Y-48616500D01*
X73303500Y-48616500D01*
X73303500Y-50443500D01*
G37*
G36*
X70028215Y-48634053D02*
G01*
X70116458Y-48651605D01*
X70185319Y-48680128D01*
X70282703Y-48720466D01*
X70432322Y-48820438D01*
X70559562Y-48947678D01*
X70659534Y-49097297D01*
X70728395Y-49263543D01*
X70763500Y-49440027D01*
X70763500Y-49619973D01*
X70728395Y-49796457D01*
X70659534Y-49962703D01*
X70559562Y-50112322D01*
X70432322Y-50239562D01*
X70282703Y-50339534D01*
X70185319Y-50379872D01*
X70116458Y-50408395D01*
X70044727Y-50422663D01*
X69939973Y-50443500D01*
X69760027Y-50443500D01*
X69655273Y-50422663D01*
X69583542Y-50408395D01*
X69514681Y-50379872D01*
X69417297Y-50339534D01*
X69267678Y-50239562D01*
X69140438Y-50112322D01*
X69040466Y-49962703D01*
X68971605Y-49796457D01*
X68936500Y-49619973D01*
X68936500Y-49440027D01*
X68971605Y-49263543D01*
X69040466Y-49097297D01*
X69140438Y-48947678D01*
X69267678Y-48820438D01*
X69417297Y-48720466D01*
X69514681Y-48680128D01*
X69583542Y-48651605D01*
X69671785Y-48634053D01*
X69760027Y-48616500D01*
X69939973Y-48616500D01*
X70028215Y-48634053D01*
G37*
G36*
X67488215Y-48634053D02*
G01*
X67576458Y-48651605D01*
X67645319Y-48680128D01*
X67742703Y-48720466D01*
X67892322Y-48820438D01*
X68019562Y-48947678D01*
X68119534Y-49097297D01*
X68188395Y-49263543D01*
X68223500Y-49440027D01*
X68223500Y-49619973D01*
X68188395Y-49796457D01*
X68119534Y-49962703D01*
X68019562Y-50112322D01*
X67892322Y-50239562D01*
X67742703Y-50339534D01*
X67645319Y-50379872D01*
X67576458Y-50408395D01*
X67504727Y-50422663D01*
X67399973Y-50443500D01*
X67220027Y-50443500D01*
X67115273Y-50422663D01*
X67043542Y-50408395D01*
X66974681Y-50379872D01*
X66877297Y-50339534D01*
X66727678Y-50239562D01*
X66600438Y-50112322D01*
X66500466Y-49962703D01*
X66431605Y-49796457D01*
X66396500Y-49619973D01*
X66396500Y-49440027D01*
X66431605Y-49263543D01*
X66500466Y-49097297D01*
X66600438Y-48947678D01*
X66727678Y-48820438D01*
X66877297Y-48720466D01*
X66974681Y-48680128D01*
X67043542Y-48651605D01*
X67131785Y-48634053D01*
X67220027Y-48616500D01*
X67399973Y-48616500D01*
X67488215Y-48634053D01*
G37*
G36*
X108719000Y-50097000D02*
G01*
X103117000Y-50097000D01*
X103117000Y-48995000D01*
X108719000Y-48995000D01*
X108719000Y-50097000D01*
G37*
G36*
X39409468Y-47513565D02*
G01*
X39448138Y-47525296D01*
X39483777Y-47544346D01*
X39515017Y-47569983D01*
X39540654Y-47601223D01*
X39559704Y-47636862D01*
X39571435Y-47675532D01*
X39576000Y-47721888D01*
X39576000Y-48798112D01*
X39571435Y-48844468D01*
X39559704Y-48883138D01*
X39540654Y-48918777D01*
X39515017Y-48950017D01*
X39483777Y-48975654D01*
X39448138Y-48994704D01*
X39409468Y-49006435D01*
X39363112Y-49011000D01*
X38711888Y-49011000D01*
X38665532Y-49006435D01*
X38626862Y-48994704D01*
X38591223Y-48975654D01*
X38559983Y-48950017D01*
X38534346Y-48918777D01*
X38515296Y-48883138D01*
X38503565Y-48844468D01*
X38499000Y-48798112D01*
X38499000Y-47721888D01*
X38503565Y-47675532D01*
X38515296Y-47636862D01*
X38534346Y-47601223D01*
X38559983Y-47569983D01*
X38591223Y-47544346D01*
X38626862Y-47525296D01*
X38665532Y-47513565D01*
X38711888Y-47509000D01*
X39363112Y-47509000D01*
X39409468Y-47513565D01*
G37*
G36*
X37534468Y-47513565D02*
G01*
X37573138Y-47525296D01*
X37608777Y-47544346D01*
X37640017Y-47569983D01*
X37665654Y-47601223D01*
X37684704Y-47636862D01*
X37696435Y-47675532D01*
X37701000Y-47721888D01*
X37701000Y-48798112D01*
X37696435Y-48844468D01*
X37684704Y-48883138D01*
X37665654Y-48918777D01*
X37640017Y-48950017D01*
X37608777Y-48975654D01*
X37573138Y-48994704D01*
X37534468Y-49006435D01*
X37488112Y-49011000D01*
X36836888Y-49011000D01*
X36790532Y-49006435D01*
X36751862Y-48994704D01*
X36716223Y-48975654D01*
X36684983Y-48950017D01*
X36659346Y-48918777D01*
X36640296Y-48883138D01*
X36628565Y-48844468D01*
X36624000Y-48798112D01*
X36624000Y-47721888D01*
X36628565Y-47675532D01*
X36640296Y-47636862D01*
X36659346Y-47601223D01*
X36684983Y-47569983D01*
X36716223Y-47544346D01*
X36751862Y-47525296D01*
X36790532Y-47513565D01*
X36836888Y-47509000D01*
X37488112Y-47509000D01*
X37534468Y-47513565D01*
G37*
G36*
X97291000Y-48391000D02*
G01*
X96289000Y-48391000D01*
X96289000Y-47489000D01*
X97291000Y-47489000D01*
X97291000Y-48391000D01*
G37*
G36*
X108719000Y-48097000D02*
G01*
X103117000Y-48097000D01*
X103117000Y-46995000D01*
X108719000Y-46995000D01*
X108719000Y-48097000D01*
G37*
G36*
X54788215Y-46094052D02*
G01*
X54876458Y-46111605D01*
X54945319Y-46140128D01*
X55042703Y-46180466D01*
X55192322Y-46280438D01*
X55319562Y-46407678D01*
X55419534Y-46557297D01*
X55488395Y-46723543D01*
X55523500Y-46900027D01*
X55523500Y-47079973D01*
X55488395Y-47256457D01*
X55419534Y-47422703D01*
X55319562Y-47572322D01*
X55192322Y-47699562D01*
X55042703Y-47799534D01*
X54945319Y-47839872D01*
X54876458Y-47868395D01*
X54788215Y-47885947D01*
X54699973Y-47903500D01*
X54520027Y-47903500D01*
X54431785Y-47885947D01*
X54343542Y-47868395D01*
X54274681Y-47839872D01*
X54177297Y-47799534D01*
X54027678Y-47699562D01*
X53900438Y-47572322D01*
X53800466Y-47422703D01*
X53731605Y-47256457D01*
X53696500Y-47079973D01*
X53696500Y-46900027D01*
X53731605Y-46723543D01*
X53800466Y-46557297D01*
X53900438Y-46407678D01*
X54027678Y-46280438D01*
X54177297Y-46180466D01*
X54274681Y-46140128D01*
X54343542Y-46111605D01*
X54431785Y-46094052D01*
X54520027Y-46076500D01*
X54699973Y-46076500D01*
X54788215Y-46094052D01*
G37*
G36*
X59868215Y-46094052D02*
G01*
X59956458Y-46111605D01*
X60025319Y-46140128D01*
X60122703Y-46180466D01*
X60272322Y-46280438D01*
X60399562Y-46407678D01*
X60499534Y-46557297D01*
X60568395Y-46723543D01*
X60603500Y-46900027D01*
X60603500Y-47079973D01*
X60568395Y-47256457D01*
X60499534Y-47422703D01*
X60399562Y-47572322D01*
X60272322Y-47699562D01*
X60122703Y-47799534D01*
X60025319Y-47839872D01*
X59956458Y-47868395D01*
X59868215Y-47885947D01*
X59779973Y-47903500D01*
X59600027Y-47903500D01*
X59511785Y-47885947D01*
X59423542Y-47868395D01*
X59354681Y-47839872D01*
X59257297Y-47799534D01*
X59107678Y-47699562D01*
X58980438Y-47572322D01*
X58880466Y-47422703D01*
X58811605Y-47256457D01*
X58776500Y-47079973D01*
X58776500Y-46900027D01*
X58811605Y-46723543D01*
X58880466Y-46557297D01*
X58980438Y-46407678D01*
X59107678Y-46280438D01*
X59257297Y-46180466D01*
X59354681Y-46140128D01*
X59423542Y-46111605D01*
X59511785Y-46094052D01*
X59600027Y-46076500D01*
X59779973Y-46076500D01*
X59868215Y-46094052D01*
G37*
G36*
X62408215Y-46094052D02*
G01*
X62496458Y-46111605D01*
X62565319Y-46140128D01*
X62662703Y-46180466D01*
X62812322Y-46280438D01*
X62939562Y-46407678D01*
X63039534Y-46557297D01*
X63108395Y-46723543D01*
X63143500Y-46900027D01*
X63143500Y-47079973D01*
X63108395Y-47256457D01*
X63039534Y-47422703D01*
X62939562Y-47572322D01*
X62812322Y-47699562D01*
X62662703Y-47799534D01*
X62565319Y-47839872D01*
X62496458Y-47868395D01*
X62408215Y-47885947D01*
X62319973Y-47903500D01*
X62140027Y-47903500D01*
X62051785Y-47885947D01*
X61963542Y-47868395D01*
X61894681Y-47839872D01*
X61797297Y-47799534D01*
X61647678Y-47699562D01*
X61520438Y-47572322D01*
X61420466Y-47422703D01*
X61351605Y-47256457D01*
X61316500Y-47079973D01*
X61316500Y-46900027D01*
X61351605Y-46723543D01*
X61420466Y-46557297D01*
X61520438Y-46407678D01*
X61647678Y-46280438D01*
X61797297Y-46180466D01*
X61894681Y-46140128D01*
X61963542Y-46111605D01*
X62051785Y-46094052D01*
X62140027Y-46076500D01*
X62319973Y-46076500D01*
X62408215Y-46094052D01*
G37*
G36*
X64948215Y-46094052D02*
G01*
X65036458Y-46111605D01*
X65105319Y-46140128D01*
X65202703Y-46180466D01*
X65352322Y-46280438D01*
X65479562Y-46407678D01*
X65579534Y-46557297D01*
X65648395Y-46723543D01*
X65683500Y-46900027D01*
X65683500Y-47079973D01*
X65648395Y-47256457D01*
X65579534Y-47422703D01*
X65479562Y-47572322D01*
X65352322Y-47699562D01*
X65202703Y-47799534D01*
X65105319Y-47839872D01*
X65036458Y-47868395D01*
X64948215Y-47885947D01*
X64859973Y-47903500D01*
X64680027Y-47903500D01*
X64591785Y-47885947D01*
X64503542Y-47868395D01*
X64434681Y-47839872D01*
X64337297Y-47799534D01*
X64187678Y-47699562D01*
X64060438Y-47572322D01*
X63960466Y-47422703D01*
X63891605Y-47256457D01*
X63856500Y-47079973D01*
X63856500Y-46900027D01*
X63891605Y-46723543D01*
X63960466Y-46557297D01*
X64060438Y-46407678D01*
X64187678Y-46280438D01*
X64337297Y-46180466D01*
X64434681Y-46140128D01*
X64503542Y-46111605D01*
X64591785Y-46094052D01*
X64680027Y-46076500D01*
X64859973Y-46076500D01*
X64948215Y-46094052D01*
G37*
G36*
X67488215Y-46094052D02*
G01*
X67576458Y-46111605D01*
X67645319Y-46140128D01*
X67742703Y-46180466D01*
X67892322Y-46280438D01*
X68019562Y-46407678D01*
X68119534Y-46557297D01*
X68188395Y-46723543D01*
X68223500Y-46900027D01*
X68223500Y-47079973D01*
X68188395Y-47256457D01*
X68119534Y-47422703D01*
X68019562Y-47572322D01*
X67892322Y-47699562D01*
X67742703Y-47799534D01*
X67645319Y-47839872D01*
X67576458Y-47868395D01*
X67488215Y-47885947D01*
X67399973Y-47903500D01*
X67220027Y-47903500D01*
X67131785Y-47885947D01*
X67043542Y-47868395D01*
X66974681Y-47839872D01*
X66877297Y-47799534D01*
X66727678Y-47699562D01*
X66600438Y-47572322D01*
X66500466Y-47422703D01*
X66431605Y-47256457D01*
X66396500Y-47079973D01*
X66396500Y-46900027D01*
X66431605Y-46723543D01*
X66500466Y-46557297D01*
X66600438Y-46407678D01*
X66727678Y-46280438D01*
X66877297Y-46180466D01*
X66974681Y-46140128D01*
X67043542Y-46111605D01*
X67131785Y-46094052D01*
X67220027Y-46076500D01*
X67399973Y-46076500D01*
X67488215Y-46094052D01*
G37*
G36*
X72568215Y-46094052D02*
G01*
X72656458Y-46111605D01*
X72725319Y-46140128D01*
X72822703Y-46180466D01*
X72972322Y-46280438D01*
X73099562Y-46407678D01*
X73199534Y-46557297D01*
X73268395Y-46723543D01*
X73303500Y-46900027D01*
X73303500Y-47079973D01*
X73268395Y-47256457D01*
X73199534Y-47422703D01*
X73099562Y-47572322D01*
X72972322Y-47699562D01*
X72822703Y-47799534D01*
X72725319Y-47839872D01*
X72656458Y-47868395D01*
X72568215Y-47885947D01*
X72479973Y-47903500D01*
X72300027Y-47903500D01*
X72211785Y-47885947D01*
X72123542Y-47868395D01*
X72054681Y-47839872D01*
X71957297Y-47799534D01*
X71807678Y-47699562D01*
X71680438Y-47572322D01*
X71580466Y-47422703D01*
X71511605Y-47256457D01*
X71476500Y-47079973D01*
X71476500Y-46900027D01*
X71511605Y-46723543D01*
X71580466Y-46557297D01*
X71680438Y-46407678D01*
X71807678Y-46280438D01*
X71957297Y-46180466D01*
X72054681Y-46140128D01*
X72123542Y-46111605D01*
X72211785Y-46094052D01*
X72300027Y-46076500D01*
X72479973Y-46076500D01*
X72568215Y-46094052D01*
G37*
G36*
X70028215Y-46094052D02*
G01*
X70116458Y-46111605D01*
X70185319Y-46140128D01*
X70282703Y-46180466D01*
X70432322Y-46280438D01*
X70559562Y-46407678D01*
X70659534Y-46557297D01*
X70728395Y-46723543D01*
X70763500Y-46900027D01*
X70763500Y-47079973D01*
X70728395Y-47256457D01*
X70659534Y-47422703D01*
X70559562Y-47572322D01*
X70432322Y-47699562D01*
X70282703Y-47799534D01*
X70185319Y-47839872D01*
X70116458Y-47868395D01*
X70028215Y-47885947D01*
X69939973Y-47903500D01*
X69760027Y-47903500D01*
X69671785Y-47885947D01*
X69583542Y-47868395D01*
X69514681Y-47839872D01*
X69417297Y-47799534D01*
X69267678Y-47699562D01*
X69140438Y-47572322D01*
X69040466Y-47422703D01*
X68971605Y-47256457D01*
X68936500Y-47079973D01*
X68936500Y-46900027D01*
X68971605Y-46723543D01*
X69040466Y-46557297D01*
X69140438Y-46407678D01*
X69267678Y-46280438D01*
X69417297Y-46180466D01*
X69514681Y-46140128D01*
X69583542Y-46111605D01*
X69671785Y-46094052D01*
X69760027Y-46076500D01*
X69939973Y-46076500D01*
X70028215Y-46094052D01*
G37*
G36*
X57328215Y-46094052D02*
G01*
X57416458Y-46111605D01*
X57485319Y-46140128D01*
X57582703Y-46180466D01*
X57732322Y-46280438D01*
X57859562Y-46407678D01*
X57959534Y-46557297D01*
X58028395Y-46723543D01*
X58063500Y-46900027D01*
X58063500Y-47079973D01*
X58028395Y-47256457D01*
X57959534Y-47422703D01*
X57859562Y-47572322D01*
X57732322Y-47699562D01*
X57582703Y-47799534D01*
X57485319Y-47839872D01*
X57416458Y-47868395D01*
X57328215Y-47885947D01*
X57239973Y-47903500D01*
X57060027Y-47903500D01*
X56971785Y-47885947D01*
X56883542Y-47868395D01*
X56814681Y-47839872D01*
X56717297Y-47799534D01*
X56567678Y-47699562D01*
X56440438Y-47572322D01*
X56340466Y-47422703D01*
X56271605Y-47256457D01*
X56236500Y-47079973D01*
X56236500Y-46900027D01*
X56271605Y-46723543D01*
X56340466Y-46557297D01*
X56440438Y-46407678D01*
X56567678Y-46280438D01*
X56717297Y-46180466D01*
X56814681Y-46140128D01*
X56883542Y-46111605D01*
X56971785Y-46094052D01*
X57060027Y-46076500D01*
X57239973Y-46076500D01*
X57328215Y-46094052D01*
G37*
G36*
X35599468Y-46243565D02*
G01*
X35638138Y-46255296D01*
X35673777Y-46274346D01*
X35705017Y-46299983D01*
X35730654Y-46331223D01*
X35749704Y-46366862D01*
X35761435Y-46405532D01*
X35766000Y-46451888D01*
X35766000Y-47528112D01*
X35761435Y-47574468D01*
X35749704Y-47613138D01*
X35730654Y-47648777D01*
X35705017Y-47680017D01*
X35673777Y-47705654D01*
X35638138Y-47724704D01*
X35599468Y-47736435D01*
X35553112Y-47741000D01*
X34901888Y-47741000D01*
X34855532Y-47736435D01*
X34816862Y-47724704D01*
X34781223Y-47705654D01*
X34749983Y-47680017D01*
X34724346Y-47648777D01*
X34705296Y-47613138D01*
X34693565Y-47574468D01*
X34689000Y-47528112D01*
X34689000Y-46451888D01*
X34693565Y-46405532D01*
X34705296Y-46366862D01*
X34724346Y-46331223D01*
X34749983Y-46299983D01*
X34781223Y-46274346D01*
X34816862Y-46255296D01*
X34855532Y-46243565D01*
X34901888Y-46239000D01*
X35553112Y-46239000D01*
X35599468Y-46243565D01*
G37*
G36*
X33724468Y-46243565D02*
G01*
X33763138Y-46255296D01*
X33798777Y-46274346D01*
X33830017Y-46299983D01*
X33855654Y-46331223D01*
X33874704Y-46366862D01*
X33886435Y-46405532D01*
X33891000Y-46451888D01*
X33891000Y-47528112D01*
X33886435Y-47574468D01*
X33874704Y-47613138D01*
X33855654Y-47648777D01*
X33830017Y-47680017D01*
X33798777Y-47705654D01*
X33763138Y-47724704D01*
X33724468Y-47736435D01*
X33678112Y-47741000D01*
X33026888Y-47741000D01*
X32980532Y-47736435D01*
X32941862Y-47724704D01*
X32906223Y-47705654D01*
X32874983Y-47680017D01*
X32849346Y-47648777D01*
X32830296Y-47613138D01*
X32818565Y-47574468D01*
X32814000Y-47528112D01*
X32814000Y-46451888D01*
X32818565Y-46405532D01*
X32830296Y-46366862D01*
X32849346Y-46331223D01*
X32874983Y-46299983D01*
X32906223Y-46274346D01*
X32941862Y-46255296D01*
X32980532Y-46243565D01*
X33026888Y-46239000D01*
X33678112Y-46239000D01*
X33724468Y-46243565D01*
G37*
G36*
X22566968Y-46243565D02*
G01*
X22605638Y-46255296D01*
X22641277Y-46274346D01*
X22672517Y-46299983D01*
X22698154Y-46331223D01*
X22717204Y-46366862D01*
X22728935Y-46405532D01*
X22733500Y-46451888D01*
X22733500Y-47528112D01*
X22728935Y-47574468D01*
X22717204Y-47613138D01*
X22698154Y-47648777D01*
X22672517Y-47680017D01*
X22641277Y-47705654D01*
X22605638Y-47724704D01*
X22566968Y-47736435D01*
X22520612Y-47741000D01*
X21869388Y-47741000D01*
X21823032Y-47736435D01*
X21784362Y-47724704D01*
X21748723Y-47705654D01*
X21717483Y-47680017D01*
X21691846Y-47648777D01*
X21672796Y-47613138D01*
X21661065Y-47574468D01*
X21656500Y-47528112D01*
X21656500Y-46451888D01*
X21661065Y-46405532D01*
X21672796Y-46366862D01*
X21691846Y-46331223D01*
X21717483Y-46299983D01*
X21748723Y-46274346D01*
X21784362Y-46255296D01*
X21823032Y-46243565D01*
X21869388Y-46239000D01*
X22520612Y-46239000D01*
X22566968Y-46243565D01*
G37*
G36*
X20691968Y-46243565D02*
G01*
X20730638Y-46255296D01*
X20766277Y-46274346D01*
X20797517Y-46299983D01*
X20823154Y-46331223D01*
X20842204Y-46366862D01*
X20853935Y-46405532D01*
X20858500Y-46451888D01*
X20858500Y-47528112D01*
X20853935Y-47574468D01*
X20842204Y-47613138D01*
X20823154Y-47648777D01*
X20797517Y-47680017D01*
X20766277Y-47705654D01*
X20730638Y-47724704D01*
X20691968Y-47736435D01*
X20645612Y-47741000D01*
X19994388Y-47741000D01*
X19948032Y-47736435D01*
X19909362Y-47724704D01*
X19873723Y-47705654D01*
X19842483Y-47680017D01*
X19816846Y-47648777D01*
X19797796Y-47613138D01*
X19786065Y-47574468D01*
X19781500Y-47528112D01*
X19781500Y-46451888D01*
X19786065Y-46405532D01*
X19797796Y-46366862D01*
X19816846Y-46331223D01*
X19842483Y-46299983D01*
X19873723Y-46274346D01*
X19909362Y-46255296D01*
X19948032Y-46243565D01*
X19994388Y-46239000D01*
X20645612Y-46239000D01*
X20691968Y-46243565D01*
G37*
G36*
X99291000Y-47441000D02*
G01*
X98289000Y-47441000D01*
X98289000Y-46539000D01*
X99291000Y-46539000D01*
X99291000Y-47441000D01*
G37*
G36*
X119243968Y-45481565D02*
G01*
X119282638Y-45493296D01*
X119318277Y-45512346D01*
X119349517Y-45537983D01*
X119375154Y-45569223D01*
X119394204Y-45604862D01*
X119405935Y-45643532D01*
X119410500Y-45689888D01*
X119410500Y-46766112D01*
X119405935Y-46812468D01*
X119394204Y-46851138D01*
X119375154Y-46886777D01*
X119349517Y-46918017D01*
X119318277Y-46943654D01*
X119282638Y-46962704D01*
X119243968Y-46974435D01*
X119197612Y-46979000D01*
X118546388Y-46979000D01*
X118500032Y-46974435D01*
X118461362Y-46962704D01*
X118425723Y-46943654D01*
X118394483Y-46918017D01*
X118368846Y-46886777D01*
X118349796Y-46851138D01*
X118338065Y-46812468D01*
X118333500Y-46766112D01*
X118333500Y-45689888D01*
X118338065Y-45643532D01*
X118349796Y-45604862D01*
X118368846Y-45569223D01*
X118394483Y-45537983D01*
X118425723Y-45512346D01*
X118461362Y-45493296D01*
X118500032Y-45481565D01*
X118546388Y-45477000D01*
X119197612Y-45477000D01*
X119243968Y-45481565D01*
G37*
G36*
X128212468Y-45481565D02*
G01*
X128251138Y-45493296D01*
X128286777Y-45512346D01*
X128318017Y-45537983D01*
X128343654Y-45569223D01*
X128362704Y-45604862D01*
X128374435Y-45643532D01*
X128379000Y-45689888D01*
X128379000Y-46766112D01*
X128374435Y-46812468D01*
X128362704Y-46851138D01*
X128343654Y-46886777D01*
X128318017Y-46918017D01*
X128286777Y-46943654D01*
X128251138Y-46962704D01*
X128212468Y-46974435D01*
X128166112Y-46979000D01*
X127514888Y-46979000D01*
X127468532Y-46974435D01*
X127429862Y-46962704D01*
X127394223Y-46943654D01*
X127362983Y-46918017D01*
X127337346Y-46886777D01*
X127318296Y-46851138D01*
X127306565Y-46812468D01*
X127302000Y-46766112D01*
X127302000Y-45689888D01*
X127306565Y-45643532D01*
X127318296Y-45604862D01*
X127337346Y-45569223D01*
X127362983Y-45537983D01*
X127394223Y-45512346D01*
X127429862Y-45493296D01*
X127468532Y-45481565D01*
X127514888Y-45477000D01*
X128166112Y-45477000D01*
X128212468Y-45481565D01*
G37*
G36*
X130087468Y-45481565D02*
G01*
X130126138Y-45493296D01*
X130161777Y-45512346D01*
X130193017Y-45537983D01*
X130218654Y-45569223D01*
X130237704Y-45604862D01*
X130249435Y-45643532D01*
X130254000Y-45689888D01*
X130254000Y-46766112D01*
X130249435Y-46812468D01*
X130237704Y-46851138D01*
X130218654Y-46886777D01*
X130193017Y-46918017D01*
X130161777Y-46943654D01*
X130126138Y-46962704D01*
X130087468Y-46974435D01*
X130041112Y-46979000D01*
X129389888Y-46979000D01*
X129343532Y-46974435D01*
X129304862Y-46962704D01*
X129269223Y-46943654D01*
X129237983Y-46918017D01*
X129212346Y-46886777D01*
X129193296Y-46851138D01*
X129181565Y-46812468D01*
X129177000Y-46766112D01*
X129177000Y-45689888D01*
X129181565Y-45643532D01*
X129193296Y-45604862D01*
X129212346Y-45569223D01*
X129237983Y-45537983D01*
X129269223Y-45512346D01*
X129304862Y-45493296D01*
X129343532Y-45481565D01*
X129389888Y-45477000D01*
X130041112Y-45477000D01*
X130087468Y-45481565D01*
G37*
G36*
X121118968Y-45481565D02*
G01*
X121157638Y-45493296D01*
X121193277Y-45512346D01*
X121224517Y-45537983D01*
X121250154Y-45569223D01*
X121269204Y-45604862D01*
X121280935Y-45643532D01*
X121285500Y-45689888D01*
X121285500Y-46766112D01*
X121280935Y-46812468D01*
X121269204Y-46851138D01*
X121250154Y-46886777D01*
X121224517Y-46918017D01*
X121193277Y-46943654D01*
X121157638Y-46962704D01*
X121118968Y-46974435D01*
X121072612Y-46979000D01*
X120421388Y-46979000D01*
X120375032Y-46974435D01*
X120336362Y-46962704D01*
X120300723Y-46943654D01*
X120269483Y-46918017D01*
X120243846Y-46886777D01*
X120224796Y-46851138D01*
X120213065Y-46812468D01*
X120208500Y-46766112D01*
X120208500Y-45689888D01*
X120213065Y-45643532D01*
X120224796Y-45604862D01*
X120243846Y-45569223D01*
X120269483Y-45537983D01*
X120300723Y-45512346D01*
X120336362Y-45493296D01*
X120375032Y-45481565D01*
X120421388Y-45477000D01*
X121072612Y-45477000D01*
X121118968Y-45481565D01*
G37*
G36*
X97291000Y-46491000D02*
G01*
X96289000Y-46491000D01*
X96289000Y-45589000D01*
X97291000Y-45589000D01*
X97291000Y-46491000D01*
G37*
G36*
X109719000Y-45997000D02*
G01*
X106617000Y-45997000D01*
X106617000Y-44295000D01*
X109719000Y-44295000D01*
X109719000Y-45997000D01*
G37*
G36*
X83001000Y-44681000D02*
G01*
X82099000Y-44681000D01*
X82099000Y-43679000D01*
X83001000Y-43679000D01*
X83001000Y-44681000D01*
G37*
G36*
X30186968Y-42433565D02*
G01*
X30225638Y-42445296D01*
X30261277Y-42464346D01*
X30292517Y-42489983D01*
X30318154Y-42521223D01*
X30337204Y-42556862D01*
X30348935Y-42595532D01*
X30353500Y-42641888D01*
X30353500Y-43718112D01*
X30348935Y-43764468D01*
X30337204Y-43803138D01*
X30318154Y-43838777D01*
X30292517Y-43870017D01*
X30261277Y-43895654D01*
X30225638Y-43914704D01*
X30186968Y-43926435D01*
X30140612Y-43931000D01*
X29489388Y-43931000D01*
X29443032Y-43926435D01*
X29404362Y-43914704D01*
X29368723Y-43895654D01*
X29337483Y-43870017D01*
X29311846Y-43838777D01*
X29292796Y-43803138D01*
X29281065Y-43764468D01*
X29276500Y-43718112D01*
X29276500Y-42641888D01*
X29281065Y-42595532D01*
X29292796Y-42556862D01*
X29311846Y-42521223D01*
X29337483Y-42489983D01*
X29368723Y-42464346D01*
X29404362Y-42445296D01*
X29443032Y-42433565D01*
X29489388Y-42429000D01*
X30140612Y-42429000D01*
X30186968Y-42433565D01*
G37*
G36*
X28311968Y-42433565D02*
G01*
X28350638Y-42445296D01*
X28386277Y-42464346D01*
X28417517Y-42489983D01*
X28443154Y-42521223D01*
X28462204Y-42556862D01*
X28473935Y-42595532D01*
X28478500Y-42641888D01*
X28478500Y-43718112D01*
X28473935Y-43764468D01*
X28462204Y-43803138D01*
X28443154Y-43838777D01*
X28417517Y-43870017D01*
X28386277Y-43895654D01*
X28350638Y-43914704D01*
X28311968Y-43926435D01*
X28265612Y-43931000D01*
X27614388Y-43931000D01*
X27568032Y-43926435D01*
X27529362Y-43914704D01*
X27493723Y-43895654D01*
X27462483Y-43870017D01*
X27436846Y-43838777D01*
X27417796Y-43803138D01*
X27406065Y-43764468D01*
X27401500Y-43718112D01*
X27401500Y-42641888D01*
X27406065Y-42595532D01*
X27417796Y-42556862D01*
X27436846Y-42521223D01*
X27462483Y-42489983D01*
X27493723Y-42464346D01*
X27529362Y-42445296D01*
X27568032Y-42433565D01*
X27614388Y-42429000D01*
X28265612Y-42429000D01*
X28311968Y-42433565D01*
G37*
G36*
X82051000Y-42681000D02*
G01*
X81149000Y-42681000D01*
X81149000Y-41679000D01*
X82051000Y-41679000D01*
X82051000Y-42681000D01*
G37*
G36*
X83951000Y-42681000D02*
G01*
X83049000Y-42681000D01*
X83049000Y-41679000D01*
X83951000Y-41679000D01*
X83951000Y-42681000D01*
G37*
G36*
X47029468Y-41163565D02*
G01*
X47068138Y-41175296D01*
X47103777Y-41194346D01*
X47135017Y-41219983D01*
X47160654Y-41251223D01*
X47179704Y-41286862D01*
X47191435Y-41325532D01*
X47196000Y-41371888D01*
X47196000Y-42448112D01*
X47191435Y-42494468D01*
X47179704Y-42533138D01*
X47160654Y-42568777D01*
X47135017Y-42600017D01*
X47103777Y-42625654D01*
X47068138Y-42644704D01*
X47029468Y-42656435D01*
X46983112Y-42661000D01*
X46331888Y-42661000D01*
X46285532Y-42656435D01*
X46246862Y-42644704D01*
X46211223Y-42625654D01*
X46179983Y-42600017D01*
X46154346Y-42568777D01*
X46135296Y-42533138D01*
X46123565Y-42494468D01*
X46119000Y-42448112D01*
X46119000Y-41371888D01*
X46123565Y-41325532D01*
X46135296Y-41286862D01*
X46154346Y-41251223D01*
X46179983Y-41219983D01*
X46211223Y-41194346D01*
X46246862Y-41175296D01*
X46285532Y-41163565D01*
X46331888Y-41159000D01*
X46983112Y-41159000D01*
X47029468Y-41163565D01*
G37*
G36*
X59124468Y-41163565D02*
G01*
X59163138Y-41175296D01*
X59198777Y-41194346D01*
X59230017Y-41219983D01*
X59255654Y-41251223D01*
X59274704Y-41286862D01*
X59286435Y-41325532D01*
X59291000Y-41371888D01*
X59291000Y-42448112D01*
X59286435Y-42494468D01*
X59274704Y-42533138D01*
X59255654Y-42568777D01*
X59230017Y-42600017D01*
X59198777Y-42625654D01*
X59163138Y-42644704D01*
X59124468Y-42656435D01*
X59078112Y-42661000D01*
X58426888Y-42661000D01*
X58380532Y-42656435D01*
X58341862Y-42644704D01*
X58306223Y-42625654D01*
X58274983Y-42600017D01*
X58249346Y-42568777D01*
X58230296Y-42533138D01*
X58218565Y-42494468D01*
X58214000Y-42448112D01*
X58214000Y-41371888D01*
X58218565Y-41325532D01*
X58230296Y-41286862D01*
X58249346Y-41251223D01*
X58274983Y-41219983D01*
X58306223Y-41194346D01*
X58341862Y-41175296D01*
X58380532Y-41163565D01*
X58426888Y-41159000D01*
X59078112Y-41159000D01*
X59124468Y-41163565D01*
G37*
G36*
X60999468Y-41163565D02*
G01*
X61038138Y-41175296D01*
X61073777Y-41194346D01*
X61105017Y-41219983D01*
X61130654Y-41251223D01*
X61149704Y-41286862D01*
X61161435Y-41325532D01*
X61166000Y-41371888D01*
X61166000Y-42448112D01*
X61161435Y-42494468D01*
X61149704Y-42533138D01*
X61130654Y-42568777D01*
X61105017Y-42600017D01*
X61073777Y-42625654D01*
X61038138Y-42644704D01*
X60999468Y-42656435D01*
X60953112Y-42661000D01*
X60301888Y-42661000D01*
X60255532Y-42656435D01*
X60216862Y-42644704D01*
X60181223Y-42625654D01*
X60149983Y-42600017D01*
X60124346Y-42568777D01*
X60105296Y-42533138D01*
X60093565Y-42494468D01*
X60089000Y-42448112D01*
X60089000Y-41371888D01*
X60093565Y-41325532D01*
X60105296Y-41286862D01*
X60124346Y-41251223D01*
X60149983Y-41219983D01*
X60181223Y-41194346D01*
X60216862Y-41175296D01*
X60255532Y-41163565D01*
X60301888Y-41159000D01*
X60953112Y-41159000D01*
X60999468Y-41163565D01*
G37*
G36*
X45154468Y-41163565D02*
G01*
X45193138Y-41175296D01*
X45228777Y-41194346D01*
X45260017Y-41219983D01*
X45285654Y-41251223D01*
X45304704Y-41286862D01*
X45316435Y-41325532D01*
X45321000Y-41371888D01*
X45321000Y-42448112D01*
X45316435Y-42494468D01*
X45304704Y-42533138D01*
X45285654Y-42568777D01*
X45260017Y-42600017D01*
X45228777Y-42625654D01*
X45193138Y-42644704D01*
X45154468Y-42656435D01*
X45108112Y-42661000D01*
X44456888Y-42661000D01*
X44410532Y-42656435D01*
X44371862Y-42644704D01*
X44336223Y-42625654D01*
X44304983Y-42600017D01*
X44279346Y-42568777D01*
X44260296Y-42533138D01*
X44248565Y-42494468D01*
X44244000Y-42448112D01*
X44244000Y-41371888D01*
X44248565Y-41325532D01*
X44260296Y-41286862D01*
X44279346Y-41251223D01*
X44304983Y-41219983D01*
X44336223Y-41194346D01*
X44371862Y-41175296D01*
X44410532Y-41163565D01*
X44456888Y-41159000D01*
X45108112Y-41159000D01*
X45154468Y-41163565D01*
G37*
G36*
X25984468Y-41043565D02*
G01*
X26023138Y-41055296D01*
X26058777Y-41074346D01*
X26090017Y-41099983D01*
X26115654Y-41131223D01*
X26134704Y-41166862D01*
X26146435Y-41205532D01*
X26151000Y-41251888D01*
X26151000Y-41903112D01*
X26146435Y-41949468D01*
X26134704Y-41988138D01*
X26115654Y-42023777D01*
X26090017Y-42055017D01*
X26058777Y-42080654D01*
X26023138Y-42099704D01*
X25984468Y-42111435D01*
X25938112Y-42116000D01*
X24861888Y-42116000D01*
X24815532Y-42111435D01*
X24776862Y-42099704D01*
X24741223Y-42080654D01*
X24709983Y-42055017D01*
X24684346Y-42023777D01*
X24665296Y-41988138D01*
X24653565Y-41949468D01*
X24649000Y-41903112D01*
X24649000Y-41251888D01*
X24653565Y-41205532D01*
X24665296Y-41166862D01*
X24684346Y-41131223D01*
X24709983Y-41099983D01*
X24741223Y-41074346D01*
X24776862Y-41055296D01*
X24815532Y-41043565D01*
X24861888Y-41039000D01*
X25938112Y-41039000D01*
X25984468Y-41043565D01*
G37*
G36*
X106181000Y-42041000D02*
G01*
X105179000Y-42041000D01*
X105179000Y-41139000D01*
X106181000Y-41139000D01*
X106181000Y-42041000D01*
G37*
G36*
X41949468Y-39893565D02*
G01*
X41988138Y-39905296D01*
X42023777Y-39924346D01*
X42055017Y-39949983D01*
X42080654Y-39981223D01*
X42099704Y-40016862D01*
X42111435Y-40055532D01*
X42116000Y-40101888D01*
X42116000Y-41178112D01*
X42111435Y-41224468D01*
X42099704Y-41263138D01*
X42080654Y-41298777D01*
X42055017Y-41330017D01*
X42023777Y-41355654D01*
X41988138Y-41374704D01*
X41949468Y-41386435D01*
X41903112Y-41391000D01*
X41251888Y-41391000D01*
X41205532Y-41386435D01*
X41166862Y-41374704D01*
X41131223Y-41355654D01*
X41099983Y-41330017D01*
X41074346Y-41298777D01*
X41055296Y-41263138D01*
X41043565Y-41224468D01*
X41039000Y-41178112D01*
X41039000Y-40101888D01*
X41043565Y-40055532D01*
X41055296Y-40016862D01*
X41074346Y-39981223D01*
X41099983Y-39949983D01*
X41131223Y-39924346D01*
X41166862Y-39905296D01*
X41205532Y-39893565D01*
X41251888Y-39889000D01*
X41903112Y-39889000D01*
X41949468Y-39893565D01*
G37*
G36*
X40074468Y-39893565D02*
G01*
X40113138Y-39905296D01*
X40148777Y-39924346D01*
X40180017Y-39949983D01*
X40205654Y-39981223D01*
X40224704Y-40016862D01*
X40236435Y-40055532D01*
X40241000Y-40101888D01*
X40241000Y-41178112D01*
X40236435Y-41224468D01*
X40224704Y-41263138D01*
X40205654Y-41298777D01*
X40180017Y-41330017D01*
X40148777Y-41355654D01*
X40113138Y-41374704D01*
X40074468Y-41386435D01*
X40028112Y-41391000D01*
X39376888Y-41391000D01*
X39330532Y-41386435D01*
X39291862Y-41374704D01*
X39256223Y-41355654D01*
X39224983Y-41330017D01*
X39199346Y-41298777D01*
X39180296Y-41263138D01*
X39168565Y-41224468D01*
X39164000Y-41178112D01*
X39164000Y-40101888D01*
X39168565Y-40055532D01*
X39180296Y-40016862D01*
X39199346Y-39981223D01*
X39224983Y-39949983D01*
X39256223Y-39924346D01*
X39291862Y-39905296D01*
X39330532Y-39893565D01*
X39376888Y-39889000D01*
X40028112Y-39889000D01*
X40074468Y-39893565D01*
G37*
G36*
X108181000Y-41091000D02*
G01*
X107179000Y-41091000D01*
X107179000Y-40189000D01*
X108181000Y-40189000D01*
X108181000Y-41091000D01*
G37*
G36*
X19791938Y-40271716D02*
G01*
X19812557Y-40277971D01*
X19831553Y-40288124D01*
X19848208Y-40301792D01*
X19861876Y-40318447D01*
X19872029Y-40337443D01*
X19878284Y-40358062D01*
X19881000Y-40385640D01*
X19881000Y-40894360D01*
X19878284Y-40921938D01*
X19872029Y-40942557D01*
X19861876Y-40961553D01*
X19848208Y-40978208D01*
X19831553Y-40991876D01*
X19812557Y-41002029D01*
X19791938Y-41008284D01*
X19764360Y-41011000D01*
X19305640Y-41011000D01*
X19278062Y-41008284D01*
X19257443Y-41002029D01*
X19238447Y-40991876D01*
X19221792Y-40978208D01*
X19208124Y-40961553D01*
X19197971Y-40942557D01*
X19191716Y-40921938D01*
X19189000Y-40894360D01*
X19189000Y-40385640D01*
X19191716Y-40358062D01*
X19197971Y-40337443D01*
X19208124Y-40318447D01*
X19221792Y-40301792D01*
X19238447Y-40288124D01*
X19257443Y-40277971D01*
X19278062Y-40271716D01*
X19305640Y-40269000D01*
X19764360Y-40269000D01*
X19791938Y-40271716D01*
G37*
G36*
X18821938Y-40271716D02*
G01*
X18842557Y-40277971D01*
X18861553Y-40288124D01*
X18878208Y-40301792D01*
X18891876Y-40318447D01*
X18902029Y-40337443D01*
X18908284Y-40358062D01*
X18911000Y-40385640D01*
X18911000Y-40894360D01*
X18908284Y-40921938D01*
X18902029Y-40942557D01*
X18891876Y-40961553D01*
X18878208Y-40978208D01*
X18861553Y-40991876D01*
X18842557Y-41002029D01*
X18821938Y-41008284D01*
X18794360Y-41011000D01*
X18335640Y-41011000D01*
X18308062Y-41008284D01*
X18287443Y-41002029D01*
X18268447Y-40991876D01*
X18251792Y-40978208D01*
X18238124Y-40961553D01*
X18227971Y-40942557D01*
X18221716Y-40921938D01*
X18219000Y-40894360D01*
X18219000Y-40385640D01*
X18221716Y-40358062D01*
X18227971Y-40337443D01*
X18238124Y-40318447D01*
X18251792Y-40301792D01*
X18268447Y-40288124D01*
X18287443Y-40277971D01*
X18308062Y-40271716D01*
X18335640Y-40269000D01*
X18794360Y-40269000D01*
X18821938Y-40271716D01*
G37*
G36*
X25984468Y-39168565D02*
G01*
X26023138Y-39180296D01*
X26058777Y-39199346D01*
X26090017Y-39224983D01*
X26115654Y-39256223D01*
X26134704Y-39291862D01*
X26146435Y-39330532D01*
X26151000Y-39376888D01*
X26151000Y-40028112D01*
X26146435Y-40074468D01*
X26134704Y-40113138D01*
X26115654Y-40148777D01*
X26090017Y-40180017D01*
X26058777Y-40205654D01*
X26023138Y-40224704D01*
X25984468Y-40236435D01*
X25938112Y-40241000D01*
X24861888Y-40241000D01*
X24815532Y-40236435D01*
X24776862Y-40224704D01*
X24741223Y-40205654D01*
X24709983Y-40180017D01*
X24684346Y-40148777D01*
X24665296Y-40113138D01*
X24653565Y-40074468D01*
X24649000Y-40028112D01*
X24649000Y-39376888D01*
X24653565Y-39330532D01*
X24665296Y-39291862D01*
X24684346Y-39256223D01*
X24709983Y-39224983D01*
X24741223Y-39199346D01*
X24776862Y-39180296D01*
X24815532Y-39168565D01*
X24861888Y-39164000D01*
X25938112Y-39164000D01*
X25984468Y-39168565D01*
G37*
G36*
X106181000Y-40141000D02*
G01*
X105179000Y-40141000D01*
X105179000Y-39239000D01*
X106181000Y-39239000D01*
X106181000Y-40141000D01*
G37*
G36*
X55919468Y-38623565D02*
G01*
X55958138Y-38635296D01*
X55993777Y-38654346D01*
X56025017Y-38679983D01*
X56050654Y-38711223D01*
X56069704Y-38746862D01*
X56081435Y-38785532D01*
X56086000Y-38831888D01*
X56086000Y-39908112D01*
X56081435Y-39954468D01*
X56069704Y-39993138D01*
X56050654Y-40028777D01*
X56025017Y-40060017D01*
X55993777Y-40085654D01*
X55958138Y-40104704D01*
X55919468Y-40116435D01*
X55873112Y-40121000D01*
X55221888Y-40121000D01*
X55175532Y-40116435D01*
X55136862Y-40104704D01*
X55101223Y-40085654D01*
X55069983Y-40060017D01*
X55044346Y-40028777D01*
X55025296Y-39993138D01*
X55013565Y-39954468D01*
X55009000Y-39908112D01*
X55009000Y-38831888D01*
X55013565Y-38785532D01*
X55025296Y-38746862D01*
X55044346Y-38711223D01*
X55069983Y-38679983D01*
X55101223Y-38654346D01*
X55136862Y-38635296D01*
X55175532Y-38623565D01*
X55221888Y-38619000D01*
X55873112Y-38619000D01*
X55919468Y-38623565D01*
G37*
G36*
X54044468Y-38623565D02*
G01*
X54083138Y-38635296D01*
X54118777Y-38654346D01*
X54150017Y-38679983D01*
X54175654Y-38711223D01*
X54194704Y-38746862D01*
X54206435Y-38785532D01*
X54211000Y-38831888D01*
X54211000Y-39908112D01*
X54206435Y-39954468D01*
X54194704Y-39993138D01*
X54175654Y-40028777D01*
X54150017Y-40060017D01*
X54118777Y-40085654D01*
X54083138Y-40104704D01*
X54044468Y-40116435D01*
X53998112Y-40121000D01*
X53346888Y-40121000D01*
X53300532Y-40116435D01*
X53261862Y-40104704D01*
X53226223Y-40085654D01*
X53194983Y-40060017D01*
X53169346Y-40028777D01*
X53150296Y-39993138D01*
X53138565Y-39954468D01*
X53134000Y-39908112D01*
X53134000Y-38831888D01*
X53138565Y-38785532D01*
X53150296Y-38746862D01*
X53169346Y-38711223D01*
X53194983Y-38679983D01*
X53226223Y-38654346D01*
X53261862Y-38635296D01*
X53300532Y-38623565D01*
X53346888Y-38619000D01*
X53998112Y-38619000D01*
X54044468Y-38623565D01*
G37*
G36*
X65746968Y-38623565D02*
G01*
X65785638Y-38635296D01*
X65821277Y-38654346D01*
X65852517Y-38679983D01*
X65878154Y-38711223D01*
X65897204Y-38746862D01*
X65908935Y-38785532D01*
X65913500Y-38831888D01*
X65913500Y-39908112D01*
X65908935Y-39954468D01*
X65897204Y-39993138D01*
X65878154Y-40028777D01*
X65852517Y-40060017D01*
X65821277Y-40085654D01*
X65785638Y-40104704D01*
X65746968Y-40116435D01*
X65700612Y-40121000D01*
X65049388Y-40121000D01*
X65003032Y-40116435D01*
X64964362Y-40104704D01*
X64928723Y-40085654D01*
X64897483Y-40060017D01*
X64871846Y-40028777D01*
X64852796Y-39993138D01*
X64841065Y-39954468D01*
X64836500Y-39908112D01*
X64836500Y-38831888D01*
X64841065Y-38785532D01*
X64852796Y-38746862D01*
X64871846Y-38711223D01*
X64897483Y-38679983D01*
X64928723Y-38654346D01*
X64964362Y-38635296D01*
X65003032Y-38623565D01*
X65049388Y-38619000D01*
X65700612Y-38619000D01*
X65746968Y-38623565D01*
G37*
G36*
X63871968Y-38623565D02*
G01*
X63910638Y-38635296D01*
X63946277Y-38654346D01*
X63977517Y-38679983D01*
X64003154Y-38711223D01*
X64022204Y-38746862D01*
X64033935Y-38785532D01*
X64038500Y-38831888D01*
X64038500Y-39908112D01*
X64033935Y-39954468D01*
X64022204Y-39993138D01*
X64003154Y-40028777D01*
X63977517Y-40060017D01*
X63946277Y-40085654D01*
X63910638Y-40104704D01*
X63871968Y-40116435D01*
X63825612Y-40121000D01*
X63174388Y-40121000D01*
X63128032Y-40116435D01*
X63089362Y-40104704D01*
X63053723Y-40085654D01*
X63022483Y-40060017D01*
X62996846Y-40028777D01*
X62977796Y-39993138D01*
X62966065Y-39954468D01*
X62961500Y-39908112D01*
X62961500Y-38831888D01*
X62966065Y-38785532D01*
X62977796Y-38746862D01*
X62996846Y-38711223D01*
X63022483Y-38679983D01*
X63053723Y-38654346D01*
X63089362Y-38635296D01*
X63128032Y-38623565D01*
X63174388Y-38619000D01*
X63825612Y-38619000D01*
X63871968Y-38623565D01*
G37*
G36*
X32791938Y-39001716D02*
G01*
X32812557Y-39007971D01*
X32831553Y-39018124D01*
X32848208Y-39031792D01*
X32861876Y-39048447D01*
X32872029Y-39067443D01*
X32878284Y-39088062D01*
X32881000Y-39115640D01*
X32881000Y-39624360D01*
X32878284Y-39651938D01*
X32872029Y-39672557D01*
X32861876Y-39691553D01*
X32848208Y-39708208D01*
X32831553Y-39721876D01*
X32812557Y-39732029D01*
X32791938Y-39738284D01*
X32764360Y-39741000D01*
X32305640Y-39741000D01*
X32278062Y-39738284D01*
X32257443Y-39732029D01*
X32238447Y-39721876D01*
X32221792Y-39708208D01*
X32208124Y-39691553D01*
X32197971Y-39672557D01*
X32191716Y-39651938D01*
X32189000Y-39624360D01*
X32189000Y-39115640D01*
X32191716Y-39088062D01*
X32197971Y-39067443D01*
X32208124Y-39048447D01*
X32221792Y-39031792D01*
X32238447Y-39018124D01*
X32257443Y-39007971D01*
X32278062Y-39001716D01*
X32305640Y-38999000D01*
X32764360Y-38999000D01*
X32791938Y-39001716D01*
G37*
G36*
X33761938Y-39001716D02*
G01*
X33782557Y-39007971D01*
X33801553Y-39018124D01*
X33818208Y-39031792D01*
X33831876Y-39048447D01*
X33842029Y-39067443D01*
X33848284Y-39088062D01*
X33851000Y-39115640D01*
X33851000Y-39624360D01*
X33848284Y-39651938D01*
X33842029Y-39672557D01*
X33831876Y-39691553D01*
X33818208Y-39708208D01*
X33801553Y-39721876D01*
X33782557Y-39732029D01*
X33761938Y-39738284D01*
X33734360Y-39741000D01*
X33275640Y-39741000D01*
X33248062Y-39738284D01*
X33227443Y-39732029D01*
X33208447Y-39721876D01*
X33191792Y-39708208D01*
X33178124Y-39691553D01*
X33167971Y-39672557D01*
X33161716Y-39651938D01*
X33159000Y-39624360D01*
X33159000Y-39115640D01*
X33161716Y-39088062D01*
X33167971Y-39067443D01*
X33178124Y-39048447D01*
X33191792Y-39031792D01*
X33208447Y-39018124D01*
X33227443Y-39007971D01*
X33248062Y-39001716D01*
X33275640Y-38999000D01*
X33734360Y-38999000D01*
X33761938Y-39001716D01*
G37*
G36*
X79444468Y-37353565D02*
G01*
X79483138Y-37365296D01*
X79518777Y-37384346D01*
X79550017Y-37409983D01*
X79575654Y-37441223D01*
X79594704Y-37476862D01*
X79606435Y-37515532D01*
X79611000Y-37561888D01*
X79611000Y-38638112D01*
X79606435Y-38684468D01*
X79594704Y-38723138D01*
X79575654Y-38758777D01*
X79550017Y-38790017D01*
X79518777Y-38815654D01*
X79483138Y-38834704D01*
X79444468Y-38846435D01*
X79398112Y-38851000D01*
X78746888Y-38851000D01*
X78700532Y-38846435D01*
X78661862Y-38834704D01*
X78626223Y-38815654D01*
X78594983Y-38790017D01*
X78569346Y-38758777D01*
X78550296Y-38723138D01*
X78538565Y-38684468D01*
X78534000Y-38638112D01*
X78534000Y-37561888D01*
X78538565Y-37515532D01*
X78550296Y-37476862D01*
X78569346Y-37441223D01*
X78594983Y-37409983D01*
X78626223Y-37384346D01*
X78661862Y-37365296D01*
X78700532Y-37353565D01*
X78746888Y-37349000D01*
X79398112Y-37349000D01*
X79444468Y-37353565D01*
G37*
G36*
X81319468Y-37353565D02*
G01*
X81358138Y-37365296D01*
X81393777Y-37384346D01*
X81425017Y-37409983D01*
X81450654Y-37441223D01*
X81469704Y-37476862D01*
X81481435Y-37515532D01*
X81486000Y-37561888D01*
X81486000Y-38638112D01*
X81481435Y-38684468D01*
X81469704Y-38723138D01*
X81450654Y-38758777D01*
X81425017Y-38790017D01*
X81393777Y-38815654D01*
X81358138Y-38834704D01*
X81319468Y-38846435D01*
X81273112Y-38851000D01*
X80621888Y-38851000D01*
X80575532Y-38846435D01*
X80536862Y-38834704D01*
X80501223Y-38815654D01*
X80469983Y-38790017D01*
X80444346Y-38758777D01*
X80425296Y-38723138D01*
X80413565Y-38684468D01*
X80409000Y-38638112D01*
X80409000Y-37561888D01*
X80413565Y-37515532D01*
X80425296Y-37476862D01*
X80444346Y-37441223D01*
X80469983Y-37409983D01*
X80501223Y-37384346D01*
X80536862Y-37365296D01*
X80575532Y-37353565D01*
X80621888Y-37349000D01*
X81273112Y-37349000D01*
X81319468Y-37353565D01*
G37*
G36*
X97858228Y-36503304D02*
G01*
X98013100Y-36567454D01*
X98152481Y-36660586D01*
X98271015Y-36779120D01*
X98364147Y-36918501D01*
X98428297Y-37073373D01*
X98461000Y-37237785D01*
X98461000Y-37405417D01*
X98428297Y-37569829D01*
X98364147Y-37724701D01*
X98271015Y-37864082D01*
X98152481Y-37982616D01*
X98013100Y-38075748D01*
X97858228Y-38139898D01*
X97693816Y-38172601D01*
X97526184Y-38172601D01*
X97361772Y-38139898D01*
X97206900Y-38075748D01*
X97067519Y-37982616D01*
X96948985Y-37864082D01*
X96855853Y-37724701D01*
X96791703Y-37569829D01*
X96759000Y-37405417D01*
X96759000Y-37237785D01*
X96791703Y-37073373D01*
X96855853Y-36918501D01*
X96948985Y-36779120D01*
X97067519Y-36660586D01*
X97206900Y-36567454D01*
X97361772Y-36503304D01*
X97526184Y-36470601D01*
X97693816Y-36470601D01*
X97858228Y-36503304D01*
G37*
G36*
X50271938Y-36461716D02*
G01*
X50292557Y-36467971D01*
X50311553Y-36478124D01*
X50328208Y-36491792D01*
X50341876Y-36508447D01*
X50352029Y-36527443D01*
X50358284Y-36548062D01*
X50361000Y-36575640D01*
X50361000Y-37084360D01*
X50358284Y-37111938D01*
X50352029Y-37132557D01*
X50341876Y-37151553D01*
X50328208Y-37168208D01*
X50311553Y-37181876D01*
X50292557Y-37192029D01*
X50271938Y-37198284D01*
X50244360Y-37201000D01*
X49785640Y-37201000D01*
X49758062Y-37198284D01*
X49737443Y-37192029D01*
X49718447Y-37181876D01*
X49701792Y-37168208D01*
X49688124Y-37151553D01*
X49677971Y-37132557D01*
X49671716Y-37111938D01*
X49669000Y-37084360D01*
X49669000Y-36575640D01*
X49671716Y-36548062D01*
X49677971Y-36527443D01*
X49688124Y-36508447D01*
X49701792Y-36491792D01*
X49718447Y-36478124D01*
X49737443Y-36467971D01*
X49758062Y-36461716D01*
X49785640Y-36459000D01*
X50244360Y-36459000D01*
X50271938Y-36461716D01*
G37*
G36*
X49301938Y-36461716D02*
G01*
X49322557Y-36467971D01*
X49341553Y-36478124D01*
X49358208Y-36491792D01*
X49371876Y-36508447D01*
X49382029Y-36527443D01*
X49388284Y-36548062D01*
X49391000Y-36575640D01*
X49391000Y-37084360D01*
X49388284Y-37111938D01*
X49382029Y-37132557D01*
X49371876Y-37151553D01*
X49358208Y-37168208D01*
X49341553Y-37181876D01*
X49322557Y-37192029D01*
X49301938Y-37198284D01*
X49274360Y-37201000D01*
X48815640Y-37201000D01*
X48788062Y-37198284D01*
X48767443Y-37192029D01*
X48748447Y-37181876D01*
X48731792Y-37168208D01*
X48718124Y-37151553D01*
X48707971Y-37132557D01*
X48701716Y-37111938D01*
X48699000Y-37084360D01*
X48699000Y-36575640D01*
X48701716Y-36548062D01*
X48707971Y-36527443D01*
X48718124Y-36508447D01*
X48731792Y-36491792D01*
X48748447Y-36478124D01*
X48767443Y-36467971D01*
X48788062Y-36461716D01*
X48815640Y-36459000D01*
X49274360Y-36459000D01*
X49301938Y-36461716D01*
G37*
G36*
X97858228Y-34003304D02*
G01*
X98013100Y-34067454D01*
X98152481Y-34160586D01*
X98271015Y-34279120D01*
X98364147Y-34418501D01*
X98428297Y-34573373D01*
X98461000Y-34737785D01*
X98461000Y-34905417D01*
X98428297Y-35069829D01*
X98364147Y-35224701D01*
X98271015Y-35364082D01*
X98152481Y-35482616D01*
X98013100Y-35575748D01*
X97858228Y-35639898D01*
X97693816Y-35672601D01*
X97526184Y-35672601D01*
X97361772Y-35639898D01*
X97206900Y-35575748D01*
X97067519Y-35482616D01*
X96948985Y-35364082D01*
X96855853Y-35224701D01*
X96791703Y-35069829D01*
X96759000Y-34905417D01*
X96759000Y-34737785D01*
X96791703Y-34573373D01*
X96855853Y-34418501D01*
X96948985Y-34279120D01*
X97067519Y-34160586D01*
X97206900Y-34067454D01*
X97361772Y-34003304D01*
X97526184Y-33970601D01*
X97693816Y-33970601D01*
X97858228Y-34003304D01*
G37*
G36*
X57387142Y-33668242D02*
G01*
X57535101Y-33729529D01*
X57668255Y-33818499D01*
X57781501Y-33931745D01*
X57870471Y-34064899D01*
X57931758Y-34212858D01*
X57963000Y-34369925D01*
X57963000Y-34530075D01*
X57931758Y-34687142D01*
X57870471Y-34835101D01*
X57781501Y-34968255D01*
X57668255Y-35081501D01*
X57535101Y-35170471D01*
X57387142Y-35231758D01*
X57230075Y-35263000D01*
X57069925Y-35263000D01*
X56912858Y-35231758D01*
X56764899Y-35170471D01*
X56631745Y-35081501D01*
X56518499Y-34968255D01*
X56429529Y-34835101D01*
X56368242Y-34687142D01*
X56337000Y-34530075D01*
X56337000Y-34369925D01*
X56368242Y-34212858D01*
X56429529Y-34064899D01*
X56518499Y-33931745D01*
X56631745Y-33818499D01*
X56764899Y-33729529D01*
X56912858Y-33668242D01*
X57069925Y-33637000D01*
X57230075Y-33637000D01*
X57387142Y-33668242D01*
G37*
G36*
X72627142Y-33668242D02*
G01*
X72775101Y-33729529D01*
X72908255Y-33818499D01*
X73021501Y-33931745D01*
X73110471Y-34064899D01*
X73171758Y-34212858D01*
X73203000Y-34369925D01*
X73203000Y-34530075D01*
X73171758Y-34687142D01*
X73110471Y-34835101D01*
X73021501Y-34968255D01*
X72908255Y-35081501D01*
X72775101Y-35170471D01*
X72627142Y-35231758D01*
X72470075Y-35263000D01*
X72309925Y-35263000D01*
X72152858Y-35231758D01*
X72004899Y-35170471D01*
X71871745Y-35081501D01*
X71758499Y-34968255D01*
X71669529Y-34835101D01*
X71608242Y-34687142D01*
X71577000Y-34530075D01*
X71577000Y-34369925D01*
X71608242Y-34212858D01*
X71669529Y-34064899D01*
X71758499Y-33931745D01*
X71871745Y-33818499D01*
X72004899Y-33729529D01*
X72152858Y-33668242D01*
X72309925Y-33637000D01*
X72470075Y-33637000D01*
X72627142Y-33668242D01*
G37*
G36*
X26907142Y-33668242D02*
G01*
X27055101Y-33729529D01*
X27188255Y-33818499D01*
X27301501Y-33931745D01*
X27390471Y-34064899D01*
X27451758Y-34212858D01*
X27483000Y-34369925D01*
X27483000Y-34530075D01*
X27451758Y-34687142D01*
X27390471Y-34835101D01*
X27301501Y-34968255D01*
X27188255Y-35081501D01*
X27055101Y-35170471D01*
X26907142Y-35231758D01*
X26750075Y-35263000D01*
X26589925Y-35263000D01*
X26432858Y-35231758D01*
X26284899Y-35170471D01*
X26151745Y-35081501D01*
X26038499Y-34968255D01*
X25949529Y-34835101D01*
X25888242Y-34687142D01*
X25857000Y-34530075D01*
X25857000Y-34369925D01*
X25888242Y-34212858D01*
X25949529Y-34064899D01*
X26038499Y-33931745D01*
X26151745Y-33818499D01*
X26284899Y-33729529D01*
X26432858Y-33668242D01*
X26589925Y-33637000D01*
X26750075Y-33637000D01*
X26907142Y-33668242D01*
G37*
G36*
X42147142Y-33668242D02*
G01*
X42295101Y-33729529D01*
X42428255Y-33818499D01*
X42541501Y-33931745D01*
X42630471Y-34064899D01*
X42691758Y-34212858D01*
X42723000Y-34369925D01*
X42723000Y-34530075D01*
X42691758Y-34687142D01*
X42630471Y-34835101D01*
X42541501Y-34968255D01*
X42428255Y-35081501D01*
X42295101Y-35170471D01*
X42147142Y-35231758D01*
X41990075Y-35263000D01*
X41829925Y-35263000D01*
X41672858Y-35231758D01*
X41524899Y-35170471D01*
X41391745Y-35081501D01*
X41278499Y-34968255D01*
X41189529Y-34835101D01*
X41128242Y-34687142D01*
X41097000Y-34530075D01*
X41097000Y-34369925D01*
X41128242Y-34212858D01*
X41189529Y-34064899D01*
X41278499Y-33931745D01*
X41391745Y-33818499D01*
X41524899Y-33729529D01*
X41672858Y-33668242D01*
X41829925Y-33637000D01*
X41990075Y-33637000D01*
X42147142Y-33668242D01*
G37*
G36*
X44687142Y-33508242D02*
G01*
X44835101Y-33569529D01*
X44968255Y-33658499D01*
X45081501Y-33771745D01*
X45170471Y-33904899D01*
X45231758Y-34052858D01*
X45263000Y-34209925D01*
X45263000Y-34370075D01*
X45231758Y-34527142D01*
X45170471Y-34675101D01*
X45081501Y-34808255D01*
X44968255Y-34921501D01*
X44835101Y-35010471D01*
X44687142Y-35071758D01*
X44530075Y-35103000D01*
X44369925Y-35103000D01*
X44212858Y-35071758D01*
X44064899Y-35010471D01*
X43931745Y-34921501D01*
X43818499Y-34808255D01*
X43729529Y-34675101D01*
X43668242Y-34527142D01*
X43637000Y-34370075D01*
X43637000Y-34209925D01*
X43668242Y-34052858D01*
X43729529Y-33904899D01*
X43818499Y-33771745D01*
X43931745Y-33658499D01*
X44064899Y-33569529D01*
X44212858Y-33508242D01*
X44369925Y-33477000D01*
X44530075Y-33477000D01*
X44687142Y-33508242D01*
G37*
G36*
X39607142Y-33508242D02*
G01*
X39755101Y-33569529D01*
X39888255Y-33658499D01*
X40001501Y-33771745D01*
X40090471Y-33904899D01*
X40151758Y-34052858D01*
X40183000Y-34209925D01*
X40183000Y-34370075D01*
X40151758Y-34527142D01*
X40090471Y-34675101D01*
X40001501Y-34808255D01*
X39888255Y-34921501D01*
X39755101Y-35010471D01*
X39607142Y-35071758D01*
X39450075Y-35103000D01*
X39289925Y-35103000D01*
X39132858Y-35071758D01*
X38984899Y-35010471D01*
X38851745Y-34921501D01*
X38738499Y-34808255D01*
X38649529Y-34675101D01*
X38588242Y-34527142D01*
X38557000Y-34370075D01*
X38557000Y-34209925D01*
X38588242Y-34052858D01*
X38649529Y-33904899D01*
X38738499Y-33771745D01*
X38851745Y-33658499D01*
X38984899Y-33569529D01*
X39132858Y-33508242D01*
X39289925Y-33477000D01*
X39450075Y-33477000D01*
X39607142Y-33508242D01*
G37*
G36*
X59927142Y-33508242D02*
G01*
X60075101Y-33569529D01*
X60208255Y-33658499D01*
X60321501Y-33771745D01*
X60410471Y-33904899D01*
X60471758Y-34052858D01*
X60503000Y-34209925D01*
X60503000Y-34370075D01*
X60471758Y-34527142D01*
X60410471Y-34675101D01*
X60321501Y-34808255D01*
X60208255Y-34921501D01*
X60075101Y-35010471D01*
X59927142Y-35071758D01*
X59770075Y-35103000D01*
X59609925Y-35103000D01*
X59452858Y-35071758D01*
X59304899Y-35010471D01*
X59171745Y-34921501D01*
X59058499Y-34808255D01*
X58969529Y-34675101D01*
X58908242Y-34527142D01*
X58877000Y-34370075D01*
X58877000Y-34209925D01*
X58908242Y-34052858D01*
X58969529Y-33904899D01*
X59058499Y-33771745D01*
X59171745Y-33658499D01*
X59304899Y-33569529D01*
X59452858Y-33508242D01*
X59609925Y-33477000D01*
X59770075Y-33477000D01*
X59927142Y-33508242D01*
G37*
G36*
X54847142Y-33508242D02*
G01*
X54995101Y-33569529D01*
X55128255Y-33658499D01*
X55241501Y-33771745D01*
X55330471Y-33904899D01*
X55391758Y-34052858D01*
X55423000Y-34209925D01*
X55423000Y-34370075D01*
X55391758Y-34527142D01*
X55330471Y-34675101D01*
X55241501Y-34808255D01*
X55128255Y-34921501D01*
X54995101Y-35010471D01*
X54847142Y-35071758D01*
X54690075Y-35103000D01*
X54529925Y-35103000D01*
X54372858Y-35071758D01*
X54224899Y-35010471D01*
X54091745Y-34921501D01*
X53978499Y-34808255D01*
X53889529Y-34675101D01*
X53828242Y-34527142D01*
X53797000Y-34370075D01*
X53797000Y-34209925D01*
X53828242Y-34052858D01*
X53889529Y-33904899D01*
X53978499Y-33771745D01*
X54091745Y-33658499D01*
X54224899Y-33569529D01*
X54372858Y-33508242D01*
X54529925Y-33477000D01*
X54690075Y-33477000D01*
X54847142Y-33508242D01*
G37*
G36*
X24367142Y-33508242D02*
G01*
X24515101Y-33569529D01*
X24648255Y-33658499D01*
X24761501Y-33771745D01*
X24850471Y-33904899D01*
X24911758Y-34052858D01*
X24943000Y-34209925D01*
X24943000Y-34370075D01*
X24911758Y-34527142D01*
X24850471Y-34675101D01*
X24761501Y-34808255D01*
X24648255Y-34921501D01*
X24515101Y-35010471D01*
X24367142Y-35071758D01*
X24210075Y-35103000D01*
X24049925Y-35103000D01*
X23892858Y-35071758D01*
X23744899Y-35010471D01*
X23611745Y-34921501D01*
X23498499Y-34808255D01*
X23409529Y-34675101D01*
X23348242Y-34527142D01*
X23317000Y-34370075D01*
X23317000Y-34209925D01*
X23348242Y-34052858D01*
X23409529Y-33904899D01*
X23498499Y-33771745D01*
X23611745Y-33658499D01*
X23744899Y-33569529D01*
X23892858Y-33508242D01*
X24049925Y-33477000D01*
X24210075Y-33477000D01*
X24367142Y-33508242D01*
G37*
G36*
X29447142Y-33508242D02*
G01*
X29595101Y-33569529D01*
X29728255Y-33658499D01*
X29841501Y-33771745D01*
X29930471Y-33904899D01*
X29991758Y-34052858D01*
X30023000Y-34209925D01*
X30023000Y-34370075D01*
X29991758Y-34527142D01*
X29930471Y-34675101D01*
X29841501Y-34808255D01*
X29728255Y-34921501D01*
X29595101Y-35010471D01*
X29447142Y-35071758D01*
X29290075Y-35103000D01*
X29129925Y-35103000D01*
X28972858Y-35071758D01*
X28824899Y-35010471D01*
X28691745Y-34921501D01*
X28578499Y-34808255D01*
X28489529Y-34675101D01*
X28428242Y-34527142D01*
X28397000Y-34370075D01*
X28397000Y-34209925D01*
X28428242Y-34052858D01*
X28489529Y-33904899D01*
X28578499Y-33771745D01*
X28691745Y-33658499D01*
X28824899Y-33569529D01*
X28972858Y-33508242D01*
X29129925Y-33477000D01*
X29290075Y-33477000D01*
X29447142Y-33508242D01*
G37*
G36*
X70087142Y-33508242D02*
G01*
X70235101Y-33569529D01*
X70368255Y-33658499D01*
X70481501Y-33771745D01*
X70570471Y-33904899D01*
X70631758Y-34052858D01*
X70663000Y-34209925D01*
X70663000Y-34370075D01*
X70631758Y-34527142D01*
X70570471Y-34675101D01*
X70481501Y-34808255D01*
X70368255Y-34921501D01*
X70235101Y-35010471D01*
X70087142Y-35071758D01*
X69930075Y-35103000D01*
X69769925Y-35103000D01*
X69612858Y-35071758D01*
X69464899Y-35010471D01*
X69331745Y-34921501D01*
X69218499Y-34808255D01*
X69129529Y-34675101D01*
X69068242Y-34527142D01*
X69037000Y-34370075D01*
X69037000Y-34209925D01*
X69068242Y-34052858D01*
X69129529Y-33904899D01*
X69218499Y-33771745D01*
X69331745Y-33658499D01*
X69464899Y-33569529D01*
X69612858Y-33508242D01*
X69769925Y-33477000D01*
X69930075Y-33477000D01*
X70087142Y-33508242D01*
G37*
G36*
X75167142Y-33508242D02*
G01*
X75315101Y-33569529D01*
X75448255Y-33658499D01*
X75561501Y-33771745D01*
X75650471Y-33904899D01*
X75711758Y-34052858D01*
X75743000Y-34209925D01*
X75743000Y-34370075D01*
X75711758Y-34527142D01*
X75650471Y-34675101D01*
X75561501Y-34808255D01*
X75448255Y-34921501D01*
X75315101Y-35010471D01*
X75167142Y-35071758D01*
X75010075Y-35103000D01*
X74849925Y-35103000D01*
X74692858Y-35071758D01*
X74544899Y-35010471D01*
X74411745Y-34921501D01*
X74298499Y-34808255D01*
X74209529Y-34675101D01*
X74148242Y-34527142D01*
X74117000Y-34370075D01*
X74117000Y-34209925D01*
X74148242Y-34052858D01*
X74209529Y-33904899D01*
X74298499Y-33771745D01*
X74411745Y-33658499D01*
X74544899Y-33569529D01*
X74692858Y-33508242D01*
X74849925Y-33477000D01*
X75010075Y-33477000D01*
X75167142Y-33508242D01*
G37*
G36*
X128776150Y-30792717D02*
G01*
X128887335Y-30814833D01*
X129096804Y-30901598D01*
X129285321Y-31027561D01*
X129445641Y-31187881D01*
X129571604Y-31376398D01*
X129571605Y-31376400D01*
X129658369Y-31585868D01*
X129702601Y-31808236D01*
X129702601Y-32034966D01*
X129658369Y-32257334D01*
X129572732Y-32464082D01*
X129571604Y-32466804D01*
X129445641Y-32655321D01*
X129285321Y-32815641D01*
X129096804Y-32941604D01*
X128887335Y-33028369D01*
X128776150Y-33050485D01*
X128664966Y-33072601D01*
X128438236Y-33072601D01*
X128327052Y-33050485D01*
X128215867Y-33028369D01*
X128006398Y-32941604D01*
X127817881Y-32815641D01*
X127657561Y-32655321D01*
X127531598Y-32466804D01*
X127530471Y-32464082D01*
X127444833Y-32257334D01*
X127400601Y-32034966D01*
X127400601Y-31808236D01*
X127444833Y-31585868D01*
X127531597Y-31376400D01*
X127531598Y-31376398D01*
X127657561Y-31187881D01*
X127817881Y-31027561D01*
X128006398Y-30901598D01*
X128215867Y-30814833D01*
X128327052Y-30792717D01*
X128438236Y-30770601D01*
X128664966Y-30770601D01*
X128776150Y-30792717D01*
G37*
G36*
X109776150Y-30792717D02*
G01*
X109887335Y-30814833D01*
X110096804Y-30901598D01*
X110285321Y-31027561D01*
X110445641Y-31187881D01*
X110571604Y-31376398D01*
X110571605Y-31376400D01*
X110658369Y-31585868D01*
X110702601Y-31808236D01*
X110702601Y-32034966D01*
X110658369Y-32257334D01*
X110572732Y-32464082D01*
X110571604Y-32466804D01*
X110445641Y-32655321D01*
X110285321Y-32815641D01*
X110096804Y-32941604D01*
X109887335Y-33028369D01*
X109776150Y-33050485D01*
X109664966Y-33072601D01*
X109438236Y-33072601D01*
X109327052Y-33050485D01*
X109215867Y-33028369D01*
X109006398Y-32941604D01*
X108817881Y-32815641D01*
X108657561Y-32655321D01*
X108531598Y-32466804D01*
X108530471Y-32464082D01*
X108444833Y-32257334D01*
X108400601Y-32034966D01*
X108400601Y-31808236D01*
X108444833Y-31585868D01*
X108531597Y-31376400D01*
X108531598Y-31376398D01*
X108657561Y-31187881D01*
X108817881Y-31027561D01*
X109006398Y-30901598D01*
X109215867Y-30814833D01*
X109327052Y-30792717D01*
X109438236Y-30770601D01*
X109664966Y-30770601D01*
X109776150Y-30792717D01*
G37*
G36*
X100458228Y-31103304D02*
G01*
X100613100Y-31167454D01*
X100752481Y-31260586D01*
X100871015Y-31379120D01*
X100964147Y-31518501D01*
X101028297Y-31673373D01*
X101061000Y-31837785D01*
X101061000Y-32005417D01*
X101028297Y-32169829D01*
X100964147Y-32324701D01*
X100871015Y-32464082D01*
X100752481Y-32582616D01*
X100613100Y-32675748D01*
X100458228Y-32739898D01*
X100293816Y-32772601D01*
X100126184Y-32772601D01*
X99961772Y-32739898D01*
X99806900Y-32675748D01*
X99667519Y-32582616D01*
X99548985Y-32464082D01*
X99455853Y-32324701D01*
X99391703Y-32169829D01*
X99359000Y-32005417D01*
X99359000Y-31837785D01*
X99391703Y-31673373D01*
X99455853Y-31518501D01*
X99548985Y-31379120D01*
X99667519Y-31260586D01*
X99806900Y-31167454D01*
X99961772Y-31103304D01*
X100126184Y-31070601D01*
X100293816Y-31070601D01*
X100458228Y-31103304D01*
G37*
G36*
X85458228Y-31103304D02*
G01*
X85613100Y-31167454D01*
X85752481Y-31260586D01*
X85871015Y-31379120D01*
X85964147Y-31518501D01*
X86028297Y-31673373D01*
X86061000Y-31837785D01*
X86061000Y-32005417D01*
X86028297Y-32169829D01*
X85964147Y-32324701D01*
X85871015Y-32464082D01*
X85752481Y-32582616D01*
X85613100Y-32675748D01*
X85458228Y-32739898D01*
X85293816Y-32772601D01*
X85126184Y-32772601D01*
X84961772Y-32739898D01*
X84806900Y-32675748D01*
X84667519Y-32582616D01*
X84548985Y-32464082D01*
X84455853Y-32324701D01*
X84391703Y-32169829D01*
X84359000Y-32005417D01*
X84359000Y-31837785D01*
X84391703Y-31673373D01*
X84455853Y-31518501D01*
X84548985Y-31379120D01*
X84667519Y-31260586D01*
X84806900Y-31167454D01*
X84961772Y-31103304D01*
X85126184Y-31070601D01*
X85293816Y-31070601D01*
X85458228Y-31103304D01*
G37*
G36*
X54847142Y-28428242D02*
G01*
X54995101Y-28489529D01*
X55128255Y-28578499D01*
X55241501Y-28691745D01*
X55330471Y-28824899D01*
X55391758Y-28972858D01*
X55423000Y-29129925D01*
X55423000Y-29290075D01*
X55391758Y-29447142D01*
X55330471Y-29595101D01*
X55241501Y-29728255D01*
X55128255Y-29841501D01*
X54995101Y-29930471D01*
X54847142Y-29991758D01*
X54690075Y-30023000D01*
X54529925Y-30023000D01*
X54372858Y-29991758D01*
X54224899Y-29930471D01*
X54091745Y-29841501D01*
X53978499Y-29728255D01*
X53889529Y-29595101D01*
X53828242Y-29447142D01*
X53797000Y-29290075D01*
X53797000Y-29129925D01*
X53828242Y-28972858D01*
X53889529Y-28824899D01*
X53978499Y-28691745D01*
X54091745Y-28578499D01*
X54224899Y-28489529D01*
X54372858Y-28428242D01*
X54529925Y-28397000D01*
X54690075Y-28397000D01*
X54847142Y-28428242D01*
G37*
G36*
X75167142Y-28428242D02*
G01*
X75315101Y-28489529D01*
X75448255Y-28578499D01*
X75561501Y-28691745D01*
X75650471Y-28824899D01*
X75711758Y-28972858D01*
X75743000Y-29129925D01*
X75743000Y-29290075D01*
X75711758Y-29447142D01*
X75650471Y-29595101D01*
X75561501Y-29728255D01*
X75448255Y-29841501D01*
X75315101Y-29930471D01*
X75167142Y-29991758D01*
X75010075Y-30023000D01*
X74849925Y-30023000D01*
X74692858Y-29991758D01*
X74544899Y-29930471D01*
X74411745Y-29841501D01*
X74298499Y-29728255D01*
X74209529Y-29595101D01*
X74148242Y-29447142D01*
X74117000Y-29290075D01*
X74117000Y-29129925D01*
X74148242Y-28972858D01*
X74209529Y-28824899D01*
X74298499Y-28691745D01*
X74411745Y-28578499D01*
X74544899Y-28489529D01*
X74692858Y-28428242D01*
X74849925Y-28397000D01*
X75010075Y-28397000D01*
X75167142Y-28428242D01*
G37*
G36*
X24367142Y-28428242D02*
G01*
X24515101Y-28489529D01*
X24648255Y-28578499D01*
X24761501Y-28691745D01*
X24850471Y-28824899D01*
X24911758Y-28972858D01*
X24943000Y-29129925D01*
X24943000Y-29290075D01*
X24911758Y-29447142D01*
X24850471Y-29595101D01*
X24761501Y-29728255D01*
X24648255Y-29841501D01*
X24515101Y-29930471D01*
X24367142Y-29991758D01*
X24210075Y-30023000D01*
X24049925Y-30023000D01*
X23892858Y-29991758D01*
X23744899Y-29930471D01*
X23611745Y-29841501D01*
X23498499Y-29728255D01*
X23409529Y-29595101D01*
X23348242Y-29447142D01*
X23317000Y-29290075D01*
X23317000Y-29129925D01*
X23348242Y-28972858D01*
X23409529Y-28824899D01*
X23498499Y-28691745D01*
X23611745Y-28578499D01*
X23744899Y-28489529D01*
X23892858Y-28428242D01*
X24049925Y-28397000D01*
X24210075Y-28397000D01*
X24367142Y-28428242D01*
G37*
G36*
X70087142Y-28428242D02*
G01*
X70235101Y-28489529D01*
X70368255Y-28578499D01*
X70481501Y-28691745D01*
X70570471Y-28824899D01*
X70631758Y-28972858D01*
X70663000Y-29129925D01*
X70663000Y-29290075D01*
X70631758Y-29447142D01*
X70570471Y-29595101D01*
X70481501Y-29728255D01*
X70368255Y-29841501D01*
X70235101Y-29930471D01*
X70087142Y-29991758D01*
X69930075Y-30023000D01*
X69769925Y-30023000D01*
X69612858Y-29991758D01*
X69464899Y-29930471D01*
X69331745Y-29841501D01*
X69218499Y-29728255D01*
X69129529Y-29595101D01*
X69068242Y-29447142D01*
X69037000Y-29290075D01*
X69037000Y-29129925D01*
X69068242Y-28972858D01*
X69129529Y-28824899D01*
X69218499Y-28691745D01*
X69331745Y-28578499D01*
X69464899Y-28489529D01*
X69612858Y-28428242D01*
X69769925Y-28397000D01*
X69930075Y-28397000D01*
X70087142Y-28428242D01*
G37*
G36*
X29447142Y-28428242D02*
G01*
X29595101Y-28489529D01*
X29728255Y-28578499D01*
X29841501Y-28691745D01*
X29930471Y-28824899D01*
X29991758Y-28972858D01*
X30023000Y-29129925D01*
X30023000Y-29290075D01*
X29991758Y-29447142D01*
X29930471Y-29595101D01*
X29841501Y-29728255D01*
X29728255Y-29841501D01*
X29595101Y-29930471D01*
X29447142Y-29991758D01*
X29290075Y-30023000D01*
X29129925Y-30023000D01*
X28972858Y-29991758D01*
X28824899Y-29930471D01*
X28691745Y-29841501D01*
X28578499Y-29728255D01*
X28489529Y-29595101D01*
X28428242Y-29447142D01*
X28397000Y-29290075D01*
X28397000Y-29129925D01*
X28428242Y-28972858D01*
X28489529Y-28824899D01*
X28578499Y-28691745D01*
X28691745Y-28578499D01*
X28824899Y-28489529D01*
X28972858Y-28428242D01*
X29129925Y-28397000D01*
X29290075Y-28397000D01*
X29447142Y-28428242D01*
G37*
G36*
X59927142Y-28428242D02*
G01*
X60075101Y-28489529D01*
X60208255Y-28578499D01*
X60321501Y-28691745D01*
X60410471Y-28824899D01*
X60471758Y-28972858D01*
X60503000Y-29129925D01*
X60503000Y-29290075D01*
X60471758Y-29447142D01*
X60410471Y-29595101D01*
X60321501Y-29728255D01*
X60208255Y-29841501D01*
X60075101Y-29930471D01*
X59927142Y-29991758D01*
X59770075Y-30023000D01*
X59609925Y-30023000D01*
X59452858Y-29991758D01*
X59304899Y-29930471D01*
X59171745Y-29841501D01*
X59058499Y-29728255D01*
X58969529Y-29595101D01*
X58908242Y-29447142D01*
X58877000Y-29290075D01*
X58877000Y-29129925D01*
X58908242Y-28972858D01*
X58969529Y-28824899D01*
X59058499Y-28691745D01*
X59171745Y-28578499D01*
X59304899Y-28489529D01*
X59452858Y-28428242D01*
X59609925Y-28397000D01*
X59770075Y-28397000D01*
X59927142Y-28428242D01*
G37*
G36*
X39607142Y-28428242D02*
G01*
X39755101Y-28489529D01*
X39888255Y-28578499D01*
X40001501Y-28691745D01*
X40090471Y-28824899D01*
X40151758Y-28972858D01*
X40183000Y-29129925D01*
X40183000Y-29290075D01*
X40151758Y-29447142D01*
X40090471Y-29595101D01*
X40001501Y-29728255D01*
X39888255Y-29841501D01*
X39755101Y-29930471D01*
X39607142Y-29991758D01*
X39450075Y-30023000D01*
X39289925Y-30023000D01*
X39132858Y-29991758D01*
X38984899Y-29930471D01*
X38851745Y-29841501D01*
X38738499Y-29728255D01*
X38649529Y-29595101D01*
X38588242Y-29447142D01*
X38557000Y-29290075D01*
X38557000Y-29129925D01*
X38588242Y-28972858D01*
X38649529Y-28824899D01*
X38738499Y-28691745D01*
X38851745Y-28578499D01*
X38984899Y-28489529D01*
X39132858Y-28428242D01*
X39289925Y-28397000D01*
X39450075Y-28397000D01*
X39607142Y-28428242D01*
G37*
G36*
X44687142Y-28428242D02*
G01*
X44835101Y-28489529D01*
X44968255Y-28578499D01*
X45081501Y-28691745D01*
X45170471Y-28824899D01*
X45231758Y-28972858D01*
X45263000Y-29129925D01*
X45263000Y-29290075D01*
X45231758Y-29447142D01*
X45170471Y-29595101D01*
X45081501Y-29728255D01*
X44968255Y-29841501D01*
X44835101Y-29930471D01*
X44687142Y-29991758D01*
X44530075Y-30023000D01*
X44369925Y-30023000D01*
X44212858Y-29991758D01*
X44064899Y-29930471D01*
X43931745Y-29841501D01*
X43818499Y-29728255D01*
X43729529Y-29595101D01*
X43668242Y-29447142D01*
X43637000Y-29290075D01*
X43637000Y-29129925D01*
X43668242Y-28972858D01*
X43729529Y-28824899D01*
X43818499Y-28691745D01*
X43931745Y-28578499D01*
X44064899Y-28489529D01*
X44212858Y-28428242D01*
X44369925Y-28397000D01*
X44530075Y-28397000D01*
X44687142Y-28428242D01*
G37*
G36*
X26907142Y-28268242D02*
G01*
X27055101Y-28329529D01*
X27188255Y-28418499D01*
X27301501Y-28531745D01*
X27390471Y-28664899D01*
X27451758Y-28812858D01*
X27483000Y-28969925D01*
X27483000Y-29130075D01*
X27451758Y-29287142D01*
X27390471Y-29435101D01*
X27301501Y-29568255D01*
X27188255Y-29681501D01*
X27055101Y-29770471D01*
X26907142Y-29831758D01*
X26750075Y-29863000D01*
X26589925Y-29863000D01*
X26432858Y-29831758D01*
X26284899Y-29770471D01*
X26151745Y-29681501D01*
X26038499Y-29568255D01*
X25949529Y-29435101D01*
X25888242Y-29287142D01*
X25857000Y-29130075D01*
X25857000Y-28969925D01*
X25888242Y-28812858D01*
X25949529Y-28664899D01*
X26038499Y-28531745D01*
X26151745Y-28418499D01*
X26284899Y-28329529D01*
X26432858Y-28268242D01*
X26589925Y-28237000D01*
X26750075Y-28237000D01*
X26907142Y-28268242D01*
G37*
G36*
X42147142Y-28268242D02*
G01*
X42295101Y-28329529D01*
X42428255Y-28418499D01*
X42541501Y-28531745D01*
X42630471Y-28664899D01*
X42691758Y-28812858D01*
X42723000Y-28969925D01*
X42723000Y-29130075D01*
X42691758Y-29287142D01*
X42630471Y-29435101D01*
X42541501Y-29568255D01*
X42428255Y-29681501D01*
X42295101Y-29770471D01*
X42147142Y-29831758D01*
X41990075Y-29863000D01*
X41829925Y-29863000D01*
X41672858Y-29831758D01*
X41524899Y-29770471D01*
X41391745Y-29681501D01*
X41278499Y-29568255D01*
X41189529Y-29435101D01*
X41128242Y-29287142D01*
X41097000Y-29130075D01*
X41097000Y-28969925D01*
X41128242Y-28812858D01*
X41189529Y-28664899D01*
X41278499Y-28531745D01*
X41391745Y-28418499D01*
X41524899Y-28329529D01*
X41672858Y-28268242D01*
X41829925Y-28237000D01*
X41990075Y-28237000D01*
X42147142Y-28268242D01*
G37*
G36*
X57387142Y-28268242D02*
G01*
X57535101Y-28329529D01*
X57668255Y-28418499D01*
X57781501Y-28531745D01*
X57870471Y-28664899D01*
X57931758Y-28812858D01*
X57963000Y-28969925D01*
X57963000Y-29130075D01*
X57931758Y-29287142D01*
X57870471Y-29435101D01*
X57781501Y-29568255D01*
X57668255Y-29681501D01*
X57535101Y-29770471D01*
X57387142Y-29831758D01*
X57230075Y-29863000D01*
X57069925Y-29863000D01*
X56912858Y-29831758D01*
X56764899Y-29770471D01*
X56631745Y-29681501D01*
X56518499Y-29568255D01*
X56429529Y-29435101D01*
X56368242Y-29287142D01*
X56337000Y-29130075D01*
X56337000Y-28969925D01*
X56368242Y-28812858D01*
X56429529Y-28664899D01*
X56518499Y-28531745D01*
X56631745Y-28418499D01*
X56764899Y-28329529D01*
X56912858Y-28268242D01*
X57069925Y-28237000D01*
X57230075Y-28237000D01*
X57387142Y-28268242D01*
G37*
G36*
X72627142Y-28268242D02*
G01*
X72775101Y-28329529D01*
X72908255Y-28418499D01*
X73021501Y-28531745D01*
X73110471Y-28664899D01*
X73171758Y-28812858D01*
X73203000Y-28969925D01*
X73203000Y-29130075D01*
X73171758Y-29287142D01*
X73110471Y-29435101D01*
X73021501Y-29568255D01*
X72908255Y-29681501D01*
X72775101Y-29770471D01*
X72627142Y-29831758D01*
X72470075Y-29863000D01*
X72309925Y-29863000D01*
X72152858Y-29831758D01*
X72004899Y-29770471D01*
X71871745Y-29681501D01*
X71758499Y-29568255D01*
X71669529Y-29435101D01*
X71608242Y-29287142D01*
X71577000Y-29130075D01*
X71577000Y-28969925D01*
X71608242Y-28812858D01*
X71669529Y-28664899D01*
X71758499Y-28531745D01*
X71871745Y-28418499D01*
X72004899Y-28329529D01*
X72152858Y-28268242D01*
X72309925Y-28237000D01*
X72470075Y-28237000D01*
X72627142Y-28268242D01*
G37*
G36*
X20904468Y-25803565D02*
G01*
X20943138Y-25815296D01*
X20978777Y-25834346D01*
X21010017Y-25859983D01*
X21035654Y-25891223D01*
X21054704Y-25926862D01*
X21066435Y-25965532D01*
X21071000Y-26011888D01*
X21071000Y-26663112D01*
X21066435Y-26709468D01*
X21054704Y-26748138D01*
X21035654Y-26783777D01*
X21010017Y-26815017D01*
X20978777Y-26840654D01*
X20943138Y-26859704D01*
X20904468Y-26871435D01*
X20858112Y-26876000D01*
X19781888Y-26876000D01*
X19735532Y-26871435D01*
X19696862Y-26859704D01*
X19661223Y-26840654D01*
X19629983Y-26815017D01*
X19604346Y-26783777D01*
X19585296Y-26748138D01*
X19573565Y-26709468D01*
X19569000Y-26663112D01*
X19569000Y-26011888D01*
X19573565Y-25965532D01*
X19585296Y-25926862D01*
X19604346Y-25891223D01*
X19629983Y-25859983D01*
X19661223Y-25834346D01*
X19696862Y-25815296D01*
X19735532Y-25803565D01*
X19781888Y-25799000D01*
X20858112Y-25799000D01*
X20904468Y-25803565D01*
G37*
G36*
X34874468Y-24533565D02*
G01*
X34913138Y-24545296D01*
X34948777Y-24564346D01*
X34980017Y-24589983D01*
X35005654Y-24621223D01*
X35024704Y-24656862D01*
X35036435Y-24695532D01*
X35041000Y-24741888D01*
X35041000Y-25393112D01*
X35036435Y-25439468D01*
X35024704Y-25478138D01*
X35005654Y-25513777D01*
X34980017Y-25545017D01*
X34948777Y-25570654D01*
X34913138Y-25589704D01*
X34874468Y-25601435D01*
X34828112Y-25606000D01*
X33751888Y-25606000D01*
X33705532Y-25601435D01*
X33666862Y-25589704D01*
X33631223Y-25570654D01*
X33599983Y-25545017D01*
X33574346Y-25513777D01*
X33555296Y-25478138D01*
X33543565Y-25439468D01*
X33539000Y-25393112D01*
X33539000Y-24741888D01*
X33543565Y-24695532D01*
X33555296Y-24656862D01*
X33574346Y-24621223D01*
X33599983Y-24589983D01*
X33631223Y-24564346D01*
X33666862Y-24545296D01*
X33705532Y-24533565D01*
X33751888Y-24529000D01*
X34828112Y-24529000D01*
X34874468Y-24533565D01*
G37*
G36*
X65354468Y-24533565D02*
G01*
X65393138Y-24545296D01*
X65428777Y-24564346D01*
X65460017Y-24589983D01*
X65485654Y-24621223D01*
X65504704Y-24656862D01*
X65516435Y-24695532D01*
X65521000Y-24741888D01*
X65521000Y-25393112D01*
X65516435Y-25439468D01*
X65504704Y-25478138D01*
X65485654Y-25513777D01*
X65460017Y-25545017D01*
X65428777Y-25570654D01*
X65393138Y-25589704D01*
X65354468Y-25601435D01*
X65308112Y-25606000D01*
X64231888Y-25606000D01*
X64185532Y-25601435D01*
X64146862Y-25589704D01*
X64111223Y-25570654D01*
X64079983Y-25545017D01*
X64054346Y-25513777D01*
X64035296Y-25478138D01*
X64023565Y-25439468D01*
X64019000Y-25393112D01*
X64019000Y-24741888D01*
X64023565Y-24695532D01*
X64035296Y-24656862D01*
X64054346Y-24621223D01*
X64079983Y-24589983D01*
X64111223Y-24564346D01*
X64146862Y-24545296D01*
X64185532Y-24533565D01*
X64231888Y-24529000D01*
X65308112Y-24529000D01*
X65354468Y-24533565D01*
G37*
G36*
X50114468Y-24533565D02*
G01*
X50153138Y-24545296D01*
X50188777Y-24564346D01*
X50220017Y-24589983D01*
X50245654Y-24621223D01*
X50264704Y-24656862D01*
X50276435Y-24695532D01*
X50281000Y-24741888D01*
X50281000Y-25393112D01*
X50276435Y-25439468D01*
X50264704Y-25478138D01*
X50245654Y-25513777D01*
X50220017Y-25545017D01*
X50188777Y-25570654D01*
X50153138Y-25589704D01*
X50114468Y-25601435D01*
X50068112Y-25606000D01*
X48991888Y-25606000D01*
X48945532Y-25601435D01*
X48906862Y-25589704D01*
X48871223Y-25570654D01*
X48839983Y-25545017D01*
X48814346Y-25513777D01*
X48795296Y-25478138D01*
X48783565Y-25439468D01*
X48779000Y-25393112D01*
X48779000Y-24741888D01*
X48783565Y-24695532D01*
X48795296Y-24656862D01*
X48814346Y-24621223D01*
X48839983Y-24589983D01*
X48871223Y-24564346D01*
X48906862Y-24545296D01*
X48945532Y-24533565D01*
X48991888Y-24529000D01*
X50068112Y-24529000D01*
X50114468Y-24533565D01*
G37*
G36*
X20904468Y-23928565D02*
G01*
X20943138Y-23940296D01*
X20978777Y-23959346D01*
X21010017Y-23984983D01*
X21035654Y-24016223D01*
X21054704Y-24051862D01*
X21066435Y-24090532D01*
X21071000Y-24136888D01*
X21071000Y-24788112D01*
X21066435Y-24834468D01*
X21054704Y-24873138D01*
X21035654Y-24908777D01*
X21010017Y-24940017D01*
X20978777Y-24965654D01*
X20943138Y-24984704D01*
X20904468Y-24996435D01*
X20858112Y-25001000D01*
X19781888Y-25001000D01*
X19735532Y-24996435D01*
X19696862Y-24984704D01*
X19661223Y-24965654D01*
X19629983Y-24940017D01*
X19604346Y-24908777D01*
X19585296Y-24873138D01*
X19573565Y-24834468D01*
X19569000Y-24788112D01*
X19569000Y-24136888D01*
X19573565Y-24090532D01*
X19585296Y-24051862D01*
X19604346Y-24016223D01*
X19629983Y-23984983D01*
X19661223Y-23959346D01*
X19696862Y-23940296D01*
X19735532Y-23928565D01*
X19781888Y-23924000D01*
X20858112Y-23924000D01*
X20904468Y-23928565D01*
G37*
G36*
X50114468Y-22658565D02*
G01*
X50153138Y-22670296D01*
X50188777Y-22689346D01*
X50220017Y-22714983D01*
X50245654Y-22746223D01*
X50264704Y-22781862D01*
X50276435Y-22820532D01*
X50281000Y-22866888D01*
X50281000Y-23518112D01*
X50276435Y-23564468D01*
X50264704Y-23603138D01*
X50245654Y-23638777D01*
X50220017Y-23670017D01*
X50188777Y-23695654D01*
X50153138Y-23714704D01*
X50114468Y-23726435D01*
X50068112Y-23731000D01*
X48991888Y-23731000D01*
X48945532Y-23726435D01*
X48906862Y-23714704D01*
X48871223Y-23695654D01*
X48839983Y-23670017D01*
X48814346Y-23638777D01*
X48795296Y-23603138D01*
X48783565Y-23564468D01*
X48779000Y-23518112D01*
X48779000Y-22866888D01*
X48783565Y-22820532D01*
X48795296Y-22781862D01*
X48814346Y-22746223D01*
X48839983Y-22714983D01*
X48871223Y-22689346D01*
X48906862Y-22670296D01*
X48945532Y-22658565D01*
X48991888Y-22654000D01*
X50068112Y-22654000D01*
X50114468Y-22658565D01*
G37*
G36*
X65354468Y-22658565D02*
G01*
X65393138Y-22670296D01*
X65428777Y-22689346D01*
X65460017Y-22714983D01*
X65485654Y-22746223D01*
X65504704Y-22781862D01*
X65516435Y-22820532D01*
X65521000Y-22866888D01*
X65521000Y-23518112D01*
X65516435Y-23564468D01*
X65504704Y-23603138D01*
X65485654Y-23638777D01*
X65460017Y-23670017D01*
X65428777Y-23695654D01*
X65393138Y-23714704D01*
X65354468Y-23726435D01*
X65308112Y-23731000D01*
X64231888Y-23731000D01*
X64185532Y-23726435D01*
X64146862Y-23714704D01*
X64111223Y-23695654D01*
X64079983Y-23670017D01*
X64054346Y-23638777D01*
X64035296Y-23603138D01*
X64023565Y-23564468D01*
X64019000Y-23518112D01*
X64019000Y-22866888D01*
X64023565Y-22820532D01*
X64035296Y-22781862D01*
X64054346Y-22746223D01*
X64079983Y-22714983D01*
X64111223Y-22689346D01*
X64146862Y-22670296D01*
X64185532Y-22658565D01*
X64231888Y-22654000D01*
X65308112Y-22654000D01*
X65354468Y-22658565D01*
G37*
G36*
X34874468Y-22658565D02*
G01*
X34913138Y-22670296D01*
X34948777Y-22689346D01*
X34980017Y-22714983D01*
X35005654Y-22746223D01*
X35024704Y-22781862D01*
X35036435Y-22820532D01*
X35041000Y-22866888D01*
X35041000Y-23518112D01*
X35036435Y-23564468D01*
X35024704Y-23603138D01*
X35005654Y-23638777D01*
X34980017Y-23670017D01*
X34948777Y-23695654D01*
X34913138Y-23714704D01*
X34874468Y-23726435D01*
X34828112Y-23731000D01*
X33751888Y-23731000D01*
X33705532Y-23726435D01*
X33666862Y-23714704D01*
X33631223Y-23695654D01*
X33599983Y-23670017D01*
X33574346Y-23638777D01*
X33555296Y-23603138D01*
X33543565Y-23564468D01*
X33539000Y-23518112D01*
X33539000Y-22866888D01*
X33543565Y-22820532D01*
X33555296Y-22781862D01*
X33574346Y-22746223D01*
X33599983Y-22714983D01*
X33631223Y-22689346D01*
X33666862Y-22670296D01*
X33705532Y-22658565D01*
X33751888Y-22654000D01*
X34828112Y-22654000D01*
X34874468Y-22658565D01*
G37*
G36*
X45154468Y-20843565D02*
G01*
X45193138Y-20855296D01*
X45228777Y-20874346D01*
X45260017Y-20899983D01*
X45285654Y-20931223D01*
X45304704Y-20966862D01*
X45316435Y-21005532D01*
X45321000Y-21051888D01*
X45321000Y-22128112D01*
X45316435Y-22174468D01*
X45304704Y-22213138D01*
X45285654Y-22248777D01*
X45260017Y-22280017D01*
X45228777Y-22305654D01*
X45193138Y-22324704D01*
X45154468Y-22336435D01*
X45108112Y-22341000D01*
X44456888Y-22341000D01*
X44410532Y-22336435D01*
X44371862Y-22324704D01*
X44336223Y-22305654D01*
X44304983Y-22280017D01*
X44279346Y-22248777D01*
X44260296Y-22213138D01*
X44248565Y-22174468D01*
X44244000Y-22128112D01*
X44244000Y-21051888D01*
X44248565Y-21005532D01*
X44260296Y-20966862D01*
X44279346Y-20931223D01*
X44304983Y-20899983D01*
X44336223Y-20874346D01*
X44371862Y-20855296D01*
X44410532Y-20843565D01*
X44456888Y-20839000D01*
X45108112Y-20839000D01*
X45154468Y-20843565D01*
G37*
G36*
X47029468Y-20843565D02*
G01*
X47068138Y-20855296D01*
X47103777Y-20874346D01*
X47135017Y-20899983D01*
X47160654Y-20931223D01*
X47179704Y-20966862D01*
X47191435Y-21005532D01*
X47196000Y-21051888D01*
X47196000Y-22128112D01*
X47191435Y-22174468D01*
X47179704Y-22213138D01*
X47160654Y-22248777D01*
X47135017Y-22280017D01*
X47103777Y-22305654D01*
X47068138Y-22324704D01*
X47029468Y-22336435D01*
X46983112Y-22341000D01*
X46331888Y-22341000D01*
X46285532Y-22336435D01*
X46246862Y-22324704D01*
X46211223Y-22305654D01*
X46179983Y-22280017D01*
X46154346Y-22248777D01*
X46135296Y-22213138D01*
X46123565Y-22174468D01*
X46119000Y-22128112D01*
X46119000Y-21051888D01*
X46123565Y-21005532D01*
X46135296Y-20966862D01*
X46154346Y-20931223D01*
X46179983Y-20899983D01*
X46211223Y-20874346D01*
X46246862Y-20855296D01*
X46285532Y-20843565D01*
X46331888Y-20839000D01*
X46983112Y-20839000D01*
X47029468Y-20843565D01*
G37*
G36*
X129071000Y-19626000D02*
G01*
X128906660Y-19626000D01*
X128882274Y-19628402D01*
X128858825Y-19635515D01*
X128837214Y-19647066D01*
X128818272Y-19662611D01*
X128802727Y-19681553D01*
X128791176Y-19703164D01*
X128784063Y-19726613D01*
X128781661Y-19750999D01*
X128784063Y-19775385D01*
X128791176Y-19798834D01*
X128802727Y-19820445D01*
X128818272Y-19839387D01*
X128827345Y-19847609D01*
X128904264Y-19910736D01*
X128976244Y-19998443D01*
X129003708Y-20049826D01*
X129029728Y-20098505D01*
X129029729Y-20098508D01*
X129062666Y-20207084D01*
X129073787Y-20320000D01*
X129062666Y-20432916D01*
X129029729Y-20541492D01*
X129029728Y-20541495D01*
X129010429Y-20577601D01*
X128976244Y-20641557D01*
X128904264Y-20729264D01*
X128816557Y-20801244D01*
X128745919Y-20839000D01*
X128735141Y-20844761D01*
X128714766Y-20858375D01*
X128697439Y-20875702D01*
X128683826Y-20896076D01*
X128674448Y-20918715D01*
X128669668Y-20942748D01*
X128669668Y-20967252D01*
X128674448Y-20991285D01*
X128683826Y-21013924D01*
X128697440Y-21034299D01*
X128714767Y-21051626D01*
X128735141Y-21065239D01*
X128816557Y-21108756D01*
X128904264Y-21180736D01*
X128976244Y-21268443D01*
X129010429Y-21332399D01*
X129029728Y-21368505D01*
X129029729Y-21368508D01*
X129062666Y-21477084D01*
X129073787Y-21590000D01*
X129062666Y-21702916D01*
X129029729Y-21811492D01*
X129029728Y-21811495D01*
X129010429Y-21847601D01*
X128976244Y-21911557D01*
X128904264Y-21999264D01*
X128816557Y-22071244D01*
X128752601Y-22105429D01*
X128716495Y-22124728D01*
X128716492Y-22124729D01*
X128607916Y-22157666D01*
X128523298Y-22166000D01*
X128016702Y-22166000D01*
X127932084Y-22157666D01*
X127823508Y-22124729D01*
X127823505Y-22124728D01*
X127787399Y-22105429D01*
X127723443Y-22071244D01*
X127635736Y-21999264D01*
X127563756Y-21911557D01*
X127529571Y-21847601D01*
X127510272Y-21811495D01*
X127510271Y-21811492D01*
X127477334Y-21702916D01*
X127466213Y-21590000D01*
X127477334Y-21477084D01*
X127510271Y-21368508D01*
X127510272Y-21368505D01*
X127529571Y-21332399D01*
X127563756Y-21268443D01*
X127635736Y-21180736D01*
X127723443Y-21108756D01*
X127804859Y-21065239D01*
X127825234Y-21051625D01*
X127842561Y-21034298D01*
X127856174Y-21013924D01*
X127865552Y-20991285D01*
X127870332Y-20967252D01*
X127870332Y-20942748D01*
X127865552Y-20918715D01*
X127856174Y-20896076D01*
X127842560Y-20875701D01*
X127825233Y-20858374D01*
X127804859Y-20844761D01*
X127794081Y-20839000D01*
X127723443Y-20801244D01*
X127635736Y-20729264D01*
X127563756Y-20641557D01*
X127529571Y-20577601D01*
X127510272Y-20541495D01*
X127510271Y-20541492D01*
X127477334Y-20432916D01*
X127466213Y-20320000D01*
X127477334Y-20207084D01*
X127510271Y-20098508D01*
X127510272Y-20098505D01*
X127536292Y-20049826D01*
X127563756Y-19998443D01*
X127635736Y-19910736D01*
X127712646Y-19847617D01*
X127729965Y-19830298D01*
X127743579Y-19809923D01*
X127752957Y-19787284D01*
X127757737Y-19763251D01*
X127757737Y-19738747D01*
X127752957Y-19714714D01*
X127743579Y-19692075D01*
X127729966Y-19671701D01*
X127712639Y-19654374D01*
X127692264Y-19640760D01*
X127669625Y-19631382D01*
X127645592Y-19626602D01*
X127633340Y-19626000D01*
X127469000Y-19626000D01*
X127469000Y-18474000D01*
X129071000Y-18474000D01*
X129071000Y-19626000D01*
G37*
G36*
X69792468Y-18557565D02*
G01*
X69831138Y-18569296D01*
X69866777Y-18588346D01*
X69898017Y-18613983D01*
X69923654Y-18645223D01*
X69942704Y-18680862D01*
X69954435Y-18719532D01*
X69959000Y-18765888D01*
X69959000Y-19842112D01*
X69954435Y-19888468D01*
X69942704Y-19927138D01*
X69923654Y-19962777D01*
X69898017Y-19994017D01*
X69866777Y-20019654D01*
X69831138Y-20038704D01*
X69792468Y-20050435D01*
X69746112Y-20055000D01*
X69094888Y-20055000D01*
X69048532Y-20050435D01*
X69009862Y-20038704D01*
X68974223Y-20019654D01*
X68942983Y-19994017D01*
X68917346Y-19962777D01*
X68898296Y-19927138D01*
X68886565Y-19888468D01*
X68882000Y-19842112D01*
X68882000Y-18765888D01*
X68886565Y-18719532D01*
X68898296Y-18680862D01*
X68917346Y-18645223D01*
X68942983Y-18613983D01*
X68974223Y-18588346D01*
X69009862Y-18569296D01*
X69048532Y-18557565D01*
X69094888Y-18553000D01*
X69746112Y-18553000D01*
X69792468Y-18557565D01*
G37*
G36*
X71667468Y-18557565D02*
G01*
X71706138Y-18569296D01*
X71741777Y-18588346D01*
X71773017Y-18613983D01*
X71798654Y-18645223D01*
X71817704Y-18680862D01*
X71829435Y-18719532D01*
X71834000Y-18765888D01*
X71834000Y-19842112D01*
X71829435Y-19888468D01*
X71817704Y-19927138D01*
X71798654Y-19962777D01*
X71773017Y-19994017D01*
X71741777Y-20019654D01*
X71706138Y-20038704D01*
X71667468Y-20050435D01*
X71621112Y-20055000D01*
X70969888Y-20055000D01*
X70923532Y-20050435D01*
X70884862Y-20038704D01*
X70849223Y-20019654D01*
X70817983Y-19994017D01*
X70792346Y-19962777D01*
X70773296Y-19927138D01*
X70761565Y-19888468D01*
X70757000Y-19842112D01*
X70757000Y-18765888D01*
X70761565Y-18719532D01*
X70773296Y-18680862D01*
X70792346Y-18645223D01*
X70817983Y-18613983D01*
X70849223Y-18588346D01*
X70884862Y-18569296D01*
X70923532Y-18557565D01*
X70969888Y-18553000D01*
X71621112Y-18553000D01*
X71667468Y-18557565D01*
G37*
G36*
X39409468Y-18303565D02*
G01*
X39448138Y-18315296D01*
X39483777Y-18334346D01*
X39515017Y-18359983D01*
X39540654Y-18391223D01*
X39559704Y-18426862D01*
X39571435Y-18465532D01*
X39576000Y-18511888D01*
X39576000Y-19588112D01*
X39571435Y-19634468D01*
X39559704Y-19673138D01*
X39540654Y-19708777D01*
X39515017Y-19740017D01*
X39483777Y-19765654D01*
X39448138Y-19784704D01*
X39409468Y-19796435D01*
X39363112Y-19801000D01*
X38711888Y-19801000D01*
X38665532Y-19796435D01*
X38626862Y-19784704D01*
X38591223Y-19765654D01*
X38559983Y-19740017D01*
X38534346Y-19708777D01*
X38515296Y-19673138D01*
X38503565Y-19634468D01*
X38499000Y-19588112D01*
X38499000Y-18511888D01*
X38503565Y-18465532D01*
X38515296Y-18426862D01*
X38534346Y-18391223D01*
X38559983Y-18359983D01*
X38591223Y-18334346D01*
X38626862Y-18315296D01*
X38665532Y-18303565D01*
X38711888Y-18299000D01*
X39363112Y-18299000D01*
X39409468Y-18303565D01*
G37*
G36*
X59124468Y-18303565D02*
G01*
X59163138Y-18315296D01*
X59198777Y-18334346D01*
X59230017Y-18359983D01*
X59255654Y-18391223D01*
X59274704Y-18426862D01*
X59286435Y-18465532D01*
X59291000Y-18511888D01*
X59291000Y-19588112D01*
X59286435Y-19634468D01*
X59274704Y-19673138D01*
X59255654Y-19708777D01*
X59230017Y-19740017D01*
X59198777Y-19765654D01*
X59163138Y-19784704D01*
X59124468Y-19796435D01*
X59078112Y-19801000D01*
X58426888Y-19801000D01*
X58380532Y-19796435D01*
X58341862Y-19784704D01*
X58306223Y-19765654D01*
X58274983Y-19740017D01*
X58249346Y-19708777D01*
X58230296Y-19673138D01*
X58218565Y-19634468D01*
X58214000Y-19588112D01*
X58214000Y-18511888D01*
X58218565Y-18465532D01*
X58230296Y-18426862D01*
X58249346Y-18391223D01*
X58274983Y-18359983D01*
X58306223Y-18334346D01*
X58341862Y-18315296D01*
X58380532Y-18303565D01*
X58426888Y-18299000D01*
X59078112Y-18299000D01*
X59124468Y-18303565D01*
G37*
G36*
X60999468Y-18303565D02*
G01*
X61038138Y-18315296D01*
X61073777Y-18334346D01*
X61105017Y-18359983D01*
X61130654Y-18391223D01*
X61149704Y-18426862D01*
X61161435Y-18465532D01*
X61166000Y-18511888D01*
X61166000Y-19588112D01*
X61161435Y-19634468D01*
X61149704Y-19673138D01*
X61130654Y-19708777D01*
X61105017Y-19740017D01*
X61073777Y-19765654D01*
X61038138Y-19784704D01*
X60999468Y-19796435D01*
X60953112Y-19801000D01*
X60301888Y-19801000D01*
X60255532Y-19796435D01*
X60216862Y-19784704D01*
X60181223Y-19765654D01*
X60149983Y-19740017D01*
X60124346Y-19708777D01*
X60105296Y-19673138D01*
X60093565Y-19634468D01*
X60089000Y-19588112D01*
X60089000Y-18511888D01*
X60093565Y-18465532D01*
X60105296Y-18426862D01*
X60124346Y-18391223D01*
X60149983Y-18359983D01*
X60181223Y-18334346D01*
X60216862Y-18315296D01*
X60255532Y-18303565D01*
X60301888Y-18299000D01*
X60953112Y-18299000D01*
X60999468Y-18303565D01*
G37*
G36*
X78174468Y-18303565D02*
G01*
X78213138Y-18315296D01*
X78248777Y-18334346D01*
X78280017Y-18359983D01*
X78305654Y-18391223D01*
X78324704Y-18426862D01*
X78336435Y-18465532D01*
X78341000Y-18511888D01*
X78341000Y-19588112D01*
X78336435Y-19634468D01*
X78324704Y-19673138D01*
X78305654Y-19708777D01*
X78280017Y-19740017D01*
X78248777Y-19765654D01*
X78213138Y-19784704D01*
X78174468Y-19796435D01*
X78128112Y-19801000D01*
X77476888Y-19801000D01*
X77430532Y-19796435D01*
X77391862Y-19784704D01*
X77356223Y-19765654D01*
X77324983Y-19740017D01*
X77299346Y-19708777D01*
X77280296Y-19673138D01*
X77268565Y-19634468D01*
X77264000Y-19588112D01*
X77264000Y-18511888D01*
X77268565Y-18465532D01*
X77280296Y-18426862D01*
X77299346Y-18391223D01*
X77324983Y-18359983D01*
X77356223Y-18334346D01*
X77391862Y-18315296D01*
X77430532Y-18303565D01*
X77476888Y-18299000D01*
X78128112Y-18299000D01*
X78174468Y-18303565D01*
G37*
G36*
X80049468Y-18303565D02*
G01*
X80088138Y-18315296D01*
X80123777Y-18334346D01*
X80155017Y-18359983D01*
X80180654Y-18391223D01*
X80199704Y-18426862D01*
X80211435Y-18465532D01*
X80216000Y-18511888D01*
X80216000Y-19588112D01*
X80211435Y-19634468D01*
X80199704Y-19673138D01*
X80180654Y-19708777D01*
X80155017Y-19740017D01*
X80123777Y-19765654D01*
X80088138Y-19784704D01*
X80049468Y-19796435D01*
X80003112Y-19801000D01*
X79351888Y-19801000D01*
X79305532Y-19796435D01*
X79266862Y-19784704D01*
X79231223Y-19765654D01*
X79199983Y-19740017D01*
X79174346Y-19708777D01*
X79155296Y-19673138D01*
X79143565Y-19634468D01*
X79139000Y-19588112D01*
X79139000Y-18511888D01*
X79143565Y-18465532D01*
X79155296Y-18426862D01*
X79174346Y-18391223D01*
X79199983Y-18359983D01*
X79231223Y-18334346D01*
X79266862Y-18315296D01*
X79305532Y-18303565D01*
X79351888Y-18299000D01*
X80003112Y-18299000D01*
X80049468Y-18303565D01*
G37*
G36*
X37534468Y-18303565D02*
G01*
X37573138Y-18315296D01*
X37608777Y-18334346D01*
X37640017Y-18359983D01*
X37665654Y-18391223D01*
X37684704Y-18426862D01*
X37696435Y-18465532D01*
X37701000Y-18511888D01*
X37701000Y-19588112D01*
X37696435Y-19634468D01*
X37684704Y-19673138D01*
X37665654Y-19708777D01*
X37640017Y-19740017D01*
X37608777Y-19765654D01*
X37573138Y-19784704D01*
X37534468Y-19796435D01*
X37488112Y-19801000D01*
X36836888Y-19801000D01*
X36790532Y-19796435D01*
X36751862Y-19784704D01*
X36716223Y-19765654D01*
X36684983Y-19740017D01*
X36659346Y-19708777D01*
X36640296Y-19673138D01*
X36628565Y-19634468D01*
X36624000Y-19588112D01*
X36624000Y-18511888D01*
X36628565Y-18465532D01*
X36640296Y-18426862D01*
X36659346Y-18391223D01*
X36684983Y-18359983D01*
X36716223Y-18334346D01*
X36751862Y-18315296D01*
X36790532Y-18303565D01*
X36836888Y-18299000D01*
X37488112Y-18299000D01*
X37534468Y-18303565D01*
G37*
G36*
X21629468Y-18303565D02*
G01*
X21668138Y-18315296D01*
X21703777Y-18334346D01*
X21735017Y-18359983D01*
X21760654Y-18391223D01*
X21779704Y-18426862D01*
X21791435Y-18465532D01*
X21796000Y-18511888D01*
X21796000Y-19588112D01*
X21791435Y-19634468D01*
X21779704Y-19673138D01*
X21760654Y-19708777D01*
X21735017Y-19740017D01*
X21703777Y-19765654D01*
X21668138Y-19784704D01*
X21629468Y-19796435D01*
X21583112Y-19801000D01*
X20931888Y-19801000D01*
X20885532Y-19796435D01*
X20846862Y-19784704D01*
X20811223Y-19765654D01*
X20779983Y-19740017D01*
X20754346Y-19708777D01*
X20735296Y-19673138D01*
X20723565Y-19634468D01*
X20719000Y-19588112D01*
X20719000Y-18511888D01*
X20723565Y-18465532D01*
X20735296Y-18426862D01*
X20754346Y-18391223D01*
X20779983Y-18359983D01*
X20811223Y-18334346D01*
X20846862Y-18315296D01*
X20885532Y-18303565D01*
X20931888Y-18299000D01*
X21583112Y-18299000D01*
X21629468Y-18303565D01*
G37*
G36*
X19754468Y-18303565D02*
G01*
X19793138Y-18315296D01*
X19828777Y-18334346D01*
X19860017Y-18359983D01*
X19885654Y-18391223D01*
X19904704Y-18426862D01*
X19916435Y-18465532D01*
X19921000Y-18511888D01*
X19921000Y-19588112D01*
X19916435Y-19634468D01*
X19904704Y-19673138D01*
X19885654Y-19708777D01*
X19860017Y-19740017D01*
X19828777Y-19765654D01*
X19793138Y-19784704D01*
X19754468Y-19796435D01*
X19708112Y-19801000D01*
X19056888Y-19801000D01*
X19010532Y-19796435D01*
X18971862Y-19784704D01*
X18936223Y-19765654D01*
X18904983Y-19740017D01*
X18879346Y-19708777D01*
X18860296Y-19673138D01*
X18848565Y-19634468D01*
X18844000Y-19588112D01*
X18844000Y-18511888D01*
X18848565Y-18465532D01*
X18860296Y-18426862D01*
X18879346Y-18391223D01*
X18904983Y-18359983D01*
X18936223Y-18334346D01*
X18971862Y-18315296D01*
X19010532Y-18303565D01*
X19056888Y-18299000D01*
X19708112Y-18299000D01*
X19754468Y-18303565D01*
G37*
G36*
X110371000Y-18931000D02*
G01*
X108069000Y-18931000D01*
X108069000Y-16629000D01*
X110371000Y-16629000D01*
X110371000Y-18931000D01*
G37*
G36*
X99284549Y-16651116D02*
G01*
X99395734Y-16673232D01*
X99605203Y-16759997D01*
X99793720Y-16885960D01*
X99954040Y-17046280D01*
X100080003Y-17234797D01*
X100080004Y-17234799D01*
X100166768Y-17444267D01*
X100211000Y-17666635D01*
X100211000Y-17893365D01*
X100192684Y-17985443D01*
X100166768Y-18115734D01*
X100080003Y-18325203D01*
X99954040Y-18513720D01*
X99793720Y-18674040D01*
X99605203Y-18800003D01*
X99395734Y-18886768D01*
X99284549Y-18908884D01*
X99173365Y-18931000D01*
X98946635Y-18931000D01*
X98835451Y-18908884D01*
X98724266Y-18886768D01*
X98514797Y-18800003D01*
X98326280Y-18674040D01*
X98165960Y-18513720D01*
X98039997Y-18325203D01*
X97953232Y-18115734D01*
X97927316Y-17985443D01*
X97909000Y-17893365D01*
X97909000Y-17666635D01*
X97953232Y-17444267D01*
X98039996Y-17234799D01*
X98039997Y-17234797D01*
X98165960Y-17046280D01*
X98326280Y-16885960D01*
X98514797Y-16759997D01*
X98724266Y-16673232D01*
X98835451Y-16651116D01*
X98946635Y-16629000D01*
X99173365Y-16629000D01*
X99284549Y-16651116D01*
G37*
G36*
X94204549Y-16651116D02*
G01*
X94315734Y-16673232D01*
X94525203Y-16759997D01*
X94713720Y-16885960D01*
X94874040Y-17046280D01*
X95000003Y-17234797D01*
X95000004Y-17234799D01*
X95086768Y-17444267D01*
X95131000Y-17666635D01*
X95131000Y-17893365D01*
X95112684Y-17985443D01*
X95086768Y-18115734D01*
X95000003Y-18325203D01*
X94874040Y-18513720D01*
X94713720Y-18674040D01*
X94525203Y-18800003D01*
X94315734Y-18886768D01*
X94204549Y-18908884D01*
X94093365Y-18931000D01*
X93866635Y-18931000D01*
X93755451Y-18908884D01*
X93644266Y-18886768D01*
X93434797Y-18800003D01*
X93246280Y-18674040D01*
X93085960Y-18513720D01*
X92959997Y-18325203D01*
X92873232Y-18115734D01*
X92847316Y-17985443D01*
X92829000Y-17893365D01*
X92829000Y-17666635D01*
X92873232Y-17444267D01*
X92959996Y-17234799D01*
X92959997Y-17234797D01*
X93085960Y-17046280D01*
X93246280Y-16885960D01*
X93434797Y-16759997D01*
X93644266Y-16673232D01*
X93755451Y-16651116D01*
X93866635Y-16629000D01*
X94093365Y-16629000D01*
X94204549Y-16651116D01*
G37*
G36*
X84971000Y-18931000D02*
G01*
X82669000Y-18931000D01*
X82669000Y-16629000D01*
X84971000Y-16629000D01*
X84971000Y-18931000D01*
G37*
G36*
X66296938Y-17919716D02*
G01*
X66317557Y-17925971D01*
X66336553Y-17936124D01*
X66353208Y-17949792D01*
X66366876Y-17966447D01*
X66377029Y-17985443D01*
X66383284Y-18006062D01*
X66386000Y-18033640D01*
X66386000Y-18542360D01*
X66383284Y-18569938D01*
X66377029Y-18590557D01*
X66366876Y-18609553D01*
X66353208Y-18626208D01*
X66336553Y-18639876D01*
X66317557Y-18650029D01*
X66296938Y-18656284D01*
X66269360Y-18659000D01*
X65810640Y-18659000D01*
X65783062Y-18656284D01*
X65762443Y-18650029D01*
X65743447Y-18639876D01*
X65726792Y-18626208D01*
X65713124Y-18609553D01*
X65702971Y-18590557D01*
X65696716Y-18569938D01*
X65694000Y-18542360D01*
X65694000Y-18033640D01*
X65696716Y-18006062D01*
X65702971Y-17985443D01*
X65713124Y-17966447D01*
X65726792Y-17949792D01*
X65743447Y-17936124D01*
X65762443Y-17925971D01*
X65783062Y-17919716D01*
X65810640Y-17917000D01*
X66269360Y-17917000D01*
X66296938Y-17919716D01*
G37*
G36*
X65326938Y-17919716D02*
G01*
X65347557Y-17925971D01*
X65366553Y-17936124D01*
X65383208Y-17949792D01*
X65396876Y-17966447D01*
X65407029Y-17985443D01*
X65413284Y-18006062D01*
X65416000Y-18033640D01*
X65416000Y-18542360D01*
X65413284Y-18569938D01*
X65407029Y-18590557D01*
X65396876Y-18609553D01*
X65383208Y-18626208D01*
X65366553Y-18639876D01*
X65347557Y-18650029D01*
X65326938Y-18656284D01*
X65299360Y-18659000D01*
X64840640Y-18659000D01*
X64813062Y-18656284D01*
X64792443Y-18650029D01*
X64773447Y-18639876D01*
X64756792Y-18626208D01*
X64743124Y-18609553D01*
X64732971Y-18590557D01*
X64726716Y-18569938D01*
X64724000Y-18542360D01*
X64724000Y-18033640D01*
X64726716Y-18006062D01*
X64732971Y-17985443D01*
X64743124Y-17966447D01*
X64756792Y-17949792D01*
X64773447Y-17936124D01*
X64792443Y-17925971D01*
X64813062Y-17919716D01*
X64840640Y-17917000D01*
X65299360Y-17917000D01*
X65326938Y-17919716D01*
G37*
M02*
