G04 #@! TF.GenerationSoftware,KiCad,Pcbnew,(5.1.6-0-10_14)*
G04 #@! TF.CreationDate,2020-09-03T17:39:19-04:00*
G04 #@! TF.ProjectId,Pufferfish-Interface-2,50756666-6572-4666-9973-682d496e7465,rev?*
G04 #@! TF.SameCoordinates,Original*
G04 #@! TF.FileFunction,Paste,Top*
G04 #@! TF.FilePolarity,Positive*
%FSLAX46Y46*%
G04 Gerber Fmt 4.6, Leading zero omitted, Abs format (unit mm)*
G04 Created by KiCad (PCBNEW (5.1.6-0-10_14)) date 2020-09-03 17:39:19*
%MOMM*%
%LPD*%
G01*
G04 APERTURE LIST*
%ADD10R,0.800000X0.900000*%
%ADD11R,1.000000X1.400000*%
%ADD12R,0.600000X0.700000*%
%ADD13R,0.700000X0.600000*%
%ADD14R,1.400000X1.000000*%
%ADD15R,0.900000X0.800000*%
G04 APERTURE END LIST*
G36*
G01*
X70012500Y-36956250D02*
X70012500Y-36043750D01*
G75*
G02*
X70256250Y-35800000I243750J0D01*
G01*
X70743750Y-35800000D01*
G75*
G02*
X70987500Y-36043750I0J-243750D01*
G01*
X70987500Y-36956250D01*
G75*
G02*
X70743750Y-37200000I-243750J0D01*
G01*
X70256250Y-37200000D01*
G75*
G02*
X70012500Y-36956250I0J243750D01*
G01*
G37*
G36*
G01*
X68137500Y-36956250D02*
X68137500Y-36043750D01*
G75*
G02*
X68381250Y-35800000I243750J0D01*
G01*
X68868750Y-35800000D01*
G75*
G02*
X69112500Y-36043750I0J-243750D01*
G01*
X69112500Y-36956250D01*
G75*
G02*
X68868750Y-37200000I-243750J0D01*
G01*
X68381250Y-37200000D01*
G75*
G02*
X68137500Y-36956250I0J243750D01*
G01*
G37*
D10*
X69500000Y-32000000D03*
X70450000Y-34000000D03*
X68550000Y-34000000D03*
D11*
X68750000Y-29850000D03*
X67800000Y-27650000D03*
X69700000Y-27650000D03*
G36*
G01*
X36900000Y-23375000D02*
X36900000Y-22625000D01*
G75*
G02*
X37225000Y-22300000I325000J0D01*
G01*
X37875000Y-22300000D01*
G75*
G02*
X38200000Y-22625000I0J-325000D01*
G01*
X38200000Y-23375000D01*
G75*
G02*
X37875000Y-23700000I-325000J0D01*
G01*
X37225000Y-23700000D01*
G75*
G02*
X36900000Y-23375000I0J325000D01*
G01*
G37*
G36*
G01*
X39800000Y-23375000D02*
X39800000Y-22625000D01*
G75*
G02*
X40125000Y-22300000I325000J0D01*
G01*
X40775000Y-22300000D01*
G75*
G02*
X41100000Y-22625000I0J-325000D01*
G01*
X41100000Y-23375000D01*
G75*
G02*
X40775000Y-23700000I-325000J0D01*
G01*
X40125000Y-23700000D01*
G75*
G02*
X39800000Y-23375000I0J325000D01*
G01*
G37*
G36*
G01*
X39280000Y-20846250D02*
X39280000Y-19933750D01*
G75*
G02*
X39523750Y-19690000I243750J0D01*
G01*
X40011250Y-19690000D01*
G75*
G02*
X40255000Y-19933750I0J-243750D01*
G01*
X40255000Y-20846250D01*
G75*
G02*
X40011250Y-21090000I-243750J0D01*
G01*
X39523750Y-21090000D01*
G75*
G02*
X39280000Y-20846250I0J243750D01*
G01*
G37*
G36*
G01*
X37405000Y-20846250D02*
X37405000Y-19933750D01*
G75*
G02*
X37648750Y-19690000I243750J0D01*
G01*
X38136250Y-19690000D01*
G75*
G02*
X38380000Y-19933750I0J-243750D01*
G01*
X38380000Y-20846250D01*
G75*
G02*
X38136250Y-21090000I-243750J0D01*
G01*
X37648750Y-21090000D01*
G75*
G02*
X37405000Y-20846250I0J243750D01*
G01*
G37*
G36*
G01*
X38500000Y-17303750D02*
X38500000Y-18216250D01*
G75*
G02*
X38256250Y-18460000I-243750J0D01*
G01*
X37768750Y-18460000D01*
G75*
G02*
X37525000Y-18216250I0J243750D01*
G01*
X37525000Y-17303750D01*
G75*
G02*
X37768750Y-17060000I243750J0D01*
G01*
X38256250Y-17060000D01*
G75*
G02*
X38500000Y-17303750I0J-243750D01*
G01*
G37*
G36*
G01*
X40375000Y-17303750D02*
X40375000Y-18216250D01*
G75*
G02*
X40131250Y-18460000I-243750J0D01*
G01*
X39643750Y-18460000D01*
G75*
G02*
X39400000Y-18216250I0J243750D01*
G01*
X39400000Y-17303750D01*
G75*
G02*
X39643750Y-17060000I243750J0D01*
G01*
X40131250Y-17060000D01*
G75*
G02*
X40375000Y-17303750I0J-243750D01*
G01*
G37*
G36*
G01*
X39578700Y-15640370D02*
X39578700Y-14727870D01*
G75*
G02*
X39822450Y-14484120I243750J0D01*
G01*
X40309950Y-14484120D01*
G75*
G02*
X40553700Y-14727870I0J-243750D01*
G01*
X40553700Y-15640370D01*
G75*
G02*
X40309950Y-15884120I-243750J0D01*
G01*
X39822450Y-15884120D01*
G75*
G02*
X39578700Y-15640370I0J243750D01*
G01*
G37*
G36*
G01*
X37703700Y-15640370D02*
X37703700Y-14727870D01*
G75*
G02*
X37947450Y-14484120I243750J0D01*
G01*
X38434950Y-14484120D01*
G75*
G02*
X38678700Y-14727870I0J-243750D01*
G01*
X38678700Y-15640370D01*
G75*
G02*
X38434950Y-15884120I-243750J0D01*
G01*
X37947450Y-15884120D01*
G75*
G02*
X37703700Y-15640370I0J243750D01*
G01*
G37*
G36*
G01*
X16085960Y-20021780D02*
X15785960Y-20021780D01*
G75*
G02*
X15635960Y-19871780I0J150000D01*
G01*
X15635960Y-18196780D01*
G75*
G02*
X15785960Y-18046780I150000J0D01*
G01*
X16085960Y-18046780D01*
G75*
G02*
X16235960Y-18196780I0J-150000D01*
G01*
X16235960Y-19871780D01*
G75*
G02*
X16085960Y-20021780I-150000J0D01*
G01*
G37*
G36*
G01*
X17355960Y-20021780D02*
X17055960Y-20021780D01*
G75*
G02*
X16905960Y-19871780I0J150000D01*
G01*
X16905960Y-18196780D01*
G75*
G02*
X17055960Y-18046780I150000J0D01*
G01*
X17355960Y-18046780D01*
G75*
G02*
X17505960Y-18196780I0J-150000D01*
G01*
X17505960Y-19871780D01*
G75*
G02*
X17355960Y-20021780I-150000J0D01*
G01*
G37*
G36*
G01*
X18625960Y-20021780D02*
X18325960Y-20021780D01*
G75*
G02*
X18175960Y-19871780I0J150000D01*
G01*
X18175960Y-18196780D01*
G75*
G02*
X18325960Y-18046780I150000J0D01*
G01*
X18625960Y-18046780D01*
G75*
G02*
X18775960Y-18196780I0J-150000D01*
G01*
X18775960Y-19871780D01*
G75*
G02*
X18625960Y-20021780I-150000J0D01*
G01*
G37*
G36*
G01*
X19895960Y-20021780D02*
X19595960Y-20021780D01*
G75*
G02*
X19445960Y-19871780I0J150000D01*
G01*
X19445960Y-18196780D01*
G75*
G02*
X19595960Y-18046780I150000J0D01*
G01*
X19895960Y-18046780D01*
G75*
G02*
X20045960Y-18196780I0J-150000D01*
G01*
X20045960Y-19871780D01*
G75*
G02*
X19895960Y-20021780I-150000J0D01*
G01*
G37*
G36*
G01*
X21165960Y-20021780D02*
X20865960Y-20021780D01*
G75*
G02*
X20715960Y-19871780I0J150000D01*
G01*
X20715960Y-18196780D01*
G75*
G02*
X20865960Y-18046780I150000J0D01*
G01*
X21165960Y-18046780D01*
G75*
G02*
X21315960Y-18196780I0J-150000D01*
G01*
X21315960Y-19871780D01*
G75*
G02*
X21165960Y-20021780I-150000J0D01*
G01*
G37*
G36*
G01*
X22435960Y-20021780D02*
X22135960Y-20021780D01*
G75*
G02*
X21985960Y-19871780I0J150000D01*
G01*
X21985960Y-18196780D01*
G75*
G02*
X22135960Y-18046780I150000J0D01*
G01*
X22435960Y-18046780D01*
G75*
G02*
X22585960Y-18196780I0J-150000D01*
G01*
X22585960Y-19871780D01*
G75*
G02*
X22435960Y-20021780I-150000J0D01*
G01*
G37*
G36*
G01*
X23705960Y-20021780D02*
X23405960Y-20021780D01*
G75*
G02*
X23255960Y-19871780I0J150000D01*
G01*
X23255960Y-18196780D01*
G75*
G02*
X23405960Y-18046780I150000J0D01*
G01*
X23705960Y-18046780D01*
G75*
G02*
X23855960Y-18196780I0J-150000D01*
G01*
X23855960Y-19871780D01*
G75*
G02*
X23705960Y-20021780I-150000J0D01*
G01*
G37*
G36*
G01*
X24975960Y-20021780D02*
X24675960Y-20021780D01*
G75*
G02*
X24525960Y-19871780I0J150000D01*
G01*
X24525960Y-18196780D01*
G75*
G02*
X24675960Y-18046780I150000J0D01*
G01*
X24975960Y-18046780D01*
G75*
G02*
X25125960Y-18196780I0J-150000D01*
G01*
X25125960Y-19871780D01*
G75*
G02*
X24975960Y-20021780I-150000J0D01*
G01*
G37*
G36*
G01*
X24975960Y-26946780D02*
X24675960Y-26946780D01*
G75*
G02*
X24525960Y-26796780I0J150000D01*
G01*
X24525960Y-25121780D01*
G75*
G02*
X24675960Y-24971780I150000J0D01*
G01*
X24975960Y-24971780D01*
G75*
G02*
X25125960Y-25121780I0J-150000D01*
G01*
X25125960Y-26796780D01*
G75*
G02*
X24975960Y-26946780I-150000J0D01*
G01*
G37*
G36*
G01*
X23705960Y-26946780D02*
X23405960Y-26946780D01*
G75*
G02*
X23255960Y-26796780I0J150000D01*
G01*
X23255960Y-25121780D01*
G75*
G02*
X23405960Y-24971780I150000J0D01*
G01*
X23705960Y-24971780D01*
G75*
G02*
X23855960Y-25121780I0J-150000D01*
G01*
X23855960Y-26796780D01*
G75*
G02*
X23705960Y-26946780I-150000J0D01*
G01*
G37*
G36*
G01*
X22435960Y-26946780D02*
X22135960Y-26946780D01*
G75*
G02*
X21985960Y-26796780I0J150000D01*
G01*
X21985960Y-25121780D01*
G75*
G02*
X22135960Y-24971780I150000J0D01*
G01*
X22435960Y-24971780D01*
G75*
G02*
X22585960Y-25121780I0J-150000D01*
G01*
X22585960Y-26796780D01*
G75*
G02*
X22435960Y-26946780I-150000J0D01*
G01*
G37*
G36*
G01*
X21165960Y-26946780D02*
X20865960Y-26946780D01*
G75*
G02*
X20715960Y-26796780I0J150000D01*
G01*
X20715960Y-25121780D01*
G75*
G02*
X20865960Y-24971780I150000J0D01*
G01*
X21165960Y-24971780D01*
G75*
G02*
X21315960Y-25121780I0J-150000D01*
G01*
X21315960Y-26796780D01*
G75*
G02*
X21165960Y-26946780I-150000J0D01*
G01*
G37*
G36*
G01*
X19895960Y-26946780D02*
X19595960Y-26946780D01*
G75*
G02*
X19445960Y-26796780I0J150000D01*
G01*
X19445960Y-25121780D01*
G75*
G02*
X19595960Y-24971780I150000J0D01*
G01*
X19895960Y-24971780D01*
G75*
G02*
X20045960Y-25121780I0J-150000D01*
G01*
X20045960Y-26796780D01*
G75*
G02*
X19895960Y-26946780I-150000J0D01*
G01*
G37*
G36*
G01*
X18625960Y-26946780D02*
X18325960Y-26946780D01*
G75*
G02*
X18175960Y-26796780I0J150000D01*
G01*
X18175960Y-25121780D01*
G75*
G02*
X18325960Y-24971780I150000J0D01*
G01*
X18625960Y-24971780D01*
G75*
G02*
X18775960Y-25121780I0J-150000D01*
G01*
X18775960Y-26796780D01*
G75*
G02*
X18625960Y-26946780I-150000J0D01*
G01*
G37*
G36*
G01*
X17355960Y-26946780D02*
X17055960Y-26946780D01*
G75*
G02*
X16905960Y-26796780I0J150000D01*
G01*
X16905960Y-25121780D01*
G75*
G02*
X17055960Y-24971780I150000J0D01*
G01*
X17355960Y-24971780D01*
G75*
G02*
X17505960Y-25121780I0J-150000D01*
G01*
X17505960Y-26796780D01*
G75*
G02*
X17355960Y-26946780I-150000J0D01*
G01*
G37*
G36*
G01*
X16085960Y-26946780D02*
X15785960Y-26946780D01*
G75*
G02*
X15635960Y-26796780I0J150000D01*
G01*
X15635960Y-25121780D01*
G75*
G02*
X15785960Y-24971780I150000J0D01*
G01*
X16085960Y-24971780D01*
G75*
G02*
X16235960Y-25121780I0J-150000D01*
G01*
X16235960Y-26796780D01*
G75*
G02*
X16085960Y-26946780I-150000J0D01*
G01*
G37*
G36*
G01*
X33610000Y-17173750D02*
X33610000Y-18086250D01*
G75*
G02*
X33366250Y-18330000I-243750J0D01*
G01*
X32878750Y-18330000D01*
G75*
G02*
X32635000Y-18086250I0J243750D01*
G01*
X32635000Y-17173750D01*
G75*
G02*
X32878750Y-16930000I243750J0D01*
G01*
X33366250Y-16930000D01*
G75*
G02*
X33610000Y-17173750I0J-243750D01*
G01*
G37*
G36*
G01*
X35485000Y-17173750D02*
X35485000Y-18086250D01*
G75*
G02*
X35241250Y-18330000I-243750J0D01*
G01*
X34753750Y-18330000D01*
G75*
G02*
X34510000Y-18086250I0J243750D01*
G01*
X34510000Y-17173750D01*
G75*
G02*
X34753750Y-16930000I243750J0D01*
G01*
X35241250Y-16930000D01*
G75*
G02*
X35485000Y-17173750I0J-243750D01*
G01*
G37*
G36*
G01*
X34957500Y-15596250D02*
X34957500Y-14683750D01*
G75*
G02*
X35201250Y-14440000I243750J0D01*
G01*
X35688750Y-14440000D01*
G75*
G02*
X35932500Y-14683750I0J-243750D01*
G01*
X35932500Y-15596250D01*
G75*
G02*
X35688750Y-15840000I-243750J0D01*
G01*
X35201250Y-15840000D01*
G75*
G02*
X34957500Y-15596250I0J243750D01*
G01*
G37*
G36*
G01*
X33082500Y-15596250D02*
X33082500Y-14683750D01*
G75*
G02*
X33326250Y-14440000I243750J0D01*
G01*
X33813750Y-14440000D01*
G75*
G02*
X34057500Y-14683750I0J-243750D01*
G01*
X34057500Y-15596250D01*
G75*
G02*
X33813750Y-15840000I-243750J0D01*
G01*
X33326250Y-15840000D01*
G75*
G02*
X33082500Y-15596250I0J243750D01*
G01*
G37*
G36*
G01*
X67623750Y-24040000D02*
X68536250Y-24040000D01*
G75*
G02*
X68780000Y-24283750I0J-243750D01*
G01*
X68780000Y-24771250D01*
G75*
G02*
X68536250Y-25015000I-243750J0D01*
G01*
X67623750Y-25015000D01*
G75*
G02*
X67380000Y-24771250I0J243750D01*
G01*
X67380000Y-24283750D01*
G75*
G02*
X67623750Y-24040000I243750J0D01*
G01*
G37*
G36*
G01*
X67623750Y-22165000D02*
X68536250Y-22165000D01*
G75*
G02*
X68780000Y-22408750I0J-243750D01*
G01*
X68780000Y-22896250D01*
G75*
G02*
X68536250Y-23140000I-243750J0D01*
G01*
X67623750Y-23140000D01*
G75*
G02*
X67380000Y-22896250I0J243750D01*
G01*
X67380000Y-22408750D01*
G75*
G02*
X67623750Y-22165000I243750J0D01*
G01*
G37*
G36*
G01*
X5774370Y-5504360D02*
X6686870Y-5504360D01*
G75*
G02*
X6930620Y-5748110I0J-243750D01*
G01*
X6930620Y-6235610D01*
G75*
G02*
X6686870Y-6479360I-243750J0D01*
G01*
X5774370Y-6479360D01*
G75*
G02*
X5530620Y-6235610I0J243750D01*
G01*
X5530620Y-5748110D01*
G75*
G02*
X5774370Y-5504360I243750J0D01*
G01*
G37*
G36*
G01*
X5774370Y-3629360D02*
X6686870Y-3629360D01*
G75*
G02*
X6930620Y-3873110I0J-243750D01*
G01*
X6930620Y-4360610D01*
G75*
G02*
X6686870Y-4604360I-243750J0D01*
G01*
X5774370Y-4604360D01*
G75*
G02*
X5530620Y-4360610I0J243750D01*
G01*
X5530620Y-3873110D01*
G75*
G02*
X5774370Y-3629360I243750J0D01*
G01*
G37*
G36*
G01*
X30040000Y-23395000D02*
X30040000Y-22645000D01*
G75*
G02*
X30365000Y-22320000I325000J0D01*
G01*
X31015000Y-22320000D01*
G75*
G02*
X31340000Y-22645000I0J-325000D01*
G01*
X31340000Y-23395000D01*
G75*
G02*
X31015000Y-23720000I-325000J0D01*
G01*
X30365000Y-23720000D01*
G75*
G02*
X30040000Y-23395000I0J325000D01*
G01*
G37*
G36*
G01*
X32940000Y-23395000D02*
X32940000Y-22645000D01*
G75*
G02*
X33265000Y-22320000I325000J0D01*
G01*
X33915000Y-22320000D01*
G75*
G02*
X34240000Y-22645000I0J-325000D01*
G01*
X34240000Y-23395000D01*
G75*
G02*
X33915000Y-23720000I-325000J0D01*
G01*
X33265000Y-23720000D01*
G75*
G02*
X32940000Y-23395000I0J325000D01*
G01*
G37*
G36*
G01*
X34235480Y-20957750D02*
X34235480Y-20045250D01*
G75*
G02*
X34479230Y-19801500I243750J0D01*
G01*
X34966730Y-19801500D01*
G75*
G02*
X35210480Y-20045250I0J-243750D01*
G01*
X35210480Y-20957750D01*
G75*
G02*
X34966730Y-21201500I-243750J0D01*
G01*
X34479230Y-21201500D01*
G75*
G02*
X34235480Y-20957750I0J243750D01*
G01*
G37*
G36*
G01*
X32360480Y-20957750D02*
X32360480Y-20045250D01*
G75*
G02*
X32604230Y-19801500I243750J0D01*
G01*
X33091730Y-19801500D01*
G75*
G02*
X33335480Y-20045250I0J-243750D01*
G01*
X33335480Y-20957750D01*
G75*
G02*
X33091730Y-21201500I-243750J0D01*
G01*
X32604230Y-21201500D01*
G75*
G02*
X32360480Y-20957750I0J243750D01*
G01*
G37*
G36*
G01*
X58720000Y-3885000D02*
X58720000Y-3585000D01*
G75*
G02*
X58870000Y-3435000I150000J0D01*
G01*
X60520000Y-3435000D01*
G75*
G02*
X60670000Y-3585000I0J-150000D01*
G01*
X60670000Y-3885000D01*
G75*
G02*
X60520000Y-4035000I-150000J0D01*
G01*
X58870000Y-4035000D01*
G75*
G02*
X58720000Y-3885000I0J150000D01*
G01*
G37*
G36*
G01*
X58720000Y-5155000D02*
X58720000Y-4855000D01*
G75*
G02*
X58870000Y-4705000I150000J0D01*
G01*
X60520000Y-4705000D01*
G75*
G02*
X60670000Y-4855000I0J-150000D01*
G01*
X60670000Y-5155000D01*
G75*
G02*
X60520000Y-5305000I-150000J0D01*
G01*
X58870000Y-5305000D01*
G75*
G02*
X58720000Y-5155000I0J150000D01*
G01*
G37*
G36*
G01*
X58720000Y-6425000D02*
X58720000Y-6125000D01*
G75*
G02*
X58870000Y-5975000I150000J0D01*
G01*
X60520000Y-5975000D01*
G75*
G02*
X60670000Y-6125000I0J-150000D01*
G01*
X60670000Y-6425000D01*
G75*
G02*
X60520000Y-6575000I-150000J0D01*
G01*
X58870000Y-6575000D01*
G75*
G02*
X58720000Y-6425000I0J150000D01*
G01*
G37*
G36*
G01*
X58720000Y-7695000D02*
X58720000Y-7395000D01*
G75*
G02*
X58870000Y-7245000I150000J0D01*
G01*
X60520000Y-7245000D01*
G75*
G02*
X60670000Y-7395000I0J-150000D01*
G01*
X60670000Y-7695000D01*
G75*
G02*
X60520000Y-7845000I-150000J0D01*
G01*
X58870000Y-7845000D01*
G75*
G02*
X58720000Y-7695000I0J150000D01*
G01*
G37*
G36*
G01*
X53770000Y-7695000D02*
X53770000Y-7395000D01*
G75*
G02*
X53920000Y-7245000I150000J0D01*
G01*
X55570000Y-7245000D01*
G75*
G02*
X55720000Y-7395000I0J-150000D01*
G01*
X55720000Y-7695000D01*
G75*
G02*
X55570000Y-7845000I-150000J0D01*
G01*
X53920000Y-7845000D01*
G75*
G02*
X53770000Y-7695000I0J150000D01*
G01*
G37*
G36*
G01*
X53770000Y-6425000D02*
X53770000Y-6125000D01*
G75*
G02*
X53920000Y-5975000I150000J0D01*
G01*
X55570000Y-5975000D01*
G75*
G02*
X55720000Y-6125000I0J-150000D01*
G01*
X55720000Y-6425000D01*
G75*
G02*
X55570000Y-6575000I-150000J0D01*
G01*
X53920000Y-6575000D01*
G75*
G02*
X53770000Y-6425000I0J150000D01*
G01*
G37*
G36*
G01*
X53770000Y-5155000D02*
X53770000Y-4855000D01*
G75*
G02*
X53920000Y-4705000I150000J0D01*
G01*
X55570000Y-4705000D01*
G75*
G02*
X55720000Y-4855000I0J-150000D01*
G01*
X55720000Y-5155000D01*
G75*
G02*
X55570000Y-5305000I-150000J0D01*
G01*
X53920000Y-5305000D01*
G75*
G02*
X53770000Y-5155000I0J150000D01*
G01*
G37*
G36*
G01*
X53770000Y-3885000D02*
X53770000Y-3585000D01*
G75*
G02*
X53920000Y-3435000I150000J0D01*
G01*
X55570000Y-3435000D01*
G75*
G02*
X55720000Y-3585000I0J-150000D01*
G01*
X55720000Y-3885000D01*
G75*
G02*
X55570000Y-4035000I-150000J0D01*
G01*
X53920000Y-4035000D01*
G75*
G02*
X53770000Y-3885000I0J150000D01*
G01*
G37*
G36*
G01*
X13742500Y-54086250D02*
X13742500Y-53173750D01*
G75*
G02*
X13986250Y-52930000I243750J0D01*
G01*
X14473750Y-52930000D01*
G75*
G02*
X14717500Y-53173750I0J-243750D01*
G01*
X14717500Y-54086250D01*
G75*
G02*
X14473750Y-54330000I-243750J0D01*
G01*
X13986250Y-54330000D01*
G75*
G02*
X13742500Y-54086250I0J243750D01*
G01*
G37*
G36*
G01*
X11867500Y-54086250D02*
X11867500Y-53173750D01*
G75*
G02*
X12111250Y-52930000I243750J0D01*
G01*
X12598750Y-52930000D01*
G75*
G02*
X12842500Y-53173750I0J-243750D01*
G01*
X12842500Y-54086250D01*
G75*
G02*
X12598750Y-54330000I-243750J0D01*
G01*
X12111250Y-54330000D01*
G75*
G02*
X11867500Y-54086250I0J243750D01*
G01*
G37*
G36*
G01*
X8215310Y-18260720D02*
X9127810Y-18260720D01*
G75*
G02*
X9371560Y-18504470I0J-243750D01*
G01*
X9371560Y-18991970D01*
G75*
G02*
X9127810Y-19235720I-243750J0D01*
G01*
X8215310Y-19235720D01*
G75*
G02*
X7971560Y-18991970I0J243750D01*
G01*
X7971560Y-18504470D01*
G75*
G02*
X8215310Y-18260720I243750J0D01*
G01*
G37*
G36*
G01*
X8215310Y-16385720D02*
X9127810Y-16385720D01*
G75*
G02*
X9371560Y-16629470I0J-243750D01*
G01*
X9371560Y-17116970D01*
G75*
G02*
X9127810Y-17360720I-243750J0D01*
G01*
X8215310Y-17360720D01*
G75*
G02*
X7971560Y-17116970I0J243750D01*
G01*
X7971560Y-16629470D01*
G75*
G02*
X8215310Y-16385720I243750J0D01*
G01*
G37*
G36*
G01*
X16838610Y-16020200D02*
X17751110Y-16020200D01*
G75*
G02*
X17994860Y-16263950I0J-243750D01*
G01*
X17994860Y-16751450D01*
G75*
G02*
X17751110Y-16995200I-243750J0D01*
G01*
X16838610Y-16995200D01*
G75*
G02*
X16594860Y-16751450I0J243750D01*
G01*
X16594860Y-16263950D01*
G75*
G02*
X16838610Y-16020200I243750J0D01*
G01*
G37*
G36*
G01*
X16838610Y-14145200D02*
X17751110Y-14145200D01*
G75*
G02*
X17994860Y-14388950I0J-243750D01*
G01*
X17994860Y-14876450D01*
G75*
G02*
X17751110Y-15120200I-243750J0D01*
G01*
X16838610Y-15120200D01*
G75*
G02*
X16594860Y-14876450I0J243750D01*
G01*
X16594860Y-14388950D01*
G75*
G02*
X16838610Y-14145200I243750J0D01*
G01*
G37*
G36*
G01*
X8083230Y-22258440D02*
X8995730Y-22258440D01*
G75*
G02*
X9239480Y-22502190I0J-243750D01*
G01*
X9239480Y-22989690D01*
G75*
G02*
X8995730Y-23233440I-243750J0D01*
G01*
X8083230Y-23233440D01*
G75*
G02*
X7839480Y-22989690I0J243750D01*
G01*
X7839480Y-22502190D01*
G75*
G02*
X8083230Y-22258440I243750J0D01*
G01*
G37*
G36*
G01*
X8083230Y-20383440D02*
X8995730Y-20383440D01*
G75*
G02*
X9239480Y-20627190I0J-243750D01*
G01*
X9239480Y-21114690D01*
G75*
G02*
X8995730Y-21358440I-243750J0D01*
G01*
X8083230Y-21358440D01*
G75*
G02*
X7839480Y-21114690I0J243750D01*
G01*
X7839480Y-20627190D01*
G75*
G02*
X8083230Y-20383440I243750J0D01*
G01*
G37*
G36*
G01*
X23648350Y-16045600D02*
X24560850Y-16045600D01*
G75*
G02*
X24804600Y-16289350I0J-243750D01*
G01*
X24804600Y-16776850D01*
G75*
G02*
X24560850Y-17020600I-243750J0D01*
G01*
X23648350Y-17020600D01*
G75*
G02*
X23404600Y-16776850I0J243750D01*
G01*
X23404600Y-16289350D01*
G75*
G02*
X23648350Y-16045600I243750J0D01*
G01*
G37*
G36*
G01*
X23648350Y-14170600D02*
X24560850Y-14170600D01*
G75*
G02*
X24804600Y-14414350I0J-243750D01*
G01*
X24804600Y-14901850D01*
G75*
G02*
X24560850Y-15145600I-243750J0D01*
G01*
X23648350Y-15145600D01*
G75*
G02*
X23404600Y-14901850I0J243750D01*
G01*
X23404600Y-14414350D01*
G75*
G02*
X23648350Y-14170600I243750J0D01*
G01*
G37*
G36*
G01*
X62027500Y-55836250D02*
X62027500Y-54923750D01*
G75*
G02*
X62271250Y-54680000I243750J0D01*
G01*
X62758750Y-54680000D01*
G75*
G02*
X63002500Y-54923750I0J-243750D01*
G01*
X63002500Y-55836250D01*
G75*
G02*
X62758750Y-56080000I-243750J0D01*
G01*
X62271250Y-56080000D01*
G75*
G02*
X62027500Y-55836250I0J243750D01*
G01*
G37*
G36*
G01*
X60152500Y-55836250D02*
X60152500Y-54923750D01*
G75*
G02*
X60396250Y-54680000I243750J0D01*
G01*
X60883750Y-54680000D01*
G75*
G02*
X61127500Y-54923750I0J-243750D01*
G01*
X61127500Y-55836250D01*
G75*
G02*
X60883750Y-56080000I-243750J0D01*
G01*
X60396250Y-56080000D01*
G75*
G02*
X60152500Y-55836250I0J243750D01*
G01*
G37*
G36*
G01*
X61047500Y-52043750D02*
X61047500Y-52956250D01*
G75*
G02*
X60803750Y-53200000I-243750J0D01*
G01*
X60316250Y-53200000D01*
G75*
G02*
X60072500Y-52956250I0J243750D01*
G01*
X60072500Y-52043750D01*
G75*
G02*
X60316250Y-51800000I243750J0D01*
G01*
X60803750Y-51800000D01*
G75*
G02*
X61047500Y-52043750I0J-243750D01*
G01*
G37*
G36*
G01*
X62922500Y-52043750D02*
X62922500Y-52956250D01*
G75*
G02*
X62678750Y-53200000I-243750J0D01*
G01*
X62191250Y-53200000D01*
G75*
G02*
X61947500Y-52956250I0J243750D01*
G01*
X61947500Y-52043750D01*
G75*
G02*
X62191250Y-51800000I243750J0D01*
G01*
X62678750Y-51800000D01*
G75*
G02*
X62922500Y-52043750I0J-243750D01*
G01*
G37*
G36*
G01*
X68703750Y-19050000D02*
X69616250Y-19050000D01*
G75*
G02*
X69860000Y-19293750I0J-243750D01*
G01*
X69860000Y-19781250D01*
G75*
G02*
X69616250Y-20025000I-243750J0D01*
G01*
X68703750Y-20025000D01*
G75*
G02*
X68460000Y-19781250I0J243750D01*
G01*
X68460000Y-19293750D01*
G75*
G02*
X68703750Y-19050000I243750J0D01*
G01*
G37*
G36*
G01*
X68703750Y-17175000D02*
X69616250Y-17175000D01*
G75*
G02*
X69860000Y-17418750I0J-243750D01*
G01*
X69860000Y-17906250D01*
G75*
G02*
X69616250Y-18150000I-243750J0D01*
G01*
X68703750Y-18150000D01*
G75*
G02*
X68460000Y-17906250I0J243750D01*
G01*
X68460000Y-17418750D01*
G75*
G02*
X68703750Y-17175000I243750J0D01*
G01*
G37*
G36*
G01*
X68932500Y-12096250D02*
X68932500Y-11183750D01*
G75*
G02*
X69176250Y-10940000I243750J0D01*
G01*
X69663750Y-10940000D01*
G75*
G02*
X69907500Y-11183750I0J-243750D01*
G01*
X69907500Y-12096250D01*
G75*
G02*
X69663750Y-12340000I-243750J0D01*
G01*
X69176250Y-12340000D01*
G75*
G02*
X68932500Y-12096250I0J243750D01*
G01*
G37*
G36*
G01*
X67057500Y-12096250D02*
X67057500Y-11183750D01*
G75*
G02*
X67301250Y-10940000I243750J0D01*
G01*
X67788750Y-10940000D01*
G75*
G02*
X68032500Y-11183750I0J-243750D01*
G01*
X68032500Y-12096250D01*
G75*
G02*
X67788750Y-12340000I-243750J0D01*
G01*
X67301250Y-12340000D01*
G75*
G02*
X67057500Y-12096250I0J243750D01*
G01*
G37*
G36*
G01*
X64100000Y-18763750D02*
X64100000Y-19676250D01*
G75*
G02*
X63856250Y-19920000I-243750J0D01*
G01*
X63368750Y-19920000D01*
G75*
G02*
X63125000Y-19676250I0J243750D01*
G01*
X63125000Y-18763750D01*
G75*
G02*
X63368750Y-18520000I243750J0D01*
G01*
X63856250Y-18520000D01*
G75*
G02*
X64100000Y-18763750I0J-243750D01*
G01*
G37*
G36*
G01*
X65975000Y-18763750D02*
X65975000Y-19676250D01*
G75*
G02*
X65731250Y-19920000I-243750J0D01*
G01*
X65243750Y-19920000D01*
G75*
G02*
X65000000Y-19676250I0J243750D01*
G01*
X65000000Y-18763750D01*
G75*
G02*
X65243750Y-18520000I243750J0D01*
G01*
X65731250Y-18520000D01*
G75*
G02*
X65975000Y-18763750I0J-243750D01*
G01*
G37*
G36*
G01*
X65616250Y-22940000D02*
X64703750Y-22940000D01*
G75*
G02*
X64460000Y-22696250I0J243750D01*
G01*
X64460000Y-22208750D01*
G75*
G02*
X64703750Y-21965000I243750J0D01*
G01*
X65616250Y-21965000D01*
G75*
G02*
X65860000Y-22208750I0J-243750D01*
G01*
X65860000Y-22696250D01*
G75*
G02*
X65616250Y-22940000I-243750J0D01*
G01*
G37*
G36*
G01*
X65616250Y-24815000D02*
X64703750Y-24815000D01*
G75*
G02*
X64460000Y-24571250I0J243750D01*
G01*
X64460000Y-24083750D01*
G75*
G02*
X64703750Y-23840000I243750J0D01*
G01*
X65616250Y-23840000D01*
G75*
G02*
X65860000Y-24083750I0J-243750D01*
G01*
X65860000Y-24571250D01*
G75*
G02*
X65616250Y-24815000I-243750J0D01*
G01*
G37*
G36*
G01*
X46896250Y390000D02*
X45983750Y390000D01*
G75*
G02*
X45740000Y633750I0J243750D01*
G01*
X45740000Y1121250D01*
G75*
G02*
X45983750Y1365000I243750J0D01*
G01*
X46896250Y1365000D01*
G75*
G02*
X47140000Y1121250I0J-243750D01*
G01*
X47140000Y633750D01*
G75*
G02*
X46896250Y390000I-243750J0D01*
G01*
G37*
G36*
G01*
X46896250Y-1485000D02*
X45983750Y-1485000D01*
G75*
G02*
X45740000Y-1241250I0J243750D01*
G01*
X45740000Y-753750D01*
G75*
G02*
X45983750Y-510000I243750J0D01*
G01*
X46896250Y-510000D01*
G75*
G02*
X47140000Y-753750I0J-243750D01*
G01*
X47140000Y-1241250D01*
G75*
G02*
X46896250Y-1485000I-243750J0D01*
G01*
G37*
G36*
G01*
X44807430Y-3860000D02*
X43894930Y-3860000D01*
G75*
G02*
X43651180Y-3616250I0J243750D01*
G01*
X43651180Y-3128750D01*
G75*
G02*
X43894930Y-2885000I243750J0D01*
G01*
X44807430Y-2885000D01*
G75*
G02*
X45051180Y-3128750I0J-243750D01*
G01*
X45051180Y-3616250D01*
G75*
G02*
X44807430Y-3860000I-243750J0D01*
G01*
G37*
G36*
G01*
X44807430Y-5735000D02*
X43894930Y-5735000D01*
G75*
G02*
X43651180Y-5491250I0J243750D01*
G01*
X43651180Y-5003750D01*
G75*
G02*
X43894930Y-4760000I243750J0D01*
G01*
X44807430Y-4760000D01*
G75*
G02*
X45051180Y-5003750I0J-243750D01*
G01*
X45051180Y-5491250D01*
G75*
G02*
X44807430Y-5735000I-243750J0D01*
G01*
G37*
G36*
G01*
X64260000Y-5026250D02*
X64260000Y-4113750D01*
G75*
G02*
X64503750Y-3870000I243750J0D01*
G01*
X64991250Y-3870000D01*
G75*
G02*
X65235000Y-4113750I0J-243750D01*
G01*
X65235000Y-5026250D01*
G75*
G02*
X64991250Y-5270000I-243750J0D01*
G01*
X64503750Y-5270000D01*
G75*
G02*
X64260000Y-5026250I0J243750D01*
G01*
G37*
G36*
G01*
X62385000Y-5026250D02*
X62385000Y-4113750D01*
G75*
G02*
X62628750Y-3870000I243750J0D01*
G01*
X63116250Y-3870000D01*
G75*
G02*
X63360000Y-4113750I0J-243750D01*
G01*
X63360000Y-5026250D01*
G75*
G02*
X63116250Y-5270000I-243750J0D01*
G01*
X62628750Y-5270000D01*
G75*
G02*
X62385000Y-5026250I0J243750D01*
G01*
G37*
G36*
G01*
X13348650Y-15992260D02*
X14261150Y-15992260D01*
G75*
G02*
X14504900Y-16236010I0J-243750D01*
G01*
X14504900Y-16723510D01*
G75*
G02*
X14261150Y-16967260I-243750J0D01*
G01*
X13348650Y-16967260D01*
G75*
G02*
X13104900Y-16723510I0J243750D01*
G01*
X13104900Y-16236010D01*
G75*
G02*
X13348650Y-15992260I243750J0D01*
G01*
G37*
G36*
G01*
X13348650Y-14117260D02*
X14261150Y-14117260D01*
G75*
G02*
X14504900Y-14361010I0J-243750D01*
G01*
X14504900Y-14848510D01*
G75*
G02*
X14261150Y-15092260I-243750J0D01*
G01*
X13348650Y-15092260D01*
G75*
G02*
X13104900Y-14848510I0J243750D01*
G01*
X13104900Y-14361010D01*
G75*
G02*
X13348650Y-14117260I243750J0D01*
G01*
G37*
G36*
G01*
X8045130Y-27183260D02*
X8957630Y-27183260D01*
G75*
G02*
X9201380Y-27427010I0J-243750D01*
G01*
X9201380Y-27914510D01*
G75*
G02*
X8957630Y-28158260I-243750J0D01*
G01*
X8045130Y-28158260D01*
G75*
G02*
X7801380Y-27914510I0J243750D01*
G01*
X7801380Y-27427010D01*
G75*
G02*
X8045130Y-27183260I243750J0D01*
G01*
G37*
G36*
G01*
X8045130Y-25308260D02*
X8957630Y-25308260D01*
G75*
G02*
X9201380Y-25552010I0J-243750D01*
G01*
X9201380Y-26039510D01*
G75*
G02*
X8957630Y-26283260I-243750J0D01*
G01*
X8045130Y-26283260D01*
G75*
G02*
X7801380Y-26039510I0J243750D01*
G01*
X7801380Y-25552010D01*
G75*
G02*
X8045130Y-25308260I243750J0D01*
G01*
G37*
G36*
G01*
X20270150Y-16045600D02*
X21182650Y-16045600D01*
G75*
G02*
X21426400Y-16289350I0J-243750D01*
G01*
X21426400Y-16776850D01*
G75*
G02*
X21182650Y-17020600I-243750J0D01*
G01*
X20270150Y-17020600D01*
G75*
G02*
X20026400Y-16776850I0J243750D01*
G01*
X20026400Y-16289350D01*
G75*
G02*
X20270150Y-16045600I243750J0D01*
G01*
G37*
G36*
G01*
X20270150Y-14170600D02*
X21182650Y-14170600D01*
G75*
G02*
X21426400Y-14414350I0J-243750D01*
G01*
X21426400Y-14901850D01*
G75*
G02*
X21182650Y-15145600I-243750J0D01*
G01*
X20270150Y-15145600D01*
G75*
G02*
X20026400Y-14901850I0J243750D01*
G01*
X20026400Y-14414350D01*
G75*
G02*
X20270150Y-14170600I243750J0D01*
G01*
G37*
G36*
G01*
X26942730Y-16045600D02*
X27855230Y-16045600D01*
G75*
G02*
X28098980Y-16289350I0J-243750D01*
G01*
X28098980Y-16776850D01*
G75*
G02*
X27855230Y-17020600I-243750J0D01*
G01*
X26942730Y-17020600D01*
G75*
G02*
X26698980Y-16776850I0J243750D01*
G01*
X26698980Y-16289350D01*
G75*
G02*
X26942730Y-16045600I243750J0D01*
G01*
G37*
G36*
G01*
X26942730Y-14170600D02*
X27855230Y-14170600D01*
G75*
G02*
X28098980Y-14414350I0J-243750D01*
G01*
X28098980Y-14901850D01*
G75*
G02*
X27855230Y-15145600I-243750J0D01*
G01*
X26942730Y-15145600D01*
G75*
G02*
X26698980Y-14901850I0J243750D01*
G01*
X26698980Y-14414350D01*
G75*
G02*
X26942730Y-14170600I243750J0D01*
G01*
G37*
X5420360Y-8524060D03*
X6370360Y-10724060D03*
X4470360Y-10724060D03*
X10492740Y-8694240D03*
X11442740Y-10894240D03*
X9542740Y-10894240D03*
X20594320Y-8808540D03*
X21544320Y-11008540D03*
X19644320Y-11008540D03*
X15562580Y-8734880D03*
X16512580Y-10934880D03*
X14612580Y-10934880D03*
X25859740Y-8831400D03*
X26809740Y-11031400D03*
X24909740Y-11031400D03*
D12*
X64720000Y-860000D03*
X63320000Y-860000D03*
D13*
X51350000Y810000D03*
X51350000Y-590000D03*
G36*
G01*
X67963750Y-3870000D02*
X68876250Y-3870000D01*
G75*
G02*
X69120000Y-4113750I0J-243750D01*
G01*
X69120000Y-4601250D01*
G75*
G02*
X68876250Y-4845000I-243750J0D01*
G01*
X67963750Y-4845000D01*
G75*
G02*
X67720000Y-4601250I0J243750D01*
G01*
X67720000Y-4113750D01*
G75*
G02*
X67963750Y-3870000I243750J0D01*
G01*
G37*
G36*
G01*
X67963750Y-1995000D02*
X68876250Y-1995000D01*
G75*
G02*
X69120000Y-2238750I0J-243750D01*
G01*
X69120000Y-2726250D01*
G75*
G02*
X68876250Y-2970000I-243750J0D01*
G01*
X67963750Y-2970000D01*
G75*
G02*
X67720000Y-2726250I0J243750D01*
G01*
X67720000Y-2238750D01*
G75*
G02*
X67963750Y-1995000I243750J0D01*
G01*
G37*
G36*
G01*
X68072500Y-14043750D02*
X68072500Y-14956250D01*
G75*
G02*
X67828750Y-15200000I-243750J0D01*
G01*
X67341250Y-15200000D01*
G75*
G02*
X67097500Y-14956250I0J243750D01*
G01*
X67097500Y-14043750D01*
G75*
G02*
X67341250Y-13800000I243750J0D01*
G01*
X67828750Y-13800000D01*
G75*
G02*
X68072500Y-14043750I0J-243750D01*
G01*
G37*
G36*
G01*
X69947500Y-14043750D02*
X69947500Y-14956250D01*
G75*
G02*
X69703750Y-15200000I-243750J0D01*
G01*
X69216250Y-15200000D01*
G75*
G02*
X68972500Y-14956250I0J243750D01*
G01*
X68972500Y-14043750D01*
G75*
G02*
X69216250Y-13800000I243750J0D01*
G01*
X69703750Y-13800000D01*
G75*
G02*
X69947500Y-14043750I0J-243750D01*
G01*
G37*
G36*
G01*
X42246250Y500000D02*
X41333750Y500000D01*
G75*
G02*
X41090000Y743750I0J243750D01*
G01*
X41090000Y1231250D01*
G75*
G02*
X41333750Y1475000I243750J0D01*
G01*
X42246250Y1475000D01*
G75*
G02*
X42490000Y1231250I0J-243750D01*
G01*
X42490000Y743750D01*
G75*
G02*
X42246250Y500000I-243750J0D01*
G01*
G37*
G36*
G01*
X42246250Y-1375000D02*
X41333750Y-1375000D01*
G75*
G02*
X41090000Y-1131250I0J243750D01*
G01*
X41090000Y-643750D01*
G75*
G02*
X41333750Y-400000I243750J0D01*
G01*
X42246250Y-400000D01*
G75*
G02*
X42490000Y-643750I0J-243750D01*
G01*
X42490000Y-1131250D01*
G75*
G02*
X42246250Y-1375000I-243750J0D01*
G01*
G37*
G36*
G01*
X43841590Y-8239800D02*
X44754090Y-8239800D01*
G75*
G02*
X44997840Y-8483550I0J-243750D01*
G01*
X44997840Y-8971050D01*
G75*
G02*
X44754090Y-9214800I-243750J0D01*
G01*
X43841590Y-9214800D01*
G75*
G02*
X43597840Y-8971050I0J243750D01*
G01*
X43597840Y-8483550D01*
G75*
G02*
X43841590Y-8239800I243750J0D01*
G01*
G37*
G36*
G01*
X43841590Y-6364800D02*
X44754090Y-6364800D01*
G75*
G02*
X44997840Y-6608550I0J-243750D01*
G01*
X44997840Y-7096050D01*
G75*
G02*
X44754090Y-7339800I-243750J0D01*
G01*
X43841590Y-7339800D01*
G75*
G02*
X43597840Y-7096050I0J243750D01*
G01*
X43597840Y-6608550D01*
G75*
G02*
X43841590Y-6364800I243750J0D01*
G01*
G37*
D14*
X38692000Y-53340000D03*
X36492000Y-54290000D03*
X36492000Y-52390000D03*
G36*
G01*
X43360000Y-17453750D02*
X43360000Y-18366250D01*
G75*
G02*
X43116250Y-18610000I-243750J0D01*
G01*
X42628750Y-18610000D01*
G75*
G02*
X42385000Y-18366250I0J243750D01*
G01*
X42385000Y-17453750D01*
G75*
G02*
X42628750Y-17210000I243750J0D01*
G01*
X43116250Y-17210000D01*
G75*
G02*
X43360000Y-17453750I0J-243750D01*
G01*
G37*
G36*
G01*
X45235000Y-17453750D02*
X45235000Y-18366250D01*
G75*
G02*
X44991250Y-18610000I-243750J0D01*
G01*
X44503750Y-18610000D01*
G75*
G02*
X44260000Y-18366250I0J243750D01*
G01*
X44260000Y-17453750D01*
G75*
G02*
X44503750Y-17210000I243750J0D01*
G01*
X44991250Y-17210000D01*
G75*
G02*
X45235000Y-17453750I0J-243750D01*
G01*
G37*
G36*
G01*
X49070000Y-17253750D02*
X49070000Y-18166250D01*
G75*
G02*
X48826250Y-18410000I-243750J0D01*
G01*
X48338750Y-18410000D01*
G75*
G02*
X48095000Y-18166250I0J243750D01*
G01*
X48095000Y-17253750D01*
G75*
G02*
X48338750Y-17010000I243750J0D01*
G01*
X48826250Y-17010000D01*
G75*
G02*
X49070000Y-17253750I0J-243750D01*
G01*
G37*
G36*
G01*
X50945000Y-17253750D02*
X50945000Y-18166250D01*
G75*
G02*
X50701250Y-18410000I-243750J0D01*
G01*
X50213750Y-18410000D01*
G75*
G02*
X49970000Y-18166250I0J243750D01*
G01*
X49970000Y-17253750D01*
G75*
G02*
X50213750Y-17010000I243750J0D01*
G01*
X50701250Y-17010000D01*
G75*
G02*
X50945000Y-17253750I0J-243750D01*
G01*
G37*
G36*
G01*
X54520680Y-17043750D02*
X54520680Y-17956250D01*
G75*
G02*
X54276930Y-18200000I-243750J0D01*
G01*
X53789430Y-18200000D01*
G75*
G02*
X53545680Y-17956250I0J243750D01*
G01*
X53545680Y-17043750D01*
G75*
G02*
X53789430Y-16800000I243750J0D01*
G01*
X54276930Y-16800000D01*
G75*
G02*
X54520680Y-17043750I0J-243750D01*
G01*
G37*
G36*
G01*
X56395680Y-17043750D02*
X56395680Y-17956250D01*
G75*
G02*
X56151930Y-18200000I-243750J0D01*
G01*
X55664430Y-18200000D01*
G75*
G02*
X55420680Y-17956250I0J243750D01*
G01*
X55420680Y-17043750D01*
G75*
G02*
X55664430Y-16800000I243750J0D01*
G01*
X56151930Y-16800000D01*
G75*
G02*
X56395680Y-17043750I0J-243750D01*
G01*
G37*
G36*
G01*
X59791420Y-17115470D02*
X59791420Y-18027970D01*
G75*
G02*
X59547670Y-18271720I-243750J0D01*
G01*
X59060170Y-18271720D01*
G75*
G02*
X58816420Y-18027970I0J243750D01*
G01*
X58816420Y-17115470D01*
G75*
G02*
X59060170Y-16871720I243750J0D01*
G01*
X59547670Y-16871720D01*
G75*
G02*
X59791420Y-17115470I0J-243750D01*
G01*
G37*
G36*
G01*
X61666420Y-17115470D02*
X61666420Y-18027970D01*
G75*
G02*
X61422670Y-18271720I-243750J0D01*
G01*
X60935170Y-18271720D01*
G75*
G02*
X60691420Y-18027970I0J243750D01*
G01*
X60691420Y-17115470D01*
G75*
G02*
X60935170Y-16871720I243750J0D01*
G01*
X61422670Y-16871720D01*
G75*
G02*
X61666420Y-17115470I0J-243750D01*
G01*
G37*
G36*
G01*
X44041240Y-15734350D02*
X44041240Y-14821850D01*
G75*
G02*
X44284990Y-14578100I243750J0D01*
G01*
X44772490Y-14578100D01*
G75*
G02*
X45016240Y-14821850I0J-243750D01*
G01*
X45016240Y-15734350D01*
G75*
G02*
X44772490Y-15978100I-243750J0D01*
G01*
X44284990Y-15978100D01*
G75*
G02*
X44041240Y-15734350I0J243750D01*
G01*
G37*
G36*
G01*
X42166240Y-15734350D02*
X42166240Y-14821850D01*
G75*
G02*
X42409990Y-14578100I243750J0D01*
G01*
X42897490Y-14578100D01*
G75*
G02*
X43141240Y-14821850I0J-243750D01*
G01*
X43141240Y-15734350D01*
G75*
G02*
X42897490Y-15978100I-243750J0D01*
G01*
X42409990Y-15978100D01*
G75*
G02*
X42166240Y-15734350I0J243750D01*
G01*
G37*
G36*
G01*
X49743780Y-15673390D02*
X49743780Y-14760890D01*
G75*
G02*
X49987530Y-14517140I243750J0D01*
G01*
X50475030Y-14517140D01*
G75*
G02*
X50718780Y-14760890I0J-243750D01*
G01*
X50718780Y-15673390D01*
G75*
G02*
X50475030Y-15917140I-243750J0D01*
G01*
X49987530Y-15917140D01*
G75*
G02*
X49743780Y-15673390I0J243750D01*
G01*
G37*
G36*
G01*
X47868780Y-15673390D02*
X47868780Y-14760890D01*
G75*
G02*
X48112530Y-14517140I243750J0D01*
G01*
X48600030Y-14517140D01*
G75*
G02*
X48843780Y-14760890I0J-243750D01*
G01*
X48843780Y-15673390D01*
G75*
G02*
X48600030Y-15917140I-243750J0D01*
G01*
X48112530Y-15917140D01*
G75*
G02*
X47868780Y-15673390I0J243750D01*
G01*
G37*
G36*
G01*
X55420680Y-15487970D02*
X55420680Y-14575470D01*
G75*
G02*
X55664430Y-14331720I243750J0D01*
G01*
X56151930Y-14331720D01*
G75*
G02*
X56395680Y-14575470I0J-243750D01*
G01*
X56395680Y-15487970D01*
G75*
G02*
X56151930Y-15731720I-243750J0D01*
G01*
X55664430Y-15731720D01*
G75*
G02*
X55420680Y-15487970I0J243750D01*
G01*
G37*
G36*
G01*
X53545680Y-15487970D02*
X53545680Y-14575470D01*
G75*
G02*
X53789430Y-14331720I243750J0D01*
G01*
X54276930Y-14331720D01*
G75*
G02*
X54520680Y-14575470I0J-243750D01*
G01*
X54520680Y-15487970D01*
G75*
G02*
X54276930Y-15731720I-243750J0D01*
G01*
X53789430Y-15731720D01*
G75*
G02*
X53545680Y-15487970I0J243750D01*
G01*
G37*
G36*
G01*
X60594420Y-15487970D02*
X60594420Y-14575470D01*
G75*
G02*
X60838170Y-14331720I243750J0D01*
G01*
X61325670Y-14331720D01*
G75*
G02*
X61569420Y-14575470I0J-243750D01*
G01*
X61569420Y-15487970D01*
G75*
G02*
X61325670Y-15731720I-243750J0D01*
G01*
X60838170Y-15731720D01*
G75*
G02*
X60594420Y-15487970I0J243750D01*
G01*
G37*
G36*
G01*
X58719420Y-15487970D02*
X58719420Y-14575470D01*
G75*
G02*
X58963170Y-14331720I243750J0D01*
G01*
X59450670Y-14331720D01*
G75*
G02*
X59694420Y-14575470I0J-243750D01*
G01*
X59694420Y-15487970D01*
G75*
G02*
X59450670Y-15731720I-243750J0D01*
G01*
X58963170Y-15731720D01*
G75*
G02*
X58719420Y-15487970I0J243750D01*
G01*
G37*
G36*
G01*
X10293750Y-5950000D02*
X11206250Y-5950000D01*
G75*
G02*
X11450000Y-6193750I0J-243750D01*
G01*
X11450000Y-6681250D01*
G75*
G02*
X11206250Y-6925000I-243750J0D01*
G01*
X10293750Y-6925000D01*
G75*
G02*
X10050000Y-6681250I0J243750D01*
G01*
X10050000Y-6193750D01*
G75*
G02*
X10293750Y-5950000I243750J0D01*
G01*
G37*
G36*
G01*
X10293750Y-4075000D02*
X11206250Y-4075000D01*
G75*
G02*
X11450000Y-4318750I0J-243750D01*
G01*
X11450000Y-4806250D01*
G75*
G02*
X11206250Y-5050000I-243750J0D01*
G01*
X10293750Y-5050000D01*
G75*
G02*
X10050000Y-4806250I0J243750D01*
G01*
X10050000Y-4318750D01*
G75*
G02*
X10293750Y-4075000I243750J0D01*
G01*
G37*
G36*
G01*
X15293750Y-5887500D02*
X16206250Y-5887500D01*
G75*
G02*
X16450000Y-6131250I0J-243750D01*
G01*
X16450000Y-6618750D01*
G75*
G02*
X16206250Y-6862500I-243750J0D01*
G01*
X15293750Y-6862500D01*
G75*
G02*
X15050000Y-6618750I0J243750D01*
G01*
X15050000Y-6131250D01*
G75*
G02*
X15293750Y-5887500I243750J0D01*
G01*
G37*
G36*
G01*
X15293750Y-4012500D02*
X16206250Y-4012500D01*
G75*
G02*
X16450000Y-4256250I0J-243750D01*
G01*
X16450000Y-4743750D01*
G75*
G02*
X16206250Y-4987500I-243750J0D01*
G01*
X15293750Y-4987500D01*
G75*
G02*
X15050000Y-4743750I0J243750D01*
G01*
X15050000Y-4256250D01*
G75*
G02*
X15293750Y-4012500I243750J0D01*
G01*
G37*
G36*
G01*
X20043750Y-5950000D02*
X20956250Y-5950000D01*
G75*
G02*
X21200000Y-6193750I0J-243750D01*
G01*
X21200000Y-6681250D01*
G75*
G02*
X20956250Y-6925000I-243750J0D01*
G01*
X20043750Y-6925000D01*
G75*
G02*
X19800000Y-6681250I0J243750D01*
G01*
X19800000Y-6193750D01*
G75*
G02*
X20043750Y-5950000I243750J0D01*
G01*
G37*
G36*
G01*
X20043750Y-4075000D02*
X20956250Y-4075000D01*
G75*
G02*
X21200000Y-4318750I0J-243750D01*
G01*
X21200000Y-4806250D01*
G75*
G02*
X20956250Y-5050000I-243750J0D01*
G01*
X20043750Y-5050000D01*
G75*
G02*
X19800000Y-4806250I0J243750D01*
G01*
X19800000Y-4318750D01*
G75*
G02*
X20043750Y-4075000I243750J0D01*
G01*
G37*
G36*
G01*
X25043750Y-5950000D02*
X25956250Y-5950000D01*
G75*
G02*
X26200000Y-6193750I0J-243750D01*
G01*
X26200000Y-6681250D01*
G75*
G02*
X25956250Y-6925000I-243750J0D01*
G01*
X25043750Y-6925000D01*
G75*
G02*
X24800000Y-6681250I0J243750D01*
G01*
X24800000Y-6193750D01*
G75*
G02*
X25043750Y-5950000I243750J0D01*
G01*
G37*
G36*
G01*
X25043750Y-4075000D02*
X25956250Y-4075000D01*
G75*
G02*
X26200000Y-4318750I0J-243750D01*
G01*
X26200000Y-4806250D01*
G75*
G02*
X25956250Y-5050000I-243750J0D01*
G01*
X25043750Y-5050000D01*
G75*
G02*
X24800000Y-4806250I0J243750D01*
G01*
X24800000Y-4318750D01*
G75*
G02*
X25043750Y-4075000I243750J0D01*
G01*
G37*
G36*
G01*
X32570000Y-51867750D02*
X32570000Y-52780250D01*
G75*
G02*
X32326250Y-53024000I-243750J0D01*
G01*
X31838750Y-53024000D01*
G75*
G02*
X31595000Y-52780250I0J243750D01*
G01*
X31595000Y-51867750D01*
G75*
G02*
X31838750Y-51624000I243750J0D01*
G01*
X32326250Y-51624000D01*
G75*
G02*
X32570000Y-51867750I0J-243750D01*
G01*
G37*
G36*
G01*
X34445000Y-51867750D02*
X34445000Y-52780250D01*
G75*
G02*
X34201250Y-53024000I-243750J0D01*
G01*
X33713750Y-53024000D01*
G75*
G02*
X33470000Y-52780250I0J243750D01*
G01*
X33470000Y-51867750D01*
G75*
G02*
X33713750Y-51624000I243750J0D01*
G01*
X34201250Y-51624000D01*
G75*
G02*
X34445000Y-51867750I0J-243750D01*
G01*
G37*
G36*
G01*
X52049020Y-30023750D02*
X52049020Y-30936250D01*
G75*
G02*
X51805270Y-31180000I-243750J0D01*
G01*
X51317770Y-31180000D01*
G75*
G02*
X51074020Y-30936250I0J243750D01*
G01*
X51074020Y-30023750D01*
G75*
G02*
X51317770Y-29780000I243750J0D01*
G01*
X51805270Y-29780000D01*
G75*
G02*
X52049020Y-30023750I0J-243750D01*
G01*
G37*
G36*
G01*
X53924020Y-30023750D02*
X53924020Y-30936250D01*
G75*
G02*
X53680270Y-31180000I-243750J0D01*
G01*
X53192770Y-31180000D01*
G75*
G02*
X52949020Y-30936250I0J243750D01*
G01*
X52949020Y-30023750D01*
G75*
G02*
X53192770Y-29780000I243750J0D01*
G01*
X53680270Y-29780000D01*
G75*
G02*
X53924020Y-30023750I0J-243750D01*
G01*
G37*
G36*
G01*
X45348500Y-30061850D02*
X45348500Y-30974350D01*
G75*
G02*
X45104750Y-31218100I-243750J0D01*
G01*
X44617250Y-31218100D01*
G75*
G02*
X44373500Y-30974350I0J243750D01*
G01*
X44373500Y-30061850D01*
G75*
G02*
X44617250Y-29818100I243750J0D01*
G01*
X45104750Y-29818100D01*
G75*
G02*
X45348500Y-30061850I0J-243750D01*
G01*
G37*
G36*
G01*
X47223500Y-30061850D02*
X47223500Y-30974350D01*
G75*
G02*
X46979750Y-31218100I-243750J0D01*
G01*
X46492250Y-31218100D01*
G75*
G02*
X46248500Y-30974350I0J243750D01*
G01*
X46248500Y-30061850D01*
G75*
G02*
X46492250Y-29818100I243750J0D01*
G01*
X46979750Y-29818100D01*
G75*
G02*
X47223500Y-30061850I0J-243750D01*
G01*
G37*
G36*
G01*
X38559320Y-29983110D02*
X38559320Y-30895610D01*
G75*
G02*
X38315570Y-31139360I-243750J0D01*
G01*
X37828070Y-31139360D01*
G75*
G02*
X37584320Y-30895610I0J243750D01*
G01*
X37584320Y-29983110D01*
G75*
G02*
X37828070Y-29739360I243750J0D01*
G01*
X38315570Y-29739360D01*
G75*
G02*
X38559320Y-29983110I0J-243750D01*
G01*
G37*
G36*
G01*
X40434320Y-29983110D02*
X40434320Y-30895610D01*
G75*
G02*
X40190570Y-31139360I-243750J0D01*
G01*
X39703070Y-31139360D01*
G75*
G02*
X39459320Y-30895610I0J243750D01*
G01*
X39459320Y-29983110D01*
G75*
G02*
X39703070Y-29739360I243750J0D01*
G01*
X40190570Y-29739360D01*
G75*
G02*
X40434320Y-29983110I0J-243750D01*
G01*
G37*
G36*
G01*
X31798080Y-29904370D02*
X31798080Y-30816870D01*
G75*
G02*
X31554330Y-31060620I-243750J0D01*
G01*
X31066830Y-31060620D01*
G75*
G02*
X30823080Y-30816870I0J243750D01*
G01*
X30823080Y-29904370D01*
G75*
G02*
X31066830Y-29660620I243750J0D01*
G01*
X31554330Y-29660620D01*
G75*
G02*
X31798080Y-29904370I0J-243750D01*
G01*
G37*
G36*
G01*
X33673080Y-29904370D02*
X33673080Y-30816870D01*
G75*
G02*
X33429330Y-31060620I-243750J0D01*
G01*
X32941830Y-31060620D01*
G75*
G02*
X32698080Y-30816870I0J243750D01*
G01*
X32698080Y-29904370D01*
G75*
G02*
X32941830Y-29660620I243750J0D01*
G01*
X33429330Y-29660620D01*
G75*
G02*
X33673080Y-29904370I0J-243750D01*
G01*
G37*
G36*
G01*
X56336250Y-33332000D02*
X55423750Y-33332000D01*
G75*
G02*
X55180000Y-33088250I0J243750D01*
G01*
X55180000Y-32600750D01*
G75*
G02*
X55423750Y-32357000I243750J0D01*
G01*
X56336250Y-32357000D01*
G75*
G02*
X56580000Y-32600750I0J-243750D01*
G01*
X56580000Y-33088250D01*
G75*
G02*
X56336250Y-33332000I-243750J0D01*
G01*
G37*
G36*
G01*
X56336250Y-35207000D02*
X55423750Y-35207000D01*
G75*
G02*
X55180000Y-34963250I0J243750D01*
G01*
X55180000Y-34475750D01*
G75*
G02*
X55423750Y-34232000I243750J0D01*
G01*
X56336250Y-34232000D01*
G75*
G02*
X56580000Y-34475750I0J-243750D01*
G01*
X56580000Y-34963250D01*
G75*
G02*
X56336250Y-35207000I-243750J0D01*
G01*
G37*
G36*
G01*
X49432530Y-33225320D02*
X48520030Y-33225320D01*
G75*
G02*
X48276280Y-32981570I0J243750D01*
G01*
X48276280Y-32494070D01*
G75*
G02*
X48520030Y-32250320I243750J0D01*
G01*
X49432530Y-32250320D01*
G75*
G02*
X49676280Y-32494070I0J-243750D01*
G01*
X49676280Y-32981570D01*
G75*
G02*
X49432530Y-33225320I-243750J0D01*
G01*
G37*
G36*
G01*
X49432530Y-35100320D02*
X48520030Y-35100320D01*
G75*
G02*
X48276280Y-34856570I0J243750D01*
G01*
X48276280Y-34369070D01*
G75*
G02*
X48520030Y-34125320I243750J0D01*
G01*
X49432530Y-34125320D01*
G75*
G02*
X49676280Y-34369070I0J-243750D01*
G01*
X49676280Y-34856570D01*
G75*
G02*
X49432530Y-35100320I-243750J0D01*
G01*
G37*
G36*
G01*
X42798050Y-33332000D02*
X41885550Y-33332000D01*
G75*
G02*
X41641800Y-33088250I0J243750D01*
G01*
X41641800Y-32600750D01*
G75*
G02*
X41885550Y-32357000I243750J0D01*
G01*
X42798050Y-32357000D01*
G75*
G02*
X43041800Y-32600750I0J-243750D01*
G01*
X43041800Y-33088250D01*
G75*
G02*
X42798050Y-33332000I-243750J0D01*
G01*
G37*
G36*
G01*
X42798050Y-35207000D02*
X41885550Y-35207000D01*
G75*
G02*
X41641800Y-34963250I0J243750D01*
G01*
X41641800Y-34475750D01*
G75*
G02*
X41885550Y-34232000I243750J0D01*
G01*
X42798050Y-34232000D01*
G75*
G02*
X43041800Y-34475750I0J-243750D01*
G01*
X43041800Y-34963250D01*
G75*
G02*
X42798050Y-35207000I-243750J0D01*
G01*
G37*
G36*
G01*
X36270250Y-33332000D02*
X35357750Y-33332000D01*
G75*
G02*
X35114000Y-33088250I0J243750D01*
G01*
X35114000Y-32600750D01*
G75*
G02*
X35357750Y-32357000I243750J0D01*
G01*
X36270250Y-32357000D01*
G75*
G02*
X36514000Y-32600750I0J-243750D01*
G01*
X36514000Y-33088250D01*
G75*
G02*
X36270250Y-33332000I-243750J0D01*
G01*
G37*
G36*
G01*
X36270250Y-35207000D02*
X35357750Y-35207000D01*
G75*
G02*
X35114000Y-34963250I0J243750D01*
G01*
X35114000Y-34475750D01*
G75*
G02*
X35357750Y-34232000I243750J0D01*
G01*
X36270250Y-34232000D01*
G75*
G02*
X36514000Y-34475750I0J-243750D01*
G01*
X36514000Y-34963250D01*
G75*
G02*
X36270250Y-35207000I-243750J0D01*
G01*
G37*
D15*
X2489960Y-17965420D03*
X4489960Y-17015420D03*
X4489960Y-18915420D03*
X2691380Y-22021760D03*
X4691380Y-21071760D03*
X4691380Y-22971760D03*
X2629660Y-27371040D03*
X4629660Y-26421040D03*
X4629660Y-28321040D03*
X51578000Y-33782000D03*
X53578000Y-32832000D03*
X53578000Y-34732000D03*
X44720000Y-33782000D03*
X46720000Y-32832000D03*
X46720000Y-34732000D03*
X38116000Y-33782000D03*
X40116000Y-32832000D03*
X40116000Y-34732000D03*
X31512000Y-33782000D03*
X33512000Y-32832000D03*
X33512000Y-34732000D03*
G36*
G01*
X41900000Y-23375000D02*
X41900000Y-22625000D01*
G75*
G02*
X42225000Y-22300000I325000J0D01*
G01*
X42875000Y-22300000D01*
G75*
G02*
X43200000Y-22625000I0J-325000D01*
G01*
X43200000Y-23375000D01*
G75*
G02*
X42875000Y-23700000I-325000J0D01*
G01*
X42225000Y-23700000D01*
G75*
G02*
X41900000Y-23375000I0J325000D01*
G01*
G37*
G36*
G01*
X44800000Y-23375000D02*
X44800000Y-22625000D01*
G75*
G02*
X45125000Y-22300000I325000J0D01*
G01*
X45775000Y-22300000D01*
G75*
G02*
X46100000Y-22625000I0J-325000D01*
G01*
X46100000Y-23375000D01*
G75*
G02*
X45775000Y-23700000I-325000J0D01*
G01*
X45125000Y-23700000D01*
G75*
G02*
X44800000Y-23375000I0J325000D01*
G01*
G37*
G36*
G01*
X47370000Y-23195000D02*
X47370000Y-22445000D01*
G75*
G02*
X47695000Y-22120000I325000J0D01*
G01*
X48345000Y-22120000D01*
G75*
G02*
X48670000Y-22445000I0J-325000D01*
G01*
X48670000Y-23195000D01*
G75*
G02*
X48345000Y-23520000I-325000J0D01*
G01*
X47695000Y-23520000D01*
G75*
G02*
X47370000Y-23195000I0J325000D01*
G01*
G37*
G36*
G01*
X50270000Y-23195000D02*
X50270000Y-22445000D01*
G75*
G02*
X50595000Y-22120000I325000J0D01*
G01*
X51245000Y-22120000D01*
G75*
G02*
X51570000Y-22445000I0J-325000D01*
G01*
X51570000Y-23195000D01*
G75*
G02*
X51245000Y-23520000I-325000J0D01*
G01*
X50595000Y-23520000D01*
G75*
G02*
X50270000Y-23195000I0J325000D01*
G01*
G37*
G36*
G01*
X52910980Y-23085140D02*
X52910980Y-22335140D01*
G75*
G02*
X53235980Y-22010140I325000J0D01*
G01*
X53885980Y-22010140D01*
G75*
G02*
X54210980Y-22335140I0J-325000D01*
G01*
X54210980Y-23085140D01*
G75*
G02*
X53885980Y-23410140I-325000J0D01*
G01*
X53235980Y-23410140D01*
G75*
G02*
X52910980Y-23085140I0J325000D01*
G01*
G37*
G36*
G01*
X55810980Y-23085140D02*
X55810980Y-22335140D01*
G75*
G02*
X56135980Y-22010140I325000J0D01*
G01*
X56785980Y-22010140D01*
G75*
G02*
X57110980Y-22335140I0J-325000D01*
G01*
X57110980Y-23085140D01*
G75*
G02*
X56785980Y-23410140I-325000J0D01*
G01*
X56135980Y-23410140D01*
G75*
G02*
X55810980Y-23085140I0J325000D01*
G01*
G37*
G36*
G01*
X58250740Y-23003860D02*
X58250740Y-22253860D01*
G75*
G02*
X58575740Y-21928860I325000J0D01*
G01*
X59225740Y-21928860D01*
G75*
G02*
X59550740Y-22253860I0J-325000D01*
G01*
X59550740Y-23003860D01*
G75*
G02*
X59225740Y-23328860I-325000J0D01*
G01*
X58575740Y-23328860D01*
G75*
G02*
X58250740Y-23003860I0J325000D01*
G01*
G37*
G36*
G01*
X61150740Y-23003860D02*
X61150740Y-22253860D01*
G75*
G02*
X61475740Y-21928860I325000J0D01*
G01*
X62125740Y-21928860D01*
G75*
G02*
X62450740Y-22253860I0J-325000D01*
G01*
X62450740Y-23003860D01*
G75*
G02*
X62125740Y-23328860I-325000J0D01*
G01*
X61475740Y-23328860D01*
G75*
G02*
X61150740Y-23003860I0J325000D01*
G01*
G37*
G36*
G01*
X44510000Y-20826250D02*
X44510000Y-19913750D01*
G75*
G02*
X44753750Y-19670000I243750J0D01*
G01*
X45241250Y-19670000D01*
G75*
G02*
X45485000Y-19913750I0J-243750D01*
G01*
X45485000Y-20826250D01*
G75*
G02*
X45241250Y-21070000I-243750J0D01*
G01*
X44753750Y-21070000D01*
G75*
G02*
X44510000Y-20826250I0J243750D01*
G01*
G37*
G36*
G01*
X42635000Y-20826250D02*
X42635000Y-19913750D01*
G75*
G02*
X42878750Y-19670000I243750J0D01*
G01*
X43366250Y-19670000D01*
G75*
G02*
X43610000Y-19913750I0J-243750D01*
G01*
X43610000Y-20826250D01*
G75*
G02*
X43366250Y-21070000I-243750J0D01*
G01*
X42878750Y-21070000D01*
G75*
G02*
X42635000Y-20826250I0J243750D01*
G01*
G37*
G36*
G01*
X49982500Y-20576250D02*
X49982500Y-19663750D01*
G75*
G02*
X50226250Y-19420000I243750J0D01*
G01*
X50713750Y-19420000D01*
G75*
G02*
X50957500Y-19663750I0J-243750D01*
G01*
X50957500Y-20576250D01*
G75*
G02*
X50713750Y-20820000I-243750J0D01*
G01*
X50226250Y-20820000D01*
G75*
G02*
X49982500Y-20576250I0J243750D01*
G01*
G37*
G36*
G01*
X48107500Y-20576250D02*
X48107500Y-19663750D01*
G75*
G02*
X48351250Y-19420000I243750J0D01*
G01*
X48838750Y-19420000D01*
G75*
G02*
X49082500Y-19663750I0J-243750D01*
G01*
X49082500Y-20576250D01*
G75*
G02*
X48838750Y-20820000I-243750J0D01*
G01*
X48351250Y-20820000D01*
G75*
G02*
X48107500Y-20576250I0J243750D01*
G01*
G37*
G36*
G01*
X55420680Y-20567970D02*
X55420680Y-19655470D01*
G75*
G02*
X55664430Y-19411720I243750J0D01*
G01*
X56151930Y-19411720D01*
G75*
G02*
X56395680Y-19655470I0J-243750D01*
G01*
X56395680Y-20567970D01*
G75*
G02*
X56151930Y-20811720I-243750J0D01*
G01*
X55664430Y-20811720D01*
G75*
G02*
X55420680Y-20567970I0J243750D01*
G01*
G37*
G36*
G01*
X53545680Y-20567970D02*
X53545680Y-19655470D01*
G75*
G02*
X53789430Y-19411720I243750J0D01*
G01*
X54276930Y-19411720D01*
G75*
G02*
X54520680Y-19655470I0J-243750D01*
G01*
X54520680Y-20567970D01*
G75*
G02*
X54276930Y-20811720I-243750J0D01*
G01*
X53789430Y-20811720D01*
G75*
G02*
X53545680Y-20567970I0J243750D01*
G01*
G37*
G36*
G01*
X60594420Y-20567970D02*
X60594420Y-19655470D01*
G75*
G02*
X60838170Y-19411720I243750J0D01*
G01*
X61325670Y-19411720D01*
G75*
G02*
X61569420Y-19655470I0J-243750D01*
G01*
X61569420Y-20567970D01*
G75*
G02*
X61325670Y-20811720I-243750J0D01*
G01*
X60838170Y-20811720D01*
G75*
G02*
X60594420Y-20567970I0J243750D01*
G01*
G37*
G36*
G01*
X58719420Y-20567970D02*
X58719420Y-19655470D01*
G75*
G02*
X58963170Y-19411720I243750J0D01*
G01*
X59450670Y-19411720D01*
G75*
G02*
X59694420Y-19655470I0J-243750D01*
G01*
X59694420Y-20567970D01*
G75*
G02*
X59450670Y-20811720I-243750J0D01*
G01*
X58963170Y-20811720D01*
G75*
G02*
X58719420Y-20567970I0J243750D01*
G01*
G37*
M02*
