G04 #@! TF.GenerationSoftware,KiCad,Pcbnew,(5.1.6-0-10_14)*
G04 #@! TF.CreationDate,2020-09-03T17:39:19-04:00*
G04 #@! TF.ProjectId,Pufferfish-Interface-2,50756666-6572-4666-9973-682d496e7465,rev?*
G04 #@! TF.SameCoordinates,Original*
G04 #@! TF.FileFunction,Legend,Bot*
G04 #@! TF.FilePolarity,Positive*
%FSLAX46Y46*%
G04 Gerber Fmt 4.6, Leading zero omitted, Abs format (unit mm)*
G04 Created by KiCad (PCBNEW (5.1.6-0-10_14)) date 2020-09-03 17:39:19*
%MOMM*%
%LPD*%
G01*
G04 APERTURE LIST*
%ADD10C,0.120000*%
%ADD11C,0.200000*%
%ADD12C,0.100000*%
%ADD13C,0.127000*%
%ADD14C,0.150000*%
G04 APERTURE END LIST*
D10*
X63210000Y-30991422D02*
X63210000Y-31508578D01*
X61790000Y-30991422D02*
X61790000Y-31508578D01*
X1690000Y170000D02*
X1690000Y2830000D01*
X32230000Y170000D02*
X1690000Y170000D01*
X32230000Y2830000D02*
X1690000Y2830000D01*
X32230000Y170000D02*
X32230000Y2830000D01*
X33500000Y170000D02*
X34830000Y170000D01*
X34830000Y170000D02*
X34830000Y1500000D01*
X55428922Y-26710000D02*
X55946078Y-26710000D01*
X55428922Y-25290000D02*
X55946078Y-25290000D01*
D11*
X34393288Y-40409340D02*
G75*
G03*
X34393288Y-40409340I-323788J0D01*
G01*
X63533500Y-47838840D02*
X30513500Y-47838840D01*
X30513500Y-47838840D02*
X30513500Y-41869840D01*
X35593500Y-38567840D02*
X63533500Y-38567840D01*
X63533500Y-38567840D02*
X63533500Y-47838840D01*
D10*
X20126060Y-32608760D02*
X20126060Y-31808760D01*
X17526060Y-34858760D02*
X20126060Y-34858760D01*
X20126060Y-34858760D02*
X20126060Y-33908760D01*
X12720120Y-49105100D02*
X13520120Y-49105100D01*
X10470120Y-46505100D02*
X10470120Y-49105100D01*
X10470120Y-49105100D02*
X11420120Y-49105100D01*
X14696178Y-33054220D02*
X14179022Y-33054220D01*
X14696178Y-34474220D02*
X14179022Y-34474220D01*
X16866102Y-49444980D02*
X17383258Y-49444980D01*
X16866102Y-48024980D02*
X17383258Y-48024980D01*
D12*
X-7346780Y-2045660D02*
G75*
G03*
X-7346780Y-2045660I-127000J0D01*
G01*
D13*
X2401220Y-9395660D02*
X-9548780Y-9395660D01*
D14*
X61302380Y-30607142D02*
X60826190Y-30273809D01*
X61302380Y-30035714D02*
X60302380Y-30035714D01*
X60302380Y-30416666D01*
X60350000Y-30511904D01*
X60397619Y-30559523D01*
X60492857Y-30607142D01*
X60635714Y-30607142D01*
X60730952Y-30559523D01*
X60778571Y-30511904D01*
X60826190Y-30416666D01*
X60826190Y-30035714D01*
X60635714Y-31464285D02*
X61302380Y-31464285D01*
X60254761Y-31226190D02*
X60969047Y-30988095D01*
X60969047Y-31607142D01*
X61302380Y-32035714D02*
X61302380Y-32226190D01*
X61254761Y-32321428D01*
X61207142Y-32369047D01*
X61064285Y-32464285D01*
X60873809Y-32511904D01*
X60492857Y-32511904D01*
X60397619Y-32464285D01*
X60350000Y-32416666D01*
X60302380Y-32321428D01*
X60302380Y-32130952D01*
X60350000Y-32035714D01*
X60397619Y-31988095D01*
X60492857Y-31940476D01*
X60730952Y-31940476D01*
X60826190Y-31988095D01*
X60873809Y-32035714D01*
X60921428Y-32130952D01*
X60921428Y-32321428D01*
X60873809Y-32416666D01*
X60826190Y-32464285D01*
X60730952Y-32511904D01*
X35282380Y1833333D02*
X35996666Y1833333D01*
X36139523Y1880952D01*
X36234761Y1976190D01*
X36282380Y2119047D01*
X36282380Y2214285D01*
X35377619Y1404761D02*
X35330000Y1357142D01*
X35282380Y1261904D01*
X35282380Y1023809D01*
X35330000Y928571D01*
X35377619Y880952D01*
X35472857Y833333D01*
X35568095Y833333D01*
X35710952Y880952D01*
X36282380Y1452380D01*
X36282380Y833333D01*
X56642857Y-28952380D02*
X56976190Y-28476190D01*
X57214285Y-28952380D02*
X57214285Y-27952380D01*
X56833333Y-27952380D01*
X56738095Y-28000000D01*
X56690476Y-28047619D01*
X56642857Y-28142857D01*
X56642857Y-28285714D01*
X56690476Y-28380952D01*
X56738095Y-28428571D01*
X56833333Y-28476190D01*
X57214285Y-28476190D01*
X56261904Y-28047619D02*
X56214285Y-28000000D01*
X56119047Y-27952380D01*
X55880952Y-27952380D01*
X55785714Y-28000000D01*
X55738095Y-28047619D01*
X55690476Y-28142857D01*
X55690476Y-28238095D01*
X55738095Y-28380952D01*
X56309523Y-28952380D01*
X55690476Y-28952380D01*
X55214285Y-28952380D02*
X55023809Y-28952380D01*
X54928571Y-28904761D01*
X54880952Y-28857142D01*
X54785714Y-28714285D01*
X54738095Y-28523809D01*
X54738095Y-28142857D01*
X54785714Y-28047619D01*
X54833333Y-28000000D01*
X54928571Y-27952380D01*
X55119047Y-27952380D01*
X55214285Y-28000000D01*
X55261904Y-28047619D01*
X55309523Y-28142857D01*
X55309523Y-28380952D01*
X55261904Y-28476190D01*
X55214285Y-28523809D01*
X55119047Y-28571428D01*
X54928571Y-28571428D01*
X54833333Y-28523809D01*
X54785714Y-28476190D01*
X54738095Y-28380952D01*
X36488095Y-37607142D02*
X36535714Y-37654761D01*
X36678571Y-37702380D01*
X36773809Y-37702380D01*
X36916666Y-37654761D01*
X37011904Y-37559523D01*
X37059523Y-37464285D01*
X37107142Y-37273809D01*
X37107142Y-37130952D01*
X37059523Y-36940476D01*
X37011904Y-36845238D01*
X36916666Y-36750000D01*
X36773809Y-36702380D01*
X36678571Y-36702380D01*
X36535714Y-36750000D01*
X36488095Y-36797619D01*
X35869047Y-36702380D02*
X35678571Y-36702380D01*
X35583333Y-36750000D01*
X35488095Y-36845238D01*
X35440476Y-37035714D01*
X35440476Y-37369047D01*
X35488095Y-37559523D01*
X35583333Y-37654761D01*
X35678571Y-37702380D01*
X35869047Y-37702380D01*
X35964285Y-37654761D01*
X36059523Y-37559523D01*
X36107142Y-37369047D01*
X36107142Y-37035714D01*
X36059523Y-36845238D01*
X35964285Y-36750000D01*
X35869047Y-36702380D01*
X35011904Y-37702380D02*
X35011904Y-36702380D01*
X34440476Y-37702380D01*
X34440476Y-36702380D01*
X33964285Y-37702380D02*
X33964285Y-36702380D01*
X33392857Y-37702380D01*
X33392857Y-36702380D01*
X32488095Y-37035714D02*
X32488095Y-37702380D01*
X32726190Y-36654761D02*
X32964285Y-37369047D01*
X32345238Y-37369047D01*
X22845238Y-35047619D02*
X22940476Y-35000000D01*
X23035714Y-34904761D01*
X23178571Y-34761904D01*
X23273809Y-34714285D01*
X23369047Y-34714285D01*
X23321428Y-34952380D02*
X23416666Y-34904761D01*
X23511904Y-34809523D01*
X23559523Y-34619047D01*
X23559523Y-34285714D01*
X23511904Y-34095238D01*
X23416666Y-34000000D01*
X23321428Y-33952380D01*
X23130952Y-33952380D01*
X23035714Y-34000000D01*
X22940476Y-34095238D01*
X22892857Y-34285714D01*
X22892857Y-34619047D01*
X22940476Y-34809523D01*
X23035714Y-34904761D01*
X23130952Y-34952380D01*
X23321428Y-34952380D01*
X22035714Y-33952380D02*
X22226190Y-33952380D01*
X22321428Y-34000000D01*
X22369047Y-34047619D01*
X22464285Y-34190476D01*
X22511904Y-34380952D01*
X22511904Y-34761904D01*
X22464285Y-34857142D01*
X22416666Y-34904761D01*
X22321428Y-34952380D01*
X22130952Y-34952380D01*
X22035714Y-34904761D01*
X21988095Y-34857142D01*
X21940476Y-34761904D01*
X21940476Y-34523809D01*
X21988095Y-34428571D01*
X22035714Y-34380952D01*
X22130952Y-34333333D01*
X22321428Y-34333333D01*
X22416666Y-34380952D01*
X22464285Y-34428571D01*
X22511904Y-34523809D01*
X10047619Y-49404761D02*
X10000000Y-49309523D01*
X9904761Y-49214285D01*
X9761904Y-49071428D01*
X9714285Y-48976190D01*
X9714285Y-48880952D01*
X9952380Y-48928571D02*
X9904761Y-48833333D01*
X9809523Y-48738095D01*
X9619047Y-48690476D01*
X9285714Y-48690476D01*
X9095238Y-48738095D01*
X9000000Y-48833333D01*
X8952380Y-48928571D01*
X8952380Y-49119047D01*
X9000000Y-49214285D01*
X9095238Y-49309523D01*
X9285714Y-49357142D01*
X9619047Y-49357142D01*
X9809523Y-49309523D01*
X9904761Y-49214285D01*
X9952380Y-49119047D01*
X9952380Y-48928571D01*
X8952380Y-50261904D02*
X8952380Y-49785714D01*
X9428571Y-49738095D01*
X9380952Y-49785714D01*
X9333333Y-49880952D01*
X9333333Y-50119047D01*
X9380952Y-50214285D01*
X9428571Y-50261904D01*
X9523809Y-50309523D01*
X9761904Y-50309523D01*
X9857142Y-50261904D01*
X9904761Y-50214285D01*
X9952380Y-50119047D01*
X9952380Y-49880952D01*
X9904761Y-49785714D01*
X9857142Y-49738095D01*
X13142857Y-31702380D02*
X13476190Y-31226190D01*
X13714285Y-31702380D02*
X13714285Y-30702380D01*
X13333333Y-30702380D01*
X13238095Y-30750000D01*
X13190476Y-30797619D01*
X13142857Y-30892857D01*
X13142857Y-31035714D01*
X13190476Y-31130952D01*
X13238095Y-31178571D01*
X13333333Y-31226190D01*
X13714285Y-31226190D01*
X12190476Y-31702380D02*
X12761904Y-31702380D01*
X12476190Y-31702380D02*
X12476190Y-30702380D01*
X12571428Y-30845238D01*
X12666666Y-30940476D01*
X12761904Y-30988095D01*
X11571428Y-30702380D02*
X11476190Y-30702380D01*
X11380952Y-30750000D01*
X11333333Y-30797619D01*
X11285714Y-30892857D01*
X11238095Y-31083333D01*
X11238095Y-31321428D01*
X11285714Y-31511904D01*
X11333333Y-31607142D01*
X11380952Y-31654761D01*
X11476190Y-31702380D01*
X11571428Y-31702380D01*
X11666666Y-31654761D01*
X11714285Y-31607142D01*
X11761904Y-31511904D01*
X11809523Y-31321428D01*
X11809523Y-31083333D01*
X11761904Y-30892857D01*
X11714285Y-30797619D01*
X11666666Y-30750000D01*
X11571428Y-30702380D01*
X18916666Y-47452380D02*
X19250000Y-46976190D01*
X19488095Y-47452380D02*
X19488095Y-46452380D01*
X19107142Y-46452380D01*
X19011904Y-46500000D01*
X18964285Y-46547619D01*
X18916666Y-46642857D01*
X18916666Y-46785714D01*
X18964285Y-46880952D01*
X19011904Y-46928571D01*
X19107142Y-46976190D01*
X19488095Y-46976190D01*
X18440476Y-47452380D02*
X18250000Y-47452380D01*
X18154761Y-47404761D01*
X18107142Y-47357142D01*
X18011904Y-47214285D01*
X17964285Y-47023809D01*
X17964285Y-46642857D01*
X18011904Y-46547619D01*
X18059523Y-46500000D01*
X18154761Y-46452380D01*
X18345238Y-46452380D01*
X18440476Y-46500000D01*
X18488095Y-46547619D01*
X18535714Y-46642857D01*
X18535714Y-46880952D01*
X18488095Y-46976190D01*
X18440476Y-47023809D01*
X18345238Y-47071428D01*
X18154761Y-47071428D01*
X18059523Y-47023809D01*
X18011904Y-46976190D01*
X17964285Y-46880952D01*
X2201633Y-11403861D02*
X2249287Y-11451514D01*
X2392247Y-11499168D01*
X2487554Y-11499168D01*
X2630515Y-11451514D01*
X2725822Y-11356207D01*
X2773475Y-11260900D01*
X2821129Y-11070286D01*
X2821129Y-10927326D01*
X2773475Y-10736712D01*
X2725822Y-10641405D01*
X2630515Y-10546098D01*
X2487554Y-10498444D01*
X2392247Y-10498444D01*
X2249287Y-10546098D01*
X2201633Y-10593751D01*
X1582137Y-10498444D02*
X1391523Y-10498444D01*
X1296216Y-10546098D01*
X1200909Y-10641405D01*
X1153256Y-10832019D01*
X1153256Y-11165593D01*
X1200909Y-11356207D01*
X1296216Y-11451514D01*
X1391523Y-11499168D01*
X1582137Y-11499168D01*
X1677444Y-11451514D01*
X1772751Y-11356207D01*
X1820405Y-11165593D01*
X1820405Y-10832019D01*
X1772751Y-10641405D01*
X1677444Y-10546098D01*
X1582137Y-10498444D01*
X724374Y-11499168D02*
X724374Y-10498444D01*
X152532Y-11499168D01*
X152532Y-10498444D01*
X-324003Y-11499168D02*
X-324003Y-10498444D01*
X-895845Y-11499168D01*
X-895845Y-10498444D01*
X-1324727Y-10593751D02*
X-1372380Y-10546098D01*
X-1467687Y-10498444D01*
X-1705955Y-10498444D01*
X-1801262Y-10546098D01*
X-1848915Y-10593751D01*
X-1896569Y-10689058D01*
X-1896569Y-10784365D01*
X-1848915Y-10927326D01*
X-1277073Y-11499168D01*
X-1896569Y-11499168D01*
M02*
