G04 #@! TF.GenerationSoftware,KiCad,Pcbnew,(5.1.6-0-10_14)*
G04 #@! TF.CreationDate,2020-09-03T17:39:19-04:00*
G04 #@! TF.ProjectId,Pufferfish-Interface-2,50756666-6572-4666-9973-682d496e7465,rev?*
G04 #@! TF.SameCoordinates,Original*
G04 #@! TF.FileFunction,Legend,Top*
G04 #@! TF.FilePolarity,Positive*
%FSLAX46Y46*%
G04 Gerber Fmt 4.6, Leading zero omitted, Abs format (unit mm)*
G04 Created by KiCad (PCBNEW (5.1.6-0-10_14)) date 2020-09-03 17:39:19*
%MOMM*%
%LPD*%
G01*
G04 APERTURE LIST*
%ADD10C,0.300000*%
%ADD11C,0.120000*%
%ADD12C,0.203200*%
%ADD13C,0.150000*%
G04 APERTURE END LIST*
D10*
X74369523Y-34392857D02*
X73099523Y-34392857D01*
X73099523Y-33821428D01*
X73160000Y-33678571D01*
X73220476Y-33607142D01*
X73341428Y-33535714D01*
X73522857Y-33535714D01*
X73643809Y-33607142D01*
X73704285Y-33678571D01*
X73764761Y-33821428D01*
X73764761Y-34392857D01*
X74309047Y-32321428D02*
X74369523Y-32464285D01*
X74369523Y-32750000D01*
X74309047Y-32892857D01*
X74188095Y-32964285D01*
X73704285Y-32964285D01*
X73583333Y-32892857D01*
X73522857Y-32750000D01*
X73522857Y-32464285D01*
X73583333Y-32321428D01*
X73704285Y-32250000D01*
X73825238Y-32250000D01*
X73946190Y-32964285D01*
X73522857Y-31750000D02*
X73522857Y-30964285D01*
X74369523Y-31750000D01*
X74369523Y-30964285D01*
X73160000Y-28464285D02*
X73099523Y-28607142D01*
X73099523Y-28821428D01*
X73160000Y-29035714D01*
X73280952Y-29178571D01*
X73401904Y-29250000D01*
X73643809Y-29321428D01*
X73825238Y-29321428D01*
X74067142Y-29250000D01*
X74188095Y-29178571D01*
X74309047Y-29035714D01*
X74369523Y-28821428D01*
X74369523Y-28678571D01*
X74309047Y-28464285D01*
X74248571Y-28392857D01*
X73825238Y-28392857D01*
X73825238Y-28678571D01*
X74369523Y-27535714D02*
X74309047Y-27678571D01*
X74188095Y-27750000D01*
X73099523Y-27750000D01*
X74369523Y-26750000D02*
X74309047Y-26892857D01*
X74248571Y-26964285D01*
X74127619Y-27035714D01*
X73764761Y-27035714D01*
X73643809Y-26964285D01*
X73583333Y-26892857D01*
X73522857Y-26750000D01*
X73522857Y-26535714D01*
X73583333Y-26392857D01*
X73643809Y-26321428D01*
X73764761Y-26250000D01*
X74127619Y-26250000D01*
X74248571Y-26321428D01*
X74309047Y-26392857D01*
X74369523Y-26535714D01*
X74369523Y-26750000D01*
X74369523Y-25607142D02*
X73099523Y-25607142D01*
X73583333Y-25607142D02*
X73522857Y-25464285D01*
X73522857Y-25178571D01*
X73583333Y-25035714D01*
X73643809Y-24964285D01*
X73764761Y-24892857D01*
X74127619Y-24892857D01*
X74248571Y-24964285D01*
X74309047Y-25035714D01*
X74369523Y-25178571D01*
X74369523Y-25464285D01*
X74309047Y-25607142D01*
X74369523Y-24035714D02*
X74309047Y-24178571D01*
X74248571Y-24250000D01*
X74127619Y-24321428D01*
X73764761Y-24321428D01*
X73643809Y-24250000D01*
X73583333Y-24178571D01*
X73522857Y-24035714D01*
X73522857Y-23821428D01*
X73583333Y-23678571D01*
X73643809Y-23607142D01*
X73764761Y-23535714D01*
X74127619Y-23535714D01*
X74248571Y-23607142D01*
X74309047Y-23678571D01*
X74369523Y-23821428D01*
X74369523Y-24035714D01*
X76574523Y-40928571D02*
X75304523Y-40928571D01*
X75727857Y-40214285D02*
X76574523Y-40214285D01*
X75848809Y-40214285D02*
X75788333Y-40142857D01*
X75727857Y-40000000D01*
X75727857Y-39785714D01*
X75788333Y-39642857D01*
X75909285Y-39571428D01*
X76574523Y-39571428D01*
X75727857Y-39071428D02*
X75727857Y-38500000D01*
X75304523Y-38857142D02*
X76393095Y-38857142D01*
X76514047Y-38785714D01*
X76574523Y-38642857D01*
X76574523Y-38500000D01*
X76514047Y-37428571D02*
X76574523Y-37571428D01*
X76574523Y-37857142D01*
X76514047Y-38000000D01*
X76393095Y-38071428D01*
X75909285Y-38071428D01*
X75788333Y-38000000D01*
X75727857Y-37857142D01*
X75727857Y-37571428D01*
X75788333Y-37428571D01*
X75909285Y-37357142D01*
X76030238Y-37357142D01*
X76151190Y-38071428D01*
X76574523Y-36714285D02*
X75727857Y-36714285D01*
X75969761Y-36714285D02*
X75848809Y-36642857D01*
X75788333Y-36571428D01*
X75727857Y-36428571D01*
X75727857Y-36285714D01*
X75727857Y-36000000D02*
X75727857Y-35428571D01*
X76574523Y-35785714D02*
X75485952Y-35785714D01*
X75365000Y-35714285D01*
X75304523Y-35571428D01*
X75304523Y-35428571D01*
X76574523Y-34285714D02*
X75909285Y-34285714D01*
X75788333Y-34357142D01*
X75727857Y-34500000D01*
X75727857Y-34785714D01*
X75788333Y-34928571D01*
X76514047Y-34285714D02*
X76574523Y-34428571D01*
X76574523Y-34785714D01*
X76514047Y-34928571D01*
X76393095Y-35000000D01*
X76272142Y-35000000D01*
X76151190Y-34928571D01*
X76090714Y-34785714D01*
X76090714Y-34428571D01*
X76030238Y-34285714D01*
X76514047Y-32928571D02*
X76574523Y-33071428D01*
X76574523Y-33357142D01*
X76514047Y-33500000D01*
X76453571Y-33571428D01*
X76332619Y-33642857D01*
X75969761Y-33642857D01*
X75848809Y-33571428D01*
X75788333Y-33500000D01*
X75727857Y-33357142D01*
X75727857Y-33071428D01*
X75788333Y-32928571D01*
X76514047Y-31714285D02*
X76574523Y-31857142D01*
X76574523Y-32142857D01*
X76514047Y-32285714D01*
X76393095Y-32357142D01*
X75909285Y-32357142D01*
X75788333Y-32285714D01*
X75727857Y-32142857D01*
X75727857Y-31857142D01*
X75788333Y-31714285D01*
X75909285Y-31642857D01*
X76030238Y-31642857D01*
X76151190Y-32357142D01*
X75909285Y-29357142D02*
X75969761Y-29142857D01*
X76030238Y-29071428D01*
X76151190Y-29000000D01*
X76332619Y-29000000D01*
X76453571Y-29071428D01*
X76514047Y-29142857D01*
X76574523Y-29285714D01*
X76574523Y-29857142D01*
X75304523Y-29857142D01*
X75304523Y-29357142D01*
X75365000Y-29214285D01*
X75425476Y-29142857D01*
X75546428Y-29071428D01*
X75667380Y-29071428D01*
X75788333Y-29142857D01*
X75848809Y-29214285D01*
X75909285Y-29357142D01*
X75909285Y-29857142D01*
X76574523Y-28142857D02*
X76514047Y-28285714D01*
X76453571Y-28357142D01*
X76332619Y-28428571D01*
X75969761Y-28428571D01*
X75848809Y-28357142D01*
X75788333Y-28285714D01*
X75727857Y-28142857D01*
X75727857Y-27928571D01*
X75788333Y-27785714D01*
X75848809Y-27714285D01*
X75969761Y-27642857D01*
X76332619Y-27642857D01*
X76453571Y-27714285D01*
X76514047Y-27785714D01*
X76574523Y-27928571D01*
X76574523Y-28142857D01*
X76574523Y-26357142D02*
X75909285Y-26357142D01*
X75788333Y-26428571D01*
X75727857Y-26571428D01*
X75727857Y-26857142D01*
X75788333Y-27000000D01*
X76514047Y-26357142D02*
X76574523Y-26500000D01*
X76574523Y-26857142D01*
X76514047Y-27000000D01*
X76393095Y-27071428D01*
X76272142Y-27071428D01*
X76151190Y-27000000D01*
X76090714Y-26857142D01*
X76090714Y-26500000D01*
X76030238Y-26357142D01*
X76574523Y-25642857D02*
X75727857Y-25642857D01*
X75969761Y-25642857D02*
X75848809Y-25571428D01*
X75788333Y-25500000D01*
X75727857Y-25357142D01*
X75727857Y-25214285D01*
X76574523Y-24071428D02*
X75304523Y-24071428D01*
X76514047Y-24071428D02*
X76574523Y-24214285D01*
X76574523Y-24500000D01*
X76514047Y-24642857D01*
X76453571Y-24714285D01*
X76332619Y-24785714D01*
X75969761Y-24785714D01*
X75848809Y-24714285D01*
X75788333Y-24642857D01*
X75727857Y-24500000D01*
X75727857Y-24214285D01*
X75788333Y-24071428D01*
X75727857Y-22357142D02*
X76574523Y-22000000D01*
X75727857Y-21642857D01*
X75425476Y-21142857D02*
X75365000Y-21071428D01*
X75304523Y-20928571D01*
X75304523Y-20571428D01*
X75365000Y-20428571D01*
X75425476Y-20357142D01*
X75546428Y-20285714D01*
X75667380Y-20285714D01*
X75848809Y-20357142D01*
X76574523Y-21214285D01*
X76574523Y-20285714D01*
X76090714Y-19642857D02*
X76090714Y-18500000D01*
X75304523Y-17928571D02*
X75304523Y-17000000D01*
X75788333Y-17500000D01*
X75788333Y-17285714D01*
X75848809Y-17142857D01*
X75909285Y-17071428D01*
X76030238Y-17000000D01*
X76332619Y-17000000D01*
X76453571Y-17071428D01*
X76514047Y-17142857D01*
X76574523Y-17285714D01*
X76574523Y-17714285D01*
X76514047Y-17857142D01*
X76453571Y-17928571D01*
X78779523Y-43107142D02*
X78719047Y-43250000D01*
X78598095Y-43321428D01*
X77509523Y-43321428D01*
X78779523Y-41892857D02*
X78114285Y-41892857D01*
X77993333Y-41964285D01*
X77932857Y-42107142D01*
X77932857Y-42392857D01*
X77993333Y-42535714D01*
X78719047Y-41892857D02*
X78779523Y-42035714D01*
X78779523Y-42392857D01*
X78719047Y-42535714D01*
X78598095Y-42607142D01*
X78477142Y-42607142D01*
X78356190Y-42535714D01*
X78295714Y-42392857D01*
X78295714Y-42035714D01*
X78235238Y-41892857D01*
X77932857Y-40535714D02*
X78779523Y-40535714D01*
X77932857Y-41178571D02*
X78598095Y-41178571D01*
X78719047Y-41107142D01*
X78779523Y-40964285D01*
X78779523Y-40750000D01*
X78719047Y-40607142D01*
X78658571Y-40535714D01*
X78779523Y-39821428D02*
X77932857Y-39821428D01*
X78174761Y-39821428D02*
X78053809Y-39750000D01*
X77993333Y-39678571D01*
X77932857Y-39535714D01*
X77932857Y-39392857D01*
X78719047Y-38321428D02*
X78779523Y-38464285D01*
X78779523Y-38750000D01*
X78719047Y-38892857D01*
X78598095Y-38964285D01*
X78114285Y-38964285D01*
X77993333Y-38892857D01*
X77932857Y-38750000D01*
X77932857Y-38464285D01*
X77993333Y-38321428D01*
X78114285Y-38250000D01*
X78235238Y-38250000D01*
X78356190Y-38964285D01*
X77932857Y-37607142D02*
X78779523Y-37607142D01*
X78053809Y-37607142D02*
X77993333Y-37535714D01*
X77932857Y-37392857D01*
X77932857Y-37178571D01*
X77993333Y-37035714D01*
X78114285Y-36964285D01*
X78779523Y-36964285D01*
X78779523Y-35607142D02*
X78114285Y-35607142D01*
X77993333Y-35678571D01*
X77932857Y-35821428D01*
X77932857Y-36107142D01*
X77993333Y-36250000D01*
X78719047Y-35607142D02*
X78779523Y-35750000D01*
X78779523Y-36107142D01*
X78719047Y-36250000D01*
X78598095Y-36321428D01*
X78477142Y-36321428D01*
X78356190Y-36250000D01*
X78295714Y-36107142D01*
X78295714Y-35750000D01*
X78235238Y-35607142D01*
X78779523Y-34250000D02*
X77509523Y-34250000D01*
X78719047Y-34250000D02*
X78779523Y-34392857D01*
X78779523Y-34678571D01*
X78719047Y-34821428D01*
X78658571Y-34892857D01*
X78537619Y-34964285D01*
X78174761Y-34964285D01*
X78053809Y-34892857D01*
X77993333Y-34821428D01*
X77932857Y-34678571D01*
X77932857Y-34392857D01*
X77993333Y-34250000D01*
X78779523Y-32892857D02*
X78114285Y-32892857D01*
X77993333Y-32964285D01*
X77932857Y-33107142D01*
X77932857Y-33392857D01*
X77993333Y-33535714D01*
X78719047Y-32892857D02*
X78779523Y-33035714D01*
X78779523Y-33392857D01*
X78719047Y-33535714D01*
X78598095Y-33607142D01*
X78477142Y-33607142D01*
X78356190Y-33535714D01*
X78295714Y-33392857D01*
X78295714Y-33035714D01*
X78235238Y-32892857D01*
X78719047Y-31535714D02*
X78779523Y-31678571D01*
X78779523Y-31964285D01*
X78719047Y-32107142D01*
X78658571Y-32178571D01*
X78537619Y-32250000D01*
X78174761Y-32250000D01*
X78053809Y-32178571D01*
X77993333Y-32107142D01*
X77932857Y-31964285D01*
X77932857Y-31678571D01*
X77993333Y-31535714D01*
X78779523Y-30892857D02*
X77509523Y-30892857D01*
X78779523Y-30250000D02*
X78114285Y-30250000D01*
X77993333Y-30321428D01*
X77932857Y-30464285D01*
X77932857Y-30678571D01*
X77993333Y-30821428D01*
X78053809Y-30892857D01*
X78779523Y-29535714D02*
X77932857Y-29535714D01*
X77509523Y-29535714D02*
X77570000Y-29607142D01*
X77630476Y-29535714D01*
X77570000Y-29464285D01*
X77509523Y-29535714D01*
X77630476Y-29535714D01*
X79263333Y-27250000D02*
X79202857Y-27321428D01*
X79021428Y-27464285D01*
X78900476Y-27535714D01*
X78719047Y-27607142D01*
X78416666Y-27678571D01*
X78174761Y-27678571D01*
X77872380Y-27607142D01*
X77690952Y-27535714D01*
X77570000Y-27464285D01*
X77388571Y-27321428D01*
X77328095Y-27250000D01*
X77630476Y-26750000D02*
X77570000Y-26678571D01*
X77509523Y-26535714D01*
X77509523Y-26178571D01*
X77570000Y-26035714D01*
X77630476Y-25964285D01*
X77751428Y-25892857D01*
X77872380Y-25892857D01*
X78053809Y-25964285D01*
X78779523Y-26821428D01*
X78779523Y-25892857D01*
X77509523Y-24964285D02*
X77509523Y-24821428D01*
X77570000Y-24678571D01*
X77630476Y-24607142D01*
X77751428Y-24535714D01*
X77993333Y-24464285D01*
X78295714Y-24464285D01*
X78537619Y-24535714D01*
X78658571Y-24607142D01*
X78719047Y-24678571D01*
X78779523Y-24821428D01*
X78779523Y-24964285D01*
X78719047Y-25107142D01*
X78658571Y-25178571D01*
X78537619Y-25250000D01*
X78295714Y-25321428D01*
X77993333Y-25321428D01*
X77751428Y-25250000D01*
X77630476Y-25178571D01*
X77570000Y-25107142D01*
X77509523Y-24964285D01*
X77630476Y-23892857D02*
X77570000Y-23821428D01*
X77509523Y-23678571D01*
X77509523Y-23321428D01*
X77570000Y-23178571D01*
X77630476Y-23107142D01*
X77751428Y-23035714D01*
X77872380Y-23035714D01*
X78053809Y-23107142D01*
X78779523Y-23964285D01*
X78779523Y-23035714D01*
X77509523Y-22107142D02*
X77509523Y-21964285D01*
X77570000Y-21821428D01*
X77630476Y-21750000D01*
X77751428Y-21678571D01*
X77993333Y-21607142D01*
X78295714Y-21607142D01*
X78537619Y-21678571D01*
X78658571Y-21750000D01*
X78719047Y-21821428D01*
X78779523Y-21964285D01*
X78779523Y-22107142D01*
X78719047Y-22250000D01*
X78658571Y-22321428D01*
X78537619Y-22392857D01*
X78295714Y-22464285D01*
X77993333Y-22464285D01*
X77751428Y-22392857D01*
X77630476Y-22321428D01*
X77570000Y-22250000D01*
X77509523Y-22107142D01*
X77449047Y-19892857D02*
X79081904Y-21178571D01*
X78779523Y-19321428D02*
X78779523Y-19035714D01*
X78719047Y-18892857D01*
X78658571Y-18821428D01*
X78477142Y-18678571D01*
X78235238Y-18607142D01*
X77751428Y-18607142D01*
X77630476Y-18678571D01*
X77570000Y-18750000D01*
X77509523Y-18892857D01*
X77509523Y-19178571D01*
X77570000Y-19321428D01*
X77630476Y-19392857D01*
X77751428Y-19464285D01*
X78053809Y-19464285D01*
X78174761Y-19392857D01*
X78235238Y-19321428D01*
X78295714Y-19178571D01*
X78295714Y-18892857D01*
X78235238Y-18750000D01*
X78174761Y-18678571D01*
X78053809Y-18607142D01*
X77449047Y-16892857D02*
X79081904Y-18178571D01*
X77509523Y-16535714D02*
X77509523Y-15607142D01*
X77993333Y-16107142D01*
X77993333Y-15892857D01*
X78053809Y-15750000D01*
X78114285Y-15678571D01*
X78235238Y-15607142D01*
X78537619Y-15607142D01*
X78658571Y-15678571D01*
X78719047Y-15750000D01*
X78779523Y-15892857D01*
X78779523Y-16321428D01*
X78719047Y-16464285D01*
X78658571Y-16535714D01*
X79263333Y-15107142D02*
X79202857Y-15035714D01*
X79021428Y-14892857D01*
X78900476Y-14821428D01*
X78719047Y-14750000D01*
X78416666Y-14678571D01*
X78174761Y-14678571D01*
X77872380Y-14750000D01*
X77690952Y-14821428D01*
X77570000Y-14892857D01*
X77388571Y-15035714D01*
X77328095Y-15107142D01*
D11*
X69303922Y-35790000D02*
X69821078Y-35790000D01*
X69303922Y-37210000D02*
X69821078Y-37210000D01*
X71080000Y-32240000D02*
X70150000Y-32240000D01*
X67920000Y-32240000D02*
X68850000Y-32240000D01*
X67920000Y-32240000D02*
X67920000Y-34400000D01*
X71080000Y-32240000D02*
X71080000Y-33700000D01*
X68100000Y-29600000D02*
X67300000Y-29600000D01*
X70350000Y-27000000D02*
X70350000Y-29600000D01*
X70350000Y-29600000D02*
X69400000Y-29600000D01*
X-7154620Y-50275980D02*
X-7154620Y-53215980D01*
X-7154620Y-53215980D02*
X-1714620Y-53215980D01*
X-1714620Y-53215980D02*
X-1714620Y-50275980D01*
X-1714620Y-50275980D02*
X-7154620Y-50275980D01*
X-8174620Y-51745980D02*
X-7154620Y-51745980D01*
X-694620Y-51745980D02*
X-1714620Y-51745980D01*
X-6254620Y-50275980D02*
X-6254620Y-53215980D01*
X-6134620Y-50275980D02*
X-6134620Y-53215980D01*
X-6374620Y-50275980D02*
X-6374620Y-53215980D01*
X38571422Y-19680000D02*
X39088578Y-19680000D01*
X38571422Y-21100000D02*
X39088578Y-21100000D01*
X39208578Y-18470000D02*
X38691422Y-18470000D01*
X39208578Y-17050000D02*
X38691422Y-17050000D01*
X38870122Y-14474120D02*
X39387278Y-14474120D01*
X38870122Y-15894120D02*
X39387278Y-15894120D01*
X25590960Y-22496780D02*
X25590960Y-19736780D01*
X25590960Y-19736780D02*
X25385960Y-19736780D01*
X25590960Y-22496780D02*
X25590960Y-25256780D01*
X25590960Y-25256780D02*
X25385960Y-25256780D01*
X15170960Y-22496780D02*
X15170960Y-19736780D01*
X15170960Y-19736780D02*
X15375960Y-19736780D01*
X15170960Y-22496780D02*
X15170960Y-25256780D01*
X15170960Y-25256780D02*
X15375960Y-25256780D01*
X15375960Y-25256780D02*
X15375960Y-26946780D01*
X34318578Y-18340000D02*
X33801422Y-18340000D01*
X34318578Y-16920000D02*
X33801422Y-16920000D01*
X34248922Y-14430000D02*
X34766078Y-14430000D01*
X34248922Y-15850000D02*
X34766078Y-15850000D01*
X68790000Y-23331422D02*
X68790000Y-23848578D01*
X67370000Y-23331422D02*
X67370000Y-23848578D01*
X6940620Y-4795782D02*
X6940620Y-5312938D01*
X5520620Y-4795782D02*
X5520620Y-5312938D01*
X33526902Y-19791500D02*
X34044058Y-19791500D01*
X33526902Y-21211500D02*
X34044058Y-21211500D01*
X2880000Y-39370000D02*
G75*
G03*
X2880000Y-39370000I-6000000J0D01*
G01*
X40750000Y-4500000D02*
G75*
G03*
X40750000Y-4500000I-3000000J0D01*
G01*
X57220000Y-8200000D02*
X59170000Y-8200000D01*
X57220000Y-8200000D02*
X55270000Y-8200000D01*
X57220000Y-3080000D02*
X59170000Y-3080000D01*
X57220000Y-3080000D02*
X53770000Y-3080000D01*
X13033922Y-52920000D02*
X13551078Y-52920000D01*
X13033922Y-54340000D02*
X13551078Y-54340000D01*
X9381560Y-17552142D02*
X9381560Y-18069298D01*
X7961560Y-17552142D02*
X7961560Y-18069298D01*
X18004860Y-15311622D02*
X18004860Y-15828778D01*
X16584860Y-15311622D02*
X16584860Y-15828778D01*
X9249480Y-21549862D02*
X9249480Y-22067018D01*
X7829480Y-21549862D02*
X7829480Y-22067018D01*
X24814600Y-15337022D02*
X24814600Y-15854178D01*
X23394600Y-15337022D02*
X23394600Y-15854178D01*
X61318922Y-54670000D02*
X61836078Y-54670000D01*
X61318922Y-56090000D02*
X61836078Y-56090000D01*
X61756078Y-53210000D02*
X61238922Y-53210000D01*
X61756078Y-51790000D02*
X61238922Y-51790000D01*
X69870000Y-18341422D02*
X69870000Y-18858578D01*
X68450000Y-18341422D02*
X68450000Y-18858578D01*
X68223922Y-10930000D02*
X68741078Y-10930000D01*
X68223922Y-12350000D02*
X68741078Y-12350000D01*
X64808578Y-19930000D02*
X64291422Y-19930000D01*
X64808578Y-18510000D02*
X64291422Y-18510000D01*
X64450000Y-23648578D02*
X64450000Y-23131422D01*
X65870000Y-23648578D02*
X65870000Y-23131422D01*
X45730000Y-318578D02*
X45730000Y198578D01*
X47150000Y-318578D02*
X47150000Y198578D01*
X43641180Y-4568578D02*
X43641180Y-4051422D01*
X45061180Y-4568578D02*
X45061180Y-4051422D01*
X63551422Y-3860000D02*
X64068578Y-3860000D01*
X63551422Y-5280000D02*
X64068578Y-5280000D01*
X14514900Y-15283682D02*
X14514900Y-15800838D01*
X13094900Y-15283682D02*
X13094900Y-15800838D01*
X9211380Y-26474682D02*
X9211380Y-26991838D01*
X7791380Y-26474682D02*
X7791380Y-26991838D01*
X21436400Y-15337022D02*
X21436400Y-15854178D01*
X20016400Y-15337022D02*
X20016400Y-15854178D01*
X28108980Y-15337022D02*
X28108980Y-15854178D01*
X26688980Y-15337022D02*
X26688980Y-15854178D01*
X6070360Y-8774060D02*
X6870360Y-8774060D01*
X3820360Y-11374060D02*
X3820360Y-8774060D01*
X3820360Y-8774060D02*
X4770360Y-8774060D01*
X11142740Y-8944240D02*
X11942740Y-8944240D01*
X8892740Y-11544240D02*
X8892740Y-8944240D01*
X8892740Y-8944240D02*
X9842740Y-8944240D01*
X21244320Y-9058540D02*
X22044320Y-9058540D01*
X18994320Y-11658540D02*
X18994320Y-9058540D01*
X18994320Y-9058540D02*
X19944320Y-9058540D01*
X16212580Y-8984880D02*
X17012580Y-8984880D01*
X13962580Y-11584880D02*
X13962580Y-8984880D01*
X13962580Y-8984880D02*
X14912580Y-8984880D01*
X26509740Y-9081400D02*
X27309740Y-9081400D01*
X24259740Y-11681400D02*
X24259740Y-9081400D01*
X24259740Y-9081400D02*
X25209740Y-9081400D01*
X8468478Y-50811522D02*
G75*
G03*
X4030000Y-52650000I-1838478J-1838478D01*
G01*
X8468478Y-54488478D02*
G75*
G02*
X4030000Y-52650000I-1838478J1838478D01*
G01*
X8480000Y-54450000D02*
X8480000Y-50850000D01*
X65170000Y-1460000D02*
X65170000Y-260000D01*
X63320000Y-1460000D02*
X65170000Y-1460000D01*
X63320000Y-260000D02*
X65170000Y-260000D01*
X51950000Y1260000D02*
X50750000Y1260000D01*
X51950000Y-590000D02*
X51950000Y1260000D01*
X50750000Y-590000D02*
X50750000Y1260000D01*
X69130000Y-3161422D02*
X69130000Y-3678578D01*
X67710000Y-3161422D02*
X67710000Y-3678578D01*
X68781078Y-15210000D02*
X68263922Y-15210000D01*
X68781078Y-13790000D02*
X68263922Y-13790000D01*
X41080000Y-208578D02*
X41080000Y308578D01*
X42500000Y-208578D02*
X42500000Y308578D01*
X45007840Y-7531222D02*
X45007840Y-8048378D01*
X43587840Y-7531222D02*
X43587840Y-8048378D01*
X38442000Y-53990000D02*
X38442000Y-54790000D01*
X35842000Y-51740000D02*
X38442000Y-51740000D01*
X38442000Y-51740000D02*
X38442000Y-52690000D01*
X44068578Y-18620000D02*
X43551422Y-18620000D01*
X44068578Y-17200000D02*
X43551422Y-17200000D01*
X49778578Y-18420000D02*
X49261422Y-18420000D01*
X49778578Y-17000000D02*
X49261422Y-17000000D01*
X55229258Y-18210000D02*
X54712102Y-18210000D01*
X55229258Y-16790000D02*
X54712102Y-16790000D01*
X60499998Y-18281720D02*
X59982842Y-18281720D01*
X60499998Y-16861720D02*
X59982842Y-16861720D01*
X43332662Y-14568100D02*
X43849818Y-14568100D01*
X43332662Y-15988100D02*
X43849818Y-15988100D01*
X49035202Y-14507140D02*
X49552358Y-14507140D01*
X49035202Y-15927140D02*
X49552358Y-15927140D01*
X54712102Y-14321720D02*
X55229258Y-14321720D01*
X54712102Y-15741720D02*
X55229258Y-15741720D01*
X59885842Y-14321720D02*
X60402998Y-14321720D01*
X59885842Y-15741720D02*
X60402998Y-15741720D01*
X11460000Y-5241422D02*
X11460000Y-5758578D01*
X10040000Y-5241422D02*
X10040000Y-5758578D01*
X16460000Y-5178922D02*
X16460000Y-5696078D01*
X15040000Y-5178922D02*
X15040000Y-5696078D01*
X21210000Y-5241422D02*
X21210000Y-5758578D01*
X19790000Y-5241422D02*
X19790000Y-5758578D01*
X26210000Y-5241422D02*
X26210000Y-5758578D01*
X24790000Y-5241422D02*
X24790000Y-5758578D01*
X33278578Y-53034000D02*
X32761422Y-53034000D01*
X33278578Y-51614000D02*
X32761422Y-51614000D01*
X52757598Y-31190000D02*
X52240442Y-31190000D01*
X52757598Y-29770000D02*
X52240442Y-29770000D01*
X46057078Y-31228100D02*
X45539922Y-31228100D01*
X46057078Y-29808100D02*
X45539922Y-29808100D01*
X39267898Y-31149360D02*
X38750742Y-31149360D01*
X39267898Y-29729360D02*
X38750742Y-29729360D01*
X32506658Y-31070620D02*
X31989502Y-31070620D01*
X32506658Y-29650620D02*
X31989502Y-29650620D01*
X55170000Y-34040578D02*
X55170000Y-33523422D01*
X56590000Y-34040578D02*
X56590000Y-33523422D01*
X48266280Y-33933898D02*
X48266280Y-33416742D01*
X49686280Y-33933898D02*
X49686280Y-33416742D01*
X41631800Y-34040578D02*
X41631800Y-33523422D01*
X43051800Y-34040578D02*
X43051800Y-33523422D01*
X35104000Y-34040578D02*
X35104000Y-33523422D01*
X36524000Y-34040578D02*
X36524000Y-33523422D01*
X2729960Y-16385420D02*
X2729960Y-17315420D01*
X2729960Y-19545420D02*
X2729960Y-18615420D01*
X2729960Y-19545420D02*
X4889960Y-19545420D01*
X2729960Y-16385420D02*
X4189960Y-16385420D01*
X2931380Y-20441760D02*
X2931380Y-21371760D01*
X2931380Y-23601760D02*
X2931380Y-22671760D01*
X2931380Y-23601760D02*
X5091380Y-23601760D01*
X2931380Y-20441760D02*
X4391380Y-20441760D01*
X2869660Y-25791040D02*
X2869660Y-26721040D01*
X2869660Y-28951040D02*
X2869660Y-28021040D01*
X2869660Y-28951040D02*
X5029660Y-28951040D01*
X2869660Y-25791040D02*
X4329660Y-25791040D01*
X51818000Y-32202000D02*
X51818000Y-33132000D01*
X51818000Y-35362000D02*
X51818000Y-34432000D01*
X51818000Y-35362000D02*
X53978000Y-35362000D01*
X51818000Y-32202000D02*
X53278000Y-32202000D01*
X44960000Y-32202000D02*
X44960000Y-33132000D01*
X44960000Y-35362000D02*
X44960000Y-34432000D01*
X44960000Y-35362000D02*
X47120000Y-35362000D01*
X44960000Y-32202000D02*
X46420000Y-32202000D01*
X38356000Y-32202000D02*
X38356000Y-33132000D01*
X38356000Y-35362000D02*
X38356000Y-34432000D01*
X38356000Y-35362000D02*
X40516000Y-35362000D01*
X38356000Y-32202000D02*
X39816000Y-32202000D01*
X31752000Y-32202000D02*
X31752000Y-33132000D01*
X31752000Y-35362000D02*
X31752000Y-34432000D01*
X31752000Y-35362000D02*
X33912000Y-35362000D01*
X31752000Y-32202000D02*
X33212000Y-32202000D01*
X-6250000Y-29780000D02*
X-6250000Y-32720000D01*
X-6250000Y-32720000D02*
X-810000Y-32720000D01*
X-810000Y-32720000D02*
X-810000Y-29780000D01*
X-810000Y-29780000D02*
X-6250000Y-29780000D01*
X-7270000Y-31250000D02*
X-6250000Y-31250000D01*
X210000Y-31250000D02*
X-810000Y-31250000D01*
X-5350000Y-29780000D02*
X-5350000Y-32720000D01*
X-5230000Y-29780000D02*
X-5230000Y-32720000D01*
X-5470000Y-29780000D02*
X-5470000Y-32720000D01*
X20902000Y-52124000D02*
X20902000Y-55064000D01*
X20902000Y-55064000D02*
X26342000Y-55064000D01*
X26342000Y-55064000D02*
X26342000Y-52124000D01*
X26342000Y-52124000D02*
X20902000Y-52124000D01*
X19882000Y-53594000D02*
X20902000Y-53594000D01*
X27362000Y-53594000D02*
X26342000Y-53594000D01*
X21802000Y-52124000D02*
X21802000Y-55064000D01*
X21922000Y-52124000D02*
X21922000Y-55064000D01*
X21682000Y-52124000D02*
X21682000Y-55064000D01*
X43801422Y-19660000D02*
X44318578Y-19660000D01*
X43801422Y-21080000D02*
X44318578Y-21080000D01*
X49273922Y-19410000D02*
X49791078Y-19410000D01*
X49273922Y-20830000D02*
X49791078Y-20830000D01*
X54712102Y-19401720D02*
X55229258Y-19401720D01*
X54712102Y-20821720D02*
X55229258Y-20821720D01*
X59885842Y-19401720D02*
X60402998Y-19401720D01*
X59885842Y-20821720D02*
X60402998Y-20821720D01*
D12*
X27502000Y-39370000D02*
G75*
G03*
X27502000Y-39370000I-11500000J0D01*
G01*
D13*
X67202380Y-37142857D02*
X66726190Y-37476190D01*
X67202380Y-37714285D02*
X66202380Y-37714285D01*
X66202380Y-37333333D01*
X66250000Y-37238095D01*
X66297619Y-37190476D01*
X66392857Y-37142857D01*
X66535714Y-37142857D01*
X66630952Y-37190476D01*
X66678571Y-37238095D01*
X66726190Y-37333333D01*
X66726190Y-37714285D01*
X66202380Y-36238095D02*
X66202380Y-36714285D01*
X66678571Y-36761904D01*
X66630952Y-36714285D01*
X66583333Y-36619047D01*
X66583333Y-36380952D01*
X66630952Y-36285714D01*
X66678571Y-36238095D01*
X66773809Y-36190476D01*
X67011904Y-36190476D01*
X67107142Y-36238095D01*
X67154761Y-36285714D01*
X67202380Y-36380952D01*
X67202380Y-36619047D01*
X67154761Y-36714285D01*
X67107142Y-36761904D01*
X66202380Y-35571428D02*
X66202380Y-35476190D01*
X66250000Y-35380952D01*
X66297619Y-35333333D01*
X66392857Y-35285714D01*
X66583333Y-35238095D01*
X66821428Y-35238095D01*
X67011904Y-35285714D01*
X67107142Y-35333333D01*
X67154761Y-35380952D01*
X67202380Y-35476190D01*
X67202380Y-35571428D01*
X67154761Y-35666666D01*
X67107142Y-35714285D01*
X67011904Y-35761904D01*
X66821428Y-35809523D01*
X66583333Y-35809523D01*
X66392857Y-35761904D01*
X66297619Y-35714285D01*
X66250000Y-35666666D01*
X66202380Y-35571428D01*
X67297619Y-33821428D02*
X67250000Y-33916666D01*
X67154761Y-34011904D01*
X67011904Y-34154761D01*
X66964285Y-34250000D01*
X66964285Y-34345238D01*
X67202380Y-34297619D02*
X67154761Y-34392857D01*
X67059523Y-34488095D01*
X66869047Y-34535714D01*
X66535714Y-34535714D01*
X66345238Y-34488095D01*
X66250000Y-34392857D01*
X66202380Y-34297619D01*
X66202380Y-34107142D01*
X66250000Y-34011904D01*
X66345238Y-33916666D01*
X66535714Y-33869047D01*
X66869047Y-33869047D01*
X67059523Y-33916666D01*
X67154761Y-34011904D01*
X67202380Y-34107142D01*
X67202380Y-34297619D01*
X67202380Y-32916666D02*
X67202380Y-33488095D01*
X67202380Y-33202380D02*
X66202380Y-33202380D01*
X66345238Y-33297619D01*
X66440476Y-33392857D01*
X66488095Y-33488095D01*
X66630952Y-32345238D02*
X66583333Y-32440476D01*
X66535714Y-32488095D01*
X66440476Y-32535714D01*
X66392857Y-32535714D01*
X66297619Y-32488095D01*
X66250000Y-32440476D01*
X66202380Y-32345238D01*
X66202380Y-32154761D01*
X66250000Y-32059523D01*
X66297619Y-32011904D01*
X66392857Y-31964285D01*
X66440476Y-31964285D01*
X66535714Y-32011904D01*
X66583333Y-32059523D01*
X66630952Y-32154761D01*
X66630952Y-32345238D01*
X66678571Y-32440476D01*
X66726190Y-32488095D01*
X66821428Y-32535714D01*
X67011904Y-32535714D01*
X67107142Y-32488095D01*
X67154761Y-32440476D01*
X67202380Y-32345238D01*
X67202380Y-32154761D01*
X67154761Y-32059523D01*
X67107142Y-32011904D01*
X67011904Y-31964285D01*
X66821428Y-31964285D01*
X66726190Y-32011904D01*
X66678571Y-32059523D01*
X66630952Y-32154761D01*
X66797619Y-29821428D02*
X66750000Y-29916666D01*
X66654761Y-30011904D01*
X66511904Y-30154761D01*
X66464285Y-30250000D01*
X66464285Y-30345238D01*
X66702380Y-30297619D02*
X66654761Y-30392857D01*
X66559523Y-30488095D01*
X66369047Y-30535714D01*
X66035714Y-30535714D01*
X65845238Y-30488095D01*
X65750000Y-30392857D01*
X65702380Y-30297619D01*
X65702380Y-30107142D01*
X65750000Y-30011904D01*
X65845238Y-29916666D01*
X66035714Y-29869047D01*
X66369047Y-29869047D01*
X66559523Y-29916666D01*
X66654761Y-30011904D01*
X66702380Y-30107142D01*
X66702380Y-30297619D01*
X66702380Y-28916666D02*
X66702380Y-29488095D01*
X66702380Y-29202380D02*
X65702380Y-29202380D01*
X65845238Y-29297619D01*
X65940476Y-29392857D01*
X65988095Y-29488095D01*
X65702380Y-28583333D02*
X65702380Y-27916666D01*
X66702380Y-28345238D01*
X74738095Y-47900380D02*
X74738095Y-46900380D01*
X74738095Y-47376571D02*
X75309523Y-47376571D01*
X75309523Y-47900380D02*
X75309523Y-46900380D01*
X76214285Y-47233714D02*
X76214285Y-47900380D01*
X75976190Y-46852761D02*
X75738095Y-47567047D01*
X76357142Y-47567047D01*
X75238095Y4099619D02*
X75238095Y5099619D01*
X75238095Y4623428D02*
X75809523Y4623428D01*
X75809523Y4099619D02*
X75809523Y5099619D01*
X76190476Y5099619D02*
X76809523Y5099619D01*
X76476190Y4718666D01*
X76619047Y4718666D01*
X76714285Y4671047D01*
X76761904Y4623428D01*
X76809523Y4528190D01*
X76809523Y4290095D01*
X76761904Y4194857D01*
X76714285Y4147238D01*
X76619047Y4099619D01*
X76333333Y4099619D01*
X76238095Y4147238D01*
X76190476Y4194857D01*
X-17261904Y-47702380D02*
X-17261904Y-46702380D01*
X-17261904Y-47178571D02*
X-16690476Y-47178571D01*
X-16690476Y-47702380D02*
X-16690476Y-46702380D01*
X-16261904Y-46797619D02*
X-16214285Y-46750000D01*
X-16119047Y-46702380D01*
X-15880952Y-46702380D01*
X-15785714Y-46750000D01*
X-15738095Y-46797619D01*
X-15690476Y-46892857D01*
X-15690476Y-46988095D01*
X-15738095Y-47130952D01*
X-16309523Y-47702380D01*
X-15690476Y-47702380D01*
X-17511904Y2599619D02*
X-17511904Y3599619D01*
X-17511904Y3123428D02*
X-16940476Y3123428D01*
X-16940476Y2599619D02*
X-16940476Y3599619D01*
X-15940476Y2599619D02*
X-16511904Y2599619D01*
X-16226190Y2599619D02*
X-16226190Y3599619D01*
X-16321428Y3456761D01*
X-16416666Y3361523D01*
X-16511904Y3313904D01*
X-5648905Y-49728360D02*
X-5648905Y-48728360D01*
X-5410810Y-48728360D01*
X-5267953Y-48775980D01*
X-5172715Y-48871218D01*
X-5125096Y-48966456D01*
X-5077477Y-49156932D01*
X-5077477Y-49299789D01*
X-5125096Y-49490265D01*
X-5172715Y-49585503D01*
X-5267953Y-49680741D01*
X-5410810Y-49728360D01*
X-5648905Y-49728360D01*
X-4125096Y-49728360D02*
X-4696524Y-49728360D01*
X-4410810Y-49728360D02*
X-4410810Y-48728360D01*
X-4506048Y-48871218D01*
X-4601286Y-48966456D01*
X-4696524Y-49014075D01*
X-3506048Y-48728360D02*
X-3410810Y-48728360D01*
X-3315572Y-48775980D01*
X-3267953Y-48823599D01*
X-3220334Y-48918837D01*
X-3172715Y-49109313D01*
X-3172715Y-49347408D01*
X-3220334Y-49537884D01*
X-3267953Y-49633122D01*
X-3315572Y-49680741D01*
X-3410810Y-49728360D01*
X-3506048Y-49728360D01*
X-3601286Y-49680741D01*
X-3648905Y-49633122D01*
X-3696524Y-49537884D01*
X-3744143Y-49347408D01*
X-3744143Y-49109313D01*
X-3696524Y-48918837D01*
X-3648905Y-48823599D01*
X-3601286Y-48775980D01*
X-3506048Y-48728360D01*
X34761904Y-24452380D02*
X34761904Y-23452380D01*
X35000000Y-23452380D01*
X35142857Y-23500000D01*
X35238095Y-23595238D01*
X35285714Y-23690476D01*
X35333333Y-23880952D01*
X35333333Y-24023809D01*
X35285714Y-24214285D01*
X35238095Y-24309523D01*
X35142857Y-24404761D01*
X35000000Y-24452380D01*
X34761904Y-24452380D01*
X35666666Y-23452380D02*
X36333333Y-23452380D01*
X35904761Y-24452380D01*
X36607142Y-20416666D02*
X36654761Y-20464285D01*
X36702380Y-20607142D01*
X36702380Y-20702380D01*
X36654761Y-20845238D01*
X36559523Y-20940476D01*
X36464285Y-20988095D01*
X36273809Y-21035714D01*
X36130952Y-21035714D01*
X35940476Y-20988095D01*
X35845238Y-20940476D01*
X35750000Y-20845238D01*
X35702380Y-20702380D01*
X35702380Y-20607142D01*
X35750000Y-20464285D01*
X35797619Y-20416666D01*
X35702380Y-19511904D02*
X35702380Y-19988095D01*
X36178571Y-20035714D01*
X36130952Y-19988095D01*
X36083333Y-19892857D01*
X36083333Y-19654761D01*
X36130952Y-19559523D01*
X36178571Y-19511904D01*
X36273809Y-19464285D01*
X36511904Y-19464285D01*
X36607142Y-19511904D01*
X36654761Y-19559523D01*
X36702380Y-19654761D01*
X36702380Y-19892857D01*
X36654761Y-19988095D01*
X36607142Y-20035714D01*
X36952380Y-18392857D02*
X36476190Y-18726190D01*
X36952380Y-18964285D02*
X35952380Y-18964285D01*
X35952380Y-18583333D01*
X36000000Y-18488095D01*
X36047619Y-18440476D01*
X36142857Y-18392857D01*
X36285714Y-18392857D01*
X36380952Y-18440476D01*
X36428571Y-18488095D01*
X36476190Y-18583333D01*
X36476190Y-18964285D01*
X36285714Y-17535714D02*
X36952380Y-17535714D01*
X35904761Y-17773809D02*
X36619047Y-18011904D01*
X36619047Y-17392857D01*
X35952380Y-16535714D02*
X35952380Y-17011904D01*
X36428571Y-17059523D01*
X36380952Y-17011904D01*
X36333333Y-16916666D01*
X36333333Y-16678571D01*
X36380952Y-16583333D01*
X36428571Y-16535714D01*
X36523809Y-16488095D01*
X36761904Y-16488095D01*
X36857142Y-16535714D01*
X36904761Y-16583333D01*
X36952380Y-16678571D01*
X36952380Y-16916666D01*
X36904761Y-17011904D01*
X36857142Y-17059523D01*
X39857142Y-13702380D02*
X39523809Y-13226190D01*
X39285714Y-13702380D02*
X39285714Y-12702380D01*
X39666666Y-12702380D01*
X39761904Y-12750000D01*
X39809523Y-12797619D01*
X39857142Y-12892857D01*
X39857142Y-13035714D01*
X39809523Y-13130952D01*
X39761904Y-13178571D01*
X39666666Y-13226190D01*
X39285714Y-13226190D01*
X40714285Y-13035714D02*
X40714285Y-13702380D01*
X40476190Y-12654761D02*
X40238095Y-13369047D01*
X40857142Y-13369047D01*
X41666666Y-13035714D02*
X41666666Y-13702380D01*
X41428571Y-12654761D02*
X41190476Y-13369047D01*
X41809523Y-13369047D01*
X12702380Y-24761904D02*
X13511904Y-24761904D01*
X13607142Y-24714285D01*
X13654761Y-24666666D01*
X13702380Y-24571428D01*
X13702380Y-24380952D01*
X13654761Y-24285714D01*
X13607142Y-24238095D01*
X13511904Y-24190476D01*
X12702380Y-24190476D01*
X13702380Y-23190476D02*
X13702380Y-23761904D01*
X13702380Y-23476190D02*
X12702380Y-23476190D01*
X12845238Y-23571428D01*
X12940476Y-23666666D01*
X12988095Y-23761904D01*
X31952380Y-17892857D02*
X31476190Y-18226190D01*
X31952380Y-18464285D02*
X30952380Y-18464285D01*
X30952380Y-18083333D01*
X31000000Y-17988095D01*
X31047619Y-17940476D01*
X31142857Y-17892857D01*
X31285714Y-17892857D01*
X31380952Y-17940476D01*
X31428571Y-17988095D01*
X31476190Y-18083333D01*
X31476190Y-18464285D01*
X31285714Y-17035714D02*
X31952380Y-17035714D01*
X30904761Y-17273809D02*
X31619047Y-17511904D01*
X31619047Y-16892857D01*
X31380952Y-16369047D02*
X31333333Y-16464285D01*
X31285714Y-16511904D01*
X31190476Y-16559523D01*
X31142857Y-16559523D01*
X31047619Y-16511904D01*
X31000000Y-16464285D01*
X30952380Y-16369047D01*
X30952380Y-16178571D01*
X31000000Y-16083333D01*
X31047619Y-16035714D01*
X31142857Y-15988095D01*
X31190476Y-15988095D01*
X31285714Y-16035714D01*
X31333333Y-16083333D01*
X31380952Y-16178571D01*
X31380952Y-16369047D01*
X31428571Y-16464285D01*
X31476190Y-16511904D01*
X31571428Y-16559523D01*
X31761904Y-16559523D01*
X31857142Y-16511904D01*
X31904761Y-16464285D01*
X31952380Y-16369047D01*
X31952380Y-16178571D01*
X31904761Y-16083333D01*
X31857142Y-16035714D01*
X31761904Y-15988095D01*
X31571428Y-15988095D01*
X31476190Y-16035714D01*
X31428571Y-16083333D01*
X31380952Y-16178571D01*
X32202380Y-14892857D02*
X31726190Y-15226190D01*
X32202380Y-15464285D02*
X31202380Y-15464285D01*
X31202380Y-15083333D01*
X31250000Y-14988095D01*
X31297619Y-14940476D01*
X31392857Y-14892857D01*
X31535714Y-14892857D01*
X31630952Y-14940476D01*
X31678571Y-14988095D01*
X31726190Y-15083333D01*
X31726190Y-15464285D01*
X31535714Y-14035714D02*
X32202380Y-14035714D01*
X31154761Y-14273809D02*
X31869047Y-14511904D01*
X31869047Y-13892857D01*
X31202380Y-13607142D02*
X31202380Y-12940476D01*
X32202380Y-13369047D01*
X70452380Y-23642857D02*
X69976190Y-23976190D01*
X70452380Y-24214285D02*
X69452380Y-24214285D01*
X69452380Y-23833333D01*
X69500000Y-23738095D01*
X69547619Y-23690476D01*
X69642857Y-23642857D01*
X69785714Y-23642857D01*
X69880952Y-23690476D01*
X69928571Y-23738095D01*
X69976190Y-23833333D01*
X69976190Y-24214285D01*
X69785714Y-22785714D02*
X70452380Y-22785714D01*
X69404761Y-23023809D02*
X70119047Y-23261904D01*
X70119047Y-22642857D01*
X69452380Y-22357142D02*
X69452380Y-21738095D01*
X69833333Y-22071428D01*
X69833333Y-21928571D01*
X69880952Y-21833333D01*
X69928571Y-21785714D01*
X70023809Y-21738095D01*
X70261904Y-21738095D01*
X70357142Y-21785714D01*
X70404761Y-21833333D01*
X70452380Y-21928571D01*
X70452380Y-22214285D01*
X70404761Y-22309523D01*
X70357142Y-22357142D01*
X8333000Y-5697217D02*
X7856810Y-6030550D01*
X8333000Y-6268645D02*
X7333000Y-6268645D01*
X7333000Y-5887693D01*
X7380620Y-5792455D01*
X7428239Y-5744836D01*
X7523477Y-5697217D01*
X7666334Y-5697217D01*
X7761572Y-5744836D01*
X7809191Y-5792455D01*
X7856810Y-5887693D01*
X7856810Y-6268645D01*
X7428239Y-5316264D02*
X7380620Y-5268645D01*
X7333000Y-5173407D01*
X7333000Y-4935312D01*
X7380620Y-4840074D01*
X7428239Y-4792455D01*
X7523477Y-4744836D01*
X7618715Y-4744836D01*
X7761572Y-4792455D01*
X8333000Y-5363883D01*
X8333000Y-4744836D01*
X7761572Y-4173407D02*
X7713953Y-4268645D01*
X7666334Y-4316264D01*
X7571096Y-4363883D01*
X7523477Y-4363883D01*
X7428239Y-4316264D01*
X7380620Y-4268645D01*
X7333000Y-4173407D01*
X7333000Y-3982931D01*
X7380620Y-3887693D01*
X7428239Y-3840074D01*
X7523477Y-3792455D01*
X7571096Y-3792455D01*
X7666334Y-3840074D01*
X7713953Y-3887693D01*
X7761572Y-3982931D01*
X7761572Y-4173407D01*
X7809191Y-4268645D01*
X7856810Y-4316264D01*
X7952048Y-4363883D01*
X8142524Y-4363883D01*
X8237762Y-4316264D01*
X8285381Y-4268645D01*
X8333000Y-4173407D01*
X8333000Y-3982931D01*
X8285381Y-3887693D01*
X8237762Y-3840074D01*
X8142524Y-3792455D01*
X7952048Y-3792455D01*
X7856810Y-3840074D01*
X7809191Y-3887693D01*
X7761572Y-3982931D01*
X29452380Y-24214285D02*
X28452380Y-24214285D01*
X28452380Y-23976190D01*
X28500000Y-23833333D01*
X28595238Y-23738095D01*
X28690476Y-23690476D01*
X28880952Y-23642857D01*
X29023809Y-23642857D01*
X29214285Y-23690476D01*
X29309523Y-23738095D01*
X29404761Y-23833333D01*
X29452380Y-23976190D01*
X29452380Y-24214285D01*
X29452380Y-22690476D02*
X29452380Y-23261904D01*
X29452380Y-22976190D02*
X28452380Y-22976190D01*
X28595238Y-23071428D01*
X28690476Y-23166666D01*
X28738095Y-23261904D01*
X29452380Y-21738095D02*
X29452380Y-22309523D01*
X29452380Y-22023809D02*
X28452380Y-22023809D01*
X28595238Y-22119047D01*
X28690476Y-22214285D01*
X28738095Y-22309523D01*
X31607142Y-20892857D02*
X31654761Y-20940476D01*
X31702380Y-21083333D01*
X31702380Y-21178571D01*
X31654761Y-21321428D01*
X31559523Y-21416666D01*
X31464285Y-21464285D01*
X31273809Y-21511904D01*
X31130952Y-21511904D01*
X30940476Y-21464285D01*
X30845238Y-21416666D01*
X30750000Y-21321428D01*
X30702380Y-21178571D01*
X30702380Y-21083333D01*
X30750000Y-20940476D01*
X30797619Y-20892857D01*
X31702380Y-19940476D02*
X31702380Y-20511904D01*
X31702380Y-20226190D02*
X30702380Y-20226190D01*
X30845238Y-20321428D01*
X30940476Y-20416666D01*
X30988095Y-20511904D01*
X30702380Y-19321428D02*
X30702380Y-19226190D01*
X30750000Y-19130952D01*
X30797619Y-19083333D01*
X30892857Y-19035714D01*
X31083333Y-18988095D01*
X31321428Y-18988095D01*
X31511904Y-19035714D01*
X31607142Y-19083333D01*
X31654761Y-19130952D01*
X31702380Y-19226190D01*
X31702380Y-19321428D01*
X31654761Y-19416666D01*
X31607142Y-19464285D01*
X31511904Y-19511904D01*
X31321428Y-19559523D01*
X31083333Y-19559523D01*
X30892857Y-19511904D01*
X30797619Y-19464285D01*
X30750000Y-19416666D01*
X30702380Y-19321428D01*
X-5100952Y-46698571D02*
X-4958095Y-46746190D01*
X-4910476Y-46793809D01*
X-4862857Y-46889047D01*
X-4862857Y-47031904D01*
X-4910476Y-47127142D01*
X-4958095Y-47174761D01*
X-5053333Y-47222380D01*
X-5434285Y-47222380D01*
X-5434285Y-46222380D01*
X-5100952Y-46222380D01*
X-5005714Y-46270000D01*
X-4958095Y-46317619D01*
X-4910476Y-46412857D01*
X-4910476Y-46508095D01*
X-4958095Y-46603333D01*
X-5005714Y-46650952D01*
X-5100952Y-46698571D01*
X-5434285Y-46698571D01*
X-4434285Y-46222380D02*
X-4434285Y-47031904D01*
X-4386666Y-47127142D01*
X-4339047Y-47174761D01*
X-4243809Y-47222380D01*
X-4053333Y-47222380D01*
X-3958095Y-47174761D01*
X-3910476Y-47127142D01*
X-3862857Y-47031904D01*
X-3862857Y-46222380D01*
X-3481904Y-46222380D02*
X-2815238Y-46222380D01*
X-3481904Y-47222380D01*
X-2815238Y-47222380D01*
X-2529523Y-46222380D02*
X-1862857Y-46222380D01*
X-2529523Y-47222380D01*
X-1862857Y-47222380D01*
X-1529523Y-46317619D02*
X-1481904Y-46270000D01*
X-1386666Y-46222380D01*
X-1148571Y-46222380D01*
X-1053333Y-46270000D01*
X-1005714Y-46317619D01*
X-958095Y-46412857D01*
X-958095Y-46508095D01*
X-1005714Y-46650952D01*
X-1577142Y-47222380D01*
X-958095Y-47222380D01*
X36440476Y-10152380D02*
X36440476Y-9152380D01*
X36773809Y-9866666D01*
X37107142Y-9152380D01*
X37107142Y-10152380D01*
X37583333Y-10152380D02*
X37583333Y-9152380D01*
X38154761Y-10152380D02*
X37726190Y-9580952D01*
X38154761Y-9152380D02*
X37583333Y-9723809D01*
X39107142Y-10152380D02*
X38535714Y-10152380D01*
X38821428Y-10152380D02*
X38821428Y-9152380D01*
X38726190Y-9295238D01*
X38630952Y-9390476D01*
X38535714Y-9438095D01*
X56458095Y-1692380D02*
X56458095Y-2501904D01*
X56505714Y-2597142D01*
X56553333Y-2644761D01*
X56648571Y-2692380D01*
X56839047Y-2692380D01*
X56934285Y-2644761D01*
X56981904Y-2597142D01*
X57029523Y-2501904D01*
X57029523Y-1692380D01*
X57458095Y-1787619D02*
X57505714Y-1740000D01*
X57600952Y-1692380D01*
X57839047Y-1692380D01*
X57934285Y-1740000D01*
X57981904Y-1787619D01*
X58029523Y-1882857D01*
X58029523Y-1978095D01*
X57981904Y-2120952D01*
X57410476Y-2692380D01*
X58029523Y-2692380D01*
X12649642Y-52432380D02*
X12316309Y-51956190D01*
X12078214Y-52432380D02*
X12078214Y-51432380D01*
X12459166Y-51432380D01*
X12554404Y-51480000D01*
X12602023Y-51527619D01*
X12649642Y-51622857D01*
X12649642Y-51765714D01*
X12602023Y-51860952D01*
X12554404Y-51908571D01*
X12459166Y-51956190D01*
X12078214Y-51956190D01*
X13506785Y-51765714D02*
X13506785Y-52432380D01*
X13268690Y-51384761D02*
X13030595Y-52099047D01*
X13649642Y-52099047D01*
X14459166Y-51432380D02*
X14268690Y-51432380D01*
X14173452Y-51480000D01*
X14125833Y-51527619D01*
X14030595Y-51670476D01*
X13982976Y-51860952D01*
X13982976Y-52241904D01*
X14030595Y-52337142D01*
X14078214Y-52384761D01*
X14173452Y-52432380D01*
X14363928Y-52432380D01*
X14459166Y-52384761D01*
X14506785Y-52337142D01*
X14554404Y-52241904D01*
X14554404Y-52003809D01*
X14506785Y-51908571D01*
X14459166Y-51860952D01*
X14363928Y-51813333D01*
X14173452Y-51813333D01*
X14078214Y-51860952D01*
X14030595Y-51908571D01*
X13982976Y-52003809D01*
X6952380Y-17892857D02*
X6476190Y-18226190D01*
X6952380Y-18464285D02*
X5952380Y-18464285D01*
X5952380Y-18083333D01*
X6000000Y-17988095D01*
X6047619Y-17940476D01*
X6142857Y-17892857D01*
X6285714Y-17892857D01*
X6380952Y-17940476D01*
X6428571Y-17988095D01*
X6476190Y-18083333D01*
X6476190Y-18464285D01*
X6285714Y-17035714D02*
X6952380Y-17035714D01*
X5904761Y-17273809D02*
X6619047Y-17511904D01*
X6619047Y-16892857D01*
X6047619Y-16559523D02*
X6000000Y-16511904D01*
X5952380Y-16416666D01*
X5952380Y-16178571D01*
X6000000Y-16083333D01*
X6047619Y-16035714D01*
X6142857Y-15988095D01*
X6238095Y-15988095D01*
X6380952Y-16035714D01*
X6952380Y-16607142D01*
X6952380Y-15988095D01*
X19397240Y-16213057D02*
X18921050Y-16546390D01*
X19397240Y-16784485D02*
X18397240Y-16784485D01*
X18397240Y-16403533D01*
X18444860Y-16308295D01*
X18492479Y-16260676D01*
X18587717Y-16213057D01*
X18730574Y-16213057D01*
X18825812Y-16260676D01*
X18873431Y-16308295D01*
X18921050Y-16403533D01*
X18921050Y-16784485D01*
X18730574Y-15355914D02*
X19397240Y-15355914D01*
X18349621Y-15594009D02*
X19063907Y-15832104D01*
X19063907Y-15213057D01*
X19397240Y-14308295D02*
X19397240Y-14879723D01*
X19397240Y-14594009D02*
X18397240Y-14594009D01*
X18540098Y-14689247D01*
X18635336Y-14784485D01*
X18682955Y-14879723D01*
X7202380Y-22142857D02*
X6726190Y-22476190D01*
X7202380Y-22714285D02*
X6202380Y-22714285D01*
X6202380Y-22333333D01*
X6250000Y-22238095D01*
X6297619Y-22190476D01*
X6392857Y-22142857D01*
X6535714Y-22142857D01*
X6630952Y-22190476D01*
X6678571Y-22238095D01*
X6726190Y-22333333D01*
X6726190Y-22714285D01*
X6535714Y-21285714D02*
X7202380Y-21285714D01*
X6154761Y-21523809D02*
X6869047Y-21761904D01*
X6869047Y-21142857D01*
X6202380Y-20571428D02*
X6202380Y-20476190D01*
X6250000Y-20380952D01*
X6297619Y-20333333D01*
X6392857Y-20285714D01*
X6583333Y-20238095D01*
X6821428Y-20238095D01*
X7011904Y-20285714D01*
X7107142Y-20333333D01*
X7154761Y-20380952D01*
X7202380Y-20476190D01*
X7202380Y-20571428D01*
X7154761Y-20666666D01*
X7107142Y-20714285D01*
X7011904Y-20761904D01*
X6821428Y-20809523D01*
X6583333Y-20809523D01*
X6392857Y-20761904D01*
X6297619Y-20714285D01*
X6250000Y-20666666D01*
X6202380Y-20571428D01*
X26202380Y-16892857D02*
X25726190Y-17226190D01*
X26202380Y-17464285D02*
X25202380Y-17464285D01*
X25202380Y-17083333D01*
X25250000Y-16988095D01*
X25297619Y-16940476D01*
X25392857Y-16892857D01*
X25535714Y-16892857D01*
X25630952Y-16940476D01*
X25678571Y-16988095D01*
X25726190Y-17083333D01*
X25726190Y-17464285D01*
X25202380Y-16559523D02*
X25202380Y-15940476D01*
X25583333Y-16273809D01*
X25583333Y-16130952D01*
X25630952Y-16035714D01*
X25678571Y-15988095D01*
X25773809Y-15940476D01*
X26011904Y-15940476D01*
X26107142Y-15988095D01*
X26154761Y-16035714D01*
X26202380Y-16130952D01*
X26202380Y-16416666D01*
X26154761Y-16511904D01*
X26107142Y-16559523D01*
X26202380Y-15464285D02*
X26202380Y-15273809D01*
X26154761Y-15178571D01*
X26107142Y-15130952D01*
X25964285Y-15035714D01*
X25773809Y-14988095D01*
X25392857Y-14988095D01*
X25297619Y-15035714D01*
X25250000Y-15083333D01*
X25202380Y-15178571D01*
X25202380Y-15369047D01*
X25250000Y-15464285D01*
X25297619Y-15511904D01*
X25392857Y-15559523D01*
X25630952Y-15559523D01*
X25726190Y-15511904D01*
X25773809Y-15464285D01*
X25821428Y-15369047D01*
X25821428Y-15178571D01*
X25773809Y-15083333D01*
X25726190Y-15035714D01*
X25630952Y-14988095D01*
X63357142Y-50952380D02*
X63023809Y-50476190D01*
X62785714Y-50952380D02*
X62785714Y-49952380D01*
X63166666Y-49952380D01*
X63261904Y-50000000D01*
X63309523Y-50047619D01*
X63357142Y-50142857D01*
X63357142Y-50285714D01*
X63309523Y-50380952D01*
X63261904Y-50428571D01*
X63166666Y-50476190D01*
X62785714Y-50476190D01*
X63690476Y-49952380D02*
X64309523Y-49952380D01*
X63976190Y-50333333D01*
X64119047Y-50333333D01*
X64214285Y-50380952D01*
X64261904Y-50428571D01*
X64309523Y-50523809D01*
X64309523Y-50761904D01*
X64261904Y-50857142D01*
X64214285Y-50904761D01*
X64119047Y-50952380D01*
X63833333Y-50952380D01*
X63738095Y-50904761D01*
X63690476Y-50857142D01*
X64880952Y-50380952D02*
X64785714Y-50333333D01*
X64738095Y-50285714D01*
X64690476Y-50190476D01*
X64690476Y-50142857D01*
X64738095Y-50047619D01*
X64785714Y-50000000D01*
X64880952Y-49952380D01*
X65071428Y-49952380D01*
X65166666Y-50000000D01*
X65214285Y-50047619D01*
X65261904Y-50142857D01*
X65261904Y-50190476D01*
X65214285Y-50285714D01*
X65166666Y-50333333D01*
X65071428Y-50380952D01*
X64880952Y-50380952D01*
X64785714Y-50428571D01*
X64738095Y-50476190D01*
X64690476Y-50571428D01*
X64690476Y-50761904D01*
X64738095Y-50857142D01*
X64785714Y-50904761D01*
X64880952Y-50952380D01*
X65071428Y-50952380D01*
X65166666Y-50904761D01*
X65214285Y-50857142D01*
X65261904Y-50761904D01*
X65261904Y-50571428D01*
X65214285Y-50476190D01*
X65166666Y-50428571D01*
X65071428Y-50380952D01*
X64357142Y-55702380D02*
X64023809Y-55226190D01*
X63785714Y-55702380D02*
X63785714Y-54702380D01*
X64166666Y-54702380D01*
X64261904Y-54750000D01*
X64309523Y-54797619D01*
X64357142Y-54892857D01*
X64357142Y-55035714D01*
X64309523Y-55130952D01*
X64261904Y-55178571D01*
X64166666Y-55226190D01*
X63785714Y-55226190D01*
X64690476Y-54702380D02*
X65309523Y-54702380D01*
X64976190Y-55083333D01*
X65119047Y-55083333D01*
X65214285Y-55130952D01*
X65261904Y-55178571D01*
X65309523Y-55273809D01*
X65309523Y-55511904D01*
X65261904Y-55607142D01*
X65214285Y-55654761D01*
X65119047Y-55702380D01*
X64833333Y-55702380D01*
X64738095Y-55654761D01*
X64690476Y-55607142D01*
X65642857Y-54702380D02*
X66309523Y-54702380D01*
X65880952Y-55702380D01*
X71262380Y-19242857D02*
X70786190Y-19576190D01*
X71262380Y-19814285D02*
X70262380Y-19814285D01*
X70262380Y-19433333D01*
X70310000Y-19338095D01*
X70357619Y-19290476D01*
X70452857Y-19242857D01*
X70595714Y-19242857D01*
X70690952Y-19290476D01*
X70738571Y-19338095D01*
X70786190Y-19433333D01*
X70786190Y-19814285D01*
X70262380Y-18909523D02*
X70262380Y-18290476D01*
X70643333Y-18623809D01*
X70643333Y-18480952D01*
X70690952Y-18385714D01*
X70738571Y-18338095D01*
X70833809Y-18290476D01*
X71071904Y-18290476D01*
X71167142Y-18338095D01*
X71214761Y-18385714D01*
X71262380Y-18480952D01*
X71262380Y-18766666D01*
X71214761Y-18861904D01*
X71167142Y-18909523D01*
X70262380Y-17433333D02*
X70262380Y-17623809D01*
X70310000Y-17719047D01*
X70357619Y-17766666D01*
X70500476Y-17861904D01*
X70690952Y-17909523D01*
X71071904Y-17909523D01*
X71167142Y-17861904D01*
X71214761Y-17814285D01*
X71262380Y-17719047D01*
X71262380Y-17528571D01*
X71214761Y-17433333D01*
X71167142Y-17385714D01*
X71071904Y-17338095D01*
X70833809Y-17338095D01*
X70738571Y-17385714D01*
X70690952Y-17433333D01*
X70643333Y-17528571D01*
X70643333Y-17719047D01*
X70690952Y-17814285D01*
X70738571Y-17861904D01*
X70833809Y-17909523D01*
X71702380Y-11892857D02*
X71226190Y-12226190D01*
X71702380Y-12464285D02*
X70702380Y-12464285D01*
X70702380Y-12083333D01*
X70750000Y-11988095D01*
X70797619Y-11940476D01*
X70892857Y-11892857D01*
X71035714Y-11892857D01*
X71130952Y-11940476D01*
X71178571Y-11988095D01*
X71226190Y-12083333D01*
X71226190Y-12464285D01*
X70702380Y-11559523D02*
X70702380Y-10940476D01*
X71083333Y-11273809D01*
X71083333Y-11130952D01*
X71130952Y-11035714D01*
X71178571Y-10988095D01*
X71273809Y-10940476D01*
X71511904Y-10940476D01*
X71607142Y-10988095D01*
X71654761Y-11035714D01*
X71702380Y-11130952D01*
X71702380Y-11416666D01*
X71654761Y-11511904D01*
X71607142Y-11559523D01*
X70702380Y-10035714D02*
X70702380Y-10511904D01*
X71178571Y-10559523D01*
X71130952Y-10511904D01*
X71083333Y-10416666D01*
X71083333Y-10178571D01*
X71130952Y-10083333D01*
X71178571Y-10035714D01*
X71273809Y-9988095D01*
X71511904Y-9988095D01*
X71607142Y-10035714D01*
X71654761Y-10083333D01*
X71702380Y-10178571D01*
X71702380Y-10416666D01*
X71654761Y-10511904D01*
X71607142Y-10559523D01*
X63907142Y-21322380D02*
X63573809Y-20846190D01*
X63335714Y-21322380D02*
X63335714Y-20322380D01*
X63716666Y-20322380D01*
X63811904Y-20370000D01*
X63859523Y-20417619D01*
X63907142Y-20512857D01*
X63907142Y-20655714D01*
X63859523Y-20750952D01*
X63811904Y-20798571D01*
X63716666Y-20846190D01*
X63335714Y-20846190D01*
X64240476Y-20322380D02*
X64859523Y-20322380D01*
X64526190Y-20703333D01*
X64669047Y-20703333D01*
X64764285Y-20750952D01*
X64811904Y-20798571D01*
X64859523Y-20893809D01*
X64859523Y-21131904D01*
X64811904Y-21227142D01*
X64764285Y-21274761D01*
X64669047Y-21322380D01*
X64383333Y-21322380D01*
X64288095Y-21274761D01*
X64240476Y-21227142D01*
X65716666Y-20655714D02*
X65716666Y-21322380D01*
X65478571Y-20274761D02*
X65240476Y-20989047D01*
X65859523Y-20989047D01*
X63962380Y-23392857D02*
X63486190Y-23726190D01*
X63962380Y-23964285D02*
X62962380Y-23964285D01*
X62962380Y-23583333D01*
X63010000Y-23488095D01*
X63057619Y-23440476D01*
X63152857Y-23392857D01*
X63295714Y-23392857D01*
X63390952Y-23440476D01*
X63438571Y-23488095D01*
X63486190Y-23583333D01*
X63486190Y-23964285D01*
X62962380Y-23059523D02*
X62962380Y-22440476D01*
X63343333Y-22773809D01*
X63343333Y-22630952D01*
X63390952Y-22535714D01*
X63438571Y-22488095D01*
X63533809Y-22440476D01*
X63771904Y-22440476D01*
X63867142Y-22488095D01*
X63914761Y-22535714D01*
X63962380Y-22630952D01*
X63962380Y-22916666D01*
X63914761Y-23011904D01*
X63867142Y-23059523D01*
X62962380Y-22107142D02*
X62962380Y-21488095D01*
X63343333Y-21821428D01*
X63343333Y-21678571D01*
X63390952Y-21583333D01*
X63438571Y-21535714D01*
X63533809Y-21488095D01*
X63771904Y-21488095D01*
X63867142Y-21535714D01*
X63914761Y-21583333D01*
X63962380Y-21678571D01*
X63962380Y-21964285D01*
X63914761Y-22059523D01*
X63867142Y-22107142D01*
X45202380Y-142857D02*
X44726190Y-476190D01*
X45202380Y-714285D02*
X44202380Y-714285D01*
X44202380Y-333333D01*
X44250000Y-238095D01*
X44297619Y-190476D01*
X44392857Y-142857D01*
X44535714Y-142857D01*
X44630952Y-190476D01*
X44678571Y-238095D01*
X44726190Y-333333D01*
X44726190Y-714285D01*
X44202380Y190476D02*
X44202380Y809523D01*
X44583333Y476190D01*
X44583333Y619047D01*
X44630952Y714285D01*
X44678571Y761904D01*
X44773809Y809523D01*
X45011904Y809523D01*
X45107142Y761904D01*
X45154761Y714285D01*
X45202380Y619047D01*
X45202380Y333333D01*
X45154761Y238095D01*
X45107142Y190476D01*
X44297619Y1190476D02*
X44250000Y1238095D01*
X44202380Y1333333D01*
X44202380Y1571428D01*
X44250000Y1666666D01*
X44297619Y1714285D01*
X44392857Y1761904D01*
X44488095Y1761904D01*
X44630952Y1714285D01*
X45202380Y1142857D01*
X45202380Y1761904D01*
X43153560Y-4952857D02*
X42677370Y-5286190D01*
X43153560Y-5524285D02*
X42153560Y-5524285D01*
X42153560Y-5143333D01*
X42201180Y-5048095D01*
X42248799Y-5000476D01*
X42344037Y-4952857D01*
X42486894Y-4952857D01*
X42582132Y-5000476D01*
X42629751Y-5048095D01*
X42677370Y-5143333D01*
X42677370Y-5524285D01*
X42153560Y-4619523D02*
X42153560Y-4000476D01*
X42534513Y-4333809D01*
X42534513Y-4190952D01*
X42582132Y-4095714D01*
X42629751Y-4048095D01*
X42724989Y-4000476D01*
X42963084Y-4000476D01*
X43058322Y-4048095D01*
X43105941Y-4095714D01*
X43153560Y-4190952D01*
X43153560Y-4476666D01*
X43105941Y-4571904D01*
X43058322Y-4619523D01*
X43153560Y-3048095D02*
X43153560Y-3619523D01*
X43153560Y-3333809D02*
X42153560Y-3333809D01*
X42296418Y-3429047D01*
X42391656Y-3524285D01*
X42439275Y-3619523D01*
X63167142Y-3372380D02*
X62833809Y-2896190D01*
X62595714Y-3372380D02*
X62595714Y-2372380D01*
X62976666Y-2372380D01*
X63071904Y-2420000D01*
X63119523Y-2467619D01*
X63167142Y-2562857D01*
X63167142Y-2705714D01*
X63119523Y-2800952D01*
X63071904Y-2848571D01*
X62976666Y-2896190D01*
X62595714Y-2896190D01*
X63500476Y-2372380D02*
X64119523Y-2372380D01*
X63786190Y-2753333D01*
X63929047Y-2753333D01*
X64024285Y-2800952D01*
X64071904Y-2848571D01*
X64119523Y-2943809D01*
X64119523Y-3181904D01*
X64071904Y-3277142D01*
X64024285Y-3324761D01*
X63929047Y-3372380D01*
X63643333Y-3372380D01*
X63548095Y-3324761D01*
X63500476Y-3277142D01*
X64738571Y-2372380D02*
X64833809Y-2372380D01*
X64929047Y-2420000D01*
X64976666Y-2467619D01*
X65024285Y-2562857D01*
X65071904Y-2753333D01*
X65071904Y-2991428D01*
X65024285Y-3181904D01*
X64976666Y-3277142D01*
X64929047Y-3324761D01*
X64833809Y-3372380D01*
X64738571Y-3372380D01*
X64643333Y-3324761D01*
X64595714Y-3277142D01*
X64548095Y-3181904D01*
X64500476Y-2991428D01*
X64500476Y-2753333D01*
X64548095Y-2562857D01*
X64595714Y-2467619D01*
X64643333Y-2420000D01*
X64738571Y-2372380D01*
X15907280Y-16185117D02*
X15431090Y-16518450D01*
X15907280Y-16756545D02*
X14907280Y-16756545D01*
X14907280Y-16375593D01*
X14954900Y-16280355D01*
X15002519Y-16232736D01*
X15097757Y-16185117D01*
X15240614Y-16185117D01*
X15335852Y-16232736D01*
X15383471Y-16280355D01*
X15431090Y-16375593D01*
X15431090Y-16756545D01*
X15002519Y-15804164D02*
X14954900Y-15756545D01*
X14907280Y-15661307D01*
X14907280Y-15423212D01*
X14954900Y-15327974D01*
X15002519Y-15280355D01*
X15097757Y-15232736D01*
X15192995Y-15232736D01*
X15335852Y-15280355D01*
X15907280Y-15851783D01*
X15907280Y-15232736D01*
X14907280Y-14899402D02*
X14907280Y-14232736D01*
X15907280Y-14661307D01*
X6952380Y-27142857D02*
X6476190Y-27476190D01*
X6952380Y-27714285D02*
X5952380Y-27714285D01*
X5952380Y-27333333D01*
X6000000Y-27238095D01*
X6047619Y-27190476D01*
X6142857Y-27142857D01*
X6285714Y-27142857D01*
X6380952Y-27190476D01*
X6428571Y-27238095D01*
X6476190Y-27333333D01*
X6476190Y-27714285D01*
X6952380Y-26190476D02*
X6952380Y-26761904D01*
X6952380Y-26476190D02*
X5952380Y-26476190D01*
X6095238Y-26571428D01*
X6190476Y-26666666D01*
X6238095Y-26761904D01*
X6285714Y-25333333D02*
X6952380Y-25333333D01*
X5904761Y-25571428D02*
X6619047Y-25809523D01*
X6619047Y-25190476D01*
X22952380Y-16892857D02*
X22476190Y-17226190D01*
X22952380Y-17464285D02*
X21952380Y-17464285D01*
X21952380Y-17083333D01*
X22000000Y-16988095D01*
X22047619Y-16940476D01*
X22142857Y-16892857D01*
X22285714Y-16892857D01*
X22380952Y-16940476D01*
X22428571Y-16988095D01*
X22476190Y-17083333D01*
X22476190Y-17464285D01*
X22952380Y-15940476D02*
X22952380Y-16511904D01*
X22952380Y-16226190D02*
X21952380Y-16226190D01*
X22095238Y-16321428D01*
X22190476Y-16416666D01*
X22238095Y-16511904D01*
X21952380Y-15607142D02*
X21952380Y-14988095D01*
X22333333Y-15321428D01*
X22333333Y-15178571D01*
X22380952Y-15083333D01*
X22428571Y-15035714D01*
X22523809Y-14988095D01*
X22761904Y-14988095D01*
X22857142Y-15035714D01*
X22904761Y-15083333D01*
X22952380Y-15178571D01*
X22952380Y-15464285D01*
X22904761Y-15559523D01*
X22857142Y-15607142D01*
X30702380Y-16142857D02*
X30226190Y-16476190D01*
X30702380Y-16714285D02*
X29702380Y-16714285D01*
X29702380Y-16333333D01*
X29750000Y-16238095D01*
X29797619Y-16190476D01*
X29892857Y-16142857D01*
X30035714Y-16142857D01*
X30130952Y-16190476D01*
X30178571Y-16238095D01*
X30226190Y-16333333D01*
X30226190Y-16714285D01*
X30702380Y-15190476D02*
X30702380Y-15761904D01*
X30702380Y-15476190D02*
X29702380Y-15476190D01*
X29845238Y-15571428D01*
X29940476Y-15666666D01*
X29988095Y-15761904D01*
X29797619Y-14809523D02*
X29750000Y-14761904D01*
X29702380Y-14666666D01*
X29702380Y-14428571D01*
X29750000Y-14333333D01*
X29797619Y-14285714D01*
X29892857Y-14238095D01*
X29988095Y-14238095D01*
X30130952Y-14285714D01*
X30702380Y-14857142D01*
X30702380Y-14238095D01*
X3047619Y-10571428D02*
X3000000Y-10666666D01*
X2904761Y-10761904D01*
X2761904Y-10904761D01*
X2714285Y-11000000D01*
X2714285Y-11095238D01*
X2952380Y-11047619D02*
X2904761Y-11142857D01*
X2809523Y-11238095D01*
X2619047Y-11285714D01*
X2285714Y-11285714D01*
X2095238Y-11238095D01*
X2000000Y-11142857D01*
X1952380Y-11047619D01*
X1952380Y-10857142D01*
X2000000Y-10761904D01*
X2095238Y-10666666D01*
X2285714Y-10619047D01*
X2619047Y-10619047D01*
X2809523Y-10666666D01*
X2904761Y-10761904D01*
X2952380Y-10857142D01*
X2952380Y-11047619D01*
X2952380Y-9666666D02*
X2952380Y-10238095D01*
X2952380Y-9952380D02*
X1952380Y-9952380D01*
X2095238Y-10047619D01*
X2190476Y-10142857D01*
X2238095Y-10238095D01*
X1952380Y-8809523D02*
X1952380Y-9000000D01*
X2000000Y-9095238D01*
X2047619Y-9142857D01*
X2190476Y-9238095D01*
X2380952Y-9285714D01*
X2761904Y-9285714D01*
X2857142Y-9238095D01*
X2904761Y-9190476D01*
X2952380Y-9095238D01*
X2952380Y-8904761D01*
X2904761Y-8809523D01*
X2857142Y-8761904D01*
X2761904Y-8714285D01*
X2523809Y-8714285D01*
X2428571Y-8761904D01*
X2380952Y-8809523D01*
X2333333Y-8904761D01*
X2333333Y-9095238D01*
X2380952Y-9190476D01*
X2428571Y-9238095D01*
X2523809Y-9285714D01*
X8690359Y-10365668D02*
X8642740Y-10460906D01*
X8547501Y-10556144D01*
X8404644Y-10699001D01*
X8357025Y-10794240D01*
X8357025Y-10889478D01*
X8595120Y-10841859D02*
X8547501Y-10937097D01*
X8452263Y-11032335D01*
X8261787Y-11079954D01*
X7928454Y-11079954D01*
X7737978Y-11032335D01*
X7642740Y-10937097D01*
X7595120Y-10841859D01*
X7595120Y-10651382D01*
X7642740Y-10556144D01*
X7737978Y-10460906D01*
X7928454Y-10413287D01*
X8261787Y-10413287D01*
X8452263Y-10460906D01*
X8547501Y-10556144D01*
X8595120Y-10651382D01*
X8595120Y-10841859D01*
X8595120Y-9460906D02*
X8595120Y-10032335D01*
X8595120Y-9746620D02*
X7595120Y-9746620D01*
X7737978Y-9841859D01*
X7833216Y-9937097D01*
X7880835Y-10032335D01*
X7595120Y-8556144D02*
X7595120Y-9032335D01*
X8071311Y-9079954D01*
X8023692Y-9032335D01*
X7976073Y-8937097D01*
X7976073Y-8699001D01*
X8023692Y-8603763D01*
X8071311Y-8556144D01*
X8166549Y-8508525D01*
X8404644Y-8508525D01*
X8499882Y-8556144D01*
X8547501Y-8603763D01*
X8595120Y-8699001D01*
X8595120Y-8937097D01*
X8547501Y-9032335D01*
X8499882Y-9079954D01*
X18791939Y-10479968D02*
X18744320Y-10575206D01*
X18649081Y-10670444D01*
X18506224Y-10813301D01*
X18458605Y-10908540D01*
X18458605Y-11003778D01*
X18696700Y-10956159D02*
X18649081Y-11051397D01*
X18553843Y-11146635D01*
X18363367Y-11194254D01*
X18030034Y-11194254D01*
X17839558Y-11146635D01*
X17744320Y-11051397D01*
X17696700Y-10956159D01*
X17696700Y-10765682D01*
X17744320Y-10670444D01*
X17839558Y-10575206D01*
X18030034Y-10527587D01*
X18363367Y-10527587D01*
X18553843Y-10575206D01*
X18649081Y-10670444D01*
X18696700Y-10765682D01*
X18696700Y-10956159D01*
X18696700Y-9575206D02*
X18696700Y-10146635D01*
X18696700Y-9860920D02*
X17696700Y-9860920D01*
X17839558Y-9956159D01*
X17934796Y-10051397D01*
X17982415Y-10146635D01*
X18030034Y-8718063D02*
X18696700Y-8718063D01*
X17649081Y-8956159D02*
X18363367Y-9194254D01*
X18363367Y-8575206D01*
X13760199Y-10406308D02*
X13712580Y-10501546D01*
X13617341Y-10596784D01*
X13474484Y-10739641D01*
X13426865Y-10834880D01*
X13426865Y-10930118D01*
X13664960Y-10882499D02*
X13617341Y-10977737D01*
X13522103Y-11072975D01*
X13331627Y-11120594D01*
X12998294Y-11120594D01*
X12807818Y-11072975D01*
X12712580Y-10977737D01*
X12664960Y-10882499D01*
X12664960Y-10692022D01*
X12712580Y-10596784D01*
X12807818Y-10501546D01*
X12998294Y-10453927D01*
X13331627Y-10453927D01*
X13522103Y-10501546D01*
X13617341Y-10596784D01*
X13664960Y-10692022D01*
X13664960Y-10882499D01*
X13664960Y-9501546D02*
X13664960Y-10072975D01*
X13664960Y-9787260D02*
X12664960Y-9787260D01*
X12807818Y-9882499D01*
X12903056Y-9977737D01*
X12950675Y-10072975D01*
X12664960Y-9168213D02*
X12664960Y-8549165D01*
X13045913Y-8882499D01*
X13045913Y-8739641D01*
X13093532Y-8644403D01*
X13141151Y-8596784D01*
X13236389Y-8549165D01*
X13474484Y-8549165D01*
X13569722Y-8596784D01*
X13617341Y-8644403D01*
X13664960Y-8739641D01*
X13664960Y-9025356D01*
X13617341Y-9120594D01*
X13569722Y-9168213D01*
X24057359Y-10502828D02*
X24009740Y-10598066D01*
X23914501Y-10693304D01*
X23771644Y-10836161D01*
X23724025Y-10931400D01*
X23724025Y-11026638D01*
X23962120Y-10979019D02*
X23914501Y-11074257D01*
X23819263Y-11169495D01*
X23628787Y-11217114D01*
X23295454Y-11217114D01*
X23104978Y-11169495D01*
X23009740Y-11074257D01*
X22962120Y-10979019D01*
X22962120Y-10788542D01*
X23009740Y-10693304D01*
X23104978Y-10598066D01*
X23295454Y-10550447D01*
X23628787Y-10550447D01*
X23819263Y-10598066D01*
X23914501Y-10693304D01*
X23962120Y-10788542D01*
X23962120Y-10979019D01*
X23962120Y-9598066D02*
X23962120Y-10169495D01*
X23962120Y-9883780D02*
X22962120Y-9883780D01*
X23104978Y-9979019D01*
X23200216Y-10074257D01*
X23247835Y-10169495D01*
X23057359Y-9217114D02*
X23009740Y-9169495D01*
X22962120Y-9074257D01*
X22962120Y-8836161D01*
X23009740Y-8740923D01*
X23057359Y-8693304D01*
X23152597Y-8645685D01*
X23247835Y-8645685D01*
X23390692Y-8693304D01*
X23962120Y-9264733D01*
X23962120Y-8645685D01*
X3617619Y-53221428D02*
X3570000Y-53316666D01*
X3474761Y-53411904D01*
X3331904Y-53554761D01*
X3284285Y-53650000D01*
X3284285Y-53745238D01*
X3522380Y-53697619D02*
X3474761Y-53792857D01*
X3379523Y-53888095D01*
X3189047Y-53935714D01*
X2855714Y-53935714D01*
X2665238Y-53888095D01*
X2570000Y-53792857D01*
X2522380Y-53697619D01*
X2522380Y-53507142D01*
X2570000Y-53411904D01*
X2665238Y-53316666D01*
X2855714Y-53269047D01*
X3189047Y-53269047D01*
X3379523Y-53316666D01*
X3474761Y-53411904D01*
X3522380Y-53507142D01*
X3522380Y-53697619D01*
X3522380Y-52316666D02*
X3522380Y-52888095D01*
X3522380Y-52602380D02*
X2522380Y-52602380D01*
X2665238Y-52697619D01*
X2760476Y-52792857D01*
X2808095Y-52888095D01*
X3522380Y-51364285D02*
X3522380Y-51935714D01*
X3522380Y-51650000D02*
X2522380Y-51650000D01*
X2665238Y-51745238D01*
X2760476Y-51840476D01*
X2808095Y-51935714D01*
X65761904Y-1202380D02*
X65761904Y-202380D01*
X66000000Y-202380D01*
X66142857Y-250000D01*
X66238095Y-345238D01*
X66285714Y-440476D01*
X66333333Y-630952D01*
X66333333Y-773809D01*
X66285714Y-964285D01*
X66238095Y-1059523D01*
X66142857Y-1154761D01*
X66000000Y-1202380D01*
X65761904Y-1202380D01*
X66809523Y-1202380D02*
X67000000Y-1202380D01*
X67095238Y-1154761D01*
X67142857Y-1107142D01*
X67238095Y-964285D01*
X67285714Y-773809D01*
X67285714Y-392857D01*
X67238095Y-297619D01*
X67190476Y-250000D01*
X67095238Y-202380D01*
X66904761Y-202380D01*
X66809523Y-250000D01*
X66761904Y-297619D01*
X66714285Y-392857D01*
X66714285Y-630952D01*
X66761904Y-726190D01*
X66809523Y-773809D01*
X66904761Y-821428D01*
X67095238Y-821428D01*
X67190476Y-773809D01*
X67238095Y-726190D01*
X67285714Y-630952D01*
X51952380Y2011904D02*
X50952380Y2011904D01*
X50952380Y2250000D01*
X51000000Y2392857D01*
X51095238Y2488095D01*
X51190476Y2535714D01*
X51380952Y2583333D01*
X51523809Y2583333D01*
X51714285Y2535714D01*
X51809523Y2488095D01*
X51904761Y2392857D01*
X51952380Y2250000D01*
X51952380Y2011904D01*
X51380952Y3154761D02*
X51333333Y3059523D01*
X51285714Y3011904D01*
X51190476Y2964285D01*
X51142857Y2964285D01*
X51047619Y3011904D01*
X51000000Y3059523D01*
X50952380Y3154761D01*
X50952380Y3345238D01*
X51000000Y3440476D01*
X51047619Y3488095D01*
X51142857Y3535714D01*
X51190476Y3535714D01*
X51285714Y3488095D01*
X51333333Y3440476D01*
X51380952Y3345238D01*
X51380952Y3154761D01*
X51428571Y3059523D01*
X51476190Y3011904D01*
X51571428Y2964285D01*
X51761904Y2964285D01*
X51857142Y3011904D01*
X51904761Y3059523D01*
X51952380Y3154761D01*
X51952380Y3345238D01*
X51904761Y3440476D01*
X51857142Y3488095D01*
X51761904Y3535714D01*
X51571428Y3535714D01*
X51476190Y3488095D01*
X51428571Y3440476D01*
X51380952Y3345238D01*
X70607142Y-3166666D02*
X70654761Y-3214285D01*
X70702380Y-3357142D01*
X70702380Y-3452380D01*
X70654761Y-3595238D01*
X70559523Y-3690476D01*
X70464285Y-3738095D01*
X70273809Y-3785714D01*
X70130952Y-3785714D01*
X69940476Y-3738095D01*
X69845238Y-3690476D01*
X69750000Y-3595238D01*
X69702380Y-3452380D01*
X69702380Y-3357142D01*
X69750000Y-3214285D01*
X69797619Y-3166666D01*
X70702380Y-2690476D02*
X70702380Y-2500000D01*
X70654761Y-2404761D01*
X70607142Y-2357142D01*
X70464285Y-2261904D01*
X70273809Y-2214285D01*
X69892857Y-2214285D01*
X69797619Y-2261904D01*
X69750000Y-2309523D01*
X69702380Y-2404761D01*
X69702380Y-2595238D01*
X69750000Y-2690476D01*
X69797619Y-2738095D01*
X69892857Y-2785714D01*
X70130952Y-2785714D01*
X70226190Y-2738095D01*
X70273809Y-2690476D01*
X70321428Y-2595238D01*
X70321428Y-2404761D01*
X70273809Y-2309523D01*
X70226190Y-2261904D01*
X70130952Y-2214285D01*
X71607142Y-14416666D02*
X71654761Y-14464285D01*
X71702380Y-14607142D01*
X71702380Y-14702380D01*
X71654761Y-14845238D01*
X71559523Y-14940476D01*
X71464285Y-14988095D01*
X71273809Y-15035714D01*
X71130952Y-15035714D01*
X70940476Y-14988095D01*
X70845238Y-14940476D01*
X70750000Y-14845238D01*
X70702380Y-14702380D01*
X70702380Y-14607142D01*
X70750000Y-14464285D01*
X70797619Y-14416666D01*
X71130952Y-13845238D02*
X71083333Y-13940476D01*
X71035714Y-13988095D01*
X70940476Y-14035714D01*
X70892857Y-14035714D01*
X70797619Y-13988095D01*
X70750000Y-13940476D01*
X70702380Y-13845238D01*
X70702380Y-13654761D01*
X70750000Y-13559523D01*
X70797619Y-13511904D01*
X70892857Y-13464285D01*
X70940476Y-13464285D01*
X71035714Y-13511904D01*
X71083333Y-13559523D01*
X71130952Y-13654761D01*
X71130952Y-13845238D01*
X71178571Y-13940476D01*
X71226190Y-13988095D01*
X71321428Y-14035714D01*
X71511904Y-14035714D01*
X71607142Y-13988095D01*
X71654761Y-13940476D01*
X71702380Y-13845238D01*
X71702380Y-13654761D01*
X71654761Y-13559523D01*
X71607142Y-13511904D01*
X71511904Y-13464285D01*
X71321428Y-13464285D01*
X71226190Y-13511904D01*
X71178571Y-13559523D01*
X71130952Y-13654761D01*
X40497142Y-116666D02*
X40544761Y-164285D01*
X40592380Y-307142D01*
X40592380Y-402380D01*
X40544761Y-545238D01*
X40449523Y-640476D01*
X40354285Y-688095D01*
X40163809Y-735714D01*
X40020952Y-735714D01*
X39830476Y-688095D01*
X39735238Y-640476D01*
X39640000Y-545238D01*
X39592380Y-402380D01*
X39592380Y-307142D01*
X39640000Y-164285D01*
X39687619Y-116666D01*
X39592380Y216666D02*
X39592380Y883333D01*
X40592380Y454761D01*
X46304982Y-7956466D02*
X46352601Y-8004085D01*
X46400220Y-8146942D01*
X46400220Y-8242180D01*
X46352601Y-8385038D01*
X46257363Y-8480276D01*
X46162125Y-8527895D01*
X45971649Y-8575514D01*
X45828792Y-8575514D01*
X45638316Y-8527895D01*
X45543078Y-8480276D01*
X45447840Y-8385038D01*
X45400220Y-8242180D01*
X45400220Y-8146942D01*
X45447840Y-8004085D01*
X45495459Y-7956466D01*
X45400220Y-7099323D02*
X45400220Y-7289800D01*
X45447840Y-7385038D01*
X45495459Y-7432657D01*
X45638316Y-7527895D01*
X45828792Y-7575514D01*
X46209744Y-7575514D01*
X46304982Y-7527895D01*
X46352601Y-7480276D01*
X46400220Y-7385038D01*
X46400220Y-7194561D01*
X46352601Y-7099323D01*
X46304982Y-7051704D01*
X46209744Y-7004085D01*
X45971649Y-7004085D01*
X45876411Y-7051704D01*
X45828792Y-7099323D01*
X45781173Y-7194561D01*
X45781173Y-7385038D01*
X45828792Y-7480276D01*
X45876411Y-7527895D01*
X45971649Y-7575514D01*
X36154761Y-51047619D02*
X36059523Y-51000000D01*
X35964285Y-50904761D01*
X35821428Y-50761904D01*
X35726190Y-50714285D01*
X35630952Y-50714285D01*
X35678571Y-50952380D02*
X35583333Y-50904761D01*
X35488095Y-50809523D01*
X35440476Y-50619047D01*
X35440476Y-50285714D01*
X35488095Y-50095238D01*
X35583333Y-50000000D01*
X35678571Y-49952380D01*
X35869047Y-49952380D01*
X35964285Y-50000000D01*
X36059523Y-50095238D01*
X36107142Y-50285714D01*
X36107142Y-50619047D01*
X36059523Y-50809523D01*
X35964285Y-50904761D01*
X35869047Y-50952380D01*
X35678571Y-50952380D01*
X36440476Y-49952380D02*
X37107142Y-49952380D01*
X36678571Y-50952380D01*
X41952380Y-18392857D02*
X41476190Y-18726190D01*
X41952380Y-18964285D02*
X40952380Y-18964285D01*
X40952380Y-18583333D01*
X41000000Y-18488095D01*
X41047619Y-18440476D01*
X41142857Y-18392857D01*
X41285714Y-18392857D01*
X41380952Y-18440476D01*
X41428571Y-18488095D01*
X41476190Y-18583333D01*
X41476190Y-18964285D01*
X41047619Y-18011904D02*
X41000000Y-17964285D01*
X40952380Y-17869047D01*
X40952380Y-17630952D01*
X41000000Y-17535714D01*
X41047619Y-17488095D01*
X41142857Y-17440476D01*
X41238095Y-17440476D01*
X41380952Y-17488095D01*
X41952380Y-18059523D01*
X41952380Y-17440476D01*
X40952380Y-16583333D02*
X40952380Y-16773809D01*
X41000000Y-16869047D01*
X41047619Y-16916666D01*
X41190476Y-17011904D01*
X41380952Y-17059523D01*
X41761904Y-17059523D01*
X41857142Y-17011904D01*
X41904761Y-16964285D01*
X41952380Y-16869047D01*
X41952380Y-16678571D01*
X41904761Y-16583333D01*
X41857142Y-16535714D01*
X41761904Y-16488095D01*
X41523809Y-16488095D01*
X41428571Y-16535714D01*
X41380952Y-16583333D01*
X41333333Y-16678571D01*
X41333333Y-16869047D01*
X41380952Y-16964285D01*
X41428571Y-17011904D01*
X41523809Y-17059523D01*
X47419680Y-17753417D02*
X46943490Y-18086750D01*
X47419680Y-18324845D02*
X46419680Y-18324845D01*
X46419680Y-17943893D01*
X46467300Y-17848655D01*
X46514919Y-17801036D01*
X46610157Y-17753417D01*
X46753014Y-17753417D01*
X46848252Y-17801036D01*
X46895871Y-17848655D01*
X46943490Y-17943893D01*
X46943490Y-18324845D01*
X46514919Y-17372464D02*
X46467300Y-17324845D01*
X46419680Y-17229607D01*
X46419680Y-16991512D01*
X46467300Y-16896274D01*
X46514919Y-16848655D01*
X46610157Y-16801036D01*
X46705395Y-16801036D01*
X46848252Y-16848655D01*
X47419680Y-17420083D01*
X47419680Y-16801036D01*
X46419680Y-15896274D02*
X46419680Y-16372464D01*
X46895871Y-16420083D01*
X46848252Y-16372464D01*
X46800633Y-16277226D01*
X46800633Y-16039131D01*
X46848252Y-15943893D01*
X46895871Y-15896274D01*
X46991109Y-15848655D01*
X47229204Y-15848655D01*
X47324442Y-15896274D01*
X47372061Y-15943893D01*
X47419680Y-16039131D01*
X47419680Y-16277226D01*
X47372061Y-16372464D01*
X47324442Y-16420083D01*
X52702380Y-17892857D02*
X52226190Y-18226190D01*
X52702380Y-18464285D02*
X51702380Y-18464285D01*
X51702380Y-18083333D01*
X51750000Y-17988095D01*
X51797619Y-17940476D01*
X51892857Y-17892857D01*
X52035714Y-17892857D01*
X52130952Y-17940476D01*
X52178571Y-17988095D01*
X52226190Y-18083333D01*
X52226190Y-18464285D01*
X51797619Y-17511904D02*
X51750000Y-17464285D01*
X51702380Y-17369047D01*
X51702380Y-17130952D01*
X51750000Y-17035714D01*
X51797619Y-16988095D01*
X51892857Y-16940476D01*
X51988095Y-16940476D01*
X52130952Y-16988095D01*
X52702380Y-17559523D01*
X52702380Y-16940476D01*
X52035714Y-16083333D02*
X52702380Y-16083333D01*
X51654761Y-16321428D02*
X52369047Y-16559523D01*
X52369047Y-15940476D01*
X58176420Y-18156157D02*
X57700230Y-18489490D01*
X58176420Y-18727585D02*
X57176420Y-18727585D01*
X57176420Y-18346633D01*
X57224040Y-18251395D01*
X57271659Y-18203776D01*
X57366897Y-18156157D01*
X57509754Y-18156157D01*
X57604992Y-18203776D01*
X57652611Y-18251395D01*
X57700230Y-18346633D01*
X57700230Y-18727585D01*
X57271659Y-17775204D02*
X57224040Y-17727585D01*
X57176420Y-17632347D01*
X57176420Y-17394252D01*
X57224040Y-17299014D01*
X57271659Y-17251395D01*
X57366897Y-17203776D01*
X57462135Y-17203776D01*
X57604992Y-17251395D01*
X58176420Y-17822823D01*
X58176420Y-17203776D01*
X57176420Y-16870442D02*
X57176420Y-16251395D01*
X57557373Y-16584728D01*
X57557373Y-16441871D01*
X57604992Y-16346633D01*
X57652611Y-16299014D01*
X57747849Y-16251395D01*
X57985944Y-16251395D01*
X58081182Y-16299014D01*
X58128801Y-16346633D01*
X58176420Y-16441871D01*
X58176420Y-16727585D01*
X58128801Y-16822823D01*
X58081182Y-16870442D01*
X41952380Y-15642857D02*
X41476190Y-15976190D01*
X41952380Y-16214285D02*
X40952380Y-16214285D01*
X40952380Y-15833333D01*
X41000000Y-15738095D01*
X41047619Y-15690476D01*
X41142857Y-15642857D01*
X41285714Y-15642857D01*
X41380952Y-15690476D01*
X41428571Y-15738095D01*
X41476190Y-15833333D01*
X41476190Y-16214285D01*
X41047619Y-15261904D02*
X41000000Y-15214285D01*
X40952380Y-15119047D01*
X40952380Y-14880952D01*
X41000000Y-14785714D01*
X41047619Y-14738095D01*
X41142857Y-14690476D01*
X41238095Y-14690476D01*
X41380952Y-14738095D01*
X41952380Y-15309523D01*
X41952380Y-14690476D01*
X41047619Y-14309523D02*
X41000000Y-14261904D01*
X40952380Y-14166666D01*
X40952380Y-13928571D01*
X41000000Y-13833333D01*
X41047619Y-13785714D01*
X41142857Y-13738095D01*
X41238095Y-13738095D01*
X41380952Y-13785714D01*
X41952380Y-14357142D01*
X41952380Y-13738095D01*
X47202380Y-14892857D02*
X46726190Y-15226190D01*
X47202380Y-15464285D02*
X46202380Y-15464285D01*
X46202380Y-15083333D01*
X46250000Y-14988095D01*
X46297619Y-14940476D01*
X46392857Y-14892857D01*
X46535714Y-14892857D01*
X46630952Y-14940476D01*
X46678571Y-14988095D01*
X46726190Y-15083333D01*
X46726190Y-15464285D01*
X46297619Y-14511904D02*
X46250000Y-14464285D01*
X46202380Y-14369047D01*
X46202380Y-14130952D01*
X46250000Y-14035714D01*
X46297619Y-13988095D01*
X46392857Y-13940476D01*
X46488095Y-13940476D01*
X46630952Y-13988095D01*
X47202380Y-14559523D01*
X47202380Y-13940476D01*
X47202380Y-12988095D02*
X47202380Y-13559523D01*
X47202380Y-13273809D02*
X46202380Y-13273809D01*
X46345238Y-13369047D01*
X46440476Y-13464285D01*
X46488095Y-13559523D01*
X52452380Y-14392857D02*
X51976190Y-14726190D01*
X52452380Y-14964285D02*
X51452380Y-14964285D01*
X51452380Y-14583333D01*
X51500000Y-14488095D01*
X51547619Y-14440476D01*
X51642857Y-14392857D01*
X51785714Y-14392857D01*
X51880952Y-14440476D01*
X51928571Y-14488095D01*
X51976190Y-14583333D01*
X51976190Y-14964285D01*
X51547619Y-14011904D02*
X51500000Y-13964285D01*
X51452380Y-13869047D01*
X51452380Y-13630952D01*
X51500000Y-13535714D01*
X51547619Y-13488095D01*
X51642857Y-13440476D01*
X51738095Y-13440476D01*
X51880952Y-13488095D01*
X52452380Y-14059523D01*
X52452380Y-13440476D01*
X51452380Y-12821428D02*
X51452380Y-12726190D01*
X51500000Y-12630952D01*
X51547619Y-12583333D01*
X51642857Y-12535714D01*
X51833333Y-12488095D01*
X52071428Y-12488095D01*
X52261904Y-12535714D01*
X52357142Y-12583333D01*
X52404761Y-12630952D01*
X52452380Y-12726190D01*
X52452380Y-12821428D01*
X52404761Y-12916666D01*
X52357142Y-12964285D01*
X52261904Y-13011904D01*
X52071428Y-13059523D01*
X51833333Y-13059523D01*
X51642857Y-13011904D01*
X51547619Y-12964285D01*
X51500000Y-12916666D01*
X51452380Y-12821428D01*
X57952380Y-14642857D02*
X57476190Y-14976190D01*
X57952380Y-15214285D02*
X56952380Y-15214285D01*
X56952380Y-14833333D01*
X57000000Y-14738095D01*
X57047619Y-14690476D01*
X57142857Y-14642857D01*
X57285714Y-14642857D01*
X57380952Y-14690476D01*
X57428571Y-14738095D01*
X57476190Y-14833333D01*
X57476190Y-15214285D01*
X57952380Y-13690476D02*
X57952380Y-14261904D01*
X57952380Y-13976190D02*
X56952380Y-13976190D01*
X57095238Y-14071428D01*
X57190476Y-14166666D01*
X57238095Y-14261904D01*
X57952380Y-13214285D02*
X57952380Y-13023809D01*
X57904761Y-12928571D01*
X57857142Y-12880952D01*
X57714285Y-12785714D01*
X57523809Y-12738095D01*
X57142857Y-12738095D01*
X57047619Y-12785714D01*
X57000000Y-12833333D01*
X56952380Y-12928571D01*
X56952380Y-13119047D01*
X57000000Y-13214285D01*
X57047619Y-13261904D01*
X57142857Y-13309523D01*
X57380952Y-13309523D01*
X57476190Y-13261904D01*
X57523809Y-13214285D01*
X57571428Y-13119047D01*
X57571428Y-12928571D01*
X57523809Y-12833333D01*
X57476190Y-12785714D01*
X57380952Y-12738095D01*
X13181040Y-6269857D02*
X12704850Y-6603190D01*
X13181040Y-6841285D02*
X12181040Y-6841285D01*
X12181040Y-6460333D01*
X12228660Y-6365095D01*
X12276279Y-6317476D01*
X12371517Y-6269857D01*
X12514374Y-6269857D01*
X12609612Y-6317476D01*
X12657231Y-6365095D01*
X12704850Y-6460333D01*
X12704850Y-6841285D01*
X13181040Y-5317476D02*
X13181040Y-5888904D01*
X13181040Y-5603190D02*
X12181040Y-5603190D01*
X12323898Y-5698428D01*
X12419136Y-5793666D01*
X12466755Y-5888904D01*
X12609612Y-4746047D02*
X12561993Y-4841285D01*
X12514374Y-4888904D01*
X12419136Y-4936523D01*
X12371517Y-4936523D01*
X12276279Y-4888904D01*
X12228660Y-4841285D01*
X12181040Y-4746047D01*
X12181040Y-4555571D01*
X12228660Y-4460333D01*
X12276279Y-4412714D01*
X12371517Y-4365095D01*
X12419136Y-4365095D01*
X12514374Y-4412714D01*
X12561993Y-4460333D01*
X12609612Y-4555571D01*
X12609612Y-4746047D01*
X12657231Y-4841285D01*
X12704850Y-4888904D01*
X12800088Y-4936523D01*
X12990564Y-4936523D01*
X13085802Y-4888904D01*
X13133421Y-4841285D01*
X13181040Y-4746047D01*
X13181040Y-4555571D01*
X13133421Y-4460333D01*
X13085802Y-4412714D01*
X12990564Y-4365095D01*
X12800088Y-4365095D01*
X12704850Y-4412714D01*
X12657231Y-4460333D01*
X12609612Y-4555571D01*
X18026100Y-6108537D02*
X17549910Y-6441870D01*
X18026100Y-6679965D02*
X17026100Y-6679965D01*
X17026100Y-6299013D01*
X17073720Y-6203775D01*
X17121339Y-6156156D01*
X17216577Y-6108537D01*
X17359434Y-6108537D01*
X17454672Y-6156156D01*
X17502291Y-6203775D01*
X17549910Y-6299013D01*
X17549910Y-6679965D01*
X18026100Y-5156156D02*
X18026100Y-5727584D01*
X18026100Y-5441870D02*
X17026100Y-5441870D01*
X17168958Y-5537108D01*
X17264196Y-5632346D01*
X17311815Y-5727584D01*
X17026100Y-4822822D02*
X17026100Y-4156156D01*
X18026100Y-4584727D01*
X22702380Y-6642857D02*
X22226190Y-6976190D01*
X22702380Y-7214285D02*
X21702380Y-7214285D01*
X21702380Y-6833333D01*
X21750000Y-6738095D01*
X21797619Y-6690476D01*
X21892857Y-6642857D01*
X22035714Y-6642857D01*
X22130952Y-6690476D01*
X22178571Y-6738095D01*
X22226190Y-6833333D01*
X22226190Y-7214285D01*
X22702380Y-5690476D02*
X22702380Y-6261904D01*
X22702380Y-5976190D02*
X21702380Y-5976190D01*
X21845238Y-6071428D01*
X21940476Y-6166666D01*
X21988095Y-6261904D01*
X21702380Y-4833333D02*
X21702380Y-5023809D01*
X21750000Y-5119047D01*
X21797619Y-5166666D01*
X21940476Y-5261904D01*
X22130952Y-5309523D01*
X22511904Y-5309523D01*
X22607142Y-5261904D01*
X22654761Y-5214285D01*
X22702380Y-5119047D01*
X22702380Y-4928571D01*
X22654761Y-4833333D01*
X22607142Y-4785714D01*
X22511904Y-4738095D01*
X22273809Y-4738095D01*
X22178571Y-4785714D01*
X22130952Y-4833333D01*
X22083333Y-4928571D01*
X22083333Y-5119047D01*
X22130952Y-5214285D01*
X22178571Y-5261904D01*
X22273809Y-5309523D01*
X27702380Y-7142857D02*
X27226190Y-7476190D01*
X27702380Y-7714285D02*
X26702380Y-7714285D01*
X26702380Y-7333333D01*
X26750000Y-7238095D01*
X26797619Y-7190476D01*
X26892857Y-7142857D01*
X27035714Y-7142857D01*
X27130952Y-7190476D01*
X27178571Y-7238095D01*
X27226190Y-7333333D01*
X27226190Y-7714285D01*
X27702380Y-6190476D02*
X27702380Y-6761904D01*
X27702380Y-6476190D02*
X26702380Y-6476190D01*
X26845238Y-6571428D01*
X26940476Y-6666666D01*
X26988095Y-6761904D01*
X26702380Y-5285714D02*
X26702380Y-5761904D01*
X27178571Y-5809523D01*
X27130952Y-5761904D01*
X27083333Y-5666666D01*
X27083333Y-5428571D01*
X27130952Y-5333333D01*
X27178571Y-5285714D01*
X27273809Y-5238095D01*
X27511904Y-5238095D01*
X27607142Y-5285714D01*
X27654761Y-5333333D01*
X27702380Y-5428571D01*
X27702380Y-5666666D01*
X27654761Y-5761904D01*
X27607142Y-5809523D01*
X32377142Y-54426380D02*
X32043809Y-53950190D01*
X31805714Y-54426380D02*
X31805714Y-53426380D01*
X32186666Y-53426380D01*
X32281904Y-53474000D01*
X32329523Y-53521619D01*
X32377142Y-53616857D01*
X32377142Y-53759714D01*
X32329523Y-53854952D01*
X32281904Y-53902571D01*
X32186666Y-53950190D01*
X31805714Y-53950190D01*
X33329523Y-54426380D02*
X32758095Y-54426380D01*
X33043809Y-54426380D02*
X33043809Y-53426380D01*
X32948571Y-53569238D01*
X32853333Y-53664476D01*
X32758095Y-53712095D01*
X34281904Y-54426380D02*
X33710476Y-54426380D01*
X33996190Y-54426380D02*
X33996190Y-53426380D01*
X33900952Y-53569238D01*
X33805714Y-53664476D01*
X33710476Y-53712095D01*
X51471293Y-29355040D02*
X51137960Y-28878850D01*
X50899864Y-29355040D02*
X50899864Y-28355040D01*
X51280817Y-28355040D01*
X51376055Y-28402660D01*
X51423674Y-28450279D01*
X51471293Y-28545517D01*
X51471293Y-28688374D01*
X51423674Y-28783612D01*
X51376055Y-28831231D01*
X51280817Y-28878850D01*
X50899864Y-28878850D01*
X52042721Y-28783612D02*
X51947483Y-28735993D01*
X51899864Y-28688374D01*
X51852245Y-28593136D01*
X51852245Y-28545517D01*
X51899864Y-28450279D01*
X51947483Y-28402660D01*
X52042721Y-28355040D01*
X52233198Y-28355040D01*
X52328436Y-28402660D01*
X52376055Y-28450279D01*
X52423674Y-28545517D01*
X52423674Y-28593136D01*
X52376055Y-28688374D01*
X52328436Y-28735993D01*
X52233198Y-28783612D01*
X52042721Y-28783612D01*
X51947483Y-28831231D01*
X51899864Y-28878850D01*
X51852245Y-28974088D01*
X51852245Y-29164564D01*
X51899864Y-29259802D01*
X51947483Y-29307421D01*
X52042721Y-29355040D01*
X52233198Y-29355040D01*
X52328436Y-29307421D01*
X52376055Y-29259802D01*
X52423674Y-29164564D01*
X52423674Y-28974088D01*
X52376055Y-28878850D01*
X52328436Y-28831231D01*
X52233198Y-28783612D01*
X47415153Y-29441400D02*
X47081820Y-28965210D01*
X46843724Y-29441400D02*
X46843724Y-28441400D01*
X47224677Y-28441400D01*
X47319915Y-28489020D01*
X47367534Y-28536639D01*
X47415153Y-28631877D01*
X47415153Y-28774734D01*
X47367534Y-28869972D01*
X47319915Y-28917591D01*
X47224677Y-28965210D01*
X46843724Y-28965210D01*
X47748486Y-28441400D02*
X48415153Y-28441400D01*
X47986581Y-29441400D01*
X38972193Y-29299160D02*
X38638860Y-28822970D01*
X38400764Y-29299160D02*
X38400764Y-28299160D01*
X38781717Y-28299160D01*
X38876955Y-28346780D01*
X38924574Y-28394399D01*
X38972193Y-28489637D01*
X38972193Y-28632494D01*
X38924574Y-28727732D01*
X38876955Y-28775351D01*
X38781717Y-28822970D01*
X38400764Y-28822970D01*
X39829336Y-28299160D02*
X39638860Y-28299160D01*
X39543621Y-28346780D01*
X39496002Y-28394399D01*
X39400764Y-28537256D01*
X39353145Y-28727732D01*
X39353145Y-29108684D01*
X39400764Y-29203922D01*
X39448383Y-29251541D01*
X39543621Y-29299160D01*
X39734098Y-29299160D01*
X39829336Y-29251541D01*
X39876955Y-29203922D01*
X39924574Y-29108684D01*
X39924574Y-28870589D01*
X39876955Y-28775351D01*
X39829336Y-28727732D01*
X39734098Y-28680113D01*
X39543621Y-28680113D01*
X39448383Y-28727732D01*
X39400764Y-28775351D01*
X39353145Y-28870589D01*
X30928013Y-29294080D02*
X30594680Y-28817890D01*
X30356584Y-29294080D02*
X30356584Y-28294080D01*
X30737537Y-28294080D01*
X30832775Y-28341700D01*
X30880394Y-28389319D01*
X30928013Y-28484557D01*
X30928013Y-28627414D01*
X30880394Y-28722652D01*
X30832775Y-28770271D01*
X30737537Y-28817890D01*
X30356584Y-28817890D01*
X31832775Y-28294080D02*
X31356584Y-28294080D01*
X31308965Y-28770271D01*
X31356584Y-28722652D01*
X31451822Y-28675033D01*
X31689918Y-28675033D01*
X31785156Y-28722652D01*
X31832775Y-28770271D01*
X31880394Y-28865509D01*
X31880394Y-29103604D01*
X31832775Y-29198842D01*
X31785156Y-29246461D01*
X31689918Y-29294080D01*
X31451822Y-29294080D01*
X31356584Y-29246461D01*
X31308965Y-29198842D01*
X55756513Y-36702380D02*
X55423180Y-36226190D01*
X55185084Y-36702380D02*
X55185084Y-35702380D01*
X55566037Y-35702380D01*
X55661275Y-35750000D01*
X55708894Y-35797619D01*
X55756513Y-35892857D01*
X55756513Y-36035714D01*
X55708894Y-36130952D01*
X55661275Y-36178571D01*
X55566037Y-36226190D01*
X55185084Y-36226190D01*
X56613656Y-36035714D02*
X56613656Y-36702380D01*
X56375560Y-35654761D02*
X56137465Y-36369047D01*
X56756513Y-36369047D01*
X48829933Y-31750260D02*
X48496600Y-31274070D01*
X48258504Y-31750260D02*
X48258504Y-30750260D01*
X48639457Y-30750260D01*
X48734695Y-30797880D01*
X48782314Y-30845499D01*
X48829933Y-30940737D01*
X48829933Y-31083594D01*
X48782314Y-31178832D01*
X48734695Y-31226451D01*
X48639457Y-31274070D01*
X48258504Y-31274070D01*
X49163266Y-30750260D02*
X49782314Y-30750260D01*
X49448980Y-31131213D01*
X49591838Y-31131213D01*
X49687076Y-31178832D01*
X49734695Y-31226451D01*
X49782314Y-31321689D01*
X49782314Y-31559784D01*
X49734695Y-31655022D01*
X49687076Y-31702641D01*
X49591838Y-31750260D01*
X49306123Y-31750260D01*
X49210885Y-31702641D01*
X49163266Y-31655022D01*
X42535813Y-31897580D02*
X42202480Y-31421390D01*
X41964384Y-31897580D02*
X41964384Y-30897580D01*
X42345337Y-30897580D01*
X42440575Y-30945200D01*
X42488194Y-30992819D01*
X42535813Y-31088057D01*
X42535813Y-31230914D01*
X42488194Y-31326152D01*
X42440575Y-31373771D01*
X42345337Y-31421390D01*
X41964384Y-31421390D01*
X42916765Y-30992819D02*
X42964384Y-30945200D01*
X43059622Y-30897580D01*
X43297718Y-30897580D01*
X43392956Y-30945200D01*
X43440575Y-30992819D01*
X43488194Y-31088057D01*
X43488194Y-31183295D01*
X43440575Y-31326152D01*
X42869146Y-31897580D01*
X43488194Y-31897580D01*
X35779413Y-31778200D02*
X35446080Y-31302010D01*
X35207984Y-31778200D02*
X35207984Y-30778200D01*
X35588937Y-30778200D01*
X35684175Y-30825820D01*
X35731794Y-30873439D01*
X35779413Y-30968677D01*
X35779413Y-31111534D01*
X35731794Y-31206772D01*
X35684175Y-31254391D01*
X35588937Y-31302010D01*
X35207984Y-31302010D01*
X36731794Y-31778200D02*
X36160365Y-31778200D01*
X36446080Y-31778200D02*
X36446080Y-30778200D01*
X36350841Y-30921058D01*
X36255603Y-31016296D01*
X36160365Y-31063915D01*
X1297619Y-16821428D02*
X1250000Y-16916666D01*
X1154761Y-17011904D01*
X1011904Y-17154761D01*
X964285Y-17250000D01*
X964285Y-17345238D01*
X1202380Y-17297619D02*
X1154761Y-17392857D01*
X1059523Y-17488095D01*
X869047Y-17535714D01*
X535714Y-17535714D01*
X345238Y-17488095D01*
X249999Y-17392857D01*
X202380Y-17297619D01*
X202380Y-17107142D01*
X249999Y-17011904D01*
X345238Y-16916666D01*
X535714Y-16869047D01*
X869047Y-16869047D01*
X1059523Y-16916666D01*
X1154761Y-17011904D01*
X1202380Y-17107142D01*
X1202380Y-17297619D01*
X1202380Y-15916666D02*
X1202380Y-16488095D01*
X1202380Y-16202380D02*
X202380Y-16202380D01*
X345238Y-16297619D01*
X440476Y-16392857D01*
X488095Y-16488095D01*
X202380Y-15297619D02*
X202380Y-15202380D01*
X250000Y-15107142D01*
X297619Y-15059523D01*
X392857Y-15011904D01*
X583333Y-14964285D01*
X821428Y-14964285D01*
X1011904Y-15011904D01*
X1107142Y-15059523D01*
X1154761Y-15107142D01*
X1202380Y-15202380D01*
X1202380Y-15297619D01*
X1154761Y-15392857D01*
X1107142Y-15440476D01*
X1011904Y-15488095D01*
X821428Y-15535714D01*
X583333Y-15535714D01*
X392857Y-15488095D01*
X297619Y-15440476D01*
X250000Y-15392857D01*
X202380Y-15297619D01*
X1297619Y-20845238D02*
X1250000Y-20940476D01*
X1154761Y-21035714D01*
X1011904Y-21178571D01*
X964285Y-21273809D01*
X964285Y-21369047D01*
X1202380Y-21321428D02*
X1154761Y-21416666D01*
X1059523Y-21511904D01*
X869047Y-21559523D01*
X535714Y-21559523D01*
X345238Y-21511904D01*
X249999Y-21416666D01*
X202380Y-21321428D01*
X202380Y-21130952D01*
X250000Y-21035714D01*
X345238Y-20940476D01*
X535714Y-20892857D01*
X869047Y-20892857D01*
X1059523Y-20940476D01*
X1154761Y-21035714D01*
X1202380Y-21130952D01*
X1202380Y-21321428D01*
X1202380Y-20416666D02*
X1202380Y-20226190D01*
X1154761Y-20130952D01*
X1107142Y-20083333D01*
X964285Y-19988095D01*
X773809Y-19940476D01*
X392857Y-19940476D01*
X297619Y-19988095D01*
X250000Y-20035714D01*
X202380Y-20130952D01*
X202380Y-20321428D01*
X250000Y-20416666D01*
X297619Y-20464285D01*
X392857Y-20511904D01*
X630952Y-20511904D01*
X726190Y-20464285D01*
X773809Y-20416666D01*
X821428Y-20321428D01*
X821428Y-20130952D01*
X773809Y-20035714D01*
X726190Y-19988095D01*
X630952Y-19940476D01*
X1547619Y-24845238D02*
X1500000Y-24940476D01*
X1404761Y-25035714D01*
X1261904Y-25178571D01*
X1214285Y-25273809D01*
X1214285Y-25369047D01*
X1452380Y-25321428D02*
X1404761Y-25416666D01*
X1309523Y-25511904D01*
X1119047Y-25559523D01*
X785714Y-25559523D01*
X595238Y-25511904D01*
X499999Y-25416666D01*
X452380Y-25321428D01*
X452380Y-25130952D01*
X500000Y-25035714D01*
X595238Y-24940476D01*
X785714Y-24892857D01*
X1119047Y-24892857D01*
X1309523Y-24940476D01*
X1404761Y-25035714D01*
X1452380Y-25130952D01*
X1452380Y-25321428D01*
X880952Y-24321428D02*
X833333Y-24416666D01*
X785714Y-24464285D01*
X690476Y-24511904D01*
X642857Y-24511904D01*
X547619Y-24464285D01*
X500000Y-24416666D01*
X452380Y-24321428D01*
X452380Y-24130952D01*
X500000Y-24035714D01*
X547619Y-23988095D01*
X642857Y-23940476D01*
X690476Y-23940476D01*
X785714Y-23988095D01*
X833333Y-24035714D01*
X880952Y-24130952D01*
X880952Y-24321428D01*
X928571Y-24416666D01*
X976190Y-24464285D01*
X1071428Y-24511904D01*
X1261904Y-24511904D01*
X1357142Y-24464285D01*
X1404761Y-24416666D01*
X1452380Y-24321428D01*
X1452380Y-24130952D01*
X1404761Y-24035714D01*
X1357142Y-23988095D01*
X1261904Y-23940476D01*
X1071428Y-23940476D01*
X976190Y-23988095D01*
X928571Y-24035714D01*
X880952Y-24130952D01*
X50405041Y-36747699D02*
X50309803Y-36700080D01*
X50214565Y-36604841D01*
X50071708Y-36461984D01*
X49976470Y-36414365D01*
X49881232Y-36414365D01*
X49928851Y-36652460D02*
X49833613Y-36604841D01*
X49738375Y-36509603D01*
X49690756Y-36319127D01*
X49690756Y-35985794D01*
X49738375Y-35795318D01*
X49833613Y-35700080D01*
X49928851Y-35652460D01*
X50119327Y-35652460D01*
X50214565Y-35700080D01*
X50309803Y-35795318D01*
X50357422Y-35985794D01*
X50357422Y-36319127D01*
X50309803Y-36509603D01*
X50214565Y-36604841D01*
X50119327Y-36652460D01*
X49928851Y-36652460D01*
X51214565Y-35985794D02*
X51214565Y-36652460D01*
X50976470Y-35604841D02*
X50738375Y-36319127D01*
X51357422Y-36319127D01*
X44085521Y-36681659D02*
X43990283Y-36634040D01*
X43895045Y-36538801D01*
X43752188Y-36395944D01*
X43656950Y-36348325D01*
X43561712Y-36348325D01*
X43609331Y-36586420D02*
X43514093Y-36538801D01*
X43418855Y-36443563D01*
X43371236Y-36253087D01*
X43371236Y-35919754D01*
X43418855Y-35729278D01*
X43514093Y-35634040D01*
X43609331Y-35586420D01*
X43799807Y-35586420D01*
X43895045Y-35634040D01*
X43990283Y-35729278D01*
X44037902Y-35919754D01*
X44037902Y-36253087D01*
X43990283Y-36443563D01*
X43895045Y-36538801D01*
X43799807Y-36586420D01*
X43609331Y-36586420D01*
X44371236Y-35586420D02*
X44990283Y-35586420D01*
X44656950Y-35967373D01*
X44799807Y-35967373D01*
X44895045Y-36014992D01*
X44942664Y-36062611D01*
X44990283Y-36157849D01*
X44990283Y-36395944D01*
X44942664Y-36491182D01*
X44895045Y-36538801D01*
X44799807Y-36586420D01*
X44514093Y-36586420D01*
X44418855Y-36538801D01*
X44371236Y-36491182D01*
X39020761Y-36829619D02*
X38925523Y-36782000D01*
X38830285Y-36686761D01*
X38687428Y-36543904D01*
X38592190Y-36496285D01*
X38496952Y-36496285D01*
X38544571Y-36734380D02*
X38449333Y-36686761D01*
X38354095Y-36591523D01*
X38306476Y-36401047D01*
X38306476Y-36067714D01*
X38354095Y-35877238D01*
X38449333Y-35782000D01*
X38544571Y-35734380D01*
X38735047Y-35734380D01*
X38830285Y-35782000D01*
X38925523Y-35877238D01*
X38973142Y-36067714D01*
X38973142Y-36401047D01*
X38925523Y-36591523D01*
X38830285Y-36686761D01*
X38735047Y-36734380D01*
X38544571Y-36734380D01*
X39354095Y-35829619D02*
X39401714Y-35782000D01*
X39496952Y-35734380D01*
X39735047Y-35734380D01*
X39830285Y-35782000D01*
X39877904Y-35829619D01*
X39925523Y-35924857D01*
X39925523Y-36020095D01*
X39877904Y-36162952D01*
X39306476Y-36734380D01*
X39925523Y-36734380D01*
X32416761Y-36829619D02*
X32321523Y-36782000D01*
X32226285Y-36686761D01*
X32083428Y-36543904D01*
X31988190Y-36496285D01*
X31892952Y-36496285D01*
X31940571Y-36734380D02*
X31845333Y-36686761D01*
X31750095Y-36591523D01*
X31702476Y-36401047D01*
X31702476Y-36067714D01*
X31750095Y-35877238D01*
X31845333Y-35782000D01*
X31940571Y-35734380D01*
X32131047Y-35734380D01*
X32226285Y-35782000D01*
X32321523Y-35877238D01*
X32369142Y-36067714D01*
X32369142Y-36401047D01*
X32321523Y-36591523D01*
X32226285Y-36686761D01*
X32131047Y-36734380D01*
X31940571Y-36734380D01*
X33321523Y-36734380D02*
X32750095Y-36734380D01*
X33035809Y-36734380D02*
X33035809Y-35734380D01*
X32940571Y-35877238D01*
X32845333Y-35972476D01*
X32750095Y-36020095D01*
X45011904Y-25452380D02*
X45011904Y-24452380D01*
X45250000Y-24452380D01*
X45392857Y-24500000D01*
X45488095Y-24595238D01*
X45535714Y-24690476D01*
X45583333Y-24880952D01*
X45583333Y-25023809D01*
X45535714Y-25214285D01*
X45488095Y-25309523D01*
X45392857Y-25404761D01*
X45250000Y-25452380D01*
X45011904Y-25452380D01*
X46440476Y-24452380D02*
X46250000Y-24452380D01*
X46154761Y-24500000D01*
X46107142Y-24547619D01*
X46011904Y-24690476D01*
X45964285Y-24880952D01*
X45964285Y-25261904D01*
X46011904Y-25357142D01*
X46059523Y-25404761D01*
X46154761Y-25452380D01*
X46345238Y-25452380D01*
X46440476Y-25404761D01*
X46488095Y-25357142D01*
X46535714Y-25261904D01*
X46535714Y-25023809D01*
X46488095Y-24928571D01*
X46440476Y-24880952D01*
X46345238Y-24833333D01*
X46154761Y-24833333D01*
X46059523Y-24880952D01*
X46011904Y-24928571D01*
X45964285Y-25023809D01*
X48761904Y-25157060D02*
X48761904Y-24157060D01*
X49000000Y-24157060D01*
X49142857Y-24204680D01*
X49238095Y-24299918D01*
X49285714Y-24395156D01*
X49333333Y-24585632D01*
X49333333Y-24728489D01*
X49285714Y-24918965D01*
X49238095Y-25014203D01*
X49142857Y-25109441D01*
X49000000Y-25157060D01*
X48761904Y-25157060D01*
X50238095Y-24157060D02*
X49761904Y-24157060D01*
X49714285Y-24633251D01*
X49761904Y-24585632D01*
X49857142Y-24538013D01*
X50095238Y-24538013D01*
X50190476Y-24585632D01*
X50238095Y-24633251D01*
X50285714Y-24728489D01*
X50285714Y-24966584D01*
X50238095Y-25061822D01*
X50190476Y-25109441D01*
X50095238Y-25157060D01*
X49857142Y-25157060D01*
X49761904Y-25109441D01*
X49714285Y-25061822D01*
X53511904Y-24952380D02*
X53511904Y-23952380D01*
X53750000Y-23952380D01*
X53892857Y-24000000D01*
X53988095Y-24095238D01*
X54035714Y-24190476D01*
X54083333Y-24380952D01*
X54083333Y-24523809D01*
X54035714Y-24714285D01*
X53988095Y-24809523D01*
X53892857Y-24904761D01*
X53750000Y-24952380D01*
X53511904Y-24952380D01*
X54940476Y-24285714D02*
X54940476Y-24952380D01*
X54702380Y-23904761D02*
X54464285Y-24619047D01*
X55083333Y-24619047D01*
X60761904Y-24952380D02*
X60761904Y-23952380D01*
X61000000Y-23952380D01*
X61142857Y-24000000D01*
X61238095Y-24095238D01*
X61285714Y-24190476D01*
X61333333Y-24380952D01*
X61333333Y-24523809D01*
X61285714Y-24714285D01*
X61238095Y-24809523D01*
X61142857Y-24904761D01*
X61000000Y-24952380D01*
X60761904Y-24952380D01*
X61666666Y-23952380D02*
X62285714Y-23952380D01*
X61952380Y-24333333D01*
X62095238Y-24333333D01*
X62190476Y-24380952D01*
X62238095Y-24428571D01*
X62285714Y-24523809D01*
X62285714Y-24761904D01*
X62238095Y-24857142D01*
X62190476Y-24904761D01*
X62095238Y-24952380D01*
X61809523Y-24952380D01*
X61714285Y-24904761D01*
X61666666Y-24857142D01*
X-4238095Y-28572380D02*
X-4238095Y-27572380D01*
X-3999999Y-27572380D01*
X-3857142Y-27620000D01*
X-3761904Y-27715238D01*
X-3714285Y-27810476D01*
X-3666666Y-28000952D01*
X-3666666Y-28143809D01*
X-3714285Y-28334285D01*
X-3761904Y-28429523D01*
X-3857142Y-28524761D01*
X-3999999Y-28572380D01*
X-4238095Y-28572380D01*
X-3285714Y-27667619D02*
X-3238095Y-27620000D01*
X-3142857Y-27572380D01*
X-2904761Y-27572380D01*
X-2809523Y-27620000D01*
X-2761904Y-27667619D01*
X-2714285Y-27762857D01*
X-2714285Y-27858095D01*
X-2761904Y-28000952D01*
X-3333333Y-28572380D01*
X-2714285Y-28572380D01*
X22883904Y-51576380D02*
X22883904Y-50576380D01*
X23122000Y-50576380D01*
X23264857Y-50624000D01*
X23360095Y-50719238D01*
X23407714Y-50814476D01*
X23455333Y-51004952D01*
X23455333Y-51147809D01*
X23407714Y-51338285D01*
X23360095Y-51433523D01*
X23264857Y-51528761D01*
X23122000Y-51576380D01*
X22883904Y-51576380D01*
X24407714Y-51576380D02*
X23836285Y-51576380D01*
X24122000Y-51576380D02*
X24122000Y-50576380D01*
X24026761Y-50719238D01*
X23931523Y-50814476D01*
X23836285Y-50862095D01*
X42107142Y-20416666D02*
X42154761Y-20464285D01*
X42202380Y-20607142D01*
X42202380Y-20702380D01*
X42154761Y-20845238D01*
X42059523Y-20940476D01*
X41964285Y-20988095D01*
X41773809Y-21035714D01*
X41630952Y-21035714D01*
X41440476Y-20988095D01*
X41345238Y-20940476D01*
X41250000Y-20845238D01*
X41202380Y-20702380D01*
X41202380Y-20607142D01*
X41250000Y-20464285D01*
X41297619Y-20416666D01*
X41535714Y-19559523D02*
X42202380Y-19559523D01*
X41154761Y-19797619D02*
X41869047Y-20035714D01*
X41869047Y-19416666D01*
X47397902Y-20030126D02*
X47445521Y-20077745D01*
X47493140Y-20220602D01*
X47493140Y-20315840D01*
X47445521Y-20458698D01*
X47350283Y-20553936D01*
X47255045Y-20601555D01*
X47064569Y-20649174D01*
X46921712Y-20649174D01*
X46731236Y-20601555D01*
X46635998Y-20553936D01*
X46540760Y-20458698D01*
X46493140Y-20315840D01*
X46493140Y-20220602D01*
X46540760Y-20077745D01*
X46588379Y-20030126D01*
X46493140Y-19696793D02*
X46493140Y-19077745D01*
X46874093Y-19411079D01*
X46874093Y-19268221D01*
X46921712Y-19172983D01*
X46969331Y-19125364D01*
X47064569Y-19077745D01*
X47302664Y-19077745D01*
X47397902Y-19125364D01*
X47445521Y-19172983D01*
X47493140Y-19268221D01*
X47493140Y-19553936D01*
X47445521Y-19649174D01*
X47397902Y-19696793D01*
X52607142Y-20416666D02*
X52654761Y-20464285D01*
X52702380Y-20607142D01*
X52702380Y-20702380D01*
X52654761Y-20845238D01*
X52559523Y-20940476D01*
X52464285Y-20988095D01*
X52273809Y-21035714D01*
X52130952Y-21035714D01*
X51940476Y-20988095D01*
X51845238Y-20940476D01*
X51750000Y-20845238D01*
X51702380Y-20702380D01*
X51702380Y-20607142D01*
X51750000Y-20464285D01*
X51797619Y-20416666D01*
X51797619Y-20035714D02*
X51750000Y-19988095D01*
X51702380Y-19892857D01*
X51702380Y-19654761D01*
X51750000Y-19559523D01*
X51797619Y-19511904D01*
X51892857Y-19464285D01*
X51988095Y-19464285D01*
X52130952Y-19511904D01*
X52702380Y-20083333D01*
X52702380Y-19464285D01*
X58055782Y-20166666D02*
X58103401Y-20214285D01*
X58151020Y-20357142D01*
X58151020Y-20452380D01*
X58103401Y-20595238D01*
X58008163Y-20690476D01*
X57912925Y-20738095D01*
X57722449Y-20785714D01*
X57579592Y-20785714D01*
X57389116Y-20738095D01*
X57293878Y-20690476D01*
X57198640Y-20595238D01*
X57151020Y-20452380D01*
X57151020Y-20357142D01*
X57198640Y-20214285D01*
X57246259Y-20166666D01*
X58151020Y-19214285D02*
X58151020Y-19785714D01*
X58151020Y-19500000D02*
X57151020Y-19500000D01*
X57293878Y-19595238D01*
X57389116Y-19690476D01*
X57436735Y-19785714D01*
X2369047Y-47428571D02*
X2511904Y-47476190D01*
X2559523Y-47523809D01*
X2607142Y-47619047D01*
X2607142Y-47761904D01*
X2559523Y-47857142D01*
X2511904Y-47904761D01*
X2416666Y-47952380D01*
X2035714Y-47952380D01*
X2035714Y-46952380D01*
X2369047Y-46952380D01*
X2464285Y-47000000D01*
X2511904Y-47047619D01*
X2559523Y-47142857D01*
X2559523Y-47238095D01*
X2511904Y-47333333D01*
X2464285Y-47380952D01*
X2369047Y-47428571D01*
X2035714Y-47428571D01*
X3035714Y-46952380D02*
X3035714Y-47761904D01*
X3083333Y-47857142D01*
X3130952Y-47904761D01*
X3226190Y-47952380D01*
X3416666Y-47952380D01*
X3511904Y-47904761D01*
X3559523Y-47857142D01*
X3607142Y-47761904D01*
X3607142Y-46952380D01*
X3988095Y-46952380D02*
X4654761Y-46952380D01*
X3988095Y-47952380D01*
X4654761Y-47952380D01*
X4940476Y-46952380D02*
X5607142Y-46952380D01*
X4940476Y-47952380D01*
X5607142Y-47952380D01*
X6511904Y-47952380D02*
X5940476Y-47952380D01*
X6226190Y-47952380D02*
X6226190Y-46952380D01*
X6130952Y-47095238D01*
X6035714Y-47190476D01*
X5940476Y-47238095D01*
M02*
