G04 EAGLE Gerber RS-274X export*
G75*
%MOMM*%
%FSLAX34Y34*%
%LPD*%
%INSoldermask Bottom*%
%IPPOS*%
%AMOC8*
5,1,8,0,0,1.08239X$1,22.5*%
G01*
%ADD10C,4.521200*%
%ADD11C,1.981200*%
%ADD12C,2.082800*%
%ADD13C,4.013200*%
%ADD14C,6.553200*%
%ADD15R,2.235200X2.235200*%
%ADD16C,2.235200*%
%ADD17C,3.251200*%

G36*
X1596880Y91559D02*
X1596880Y91559D01*
X1596923Y91571D01*
X1596989Y91580D01*
X1598606Y92034D01*
X1598647Y92053D01*
X1598675Y92062D01*
X1598685Y92064D01*
X1598689Y92066D01*
X1598710Y92073D01*
X1600224Y92801D01*
X1600260Y92827D01*
X1600319Y92857D01*
X1601684Y93838D01*
X1601715Y93870D01*
X1601768Y93910D01*
X1602942Y95112D01*
X1602967Y95149D01*
X1603012Y95197D01*
X1603959Y96585D01*
X1603977Y96626D01*
X1604013Y96682D01*
X1604705Y98213D01*
X1604716Y98256D01*
X1604742Y98317D01*
X1605157Y99946D01*
X1605160Y99990D01*
X1605175Y100055D01*
X1605301Y101730D01*
X1605297Y101777D01*
X1605299Y101849D01*
X1605094Y103685D01*
X1605080Y103731D01*
X1605068Y103806D01*
X1604508Y105567D01*
X1604485Y105609D01*
X1604459Y105681D01*
X1603566Y107298D01*
X1603536Y107336D01*
X1603496Y107401D01*
X1602305Y108813D01*
X1602268Y108844D01*
X1602216Y108900D01*
X1600772Y110053D01*
X1600730Y110076D01*
X1600668Y110120D01*
X1599027Y110969D01*
X1598981Y110984D01*
X1598912Y111015D01*
X1597137Y111528D01*
X1597089Y111533D01*
X1597014Y111551D01*
X1595174Y111707D01*
X1595130Y111703D01*
X1595065Y111707D01*
X1593234Y111547D01*
X1593188Y111534D01*
X1593112Y111524D01*
X1591348Y111010D01*
X1591304Y110989D01*
X1591232Y110964D01*
X1589602Y110115D01*
X1589564Y110086D01*
X1589498Y110047D01*
X1588065Y108897D01*
X1588033Y108861D01*
X1587976Y108810D01*
X1586795Y107402D01*
X1586771Y107361D01*
X1586725Y107300D01*
X1586515Y106918D01*
X1585841Y105688D01*
X1585826Y105643D01*
X1585792Y105574D01*
X1585240Y103821D01*
X1585234Y103774D01*
X1585214Y103700D01*
X1585015Y101873D01*
X1585018Y101827D01*
X1585012Y101758D01*
X1585135Y100082D01*
X1585146Y100039D01*
X1585152Y99973D01*
X1585564Y98343D01*
X1585582Y98303D01*
X1585600Y98239D01*
X1586288Y96706D01*
X1586313Y96669D01*
X1586342Y96609D01*
X1587286Y95219D01*
X1587317Y95187D01*
X1587355Y95133D01*
X1588526Y93927D01*
X1588563Y93901D01*
X1588610Y93855D01*
X1589972Y92871D01*
X1590013Y92852D01*
X1590067Y92815D01*
X1591580Y92082D01*
X1591623Y92070D01*
X1591634Y92065D01*
X1591661Y92052D01*
X1591666Y92051D01*
X1591683Y92043D01*
X1593300Y91585D01*
X1593345Y91580D01*
X1593409Y91564D01*
X1595081Y91393D01*
X1595129Y91397D01*
X1595208Y91393D01*
X1596880Y91559D01*
G37*
G36*
X1624871Y91559D02*
X1624871Y91559D01*
X1624914Y91571D01*
X1624980Y91580D01*
X1626597Y92034D01*
X1626638Y92053D01*
X1626666Y92062D01*
X1626676Y92064D01*
X1626680Y92066D01*
X1626701Y92073D01*
X1628215Y92801D01*
X1628251Y92827D01*
X1628310Y92857D01*
X1629675Y93838D01*
X1629706Y93870D01*
X1629759Y93910D01*
X1630933Y95112D01*
X1630958Y95149D01*
X1631003Y95197D01*
X1631950Y96585D01*
X1631968Y96626D01*
X1632004Y96682D01*
X1632696Y98213D01*
X1632707Y98256D01*
X1632733Y98317D01*
X1633148Y99946D01*
X1633151Y99990D01*
X1633166Y100055D01*
X1633292Y101730D01*
X1633288Y101777D01*
X1633290Y101849D01*
X1633085Y103685D01*
X1633071Y103731D01*
X1633059Y103806D01*
X1632499Y105567D01*
X1632476Y105609D01*
X1632450Y105681D01*
X1631557Y107298D01*
X1631527Y107336D01*
X1631487Y107401D01*
X1630296Y108813D01*
X1630259Y108844D01*
X1630207Y108900D01*
X1628763Y110053D01*
X1628721Y110076D01*
X1628659Y110120D01*
X1627018Y110969D01*
X1626972Y110984D01*
X1626903Y111015D01*
X1625128Y111528D01*
X1625080Y111533D01*
X1625005Y111551D01*
X1623165Y111707D01*
X1623121Y111703D01*
X1623056Y111707D01*
X1621225Y111547D01*
X1621179Y111534D01*
X1621103Y111524D01*
X1619339Y111010D01*
X1619295Y110989D01*
X1619223Y110964D01*
X1617593Y110115D01*
X1617555Y110086D01*
X1617489Y110047D01*
X1616056Y108897D01*
X1616024Y108861D01*
X1615967Y108810D01*
X1614786Y107402D01*
X1614762Y107361D01*
X1614716Y107300D01*
X1614506Y106918D01*
X1613832Y105688D01*
X1613817Y105643D01*
X1613783Y105574D01*
X1613231Y103821D01*
X1613225Y103774D01*
X1613205Y103700D01*
X1613006Y101873D01*
X1613009Y101827D01*
X1613003Y101758D01*
X1613126Y100082D01*
X1613137Y100039D01*
X1613143Y99973D01*
X1613555Y98343D01*
X1613573Y98303D01*
X1613591Y98239D01*
X1614279Y96706D01*
X1614304Y96669D01*
X1614333Y96609D01*
X1615277Y95219D01*
X1615308Y95187D01*
X1615346Y95133D01*
X1616517Y93927D01*
X1616554Y93901D01*
X1616601Y93855D01*
X1617963Y92871D01*
X1618004Y92852D01*
X1618058Y92815D01*
X1619571Y92082D01*
X1619614Y92070D01*
X1619625Y92065D01*
X1619652Y92052D01*
X1619657Y92051D01*
X1619674Y92043D01*
X1621291Y91585D01*
X1621336Y91580D01*
X1621400Y91564D01*
X1623072Y91393D01*
X1623120Y91397D01*
X1623199Y91393D01*
X1624871Y91559D01*
G37*
G36*
X299947Y523248D02*
X299947Y523248D01*
X300019Y523246D01*
X301855Y523451D01*
X301901Y523465D01*
X301976Y523477D01*
X303737Y524037D01*
X303779Y524060D01*
X303851Y524086D01*
X305468Y524979D01*
X305506Y525009D01*
X305571Y525049D01*
X306983Y526240D01*
X307014Y526277D01*
X307070Y526329D01*
X308223Y527773D01*
X308246Y527815D01*
X308290Y527877D01*
X309139Y529518D01*
X309154Y529564D01*
X309185Y529633D01*
X309698Y531408D01*
X309703Y531456D01*
X309721Y531531D01*
X309877Y533371D01*
X309873Y533415D01*
X309877Y533480D01*
X309717Y535311D01*
X309704Y535357D01*
X309694Y535433D01*
X309180Y537197D01*
X309159Y537241D01*
X309134Y537313D01*
X308285Y538943D01*
X308256Y538981D01*
X308217Y539047D01*
X307067Y540480D01*
X307031Y540512D01*
X306980Y540569D01*
X305572Y541750D01*
X305531Y541774D01*
X305470Y541820D01*
X303858Y542704D01*
X303813Y542719D01*
X303744Y542753D01*
X301991Y543305D01*
X301944Y543311D01*
X301870Y543331D01*
X300043Y543531D01*
X299997Y543527D01*
X299928Y543533D01*
X298252Y543410D01*
X298209Y543399D01*
X298143Y543393D01*
X296513Y542982D01*
X296473Y542963D01*
X296409Y542945D01*
X294876Y542257D01*
X294839Y542232D01*
X294779Y542203D01*
X293389Y541259D01*
X293357Y541228D01*
X293303Y541190D01*
X292097Y540019D01*
X292071Y539983D01*
X292025Y539935D01*
X291041Y538573D01*
X291022Y538532D01*
X290985Y538478D01*
X290252Y536965D01*
X290240Y536922D01*
X290213Y536862D01*
X289755Y535245D01*
X289750Y535200D01*
X289734Y535136D01*
X289563Y533464D01*
X289567Y533416D01*
X289563Y533337D01*
X289729Y531665D01*
X289741Y531622D01*
X289750Y531557D01*
X290204Y529939D01*
X290223Y529898D01*
X290243Y529835D01*
X290971Y528321D01*
X290997Y528285D01*
X291027Y528226D01*
X292008Y526861D01*
X292040Y526830D01*
X292080Y526777D01*
X293282Y525603D01*
X293319Y525578D01*
X293367Y525533D01*
X294755Y524586D01*
X294796Y524568D01*
X294852Y524532D01*
X296383Y523840D01*
X296426Y523829D01*
X296487Y523803D01*
X298116Y523388D01*
X298160Y523385D01*
X298225Y523370D01*
X299900Y523244D01*
X299947Y523248D01*
G37*
G36*
X434567Y523248D02*
X434567Y523248D01*
X434639Y523246D01*
X436475Y523451D01*
X436521Y523465D01*
X436596Y523477D01*
X438357Y524037D01*
X438399Y524060D01*
X438471Y524086D01*
X440088Y524979D01*
X440126Y525009D01*
X440191Y525049D01*
X441603Y526240D01*
X441634Y526277D01*
X441690Y526329D01*
X442843Y527773D01*
X442866Y527815D01*
X442910Y527877D01*
X443759Y529518D01*
X443774Y529564D01*
X443805Y529633D01*
X444318Y531408D01*
X444323Y531456D01*
X444341Y531531D01*
X444497Y533371D01*
X444493Y533415D01*
X444497Y533480D01*
X444337Y535311D01*
X444324Y535357D01*
X444314Y535433D01*
X443800Y537197D01*
X443779Y537241D01*
X443754Y537313D01*
X442905Y538943D01*
X442876Y538981D01*
X442837Y539047D01*
X441687Y540480D01*
X441651Y540512D01*
X441600Y540569D01*
X440192Y541750D01*
X440151Y541774D01*
X440090Y541820D01*
X438478Y542704D01*
X438433Y542719D01*
X438364Y542753D01*
X436611Y543305D01*
X436564Y543311D01*
X436490Y543331D01*
X434663Y543531D01*
X434617Y543527D01*
X434548Y543533D01*
X432872Y543410D01*
X432829Y543399D01*
X432763Y543393D01*
X431133Y542982D01*
X431093Y542963D01*
X431029Y542945D01*
X429496Y542257D01*
X429459Y542232D01*
X429399Y542203D01*
X428009Y541259D01*
X427977Y541228D01*
X427923Y541190D01*
X426717Y540019D01*
X426691Y539983D01*
X426645Y539935D01*
X425661Y538573D01*
X425642Y538532D01*
X425605Y538478D01*
X424872Y536965D01*
X424860Y536922D01*
X424833Y536862D01*
X424375Y535245D01*
X424370Y535200D01*
X424354Y535136D01*
X424183Y533464D01*
X424187Y533416D01*
X424183Y533337D01*
X424349Y531665D01*
X424361Y531622D01*
X424370Y531557D01*
X424824Y529939D01*
X424843Y529898D01*
X424863Y529835D01*
X425591Y528321D01*
X425617Y528285D01*
X425647Y528226D01*
X426628Y526861D01*
X426660Y526830D01*
X426700Y526777D01*
X427902Y525603D01*
X427939Y525578D01*
X427987Y525533D01*
X429375Y524586D01*
X429416Y524568D01*
X429472Y524532D01*
X431003Y523840D01*
X431046Y523829D01*
X431107Y523803D01*
X432736Y523388D01*
X432780Y523385D01*
X432845Y523370D01*
X434520Y523244D01*
X434567Y523248D01*
G37*
G36*
X299947Y497848D02*
X299947Y497848D01*
X300019Y497846D01*
X301855Y498051D01*
X301901Y498065D01*
X301976Y498077D01*
X303737Y498637D01*
X303779Y498660D01*
X303851Y498686D01*
X305468Y499579D01*
X305506Y499609D01*
X305571Y499649D01*
X306983Y500840D01*
X307014Y500877D01*
X307070Y500929D01*
X308223Y502373D01*
X308246Y502415D01*
X308290Y502477D01*
X309139Y504118D01*
X309154Y504164D01*
X309185Y504233D01*
X309698Y506008D01*
X309703Y506056D01*
X309721Y506131D01*
X309877Y507971D01*
X309873Y508015D01*
X309877Y508080D01*
X309717Y509911D01*
X309704Y509957D01*
X309694Y510033D01*
X309180Y511797D01*
X309159Y511841D01*
X309134Y511913D01*
X308285Y513543D01*
X308256Y513581D01*
X308217Y513647D01*
X307067Y515080D01*
X307031Y515112D01*
X306980Y515169D01*
X305572Y516350D01*
X305531Y516374D01*
X305470Y516420D01*
X303858Y517304D01*
X303813Y517319D01*
X303744Y517353D01*
X301991Y517905D01*
X301944Y517911D01*
X301870Y517931D01*
X300043Y518131D01*
X299997Y518127D01*
X299928Y518133D01*
X298252Y518010D01*
X298209Y517999D01*
X298143Y517993D01*
X296513Y517582D01*
X296473Y517563D01*
X296409Y517545D01*
X294876Y516857D01*
X294839Y516832D01*
X294779Y516803D01*
X293389Y515859D01*
X293357Y515828D01*
X293303Y515790D01*
X292097Y514619D01*
X292071Y514583D01*
X292025Y514535D01*
X291041Y513173D01*
X291022Y513132D01*
X290985Y513078D01*
X290252Y511565D01*
X290240Y511522D01*
X290213Y511462D01*
X289755Y509845D01*
X289750Y509800D01*
X289734Y509736D01*
X289563Y508064D01*
X289567Y508016D01*
X289563Y507937D01*
X289729Y506265D01*
X289741Y506222D01*
X289750Y506157D01*
X290204Y504539D01*
X290223Y504498D01*
X290243Y504435D01*
X290971Y502921D01*
X290997Y502885D01*
X291027Y502826D01*
X292008Y501461D01*
X292040Y501430D01*
X292080Y501377D01*
X293282Y500203D01*
X293319Y500178D01*
X293367Y500133D01*
X294755Y499186D01*
X294796Y499168D01*
X294852Y499132D01*
X296383Y498440D01*
X296426Y498429D01*
X296487Y498403D01*
X298116Y497988D01*
X298160Y497985D01*
X298225Y497970D01*
X299900Y497844D01*
X299947Y497848D01*
G37*
G36*
X434567Y497848D02*
X434567Y497848D01*
X434639Y497846D01*
X436475Y498051D01*
X436521Y498065D01*
X436596Y498077D01*
X438357Y498637D01*
X438399Y498660D01*
X438471Y498686D01*
X440088Y499579D01*
X440126Y499609D01*
X440191Y499649D01*
X441603Y500840D01*
X441634Y500877D01*
X441690Y500929D01*
X442843Y502373D01*
X442866Y502415D01*
X442910Y502477D01*
X443759Y504118D01*
X443774Y504164D01*
X443805Y504233D01*
X444318Y506008D01*
X444323Y506056D01*
X444341Y506131D01*
X444497Y507971D01*
X444493Y508015D01*
X444497Y508080D01*
X444337Y509911D01*
X444324Y509957D01*
X444314Y510033D01*
X443800Y511797D01*
X443779Y511841D01*
X443754Y511913D01*
X442905Y513543D01*
X442876Y513581D01*
X442837Y513647D01*
X441687Y515080D01*
X441651Y515112D01*
X441600Y515169D01*
X440192Y516350D01*
X440151Y516374D01*
X440090Y516420D01*
X438478Y517304D01*
X438433Y517319D01*
X438364Y517353D01*
X436611Y517905D01*
X436564Y517911D01*
X436490Y517931D01*
X434663Y518131D01*
X434617Y518127D01*
X434548Y518133D01*
X432872Y518010D01*
X432829Y517999D01*
X432763Y517993D01*
X431133Y517582D01*
X431093Y517563D01*
X431029Y517545D01*
X429496Y516857D01*
X429459Y516832D01*
X429399Y516803D01*
X428009Y515859D01*
X427977Y515828D01*
X427923Y515790D01*
X426717Y514619D01*
X426691Y514583D01*
X426645Y514535D01*
X425661Y513173D01*
X425642Y513132D01*
X425605Y513078D01*
X424872Y511565D01*
X424860Y511522D01*
X424833Y511462D01*
X424375Y509845D01*
X424370Y509800D01*
X424354Y509736D01*
X424183Y508064D01*
X424187Y508016D01*
X424183Y507937D01*
X424349Y506265D01*
X424361Y506222D01*
X424370Y506157D01*
X424824Y504539D01*
X424843Y504498D01*
X424863Y504435D01*
X425591Y502921D01*
X425617Y502885D01*
X425647Y502826D01*
X426628Y501461D01*
X426660Y501430D01*
X426700Y501377D01*
X427902Y500203D01*
X427939Y500178D01*
X427987Y500133D01*
X429375Y499186D01*
X429416Y499168D01*
X429472Y499132D01*
X431003Y498440D01*
X431046Y498429D01*
X431107Y498403D01*
X432736Y497988D01*
X432780Y497985D01*
X432845Y497970D01*
X434520Y497844D01*
X434567Y497848D01*
G37*
G36*
X101777Y466073D02*
X101777Y466073D01*
X101849Y466071D01*
X103685Y466276D01*
X103731Y466290D01*
X103806Y466302D01*
X105567Y466862D01*
X105609Y466885D01*
X105681Y466911D01*
X107298Y467804D01*
X107336Y467834D01*
X107401Y467874D01*
X108813Y469065D01*
X108844Y469102D01*
X108900Y469154D01*
X110053Y470598D01*
X110076Y470640D01*
X110120Y470702D01*
X110969Y472343D01*
X110984Y472389D01*
X111015Y472458D01*
X111528Y474233D01*
X111533Y474281D01*
X111551Y474356D01*
X111707Y476196D01*
X111703Y476240D01*
X111707Y476305D01*
X111547Y478136D01*
X111534Y478182D01*
X111524Y478258D01*
X111010Y480022D01*
X110989Y480066D01*
X110964Y480138D01*
X110115Y481768D01*
X110086Y481806D01*
X110047Y481872D01*
X108897Y483305D01*
X108861Y483337D01*
X108810Y483394D01*
X107402Y484575D01*
X107361Y484599D01*
X107300Y484645D01*
X105688Y485529D01*
X105643Y485544D01*
X105574Y485578D01*
X103821Y486130D01*
X103774Y486136D01*
X103700Y486156D01*
X101873Y486356D01*
X101827Y486352D01*
X101758Y486358D01*
X100082Y486235D01*
X100039Y486224D01*
X99973Y486218D01*
X98343Y485807D01*
X98303Y485788D01*
X98239Y485770D01*
X96706Y485082D01*
X96669Y485057D01*
X96609Y485028D01*
X95219Y484084D01*
X95187Y484053D01*
X95133Y484015D01*
X93927Y482844D01*
X93901Y482808D01*
X93855Y482760D01*
X92871Y481398D01*
X92852Y481357D01*
X92815Y481303D01*
X92082Y479790D01*
X92070Y479747D01*
X92043Y479687D01*
X91585Y478070D01*
X91580Y478025D01*
X91564Y477961D01*
X91393Y476289D01*
X91397Y476241D01*
X91393Y476162D01*
X91559Y474490D01*
X91571Y474447D01*
X91580Y474382D01*
X92034Y472764D01*
X92053Y472723D01*
X92073Y472660D01*
X92801Y471146D01*
X92827Y471110D01*
X92857Y471051D01*
X93838Y469686D01*
X93870Y469655D01*
X93910Y469602D01*
X95112Y468428D01*
X95149Y468403D01*
X95197Y468358D01*
X96585Y467411D01*
X96626Y467393D01*
X96682Y467357D01*
X98213Y466665D01*
X98256Y466654D01*
X98317Y466628D01*
X99946Y466213D01*
X99990Y466210D01*
X100055Y466195D01*
X101730Y466069D01*
X101777Y466073D01*
G37*
G36*
X50977Y466073D02*
X50977Y466073D01*
X51049Y466071D01*
X52885Y466276D01*
X52931Y466290D01*
X53006Y466302D01*
X54767Y466862D01*
X54809Y466885D01*
X54881Y466911D01*
X56498Y467804D01*
X56536Y467834D01*
X56601Y467874D01*
X58013Y469065D01*
X58044Y469102D01*
X58100Y469154D01*
X59253Y470598D01*
X59276Y470640D01*
X59320Y470702D01*
X60169Y472343D01*
X60184Y472389D01*
X60215Y472458D01*
X60728Y474233D01*
X60733Y474281D01*
X60751Y474356D01*
X60907Y476196D01*
X60903Y476240D01*
X60907Y476305D01*
X60747Y478136D01*
X60734Y478182D01*
X60724Y478258D01*
X60210Y480022D01*
X60189Y480066D01*
X60164Y480138D01*
X59315Y481768D01*
X59286Y481806D01*
X59247Y481872D01*
X58097Y483305D01*
X58061Y483337D01*
X58010Y483394D01*
X56602Y484575D01*
X56561Y484599D01*
X56500Y484645D01*
X54888Y485529D01*
X54843Y485544D01*
X54774Y485578D01*
X53021Y486130D01*
X52974Y486136D01*
X52900Y486156D01*
X51073Y486356D01*
X51027Y486352D01*
X50958Y486358D01*
X49282Y486235D01*
X49239Y486224D01*
X49173Y486218D01*
X47543Y485807D01*
X47503Y485788D01*
X47439Y485770D01*
X45906Y485082D01*
X45869Y485057D01*
X45809Y485028D01*
X44419Y484084D01*
X44387Y484053D01*
X44333Y484015D01*
X43127Y482844D01*
X43101Y482808D01*
X43055Y482760D01*
X42071Y481398D01*
X42052Y481357D01*
X42015Y481303D01*
X41282Y479790D01*
X41270Y479747D01*
X41243Y479687D01*
X40785Y478070D01*
X40780Y478025D01*
X40764Y477961D01*
X40593Y476289D01*
X40597Y476241D01*
X40593Y476162D01*
X40759Y474490D01*
X40771Y474447D01*
X40780Y474382D01*
X41234Y472764D01*
X41253Y472723D01*
X41273Y472660D01*
X42001Y471146D01*
X42027Y471110D01*
X42057Y471051D01*
X43038Y469686D01*
X43070Y469655D01*
X43110Y469602D01*
X44312Y468428D01*
X44349Y468403D01*
X44397Y468358D01*
X45785Y467411D01*
X45826Y467393D01*
X45882Y467357D01*
X47413Y466665D01*
X47456Y466654D01*
X47517Y466628D01*
X49146Y466213D01*
X49190Y466210D01*
X49255Y466195D01*
X50930Y466069D01*
X50977Y466073D01*
G37*
G36*
X50977Y438082D02*
X50977Y438082D01*
X51049Y438080D01*
X52885Y438285D01*
X52931Y438299D01*
X53006Y438311D01*
X54767Y438871D01*
X54809Y438894D01*
X54881Y438920D01*
X56498Y439813D01*
X56536Y439843D01*
X56601Y439883D01*
X58013Y441074D01*
X58044Y441111D01*
X58100Y441163D01*
X59253Y442607D01*
X59276Y442649D01*
X59320Y442711D01*
X60169Y444352D01*
X60184Y444398D01*
X60215Y444467D01*
X60728Y446242D01*
X60733Y446290D01*
X60751Y446365D01*
X60907Y448205D01*
X60903Y448249D01*
X60907Y448314D01*
X60747Y450145D01*
X60734Y450191D01*
X60724Y450267D01*
X60210Y452031D01*
X60189Y452075D01*
X60164Y452147D01*
X59315Y453777D01*
X59286Y453815D01*
X59247Y453881D01*
X58097Y455314D01*
X58061Y455346D01*
X58010Y455403D01*
X56602Y456584D01*
X56561Y456608D01*
X56500Y456654D01*
X54888Y457538D01*
X54843Y457553D01*
X54774Y457587D01*
X53021Y458139D01*
X52974Y458145D01*
X52900Y458165D01*
X51073Y458365D01*
X51027Y458361D01*
X50958Y458367D01*
X49282Y458244D01*
X49239Y458233D01*
X49173Y458227D01*
X47543Y457816D01*
X47503Y457797D01*
X47439Y457779D01*
X45906Y457091D01*
X45869Y457066D01*
X45809Y457037D01*
X44419Y456093D01*
X44387Y456062D01*
X44333Y456024D01*
X43127Y454853D01*
X43101Y454817D01*
X43055Y454769D01*
X42071Y453407D01*
X42052Y453366D01*
X42015Y453312D01*
X41282Y451799D01*
X41270Y451756D01*
X41243Y451696D01*
X40785Y450079D01*
X40780Y450034D01*
X40764Y449970D01*
X40593Y448298D01*
X40597Y448250D01*
X40593Y448171D01*
X40759Y446499D01*
X40771Y446456D01*
X40780Y446391D01*
X41234Y444773D01*
X41253Y444732D01*
X41273Y444669D01*
X42001Y443155D01*
X42027Y443119D01*
X42057Y443060D01*
X43038Y441695D01*
X43070Y441664D01*
X43110Y441611D01*
X44312Y440437D01*
X44349Y440412D01*
X44397Y440367D01*
X45785Y439420D01*
X45826Y439402D01*
X45882Y439366D01*
X47413Y438674D01*
X47456Y438663D01*
X47517Y438637D01*
X49146Y438222D01*
X49190Y438219D01*
X49255Y438204D01*
X50930Y438078D01*
X50977Y438082D01*
G37*
G36*
X101777Y438082D02*
X101777Y438082D01*
X101849Y438080D01*
X103685Y438285D01*
X103731Y438299D01*
X103806Y438311D01*
X105567Y438871D01*
X105609Y438894D01*
X105681Y438920D01*
X107298Y439813D01*
X107336Y439843D01*
X107401Y439883D01*
X108813Y441074D01*
X108844Y441111D01*
X108900Y441163D01*
X110053Y442607D01*
X110076Y442649D01*
X110120Y442711D01*
X110969Y444352D01*
X110984Y444398D01*
X111015Y444467D01*
X111528Y446242D01*
X111533Y446290D01*
X111551Y446365D01*
X111707Y448205D01*
X111703Y448249D01*
X111707Y448314D01*
X111547Y450145D01*
X111534Y450191D01*
X111524Y450267D01*
X111010Y452031D01*
X110989Y452075D01*
X110964Y452147D01*
X110115Y453777D01*
X110086Y453815D01*
X110047Y453881D01*
X108897Y455314D01*
X108861Y455346D01*
X108810Y455403D01*
X107402Y456584D01*
X107361Y456608D01*
X107300Y456654D01*
X105688Y457538D01*
X105643Y457553D01*
X105574Y457587D01*
X103821Y458139D01*
X103774Y458145D01*
X103700Y458165D01*
X101873Y458365D01*
X101827Y458361D01*
X101758Y458367D01*
X100082Y458244D01*
X100039Y458233D01*
X99973Y458227D01*
X98343Y457816D01*
X98303Y457797D01*
X98239Y457779D01*
X96706Y457091D01*
X96669Y457066D01*
X96609Y457037D01*
X95219Y456093D01*
X95187Y456062D01*
X95133Y456024D01*
X93927Y454853D01*
X93901Y454817D01*
X93855Y454769D01*
X92871Y453407D01*
X92852Y453366D01*
X92815Y453312D01*
X92082Y451799D01*
X92070Y451756D01*
X92043Y451696D01*
X91585Y450079D01*
X91580Y450034D01*
X91564Y449970D01*
X91393Y448298D01*
X91397Y448250D01*
X91393Y448171D01*
X91559Y446499D01*
X91571Y446456D01*
X91580Y446391D01*
X92034Y444773D01*
X92053Y444732D01*
X92073Y444669D01*
X92801Y443155D01*
X92827Y443119D01*
X92857Y443060D01*
X93838Y441695D01*
X93870Y441664D01*
X93910Y441611D01*
X95112Y440437D01*
X95149Y440412D01*
X95197Y440367D01*
X96585Y439420D01*
X96626Y439402D01*
X96682Y439366D01*
X98213Y438674D01*
X98256Y438663D01*
X98317Y438637D01*
X99946Y438222D01*
X99990Y438219D01*
X100055Y438204D01*
X101730Y438078D01*
X101777Y438082D01*
G37*
G36*
X1220718Y639036D02*
X1220718Y639036D01*
X1220761Y639047D01*
X1220827Y639053D01*
X1222457Y639465D01*
X1222497Y639483D01*
X1222561Y639501D01*
X1224094Y640189D01*
X1224131Y640214D01*
X1224191Y640243D01*
X1225581Y641187D01*
X1225613Y641218D01*
X1225667Y641256D01*
X1226873Y642427D01*
X1226899Y642464D01*
X1226945Y642511D01*
X1227929Y643873D01*
X1227948Y643914D01*
X1227985Y643968D01*
X1228718Y645481D01*
X1228730Y645524D01*
X1228757Y645584D01*
X1229215Y647201D01*
X1229220Y647246D01*
X1229236Y647310D01*
X1229407Y648982D01*
X1229403Y649030D01*
X1229407Y649109D01*
X1229241Y650781D01*
X1229229Y650824D01*
X1229220Y650890D01*
X1228766Y652507D01*
X1228747Y652548D01*
X1228727Y652611D01*
X1227999Y654125D01*
X1227973Y654161D01*
X1227943Y654220D01*
X1226962Y655585D01*
X1226930Y655616D01*
X1226890Y655669D01*
X1225688Y656843D01*
X1225651Y656868D01*
X1225603Y656913D01*
X1224215Y657860D01*
X1224174Y657878D01*
X1224118Y657914D01*
X1222587Y658606D01*
X1222544Y658617D01*
X1222483Y658643D01*
X1220854Y659058D01*
X1220810Y659061D01*
X1220745Y659076D01*
X1219070Y659202D01*
X1219023Y659198D01*
X1218951Y659200D01*
X1217116Y658995D01*
X1217069Y658981D01*
X1216994Y658969D01*
X1215233Y658409D01*
X1215191Y658386D01*
X1215119Y658360D01*
X1213502Y657467D01*
X1213464Y657437D01*
X1213399Y657397D01*
X1211987Y656206D01*
X1211956Y656169D01*
X1211900Y656117D01*
X1210747Y654673D01*
X1210725Y654631D01*
X1210680Y654569D01*
X1209831Y652928D01*
X1209817Y652882D01*
X1209785Y652813D01*
X1209272Y651038D01*
X1209267Y650990D01*
X1209250Y650915D01*
X1209093Y649075D01*
X1209097Y649031D01*
X1209093Y648966D01*
X1209253Y647135D01*
X1209266Y647089D01*
X1209274Y647028D01*
X1209274Y647026D01*
X1209276Y647013D01*
X1209790Y645249D01*
X1209811Y645205D01*
X1209836Y645133D01*
X1210685Y643503D01*
X1210714Y643465D01*
X1210753Y643399D01*
X1211903Y641966D01*
X1211939Y641934D01*
X1211990Y641877D01*
X1213398Y640696D01*
X1213439Y640672D01*
X1213500Y640626D01*
X1215112Y639742D01*
X1215157Y639727D01*
X1215226Y639693D01*
X1216979Y639141D01*
X1217026Y639135D01*
X1217100Y639115D01*
X1218927Y638916D01*
X1218973Y638919D01*
X1219042Y638913D01*
X1220718Y639036D01*
G37*
G36*
X839718Y639036D02*
X839718Y639036D01*
X839761Y639047D01*
X839827Y639053D01*
X841457Y639465D01*
X841497Y639483D01*
X841561Y639501D01*
X843094Y640189D01*
X843131Y640214D01*
X843191Y640243D01*
X844581Y641187D01*
X844613Y641218D01*
X844667Y641256D01*
X845873Y642427D01*
X845899Y642464D01*
X845945Y642511D01*
X846929Y643873D01*
X846948Y643914D01*
X846985Y643968D01*
X847718Y645481D01*
X847730Y645524D01*
X847757Y645584D01*
X848215Y647201D01*
X848220Y647246D01*
X848236Y647310D01*
X848407Y648982D01*
X848403Y649030D01*
X848407Y649109D01*
X848241Y650781D01*
X848229Y650824D01*
X848220Y650890D01*
X847766Y652507D01*
X847747Y652548D01*
X847727Y652611D01*
X846999Y654125D01*
X846973Y654161D01*
X846943Y654220D01*
X845962Y655585D01*
X845930Y655616D01*
X845890Y655669D01*
X844688Y656843D01*
X844651Y656868D01*
X844603Y656913D01*
X843215Y657860D01*
X843174Y657878D01*
X843118Y657914D01*
X841587Y658606D01*
X841544Y658617D01*
X841483Y658643D01*
X839854Y659058D01*
X839810Y659061D01*
X839745Y659076D01*
X838070Y659202D01*
X838023Y659198D01*
X837951Y659200D01*
X836116Y658995D01*
X836069Y658981D01*
X835994Y658969D01*
X834233Y658409D01*
X834191Y658386D01*
X834119Y658360D01*
X832502Y657467D01*
X832464Y657437D01*
X832399Y657397D01*
X830987Y656206D01*
X830956Y656169D01*
X830900Y656117D01*
X829747Y654673D01*
X829725Y654631D01*
X829680Y654569D01*
X828831Y652928D01*
X828817Y652882D01*
X828785Y652813D01*
X828272Y651038D01*
X828267Y650990D01*
X828250Y650915D01*
X828093Y649075D01*
X828097Y649031D01*
X828093Y648966D01*
X828253Y647135D01*
X828266Y647089D01*
X828274Y647028D01*
X828274Y647026D01*
X828276Y647013D01*
X828790Y645249D01*
X828811Y645205D01*
X828836Y645133D01*
X829685Y643503D01*
X829714Y643465D01*
X829753Y643399D01*
X830903Y641966D01*
X830939Y641934D01*
X830990Y641877D01*
X832398Y640696D01*
X832439Y640672D01*
X832500Y640626D01*
X834112Y639742D01*
X834157Y639727D01*
X834226Y639693D01*
X835979Y639141D01*
X836026Y639135D01*
X836100Y639115D01*
X837927Y638916D01*
X837973Y638919D01*
X838042Y638913D01*
X839718Y639036D01*
G37*
G36*
X1220718Y611045D02*
X1220718Y611045D01*
X1220761Y611056D01*
X1220827Y611062D01*
X1222457Y611474D01*
X1222497Y611492D01*
X1222561Y611510D01*
X1224094Y612198D01*
X1224131Y612223D01*
X1224191Y612252D01*
X1225581Y613196D01*
X1225613Y613227D01*
X1225667Y613265D01*
X1226873Y614436D01*
X1226899Y614473D01*
X1226945Y614520D01*
X1227929Y615882D01*
X1227948Y615923D01*
X1227985Y615977D01*
X1228718Y617490D01*
X1228730Y617533D01*
X1228757Y617593D01*
X1229215Y619210D01*
X1229220Y619255D01*
X1229236Y619319D01*
X1229407Y620991D01*
X1229403Y621039D01*
X1229407Y621118D01*
X1229241Y622790D01*
X1229229Y622833D01*
X1229220Y622899D01*
X1228766Y624516D01*
X1228747Y624557D01*
X1228727Y624620D01*
X1227999Y626134D01*
X1227973Y626170D01*
X1227943Y626229D01*
X1226962Y627594D01*
X1226930Y627625D01*
X1226890Y627678D01*
X1225688Y628852D01*
X1225651Y628877D01*
X1225603Y628922D01*
X1224215Y629869D01*
X1224174Y629887D01*
X1224118Y629923D01*
X1222587Y630615D01*
X1222544Y630626D01*
X1222483Y630652D01*
X1220854Y631067D01*
X1220810Y631070D01*
X1220745Y631085D01*
X1219070Y631211D01*
X1219023Y631207D01*
X1218951Y631209D01*
X1217116Y631004D01*
X1217069Y630990D01*
X1216994Y630978D01*
X1215233Y630418D01*
X1215191Y630395D01*
X1215119Y630369D01*
X1213502Y629476D01*
X1213464Y629446D01*
X1213399Y629406D01*
X1211987Y628215D01*
X1211956Y628178D01*
X1211900Y628126D01*
X1210747Y626682D01*
X1210725Y626640D01*
X1210680Y626578D01*
X1209831Y624937D01*
X1209817Y624891D01*
X1209785Y624822D01*
X1209272Y623047D01*
X1209267Y622999D01*
X1209250Y622924D01*
X1209093Y621084D01*
X1209097Y621040D01*
X1209093Y620975D01*
X1209253Y619144D01*
X1209266Y619098D01*
X1209274Y619037D01*
X1209274Y619035D01*
X1209276Y619022D01*
X1209790Y617258D01*
X1209811Y617214D01*
X1209836Y617142D01*
X1210685Y615512D01*
X1210714Y615474D01*
X1210753Y615408D01*
X1211903Y613975D01*
X1211939Y613943D01*
X1211990Y613886D01*
X1213398Y612705D01*
X1213439Y612681D01*
X1213500Y612635D01*
X1215112Y611751D01*
X1215157Y611736D01*
X1215226Y611702D01*
X1216979Y611150D01*
X1217026Y611144D01*
X1217100Y611124D01*
X1218927Y610925D01*
X1218973Y610928D01*
X1219042Y610922D01*
X1220718Y611045D01*
G37*
G36*
X839718Y611045D02*
X839718Y611045D01*
X839761Y611056D01*
X839827Y611062D01*
X841457Y611474D01*
X841497Y611492D01*
X841561Y611510D01*
X843094Y612198D01*
X843131Y612223D01*
X843191Y612252D01*
X844581Y613196D01*
X844613Y613227D01*
X844667Y613265D01*
X845873Y614436D01*
X845899Y614473D01*
X845945Y614520D01*
X846929Y615882D01*
X846948Y615923D01*
X846985Y615977D01*
X847718Y617490D01*
X847730Y617533D01*
X847757Y617593D01*
X848215Y619210D01*
X848220Y619255D01*
X848236Y619319D01*
X848407Y620991D01*
X848403Y621039D01*
X848407Y621118D01*
X848241Y622790D01*
X848229Y622833D01*
X848220Y622899D01*
X847766Y624516D01*
X847747Y624557D01*
X847727Y624620D01*
X846999Y626134D01*
X846973Y626170D01*
X846943Y626229D01*
X845962Y627594D01*
X845930Y627625D01*
X845890Y627678D01*
X844688Y628852D01*
X844651Y628877D01*
X844603Y628922D01*
X843215Y629869D01*
X843174Y629887D01*
X843118Y629923D01*
X841587Y630615D01*
X841544Y630626D01*
X841483Y630652D01*
X839854Y631067D01*
X839810Y631070D01*
X839745Y631085D01*
X838070Y631211D01*
X838023Y631207D01*
X837951Y631209D01*
X836116Y631004D01*
X836069Y630990D01*
X835994Y630978D01*
X834233Y630418D01*
X834191Y630395D01*
X834119Y630369D01*
X832502Y629476D01*
X832464Y629446D01*
X832399Y629406D01*
X830987Y628215D01*
X830956Y628178D01*
X830900Y628126D01*
X829747Y626682D01*
X829725Y626640D01*
X829680Y626578D01*
X828831Y624937D01*
X828817Y624891D01*
X828785Y624822D01*
X828272Y623047D01*
X828267Y622999D01*
X828250Y622924D01*
X828093Y621084D01*
X828097Y621040D01*
X828093Y620975D01*
X828253Y619144D01*
X828266Y619098D01*
X828274Y619037D01*
X828274Y619035D01*
X828276Y619022D01*
X828790Y617258D01*
X828811Y617214D01*
X828836Y617142D01*
X829685Y615512D01*
X829714Y615474D01*
X829753Y615408D01*
X830903Y613975D01*
X830939Y613943D01*
X830990Y613886D01*
X832398Y612705D01*
X832439Y612681D01*
X832500Y612635D01*
X834112Y611751D01*
X834157Y611736D01*
X834226Y611702D01*
X835979Y611150D01*
X836026Y611144D01*
X836100Y611124D01*
X837927Y610925D01*
X837973Y610928D01*
X838042Y610922D01*
X839718Y611045D01*
G37*
G36*
X433318Y37056D02*
X433318Y37056D01*
X433361Y37067D01*
X433427Y37073D01*
X435057Y37485D01*
X435097Y37503D01*
X435161Y37521D01*
X436694Y38209D01*
X436731Y38234D01*
X436791Y38263D01*
X438181Y39207D01*
X438213Y39238D01*
X438267Y39276D01*
X439473Y40447D01*
X439499Y40484D01*
X439545Y40531D01*
X440529Y41893D01*
X440548Y41934D01*
X440585Y41988D01*
X441318Y43501D01*
X441330Y43544D01*
X441357Y43604D01*
X441815Y45221D01*
X441820Y45266D01*
X441836Y45330D01*
X442007Y47002D01*
X442003Y47050D01*
X442007Y47129D01*
X441841Y48801D01*
X441829Y48844D01*
X441820Y48910D01*
X441366Y50527D01*
X441347Y50568D01*
X441327Y50631D01*
X440599Y52145D01*
X440573Y52181D01*
X440543Y52240D01*
X439562Y53605D01*
X439530Y53636D01*
X439490Y53689D01*
X438288Y54863D01*
X438251Y54888D01*
X438203Y54933D01*
X436815Y55880D01*
X436774Y55898D01*
X436718Y55934D01*
X435187Y56626D01*
X435144Y56637D01*
X435083Y56663D01*
X433454Y57078D01*
X433410Y57081D01*
X433345Y57096D01*
X431670Y57222D01*
X431623Y57218D01*
X431551Y57220D01*
X429716Y57015D01*
X429669Y57001D01*
X429594Y56989D01*
X427833Y56429D01*
X427791Y56406D01*
X427719Y56380D01*
X426102Y55487D01*
X426064Y55457D01*
X425999Y55417D01*
X424587Y54226D01*
X424556Y54189D01*
X424500Y54137D01*
X423347Y52693D01*
X423325Y52651D01*
X423280Y52589D01*
X422431Y50948D01*
X422417Y50902D01*
X422385Y50833D01*
X421872Y49058D01*
X421867Y49010D01*
X421850Y48935D01*
X421693Y47095D01*
X421697Y47051D01*
X421693Y46986D01*
X421853Y45155D01*
X421866Y45109D01*
X421874Y45048D01*
X421874Y45046D01*
X421876Y45033D01*
X422390Y43269D01*
X422411Y43225D01*
X422436Y43153D01*
X423285Y41523D01*
X423314Y41485D01*
X423353Y41419D01*
X424503Y39986D01*
X424539Y39954D01*
X424590Y39897D01*
X425998Y38716D01*
X426039Y38692D01*
X426100Y38646D01*
X427712Y37762D01*
X427757Y37747D01*
X427826Y37713D01*
X429579Y37161D01*
X429626Y37155D01*
X429700Y37135D01*
X431527Y36936D01*
X431573Y36939D01*
X431642Y36933D01*
X433318Y37056D01*
G37*
G36*
X1208018Y37056D02*
X1208018Y37056D01*
X1208061Y37067D01*
X1208127Y37073D01*
X1209757Y37485D01*
X1209797Y37503D01*
X1209861Y37521D01*
X1211394Y38209D01*
X1211431Y38234D01*
X1211491Y38263D01*
X1212881Y39207D01*
X1212913Y39238D01*
X1212967Y39276D01*
X1214173Y40447D01*
X1214199Y40484D01*
X1214245Y40531D01*
X1215229Y41893D01*
X1215248Y41934D01*
X1215285Y41988D01*
X1216018Y43501D01*
X1216030Y43544D01*
X1216057Y43604D01*
X1216515Y45221D01*
X1216520Y45266D01*
X1216536Y45330D01*
X1216707Y47002D01*
X1216703Y47050D01*
X1216707Y47129D01*
X1216541Y48801D01*
X1216529Y48844D01*
X1216520Y48910D01*
X1216066Y50527D01*
X1216047Y50568D01*
X1216027Y50631D01*
X1215299Y52145D01*
X1215273Y52181D01*
X1215243Y52240D01*
X1214262Y53605D01*
X1214230Y53636D01*
X1214190Y53689D01*
X1212988Y54863D01*
X1212951Y54888D01*
X1212903Y54933D01*
X1211515Y55880D01*
X1211474Y55898D01*
X1211418Y55934D01*
X1209887Y56626D01*
X1209844Y56637D01*
X1209783Y56663D01*
X1208154Y57078D01*
X1208110Y57081D01*
X1208045Y57096D01*
X1206370Y57222D01*
X1206323Y57218D01*
X1206251Y57220D01*
X1204416Y57015D01*
X1204369Y57001D01*
X1204294Y56989D01*
X1202533Y56429D01*
X1202491Y56406D01*
X1202419Y56380D01*
X1200802Y55487D01*
X1200764Y55457D01*
X1200699Y55417D01*
X1199287Y54226D01*
X1199256Y54189D01*
X1199200Y54137D01*
X1198047Y52693D01*
X1198025Y52651D01*
X1197980Y52589D01*
X1197131Y50948D01*
X1197117Y50902D01*
X1197085Y50833D01*
X1196572Y49058D01*
X1196567Y49010D01*
X1196550Y48935D01*
X1196393Y47095D01*
X1196397Y47051D01*
X1196393Y46986D01*
X1196553Y45155D01*
X1196566Y45109D01*
X1196574Y45048D01*
X1196574Y45046D01*
X1196576Y45033D01*
X1197090Y43269D01*
X1197111Y43225D01*
X1197136Y43153D01*
X1197985Y41523D01*
X1198014Y41485D01*
X1198053Y41419D01*
X1199203Y39986D01*
X1199239Y39954D01*
X1199290Y39897D01*
X1200698Y38716D01*
X1200739Y38692D01*
X1200800Y38646D01*
X1202412Y37762D01*
X1202457Y37747D01*
X1202526Y37713D01*
X1204279Y37161D01*
X1204326Y37155D01*
X1204400Y37135D01*
X1206227Y36936D01*
X1206273Y36939D01*
X1206342Y36933D01*
X1208018Y37056D01*
G37*
G36*
X827018Y35786D02*
X827018Y35786D01*
X827061Y35797D01*
X827127Y35803D01*
X828757Y36215D01*
X828797Y36233D01*
X828861Y36251D01*
X830394Y36939D01*
X830431Y36964D01*
X830491Y36993D01*
X831881Y37937D01*
X831913Y37968D01*
X831967Y38006D01*
X833173Y39177D01*
X833199Y39214D01*
X833245Y39261D01*
X834229Y40623D01*
X834248Y40664D01*
X834285Y40718D01*
X835018Y42231D01*
X835030Y42274D01*
X835057Y42334D01*
X835515Y43951D01*
X835520Y43996D01*
X835536Y44060D01*
X835707Y45732D01*
X835703Y45780D01*
X835707Y45859D01*
X835541Y47531D01*
X835529Y47574D01*
X835520Y47640D01*
X835066Y49257D01*
X835047Y49298D01*
X835027Y49361D01*
X834299Y50875D01*
X834273Y50911D01*
X834243Y50970D01*
X833262Y52335D01*
X833230Y52366D01*
X833190Y52419D01*
X831988Y53593D01*
X831951Y53618D01*
X831903Y53663D01*
X830515Y54610D01*
X830474Y54628D01*
X830418Y54664D01*
X828887Y55356D01*
X828844Y55367D01*
X828783Y55393D01*
X827154Y55808D01*
X827110Y55811D01*
X827045Y55826D01*
X825370Y55952D01*
X825323Y55948D01*
X825251Y55950D01*
X823416Y55745D01*
X823369Y55731D01*
X823294Y55719D01*
X821533Y55159D01*
X821491Y55136D01*
X821419Y55110D01*
X819802Y54217D01*
X819764Y54187D01*
X819699Y54147D01*
X818287Y52956D01*
X818256Y52919D01*
X818200Y52867D01*
X817047Y51423D01*
X817025Y51381D01*
X816980Y51319D01*
X816131Y49678D01*
X816117Y49632D01*
X816085Y49563D01*
X815572Y47788D01*
X815567Y47740D01*
X815550Y47665D01*
X815393Y45825D01*
X815397Y45781D01*
X815393Y45716D01*
X815553Y43885D01*
X815566Y43839D01*
X815574Y43778D01*
X815574Y43776D01*
X815576Y43763D01*
X816090Y41999D01*
X816111Y41955D01*
X816136Y41883D01*
X816985Y40253D01*
X817014Y40215D01*
X817053Y40149D01*
X818203Y38716D01*
X818239Y38684D01*
X818290Y38627D01*
X819698Y37446D01*
X819739Y37422D01*
X819800Y37376D01*
X821412Y36492D01*
X821457Y36477D01*
X821526Y36443D01*
X823279Y35891D01*
X823326Y35885D01*
X823400Y35865D01*
X825227Y35666D01*
X825273Y35669D01*
X825342Y35663D01*
X827018Y35786D01*
G37*
G36*
X1208018Y9065D02*
X1208018Y9065D01*
X1208061Y9076D01*
X1208127Y9082D01*
X1209757Y9494D01*
X1209797Y9512D01*
X1209861Y9530D01*
X1211394Y10218D01*
X1211431Y10243D01*
X1211491Y10272D01*
X1212881Y11216D01*
X1212913Y11247D01*
X1212967Y11285D01*
X1214173Y12456D01*
X1214199Y12493D01*
X1214245Y12540D01*
X1215229Y13902D01*
X1215248Y13943D01*
X1215285Y13997D01*
X1216018Y15510D01*
X1216030Y15553D01*
X1216057Y15613D01*
X1216515Y17230D01*
X1216520Y17275D01*
X1216536Y17339D01*
X1216707Y19011D01*
X1216703Y19059D01*
X1216707Y19138D01*
X1216541Y20810D01*
X1216529Y20853D01*
X1216520Y20919D01*
X1216066Y22536D01*
X1216047Y22577D01*
X1216027Y22640D01*
X1215299Y24154D01*
X1215273Y24190D01*
X1215243Y24249D01*
X1214262Y25614D01*
X1214230Y25645D01*
X1214190Y25698D01*
X1212988Y26872D01*
X1212951Y26897D01*
X1212903Y26942D01*
X1211515Y27889D01*
X1211474Y27907D01*
X1211418Y27943D01*
X1209887Y28635D01*
X1209844Y28646D01*
X1209783Y28672D01*
X1208154Y29087D01*
X1208110Y29090D01*
X1208045Y29105D01*
X1206370Y29231D01*
X1206323Y29227D01*
X1206251Y29229D01*
X1204416Y29024D01*
X1204369Y29010D01*
X1204294Y28998D01*
X1202533Y28438D01*
X1202491Y28415D01*
X1202419Y28389D01*
X1200802Y27496D01*
X1200764Y27466D01*
X1200699Y27426D01*
X1199287Y26235D01*
X1199256Y26198D01*
X1199200Y26146D01*
X1198047Y24702D01*
X1198025Y24660D01*
X1197980Y24598D01*
X1197131Y22957D01*
X1197117Y22911D01*
X1197085Y22842D01*
X1196572Y21067D01*
X1196567Y21019D01*
X1196550Y20944D01*
X1196393Y19104D01*
X1196397Y19060D01*
X1196393Y18995D01*
X1196553Y17164D01*
X1196566Y17118D01*
X1196574Y17057D01*
X1196574Y17055D01*
X1196576Y17042D01*
X1197090Y15278D01*
X1197111Y15234D01*
X1197136Y15162D01*
X1197985Y13532D01*
X1198014Y13494D01*
X1198053Y13428D01*
X1199203Y11995D01*
X1199239Y11963D01*
X1199290Y11906D01*
X1200698Y10725D01*
X1200739Y10701D01*
X1200800Y10655D01*
X1202412Y9771D01*
X1202457Y9756D01*
X1202526Y9722D01*
X1204279Y9170D01*
X1204326Y9164D01*
X1204400Y9144D01*
X1206227Y8945D01*
X1206273Y8948D01*
X1206342Y8942D01*
X1208018Y9065D01*
G37*
G36*
X433318Y9065D02*
X433318Y9065D01*
X433361Y9076D01*
X433427Y9082D01*
X435057Y9494D01*
X435097Y9512D01*
X435161Y9530D01*
X436694Y10218D01*
X436731Y10243D01*
X436791Y10272D01*
X438181Y11216D01*
X438213Y11247D01*
X438267Y11285D01*
X439473Y12456D01*
X439499Y12493D01*
X439545Y12540D01*
X440529Y13902D01*
X440548Y13943D01*
X440585Y13997D01*
X441318Y15510D01*
X441330Y15553D01*
X441357Y15613D01*
X441815Y17230D01*
X441820Y17275D01*
X441836Y17339D01*
X442007Y19011D01*
X442003Y19059D01*
X442007Y19138D01*
X441841Y20810D01*
X441829Y20853D01*
X441820Y20919D01*
X441366Y22536D01*
X441347Y22577D01*
X441327Y22640D01*
X440599Y24154D01*
X440573Y24190D01*
X440543Y24249D01*
X439562Y25614D01*
X439530Y25645D01*
X439490Y25698D01*
X438288Y26872D01*
X438251Y26897D01*
X438203Y26942D01*
X436815Y27889D01*
X436774Y27907D01*
X436718Y27943D01*
X435187Y28635D01*
X435144Y28646D01*
X435083Y28672D01*
X433454Y29087D01*
X433410Y29090D01*
X433345Y29105D01*
X431670Y29231D01*
X431623Y29227D01*
X431551Y29229D01*
X429716Y29024D01*
X429669Y29010D01*
X429594Y28998D01*
X427833Y28438D01*
X427791Y28415D01*
X427719Y28389D01*
X426102Y27496D01*
X426064Y27466D01*
X425999Y27426D01*
X424587Y26235D01*
X424556Y26198D01*
X424500Y26146D01*
X423347Y24702D01*
X423325Y24660D01*
X423280Y24598D01*
X422431Y22957D01*
X422417Y22911D01*
X422385Y22842D01*
X421872Y21067D01*
X421867Y21019D01*
X421850Y20944D01*
X421693Y19104D01*
X421697Y19060D01*
X421693Y18995D01*
X421853Y17164D01*
X421866Y17118D01*
X421874Y17057D01*
X421874Y17055D01*
X421876Y17042D01*
X422390Y15278D01*
X422411Y15234D01*
X422436Y15162D01*
X423285Y13532D01*
X423314Y13494D01*
X423353Y13428D01*
X424503Y11995D01*
X424539Y11963D01*
X424590Y11906D01*
X425998Y10725D01*
X426039Y10701D01*
X426100Y10655D01*
X427712Y9771D01*
X427757Y9756D01*
X427826Y9722D01*
X429579Y9170D01*
X429626Y9164D01*
X429700Y9144D01*
X431527Y8945D01*
X431573Y8948D01*
X431642Y8942D01*
X433318Y9065D01*
G37*
G36*
X827018Y7795D02*
X827018Y7795D01*
X827061Y7806D01*
X827127Y7812D01*
X828757Y8224D01*
X828797Y8242D01*
X828861Y8260D01*
X830394Y8948D01*
X830431Y8973D01*
X830491Y9002D01*
X831881Y9946D01*
X831913Y9977D01*
X831967Y10015D01*
X833173Y11186D01*
X833199Y11223D01*
X833245Y11270D01*
X834229Y12632D01*
X834248Y12673D01*
X834285Y12727D01*
X835018Y14240D01*
X835030Y14283D01*
X835057Y14343D01*
X835515Y15960D01*
X835520Y16005D01*
X835536Y16069D01*
X835707Y17741D01*
X835703Y17789D01*
X835707Y17868D01*
X835541Y19540D01*
X835529Y19583D01*
X835520Y19649D01*
X835066Y21266D01*
X835047Y21307D01*
X835027Y21370D01*
X834299Y22884D01*
X834273Y22920D01*
X834243Y22979D01*
X833262Y24344D01*
X833230Y24375D01*
X833190Y24428D01*
X831988Y25602D01*
X831951Y25627D01*
X831903Y25672D01*
X830515Y26619D01*
X830474Y26637D01*
X830418Y26673D01*
X828887Y27365D01*
X828844Y27376D01*
X828783Y27402D01*
X827154Y27817D01*
X827110Y27820D01*
X827045Y27835D01*
X825370Y27961D01*
X825323Y27957D01*
X825251Y27959D01*
X823416Y27754D01*
X823369Y27740D01*
X823294Y27728D01*
X821533Y27168D01*
X821491Y27145D01*
X821419Y27119D01*
X819802Y26226D01*
X819764Y26196D01*
X819699Y26156D01*
X818287Y24965D01*
X818256Y24928D01*
X818200Y24876D01*
X817047Y23432D01*
X817025Y23390D01*
X816980Y23328D01*
X816131Y21687D01*
X816117Y21641D01*
X816085Y21572D01*
X815572Y19797D01*
X815567Y19749D01*
X815550Y19674D01*
X815393Y17834D01*
X815397Y17790D01*
X815393Y17725D01*
X815553Y15894D01*
X815566Y15848D01*
X815574Y15787D01*
X815574Y15785D01*
X815576Y15772D01*
X816090Y14008D01*
X816111Y13964D01*
X816136Y13892D01*
X816985Y12262D01*
X817014Y12224D01*
X817053Y12158D01*
X818203Y10725D01*
X818239Y10693D01*
X818290Y10636D01*
X819698Y9455D01*
X819739Y9431D01*
X819800Y9385D01*
X821412Y8501D01*
X821457Y8486D01*
X821526Y8452D01*
X823279Y7900D01*
X823326Y7894D01*
X823400Y7874D01*
X825227Y7675D01*
X825273Y7678D01*
X825342Y7672D01*
X827018Y7795D01*
G37*
D10*
X98900Y88900D03*
X38900Y88900D03*
X68900Y41900D03*
D11*
X532880Y391160D03*
X467880Y391160D03*
D12*
X396240Y574040D03*
X472440Y574040D03*
X259080Y574040D03*
X335280Y574040D03*
X368300Y574040D03*
X368300Y497840D03*
X228600Y574040D03*
X228600Y497840D03*
X741680Y576580D03*
X741680Y500380D03*
X673100Y576580D03*
X673100Y500380D03*
X601980Y576580D03*
X601980Y500380D03*
X530860Y576580D03*
X530860Y500380D03*
X401828Y652526D03*
X466852Y652526D03*
X401828Y607314D03*
X466852Y607314D03*
X264668Y652526D03*
X329692Y652526D03*
X264668Y607314D03*
X329692Y607314D03*
X1155700Y342900D03*
X1130300Y342900D03*
X1104900Y342900D03*
X1079500Y342900D03*
X1054100Y342900D03*
X1028700Y342900D03*
X1003300Y342900D03*
X977900Y342900D03*
X952500Y342900D03*
X927100Y342900D03*
X901700Y342900D03*
X876300Y342900D03*
X1155700Y393700D03*
X1155700Y419100D03*
X1155700Y444500D03*
X1155700Y469900D03*
D13*
X889000Y635000D03*
X1143000Y635000D03*
D12*
X1104900Y647700D03*
X1079500Y647700D03*
X1054100Y647700D03*
X1028700Y647700D03*
X1003300Y647700D03*
X977900Y647700D03*
X952500Y647700D03*
X927100Y647700D03*
X1536700Y342900D03*
X1511300Y342900D03*
X1485900Y342900D03*
X1460500Y342900D03*
X1435100Y342900D03*
X1409700Y342900D03*
X1384300Y342900D03*
X1358900Y342900D03*
X1333500Y342900D03*
X1308100Y342900D03*
X1282700Y342900D03*
X1257300Y342900D03*
X1536700Y393700D03*
X1536700Y419100D03*
X1536700Y444500D03*
X1536700Y469900D03*
D13*
X1270000Y635000D03*
X1524000Y635000D03*
D12*
X1485900Y647700D03*
X1460500Y647700D03*
X1435100Y647700D03*
X1409700Y647700D03*
X1384300Y647700D03*
X1358900Y647700D03*
X1333500Y647700D03*
X1308100Y647700D03*
X264795Y45720D03*
X264795Y20320D03*
X264795Y71120D03*
X264795Y96520D03*
X395605Y96520D03*
X395605Y71120D03*
X395605Y45720D03*
X395605Y20320D03*
X467995Y45720D03*
X467995Y20320D03*
X467995Y71120D03*
X467995Y96520D03*
X598805Y96520D03*
X598805Y71120D03*
X598805Y45720D03*
X598805Y20320D03*
X658495Y44450D03*
X658495Y19050D03*
X658495Y69850D03*
X658495Y95250D03*
X789305Y95250D03*
X789305Y69850D03*
X789305Y44450D03*
X789305Y19050D03*
X862965Y44450D03*
X862965Y19050D03*
X862965Y69850D03*
X862965Y95250D03*
X993775Y95250D03*
X993775Y69850D03*
X993775Y44450D03*
X993775Y19050D03*
X1044575Y45720D03*
X1044575Y20320D03*
X1044575Y71120D03*
X1044575Y96520D03*
X1175385Y96520D03*
X1175385Y71120D03*
X1175385Y45720D03*
X1175385Y20320D03*
X1238885Y45720D03*
X1238885Y20320D03*
X1238885Y71120D03*
X1238885Y96520D03*
X1369695Y96520D03*
X1369695Y71120D03*
X1369695Y45720D03*
X1369695Y20320D03*
X1421765Y45720D03*
X1421765Y20320D03*
X1421765Y71120D03*
X1421765Y96520D03*
X1552575Y96520D03*
X1552575Y71120D03*
X1552575Y45720D03*
X1552575Y20320D03*
X76200Y261620D03*
X101600Y261620D03*
X127000Y261620D03*
X152400Y261620D03*
X381000Y312420D03*
X101600Y414020D03*
X177800Y261620D03*
X203200Y261620D03*
X228600Y261620D03*
X254000Y261620D03*
X279400Y261620D03*
X304800Y261620D03*
X330200Y261620D03*
X355600Y261620D03*
X381000Y261620D03*
X381000Y414020D03*
X355600Y414020D03*
X330200Y414020D03*
X304800Y414020D03*
X279400Y414020D03*
X254000Y414020D03*
X228600Y414020D03*
X203200Y414020D03*
X177800Y414020D03*
X152400Y414020D03*
X127000Y414020D03*
X381000Y388620D03*
X76200Y414020D03*
X381000Y337820D03*
X50800Y261620D03*
X381000Y363220D03*
X381000Y287020D03*
X50800Y414020D03*
D10*
X111600Y584200D03*
X51600Y584200D03*
X81600Y537200D03*
D12*
X419100Y457200D03*
X419100Y381000D03*
D14*
X190500Y622300D03*
X1600200Y622300D03*
X1600200Y38100D03*
X190500Y38100D03*
D15*
X777240Y629920D03*
D16*
X742240Y629920D03*
X707240Y629920D03*
X672240Y629920D03*
X637240Y629920D03*
X602240Y629920D03*
X567240Y629920D03*
X532240Y629920D03*
D12*
X1628140Y482600D03*
X1625600Y556260D03*
X1616710Y140970D03*
X1616710Y166370D03*
X1616710Y191770D03*
X1616710Y217170D03*
X1616710Y242570D03*
X1616710Y267970D03*
X1616710Y293370D03*
D17*
X1477010Y280670D03*
X1477010Y153670D03*
M02*
