G04 #@! TF.GenerationSoftware,KiCad,Pcbnew,(5.1.6-0-10_14)*
G04 #@! TF.CreationDate,2020-07-23T15:18:02-04:00*
G04 #@! TF.ProjectId,Pufferfish-Interface-2,50756666-6572-4666-9973-682d496e7465,rev?*
G04 #@! TF.SameCoordinates,Original*
G04 #@! TF.FileFunction,Legend,Top*
G04 #@! TF.FilePolarity,Positive*
%FSLAX46Y46*%
G04 Gerber Fmt 4.6, Leading zero omitted, Abs format (unit mm)*
G04 Created by KiCad (PCBNEW (5.1.6-0-10_14)) date 2020-07-23 15:18:02*
%MOMM*%
%LPD*%
G01*
G04 APERTURE LIST*
%ADD10C,0.300000*%
%ADD11C,0.203200*%
%ADD12C,0.120000*%
%ADD13C,0.150000*%
G04 APERTURE END LIST*
D10*
X61549483Y-34778117D02*
X60279483Y-34778117D01*
X60279483Y-34206688D01*
X60339960Y-34063831D01*
X60400436Y-33992402D01*
X60521388Y-33920974D01*
X60702817Y-33920974D01*
X60823769Y-33992402D01*
X60884245Y-34063831D01*
X60944721Y-34206688D01*
X60944721Y-34778117D01*
X61489007Y-32706688D02*
X61549483Y-32849545D01*
X61549483Y-33135260D01*
X61489007Y-33278117D01*
X61368055Y-33349545D01*
X60884245Y-33349545D01*
X60763293Y-33278117D01*
X60702817Y-33135260D01*
X60702817Y-32849545D01*
X60763293Y-32706688D01*
X60884245Y-32635260D01*
X61005198Y-32635260D01*
X61126150Y-33349545D01*
X60702817Y-32135260D02*
X60702817Y-31349545D01*
X61549483Y-32135260D01*
X61549483Y-31349545D01*
X60339960Y-28849545D02*
X60279483Y-28992402D01*
X60279483Y-29206688D01*
X60339960Y-29420974D01*
X60460912Y-29563831D01*
X60581864Y-29635260D01*
X60823769Y-29706688D01*
X61005198Y-29706688D01*
X61247102Y-29635260D01*
X61368055Y-29563831D01*
X61489007Y-29420974D01*
X61549483Y-29206688D01*
X61549483Y-29063831D01*
X61489007Y-28849545D01*
X61428531Y-28778117D01*
X61005198Y-28778117D01*
X61005198Y-29063831D01*
X61549483Y-27920974D02*
X61489007Y-28063831D01*
X61368055Y-28135260D01*
X60279483Y-28135260D01*
X61549483Y-27135260D02*
X61489007Y-27278117D01*
X61428531Y-27349545D01*
X61307579Y-27420974D01*
X60944721Y-27420974D01*
X60823769Y-27349545D01*
X60763293Y-27278117D01*
X60702817Y-27135260D01*
X60702817Y-26920974D01*
X60763293Y-26778117D01*
X60823769Y-26706688D01*
X60944721Y-26635260D01*
X61307579Y-26635260D01*
X61428531Y-26706688D01*
X61489007Y-26778117D01*
X61549483Y-26920974D01*
X61549483Y-27135260D01*
X61549483Y-25992402D02*
X60279483Y-25992402D01*
X60763293Y-25992402D02*
X60702817Y-25849545D01*
X60702817Y-25563831D01*
X60763293Y-25420974D01*
X60823769Y-25349545D01*
X60944721Y-25278117D01*
X61307579Y-25278117D01*
X61428531Y-25349545D01*
X61489007Y-25420974D01*
X61549483Y-25563831D01*
X61549483Y-25849545D01*
X61489007Y-25992402D01*
X61549483Y-24420974D02*
X61489007Y-24563831D01*
X61428531Y-24635260D01*
X61307579Y-24706688D01*
X60944721Y-24706688D01*
X60823769Y-24635260D01*
X60763293Y-24563831D01*
X60702817Y-24420974D01*
X60702817Y-24206688D01*
X60763293Y-24063831D01*
X60823769Y-23992402D01*
X60944721Y-23920974D01*
X61307579Y-23920974D01*
X61428531Y-23992402D01*
X61489007Y-24063831D01*
X61549483Y-24206688D01*
X61549483Y-24420974D01*
X63754483Y-39670974D02*
X62484483Y-39670974D01*
X62907817Y-38956688D02*
X63754483Y-38956688D01*
X63028769Y-38956688D02*
X62968293Y-38885260D01*
X62907817Y-38742402D01*
X62907817Y-38528117D01*
X62968293Y-38385260D01*
X63089245Y-38313831D01*
X63754483Y-38313831D01*
X62907817Y-37813831D02*
X62907817Y-37242402D01*
X62484483Y-37599545D02*
X63573055Y-37599545D01*
X63694007Y-37528117D01*
X63754483Y-37385260D01*
X63754483Y-37242402D01*
X63694007Y-36170974D02*
X63754483Y-36313831D01*
X63754483Y-36599545D01*
X63694007Y-36742402D01*
X63573055Y-36813831D01*
X63089245Y-36813831D01*
X62968293Y-36742402D01*
X62907817Y-36599545D01*
X62907817Y-36313831D01*
X62968293Y-36170974D01*
X63089245Y-36099545D01*
X63210198Y-36099545D01*
X63331150Y-36813831D01*
X63754483Y-35456688D02*
X62907817Y-35456688D01*
X63149721Y-35456688D02*
X63028769Y-35385260D01*
X62968293Y-35313831D01*
X62907817Y-35170974D01*
X62907817Y-35028117D01*
X62907817Y-34742402D02*
X62907817Y-34170974D01*
X63754483Y-34528117D02*
X62665912Y-34528117D01*
X62544960Y-34456688D01*
X62484483Y-34313831D01*
X62484483Y-34170974D01*
X63754483Y-33028117D02*
X63089245Y-33028117D01*
X62968293Y-33099545D01*
X62907817Y-33242402D01*
X62907817Y-33528117D01*
X62968293Y-33670974D01*
X63694007Y-33028117D02*
X63754483Y-33170974D01*
X63754483Y-33528117D01*
X63694007Y-33670974D01*
X63573055Y-33742402D01*
X63452102Y-33742402D01*
X63331150Y-33670974D01*
X63270674Y-33528117D01*
X63270674Y-33170974D01*
X63210198Y-33028117D01*
X63694007Y-31670974D02*
X63754483Y-31813831D01*
X63754483Y-32099545D01*
X63694007Y-32242402D01*
X63633531Y-32313831D01*
X63512579Y-32385260D01*
X63149721Y-32385260D01*
X63028769Y-32313831D01*
X62968293Y-32242402D01*
X62907817Y-32099545D01*
X62907817Y-31813831D01*
X62968293Y-31670974D01*
X63694007Y-30456688D02*
X63754483Y-30599545D01*
X63754483Y-30885260D01*
X63694007Y-31028117D01*
X63573055Y-31099545D01*
X63089245Y-31099545D01*
X62968293Y-31028117D01*
X62907817Y-30885260D01*
X62907817Y-30599545D01*
X62968293Y-30456688D01*
X63089245Y-30385260D01*
X63210198Y-30385260D01*
X63331150Y-31099545D01*
X63089245Y-28099545D02*
X63149721Y-27885260D01*
X63210198Y-27813831D01*
X63331150Y-27742402D01*
X63512579Y-27742402D01*
X63633531Y-27813831D01*
X63694007Y-27885260D01*
X63754483Y-28028117D01*
X63754483Y-28599545D01*
X62484483Y-28599545D01*
X62484483Y-28099545D01*
X62544960Y-27956688D01*
X62605436Y-27885260D01*
X62726388Y-27813831D01*
X62847340Y-27813831D01*
X62968293Y-27885260D01*
X63028769Y-27956688D01*
X63089245Y-28099545D01*
X63089245Y-28599545D01*
X63754483Y-26885260D02*
X63694007Y-27028117D01*
X63633531Y-27099545D01*
X63512579Y-27170974D01*
X63149721Y-27170974D01*
X63028769Y-27099545D01*
X62968293Y-27028117D01*
X62907817Y-26885260D01*
X62907817Y-26670974D01*
X62968293Y-26528117D01*
X63028769Y-26456688D01*
X63149721Y-26385260D01*
X63512579Y-26385260D01*
X63633531Y-26456688D01*
X63694007Y-26528117D01*
X63754483Y-26670974D01*
X63754483Y-26885260D01*
X63754483Y-25099545D02*
X63089245Y-25099545D01*
X62968293Y-25170974D01*
X62907817Y-25313831D01*
X62907817Y-25599545D01*
X62968293Y-25742402D01*
X63694007Y-25099545D02*
X63754483Y-25242402D01*
X63754483Y-25599545D01*
X63694007Y-25742402D01*
X63573055Y-25813831D01*
X63452102Y-25813831D01*
X63331150Y-25742402D01*
X63270674Y-25599545D01*
X63270674Y-25242402D01*
X63210198Y-25099545D01*
X63754483Y-24385260D02*
X62907817Y-24385260D01*
X63149721Y-24385260D02*
X63028769Y-24313831D01*
X62968293Y-24242402D01*
X62907817Y-24099545D01*
X62907817Y-23956688D01*
X63754483Y-22813831D02*
X62484483Y-22813831D01*
X63694007Y-22813831D02*
X63754483Y-22956688D01*
X63754483Y-23242402D01*
X63694007Y-23385260D01*
X63633531Y-23456688D01*
X63512579Y-23528117D01*
X63149721Y-23528117D01*
X63028769Y-23456688D01*
X62968293Y-23385260D01*
X62907817Y-23242402D01*
X62907817Y-22956688D01*
X62968293Y-22813831D01*
X62907817Y-21099545D02*
X63754483Y-20742402D01*
X62907817Y-20385260D01*
X62605436Y-19885260D02*
X62544960Y-19813831D01*
X62484483Y-19670974D01*
X62484483Y-19313831D01*
X62544960Y-19170974D01*
X62605436Y-19099545D01*
X62726388Y-19028117D01*
X62847340Y-19028117D01*
X63028769Y-19099545D01*
X63754483Y-19956688D01*
X63754483Y-19028117D01*
X65959483Y-44206688D02*
X65899007Y-44349545D01*
X65778055Y-44420974D01*
X64689483Y-44420974D01*
X65959483Y-42992402D02*
X65294245Y-42992402D01*
X65173293Y-43063831D01*
X65112817Y-43206688D01*
X65112817Y-43492402D01*
X65173293Y-43635260D01*
X65899007Y-42992402D02*
X65959483Y-43135260D01*
X65959483Y-43492402D01*
X65899007Y-43635260D01*
X65778055Y-43706688D01*
X65657102Y-43706688D01*
X65536150Y-43635260D01*
X65475674Y-43492402D01*
X65475674Y-43135260D01*
X65415198Y-42992402D01*
X65112817Y-41635260D02*
X65959483Y-41635260D01*
X65112817Y-42278117D02*
X65778055Y-42278117D01*
X65899007Y-42206688D01*
X65959483Y-42063831D01*
X65959483Y-41849545D01*
X65899007Y-41706688D01*
X65838531Y-41635260D01*
X65959483Y-40920974D02*
X65112817Y-40920974D01*
X65354721Y-40920974D02*
X65233769Y-40849545D01*
X65173293Y-40778117D01*
X65112817Y-40635260D01*
X65112817Y-40492402D01*
X65899007Y-39420974D02*
X65959483Y-39563831D01*
X65959483Y-39849545D01*
X65899007Y-39992402D01*
X65778055Y-40063831D01*
X65294245Y-40063831D01*
X65173293Y-39992402D01*
X65112817Y-39849545D01*
X65112817Y-39563831D01*
X65173293Y-39420974D01*
X65294245Y-39349545D01*
X65415198Y-39349545D01*
X65536150Y-40063831D01*
X65112817Y-38706688D02*
X65959483Y-38706688D01*
X65233769Y-38706688D02*
X65173293Y-38635260D01*
X65112817Y-38492402D01*
X65112817Y-38278117D01*
X65173293Y-38135260D01*
X65294245Y-38063831D01*
X65959483Y-38063831D01*
X65959483Y-36706688D02*
X65294245Y-36706688D01*
X65173293Y-36778117D01*
X65112817Y-36920974D01*
X65112817Y-37206688D01*
X65173293Y-37349545D01*
X65899007Y-36706688D02*
X65959483Y-36849545D01*
X65959483Y-37206688D01*
X65899007Y-37349545D01*
X65778055Y-37420974D01*
X65657102Y-37420974D01*
X65536150Y-37349545D01*
X65475674Y-37206688D01*
X65475674Y-36849545D01*
X65415198Y-36706688D01*
X65959483Y-35349545D02*
X64689483Y-35349545D01*
X65899007Y-35349545D02*
X65959483Y-35492402D01*
X65959483Y-35778117D01*
X65899007Y-35920974D01*
X65838531Y-35992402D01*
X65717579Y-36063831D01*
X65354721Y-36063831D01*
X65233769Y-35992402D01*
X65173293Y-35920974D01*
X65112817Y-35778117D01*
X65112817Y-35492402D01*
X65173293Y-35349545D01*
X65959483Y-33992402D02*
X65294245Y-33992402D01*
X65173293Y-34063831D01*
X65112817Y-34206688D01*
X65112817Y-34492402D01*
X65173293Y-34635260D01*
X65899007Y-33992402D02*
X65959483Y-34135260D01*
X65959483Y-34492402D01*
X65899007Y-34635260D01*
X65778055Y-34706688D01*
X65657102Y-34706688D01*
X65536150Y-34635260D01*
X65475674Y-34492402D01*
X65475674Y-34135260D01*
X65415198Y-33992402D01*
X65899007Y-32635260D02*
X65959483Y-32778117D01*
X65959483Y-33063831D01*
X65899007Y-33206688D01*
X65838531Y-33278117D01*
X65717579Y-33349545D01*
X65354721Y-33349545D01*
X65233769Y-33278117D01*
X65173293Y-33206688D01*
X65112817Y-33063831D01*
X65112817Y-32778117D01*
X65173293Y-32635260D01*
X65959483Y-31992402D02*
X64689483Y-31992402D01*
X65959483Y-31349545D02*
X65294245Y-31349545D01*
X65173293Y-31420974D01*
X65112817Y-31563831D01*
X65112817Y-31778117D01*
X65173293Y-31920974D01*
X65233769Y-31992402D01*
X65959483Y-30635260D02*
X65112817Y-30635260D01*
X64689483Y-30635260D02*
X64749960Y-30706688D01*
X64810436Y-30635260D01*
X64749960Y-30563831D01*
X64689483Y-30635260D01*
X64810436Y-30635260D01*
X66443293Y-28349545D02*
X66382817Y-28420974D01*
X66201388Y-28563831D01*
X66080436Y-28635260D01*
X65899007Y-28706688D01*
X65596626Y-28778117D01*
X65354721Y-28778117D01*
X65052340Y-28706688D01*
X64870912Y-28635260D01*
X64749960Y-28563831D01*
X64568531Y-28420974D01*
X64508055Y-28349545D01*
X64810436Y-27849545D02*
X64749960Y-27778117D01*
X64689483Y-27635260D01*
X64689483Y-27278117D01*
X64749960Y-27135260D01*
X64810436Y-27063831D01*
X64931388Y-26992402D01*
X65052340Y-26992402D01*
X65233769Y-27063831D01*
X65959483Y-27920974D01*
X65959483Y-26992402D01*
X64689483Y-26063831D02*
X64689483Y-25920974D01*
X64749960Y-25778117D01*
X64810436Y-25706688D01*
X64931388Y-25635260D01*
X65173293Y-25563831D01*
X65475674Y-25563831D01*
X65717579Y-25635260D01*
X65838531Y-25706688D01*
X65899007Y-25778117D01*
X65959483Y-25920974D01*
X65959483Y-26063831D01*
X65899007Y-26206688D01*
X65838531Y-26278117D01*
X65717579Y-26349545D01*
X65475674Y-26420974D01*
X65173293Y-26420974D01*
X64931388Y-26349545D01*
X64810436Y-26278117D01*
X64749960Y-26206688D01*
X64689483Y-26063831D01*
X64810436Y-24992402D02*
X64749960Y-24920974D01*
X64689483Y-24778117D01*
X64689483Y-24420974D01*
X64749960Y-24278117D01*
X64810436Y-24206688D01*
X64931388Y-24135260D01*
X65052340Y-24135260D01*
X65233769Y-24206688D01*
X65959483Y-25063831D01*
X65959483Y-24135260D01*
X64689483Y-23206688D02*
X64689483Y-23063831D01*
X64749960Y-22920974D01*
X64810436Y-22849545D01*
X64931388Y-22778117D01*
X65173293Y-22706688D01*
X65475674Y-22706688D01*
X65717579Y-22778117D01*
X65838531Y-22849545D01*
X65899007Y-22920974D01*
X65959483Y-23063831D01*
X65959483Y-23206688D01*
X65899007Y-23349545D01*
X65838531Y-23420974D01*
X65717579Y-23492402D01*
X65475674Y-23563831D01*
X65173293Y-23563831D01*
X64931388Y-23492402D01*
X64810436Y-23420974D01*
X64749960Y-23349545D01*
X64689483Y-23206688D01*
X64629007Y-20992402D02*
X66261864Y-22278117D01*
X64689483Y-20635260D02*
X64689483Y-19635260D01*
X65959483Y-20278117D01*
X64629007Y-17992402D02*
X66261864Y-19278117D01*
X65959483Y-16706688D02*
X65959483Y-17563831D01*
X65959483Y-17135260D02*
X64689483Y-17135260D01*
X64870912Y-17278117D01*
X64991864Y-17420974D01*
X65052340Y-17563831D01*
X64689483Y-15420974D02*
X64689483Y-15706688D01*
X64749960Y-15849545D01*
X64810436Y-15920974D01*
X64991864Y-16063831D01*
X65233769Y-16135260D01*
X65717579Y-16135260D01*
X65838531Y-16063831D01*
X65899007Y-15992402D01*
X65959483Y-15849545D01*
X65959483Y-15563831D01*
X65899007Y-15420974D01*
X65838531Y-15349545D01*
X65717579Y-15278117D01*
X65415198Y-15278117D01*
X65294245Y-15349545D01*
X65233769Y-15420974D01*
X65173293Y-15563831D01*
X65173293Y-15849545D01*
X65233769Y-15992402D01*
X65294245Y-16063831D01*
X65415198Y-16135260D01*
X66443293Y-14778117D02*
X66382817Y-14706688D01*
X66201388Y-14563831D01*
X66080436Y-14492402D01*
X65899007Y-14420974D01*
X65596626Y-14349545D01*
X65354721Y-14349545D01*
X65052340Y-14420974D01*
X64870912Y-14492402D01*
X64749960Y-14563831D01*
X64568531Y-14706688D01*
X64508055Y-14778117D01*
D11*
X27502000Y-39370000D02*
G75*
G03*
X27502000Y-39370000I-11500000J0D01*
G01*
D12*
X50873922Y-20626000D02*
X51391078Y-20626000D01*
X50873922Y-22046000D02*
X51391078Y-22046000D01*
X45461422Y-20626000D02*
X45978578Y-20626000D01*
X45461422Y-22046000D02*
X45978578Y-22046000D01*
X40381422Y-22046000D02*
X40898578Y-22046000D01*
X40381422Y-20626000D02*
X40898578Y-20626000D01*
X34539422Y-22300000D02*
X35056578Y-22300000D01*
X34539422Y-20880000D02*
X35056578Y-20880000D01*
X56050922Y-22046000D02*
X56568078Y-22046000D01*
X56050922Y-20626000D02*
X56568078Y-20626000D01*
X21682000Y-52124000D02*
X21682000Y-55064000D01*
X21922000Y-52124000D02*
X21922000Y-55064000D01*
X21802000Y-52124000D02*
X21802000Y-55064000D01*
X27362000Y-53594000D02*
X26342000Y-53594000D01*
X19882000Y-53594000D02*
X20902000Y-53594000D01*
X26342000Y-52124000D02*
X20902000Y-52124000D01*
X26342000Y-55064000D02*
X26342000Y-52124000D01*
X20902000Y-55064000D02*
X26342000Y-55064000D01*
X20902000Y-52124000D02*
X20902000Y-55064000D01*
X1070000Y-34978000D02*
X4010000Y-34978000D01*
X4010000Y-34978000D02*
X4010000Y-29538000D01*
X4010000Y-29538000D02*
X1070000Y-29538000D01*
X1070000Y-29538000D02*
X1070000Y-34978000D01*
X2540000Y-35998000D02*
X2540000Y-34978000D01*
X2540000Y-28518000D02*
X2540000Y-29538000D01*
X1070000Y-34078000D02*
X4010000Y-34078000D01*
X1070000Y-33958000D02*
X4010000Y-33958000D01*
X1070000Y-34198000D02*
X4010000Y-34198000D01*
X31752000Y-32202000D02*
X33212000Y-32202000D01*
X31752000Y-35362000D02*
X33912000Y-35362000D01*
X31752000Y-35362000D02*
X31752000Y-34432000D01*
X31752000Y-32202000D02*
X31752000Y-33132000D01*
X38356000Y-32202000D02*
X38356000Y-33132000D01*
X38356000Y-35362000D02*
X38356000Y-34432000D01*
X38356000Y-35362000D02*
X40516000Y-35362000D01*
X38356000Y-32202000D02*
X39816000Y-32202000D01*
X44960000Y-32202000D02*
X46420000Y-32202000D01*
X44960000Y-35362000D02*
X47120000Y-35362000D01*
X44960000Y-35362000D02*
X44960000Y-34432000D01*
X44960000Y-32202000D02*
X44960000Y-33132000D01*
X51818000Y-32202000D02*
X51818000Y-33132000D01*
X51818000Y-35362000D02*
X51818000Y-34432000D01*
X51818000Y-35362000D02*
X53978000Y-35362000D01*
X51818000Y-32202000D02*
X53278000Y-32202000D01*
X38352000Y-54920000D02*
X36892000Y-54920000D01*
X38352000Y-51760000D02*
X36192000Y-51760000D01*
X38352000Y-51760000D02*
X38352000Y-52690000D01*
X38352000Y-54920000D02*
X38352000Y-53990000D01*
X4320000Y-20518000D02*
X5780000Y-20518000D01*
X4320000Y-23678000D02*
X6480000Y-23678000D01*
X4320000Y-23678000D02*
X4320000Y-22748000D01*
X4320000Y-20518000D02*
X4320000Y-21448000D01*
X4320000Y-16708000D02*
X4320000Y-17638000D01*
X4320000Y-19868000D02*
X4320000Y-18938000D01*
X4320000Y-19868000D02*
X6480000Y-19868000D01*
X4320000Y-16708000D02*
X5780000Y-16708000D01*
X4320000Y-12898000D02*
X4320000Y-13828000D01*
X4320000Y-16058000D02*
X4320000Y-15128000D01*
X4320000Y-16058000D02*
X6480000Y-16058000D01*
X4320000Y-12898000D02*
X5780000Y-12898000D01*
X35104000Y-34040578D02*
X35104000Y-33523422D01*
X36524000Y-34040578D02*
X36524000Y-33523422D01*
X42874000Y-34040578D02*
X42874000Y-33523422D01*
X41454000Y-34040578D02*
X41454000Y-33523422D01*
X48058000Y-34040578D02*
X48058000Y-33523422D01*
X49478000Y-34040578D02*
X49478000Y-33523422D01*
X56590000Y-34040578D02*
X56590000Y-33523422D01*
X55170000Y-34040578D02*
X55170000Y-33523422D01*
X32692078Y-30024000D02*
X32174922Y-30024000D01*
X32692078Y-31444000D02*
X32174922Y-31444000D01*
X39374578Y-31444000D02*
X38857422Y-31444000D01*
X39374578Y-30024000D02*
X38857422Y-30024000D01*
X46057078Y-30024000D02*
X45539922Y-30024000D01*
X46057078Y-31444000D02*
X45539922Y-31444000D01*
X52836578Y-31444000D02*
X52319422Y-31444000D01*
X52836578Y-30024000D02*
X52319422Y-30024000D01*
X33278578Y-51614000D02*
X32761422Y-51614000D01*
X33278578Y-53034000D02*
X32761422Y-53034000D01*
X8942000Y-23372578D02*
X8942000Y-22855422D01*
X10362000Y-23372578D02*
X10362000Y-22855422D01*
X10362000Y-19308578D02*
X10362000Y-18791422D01*
X8942000Y-19308578D02*
X8942000Y-18791422D01*
X8942000Y-15244578D02*
X8942000Y-14727422D01*
X10362000Y-15244578D02*
X10362000Y-14727422D01*
X24944000Y-14140922D02*
X24944000Y-14658078D01*
X26364000Y-14140922D02*
X26364000Y-14658078D01*
X23824000Y-14043922D02*
X23824000Y-14561078D01*
X22404000Y-14043922D02*
X22404000Y-14561078D01*
X19864000Y-13965422D02*
X19864000Y-14482578D01*
X21284000Y-13965422D02*
X21284000Y-14482578D01*
X18490000Y-13965422D02*
X18490000Y-14482578D01*
X17070000Y-13965422D02*
X17070000Y-14482578D01*
X50873922Y-16966000D02*
X51391078Y-16966000D01*
X50873922Y-15546000D02*
X51391078Y-15546000D01*
X45461422Y-16966000D02*
X45978578Y-16966000D01*
X45461422Y-15546000D02*
X45978578Y-15546000D01*
X40302922Y-15546000D02*
X40820078Y-15546000D01*
X40302922Y-16966000D02*
X40820078Y-16966000D01*
X34363922Y-16308000D02*
X34881078Y-16308000D01*
X34363922Y-17728000D02*
X34881078Y-17728000D01*
X51488078Y-18086000D02*
X50970922Y-18086000D01*
X51488078Y-19506000D02*
X50970922Y-19506000D01*
X45978578Y-19506000D02*
X45461422Y-19506000D01*
X45978578Y-18086000D02*
X45461422Y-18086000D01*
X40898578Y-18086000D02*
X40381422Y-18086000D01*
X40898578Y-19506000D02*
X40381422Y-19506000D01*
X35056578Y-18594000D02*
X34539422Y-18594000D01*
X35056578Y-20014000D02*
X34539422Y-20014000D01*
X56129422Y-15546000D02*
X56646578Y-15546000D01*
X56129422Y-16966000D02*
X56646578Y-16966000D01*
X56646578Y-18086000D02*
X56129422Y-18086000D01*
X56646578Y-19506000D02*
X56129422Y-19506000D01*
X16331000Y-25112000D02*
X16331000Y-26802000D01*
X16126000Y-25112000D02*
X16331000Y-25112000D01*
X16126000Y-22352000D02*
X16126000Y-25112000D01*
X16126000Y-19592000D02*
X16331000Y-19592000D01*
X16126000Y-22352000D02*
X16126000Y-19592000D01*
X26546000Y-25112000D02*
X26341000Y-25112000D01*
X26546000Y-22352000D02*
X26546000Y-25112000D01*
X26546000Y-19592000D02*
X26341000Y-19592000D01*
X26546000Y-22352000D02*
X26546000Y-19592000D01*
D13*
X62672055Y-2398400D02*
X62672055Y-1398400D01*
X62672055Y-1874591D02*
X63243483Y-1874591D01*
X63243483Y-2398400D02*
X63243483Y-1398400D01*
X64148245Y-1731734D02*
X64148245Y-2398400D01*
X63910150Y-1350781D02*
X63672055Y-2065067D01*
X64291102Y-2065067D01*
X-4724304Y-2502540D02*
X-4724304Y-1502540D01*
X-4724304Y-1978731D02*
X-4152876Y-1978731D01*
X-4152876Y-2502540D02*
X-4152876Y-1502540D01*
X-3248114Y-1835874D02*
X-3248114Y-2502540D01*
X-3486209Y-1454921D02*
X-3724304Y-2169207D01*
X-3105257Y-2169207D01*
X62702535Y-47026200D02*
X62702535Y-46026200D01*
X62702535Y-46502391D02*
X63273963Y-46502391D01*
X63273963Y-47026200D02*
X63273963Y-46026200D01*
X64178725Y-46359534D02*
X64178725Y-47026200D01*
X63940630Y-45978581D02*
X63702535Y-46692867D01*
X64321582Y-46692867D01*
X-4650644Y-47023660D02*
X-4650644Y-46023660D01*
X-4650644Y-46499851D02*
X-4079216Y-46499851D01*
X-4079216Y-47023660D02*
X-4079216Y-46023660D01*
X-3174454Y-46356994D02*
X-3174454Y-47023660D01*
X-3412549Y-45976041D02*
X-3650644Y-46690327D01*
X-3031597Y-46690327D01*
X9213767Y-51604871D02*
X9356624Y-51652490D01*
X9404243Y-51700109D01*
X9451862Y-51795347D01*
X9451862Y-51938204D01*
X9404243Y-52033442D01*
X9356624Y-52081061D01*
X9261386Y-52128680D01*
X8880434Y-52128680D01*
X8880434Y-51128680D01*
X9213767Y-51128680D01*
X9309005Y-51176300D01*
X9356624Y-51223919D01*
X9404243Y-51319157D01*
X9404243Y-51414395D01*
X9356624Y-51509633D01*
X9309005Y-51557252D01*
X9213767Y-51604871D01*
X8880434Y-51604871D01*
X9880434Y-51128680D02*
X9880434Y-51938204D01*
X9928053Y-52033442D01*
X9975672Y-52081061D01*
X10070910Y-52128680D01*
X10261386Y-52128680D01*
X10356624Y-52081061D01*
X10404243Y-52033442D01*
X10451862Y-51938204D01*
X10451862Y-51128680D01*
X10832815Y-51128680D02*
X11499481Y-51128680D01*
X10832815Y-52128680D01*
X11499481Y-52128680D01*
X11785196Y-51128680D02*
X12451862Y-51128680D01*
X11785196Y-52128680D01*
X12451862Y-52128680D01*
X13356624Y-52128680D02*
X12785196Y-52128680D01*
X13070910Y-52128680D02*
X13070910Y-51128680D01*
X12975672Y-51271538D01*
X12880434Y-51366776D01*
X12785196Y-51414395D01*
X49043862Y-21601726D02*
X49091481Y-21649345D01*
X49139100Y-21792202D01*
X49139100Y-21887440D01*
X49091481Y-22030298D01*
X48996243Y-22125536D01*
X48901005Y-22173155D01*
X48710529Y-22220774D01*
X48567672Y-22220774D01*
X48377196Y-22173155D01*
X48281958Y-22125536D01*
X48186720Y-22030298D01*
X48139100Y-21887440D01*
X48139100Y-21792202D01*
X48186720Y-21649345D01*
X48234339Y-21601726D01*
X49139100Y-20649345D02*
X49139100Y-21220774D01*
X49139100Y-20935060D02*
X48139100Y-20935060D01*
X48281958Y-21030298D01*
X48377196Y-21125536D01*
X48424815Y-21220774D01*
X43595562Y-20816866D02*
X43643181Y-20864485D01*
X43690800Y-21007342D01*
X43690800Y-21102580D01*
X43643181Y-21245438D01*
X43547943Y-21340676D01*
X43452705Y-21388295D01*
X43262229Y-21435914D01*
X43119372Y-21435914D01*
X42928896Y-21388295D01*
X42833658Y-21340676D01*
X42738420Y-21245438D01*
X42690800Y-21102580D01*
X42690800Y-21007342D01*
X42738420Y-20864485D01*
X42786039Y-20816866D01*
X42786039Y-20435914D02*
X42738420Y-20388295D01*
X42690800Y-20293057D01*
X42690800Y-20054961D01*
X42738420Y-19959723D01*
X42786039Y-19912104D01*
X42881277Y-19864485D01*
X42976515Y-19864485D01*
X43119372Y-19912104D01*
X43690800Y-20483533D01*
X43690800Y-19864485D01*
X38505402Y-21246126D02*
X38553021Y-21293745D01*
X38600640Y-21436602D01*
X38600640Y-21531840D01*
X38553021Y-21674698D01*
X38457783Y-21769936D01*
X38362545Y-21817555D01*
X38172069Y-21865174D01*
X38029212Y-21865174D01*
X37838736Y-21817555D01*
X37743498Y-21769936D01*
X37648260Y-21674698D01*
X37600640Y-21531840D01*
X37600640Y-21436602D01*
X37648260Y-21293745D01*
X37695879Y-21246126D01*
X37600640Y-20912793D02*
X37600640Y-20293745D01*
X37981593Y-20627079D01*
X37981593Y-20484221D01*
X38029212Y-20388983D01*
X38076831Y-20341364D01*
X38172069Y-20293745D01*
X38410164Y-20293745D01*
X38505402Y-20341364D01*
X38553021Y-20388983D01*
X38600640Y-20484221D01*
X38600640Y-20769936D01*
X38553021Y-20865174D01*
X38505402Y-20912793D01*
X30859433Y-21634722D02*
X30811814Y-21682341D01*
X30668957Y-21729960D01*
X30573719Y-21729960D01*
X30430861Y-21682341D01*
X30335623Y-21587103D01*
X30288004Y-21491865D01*
X30240385Y-21301389D01*
X30240385Y-21158532D01*
X30288004Y-20968056D01*
X30335623Y-20872818D01*
X30430861Y-20777580D01*
X30573719Y-20729960D01*
X30668957Y-20729960D01*
X30811814Y-20777580D01*
X30859433Y-20825199D01*
X31716576Y-21063294D02*
X31716576Y-21729960D01*
X31478480Y-20682341D02*
X31240385Y-21396627D01*
X31859433Y-21396627D01*
X54334682Y-21550926D02*
X54382301Y-21598545D01*
X54429920Y-21741402D01*
X54429920Y-21836640D01*
X54382301Y-21979498D01*
X54287063Y-22074736D01*
X54191825Y-22122355D01*
X54001349Y-22169974D01*
X53858492Y-22169974D01*
X53668016Y-22122355D01*
X53572778Y-22074736D01*
X53477540Y-21979498D01*
X53429920Y-21836640D01*
X53429920Y-21741402D01*
X53477540Y-21598545D01*
X53525159Y-21550926D01*
X53429920Y-20646164D02*
X53429920Y-21122355D01*
X53906111Y-21169974D01*
X53858492Y-21122355D01*
X53810873Y-21027117D01*
X53810873Y-20789021D01*
X53858492Y-20693783D01*
X53906111Y-20646164D01*
X54001349Y-20598545D01*
X54239444Y-20598545D01*
X54334682Y-20646164D01*
X54382301Y-20693783D01*
X54429920Y-20789021D01*
X54429920Y-21027117D01*
X54382301Y-21122355D01*
X54334682Y-21169974D01*
X22883904Y-51576380D02*
X22883904Y-50576380D01*
X23122000Y-50576380D01*
X23264857Y-50624000D01*
X23360095Y-50719238D01*
X23407714Y-50814476D01*
X23455333Y-51004952D01*
X23455333Y-51147809D01*
X23407714Y-51338285D01*
X23360095Y-51433523D01*
X23264857Y-51528761D01*
X23122000Y-51576380D01*
X22883904Y-51576380D01*
X24407714Y-51576380D02*
X23836285Y-51576380D01*
X24122000Y-51576380D02*
X24122000Y-50576380D01*
X24026761Y-50719238D01*
X23931523Y-50814476D01*
X23836285Y-50862095D01*
X15724855Y-54595020D02*
X15724855Y-53595020D01*
X16296283Y-54595020D02*
X15867712Y-54023592D01*
X16296283Y-53595020D02*
X15724855Y-54166449D01*
X5613660Y-32785275D02*
X4613660Y-32785275D01*
X4613660Y-32547180D01*
X4661280Y-32404322D01*
X4756518Y-32309084D01*
X4851756Y-32261465D01*
X5042232Y-32213846D01*
X5185089Y-32213846D01*
X5375565Y-32261465D01*
X5470803Y-32309084D01*
X5566041Y-32404322D01*
X5613660Y-32547180D01*
X5613660Y-32785275D01*
X4708899Y-31832894D02*
X4661280Y-31785275D01*
X4613660Y-31690037D01*
X4613660Y-31451941D01*
X4661280Y-31356703D01*
X4708899Y-31309084D01*
X4804137Y-31261465D01*
X4899375Y-31261465D01*
X5042232Y-31309084D01*
X5613660Y-31880513D01*
X5613660Y-31261465D01*
X4846580Y-35852384D02*
X3846580Y-35852384D01*
X4846580Y-35280956D02*
X4275152Y-35709527D01*
X3846580Y-35280956D02*
X4418009Y-35852384D01*
X49142424Y-26446740D02*
X49142424Y-25446740D01*
X49380520Y-25446740D01*
X49523377Y-25494360D01*
X49618615Y-25589598D01*
X49666234Y-25684836D01*
X49713853Y-25875312D01*
X49713853Y-26018169D01*
X49666234Y-26208645D01*
X49618615Y-26303883D01*
X49523377Y-26399121D01*
X49380520Y-26446740D01*
X49142424Y-26446740D01*
X50047186Y-25446740D02*
X50666234Y-25446740D01*
X50332900Y-25827693D01*
X50475758Y-25827693D01*
X50570996Y-25875312D01*
X50618615Y-25922931D01*
X50666234Y-26018169D01*
X50666234Y-26256264D01*
X50618615Y-26351502D01*
X50570996Y-26399121D01*
X50475758Y-26446740D01*
X50190043Y-26446740D01*
X50094805Y-26399121D01*
X50047186Y-26351502D01*
X44031944Y-26497540D02*
X44031944Y-25497540D01*
X44270040Y-25497540D01*
X44412897Y-25545160D01*
X44508135Y-25640398D01*
X44555754Y-25735636D01*
X44603373Y-25926112D01*
X44603373Y-26068969D01*
X44555754Y-26259445D01*
X44508135Y-26354683D01*
X44412897Y-26449921D01*
X44270040Y-26497540D01*
X44031944Y-26497540D01*
X45460516Y-25830874D02*
X45460516Y-26497540D01*
X45222420Y-25449921D02*
X44984325Y-26164207D01*
X45603373Y-26164207D01*
X41540204Y-26467060D02*
X41540204Y-25467060D01*
X41778300Y-25467060D01*
X41921157Y-25514680D01*
X42016395Y-25609918D01*
X42064014Y-25705156D01*
X42111633Y-25895632D01*
X42111633Y-26038489D01*
X42064014Y-26228965D01*
X42016395Y-26324203D01*
X41921157Y-26419441D01*
X41778300Y-26467060D01*
X41540204Y-26467060D01*
X43016395Y-25467060D02*
X42540204Y-25467060D01*
X42492585Y-25943251D01*
X42540204Y-25895632D01*
X42635442Y-25848013D01*
X42873538Y-25848013D01*
X42968776Y-25895632D01*
X43016395Y-25943251D01*
X43064014Y-26038489D01*
X43064014Y-26276584D01*
X43016395Y-26371822D01*
X42968776Y-26419441D01*
X42873538Y-26467060D01*
X42635442Y-26467060D01*
X42540204Y-26419441D01*
X42492585Y-26371822D01*
X30572484Y-23528280D02*
X30572484Y-22528280D01*
X30810580Y-22528280D01*
X30953437Y-22575900D01*
X31048675Y-22671138D01*
X31096294Y-22766376D01*
X31143913Y-22956852D01*
X31143913Y-23099709D01*
X31096294Y-23290185D01*
X31048675Y-23385423D01*
X30953437Y-23480661D01*
X30810580Y-23528280D01*
X30572484Y-23528280D01*
X32001056Y-22528280D02*
X31810580Y-22528280D01*
X31715341Y-22575900D01*
X31667722Y-22623519D01*
X31572484Y-22766376D01*
X31524865Y-22956852D01*
X31524865Y-23337804D01*
X31572484Y-23433042D01*
X31620103Y-23480661D01*
X31715341Y-23528280D01*
X31905818Y-23528280D01*
X32001056Y-23480661D01*
X32048675Y-23433042D01*
X32096294Y-23337804D01*
X32096294Y-23099709D01*
X32048675Y-23004471D01*
X32001056Y-22956852D01*
X31905818Y-22909233D01*
X31715341Y-22909233D01*
X31620103Y-22956852D01*
X31572484Y-23004471D01*
X31524865Y-23099709D01*
X58050204Y-26451820D02*
X58050204Y-25451820D01*
X58288300Y-25451820D01*
X58431157Y-25499440D01*
X58526395Y-25594678D01*
X58574014Y-25689916D01*
X58621633Y-25880392D01*
X58621633Y-26023249D01*
X58574014Y-26213725D01*
X58526395Y-26308963D01*
X58431157Y-26404201D01*
X58288300Y-26451820D01*
X58050204Y-26451820D01*
X58954966Y-25451820D02*
X59621633Y-25451820D01*
X59193061Y-26451820D01*
X32416761Y-36829619D02*
X32321523Y-36782000D01*
X32226285Y-36686761D01*
X32083428Y-36543904D01*
X31988190Y-36496285D01*
X31892952Y-36496285D01*
X31940571Y-36734380D02*
X31845333Y-36686761D01*
X31750095Y-36591523D01*
X31702476Y-36401047D01*
X31702476Y-36067714D01*
X31750095Y-35877238D01*
X31845333Y-35782000D01*
X31940571Y-35734380D01*
X32131047Y-35734380D01*
X32226285Y-35782000D01*
X32321523Y-35877238D01*
X32369142Y-36067714D01*
X32369142Y-36401047D01*
X32321523Y-36591523D01*
X32226285Y-36686761D01*
X32131047Y-36734380D01*
X31940571Y-36734380D01*
X33321523Y-36734380D02*
X32750095Y-36734380D01*
X33035809Y-36734380D02*
X33035809Y-35734380D01*
X32940571Y-35877238D01*
X32845333Y-35972476D01*
X32750095Y-36020095D01*
X39020761Y-36829619D02*
X38925523Y-36782000D01*
X38830285Y-36686761D01*
X38687428Y-36543904D01*
X38592190Y-36496285D01*
X38496952Y-36496285D01*
X38544571Y-36734380D02*
X38449333Y-36686761D01*
X38354095Y-36591523D01*
X38306476Y-36401047D01*
X38306476Y-36067714D01*
X38354095Y-35877238D01*
X38449333Y-35782000D01*
X38544571Y-35734380D01*
X38735047Y-35734380D01*
X38830285Y-35782000D01*
X38925523Y-35877238D01*
X38973142Y-36067714D01*
X38973142Y-36401047D01*
X38925523Y-36591523D01*
X38830285Y-36686761D01*
X38735047Y-36734380D01*
X38544571Y-36734380D01*
X39354095Y-35829619D02*
X39401714Y-35782000D01*
X39496952Y-35734380D01*
X39735047Y-35734380D01*
X39830285Y-35782000D01*
X39877904Y-35829619D01*
X39925523Y-35924857D01*
X39925523Y-36020095D01*
X39877904Y-36162952D01*
X39306476Y-36734380D01*
X39925523Y-36734380D01*
X45086281Y-36945819D02*
X44991043Y-36898200D01*
X44895805Y-36802961D01*
X44752948Y-36660104D01*
X44657710Y-36612485D01*
X44562472Y-36612485D01*
X44610091Y-36850580D02*
X44514853Y-36802961D01*
X44419615Y-36707723D01*
X44371996Y-36517247D01*
X44371996Y-36183914D01*
X44419615Y-35993438D01*
X44514853Y-35898200D01*
X44610091Y-35850580D01*
X44800567Y-35850580D01*
X44895805Y-35898200D01*
X44991043Y-35993438D01*
X45038662Y-36183914D01*
X45038662Y-36517247D01*
X44991043Y-36707723D01*
X44895805Y-36802961D01*
X44800567Y-36850580D01*
X44610091Y-36850580D01*
X45371996Y-35850580D02*
X45991043Y-35850580D01*
X45657710Y-36231533D01*
X45800567Y-36231533D01*
X45895805Y-36279152D01*
X45943424Y-36326771D01*
X45991043Y-36422009D01*
X45991043Y-36660104D01*
X45943424Y-36755342D01*
X45895805Y-36802961D01*
X45800567Y-36850580D01*
X45514853Y-36850580D01*
X45419615Y-36802961D01*
X45371996Y-36755342D01*
X51873161Y-36948359D02*
X51777923Y-36900740D01*
X51682685Y-36805501D01*
X51539828Y-36662644D01*
X51444590Y-36615025D01*
X51349352Y-36615025D01*
X51396971Y-36853120D02*
X51301733Y-36805501D01*
X51206495Y-36710263D01*
X51158876Y-36519787D01*
X51158876Y-36186454D01*
X51206495Y-35995978D01*
X51301733Y-35900740D01*
X51396971Y-35853120D01*
X51587447Y-35853120D01*
X51682685Y-35900740D01*
X51777923Y-35995978D01*
X51825542Y-36186454D01*
X51825542Y-36519787D01*
X51777923Y-36710263D01*
X51682685Y-36805501D01*
X51587447Y-36853120D01*
X51396971Y-36853120D01*
X52682685Y-36186454D02*
X52682685Y-36853120D01*
X52444590Y-35805501D02*
X52206495Y-36519787D01*
X52825542Y-36519787D01*
X40763201Y-53732679D02*
X40667963Y-53685060D01*
X40572725Y-53589821D01*
X40429868Y-53446964D01*
X40334630Y-53399345D01*
X40239392Y-53399345D01*
X40287011Y-53637440D02*
X40191773Y-53589821D01*
X40096535Y-53494583D01*
X40048916Y-53304107D01*
X40048916Y-52970774D01*
X40096535Y-52780298D01*
X40191773Y-52685060D01*
X40287011Y-52637440D01*
X40477487Y-52637440D01*
X40572725Y-52685060D01*
X40667963Y-52780298D01*
X40715582Y-52970774D01*
X40715582Y-53304107D01*
X40667963Y-53494583D01*
X40572725Y-53589821D01*
X40477487Y-53637440D01*
X40287011Y-53637440D01*
X41048916Y-52637440D02*
X41715582Y-52637440D01*
X41287011Y-53637440D01*
X8474959Y-20770838D02*
X8427340Y-20866076D01*
X8332101Y-20961314D01*
X8189244Y-21104171D01*
X8141625Y-21199409D01*
X8141625Y-21294647D01*
X8379720Y-21247028D02*
X8332101Y-21342266D01*
X8236863Y-21437504D01*
X8046387Y-21485123D01*
X7713054Y-21485123D01*
X7522578Y-21437504D01*
X7427340Y-21342266D01*
X7379720Y-21247028D01*
X7379720Y-21056552D01*
X7427340Y-20961314D01*
X7522578Y-20866076D01*
X7713054Y-20818457D01*
X8046387Y-20818457D01*
X8236863Y-20866076D01*
X8332101Y-20961314D01*
X8379720Y-21056552D01*
X8379720Y-21247028D01*
X7808292Y-20247028D02*
X7760673Y-20342266D01*
X7713054Y-20389885D01*
X7617816Y-20437504D01*
X7570197Y-20437504D01*
X7474959Y-20389885D01*
X7427340Y-20342266D01*
X7379720Y-20247028D01*
X7379720Y-20056552D01*
X7427340Y-19961314D01*
X7474959Y-19913695D01*
X7570197Y-19866076D01*
X7617816Y-19866076D01*
X7713054Y-19913695D01*
X7760673Y-19961314D01*
X7808292Y-20056552D01*
X7808292Y-20247028D01*
X7855911Y-20342266D01*
X7903530Y-20389885D01*
X7998768Y-20437504D01*
X8189244Y-20437504D01*
X8284482Y-20389885D01*
X8332101Y-20342266D01*
X8379720Y-20247028D01*
X8379720Y-20056552D01*
X8332101Y-19961314D01*
X8284482Y-19913695D01*
X8189244Y-19866076D01*
X7998768Y-19866076D01*
X7903530Y-19913695D01*
X7855911Y-19961314D01*
X7808292Y-20056552D01*
X8322559Y-17870158D02*
X8274940Y-17965396D01*
X8179701Y-18060634D01*
X8036844Y-18203491D01*
X7989225Y-18298729D01*
X7989225Y-18393967D01*
X8227320Y-18346348D02*
X8179701Y-18441586D01*
X8084463Y-18536824D01*
X7893987Y-18584443D01*
X7560654Y-18584443D01*
X7370178Y-18536824D01*
X7274940Y-18441586D01*
X7227320Y-18346348D01*
X7227320Y-18155872D01*
X7274940Y-18060634D01*
X7370178Y-17965396D01*
X7560654Y-17917777D01*
X7893987Y-17917777D01*
X8084463Y-17965396D01*
X8179701Y-18060634D01*
X8227320Y-18155872D01*
X8227320Y-18346348D01*
X8227320Y-17441586D02*
X8227320Y-17251110D01*
X8179701Y-17155872D01*
X8132082Y-17108253D01*
X7989225Y-17013015D01*
X7798749Y-16965396D01*
X7417797Y-16965396D01*
X7322559Y-17013015D01*
X7274940Y-17060634D01*
X7227320Y-17155872D01*
X7227320Y-17346348D01*
X7274940Y-17441586D01*
X7322559Y-17489205D01*
X7417797Y-17536824D01*
X7655892Y-17536824D01*
X7751130Y-17489205D01*
X7798749Y-17441586D01*
X7846368Y-17346348D01*
X7846368Y-17155872D01*
X7798749Y-17060634D01*
X7751130Y-17013015D01*
X7655892Y-16965396D01*
X8299699Y-14396648D02*
X8252080Y-14491886D01*
X8156841Y-14587124D01*
X8013984Y-14729981D01*
X7966365Y-14825220D01*
X7966365Y-14920458D01*
X8204460Y-14872839D02*
X8156841Y-14968077D01*
X8061603Y-15063315D01*
X7871127Y-15110934D01*
X7537794Y-15110934D01*
X7347318Y-15063315D01*
X7252080Y-14968077D01*
X7204460Y-14872839D01*
X7204460Y-14682362D01*
X7252080Y-14587124D01*
X7347318Y-14491886D01*
X7537794Y-14444267D01*
X7871127Y-14444267D01*
X8061603Y-14491886D01*
X8156841Y-14587124D01*
X8204460Y-14682362D01*
X8204460Y-14872839D01*
X8204460Y-13491886D02*
X8204460Y-14063315D01*
X8204460Y-13777600D02*
X7204460Y-13777600D01*
X7347318Y-13872839D01*
X7442556Y-13968077D01*
X7490175Y-14063315D01*
X7204460Y-12872839D02*
X7204460Y-12777600D01*
X7252080Y-12682362D01*
X7299699Y-12634743D01*
X7394937Y-12587124D01*
X7585413Y-12539505D01*
X7823508Y-12539505D01*
X8013984Y-12587124D01*
X8109222Y-12634743D01*
X8156841Y-12682362D01*
X8204460Y-12777600D01*
X8204460Y-12872839D01*
X8156841Y-12968077D01*
X8109222Y-13015696D01*
X8013984Y-13063315D01*
X7823508Y-13110934D01*
X7585413Y-13110934D01*
X7394937Y-13063315D01*
X7299699Y-13015696D01*
X7252080Y-12968077D01*
X7204460Y-12872839D01*
X35779413Y-31778200D02*
X35446080Y-31302010D01*
X35207984Y-31778200D02*
X35207984Y-30778200D01*
X35588937Y-30778200D01*
X35684175Y-30825820D01*
X35731794Y-30873439D01*
X35779413Y-30968677D01*
X35779413Y-31111534D01*
X35731794Y-31206772D01*
X35684175Y-31254391D01*
X35588937Y-31302010D01*
X35207984Y-31302010D01*
X36731794Y-31778200D02*
X36160365Y-31778200D01*
X36446080Y-31778200D02*
X36446080Y-30778200D01*
X36350841Y-30921058D01*
X36255603Y-31016296D01*
X36160365Y-31063915D01*
X42358013Y-31897580D02*
X42024680Y-31421390D01*
X41786584Y-31897580D02*
X41786584Y-30897580D01*
X42167537Y-30897580D01*
X42262775Y-30945200D01*
X42310394Y-30992819D01*
X42358013Y-31088057D01*
X42358013Y-31230914D01*
X42310394Y-31326152D01*
X42262775Y-31373771D01*
X42167537Y-31421390D01*
X41786584Y-31421390D01*
X42738965Y-30992819D02*
X42786584Y-30945200D01*
X42881822Y-30897580D01*
X43119918Y-30897580D01*
X43215156Y-30945200D01*
X43262775Y-30992819D01*
X43310394Y-31088057D01*
X43310394Y-31183295D01*
X43262775Y-31326152D01*
X42691346Y-31897580D01*
X43310394Y-31897580D01*
X48621653Y-31856940D02*
X48288320Y-31380750D01*
X48050224Y-31856940D02*
X48050224Y-30856940D01*
X48431177Y-30856940D01*
X48526415Y-30904560D01*
X48574034Y-30952179D01*
X48621653Y-31047417D01*
X48621653Y-31190274D01*
X48574034Y-31285512D01*
X48526415Y-31333131D01*
X48431177Y-31380750D01*
X48050224Y-31380750D01*
X48954986Y-30856940D02*
X49574034Y-30856940D01*
X49240700Y-31237893D01*
X49383558Y-31237893D01*
X49478796Y-31285512D01*
X49526415Y-31333131D01*
X49574034Y-31428369D01*
X49574034Y-31666464D01*
X49526415Y-31761702D01*
X49478796Y-31809321D01*
X49383558Y-31856940D01*
X49097843Y-31856940D01*
X49002605Y-31809321D01*
X48954986Y-31761702D01*
X55756513Y-31856940D02*
X55423180Y-31380750D01*
X55185084Y-31856940D02*
X55185084Y-30856940D01*
X55566037Y-30856940D01*
X55661275Y-30904560D01*
X55708894Y-30952179D01*
X55756513Y-31047417D01*
X55756513Y-31190274D01*
X55708894Y-31285512D01*
X55661275Y-31333131D01*
X55566037Y-31380750D01*
X55185084Y-31380750D01*
X56613656Y-31190274D02*
X56613656Y-31856940D01*
X56375560Y-30809321D02*
X56137465Y-31523607D01*
X56756513Y-31523607D01*
X30905153Y-29438860D02*
X30571820Y-28962670D01*
X30333724Y-29438860D02*
X30333724Y-28438860D01*
X30714677Y-28438860D01*
X30809915Y-28486480D01*
X30857534Y-28534099D01*
X30905153Y-28629337D01*
X30905153Y-28772194D01*
X30857534Y-28867432D01*
X30809915Y-28915051D01*
X30714677Y-28962670D01*
X30333724Y-28962670D01*
X31809915Y-28438860D02*
X31333724Y-28438860D01*
X31286105Y-28915051D01*
X31333724Y-28867432D01*
X31428962Y-28819813D01*
X31667058Y-28819813D01*
X31762296Y-28867432D01*
X31809915Y-28915051D01*
X31857534Y-29010289D01*
X31857534Y-29248384D01*
X31809915Y-29343622D01*
X31762296Y-29391241D01*
X31667058Y-29438860D01*
X31428962Y-29438860D01*
X31333724Y-29391241D01*
X31286105Y-29343622D01*
X38791853Y-29517600D02*
X38458520Y-29041410D01*
X38220424Y-29517600D02*
X38220424Y-28517600D01*
X38601377Y-28517600D01*
X38696615Y-28565220D01*
X38744234Y-28612839D01*
X38791853Y-28708077D01*
X38791853Y-28850934D01*
X38744234Y-28946172D01*
X38696615Y-28993791D01*
X38601377Y-29041410D01*
X38220424Y-29041410D01*
X39648996Y-28517600D02*
X39458520Y-28517600D01*
X39363281Y-28565220D01*
X39315662Y-28612839D01*
X39220424Y-28755696D01*
X39172805Y-28946172D01*
X39172805Y-29327124D01*
X39220424Y-29422362D01*
X39268043Y-29469981D01*
X39363281Y-29517600D01*
X39553758Y-29517600D01*
X39648996Y-29469981D01*
X39696615Y-29422362D01*
X39744234Y-29327124D01*
X39744234Y-29089029D01*
X39696615Y-28993791D01*
X39648996Y-28946172D01*
X39553758Y-28898553D01*
X39363281Y-28898553D01*
X39268043Y-28946172D01*
X39220424Y-28993791D01*
X39172805Y-29089029D01*
X43904873Y-29517600D02*
X43571540Y-29041410D01*
X43333444Y-29517600D02*
X43333444Y-28517600D01*
X43714397Y-28517600D01*
X43809635Y-28565220D01*
X43857254Y-28612839D01*
X43904873Y-28708077D01*
X43904873Y-28850934D01*
X43857254Y-28946172D01*
X43809635Y-28993791D01*
X43714397Y-29041410D01*
X43333444Y-29041410D01*
X44238206Y-28517600D02*
X44904873Y-28517600D01*
X44476301Y-29517600D01*
X51550273Y-29609040D02*
X51216940Y-29132850D01*
X50978844Y-29609040D02*
X50978844Y-28609040D01*
X51359797Y-28609040D01*
X51455035Y-28656660D01*
X51502654Y-28704279D01*
X51550273Y-28799517D01*
X51550273Y-28942374D01*
X51502654Y-29037612D01*
X51455035Y-29085231D01*
X51359797Y-29132850D01*
X50978844Y-29132850D01*
X52121701Y-29037612D02*
X52026463Y-28989993D01*
X51978844Y-28942374D01*
X51931225Y-28847136D01*
X51931225Y-28799517D01*
X51978844Y-28704279D01*
X52026463Y-28656660D01*
X52121701Y-28609040D01*
X52312178Y-28609040D01*
X52407416Y-28656660D01*
X52455035Y-28704279D01*
X52502654Y-28799517D01*
X52502654Y-28847136D01*
X52455035Y-28942374D01*
X52407416Y-28989993D01*
X52312178Y-29037612D01*
X52121701Y-29037612D01*
X52026463Y-29085231D01*
X51978844Y-29132850D01*
X51931225Y-29228088D01*
X51931225Y-29418564D01*
X51978844Y-29513802D01*
X52026463Y-29561421D01*
X52121701Y-29609040D01*
X52312178Y-29609040D01*
X52407416Y-29561421D01*
X52455035Y-29513802D01*
X52502654Y-29418564D01*
X52502654Y-29228088D01*
X52455035Y-29132850D01*
X52407416Y-29085231D01*
X52312178Y-29037612D01*
X32377142Y-54426380D02*
X32043809Y-53950190D01*
X31805714Y-54426380D02*
X31805714Y-53426380D01*
X32186666Y-53426380D01*
X32281904Y-53474000D01*
X32329523Y-53521619D01*
X32377142Y-53616857D01*
X32377142Y-53759714D01*
X32329523Y-53854952D01*
X32281904Y-53902571D01*
X32186666Y-53950190D01*
X31805714Y-53950190D01*
X33329523Y-54426380D02*
X32758095Y-54426380D01*
X33043809Y-54426380D02*
X33043809Y-53426380D01*
X32948571Y-53569238D01*
X32853333Y-53664476D01*
X32758095Y-53712095D01*
X34281904Y-54426380D02*
X33710476Y-54426380D01*
X33996190Y-54426380D02*
X33996190Y-53426380D01*
X33900952Y-53569238D01*
X33805714Y-53664476D01*
X33710476Y-53712095D01*
X11778240Y-22347157D02*
X11302050Y-22680490D01*
X11778240Y-22918585D02*
X10778240Y-22918585D01*
X10778240Y-22537633D01*
X10825860Y-22442395D01*
X10873479Y-22394776D01*
X10968717Y-22347157D01*
X11111574Y-22347157D01*
X11206812Y-22394776D01*
X11254431Y-22442395D01*
X11302050Y-22537633D01*
X11302050Y-22918585D01*
X11778240Y-21394776D02*
X11778240Y-21966204D01*
X11778240Y-21680490D02*
X10778240Y-21680490D01*
X10921098Y-21775728D01*
X11016336Y-21870966D01*
X11063955Y-21966204D01*
X10873479Y-21013823D02*
X10825860Y-20966204D01*
X10778240Y-20870966D01*
X10778240Y-20632871D01*
X10825860Y-20537633D01*
X10873479Y-20490014D01*
X10968717Y-20442395D01*
X11063955Y-20442395D01*
X11206812Y-20490014D01*
X11778240Y-21061442D01*
X11778240Y-20442395D01*
X11740140Y-18798777D02*
X11263950Y-19132110D01*
X11740140Y-19370205D02*
X10740140Y-19370205D01*
X10740140Y-18989253D01*
X10787760Y-18894015D01*
X10835379Y-18846396D01*
X10930617Y-18798777D01*
X11073474Y-18798777D01*
X11168712Y-18846396D01*
X11216331Y-18894015D01*
X11263950Y-18989253D01*
X11263950Y-19370205D01*
X11740140Y-17846396D02*
X11740140Y-18417824D01*
X11740140Y-18132110D02*
X10740140Y-18132110D01*
X10882998Y-18227348D01*
X10978236Y-18322586D01*
X11025855Y-18417824D01*
X10740140Y-17513062D02*
X10740140Y-16894015D01*
X11121093Y-17227348D01*
X11121093Y-17084491D01*
X11168712Y-16989253D01*
X11216331Y-16941634D01*
X11311569Y-16894015D01*
X11549664Y-16894015D01*
X11644902Y-16941634D01*
X11692521Y-16989253D01*
X11740140Y-17084491D01*
X11740140Y-17370205D01*
X11692521Y-17465443D01*
X11644902Y-17513062D01*
X11798560Y-14831297D02*
X11322370Y-15164630D01*
X11798560Y-15402725D02*
X10798560Y-15402725D01*
X10798560Y-15021773D01*
X10846180Y-14926535D01*
X10893799Y-14878916D01*
X10989037Y-14831297D01*
X11131894Y-14831297D01*
X11227132Y-14878916D01*
X11274751Y-14926535D01*
X11322370Y-15021773D01*
X11322370Y-15402725D01*
X11798560Y-13878916D02*
X11798560Y-14450344D01*
X11798560Y-14164630D02*
X10798560Y-14164630D01*
X10941418Y-14259868D01*
X11036656Y-14355106D01*
X11084275Y-14450344D01*
X11131894Y-13021773D02*
X11798560Y-13021773D01*
X10750941Y-13259868D02*
X11465227Y-13497963D01*
X11465227Y-12878916D01*
X29565860Y-15016717D02*
X29089670Y-15350050D01*
X29565860Y-15588145D02*
X28565860Y-15588145D01*
X28565860Y-15207193D01*
X28613480Y-15111955D01*
X28661099Y-15064336D01*
X28756337Y-15016717D01*
X28899194Y-15016717D01*
X28994432Y-15064336D01*
X29042051Y-15111955D01*
X29089670Y-15207193D01*
X29089670Y-15588145D01*
X29565860Y-14064336D02*
X29565860Y-14635764D01*
X29565860Y-14350050D02*
X28565860Y-14350050D01*
X28708718Y-14445288D01*
X28803956Y-14540526D01*
X28851575Y-14635764D01*
X28565860Y-13159574D02*
X28565860Y-13635764D01*
X29042051Y-13683383D01*
X28994432Y-13635764D01*
X28946813Y-13540526D01*
X28946813Y-13302431D01*
X28994432Y-13207193D01*
X29042051Y-13159574D01*
X29137289Y-13111955D01*
X29375384Y-13111955D01*
X29470622Y-13159574D01*
X29518241Y-13207193D01*
X29565860Y-13302431D01*
X29565860Y-13540526D01*
X29518241Y-13635764D01*
X29470622Y-13683383D01*
X28090120Y-15016717D02*
X27613930Y-15350050D01*
X28090120Y-15588145D02*
X27090120Y-15588145D01*
X27090120Y-15207193D01*
X27137740Y-15111955D01*
X27185359Y-15064336D01*
X27280597Y-15016717D01*
X27423454Y-15016717D01*
X27518692Y-15064336D01*
X27566311Y-15111955D01*
X27613930Y-15207193D01*
X27613930Y-15588145D01*
X28090120Y-14064336D02*
X28090120Y-14635764D01*
X28090120Y-14350050D02*
X27090120Y-14350050D01*
X27232978Y-14445288D01*
X27328216Y-14540526D01*
X27375835Y-14635764D01*
X27090120Y-13207193D02*
X27090120Y-13397669D01*
X27137740Y-13492907D01*
X27185359Y-13540526D01*
X27328216Y-13635764D01*
X27518692Y-13683383D01*
X27899644Y-13683383D01*
X27994882Y-13635764D01*
X28042501Y-13588145D01*
X28090120Y-13492907D01*
X28090120Y-13302431D01*
X28042501Y-13207193D01*
X27994882Y-13159574D01*
X27899644Y-13111955D01*
X27661549Y-13111955D01*
X27566311Y-13159574D01*
X27518692Y-13207193D01*
X27471073Y-13302431D01*
X27471073Y-13492907D01*
X27518692Y-13588145D01*
X27566311Y-13635764D01*
X27661549Y-13683383D01*
X16520420Y-14920197D02*
X16044230Y-15253530D01*
X16520420Y-15491625D02*
X15520420Y-15491625D01*
X15520420Y-15110673D01*
X15568040Y-15015435D01*
X15615659Y-14967816D01*
X15710897Y-14920197D01*
X15853754Y-14920197D01*
X15948992Y-14967816D01*
X15996611Y-15015435D01*
X16044230Y-15110673D01*
X16044230Y-15491625D01*
X16520420Y-13967816D02*
X16520420Y-14539244D01*
X16520420Y-14253530D02*
X15520420Y-14253530D01*
X15663278Y-14348768D01*
X15758516Y-14444006D01*
X15806135Y-14539244D01*
X15520420Y-13634482D02*
X15520420Y-12967816D01*
X16520420Y-13396387D01*
X14915140Y-14854157D02*
X14438950Y-15187490D01*
X14915140Y-15425585D02*
X13915140Y-15425585D01*
X13915140Y-15044633D01*
X13962760Y-14949395D01*
X14010379Y-14901776D01*
X14105617Y-14854157D01*
X14248474Y-14854157D01*
X14343712Y-14901776D01*
X14391331Y-14949395D01*
X14438950Y-15044633D01*
X14438950Y-15425585D01*
X14915140Y-13901776D02*
X14915140Y-14473204D01*
X14915140Y-14187490D02*
X13915140Y-14187490D01*
X14057998Y-14282728D01*
X14153236Y-14377966D01*
X14200855Y-14473204D01*
X14343712Y-13330347D02*
X14296093Y-13425585D01*
X14248474Y-13473204D01*
X14153236Y-13520823D01*
X14105617Y-13520823D01*
X14010379Y-13473204D01*
X13962760Y-13425585D01*
X13915140Y-13330347D01*
X13915140Y-13139871D01*
X13962760Y-13044633D01*
X14010379Y-12997014D01*
X14105617Y-12949395D01*
X14153236Y-12949395D01*
X14248474Y-12997014D01*
X14296093Y-13044633D01*
X14343712Y-13139871D01*
X14343712Y-13330347D01*
X14391331Y-13425585D01*
X14438950Y-13473204D01*
X14534188Y-13520823D01*
X14724664Y-13520823D01*
X14819902Y-13473204D01*
X14867521Y-13425585D01*
X14915140Y-13330347D01*
X14915140Y-13139871D01*
X14867521Y-13044633D01*
X14819902Y-12997014D01*
X14724664Y-12949395D01*
X14534188Y-12949395D01*
X14438950Y-12997014D01*
X14391331Y-13044633D01*
X14343712Y-13139871D01*
X51363642Y-14724640D02*
X51030309Y-14248450D01*
X50792214Y-14724640D02*
X50792214Y-13724640D01*
X51173166Y-13724640D01*
X51268404Y-13772260D01*
X51316023Y-13819879D01*
X51363642Y-13915117D01*
X51363642Y-14057974D01*
X51316023Y-14153212D01*
X51268404Y-14200831D01*
X51173166Y-14248450D01*
X50792214Y-14248450D01*
X52316023Y-14724640D02*
X51744595Y-14724640D01*
X52030309Y-14724640D02*
X52030309Y-13724640D01*
X51935071Y-13867498D01*
X51839833Y-13962736D01*
X51744595Y-14010355D01*
X52792214Y-14724640D02*
X52982690Y-14724640D01*
X53077928Y-14677021D01*
X53125547Y-14629402D01*
X53220785Y-14486545D01*
X53268404Y-14296069D01*
X53268404Y-13915117D01*
X53220785Y-13819879D01*
X53173166Y-13772260D01*
X53077928Y-13724640D01*
X52887452Y-13724640D01*
X52792214Y-13772260D01*
X52744595Y-13819879D01*
X52696976Y-13915117D01*
X52696976Y-14153212D01*
X52744595Y-14248450D01*
X52792214Y-14296069D01*
X52887452Y-14343688D01*
X53077928Y-14343688D01*
X53173166Y-14296069D01*
X53220785Y-14248450D01*
X53268404Y-14153212D01*
X46702742Y-14846560D02*
X46369409Y-14370370D01*
X46131314Y-14846560D02*
X46131314Y-13846560D01*
X46512266Y-13846560D01*
X46607504Y-13894180D01*
X46655123Y-13941799D01*
X46702742Y-14037037D01*
X46702742Y-14179894D01*
X46655123Y-14275132D01*
X46607504Y-14322751D01*
X46512266Y-14370370D01*
X46131314Y-14370370D01*
X47083695Y-13941799D02*
X47131314Y-13894180D01*
X47226552Y-13846560D01*
X47464647Y-13846560D01*
X47559885Y-13894180D01*
X47607504Y-13941799D01*
X47655123Y-14037037D01*
X47655123Y-14132275D01*
X47607504Y-14275132D01*
X47036076Y-14846560D01*
X47655123Y-14846560D01*
X48274171Y-13846560D02*
X48369409Y-13846560D01*
X48464647Y-13894180D01*
X48512266Y-13941799D01*
X48559885Y-14037037D01*
X48607504Y-14227513D01*
X48607504Y-14465608D01*
X48559885Y-14656084D01*
X48512266Y-14751322D01*
X48464647Y-14798941D01*
X48369409Y-14846560D01*
X48274171Y-14846560D01*
X48178933Y-14798941D01*
X48131314Y-14751322D01*
X48083695Y-14656084D01*
X48036076Y-14465608D01*
X48036076Y-14227513D01*
X48083695Y-14037037D01*
X48131314Y-13941799D01*
X48178933Y-13894180D01*
X48274171Y-13846560D01*
X41368742Y-14910060D02*
X41035409Y-14433870D01*
X40797314Y-14910060D02*
X40797314Y-13910060D01*
X41178266Y-13910060D01*
X41273504Y-13957680D01*
X41321123Y-14005299D01*
X41368742Y-14100537D01*
X41368742Y-14243394D01*
X41321123Y-14338632D01*
X41273504Y-14386251D01*
X41178266Y-14433870D01*
X40797314Y-14433870D01*
X41749695Y-14005299D02*
X41797314Y-13957680D01*
X41892552Y-13910060D01*
X42130647Y-13910060D01*
X42225885Y-13957680D01*
X42273504Y-14005299D01*
X42321123Y-14100537D01*
X42321123Y-14195775D01*
X42273504Y-14338632D01*
X41702076Y-14910060D01*
X42321123Y-14910060D01*
X43273504Y-14910060D02*
X42702076Y-14910060D01*
X42987790Y-14910060D02*
X42987790Y-13910060D01*
X42892552Y-14052918D01*
X42797314Y-14148156D01*
X42702076Y-14195775D01*
X30289262Y-18557500D02*
X29955929Y-18081310D01*
X29717834Y-18557500D02*
X29717834Y-17557500D01*
X30098786Y-17557500D01*
X30194024Y-17605120D01*
X30241643Y-17652739D01*
X30289262Y-17747977D01*
X30289262Y-17890834D01*
X30241643Y-17986072D01*
X30194024Y-18033691D01*
X30098786Y-18081310D01*
X29717834Y-18081310D01*
X30670215Y-17652739D02*
X30717834Y-17605120D01*
X30813072Y-17557500D01*
X31051167Y-17557500D01*
X31146405Y-17605120D01*
X31194024Y-17652739D01*
X31241643Y-17747977D01*
X31241643Y-17843215D01*
X31194024Y-17986072D01*
X30622596Y-18557500D01*
X31241643Y-18557500D01*
X31622596Y-17652739D02*
X31670215Y-17605120D01*
X31765453Y-17557500D01*
X32003548Y-17557500D01*
X32098786Y-17605120D01*
X32146405Y-17652739D01*
X32194024Y-17747977D01*
X32194024Y-17843215D01*
X32146405Y-17986072D01*
X31574977Y-18557500D01*
X32194024Y-18557500D01*
X49164500Y-19380437D02*
X48688310Y-19713770D01*
X49164500Y-19951865D02*
X48164500Y-19951865D01*
X48164500Y-19570913D01*
X48212120Y-19475675D01*
X48259739Y-19428056D01*
X48354977Y-19380437D01*
X48497834Y-19380437D01*
X48593072Y-19428056D01*
X48640691Y-19475675D01*
X48688310Y-19570913D01*
X48688310Y-19951865D01*
X48259739Y-18999484D02*
X48212120Y-18951865D01*
X48164500Y-18856627D01*
X48164500Y-18618532D01*
X48212120Y-18523294D01*
X48259739Y-18475675D01*
X48354977Y-18428056D01*
X48450215Y-18428056D01*
X48593072Y-18475675D01*
X49164500Y-19047103D01*
X49164500Y-18428056D01*
X48164500Y-18094722D02*
X48164500Y-17475675D01*
X48545453Y-17809008D01*
X48545453Y-17666151D01*
X48593072Y-17570913D01*
X48640691Y-17523294D01*
X48735929Y-17475675D01*
X48974024Y-17475675D01*
X49069262Y-17523294D01*
X49116881Y-17570913D01*
X49164500Y-17666151D01*
X49164500Y-17951865D01*
X49116881Y-18047103D01*
X49069262Y-18094722D01*
X43751760Y-18349197D02*
X43275570Y-18682530D01*
X43751760Y-18920625D02*
X42751760Y-18920625D01*
X42751760Y-18539673D01*
X42799380Y-18444435D01*
X42846999Y-18396816D01*
X42942237Y-18349197D01*
X43085094Y-18349197D01*
X43180332Y-18396816D01*
X43227951Y-18444435D01*
X43275570Y-18539673D01*
X43275570Y-18920625D01*
X42846999Y-17968244D02*
X42799380Y-17920625D01*
X42751760Y-17825387D01*
X42751760Y-17587292D01*
X42799380Y-17492054D01*
X42846999Y-17444435D01*
X42942237Y-17396816D01*
X43037475Y-17396816D01*
X43180332Y-17444435D01*
X43751760Y-18015863D01*
X43751760Y-17396816D01*
X43085094Y-16539673D02*
X43751760Y-16539673D01*
X42704141Y-16777768D02*
X43418427Y-17015863D01*
X43418427Y-16396816D01*
X38539680Y-18839417D02*
X38063490Y-19172750D01*
X38539680Y-19410845D02*
X37539680Y-19410845D01*
X37539680Y-19029893D01*
X37587300Y-18934655D01*
X37634919Y-18887036D01*
X37730157Y-18839417D01*
X37873014Y-18839417D01*
X37968252Y-18887036D01*
X38015871Y-18934655D01*
X38063490Y-19029893D01*
X38063490Y-19410845D01*
X37634919Y-18458464D02*
X37587300Y-18410845D01*
X37539680Y-18315607D01*
X37539680Y-18077512D01*
X37587300Y-17982274D01*
X37634919Y-17934655D01*
X37730157Y-17887036D01*
X37825395Y-17887036D01*
X37968252Y-17934655D01*
X38539680Y-18506083D01*
X38539680Y-17887036D01*
X37539680Y-16982274D02*
X37539680Y-17458464D01*
X38015871Y-17506083D01*
X37968252Y-17458464D01*
X37920633Y-17363226D01*
X37920633Y-17125131D01*
X37968252Y-17029893D01*
X38015871Y-16982274D01*
X38111109Y-16934655D01*
X38349204Y-16934655D01*
X38444442Y-16982274D01*
X38492061Y-17029893D01*
X38539680Y-17125131D01*
X38539680Y-17363226D01*
X38492061Y-17458464D01*
X38444442Y-17506083D01*
X30383242Y-20119600D02*
X30049909Y-19643410D01*
X29811814Y-20119600D02*
X29811814Y-19119600D01*
X30192766Y-19119600D01*
X30288004Y-19167220D01*
X30335623Y-19214839D01*
X30383242Y-19310077D01*
X30383242Y-19452934D01*
X30335623Y-19548172D01*
X30288004Y-19595791D01*
X30192766Y-19643410D01*
X29811814Y-19643410D01*
X30764195Y-19214839D02*
X30811814Y-19167220D01*
X30907052Y-19119600D01*
X31145147Y-19119600D01*
X31240385Y-19167220D01*
X31288004Y-19214839D01*
X31335623Y-19310077D01*
X31335623Y-19405315D01*
X31288004Y-19548172D01*
X30716576Y-20119600D01*
X31335623Y-20119600D01*
X32192766Y-19119600D02*
X32002290Y-19119600D01*
X31907052Y-19167220D01*
X31859433Y-19214839D01*
X31764195Y-19357696D01*
X31716576Y-19548172D01*
X31716576Y-19929124D01*
X31764195Y-20024362D01*
X31811814Y-20071981D01*
X31907052Y-20119600D01*
X32097528Y-20119600D01*
X32192766Y-20071981D01*
X32240385Y-20024362D01*
X32288004Y-19929124D01*
X32288004Y-19691029D01*
X32240385Y-19595791D01*
X32192766Y-19548172D01*
X32097528Y-19500553D01*
X31907052Y-19500553D01*
X31811814Y-19548172D01*
X31764195Y-19595791D01*
X31716576Y-19691029D01*
X56697642Y-14724640D02*
X56364309Y-14248450D01*
X56126214Y-14724640D02*
X56126214Y-13724640D01*
X56507166Y-13724640D01*
X56602404Y-13772260D01*
X56650023Y-13819879D01*
X56697642Y-13915117D01*
X56697642Y-14057974D01*
X56650023Y-14153212D01*
X56602404Y-14200831D01*
X56507166Y-14248450D01*
X56126214Y-14248450D01*
X57078595Y-13819879D02*
X57126214Y-13772260D01*
X57221452Y-13724640D01*
X57459547Y-13724640D01*
X57554785Y-13772260D01*
X57602404Y-13819879D01*
X57650023Y-13915117D01*
X57650023Y-14010355D01*
X57602404Y-14153212D01*
X57030976Y-14724640D01*
X57650023Y-14724640D01*
X57983357Y-13724640D02*
X58650023Y-13724640D01*
X58221452Y-14724640D01*
X54379120Y-19250897D02*
X53902930Y-19584230D01*
X54379120Y-19822325D02*
X53379120Y-19822325D01*
X53379120Y-19441373D01*
X53426740Y-19346135D01*
X53474359Y-19298516D01*
X53569597Y-19250897D01*
X53712454Y-19250897D01*
X53807692Y-19298516D01*
X53855311Y-19346135D01*
X53902930Y-19441373D01*
X53902930Y-19822325D01*
X53474359Y-18869944D02*
X53426740Y-18822325D01*
X53379120Y-18727087D01*
X53379120Y-18488992D01*
X53426740Y-18393754D01*
X53474359Y-18346135D01*
X53569597Y-18298516D01*
X53664835Y-18298516D01*
X53807692Y-18346135D01*
X54379120Y-18917563D01*
X54379120Y-18298516D01*
X53807692Y-17727087D02*
X53760073Y-17822325D01*
X53712454Y-17869944D01*
X53617216Y-17917563D01*
X53569597Y-17917563D01*
X53474359Y-17869944D01*
X53426740Y-17822325D01*
X53379120Y-17727087D01*
X53379120Y-17536611D01*
X53426740Y-17441373D01*
X53474359Y-17393754D01*
X53569597Y-17346135D01*
X53617216Y-17346135D01*
X53712454Y-17393754D01*
X53760073Y-17441373D01*
X53807692Y-17536611D01*
X53807692Y-17727087D01*
X53855311Y-17822325D01*
X53902930Y-17869944D01*
X53998168Y-17917563D01*
X54188644Y-17917563D01*
X54283882Y-17869944D01*
X54331501Y-17822325D01*
X54379120Y-17727087D01*
X54379120Y-17536611D01*
X54331501Y-17441373D01*
X54283882Y-17393754D01*
X54188644Y-17346135D01*
X53998168Y-17346135D01*
X53902930Y-17393754D01*
X53855311Y-17441373D01*
X53807692Y-17536611D01*
X14738380Y-23113904D02*
X15547904Y-23113904D01*
X15643142Y-23066285D01*
X15690761Y-23018666D01*
X15738380Y-22923428D01*
X15738380Y-22732952D01*
X15690761Y-22637714D01*
X15643142Y-22590095D01*
X15547904Y-22542476D01*
X14738380Y-22542476D01*
X15738380Y-21542476D02*
X15738380Y-22113904D01*
X15738380Y-21828190D02*
X14738380Y-21828190D01*
X14881238Y-21923428D01*
X14976476Y-22018666D01*
X15024095Y-22113904D01*
M02*
