G04 #@! TF.GenerationSoftware,KiCad,Pcbnew,(5.1.6-0-10_14)*
G04 #@! TF.CreationDate,2020-07-23T15:18:02-04:00*
G04 #@! TF.ProjectId,Pufferfish-Interface-2,50756666-6572-4666-9973-682d496e7465,rev?*
G04 #@! TF.SameCoordinates,Original*
G04 #@! TF.FileFunction,Paste,Top*
G04 #@! TF.FilePolarity,Positive*
%FSLAX46Y46*%
G04 Gerber Fmt 4.6, Leading zero omitted, Abs format (unit mm)*
G04 Created by KiCad (PCBNEW (5.1.6-0-10_14)) date 2020-07-23 15:18:02*
%MOMM*%
%LPD*%
G01*
G04 APERTURE LIST*
%ADD10R,0.900000X0.800000*%
G04 APERTURE END LIST*
G36*
G01*
X51582500Y-21792250D02*
X51582500Y-20879750D01*
G75*
G02*
X51826250Y-20636000I243750J0D01*
G01*
X52313750Y-20636000D01*
G75*
G02*
X52557500Y-20879750I0J-243750D01*
G01*
X52557500Y-21792250D01*
G75*
G02*
X52313750Y-22036000I-243750J0D01*
G01*
X51826250Y-22036000D01*
G75*
G02*
X51582500Y-21792250I0J243750D01*
G01*
G37*
G36*
G01*
X49707500Y-21792250D02*
X49707500Y-20879750D01*
G75*
G02*
X49951250Y-20636000I243750J0D01*
G01*
X50438750Y-20636000D01*
G75*
G02*
X50682500Y-20879750I0J-243750D01*
G01*
X50682500Y-21792250D01*
G75*
G02*
X50438750Y-22036000I-243750J0D01*
G01*
X49951250Y-22036000D01*
G75*
G02*
X49707500Y-21792250I0J243750D01*
G01*
G37*
G36*
G01*
X46170000Y-21792250D02*
X46170000Y-20879750D01*
G75*
G02*
X46413750Y-20636000I243750J0D01*
G01*
X46901250Y-20636000D01*
G75*
G02*
X47145000Y-20879750I0J-243750D01*
G01*
X47145000Y-21792250D01*
G75*
G02*
X46901250Y-22036000I-243750J0D01*
G01*
X46413750Y-22036000D01*
G75*
G02*
X46170000Y-21792250I0J243750D01*
G01*
G37*
G36*
G01*
X44295000Y-21792250D02*
X44295000Y-20879750D01*
G75*
G02*
X44538750Y-20636000I243750J0D01*
G01*
X45026250Y-20636000D01*
G75*
G02*
X45270000Y-20879750I0J-243750D01*
G01*
X45270000Y-21792250D01*
G75*
G02*
X45026250Y-22036000I-243750J0D01*
G01*
X44538750Y-22036000D01*
G75*
G02*
X44295000Y-21792250I0J243750D01*
G01*
G37*
G36*
G01*
X39215000Y-21792250D02*
X39215000Y-20879750D01*
G75*
G02*
X39458750Y-20636000I243750J0D01*
G01*
X39946250Y-20636000D01*
G75*
G02*
X40190000Y-20879750I0J-243750D01*
G01*
X40190000Y-21792250D01*
G75*
G02*
X39946250Y-22036000I-243750J0D01*
G01*
X39458750Y-22036000D01*
G75*
G02*
X39215000Y-21792250I0J243750D01*
G01*
G37*
G36*
G01*
X41090000Y-21792250D02*
X41090000Y-20879750D01*
G75*
G02*
X41333750Y-20636000I243750J0D01*
G01*
X41821250Y-20636000D01*
G75*
G02*
X42065000Y-20879750I0J-243750D01*
G01*
X42065000Y-21792250D01*
G75*
G02*
X41821250Y-22036000I-243750J0D01*
G01*
X41333750Y-22036000D01*
G75*
G02*
X41090000Y-21792250I0J243750D01*
G01*
G37*
G36*
G01*
X33373000Y-22046250D02*
X33373000Y-21133750D01*
G75*
G02*
X33616750Y-20890000I243750J0D01*
G01*
X34104250Y-20890000D01*
G75*
G02*
X34348000Y-21133750I0J-243750D01*
G01*
X34348000Y-22046250D01*
G75*
G02*
X34104250Y-22290000I-243750J0D01*
G01*
X33616750Y-22290000D01*
G75*
G02*
X33373000Y-22046250I0J243750D01*
G01*
G37*
G36*
G01*
X35248000Y-22046250D02*
X35248000Y-21133750D01*
G75*
G02*
X35491750Y-20890000I243750J0D01*
G01*
X35979250Y-20890000D01*
G75*
G02*
X36223000Y-21133750I0J-243750D01*
G01*
X36223000Y-22046250D01*
G75*
G02*
X35979250Y-22290000I-243750J0D01*
G01*
X35491750Y-22290000D01*
G75*
G02*
X35248000Y-22046250I0J243750D01*
G01*
G37*
G36*
G01*
X54884500Y-21792250D02*
X54884500Y-20879750D01*
G75*
G02*
X55128250Y-20636000I243750J0D01*
G01*
X55615750Y-20636000D01*
G75*
G02*
X55859500Y-20879750I0J-243750D01*
G01*
X55859500Y-21792250D01*
G75*
G02*
X55615750Y-22036000I-243750J0D01*
G01*
X55128250Y-22036000D01*
G75*
G02*
X54884500Y-21792250I0J243750D01*
G01*
G37*
G36*
G01*
X56759500Y-21792250D02*
X56759500Y-20879750D01*
G75*
G02*
X57003250Y-20636000I243750J0D01*
G01*
X57490750Y-20636000D01*
G75*
G02*
X57734500Y-20879750I0J-243750D01*
G01*
X57734500Y-21792250D01*
G75*
G02*
X57490750Y-22036000I-243750J0D01*
G01*
X57003250Y-22036000D01*
G75*
G02*
X56759500Y-21792250I0J243750D01*
G01*
G37*
G36*
G01*
X49208000Y-24505000D02*
X49208000Y-23755000D01*
G75*
G02*
X49533000Y-23430000I325000J0D01*
G01*
X50183000Y-23430000D01*
G75*
G02*
X50508000Y-23755000I0J-325000D01*
G01*
X50508000Y-24505000D01*
G75*
G02*
X50183000Y-24830000I-325000J0D01*
G01*
X49533000Y-24830000D01*
G75*
G02*
X49208000Y-24505000I0J325000D01*
G01*
G37*
G36*
G01*
X52108000Y-24505000D02*
X52108000Y-23755000D01*
G75*
G02*
X52433000Y-23430000I325000J0D01*
G01*
X53083000Y-23430000D01*
G75*
G02*
X53408000Y-23755000I0J-325000D01*
G01*
X53408000Y-24505000D01*
G75*
G02*
X53083000Y-24830000I-325000J0D01*
G01*
X52433000Y-24830000D01*
G75*
G02*
X52108000Y-24505000I0J325000D01*
G01*
G37*
G36*
G01*
X43800000Y-24505000D02*
X43800000Y-23755000D01*
G75*
G02*
X44125000Y-23430000I325000J0D01*
G01*
X44775000Y-23430000D01*
G75*
G02*
X45100000Y-23755000I0J-325000D01*
G01*
X45100000Y-24505000D01*
G75*
G02*
X44775000Y-24830000I-325000J0D01*
G01*
X44125000Y-24830000D01*
G75*
G02*
X43800000Y-24505000I0J325000D01*
G01*
G37*
G36*
G01*
X46700000Y-24505000D02*
X46700000Y-23755000D01*
G75*
G02*
X47025000Y-23430000I325000J0D01*
G01*
X47675000Y-23430000D01*
G75*
G02*
X48000000Y-23755000I0J-325000D01*
G01*
X48000000Y-24505000D01*
G75*
G02*
X47675000Y-24830000I-325000J0D01*
G01*
X47025000Y-24830000D01*
G75*
G02*
X46700000Y-24505000I0J325000D01*
G01*
G37*
G36*
G01*
X41112000Y-24505000D02*
X41112000Y-23755000D01*
G75*
G02*
X41437000Y-23430000I325000J0D01*
G01*
X42087000Y-23430000D01*
G75*
G02*
X42412000Y-23755000I0J-325000D01*
G01*
X42412000Y-24505000D01*
G75*
G02*
X42087000Y-24830000I-325000J0D01*
G01*
X41437000Y-24830000D01*
G75*
G02*
X41112000Y-24505000I0J325000D01*
G01*
G37*
G36*
G01*
X38212000Y-24505000D02*
X38212000Y-23755000D01*
G75*
G02*
X38537000Y-23430000I325000J0D01*
G01*
X39187000Y-23430000D01*
G75*
G02*
X39512000Y-23755000I0J-325000D01*
G01*
X39512000Y-24505000D01*
G75*
G02*
X39187000Y-24830000I-325000J0D01*
G01*
X38537000Y-24830000D01*
G75*
G02*
X38212000Y-24505000I0J325000D01*
G01*
G37*
G36*
G01*
X35598000Y-24505000D02*
X35598000Y-23755000D01*
G75*
G02*
X35923000Y-23430000I325000J0D01*
G01*
X36573000Y-23430000D01*
G75*
G02*
X36898000Y-23755000I0J-325000D01*
G01*
X36898000Y-24505000D01*
G75*
G02*
X36573000Y-24830000I-325000J0D01*
G01*
X35923000Y-24830000D01*
G75*
G02*
X35598000Y-24505000I0J325000D01*
G01*
G37*
G36*
G01*
X32698000Y-24505000D02*
X32698000Y-23755000D01*
G75*
G02*
X33023000Y-23430000I325000J0D01*
G01*
X33673000Y-23430000D01*
G75*
G02*
X33998000Y-23755000I0J-325000D01*
G01*
X33998000Y-24505000D01*
G75*
G02*
X33673000Y-24830000I-325000J0D01*
G01*
X33023000Y-24830000D01*
G75*
G02*
X32698000Y-24505000I0J325000D01*
G01*
G37*
G36*
G01*
X57114000Y-24505000D02*
X57114000Y-23755000D01*
G75*
G02*
X57439000Y-23430000I325000J0D01*
G01*
X58089000Y-23430000D01*
G75*
G02*
X58414000Y-23755000I0J-325000D01*
G01*
X58414000Y-24505000D01*
G75*
G02*
X58089000Y-24830000I-325000J0D01*
G01*
X57439000Y-24830000D01*
G75*
G02*
X57114000Y-24505000I0J325000D01*
G01*
G37*
G36*
G01*
X54214000Y-24505000D02*
X54214000Y-23755000D01*
G75*
G02*
X54539000Y-23430000I325000J0D01*
G01*
X55189000Y-23430000D01*
G75*
G02*
X55514000Y-23755000I0J-325000D01*
G01*
X55514000Y-24505000D01*
G75*
G02*
X55189000Y-24830000I-325000J0D01*
G01*
X54539000Y-24830000D01*
G75*
G02*
X54214000Y-24505000I0J325000D01*
G01*
G37*
D10*
X33512000Y-34732000D03*
X33512000Y-32832000D03*
X31512000Y-33782000D03*
X38116000Y-33782000D03*
X40116000Y-32832000D03*
X40116000Y-34732000D03*
X46720000Y-34732000D03*
X46720000Y-32832000D03*
X44720000Y-33782000D03*
X51578000Y-33782000D03*
X53578000Y-32832000D03*
X53578000Y-34732000D03*
X36592000Y-52390000D03*
X36592000Y-54290000D03*
X38592000Y-53340000D03*
X6080000Y-23048000D03*
X6080000Y-21148000D03*
X4080000Y-22098000D03*
X4080000Y-18288000D03*
X6080000Y-17338000D03*
X6080000Y-19238000D03*
X4080000Y-14478000D03*
X6080000Y-13528000D03*
X6080000Y-15428000D03*
G36*
G01*
X36270250Y-33332000D02*
X35357750Y-33332000D01*
G75*
G02*
X35114000Y-33088250I0J243750D01*
G01*
X35114000Y-32600750D01*
G75*
G02*
X35357750Y-32357000I243750J0D01*
G01*
X36270250Y-32357000D01*
G75*
G02*
X36514000Y-32600750I0J-243750D01*
G01*
X36514000Y-33088250D01*
G75*
G02*
X36270250Y-33332000I-243750J0D01*
G01*
G37*
G36*
G01*
X36270250Y-35207000D02*
X35357750Y-35207000D01*
G75*
G02*
X35114000Y-34963250I0J243750D01*
G01*
X35114000Y-34475750D01*
G75*
G02*
X35357750Y-34232000I243750J0D01*
G01*
X36270250Y-34232000D01*
G75*
G02*
X36514000Y-34475750I0J-243750D01*
G01*
X36514000Y-34963250D01*
G75*
G02*
X36270250Y-35207000I-243750J0D01*
G01*
G37*
G36*
G01*
X42620250Y-35207000D02*
X41707750Y-35207000D01*
G75*
G02*
X41464000Y-34963250I0J243750D01*
G01*
X41464000Y-34475750D01*
G75*
G02*
X41707750Y-34232000I243750J0D01*
G01*
X42620250Y-34232000D01*
G75*
G02*
X42864000Y-34475750I0J-243750D01*
G01*
X42864000Y-34963250D01*
G75*
G02*
X42620250Y-35207000I-243750J0D01*
G01*
G37*
G36*
G01*
X42620250Y-33332000D02*
X41707750Y-33332000D01*
G75*
G02*
X41464000Y-33088250I0J243750D01*
G01*
X41464000Y-32600750D01*
G75*
G02*
X41707750Y-32357000I243750J0D01*
G01*
X42620250Y-32357000D01*
G75*
G02*
X42864000Y-32600750I0J-243750D01*
G01*
X42864000Y-33088250D01*
G75*
G02*
X42620250Y-33332000I-243750J0D01*
G01*
G37*
G36*
G01*
X49224250Y-33332000D02*
X48311750Y-33332000D01*
G75*
G02*
X48068000Y-33088250I0J243750D01*
G01*
X48068000Y-32600750D01*
G75*
G02*
X48311750Y-32357000I243750J0D01*
G01*
X49224250Y-32357000D01*
G75*
G02*
X49468000Y-32600750I0J-243750D01*
G01*
X49468000Y-33088250D01*
G75*
G02*
X49224250Y-33332000I-243750J0D01*
G01*
G37*
G36*
G01*
X49224250Y-35207000D02*
X48311750Y-35207000D01*
G75*
G02*
X48068000Y-34963250I0J243750D01*
G01*
X48068000Y-34475750D01*
G75*
G02*
X48311750Y-34232000I243750J0D01*
G01*
X49224250Y-34232000D01*
G75*
G02*
X49468000Y-34475750I0J-243750D01*
G01*
X49468000Y-34963250D01*
G75*
G02*
X49224250Y-35207000I-243750J0D01*
G01*
G37*
G36*
G01*
X56336250Y-35207000D02*
X55423750Y-35207000D01*
G75*
G02*
X55180000Y-34963250I0J243750D01*
G01*
X55180000Y-34475750D01*
G75*
G02*
X55423750Y-34232000I243750J0D01*
G01*
X56336250Y-34232000D01*
G75*
G02*
X56580000Y-34475750I0J-243750D01*
G01*
X56580000Y-34963250D01*
G75*
G02*
X56336250Y-35207000I-243750J0D01*
G01*
G37*
G36*
G01*
X56336250Y-33332000D02*
X55423750Y-33332000D01*
G75*
G02*
X55180000Y-33088250I0J243750D01*
G01*
X55180000Y-32600750D01*
G75*
G02*
X55423750Y-32357000I243750J0D01*
G01*
X56336250Y-32357000D01*
G75*
G02*
X56580000Y-32600750I0J-243750D01*
G01*
X56580000Y-33088250D01*
G75*
G02*
X56336250Y-33332000I-243750J0D01*
G01*
G37*
G36*
G01*
X33858500Y-30277750D02*
X33858500Y-31190250D01*
G75*
G02*
X33614750Y-31434000I-243750J0D01*
G01*
X33127250Y-31434000D01*
G75*
G02*
X32883500Y-31190250I0J243750D01*
G01*
X32883500Y-30277750D01*
G75*
G02*
X33127250Y-30034000I243750J0D01*
G01*
X33614750Y-30034000D01*
G75*
G02*
X33858500Y-30277750I0J-243750D01*
G01*
G37*
G36*
G01*
X31983500Y-30277750D02*
X31983500Y-31190250D01*
G75*
G02*
X31739750Y-31434000I-243750J0D01*
G01*
X31252250Y-31434000D01*
G75*
G02*
X31008500Y-31190250I0J243750D01*
G01*
X31008500Y-30277750D01*
G75*
G02*
X31252250Y-30034000I243750J0D01*
G01*
X31739750Y-30034000D01*
G75*
G02*
X31983500Y-30277750I0J-243750D01*
G01*
G37*
G36*
G01*
X38666000Y-30277750D02*
X38666000Y-31190250D01*
G75*
G02*
X38422250Y-31434000I-243750J0D01*
G01*
X37934750Y-31434000D01*
G75*
G02*
X37691000Y-31190250I0J243750D01*
G01*
X37691000Y-30277750D01*
G75*
G02*
X37934750Y-30034000I243750J0D01*
G01*
X38422250Y-30034000D01*
G75*
G02*
X38666000Y-30277750I0J-243750D01*
G01*
G37*
G36*
G01*
X40541000Y-30277750D02*
X40541000Y-31190250D01*
G75*
G02*
X40297250Y-31434000I-243750J0D01*
G01*
X39809750Y-31434000D01*
G75*
G02*
X39566000Y-31190250I0J243750D01*
G01*
X39566000Y-30277750D01*
G75*
G02*
X39809750Y-30034000I243750J0D01*
G01*
X40297250Y-30034000D01*
G75*
G02*
X40541000Y-30277750I0J-243750D01*
G01*
G37*
G36*
G01*
X47223500Y-30277750D02*
X47223500Y-31190250D01*
G75*
G02*
X46979750Y-31434000I-243750J0D01*
G01*
X46492250Y-31434000D01*
G75*
G02*
X46248500Y-31190250I0J243750D01*
G01*
X46248500Y-30277750D01*
G75*
G02*
X46492250Y-30034000I243750J0D01*
G01*
X46979750Y-30034000D01*
G75*
G02*
X47223500Y-30277750I0J-243750D01*
G01*
G37*
G36*
G01*
X45348500Y-30277750D02*
X45348500Y-31190250D01*
G75*
G02*
X45104750Y-31434000I-243750J0D01*
G01*
X44617250Y-31434000D01*
G75*
G02*
X44373500Y-31190250I0J243750D01*
G01*
X44373500Y-30277750D01*
G75*
G02*
X44617250Y-30034000I243750J0D01*
G01*
X45104750Y-30034000D01*
G75*
G02*
X45348500Y-30277750I0J-243750D01*
G01*
G37*
G36*
G01*
X52128000Y-30277750D02*
X52128000Y-31190250D01*
G75*
G02*
X51884250Y-31434000I-243750J0D01*
G01*
X51396750Y-31434000D01*
G75*
G02*
X51153000Y-31190250I0J243750D01*
G01*
X51153000Y-30277750D01*
G75*
G02*
X51396750Y-30034000I243750J0D01*
G01*
X51884250Y-30034000D01*
G75*
G02*
X52128000Y-30277750I0J-243750D01*
G01*
G37*
G36*
G01*
X54003000Y-30277750D02*
X54003000Y-31190250D01*
G75*
G02*
X53759250Y-31434000I-243750J0D01*
G01*
X53271750Y-31434000D01*
G75*
G02*
X53028000Y-31190250I0J243750D01*
G01*
X53028000Y-30277750D01*
G75*
G02*
X53271750Y-30034000I243750J0D01*
G01*
X53759250Y-30034000D01*
G75*
G02*
X54003000Y-30277750I0J-243750D01*
G01*
G37*
G36*
G01*
X34445000Y-51867750D02*
X34445000Y-52780250D01*
G75*
G02*
X34201250Y-53024000I-243750J0D01*
G01*
X33713750Y-53024000D01*
G75*
G02*
X33470000Y-52780250I0J243750D01*
G01*
X33470000Y-51867750D01*
G75*
G02*
X33713750Y-51624000I243750J0D01*
G01*
X34201250Y-51624000D01*
G75*
G02*
X34445000Y-51867750I0J-243750D01*
G01*
G37*
G36*
G01*
X32570000Y-51867750D02*
X32570000Y-52780250D01*
G75*
G02*
X32326250Y-53024000I-243750J0D01*
G01*
X31838750Y-53024000D01*
G75*
G02*
X31595000Y-52780250I0J243750D01*
G01*
X31595000Y-51867750D01*
G75*
G02*
X31838750Y-51624000I243750J0D01*
G01*
X32326250Y-51624000D01*
G75*
G02*
X32570000Y-51867750I0J-243750D01*
G01*
G37*
G36*
G01*
X10108250Y-22664000D02*
X9195750Y-22664000D01*
G75*
G02*
X8952000Y-22420250I0J243750D01*
G01*
X8952000Y-21932750D01*
G75*
G02*
X9195750Y-21689000I243750J0D01*
G01*
X10108250Y-21689000D01*
G75*
G02*
X10352000Y-21932750I0J-243750D01*
G01*
X10352000Y-22420250D01*
G75*
G02*
X10108250Y-22664000I-243750J0D01*
G01*
G37*
G36*
G01*
X10108250Y-24539000D02*
X9195750Y-24539000D01*
G75*
G02*
X8952000Y-24295250I0J243750D01*
G01*
X8952000Y-23807750D01*
G75*
G02*
X9195750Y-23564000I243750J0D01*
G01*
X10108250Y-23564000D01*
G75*
G02*
X10352000Y-23807750I0J-243750D01*
G01*
X10352000Y-24295250D01*
G75*
G02*
X10108250Y-24539000I-243750J0D01*
G01*
G37*
G36*
G01*
X10108250Y-20475000D02*
X9195750Y-20475000D01*
G75*
G02*
X8952000Y-20231250I0J243750D01*
G01*
X8952000Y-19743750D01*
G75*
G02*
X9195750Y-19500000I243750J0D01*
G01*
X10108250Y-19500000D01*
G75*
G02*
X10352000Y-19743750I0J-243750D01*
G01*
X10352000Y-20231250D01*
G75*
G02*
X10108250Y-20475000I-243750J0D01*
G01*
G37*
G36*
G01*
X10108250Y-18600000D02*
X9195750Y-18600000D01*
G75*
G02*
X8952000Y-18356250I0J243750D01*
G01*
X8952000Y-17868750D01*
G75*
G02*
X9195750Y-17625000I243750J0D01*
G01*
X10108250Y-17625000D01*
G75*
G02*
X10352000Y-17868750I0J-243750D01*
G01*
X10352000Y-18356250D01*
G75*
G02*
X10108250Y-18600000I-243750J0D01*
G01*
G37*
G36*
G01*
X10108250Y-14536000D02*
X9195750Y-14536000D01*
G75*
G02*
X8952000Y-14292250I0J243750D01*
G01*
X8952000Y-13804750D01*
G75*
G02*
X9195750Y-13561000I243750J0D01*
G01*
X10108250Y-13561000D01*
G75*
G02*
X10352000Y-13804750I0J-243750D01*
G01*
X10352000Y-14292250D01*
G75*
G02*
X10108250Y-14536000I-243750J0D01*
G01*
G37*
G36*
G01*
X10108250Y-16411000D02*
X9195750Y-16411000D01*
G75*
G02*
X8952000Y-16167250I0J243750D01*
G01*
X8952000Y-15679750D01*
G75*
G02*
X9195750Y-15436000I243750J0D01*
G01*
X10108250Y-15436000D01*
G75*
G02*
X10352000Y-15679750I0J-243750D01*
G01*
X10352000Y-16167250D01*
G75*
G02*
X10108250Y-16411000I-243750J0D01*
G01*
G37*
G36*
G01*
X25197750Y-12974500D02*
X26110250Y-12974500D01*
G75*
G02*
X26354000Y-13218250I0J-243750D01*
G01*
X26354000Y-13705750D01*
G75*
G02*
X26110250Y-13949500I-243750J0D01*
G01*
X25197750Y-13949500D01*
G75*
G02*
X24954000Y-13705750I0J243750D01*
G01*
X24954000Y-13218250D01*
G75*
G02*
X25197750Y-12974500I243750J0D01*
G01*
G37*
G36*
G01*
X25197750Y-14849500D02*
X26110250Y-14849500D01*
G75*
G02*
X26354000Y-15093250I0J-243750D01*
G01*
X26354000Y-15580750D01*
G75*
G02*
X26110250Y-15824500I-243750J0D01*
G01*
X25197750Y-15824500D01*
G75*
G02*
X24954000Y-15580750I0J243750D01*
G01*
X24954000Y-15093250D01*
G75*
G02*
X25197750Y-14849500I243750J0D01*
G01*
G37*
G36*
G01*
X22657750Y-14752500D02*
X23570250Y-14752500D01*
G75*
G02*
X23814000Y-14996250I0J-243750D01*
G01*
X23814000Y-15483750D01*
G75*
G02*
X23570250Y-15727500I-243750J0D01*
G01*
X22657750Y-15727500D01*
G75*
G02*
X22414000Y-15483750I0J243750D01*
G01*
X22414000Y-14996250D01*
G75*
G02*
X22657750Y-14752500I243750J0D01*
G01*
G37*
G36*
G01*
X22657750Y-12877500D02*
X23570250Y-12877500D01*
G75*
G02*
X23814000Y-13121250I0J-243750D01*
G01*
X23814000Y-13608750D01*
G75*
G02*
X23570250Y-13852500I-243750J0D01*
G01*
X22657750Y-13852500D01*
G75*
G02*
X22414000Y-13608750I0J243750D01*
G01*
X22414000Y-13121250D01*
G75*
G02*
X22657750Y-12877500I243750J0D01*
G01*
G37*
G36*
G01*
X20117750Y-12799000D02*
X21030250Y-12799000D01*
G75*
G02*
X21274000Y-13042750I0J-243750D01*
G01*
X21274000Y-13530250D01*
G75*
G02*
X21030250Y-13774000I-243750J0D01*
G01*
X20117750Y-13774000D01*
G75*
G02*
X19874000Y-13530250I0J243750D01*
G01*
X19874000Y-13042750D01*
G75*
G02*
X20117750Y-12799000I243750J0D01*
G01*
G37*
G36*
G01*
X20117750Y-14674000D02*
X21030250Y-14674000D01*
G75*
G02*
X21274000Y-14917750I0J-243750D01*
G01*
X21274000Y-15405250D01*
G75*
G02*
X21030250Y-15649000I-243750J0D01*
G01*
X20117750Y-15649000D01*
G75*
G02*
X19874000Y-15405250I0J243750D01*
G01*
X19874000Y-14917750D01*
G75*
G02*
X20117750Y-14674000I243750J0D01*
G01*
G37*
G36*
G01*
X17323750Y-14674000D02*
X18236250Y-14674000D01*
G75*
G02*
X18480000Y-14917750I0J-243750D01*
G01*
X18480000Y-15405250D01*
G75*
G02*
X18236250Y-15649000I-243750J0D01*
G01*
X17323750Y-15649000D01*
G75*
G02*
X17080000Y-15405250I0J243750D01*
G01*
X17080000Y-14917750D01*
G75*
G02*
X17323750Y-14674000I243750J0D01*
G01*
G37*
G36*
G01*
X17323750Y-12799000D02*
X18236250Y-12799000D01*
G75*
G02*
X18480000Y-13042750I0J-243750D01*
G01*
X18480000Y-13530250D01*
G75*
G02*
X18236250Y-13774000I-243750J0D01*
G01*
X17323750Y-13774000D01*
G75*
G02*
X17080000Y-13530250I0J243750D01*
G01*
X17080000Y-13042750D01*
G75*
G02*
X17323750Y-12799000I243750J0D01*
G01*
G37*
G36*
G01*
X49707500Y-16712250D02*
X49707500Y-15799750D01*
G75*
G02*
X49951250Y-15556000I243750J0D01*
G01*
X50438750Y-15556000D01*
G75*
G02*
X50682500Y-15799750I0J-243750D01*
G01*
X50682500Y-16712250D01*
G75*
G02*
X50438750Y-16956000I-243750J0D01*
G01*
X49951250Y-16956000D01*
G75*
G02*
X49707500Y-16712250I0J243750D01*
G01*
G37*
G36*
G01*
X51582500Y-16712250D02*
X51582500Y-15799750D01*
G75*
G02*
X51826250Y-15556000I243750J0D01*
G01*
X52313750Y-15556000D01*
G75*
G02*
X52557500Y-15799750I0J-243750D01*
G01*
X52557500Y-16712250D01*
G75*
G02*
X52313750Y-16956000I-243750J0D01*
G01*
X51826250Y-16956000D01*
G75*
G02*
X51582500Y-16712250I0J243750D01*
G01*
G37*
G36*
G01*
X44295000Y-16712250D02*
X44295000Y-15799750D01*
G75*
G02*
X44538750Y-15556000I243750J0D01*
G01*
X45026250Y-15556000D01*
G75*
G02*
X45270000Y-15799750I0J-243750D01*
G01*
X45270000Y-16712250D01*
G75*
G02*
X45026250Y-16956000I-243750J0D01*
G01*
X44538750Y-16956000D01*
G75*
G02*
X44295000Y-16712250I0J243750D01*
G01*
G37*
G36*
G01*
X46170000Y-16712250D02*
X46170000Y-15799750D01*
G75*
G02*
X46413750Y-15556000I243750J0D01*
G01*
X46901250Y-15556000D01*
G75*
G02*
X47145000Y-15799750I0J-243750D01*
G01*
X47145000Y-16712250D01*
G75*
G02*
X46901250Y-16956000I-243750J0D01*
G01*
X46413750Y-16956000D01*
G75*
G02*
X46170000Y-16712250I0J243750D01*
G01*
G37*
G36*
G01*
X41011500Y-16712250D02*
X41011500Y-15799750D01*
G75*
G02*
X41255250Y-15556000I243750J0D01*
G01*
X41742750Y-15556000D01*
G75*
G02*
X41986500Y-15799750I0J-243750D01*
G01*
X41986500Y-16712250D01*
G75*
G02*
X41742750Y-16956000I-243750J0D01*
G01*
X41255250Y-16956000D01*
G75*
G02*
X41011500Y-16712250I0J243750D01*
G01*
G37*
G36*
G01*
X39136500Y-16712250D02*
X39136500Y-15799750D01*
G75*
G02*
X39380250Y-15556000I243750J0D01*
G01*
X39867750Y-15556000D01*
G75*
G02*
X40111500Y-15799750I0J-243750D01*
G01*
X40111500Y-16712250D01*
G75*
G02*
X39867750Y-16956000I-243750J0D01*
G01*
X39380250Y-16956000D01*
G75*
G02*
X39136500Y-16712250I0J243750D01*
G01*
G37*
G36*
G01*
X35072500Y-17474250D02*
X35072500Y-16561750D01*
G75*
G02*
X35316250Y-16318000I243750J0D01*
G01*
X35803750Y-16318000D01*
G75*
G02*
X36047500Y-16561750I0J-243750D01*
G01*
X36047500Y-17474250D01*
G75*
G02*
X35803750Y-17718000I-243750J0D01*
G01*
X35316250Y-17718000D01*
G75*
G02*
X35072500Y-17474250I0J243750D01*
G01*
G37*
G36*
G01*
X33197500Y-17474250D02*
X33197500Y-16561750D01*
G75*
G02*
X33441250Y-16318000I243750J0D01*
G01*
X33928750Y-16318000D01*
G75*
G02*
X34172500Y-16561750I0J-243750D01*
G01*
X34172500Y-17474250D01*
G75*
G02*
X33928750Y-17718000I-243750J0D01*
G01*
X33441250Y-17718000D01*
G75*
G02*
X33197500Y-17474250I0J243750D01*
G01*
G37*
G36*
G01*
X52654500Y-18339750D02*
X52654500Y-19252250D01*
G75*
G02*
X52410750Y-19496000I-243750J0D01*
G01*
X51923250Y-19496000D01*
G75*
G02*
X51679500Y-19252250I0J243750D01*
G01*
X51679500Y-18339750D01*
G75*
G02*
X51923250Y-18096000I243750J0D01*
G01*
X52410750Y-18096000D01*
G75*
G02*
X52654500Y-18339750I0J-243750D01*
G01*
G37*
G36*
G01*
X50779500Y-18339750D02*
X50779500Y-19252250D01*
G75*
G02*
X50535750Y-19496000I-243750J0D01*
G01*
X50048250Y-19496000D01*
G75*
G02*
X49804500Y-19252250I0J243750D01*
G01*
X49804500Y-18339750D01*
G75*
G02*
X50048250Y-18096000I243750J0D01*
G01*
X50535750Y-18096000D01*
G75*
G02*
X50779500Y-18339750I0J-243750D01*
G01*
G37*
G36*
G01*
X45270000Y-18339750D02*
X45270000Y-19252250D01*
G75*
G02*
X45026250Y-19496000I-243750J0D01*
G01*
X44538750Y-19496000D01*
G75*
G02*
X44295000Y-19252250I0J243750D01*
G01*
X44295000Y-18339750D01*
G75*
G02*
X44538750Y-18096000I243750J0D01*
G01*
X45026250Y-18096000D01*
G75*
G02*
X45270000Y-18339750I0J-243750D01*
G01*
G37*
G36*
G01*
X47145000Y-18339750D02*
X47145000Y-19252250D01*
G75*
G02*
X46901250Y-19496000I-243750J0D01*
G01*
X46413750Y-19496000D01*
G75*
G02*
X46170000Y-19252250I0J243750D01*
G01*
X46170000Y-18339750D01*
G75*
G02*
X46413750Y-18096000I243750J0D01*
G01*
X46901250Y-18096000D01*
G75*
G02*
X47145000Y-18339750I0J-243750D01*
G01*
G37*
G36*
G01*
X42065000Y-18339750D02*
X42065000Y-19252250D01*
G75*
G02*
X41821250Y-19496000I-243750J0D01*
G01*
X41333750Y-19496000D01*
G75*
G02*
X41090000Y-19252250I0J243750D01*
G01*
X41090000Y-18339750D01*
G75*
G02*
X41333750Y-18096000I243750J0D01*
G01*
X41821250Y-18096000D01*
G75*
G02*
X42065000Y-18339750I0J-243750D01*
G01*
G37*
G36*
G01*
X40190000Y-18339750D02*
X40190000Y-19252250D01*
G75*
G02*
X39946250Y-19496000I-243750J0D01*
G01*
X39458750Y-19496000D01*
G75*
G02*
X39215000Y-19252250I0J243750D01*
G01*
X39215000Y-18339750D01*
G75*
G02*
X39458750Y-18096000I243750J0D01*
G01*
X39946250Y-18096000D01*
G75*
G02*
X40190000Y-18339750I0J-243750D01*
G01*
G37*
G36*
G01*
X36223000Y-18847750D02*
X36223000Y-19760250D01*
G75*
G02*
X35979250Y-20004000I-243750J0D01*
G01*
X35491750Y-20004000D01*
G75*
G02*
X35248000Y-19760250I0J243750D01*
G01*
X35248000Y-18847750D01*
G75*
G02*
X35491750Y-18604000I243750J0D01*
G01*
X35979250Y-18604000D01*
G75*
G02*
X36223000Y-18847750I0J-243750D01*
G01*
G37*
G36*
G01*
X34348000Y-18847750D02*
X34348000Y-19760250D01*
G75*
G02*
X34104250Y-20004000I-243750J0D01*
G01*
X33616750Y-20004000D01*
G75*
G02*
X33373000Y-19760250I0J243750D01*
G01*
X33373000Y-18847750D01*
G75*
G02*
X33616750Y-18604000I243750J0D01*
G01*
X34104250Y-18604000D01*
G75*
G02*
X34348000Y-18847750I0J-243750D01*
G01*
G37*
G36*
G01*
X56838000Y-16712250D02*
X56838000Y-15799750D01*
G75*
G02*
X57081750Y-15556000I243750J0D01*
G01*
X57569250Y-15556000D01*
G75*
G02*
X57813000Y-15799750I0J-243750D01*
G01*
X57813000Y-16712250D01*
G75*
G02*
X57569250Y-16956000I-243750J0D01*
G01*
X57081750Y-16956000D01*
G75*
G02*
X56838000Y-16712250I0J243750D01*
G01*
G37*
G36*
G01*
X54963000Y-16712250D02*
X54963000Y-15799750D01*
G75*
G02*
X55206750Y-15556000I243750J0D01*
G01*
X55694250Y-15556000D01*
G75*
G02*
X55938000Y-15799750I0J-243750D01*
G01*
X55938000Y-16712250D01*
G75*
G02*
X55694250Y-16956000I-243750J0D01*
G01*
X55206750Y-16956000D01*
G75*
G02*
X54963000Y-16712250I0J243750D01*
G01*
G37*
G36*
G01*
X57813000Y-18339750D02*
X57813000Y-19252250D01*
G75*
G02*
X57569250Y-19496000I-243750J0D01*
G01*
X57081750Y-19496000D01*
G75*
G02*
X56838000Y-19252250I0J243750D01*
G01*
X56838000Y-18339750D01*
G75*
G02*
X57081750Y-18096000I243750J0D01*
G01*
X57569250Y-18096000D01*
G75*
G02*
X57813000Y-18339750I0J-243750D01*
G01*
G37*
G36*
G01*
X55938000Y-18339750D02*
X55938000Y-19252250D01*
G75*
G02*
X55694250Y-19496000I-243750J0D01*
G01*
X55206750Y-19496000D01*
G75*
G02*
X54963000Y-19252250I0J243750D01*
G01*
X54963000Y-18339750D01*
G75*
G02*
X55206750Y-18096000I243750J0D01*
G01*
X55694250Y-18096000D01*
G75*
G02*
X55938000Y-18339750I0J-243750D01*
G01*
G37*
G36*
G01*
X17041000Y-26802000D02*
X16741000Y-26802000D01*
G75*
G02*
X16591000Y-26652000I0J150000D01*
G01*
X16591000Y-24977000D01*
G75*
G02*
X16741000Y-24827000I150000J0D01*
G01*
X17041000Y-24827000D01*
G75*
G02*
X17191000Y-24977000I0J-150000D01*
G01*
X17191000Y-26652000D01*
G75*
G02*
X17041000Y-26802000I-150000J0D01*
G01*
G37*
G36*
G01*
X18311000Y-26802000D02*
X18011000Y-26802000D01*
G75*
G02*
X17861000Y-26652000I0J150000D01*
G01*
X17861000Y-24977000D01*
G75*
G02*
X18011000Y-24827000I150000J0D01*
G01*
X18311000Y-24827000D01*
G75*
G02*
X18461000Y-24977000I0J-150000D01*
G01*
X18461000Y-26652000D01*
G75*
G02*
X18311000Y-26802000I-150000J0D01*
G01*
G37*
G36*
G01*
X19581000Y-26802000D02*
X19281000Y-26802000D01*
G75*
G02*
X19131000Y-26652000I0J150000D01*
G01*
X19131000Y-24977000D01*
G75*
G02*
X19281000Y-24827000I150000J0D01*
G01*
X19581000Y-24827000D01*
G75*
G02*
X19731000Y-24977000I0J-150000D01*
G01*
X19731000Y-26652000D01*
G75*
G02*
X19581000Y-26802000I-150000J0D01*
G01*
G37*
G36*
G01*
X20851000Y-26802000D02*
X20551000Y-26802000D01*
G75*
G02*
X20401000Y-26652000I0J150000D01*
G01*
X20401000Y-24977000D01*
G75*
G02*
X20551000Y-24827000I150000J0D01*
G01*
X20851000Y-24827000D01*
G75*
G02*
X21001000Y-24977000I0J-150000D01*
G01*
X21001000Y-26652000D01*
G75*
G02*
X20851000Y-26802000I-150000J0D01*
G01*
G37*
G36*
G01*
X22121000Y-26802000D02*
X21821000Y-26802000D01*
G75*
G02*
X21671000Y-26652000I0J150000D01*
G01*
X21671000Y-24977000D01*
G75*
G02*
X21821000Y-24827000I150000J0D01*
G01*
X22121000Y-24827000D01*
G75*
G02*
X22271000Y-24977000I0J-150000D01*
G01*
X22271000Y-26652000D01*
G75*
G02*
X22121000Y-26802000I-150000J0D01*
G01*
G37*
G36*
G01*
X23391000Y-26802000D02*
X23091000Y-26802000D01*
G75*
G02*
X22941000Y-26652000I0J150000D01*
G01*
X22941000Y-24977000D01*
G75*
G02*
X23091000Y-24827000I150000J0D01*
G01*
X23391000Y-24827000D01*
G75*
G02*
X23541000Y-24977000I0J-150000D01*
G01*
X23541000Y-26652000D01*
G75*
G02*
X23391000Y-26802000I-150000J0D01*
G01*
G37*
G36*
G01*
X24661000Y-26802000D02*
X24361000Y-26802000D01*
G75*
G02*
X24211000Y-26652000I0J150000D01*
G01*
X24211000Y-24977000D01*
G75*
G02*
X24361000Y-24827000I150000J0D01*
G01*
X24661000Y-24827000D01*
G75*
G02*
X24811000Y-24977000I0J-150000D01*
G01*
X24811000Y-26652000D01*
G75*
G02*
X24661000Y-26802000I-150000J0D01*
G01*
G37*
G36*
G01*
X25931000Y-26802000D02*
X25631000Y-26802000D01*
G75*
G02*
X25481000Y-26652000I0J150000D01*
G01*
X25481000Y-24977000D01*
G75*
G02*
X25631000Y-24827000I150000J0D01*
G01*
X25931000Y-24827000D01*
G75*
G02*
X26081000Y-24977000I0J-150000D01*
G01*
X26081000Y-26652000D01*
G75*
G02*
X25931000Y-26802000I-150000J0D01*
G01*
G37*
G36*
G01*
X25931000Y-19877000D02*
X25631000Y-19877000D01*
G75*
G02*
X25481000Y-19727000I0J150000D01*
G01*
X25481000Y-18052000D01*
G75*
G02*
X25631000Y-17902000I150000J0D01*
G01*
X25931000Y-17902000D01*
G75*
G02*
X26081000Y-18052000I0J-150000D01*
G01*
X26081000Y-19727000D01*
G75*
G02*
X25931000Y-19877000I-150000J0D01*
G01*
G37*
G36*
G01*
X24661000Y-19877000D02*
X24361000Y-19877000D01*
G75*
G02*
X24211000Y-19727000I0J150000D01*
G01*
X24211000Y-18052000D01*
G75*
G02*
X24361000Y-17902000I150000J0D01*
G01*
X24661000Y-17902000D01*
G75*
G02*
X24811000Y-18052000I0J-150000D01*
G01*
X24811000Y-19727000D01*
G75*
G02*
X24661000Y-19877000I-150000J0D01*
G01*
G37*
G36*
G01*
X23391000Y-19877000D02*
X23091000Y-19877000D01*
G75*
G02*
X22941000Y-19727000I0J150000D01*
G01*
X22941000Y-18052000D01*
G75*
G02*
X23091000Y-17902000I150000J0D01*
G01*
X23391000Y-17902000D01*
G75*
G02*
X23541000Y-18052000I0J-150000D01*
G01*
X23541000Y-19727000D01*
G75*
G02*
X23391000Y-19877000I-150000J0D01*
G01*
G37*
G36*
G01*
X22121000Y-19877000D02*
X21821000Y-19877000D01*
G75*
G02*
X21671000Y-19727000I0J150000D01*
G01*
X21671000Y-18052000D01*
G75*
G02*
X21821000Y-17902000I150000J0D01*
G01*
X22121000Y-17902000D01*
G75*
G02*
X22271000Y-18052000I0J-150000D01*
G01*
X22271000Y-19727000D01*
G75*
G02*
X22121000Y-19877000I-150000J0D01*
G01*
G37*
G36*
G01*
X20851000Y-19877000D02*
X20551000Y-19877000D01*
G75*
G02*
X20401000Y-19727000I0J150000D01*
G01*
X20401000Y-18052000D01*
G75*
G02*
X20551000Y-17902000I150000J0D01*
G01*
X20851000Y-17902000D01*
G75*
G02*
X21001000Y-18052000I0J-150000D01*
G01*
X21001000Y-19727000D01*
G75*
G02*
X20851000Y-19877000I-150000J0D01*
G01*
G37*
G36*
G01*
X19581000Y-19877000D02*
X19281000Y-19877000D01*
G75*
G02*
X19131000Y-19727000I0J150000D01*
G01*
X19131000Y-18052000D01*
G75*
G02*
X19281000Y-17902000I150000J0D01*
G01*
X19581000Y-17902000D01*
G75*
G02*
X19731000Y-18052000I0J-150000D01*
G01*
X19731000Y-19727000D01*
G75*
G02*
X19581000Y-19877000I-150000J0D01*
G01*
G37*
G36*
G01*
X18311000Y-19877000D02*
X18011000Y-19877000D01*
G75*
G02*
X17861000Y-19727000I0J150000D01*
G01*
X17861000Y-18052000D01*
G75*
G02*
X18011000Y-17902000I150000J0D01*
G01*
X18311000Y-17902000D01*
G75*
G02*
X18461000Y-18052000I0J-150000D01*
G01*
X18461000Y-19727000D01*
G75*
G02*
X18311000Y-19877000I-150000J0D01*
G01*
G37*
G36*
G01*
X17041000Y-19877000D02*
X16741000Y-19877000D01*
G75*
G02*
X16591000Y-19727000I0J150000D01*
G01*
X16591000Y-18052000D01*
G75*
G02*
X16741000Y-17902000I150000J0D01*
G01*
X17041000Y-17902000D01*
G75*
G02*
X17191000Y-18052000I0J-150000D01*
G01*
X17191000Y-19727000D01*
G75*
G02*
X17041000Y-19877000I-150000J0D01*
G01*
G37*
M02*
