M48
; DRILL file {KiCad (5.1.6-0-10_14)} date Thursday, July 23, 2020 at 03:18:15 PM
; FORMAT={3:3/ absolute / metric / suppress leading zeros}
; #@! TF.CreationDate,2020-07-23T15:18:16-04:00
; #@! TF.GenerationSoftware,Kicad,Pcbnew,(5.1.6-0-10_14)
FMAT,2
METRIC,TZ
T1C0.400
T2C1.000
T3C1.100
T4C1.150
T5C3.175
%
G90
G05
T1
X1778Y-12446
X2824Y-18603
X3307Y-15789
X3810Y-11938
X6350Y-26670
X6604Y-10414
X7620Y-22098
X9319Y-32179
X16982Y-23404
X19050Y-28448
X19558Y-23876
X24892Y-42164
X27432Y-31750
X28702Y-39370
X30988Y-24638
X32004Y-17018
X33274Y-29210
X36068Y-26924
X36226Y-15336
X37592Y-15494
X38359Y-26919
X41402Y-29464
X42423Y-46233
X43180Y-15494
X43180Y-22352
X45974Y-20066
X45974Y-28956
X46736Y-47752
X46990Y-10668
X48514Y-15494
X53340Y-28956
X53848Y-14478
T2
X8502Y-39370
X20902Y-42270
X20902Y-44770
X23502Y-39370
X18034Y-10668
X20574Y-10668
X23114Y-10668
X25654Y-10668
X28194Y-10668
X30734Y-10668
X33274Y-10668
X35814Y-10668
X38354Y-10668
T3
X18542Y-53594
X28702Y-53594
X2540Y-27178
X2540Y-37338
T4
X35560Y-41910
X35560Y-44450
X38100Y-41910
X38100Y-44450
X40640Y-41910
X40640Y-44450
X43180Y-41910
X43180Y-44450
X45720Y-41910
X45720Y-44450
X48260Y-41910
X48260Y-44450
X50800Y-41910
X50800Y-44450
X53340Y-41910
X53340Y-44450
T5
X-3810Y-6350
X63500Y-50800
X63500Y-6350
X-3810Y-50800
T0
M30
