G04 #@! TF.GenerationSoftware,KiCad,Pcbnew,(5.1.6-0-10_14)*
G04 #@! TF.CreationDate,2020-07-24T12:42:11-04:00*
G04 #@! TF.ProjectId,Pufferfish-Interface-2,50756666-6572-4666-9973-682d496e7465,rev?*
G04 #@! TF.SameCoordinates,Original*
G04 #@! TF.FileFunction,Paste,Top*
G04 #@! TF.FilePolarity,Positive*
%FSLAX46Y46*%
G04 Gerber Fmt 4.6, Leading zero omitted, Abs format (unit mm)*
G04 Created by KiCad (PCBNEW (5.1.6-0-10_14)) date 2020-07-24 12:42:11*
%MOMM*%
%LPD*%
G01*
G04 APERTURE LIST*
%ADD10R,0.900000X0.800000*%
G04 APERTURE END LIST*
G36*
G01*
X15261910Y-12768160D02*
X14349410Y-12768160D01*
G75*
G02*
X14105660Y-12524410I0J243750D01*
G01*
X14105660Y-12036910D01*
G75*
G02*
X14349410Y-11793160I243750J0D01*
G01*
X15261910Y-11793160D01*
G75*
G02*
X15505660Y-12036910I0J-243750D01*
G01*
X15505660Y-12524410D01*
G75*
G02*
X15261910Y-12768160I-243750J0D01*
G01*
G37*
G36*
G01*
X15261910Y-14643160D02*
X14349410Y-14643160D01*
G75*
G02*
X14105660Y-14399410I0J243750D01*
G01*
X14105660Y-13911910D01*
G75*
G02*
X14349410Y-13668160I243750J0D01*
G01*
X15261910Y-13668160D01*
G75*
G02*
X15505660Y-13911910I0J-243750D01*
G01*
X15505660Y-14399410D01*
G75*
G02*
X15261910Y-14643160I-243750J0D01*
G01*
G37*
G36*
G01*
X19463600Y-15609250D02*
X19463600Y-16521750D01*
G75*
G02*
X19219850Y-16765500I-243750J0D01*
G01*
X18732350Y-16765500D01*
G75*
G02*
X18488600Y-16521750I0J243750D01*
G01*
X18488600Y-15609250D01*
G75*
G02*
X18732350Y-15365500I243750J0D01*
G01*
X19219850Y-15365500D01*
G75*
G02*
X19463600Y-15609250I0J-243750D01*
G01*
G37*
G36*
G01*
X21338600Y-15609250D02*
X21338600Y-16521750D01*
G75*
G02*
X21094850Y-16765500I-243750J0D01*
G01*
X20607350Y-16765500D01*
G75*
G02*
X20363600Y-16521750I0J243750D01*
G01*
X20363600Y-15609250D01*
G75*
G02*
X20607350Y-15365500I243750J0D01*
G01*
X21094850Y-15365500D01*
G75*
G02*
X21338600Y-15609250I0J-243750D01*
G01*
G37*
G36*
G01*
X23456480Y-15830230D02*
X23456480Y-16742730D01*
G75*
G02*
X23212730Y-16986480I-243750J0D01*
G01*
X22725230Y-16986480D01*
G75*
G02*
X22481480Y-16742730I0J243750D01*
G01*
X22481480Y-15830230D01*
G75*
G02*
X22725230Y-15586480I243750J0D01*
G01*
X23212730Y-15586480D01*
G75*
G02*
X23456480Y-15830230I0J-243750D01*
G01*
G37*
G36*
G01*
X25331480Y-15830230D02*
X25331480Y-16742730D01*
G75*
G02*
X25087730Y-16986480I-243750J0D01*
G01*
X24600230Y-16986480D01*
G75*
G02*
X24356480Y-16742730I0J243750D01*
G01*
X24356480Y-15830230D01*
G75*
G02*
X24600230Y-15586480I243750J0D01*
G01*
X25087730Y-15586480D01*
G75*
G02*
X25331480Y-15830230I0J-243750D01*
G01*
G37*
G36*
G01*
X28327670Y-15318320D02*
X27415170Y-15318320D01*
G75*
G02*
X27171420Y-15074570I0J243750D01*
G01*
X27171420Y-14587070D01*
G75*
G02*
X27415170Y-14343320I243750J0D01*
G01*
X28327670Y-14343320D01*
G75*
G02*
X28571420Y-14587070I0J-243750D01*
G01*
X28571420Y-15074570D01*
G75*
G02*
X28327670Y-15318320I-243750J0D01*
G01*
G37*
G36*
G01*
X28327670Y-17193320D02*
X27415170Y-17193320D01*
G75*
G02*
X27171420Y-16949570I0J243750D01*
G01*
X27171420Y-16462070D01*
G75*
G02*
X27415170Y-16218320I243750J0D01*
G01*
X28327670Y-16218320D01*
G75*
G02*
X28571420Y-16462070I0J-243750D01*
G01*
X28571420Y-16949570D01*
G75*
G02*
X28327670Y-17193320I-243750J0D01*
G01*
G37*
G36*
G01*
X13469200Y-16099470D02*
X13469200Y-17011970D01*
G75*
G02*
X13225450Y-17255720I-243750J0D01*
G01*
X12737950Y-17255720D01*
G75*
G02*
X12494200Y-17011970I0J243750D01*
G01*
X12494200Y-16099470D01*
G75*
G02*
X12737950Y-15855720I243750J0D01*
G01*
X13225450Y-15855720D01*
G75*
G02*
X13469200Y-16099470I0J-243750D01*
G01*
G37*
G36*
G01*
X15344200Y-16099470D02*
X15344200Y-17011970D01*
G75*
G02*
X15100450Y-17255720I-243750J0D01*
G01*
X14612950Y-17255720D01*
G75*
G02*
X14369200Y-17011970I0J243750D01*
G01*
X14369200Y-16099470D01*
G75*
G02*
X14612950Y-15855720I243750J0D01*
G01*
X15100450Y-15855720D01*
G75*
G02*
X15344200Y-16099470I0J-243750D01*
G01*
G37*
G36*
G01*
X13669860Y-22739030D02*
X13669860Y-23651530D01*
G75*
G02*
X13426110Y-23895280I-243750J0D01*
G01*
X12938610Y-23895280D01*
G75*
G02*
X12694860Y-23651530I0J243750D01*
G01*
X12694860Y-22739030D01*
G75*
G02*
X12938610Y-22495280I243750J0D01*
G01*
X13426110Y-22495280D01*
G75*
G02*
X13669860Y-22739030I0J-243750D01*
G01*
G37*
G36*
G01*
X15544860Y-22739030D02*
X15544860Y-23651530D01*
G75*
G02*
X15301110Y-23895280I-243750J0D01*
G01*
X14813610Y-23895280D01*
G75*
G02*
X14569860Y-23651530I0J243750D01*
G01*
X14569860Y-22739030D01*
G75*
G02*
X14813610Y-22495280I243750J0D01*
G01*
X15301110Y-22495280D01*
G75*
G02*
X15544860Y-22739030I0J-243750D01*
G01*
G37*
G36*
G01*
X13276160Y-19619910D02*
X13276160Y-20532410D01*
G75*
G02*
X13032410Y-20776160I-243750J0D01*
G01*
X12544910Y-20776160D01*
G75*
G02*
X12301160Y-20532410I0J243750D01*
G01*
X12301160Y-19619910D01*
G75*
G02*
X12544910Y-19376160I243750J0D01*
G01*
X13032410Y-19376160D01*
G75*
G02*
X13276160Y-19619910I0J-243750D01*
G01*
G37*
G36*
G01*
X15151160Y-19619910D02*
X15151160Y-20532410D01*
G75*
G02*
X14907410Y-20776160I-243750J0D01*
G01*
X14419910Y-20776160D01*
G75*
G02*
X14176160Y-20532410I0J243750D01*
G01*
X14176160Y-19619910D01*
G75*
G02*
X14419910Y-19376160I243750J0D01*
G01*
X14907410Y-19376160D01*
G75*
G02*
X15151160Y-19619910I0J-243750D01*
G01*
G37*
G36*
G01*
X57878030Y-43718060D02*
X56965530Y-43718060D01*
G75*
G02*
X56721780Y-43474310I0J243750D01*
G01*
X56721780Y-42986810D01*
G75*
G02*
X56965530Y-42743060I243750J0D01*
G01*
X57878030Y-42743060D01*
G75*
G02*
X58121780Y-42986810I0J-243750D01*
G01*
X58121780Y-43474310D01*
G75*
G02*
X57878030Y-43718060I-243750J0D01*
G01*
G37*
G36*
G01*
X57878030Y-45593060D02*
X56965530Y-45593060D01*
G75*
G02*
X56721780Y-45349310I0J243750D01*
G01*
X56721780Y-44861810D01*
G75*
G02*
X56965530Y-44618060I243750J0D01*
G01*
X57878030Y-44618060D01*
G75*
G02*
X58121780Y-44861810I0J-243750D01*
G01*
X58121780Y-45349310D01*
G75*
G02*
X57878030Y-45593060I-243750J0D01*
G01*
G37*
G36*
G01*
X55354640Y-52330670D02*
X55354640Y-51418170D01*
G75*
G02*
X55598390Y-51174420I243750J0D01*
G01*
X56085890Y-51174420D01*
G75*
G02*
X56329640Y-51418170I0J-243750D01*
G01*
X56329640Y-52330670D01*
G75*
G02*
X56085890Y-52574420I-243750J0D01*
G01*
X55598390Y-52574420D01*
G75*
G02*
X55354640Y-52330670I0J243750D01*
G01*
G37*
G36*
G01*
X53479640Y-52330670D02*
X53479640Y-51418170D01*
G75*
G02*
X53723390Y-51174420I243750J0D01*
G01*
X54210890Y-51174420D01*
G75*
G02*
X54454640Y-51418170I0J-243750D01*
G01*
X54454640Y-52330670D01*
G75*
G02*
X54210890Y-52574420I-243750J0D01*
G01*
X53723390Y-52574420D01*
G75*
G02*
X53479640Y-52330670I0J243750D01*
G01*
G37*
G36*
G01*
X39963940Y-48580990D02*
X39963940Y-49493490D01*
G75*
G02*
X39720190Y-49737240I-243750J0D01*
G01*
X39232690Y-49737240D01*
G75*
G02*
X38988940Y-49493490I0J243750D01*
G01*
X38988940Y-48580990D01*
G75*
G02*
X39232690Y-48337240I243750J0D01*
G01*
X39720190Y-48337240D01*
G75*
G02*
X39963940Y-48580990I0J-243750D01*
G01*
G37*
G36*
G01*
X41838940Y-48580990D02*
X41838940Y-49493490D01*
G75*
G02*
X41595190Y-49737240I-243750J0D01*
G01*
X41107690Y-49737240D01*
G75*
G02*
X40863940Y-49493490I0J243750D01*
G01*
X40863940Y-48580990D01*
G75*
G02*
X41107690Y-48337240I243750J0D01*
G01*
X41595190Y-48337240D01*
G75*
G02*
X41838940Y-48580990I0J-243750D01*
G01*
G37*
G36*
G01*
X41305900Y-47184630D02*
X41305900Y-46272130D01*
G75*
G02*
X41549650Y-46028380I243750J0D01*
G01*
X42037150Y-46028380D01*
G75*
G02*
X42280900Y-46272130I0J-243750D01*
G01*
X42280900Y-47184630D01*
G75*
G02*
X42037150Y-47428380I-243750J0D01*
G01*
X41549650Y-47428380D01*
G75*
G02*
X41305900Y-47184630I0J243750D01*
G01*
G37*
G36*
G01*
X39430900Y-47184630D02*
X39430900Y-46272130D01*
G75*
G02*
X39674650Y-46028380I243750J0D01*
G01*
X40162150Y-46028380D01*
G75*
G02*
X40405900Y-46272130I0J-243750D01*
G01*
X40405900Y-47184630D01*
G75*
G02*
X40162150Y-47428380I-243750J0D01*
G01*
X39674650Y-47428380D01*
G75*
G02*
X39430900Y-47184630I0J243750D01*
G01*
G37*
G36*
G01*
X56358470Y-39865480D02*
X57270970Y-39865480D01*
G75*
G02*
X57514720Y-40109230I0J-243750D01*
G01*
X57514720Y-40596730D01*
G75*
G02*
X57270970Y-40840480I-243750J0D01*
G01*
X56358470Y-40840480D01*
G75*
G02*
X56114720Y-40596730I0J243750D01*
G01*
X56114720Y-40109230D01*
G75*
G02*
X56358470Y-39865480I243750J0D01*
G01*
G37*
G36*
G01*
X56358470Y-37990480D02*
X57270970Y-37990480D01*
G75*
G02*
X57514720Y-38234230I0J-243750D01*
G01*
X57514720Y-38721730D01*
G75*
G02*
X57270970Y-38965480I-243750J0D01*
G01*
X56358470Y-38965480D01*
G75*
G02*
X56114720Y-38721730I0J243750D01*
G01*
X56114720Y-38234230D01*
G75*
G02*
X56358470Y-37990480I243750J0D01*
G01*
G37*
G36*
G01*
X53518750Y-39571080D02*
X54431250Y-39571080D01*
G75*
G02*
X54675000Y-39814830I0J-243750D01*
G01*
X54675000Y-40302330D01*
G75*
G02*
X54431250Y-40546080I-243750J0D01*
G01*
X53518750Y-40546080D01*
G75*
G02*
X53275000Y-40302330I0J243750D01*
G01*
X53275000Y-39814830D01*
G75*
G02*
X53518750Y-39571080I243750J0D01*
G01*
G37*
G36*
G01*
X53518750Y-37696080D02*
X54431250Y-37696080D01*
G75*
G02*
X54675000Y-37939830I0J-243750D01*
G01*
X54675000Y-38427330D01*
G75*
G02*
X54431250Y-38671080I-243750J0D01*
G01*
X53518750Y-38671080D01*
G75*
G02*
X53275000Y-38427330I0J243750D01*
G01*
X53275000Y-37939830D01*
G75*
G02*
X53518750Y-37696080I243750J0D01*
G01*
G37*
G36*
G01*
X48095850Y-38313780D02*
X49008350Y-38313780D01*
G75*
G02*
X49252100Y-38557530I0J-243750D01*
G01*
X49252100Y-39045030D01*
G75*
G02*
X49008350Y-39288780I-243750J0D01*
G01*
X48095850Y-39288780D01*
G75*
G02*
X47852100Y-39045030I0J243750D01*
G01*
X47852100Y-38557530D01*
G75*
G02*
X48095850Y-38313780I243750J0D01*
G01*
G37*
G36*
G01*
X48095850Y-36438780D02*
X49008350Y-36438780D01*
G75*
G02*
X49252100Y-36682530I0J-243750D01*
G01*
X49252100Y-37170030D01*
G75*
G02*
X49008350Y-37413780I-243750J0D01*
G01*
X48095850Y-37413780D01*
G75*
G02*
X47852100Y-37170030I0J243750D01*
G01*
X47852100Y-36682530D01*
G75*
G02*
X48095850Y-36438780I243750J0D01*
G01*
G37*
G36*
G01*
X45400910Y-38313780D02*
X46313410Y-38313780D01*
G75*
G02*
X46557160Y-38557530I0J-243750D01*
G01*
X46557160Y-39045030D01*
G75*
G02*
X46313410Y-39288780I-243750J0D01*
G01*
X45400910Y-39288780D01*
G75*
G02*
X45157160Y-39045030I0J243750D01*
G01*
X45157160Y-38557530D01*
G75*
G02*
X45400910Y-38313780I243750J0D01*
G01*
G37*
G36*
G01*
X45400910Y-36438780D02*
X46313410Y-36438780D01*
G75*
G02*
X46557160Y-36682530I0J-243750D01*
G01*
X46557160Y-37170030D01*
G75*
G02*
X46313410Y-37413780I-243750J0D01*
G01*
X45400910Y-37413780D01*
G75*
G02*
X45157160Y-37170030I0J243750D01*
G01*
X45157160Y-36682530D01*
G75*
G02*
X45400910Y-36438780I243750J0D01*
G01*
G37*
G36*
G01*
X42576430Y-38313780D02*
X43488930Y-38313780D01*
G75*
G02*
X43732680Y-38557530I0J-243750D01*
G01*
X43732680Y-39045030D01*
G75*
G02*
X43488930Y-39288780I-243750J0D01*
G01*
X42576430Y-39288780D01*
G75*
G02*
X42332680Y-39045030I0J243750D01*
G01*
X42332680Y-38557530D01*
G75*
G02*
X42576430Y-38313780I243750J0D01*
G01*
G37*
G36*
G01*
X42576430Y-36438780D02*
X43488930Y-36438780D01*
G75*
G02*
X43732680Y-36682530I0J-243750D01*
G01*
X43732680Y-37170030D01*
G75*
G02*
X43488930Y-37413780I-243750J0D01*
G01*
X42576430Y-37413780D01*
G75*
G02*
X42332680Y-37170030I0J243750D01*
G01*
X42332680Y-36682530D01*
G75*
G02*
X42576430Y-36438780I243750J0D01*
G01*
G37*
G36*
G01*
X40249260Y-38596890D02*
X40249260Y-37684390D01*
G75*
G02*
X40493010Y-37440640I243750J0D01*
G01*
X40980510Y-37440640D01*
G75*
G02*
X41224260Y-37684390I0J-243750D01*
G01*
X41224260Y-38596890D01*
G75*
G02*
X40980510Y-38840640I-243750J0D01*
G01*
X40493010Y-38840640D01*
G75*
G02*
X40249260Y-38596890I0J243750D01*
G01*
G37*
G36*
G01*
X38374260Y-38596890D02*
X38374260Y-37684390D01*
G75*
G02*
X38618010Y-37440640I243750J0D01*
G01*
X39105510Y-37440640D01*
G75*
G02*
X39349260Y-37684390I0J-243750D01*
G01*
X39349260Y-38596890D01*
G75*
G02*
X39105510Y-38840640I-243750J0D01*
G01*
X38618010Y-38840640D01*
G75*
G02*
X38374260Y-38596890I0J243750D01*
G01*
G37*
G36*
G01*
X51582500Y-21792250D02*
X51582500Y-20879750D01*
G75*
G02*
X51826250Y-20636000I243750J0D01*
G01*
X52313750Y-20636000D01*
G75*
G02*
X52557500Y-20879750I0J-243750D01*
G01*
X52557500Y-21792250D01*
G75*
G02*
X52313750Y-22036000I-243750J0D01*
G01*
X51826250Y-22036000D01*
G75*
G02*
X51582500Y-21792250I0J243750D01*
G01*
G37*
G36*
G01*
X49707500Y-21792250D02*
X49707500Y-20879750D01*
G75*
G02*
X49951250Y-20636000I243750J0D01*
G01*
X50438750Y-20636000D01*
G75*
G02*
X50682500Y-20879750I0J-243750D01*
G01*
X50682500Y-21792250D01*
G75*
G02*
X50438750Y-22036000I-243750J0D01*
G01*
X49951250Y-22036000D01*
G75*
G02*
X49707500Y-21792250I0J243750D01*
G01*
G37*
G36*
G01*
X46170000Y-21792250D02*
X46170000Y-20879750D01*
G75*
G02*
X46413750Y-20636000I243750J0D01*
G01*
X46901250Y-20636000D01*
G75*
G02*
X47145000Y-20879750I0J-243750D01*
G01*
X47145000Y-21792250D01*
G75*
G02*
X46901250Y-22036000I-243750J0D01*
G01*
X46413750Y-22036000D01*
G75*
G02*
X46170000Y-21792250I0J243750D01*
G01*
G37*
G36*
G01*
X44295000Y-21792250D02*
X44295000Y-20879750D01*
G75*
G02*
X44538750Y-20636000I243750J0D01*
G01*
X45026250Y-20636000D01*
G75*
G02*
X45270000Y-20879750I0J-243750D01*
G01*
X45270000Y-21792250D01*
G75*
G02*
X45026250Y-22036000I-243750J0D01*
G01*
X44538750Y-22036000D01*
G75*
G02*
X44295000Y-21792250I0J243750D01*
G01*
G37*
G36*
G01*
X39215000Y-21792250D02*
X39215000Y-20879750D01*
G75*
G02*
X39458750Y-20636000I243750J0D01*
G01*
X39946250Y-20636000D01*
G75*
G02*
X40190000Y-20879750I0J-243750D01*
G01*
X40190000Y-21792250D01*
G75*
G02*
X39946250Y-22036000I-243750J0D01*
G01*
X39458750Y-22036000D01*
G75*
G02*
X39215000Y-21792250I0J243750D01*
G01*
G37*
G36*
G01*
X41090000Y-21792250D02*
X41090000Y-20879750D01*
G75*
G02*
X41333750Y-20636000I243750J0D01*
G01*
X41821250Y-20636000D01*
G75*
G02*
X42065000Y-20879750I0J-243750D01*
G01*
X42065000Y-21792250D01*
G75*
G02*
X41821250Y-22036000I-243750J0D01*
G01*
X41333750Y-22036000D01*
G75*
G02*
X41090000Y-21792250I0J243750D01*
G01*
G37*
G36*
G01*
X33373000Y-22046250D02*
X33373000Y-21133750D01*
G75*
G02*
X33616750Y-20890000I243750J0D01*
G01*
X34104250Y-20890000D01*
G75*
G02*
X34348000Y-21133750I0J-243750D01*
G01*
X34348000Y-22046250D01*
G75*
G02*
X34104250Y-22290000I-243750J0D01*
G01*
X33616750Y-22290000D01*
G75*
G02*
X33373000Y-22046250I0J243750D01*
G01*
G37*
G36*
G01*
X35248000Y-22046250D02*
X35248000Y-21133750D01*
G75*
G02*
X35491750Y-20890000I243750J0D01*
G01*
X35979250Y-20890000D01*
G75*
G02*
X36223000Y-21133750I0J-243750D01*
G01*
X36223000Y-22046250D01*
G75*
G02*
X35979250Y-22290000I-243750J0D01*
G01*
X35491750Y-22290000D01*
G75*
G02*
X35248000Y-22046250I0J243750D01*
G01*
G37*
G36*
G01*
X54884500Y-21792250D02*
X54884500Y-20879750D01*
G75*
G02*
X55128250Y-20636000I243750J0D01*
G01*
X55615750Y-20636000D01*
G75*
G02*
X55859500Y-20879750I0J-243750D01*
G01*
X55859500Y-21792250D01*
G75*
G02*
X55615750Y-22036000I-243750J0D01*
G01*
X55128250Y-22036000D01*
G75*
G02*
X54884500Y-21792250I0J243750D01*
G01*
G37*
G36*
G01*
X56759500Y-21792250D02*
X56759500Y-20879750D01*
G75*
G02*
X57003250Y-20636000I243750J0D01*
G01*
X57490750Y-20636000D01*
G75*
G02*
X57734500Y-20879750I0J-243750D01*
G01*
X57734500Y-21792250D01*
G75*
G02*
X57490750Y-22036000I-243750J0D01*
G01*
X57003250Y-22036000D01*
G75*
G02*
X56759500Y-21792250I0J243750D01*
G01*
G37*
G36*
G01*
X49208000Y-24505000D02*
X49208000Y-23755000D01*
G75*
G02*
X49533000Y-23430000I325000J0D01*
G01*
X50183000Y-23430000D01*
G75*
G02*
X50508000Y-23755000I0J-325000D01*
G01*
X50508000Y-24505000D01*
G75*
G02*
X50183000Y-24830000I-325000J0D01*
G01*
X49533000Y-24830000D01*
G75*
G02*
X49208000Y-24505000I0J325000D01*
G01*
G37*
G36*
G01*
X52108000Y-24505000D02*
X52108000Y-23755000D01*
G75*
G02*
X52433000Y-23430000I325000J0D01*
G01*
X53083000Y-23430000D01*
G75*
G02*
X53408000Y-23755000I0J-325000D01*
G01*
X53408000Y-24505000D01*
G75*
G02*
X53083000Y-24830000I-325000J0D01*
G01*
X52433000Y-24830000D01*
G75*
G02*
X52108000Y-24505000I0J325000D01*
G01*
G37*
G36*
G01*
X43800000Y-24505000D02*
X43800000Y-23755000D01*
G75*
G02*
X44125000Y-23430000I325000J0D01*
G01*
X44775000Y-23430000D01*
G75*
G02*
X45100000Y-23755000I0J-325000D01*
G01*
X45100000Y-24505000D01*
G75*
G02*
X44775000Y-24830000I-325000J0D01*
G01*
X44125000Y-24830000D01*
G75*
G02*
X43800000Y-24505000I0J325000D01*
G01*
G37*
G36*
G01*
X46700000Y-24505000D02*
X46700000Y-23755000D01*
G75*
G02*
X47025000Y-23430000I325000J0D01*
G01*
X47675000Y-23430000D01*
G75*
G02*
X48000000Y-23755000I0J-325000D01*
G01*
X48000000Y-24505000D01*
G75*
G02*
X47675000Y-24830000I-325000J0D01*
G01*
X47025000Y-24830000D01*
G75*
G02*
X46700000Y-24505000I0J325000D01*
G01*
G37*
G36*
G01*
X41112000Y-24505000D02*
X41112000Y-23755000D01*
G75*
G02*
X41437000Y-23430000I325000J0D01*
G01*
X42087000Y-23430000D01*
G75*
G02*
X42412000Y-23755000I0J-325000D01*
G01*
X42412000Y-24505000D01*
G75*
G02*
X42087000Y-24830000I-325000J0D01*
G01*
X41437000Y-24830000D01*
G75*
G02*
X41112000Y-24505000I0J325000D01*
G01*
G37*
G36*
G01*
X38212000Y-24505000D02*
X38212000Y-23755000D01*
G75*
G02*
X38537000Y-23430000I325000J0D01*
G01*
X39187000Y-23430000D01*
G75*
G02*
X39512000Y-23755000I0J-325000D01*
G01*
X39512000Y-24505000D01*
G75*
G02*
X39187000Y-24830000I-325000J0D01*
G01*
X38537000Y-24830000D01*
G75*
G02*
X38212000Y-24505000I0J325000D01*
G01*
G37*
G36*
G01*
X35598000Y-24505000D02*
X35598000Y-23755000D01*
G75*
G02*
X35923000Y-23430000I325000J0D01*
G01*
X36573000Y-23430000D01*
G75*
G02*
X36898000Y-23755000I0J-325000D01*
G01*
X36898000Y-24505000D01*
G75*
G02*
X36573000Y-24830000I-325000J0D01*
G01*
X35923000Y-24830000D01*
G75*
G02*
X35598000Y-24505000I0J325000D01*
G01*
G37*
G36*
G01*
X32698000Y-24505000D02*
X32698000Y-23755000D01*
G75*
G02*
X33023000Y-23430000I325000J0D01*
G01*
X33673000Y-23430000D01*
G75*
G02*
X33998000Y-23755000I0J-325000D01*
G01*
X33998000Y-24505000D01*
G75*
G02*
X33673000Y-24830000I-325000J0D01*
G01*
X33023000Y-24830000D01*
G75*
G02*
X32698000Y-24505000I0J325000D01*
G01*
G37*
G36*
G01*
X57114000Y-24505000D02*
X57114000Y-23755000D01*
G75*
G02*
X57439000Y-23430000I325000J0D01*
G01*
X58089000Y-23430000D01*
G75*
G02*
X58414000Y-23755000I0J-325000D01*
G01*
X58414000Y-24505000D01*
G75*
G02*
X58089000Y-24830000I-325000J0D01*
G01*
X57439000Y-24830000D01*
G75*
G02*
X57114000Y-24505000I0J325000D01*
G01*
G37*
G36*
G01*
X54214000Y-24505000D02*
X54214000Y-23755000D01*
G75*
G02*
X54539000Y-23430000I325000J0D01*
G01*
X55189000Y-23430000D01*
G75*
G02*
X55514000Y-23755000I0J-325000D01*
G01*
X55514000Y-24505000D01*
G75*
G02*
X55189000Y-24830000I-325000J0D01*
G01*
X54539000Y-24830000D01*
G75*
G02*
X54214000Y-24505000I0J325000D01*
G01*
G37*
D10*
X33512000Y-34732000D03*
X33512000Y-32832000D03*
X31512000Y-33782000D03*
X38116000Y-33782000D03*
X40116000Y-32832000D03*
X40116000Y-34732000D03*
X46720000Y-34732000D03*
X46720000Y-32832000D03*
X44720000Y-33782000D03*
X51578000Y-33782000D03*
X53578000Y-32832000D03*
X53578000Y-34732000D03*
X36592000Y-52390000D03*
X36592000Y-54290000D03*
X38592000Y-53340000D03*
X6080000Y-23048000D03*
X6080000Y-21148000D03*
X4080000Y-22098000D03*
X4080000Y-18288000D03*
X6080000Y-17338000D03*
X6080000Y-19238000D03*
X4080000Y-14478000D03*
X6080000Y-13528000D03*
X6080000Y-15428000D03*
G36*
G01*
X36270250Y-33332000D02*
X35357750Y-33332000D01*
G75*
G02*
X35114000Y-33088250I0J243750D01*
G01*
X35114000Y-32600750D01*
G75*
G02*
X35357750Y-32357000I243750J0D01*
G01*
X36270250Y-32357000D01*
G75*
G02*
X36514000Y-32600750I0J-243750D01*
G01*
X36514000Y-33088250D01*
G75*
G02*
X36270250Y-33332000I-243750J0D01*
G01*
G37*
G36*
G01*
X36270250Y-35207000D02*
X35357750Y-35207000D01*
G75*
G02*
X35114000Y-34963250I0J243750D01*
G01*
X35114000Y-34475750D01*
G75*
G02*
X35357750Y-34232000I243750J0D01*
G01*
X36270250Y-34232000D01*
G75*
G02*
X36514000Y-34475750I0J-243750D01*
G01*
X36514000Y-34963250D01*
G75*
G02*
X36270250Y-35207000I-243750J0D01*
G01*
G37*
G36*
G01*
X42620250Y-35207000D02*
X41707750Y-35207000D01*
G75*
G02*
X41464000Y-34963250I0J243750D01*
G01*
X41464000Y-34475750D01*
G75*
G02*
X41707750Y-34232000I243750J0D01*
G01*
X42620250Y-34232000D01*
G75*
G02*
X42864000Y-34475750I0J-243750D01*
G01*
X42864000Y-34963250D01*
G75*
G02*
X42620250Y-35207000I-243750J0D01*
G01*
G37*
G36*
G01*
X42620250Y-33332000D02*
X41707750Y-33332000D01*
G75*
G02*
X41464000Y-33088250I0J243750D01*
G01*
X41464000Y-32600750D01*
G75*
G02*
X41707750Y-32357000I243750J0D01*
G01*
X42620250Y-32357000D01*
G75*
G02*
X42864000Y-32600750I0J-243750D01*
G01*
X42864000Y-33088250D01*
G75*
G02*
X42620250Y-33332000I-243750J0D01*
G01*
G37*
G36*
G01*
X49224250Y-33332000D02*
X48311750Y-33332000D01*
G75*
G02*
X48068000Y-33088250I0J243750D01*
G01*
X48068000Y-32600750D01*
G75*
G02*
X48311750Y-32357000I243750J0D01*
G01*
X49224250Y-32357000D01*
G75*
G02*
X49468000Y-32600750I0J-243750D01*
G01*
X49468000Y-33088250D01*
G75*
G02*
X49224250Y-33332000I-243750J0D01*
G01*
G37*
G36*
G01*
X49224250Y-35207000D02*
X48311750Y-35207000D01*
G75*
G02*
X48068000Y-34963250I0J243750D01*
G01*
X48068000Y-34475750D01*
G75*
G02*
X48311750Y-34232000I243750J0D01*
G01*
X49224250Y-34232000D01*
G75*
G02*
X49468000Y-34475750I0J-243750D01*
G01*
X49468000Y-34963250D01*
G75*
G02*
X49224250Y-35207000I-243750J0D01*
G01*
G37*
G36*
G01*
X56336250Y-35207000D02*
X55423750Y-35207000D01*
G75*
G02*
X55180000Y-34963250I0J243750D01*
G01*
X55180000Y-34475750D01*
G75*
G02*
X55423750Y-34232000I243750J0D01*
G01*
X56336250Y-34232000D01*
G75*
G02*
X56580000Y-34475750I0J-243750D01*
G01*
X56580000Y-34963250D01*
G75*
G02*
X56336250Y-35207000I-243750J0D01*
G01*
G37*
G36*
G01*
X56336250Y-33332000D02*
X55423750Y-33332000D01*
G75*
G02*
X55180000Y-33088250I0J243750D01*
G01*
X55180000Y-32600750D01*
G75*
G02*
X55423750Y-32357000I243750J0D01*
G01*
X56336250Y-32357000D01*
G75*
G02*
X56580000Y-32600750I0J-243750D01*
G01*
X56580000Y-33088250D01*
G75*
G02*
X56336250Y-33332000I-243750J0D01*
G01*
G37*
G36*
G01*
X33858500Y-30277750D02*
X33858500Y-31190250D01*
G75*
G02*
X33614750Y-31434000I-243750J0D01*
G01*
X33127250Y-31434000D01*
G75*
G02*
X32883500Y-31190250I0J243750D01*
G01*
X32883500Y-30277750D01*
G75*
G02*
X33127250Y-30034000I243750J0D01*
G01*
X33614750Y-30034000D01*
G75*
G02*
X33858500Y-30277750I0J-243750D01*
G01*
G37*
G36*
G01*
X31983500Y-30277750D02*
X31983500Y-31190250D01*
G75*
G02*
X31739750Y-31434000I-243750J0D01*
G01*
X31252250Y-31434000D01*
G75*
G02*
X31008500Y-31190250I0J243750D01*
G01*
X31008500Y-30277750D01*
G75*
G02*
X31252250Y-30034000I243750J0D01*
G01*
X31739750Y-30034000D01*
G75*
G02*
X31983500Y-30277750I0J-243750D01*
G01*
G37*
G36*
G01*
X38666000Y-30277750D02*
X38666000Y-31190250D01*
G75*
G02*
X38422250Y-31434000I-243750J0D01*
G01*
X37934750Y-31434000D01*
G75*
G02*
X37691000Y-31190250I0J243750D01*
G01*
X37691000Y-30277750D01*
G75*
G02*
X37934750Y-30034000I243750J0D01*
G01*
X38422250Y-30034000D01*
G75*
G02*
X38666000Y-30277750I0J-243750D01*
G01*
G37*
G36*
G01*
X40541000Y-30277750D02*
X40541000Y-31190250D01*
G75*
G02*
X40297250Y-31434000I-243750J0D01*
G01*
X39809750Y-31434000D01*
G75*
G02*
X39566000Y-31190250I0J243750D01*
G01*
X39566000Y-30277750D01*
G75*
G02*
X39809750Y-30034000I243750J0D01*
G01*
X40297250Y-30034000D01*
G75*
G02*
X40541000Y-30277750I0J-243750D01*
G01*
G37*
G36*
G01*
X47223500Y-30277750D02*
X47223500Y-31190250D01*
G75*
G02*
X46979750Y-31434000I-243750J0D01*
G01*
X46492250Y-31434000D01*
G75*
G02*
X46248500Y-31190250I0J243750D01*
G01*
X46248500Y-30277750D01*
G75*
G02*
X46492250Y-30034000I243750J0D01*
G01*
X46979750Y-30034000D01*
G75*
G02*
X47223500Y-30277750I0J-243750D01*
G01*
G37*
G36*
G01*
X45348500Y-30277750D02*
X45348500Y-31190250D01*
G75*
G02*
X45104750Y-31434000I-243750J0D01*
G01*
X44617250Y-31434000D01*
G75*
G02*
X44373500Y-31190250I0J243750D01*
G01*
X44373500Y-30277750D01*
G75*
G02*
X44617250Y-30034000I243750J0D01*
G01*
X45104750Y-30034000D01*
G75*
G02*
X45348500Y-30277750I0J-243750D01*
G01*
G37*
G36*
G01*
X52128000Y-30277750D02*
X52128000Y-31190250D01*
G75*
G02*
X51884250Y-31434000I-243750J0D01*
G01*
X51396750Y-31434000D01*
G75*
G02*
X51153000Y-31190250I0J243750D01*
G01*
X51153000Y-30277750D01*
G75*
G02*
X51396750Y-30034000I243750J0D01*
G01*
X51884250Y-30034000D01*
G75*
G02*
X52128000Y-30277750I0J-243750D01*
G01*
G37*
G36*
G01*
X54003000Y-30277750D02*
X54003000Y-31190250D01*
G75*
G02*
X53759250Y-31434000I-243750J0D01*
G01*
X53271750Y-31434000D01*
G75*
G02*
X53028000Y-31190250I0J243750D01*
G01*
X53028000Y-30277750D01*
G75*
G02*
X53271750Y-30034000I243750J0D01*
G01*
X53759250Y-30034000D01*
G75*
G02*
X54003000Y-30277750I0J-243750D01*
G01*
G37*
G36*
G01*
X34445000Y-51867750D02*
X34445000Y-52780250D01*
G75*
G02*
X34201250Y-53024000I-243750J0D01*
G01*
X33713750Y-53024000D01*
G75*
G02*
X33470000Y-52780250I0J243750D01*
G01*
X33470000Y-51867750D01*
G75*
G02*
X33713750Y-51624000I243750J0D01*
G01*
X34201250Y-51624000D01*
G75*
G02*
X34445000Y-51867750I0J-243750D01*
G01*
G37*
G36*
G01*
X32570000Y-51867750D02*
X32570000Y-52780250D01*
G75*
G02*
X32326250Y-53024000I-243750J0D01*
G01*
X31838750Y-53024000D01*
G75*
G02*
X31595000Y-52780250I0J243750D01*
G01*
X31595000Y-51867750D01*
G75*
G02*
X31838750Y-51624000I243750J0D01*
G01*
X32326250Y-51624000D01*
G75*
G02*
X32570000Y-51867750I0J-243750D01*
G01*
G37*
G36*
G01*
X10108250Y-22664000D02*
X9195750Y-22664000D01*
G75*
G02*
X8952000Y-22420250I0J243750D01*
G01*
X8952000Y-21932750D01*
G75*
G02*
X9195750Y-21689000I243750J0D01*
G01*
X10108250Y-21689000D01*
G75*
G02*
X10352000Y-21932750I0J-243750D01*
G01*
X10352000Y-22420250D01*
G75*
G02*
X10108250Y-22664000I-243750J0D01*
G01*
G37*
G36*
G01*
X10108250Y-24539000D02*
X9195750Y-24539000D01*
G75*
G02*
X8952000Y-24295250I0J243750D01*
G01*
X8952000Y-23807750D01*
G75*
G02*
X9195750Y-23564000I243750J0D01*
G01*
X10108250Y-23564000D01*
G75*
G02*
X10352000Y-23807750I0J-243750D01*
G01*
X10352000Y-24295250D01*
G75*
G02*
X10108250Y-24539000I-243750J0D01*
G01*
G37*
G36*
G01*
X10108250Y-20475000D02*
X9195750Y-20475000D01*
G75*
G02*
X8952000Y-20231250I0J243750D01*
G01*
X8952000Y-19743750D01*
G75*
G02*
X9195750Y-19500000I243750J0D01*
G01*
X10108250Y-19500000D01*
G75*
G02*
X10352000Y-19743750I0J-243750D01*
G01*
X10352000Y-20231250D01*
G75*
G02*
X10108250Y-20475000I-243750J0D01*
G01*
G37*
G36*
G01*
X10108250Y-18600000D02*
X9195750Y-18600000D01*
G75*
G02*
X8952000Y-18356250I0J243750D01*
G01*
X8952000Y-17868750D01*
G75*
G02*
X9195750Y-17625000I243750J0D01*
G01*
X10108250Y-17625000D01*
G75*
G02*
X10352000Y-17868750I0J-243750D01*
G01*
X10352000Y-18356250D01*
G75*
G02*
X10108250Y-18600000I-243750J0D01*
G01*
G37*
G36*
G01*
X10108250Y-14536000D02*
X9195750Y-14536000D01*
G75*
G02*
X8952000Y-14292250I0J243750D01*
G01*
X8952000Y-13804750D01*
G75*
G02*
X9195750Y-13561000I243750J0D01*
G01*
X10108250Y-13561000D01*
G75*
G02*
X10352000Y-13804750I0J-243750D01*
G01*
X10352000Y-14292250D01*
G75*
G02*
X10108250Y-14536000I-243750J0D01*
G01*
G37*
G36*
G01*
X10108250Y-16411000D02*
X9195750Y-16411000D01*
G75*
G02*
X8952000Y-16167250I0J243750D01*
G01*
X8952000Y-15679750D01*
G75*
G02*
X9195750Y-15436000I243750J0D01*
G01*
X10108250Y-15436000D01*
G75*
G02*
X10352000Y-15679750I0J-243750D01*
G01*
X10352000Y-16167250D01*
G75*
G02*
X10108250Y-16411000I-243750J0D01*
G01*
G37*
G36*
G01*
X24821830Y-12082960D02*
X25734330Y-12082960D01*
G75*
G02*
X25978080Y-12326710I0J-243750D01*
G01*
X25978080Y-12814210D01*
G75*
G02*
X25734330Y-13057960I-243750J0D01*
G01*
X24821830Y-13057960D01*
G75*
G02*
X24578080Y-12814210I0J243750D01*
G01*
X24578080Y-12326710D01*
G75*
G02*
X24821830Y-12082960I243750J0D01*
G01*
G37*
G36*
G01*
X24821830Y-13957960D02*
X25734330Y-13957960D01*
G75*
G02*
X25978080Y-14201710I0J-243750D01*
G01*
X25978080Y-14689210D01*
G75*
G02*
X25734330Y-14932960I-243750J0D01*
G01*
X24821830Y-14932960D01*
G75*
G02*
X24578080Y-14689210I0J243750D01*
G01*
X24578080Y-14201710D01*
G75*
G02*
X24821830Y-13957960I243750J0D01*
G01*
G37*
G36*
G01*
X22281830Y-13860960D02*
X23194330Y-13860960D01*
G75*
G02*
X23438080Y-14104710I0J-243750D01*
G01*
X23438080Y-14592210D01*
G75*
G02*
X23194330Y-14835960I-243750J0D01*
G01*
X22281830Y-14835960D01*
G75*
G02*
X22038080Y-14592210I0J243750D01*
G01*
X22038080Y-14104710D01*
G75*
G02*
X22281830Y-13860960I243750J0D01*
G01*
G37*
G36*
G01*
X22281830Y-11985960D02*
X23194330Y-11985960D01*
G75*
G02*
X23438080Y-12229710I0J-243750D01*
G01*
X23438080Y-12717210D01*
G75*
G02*
X23194330Y-12960960I-243750J0D01*
G01*
X22281830Y-12960960D01*
G75*
G02*
X22038080Y-12717210I0J243750D01*
G01*
X22038080Y-12229710D01*
G75*
G02*
X22281830Y-11985960I243750J0D01*
G01*
G37*
G36*
G01*
X19741830Y-11907460D02*
X20654330Y-11907460D01*
G75*
G02*
X20898080Y-12151210I0J-243750D01*
G01*
X20898080Y-12638710D01*
G75*
G02*
X20654330Y-12882460I-243750J0D01*
G01*
X19741830Y-12882460D01*
G75*
G02*
X19498080Y-12638710I0J243750D01*
G01*
X19498080Y-12151210D01*
G75*
G02*
X19741830Y-11907460I243750J0D01*
G01*
G37*
G36*
G01*
X19741830Y-13782460D02*
X20654330Y-13782460D01*
G75*
G02*
X20898080Y-14026210I0J-243750D01*
G01*
X20898080Y-14513710D01*
G75*
G02*
X20654330Y-14757460I-243750J0D01*
G01*
X19741830Y-14757460D01*
G75*
G02*
X19498080Y-14513710I0J243750D01*
G01*
X19498080Y-14026210D01*
G75*
G02*
X19741830Y-13782460I243750J0D01*
G01*
G37*
G36*
G01*
X16947830Y-13782460D02*
X17860330Y-13782460D01*
G75*
G02*
X18104080Y-14026210I0J-243750D01*
G01*
X18104080Y-14513710D01*
G75*
G02*
X17860330Y-14757460I-243750J0D01*
G01*
X16947830Y-14757460D01*
G75*
G02*
X16704080Y-14513710I0J243750D01*
G01*
X16704080Y-14026210D01*
G75*
G02*
X16947830Y-13782460I243750J0D01*
G01*
G37*
G36*
G01*
X16947830Y-11907460D02*
X17860330Y-11907460D01*
G75*
G02*
X18104080Y-12151210I0J-243750D01*
G01*
X18104080Y-12638710D01*
G75*
G02*
X17860330Y-12882460I-243750J0D01*
G01*
X16947830Y-12882460D01*
G75*
G02*
X16704080Y-12638710I0J243750D01*
G01*
X16704080Y-12151210D01*
G75*
G02*
X16947830Y-11907460I243750J0D01*
G01*
G37*
G36*
G01*
X49707500Y-16712250D02*
X49707500Y-15799750D01*
G75*
G02*
X49951250Y-15556000I243750J0D01*
G01*
X50438750Y-15556000D01*
G75*
G02*
X50682500Y-15799750I0J-243750D01*
G01*
X50682500Y-16712250D01*
G75*
G02*
X50438750Y-16956000I-243750J0D01*
G01*
X49951250Y-16956000D01*
G75*
G02*
X49707500Y-16712250I0J243750D01*
G01*
G37*
G36*
G01*
X51582500Y-16712250D02*
X51582500Y-15799750D01*
G75*
G02*
X51826250Y-15556000I243750J0D01*
G01*
X52313750Y-15556000D01*
G75*
G02*
X52557500Y-15799750I0J-243750D01*
G01*
X52557500Y-16712250D01*
G75*
G02*
X52313750Y-16956000I-243750J0D01*
G01*
X51826250Y-16956000D01*
G75*
G02*
X51582500Y-16712250I0J243750D01*
G01*
G37*
G36*
G01*
X44295000Y-16712250D02*
X44295000Y-15799750D01*
G75*
G02*
X44538750Y-15556000I243750J0D01*
G01*
X45026250Y-15556000D01*
G75*
G02*
X45270000Y-15799750I0J-243750D01*
G01*
X45270000Y-16712250D01*
G75*
G02*
X45026250Y-16956000I-243750J0D01*
G01*
X44538750Y-16956000D01*
G75*
G02*
X44295000Y-16712250I0J243750D01*
G01*
G37*
G36*
G01*
X46170000Y-16712250D02*
X46170000Y-15799750D01*
G75*
G02*
X46413750Y-15556000I243750J0D01*
G01*
X46901250Y-15556000D01*
G75*
G02*
X47145000Y-15799750I0J-243750D01*
G01*
X47145000Y-16712250D01*
G75*
G02*
X46901250Y-16956000I-243750J0D01*
G01*
X46413750Y-16956000D01*
G75*
G02*
X46170000Y-16712250I0J243750D01*
G01*
G37*
G36*
G01*
X41011500Y-16712250D02*
X41011500Y-15799750D01*
G75*
G02*
X41255250Y-15556000I243750J0D01*
G01*
X41742750Y-15556000D01*
G75*
G02*
X41986500Y-15799750I0J-243750D01*
G01*
X41986500Y-16712250D01*
G75*
G02*
X41742750Y-16956000I-243750J0D01*
G01*
X41255250Y-16956000D01*
G75*
G02*
X41011500Y-16712250I0J243750D01*
G01*
G37*
G36*
G01*
X39136500Y-16712250D02*
X39136500Y-15799750D01*
G75*
G02*
X39380250Y-15556000I243750J0D01*
G01*
X39867750Y-15556000D01*
G75*
G02*
X40111500Y-15799750I0J-243750D01*
G01*
X40111500Y-16712250D01*
G75*
G02*
X39867750Y-16956000I-243750J0D01*
G01*
X39380250Y-16956000D01*
G75*
G02*
X39136500Y-16712250I0J243750D01*
G01*
G37*
G36*
G01*
X35072500Y-17474250D02*
X35072500Y-16561750D01*
G75*
G02*
X35316250Y-16318000I243750J0D01*
G01*
X35803750Y-16318000D01*
G75*
G02*
X36047500Y-16561750I0J-243750D01*
G01*
X36047500Y-17474250D01*
G75*
G02*
X35803750Y-17718000I-243750J0D01*
G01*
X35316250Y-17718000D01*
G75*
G02*
X35072500Y-17474250I0J243750D01*
G01*
G37*
G36*
G01*
X33197500Y-17474250D02*
X33197500Y-16561750D01*
G75*
G02*
X33441250Y-16318000I243750J0D01*
G01*
X33928750Y-16318000D01*
G75*
G02*
X34172500Y-16561750I0J-243750D01*
G01*
X34172500Y-17474250D01*
G75*
G02*
X33928750Y-17718000I-243750J0D01*
G01*
X33441250Y-17718000D01*
G75*
G02*
X33197500Y-17474250I0J243750D01*
G01*
G37*
G36*
G01*
X52654500Y-18339750D02*
X52654500Y-19252250D01*
G75*
G02*
X52410750Y-19496000I-243750J0D01*
G01*
X51923250Y-19496000D01*
G75*
G02*
X51679500Y-19252250I0J243750D01*
G01*
X51679500Y-18339750D01*
G75*
G02*
X51923250Y-18096000I243750J0D01*
G01*
X52410750Y-18096000D01*
G75*
G02*
X52654500Y-18339750I0J-243750D01*
G01*
G37*
G36*
G01*
X50779500Y-18339750D02*
X50779500Y-19252250D01*
G75*
G02*
X50535750Y-19496000I-243750J0D01*
G01*
X50048250Y-19496000D01*
G75*
G02*
X49804500Y-19252250I0J243750D01*
G01*
X49804500Y-18339750D01*
G75*
G02*
X50048250Y-18096000I243750J0D01*
G01*
X50535750Y-18096000D01*
G75*
G02*
X50779500Y-18339750I0J-243750D01*
G01*
G37*
G36*
G01*
X45270000Y-18339750D02*
X45270000Y-19252250D01*
G75*
G02*
X45026250Y-19496000I-243750J0D01*
G01*
X44538750Y-19496000D01*
G75*
G02*
X44295000Y-19252250I0J243750D01*
G01*
X44295000Y-18339750D01*
G75*
G02*
X44538750Y-18096000I243750J0D01*
G01*
X45026250Y-18096000D01*
G75*
G02*
X45270000Y-18339750I0J-243750D01*
G01*
G37*
G36*
G01*
X47145000Y-18339750D02*
X47145000Y-19252250D01*
G75*
G02*
X46901250Y-19496000I-243750J0D01*
G01*
X46413750Y-19496000D01*
G75*
G02*
X46170000Y-19252250I0J243750D01*
G01*
X46170000Y-18339750D01*
G75*
G02*
X46413750Y-18096000I243750J0D01*
G01*
X46901250Y-18096000D01*
G75*
G02*
X47145000Y-18339750I0J-243750D01*
G01*
G37*
G36*
G01*
X42065000Y-18339750D02*
X42065000Y-19252250D01*
G75*
G02*
X41821250Y-19496000I-243750J0D01*
G01*
X41333750Y-19496000D01*
G75*
G02*
X41090000Y-19252250I0J243750D01*
G01*
X41090000Y-18339750D01*
G75*
G02*
X41333750Y-18096000I243750J0D01*
G01*
X41821250Y-18096000D01*
G75*
G02*
X42065000Y-18339750I0J-243750D01*
G01*
G37*
G36*
G01*
X40190000Y-18339750D02*
X40190000Y-19252250D01*
G75*
G02*
X39946250Y-19496000I-243750J0D01*
G01*
X39458750Y-19496000D01*
G75*
G02*
X39215000Y-19252250I0J243750D01*
G01*
X39215000Y-18339750D01*
G75*
G02*
X39458750Y-18096000I243750J0D01*
G01*
X39946250Y-18096000D01*
G75*
G02*
X40190000Y-18339750I0J-243750D01*
G01*
G37*
G36*
G01*
X36223000Y-18847750D02*
X36223000Y-19760250D01*
G75*
G02*
X35979250Y-20004000I-243750J0D01*
G01*
X35491750Y-20004000D01*
G75*
G02*
X35248000Y-19760250I0J243750D01*
G01*
X35248000Y-18847750D01*
G75*
G02*
X35491750Y-18604000I243750J0D01*
G01*
X35979250Y-18604000D01*
G75*
G02*
X36223000Y-18847750I0J-243750D01*
G01*
G37*
G36*
G01*
X34348000Y-18847750D02*
X34348000Y-19760250D01*
G75*
G02*
X34104250Y-20004000I-243750J0D01*
G01*
X33616750Y-20004000D01*
G75*
G02*
X33373000Y-19760250I0J243750D01*
G01*
X33373000Y-18847750D01*
G75*
G02*
X33616750Y-18604000I243750J0D01*
G01*
X34104250Y-18604000D01*
G75*
G02*
X34348000Y-18847750I0J-243750D01*
G01*
G37*
G36*
G01*
X56838000Y-16712250D02*
X56838000Y-15799750D01*
G75*
G02*
X57081750Y-15556000I243750J0D01*
G01*
X57569250Y-15556000D01*
G75*
G02*
X57813000Y-15799750I0J-243750D01*
G01*
X57813000Y-16712250D01*
G75*
G02*
X57569250Y-16956000I-243750J0D01*
G01*
X57081750Y-16956000D01*
G75*
G02*
X56838000Y-16712250I0J243750D01*
G01*
G37*
G36*
G01*
X54963000Y-16712250D02*
X54963000Y-15799750D01*
G75*
G02*
X55206750Y-15556000I243750J0D01*
G01*
X55694250Y-15556000D01*
G75*
G02*
X55938000Y-15799750I0J-243750D01*
G01*
X55938000Y-16712250D01*
G75*
G02*
X55694250Y-16956000I-243750J0D01*
G01*
X55206750Y-16956000D01*
G75*
G02*
X54963000Y-16712250I0J243750D01*
G01*
G37*
G36*
G01*
X57813000Y-18339750D02*
X57813000Y-19252250D01*
G75*
G02*
X57569250Y-19496000I-243750J0D01*
G01*
X57081750Y-19496000D01*
G75*
G02*
X56838000Y-19252250I0J243750D01*
G01*
X56838000Y-18339750D01*
G75*
G02*
X57081750Y-18096000I243750J0D01*
G01*
X57569250Y-18096000D01*
G75*
G02*
X57813000Y-18339750I0J-243750D01*
G01*
G37*
G36*
G01*
X55938000Y-18339750D02*
X55938000Y-19252250D01*
G75*
G02*
X55694250Y-19496000I-243750J0D01*
G01*
X55206750Y-19496000D01*
G75*
G02*
X54963000Y-19252250I0J243750D01*
G01*
X54963000Y-18339750D01*
G75*
G02*
X55206750Y-18096000I243750J0D01*
G01*
X55694250Y-18096000D01*
G75*
G02*
X55938000Y-18339750I0J-243750D01*
G01*
G37*
G36*
G01*
X17041000Y-26802000D02*
X16741000Y-26802000D01*
G75*
G02*
X16591000Y-26652000I0J150000D01*
G01*
X16591000Y-24977000D01*
G75*
G02*
X16741000Y-24827000I150000J0D01*
G01*
X17041000Y-24827000D01*
G75*
G02*
X17191000Y-24977000I0J-150000D01*
G01*
X17191000Y-26652000D01*
G75*
G02*
X17041000Y-26802000I-150000J0D01*
G01*
G37*
G36*
G01*
X18311000Y-26802000D02*
X18011000Y-26802000D01*
G75*
G02*
X17861000Y-26652000I0J150000D01*
G01*
X17861000Y-24977000D01*
G75*
G02*
X18011000Y-24827000I150000J0D01*
G01*
X18311000Y-24827000D01*
G75*
G02*
X18461000Y-24977000I0J-150000D01*
G01*
X18461000Y-26652000D01*
G75*
G02*
X18311000Y-26802000I-150000J0D01*
G01*
G37*
G36*
G01*
X19581000Y-26802000D02*
X19281000Y-26802000D01*
G75*
G02*
X19131000Y-26652000I0J150000D01*
G01*
X19131000Y-24977000D01*
G75*
G02*
X19281000Y-24827000I150000J0D01*
G01*
X19581000Y-24827000D01*
G75*
G02*
X19731000Y-24977000I0J-150000D01*
G01*
X19731000Y-26652000D01*
G75*
G02*
X19581000Y-26802000I-150000J0D01*
G01*
G37*
G36*
G01*
X20851000Y-26802000D02*
X20551000Y-26802000D01*
G75*
G02*
X20401000Y-26652000I0J150000D01*
G01*
X20401000Y-24977000D01*
G75*
G02*
X20551000Y-24827000I150000J0D01*
G01*
X20851000Y-24827000D01*
G75*
G02*
X21001000Y-24977000I0J-150000D01*
G01*
X21001000Y-26652000D01*
G75*
G02*
X20851000Y-26802000I-150000J0D01*
G01*
G37*
G36*
G01*
X22121000Y-26802000D02*
X21821000Y-26802000D01*
G75*
G02*
X21671000Y-26652000I0J150000D01*
G01*
X21671000Y-24977000D01*
G75*
G02*
X21821000Y-24827000I150000J0D01*
G01*
X22121000Y-24827000D01*
G75*
G02*
X22271000Y-24977000I0J-150000D01*
G01*
X22271000Y-26652000D01*
G75*
G02*
X22121000Y-26802000I-150000J0D01*
G01*
G37*
G36*
G01*
X23391000Y-26802000D02*
X23091000Y-26802000D01*
G75*
G02*
X22941000Y-26652000I0J150000D01*
G01*
X22941000Y-24977000D01*
G75*
G02*
X23091000Y-24827000I150000J0D01*
G01*
X23391000Y-24827000D01*
G75*
G02*
X23541000Y-24977000I0J-150000D01*
G01*
X23541000Y-26652000D01*
G75*
G02*
X23391000Y-26802000I-150000J0D01*
G01*
G37*
G36*
G01*
X24661000Y-26802000D02*
X24361000Y-26802000D01*
G75*
G02*
X24211000Y-26652000I0J150000D01*
G01*
X24211000Y-24977000D01*
G75*
G02*
X24361000Y-24827000I150000J0D01*
G01*
X24661000Y-24827000D01*
G75*
G02*
X24811000Y-24977000I0J-150000D01*
G01*
X24811000Y-26652000D01*
G75*
G02*
X24661000Y-26802000I-150000J0D01*
G01*
G37*
G36*
G01*
X25931000Y-26802000D02*
X25631000Y-26802000D01*
G75*
G02*
X25481000Y-26652000I0J150000D01*
G01*
X25481000Y-24977000D01*
G75*
G02*
X25631000Y-24827000I150000J0D01*
G01*
X25931000Y-24827000D01*
G75*
G02*
X26081000Y-24977000I0J-150000D01*
G01*
X26081000Y-26652000D01*
G75*
G02*
X25931000Y-26802000I-150000J0D01*
G01*
G37*
G36*
G01*
X25931000Y-19877000D02*
X25631000Y-19877000D01*
G75*
G02*
X25481000Y-19727000I0J150000D01*
G01*
X25481000Y-18052000D01*
G75*
G02*
X25631000Y-17902000I150000J0D01*
G01*
X25931000Y-17902000D01*
G75*
G02*
X26081000Y-18052000I0J-150000D01*
G01*
X26081000Y-19727000D01*
G75*
G02*
X25931000Y-19877000I-150000J0D01*
G01*
G37*
G36*
G01*
X24661000Y-19877000D02*
X24361000Y-19877000D01*
G75*
G02*
X24211000Y-19727000I0J150000D01*
G01*
X24211000Y-18052000D01*
G75*
G02*
X24361000Y-17902000I150000J0D01*
G01*
X24661000Y-17902000D01*
G75*
G02*
X24811000Y-18052000I0J-150000D01*
G01*
X24811000Y-19727000D01*
G75*
G02*
X24661000Y-19877000I-150000J0D01*
G01*
G37*
G36*
G01*
X23391000Y-19877000D02*
X23091000Y-19877000D01*
G75*
G02*
X22941000Y-19727000I0J150000D01*
G01*
X22941000Y-18052000D01*
G75*
G02*
X23091000Y-17902000I150000J0D01*
G01*
X23391000Y-17902000D01*
G75*
G02*
X23541000Y-18052000I0J-150000D01*
G01*
X23541000Y-19727000D01*
G75*
G02*
X23391000Y-19877000I-150000J0D01*
G01*
G37*
G36*
G01*
X22121000Y-19877000D02*
X21821000Y-19877000D01*
G75*
G02*
X21671000Y-19727000I0J150000D01*
G01*
X21671000Y-18052000D01*
G75*
G02*
X21821000Y-17902000I150000J0D01*
G01*
X22121000Y-17902000D01*
G75*
G02*
X22271000Y-18052000I0J-150000D01*
G01*
X22271000Y-19727000D01*
G75*
G02*
X22121000Y-19877000I-150000J0D01*
G01*
G37*
G36*
G01*
X20851000Y-19877000D02*
X20551000Y-19877000D01*
G75*
G02*
X20401000Y-19727000I0J150000D01*
G01*
X20401000Y-18052000D01*
G75*
G02*
X20551000Y-17902000I150000J0D01*
G01*
X20851000Y-17902000D01*
G75*
G02*
X21001000Y-18052000I0J-150000D01*
G01*
X21001000Y-19727000D01*
G75*
G02*
X20851000Y-19877000I-150000J0D01*
G01*
G37*
G36*
G01*
X19581000Y-19877000D02*
X19281000Y-19877000D01*
G75*
G02*
X19131000Y-19727000I0J150000D01*
G01*
X19131000Y-18052000D01*
G75*
G02*
X19281000Y-17902000I150000J0D01*
G01*
X19581000Y-17902000D01*
G75*
G02*
X19731000Y-18052000I0J-150000D01*
G01*
X19731000Y-19727000D01*
G75*
G02*
X19581000Y-19877000I-150000J0D01*
G01*
G37*
G36*
G01*
X18311000Y-19877000D02*
X18011000Y-19877000D01*
G75*
G02*
X17861000Y-19727000I0J150000D01*
G01*
X17861000Y-18052000D01*
G75*
G02*
X18011000Y-17902000I150000J0D01*
G01*
X18311000Y-17902000D01*
G75*
G02*
X18461000Y-18052000I0J-150000D01*
G01*
X18461000Y-19727000D01*
G75*
G02*
X18311000Y-19877000I-150000J0D01*
G01*
G37*
G36*
G01*
X17041000Y-19877000D02*
X16741000Y-19877000D01*
G75*
G02*
X16591000Y-19727000I0J150000D01*
G01*
X16591000Y-18052000D01*
G75*
G02*
X16741000Y-17902000I150000J0D01*
G01*
X17041000Y-17902000D01*
G75*
G02*
X17191000Y-18052000I0J-150000D01*
G01*
X17191000Y-19727000D01*
G75*
G02*
X17041000Y-19877000I-150000J0D01*
G01*
G37*
M02*
