G04 #@! TF.GenerationSoftware,KiCad,Pcbnew,(5.1.6-0-10_14)*
G04 #@! TF.CreationDate,2020-07-16T14:36:08-04:00*
G04 #@! TF.ProjectId,Pufferfish-Interface-2,50756666-6572-4666-9973-682d496e7465,rev?*
G04 #@! TF.SameCoordinates,Original*
G04 #@! TF.FileFunction,Legend,Top*
G04 #@! TF.FilePolarity,Positive*
%FSLAX46Y46*%
G04 Gerber Fmt 4.6, Leading zero omitted, Abs format (unit mm)*
G04 Created by KiCad (PCBNEW (5.1.6-0-10_14)) date 2020-07-16 14:36:08*
%MOMM*%
%LPD*%
G01*
G04 APERTURE LIST*
%ADD10C,0.300000*%
%ADD11C,0.203200*%
%ADD12C,0.120000*%
%ADD13C,0.150000*%
G04 APERTURE END LIST*
D10*
X61549483Y-34778117D02*
X60279483Y-34778117D01*
X60279483Y-34206688D01*
X60339960Y-34063831D01*
X60400436Y-33992402D01*
X60521388Y-33920974D01*
X60702817Y-33920974D01*
X60823769Y-33992402D01*
X60884245Y-34063831D01*
X60944721Y-34206688D01*
X60944721Y-34778117D01*
X61489007Y-32706688D02*
X61549483Y-32849545D01*
X61549483Y-33135260D01*
X61489007Y-33278117D01*
X61368055Y-33349545D01*
X60884245Y-33349545D01*
X60763293Y-33278117D01*
X60702817Y-33135260D01*
X60702817Y-32849545D01*
X60763293Y-32706688D01*
X60884245Y-32635260D01*
X61005198Y-32635260D01*
X61126150Y-33349545D01*
X60702817Y-32135260D02*
X60702817Y-31349545D01*
X61549483Y-32135260D01*
X61549483Y-31349545D01*
X60339960Y-28849545D02*
X60279483Y-28992402D01*
X60279483Y-29206688D01*
X60339960Y-29420974D01*
X60460912Y-29563831D01*
X60581864Y-29635260D01*
X60823769Y-29706688D01*
X61005198Y-29706688D01*
X61247102Y-29635260D01*
X61368055Y-29563831D01*
X61489007Y-29420974D01*
X61549483Y-29206688D01*
X61549483Y-29063831D01*
X61489007Y-28849545D01*
X61428531Y-28778117D01*
X61005198Y-28778117D01*
X61005198Y-29063831D01*
X61549483Y-27920974D02*
X61489007Y-28063831D01*
X61368055Y-28135260D01*
X60279483Y-28135260D01*
X61549483Y-27135260D02*
X61489007Y-27278117D01*
X61428531Y-27349545D01*
X61307579Y-27420974D01*
X60944721Y-27420974D01*
X60823769Y-27349545D01*
X60763293Y-27278117D01*
X60702817Y-27135260D01*
X60702817Y-26920974D01*
X60763293Y-26778117D01*
X60823769Y-26706688D01*
X60944721Y-26635260D01*
X61307579Y-26635260D01*
X61428531Y-26706688D01*
X61489007Y-26778117D01*
X61549483Y-26920974D01*
X61549483Y-27135260D01*
X61549483Y-25992402D02*
X60279483Y-25992402D01*
X60763293Y-25992402D02*
X60702817Y-25849545D01*
X60702817Y-25563831D01*
X60763293Y-25420974D01*
X60823769Y-25349545D01*
X60944721Y-25278117D01*
X61307579Y-25278117D01*
X61428531Y-25349545D01*
X61489007Y-25420974D01*
X61549483Y-25563831D01*
X61549483Y-25849545D01*
X61489007Y-25992402D01*
X61549483Y-24420974D02*
X61489007Y-24563831D01*
X61428531Y-24635260D01*
X61307579Y-24706688D01*
X60944721Y-24706688D01*
X60823769Y-24635260D01*
X60763293Y-24563831D01*
X60702817Y-24420974D01*
X60702817Y-24206688D01*
X60763293Y-24063831D01*
X60823769Y-23992402D01*
X60944721Y-23920974D01*
X61307579Y-23920974D01*
X61428531Y-23992402D01*
X61489007Y-24063831D01*
X61549483Y-24206688D01*
X61549483Y-24420974D01*
X63754483Y-40742402D02*
X62484483Y-40742402D01*
X62907817Y-40028117D02*
X63754483Y-40028117D01*
X63028769Y-40028117D02*
X62968293Y-39956688D01*
X62907817Y-39813831D01*
X62907817Y-39599545D01*
X62968293Y-39456688D01*
X63089245Y-39385260D01*
X63754483Y-39385260D01*
X62907817Y-38885260D02*
X62907817Y-38313831D01*
X62484483Y-38670974D02*
X63573055Y-38670974D01*
X63694007Y-38599545D01*
X63754483Y-38456688D01*
X63754483Y-38313831D01*
X63694007Y-37242402D02*
X63754483Y-37385260D01*
X63754483Y-37670974D01*
X63694007Y-37813831D01*
X63573055Y-37885260D01*
X63089245Y-37885260D01*
X62968293Y-37813831D01*
X62907817Y-37670974D01*
X62907817Y-37385260D01*
X62968293Y-37242402D01*
X63089245Y-37170974D01*
X63210198Y-37170974D01*
X63331150Y-37885260D01*
X63754483Y-36528117D02*
X62907817Y-36528117D01*
X63149721Y-36528117D02*
X63028769Y-36456688D01*
X62968293Y-36385260D01*
X62907817Y-36242402D01*
X62907817Y-36099545D01*
X62907817Y-35813831D02*
X62907817Y-35242402D01*
X63754483Y-35599545D02*
X62665912Y-35599545D01*
X62544960Y-35528117D01*
X62484483Y-35385260D01*
X62484483Y-35242402D01*
X63754483Y-34099545D02*
X63089245Y-34099545D01*
X62968293Y-34170974D01*
X62907817Y-34313831D01*
X62907817Y-34599545D01*
X62968293Y-34742402D01*
X63694007Y-34099545D02*
X63754483Y-34242402D01*
X63754483Y-34599545D01*
X63694007Y-34742402D01*
X63573055Y-34813831D01*
X63452102Y-34813831D01*
X63331150Y-34742402D01*
X63270674Y-34599545D01*
X63270674Y-34242402D01*
X63210198Y-34099545D01*
X63694007Y-32742402D02*
X63754483Y-32885260D01*
X63754483Y-33170974D01*
X63694007Y-33313831D01*
X63633531Y-33385260D01*
X63512579Y-33456688D01*
X63149721Y-33456688D01*
X63028769Y-33385260D01*
X62968293Y-33313831D01*
X62907817Y-33170974D01*
X62907817Y-32885260D01*
X62968293Y-32742402D01*
X63694007Y-31528117D02*
X63754483Y-31670974D01*
X63754483Y-31956688D01*
X63694007Y-32099545D01*
X63573055Y-32170974D01*
X63089245Y-32170974D01*
X62968293Y-32099545D01*
X62907817Y-31956688D01*
X62907817Y-31670974D01*
X62968293Y-31528117D01*
X63089245Y-31456688D01*
X63210198Y-31456688D01*
X63331150Y-32170974D01*
X63089245Y-29170974D02*
X63149721Y-28956688D01*
X63210198Y-28885260D01*
X63331150Y-28813831D01*
X63512579Y-28813831D01*
X63633531Y-28885260D01*
X63694007Y-28956688D01*
X63754483Y-29099545D01*
X63754483Y-29670974D01*
X62484483Y-29670974D01*
X62484483Y-29170974D01*
X62544960Y-29028117D01*
X62605436Y-28956688D01*
X62726388Y-28885260D01*
X62847340Y-28885260D01*
X62968293Y-28956688D01*
X63028769Y-29028117D01*
X63089245Y-29170974D01*
X63089245Y-29670974D01*
X63754483Y-27956688D02*
X63694007Y-28099545D01*
X63633531Y-28170974D01*
X63512579Y-28242402D01*
X63149721Y-28242402D01*
X63028769Y-28170974D01*
X62968293Y-28099545D01*
X62907817Y-27956688D01*
X62907817Y-27742402D01*
X62968293Y-27599545D01*
X63028769Y-27528117D01*
X63149721Y-27456688D01*
X63512579Y-27456688D01*
X63633531Y-27528117D01*
X63694007Y-27599545D01*
X63754483Y-27742402D01*
X63754483Y-27956688D01*
X63754483Y-26170974D02*
X63089245Y-26170974D01*
X62968293Y-26242402D01*
X62907817Y-26385260D01*
X62907817Y-26670974D01*
X62968293Y-26813831D01*
X63694007Y-26170974D02*
X63754483Y-26313831D01*
X63754483Y-26670974D01*
X63694007Y-26813831D01*
X63573055Y-26885260D01*
X63452102Y-26885260D01*
X63331150Y-26813831D01*
X63270674Y-26670974D01*
X63270674Y-26313831D01*
X63210198Y-26170974D01*
X63754483Y-25456688D02*
X62907817Y-25456688D01*
X63149721Y-25456688D02*
X63028769Y-25385260D01*
X62968293Y-25313831D01*
X62907817Y-25170974D01*
X62907817Y-25028117D01*
X63754483Y-23885260D02*
X62484483Y-23885260D01*
X63694007Y-23885260D02*
X63754483Y-24028117D01*
X63754483Y-24313831D01*
X63694007Y-24456688D01*
X63633531Y-24528117D01*
X63512579Y-24599545D01*
X63149721Y-24599545D01*
X63028769Y-24528117D01*
X62968293Y-24456688D01*
X62907817Y-24313831D01*
X62907817Y-24028117D01*
X62968293Y-23885260D01*
X62907817Y-22170974D02*
X63754483Y-21813831D01*
X62907817Y-21456688D01*
X63754483Y-20099545D02*
X63754483Y-20956688D01*
X63754483Y-20528117D02*
X62484483Y-20528117D01*
X62665912Y-20670974D01*
X62786864Y-20813831D01*
X62847340Y-20956688D01*
X63633531Y-19456688D02*
X63694007Y-19385260D01*
X63754483Y-19456688D01*
X63694007Y-19528117D01*
X63633531Y-19456688D01*
X63754483Y-19456688D01*
X62484483Y-18456688D02*
X62484483Y-18313831D01*
X62544960Y-18170974D01*
X62605436Y-18099545D01*
X62726388Y-18028117D01*
X62968293Y-17956688D01*
X63270674Y-17956688D01*
X63512579Y-18028117D01*
X63633531Y-18099545D01*
X63694007Y-18170974D01*
X63754483Y-18313831D01*
X63754483Y-18456688D01*
X63694007Y-18599545D01*
X63633531Y-18670974D01*
X63512579Y-18742402D01*
X63270674Y-18813831D01*
X62968293Y-18813831D01*
X62726388Y-18742402D01*
X62605436Y-18670974D01*
X62544960Y-18599545D01*
X62484483Y-18456688D01*
X65959483Y-44206688D02*
X65899007Y-44349545D01*
X65778055Y-44420974D01*
X64689483Y-44420974D01*
X65959483Y-42992402D02*
X65294245Y-42992402D01*
X65173293Y-43063831D01*
X65112817Y-43206688D01*
X65112817Y-43492402D01*
X65173293Y-43635260D01*
X65899007Y-42992402D02*
X65959483Y-43135260D01*
X65959483Y-43492402D01*
X65899007Y-43635260D01*
X65778055Y-43706688D01*
X65657102Y-43706688D01*
X65536150Y-43635260D01*
X65475674Y-43492402D01*
X65475674Y-43135260D01*
X65415198Y-42992402D01*
X65112817Y-41635260D02*
X65959483Y-41635260D01*
X65112817Y-42278117D02*
X65778055Y-42278117D01*
X65899007Y-42206688D01*
X65959483Y-42063831D01*
X65959483Y-41849545D01*
X65899007Y-41706688D01*
X65838531Y-41635260D01*
X65959483Y-40920974D02*
X65112817Y-40920974D01*
X65354721Y-40920974D02*
X65233769Y-40849545D01*
X65173293Y-40778117D01*
X65112817Y-40635260D01*
X65112817Y-40492402D01*
X65899007Y-39420974D02*
X65959483Y-39563831D01*
X65959483Y-39849545D01*
X65899007Y-39992402D01*
X65778055Y-40063831D01*
X65294245Y-40063831D01*
X65173293Y-39992402D01*
X65112817Y-39849545D01*
X65112817Y-39563831D01*
X65173293Y-39420974D01*
X65294245Y-39349545D01*
X65415198Y-39349545D01*
X65536150Y-40063831D01*
X65112817Y-38706688D02*
X65959483Y-38706688D01*
X65233769Y-38706688D02*
X65173293Y-38635260D01*
X65112817Y-38492402D01*
X65112817Y-38278117D01*
X65173293Y-38135260D01*
X65294245Y-38063831D01*
X65959483Y-38063831D01*
X65959483Y-36706688D02*
X65294245Y-36706688D01*
X65173293Y-36778117D01*
X65112817Y-36920974D01*
X65112817Y-37206688D01*
X65173293Y-37349545D01*
X65899007Y-36706688D02*
X65959483Y-36849545D01*
X65959483Y-37206688D01*
X65899007Y-37349545D01*
X65778055Y-37420974D01*
X65657102Y-37420974D01*
X65536150Y-37349545D01*
X65475674Y-37206688D01*
X65475674Y-36849545D01*
X65415198Y-36706688D01*
X65959483Y-35349545D02*
X64689483Y-35349545D01*
X65899007Y-35349545D02*
X65959483Y-35492402D01*
X65959483Y-35778117D01*
X65899007Y-35920974D01*
X65838531Y-35992402D01*
X65717579Y-36063831D01*
X65354721Y-36063831D01*
X65233769Y-35992402D01*
X65173293Y-35920974D01*
X65112817Y-35778117D01*
X65112817Y-35492402D01*
X65173293Y-35349545D01*
X65959483Y-33992402D02*
X65294245Y-33992402D01*
X65173293Y-34063831D01*
X65112817Y-34206688D01*
X65112817Y-34492402D01*
X65173293Y-34635260D01*
X65899007Y-33992402D02*
X65959483Y-34135260D01*
X65959483Y-34492402D01*
X65899007Y-34635260D01*
X65778055Y-34706688D01*
X65657102Y-34706688D01*
X65536150Y-34635260D01*
X65475674Y-34492402D01*
X65475674Y-34135260D01*
X65415198Y-33992402D01*
X65899007Y-32635260D02*
X65959483Y-32778117D01*
X65959483Y-33063831D01*
X65899007Y-33206688D01*
X65838531Y-33278117D01*
X65717579Y-33349545D01*
X65354721Y-33349545D01*
X65233769Y-33278117D01*
X65173293Y-33206688D01*
X65112817Y-33063831D01*
X65112817Y-32778117D01*
X65173293Y-32635260D01*
X65959483Y-31992402D02*
X64689483Y-31992402D01*
X65959483Y-31349545D02*
X65294245Y-31349545D01*
X65173293Y-31420974D01*
X65112817Y-31563831D01*
X65112817Y-31778117D01*
X65173293Y-31920974D01*
X65233769Y-31992402D01*
X65959483Y-30635260D02*
X65112817Y-30635260D01*
X64689483Y-30635260D02*
X64749960Y-30706688D01*
X64810436Y-30635260D01*
X64749960Y-30563831D01*
X64689483Y-30635260D01*
X64810436Y-30635260D01*
X66443293Y-28349545D02*
X66382817Y-28420974D01*
X66201388Y-28563831D01*
X66080436Y-28635260D01*
X65899007Y-28706688D01*
X65596626Y-28778117D01*
X65354721Y-28778117D01*
X65052340Y-28706688D01*
X64870912Y-28635260D01*
X64749960Y-28563831D01*
X64568531Y-28420974D01*
X64508055Y-28349545D01*
X64810436Y-27849545D02*
X64749960Y-27778117D01*
X64689483Y-27635260D01*
X64689483Y-27278117D01*
X64749960Y-27135260D01*
X64810436Y-27063831D01*
X64931388Y-26992402D01*
X65052340Y-26992402D01*
X65233769Y-27063831D01*
X65959483Y-27920974D01*
X65959483Y-26992402D01*
X64689483Y-26063831D02*
X64689483Y-25920974D01*
X64749960Y-25778117D01*
X64810436Y-25706688D01*
X64931388Y-25635260D01*
X65173293Y-25563831D01*
X65475674Y-25563831D01*
X65717579Y-25635260D01*
X65838531Y-25706688D01*
X65899007Y-25778117D01*
X65959483Y-25920974D01*
X65959483Y-26063831D01*
X65899007Y-26206688D01*
X65838531Y-26278117D01*
X65717579Y-26349545D01*
X65475674Y-26420974D01*
X65173293Y-26420974D01*
X64931388Y-26349545D01*
X64810436Y-26278117D01*
X64749960Y-26206688D01*
X64689483Y-26063831D01*
X64810436Y-24992402D02*
X64749960Y-24920974D01*
X64689483Y-24778117D01*
X64689483Y-24420974D01*
X64749960Y-24278117D01*
X64810436Y-24206688D01*
X64931388Y-24135260D01*
X65052340Y-24135260D01*
X65233769Y-24206688D01*
X65959483Y-25063831D01*
X65959483Y-24135260D01*
X64689483Y-23206688D02*
X64689483Y-23063831D01*
X64749960Y-22920974D01*
X64810436Y-22849545D01*
X64931388Y-22778117D01*
X65173293Y-22706688D01*
X65475674Y-22706688D01*
X65717579Y-22778117D01*
X65838531Y-22849545D01*
X65899007Y-22920974D01*
X65959483Y-23063831D01*
X65959483Y-23206688D01*
X65899007Y-23349545D01*
X65838531Y-23420974D01*
X65717579Y-23492402D01*
X65475674Y-23563831D01*
X65173293Y-23563831D01*
X64931388Y-23492402D01*
X64810436Y-23420974D01*
X64749960Y-23349545D01*
X64689483Y-23206688D01*
X64629007Y-20992402D02*
X66261864Y-22278117D01*
X64689483Y-20635260D02*
X64689483Y-19635260D01*
X65959483Y-20278117D01*
X64629007Y-17992402D02*
X66261864Y-19278117D01*
X65959483Y-16706688D02*
X65959483Y-17563831D01*
X65959483Y-17135260D02*
X64689483Y-17135260D01*
X64870912Y-17278117D01*
X64991864Y-17420974D01*
X65052340Y-17563831D01*
X64689483Y-15420974D02*
X64689483Y-15706688D01*
X64749960Y-15849545D01*
X64810436Y-15920974D01*
X64991864Y-16063831D01*
X65233769Y-16135260D01*
X65717579Y-16135260D01*
X65838531Y-16063831D01*
X65899007Y-15992402D01*
X65959483Y-15849545D01*
X65959483Y-15563831D01*
X65899007Y-15420974D01*
X65838531Y-15349545D01*
X65717579Y-15278117D01*
X65415198Y-15278117D01*
X65294245Y-15349545D01*
X65233769Y-15420974D01*
X65173293Y-15563831D01*
X65173293Y-15849545D01*
X65233769Y-15992402D01*
X65294245Y-16063831D01*
X65415198Y-16135260D01*
X66443293Y-14778117D02*
X66382817Y-14706688D01*
X66201388Y-14563831D01*
X66080436Y-14492402D01*
X65899007Y-14420974D01*
X65596626Y-14349545D01*
X65354721Y-14349545D01*
X65052340Y-14420974D01*
X64870912Y-14492402D01*
X64749960Y-14563831D01*
X64568531Y-14706688D01*
X64508055Y-14778117D01*
D11*
X27502000Y-39370000D02*
G75*
G03*
X27502000Y-39370000I-11500000J0D01*
G01*
D12*
X50873922Y-22046000D02*
X51391078Y-22046000D01*
X50873922Y-20626000D02*
X51391078Y-20626000D01*
X45461422Y-22046000D02*
X45978578Y-22046000D01*
X45461422Y-20626000D02*
X45978578Y-20626000D01*
X40381422Y-20626000D02*
X40898578Y-20626000D01*
X40381422Y-22046000D02*
X40898578Y-22046000D01*
X34539422Y-20880000D02*
X35056578Y-20880000D01*
X34539422Y-22300000D02*
X35056578Y-22300000D01*
X56050922Y-20626000D02*
X56568078Y-20626000D01*
X56050922Y-22046000D02*
X56568078Y-22046000D01*
X20902000Y-52124000D02*
X20902000Y-55064000D01*
X20902000Y-55064000D02*
X26342000Y-55064000D01*
X26342000Y-55064000D02*
X26342000Y-52124000D01*
X26342000Y-52124000D02*
X20902000Y-52124000D01*
X19882000Y-53594000D02*
X20902000Y-53594000D01*
X27362000Y-53594000D02*
X26342000Y-53594000D01*
X21802000Y-52124000D02*
X21802000Y-55064000D01*
X21922000Y-52124000D02*
X21922000Y-55064000D01*
X21682000Y-52124000D02*
X21682000Y-55064000D01*
X1070000Y-34198000D02*
X4010000Y-34198000D01*
X1070000Y-33958000D02*
X4010000Y-33958000D01*
X1070000Y-34078000D02*
X4010000Y-34078000D01*
X2540000Y-28518000D02*
X2540000Y-29538000D01*
X2540000Y-35998000D02*
X2540000Y-34978000D01*
X1070000Y-29538000D02*
X1070000Y-34978000D01*
X4010000Y-29538000D02*
X1070000Y-29538000D01*
X4010000Y-34978000D02*
X4010000Y-29538000D01*
X1070000Y-34978000D02*
X4010000Y-34978000D01*
X31752000Y-32202000D02*
X31752000Y-33132000D01*
X31752000Y-35362000D02*
X31752000Y-34432000D01*
X31752000Y-35362000D02*
X33912000Y-35362000D01*
X31752000Y-32202000D02*
X33212000Y-32202000D01*
X38356000Y-32202000D02*
X39816000Y-32202000D01*
X38356000Y-35362000D02*
X40516000Y-35362000D01*
X38356000Y-35362000D02*
X38356000Y-34432000D01*
X38356000Y-32202000D02*
X38356000Y-33132000D01*
X44960000Y-32202000D02*
X44960000Y-33132000D01*
X44960000Y-35362000D02*
X44960000Y-34432000D01*
X44960000Y-35362000D02*
X47120000Y-35362000D01*
X44960000Y-32202000D02*
X46420000Y-32202000D01*
X51818000Y-32202000D02*
X53278000Y-32202000D01*
X51818000Y-35362000D02*
X53978000Y-35362000D01*
X51818000Y-35362000D02*
X51818000Y-34432000D01*
X51818000Y-32202000D02*
X51818000Y-33132000D01*
X38352000Y-54920000D02*
X38352000Y-53990000D01*
X38352000Y-51760000D02*
X38352000Y-52690000D01*
X38352000Y-51760000D02*
X36192000Y-51760000D01*
X38352000Y-54920000D02*
X36892000Y-54920000D01*
X4320000Y-20518000D02*
X4320000Y-21448000D01*
X4320000Y-23678000D02*
X4320000Y-22748000D01*
X4320000Y-23678000D02*
X6480000Y-23678000D01*
X4320000Y-20518000D02*
X5780000Y-20518000D01*
X4320000Y-16708000D02*
X5780000Y-16708000D01*
X4320000Y-19868000D02*
X6480000Y-19868000D01*
X4320000Y-19868000D02*
X4320000Y-18938000D01*
X4320000Y-16708000D02*
X4320000Y-17638000D01*
X4320000Y-12898000D02*
X5780000Y-12898000D01*
X4320000Y-16058000D02*
X6480000Y-16058000D01*
X4320000Y-16058000D02*
X4320000Y-15128000D01*
X4320000Y-12898000D02*
X4320000Y-13828000D01*
X36524000Y-34040578D02*
X36524000Y-33523422D01*
X35104000Y-34040578D02*
X35104000Y-33523422D01*
X41454000Y-34040578D02*
X41454000Y-33523422D01*
X42874000Y-34040578D02*
X42874000Y-33523422D01*
X49478000Y-34040578D02*
X49478000Y-33523422D01*
X48058000Y-34040578D02*
X48058000Y-33523422D01*
X55170000Y-34040578D02*
X55170000Y-33523422D01*
X56590000Y-34040578D02*
X56590000Y-33523422D01*
X32692078Y-31444000D02*
X32174922Y-31444000D01*
X32692078Y-30024000D02*
X32174922Y-30024000D01*
X39374578Y-30024000D02*
X38857422Y-30024000D01*
X39374578Y-31444000D02*
X38857422Y-31444000D01*
X46057078Y-31444000D02*
X45539922Y-31444000D01*
X46057078Y-30024000D02*
X45539922Y-30024000D01*
X52836578Y-30024000D02*
X52319422Y-30024000D01*
X52836578Y-31444000D02*
X52319422Y-31444000D01*
X33278578Y-53034000D02*
X32761422Y-53034000D01*
X33278578Y-51614000D02*
X32761422Y-51614000D01*
X10362000Y-23372578D02*
X10362000Y-22855422D01*
X8942000Y-23372578D02*
X8942000Y-22855422D01*
X8942000Y-19308578D02*
X8942000Y-18791422D01*
X10362000Y-19308578D02*
X10362000Y-18791422D01*
X10362000Y-15244578D02*
X10362000Y-14727422D01*
X8942000Y-15244578D02*
X8942000Y-14727422D01*
X26364000Y-14140922D02*
X26364000Y-14658078D01*
X24944000Y-14140922D02*
X24944000Y-14658078D01*
X22404000Y-14043922D02*
X22404000Y-14561078D01*
X23824000Y-14043922D02*
X23824000Y-14561078D01*
X21284000Y-13965422D02*
X21284000Y-14482578D01*
X19864000Y-13965422D02*
X19864000Y-14482578D01*
X17070000Y-13965422D02*
X17070000Y-14482578D01*
X18490000Y-13965422D02*
X18490000Y-14482578D01*
X50873922Y-15546000D02*
X51391078Y-15546000D01*
X50873922Y-16966000D02*
X51391078Y-16966000D01*
X45461422Y-15546000D02*
X45978578Y-15546000D01*
X45461422Y-16966000D02*
X45978578Y-16966000D01*
X40302922Y-16966000D02*
X40820078Y-16966000D01*
X40302922Y-15546000D02*
X40820078Y-15546000D01*
X34363922Y-17728000D02*
X34881078Y-17728000D01*
X34363922Y-16308000D02*
X34881078Y-16308000D01*
X51488078Y-19506000D02*
X50970922Y-19506000D01*
X51488078Y-18086000D02*
X50970922Y-18086000D01*
X45978578Y-18086000D02*
X45461422Y-18086000D01*
X45978578Y-19506000D02*
X45461422Y-19506000D01*
X40898578Y-19506000D02*
X40381422Y-19506000D01*
X40898578Y-18086000D02*
X40381422Y-18086000D01*
X35056578Y-20014000D02*
X34539422Y-20014000D01*
X35056578Y-18594000D02*
X34539422Y-18594000D01*
X56129422Y-16966000D02*
X56646578Y-16966000D01*
X56129422Y-15546000D02*
X56646578Y-15546000D01*
X56646578Y-19506000D02*
X56129422Y-19506000D01*
X56646578Y-18086000D02*
X56129422Y-18086000D01*
X26546000Y-22352000D02*
X26546000Y-19592000D01*
X26546000Y-19592000D02*
X26341000Y-19592000D01*
X26546000Y-22352000D02*
X26546000Y-25112000D01*
X26546000Y-25112000D02*
X26341000Y-25112000D01*
X16126000Y-22352000D02*
X16126000Y-19592000D01*
X16126000Y-19592000D02*
X16331000Y-19592000D01*
X16126000Y-22352000D02*
X16126000Y-25112000D01*
X16126000Y-25112000D02*
X16331000Y-25112000D01*
X16331000Y-25112000D02*
X16331000Y-26802000D01*
D13*
X62738095Y-3000380D02*
X62738095Y-2000380D01*
X62738095Y-2476571D02*
X63309523Y-2476571D01*
X63309523Y-3000380D02*
X63309523Y-2000380D01*
X64214285Y-2333714D02*
X64214285Y-3000380D01*
X63976190Y-1952761D02*
X63738095Y-2667047D01*
X64357142Y-2667047D01*
X-4571904Y-3000380D02*
X-4571904Y-2000380D01*
X-4571904Y-2476571D02*
X-4000476Y-2476571D01*
X-4000476Y-3000380D02*
X-4000476Y-2000380D01*
X-3095714Y-2333714D02*
X-3095714Y-3000380D01*
X-3333809Y-1952761D02*
X-3571904Y-2667047D01*
X-2952857Y-2667047D01*
X62738095Y-47450380D02*
X62738095Y-46450380D01*
X62738095Y-46926571D02*
X63309523Y-46926571D01*
X63309523Y-47450380D02*
X63309523Y-46450380D01*
X64214285Y-46783714D02*
X64214285Y-47450380D01*
X63976190Y-46402761D02*
X63738095Y-47117047D01*
X64357142Y-47117047D01*
X-4571904Y-47450380D02*
X-4571904Y-46450380D01*
X-4571904Y-46926571D02*
X-4000476Y-46926571D01*
X-4000476Y-47450380D02*
X-4000476Y-46450380D01*
X-3095714Y-46783714D02*
X-3095714Y-47450380D01*
X-3333809Y-46402761D02*
X-3571904Y-47117047D01*
X-2952857Y-47117047D01*
X14121047Y-26298571D02*
X14263904Y-26346190D01*
X14311523Y-26393809D01*
X14359142Y-26489047D01*
X14359142Y-26631904D01*
X14311523Y-26727142D01*
X14263904Y-26774761D01*
X14168666Y-26822380D01*
X13787714Y-26822380D01*
X13787714Y-25822380D01*
X14121047Y-25822380D01*
X14216285Y-25870000D01*
X14263904Y-25917619D01*
X14311523Y-26012857D01*
X14311523Y-26108095D01*
X14263904Y-26203333D01*
X14216285Y-26250952D01*
X14121047Y-26298571D01*
X13787714Y-26298571D01*
X14787714Y-25822380D02*
X14787714Y-26631904D01*
X14835333Y-26727142D01*
X14882952Y-26774761D01*
X14978190Y-26822380D01*
X15168666Y-26822380D01*
X15263904Y-26774761D01*
X15311523Y-26727142D01*
X15359142Y-26631904D01*
X15359142Y-25822380D01*
X15740095Y-25822380D02*
X16406761Y-25822380D01*
X15740095Y-26822380D01*
X16406761Y-26822380D01*
X16692476Y-25822380D02*
X17359142Y-25822380D01*
X16692476Y-26822380D01*
X17359142Y-26822380D01*
X18263904Y-26822380D02*
X17692476Y-26822380D01*
X17978190Y-26822380D02*
X17978190Y-25822380D01*
X17882952Y-25965238D01*
X17787714Y-26060476D01*
X17692476Y-26108095D01*
X50965833Y-20043142D02*
X50918214Y-20090761D01*
X50775357Y-20138380D01*
X50680119Y-20138380D01*
X50537261Y-20090761D01*
X50442023Y-19995523D01*
X50394404Y-19900285D01*
X50346785Y-19709809D01*
X50346785Y-19566952D01*
X50394404Y-19376476D01*
X50442023Y-19281238D01*
X50537261Y-19186000D01*
X50680119Y-19138380D01*
X50775357Y-19138380D01*
X50918214Y-19186000D01*
X50965833Y-19233619D01*
X51918214Y-20138380D02*
X51346785Y-20138380D01*
X51632500Y-20138380D02*
X51632500Y-19138380D01*
X51537261Y-19281238D01*
X51442023Y-19376476D01*
X51346785Y-19424095D01*
X45553333Y-20043142D02*
X45505714Y-20090761D01*
X45362857Y-20138380D01*
X45267619Y-20138380D01*
X45124761Y-20090761D01*
X45029523Y-19995523D01*
X44981904Y-19900285D01*
X44934285Y-19709809D01*
X44934285Y-19566952D01*
X44981904Y-19376476D01*
X45029523Y-19281238D01*
X45124761Y-19186000D01*
X45267619Y-19138380D01*
X45362857Y-19138380D01*
X45505714Y-19186000D01*
X45553333Y-19233619D01*
X45934285Y-19233619D02*
X45981904Y-19186000D01*
X46077142Y-19138380D01*
X46315238Y-19138380D01*
X46410476Y-19186000D01*
X46458095Y-19233619D01*
X46505714Y-19328857D01*
X46505714Y-19424095D01*
X46458095Y-19566952D01*
X45886666Y-20138380D01*
X46505714Y-20138380D01*
X40473333Y-20043142D02*
X40425714Y-20090761D01*
X40282857Y-20138380D01*
X40187619Y-20138380D01*
X40044761Y-20090761D01*
X39949523Y-19995523D01*
X39901904Y-19900285D01*
X39854285Y-19709809D01*
X39854285Y-19566952D01*
X39901904Y-19376476D01*
X39949523Y-19281238D01*
X40044761Y-19186000D01*
X40187619Y-19138380D01*
X40282857Y-19138380D01*
X40425714Y-19186000D01*
X40473333Y-19233619D01*
X40806666Y-19138380D02*
X41425714Y-19138380D01*
X41092380Y-19519333D01*
X41235238Y-19519333D01*
X41330476Y-19566952D01*
X41378095Y-19614571D01*
X41425714Y-19709809D01*
X41425714Y-19947904D01*
X41378095Y-20043142D01*
X41330476Y-20090761D01*
X41235238Y-20138380D01*
X40949523Y-20138380D01*
X40854285Y-20090761D01*
X40806666Y-20043142D01*
X34631333Y-20297142D02*
X34583714Y-20344761D01*
X34440857Y-20392380D01*
X34345619Y-20392380D01*
X34202761Y-20344761D01*
X34107523Y-20249523D01*
X34059904Y-20154285D01*
X34012285Y-19963809D01*
X34012285Y-19820952D01*
X34059904Y-19630476D01*
X34107523Y-19535238D01*
X34202761Y-19440000D01*
X34345619Y-19392380D01*
X34440857Y-19392380D01*
X34583714Y-19440000D01*
X34631333Y-19487619D01*
X35488476Y-19725714D02*
X35488476Y-20392380D01*
X35250380Y-19344761D02*
X35012285Y-20059047D01*
X35631333Y-20059047D01*
X56142833Y-20043142D02*
X56095214Y-20090761D01*
X55952357Y-20138380D01*
X55857119Y-20138380D01*
X55714261Y-20090761D01*
X55619023Y-19995523D01*
X55571404Y-19900285D01*
X55523785Y-19709809D01*
X55523785Y-19566952D01*
X55571404Y-19376476D01*
X55619023Y-19281238D01*
X55714261Y-19186000D01*
X55857119Y-19138380D01*
X55952357Y-19138380D01*
X56095214Y-19186000D01*
X56142833Y-19233619D01*
X57047595Y-19138380D02*
X56571404Y-19138380D01*
X56523785Y-19614571D01*
X56571404Y-19566952D01*
X56666642Y-19519333D01*
X56904738Y-19519333D01*
X56999976Y-19566952D01*
X57047595Y-19614571D01*
X57095214Y-19709809D01*
X57095214Y-19947904D01*
X57047595Y-20043142D01*
X56999976Y-20090761D01*
X56904738Y-20138380D01*
X56666642Y-20138380D01*
X56571404Y-20090761D01*
X56523785Y-20043142D01*
X22883904Y-51576380D02*
X22883904Y-50576380D01*
X23122000Y-50576380D01*
X23264857Y-50624000D01*
X23360095Y-50719238D01*
X23407714Y-50814476D01*
X23455333Y-51004952D01*
X23455333Y-51147809D01*
X23407714Y-51338285D01*
X23360095Y-51433523D01*
X23264857Y-51528761D01*
X23122000Y-51576380D01*
X22883904Y-51576380D01*
X24407714Y-51576380D02*
X23836285Y-51576380D01*
X24122000Y-51576380D02*
X24122000Y-50576380D01*
X24026761Y-50719238D01*
X23931523Y-50814476D01*
X23836285Y-50862095D01*
X18280095Y-51946380D02*
X18280095Y-50946380D01*
X18851523Y-51946380D02*
X18422952Y-51374952D01*
X18851523Y-50946380D02*
X18280095Y-51517809D01*
X522380Y-32996095D02*
X-477619Y-32996095D01*
X-477619Y-32758000D01*
X-430000Y-32615142D01*
X-334761Y-32519904D01*
X-239523Y-32472285D01*
X-49047Y-32424666D01*
X93809Y-32424666D01*
X284285Y-32472285D01*
X379523Y-32519904D01*
X474761Y-32615142D01*
X522380Y-32758000D01*
X522380Y-32996095D01*
X-382380Y-32043714D02*
X-430000Y-31996095D01*
X-477619Y-31900857D01*
X-477619Y-31662761D01*
X-429999Y-31567523D01*
X-382380Y-31519904D01*
X-287142Y-31472285D01*
X-191904Y-31472285D01*
X-49047Y-31519904D01*
X522380Y-32091333D01*
X522380Y-31472285D01*
X892380Y-37599904D02*
X-107619Y-37599904D01*
X892380Y-37028476D02*
X320952Y-37457047D01*
X-107619Y-37028476D02*
X463809Y-37599904D01*
X50669904Y-22482380D02*
X50669904Y-21482380D01*
X50908000Y-21482380D01*
X51050857Y-21530000D01*
X51146095Y-21625238D01*
X51193714Y-21720476D01*
X51241333Y-21910952D01*
X51241333Y-22053809D01*
X51193714Y-22244285D01*
X51146095Y-22339523D01*
X51050857Y-22434761D01*
X50908000Y-22482380D01*
X50669904Y-22482380D01*
X51574666Y-21482380D02*
X52193714Y-21482380D01*
X51860380Y-21863333D01*
X52003238Y-21863333D01*
X52098476Y-21910952D01*
X52146095Y-21958571D01*
X52193714Y-22053809D01*
X52193714Y-22291904D01*
X52146095Y-22387142D01*
X52098476Y-22434761D01*
X52003238Y-22482380D01*
X51717523Y-22482380D01*
X51622285Y-22434761D01*
X51574666Y-22387142D01*
X45261904Y-22482380D02*
X45261904Y-21482380D01*
X45500000Y-21482380D01*
X45642857Y-21530000D01*
X45738095Y-21625238D01*
X45785714Y-21720476D01*
X45833333Y-21910952D01*
X45833333Y-22053809D01*
X45785714Y-22244285D01*
X45738095Y-22339523D01*
X45642857Y-22434761D01*
X45500000Y-22482380D01*
X45261904Y-22482380D01*
X46690476Y-21815714D02*
X46690476Y-22482380D01*
X46452380Y-21434761D02*
X46214285Y-22149047D01*
X46833333Y-22149047D01*
X39673904Y-22482380D02*
X39673904Y-21482380D01*
X39912000Y-21482380D01*
X40054857Y-21530000D01*
X40150095Y-21625238D01*
X40197714Y-21720476D01*
X40245333Y-21910952D01*
X40245333Y-22053809D01*
X40197714Y-22244285D01*
X40150095Y-22339523D01*
X40054857Y-22434761D01*
X39912000Y-22482380D01*
X39673904Y-22482380D01*
X41150095Y-21482380D02*
X40673904Y-21482380D01*
X40626285Y-21958571D01*
X40673904Y-21910952D01*
X40769142Y-21863333D01*
X41007238Y-21863333D01*
X41102476Y-21910952D01*
X41150095Y-21958571D01*
X41197714Y-22053809D01*
X41197714Y-22291904D01*
X41150095Y-22387142D01*
X41102476Y-22434761D01*
X41007238Y-22482380D01*
X40769142Y-22482380D01*
X40673904Y-22434761D01*
X40626285Y-22387142D01*
X34159904Y-22482380D02*
X34159904Y-21482380D01*
X34398000Y-21482380D01*
X34540857Y-21530000D01*
X34636095Y-21625238D01*
X34683714Y-21720476D01*
X34731333Y-21910952D01*
X34731333Y-22053809D01*
X34683714Y-22244285D01*
X34636095Y-22339523D01*
X34540857Y-22434761D01*
X34398000Y-22482380D01*
X34159904Y-22482380D01*
X35588476Y-21482380D02*
X35398000Y-21482380D01*
X35302761Y-21530000D01*
X35255142Y-21577619D01*
X35159904Y-21720476D01*
X35112285Y-21910952D01*
X35112285Y-22291904D01*
X35159904Y-22387142D01*
X35207523Y-22434761D01*
X35302761Y-22482380D01*
X35493238Y-22482380D01*
X35588476Y-22434761D01*
X35636095Y-22387142D01*
X35683714Y-22291904D01*
X35683714Y-22053809D01*
X35636095Y-21958571D01*
X35588476Y-21910952D01*
X35493238Y-21863333D01*
X35302761Y-21863333D01*
X35207523Y-21910952D01*
X35159904Y-21958571D01*
X35112285Y-22053809D01*
X55675904Y-22482380D02*
X55675904Y-21482380D01*
X55914000Y-21482380D01*
X56056857Y-21530000D01*
X56152095Y-21625238D01*
X56199714Y-21720476D01*
X56247333Y-21910952D01*
X56247333Y-22053809D01*
X56199714Y-22244285D01*
X56152095Y-22339523D01*
X56056857Y-22434761D01*
X55914000Y-22482380D01*
X55675904Y-22482380D01*
X56580666Y-21482380D02*
X57247333Y-21482380D01*
X56818761Y-22482380D01*
X32416761Y-36829619D02*
X32321523Y-36782000D01*
X32226285Y-36686761D01*
X32083428Y-36543904D01*
X31988190Y-36496285D01*
X31892952Y-36496285D01*
X31940571Y-36734380D02*
X31845333Y-36686761D01*
X31750095Y-36591523D01*
X31702476Y-36401047D01*
X31702476Y-36067714D01*
X31750095Y-35877238D01*
X31845333Y-35782000D01*
X31940571Y-35734380D01*
X32131047Y-35734380D01*
X32226285Y-35782000D01*
X32321523Y-35877238D01*
X32369142Y-36067714D01*
X32369142Y-36401047D01*
X32321523Y-36591523D01*
X32226285Y-36686761D01*
X32131047Y-36734380D01*
X31940571Y-36734380D01*
X33321523Y-36734380D02*
X32750095Y-36734380D01*
X33035809Y-36734380D02*
X33035809Y-35734380D01*
X32940571Y-35877238D01*
X32845333Y-35972476D01*
X32750095Y-36020095D01*
X39020761Y-36829619D02*
X38925523Y-36782000D01*
X38830285Y-36686761D01*
X38687428Y-36543904D01*
X38592190Y-36496285D01*
X38496952Y-36496285D01*
X38544571Y-36734380D02*
X38449333Y-36686761D01*
X38354095Y-36591523D01*
X38306476Y-36401047D01*
X38306476Y-36067714D01*
X38354095Y-35877238D01*
X38449333Y-35782000D01*
X38544571Y-35734380D01*
X38735047Y-35734380D01*
X38830285Y-35782000D01*
X38925523Y-35877238D01*
X38973142Y-36067714D01*
X38973142Y-36401047D01*
X38925523Y-36591523D01*
X38830285Y-36686761D01*
X38735047Y-36734380D01*
X38544571Y-36734380D01*
X39354095Y-35829619D02*
X39401714Y-35782000D01*
X39496952Y-35734380D01*
X39735047Y-35734380D01*
X39830285Y-35782000D01*
X39877904Y-35829619D01*
X39925523Y-35924857D01*
X39925523Y-36020095D01*
X39877904Y-36162952D01*
X39306476Y-36734380D01*
X39925523Y-36734380D01*
X45624761Y-36829619D02*
X45529523Y-36782000D01*
X45434285Y-36686761D01*
X45291428Y-36543904D01*
X45196190Y-36496285D01*
X45100952Y-36496285D01*
X45148571Y-36734380D02*
X45053333Y-36686761D01*
X44958095Y-36591523D01*
X44910476Y-36401047D01*
X44910476Y-36067714D01*
X44958095Y-35877238D01*
X45053333Y-35782000D01*
X45148571Y-35734380D01*
X45339047Y-35734380D01*
X45434285Y-35782000D01*
X45529523Y-35877238D01*
X45577142Y-36067714D01*
X45577142Y-36401047D01*
X45529523Y-36591523D01*
X45434285Y-36686761D01*
X45339047Y-36734380D01*
X45148571Y-36734380D01*
X45910476Y-35734380D02*
X46529523Y-35734380D01*
X46196190Y-36115333D01*
X46339047Y-36115333D01*
X46434285Y-36162952D01*
X46481904Y-36210571D01*
X46529523Y-36305809D01*
X46529523Y-36543904D01*
X46481904Y-36639142D01*
X46434285Y-36686761D01*
X46339047Y-36734380D01*
X46053333Y-36734380D01*
X45958095Y-36686761D01*
X45910476Y-36639142D01*
X52482761Y-36829619D02*
X52387523Y-36782000D01*
X52292285Y-36686761D01*
X52149428Y-36543904D01*
X52054190Y-36496285D01*
X51958952Y-36496285D01*
X52006571Y-36734380D02*
X51911333Y-36686761D01*
X51816095Y-36591523D01*
X51768476Y-36401047D01*
X51768476Y-36067714D01*
X51816095Y-35877238D01*
X51911333Y-35782000D01*
X52006571Y-35734380D01*
X52197047Y-35734380D01*
X52292285Y-35782000D01*
X52387523Y-35877238D01*
X52435142Y-36067714D01*
X52435142Y-36401047D01*
X52387523Y-36591523D01*
X52292285Y-36686761D01*
X52197047Y-36734380D01*
X52006571Y-36734380D01*
X53292285Y-36067714D02*
X53292285Y-36734380D01*
X53054190Y-35686761D02*
X52816095Y-36401047D01*
X53435142Y-36401047D01*
X37496761Y-51387619D02*
X37401523Y-51340000D01*
X37306285Y-51244761D01*
X37163428Y-51101904D01*
X37068190Y-51054285D01*
X36972952Y-51054285D01*
X37020571Y-51292380D02*
X36925333Y-51244761D01*
X36830095Y-51149523D01*
X36782476Y-50959047D01*
X36782476Y-50625714D01*
X36830095Y-50435238D01*
X36925333Y-50340000D01*
X37020571Y-50292380D01*
X37211047Y-50292380D01*
X37306285Y-50340000D01*
X37401523Y-50435238D01*
X37449142Y-50625714D01*
X37449142Y-50959047D01*
X37401523Y-51149523D01*
X37306285Y-51244761D01*
X37211047Y-51292380D01*
X37020571Y-51292380D01*
X37782476Y-50292380D02*
X38449142Y-50292380D01*
X38020571Y-51292380D01*
X4984761Y-25145619D02*
X4889523Y-25098000D01*
X4794285Y-25002761D01*
X4651428Y-24859904D01*
X4556190Y-24812285D01*
X4460952Y-24812285D01*
X4508571Y-25050380D02*
X4413333Y-25002761D01*
X4318095Y-24907523D01*
X4270476Y-24717047D01*
X4270476Y-24383714D01*
X4318095Y-24193238D01*
X4413333Y-24098000D01*
X4508571Y-24050380D01*
X4699047Y-24050380D01*
X4794285Y-24098000D01*
X4889523Y-24193238D01*
X4937142Y-24383714D01*
X4937142Y-24717047D01*
X4889523Y-24907523D01*
X4794285Y-25002761D01*
X4699047Y-25050380D01*
X4508571Y-25050380D01*
X5508571Y-24478952D02*
X5413333Y-24431333D01*
X5365714Y-24383714D01*
X5318095Y-24288476D01*
X5318095Y-24240857D01*
X5365714Y-24145619D01*
X5413333Y-24098000D01*
X5508571Y-24050380D01*
X5699047Y-24050380D01*
X5794285Y-24098000D01*
X5841904Y-24145619D01*
X5889523Y-24240857D01*
X5889523Y-24288476D01*
X5841904Y-24383714D01*
X5794285Y-24431333D01*
X5699047Y-24478952D01*
X5508571Y-24478952D01*
X5413333Y-24526571D01*
X5365714Y-24574190D01*
X5318095Y-24669428D01*
X5318095Y-24859904D01*
X5365714Y-24955142D01*
X5413333Y-25002761D01*
X5508571Y-25050380D01*
X5699047Y-25050380D01*
X5794285Y-25002761D01*
X5841904Y-24955142D01*
X5889523Y-24859904D01*
X5889523Y-24669428D01*
X5841904Y-24574190D01*
X5794285Y-24526571D01*
X5699047Y-24478952D01*
X4984761Y-21335619D02*
X4889523Y-21288000D01*
X4794285Y-21192761D01*
X4651428Y-21049904D01*
X4556190Y-21002285D01*
X4460952Y-21002285D01*
X4508571Y-21240380D02*
X4413333Y-21192761D01*
X4318095Y-21097523D01*
X4270476Y-20907047D01*
X4270476Y-20573714D01*
X4318095Y-20383238D01*
X4413333Y-20288000D01*
X4508571Y-20240380D01*
X4699047Y-20240380D01*
X4794285Y-20288000D01*
X4889523Y-20383238D01*
X4937142Y-20573714D01*
X4937142Y-20907047D01*
X4889523Y-21097523D01*
X4794285Y-21192761D01*
X4699047Y-21240380D01*
X4508571Y-21240380D01*
X5413333Y-21240380D02*
X5603809Y-21240380D01*
X5699047Y-21192761D01*
X5746666Y-21145142D01*
X5841904Y-21002285D01*
X5889523Y-20811809D01*
X5889523Y-20430857D01*
X5841904Y-20335619D01*
X5794285Y-20288000D01*
X5699047Y-20240380D01*
X5508571Y-20240380D01*
X5413333Y-20288000D01*
X5365714Y-20335619D01*
X5318095Y-20430857D01*
X5318095Y-20668952D01*
X5365714Y-20764190D01*
X5413333Y-20811809D01*
X5508571Y-20859428D01*
X5699047Y-20859428D01*
X5794285Y-20811809D01*
X5841904Y-20764190D01*
X5889523Y-20668952D01*
X4508571Y-17525619D02*
X4413333Y-17478000D01*
X4318095Y-17382761D01*
X4175238Y-17239904D01*
X4080000Y-17192285D01*
X3984761Y-17192285D01*
X4032380Y-17430380D02*
X3937142Y-17382761D01*
X3841904Y-17287523D01*
X3794285Y-17097047D01*
X3794285Y-16763714D01*
X3841904Y-16573238D01*
X3937142Y-16478000D01*
X4032380Y-16430380D01*
X4222857Y-16430380D01*
X4318095Y-16478000D01*
X4413333Y-16573238D01*
X4460952Y-16763714D01*
X4460952Y-17097047D01*
X4413333Y-17287523D01*
X4318095Y-17382761D01*
X4222857Y-17430380D01*
X4032380Y-17430380D01*
X5413333Y-17430380D02*
X4841904Y-17430380D01*
X5127619Y-17430380D02*
X5127619Y-16430380D01*
X5032380Y-16573238D01*
X4937142Y-16668476D01*
X4841904Y-16716095D01*
X6032380Y-16430380D02*
X6127619Y-16430380D01*
X6222857Y-16478000D01*
X6270476Y-16525619D01*
X6318095Y-16620857D01*
X6365714Y-16811333D01*
X6365714Y-17049428D01*
X6318095Y-17239904D01*
X6270476Y-17335142D01*
X6222857Y-17382761D01*
X6127619Y-17430380D01*
X6032380Y-17430380D01*
X5937142Y-17382761D01*
X5889523Y-17335142D01*
X5841904Y-17239904D01*
X5794285Y-17049428D01*
X5794285Y-16811333D01*
X5841904Y-16620857D01*
X5889523Y-16525619D01*
X5937142Y-16478000D01*
X6032380Y-16430380D01*
X34616380Y-33948666D02*
X34140190Y-34282000D01*
X34616380Y-34520095D02*
X33616380Y-34520095D01*
X33616380Y-34139142D01*
X33664000Y-34043904D01*
X33711619Y-33996285D01*
X33806857Y-33948666D01*
X33949714Y-33948666D01*
X34044952Y-33996285D01*
X34092571Y-34043904D01*
X34140190Y-34139142D01*
X34140190Y-34520095D01*
X34616380Y-32996285D02*
X34616380Y-33567714D01*
X34616380Y-33282000D02*
X33616380Y-33282000D01*
X33759238Y-33377238D01*
X33854476Y-33472476D01*
X33902095Y-33567714D01*
X40966380Y-33948666D02*
X40490190Y-34282000D01*
X40966380Y-34520095D02*
X39966380Y-34520095D01*
X39966380Y-34139142D01*
X40014000Y-34043904D01*
X40061619Y-33996285D01*
X40156857Y-33948666D01*
X40299714Y-33948666D01*
X40394952Y-33996285D01*
X40442571Y-34043904D01*
X40490190Y-34139142D01*
X40490190Y-34520095D01*
X40061619Y-33567714D02*
X40014000Y-33520095D01*
X39966380Y-33424857D01*
X39966380Y-33186761D01*
X40014000Y-33091523D01*
X40061619Y-33043904D01*
X40156857Y-32996285D01*
X40252095Y-32996285D01*
X40394952Y-33043904D01*
X40966380Y-33615333D01*
X40966380Y-32996285D01*
X47570380Y-33948666D02*
X47094190Y-34282000D01*
X47570380Y-34520095D02*
X46570380Y-34520095D01*
X46570380Y-34139142D01*
X46618000Y-34043904D01*
X46665619Y-33996285D01*
X46760857Y-33948666D01*
X46903714Y-33948666D01*
X46998952Y-33996285D01*
X47046571Y-34043904D01*
X47094190Y-34139142D01*
X47094190Y-34520095D01*
X46570380Y-33615333D02*
X46570380Y-32996285D01*
X46951333Y-33329619D01*
X46951333Y-33186761D01*
X46998952Y-33091523D01*
X47046571Y-33043904D01*
X47141809Y-32996285D01*
X47379904Y-32996285D01*
X47475142Y-33043904D01*
X47522761Y-33091523D01*
X47570380Y-33186761D01*
X47570380Y-33472476D01*
X47522761Y-33567714D01*
X47475142Y-33615333D01*
X54682380Y-33948666D02*
X54206190Y-34282000D01*
X54682380Y-34520095D02*
X53682380Y-34520095D01*
X53682380Y-34139142D01*
X53730000Y-34043904D01*
X53777619Y-33996285D01*
X53872857Y-33948666D01*
X54015714Y-33948666D01*
X54110952Y-33996285D01*
X54158571Y-34043904D01*
X54206190Y-34139142D01*
X54206190Y-34520095D01*
X54015714Y-33091523D02*
X54682380Y-33091523D01*
X53634761Y-33329619D02*
X54349047Y-33567714D01*
X54349047Y-32948666D01*
X32266833Y-32836380D02*
X31933500Y-32360190D01*
X31695404Y-32836380D02*
X31695404Y-31836380D01*
X32076357Y-31836380D01*
X32171595Y-31884000D01*
X32219214Y-31931619D01*
X32266833Y-32026857D01*
X32266833Y-32169714D01*
X32219214Y-32264952D01*
X32171595Y-32312571D01*
X32076357Y-32360190D01*
X31695404Y-32360190D01*
X33171595Y-31836380D02*
X32695404Y-31836380D01*
X32647785Y-32312571D01*
X32695404Y-32264952D01*
X32790642Y-32217333D01*
X33028738Y-32217333D01*
X33123976Y-32264952D01*
X33171595Y-32312571D01*
X33219214Y-32407809D01*
X33219214Y-32645904D01*
X33171595Y-32741142D01*
X33123976Y-32788761D01*
X33028738Y-32836380D01*
X32790642Y-32836380D01*
X32695404Y-32788761D01*
X32647785Y-32741142D01*
X38949333Y-32836380D02*
X38616000Y-32360190D01*
X38377904Y-32836380D02*
X38377904Y-31836380D01*
X38758857Y-31836380D01*
X38854095Y-31884000D01*
X38901714Y-31931619D01*
X38949333Y-32026857D01*
X38949333Y-32169714D01*
X38901714Y-32264952D01*
X38854095Y-32312571D01*
X38758857Y-32360190D01*
X38377904Y-32360190D01*
X39806476Y-31836380D02*
X39616000Y-31836380D01*
X39520761Y-31884000D01*
X39473142Y-31931619D01*
X39377904Y-32074476D01*
X39330285Y-32264952D01*
X39330285Y-32645904D01*
X39377904Y-32741142D01*
X39425523Y-32788761D01*
X39520761Y-32836380D01*
X39711238Y-32836380D01*
X39806476Y-32788761D01*
X39854095Y-32741142D01*
X39901714Y-32645904D01*
X39901714Y-32407809D01*
X39854095Y-32312571D01*
X39806476Y-32264952D01*
X39711238Y-32217333D01*
X39520761Y-32217333D01*
X39425523Y-32264952D01*
X39377904Y-32312571D01*
X39330285Y-32407809D01*
X45631833Y-32836380D02*
X45298500Y-32360190D01*
X45060404Y-32836380D02*
X45060404Y-31836380D01*
X45441357Y-31836380D01*
X45536595Y-31884000D01*
X45584214Y-31931619D01*
X45631833Y-32026857D01*
X45631833Y-32169714D01*
X45584214Y-32264952D01*
X45536595Y-32312571D01*
X45441357Y-32360190D01*
X45060404Y-32360190D01*
X45965166Y-31836380D02*
X46631833Y-31836380D01*
X46203261Y-32836380D01*
X52411333Y-32836380D02*
X52078000Y-32360190D01*
X51839904Y-32836380D02*
X51839904Y-31836380D01*
X52220857Y-31836380D01*
X52316095Y-31884000D01*
X52363714Y-31931619D01*
X52411333Y-32026857D01*
X52411333Y-32169714D01*
X52363714Y-32264952D01*
X52316095Y-32312571D01*
X52220857Y-32360190D01*
X51839904Y-32360190D01*
X52982761Y-32264952D02*
X52887523Y-32217333D01*
X52839904Y-32169714D01*
X52792285Y-32074476D01*
X52792285Y-32026857D01*
X52839904Y-31931619D01*
X52887523Y-31884000D01*
X52982761Y-31836380D01*
X53173238Y-31836380D01*
X53268476Y-31884000D01*
X53316095Y-31931619D01*
X53363714Y-32026857D01*
X53363714Y-32074476D01*
X53316095Y-32169714D01*
X53268476Y-32217333D01*
X53173238Y-32264952D01*
X52982761Y-32264952D01*
X52887523Y-32312571D01*
X52839904Y-32360190D01*
X52792285Y-32455428D01*
X52792285Y-32645904D01*
X52839904Y-32741142D01*
X52887523Y-32788761D01*
X52982761Y-32836380D01*
X53173238Y-32836380D01*
X53268476Y-32788761D01*
X53316095Y-32741142D01*
X53363714Y-32645904D01*
X53363714Y-32455428D01*
X53316095Y-32360190D01*
X53268476Y-32312571D01*
X53173238Y-32264952D01*
X32377142Y-54426380D02*
X32043809Y-53950190D01*
X31805714Y-54426380D02*
X31805714Y-53426380D01*
X32186666Y-53426380D01*
X32281904Y-53474000D01*
X32329523Y-53521619D01*
X32377142Y-53616857D01*
X32377142Y-53759714D01*
X32329523Y-53854952D01*
X32281904Y-53902571D01*
X32186666Y-53950190D01*
X31805714Y-53950190D01*
X33329523Y-54426380D02*
X32758095Y-54426380D01*
X33043809Y-54426380D02*
X33043809Y-53426380D01*
X32948571Y-53569238D01*
X32853333Y-53664476D01*
X32758095Y-53712095D01*
X34281904Y-54426380D02*
X33710476Y-54426380D01*
X33996190Y-54426380D02*
X33996190Y-53426380D01*
X33900952Y-53569238D01*
X33805714Y-53664476D01*
X33710476Y-53712095D01*
X8454380Y-23756857D02*
X7978190Y-24090190D01*
X8454380Y-24328285D02*
X7454380Y-24328285D01*
X7454380Y-23947333D01*
X7502000Y-23852095D01*
X7549619Y-23804476D01*
X7644857Y-23756857D01*
X7787714Y-23756857D01*
X7882952Y-23804476D01*
X7930571Y-23852095D01*
X7978190Y-23947333D01*
X7978190Y-24328285D01*
X8454380Y-22804476D02*
X8454380Y-23375904D01*
X8454380Y-23090190D02*
X7454380Y-23090190D01*
X7597238Y-23185428D01*
X7692476Y-23280666D01*
X7740095Y-23375904D01*
X7549619Y-22423523D02*
X7502000Y-22375904D01*
X7454380Y-22280666D01*
X7454380Y-22042571D01*
X7502000Y-21947333D01*
X7549619Y-21899714D01*
X7644857Y-21852095D01*
X7740095Y-21852095D01*
X7882952Y-21899714D01*
X8454380Y-22471142D01*
X8454380Y-21852095D01*
X8454380Y-19692857D02*
X7978190Y-20026190D01*
X8454380Y-20264285D02*
X7454380Y-20264285D01*
X7454380Y-19883333D01*
X7502000Y-19788095D01*
X7549619Y-19740476D01*
X7644857Y-19692857D01*
X7787714Y-19692857D01*
X7882952Y-19740476D01*
X7930571Y-19788095D01*
X7978190Y-19883333D01*
X7978190Y-20264285D01*
X8454380Y-18740476D02*
X8454380Y-19311904D01*
X8454380Y-19026190D02*
X7454380Y-19026190D01*
X7597238Y-19121428D01*
X7692476Y-19216666D01*
X7740095Y-19311904D01*
X7454380Y-18407142D02*
X7454380Y-17788095D01*
X7835333Y-18121428D01*
X7835333Y-17978571D01*
X7882952Y-17883333D01*
X7930571Y-17835714D01*
X8025809Y-17788095D01*
X8263904Y-17788095D01*
X8359142Y-17835714D01*
X8406761Y-17883333D01*
X8454380Y-17978571D01*
X8454380Y-18264285D01*
X8406761Y-18359523D01*
X8359142Y-18407142D01*
X8454380Y-15628857D02*
X7978190Y-15962190D01*
X8454380Y-16200285D02*
X7454380Y-16200285D01*
X7454380Y-15819333D01*
X7502000Y-15724095D01*
X7549619Y-15676476D01*
X7644857Y-15628857D01*
X7787714Y-15628857D01*
X7882952Y-15676476D01*
X7930571Y-15724095D01*
X7978190Y-15819333D01*
X7978190Y-16200285D01*
X8454380Y-14676476D02*
X8454380Y-15247904D01*
X8454380Y-14962190D02*
X7454380Y-14962190D01*
X7597238Y-15057428D01*
X7692476Y-15152666D01*
X7740095Y-15247904D01*
X7787714Y-13819333D02*
X8454380Y-13819333D01*
X7406761Y-14057428D02*
X8121047Y-14295523D01*
X8121047Y-13676476D01*
X27756380Y-15042357D02*
X27280190Y-15375690D01*
X27756380Y-15613785D02*
X26756380Y-15613785D01*
X26756380Y-15232833D01*
X26804000Y-15137595D01*
X26851619Y-15089976D01*
X26946857Y-15042357D01*
X27089714Y-15042357D01*
X27184952Y-15089976D01*
X27232571Y-15137595D01*
X27280190Y-15232833D01*
X27280190Y-15613785D01*
X27756380Y-14089976D02*
X27756380Y-14661404D01*
X27756380Y-14375690D02*
X26756380Y-14375690D01*
X26899238Y-14470928D01*
X26994476Y-14566166D01*
X27042095Y-14661404D01*
X26756380Y-13185214D02*
X26756380Y-13661404D01*
X27232571Y-13709023D01*
X27184952Y-13661404D01*
X27137333Y-13566166D01*
X27137333Y-13328071D01*
X27184952Y-13232833D01*
X27232571Y-13185214D01*
X27327809Y-13137595D01*
X27565904Y-13137595D01*
X27661142Y-13185214D01*
X27708761Y-13232833D01*
X27756380Y-13328071D01*
X27756380Y-13566166D01*
X27708761Y-13661404D01*
X27661142Y-13709023D01*
X25216380Y-14945357D02*
X24740190Y-15278690D01*
X25216380Y-15516785D02*
X24216380Y-15516785D01*
X24216380Y-15135833D01*
X24264000Y-15040595D01*
X24311619Y-14992976D01*
X24406857Y-14945357D01*
X24549714Y-14945357D01*
X24644952Y-14992976D01*
X24692571Y-15040595D01*
X24740190Y-15135833D01*
X24740190Y-15516785D01*
X25216380Y-13992976D02*
X25216380Y-14564404D01*
X25216380Y-14278690D02*
X24216380Y-14278690D01*
X24359238Y-14373928D01*
X24454476Y-14469166D01*
X24502095Y-14564404D01*
X24216380Y-13135833D02*
X24216380Y-13326309D01*
X24264000Y-13421547D01*
X24311619Y-13469166D01*
X24454476Y-13564404D01*
X24644952Y-13612023D01*
X25025904Y-13612023D01*
X25121142Y-13564404D01*
X25168761Y-13516785D01*
X25216380Y-13421547D01*
X25216380Y-13231071D01*
X25168761Y-13135833D01*
X25121142Y-13088214D01*
X25025904Y-13040595D01*
X24787809Y-13040595D01*
X24692571Y-13088214D01*
X24644952Y-13135833D01*
X24597333Y-13231071D01*
X24597333Y-13421547D01*
X24644952Y-13516785D01*
X24692571Y-13564404D01*
X24787809Y-13612023D01*
X22676380Y-14866857D02*
X22200190Y-15200190D01*
X22676380Y-15438285D02*
X21676380Y-15438285D01*
X21676380Y-15057333D01*
X21724000Y-14962095D01*
X21771619Y-14914476D01*
X21866857Y-14866857D01*
X22009714Y-14866857D01*
X22104952Y-14914476D01*
X22152571Y-14962095D01*
X22200190Y-15057333D01*
X22200190Y-15438285D01*
X22676380Y-13914476D02*
X22676380Y-14485904D01*
X22676380Y-14200190D02*
X21676380Y-14200190D01*
X21819238Y-14295428D01*
X21914476Y-14390666D01*
X21962095Y-14485904D01*
X21676380Y-13581142D02*
X21676380Y-12914476D01*
X22676380Y-13343047D01*
X19882380Y-14866857D02*
X19406190Y-15200190D01*
X19882380Y-15438285D02*
X18882380Y-15438285D01*
X18882380Y-15057333D01*
X18930000Y-14962095D01*
X18977619Y-14914476D01*
X19072857Y-14866857D01*
X19215714Y-14866857D01*
X19310952Y-14914476D01*
X19358571Y-14962095D01*
X19406190Y-15057333D01*
X19406190Y-15438285D01*
X19882380Y-13914476D02*
X19882380Y-14485904D01*
X19882380Y-14200190D02*
X18882380Y-14200190D01*
X19025238Y-14295428D01*
X19120476Y-14390666D01*
X19168095Y-14485904D01*
X19310952Y-13343047D02*
X19263333Y-13438285D01*
X19215714Y-13485904D01*
X19120476Y-13533523D01*
X19072857Y-13533523D01*
X18977619Y-13485904D01*
X18930000Y-13438285D01*
X18882380Y-13343047D01*
X18882380Y-13152571D01*
X18930000Y-13057333D01*
X18977619Y-13009714D01*
X19072857Y-12962095D01*
X19120476Y-12962095D01*
X19215714Y-13009714D01*
X19263333Y-13057333D01*
X19310952Y-13152571D01*
X19310952Y-13343047D01*
X19358571Y-13438285D01*
X19406190Y-13485904D01*
X19501428Y-13533523D01*
X19691904Y-13533523D01*
X19787142Y-13485904D01*
X19834761Y-13438285D01*
X19882380Y-13343047D01*
X19882380Y-13152571D01*
X19834761Y-13057333D01*
X19787142Y-13009714D01*
X19691904Y-12962095D01*
X19501428Y-12962095D01*
X19406190Y-13009714D01*
X19358571Y-13057333D01*
X19310952Y-13152571D01*
X50489642Y-15058380D02*
X50156309Y-14582190D01*
X49918214Y-15058380D02*
X49918214Y-14058380D01*
X50299166Y-14058380D01*
X50394404Y-14106000D01*
X50442023Y-14153619D01*
X50489642Y-14248857D01*
X50489642Y-14391714D01*
X50442023Y-14486952D01*
X50394404Y-14534571D01*
X50299166Y-14582190D01*
X49918214Y-14582190D01*
X51442023Y-15058380D02*
X50870595Y-15058380D01*
X51156309Y-15058380D02*
X51156309Y-14058380D01*
X51061071Y-14201238D01*
X50965833Y-14296476D01*
X50870595Y-14344095D01*
X51918214Y-15058380D02*
X52108690Y-15058380D01*
X52203928Y-15010761D01*
X52251547Y-14963142D01*
X52346785Y-14820285D01*
X52394404Y-14629809D01*
X52394404Y-14248857D01*
X52346785Y-14153619D01*
X52299166Y-14106000D01*
X52203928Y-14058380D01*
X52013452Y-14058380D01*
X51918214Y-14106000D01*
X51870595Y-14153619D01*
X51822976Y-14248857D01*
X51822976Y-14486952D01*
X51870595Y-14582190D01*
X51918214Y-14629809D01*
X52013452Y-14677428D01*
X52203928Y-14677428D01*
X52299166Y-14629809D01*
X52346785Y-14582190D01*
X52394404Y-14486952D01*
X45077142Y-15058380D02*
X44743809Y-14582190D01*
X44505714Y-15058380D02*
X44505714Y-14058380D01*
X44886666Y-14058380D01*
X44981904Y-14106000D01*
X45029523Y-14153619D01*
X45077142Y-14248857D01*
X45077142Y-14391714D01*
X45029523Y-14486952D01*
X44981904Y-14534571D01*
X44886666Y-14582190D01*
X44505714Y-14582190D01*
X45458095Y-14153619D02*
X45505714Y-14106000D01*
X45600952Y-14058380D01*
X45839047Y-14058380D01*
X45934285Y-14106000D01*
X45981904Y-14153619D01*
X46029523Y-14248857D01*
X46029523Y-14344095D01*
X45981904Y-14486952D01*
X45410476Y-15058380D01*
X46029523Y-15058380D01*
X46648571Y-14058380D02*
X46743809Y-14058380D01*
X46839047Y-14106000D01*
X46886666Y-14153619D01*
X46934285Y-14248857D01*
X46981904Y-14439333D01*
X46981904Y-14677428D01*
X46934285Y-14867904D01*
X46886666Y-14963142D01*
X46839047Y-15010761D01*
X46743809Y-15058380D01*
X46648571Y-15058380D01*
X46553333Y-15010761D01*
X46505714Y-14963142D01*
X46458095Y-14867904D01*
X46410476Y-14677428D01*
X46410476Y-14439333D01*
X46458095Y-14248857D01*
X46505714Y-14153619D01*
X46553333Y-14106000D01*
X46648571Y-14058380D01*
X39918642Y-15058380D02*
X39585309Y-14582190D01*
X39347214Y-15058380D02*
X39347214Y-14058380D01*
X39728166Y-14058380D01*
X39823404Y-14106000D01*
X39871023Y-14153619D01*
X39918642Y-14248857D01*
X39918642Y-14391714D01*
X39871023Y-14486952D01*
X39823404Y-14534571D01*
X39728166Y-14582190D01*
X39347214Y-14582190D01*
X40299595Y-14153619D02*
X40347214Y-14106000D01*
X40442452Y-14058380D01*
X40680547Y-14058380D01*
X40775785Y-14106000D01*
X40823404Y-14153619D01*
X40871023Y-14248857D01*
X40871023Y-14344095D01*
X40823404Y-14486952D01*
X40251976Y-15058380D01*
X40871023Y-15058380D01*
X41823404Y-15058380D02*
X41251976Y-15058380D01*
X41537690Y-15058380D02*
X41537690Y-14058380D01*
X41442452Y-14201238D01*
X41347214Y-14296476D01*
X41251976Y-14344095D01*
X33979642Y-15820380D02*
X33646309Y-15344190D01*
X33408214Y-15820380D02*
X33408214Y-14820380D01*
X33789166Y-14820380D01*
X33884404Y-14868000D01*
X33932023Y-14915619D01*
X33979642Y-15010857D01*
X33979642Y-15153714D01*
X33932023Y-15248952D01*
X33884404Y-15296571D01*
X33789166Y-15344190D01*
X33408214Y-15344190D01*
X34360595Y-14915619D02*
X34408214Y-14868000D01*
X34503452Y-14820380D01*
X34741547Y-14820380D01*
X34836785Y-14868000D01*
X34884404Y-14915619D01*
X34932023Y-15010857D01*
X34932023Y-15106095D01*
X34884404Y-15248952D01*
X34312976Y-15820380D01*
X34932023Y-15820380D01*
X35312976Y-14915619D02*
X35360595Y-14868000D01*
X35455833Y-14820380D01*
X35693928Y-14820380D01*
X35789166Y-14868000D01*
X35836785Y-14915619D01*
X35884404Y-15010857D01*
X35884404Y-15106095D01*
X35836785Y-15248952D01*
X35265357Y-15820380D01*
X35884404Y-15820380D01*
X50586642Y-20898380D02*
X50253309Y-20422190D01*
X50015214Y-20898380D02*
X50015214Y-19898380D01*
X50396166Y-19898380D01*
X50491404Y-19946000D01*
X50539023Y-19993619D01*
X50586642Y-20088857D01*
X50586642Y-20231714D01*
X50539023Y-20326952D01*
X50491404Y-20374571D01*
X50396166Y-20422190D01*
X50015214Y-20422190D01*
X50967595Y-19993619D02*
X51015214Y-19946000D01*
X51110452Y-19898380D01*
X51348547Y-19898380D01*
X51443785Y-19946000D01*
X51491404Y-19993619D01*
X51539023Y-20088857D01*
X51539023Y-20184095D01*
X51491404Y-20326952D01*
X50919976Y-20898380D01*
X51539023Y-20898380D01*
X51872357Y-19898380D02*
X52491404Y-19898380D01*
X52158071Y-20279333D01*
X52300928Y-20279333D01*
X52396166Y-20326952D01*
X52443785Y-20374571D01*
X52491404Y-20469809D01*
X52491404Y-20707904D01*
X52443785Y-20803142D01*
X52396166Y-20850761D01*
X52300928Y-20898380D01*
X52015214Y-20898380D01*
X51919976Y-20850761D01*
X51872357Y-20803142D01*
X45077142Y-20898380D02*
X44743809Y-20422190D01*
X44505714Y-20898380D02*
X44505714Y-19898380D01*
X44886666Y-19898380D01*
X44981904Y-19946000D01*
X45029523Y-19993619D01*
X45077142Y-20088857D01*
X45077142Y-20231714D01*
X45029523Y-20326952D01*
X44981904Y-20374571D01*
X44886666Y-20422190D01*
X44505714Y-20422190D01*
X45458095Y-19993619D02*
X45505714Y-19946000D01*
X45600952Y-19898380D01*
X45839047Y-19898380D01*
X45934285Y-19946000D01*
X45981904Y-19993619D01*
X46029523Y-20088857D01*
X46029523Y-20184095D01*
X45981904Y-20326952D01*
X45410476Y-20898380D01*
X46029523Y-20898380D01*
X46886666Y-20231714D02*
X46886666Y-20898380D01*
X46648571Y-19850761D02*
X46410476Y-20565047D01*
X47029523Y-20565047D01*
X39997142Y-20898380D02*
X39663809Y-20422190D01*
X39425714Y-20898380D02*
X39425714Y-19898380D01*
X39806666Y-19898380D01*
X39901904Y-19946000D01*
X39949523Y-19993619D01*
X39997142Y-20088857D01*
X39997142Y-20231714D01*
X39949523Y-20326952D01*
X39901904Y-20374571D01*
X39806666Y-20422190D01*
X39425714Y-20422190D01*
X40378095Y-19993619D02*
X40425714Y-19946000D01*
X40520952Y-19898380D01*
X40759047Y-19898380D01*
X40854285Y-19946000D01*
X40901904Y-19993619D01*
X40949523Y-20088857D01*
X40949523Y-20184095D01*
X40901904Y-20326952D01*
X40330476Y-20898380D01*
X40949523Y-20898380D01*
X41854285Y-19898380D02*
X41378095Y-19898380D01*
X41330476Y-20374571D01*
X41378095Y-20326952D01*
X41473333Y-20279333D01*
X41711428Y-20279333D01*
X41806666Y-20326952D01*
X41854285Y-20374571D01*
X41901904Y-20469809D01*
X41901904Y-20707904D01*
X41854285Y-20803142D01*
X41806666Y-20850761D01*
X41711428Y-20898380D01*
X41473333Y-20898380D01*
X41378095Y-20850761D01*
X41330476Y-20803142D01*
X34155142Y-21406380D02*
X33821809Y-20930190D01*
X33583714Y-21406380D02*
X33583714Y-20406380D01*
X33964666Y-20406380D01*
X34059904Y-20454000D01*
X34107523Y-20501619D01*
X34155142Y-20596857D01*
X34155142Y-20739714D01*
X34107523Y-20834952D01*
X34059904Y-20882571D01*
X33964666Y-20930190D01*
X33583714Y-20930190D01*
X34536095Y-20501619D02*
X34583714Y-20454000D01*
X34678952Y-20406380D01*
X34917047Y-20406380D01*
X35012285Y-20454000D01*
X35059904Y-20501619D01*
X35107523Y-20596857D01*
X35107523Y-20692095D01*
X35059904Y-20834952D01*
X34488476Y-21406380D01*
X35107523Y-21406380D01*
X35964666Y-20406380D02*
X35774190Y-20406380D01*
X35678952Y-20454000D01*
X35631333Y-20501619D01*
X35536095Y-20644476D01*
X35488476Y-20834952D01*
X35488476Y-21215904D01*
X35536095Y-21311142D01*
X35583714Y-21358761D01*
X35678952Y-21406380D01*
X35869428Y-21406380D01*
X35964666Y-21358761D01*
X36012285Y-21311142D01*
X36059904Y-21215904D01*
X36059904Y-20977809D01*
X36012285Y-20882571D01*
X35964666Y-20834952D01*
X35869428Y-20787333D01*
X35678952Y-20787333D01*
X35583714Y-20834952D01*
X35536095Y-20882571D01*
X35488476Y-20977809D01*
X55745142Y-15058380D02*
X55411809Y-14582190D01*
X55173714Y-15058380D02*
X55173714Y-14058380D01*
X55554666Y-14058380D01*
X55649904Y-14106000D01*
X55697523Y-14153619D01*
X55745142Y-14248857D01*
X55745142Y-14391714D01*
X55697523Y-14486952D01*
X55649904Y-14534571D01*
X55554666Y-14582190D01*
X55173714Y-14582190D01*
X56126095Y-14153619D02*
X56173714Y-14106000D01*
X56268952Y-14058380D01*
X56507047Y-14058380D01*
X56602285Y-14106000D01*
X56649904Y-14153619D01*
X56697523Y-14248857D01*
X56697523Y-14344095D01*
X56649904Y-14486952D01*
X56078476Y-15058380D01*
X56697523Y-15058380D01*
X57030857Y-14058380D02*
X57697523Y-14058380D01*
X57268952Y-15058380D01*
X55745142Y-20898380D02*
X55411809Y-20422190D01*
X55173714Y-20898380D02*
X55173714Y-19898380D01*
X55554666Y-19898380D01*
X55649904Y-19946000D01*
X55697523Y-19993619D01*
X55745142Y-20088857D01*
X55745142Y-20231714D01*
X55697523Y-20326952D01*
X55649904Y-20374571D01*
X55554666Y-20422190D01*
X55173714Y-20422190D01*
X56126095Y-19993619D02*
X56173714Y-19946000D01*
X56268952Y-19898380D01*
X56507047Y-19898380D01*
X56602285Y-19946000D01*
X56649904Y-19993619D01*
X56697523Y-20088857D01*
X56697523Y-20184095D01*
X56649904Y-20326952D01*
X56078476Y-20898380D01*
X56697523Y-20898380D01*
X57268952Y-20326952D02*
X57173714Y-20279333D01*
X57126095Y-20231714D01*
X57078476Y-20136476D01*
X57078476Y-20088857D01*
X57126095Y-19993619D01*
X57173714Y-19946000D01*
X57268952Y-19898380D01*
X57459428Y-19898380D01*
X57554666Y-19946000D01*
X57602285Y-19993619D01*
X57649904Y-20088857D01*
X57649904Y-20136476D01*
X57602285Y-20231714D01*
X57554666Y-20279333D01*
X57459428Y-20326952D01*
X57268952Y-20326952D01*
X57173714Y-20374571D01*
X57126095Y-20422190D01*
X57078476Y-20517428D01*
X57078476Y-20707904D01*
X57126095Y-20803142D01*
X57173714Y-20850761D01*
X57268952Y-20898380D01*
X57459428Y-20898380D01*
X57554666Y-20850761D01*
X57602285Y-20803142D01*
X57649904Y-20707904D01*
X57649904Y-20517428D01*
X57602285Y-20422190D01*
X57554666Y-20374571D01*
X57459428Y-20326952D01*
X14738380Y-23113904D02*
X15547904Y-23113904D01*
X15643142Y-23066285D01*
X15690761Y-23018666D01*
X15738380Y-22923428D01*
X15738380Y-22732952D01*
X15690761Y-22637714D01*
X15643142Y-22590095D01*
X15547904Y-22542476D01*
X14738380Y-22542476D01*
X15738380Y-21542476D02*
X15738380Y-22113904D01*
X15738380Y-21828190D02*
X14738380Y-21828190D01*
X14881238Y-21923428D01*
X14976476Y-22018666D01*
X15024095Y-22113904D01*
M02*
