G04 #@! TF.GenerationSoftware,KiCad,Pcbnew,(5.1.6-0-10_14)*
G04 #@! TF.CreationDate,2020-07-16T14:36:08-04:00*
G04 #@! TF.ProjectId,Pufferfish-Interface-2,50756666-6572-4666-9973-682d496e7465,rev?*
G04 #@! TF.SameCoordinates,Original*
G04 #@! TF.FileFunction,Soldermask,Bot*
G04 #@! TF.FilePolarity,Negative*
%FSLAX46Y46*%
G04 Gerber Fmt 4.6, Leading zero omitted, Abs format (unit mm)*
G04 Created by KiCad (PCBNEW (5.1.6-0-10_14)) date 2020-07-16 14:36:08*
%MOMM*%
%LPD*%
G01*
G04 APERTURE LIST*
%ADD10C,6.553200*%
%ADD11C,1.700000*%
%ADD12R,1.825000X1.825000*%
%ADD13C,1.825000*%
%ADD14R,1.700000X3.100000*%
%ADD15R,1.100000X5.600000*%
%ADD16R,2.300000X2.300000*%
%ADD17O,2.300000X2.300000*%
%ADD18R,1.800000X1.800000*%
%ADD19O,1.800000X1.800000*%
%ADD20R,0.900000X1.000000*%
%ADD21R,1.000000X0.900000*%
G04 APERTURE END LIST*
D10*
X63500000Y-6350000D03*
X-3810000Y-6350000D03*
X63500000Y-50800000D03*
X-3810000Y-50800000D03*
D11*
X23502000Y-39370000D03*
X8502000Y-39370000D03*
X20902000Y-42270000D03*
X20902000Y-44770000D03*
D12*
X35560000Y-41910000D03*
D13*
X35560000Y-44450000D03*
X38100000Y-41910000D03*
X38100000Y-44450000D03*
X40640000Y-41910000D03*
X40640000Y-44450000D03*
X43180000Y-41910000D03*
X43180000Y-44450000D03*
X45720000Y-41910000D03*
X45720000Y-44450000D03*
X48260000Y-41910000D03*
X48260000Y-44450000D03*
X50800000Y-41910000D03*
X50800000Y-44450000D03*
X53340000Y-41910000D03*
X53340000Y-44450000D03*
D14*
X12766000Y-6568000D03*
X1966000Y-6568000D03*
D15*
X10366000Y-4318000D03*
X4366000Y-4318000D03*
X8366000Y-4318000D03*
X6366000Y-4318000D03*
G36*
G01*
X49456000Y-6867000D02*
X49456000Y-1817000D01*
G75*
G02*
X49731000Y-1542000I275000J0D01*
G01*
X50281000Y-1542000D01*
G75*
G02*
X50556000Y-1817000I0J-275000D01*
G01*
X50556000Y-6867000D01*
G75*
G02*
X50281000Y-7142000I-275000J0D01*
G01*
X49731000Y-7142000D01*
G75*
G02*
X49456000Y-6867000I0J275000D01*
G01*
G37*
G36*
G01*
X45456000Y-6867000D02*
X45456000Y-1817000D01*
G75*
G02*
X45731000Y-1542000I275000J0D01*
G01*
X46281000Y-1542000D01*
G75*
G02*
X46556000Y-1817000I0J-275000D01*
G01*
X46556000Y-6867000D01*
G75*
G02*
X46281000Y-7142000I-275000J0D01*
G01*
X45731000Y-7142000D01*
G75*
G02*
X45456000Y-6867000I0J275000D01*
G01*
G37*
G36*
G01*
X47456000Y-6867000D02*
X47456000Y-1817000D01*
G75*
G02*
X47731000Y-1542000I275000J0D01*
G01*
X48281000Y-1542000D01*
G75*
G02*
X48556000Y-1817000I0J-275000D01*
G01*
X48556000Y-6867000D01*
G75*
G02*
X48281000Y-7142000I-275000J0D01*
G01*
X47731000Y-7142000D01*
G75*
G02*
X47456000Y-6867000I0J275000D01*
G01*
G37*
G36*
G01*
X42756000Y-7876800D02*
X42756000Y-5307200D01*
G75*
G02*
X43021200Y-5042000I265200J0D01*
G01*
X44190800Y-5042000D01*
G75*
G02*
X44456000Y-5307200I0J-265200D01*
G01*
X44456000Y-7876800D01*
G75*
G02*
X44190800Y-8142000I-265200J0D01*
G01*
X43021200Y-8142000D01*
G75*
G02*
X42756000Y-7876800I0J265200D01*
G01*
G37*
G36*
G01*
X51556000Y-7876800D02*
X51556000Y-5307200D01*
G75*
G02*
X51821200Y-5042000I265200J0D01*
G01*
X52990800Y-5042000D01*
G75*
G02*
X53256000Y-5307200I0J-265200D01*
G01*
X53256000Y-7876800D01*
G75*
G02*
X52990800Y-8142000I-265200J0D01*
G01*
X51821200Y-8142000D01*
G75*
G02*
X51556000Y-7876800I0J265200D01*
G01*
G37*
D16*
X18542000Y-53594000D03*
D17*
X28702000Y-53594000D03*
X2540000Y-27178000D03*
D16*
X2540000Y-37338000D03*
D18*
X38354000Y-10668000D03*
D19*
X35814000Y-10668000D03*
X33274000Y-10668000D03*
X30734000Y-10668000D03*
X28194000Y-10668000D03*
X25654000Y-10668000D03*
X23114000Y-10668000D03*
X20574000Y-10668000D03*
X18034000Y-10668000D03*
D20*
X12192000Y-48244000D03*
X13142000Y-46244000D03*
X11242000Y-46244000D03*
D21*
X19066000Y-33970000D03*
X19066000Y-32070000D03*
X21066000Y-33020000D03*
G36*
G01*
X16323500Y-48741250D02*
X16323500Y-47778750D01*
G75*
G02*
X16592250Y-47510000I268750J0D01*
G01*
X17129750Y-47510000D01*
G75*
G02*
X17398500Y-47778750I0J-268750D01*
G01*
X17398500Y-48741250D01*
G75*
G02*
X17129750Y-49010000I-268750J0D01*
G01*
X16592250Y-49010000D01*
G75*
G02*
X16323500Y-48741250I0J268750D01*
G01*
G37*
G36*
G01*
X14448500Y-48741250D02*
X14448500Y-47778750D01*
G75*
G02*
X14717250Y-47510000I268750J0D01*
G01*
X15254750Y-47510000D01*
G75*
G02*
X15523500Y-47778750I0J-268750D01*
G01*
X15523500Y-48741250D01*
G75*
G02*
X15254750Y-49010000I-268750J0D01*
G01*
X14717250Y-49010000D01*
G75*
G02*
X14448500Y-48741250I0J268750D01*
G01*
G37*
G36*
G01*
X16031500Y-33300750D02*
X16031500Y-34263250D01*
G75*
G02*
X15762750Y-34532000I-268750J0D01*
G01*
X15225250Y-34532000D01*
G75*
G02*
X14956500Y-34263250I0J268750D01*
G01*
X14956500Y-33300750D01*
G75*
G02*
X15225250Y-33032000I268750J0D01*
G01*
X15762750Y-33032000D01*
G75*
G02*
X16031500Y-33300750I0J-268750D01*
G01*
G37*
G36*
G01*
X17906500Y-33300750D02*
X17906500Y-34263250D01*
G75*
G02*
X17637750Y-34532000I-268750J0D01*
G01*
X17100250Y-34532000D01*
G75*
G02*
X16831500Y-34263250I0J268750D01*
G01*
X16831500Y-33300750D01*
G75*
G02*
X17100250Y-33032000I268750J0D01*
G01*
X17637750Y-33032000D01*
G75*
G02*
X17906500Y-33300750I0J-268750D01*
G01*
G37*
M02*
