G04 #@! TF.GenerationSoftware,KiCad,Pcbnew,(5.1.6-0-10_14)*
G04 #@! TF.CreationDate,2020-07-16T14:36:08-04:00*
G04 #@! TF.ProjectId,Pufferfish-Interface-2,50756666-6572-4666-9973-682d496e7465,rev?*
G04 #@! TF.SameCoordinates,Original*
G04 #@! TF.FileFunction,Legend,Bot*
G04 #@! TF.FilePolarity,Positive*
%FSLAX46Y46*%
G04 Gerber Fmt 4.6, Leading zero omitted, Abs format (unit mm)*
G04 Created by KiCad (PCBNEW (5.1.6-0-10_14)) date 2020-07-16 14:36:08*
%MOMM*%
%LPD*%
G01*
G04 APERTURE LIST*
%ADD10C,0.200000*%
%ADD11C,0.100000*%
%ADD12C,0.127000*%
%ADD13C,0.120000*%
%ADD14C,0.150000*%
G04 APERTURE END LIST*
D10*
X35560000Y-38608000D02*
X58420000Y-38608000D01*
X58420000Y-38608000D02*
X58420000Y-47879000D01*
X58420000Y-47879000D02*
X30480000Y-47879000D01*
X30480000Y-47879000D02*
X30480000Y-41910000D01*
X34359788Y-40449500D02*
G75*
G03*
X34359788Y-40449500I-323788J0D01*
G01*
D11*
X3593000Y-1718000D02*
G75*
G03*
X3593000Y-1718000I-127000J0D01*
G01*
D12*
X13341000Y-9068000D02*
X1391000Y-9068000D01*
D13*
X53091000Y-9202000D02*
X53091000Y-8352000D01*
X42921000Y-9202000D02*
X53091000Y-9202000D01*
X42921000Y-3982000D02*
X45246000Y-3982000D01*
X42921000Y-4832000D02*
X42921000Y-3982000D01*
X42921000Y-8352000D02*
X42921000Y-9202000D01*
X53091000Y-3982000D02*
X50766000Y-3982000D01*
X53091000Y-4832000D02*
X53091000Y-3982000D01*
X45246000Y-3982000D02*
X45246000Y-1592000D01*
X39684000Y-9228000D02*
X16704000Y-9228000D01*
X16704000Y-9228000D02*
X16704000Y-6568000D01*
X16704000Y-6568000D02*
X39684000Y-6568000D01*
X39684000Y-6568000D02*
X39684000Y-9228000D01*
X38734000Y-6568000D02*
X38734000Y-568000D01*
X38734000Y-568000D02*
X37974000Y-568000D01*
X37974000Y-568000D02*
X37974000Y-6568000D01*
X38674000Y-6568000D02*
X38674000Y-568000D01*
X38554000Y-6568000D02*
X38554000Y-568000D01*
X38434000Y-6568000D02*
X38434000Y-568000D01*
X38314000Y-6568000D02*
X38314000Y-568000D01*
X38194000Y-6568000D02*
X38194000Y-568000D01*
X38074000Y-6568000D02*
X38074000Y-568000D01*
X38734000Y-9558000D02*
X38734000Y-9228000D01*
X37974000Y-9558000D02*
X37974000Y-9228000D01*
X37084000Y-9228000D02*
X37084000Y-6568000D01*
X36194000Y-6568000D02*
X36194000Y-568000D01*
X36194000Y-568000D02*
X35434000Y-568000D01*
X35434000Y-568000D02*
X35434000Y-6568000D01*
X36194000Y-9625071D02*
X36194000Y-9228000D01*
X35434000Y-9625071D02*
X35434000Y-9228000D01*
X34544000Y-9228000D02*
X34544000Y-6568000D01*
X33654000Y-6568000D02*
X33654000Y-568000D01*
X33654000Y-568000D02*
X32894000Y-568000D01*
X32894000Y-568000D02*
X32894000Y-6568000D01*
X33654000Y-9625071D02*
X33654000Y-9228000D01*
X32894000Y-9625071D02*
X32894000Y-9228000D01*
X32004000Y-9228000D02*
X32004000Y-6568000D01*
X31114000Y-6568000D02*
X31114000Y-568000D01*
X31114000Y-568000D02*
X30354000Y-568000D01*
X30354000Y-568000D02*
X30354000Y-6568000D01*
X31114000Y-9625071D02*
X31114000Y-9228000D01*
X30354000Y-9625071D02*
X30354000Y-9228000D01*
X29464000Y-9228000D02*
X29464000Y-6568000D01*
X28574000Y-6568000D02*
X28574000Y-568000D01*
X28574000Y-568000D02*
X27814000Y-568000D01*
X27814000Y-568000D02*
X27814000Y-6568000D01*
X28574000Y-9625071D02*
X28574000Y-9228000D01*
X27814000Y-9625071D02*
X27814000Y-9228000D01*
X26924000Y-9228000D02*
X26924000Y-6568000D01*
X26034000Y-6568000D02*
X26034000Y-568000D01*
X26034000Y-568000D02*
X25274000Y-568000D01*
X25274000Y-568000D02*
X25274000Y-6568000D01*
X26034000Y-9625071D02*
X26034000Y-9228000D01*
X25274000Y-9625071D02*
X25274000Y-9228000D01*
X24384000Y-9228000D02*
X24384000Y-6568000D01*
X23494000Y-6568000D02*
X23494000Y-568000D01*
X23494000Y-568000D02*
X22734000Y-568000D01*
X22734000Y-568000D02*
X22734000Y-6568000D01*
X23494000Y-9625071D02*
X23494000Y-9228000D01*
X22734000Y-9625071D02*
X22734000Y-9228000D01*
X21844000Y-9228000D02*
X21844000Y-6568000D01*
X20954000Y-6568000D02*
X20954000Y-568000D01*
X20954000Y-568000D02*
X20194000Y-568000D01*
X20194000Y-568000D02*
X20194000Y-6568000D01*
X20954000Y-9625071D02*
X20954000Y-9228000D01*
X20194000Y-9625071D02*
X20194000Y-9228000D01*
X19304000Y-9228000D02*
X19304000Y-6568000D01*
X18414000Y-6568000D02*
X18414000Y-568000D01*
X18414000Y-568000D02*
X17654000Y-568000D01*
X17654000Y-568000D02*
X17654000Y-6568000D01*
X18414000Y-9625071D02*
X18414000Y-9228000D01*
X17654000Y-9625071D02*
X17654000Y-9228000D01*
X38354000Y-11938000D02*
X39624000Y-11938000D01*
X39624000Y-11938000D02*
X39624000Y-10668000D01*
X13772000Y-48004000D02*
X13772000Y-46544000D01*
X10612000Y-48004000D02*
X10612000Y-45844000D01*
X10612000Y-48004000D02*
X11542000Y-48004000D01*
X13772000Y-48004000D02*
X12842000Y-48004000D01*
X20826000Y-31440000D02*
X20826000Y-32370000D01*
X20826000Y-34600000D02*
X20826000Y-33670000D01*
X20826000Y-34600000D02*
X18666000Y-34600000D01*
X20826000Y-31440000D02*
X19366000Y-31440000D01*
X15664922Y-47550000D02*
X16182078Y-47550000D01*
X15664922Y-48970000D02*
X16182078Y-48970000D01*
X16690078Y-34492000D02*
X16172922Y-34492000D01*
X16690078Y-33072000D02*
X16172922Y-33072000D01*
D14*
X34504095Y-49379142D02*
X34551714Y-49426761D01*
X34694571Y-49474380D01*
X34789809Y-49474380D01*
X34932666Y-49426761D01*
X35027904Y-49331523D01*
X35075523Y-49236285D01*
X35123142Y-49045809D01*
X35123142Y-48902952D01*
X35075523Y-48712476D01*
X35027904Y-48617238D01*
X34932666Y-48522000D01*
X34789809Y-48474380D01*
X34694571Y-48474380D01*
X34551714Y-48522000D01*
X34504095Y-48569619D01*
X33885047Y-48474380D02*
X33694571Y-48474380D01*
X33599333Y-48522000D01*
X33504095Y-48617238D01*
X33456476Y-48807714D01*
X33456476Y-49141047D01*
X33504095Y-49331523D01*
X33599333Y-49426761D01*
X33694571Y-49474380D01*
X33885047Y-49474380D01*
X33980285Y-49426761D01*
X34075523Y-49331523D01*
X34123142Y-49141047D01*
X34123142Y-48807714D01*
X34075523Y-48617238D01*
X33980285Y-48522000D01*
X33885047Y-48474380D01*
X33027904Y-49474380D02*
X33027904Y-48474380D01*
X32456476Y-49474380D01*
X32456476Y-48474380D01*
X31980285Y-49474380D02*
X31980285Y-48474380D01*
X31408857Y-49474380D01*
X31408857Y-48474380D01*
X30408857Y-49474380D02*
X30980285Y-49474380D01*
X30694571Y-49474380D02*
X30694571Y-48474380D01*
X30789809Y-48617238D01*
X30885047Y-48712476D01*
X30980285Y-48760095D01*
X5527773Y-10814831D02*
X5575427Y-10862484D01*
X5718387Y-10910138D01*
X5813694Y-10910138D01*
X5956655Y-10862484D01*
X6051962Y-10767177D01*
X6099615Y-10671870D01*
X6147269Y-10481256D01*
X6147269Y-10338296D01*
X6099615Y-10147682D01*
X6051962Y-10052375D01*
X5956655Y-9957068D01*
X5813694Y-9909414D01*
X5718387Y-9909414D01*
X5575427Y-9957068D01*
X5527773Y-10004721D01*
X4908277Y-9909414D02*
X4717663Y-9909414D01*
X4622356Y-9957068D01*
X4527049Y-10052375D01*
X4479396Y-10242989D01*
X4479396Y-10576563D01*
X4527049Y-10767177D01*
X4622356Y-10862484D01*
X4717663Y-10910138D01*
X4908277Y-10910138D01*
X5003584Y-10862484D01*
X5098891Y-10767177D01*
X5146545Y-10576563D01*
X5146545Y-10242989D01*
X5098891Y-10052375D01*
X5003584Y-9957068D01*
X4908277Y-9909414D01*
X4050514Y-10910138D02*
X4050514Y-9909414D01*
X3478672Y-10910138D01*
X3478672Y-9909414D01*
X3002136Y-10910138D02*
X3002136Y-9909414D01*
X2430294Y-10910138D01*
X2430294Y-9909414D01*
X2001412Y-10004721D02*
X1953759Y-9957068D01*
X1858452Y-9909414D01*
X1620184Y-9909414D01*
X1524877Y-9957068D01*
X1477224Y-10004721D01*
X1429570Y-10100028D01*
X1429570Y-10195335D01*
X1477224Y-10338296D01*
X2049066Y-10910138D01*
X1429570Y-10910138D01*
X46778095Y-11013142D02*
X46825714Y-11060761D01*
X46968571Y-11108380D01*
X47063809Y-11108380D01*
X47206666Y-11060761D01*
X47301904Y-10965523D01*
X47349523Y-10870285D01*
X47397142Y-10679809D01*
X47397142Y-10536952D01*
X47349523Y-10346476D01*
X47301904Y-10251238D01*
X47206666Y-10156000D01*
X47063809Y-10108380D01*
X46968571Y-10108380D01*
X46825714Y-10156000D01*
X46778095Y-10203619D01*
X46159047Y-10108380D02*
X45968571Y-10108380D01*
X45873333Y-10156000D01*
X45778095Y-10251238D01*
X45730476Y-10441714D01*
X45730476Y-10775047D01*
X45778095Y-10965523D01*
X45873333Y-11060761D01*
X45968571Y-11108380D01*
X46159047Y-11108380D01*
X46254285Y-11060761D01*
X46349523Y-10965523D01*
X46397142Y-10775047D01*
X46397142Y-10441714D01*
X46349523Y-10251238D01*
X46254285Y-10156000D01*
X46159047Y-10108380D01*
X45301904Y-11108380D02*
X45301904Y-10108380D01*
X44730476Y-11108380D01*
X44730476Y-10108380D01*
X44254285Y-11108380D02*
X44254285Y-10108380D01*
X43682857Y-11108380D01*
X43682857Y-10108380D01*
X43301904Y-10108380D02*
X42682857Y-10108380D01*
X43016190Y-10489333D01*
X42873333Y-10489333D01*
X42778095Y-10536952D01*
X42730476Y-10584571D01*
X42682857Y-10679809D01*
X42682857Y-10917904D01*
X42730476Y-11013142D01*
X42778095Y-11060761D01*
X42873333Y-11108380D01*
X43159047Y-11108380D01*
X43254285Y-11060761D01*
X43301904Y-11013142D01*
X40076380Y-5949666D02*
X40790666Y-5949666D01*
X40933523Y-5902047D01*
X41028761Y-5806809D01*
X41076380Y-5663952D01*
X41076380Y-5568714D01*
X41076380Y-6949666D02*
X41076380Y-6378238D01*
X41076380Y-6663952D02*
X40076380Y-6663952D01*
X40219238Y-6568714D01*
X40314476Y-6473476D01*
X40362095Y-6378238D01*
X10239619Y-47148761D02*
X10192000Y-47053523D01*
X10096761Y-46958285D01*
X9953904Y-46815428D01*
X9906285Y-46720190D01*
X9906285Y-46624952D01*
X10144380Y-46672571D02*
X10096761Y-46577333D01*
X10001523Y-46482095D01*
X9811047Y-46434476D01*
X9477714Y-46434476D01*
X9287238Y-46482095D01*
X9192000Y-46577333D01*
X9144380Y-46672571D01*
X9144380Y-46863047D01*
X9192000Y-46958285D01*
X9287238Y-47053523D01*
X9477714Y-47101142D01*
X9811047Y-47101142D01*
X10001523Y-47053523D01*
X10096761Y-46958285D01*
X10144380Y-46863047D01*
X10144380Y-46672571D01*
X9144380Y-48005904D02*
X9144380Y-47529714D01*
X9620571Y-47482095D01*
X9572952Y-47529714D01*
X9525333Y-47624952D01*
X9525333Y-47863047D01*
X9572952Y-47958285D01*
X9620571Y-48005904D01*
X9715809Y-48053523D01*
X9953904Y-48053523D01*
X10049142Y-48005904D01*
X10096761Y-47958285D01*
X10144380Y-47863047D01*
X10144380Y-47624952D01*
X10096761Y-47529714D01*
X10049142Y-47482095D01*
X20161238Y-36067619D02*
X20256476Y-36020000D01*
X20351714Y-35924761D01*
X20494571Y-35781904D01*
X20589809Y-35734285D01*
X20685047Y-35734285D01*
X20637428Y-35972380D02*
X20732666Y-35924761D01*
X20827904Y-35829523D01*
X20875523Y-35639047D01*
X20875523Y-35305714D01*
X20827904Y-35115238D01*
X20732666Y-35020000D01*
X20637428Y-34972380D01*
X20446952Y-34972380D01*
X20351714Y-35020000D01*
X20256476Y-35115238D01*
X20208857Y-35305714D01*
X20208857Y-35639047D01*
X20256476Y-35829523D01*
X20351714Y-35924761D01*
X20446952Y-35972380D01*
X20637428Y-35972380D01*
X19351714Y-34972380D02*
X19542190Y-34972380D01*
X19637428Y-35020000D01*
X19685047Y-35067619D01*
X19780285Y-35210476D01*
X19827904Y-35400952D01*
X19827904Y-35781904D01*
X19780285Y-35877142D01*
X19732666Y-35924761D01*
X19637428Y-35972380D01*
X19446952Y-35972380D01*
X19351714Y-35924761D01*
X19304095Y-35877142D01*
X19256476Y-35781904D01*
X19256476Y-35543809D01*
X19304095Y-35448571D01*
X19351714Y-35400952D01*
X19446952Y-35353333D01*
X19637428Y-35353333D01*
X19732666Y-35400952D01*
X19780285Y-35448571D01*
X19827904Y-35543809D01*
X16090166Y-50362380D02*
X16423500Y-49886190D01*
X16661595Y-50362380D02*
X16661595Y-49362380D01*
X16280642Y-49362380D01*
X16185404Y-49410000D01*
X16137785Y-49457619D01*
X16090166Y-49552857D01*
X16090166Y-49695714D01*
X16137785Y-49790952D01*
X16185404Y-49838571D01*
X16280642Y-49886190D01*
X16661595Y-49886190D01*
X15613976Y-50362380D02*
X15423500Y-50362380D01*
X15328261Y-50314761D01*
X15280642Y-50267142D01*
X15185404Y-50124285D01*
X15137785Y-49933809D01*
X15137785Y-49552857D01*
X15185404Y-49457619D01*
X15233023Y-49410000D01*
X15328261Y-49362380D01*
X15518738Y-49362380D01*
X15613976Y-49410000D01*
X15661595Y-49457619D01*
X15709214Y-49552857D01*
X15709214Y-49790952D01*
X15661595Y-49886190D01*
X15613976Y-49933809D01*
X15518738Y-49981428D01*
X15328261Y-49981428D01*
X15233023Y-49933809D01*
X15185404Y-49886190D01*
X15137785Y-49790952D01*
X17074357Y-32584380D02*
X17407690Y-32108190D01*
X17645785Y-32584380D02*
X17645785Y-31584380D01*
X17264833Y-31584380D01*
X17169595Y-31632000D01*
X17121976Y-31679619D01*
X17074357Y-31774857D01*
X17074357Y-31917714D01*
X17121976Y-32012952D01*
X17169595Y-32060571D01*
X17264833Y-32108190D01*
X17645785Y-32108190D01*
X16121976Y-32584380D02*
X16693404Y-32584380D01*
X16407690Y-32584380D02*
X16407690Y-31584380D01*
X16502928Y-31727238D01*
X16598166Y-31822476D01*
X16693404Y-31870095D01*
X15502928Y-31584380D02*
X15407690Y-31584380D01*
X15312452Y-31632000D01*
X15264833Y-31679619D01*
X15217214Y-31774857D01*
X15169595Y-31965333D01*
X15169595Y-32203428D01*
X15217214Y-32393904D01*
X15264833Y-32489142D01*
X15312452Y-32536761D01*
X15407690Y-32584380D01*
X15502928Y-32584380D01*
X15598166Y-32536761D01*
X15645785Y-32489142D01*
X15693404Y-32393904D01*
X15741023Y-32203428D01*
X15741023Y-31965333D01*
X15693404Y-31774857D01*
X15645785Y-31679619D01*
X15598166Y-31632000D01*
X15502928Y-31584380D01*
M02*
