G04 #@! TF.GenerationSoftware,KiCad,Pcbnew,(5.1.6-0-10_14)*
G04 #@! TF.CreationDate,2020-07-24T12:42:11-04:00*
G04 #@! TF.ProjectId,Pufferfish-Interface-2,50756666-6572-4666-9973-682d496e7465,rev?*
G04 #@! TF.SameCoordinates,Original*
G04 #@! TF.FileFunction,Soldermask,Top*
G04 #@! TF.FilePolarity,Negative*
%FSLAX46Y46*%
G04 Gerber Fmt 4.6, Leading zero omitted, Abs format (unit mm)*
G04 Created by KiCad (PCBNEW (5.1.6-0-10_14)) date 2020-07-24 12:42:11*
%MOMM*%
%LPD*%
G01*
G04 APERTURE LIST*
%ADD10C,6.553200*%
%ADD11R,1.825000X1.825000*%
%ADD12C,1.825000*%
%ADD13O,1.800000X1.800000*%
%ADD14R,1.800000X1.800000*%
%ADD15C,1.700000*%
%ADD16R,2.300000X2.300000*%
%ADD17O,2.300000X2.300000*%
%ADD18R,1.000000X0.900000*%
G04 APERTURE END LIST*
D10*
X-3810000Y-6350000D03*
X-3810000Y-50800000D03*
X64770000Y-50800000D03*
X64770000Y-6350000D03*
D11*
X35560000Y-41910000D03*
D12*
X35560000Y-44450000D03*
X38100000Y-41910000D03*
X38100000Y-44450000D03*
X40640000Y-41910000D03*
X40640000Y-44450000D03*
X43180000Y-41910000D03*
X43180000Y-44450000D03*
X45720000Y-41910000D03*
X45720000Y-44450000D03*
X48260000Y-41910000D03*
X48260000Y-44450000D03*
X50800000Y-41910000D03*
X50800000Y-44450000D03*
X53340000Y-41910000D03*
X53340000Y-44450000D03*
D13*
X17619980Y-10421620D03*
X20159980Y-10421620D03*
X22699980Y-10421620D03*
X25239980Y-10421620D03*
X27779980Y-10421620D03*
X30319980Y-10421620D03*
X32859980Y-10421620D03*
X35399980Y-10421620D03*
D14*
X37939980Y-10421620D03*
G36*
G01*
X15286910Y-12818160D02*
X14324410Y-12818160D01*
G75*
G02*
X14055660Y-12549410I0J268750D01*
G01*
X14055660Y-12011910D01*
G75*
G02*
X14324410Y-11743160I268750J0D01*
G01*
X15286910Y-11743160D01*
G75*
G02*
X15555660Y-12011910I0J-268750D01*
G01*
X15555660Y-12549410D01*
G75*
G02*
X15286910Y-12818160I-268750J0D01*
G01*
G37*
G36*
G01*
X15286910Y-14693160D02*
X14324410Y-14693160D01*
G75*
G02*
X14055660Y-14424410I0J268750D01*
G01*
X14055660Y-13886910D01*
G75*
G02*
X14324410Y-13618160I268750J0D01*
G01*
X15286910Y-13618160D01*
G75*
G02*
X15555660Y-13886910I0J-268750D01*
G01*
X15555660Y-14424410D01*
G75*
G02*
X15286910Y-14693160I-268750J0D01*
G01*
G37*
G36*
G01*
X19513600Y-15584250D02*
X19513600Y-16546750D01*
G75*
G02*
X19244850Y-16815500I-268750J0D01*
G01*
X18707350Y-16815500D01*
G75*
G02*
X18438600Y-16546750I0J268750D01*
G01*
X18438600Y-15584250D01*
G75*
G02*
X18707350Y-15315500I268750J0D01*
G01*
X19244850Y-15315500D01*
G75*
G02*
X19513600Y-15584250I0J-268750D01*
G01*
G37*
G36*
G01*
X21388600Y-15584250D02*
X21388600Y-16546750D01*
G75*
G02*
X21119850Y-16815500I-268750J0D01*
G01*
X20582350Y-16815500D01*
G75*
G02*
X20313600Y-16546750I0J268750D01*
G01*
X20313600Y-15584250D01*
G75*
G02*
X20582350Y-15315500I268750J0D01*
G01*
X21119850Y-15315500D01*
G75*
G02*
X21388600Y-15584250I0J-268750D01*
G01*
G37*
G36*
G01*
X23506480Y-15805230D02*
X23506480Y-16767730D01*
G75*
G02*
X23237730Y-17036480I-268750J0D01*
G01*
X22700230Y-17036480D01*
G75*
G02*
X22431480Y-16767730I0J268750D01*
G01*
X22431480Y-15805230D01*
G75*
G02*
X22700230Y-15536480I268750J0D01*
G01*
X23237730Y-15536480D01*
G75*
G02*
X23506480Y-15805230I0J-268750D01*
G01*
G37*
G36*
G01*
X25381480Y-15805230D02*
X25381480Y-16767730D01*
G75*
G02*
X25112730Y-17036480I-268750J0D01*
G01*
X24575230Y-17036480D01*
G75*
G02*
X24306480Y-16767730I0J268750D01*
G01*
X24306480Y-15805230D01*
G75*
G02*
X24575230Y-15536480I268750J0D01*
G01*
X25112730Y-15536480D01*
G75*
G02*
X25381480Y-15805230I0J-268750D01*
G01*
G37*
G36*
G01*
X28352670Y-15368320D02*
X27390170Y-15368320D01*
G75*
G02*
X27121420Y-15099570I0J268750D01*
G01*
X27121420Y-14562070D01*
G75*
G02*
X27390170Y-14293320I268750J0D01*
G01*
X28352670Y-14293320D01*
G75*
G02*
X28621420Y-14562070I0J-268750D01*
G01*
X28621420Y-15099570D01*
G75*
G02*
X28352670Y-15368320I-268750J0D01*
G01*
G37*
G36*
G01*
X28352670Y-17243320D02*
X27390170Y-17243320D01*
G75*
G02*
X27121420Y-16974570I0J268750D01*
G01*
X27121420Y-16437070D01*
G75*
G02*
X27390170Y-16168320I268750J0D01*
G01*
X28352670Y-16168320D01*
G75*
G02*
X28621420Y-16437070I0J-268750D01*
G01*
X28621420Y-16974570D01*
G75*
G02*
X28352670Y-17243320I-268750J0D01*
G01*
G37*
G36*
G01*
X13519200Y-16074470D02*
X13519200Y-17036970D01*
G75*
G02*
X13250450Y-17305720I-268750J0D01*
G01*
X12712950Y-17305720D01*
G75*
G02*
X12444200Y-17036970I0J268750D01*
G01*
X12444200Y-16074470D01*
G75*
G02*
X12712950Y-15805720I268750J0D01*
G01*
X13250450Y-15805720D01*
G75*
G02*
X13519200Y-16074470I0J-268750D01*
G01*
G37*
G36*
G01*
X15394200Y-16074470D02*
X15394200Y-17036970D01*
G75*
G02*
X15125450Y-17305720I-268750J0D01*
G01*
X14587950Y-17305720D01*
G75*
G02*
X14319200Y-17036970I0J268750D01*
G01*
X14319200Y-16074470D01*
G75*
G02*
X14587950Y-15805720I268750J0D01*
G01*
X15125450Y-15805720D01*
G75*
G02*
X15394200Y-16074470I0J-268750D01*
G01*
G37*
G36*
G01*
X13719860Y-22714030D02*
X13719860Y-23676530D01*
G75*
G02*
X13451110Y-23945280I-268750J0D01*
G01*
X12913610Y-23945280D01*
G75*
G02*
X12644860Y-23676530I0J268750D01*
G01*
X12644860Y-22714030D01*
G75*
G02*
X12913610Y-22445280I268750J0D01*
G01*
X13451110Y-22445280D01*
G75*
G02*
X13719860Y-22714030I0J-268750D01*
G01*
G37*
G36*
G01*
X15594860Y-22714030D02*
X15594860Y-23676530D01*
G75*
G02*
X15326110Y-23945280I-268750J0D01*
G01*
X14788610Y-23945280D01*
G75*
G02*
X14519860Y-23676530I0J268750D01*
G01*
X14519860Y-22714030D01*
G75*
G02*
X14788610Y-22445280I268750J0D01*
G01*
X15326110Y-22445280D01*
G75*
G02*
X15594860Y-22714030I0J-268750D01*
G01*
G37*
G36*
G01*
X13326160Y-19594910D02*
X13326160Y-20557410D01*
G75*
G02*
X13057410Y-20826160I-268750J0D01*
G01*
X12519910Y-20826160D01*
G75*
G02*
X12251160Y-20557410I0J268750D01*
G01*
X12251160Y-19594910D01*
G75*
G02*
X12519910Y-19326160I268750J0D01*
G01*
X13057410Y-19326160D01*
G75*
G02*
X13326160Y-19594910I0J-268750D01*
G01*
G37*
G36*
G01*
X15201160Y-19594910D02*
X15201160Y-20557410D01*
G75*
G02*
X14932410Y-20826160I-268750J0D01*
G01*
X14394910Y-20826160D01*
G75*
G02*
X14126160Y-20557410I0J268750D01*
G01*
X14126160Y-19594910D01*
G75*
G02*
X14394910Y-19326160I268750J0D01*
G01*
X14932410Y-19326160D01*
G75*
G02*
X15201160Y-19594910I0J-268750D01*
G01*
G37*
G36*
G01*
X57903030Y-43768060D02*
X56940530Y-43768060D01*
G75*
G02*
X56671780Y-43499310I0J268750D01*
G01*
X56671780Y-42961810D01*
G75*
G02*
X56940530Y-42693060I268750J0D01*
G01*
X57903030Y-42693060D01*
G75*
G02*
X58171780Y-42961810I0J-268750D01*
G01*
X58171780Y-43499310D01*
G75*
G02*
X57903030Y-43768060I-268750J0D01*
G01*
G37*
G36*
G01*
X57903030Y-45643060D02*
X56940530Y-45643060D01*
G75*
G02*
X56671780Y-45374310I0J268750D01*
G01*
X56671780Y-44836810D01*
G75*
G02*
X56940530Y-44568060I268750J0D01*
G01*
X57903030Y-44568060D01*
G75*
G02*
X58171780Y-44836810I0J-268750D01*
G01*
X58171780Y-45374310D01*
G75*
G02*
X57903030Y-45643060I-268750J0D01*
G01*
G37*
G36*
G01*
X55304640Y-52355670D02*
X55304640Y-51393170D01*
G75*
G02*
X55573390Y-51124420I268750J0D01*
G01*
X56110890Y-51124420D01*
G75*
G02*
X56379640Y-51393170I0J-268750D01*
G01*
X56379640Y-52355670D01*
G75*
G02*
X56110890Y-52624420I-268750J0D01*
G01*
X55573390Y-52624420D01*
G75*
G02*
X55304640Y-52355670I0J268750D01*
G01*
G37*
G36*
G01*
X53429640Y-52355670D02*
X53429640Y-51393170D01*
G75*
G02*
X53698390Y-51124420I268750J0D01*
G01*
X54235890Y-51124420D01*
G75*
G02*
X54504640Y-51393170I0J-268750D01*
G01*
X54504640Y-52355670D01*
G75*
G02*
X54235890Y-52624420I-268750J0D01*
G01*
X53698390Y-52624420D01*
G75*
G02*
X53429640Y-52355670I0J268750D01*
G01*
G37*
G36*
G01*
X40013940Y-48555990D02*
X40013940Y-49518490D01*
G75*
G02*
X39745190Y-49787240I-268750J0D01*
G01*
X39207690Y-49787240D01*
G75*
G02*
X38938940Y-49518490I0J268750D01*
G01*
X38938940Y-48555990D01*
G75*
G02*
X39207690Y-48287240I268750J0D01*
G01*
X39745190Y-48287240D01*
G75*
G02*
X40013940Y-48555990I0J-268750D01*
G01*
G37*
G36*
G01*
X41888940Y-48555990D02*
X41888940Y-49518490D01*
G75*
G02*
X41620190Y-49787240I-268750J0D01*
G01*
X41082690Y-49787240D01*
G75*
G02*
X40813940Y-49518490I0J268750D01*
G01*
X40813940Y-48555990D01*
G75*
G02*
X41082690Y-48287240I268750J0D01*
G01*
X41620190Y-48287240D01*
G75*
G02*
X41888940Y-48555990I0J-268750D01*
G01*
G37*
G36*
G01*
X41255900Y-47209630D02*
X41255900Y-46247130D01*
G75*
G02*
X41524650Y-45978380I268750J0D01*
G01*
X42062150Y-45978380D01*
G75*
G02*
X42330900Y-46247130I0J-268750D01*
G01*
X42330900Y-47209630D01*
G75*
G02*
X42062150Y-47478380I-268750J0D01*
G01*
X41524650Y-47478380D01*
G75*
G02*
X41255900Y-47209630I0J268750D01*
G01*
G37*
G36*
G01*
X39380900Y-47209630D02*
X39380900Y-46247130D01*
G75*
G02*
X39649650Y-45978380I268750J0D01*
G01*
X40187150Y-45978380D01*
G75*
G02*
X40455900Y-46247130I0J-268750D01*
G01*
X40455900Y-47209630D01*
G75*
G02*
X40187150Y-47478380I-268750J0D01*
G01*
X39649650Y-47478380D01*
G75*
G02*
X39380900Y-47209630I0J268750D01*
G01*
G37*
G36*
G01*
X56333470Y-39815480D02*
X57295970Y-39815480D01*
G75*
G02*
X57564720Y-40084230I0J-268750D01*
G01*
X57564720Y-40621730D01*
G75*
G02*
X57295970Y-40890480I-268750J0D01*
G01*
X56333470Y-40890480D01*
G75*
G02*
X56064720Y-40621730I0J268750D01*
G01*
X56064720Y-40084230D01*
G75*
G02*
X56333470Y-39815480I268750J0D01*
G01*
G37*
G36*
G01*
X56333470Y-37940480D02*
X57295970Y-37940480D01*
G75*
G02*
X57564720Y-38209230I0J-268750D01*
G01*
X57564720Y-38746730D01*
G75*
G02*
X57295970Y-39015480I-268750J0D01*
G01*
X56333470Y-39015480D01*
G75*
G02*
X56064720Y-38746730I0J268750D01*
G01*
X56064720Y-38209230D01*
G75*
G02*
X56333470Y-37940480I268750J0D01*
G01*
G37*
G36*
G01*
X53493750Y-39521080D02*
X54456250Y-39521080D01*
G75*
G02*
X54725000Y-39789830I0J-268750D01*
G01*
X54725000Y-40327330D01*
G75*
G02*
X54456250Y-40596080I-268750J0D01*
G01*
X53493750Y-40596080D01*
G75*
G02*
X53225000Y-40327330I0J268750D01*
G01*
X53225000Y-39789830D01*
G75*
G02*
X53493750Y-39521080I268750J0D01*
G01*
G37*
G36*
G01*
X53493750Y-37646080D02*
X54456250Y-37646080D01*
G75*
G02*
X54725000Y-37914830I0J-268750D01*
G01*
X54725000Y-38452330D01*
G75*
G02*
X54456250Y-38721080I-268750J0D01*
G01*
X53493750Y-38721080D01*
G75*
G02*
X53225000Y-38452330I0J268750D01*
G01*
X53225000Y-37914830D01*
G75*
G02*
X53493750Y-37646080I268750J0D01*
G01*
G37*
G36*
G01*
X48070850Y-38263780D02*
X49033350Y-38263780D01*
G75*
G02*
X49302100Y-38532530I0J-268750D01*
G01*
X49302100Y-39070030D01*
G75*
G02*
X49033350Y-39338780I-268750J0D01*
G01*
X48070850Y-39338780D01*
G75*
G02*
X47802100Y-39070030I0J268750D01*
G01*
X47802100Y-38532530D01*
G75*
G02*
X48070850Y-38263780I268750J0D01*
G01*
G37*
G36*
G01*
X48070850Y-36388780D02*
X49033350Y-36388780D01*
G75*
G02*
X49302100Y-36657530I0J-268750D01*
G01*
X49302100Y-37195030D01*
G75*
G02*
X49033350Y-37463780I-268750J0D01*
G01*
X48070850Y-37463780D01*
G75*
G02*
X47802100Y-37195030I0J268750D01*
G01*
X47802100Y-36657530D01*
G75*
G02*
X48070850Y-36388780I268750J0D01*
G01*
G37*
G36*
G01*
X45375910Y-38263780D02*
X46338410Y-38263780D01*
G75*
G02*
X46607160Y-38532530I0J-268750D01*
G01*
X46607160Y-39070030D01*
G75*
G02*
X46338410Y-39338780I-268750J0D01*
G01*
X45375910Y-39338780D01*
G75*
G02*
X45107160Y-39070030I0J268750D01*
G01*
X45107160Y-38532530D01*
G75*
G02*
X45375910Y-38263780I268750J0D01*
G01*
G37*
G36*
G01*
X45375910Y-36388780D02*
X46338410Y-36388780D01*
G75*
G02*
X46607160Y-36657530I0J-268750D01*
G01*
X46607160Y-37195030D01*
G75*
G02*
X46338410Y-37463780I-268750J0D01*
G01*
X45375910Y-37463780D01*
G75*
G02*
X45107160Y-37195030I0J268750D01*
G01*
X45107160Y-36657530D01*
G75*
G02*
X45375910Y-36388780I268750J0D01*
G01*
G37*
G36*
G01*
X42551430Y-38263780D02*
X43513930Y-38263780D01*
G75*
G02*
X43782680Y-38532530I0J-268750D01*
G01*
X43782680Y-39070030D01*
G75*
G02*
X43513930Y-39338780I-268750J0D01*
G01*
X42551430Y-39338780D01*
G75*
G02*
X42282680Y-39070030I0J268750D01*
G01*
X42282680Y-38532530D01*
G75*
G02*
X42551430Y-38263780I268750J0D01*
G01*
G37*
G36*
G01*
X42551430Y-36388780D02*
X43513930Y-36388780D01*
G75*
G02*
X43782680Y-36657530I0J-268750D01*
G01*
X43782680Y-37195030D01*
G75*
G02*
X43513930Y-37463780I-268750J0D01*
G01*
X42551430Y-37463780D01*
G75*
G02*
X42282680Y-37195030I0J268750D01*
G01*
X42282680Y-36657530D01*
G75*
G02*
X42551430Y-36388780I268750J0D01*
G01*
G37*
G36*
G01*
X40199260Y-38621890D02*
X40199260Y-37659390D01*
G75*
G02*
X40468010Y-37390640I268750J0D01*
G01*
X41005510Y-37390640D01*
G75*
G02*
X41274260Y-37659390I0J-268750D01*
G01*
X41274260Y-38621890D01*
G75*
G02*
X41005510Y-38890640I-268750J0D01*
G01*
X40468010Y-38890640D01*
G75*
G02*
X40199260Y-38621890I0J268750D01*
G01*
G37*
G36*
G01*
X38324260Y-38621890D02*
X38324260Y-37659390D01*
G75*
G02*
X38593010Y-37390640I268750J0D01*
G01*
X39130510Y-37390640D01*
G75*
G02*
X39399260Y-37659390I0J-268750D01*
G01*
X39399260Y-38621890D01*
G75*
G02*
X39130510Y-38890640I-268750J0D01*
G01*
X38593010Y-38890640D01*
G75*
G02*
X38324260Y-38621890I0J268750D01*
G01*
G37*
D15*
X23502000Y-39370000D03*
X8502000Y-39370000D03*
X20902000Y-42270000D03*
X20902000Y-44770000D03*
G36*
G01*
X51532500Y-21817250D02*
X51532500Y-20854750D01*
G75*
G02*
X51801250Y-20586000I268750J0D01*
G01*
X52338750Y-20586000D01*
G75*
G02*
X52607500Y-20854750I0J-268750D01*
G01*
X52607500Y-21817250D01*
G75*
G02*
X52338750Y-22086000I-268750J0D01*
G01*
X51801250Y-22086000D01*
G75*
G02*
X51532500Y-21817250I0J268750D01*
G01*
G37*
G36*
G01*
X49657500Y-21817250D02*
X49657500Y-20854750D01*
G75*
G02*
X49926250Y-20586000I268750J0D01*
G01*
X50463750Y-20586000D01*
G75*
G02*
X50732500Y-20854750I0J-268750D01*
G01*
X50732500Y-21817250D01*
G75*
G02*
X50463750Y-22086000I-268750J0D01*
G01*
X49926250Y-22086000D01*
G75*
G02*
X49657500Y-21817250I0J268750D01*
G01*
G37*
G36*
G01*
X46120000Y-21817250D02*
X46120000Y-20854750D01*
G75*
G02*
X46388750Y-20586000I268750J0D01*
G01*
X46926250Y-20586000D01*
G75*
G02*
X47195000Y-20854750I0J-268750D01*
G01*
X47195000Y-21817250D01*
G75*
G02*
X46926250Y-22086000I-268750J0D01*
G01*
X46388750Y-22086000D01*
G75*
G02*
X46120000Y-21817250I0J268750D01*
G01*
G37*
G36*
G01*
X44245000Y-21817250D02*
X44245000Y-20854750D01*
G75*
G02*
X44513750Y-20586000I268750J0D01*
G01*
X45051250Y-20586000D01*
G75*
G02*
X45320000Y-20854750I0J-268750D01*
G01*
X45320000Y-21817250D01*
G75*
G02*
X45051250Y-22086000I-268750J0D01*
G01*
X44513750Y-22086000D01*
G75*
G02*
X44245000Y-21817250I0J268750D01*
G01*
G37*
G36*
G01*
X39165000Y-21817250D02*
X39165000Y-20854750D01*
G75*
G02*
X39433750Y-20586000I268750J0D01*
G01*
X39971250Y-20586000D01*
G75*
G02*
X40240000Y-20854750I0J-268750D01*
G01*
X40240000Y-21817250D01*
G75*
G02*
X39971250Y-22086000I-268750J0D01*
G01*
X39433750Y-22086000D01*
G75*
G02*
X39165000Y-21817250I0J268750D01*
G01*
G37*
G36*
G01*
X41040000Y-21817250D02*
X41040000Y-20854750D01*
G75*
G02*
X41308750Y-20586000I268750J0D01*
G01*
X41846250Y-20586000D01*
G75*
G02*
X42115000Y-20854750I0J-268750D01*
G01*
X42115000Y-21817250D01*
G75*
G02*
X41846250Y-22086000I-268750J0D01*
G01*
X41308750Y-22086000D01*
G75*
G02*
X41040000Y-21817250I0J268750D01*
G01*
G37*
G36*
G01*
X33323000Y-22071250D02*
X33323000Y-21108750D01*
G75*
G02*
X33591750Y-20840000I268750J0D01*
G01*
X34129250Y-20840000D01*
G75*
G02*
X34398000Y-21108750I0J-268750D01*
G01*
X34398000Y-22071250D01*
G75*
G02*
X34129250Y-22340000I-268750J0D01*
G01*
X33591750Y-22340000D01*
G75*
G02*
X33323000Y-22071250I0J268750D01*
G01*
G37*
G36*
G01*
X35198000Y-22071250D02*
X35198000Y-21108750D01*
G75*
G02*
X35466750Y-20840000I268750J0D01*
G01*
X36004250Y-20840000D01*
G75*
G02*
X36273000Y-21108750I0J-268750D01*
G01*
X36273000Y-22071250D01*
G75*
G02*
X36004250Y-22340000I-268750J0D01*
G01*
X35466750Y-22340000D01*
G75*
G02*
X35198000Y-22071250I0J268750D01*
G01*
G37*
G36*
G01*
X54834500Y-21817250D02*
X54834500Y-20854750D01*
G75*
G02*
X55103250Y-20586000I268750J0D01*
G01*
X55640750Y-20586000D01*
G75*
G02*
X55909500Y-20854750I0J-268750D01*
G01*
X55909500Y-21817250D01*
G75*
G02*
X55640750Y-22086000I-268750J0D01*
G01*
X55103250Y-22086000D01*
G75*
G02*
X54834500Y-21817250I0J268750D01*
G01*
G37*
G36*
G01*
X56709500Y-21817250D02*
X56709500Y-20854750D01*
G75*
G02*
X56978250Y-20586000I268750J0D01*
G01*
X57515750Y-20586000D01*
G75*
G02*
X57784500Y-20854750I0J-268750D01*
G01*
X57784500Y-21817250D01*
G75*
G02*
X57515750Y-22086000I-268750J0D01*
G01*
X56978250Y-22086000D01*
G75*
G02*
X56709500Y-21817250I0J268750D01*
G01*
G37*
D16*
X18542000Y-53594000D03*
D17*
X28702000Y-53594000D03*
X2540000Y-27178000D03*
D16*
X2540000Y-37338000D03*
G36*
G01*
X49158000Y-24530000D02*
X49158000Y-23730000D01*
G75*
G02*
X49508000Y-23380000I350000J0D01*
G01*
X50208000Y-23380000D01*
G75*
G02*
X50558000Y-23730000I0J-350000D01*
G01*
X50558000Y-24530000D01*
G75*
G02*
X50208000Y-24880000I-350000J0D01*
G01*
X49508000Y-24880000D01*
G75*
G02*
X49158000Y-24530000I0J350000D01*
G01*
G37*
G36*
G01*
X52058000Y-24530000D02*
X52058000Y-23730000D01*
G75*
G02*
X52408000Y-23380000I350000J0D01*
G01*
X53108000Y-23380000D01*
G75*
G02*
X53458000Y-23730000I0J-350000D01*
G01*
X53458000Y-24530000D01*
G75*
G02*
X53108000Y-24880000I-350000J0D01*
G01*
X52408000Y-24880000D01*
G75*
G02*
X52058000Y-24530000I0J350000D01*
G01*
G37*
G36*
G01*
X43750000Y-24530000D02*
X43750000Y-23730000D01*
G75*
G02*
X44100000Y-23380000I350000J0D01*
G01*
X44800000Y-23380000D01*
G75*
G02*
X45150000Y-23730000I0J-350000D01*
G01*
X45150000Y-24530000D01*
G75*
G02*
X44800000Y-24880000I-350000J0D01*
G01*
X44100000Y-24880000D01*
G75*
G02*
X43750000Y-24530000I0J350000D01*
G01*
G37*
G36*
G01*
X46650000Y-24530000D02*
X46650000Y-23730000D01*
G75*
G02*
X47000000Y-23380000I350000J0D01*
G01*
X47700000Y-23380000D01*
G75*
G02*
X48050000Y-23730000I0J-350000D01*
G01*
X48050000Y-24530000D01*
G75*
G02*
X47700000Y-24880000I-350000J0D01*
G01*
X47000000Y-24880000D01*
G75*
G02*
X46650000Y-24530000I0J350000D01*
G01*
G37*
G36*
G01*
X41062000Y-24530000D02*
X41062000Y-23730000D01*
G75*
G02*
X41412000Y-23380000I350000J0D01*
G01*
X42112000Y-23380000D01*
G75*
G02*
X42462000Y-23730000I0J-350000D01*
G01*
X42462000Y-24530000D01*
G75*
G02*
X42112000Y-24880000I-350000J0D01*
G01*
X41412000Y-24880000D01*
G75*
G02*
X41062000Y-24530000I0J350000D01*
G01*
G37*
G36*
G01*
X38162000Y-24530000D02*
X38162000Y-23730000D01*
G75*
G02*
X38512000Y-23380000I350000J0D01*
G01*
X39212000Y-23380000D01*
G75*
G02*
X39562000Y-23730000I0J-350000D01*
G01*
X39562000Y-24530000D01*
G75*
G02*
X39212000Y-24880000I-350000J0D01*
G01*
X38512000Y-24880000D01*
G75*
G02*
X38162000Y-24530000I0J350000D01*
G01*
G37*
G36*
G01*
X35548000Y-24530000D02*
X35548000Y-23730000D01*
G75*
G02*
X35898000Y-23380000I350000J0D01*
G01*
X36598000Y-23380000D01*
G75*
G02*
X36948000Y-23730000I0J-350000D01*
G01*
X36948000Y-24530000D01*
G75*
G02*
X36598000Y-24880000I-350000J0D01*
G01*
X35898000Y-24880000D01*
G75*
G02*
X35548000Y-24530000I0J350000D01*
G01*
G37*
G36*
G01*
X32648000Y-24530000D02*
X32648000Y-23730000D01*
G75*
G02*
X32998000Y-23380000I350000J0D01*
G01*
X33698000Y-23380000D01*
G75*
G02*
X34048000Y-23730000I0J-350000D01*
G01*
X34048000Y-24530000D01*
G75*
G02*
X33698000Y-24880000I-350000J0D01*
G01*
X32998000Y-24880000D01*
G75*
G02*
X32648000Y-24530000I0J350000D01*
G01*
G37*
G36*
G01*
X57064000Y-24530000D02*
X57064000Y-23730000D01*
G75*
G02*
X57414000Y-23380000I350000J0D01*
G01*
X58114000Y-23380000D01*
G75*
G02*
X58464000Y-23730000I0J-350000D01*
G01*
X58464000Y-24530000D01*
G75*
G02*
X58114000Y-24880000I-350000J0D01*
G01*
X57414000Y-24880000D01*
G75*
G02*
X57064000Y-24530000I0J350000D01*
G01*
G37*
G36*
G01*
X54164000Y-24530000D02*
X54164000Y-23730000D01*
G75*
G02*
X54514000Y-23380000I350000J0D01*
G01*
X55214000Y-23380000D01*
G75*
G02*
X55564000Y-23730000I0J-350000D01*
G01*
X55564000Y-24530000D01*
G75*
G02*
X55214000Y-24880000I-350000J0D01*
G01*
X54514000Y-24880000D01*
G75*
G02*
X54164000Y-24530000I0J350000D01*
G01*
G37*
D18*
X33512000Y-34732000D03*
X33512000Y-32832000D03*
X31512000Y-33782000D03*
X38116000Y-33782000D03*
X40116000Y-32832000D03*
X40116000Y-34732000D03*
X46720000Y-34732000D03*
X46720000Y-32832000D03*
X44720000Y-33782000D03*
X51578000Y-33782000D03*
X53578000Y-32832000D03*
X53578000Y-34732000D03*
X36592000Y-52390000D03*
X36592000Y-54290000D03*
X38592000Y-53340000D03*
X6080000Y-23048000D03*
X6080000Y-21148000D03*
X4080000Y-22098000D03*
X4080000Y-18288000D03*
X6080000Y-17338000D03*
X6080000Y-19238000D03*
X4080000Y-14478000D03*
X6080000Y-13528000D03*
X6080000Y-15428000D03*
G36*
G01*
X36295250Y-33382000D02*
X35332750Y-33382000D01*
G75*
G02*
X35064000Y-33113250I0J268750D01*
G01*
X35064000Y-32575750D01*
G75*
G02*
X35332750Y-32307000I268750J0D01*
G01*
X36295250Y-32307000D01*
G75*
G02*
X36564000Y-32575750I0J-268750D01*
G01*
X36564000Y-33113250D01*
G75*
G02*
X36295250Y-33382000I-268750J0D01*
G01*
G37*
G36*
G01*
X36295250Y-35257000D02*
X35332750Y-35257000D01*
G75*
G02*
X35064000Y-34988250I0J268750D01*
G01*
X35064000Y-34450750D01*
G75*
G02*
X35332750Y-34182000I268750J0D01*
G01*
X36295250Y-34182000D01*
G75*
G02*
X36564000Y-34450750I0J-268750D01*
G01*
X36564000Y-34988250D01*
G75*
G02*
X36295250Y-35257000I-268750J0D01*
G01*
G37*
G36*
G01*
X42645250Y-35257000D02*
X41682750Y-35257000D01*
G75*
G02*
X41414000Y-34988250I0J268750D01*
G01*
X41414000Y-34450750D01*
G75*
G02*
X41682750Y-34182000I268750J0D01*
G01*
X42645250Y-34182000D01*
G75*
G02*
X42914000Y-34450750I0J-268750D01*
G01*
X42914000Y-34988250D01*
G75*
G02*
X42645250Y-35257000I-268750J0D01*
G01*
G37*
G36*
G01*
X42645250Y-33382000D02*
X41682750Y-33382000D01*
G75*
G02*
X41414000Y-33113250I0J268750D01*
G01*
X41414000Y-32575750D01*
G75*
G02*
X41682750Y-32307000I268750J0D01*
G01*
X42645250Y-32307000D01*
G75*
G02*
X42914000Y-32575750I0J-268750D01*
G01*
X42914000Y-33113250D01*
G75*
G02*
X42645250Y-33382000I-268750J0D01*
G01*
G37*
G36*
G01*
X49249250Y-33382000D02*
X48286750Y-33382000D01*
G75*
G02*
X48018000Y-33113250I0J268750D01*
G01*
X48018000Y-32575750D01*
G75*
G02*
X48286750Y-32307000I268750J0D01*
G01*
X49249250Y-32307000D01*
G75*
G02*
X49518000Y-32575750I0J-268750D01*
G01*
X49518000Y-33113250D01*
G75*
G02*
X49249250Y-33382000I-268750J0D01*
G01*
G37*
G36*
G01*
X49249250Y-35257000D02*
X48286750Y-35257000D01*
G75*
G02*
X48018000Y-34988250I0J268750D01*
G01*
X48018000Y-34450750D01*
G75*
G02*
X48286750Y-34182000I268750J0D01*
G01*
X49249250Y-34182000D01*
G75*
G02*
X49518000Y-34450750I0J-268750D01*
G01*
X49518000Y-34988250D01*
G75*
G02*
X49249250Y-35257000I-268750J0D01*
G01*
G37*
G36*
G01*
X56361250Y-35257000D02*
X55398750Y-35257000D01*
G75*
G02*
X55130000Y-34988250I0J268750D01*
G01*
X55130000Y-34450750D01*
G75*
G02*
X55398750Y-34182000I268750J0D01*
G01*
X56361250Y-34182000D01*
G75*
G02*
X56630000Y-34450750I0J-268750D01*
G01*
X56630000Y-34988250D01*
G75*
G02*
X56361250Y-35257000I-268750J0D01*
G01*
G37*
G36*
G01*
X56361250Y-33382000D02*
X55398750Y-33382000D01*
G75*
G02*
X55130000Y-33113250I0J268750D01*
G01*
X55130000Y-32575750D01*
G75*
G02*
X55398750Y-32307000I268750J0D01*
G01*
X56361250Y-32307000D01*
G75*
G02*
X56630000Y-32575750I0J-268750D01*
G01*
X56630000Y-33113250D01*
G75*
G02*
X56361250Y-33382000I-268750J0D01*
G01*
G37*
G36*
G01*
X33908500Y-30252750D02*
X33908500Y-31215250D01*
G75*
G02*
X33639750Y-31484000I-268750J0D01*
G01*
X33102250Y-31484000D01*
G75*
G02*
X32833500Y-31215250I0J268750D01*
G01*
X32833500Y-30252750D01*
G75*
G02*
X33102250Y-29984000I268750J0D01*
G01*
X33639750Y-29984000D01*
G75*
G02*
X33908500Y-30252750I0J-268750D01*
G01*
G37*
G36*
G01*
X32033500Y-30252750D02*
X32033500Y-31215250D01*
G75*
G02*
X31764750Y-31484000I-268750J0D01*
G01*
X31227250Y-31484000D01*
G75*
G02*
X30958500Y-31215250I0J268750D01*
G01*
X30958500Y-30252750D01*
G75*
G02*
X31227250Y-29984000I268750J0D01*
G01*
X31764750Y-29984000D01*
G75*
G02*
X32033500Y-30252750I0J-268750D01*
G01*
G37*
G36*
G01*
X38716000Y-30252750D02*
X38716000Y-31215250D01*
G75*
G02*
X38447250Y-31484000I-268750J0D01*
G01*
X37909750Y-31484000D01*
G75*
G02*
X37641000Y-31215250I0J268750D01*
G01*
X37641000Y-30252750D01*
G75*
G02*
X37909750Y-29984000I268750J0D01*
G01*
X38447250Y-29984000D01*
G75*
G02*
X38716000Y-30252750I0J-268750D01*
G01*
G37*
G36*
G01*
X40591000Y-30252750D02*
X40591000Y-31215250D01*
G75*
G02*
X40322250Y-31484000I-268750J0D01*
G01*
X39784750Y-31484000D01*
G75*
G02*
X39516000Y-31215250I0J268750D01*
G01*
X39516000Y-30252750D01*
G75*
G02*
X39784750Y-29984000I268750J0D01*
G01*
X40322250Y-29984000D01*
G75*
G02*
X40591000Y-30252750I0J-268750D01*
G01*
G37*
G36*
G01*
X47273500Y-30252750D02*
X47273500Y-31215250D01*
G75*
G02*
X47004750Y-31484000I-268750J0D01*
G01*
X46467250Y-31484000D01*
G75*
G02*
X46198500Y-31215250I0J268750D01*
G01*
X46198500Y-30252750D01*
G75*
G02*
X46467250Y-29984000I268750J0D01*
G01*
X47004750Y-29984000D01*
G75*
G02*
X47273500Y-30252750I0J-268750D01*
G01*
G37*
G36*
G01*
X45398500Y-30252750D02*
X45398500Y-31215250D01*
G75*
G02*
X45129750Y-31484000I-268750J0D01*
G01*
X44592250Y-31484000D01*
G75*
G02*
X44323500Y-31215250I0J268750D01*
G01*
X44323500Y-30252750D01*
G75*
G02*
X44592250Y-29984000I268750J0D01*
G01*
X45129750Y-29984000D01*
G75*
G02*
X45398500Y-30252750I0J-268750D01*
G01*
G37*
G36*
G01*
X52178000Y-30252750D02*
X52178000Y-31215250D01*
G75*
G02*
X51909250Y-31484000I-268750J0D01*
G01*
X51371750Y-31484000D01*
G75*
G02*
X51103000Y-31215250I0J268750D01*
G01*
X51103000Y-30252750D01*
G75*
G02*
X51371750Y-29984000I268750J0D01*
G01*
X51909250Y-29984000D01*
G75*
G02*
X52178000Y-30252750I0J-268750D01*
G01*
G37*
G36*
G01*
X54053000Y-30252750D02*
X54053000Y-31215250D01*
G75*
G02*
X53784250Y-31484000I-268750J0D01*
G01*
X53246750Y-31484000D01*
G75*
G02*
X52978000Y-31215250I0J268750D01*
G01*
X52978000Y-30252750D01*
G75*
G02*
X53246750Y-29984000I268750J0D01*
G01*
X53784250Y-29984000D01*
G75*
G02*
X54053000Y-30252750I0J-268750D01*
G01*
G37*
G36*
G01*
X34495000Y-51842750D02*
X34495000Y-52805250D01*
G75*
G02*
X34226250Y-53074000I-268750J0D01*
G01*
X33688750Y-53074000D01*
G75*
G02*
X33420000Y-52805250I0J268750D01*
G01*
X33420000Y-51842750D01*
G75*
G02*
X33688750Y-51574000I268750J0D01*
G01*
X34226250Y-51574000D01*
G75*
G02*
X34495000Y-51842750I0J-268750D01*
G01*
G37*
G36*
G01*
X32620000Y-51842750D02*
X32620000Y-52805250D01*
G75*
G02*
X32351250Y-53074000I-268750J0D01*
G01*
X31813750Y-53074000D01*
G75*
G02*
X31545000Y-52805250I0J268750D01*
G01*
X31545000Y-51842750D01*
G75*
G02*
X31813750Y-51574000I268750J0D01*
G01*
X32351250Y-51574000D01*
G75*
G02*
X32620000Y-51842750I0J-268750D01*
G01*
G37*
G36*
G01*
X10133250Y-22714000D02*
X9170750Y-22714000D01*
G75*
G02*
X8902000Y-22445250I0J268750D01*
G01*
X8902000Y-21907750D01*
G75*
G02*
X9170750Y-21639000I268750J0D01*
G01*
X10133250Y-21639000D01*
G75*
G02*
X10402000Y-21907750I0J-268750D01*
G01*
X10402000Y-22445250D01*
G75*
G02*
X10133250Y-22714000I-268750J0D01*
G01*
G37*
G36*
G01*
X10133250Y-24589000D02*
X9170750Y-24589000D01*
G75*
G02*
X8902000Y-24320250I0J268750D01*
G01*
X8902000Y-23782750D01*
G75*
G02*
X9170750Y-23514000I268750J0D01*
G01*
X10133250Y-23514000D01*
G75*
G02*
X10402000Y-23782750I0J-268750D01*
G01*
X10402000Y-24320250D01*
G75*
G02*
X10133250Y-24589000I-268750J0D01*
G01*
G37*
G36*
G01*
X10133250Y-20525000D02*
X9170750Y-20525000D01*
G75*
G02*
X8902000Y-20256250I0J268750D01*
G01*
X8902000Y-19718750D01*
G75*
G02*
X9170750Y-19450000I268750J0D01*
G01*
X10133250Y-19450000D01*
G75*
G02*
X10402000Y-19718750I0J-268750D01*
G01*
X10402000Y-20256250D01*
G75*
G02*
X10133250Y-20525000I-268750J0D01*
G01*
G37*
G36*
G01*
X10133250Y-18650000D02*
X9170750Y-18650000D01*
G75*
G02*
X8902000Y-18381250I0J268750D01*
G01*
X8902000Y-17843750D01*
G75*
G02*
X9170750Y-17575000I268750J0D01*
G01*
X10133250Y-17575000D01*
G75*
G02*
X10402000Y-17843750I0J-268750D01*
G01*
X10402000Y-18381250D01*
G75*
G02*
X10133250Y-18650000I-268750J0D01*
G01*
G37*
G36*
G01*
X10133250Y-14586000D02*
X9170750Y-14586000D01*
G75*
G02*
X8902000Y-14317250I0J268750D01*
G01*
X8902000Y-13779750D01*
G75*
G02*
X9170750Y-13511000I268750J0D01*
G01*
X10133250Y-13511000D01*
G75*
G02*
X10402000Y-13779750I0J-268750D01*
G01*
X10402000Y-14317250D01*
G75*
G02*
X10133250Y-14586000I-268750J0D01*
G01*
G37*
G36*
G01*
X10133250Y-16461000D02*
X9170750Y-16461000D01*
G75*
G02*
X8902000Y-16192250I0J268750D01*
G01*
X8902000Y-15654750D01*
G75*
G02*
X9170750Y-15386000I268750J0D01*
G01*
X10133250Y-15386000D01*
G75*
G02*
X10402000Y-15654750I0J-268750D01*
G01*
X10402000Y-16192250D01*
G75*
G02*
X10133250Y-16461000I-268750J0D01*
G01*
G37*
G36*
G01*
X24796830Y-12032960D02*
X25759330Y-12032960D01*
G75*
G02*
X26028080Y-12301710I0J-268750D01*
G01*
X26028080Y-12839210D01*
G75*
G02*
X25759330Y-13107960I-268750J0D01*
G01*
X24796830Y-13107960D01*
G75*
G02*
X24528080Y-12839210I0J268750D01*
G01*
X24528080Y-12301710D01*
G75*
G02*
X24796830Y-12032960I268750J0D01*
G01*
G37*
G36*
G01*
X24796830Y-13907960D02*
X25759330Y-13907960D01*
G75*
G02*
X26028080Y-14176710I0J-268750D01*
G01*
X26028080Y-14714210D01*
G75*
G02*
X25759330Y-14982960I-268750J0D01*
G01*
X24796830Y-14982960D01*
G75*
G02*
X24528080Y-14714210I0J268750D01*
G01*
X24528080Y-14176710D01*
G75*
G02*
X24796830Y-13907960I268750J0D01*
G01*
G37*
G36*
G01*
X22256830Y-13810960D02*
X23219330Y-13810960D01*
G75*
G02*
X23488080Y-14079710I0J-268750D01*
G01*
X23488080Y-14617210D01*
G75*
G02*
X23219330Y-14885960I-268750J0D01*
G01*
X22256830Y-14885960D01*
G75*
G02*
X21988080Y-14617210I0J268750D01*
G01*
X21988080Y-14079710D01*
G75*
G02*
X22256830Y-13810960I268750J0D01*
G01*
G37*
G36*
G01*
X22256830Y-11935960D02*
X23219330Y-11935960D01*
G75*
G02*
X23488080Y-12204710I0J-268750D01*
G01*
X23488080Y-12742210D01*
G75*
G02*
X23219330Y-13010960I-268750J0D01*
G01*
X22256830Y-13010960D01*
G75*
G02*
X21988080Y-12742210I0J268750D01*
G01*
X21988080Y-12204710D01*
G75*
G02*
X22256830Y-11935960I268750J0D01*
G01*
G37*
G36*
G01*
X19716830Y-11857460D02*
X20679330Y-11857460D01*
G75*
G02*
X20948080Y-12126210I0J-268750D01*
G01*
X20948080Y-12663710D01*
G75*
G02*
X20679330Y-12932460I-268750J0D01*
G01*
X19716830Y-12932460D01*
G75*
G02*
X19448080Y-12663710I0J268750D01*
G01*
X19448080Y-12126210D01*
G75*
G02*
X19716830Y-11857460I268750J0D01*
G01*
G37*
G36*
G01*
X19716830Y-13732460D02*
X20679330Y-13732460D01*
G75*
G02*
X20948080Y-14001210I0J-268750D01*
G01*
X20948080Y-14538710D01*
G75*
G02*
X20679330Y-14807460I-268750J0D01*
G01*
X19716830Y-14807460D01*
G75*
G02*
X19448080Y-14538710I0J268750D01*
G01*
X19448080Y-14001210D01*
G75*
G02*
X19716830Y-13732460I268750J0D01*
G01*
G37*
G36*
G01*
X16922830Y-13732460D02*
X17885330Y-13732460D01*
G75*
G02*
X18154080Y-14001210I0J-268750D01*
G01*
X18154080Y-14538710D01*
G75*
G02*
X17885330Y-14807460I-268750J0D01*
G01*
X16922830Y-14807460D01*
G75*
G02*
X16654080Y-14538710I0J268750D01*
G01*
X16654080Y-14001210D01*
G75*
G02*
X16922830Y-13732460I268750J0D01*
G01*
G37*
G36*
G01*
X16922830Y-11857460D02*
X17885330Y-11857460D01*
G75*
G02*
X18154080Y-12126210I0J-268750D01*
G01*
X18154080Y-12663710D01*
G75*
G02*
X17885330Y-12932460I-268750J0D01*
G01*
X16922830Y-12932460D01*
G75*
G02*
X16654080Y-12663710I0J268750D01*
G01*
X16654080Y-12126210D01*
G75*
G02*
X16922830Y-11857460I268750J0D01*
G01*
G37*
G36*
G01*
X49657500Y-16737250D02*
X49657500Y-15774750D01*
G75*
G02*
X49926250Y-15506000I268750J0D01*
G01*
X50463750Y-15506000D01*
G75*
G02*
X50732500Y-15774750I0J-268750D01*
G01*
X50732500Y-16737250D01*
G75*
G02*
X50463750Y-17006000I-268750J0D01*
G01*
X49926250Y-17006000D01*
G75*
G02*
X49657500Y-16737250I0J268750D01*
G01*
G37*
G36*
G01*
X51532500Y-16737250D02*
X51532500Y-15774750D01*
G75*
G02*
X51801250Y-15506000I268750J0D01*
G01*
X52338750Y-15506000D01*
G75*
G02*
X52607500Y-15774750I0J-268750D01*
G01*
X52607500Y-16737250D01*
G75*
G02*
X52338750Y-17006000I-268750J0D01*
G01*
X51801250Y-17006000D01*
G75*
G02*
X51532500Y-16737250I0J268750D01*
G01*
G37*
G36*
G01*
X44245000Y-16737250D02*
X44245000Y-15774750D01*
G75*
G02*
X44513750Y-15506000I268750J0D01*
G01*
X45051250Y-15506000D01*
G75*
G02*
X45320000Y-15774750I0J-268750D01*
G01*
X45320000Y-16737250D01*
G75*
G02*
X45051250Y-17006000I-268750J0D01*
G01*
X44513750Y-17006000D01*
G75*
G02*
X44245000Y-16737250I0J268750D01*
G01*
G37*
G36*
G01*
X46120000Y-16737250D02*
X46120000Y-15774750D01*
G75*
G02*
X46388750Y-15506000I268750J0D01*
G01*
X46926250Y-15506000D01*
G75*
G02*
X47195000Y-15774750I0J-268750D01*
G01*
X47195000Y-16737250D01*
G75*
G02*
X46926250Y-17006000I-268750J0D01*
G01*
X46388750Y-17006000D01*
G75*
G02*
X46120000Y-16737250I0J268750D01*
G01*
G37*
G36*
G01*
X40961500Y-16737250D02*
X40961500Y-15774750D01*
G75*
G02*
X41230250Y-15506000I268750J0D01*
G01*
X41767750Y-15506000D01*
G75*
G02*
X42036500Y-15774750I0J-268750D01*
G01*
X42036500Y-16737250D01*
G75*
G02*
X41767750Y-17006000I-268750J0D01*
G01*
X41230250Y-17006000D01*
G75*
G02*
X40961500Y-16737250I0J268750D01*
G01*
G37*
G36*
G01*
X39086500Y-16737250D02*
X39086500Y-15774750D01*
G75*
G02*
X39355250Y-15506000I268750J0D01*
G01*
X39892750Y-15506000D01*
G75*
G02*
X40161500Y-15774750I0J-268750D01*
G01*
X40161500Y-16737250D01*
G75*
G02*
X39892750Y-17006000I-268750J0D01*
G01*
X39355250Y-17006000D01*
G75*
G02*
X39086500Y-16737250I0J268750D01*
G01*
G37*
G36*
G01*
X35022500Y-17499250D02*
X35022500Y-16536750D01*
G75*
G02*
X35291250Y-16268000I268750J0D01*
G01*
X35828750Y-16268000D01*
G75*
G02*
X36097500Y-16536750I0J-268750D01*
G01*
X36097500Y-17499250D01*
G75*
G02*
X35828750Y-17768000I-268750J0D01*
G01*
X35291250Y-17768000D01*
G75*
G02*
X35022500Y-17499250I0J268750D01*
G01*
G37*
G36*
G01*
X33147500Y-17499250D02*
X33147500Y-16536750D01*
G75*
G02*
X33416250Y-16268000I268750J0D01*
G01*
X33953750Y-16268000D01*
G75*
G02*
X34222500Y-16536750I0J-268750D01*
G01*
X34222500Y-17499250D01*
G75*
G02*
X33953750Y-17768000I-268750J0D01*
G01*
X33416250Y-17768000D01*
G75*
G02*
X33147500Y-17499250I0J268750D01*
G01*
G37*
G36*
G01*
X52704500Y-18314750D02*
X52704500Y-19277250D01*
G75*
G02*
X52435750Y-19546000I-268750J0D01*
G01*
X51898250Y-19546000D01*
G75*
G02*
X51629500Y-19277250I0J268750D01*
G01*
X51629500Y-18314750D01*
G75*
G02*
X51898250Y-18046000I268750J0D01*
G01*
X52435750Y-18046000D01*
G75*
G02*
X52704500Y-18314750I0J-268750D01*
G01*
G37*
G36*
G01*
X50829500Y-18314750D02*
X50829500Y-19277250D01*
G75*
G02*
X50560750Y-19546000I-268750J0D01*
G01*
X50023250Y-19546000D01*
G75*
G02*
X49754500Y-19277250I0J268750D01*
G01*
X49754500Y-18314750D01*
G75*
G02*
X50023250Y-18046000I268750J0D01*
G01*
X50560750Y-18046000D01*
G75*
G02*
X50829500Y-18314750I0J-268750D01*
G01*
G37*
G36*
G01*
X45320000Y-18314750D02*
X45320000Y-19277250D01*
G75*
G02*
X45051250Y-19546000I-268750J0D01*
G01*
X44513750Y-19546000D01*
G75*
G02*
X44245000Y-19277250I0J268750D01*
G01*
X44245000Y-18314750D01*
G75*
G02*
X44513750Y-18046000I268750J0D01*
G01*
X45051250Y-18046000D01*
G75*
G02*
X45320000Y-18314750I0J-268750D01*
G01*
G37*
G36*
G01*
X47195000Y-18314750D02*
X47195000Y-19277250D01*
G75*
G02*
X46926250Y-19546000I-268750J0D01*
G01*
X46388750Y-19546000D01*
G75*
G02*
X46120000Y-19277250I0J268750D01*
G01*
X46120000Y-18314750D01*
G75*
G02*
X46388750Y-18046000I268750J0D01*
G01*
X46926250Y-18046000D01*
G75*
G02*
X47195000Y-18314750I0J-268750D01*
G01*
G37*
G36*
G01*
X42115000Y-18314750D02*
X42115000Y-19277250D01*
G75*
G02*
X41846250Y-19546000I-268750J0D01*
G01*
X41308750Y-19546000D01*
G75*
G02*
X41040000Y-19277250I0J268750D01*
G01*
X41040000Y-18314750D01*
G75*
G02*
X41308750Y-18046000I268750J0D01*
G01*
X41846250Y-18046000D01*
G75*
G02*
X42115000Y-18314750I0J-268750D01*
G01*
G37*
G36*
G01*
X40240000Y-18314750D02*
X40240000Y-19277250D01*
G75*
G02*
X39971250Y-19546000I-268750J0D01*
G01*
X39433750Y-19546000D01*
G75*
G02*
X39165000Y-19277250I0J268750D01*
G01*
X39165000Y-18314750D01*
G75*
G02*
X39433750Y-18046000I268750J0D01*
G01*
X39971250Y-18046000D01*
G75*
G02*
X40240000Y-18314750I0J-268750D01*
G01*
G37*
G36*
G01*
X36273000Y-18822750D02*
X36273000Y-19785250D01*
G75*
G02*
X36004250Y-20054000I-268750J0D01*
G01*
X35466750Y-20054000D01*
G75*
G02*
X35198000Y-19785250I0J268750D01*
G01*
X35198000Y-18822750D01*
G75*
G02*
X35466750Y-18554000I268750J0D01*
G01*
X36004250Y-18554000D01*
G75*
G02*
X36273000Y-18822750I0J-268750D01*
G01*
G37*
G36*
G01*
X34398000Y-18822750D02*
X34398000Y-19785250D01*
G75*
G02*
X34129250Y-20054000I-268750J0D01*
G01*
X33591750Y-20054000D01*
G75*
G02*
X33323000Y-19785250I0J268750D01*
G01*
X33323000Y-18822750D01*
G75*
G02*
X33591750Y-18554000I268750J0D01*
G01*
X34129250Y-18554000D01*
G75*
G02*
X34398000Y-18822750I0J-268750D01*
G01*
G37*
G36*
G01*
X56788000Y-16737250D02*
X56788000Y-15774750D01*
G75*
G02*
X57056750Y-15506000I268750J0D01*
G01*
X57594250Y-15506000D01*
G75*
G02*
X57863000Y-15774750I0J-268750D01*
G01*
X57863000Y-16737250D01*
G75*
G02*
X57594250Y-17006000I-268750J0D01*
G01*
X57056750Y-17006000D01*
G75*
G02*
X56788000Y-16737250I0J268750D01*
G01*
G37*
G36*
G01*
X54913000Y-16737250D02*
X54913000Y-15774750D01*
G75*
G02*
X55181750Y-15506000I268750J0D01*
G01*
X55719250Y-15506000D01*
G75*
G02*
X55988000Y-15774750I0J-268750D01*
G01*
X55988000Y-16737250D01*
G75*
G02*
X55719250Y-17006000I-268750J0D01*
G01*
X55181750Y-17006000D01*
G75*
G02*
X54913000Y-16737250I0J268750D01*
G01*
G37*
G36*
G01*
X57863000Y-18314750D02*
X57863000Y-19277250D01*
G75*
G02*
X57594250Y-19546000I-268750J0D01*
G01*
X57056750Y-19546000D01*
G75*
G02*
X56788000Y-19277250I0J268750D01*
G01*
X56788000Y-18314750D01*
G75*
G02*
X57056750Y-18046000I268750J0D01*
G01*
X57594250Y-18046000D01*
G75*
G02*
X57863000Y-18314750I0J-268750D01*
G01*
G37*
G36*
G01*
X55988000Y-18314750D02*
X55988000Y-19277250D01*
G75*
G02*
X55719250Y-19546000I-268750J0D01*
G01*
X55181750Y-19546000D01*
G75*
G02*
X54913000Y-19277250I0J268750D01*
G01*
X54913000Y-18314750D01*
G75*
G02*
X55181750Y-18046000I268750J0D01*
G01*
X55719250Y-18046000D01*
G75*
G02*
X55988000Y-18314750I0J-268750D01*
G01*
G37*
G36*
G01*
X17066000Y-26852000D02*
X16716000Y-26852000D01*
G75*
G02*
X16541000Y-26677000I0J175000D01*
G01*
X16541000Y-24952000D01*
G75*
G02*
X16716000Y-24777000I175000J0D01*
G01*
X17066000Y-24777000D01*
G75*
G02*
X17241000Y-24952000I0J-175000D01*
G01*
X17241000Y-26677000D01*
G75*
G02*
X17066000Y-26852000I-175000J0D01*
G01*
G37*
G36*
G01*
X18336000Y-26852000D02*
X17986000Y-26852000D01*
G75*
G02*
X17811000Y-26677000I0J175000D01*
G01*
X17811000Y-24952000D01*
G75*
G02*
X17986000Y-24777000I175000J0D01*
G01*
X18336000Y-24777000D01*
G75*
G02*
X18511000Y-24952000I0J-175000D01*
G01*
X18511000Y-26677000D01*
G75*
G02*
X18336000Y-26852000I-175000J0D01*
G01*
G37*
G36*
G01*
X19606000Y-26852000D02*
X19256000Y-26852000D01*
G75*
G02*
X19081000Y-26677000I0J175000D01*
G01*
X19081000Y-24952000D01*
G75*
G02*
X19256000Y-24777000I175000J0D01*
G01*
X19606000Y-24777000D01*
G75*
G02*
X19781000Y-24952000I0J-175000D01*
G01*
X19781000Y-26677000D01*
G75*
G02*
X19606000Y-26852000I-175000J0D01*
G01*
G37*
G36*
G01*
X20876000Y-26852000D02*
X20526000Y-26852000D01*
G75*
G02*
X20351000Y-26677000I0J175000D01*
G01*
X20351000Y-24952000D01*
G75*
G02*
X20526000Y-24777000I175000J0D01*
G01*
X20876000Y-24777000D01*
G75*
G02*
X21051000Y-24952000I0J-175000D01*
G01*
X21051000Y-26677000D01*
G75*
G02*
X20876000Y-26852000I-175000J0D01*
G01*
G37*
G36*
G01*
X22146000Y-26852000D02*
X21796000Y-26852000D01*
G75*
G02*
X21621000Y-26677000I0J175000D01*
G01*
X21621000Y-24952000D01*
G75*
G02*
X21796000Y-24777000I175000J0D01*
G01*
X22146000Y-24777000D01*
G75*
G02*
X22321000Y-24952000I0J-175000D01*
G01*
X22321000Y-26677000D01*
G75*
G02*
X22146000Y-26852000I-175000J0D01*
G01*
G37*
G36*
G01*
X23416000Y-26852000D02*
X23066000Y-26852000D01*
G75*
G02*
X22891000Y-26677000I0J175000D01*
G01*
X22891000Y-24952000D01*
G75*
G02*
X23066000Y-24777000I175000J0D01*
G01*
X23416000Y-24777000D01*
G75*
G02*
X23591000Y-24952000I0J-175000D01*
G01*
X23591000Y-26677000D01*
G75*
G02*
X23416000Y-26852000I-175000J0D01*
G01*
G37*
G36*
G01*
X24686000Y-26852000D02*
X24336000Y-26852000D01*
G75*
G02*
X24161000Y-26677000I0J175000D01*
G01*
X24161000Y-24952000D01*
G75*
G02*
X24336000Y-24777000I175000J0D01*
G01*
X24686000Y-24777000D01*
G75*
G02*
X24861000Y-24952000I0J-175000D01*
G01*
X24861000Y-26677000D01*
G75*
G02*
X24686000Y-26852000I-175000J0D01*
G01*
G37*
G36*
G01*
X25956000Y-26852000D02*
X25606000Y-26852000D01*
G75*
G02*
X25431000Y-26677000I0J175000D01*
G01*
X25431000Y-24952000D01*
G75*
G02*
X25606000Y-24777000I175000J0D01*
G01*
X25956000Y-24777000D01*
G75*
G02*
X26131000Y-24952000I0J-175000D01*
G01*
X26131000Y-26677000D01*
G75*
G02*
X25956000Y-26852000I-175000J0D01*
G01*
G37*
G36*
G01*
X25956000Y-19927000D02*
X25606000Y-19927000D01*
G75*
G02*
X25431000Y-19752000I0J175000D01*
G01*
X25431000Y-18027000D01*
G75*
G02*
X25606000Y-17852000I175000J0D01*
G01*
X25956000Y-17852000D01*
G75*
G02*
X26131000Y-18027000I0J-175000D01*
G01*
X26131000Y-19752000D01*
G75*
G02*
X25956000Y-19927000I-175000J0D01*
G01*
G37*
G36*
G01*
X24686000Y-19927000D02*
X24336000Y-19927000D01*
G75*
G02*
X24161000Y-19752000I0J175000D01*
G01*
X24161000Y-18027000D01*
G75*
G02*
X24336000Y-17852000I175000J0D01*
G01*
X24686000Y-17852000D01*
G75*
G02*
X24861000Y-18027000I0J-175000D01*
G01*
X24861000Y-19752000D01*
G75*
G02*
X24686000Y-19927000I-175000J0D01*
G01*
G37*
G36*
G01*
X23416000Y-19927000D02*
X23066000Y-19927000D01*
G75*
G02*
X22891000Y-19752000I0J175000D01*
G01*
X22891000Y-18027000D01*
G75*
G02*
X23066000Y-17852000I175000J0D01*
G01*
X23416000Y-17852000D01*
G75*
G02*
X23591000Y-18027000I0J-175000D01*
G01*
X23591000Y-19752000D01*
G75*
G02*
X23416000Y-19927000I-175000J0D01*
G01*
G37*
G36*
G01*
X22146000Y-19927000D02*
X21796000Y-19927000D01*
G75*
G02*
X21621000Y-19752000I0J175000D01*
G01*
X21621000Y-18027000D01*
G75*
G02*
X21796000Y-17852000I175000J0D01*
G01*
X22146000Y-17852000D01*
G75*
G02*
X22321000Y-18027000I0J-175000D01*
G01*
X22321000Y-19752000D01*
G75*
G02*
X22146000Y-19927000I-175000J0D01*
G01*
G37*
G36*
G01*
X20876000Y-19927000D02*
X20526000Y-19927000D01*
G75*
G02*
X20351000Y-19752000I0J175000D01*
G01*
X20351000Y-18027000D01*
G75*
G02*
X20526000Y-17852000I175000J0D01*
G01*
X20876000Y-17852000D01*
G75*
G02*
X21051000Y-18027000I0J-175000D01*
G01*
X21051000Y-19752000D01*
G75*
G02*
X20876000Y-19927000I-175000J0D01*
G01*
G37*
G36*
G01*
X19606000Y-19927000D02*
X19256000Y-19927000D01*
G75*
G02*
X19081000Y-19752000I0J175000D01*
G01*
X19081000Y-18027000D01*
G75*
G02*
X19256000Y-17852000I175000J0D01*
G01*
X19606000Y-17852000D01*
G75*
G02*
X19781000Y-18027000I0J-175000D01*
G01*
X19781000Y-19752000D01*
G75*
G02*
X19606000Y-19927000I-175000J0D01*
G01*
G37*
G36*
G01*
X18336000Y-19927000D02*
X17986000Y-19927000D01*
G75*
G02*
X17811000Y-19752000I0J175000D01*
G01*
X17811000Y-18027000D01*
G75*
G02*
X17986000Y-17852000I175000J0D01*
G01*
X18336000Y-17852000D01*
G75*
G02*
X18511000Y-18027000I0J-175000D01*
G01*
X18511000Y-19752000D01*
G75*
G02*
X18336000Y-19927000I-175000J0D01*
G01*
G37*
G36*
G01*
X17066000Y-19927000D02*
X16716000Y-19927000D01*
G75*
G02*
X16541000Y-19752000I0J175000D01*
G01*
X16541000Y-18027000D01*
G75*
G02*
X16716000Y-17852000I175000J0D01*
G01*
X17066000Y-17852000D01*
G75*
G02*
X17241000Y-18027000I0J-175000D01*
G01*
X17241000Y-19752000D01*
G75*
G02*
X17066000Y-19927000I-175000J0D01*
G01*
G37*
M02*
