G04 #@! TF.GenerationSoftware,KiCad,Pcbnew,(5.1.6-0-10_14)*
G04 #@! TF.CreationDate,2020-07-24T18:59:42-04:00*
G04 #@! TF.ProjectId,Pufferfish-Interface-2,50756666-6572-4666-9973-682d496e7465,rev?*
G04 #@! TF.SameCoordinates,Original*
G04 #@! TF.FileFunction,Paste,Top*
G04 #@! TF.FilePolarity,Positive*
%FSLAX46Y46*%
G04 Gerber Fmt 4.6, Leading zero omitted, Abs format (unit mm)*
G04 Created by KiCad (PCBNEW (5.1.6-0-10_14)) date 2020-07-24 18:59:42*
%MOMM*%
%LPD*%
G01*
G04 APERTURE LIST*
%ADD10R,0.900000X0.800000*%
G04 APERTURE END LIST*
G36*
G01*
X13356910Y-10975160D02*
X12444410Y-10975160D01*
G75*
G02*
X12200660Y-10731410I0J243750D01*
G01*
X12200660Y-10243910D01*
G75*
G02*
X12444410Y-10000160I243750J0D01*
G01*
X13356910Y-10000160D01*
G75*
G02*
X13600660Y-10243910I0J-243750D01*
G01*
X13600660Y-10731410D01*
G75*
G02*
X13356910Y-10975160I-243750J0D01*
G01*
G37*
G36*
G01*
X13356910Y-12850160D02*
X12444410Y-12850160D01*
G75*
G02*
X12200660Y-12606410I0J243750D01*
G01*
X12200660Y-12118910D01*
G75*
G02*
X12444410Y-11875160I243750J0D01*
G01*
X13356910Y-11875160D01*
G75*
G02*
X13600660Y-12118910I0J-243750D01*
G01*
X13600660Y-12606410D01*
G75*
G02*
X13356910Y-12850160I-243750J0D01*
G01*
G37*
G36*
G01*
X21157780Y-16503330D02*
X21157780Y-17415830D01*
G75*
G02*
X20914030Y-17659580I-243750J0D01*
G01*
X20426530Y-17659580D01*
G75*
G02*
X20182780Y-17415830I0J243750D01*
G01*
X20182780Y-16503330D01*
G75*
G02*
X20426530Y-16259580I243750J0D01*
G01*
X20914030Y-16259580D01*
G75*
G02*
X21157780Y-16503330I0J-243750D01*
G01*
G37*
G36*
G01*
X23032780Y-16503330D02*
X23032780Y-17415830D01*
G75*
G02*
X22789030Y-17659580I-243750J0D01*
G01*
X22301530Y-17659580D01*
G75*
G02*
X22057780Y-17415830I0J243750D01*
G01*
X22057780Y-16503330D01*
G75*
G02*
X22301530Y-16259580I243750J0D01*
G01*
X22789030Y-16259580D01*
G75*
G02*
X23032780Y-16503330I0J-243750D01*
G01*
G37*
G36*
G01*
X25364020Y-16594770D02*
X25364020Y-17507270D01*
G75*
G02*
X25120270Y-17751020I-243750J0D01*
G01*
X24632770Y-17751020D01*
G75*
G02*
X24389020Y-17507270I0J243750D01*
G01*
X24389020Y-16594770D01*
G75*
G02*
X24632770Y-16351020I243750J0D01*
G01*
X25120270Y-16351020D01*
G75*
G02*
X25364020Y-16594770I0J-243750D01*
G01*
G37*
G36*
G01*
X27239020Y-16594770D02*
X27239020Y-17507270D01*
G75*
G02*
X26995270Y-17751020I-243750J0D01*
G01*
X26507770Y-17751020D01*
G75*
G02*
X26264020Y-17507270I0J243750D01*
G01*
X26264020Y-16594770D01*
G75*
G02*
X26507770Y-16351020I243750J0D01*
G01*
X26995270Y-16351020D01*
G75*
G02*
X27239020Y-16594770I0J-243750D01*
G01*
G37*
G36*
G01*
X30893070Y-15247440D02*
X29980570Y-15247440D01*
G75*
G02*
X29736820Y-15003690I0J243750D01*
G01*
X29736820Y-14516190D01*
G75*
G02*
X29980570Y-14272440I243750J0D01*
G01*
X30893070Y-14272440D01*
G75*
G02*
X31136820Y-14516190I0J-243750D01*
G01*
X31136820Y-15003690D01*
G75*
G02*
X30893070Y-15247440I-243750J0D01*
G01*
G37*
G36*
G01*
X30893070Y-17122440D02*
X29980570Y-17122440D01*
G75*
G02*
X29736820Y-16878690I0J243750D01*
G01*
X29736820Y-16391190D01*
G75*
G02*
X29980570Y-16147440I243750J0D01*
G01*
X30893070Y-16147440D01*
G75*
G02*
X31136820Y-16391190I0J-243750D01*
G01*
X31136820Y-16878690D01*
G75*
G02*
X30893070Y-17122440I-243750J0D01*
G01*
G37*
G36*
G01*
X13469200Y-16099470D02*
X13469200Y-17011970D01*
G75*
G02*
X13225450Y-17255720I-243750J0D01*
G01*
X12737950Y-17255720D01*
G75*
G02*
X12494200Y-17011970I0J243750D01*
G01*
X12494200Y-16099470D01*
G75*
G02*
X12737950Y-15855720I243750J0D01*
G01*
X13225450Y-15855720D01*
G75*
G02*
X13469200Y-16099470I0J-243750D01*
G01*
G37*
G36*
G01*
X15344200Y-16099470D02*
X15344200Y-17011970D01*
G75*
G02*
X15100450Y-17255720I-243750J0D01*
G01*
X14612950Y-17255720D01*
G75*
G02*
X14369200Y-17011970I0J243750D01*
G01*
X14369200Y-16099470D01*
G75*
G02*
X14612950Y-15855720I243750J0D01*
G01*
X15100450Y-15855720D01*
G75*
G02*
X15344200Y-16099470I0J-243750D01*
G01*
G37*
G36*
G01*
X13669860Y-22739030D02*
X13669860Y-23651530D01*
G75*
G02*
X13426110Y-23895280I-243750J0D01*
G01*
X12938610Y-23895280D01*
G75*
G02*
X12694860Y-23651530I0J243750D01*
G01*
X12694860Y-22739030D01*
G75*
G02*
X12938610Y-22495280I243750J0D01*
G01*
X13426110Y-22495280D01*
G75*
G02*
X13669860Y-22739030I0J-243750D01*
G01*
G37*
G36*
G01*
X15544860Y-22739030D02*
X15544860Y-23651530D01*
G75*
G02*
X15301110Y-23895280I-243750J0D01*
G01*
X14813610Y-23895280D01*
G75*
G02*
X14569860Y-23651530I0J243750D01*
G01*
X14569860Y-22739030D01*
G75*
G02*
X14813610Y-22495280I243750J0D01*
G01*
X15301110Y-22495280D01*
G75*
G02*
X15544860Y-22739030I0J-243750D01*
G01*
G37*
G36*
G01*
X13276160Y-19619910D02*
X13276160Y-20532410D01*
G75*
G02*
X13032410Y-20776160I-243750J0D01*
G01*
X12544910Y-20776160D01*
G75*
G02*
X12301160Y-20532410I0J243750D01*
G01*
X12301160Y-19619910D01*
G75*
G02*
X12544910Y-19376160I243750J0D01*
G01*
X13032410Y-19376160D01*
G75*
G02*
X13276160Y-19619910I0J-243750D01*
G01*
G37*
G36*
G01*
X15151160Y-19619910D02*
X15151160Y-20532410D01*
G75*
G02*
X14907410Y-20776160I-243750J0D01*
G01*
X14419910Y-20776160D01*
G75*
G02*
X14176160Y-20532410I0J243750D01*
G01*
X14176160Y-19619910D01*
G75*
G02*
X14419910Y-19376160I243750J0D01*
G01*
X14907410Y-19376160D01*
G75*
G02*
X15151160Y-19619910I0J-243750D01*
G01*
G37*
G36*
G01*
X57878030Y-43718060D02*
X56965530Y-43718060D01*
G75*
G02*
X56721780Y-43474310I0J243750D01*
G01*
X56721780Y-42986810D01*
G75*
G02*
X56965530Y-42743060I243750J0D01*
G01*
X57878030Y-42743060D01*
G75*
G02*
X58121780Y-42986810I0J-243750D01*
G01*
X58121780Y-43474310D01*
G75*
G02*
X57878030Y-43718060I-243750J0D01*
G01*
G37*
G36*
G01*
X57878030Y-45593060D02*
X56965530Y-45593060D01*
G75*
G02*
X56721780Y-45349310I0J243750D01*
G01*
X56721780Y-44861810D01*
G75*
G02*
X56965530Y-44618060I243750J0D01*
G01*
X57878030Y-44618060D01*
G75*
G02*
X58121780Y-44861810I0J-243750D01*
G01*
X58121780Y-45349310D01*
G75*
G02*
X57878030Y-45593060I-243750J0D01*
G01*
G37*
G36*
G01*
X55354640Y-52330670D02*
X55354640Y-51418170D01*
G75*
G02*
X55598390Y-51174420I243750J0D01*
G01*
X56085890Y-51174420D01*
G75*
G02*
X56329640Y-51418170I0J-243750D01*
G01*
X56329640Y-52330670D01*
G75*
G02*
X56085890Y-52574420I-243750J0D01*
G01*
X55598390Y-52574420D01*
G75*
G02*
X55354640Y-52330670I0J243750D01*
G01*
G37*
G36*
G01*
X53479640Y-52330670D02*
X53479640Y-51418170D01*
G75*
G02*
X53723390Y-51174420I243750J0D01*
G01*
X54210890Y-51174420D01*
G75*
G02*
X54454640Y-51418170I0J-243750D01*
G01*
X54454640Y-52330670D01*
G75*
G02*
X54210890Y-52574420I-243750J0D01*
G01*
X53723390Y-52574420D01*
G75*
G02*
X53479640Y-52330670I0J243750D01*
G01*
G37*
G36*
G01*
X40154440Y-49393790D02*
X40154440Y-50306290D01*
G75*
G02*
X39910690Y-50550040I-243750J0D01*
G01*
X39423190Y-50550040D01*
G75*
G02*
X39179440Y-50306290I0J243750D01*
G01*
X39179440Y-49393790D01*
G75*
G02*
X39423190Y-49150040I243750J0D01*
G01*
X39910690Y-49150040D01*
G75*
G02*
X40154440Y-49393790I0J-243750D01*
G01*
G37*
G36*
G01*
X42029440Y-49393790D02*
X42029440Y-50306290D01*
G75*
G02*
X41785690Y-50550040I-243750J0D01*
G01*
X41298190Y-50550040D01*
G75*
G02*
X41054440Y-50306290I0J243750D01*
G01*
X41054440Y-49393790D01*
G75*
G02*
X41298190Y-49150040I243750J0D01*
G01*
X41785690Y-49150040D01*
G75*
G02*
X42029440Y-49393790I0J-243750D01*
G01*
G37*
G36*
G01*
X41153740Y-47738350D02*
X41153740Y-46825850D01*
G75*
G02*
X41397490Y-46582100I243750J0D01*
G01*
X41884990Y-46582100D01*
G75*
G02*
X42128740Y-46825850I0J-243750D01*
G01*
X42128740Y-47738350D01*
G75*
G02*
X41884990Y-47982100I-243750J0D01*
G01*
X41397490Y-47982100D01*
G75*
G02*
X41153740Y-47738350I0J243750D01*
G01*
G37*
G36*
G01*
X39278740Y-47738350D02*
X39278740Y-46825850D01*
G75*
G02*
X39522490Y-46582100I243750J0D01*
G01*
X40009990Y-46582100D01*
G75*
G02*
X40253740Y-46825850I0J-243750D01*
G01*
X40253740Y-47738350D01*
G75*
G02*
X40009990Y-47982100I-243750J0D01*
G01*
X39522490Y-47982100D01*
G75*
G02*
X39278740Y-47738350I0J243750D01*
G01*
G37*
G36*
G01*
X56358470Y-39865480D02*
X57270970Y-39865480D01*
G75*
G02*
X57514720Y-40109230I0J-243750D01*
G01*
X57514720Y-40596730D01*
G75*
G02*
X57270970Y-40840480I-243750J0D01*
G01*
X56358470Y-40840480D01*
G75*
G02*
X56114720Y-40596730I0J243750D01*
G01*
X56114720Y-40109230D01*
G75*
G02*
X56358470Y-39865480I243750J0D01*
G01*
G37*
G36*
G01*
X56358470Y-37990480D02*
X57270970Y-37990480D01*
G75*
G02*
X57514720Y-38234230I0J-243750D01*
G01*
X57514720Y-38721730D01*
G75*
G02*
X57270970Y-38965480I-243750J0D01*
G01*
X56358470Y-38965480D01*
G75*
G02*
X56114720Y-38721730I0J243750D01*
G01*
X56114720Y-38234230D01*
G75*
G02*
X56358470Y-37990480I243750J0D01*
G01*
G37*
G36*
G01*
X53401910Y-38400140D02*
X54314410Y-38400140D01*
G75*
G02*
X54558160Y-38643890I0J-243750D01*
G01*
X54558160Y-39131390D01*
G75*
G02*
X54314410Y-39375140I-243750J0D01*
G01*
X53401910Y-39375140D01*
G75*
G02*
X53158160Y-39131390I0J243750D01*
G01*
X53158160Y-38643890D01*
G75*
G02*
X53401910Y-38400140I243750J0D01*
G01*
G37*
G36*
G01*
X53401910Y-36525140D02*
X54314410Y-36525140D01*
G75*
G02*
X54558160Y-36768890I0J-243750D01*
G01*
X54558160Y-37256390D01*
G75*
G02*
X54314410Y-37500140I-243750J0D01*
G01*
X53401910Y-37500140D01*
G75*
G02*
X53158160Y-37256390I0J243750D01*
G01*
X53158160Y-36768890D01*
G75*
G02*
X53401910Y-36525140I243750J0D01*
G01*
G37*
G36*
G01*
X48095850Y-38313780D02*
X49008350Y-38313780D01*
G75*
G02*
X49252100Y-38557530I0J-243750D01*
G01*
X49252100Y-39045030D01*
G75*
G02*
X49008350Y-39288780I-243750J0D01*
G01*
X48095850Y-39288780D01*
G75*
G02*
X47852100Y-39045030I0J243750D01*
G01*
X47852100Y-38557530D01*
G75*
G02*
X48095850Y-38313780I243750J0D01*
G01*
G37*
G36*
G01*
X48095850Y-36438780D02*
X49008350Y-36438780D01*
G75*
G02*
X49252100Y-36682530I0J-243750D01*
G01*
X49252100Y-37170030D01*
G75*
G02*
X49008350Y-37413780I-243750J0D01*
G01*
X48095850Y-37413780D01*
G75*
G02*
X47852100Y-37170030I0J243750D01*
G01*
X47852100Y-36682530D01*
G75*
G02*
X48095850Y-36438780I243750J0D01*
G01*
G37*
G36*
G01*
X45400910Y-38313780D02*
X46313410Y-38313780D01*
G75*
G02*
X46557160Y-38557530I0J-243750D01*
G01*
X46557160Y-39045030D01*
G75*
G02*
X46313410Y-39288780I-243750J0D01*
G01*
X45400910Y-39288780D01*
G75*
G02*
X45157160Y-39045030I0J243750D01*
G01*
X45157160Y-38557530D01*
G75*
G02*
X45400910Y-38313780I243750J0D01*
G01*
G37*
G36*
G01*
X45400910Y-36438780D02*
X46313410Y-36438780D01*
G75*
G02*
X46557160Y-36682530I0J-243750D01*
G01*
X46557160Y-37170030D01*
G75*
G02*
X46313410Y-37413780I-243750J0D01*
G01*
X45400910Y-37413780D01*
G75*
G02*
X45157160Y-37170030I0J243750D01*
G01*
X45157160Y-36682530D01*
G75*
G02*
X45400910Y-36438780I243750J0D01*
G01*
G37*
G36*
G01*
X42576430Y-38313780D02*
X43488930Y-38313780D01*
G75*
G02*
X43732680Y-38557530I0J-243750D01*
G01*
X43732680Y-39045030D01*
G75*
G02*
X43488930Y-39288780I-243750J0D01*
G01*
X42576430Y-39288780D01*
G75*
G02*
X42332680Y-39045030I0J243750D01*
G01*
X42332680Y-38557530D01*
G75*
G02*
X42576430Y-38313780I243750J0D01*
G01*
G37*
G36*
G01*
X42576430Y-36438780D02*
X43488930Y-36438780D01*
G75*
G02*
X43732680Y-36682530I0J-243750D01*
G01*
X43732680Y-37170030D01*
G75*
G02*
X43488930Y-37413780I-243750J0D01*
G01*
X42576430Y-37413780D01*
G75*
G02*
X42332680Y-37170030I0J243750D01*
G01*
X42332680Y-36682530D01*
G75*
G02*
X42576430Y-36438780I243750J0D01*
G01*
G37*
G36*
G01*
X40249260Y-38596890D02*
X40249260Y-37684390D01*
G75*
G02*
X40493010Y-37440640I243750J0D01*
G01*
X40980510Y-37440640D01*
G75*
G02*
X41224260Y-37684390I0J-243750D01*
G01*
X41224260Y-38596890D01*
G75*
G02*
X40980510Y-38840640I-243750J0D01*
G01*
X40493010Y-38840640D01*
G75*
G02*
X40249260Y-38596890I0J243750D01*
G01*
G37*
G36*
G01*
X38374260Y-38596890D02*
X38374260Y-37684390D01*
G75*
G02*
X38618010Y-37440640I243750J0D01*
G01*
X39105510Y-37440640D01*
G75*
G02*
X39349260Y-37684390I0J-243750D01*
G01*
X39349260Y-38596890D01*
G75*
G02*
X39105510Y-38840640I-243750J0D01*
G01*
X38618010Y-38840640D01*
G75*
G02*
X38374260Y-38596890I0J243750D01*
G01*
G37*
G36*
G01*
X51582500Y-21792250D02*
X51582500Y-20879750D01*
G75*
G02*
X51826250Y-20636000I243750J0D01*
G01*
X52313750Y-20636000D01*
G75*
G02*
X52557500Y-20879750I0J-243750D01*
G01*
X52557500Y-21792250D01*
G75*
G02*
X52313750Y-22036000I-243750J0D01*
G01*
X51826250Y-22036000D01*
G75*
G02*
X51582500Y-21792250I0J243750D01*
G01*
G37*
G36*
G01*
X49707500Y-21792250D02*
X49707500Y-20879750D01*
G75*
G02*
X49951250Y-20636000I243750J0D01*
G01*
X50438750Y-20636000D01*
G75*
G02*
X50682500Y-20879750I0J-243750D01*
G01*
X50682500Y-21792250D01*
G75*
G02*
X50438750Y-22036000I-243750J0D01*
G01*
X49951250Y-22036000D01*
G75*
G02*
X49707500Y-21792250I0J243750D01*
G01*
G37*
G36*
G01*
X46170000Y-21792250D02*
X46170000Y-20879750D01*
G75*
G02*
X46413750Y-20636000I243750J0D01*
G01*
X46901250Y-20636000D01*
G75*
G02*
X47145000Y-20879750I0J-243750D01*
G01*
X47145000Y-21792250D01*
G75*
G02*
X46901250Y-22036000I-243750J0D01*
G01*
X46413750Y-22036000D01*
G75*
G02*
X46170000Y-21792250I0J243750D01*
G01*
G37*
G36*
G01*
X44295000Y-21792250D02*
X44295000Y-20879750D01*
G75*
G02*
X44538750Y-20636000I243750J0D01*
G01*
X45026250Y-20636000D01*
G75*
G02*
X45270000Y-20879750I0J-243750D01*
G01*
X45270000Y-21792250D01*
G75*
G02*
X45026250Y-22036000I-243750J0D01*
G01*
X44538750Y-22036000D01*
G75*
G02*
X44295000Y-21792250I0J243750D01*
G01*
G37*
G36*
G01*
X39215000Y-21792250D02*
X39215000Y-20879750D01*
G75*
G02*
X39458750Y-20636000I243750J0D01*
G01*
X39946250Y-20636000D01*
G75*
G02*
X40190000Y-20879750I0J-243750D01*
G01*
X40190000Y-21792250D01*
G75*
G02*
X39946250Y-22036000I-243750J0D01*
G01*
X39458750Y-22036000D01*
G75*
G02*
X39215000Y-21792250I0J243750D01*
G01*
G37*
G36*
G01*
X41090000Y-21792250D02*
X41090000Y-20879750D01*
G75*
G02*
X41333750Y-20636000I243750J0D01*
G01*
X41821250Y-20636000D01*
G75*
G02*
X42065000Y-20879750I0J-243750D01*
G01*
X42065000Y-21792250D01*
G75*
G02*
X41821250Y-22036000I-243750J0D01*
G01*
X41333750Y-22036000D01*
G75*
G02*
X41090000Y-21792250I0J243750D01*
G01*
G37*
G36*
G01*
X33373000Y-22046250D02*
X33373000Y-21133750D01*
G75*
G02*
X33616750Y-20890000I243750J0D01*
G01*
X34104250Y-20890000D01*
G75*
G02*
X34348000Y-21133750I0J-243750D01*
G01*
X34348000Y-22046250D01*
G75*
G02*
X34104250Y-22290000I-243750J0D01*
G01*
X33616750Y-22290000D01*
G75*
G02*
X33373000Y-22046250I0J243750D01*
G01*
G37*
G36*
G01*
X35248000Y-22046250D02*
X35248000Y-21133750D01*
G75*
G02*
X35491750Y-20890000I243750J0D01*
G01*
X35979250Y-20890000D01*
G75*
G02*
X36223000Y-21133750I0J-243750D01*
G01*
X36223000Y-22046250D01*
G75*
G02*
X35979250Y-22290000I-243750J0D01*
G01*
X35491750Y-22290000D01*
G75*
G02*
X35248000Y-22046250I0J243750D01*
G01*
G37*
G36*
G01*
X54884500Y-21792250D02*
X54884500Y-20879750D01*
G75*
G02*
X55128250Y-20636000I243750J0D01*
G01*
X55615750Y-20636000D01*
G75*
G02*
X55859500Y-20879750I0J-243750D01*
G01*
X55859500Y-21792250D01*
G75*
G02*
X55615750Y-22036000I-243750J0D01*
G01*
X55128250Y-22036000D01*
G75*
G02*
X54884500Y-21792250I0J243750D01*
G01*
G37*
G36*
G01*
X56759500Y-21792250D02*
X56759500Y-20879750D01*
G75*
G02*
X57003250Y-20636000I243750J0D01*
G01*
X57490750Y-20636000D01*
G75*
G02*
X57734500Y-20879750I0J-243750D01*
G01*
X57734500Y-21792250D01*
G75*
G02*
X57490750Y-22036000I-243750J0D01*
G01*
X57003250Y-22036000D01*
G75*
G02*
X56759500Y-21792250I0J243750D01*
G01*
G37*
G36*
G01*
X49208000Y-24505000D02*
X49208000Y-23755000D01*
G75*
G02*
X49533000Y-23430000I325000J0D01*
G01*
X50183000Y-23430000D01*
G75*
G02*
X50508000Y-23755000I0J-325000D01*
G01*
X50508000Y-24505000D01*
G75*
G02*
X50183000Y-24830000I-325000J0D01*
G01*
X49533000Y-24830000D01*
G75*
G02*
X49208000Y-24505000I0J325000D01*
G01*
G37*
G36*
G01*
X52108000Y-24505000D02*
X52108000Y-23755000D01*
G75*
G02*
X52433000Y-23430000I325000J0D01*
G01*
X53083000Y-23430000D01*
G75*
G02*
X53408000Y-23755000I0J-325000D01*
G01*
X53408000Y-24505000D01*
G75*
G02*
X53083000Y-24830000I-325000J0D01*
G01*
X52433000Y-24830000D01*
G75*
G02*
X52108000Y-24505000I0J325000D01*
G01*
G37*
G36*
G01*
X43800000Y-24505000D02*
X43800000Y-23755000D01*
G75*
G02*
X44125000Y-23430000I325000J0D01*
G01*
X44775000Y-23430000D01*
G75*
G02*
X45100000Y-23755000I0J-325000D01*
G01*
X45100000Y-24505000D01*
G75*
G02*
X44775000Y-24830000I-325000J0D01*
G01*
X44125000Y-24830000D01*
G75*
G02*
X43800000Y-24505000I0J325000D01*
G01*
G37*
G36*
G01*
X46700000Y-24505000D02*
X46700000Y-23755000D01*
G75*
G02*
X47025000Y-23430000I325000J0D01*
G01*
X47675000Y-23430000D01*
G75*
G02*
X48000000Y-23755000I0J-325000D01*
G01*
X48000000Y-24505000D01*
G75*
G02*
X47675000Y-24830000I-325000J0D01*
G01*
X47025000Y-24830000D01*
G75*
G02*
X46700000Y-24505000I0J325000D01*
G01*
G37*
G36*
G01*
X41112000Y-24505000D02*
X41112000Y-23755000D01*
G75*
G02*
X41437000Y-23430000I325000J0D01*
G01*
X42087000Y-23430000D01*
G75*
G02*
X42412000Y-23755000I0J-325000D01*
G01*
X42412000Y-24505000D01*
G75*
G02*
X42087000Y-24830000I-325000J0D01*
G01*
X41437000Y-24830000D01*
G75*
G02*
X41112000Y-24505000I0J325000D01*
G01*
G37*
G36*
G01*
X38212000Y-24505000D02*
X38212000Y-23755000D01*
G75*
G02*
X38537000Y-23430000I325000J0D01*
G01*
X39187000Y-23430000D01*
G75*
G02*
X39512000Y-23755000I0J-325000D01*
G01*
X39512000Y-24505000D01*
G75*
G02*
X39187000Y-24830000I-325000J0D01*
G01*
X38537000Y-24830000D01*
G75*
G02*
X38212000Y-24505000I0J325000D01*
G01*
G37*
G36*
G01*
X35598000Y-24505000D02*
X35598000Y-23755000D01*
G75*
G02*
X35923000Y-23430000I325000J0D01*
G01*
X36573000Y-23430000D01*
G75*
G02*
X36898000Y-23755000I0J-325000D01*
G01*
X36898000Y-24505000D01*
G75*
G02*
X36573000Y-24830000I-325000J0D01*
G01*
X35923000Y-24830000D01*
G75*
G02*
X35598000Y-24505000I0J325000D01*
G01*
G37*
G36*
G01*
X32698000Y-24505000D02*
X32698000Y-23755000D01*
G75*
G02*
X33023000Y-23430000I325000J0D01*
G01*
X33673000Y-23430000D01*
G75*
G02*
X33998000Y-23755000I0J-325000D01*
G01*
X33998000Y-24505000D01*
G75*
G02*
X33673000Y-24830000I-325000J0D01*
G01*
X33023000Y-24830000D01*
G75*
G02*
X32698000Y-24505000I0J325000D01*
G01*
G37*
G36*
G01*
X57114000Y-24505000D02*
X57114000Y-23755000D01*
G75*
G02*
X57439000Y-23430000I325000J0D01*
G01*
X58089000Y-23430000D01*
G75*
G02*
X58414000Y-23755000I0J-325000D01*
G01*
X58414000Y-24505000D01*
G75*
G02*
X58089000Y-24830000I-325000J0D01*
G01*
X57439000Y-24830000D01*
G75*
G02*
X57114000Y-24505000I0J325000D01*
G01*
G37*
G36*
G01*
X54214000Y-24505000D02*
X54214000Y-23755000D01*
G75*
G02*
X54539000Y-23430000I325000J0D01*
G01*
X55189000Y-23430000D01*
G75*
G02*
X55514000Y-23755000I0J-325000D01*
G01*
X55514000Y-24505000D01*
G75*
G02*
X55189000Y-24830000I-325000J0D01*
G01*
X54539000Y-24830000D01*
G75*
G02*
X54214000Y-24505000I0J325000D01*
G01*
G37*
D10*
X33512000Y-34732000D03*
X33512000Y-32832000D03*
X31512000Y-33782000D03*
X38116000Y-33782000D03*
X40116000Y-32832000D03*
X40116000Y-34732000D03*
X46720000Y-34732000D03*
X46720000Y-32832000D03*
X44720000Y-33782000D03*
X51578000Y-33782000D03*
X53578000Y-32832000D03*
X53578000Y-34732000D03*
X36592000Y-52390000D03*
X36592000Y-54290000D03*
X38592000Y-53340000D03*
X5970780Y-23566160D03*
X5970780Y-21666160D03*
X3970780Y-22616160D03*
X4047740Y-18521720D03*
X6047740Y-17571720D03*
X6047740Y-19471720D03*
X4080000Y-14478000D03*
X6080000Y-13528000D03*
X6080000Y-15428000D03*
G36*
G01*
X36270250Y-33332000D02*
X35357750Y-33332000D01*
G75*
G02*
X35114000Y-33088250I0J243750D01*
G01*
X35114000Y-32600750D01*
G75*
G02*
X35357750Y-32357000I243750J0D01*
G01*
X36270250Y-32357000D01*
G75*
G02*
X36514000Y-32600750I0J-243750D01*
G01*
X36514000Y-33088250D01*
G75*
G02*
X36270250Y-33332000I-243750J0D01*
G01*
G37*
G36*
G01*
X36270250Y-35207000D02*
X35357750Y-35207000D01*
G75*
G02*
X35114000Y-34963250I0J243750D01*
G01*
X35114000Y-34475750D01*
G75*
G02*
X35357750Y-34232000I243750J0D01*
G01*
X36270250Y-34232000D01*
G75*
G02*
X36514000Y-34475750I0J-243750D01*
G01*
X36514000Y-34963250D01*
G75*
G02*
X36270250Y-35207000I-243750J0D01*
G01*
G37*
G36*
G01*
X42798050Y-35207000D02*
X41885550Y-35207000D01*
G75*
G02*
X41641800Y-34963250I0J243750D01*
G01*
X41641800Y-34475750D01*
G75*
G02*
X41885550Y-34232000I243750J0D01*
G01*
X42798050Y-34232000D01*
G75*
G02*
X43041800Y-34475750I0J-243750D01*
G01*
X43041800Y-34963250D01*
G75*
G02*
X42798050Y-35207000I-243750J0D01*
G01*
G37*
G36*
G01*
X42798050Y-33332000D02*
X41885550Y-33332000D01*
G75*
G02*
X41641800Y-33088250I0J243750D01*
G01*
X41641800Y-32600750D01*
G75*
G02*
X41885550Y-32357000I243750J0D01*
G01*
X42798050Y-32357000D01*
G75*
G02*
X43041800Y-32600750I0J-243750D01*
G01*
X43041800Y-33088250D01*
G75*
G02*
X42798050Y-33332000I-243750J0D01*
G01*
G37*
G36*
G01*
X49432530Y-33225320D02*
X48520030Y-33225320D01*
G75*
G02*
X48276280Y-32981570I0J243750D01*
G01*
X48276280Y-32494070D01*
G75*
G02*
X48520030Y-32250320I243750J0D01*
G01*
X49432530Y-32250320D01*
G75*
G02*
X49676280Y-32494070I0J-243750D01*
G01*
X49676280Y-32981570D01*
G75*
G02*
X49432530Y-33225320I-243750J0D01*
G01*
G37*
G36*
G01*
X49432530Y-35100320D02*
X48520030Y-35100320D01*
G75*
G02*
X48276280Y-34856570I0J243750D01*
G01*
X48276280Y-34369070D01*
G75*
G02*
X48520030Y-34125320I243750J0D01*
G01*
X49432530Y-34125320D01*
G75*
G02*
X49676280Y-34369070I0J-243750D01*
G01*
X49676280Y-34856570D01*
G75*
G02*
X49432530Y-35100320I-243750J0D01*
G01*
G37*
G36*
G01*
X56336250Y-35207000D02*
X55423750Y-35207000D01*
G75*
G02*
X55180000Y-34963250I0J243750D01*
G01*
X55180000Y-34475750D01*
G75*
G02*
X55423750Y-34232000I243750J0D01*
G01*
X56336250Y-34232000D01*
G75*
G02*
X56580000Y-34475750I0J-243750D01*
G01*
X56580000Y-34963250D01*
G75*
G02*
X56336250Y-35207000I-243750J0D01*
G01*
G37*
G36*
G01*
X56336250Y-33332000D02*
X55423750Y-33332000D01*
G75*
G02*
X55180000Y-33088250I0J243750D01*
G01*
X55180000Y-32600750D01*
G75*
G02*
X55423750Y-32357000I243750J0D01*
G01*
X56336250Y-32357000D01*
G75*
G02*
X56580000Y-32600750I0J-243750D01*
G01*
X56580000Y-33088250D01*
G75*
G02*
X56336250Y-33332000I-243750J0D01*
G01*
G37*
G36*
G01*
X33673080Y-29904370D02*
X33673080Y-30816870D01*
G75*
G02*
X33429330Y-31060620I-243750J0D01*
G01*
X32941830Y-31060620D01*
G75*
G02*
X32698080Y-30816870I0J243750D01*
G01*
X32698080Y-29904370D01*
G75*
G02*
X32941830Y-29660620I243750J0D01*
G01*
X33429330Y-29660620D01*
G75*
G02*
X33673080Y-29904370I0J-243750D01*
G01*
G37*
G36*
G01*
X31798080Y-29904370D02*
X31798080Y-30816870D01*
G75*
G02*
X31554330Y-31060620I-243750J0D01*
G01*
X31066830Y-31060620D01*
G75*
G02*
X30823080Y-30816870I0J243750D01*
G01*
X30823080Y-29904370D01*
G75*
G02*
X31066830Y-29660620I243750J0D01*
G01*
X31554330Y-29660620D01*
G75*
G02*
X31798080Y-29904370I0J-243750D01*
G01*
G37*
G36*
G01*
X38559320Y-29983110D02*
X38559320Y-30895610D01*
G75*
G02*
X38315570Y-31139360I-243750J0D01*
G01*
X37828070Y-31139360D01*
G75*
G02*
X37584320Y-30895610I0J243750D01*
G01*
X37584320Y-29983110D01*
G75*
G02*
X37828070Y-29739360I243750J0D01*
G01*
X38315570Y-29739360D01*
G75*
G02*
X38559320Y-29983110I0J-243750D01*
G01*
G37*
G36*
G01*
X40434320Y-29983110D02*
X40434320Y-30895610D01*
G75*
G02*
X40190570Y-31139360I-243750J0D01*
G01*
X39703070Y-31139360D01*
G75*
G02*
X39459320Y-30895610I0J243750D01*
G01*
X39459320Y-29983110D01*
G75*
G02*
X39703070Y-29739360I243750J0D01*
G01*
X40190570Y-29739360D01*
G75*
G02*
X40434320Y-29983110I0J-243750D01*
G01*
G37*
G36*
G01*
X47223500Y-30061850D02*
X47223500Y-30974350D01*
G75*
G02*
X46979750Y-31218100I-243750J0D01*
G01*
X46492250Y-31218100D01*
G75*
G02*
X46248500Y-30974350I0J243750D01*
G01*
X46248500Y-30061850D01*
G75*
G02*
X46492250Y-29818100I243750J0D01*
G01*
X46979750Y-29818100D01*
G75*
G02*
X47223500Y-30061850I0J-243750D01*
G01*
G37*
G36*
G01*
X45348500Y-30061850D02*
X45348500Y-30974350D01*
G75*
G02*
X45104750Y-31218100I-243750J0D01*
G01*
X44617250Y-31218100D01*
G75*
G02*
X44373500Y-30974350I0J243750D01*
G01*
X44373500Y-30061850D01*
G75*
G02*
X44617250Y-29818100I243750J0D01*
G01*
X45104750Y-29818100D01*
G75*
G02*
X45348500Y-30061850I0J-243750D01*
G01*
G37*
G36*
G01*
X52049020Y-30023750D02*
X52049020Y-30936250D01*
G75*
G02*
X51805270Y-31180000I-243750J0D01*
G01*
X51317770Y-31180000D01*
G75*
G02*
X51074020Y-30936250I0J243750D01*
G01*
X51074020Y-30023750D01*
G75*
G02*
X51317770Y-29780000I243750J0D01*
G01*
X51805270Y-29780000D01*
G75*
G02*
X52049020Y-30023750I0J-243750D01*
G01*
G37*
G36*
G01*
X53924020Y-30023750D02*
X53924020Y-30936250D01*
G75*
G02*
X53680270Y-31180000I-243750J0D01*
G01*
X53192770Y-31180000D01*
G75*
G02*
X52949020Y-30936250I0J243750D01*
G01*
X52949020Y-30023750D01*
G75*
G02*
X53192770Y-29780000I243750J0D01*
G01*
X53680270Y-29780000D01*
G75*
G02*
X53924020Y-30023750I0J-243750D01*
G01*
G37*
G36*
G01*
X34445000Y-51867750D02*
X34445000Y-52780250D01*
G75*
G02*
X34201250Y-53024000I-243750J0D01*
G01*
X33713750Y-53024000D01*
G75*
G02*
X33470000Y-52780250I0J243750D01*
G01*
X33470000Y-51867750D01*
G75*
G02*
X33713750Y-51624000I243750J0D01*
G01*
X34201250Y-51624000D01*
G75*
G02*
X34445000Y-51867750I0J-243750D01*
G01*
G37*
G36*
G01*
X32570000Y-51867750D02*
X32570000Y-52780250D01*
G75*
G02*
X32326250Y-53024000I-243750J0D01*
G01*
X31838750Y-53024000D01*
G75*
G02*
X31595000Y-52780250I0J243750D01*
G01*
X31595000Y-51867750D01*
G75*
G02*
X31838750Y-51624000I243750J0D01*
G01*
X32326250Y-51624000D01*
G75*
G02*
X32570000Y-51867750I0J-243750D01*
G01*
G37*
G36*
G01*
X10108250Y-22664000D02*
X9195750Y-22664000D01*
G75*
G02*
X8952000Y-22420250I0J243750D01*
G01*
X8952000Y-21932750D01*
G75*
G02*
X9195750Y-21689000I243750J0D01*
G01*
X10108250Y-21689000D01*
G75*
G02*
X10352000Y-21932750I0J-243750D01*
G01*
X10352000Y-22420250D01*
G75*
G02*
X10108250Y-22664000I-243750J0D01*
G01*
G37*
G36*
G01*
X10108250Y-24539000D02*
X9195750Y-24539000D01*
G75*
G02*
X8952000Y-24295250I0J243750D01*
G01*
X8952000Y-23807750D01*
G75*
G02*
X9195750Y-23564000I243750J0D01*
G01*
X10108250Y-23564000D01*
G75*
G02*
X10352000Y-23807750I0J-243750D01*
G01*
X10352000Y-24295250D01*
G75*
G02*
X10108250Y-24539000I-243750J0D01*
G01*
G37*
G36*
G01*
X10108250Y-20475000D02*
X9195750Y-20475000D01*
G75*
G02*
X8952000Y-20231250I0J243750D01*
G01*
X8952000Y-19743750D01*
G75*
G02*
X9195750Y-19500000I243750J0D01*
G01*
X10108250Y-19500000D01*
G75*
G02*
X10352000Y-19743750I0J-243750D01*
G01*
X10352000Y-20231250D01*
G75*
G02*
X10108250Y-20475000I-243750J0D01*
G01*
G37*
G36*
G01*
X10108250Y-18600000D02*
X9195750Y-18600000D01*
G75*
G02*
X8952000Y-18356250I0J243750D01*
G01*
X8952000Y-17868750D01*
G75*
G02*
X9195750Y-17625000I243750J0D01*
G01*
X10108250Y-17625000D01*
G75*
G02*
X10352000Y-17868750I0J-243750D01*
G01*
X10352000Y-18356250D01*
G75*
G02*
X10108250Y-18600000I-243750J0D01*
G01*
G37*
G36*
G01*
X10108250Y-14536000D02*
X9195750Y-14536000D01*
G75*
G02*
X8952000Y-14292250I0J243750D01*
G01*
X8952000Y-13804750D01*
G75*
G02*
X9195750Y-13561000I243750J0D01*
G01*
X10108250Y-13561000D01*
G75*
G02*
X10352000Y-13804750I0J-243750D01*
G01*
X10352000Y-14292250D01*
G75*
G02*
X10108250Y-14536000I-243750J0D01*
G01*
G37*
G36*
G01*
X10108250Y-16411000D02*
X9195750Y-16411000D01*
G75*
G02*
X8952000Y-16167250I0J243750D01*
G01*
X8952000Y-15679750D01*
G75*
G02*
X9195750Y-15436000I243750J0D01*
G01*
X10108250Y-15436000D01*
G75*
G02*
X10352000Y-15679750I0J-243750D01*
G01*
X10352000Y-16167250D01*
G75*
G02*
X10108250Y-16411000I-243750J0D01*
G01*
G37*
G36*
G01*
X25609230Y-12715420D02*
X26521730Y-12715420D01*
G75*
G02*
X26765480Y-12959170I0J-243750D01*
G01*
X26765480Y-13446670D01*
G75*
G02*
X26521730Y-13690420I-243750J0D01*
G01*
X25609230Y-13690420D01*
G75*
G02*
X25365480Y-13446670I0J243750D01*
G01*
X25365480Y-12959170D01*
G75*
G02*
X25609230Y-12715420I243750J0D01*
G01*
G37*
G36*
G01*
X25609230Y-14590420D02*
X26521730Y-14590420D01*
G75*
G02*
X26765480Y-14834170I0J-243750D01*
G01*
X26765480Y-15321670D01*
G75*
G02*
X26521730Y-15565420I-243750J0D01*
G01*
X25609230Y-15565420D01*
G75*
G02*
X25365480Y-15321670I0J243750D01*
G01*
X25365480Y-14834170D01*
G75*
G02*
X25609230Y-14590420I243750J0D01*
G01*
G37*
G36*
G01*
X22660290Y-14457860D02*
X23572790Y-14457860D01*
G75*
G02*
X23816540Y-14701610I0J-243750D01*
G01*
X23816540Y-15189110D01*
G75*
G02*
X23572790Y-15432860I-243750J0D01*
G01*
X22660290Y-15432860D01*
G75*
G02*
X22416540Y-15189110I0J243750D01*
G01*
X22416540Y-14701610D01*
G75*
G02*
X22660290Y-14457860I243750J0D01*
G01*
G37*
G36*
G01*
X22660290Y-12582860D02*
X23572790Y-12582860D01*
G75*
G02*
X23816540Y-12826610I0J-243750D01*
G01*
X23816540Y-13314110D01*
G75*
G02*
X23572790Y-13557860I-243750J0D01*
G01*
X22660290Y-13557860D01*
G75*
G02*
X22416540Y-13314110I0J243750D01*
G01*
X22416540Y-12826610D01*
G75*
G02*
X22660290Y-12582860I243750J0D01*
G01*
G37*
G36*
G01*
X20120290Y-12504360D02*
X21032790Y-12504360D01*
G75*
G02*
X21276540Y-12748110I0J-243750D01*
G01*
X21276540Y-13235610D01*
G75*
G02*
X21032790Y-13479360I-243750J0D01*
G01*
X20120290Y-13479360D01*
G75*
G02*
X19876540Y-13235610I0J243750D01*
G01*
X19876540Y-12748110D01*
G75*
G02*
X20120290Y-12504360I243750J0D01*
G01*
G37*
G36*
G01*
X20120290Y-14379360D02*
X21032790Y-14379360D01*
G75*
G02*
X21276540Y-14623110I0J-243750D01*
G01*
X21276540Y-15110610D01*
G75*
G02*
X21032790Y-15354360I-243750J0D01*
G01*
X20120290Y-15354360D01*
G75*
G02*
X19876540Y-15110610I0J243750D01*
G01*
X19876540Y-14623110D01*
G75*
G02*
X20120290Y-14379360I243750J0D01*
G01*
G37*
G36*
G01*
X17326290Y-14379360D02*
X18238790Y-14379360D01*
G75*
G02*
X18482540Y-14623110I0J-243750D01*
G01*
X18482540Y-15110610D01*
G75*
G02*
X18238790Y-15354360I-243750J0D01*
G01*
X17326290Y-15354360D01*
G75*
G02*
X17082540Y-15110610I0J243750D01*
G01*
X17082540Y-14623110D01*
G75*
G02*
X17326290Y-14379360I243750J0D01*
G01*
G37*
G36*
G01*
X17326290Y-12504360D02*
X18238790Y-12504360D01*
G75*
G02*
X18482540Y-12748110I0J-243750D01*
G01*
X18482540Y-13235610D01*
G75*
G02*
X18238790Y-13479360I-243750J0D01*
G01*
X17326290Y-13479360D01*
G75*
G02*
X17082540Y-13235610I0J243750D01*
G01*
X17082540Y-12748110D01*
G75*
G02*
X17326290Y-12504360I243750J0D01*
G01*
G37*
G36*
G01*
X49707500Y-16712250D02*
X49707500Y-15799750D01*
G75*
G02*
X49951250Y-15556000I243750J0D01*
G01*
X50438750Y-15556000D01*
G75*
G02*
X50682500Y-15799750I0J-243750D01*
G01*
X50682500Y-16712250D01*
G75*
G02*
X50438750Y-16956000I-243750J0D01*
G01*
X49951250Y-16956000D01*
G75*
G02*
X49707500Y-16712250I0J243750D01*
G01*
G37*
G36*
G01*
X51582500Y-16712250D02*
X51582500Y-15799750D01*
G75*
G02*
X51826250Y-15556000I243750J0D01*
G01*
X52313750Y-15556000D01*
G75*
G02*
X52557500Y-15799750I0J-243750D01*
G01*
X52557500Y-16712250D01*
G75*
G02*
X52313750Y-16956000I-243750J0D01*
G01*
X51826250Y-16956000D01*
G75*
G02*
X51582500Y-16712250I0J243750D01*
G01*
G37*
G36*
G01*
X44295000Y-16712250D02*
X44295000Y-15799750D01*
G75*
G02*
X44538750Y-15556000I243750J0D01*
G01*
X45026250Y-15556000D01*
G75*
G02*
X45270000Y-15799750I0J-243750D01*
G01*
X45270000Y-16712250D01*
G75*
G02*
X45026250Y-16956000I-243750J0D01*
G01*
X44538750Y-16956000D01*
G75*
G02*
X44295000Y-16712250I0J243750D01*
G01*
G37*
G36*
G01*
X46170000Y-16712250D02*
X46170000Y-15799750D01*
G75*
G02*
X46413750Y-15556000I243750J0D01*
G01*
X46901250Y-15556000D01*
G75*
G02*
X47145000Y-15799750I0J-243750D01*
G01*
X47145000Y-16712250D01*
G75*
G02*
X46901250Y-16956000I-243750J0D01*
G01*
X46413750Y-16956000D01*
G75*
G02*
X46170000Y-16712250I0J243750D01*
G01*
G37*
G36*
G01*
X41011500Y-16712250D02*
X41011500Y-15799750D01*
G75*
G02*
X41255250Y-15556000I243750J0D01*
G01*
X41742750Y-15556000D01*
G75*
G02*
X41986500Y-15799750I0J-243750D01*
G01*
X41986500Y-16712250D01*
G75*
G02*
X41742750Y-16956000I-243750J0D01*
G01*
X41255250Y-16956000D01*
G75*
G02*
X41011500Y-16712250I0J243750D01*
G01*
G37*
G36*
G01*
X39136500Y-16712250D02*
X39136500Y-15799750D01*
G75*
G02*
X39380250Y-15556000I243750J0D01*
G01*
X39867750Y-15556000D01*
G75*
G02*
X40111500Y-15799750I0J-243750D01*
G01*
X40111500Y-16712250D01*
G75*
G02*
X39867750Y-16956000I-243750J0D01*
G01*
X39380250Y-16956000D01*
G75*
G02*
X39136500Y-16712250I0J243750D01*
G01*
G37*
G36*
G01*
X35072500Y-17474250D02*
X35072500Y-16561750D01*
G75*
G02*
X35316250Y-16318000I243750J0D01*
G01*
X35803750Y-16318000D01*
G75*
G02*
X36047500Y-16561750I0J-243750D01*
G01*
X36047500Y-17474250D01*
G75*
G02*
X35803750Y-17718000I-243750J0D01*
G01*
X35316250Y-17718000D01*
G75*
G02*
X35072500Y-17474250I0J243750D01*
G01*
G37*
G36*
G01*
X33197500Y-17474250D02*
X33197500Y-16561750D01*
G75*
G02*
X33441250Y-16318000I243750J0D01*
G01*
X33928750Y-16318000D01*
G75*
G02*
X34172500Y-16561750I0J-243750D01*
G01*
X34172500Y-17474250D01*
G75*
G02*
X33928750Y-17718000I-243750J0D01*
G01*
X33441250Y-17718000D01*
G75*
G02*
X33197500Y-17474250I0J243750D01*
G01*
G37*
G36*
G01*
X52654500Y-18339750D02*
X52654500Y-19252250D01*
G75*
G02*
X52410750Y-19496000I-243750J0D01*
G01*
X51923250Y-19496000D01*
G75*
G02*
X51679500Y-19252250I0J243750D01*
G01*
X51679500Y-18339750D01*
G75*
G02*
X51923250Y-18096000I243750J0D01*
G01*
X52410750Y-18096000D01*
G75*
G02*
X52654500Y-18339750I0J-243750D01*
G01*
G37*
G36*
G01*
X50779500Y-18339750D02*
X50779500Y-19252250D01*
G75*
G02*
X50535750Y-19496000I-243750J0D01*
G01*
X50048250Y-19496000D01*
G75*
G02*
X49804500Y-19252250I0J243750D01*
G01*
X49804500Y-18339750D01*
G75*
G02*
X50048250Y-18096000I243750J0D01*
G01*
X50535750Y-18096000D01*
G75*
G02*
X50779500Y-18339750I0J-243750D01*
G01*
G37*
G36*
G01*
X45270000Y-18339750D02*
X45270000Y-19252250D01*
G75*
G02*
X45026250Y-19496000I-243750J0D01*
G01*
X44538750Y-19496000D01*
G75*
G02*
X44295000Y-19252250I0J243750D01*
G01*
X44295000Y-18339750D01*
G75*
G02*
X44538750Y-18096000I243750J0D01*
G01*
X45026250Y-18096000D01*
G75*
G02*
X45270000Y-18339750I0J-243750D01*
G01*
G37*
G36*
G01*
X47145000Y-18339750D02*
X47145000Y-19252250D01*
G75*
G02*
X46901250Y-19496000I-243750J0D01*
G01*
X46413750Y-19496000D01*
G75*
G02*
X46170000Y-19252250I0J243750D01*
G01*
X46170000Y-18339750D01*
G75*
G02*
X46413750Y-18096000I243750J0D01*
G01*
X46901250Y-18096000D01*
G75*
G02*
X47145000Y-18339750I0J-243750D01*
G01*
G37*
G36*
G01*
X42065000Y-18339750D02*
X42065000Y-19252250D01*
G75*
G02*
X41821250Y-19496000I-243750J0D01*
G01*
X41333750Y-19496000D01*
G75*
G02*
X41090000Y-19252250I0J243750D01*
G01*
X41090000Y-18339750D01*
G75*
G02*
X41333750Y-18096000I243750J0D01*
G01*
X41821250Y-18096000D01*
G75*
G02*
X42065000Y-18339750I0J-243750D01*
G01*
G37*
G36*
G01*
X40190000Y-18339750D02*
X40190000Y-19252250D01*
G75*
G02*
X39946250Y-19496000I-243750J0D01*
G01*
X39458750Y-19496000D01*
G75*
G02*
X39215000Y-19252250I0J243750D01*
G01*
X39215000Y-18339750D01*
G75*
G02*
X39458750Y-18096000I243750J0D01*
G01*
X39946250Y-18096000D01*
G75*
G02*
X40190000Y-18339750I0J-243750D01*
G01*
G37*
G36*
G01*
X36223000Y-18847750D02*
X36223000Y-19760250D01*
G75*
G02*
X35979250Y-20004000I-243750J0D01*
G01*
X35491750Y-20004000D01*
G75*
G02*
X35248000Y-19760250I0J243750D01*
G01*
X35248000Y-18847750D01*
G75*
G02*
X35491750Y-18604000I243750J0D01*
G01*
X35979250Y-18604000D01*
G75*
G02*
X36223000Y-18847750I0J-243750D01*
G01*
G37*
G36*
G01*
X34348000Y-18847750D02*
X34348000Y-19760250D01*
G75*
G02*
X34104250Y-20004000I-243750J0D01*
G01*
X33616750Y-20004000D01*
G75*
G02*
X33373000Y-19760250I0J243750D01*
G01*
X33373000Y-18847750D01*
G75*
G02*
X33616750Y-18604000I243750J0D01*
G01*
X34104250Y-18604000D01*
G75*
G02*
X34348000Y-18847750I0J-243750D01*
G01*
G37*
G36*
G01*
X56838000Y-16712250D02*
X56838000Y-15799750D01*
G75*
G02*
X57081750Y-15556000I243750J0D01*
G01*
X57569250Y-15556000D01*
G75*
G02*
X57813000Y-15799750I0J-243750D01*
G01*
X57813000Y-16712250D01*
G75*
G02*
X57569250Y-16956000I-243750J0D01*
G01*
X57081750Y-16956000D01*
G75*
G02*
X56838000Y-16712250I0J243750D01*
G01*
G37*
G36*
G01*
X54963000Y-16712250D02*
X54963000Y-15799750D01*
G75*
G02*
X55206750Y-15556000I243750J0D01*
G01*
X55694250Y-15556000D01*
G75*
G02*
X55938000Y-15799750I0J-243750D01*
G01*
X55938000Y-16712250D01*
G75*
G02*
X55694250Y-16956000I-243750J0D01*
G01*
X55206750Y-16956000D01*
G75*
G02*
X54963000Y-16712250I0J243750D01*
G01*
G37*
G36*
G01*
X57813000Y-18339750D02*
X57813000Y-19252250D01*
G75*
G02*
X57569250Y-19496000I-243750J0D01*
G01*
X57081750Y-19496000D01*
G75*
G02*
X56838000Y-19252250I0J243750D01*
G01*
X56838000Y-18339750D01*
G75*
G02*
X57081750Y-18096000I243750J0D01*
G01*
X57569250Y-18096000D01*
G75*
G02*
X57813000Y-18339750I0J-243750D01*
G01*
G37*
G36*
G01*
X55938000Y-18339750D02*
X55938000Y-19252250D01*
G75*
G02*
X55694250Y-19496000I-243750J0D01*
G01*
X55206750Y-19496000D01*
G75*
G02*
X54963000Y-19252250I0J243750D01*
G01*
X54963000Y-18339750D01*
G75*
G02*
X55206750Y-18096000I243750J0D01*
G01*
X55694250Y-18096000D01*
G75*
G02*
X55938000Y-18339750I0J-243750D01*
G01*
G37*
G36*
G01*
X19230480Y-27599560D02*
X18930480Y-27599560D01*
G75*
G02*
X18780480Y-27449560I0J150000D01*
G01*
X18780480Y-25774560D01*
G75*
G02*
X18930480Y-25624560I150000J0D01*
G01*
X19230480Y-25624560D01*
G75*
G02*
X19380480Y-25774560I0J-150000D01*
G01*
X19380480Y-27449560D01*
G75*
G02*
X19230480Y-27599560I-150000J0D01*
G01*
G37*
G36*
G01*
X20500480Y-27599560D02*
X20200480Y-27599560D01*
G75*
G02*
X20050480Y-27449560I0J150000D01*
G01*
X20050480Y-25774560D01*
G75*
G02*
X20200480Y-25624560I150000J0D01*
G01*
X20500480Y-25624560D01*
G75*
G02*
X20650480Y-25774560I0J-150000D01*
G01*
X20650480Y-27449560D01*
G75*
G02*
X20500480Y-27599560I-150000J0D01*
G01*
G37*
G36*
G01*
X21770480Y-27599560D02*
X21470480Y-27599560D01*
G75*
G02*
X21320480Y-27449560I0J150000D01*
G01*
X21320480Y-25774560D01*
G75*
G02*
X21470480Y-25624560I150000J0D01*
G01*
X21770480Y-25624560D01*
G75*
G02*
X21920480Y-25774560I0J-150000D01*
G01*
X21920480Y-27449560D01*
G75*
G02*
X21770480Y-27599560I-150000J0D01*
G01*
G37*
G36*
G01*
X23040480Y-27599560D02*
X22740480Y-27599560D01*
G75*
G02*
X22590480Y-27449560I0J150000D01*
G01*
X22590480Y-25774560D01*
G75*
G02*
X22740480Y-25624560I150000J0D01*
G01*
X23040480Y-25624560D01*
G75*
G02*
X23190480Y-25774560I0J-150000D01*
G01*
X23190480Y-27449560D01*
G75*
G02*
X23040480Y-27599560I-150000J0D01*
G01*
G37*
G36*
G01*
X24310480Y-27599560D02*
X24010480Y-27599560D01*
G75*
G02*
X23860480Y-27449560I0J150000D01*
G01*
X23860480Y-25774560D01*
G75*
G02*
X24010480Y-25624560I150000J0D01*
G01*
X24310480Y-25624560D01*
G75*
G02*
X24460480Y-25774560I0J-150000D01*
G01*
X24460480Y-27449560D01*
G75*
G02*
X24310480Y-27599560I-150000J0D01*
G01*
G37*
G36*
G01*
X25580480Y-27599560D02*
X25280480Y-27599560D01*
G75*
G02*
X25130480Y-27449560I0J150000D01*
G01*
X25130480Y-25774560D01*
G75*
G02*
X25280480Y-25624560I150000J0D01*
G01*
X25580480Y-25624560D01*
G75*
G02*
X25730480Y-25774560I0J-150000D01*
G01*
X25730480Y-27449560D01*
G75*
G02*
X25580480Y-27599560I-150000J0D01*
G01*
G37*
G36*
G01*
X26850480Y-27599560D02*
X26550480Y-27599560D01*
G75*
G02*
X26400480Y-27449560I0J150000D01*
G01*
X26400480Y-25774560D01*
G75*
G02*
X26550480Y-25624560I150000J0D01*
G01*
X26850480Y-25624560D01*
G75*
G02*
X27000480Y-25774560I0J-150000D01*
G01*
X27000480Y-27449560D01*
G75*
G02*
X26850480Y-27599560I-150000J0D01*
G01*
G37*
G36*
G01*
X28120480Y-27599560D02*
X27820480Y-27599560D01*
G75*
G02*
X27670480Y-27449560I0J150000D01*
G01*
X27670480Y-25774560D01*
G75*
G02*
X27820480Y-25624560I150000J0D01*
G01*
X28120480Y-25624560D01*
G75*
G02*
X28270480Y-25774560I0J-150000D01*
G01*
X28270480Y-27449560D01*
G75*
G02*
X28120480Y-27599560I-150000J0D01*
G01*
G37*
G36*
G01*
X28120480Y-20674560D02*
X27820480Y-20674560D01*
G75*
G02*
X27670480Y-20524560I0J150000D01*
G01*
X27670480Y-18849560D01*
G75*
G02*
X27820480Y-18699560I150000J0D01*
G01*
X28120480Y-18699560D01*
G75*
G02*
X28270480Y-18849560I0J-150000D01*
G01*
X28270480Y-20524560D01*
G75*
G02*
X28120480Y-20674560I-150000J0D01*
G01*
G37*
G36*
G01*
X26850480Y-20674560D02*
X26550480Y-20674560D01*
G75*
G02*
X26400480Y-20524560I0J150000D01*
G01*
X26400480Y-18849560D01*
G75*
G02*
X26550480Y-18699560I150000J0D01*
G01*
X26850480Y-18699560D01*
G75*
G02*
X27000480Y-18849560I0J-150000D01*
G01*
X27000480Y-20524560D01*
G75*
G02*
X26850480Y-20674560I-150000J0D01*
G01*
G37*
G36*
G01*
X25580480Y-20674560D02*
X25280480Y-20674560D01*
G75*
G02*
X25130480Y-20524560I0J150000D01*
G01*
X25130480Y-18849560D01*
G75*
G02*
X25280480Y-18699560I150000J0D01*
G01*
X25580480Y-18699560D01*
G75*
G02*
X25730480Y-18849560I0J-150000D01*
G01*
X25730480Y-20524560D01*
G75*
G02*
X25580480Y-20674560I-150000J0D01*
G01*
G37*
G36*
G01*
X24310480Y-20674560D02*
X24010480Y-20674560D01*
G75*
G02*
X23860480Y-20524560I0J150000D01*
G01*
X23860480Y-18849560D01*
G75*
G02*
X24010480Y-18699560I150000J0D01*
G01*
X24310480Y-18699560D01*
G75*
G02*
X24460480Y-18849560I0J-150000D01*
G01*
X24460480Y-20524560D01*
G75*
G02*
X24310480Y-20674560I-150000J0D01*
G01*
G37*
G36*
G01*
X23040480Y-20674560D02*
X22740480Y-20674560D01*
G75*
G02*
X22590480Y-20524560I0J150000D01*
G01*
X22590480Y-18849560D01*
G75*
G02*
X22740480Y-18699560I150000J0D01*
G01*
X23040480Y-18699560D01*
G75*
G02*
X23190480Y-18849560I0J-150000D01*
G01*
X23190480Y-20524560D01*
G75*
G02*
X23040480Y-20674560I-150000J0D01*
G01*
G37*
G36*
G01*
X21770480Y-20674560D02*
X21470480Y-20674560D01*
G75*
G02*
X21320480Y-20524560I0J150000D01*
G01*
X21320480Y-18849560D01*
G75*
G02*
X21470480Y-18699560I150000J0D01*
G01*
X21770480Y-18699560D01*
G75*
G02*
X21920480Y-18849560I0J-150000D01*
G01*
X21920480Y-20524560D01*
G75*
G02*
X21770480Y-20674560I-150000J0D01*
G01*
G37*
G36*
G01*
X20500480Y-20674560D02*
X20200480Y-20674560D01*
G75*
G02*
X20050480Y-20524560I0J150000D01*
G01*
X20050480Y-18849560D01*
G75*
G02*
X20200480Y-18699560I150000J0D01*
G01*
X20500480Y-18699560D01*
G75*
G02*
X20650480Y-18849560I0J-150000D01*
G01*
X20650480Y-20524560D01*
G75*
G02*
X20500480Y-20674560I-150000J0D01*
G01*
G37*
G36*
G01*
X19230480Y-20674560D02*
X18930480Y-20674560D01*
G75*
G02*
X18780480Y-20524560I0J150000D01*
G01*
X18780480Y-18849560D01*
G75*
G02*
X18930480Y-18699560I150000J0D01*
G01*
X19230480Y-18699560D01*
G75*
G02*
X19380480Y-18849560I0J-150000D01*
G01*
X19380480Y-20524560D01*
G75*
G02*
X19230480Y-20674560I-150000J0D01*
G01*
G37*
M02*
