M48
; DRILL file {KiCad (5.1.6-0-10_14)} date Thursday, September 03, 2020 at 02:47:59 PM
; FORMAT={3:3/ absolute / metric / suppress leading zeros}
; #@! TF.CreationDate,2020-09-03T14:47:59-04:00
; #@! TF.GenerationSoftware,Kicad,Pcbnew,(5.1.6-0-10_14)
FMAT,2
METRIC,TZ
T1C0.400
T2C0.650
T3C0.750
T4C1.000
T5C1.100
T6C1.150
T7C3.175
%
G90
G05
T1
X-1834Y-20246
X241Y-17986
X907Y-26482
X4500Y-15500
X5667Y-15321
X7500Y-14000
X8210Y-12830
X10300Y-26930
X11350Y-21460
X12152Y-16514
X14488Y-46218
X14488Y-48407
X14935Y-22802
X15000Y-37000
X15685Y-13772
X15905Y-27795
X17021Y-24133
X19235Y-13708
X19703Y-36975
X19987Y-23881
X21066Y-38935
X22167Y-24031
X22586Y-13731
X23348Y-21341
X24420Y-41890
X25654Y-38974
X25806Y-20616
X26250Y-47500
X26271Y-12730
X26358Y-24572
X26500Y-41250
X27432Y-31750
X27500Y-775
X28430Y-19766
X28500Y-39000
X29145Y0
X29500Y-31000
X32992Y-28821
X34550Y-13630
X35500Y-23000
X36068Y-26924
X37531Y-13635
X38000Y-9000
X38359Y-26919
X40000Y-10500
X40604Y-28824
X41513Y-8987
X42500Y-25000
X43119Y-13635
X45974Y-28956
X46600Y-4090
X46736Y-47752
X46750Y-24250
X48000Y-9750
X48453Y-13635
X48500Y-27243
X49500Y-11250
X49848Y-49690
X51000Y-24403
X52250Y-14000
X53340Y-28956
X53947Y-13635
X54090Y-9020
X54800Y-1080
X57000Y-7500
X58265Y-16265
X59159Y-13538
X59782Y-11718
X60500Y-13500
X60500Y-28000
X60660Y-45961
X61148Y-40505
X61610Y-6440
X61920Y-50130
X62450Y-25840
X62500Y-16500
X62683Y803
X62860Y-24540
X63760Y-6210
X64980Y-51540
X65410Y-9060
X65830Y-39540
X66500Y-6500
X70500Y-7500
T2
X37050Y-2100
X38950Y-2100
T3
X5360Y-52650
X6630Y-51380
X6630Y-53920
T4
X-6370Y-39370
X130Y-39370
X8502Y-39370
X11102Y-42270
X11102Y-44770
X23502Y-39370
X3020Y1500
X5560Y1500
X8100Y1500
X10640Y1500
X13180Y1500
X15720Y1500
X18260Y1500
X20800Y1500
X23340Y1500
X25880Y1500
X28420Y1500
X30960Y1500
X33500Y1500
T5
X-9515Y-51746
X645Y-51746
X-8610Y-32130
X1550Y-32130
X18542Y-53594
X28702Y-53594
T6
X35594Y-41870
X35594Y-44410
X38134Y-41870
X38134Y-44410
X40673Y-41870
X40673Y-44410
X43214Y-41870
X43214Y-44410
X45753Y-41870
X45753Y-44410
X48293Y-41870
X48293Y-44410
X50834Y-41870
X50834Y-44410
X53374Y-41870
X53374Y-44410
X55914Y-41870
X55914Y-44410
X58453Y-41870
X58453Y-44410
T7
X76000Y750
X75500Y-51250
X-16750Y-750
X-16500Y-51500
T0
M30
