G04 #@! TF.GenerationSoftware,KiCad,Pcbnew,(5.1.6-0-10_14)*
G04 #@! TF.CreationDate,2020-09-03T14:47:54-04:00*
G04 #@! TF.ProjectId,Pufferfish-Interface-2,50756666-6572-4666-9973-682d496e7465,rev?*
G04 #@! TF.SameCoordinates,Original*
G04 #@! TF.FileFunction,Legend,Bot*
G04 #@! TF.FilePolarity,Positive*
%FSLAX46Y46*%
G04 Gerber Fmt 4.6, Leading zero omitted, Abs format (unit mm)*
G04 Created by KiCad (PCBNEW (5.1.6-0-10_14)) date 2020-09-03 14:47:54*
%MOMM*%
%LPD*%
G01*
G04 APERTURE LIST*
%ADD10C,0.120000*%
%ADD11C,0.200000*%
%ADD12C,0.100000*%
%ADD13C,0.127000*%
%ADD14C,0.150000*%
G04 APERTURE END LIST*
D10*
X1690000Y170000D02*
X1690000Y2830000D01*
X32230000Y170000D02*
X1690000Y170000D01*
X32230000Y2830000D02*
X1690000Y2830000D01*
X32230000Y170000D02*
X32230000Y2830000D01*
X33500000Y170000D02*
X34830000Y170000D01*
X34830000Y170000D02*
X34830000Y1500000D01*
X55428922Y-26710000D02*
X55946078Y-26710000D01*
X55428922Y-25290000D02*
X55946078Y-25290000D01*
D11*
X34393288Y-40409340D02*
G75*
G03*
X34393288Y-40409340I-323788J0D01*
G01*
X63533500Y-47838840D02*
X30513500Y-47838840D01*
X30513500Y-47838840D02*
X30513500Y-41869840D01*
X35593500Y-38567840D02*
X63533500Y-38567840D01*
X63533500Y-38567840D02*
X63533500Y-47838840D01*
D10*
X20126060Y-32608760D02*
X20126060Y-31808760D01*
X17526060Y-34858760D02*
X20126060Y-34858760D01*
X20126060Y-34858760D02*
X20126060Y-33908760D01*
X12720120Y-49105100D02*
X13520120Y-49105100D01*
X10470120Y-46505100D02*
X10470120Y-49105100D01*
X10470120Y-49105100D02*
X11420120Y-49105100D01*
X14696178Y-33054220D02*
X14179022Y-33054220D01*
X14696178Y-34474220D02*
X14179022Y-34474220D01*
X16866102Y-49444980D02*
X17383258Y-49444980D01*
X16866102Y-48024980D02*
X17383258Y-48024980D01*
D12*
X-7346780Y-2045660D02*
G75*
G03*
X-7346780Y-2045660I-127000J0D01*
G01*
D13*
X2401220Y-9395660D02*
X-9548780Y-9395660D01*
D14*
X35282380Y1833333D02*
X35996666Y1833333D01*
X36139523Y1880952D01*
X36234761Y1976190D01*
X36282380Y2119047D01*
X36282380Y2214285D01*
X35377619Y1404761D02*
X35330000Y1357142D01*
X35282380Y1261904D01*
X35282380Y1023809D01*
X35330000Y928571D01*
X35377619Y880952D01*
X35472857Y833333D01*
X35568095Y833333D01*
X35710952Y880952D01*
X36282380Y1452380D01*
X36282380Y833333D01*
X56330357Y-28102380D02*
X56663690Y-27626190D01*
X56901785Y-28102380D02*
X56901785Y-27102380D01*
X56520833Y-27102380D01*
X56425595Y-27150000D01*
X56377976Y-27197619D01*
X56330357Y-27292857D01*
X56330357Y-27435714D01*
X56377976Y-27530952D01*
X56425595Y-27578571D01*
X56520833Y-27626190D01*
X56901785Y-27626190D01*
X55949404Y-27197619D02*
X55901785Y-27150000D01*
X55806547Y-27102380D01*
X55568452Y-27102380D01*
X55473214Y-27150000D01*
X55425595Y-27197619D01*
X55377976Y-27292857D01*
X55377976Y-27388095D01*
X55425595Y-27530952D01*
X55997023Y-28102380D01*
X55377976Y-28102380D01*
X54901785Y-28102380D02*
X54711309Y-28102380D01*
X54616071Y-28054761D01*
X54568452Y-28007142D01*
X54473214Y-27864285D01*
X54425595Y-27673809D01*
X54425595Y-27292857D01*
X54473214Y-27197619D01*
X54520833Y-27150000D01*
X54616071Y-27102380D01*
X54806547Y-27102380D01*
X54901785Y-27150000D01*
X54949404Y-27197619D01*
X54997023Y-27292857D01*
X54997023Y-27530952D01*
X54949404Y-27626190D01*
X54901785Y-27673809D01*
X54806547Y-27721428D01*
X54616071Y-27721428D01*
X54520833Y-27673809D01*
X54473214Y-27626190D01*
X54425595Y-27530952D01*
X48991595Y-49626982D02*
X49039214Y-49674601D01*
X49182071Y-49722220D01*
X49277309Y-49722220D01*
X49420166Y-49674601D01*
X49515404Y-49579363D01*
X49563023Y-49484125D01*
X49610642Y-49293649D01*
X49610642Y-49150792D01*
X49563023Y-48960316D01*
X49515404Y-48865078D01*
X49420166Y-48769840D01*
X49277309Y-48722220D01*
X49182071Y-48722220D01*
X49039214Y-48769840D01*
X48991595Y-48817459D01*
X48372547Y-48722220D02*
X48182071Y-48722220D01*
X48086833Y-48769840D01*
X47991595Y-48865078D01*
X47943976Y-49055554D01*
X47943976Y-49388887D01*
X47991595Y-49579363D01*
X48086833Y-49674601D01*
X48182071Y-49722220D01*
X48372547Y-49722220D01*
X48467785Y-49674601D01*
X48563023Y-49579363D01*
X48610642Y-49388887D01*
X48610642Y-49055554D01*
X48563023Y-48865078D01*
X48467785Y-48769840D01*
X48372547Y-48722220D01*
X47515404Y-49722220D02*
X47515404Y-48722220D01*
X46943976Y-49722220D01*
X46943976Y-48722220D01*
X46467785Y-49722220D02*
X46467785Y-48722220D01*
X45896357Y-49722220D01*
X45896357Y-48722220D01*
X44991595Y-49055554D02*
X44991595Y-49722220D01*
X45229690Y-48674601D02*
X45467785Y-49388887D01*
X44848738Y-49388887D01*
X34772547Y-36422220D02*
X34772547Y-37136506D01*
X34820166Y-37279363D01*
X34915404Y-37374601D01*
X35058261Y-37422220D01*
X35153500Y-37422220D01*
X34153500Y-36422220D02*
X34153500Y-36660316D01*
X34391595Y-36565078D02*
X34153500Y-36660316D01*
X33915404Y-36565078D01*
X34296357Y-36850792D02*
X34153500Y-36660316D01*
X34010642Y-36850792D01*
X33391595Y-36422220D02*
X33391595Y-36660316D01*
X33629690Y-36565078D02*
X33391595Y-36660316D01*
X33153500Y-36565078D01*
X33534452Y-36850792D02*
X33391595Y-36660316D01*
X33248738Y-36850792D01*
X19371298Y-36156379D02*
X19466536Y-36108760D01*
X19561774Y-36013521D01*
X19704631Y-35870664D01*
X19799869Y-35823045D01*
X19895107Y-35823045D01*
X19847488Y-36061140D02*
X19942726Y-36013521D01*
X20037964Y-35918283D01*
X20085583Y-35727807D01*
X20085583Y-35394474D01*
X20037964Y-35203998D01*
X19942726Y-35108760D01*
X19847488Y-35061140D01*
X19657012Y-35061140D01*
X19561774Y-35108760D01*
X19466536Y-35203998D01*
X19418917Y-35394474D01*
X19418917Y-35727807D01*
X19466536Y-35918283D01*
X19561774Y-36013521D01*
X19657012Y-36061140D01*
X19847488Y-36061140D01*
X18561774Y-35061140D02*
X18752250Y-35061140D01*
X18847488Y-35108760D01*
X18895107Y-35156379D01*
X18990345Y-35299236D01*
X19037964Y-35489712D01*
X19037964Y-35870664D01*
X18990345Y-35965902D01*
X18942726Y-36013521D01*
X18847488Y-36061140D01*
X18657012Y-36061140D01*
X18561774Y-36013521D01*
X18514155Y-35965902D01*
X18466536Y-35870664D01*
X18466536Y-35632569D01*
X18514155Y-35537331D01*
X18561774Y-35489712D01*
X18657012Y-35442093D01*
X18847488Y-35442093D01*
X18942726Y-35489712D01*
X18990345Y-35537331D01*
X19037964Y-35632569D01*
X10192039Y-48162401D02*
X10144420Y-48067163D01*
X10049181Y-47971925D01*
X9906324Y-47829068D01*
X9858705Y-47733830D01*
X9858705Y-47638592D01*
X10096800Y-47686211D02*
X10049181Y-47590973D01*
X9953943Y-47495735D01*
X9763467Y-47448116D01*
X9430134Y-47448116D01*
X9239658Y-47495735D01*
X9144420Y-47590973D01*
X9096800Y-47686211D01*
X9096800Y-47876687D01*
X9144420Y-47971925D01*
X9239658Y-48067163D01*
X9430134Y-48114782D01*
X9763467Y-48114782D01*
X9953943Y-48067163D01*
X10049181Y-47971925D01*
X10096800Y-47876687D01*
X10096800Y-47686211D01*
X9096800Y-49019544D02*
X9096800Y-48543354D01*
X9572991Y-48495735D01*
X9525372Y-48543354D01*
X9477753Y-48638592D01*
X9477753Y-48876687D01*
X9525372Y-48971925D01*
X9572991Y-49019544D01*
X9668229Y-49067163D01*
X9906324Y-49067163D01*
X10001562Y-49019544D01*
X10049181Y-48971925D01*
X10096800Y-48876687D01*
X10096800Y-48638592D01*
X10049181Y-48543354D01*
X10001562Y-48495735D01*
X15026877Y-32509720D02*
X15360210Y-32033530D01*
X15598305Y-32509720D02*
X15598305Y-31509720D01*
X15217353Y-31509720D01*
X15122115Y-31557340D01*
X15074496Y-31604959D01*
X15026877Y-31700197D01*
X15026877Y-31843054D01*
X15074496Y-31938292D01*
X15122115Y-31985911D01*
X15217353Y-32033530D01*
X15598305Y-32033530D01*
X14074496Y-32509720D02*
X14645924Y-32509720D01*
X14360210Y-32509720D02*
X14360210Y-31509720D01*
X14455448Y-31652578D01*
X14550686Y-31747816D01*
X14645924Y-31795435D01*
X13455448Y-31509720D02*
X13360210Y-31509720D01*
X13264972Y-31557340D01*
X13217353Y-31604959D01*
X13169734Y-31700197D01*
X13122115Y-31890673D01*
X13122115Y-32128768D01*
X13169734Y-32319244D01*
X13217353Y-32414482D01*
X13264972Y-32462101D01*
X13360210Y-32509720D01*
X13455448Y-32509720D01*
X13550686Y-32462101D01*
X13598305Y-32414482D01*
X13645924Y-32319244D01*
X13693543Y-32128768D01*
X13693543Y-31890673D01*
X13645924Y-31700197D01*
X13598305Y-31604959D01*
X13550686Y-31557340D01*
X13455448Y-31509720D01*
X20331486Y-49156880D02*
X20664820Y-48680690D01*
X20902915Y-49156880D02*
X20902915Y-48156880D01*
X20521962Y-48156880D01*
X20426724Y-48204500D01*
X20379105Y-48252119D01*
X20331486Y-48347357D01*
X20331486Y-48490214D01*
X20379105Y-48585452D01*
X20426724Y-48633071D01*
X20521962Y-48680690D01*
X20902915Y-48680690D01*
X19855296Y-49156880D02*
X19664820Y-49156880D01*
X19569581Y-49109261D01*
X19521962Y-49061642D01*
X19426724Y-48918785D01*
X19379105Y-48728309D01*
X19379105Y-48347357D01*
X19426724Y-48252119D01*
X19474343Y-48204500D01*
X19569581Y-48156880D01*
X19760058Y-48156880D01*
X19855296Y-48204500D01*
X19902915Y-48252119D01*
X19950534Y-48347357D01*
X19950534Y-48585452D01*
X19902915Y-48680690D01*
X19855296Y-48728309D01*
X19760058Y-48775928D01*
X19569581Y-48775928D01*
X19474343Y-48728309D01*
X19426724Y-48680690D01*
X19379105Y-48585452D01*
X2201633Y-11403861D02*
X2249287Y-11451514D01*
X2392247Y-11499168D01*
X2487554Y-11499168D01*
X2630515Y-11451514D01*
X2725822Y-11356207D01*
X2773475Y-11260900D01*
X2821129Y-11070286D01*
X2821129Y-10927326D01*
X2773475Y-10736712D01*
X2725822Y-10641405D01*
X2630515Y-10546098D01*
X2487554Y-10498444D01*
X2392247Y-10498444D01*
X2249287Y-10546098D01*
X2201633Y-10593751D01*
X1582137Y-10498444D02*
X1391523Y-10498444D01*
X1296216Y-10546098D01*
X1200909Y-10641405D01*
X1153256Y-10832019D01*
X1153256Y-11165593D01*
X1200909Y-11356207D01*
X1296216Y-11451514D01*
X1391523Y-11499168D01*
X1582137Y-11499168D01*
X1677444Y-11451514D01*
X1772751Y-11356207D01*
X1820405Y-11165593D01*
X1820405Y-10832019D01*
X1772751Y-10641405D01*
X1677444Y-10546098D01*
X1582137Y-10498444D01*
X724374Y-11499168D02*
X724374Y-10498444D01*
X152532Y-11499168D01*
X152532Y-10498444D01*
X-324003Y-11499168D02*
X-324003Y-10498444D01*
X-895845Y-11499168D01*
X-895845Y-10498444D01*
X-1324727Y-10593751D02*
X-1372380Y-10546098D01*
X-1467687Y-10498444D01*
X-1705955Y-10498444D01*
X-1801262Y-10546098D01*
X-1848915Y-10593751D01*
X-1896569Y-10689058D01*
X-1896569Y-10784365D01*
X-1848915Y-10927326D01*
X-1277073Y-11499168D01*
X-1896569Y-11499168D01*
M02*
