G04 #@! TF.GenerationSoftware,KiCad,Pcbnew,(5.1.6-0-10_14)*
G04 #@! TF.CreationDate,2020-09-03T14:47:54-04:00*
G04 #@! TF.ProjectId,Pufferfish-Interface-2,50756666-6572-4666-9973-682d496e7465,rev?*
G04 #@! TF.SameCoordinates,Original*
G04 #@! TF.FileFunction,Soldermask,Top*
G04 #@! TF.FilePolarity,Negative*
%FSLAX46Y46*%
G04 Gerber Fmt 4.6, Leading zero omitted, Abs format (unit mm)*
G04 Created by KiCad (PCBNEW (5.1.6-0-10_14)) date 2020-09-03 14:47:54*
%MOMM*%
%LPD*%
G01*
G04 APERTURE LIST*
%ADD10C,6.553200*%
%ADD11O,1.800000X1.800000*%
%ADD12R,1.800000X1.800000*%
%ADD13O,2.300000X2.300000*%
%ADD14R,2.300000X2.300000*%
%ADD15R,2.100000X2.100000*%
%ADD16C,2.100000*%
%ADD17C,0.927800*%
%ADD18R,1.100000X1.500000*%
%ADD19R,1.400000X1.400000*%
%ADD20C,1.400000*%
%ADD21R,0.700000X0.800000*%
%ADD22R,0.800000X0.700000*%
%ADD23C,1.825000*%
%ADD24R,1.825000X1.825000*%
%ADD25R,1.500000X1.100000*%
%ADD26R,1.000000X0.900000*%
%ADD27C,1.700000*%
G04 APERTURE END LIST*
D10*
X75500000Y-51250000D03*
X76000000Y750000D03*
X-16500000Y-51500000D03*
X-16750000Y-750000D03*
D11*
X3020000Y1500000D03*
X5560000Y1500000D03*
X8100000Y1500000D03*
X10640000Y1500000D03*
X13180000Y1500000D03*
X15720000Y1500000D03*
X18260000Y1500000D03*
X20800000Y1500000D03*
X23340000Y1500000D03*
X25880000Y1500000D03*
X28420000Y1500000D03*
X30960000Y1500000D03*
D12*
X33500000Y1500000D03*
D13*
X645380Y-51745980D03*
D14*
X-9514620Y-51745980D03*
G36*
G01*
X36850000Y-23400000D02*
X36850000Y-22600000D01*
G75*
G02*
X37200000Y-22250000I350000J0D01*
G01*
X37900000Y-22250000D01*
G75*
G02*
X38250000Y-22600000I0J-350000D01*
G01*
X38250000Y-23400000D01*
G75*
G02*
X37900000Y-23750000I-350000J0D01*
G01*
X37200000Y-23750000D01*
G75*
G02*
X36850000Y-23400000I0J350000D01*
G01*
G37*
G36*
G01*
X39750000Y-23400000D02*
X39750000Y-22600000D01*
G75*
G02*
X40100000Y-22250000I350000J0D01*
G01*
X40800000Y-22250000D01*
G75*
G02*
X41150000Y-22600000I0J-350000D01*
G01*
X41150000Y-23400000D01*
G75*
G02*
X40800000Y-23750000I-350000J0D01*
G01*
X40100000Y-23750000D01*
G75*
G02*
X39750000Y-23400000I0J350000D01*
G01*
G37*
G36*
G01*
X39230000Y-20871250D02*
X39230000Y-19908750D01*
G75*
G02*
X39498750Y-19640000I268750J0D01*
G01*
X40036250Y-19640000D01*
G75*
G02*
X40305000Y-19908750I0J-268750D01*
G01*
X40305000Y-20871250D01*
G75*
G02*
X40036250Y-21140000I-268750J0D01*
G01*
X39498750Y-21140000D01*
G75*
G02*
X39230000Y-20871250I0J268750D01*
G01*
G37*
G36*
G01*
X37355000Y-20871250D02*
X37355000Y-19908750D01*
G75*
G02*
X37623750Y-19640000I268750J0D01*
G01*
X38161250Y-19640000D01*
G75*
G02*
X38430000Y-19908750I0J-268750D01*
G01*
X38430000Y-20871250D01*
G75*
G02*
X38161250Y-21140000I-268750J0D01*
G01*
X37623750Y-21140000D01*
G75*
G02*
X37355000Y-20871250I0J268750D01*
G01*
G37*
G36*
G01*
X38550000Y-17278750D02*
X38550000Y-18241250D01*
G75*
G02*
X38281250Y-18510000I-268750J0D01*
G01*
X37743750Y-18510000D01*
G75*
G02*
X37475000Y-18241250I0J268750D01*
G01*
X37475000Y-17278750D01*
G75*
G02*
X37743750Y-17010000I268750J0D01*
G01*
X38281250Y-17010000D01*
G75*
G02*
X38550000Y-17278750I0J-268750D01*
G01*
G37*
G36*
G01*
X40425000Y-17278750D02*
X40425000Y-18241250D01*
G75*
G02*
X40156250Y-18510000I-268750J0D01*
G01*
X39618750Y-18510000D01*
G75*
G02*
X39350000Y-18241250I0J268750D01*
G01*
X39350000Y-17278750D01*
G75*
G02*
X39618750Y-17010000I268750J0D01*
G01*
X40156250Y-17010000D01*
G75*
G02*
X40425000Y-17278750I0J-268750D01*
G01*
G37*
G36*
G01*
X39528700Y-15665370D02*
X39528700Y-14702870D01*
G75*
G02*
X39797450Y-14434120I268750J0D01*
G01*
X40334950Y-14434120D01*
G75*
G02*
X40603700Y-14702870I0J-268750D01*
G01*
X40603700Y-15665370D01*
G75*
G02*
X40334950Y-15934120I-268750J0D01*
G01*
X39797450Y-15934120D01*
G75*
G02*
X39528700Y-15665370I0J268750D01*
G01*
G37*
G36*
G01*
X37653700Y-15665370D02*
X37653700Y-14702870D01*
G75*
G02*
X37922450Y-14434120I268750J0D01*
G01*
X38459950Y-14434120D01*
G75*
G02*
X38728700Y-14702870I0J-268750D01*
G01*
X38728700Y-15665370D01*
G75*
G02*
X38459950Y-15934120I-268750J0D01*
G01*
X37922450Y-15934120D01*
G75*
G02*
X37653700Y-15665370I0J268750D01*
G01*
G37*
G36*
G01*
X16110960Y-20071780D02*
X15760960Y-20071780D01*
G75*
G02*
X15585960Y-19896780I0J175000D01*
G01*
X15585960Y-18171780D01*
G75*
G02*
X15760960Y-17996780I175000J0D01*
G01*
X16110960Y-17996780D01*
G75*
G02*
X16285960Y-18171780I0J-175000D01*
G01*
X16285960Y-19896780D01*
G75*
G02*
X16110960Y-20071780I-175000J0D01*
G01*
G37*
G36*
G01*
X17380960Y-20071780D02*
X17030960Y-20071780D01*
G75*
G02*
X16855960Y-19896780I0J175000D01*
G01*
X16855960Y-18171780D01*
G75*
G02*
X17030960Y-17996780I175000J0D01*
G01*
X17380960Y-17996780D01*
G75*
G02*
X17555960Y-18171780I0J-175000D01*
G01*
X17555960Y-19896780D01*
G75*
G02*
X17380960Y-20071780I-175000J0D01*
G01*
G37*
G36*
G01*
X18650960Y-20071780D02*
X18300960Y-20071780D01*
G75*
G02*
X18125960Y-19896780I0J175000D01*
G01*
X18125960Y-18171780D01*
G75*
G02*
X18300960Y-17996780I175000J0D01*
G01*
X18650960Y-17996780D01*
G75*
G02*
X18825960Y-18171780I0J-175000D01*
G01*
X18825960Y-19896780D01*
G75*
G02*
X18650960Y-20071780I-175000J0D01*
G01*
G37*
G36*
G01*
X19920960Y-20071780D02*
X19570960Y-20071780D01*
G75*
G02*
X19395960Y-19896780I0J175000D01*
G01*
X19395960Y-18171780D01*
G75*
G02*
X19570960Y-17996780I175000J0D01*
G01*
X19920960Y-17996780D01*
G75*
G02*
X20095960Y-18171780I0J-175000D01*
G01*
X20095960Y-19896780D01*
G75*
G02*
X19920960Y-20071780I-175000J0D01*
G01*
G37*
G36*
G01*
X21190960Y-20071780D02*
X20840960Y-20071780D01*
G75*
G02*
X20665960Y-19896780I0J175000D01*
G01*
X20665960Y-18171780D01*
G75*
G02*
X20840960Y-17996780I175000J0D01*
G01*
X21190960Y-17996780D01*
G75*
G02*
X21365960Y-18171780I0J-175000D01*
G01*
X21365960Y-19896780D01*
G75*
G02*
X21190960Y-20071780I-175000J0D01*
G01*
G37*
G36*
G01*
X22460960Y-20071780D02*
X22110960Y-20071780D01*
G75*
G02*
X21935960Y-19896780I0J175000D01*
G01*
X21935960Y-18171780D01*
G75*
G02*
X22110960Y-17996780I175000J0D01*
G01*
X22460960Y-17996780D01*
G75*
G02*
X22635960Y-18171780I0J-175000D01*
G01*
X22635960Y-19896780D01*
G75*
G02*
X22460960Y-20071780I-175000J0D01*
G01*
G37*
G36*
G01*
X23730960Y-20071780D02*
X23380960Y-20071780D01*
G75*
G02*
X23205960Y-19896780I0J175000D01*
G01*
X23205960Y-18171780D01*
G75*
G02*
X23380960Y-17996780I175000J0D01*
G01*
X23730960Y-17996780D01*
G75*
G02*
X23905960Y-18171780I0J-175000D01*
G01*
X23905960Y-19896780D01*
G75*
G02*
X23730960Y-20071780I-175000J0D01*
G01*
G37*
G36*
G01*
X25000960Y-20071780D02*
X24650960Y-20071780D01*
G75*
G02*
X24475960Y-19896780I0J175000D01*
G01*
X24475960Y-18171780D01*
G75*
G02*
X24650960Y-17996780I175000J0D01*
G01*
X25000960Y-17996780D01*
G75*
G02*
X25175960Y-18171780I0J-175000D01*
G01*
X25175960Y-19896780D01*
G75*
G02*
X25000960Y-20071780I-175000J0D01*
G01*
G37*
G36*
G01*
X25000960Y-26996780D02*
X24650960Y-26996780D01*
G75*
G02*
X24475960Y-26821780I0J175000D01*
G01*
X24475960Y-25096780D01*
G75*
G02*
X24650960Y-24921780I175000J0D01*
G01*
X25000960Y-24921780D01*
G75*
G02*
X25175960Y-25096780I0J-175000D01*
G01*
X25175960Y-26821780D01*
G75*
G02*
X25000960Y-26996780I-175000J0D01*
G01*
G37*
G36*
G01*
X23730960Y-26996780D02*
X23380960Y-26996780D01*
G75*
G02*
X23205960Y-26821780I0J175000D01*
G01*
X23205960Y-25096780D01*
G75*
G02*
X23380960Y-24921780I175000J0D01*
G01*
X23730960Y-24921780D01*
G75*
G02*
X23905960Y-25096780I0J-175000D01*
G01*
X23905960Y-26821780D01*
G75*
G02*
X23730960Y-26996780I-175000J0D01*
G01*
G37*
G36*
G01*
X22460960Y-26996780D02*
X22110960Y-26996780D01*
G75*
G02*
X21935960Y-26821780I0J175000D01*
G01*
X21935960Y-25096780D01*
G75*
G02*
X22110960Y-24921780I175000J0D01*
G01*
X22460960Y-24921780D01*
G75*
G02*
X22635960Y-25096780I0J-175000D01*
G01*
X22635960Y-26821780D01*
G75*
G02*
X22460960Y-26996780I-175000J0D01*
G01*
G37*
G36*
G01*
X21190960Y-26996780D02*
X20840960Y-26996780D01*
G75*
G02*
X20665960Y-26821780I0J175000D01*
G01*
X20665960Y-25096780D01*
G75*
G02*
X20840960Y-24921780I175000J0D01*
G01*
X21190960Y-24921780D01*
G75*
G02*
X21365960Y-25096780I0J-175000D01*
G01*
X21365960Y-26821780D01*
G75*
G02*
X21190960Y-26996780I-175000J0D01*
G01*
G37*
G36*
G01*
X19920960Y-26996780D02*
X19570960Y-26996780D01*
G75*
G02*
X19395960Y-26821780I0J175000D01*
G01*
X19395960Y-25096780D01*
G75*
G02*
X19570960Y-24921780I175000J0D01*
G01*
X19920960Y-24921780D01*
G75*
G02*
X20095960Y-25096780I0J-175000D01*
G01*
X20095960Y-26821780D01*
G75*
G02*
X19920960Y-26996780I-175000J0D01*
G01*
G37*
G36*
G01*
X18650960Y-26996780D02*
X18300960Y-26996780D01*
G75*
G02*
X18125960Y-26821780I0J175000D01*
G01*
X18125960Y-25096780D01*
G75*
G02*
X18300960Y-24921780I175000J0D01*
G01*
X18650960Y-24921780D01*
G75*
G02*
X18825960Y-25096780I0J-175000D01*
G01*
X18825960Y-26821780D01*
G75*
G02*
X18650960Y-26996780I-175000J0D01*
G01*
G37*
G36*
G01*
X17380960Y-26996780D02*
X17030960Y-26996780D01*
G75*
G02*
X16855960Y-26821780I0J175000D01*
G01*
X16855960Y-25096780D01*
G75*
G02*
X17030960Y-24921780I175000J0D01*
G01*
X17380960Y-24921780D01*
G75*
G02*
X17555960Y-25096780I0J-175000D01*
G01*
X17555960Y-26821780D01*
G75*
G02*
X17380960Y-26996780I-175000J0D01*
G01*
G37*
G36*
G01*
X16110960Y-26996780D02*
X15760960Y-26996780D01*
G75*
G02*
X15585960Y-26821780I0J175000D01*
G01*
X15585960Y-25096780D01*
G75*
G02*
X15760960Y-24921780I175000J0D01*
G01*
X16110960Y-24921780D01*
G75*
G02*
X16285960Y-25096780I0J-175000D01*
G01*
X16285960Y-26821780D01*
G75*
G02*
X16110960Y-26996780I-175000J0D01*
G01*
G37*
G36*
G01*
X33660000Y-17148750D02*
X33660000Y-18111250D01*
G75*
G02*
X33391250Y-18380000I-268750J0D01*
G01*
X32853750Y-18380000D01*
G75*
G02*
X32585000Y-18111250I0J268750D01*
G01*
X32585000Y-17148750D01*
G75*
G02*
X32853750Y-16880000I268750J0D01*
G01*
X33391250Y-16880000D01*
G75*
G02*
X33660000Y-17148750I0J-268750D01*
G01*
G37*
G36*
G01*
X35535000Y-17148750D02*
X35535000Y-18111250D01*
G75*
G02*
X35266250Y-18380000I-268750J0D01*
G01*
X34728750Y-18380000D01*
G75*
G02*
X34460000Y-18111250I0J268750D01*
G01*
X34460000Y-17148750D01*
G75*
G02*
X34728750Y-16880000I268750J0D01*
G01*
X35266250Y-16880000D01*
G75*
G02*
X35535000Y-17148750I0J-268750D01*
G01*
G37*
G36*
G01*
X34907500Y-15621250D02*
X34907500Y-14658750D01*
G75*
G02*
X35176250Y-14390000I268750J0D01*
G01*
X35713750Y-14390000D01*
G75*
G02*
X35982500Y-14658750I0J-268750D01*
G01*
X35982500Y-15621250D01*
G75*
G02*
X35713750Y-15890000I-268750J0D01*
G01*
X35176250Y-15890000D01*
G75*
G02*
X34907500Y-15621250I0J268750D01*
G01*
G37*
G36*
G01*
X33032500Y-15621250D02*
X33032500Y-14658750D01*
G75*
G02*
X33301250Y-14390000I268750J0D01*
G01*
X33838750Y-14390000D01*
G75*
G02*
X34107500Y-14658750I0J-268750D01*
G01*
X34107500Y-15621250D01*
G75*
G02*
X33838750Y-15890000I-268750J0D01*
G01*
X33301250Y-15890000D01*
G75*
G02*
X33032500Y-15621250I0J268750D01*
G01*
G37*
G36*
G01*
X67598750Y-23990000D02*
X68561250Y-23990000D01*
G75*
G02*
X68830000Y-24258750I0J-268750D01*
G01*
X68830000Y-24796250D01*
G75*
G02*
X68561250Y-25065000I-268750J0D01*
G01*
X67598750Y-25065000D01*
G75*
G02*
X67330000Y-24796250I0J268750D01*
G01*
X67330000Y-24258750D01*
G75*
G02*
X67598750Y-23990000I268750J0D01*
G01*
G37*
G36*
G01*
X67598750Y-22115000D02*
X68561250Y-22115000D01*
G75*
G02*
X68830000Y-22383750I0J-268750D01*
G01*
X68830000Y-22921250D01*
G75*
G02*
X68561250Y-23190000I-268750J0D01*
G01*
X67598750Y-23190000D01*
G75*
G02*
X67330000Y-22921250I0J268750D01*
G01*
X67330000Y-22383750D01*
G75*
G02*
X67598750Y-22115000I268750J0D01*
G01*
G37*
G36*
G01*
X5749370Y-5454360D02*
X6711870Y-5454360D01*
G75*
G02*
X6980620Y-5723110I0J-268750D01*
G01*
X6980620Y-6260610D01*
G75*
G02*
X6711870Y-6529360I-268750J0D01*
G01*
X5749370Y-6529360D01*
G75*
G02*
X5480620Y-6260610I0J268750D01*
G01*
X5480620Y-5723110D01*
G75*
G02*
X5749370Y-5454360I268750J0D01*
G01*
G37*
G36*
G01*
X5749370Y-3579360D02*
X6711870Y-3579360D01*
G75*
G02*
X6980620Y-3848110I0J-268750D01*
G01*
X6980620Y-4385610D01*
G75*
G02*
X6711870Y-4654360I-268750J0D01*
G01*
X5749370Y-4654360D01*
G75*
G02*
X5480620Y-4385610I0J268750D01*
G01*
X5480620Y-3848110D01*
G75*
G02*
X5749370Y-3579360I268750J0D01*
G01*
G37*
G36*
G01*
X29990000Y-23420000D02*
X29990000Y-22620000D01*
G75*
G02*
X30340000Y-22270000I350000J0D01*
G01*
X31040000Y-22270000D01*
G75*
G02*
X31390000Y-22620000I0J-350000D01*
G01*
X31390000Y-23420000D01*
G75*
G02*
X31040000Y-23770000I-350000J0D01*
G01*
X30340000Y-23770000D01*
G75*
G02*
X29990000Y-23420000I0J350000D01*
G01*
G37*
G36*
G01*
X32890000Y-23420000D02*
X32890000Y-22620000D01*
G75*
G02*
X33240000Y-22270000I350000J0D01*
G01*
X33940000Y-22270000D01*
G75*
G02*
X34290000Y-22620000I0J-350000D01*
G01*
X34290000Y-23420000D01*
G75*
G02*
X33940000Y-23770000I-350000J0D01*
G01*
X33240000Y-23770000D01*
G75*
G02*
X32890000Y-23420000I0J350000D01*
G01*
G37*
G36*
G01*
X34185480Y-20982750D02*
X34185480Y-20020250D01*
G75*
G02*
X34454230Y-19751500I268750J0D01*
G01*
X34991730Y-19751500D01*
G75*
G02*
X35260480Y-20020250I0J-268750D01*
G01*
X35260480Y-20982750D01*
G75*
G02*
X34991730Y-21251500I-268750J0D01*
G01*
X34454230Y-21251500D01*
G75*
G02*
X34185480Y-20982750I0J268750D01*
G01*
G37*
G36*
G01*
X32310480Y-20982750D02*
X32310480Y-20020250D01*
G75*
G02*
X32579230Y-19751500I268750J0D01*
G01*
X33116730Y-19751500D01*
G75*
G02*
X33385480Y-20020250I0J-268750D01*
G01*
X33385480Y-20982750D01*
G75*
G02*
X33116730Y-21251500I-268750J0D01*
G01*
X32579230Y-21251500D01*
G75*
G02*
X32310480Y-20982750I0J268750D01*
G01*
G37*
D15*
X-6370000Y-39370000D03*
D16*
X130000Y-39370000D03*
D17*
X37050000Y-2100000D03*
X38950000Y-2100000D03*
G36*
G01*
X58670000Y-3910000D02*
X58670000Y-3560000D01*
G75*
G02*
X58845000Y-3385000I175000J0D01*
G01*
X60545000Y-3385000D01*
G75*
G02*
X60720000Y-3560000I0J-175000D01*
G01*
X60720000Y-3910000D01*
G75*
G02*
X60545000Y-4085000I-175000J0D01*
G01*
X58845000Y-4085000D01*
G75*
G02*
X58670000Y-3910000I0J175000D01*
G01*
G37*
G36*
G01*
X58670000Y-5180000D02*
X58670000Y-4830000D01*
G75*
G02*
X58845000Y-4655000I175000J0D01*
G01*
X60545000Y-4655000D01*
G75*
G02*
X60720000Y-4830000I0J-175000D01*
G01*
X60720000Y-5180000D01*
G75*
G02*
X60545000Y-5355000I-175000J0D01*
G01*
X58845000Y-5355000D01*
G75*
G02*
X58670000Y-5180000I0J175000D01*
G01*
G37*
G36*
G01*
X58670000Y-6450000D02*
X58670000Y-6100000D01*
G75*
G02*
X58845000Y-5925000I175000J0D01*
G01*
X60545000Y-5925000D01*
G75*
G02*
X60720000Y-6100000I0J-175000D01*
G01*
X60720000Y-6450000D01*
G75*
G02*
X60545000Y-6625000I-175000J0D01*
G01*
X58845000Y-6625000D01*
G75*
G02*
X58670000Y-6450000I0J175000D01*
G01*
G37*
G36*
G01*
X58670000Y-7720000D02*
X58670000Y-7370000D01*
G75*
G02*
X58845000Y-7195000I175000J0D01*
G01*
X60545000Y-7195000D01*
G75*
G02*
X60720000Y-7370000I0J-175000D01*
G01*
X60720000Y-7720000D01*
G75*
G02*
X60545000Y-7895000I-175000J0D01*
G01*
X58845000Y-7895000D01*
G75*
G02*
X58670000Y-7720000I0J175000D01*
G01*
G37*
G36*
G01*
X53720000Y-7720000D02*
X53720000Y-7370000D01*
G75*
G02*
X53895000Y-7195000I175000J0D01*
G01*
X55595000Y-7195000D01*
G75*
G02*
X55770000Y-7370000I0J-175000D01*
G01*
X55770000Y-7720000D01*
G75*
G02*
X55595000Y-7895000I-175000J0D01*
G01*
X53895000Y-7895000D01*
G75*
G02*
X53720000Y-7720000I0J175000D01*
G01*
G37*
G36*
G01*
X53720000Y-6450000D02*
X53720000Y-6100000D01*
G75*
G02*
X53895000Y-5925000I175000J0D01*
G01*
X55595000Y-5925000D01*
G75*
G02*
X55770000Y-6100000I0J-175000D01*
G01*
X55770000Y-6450000D01*
G75*
G02*
X55595000Y-6625000I-175000J0D01*
G01*
X53895000Y-6625000D01*
G75*
G02*
X53720000Y-6450000I0J175000D01*
G01*
G37*
G36*
G01*
X53720000Y-5180000D02*
X53720000Y-4830000D01*
G75*
G02*
X53895000Y-4655000I175000J0D01*
G01*
X55595000Y-4655000D01*
G75*
G02*
X55770000Y-4830000I0J-175000D01*
G01*
X55770000Y-5180000D01*
G75*
G02*
X55595000Y-5355000I-175000J0D01*
G01*
X53895000Y-5355000D01*
G75*
G02*
X53720000Y-5180000I0J175000D01*
G01*
G37*
G36*
G01*
X53720000Y-3910000D02*
X53720000Y-3560000D01*
G75*
G02*
X53895000Y-3385000I175000J0D01*
G01*
X55595000Y-3385000D01*
G75*
G02*
X55770000Y-3560000I0J-175000D01*
G01*
X55770000Y-3910000D01*
G75*
G02*
X55595000Y-4085000I-175000J0D01*
G01*
X53895000Y-4085000D01*
G75*
G02*
X53720000Y-3910000I0J175000D01*
G01*
G37*
G36*
G01*
X13692500Y-54111250D02*
X13692500Y-53148750D01*
G75*
G02*
X13961250Y-52880000I268750J0D01*
G01*
X14498750Y-52880000D01*
G75*
G02*
X14767500Y-53148750I0J-268750D01*
G01*
X14767500Y-54111250D01*
G75*
G02*
X14498750Y-54380000I-268750J0D01*
G01*
X13961250Y-54380000D01*
G75*
G02*
X13692500Y-54111250I0J268750D01*
G01*
G37*
G36*
G01*
X11817500Y-54111250D02*
X11817500Y-53148750D01*
G75*
G02*
X12086250Y-52880000I268750J0D01*
G01*
X12623750Y-52880000D01*
G75*
G02*
X12892500Y-53148750I0J-268750D01*
G01*
X12892500Y-54111250D01*
G75*
G02*
X12623750Y-54380000I-268750J0D01*
G01*
X12086250Y-54380000D01*
G75*
G02*
X11817500Y-54111250I0J268750D01*
G01*
G37*
G36*
G01*
X8190310Y-18210720D02*
X9152810Y-18210720D01*
G75*
G02*
X9421560Y-18479470I0J-268750D01*
G01*
X9421560Y-19016970D01*
G75*
G02*
X9152810Y-19285720I-268750J0D01*
G01*
X8190310Y-19285720D01*
G75*
G02*
X7921560Y-19016970I0J268750D01*
G01*
X7921560Y-18479470D01*
G75*
G02*
X8190310Y-18210720I268750J0D01*
G01*
G37*
G36*
G01*
X8190310Y-16335720D02*
X9152810Y-16335720D01*
G75*
G02*
X9421560Y-16604470I0J-268750D01*
G01*
X9421560Y-17141970D01*
G75*
G02*
X9152810Y-17410720I-268750J0D01*
G01*
X8190310Y-17410720D01*
G75*
G02*
X7921560Y-17141970I0J268750D01*
G01*
X7921560Y-16604470D01*
G75*
G02*
X8190310Y-16335720I268750J0D01*
G01*
G37*
G36*
G01*
X16813610Y-15970200D02*
X17776110Y-15970200D01*
G75*
G02*
X18044860Y-16238950I0J-268750D01*
G01*
X18044860Y-16776450D01*
G75*
G02*
X17776110Y-17045200I-268750J0D01*
G01*
X16813610Y-17045200D01*
G75*
G02*
X16544860Y-16776450I0J268750D01*
G01*
X16544860Y-16238950D01*
G75*
G02*
X16813610Y-15970200I268750J0D01*
G01*
G37*
G36*
G01*
X16813610Y-14095200D02*
X17776110Y-14095200D01*
G75*
G02*
X18044860Y-14363950I0J-268750D01*
G01*
X18044860Y-14901450D01*
G75*
G02*
X17776110Y-15170200I-268750J0D01*
G01*
X16813610Y-15170200D01*
G75*
G02*
X16544860Y-14901450I0J268750D01*
G01*
X16544860Y-14363950D01*
G75*
G02*
X16813610Y-14095200I268750J0D01*
G01*
G37*
G36*
G01*
X8058230Y-22208440D02*
X9020730Y-22208440D01*
G75*
G02*
X9289480Y-22477190I0J-268750D01*
G01*
X9289480Y-23014690D01*
G75*
G02*
X9020730Y-23283440I-268750J0D01*
G01*
X8058230Y-23283440D01*
G75*
G02*
X7789480Y-23014690I0J268750D01*
G01*
X7789480Y-22477190D01*
G75*
G02*
X8058230Y-22208440I268750J0D01*
G01*
G37*
G36*
G01*
X8058230Y-20333440D02*
X9020730Y-20333440D01*
G75*
G02*
X9289480Y-20602190I0J-268750D01*
G01*
X9289480Y-21139690D01*
G75*
G02*
X9020730Y-21408440I-268750J0D01*
G01*
X8058230Y-21408440D01*
G75*
G02*
X7789480Y-21139690I0J268750D01*
G01*
X7789480Y-20602190D01*
G75*
G02*
X8058230Y-20333440I268750J0D01*
G01*
G37*
G36*
G01*
X23623350Y-15995600D02*
X24585850Y-15995600D01*
G75*
G02*
X24854600Y-16264350I0J-268750D01*
G01*
X24854600Y-16801850D01*
G75*
G02*
X24585850Y-17070600I-268750J0D01*
G01*
X23623350Y-17070600D01*
G75*
G02*
X23354600Y-16801850I0J268750D01*
G01*
X23354600Y-16264350D01*
G75*
G02*
X23623350Y-15995600I268750J0D01*
G01*
G37*
G36*
G01*
X23623350Y-14120600D02*
X24585850Y-14120600D01*
G75*
G02*
X24854600Y-14389350I0J-268750D01*
G01*
X24854600Y-14926850D01*
G75*
G02*
X24585850Y-15195600I-268750J0D01*
G01*
X23623350Y-15195600D01*
G75*
G02*
X23354600Y-14926850I0J268750D01*
G01*
X23354600Y-14389350D01*
G75*
G02*
X23623350Y-14120600I268750J0D01*
G01*
G37*
G36*
G01*
X61977500Y-55861250D02*
X61977500Y-54898750D01*
G75*
G02*
X62246250Y-54630000I268750J0D01*
G01*
X62783750Y-54630000D01*
G75*
G02*
X63052500Y-54898750I0J-268750D01*
G01*
X63052500Y-55861250D01*
G75*
G02*
X62783750Y-56130000I-268750J0D01*
G01*
X62246250Y-56130000D01*
G75*
G02*
X61977500Y-55861250I0J268750D01*
G01*
G37*
G36*
G01*
X60102500Y-55861250D02*
X60102500Y-54898750D01*
G75*
G02*
X60371250Y-54630000I268750J0D01*
G01*
X60908750Y-54630000D01*
G75*
G02*
X61177500Y-54898750I0J-268750D01*
G01*
X61177500Y-55861250D01*
G75*
G02*
X60908750Y-56130000I-268750J0D01*
G01*
X60371250Y-56130000D01*
G75*
G02*
X60102500Y-55861250I0J268750D01*
G01*
G37*
G36*
G01*
X61097500Y-52018750D02*
X61097500Y-52981250D01*
G75*
G02*
X60828750Y-53250000I-268750J0D01*
G01*
X60291250Y-53250000D01*
G75*
G02*
X60022500Y-52981250I0J268750D01*
G01*
X60022500Y-52018750D01*
G75*
G02*
X60291250Y-51750000I268750J0D01*
G01*
X60828750Y-51750000D01*
G75*
G02*
X61097500Y-52018750I0J-268750D01*
G01*
G37*
G36*
G01*
X62972500Y-52018750D02*
X62972500Y-52981250D01*
G75*
G02*
X62703750Y-53250000I-268750J0D01*
G01*
X62166250Y-53250000D01*
G75*
G02*
X61897500Y-52981250I0J268750D01*
G01*
X61897500Y-52018750D01*
G75*
G02*
X62166250Y-51750000I268750J0D01*
G01*
X62703750Y-51750000D01*
G75*
G02*
X62972500Y-52018750I0J-268750D01*
G01*
G37*
G36*
G01*
X68678750Y-19000000D02*
X69641250Y-19000000D01*
G75*
G02*
X69910000Y-19268750I0J-268750D01*
G01*
X69910000Y-19806250D01*
G75*
G02*
X69641250Y-20075000I-268750J0D01*
G01*
X68678750Y-20075000D01*
G75*
G02*
X68410000Y-19806250I0J268750D01*
G01*
X68410000Y-19268750D01*
G75*
G02*
X68678750Y-19000000I268750J0D01*
G01*
G37*
G36*
G01*
X68678750Y-17125000D02*
X69641250Y-17125000D01*
G75*
G02*
X69910000Y-17393750I0J-268750D01*
G01*
X69910000Y-17931250D01*
G75*
G02*
X69641250Y-18200000I-268750J0D01*
G01*
X68678750Y-18200000D01*
G75*
G02*
X68410000Y-17931250I0J268750D01*
G01*
X68410000Y-17393750D01*
G75*
G02*
X68678750Y-17125000I268750J0D01*
G01*
G37*
G36*
G01*
X68882500Y-12121250D02*
X68882500Y-11158750D01*
G75*
G02*
X69151250Y-10890000I268750J0D01*
G01*
X69688750Y-10890000D01*
G75*
G02*
X69957500Y-11158750I0J-268750D01*
G01*
X69957500Y-12121250D01*
G75*
G02*
X69688750Y-12390000I-268750J0D01*
G01*
X69151250Y-12390000D01*
G75*
G02*
X68882500Y-12121250I0J268750D01*
G01*
G37*
G36*
G01*
X67007500Y-12121250D02*
X67007500Y-11158750D01*
G75*
G02*
X67276250Y-10890000I268750J0D01*
G01*
X67813750Y-10890000D01*
G75*
G02*
X68082500Y-11158750I0J-268750D01*
G01*
X68082500Y-12121250D01*
G75*
G02*
X67813750Y-12390000I-268750J0D01*
G01*
X67276250Y-12390000D01*
G75*
G02*
X67007500Y-12121250I0J268750D01*
G01*
G37*
G36*
G01*
X64150000Y-18738750D02*
X64150000Y-19701250D01*
G75*
G02*
X63881250Y-19970000I-268750J0D01*
G01*
X63343750Y-19970000D01*
G75*
G02*
X63075000Y-19701250I0J268750D01*
G01*
X63075000Y-18738750D01*
G75*
G02*
X63343750Y-18470000I268750J0D01*
G01*
X63881250Y-18470000D01*
G75*
G02*
X64150000Y-18738750I0J-268750D01*
G01*
G37*
G36*
G01*
X66025000Y-18738750D02*
X66025000Y-19701250D01*
G75*
G02*
X65756250Y-19970000I-268750J0D01*
G01*
X65218750Y-19970000D01*
G75*
G02*
X64950000Y-19701250I0J268750D01*
G01*
X64950000Y-18738750D01*
G75*
G02*
X65218750Y-18470000I268750J0D01*
G01*
X65756250Y-18470000D01*
G75*
G02*
X66025000Y-18738750I0J-268750D01*
G01*
G37*
G36*
G01*
X65641250Y-22990000D02*
X64678750Y-22990000D01*
G75*
G02*
X64410000Y-22721250I0J268750D01*
G01*
X64410000Y-22183750D01*
G75*
G02*
X64678750Y-21915000I268750J0D01*
G01*
X65641250Y-21915000D01*
G75*
G02*
X65910000Y-22183750I0J-268750D01*
G01*
X65910000Y-22721250D01*
G75*
G02*
X65641250Y-22990000I-268750J0D01*
G01*
G37*
G36*
G01*
X65641250Y-24865000D02*
X64678750Y-24865000D01*
G75*
G02*
X64410000Y-24596250I0J268750D01*
G01*
X64410000Y-24058750D01*
G75*
G02*
X64678750Y-23790000I268750J0D01*
G01*
X65641250Y-23790000D01*
G75*
G02*
X65910000Y-24058750I0J-268750D01*
G01*
X65910000Y-24596250D01*
G75*
G02*
X65641250Y-24865000I-268750J0D01*
G01*
G37*
G36*
G01*
X46921250Y340000D02*
X45958750Y340000D01*
G75*
G02*
X45690000Y608750I0J268750D01*
G01*
X45690000Y1146250D01*
G75*
G02*
X45958750Y1415000I268750J0D01*
G01*
X46921250Y1415000D01*
G75*
G02*
X47190000Y1146250I0J-268750D01*
G01*
X47190000Y608750D01*
G75*
G02*
X46921250Y340000I-268750J0D01*
G01*
G37*
G36*
G01*
X46921250Y-1535000D02*
X45958750Y-1535000D01*
G75*
G02*
X45690000Y-1266250I0J268750D01*
G01*
X45690000Y-728750D01*
G75*
G02*
X45958750Y-460000I268750J0D01*
G01*
X46921250Y-460000D01*
G75*
G02*
X47190000Y-728750I0J-268750D01*
G01*
X47190000Y-1266250D01*
G75*
G02*
X46921250Y-1535000I-268750J0D01*
G01*
G37*
G36*
G01*
X44832430Y-3910000D02*
X43869930Y-3910000D01*
G75*
G02*
X43601180Y-3641250I0J268750D01*
G01*
X43601180Y-3103750D01*
G75*
G02*
X43869930Y-2835000I268750J0D01*
G01*
X44832430Y-2835000D01*
G75*
G02*
X45101180Y-3103750I0J-268750D01*
G01*
X45101180Y-3641250D01*
G75*
G02*
X44832430Y-3910000I-268750J0D01*
G01*
G37*
G36*
G01*
X44832430Y-5785000D02*
X43869930Y-5785000D01*
G75*
G02*
X43601180Y-5516250I0J268750D01*
G01*
X43601180Y-4978750D01*
G75*
G02*
X43869930Y-4710000I268750J0D01*
G01*
X44832430Y-4710000D01*
G75*
G02*
X45101180Y-4978750I0J-268750D01*
G01*
X45101180Y-5516250D01*
G75*
G02*
X44832430Y-5785000I-268750J0D01*
G01*
G37*
G36*
G01*
X64210000Y-5051250D02*
X64210000Y-4088750D01*
G75*
G02*
X64478750Y-3820000I268750J0D01*
G01*
X65016250Y-3820000D01*
G75*
G02*
X65285000Y-4088750I0J-268750D01*
G01*
X65285000Y-5051250D01*
G75*
G02*
X65016250Y-5320000I-268750J0D01*
G01*
X64478750Y-5320000D01*
G75*
G02*
X64210000Y-5051250I0J268750D01*
G01*
G37*
G36*
G01*
X62335000Y-5051250D02*
X62335000Y-4088750D01*
G75*
G02*
X62603750Y-3820000I268750J0D01*
G01*
X63141250Y-3820000D01*
G75*
G02*
X63410000Y-4088750I0J-268750D01*
G01*
X63410000Y-5051250D01*
G75*
G02*
X63141250Y-5320000I-268750J0D01*
G01*
X62603750Y-5320000D01*
G75*
G02*
X62335000Y-5051250I0J268750D01*
G01*
G37*
G36*
G01*
X13323650Y-15942260D02*
X14286150Y-15942260D01*
G75*
G02*
X14554900Y-16211010I0J-268750D01*
G01*
X14554900Y-16748510D01*
G75*
G02*
X14286150Y-17017260I-268750J0D01*
G01*
X13323650Y-17017260D01*
G75*
G02*
X13054900Y-16748510I0J268750D01*
G01*
X13054900Y-16211010D01*
G75*
G02*
X13323650Y-15942260I268750J0D01*
G01*
G37*
G36*
G01*
X13323650Y-14067260D02*
X14286150Y-14067260D01*
G75*
G02*
X14554900Y-14336010I0J-268750D01*
G01*
X14554900Y-14873510D01*
G75*
G02*
X14286150Y-15142260I-268750J0D01*
G01*
X13323650Y-15142260D01*
G75*
G02*
X13054900Y-14873510I0J268750D01*
G01*
X13054900Y-14336010D01*
G75*
G02*
X13323650Y-14067260I268750J0D01*
G01*
G37*
G36*
G01*
X8020130Y-27133260D02*
X8982630Y-27133260D01*
G75*
G02*
X9251380Y-27402010I0J-268750D01*
G01*
X9251380Y-27939510D01*
G75*
G02*
X8982630Y-28208260I-268750J0D01*
G01*
X8020130Y-28208260D01*
G75*
G02*
X7751380Y-27939510I0J268750D01*
G01*
X7751380Y-27402010D01*
G75*
G02*
X8020130Y-27133260I268750J0D01*
G01*
G37*
G36*
G01*
X8020130Y-25258260D02*
X8982630Y-25258260D01*
G75*
G02*
X9251380Y-25527010I0J-268750D01*
G01*
X9251380Y-26064510D01*
G75*
G02*
X8982630Y-26333260I-268750J0D01*
G01*
X8020130Y-26333260D01*
G75*
G02*
X7751380Y-26064510I0J268750D01*
G01*
X7751380Y-25527010D01*
G75*
G02*
X8020130Y-25258260I268750J0D01*
G01*
G37*
G36*
G01*
X20245150Y-15995600D02*
X21207650Y-15995600D01*
G75*
G02*
X21476400Y-16264350I0J-268750D01*
G01*
X21476400Y-16801850D01*
G75*
G02*
X21207650Y-17070600I-268750J0D01*
G01*
X20245150Y-17070600D01*
G75*
G02*
X19976400Y-16801850I0J268750D01*
G01*
X19976400Y-16264350D01*
G75*
G02*
X20245150Y-15995600I268750J0D01*
G01*
G37*
G36*
G01*
X20245150Y-14120600D02*
X21207650Y-14120600D01*
G75*
G02*
X21476400Y-14389350I0J-268750D01*
G01*
X21476400Y-14926850D01*
G75*
G02*
X21207650Y-15195600I-268750J0D01*
G01*
X20245150Y-15195600D01*
G75*
G02*
X19976400Y-14926850I0J268750D01*
G01*
X19976400Y-14389350D01*
G75*
G02*
X20245150Y-14120600I268750J0D01*
G01*
G37*
G36*
G01*
X26917730Y-15995600D02*
X27880230Y-15995600D01*
G75*
G02*
X28148980Y-16264350I0J-268750D01*
G01*
X28148980Y-16801850D01*
G75*
G02*
X27880230Y-17070600I-268750J0D01*
G01*
X26917730Y-17070600D01*
G75*
G02*
X26648980Y-16801850I0J268750D01*
G01*
X26648980Y-16264350D01*
G75*
G02*
X26917730Y-15995600I268750J0D01*
G01*
G37*
G36*
G01*
X26917730Y-14120600D02*
X27880230Y-14120600D01*
G75*
G02*
X28148980Y-14389350I0J-268750D01*
G01*
X28148980Y-14926850D01*
G75*
G02*
X27880230Y-15195600I-268750J0D01*
G01*
X26917730Y-15195600D01*
G75*
G02*
X26648980Y-14926850I0J268750D01*
G01*
X26648980Y-14389350D01*
G75*
G02*
X26917730Y-14120600I268750J0D01*
G01*
G37*
D18*
X5420360Y-8524060D03*
X6370360Y-10724060D03*
X4470360Y-10724060D03*
X10492740Y-8694240D03*
X11442740Y-10894240D03*
X9542740Y-10894240D03*
X20594320Y-8808540D03*
X21544320Y-11008540D03*
X19644320Y-11008540D03*
X15562580Y-8734880D03*
X16512580Y-10934880D03*
X14612580Y-10934880D03*
X25859740Y-8831400D03*
X26809740Y-11031400D03*
X24909740Y-11031400D03*
D19*
X6630000Y-53920000D03*
D20*
X6630000Y-51380000D03*
X5360000Y-52650000D03*
D21*
X64720000Y-860000D03*
X63320000Y-860000D03*
D22*
X51350000Y810000D03*
X51350000Y-590000D03*
D23*
X58453500Y-44409840D03*
X58453500Y-41869840D03*
X55913500Y-44409840D03*
X55913500Y-41869840D03*
X48293500Y-41869840D03*
X48293500Y-44409840D03*
X50833500Y-41869840D03*
X50833500Y-44409840D03*
X53373500Y-41869840D03*
X53373500Y-44409840D03*
X40673500Y-41869840D03*
X35593500Y-44409840D03*
X38133500Y-41869840D03*
X40673500Y-44409840D03*
D24*
X35593500Y-41869840D03*
D23*
X43213500Y-41869840D03*
X43213500Y-44409840D03*
X45753500Y-41869840D03*
X45753500Y-44409840D03*
X38133500Y-44409840D03*
G36*
G01*
X67938750Y-3820000D02*
X68901250Y-3820000D01*
G75*
G02*
X69170000Y-4088750I0J-268750D01*
G01*
X69170000Y-4626250D01*
G75*
G02*
X68901250Y-4895000I-268750J0D01*
G01*
X67938750Y-4895000D01*
G75*
G02*
X67670000Y-4626250I0J268750D01*
G01*
X67670000Y-4088750D01*
G75*
G02*
X67938750Y-3820000I268750J0D01*
G01*
G37*
G36*
G01*
X67938750Y-1945000D02*
X68901250Y-1945000D01*
G75*
G02*
X69170000Y-2213750I0J-268750D01*
G01*
X69170000Y-2751250D01*
G75*
G02*
X68901250Y-3020000I-268750J0D01*
G01*
X67938750Y-3020000D01*
G75*
G02*
X67670000Y-2751250I0J268750D01*
G01*
X67670000Y-2213750D01*
G75*
G02*
X67938750Y-1945000I268750J0D01*
G01*
G37*
G36*
G01*
X68122500Y-14018750D02*
X68122500Y-14981250D01*
G75*
G02*
X67853750Y-15250000I-268750J0D01*
G01*
X67316250Y-15250000D01*
G75*
G02*
X67047500Y-14981250I0J268750D01*
G01*
X67047500Y-14018750D01*
G75*
G02*
X67316250Y-13750000I268750J0D01*
G01*
X67853750Y-13750000D01*
G75*
G02*
X68122500Y-14018750I0J-268750D01*
G01*
G37*
G36*
G01*
X69997500Y-14018750D02*
X69997500Y-14981250D01*
G75*
G02*
X69728750Y-15250000I-268750J0D01*
G01*
X69191250Y-15250000D01*
G75*
G02*
X68922500Y-14981250I0J268750D01*
G01*
X68922500Y-14018750D01*
G75*
G02*
X69191250Y-13750000I268750J0D01*
G01*
X69728750Y-13750000D01*
G75*
G02*
X69997500Y-14018750I0J-268750D01*
G01*
G37*
G36*
G01*
X42271250Y450000D02*
X41308750Y450000D01*
G75*
G02*
X41040000Y718750I0J268750D01*
G01*
X41040000Y1256250D01*
G75*
G02*
X41308750Y1525000I268750J0D01*
G01*
X42271250Y1525000D01*
G75*
G02*
X42540000Y1256250I0J-268750D01*
G01*
X42540000Y718750D01*
G75*
G02*
X42271250Y450000I-268750J0D01*
G01*
G37*
G36*
G01*
X42271250Y-1425000D02*
X41308750Y-1425000D01*
G75*
G02*
X41040000Y-1156250I0J268750D01*
G01*
X41040000Y-618750D01*
G75*
G02*
X41308750Y-350000I268750J0D01*
G01*
X42271250Y-350000D01*
G75*
G02*
X42540000Y-618750I0J-268750D01*
G01*
X42540000Y-1156250D01*
G75*
G02*
X42271250Y-1425000I-268750J0D01*
G01*
G37*
G36*
G01*
X43816590Y-8189800D02*
X44779090Y-8189800D01*
G75*
G02*
X45047840Y-8458550I0J-268750D01*
G01*
X45047840Y-8996050D01*
G75*
G02*
X44779090Y-9264800I-268750J0D01*
G01*
X43816590Y-9264800D01*
G75*
G02*
X43547840Y-8996050I0J268750D01*
G01*
X43547840Y-8458550D01*
G75*
G02*
X43816590Y-8189800I268750J0D01*
G01*
G37*
G36*
G01*
X43816590Y-6314800D02*
X44779090Y-6314800D01*
G75*
G02*
X45047840Y-6583550I0J-268750D01*
G01*
X45047840Y-7121050D01*
G75*
G02*
X44779090Y-7389800I-268750J0D01*
G01*
X43816590Y-7389800D01*
G75*
G02*
X43547840Y-7121050I0J268750D01*
G01*
X43547840Y-6583550D01*
G75*
G02*
X43816590Y-6314800I268750J0D01*
G01*
G37*
D25*
X38692000Y-53340000D03*
X36492000Y-54290000D03*
X36492000Y-52390000D03*
G36*
G01*
X43410000Y-17428750D02*
X43410000Y-18391250D01*
G75*
G02*
X43141250Y-18660000I-268750J0D01*
G01*
X42603750Y-18660000D01*
G75*
G02*
X42335000Y-18391250I0J268750D01*
G01*
X42335000Y-17428750D01*
G75*
G02*
X42603750Y-17160000I268750J0D01*
G01*
X43141250Y-17160000D01*
G75*
G02*
X43410000Y-17428750I0J-268750D01*
G01*
G37*
G36*
G01*
X45285000Y-17428750D02*
X45285000Y-18391250D01*
G75*
G02*
X45016250Y-18660000I-268750J0D01*
G01*
X44478750Y-18660000D01*
G75*
G02*
X44210000Y-18391250I0J268750D01*
G01*
X44210000Y-17428750D01*
G75*
G02*
X44478750Y-17160000I268750J0D01*
G01*
X45016250Y-17160000D01*
G75*
G02*
X45285000Y-17428750I0J-268750D01*
G01*
G37*
G36*
G01*
X49120000Y-17228750D02*
X49120000Y-18191250D01*
G75*
G02*
X48851250Y-18460000I-268750J0D01*
G01*
X48313750Y-18460000D01*
G75*
G02*
X48045000Y-18191250I0J268750D01*
G01*
X48045000Y-17228750D01*
G75*
G02*
X48313750Y-16960000I268750J0D01*
G01*
X48851250Y-16960000D01*
G75*
G02*
X49120000Y-17228750I0J-268750D01*
G01*
G37*
G36*
G01*
X50995000Y-17228750D02*
X50995000Y-18191250D01*
G75*
G02*
X50726250Y-18460000I-268750J0D01*
G01*
X50188750Y-18460000D01*
G75*
G02*
X49920000Y-18191250I0J268750D01*
G01*
X49920000Y-17228750D01*
G75*
G02*
X50188750Y-16960000I268750J0D01*
G01*
X50726250Y-16960000D01*
G75*
G02*
X50995000Y-17228750I0J-268750D01*
G01*
G37*
G36*
G01*
X54570680Y-17018750D02*
X54570680Y-17981250D01*
G75*
G02*
X54301930Y-18250000I-268750J0D01*
G01*
X53764430Y-18250000D01*
G75*
G02*
X53495680Y-17981250I0J268750D01*
G01*
X53495680Y-17018750D01*
G75*
G02*
X53764430Y-16750000I268750J0D01*
G01*
X54301930Y-16750000D01*
G75*
G02*
X54570680Y-17018750I0J-268750D01*
G01*
G37*
G36*
G01*
X56445680Y-17018750D02*
X56445680Y-17981250D01*
G75*
G02*
X56176930Y-18250000I-268750J0D01*
G01*
X55639430Y-18250000D01*
G75*
G02*
X55370680Y-17981250I0J268750D01*
G01*
X55370680Y-17018750D01*
G75*
G02*
X55639430Y-16750000I268750J0D01*
G01*
X56176930Y-16750000D01*
G75*
G02*
X56445680Y-17018750I0J-268750D01*
G01*
G37*
G36*
G01*
X59841420Y-17090470D02*
X59841420Y-18052970D01*
G75*
G02*
X59572670Y-18321720I-268750J0D01*
G01*
X59035170Y-18321720D01*
G75*
G02*
X58766420Y-18052970I0J268750D01*
G01*
X58766420Y-17090470D01*
G75*
G02*
X59035170Y-16821720I268750J0D01*
G01*
X59572670Y-16821720D01*
G75*
G02*
X59841420Y-17090470I0J-268750D01*
G01*
G37*
G36*
G01*
X61716420Y-17090470D02*
X61716420Y-18052970D01*
G75*
G02*
X61447670Y-18321720I-268750J0D01*
G01*
X60910170Y-18321720D01*
G75*
G02*
X60641420Y-18052970I0J268750D01*
G01*
X60641420Y-17090470D01*
G75*
G02*
X60910170Y-16821720I268750J0D01*
G01*
X61447670Y-16821720D01*
G75*
G02*
X61716420Y-17090470I0J-268750D01*
G01*
G37*
G36*
G01*
X43991240Y-15759350D02*
X43991240Y-14796850D01*
G75*
G02*
X44259990Y-14528100I268750J0D01*
G01*
X44797490Y-14528100D01*
G75*
G02*
X45066240Y-14796850I0J-268750D01*
G01*
X45066240Y-15759350D01*
G75*
G02*
X44797490Y-16028100I-268750J0D01*
G01*
X44259990Y-16028100D01*
G75*
G02*
X43991240Y-15759350I0J268750D01*
G01*
G37*
G36*
G01*
X42116240Y-15759350D02*
X42116240Y-14796850D01*
G75*
G02*
X42384990Y-14528100I268750J0D01*
G01*
X42922490Y-14528100D01*
G75*
G02*
X43191240Y-14796850I0J-268750D01*
G01*
X43191240Y-15759350D01*
G75*
G02*
X42922490Y-16028100I-268750J0D01*
G01*
X42384990Y-16028100D01*
G75*
G02*
X42116240Y-15759350I0J268750D01*
G01*
G37*
G36*
G01*
X49693780Y-15698390D02*
X49693780Y-14735890D01*
G75*
G02*
X49962530Y-14467140I268750J0D01*
G01*
X50500030Y-14467140D01*
G75*
G02*
X50768780Y-14735890I0J-268750D01*
G01*
X50768780Y-15698390D01*
G75*
G02*
X50500030Y-15967140I-268750J0D01*
G01*
X49962530Y-15967140D01*
G75*
G02*
X49693780Y-15698390I0J268750D01*
G01*
G37*
G36*
G01*
X47818780Y-15698390D02*
X47818780Y-14735890D01*
G75*
G02*
X48087530Y-14467140I268750J0D01*
G01*
X48625030Y-14467140D01*
G75*
G02*
X48893780Y-14735890I0J-268750D01*
G01*
X48893780Y-15698390D01*
G75*
G02*
X48625030Y-15967140I-268750J0D01*
G01*
X48087530Y-15967140D01*
G75*
G02*
X47818780Y-15698390I0J268750D01*
G01*
G37*
G36*
G01*
X55370680Y-15512970D02*
X55370680Y-14550470D01*
G75*
G02*
X55639430Y-14281720I268750J0D01*
G01*
X56176930Y-14281720D01*
G75*
G02*
X56445680Y-14550470I0J-268750D01*
G01*
X56445680Y-15512970D01*
G75*
G02*
X56176930Y-15781720I-268750J0D01*
G01*
X55639430Y-15781720D01*
G75*
G02*
X55370680Y-15512970I0J268750D01*
G01*
G37*
G36*
G01*
X53495680Y-15512970D02*
X53495680Y-14550470D01*
G75*
G02*
X53764430Y-14281720I268750J0D01*
G01*
X54301930Y-14281720D01*
G75*
G02*
X54570680Y-14550470I0J-268750D01*
G01*
X54570680Y-15512970D01*
G75*
G02*
X54301930Y-15781720I-268750J0D01*
G01*
X53764430Y-15781720D01*
G75*
G02*
X53495680Y-15512970I0J268750D01*
G01*
G37*
G36*
G01*
X60544420Y-15512970D02*
X60544420Y-14550470D01*
G75*
G02*
X60813170Y-14281720I268750J0D01*
G01*
X61350670Y-14281720D01*
G75*
G02*
X61619420Y-14550470I0J-268750D01*
G01*
X61619420Y-15512970D01*
G75*
G02*
X61350670Y-15781720I-268750J0D01*
G01*
X60813170Y-15781720D01*
G75*
G02*
X60544420Y-15512970I0J268750D01*
G01*
G37*
G36*
G01*
X58669420Y-15512970D02*
X58669420Y-14550470D01*
G75*
G02*
X58938170Y-14281720I268750J0D01*
G01*
X59475670Y-14281720D01*
G75*
G02*
X59744420Y-14550470I0J-268750D01*
G01*
X59744420Y-15512970D01*
G75*
G02*
X59475670Y-15781720I-268750J0D01*
G01*
X58938170Y-15781720D01*
G75*
G02*
X58669420Y-15512970I0J268750D01*
G01*
G37*
G36*
G01*
X10397570Y-5523180D02*
X11360070Y-5523180D01*
G75*
G02*
X11628820Y-5791930I0J-268750D01*
G01*
X11628820Y-6329430D01*
G75*
G02*
X11360070Y-6598180I-268750J0D01*
G01*
X10397570Y-6598180D01*
G75*
G02*
X10128820Y-6329430I0J268750D01*
G01*
X10128820Y-5791930D01*
G75*
G02*
X10397570Y-5523180I268750J0D01*
G01*
G37*
G36*
G01*
X10397570Y-3648180D02*
X11360070Y-3648180D01*
G75*
G02*
X11628820Y-3916930I0J-268750D01*
G01*
X11628820Y-4454430D01*
G75*
G02*
X11360070Y-4723180I-268750J0D01*
G01*
X10397570Y-4723180D01*
G75*
G02*
X10128820Y-4454430I0J268750D01*
G01*
X10128820Y-3916930D01*
G75*
G02*
X10397570Y-3648180I268750J0D01*
G01*
G37*
G36*
G01*
X15403910Y-5495000D02*
X16366410Y-5495000D01*
G75*
G02*
X16635160Y-5763750I0J-268750D01*
G01*
X16635160Y-6301250D01*
G75*
G02*
X16366410Y-6570000I-268750J0D01*
G01*
X15403910Y-6570000D01*
G75*
G02*
X15135160Y-6301250I0J268750D01*
G01*
X15135160Y-5763750D01*
G75*
G02*
X15403910Y-5495000I268750J0D01*
G01*
G37*
G36*
G01*
X15403910Y-3620000D02*
X16366410Y-3620000D01*
G75*
G02*
X16635160Y-3888750I0J-268750D01*
G01*
X16635160Y-4426250D01*
G75*
G02*
X16366410Y-4695000I-268750J0D01*
G01*
X15403910Y-4695000D01*
G75*
G02*
X15135160Y-4426250I0J268750D01*
G01*
X15135160Y-3888750D01*
G75*
G02*
X15403910Y-3620000I268750J0D01*
G01*
G37*
G36*
G01*
X19958130Y-5601680D02*
X20920630Y-5601680D01*
G75*
G02*
X21189380Y-5870430I0J-268750D01*
G01*
X21189380Y-6407930D01*
G75*
G02*
X20920630Y-6676680I-268750J0D01*
G01*
X19958130Y-6676680D01*
G75*
G02*
X19689380Y-6407930I0J268750D01*
G01*
X19689380Y-5870430D01*
G75*
G02*
X19958130Y-5601680I268750J0D01*
G01*
G37*
G36*
G01*
X19958130Y-3726680D02*
X20920630Y-3726680D01*
G75*
G02*
X21189380Y-3995430I0J-268750D01*
G01*
X21189380Y-4532930D01*
G75*
G02*
X20920630Y-4801680I-268750J0D01*
G01*
X19958130Y-4801680D01*
G75*
G02*
X19689380Y-4532930I0J268750D01*
G01*
X19689380Y-3995430D01*
G75*
G02*
X19958130Y-3726680I268750J0D01*
G01*
G37*
G36*
G01*
X25221010Y-5650180D02*
X26183510Y-5650180D01*
G75*
G02*
X26452260Y-5918930I0J-268750D01*
G01*
X26452260Y-6456430D01*
G75*
G02*
X26183510Y-6725180I-268750J0D01*
G01*
X25221010Y-6725180D01*
G75*
G02*
X24952260Y-6456430I0J268750D01*
G01*
X24952260Y-5918930D01*
G75*
G02*
X25221010Y-5650180I268750J0D01*
G01*
G37*
G36*
G01*
X25221010Y-3775180D02*
X26183510Y-3775180D01*
G75*
G02*
X26452260Y-4043930I0J-268750D01*
G01*
X26452260Y-4581430D01*
G75*
G02*
X26183510Y-4850180I-268750J0D01*
G01*
X25221010Y-4850180D01*
G75*
G02*
X24952260Y-4581430I0J268750D01*
G01*
X24952260Y-4043930D01*
G75*
G02*
X25221010Y-3775180I268750J0D01*
G01*
G37*
G36*
G01*
X32620000Y-51842750D02*
X32620000Y-52805250D01*
G75*
G02*
X32351250Y-53074000I-268750J0D01*
G01*
X31813750Y-53074000D01*
G75*
G02*
X31545000Y-52805250I0J268750D01*
G01*
X31545000Y-51842750D01*
G75*
G02*
X31813750Y-51574000I268750J0D01*
G01*
X32351250Y-51574000D01*
G75*
G02*
X32620000Y-51842750I0J-268750D01*
G01*
G37*
G36*
G01*
X34495000Y-51842750D02*
X34495000Y-52805250D01*
G75*
G02*
X34226250Y-53074000I-268750J0D01*
G01*
X33688750Y-53074000D01*
G75*
G02*
X33420000Y-52805250I0J268750D01*
G01*
X33420000Y-51842750D01*
G75*
G02*
X33688750Y-51574000I268750J0D01*
G01*
X34226250Y-51574000D01*
G75*
G02*
X34495000Y-51842750I0J-268750D01*
G01*
G37*
G36*
G01*
X52099020Y-29998750D02*
X52099020Y-30961250D01*
G75*
G02*
X51830270Y-31230000I-268750J0D01*
G01*
X51292770Y-31230000D01*
G75*
G02*
X51024020Y-30961250I0J268750D01*
G01*
X51024020Y-29998750D01*
G75*
G02*
X51292770Y-29730000I268750J0D01*
G01*
X51830270Y-29730000D01*
G75*
G02*
X52099020Y-29998750I0J-268750D01*
G01*
G37*
G36*
G01*
X53974020Y-29998750D02*
X53974020Y-30961250D01*
G75*
G02*
X53705270Y-31230000I-268750J0D01*
G01*
X53167770Y-31230000D01*
G75*
G02*
X52899020Y-30961250I0J268750D01*
G01*
X52899020Y-29998750D01*
G75*
G02*
X53167770Y-29730000I268750J0D01*
G01*
X53705270Y-29730000D01*
G75*
G02*
X53974020Y-29998750I0J-268750D01*
G01*
G37*
G36*
G01*
X45398500Y-30036850D02*
X45398500Y-30999350D01*
G75*
G02*
X45129750Y-31268100I-268750J0D01*
G01*
X44592250Y-31268100D01*
G75*
G02*
X44323500Y-30999350I0J268750D01*
G01*
X44323500Y-30036850D01*
G75*
G02*
X44592250Y-29768100I268750J0D01*
G01*
X45129750Y-29768100D01*
G75*
G02*
X45398500Y-30036850I0J-268750D01*
G01*
G37*
G36*
G01*
X47273500Y-30036850D02*
X47273500Y-30999350D01*
G75*
G02*
X47004750Y-31268100I-268750J0D01*
G01*
X46467250Y-31268100D01*
G75*
G02*
X46198500Y-30999350I0J268750D01*
G01*
X46198500Y-30036850D01*
G75*
G02*
X46467250Y-29768100I268750J0D01*
G01*
X47004750Y-29768100D01*
G75*
G02*
X47273500Y-30036850I0J-268750D01*
G01*
G37*
G36*
G01*
X38609320Y-29958110D02*
X38609320Y-30920610D01*
G75*
G02*
X38340570Y-31189360I-268750J0D01*
G01*
X37803070Y-31189360D01*
G75*
G02*
X37534320Y-30920610I0J268750D01*
G01*
X37534320Y-29958110D01*
G75*
G02*
X37803070Y-29689360I268750J0D01*
G01*
X38340570Y-29689360D01*
G75*
G02*
X38609320Y-29958110I0J-268750D01*
G01*
G37*
G36*
G01*
X40484320Y-29958110D02*
X40484320Y-30920610D01*
G75*
G02*
X40215570Y-31189360I-268750J0D01*
G01*
X39678070Y-31189360D01*
G75*
G02*
X39409320Y-30920610I0J268750D01*
G01*
X39409320Y-29958110D01*
G75*
G02*
X39678070Y-29689360I268750J0D01*
G01*
X40215570Y-29689360D01*
G75*
G02*
X40484320Y-29958110I0J-268750D01*
G01*
G37*
G36*
G01*
X31848080Y-29879370D02*
X31848080Y-30841870D01*
G75*
G02*
X31579330Y-31110620I-268750J0D01*
G01*
X31041830Y-31110620D01*
G75*
G02*
X30773080Y-30841870I0J268750D01*
G01*
X30773080Y-29879370D01*
G75*
G02*
X31041830Y-29610620I268750J0D01*
G01*
X31579330Y-29610620D01*
G75*
G02*
X31848080Y-29879370I0J-268750D01*
G01*
G37*
G36*
G01*
X33723080Y-29879370D02*
X33723080Y-30841870D01*
G75*
G02*
X33454330Y-31110620I-268750J0D01*
G01*
X32916830Y-31110620D01*
G75*
G02*
X32648080Y-30841870I0J268750D01*
G01*
X32648080Y-29879370D01*
G75*
G02*
X32916830Y-29610620I268750J0D01*
G01*
X33454330Y-29610620D01*
G75*
G02*
X33723080Y-29879370I0J-268750D01*
G01*
G37*
G36*
G01*
X56361250Y-33382000D02*
X55398750Y-33382000D01*
G75*
G02*
X55130000Y-33113250I0J268750D01*
G01*
X55130000Y-32575750D01*
G75*
G02*
X55398750Y-32307000I268750J0D01*
G01*
X56361250Y-32307000D01*
G75*
G02*
X56630000Y-32575750I0J-268750D01*
G01*
X56630000Y-33113250D01*
G75*
G02*
X56361250Y-33382000I-268750J0D01*
G01*
G37*
G36*
G01*
X56361250Y-35257000D02*
X55398750Y-35257000D01*
G75*
G02*
X55130000Y-34988250I0J268750D01*
G01*
X55130000Y-34450750D01*
G75*
G02*
X55398750Y-34182000I268750J0D01*
G01*
X56361250Y-34182000D01*
G75*
G02*
X56630000Y-34450750I0J-268750D01*
G01*
X56630000Y-34988250D01*
G75*
G02*
X56361250Y-35257000I-268750J0D01*
G01*
G37*
G36*
G01*
X49457530Y-33275320D02*
X48495030Y-33275320D01*
G75*
G02*
X48226280Y-33006570I0J268750D01*
G01*
X48226280Y-32469070D01*
G75*
G02*
X48495030Y-32200320I268750J0D01*
G01*
X49457530Y-32200320D01*
G75*
G02*
X49726280Y-32469070I0J-268750D01*
G01*
X49726280Y-33006570D01*
G75*
G02*
X49457530Y-33275320I-268750J0D01*
G01*
G37*
G36*
G01*
X49457530Y-35150320D02*
X48495030Y-35150320D01*
G75*
G02*
X48226280Y-34881570I0J268750D01*
G01*
X48226280Y-34344070D01*
G75*
G02*
X48495030Y-34075320I268750J0D01*
G01*
X49457530Y-34075320D01*
G75*
G02*
X49726280Y-34344070I0J-268750D01*
G01*
X49726280Y-34881570D01*
G75*
G02*
X49457530Y-35150320I-268750J0D01*
G01*
G37*
G36*
G01*
X42823050Y-33382000D02*
X41860550Y-33382000D01*
G75*
G02*
X41591800Y-33113250I0J268750D01*
G01*
X41591800Y-32575750D01*
G75*
G02*
X41860550Y-32307000I268750J0D01*
G01*
X42823050Y-32307000D01*
G75*
G02*
X43091800Y-32575750I0J-268750D01*
G01*
X43091800Y-33113250D01*
G75*
G02*
X42823050Y-33382000I-268750J0D01*
G01*
G37*
G36*
G01*
X42823050Y-35257000D02*
X41860550Y-35257000D01*
G75*
G02*
X41591800Y-34988250I0J268750D01*
G01*
X41591800Y-34450750D01*
G75*
G02*
X41860550Y-34182000I268750J0D01*
G01*
X42823050Y-34182000D01*
G75*
G02*
X43091800Y-34450750I0J-268750D01*
G01*
X43091800Y-34988250D01*
G75*
G02*
X42823050Y-35257000I-268750J0D01*
G01*
G37*
G36*
G01*
X36295250Y-33382000D02*
X35332750Y-33382000D01*
G75*
G02*
X35064000Y-33113250I0J268750D01*
G01*
X35064000Y-32575750D01*
G75*
G02*
X35332750Y-32307000I268750J0D01*
G01*
X36295250Y-32307000D01*
G75*
G02*
X36564000Y-32575750I0J-268750D01*
G01*
X36564000Y-33113250D01*
G75*
G02*
X36295250Y-33382000I-268750J0D01*
G01*
G37*
G36*
G01*
X36295250Y-35257000D02*
X35332750Y-35257000D01*
G75*
G02*
X35064000Y-34988250I0J268750D01*
G01*
X35064000Y-34450750D01*
G75*
G02*
X35332750Y-34182000I268750J0D01*
G01*
X36295250Y-34182000D01*
G75*
G02*
X36564000Y-34450750I0J-268750D01*
G01*
X36564000Y-34988250D01*
G75*
G02*
X36295250Y-35257000I-268750J0D01*
G01*
G37*
D26*
X2489960Y-17965420D03*
X4489960Y-17015420D03*
X4489960Y-18915420D03*
X2691380Y-22021760D03*
X4691380Y-21071760D03*
X4691380Y-22971760D03*
X2629660Y-27371040D03*
X4629660Y-26421040D03*
X4629660Y-28321040D03*
X51578000Y-33782000D03*
X53578000Y-32832000D03*
X53578000Y-34732000D03*
X44720000Y-33782000D03*
X46720000Y-32832000D03*
X46720000Y-34732000D03*
X38116000Y-33782000D03*
X40116000Y-32832000D03*
X40116000Y-34732000D03*
X31512000Y-33782000D03*
X33512000Y-32832000D03*
X33512000Y-34732000D03*
G36*
G01*
X41850000Y-23400000D02*
X41850000Y-22600000D01*
G75*
G02*
X42200000Y-22250000I350000J0D01*
G01*
X42900000Y-22250000D01*
G75*
G02*
X43250000Y-22600000I0J-350000D01*
G01*
X43250000Y-23400000D01*
G75*
G02*
X42900000Y-23750000I-350000J0D01*
G01*
X42200000Y-23750000D01*
G75*
G02*
X41850000Y-23400000I0J350000D01*
G01*
G37*
G36*
G01*
X44750000Y-23400000D02*
X44750000Y-22600000D01*
G75*
G02*
X45100000Y-22250000I350000J0D01*
G01*
X45800000Y-22250000D01*
G75*
G02*
X46150000Y-22600000I0J-350000D01*
G01*
X46150000Y-23400000D01*
G75*
G02*
X45800000Y-23750000I-350000J0D01*
G01*
X45100000Y-23750000D01*
G75*
G02*
X44750000Y-23400000I0J350000D01*
G01*
G37*
G36*
G01*
X47320000Y-23220000D02*
X47320000Y-22420000D01*
G75*
G02*
X47670000Y-22070000I350000J0D01*
G01*
X48370000Y-22070000D01*
G75*
G02*
X48720000Y-22420000I0J-350000D01*
G01*
X48720000Y-23220000D01*
G75*
G02*
X48370000Y-23570000I-350000J0D01*
G01*
X47670000Y-23570000D01*
G75*
G02*
X47320000Y-23220000I0J350000D01*
G01*
G37*
G36*
G01*
X50220000Y-23220000D02*
X50220000Y-22420000D01*
G75*
G02*
X50570000Y-22070000I350000J0D01*
G01*
X51270000Y-22070000D01*
G75*
G02*
X51620000Y-22420000I0J-350000D01*
G01*
X51620000Y-23220000D01*
G75*
G02*
X51270000Y-23570000I-350000J0D01*
G01*
X50570000Y-23570000D01*
G75*
G02*
X50220000Y-23220000I0J350000D01*
G01*
G37*
G36*
G01*
X52860980Y-23110140D02*
X52860980Y-22310140D01*
G75*
G02*
X53210980Y-21960140I350000J0D01*
G01*
X53910980Y-21960140D01*
G75*
G02*
X54260980Y-22310140I0J-350000D01*
G01*
X54260980Y-23110140D01*
G75*
G02*
X53910980Y-23460140I-350000J0D01*
G01*
X53210980Y-23460140D01*
G75*
G02*
X52860980Y-23110140I0J350000D01*
G01*
G37*
G36*
G01*
X55760980Y-23110140D02*
X55760980Y-22310140D01*
G75*
G02*
X56110980Y-21960140I350000J0D01*
G01*
X56810980Y-21960140D01*
G75*
G02*
X57160980Y-22310140I0J-350000D01*
G01*
X57160980Y-23110140D01*
G75*
G02*
X56810980Y-23460140I-350000J0D01*
G01*
X56110980Y-23460140D01*
G75*
G02*
X55760980Y-23110140I0J350000D01*
G01*
G37*
G36*
G01*
X58200740Y-23028860D02*
X58200740Y-22228860D01*
G75*
G02*
X58550740Y-21878860I350000J0D01*
G01*
X59250740Y-21878860D01*
G75*
G02*
X59600740Y-22228860I0J-350000D01*
G01*
X59600740Y-23028860D01*
G75*
G02*
X59250740Y-23378860I-350000J0D01*
G01*
X58550740Y-23378860D01*
G75*
G02*
X58200740Y-23028860I0J350000D01*
G01*
G37*
G36*
G01*
X61100740Y-23028860D02*
X61100740Y-22228860D01*
G75*
G02*
X61450740Y-21878860I350000J0D01*
G01*
X62150740Y-21878860D01*
G75*
G02*
X62500740Y-22228860I0J-350000D01*
G01*
X62500740Y-23028860D01*
G75*
G02*
X62150740Y-23378860I-350000J0D01*
G01*
X61450740Y-23378860D01*
G75*
G02*
X61100740Y-23028860I0J350000D01*
G01*
G37*
D13*
X1550000Y-32130000D03*
D14*
X-8610000Y-32130000D03*
D13*
X28702000Y-53594000D03*
D14*
X18542000Y-53594000D03*
G36*
G01*
X44460000Y-20851250D02*
X44460000Y-19888750D01*
G75*
G02*
X44728750Y-19620000I268750J0D01*
G01*
X45266250Y-19620000D01*
G75*
G02*
X45535000Y-19888750I0J-268750D01*
G01*
X45535000Y-20851250D01*
G75*
G02*
X45266250Y-21120000I-268750J0D01*
G01*
X44728750Y-21120000D01*
G75*
G02*
X44460000Y-20851250I0J268750D01*
G01*
G37*
G36*
G01*
X42585000Y-20851250D02*
X42585000Y-19888750D01*
G75*
G02*
X42853750Y-19620000I268750J0D01*
G01*
X43391250Y-19620000D01*
G75*
G02*
X43660000Y-19888750I0J-268750D01*
G01*
X43660000Y-20851250D01*
G75*
G02*
X43391250Y-21120000I-268750J0D01*
G01*
X42853750Y-21120000D01*
G75*
G02*
X42585000Y-20851250I0J268750D01*
G01*
G37*
G36*
G01*
X49932500Y-20601250D02*
X49932500Y-19638750D01*
G75*
G02*
X50201250Y-19370000I268750J0D01*
G01*
X50738750Y-19370000D01*
G75*
G02*
X51007500Y-19638750I0J-268750D01*
G01*
X51007500Y-20601250D01*
G75*
G02*
X50738750Y-20870000I-268750J0D01*
G01*
X50201250Y-20870000D01*
G75*
G02*
X49932500Y-20601250I0J268750D01*
G01*
G37*
G36*
G01*
X48057500Y-20601250D02*
X48057500Y-19638750D01*
G75*
G02*
X48326250Y-19370000I268750J0D01*
G01*
X48863750Y-19370000D01*
G75*
G02*
X49132500Y-19638750I0J-268750D01*
G01*
X49132500Y-20601250D01*
G75*
G02*
X48863750Y-20870000I-268750J0D01*
G01*
X48326250Y-20870000D01*
G75*
G02*
X48057500Y-20601250I0J268750D01*
G01*
G37*
G36*
G01*
X55370680Y-20592970D02*
X55370680Y-19630470D01*
G75*
G02*
X55639430Y-19361720I268750J0D01*
G01*
X56176930Y-19361720D01*
G75*
G02*
X56445680Y-19630470I0J-268750D01*
G01*
X56445680Y-20592970D01*
G75*
G02*
X56176930Y-20861720I-268750J0D01*
G01*
X55639430Y-20861720D01*
G75*
G02*
X55370680Y-20592970I0J268750D01*
G01*
G37*
G36*
G01*
X53495680Y-20592970D02*
X53495680Y-19630470D01*
G75*
G02*
X53764430Y-19361720I268750J0D01*
G01*
X54301930Y-19361720D01*
G75*
G02*
X54570680Y-19630470I0J-268750D01*
G01*
X54570680Y-20592970D01*
G75*
G02*
X54301930Y-20861720I-268750J0D01*
G01*
X53764430Y-20861720D01*
G75*
G02*
X53495680Y-20592970I0J268750D01*
G01*
G37*
G36*
G01*
X60544420Y-20592970D02*
X60544420Y-19630470D01*
G75*
G02*
X60813170Y-19361720I268750J0D01*
G01*
X61350670Y-19361720D01*
G75*
G02*
X61619420Y-19630470I0J-268750D01*
G01*
X61619420Y-20592970D01*
G75*
G02*
X61350670Y-20861720I-268750J0D01*
G01*
X60813170Y-20861720D01*
G75*
G02*
X60544420Y-20592970I0J268750D01*
G01*
G37*
G36*
G01*
X58669420Y-20592970D02*
X58669420Y-19630470D01*
G75*
G02*
X58938170Y-19361720I268750J0D01*
G01*
X59475670Y-19361720D01*
G75*
G02*
X59744420Y-19630470I0J-268750D01*
G01*
X59744420Y-20592970D01*
G75*
G02*
X59475670Y-20861720I-268750J0D01*
G01*
X58938170Y-20861720D01*
G75*
G02*
X58669420Y-20592970I0J268750D01*
G01*
G37*
D27*
X11102000Y-44770000D03*
X11102000Y-42270000D03*
X8502000Y-39370000D03*
X23502000Y-39370000D03*
M02*
