M48
; DRILL file {KiCad (5.1.6-0-10_14)} date Sunday, August 09, 2020 at 09:55:10 AM
; FORMAT={3:3/ absolute / metric / suppress leading zeros}
; #@! TF.CreationDate,2020-08-09T09:55:10-04:00
; #@! TF.GenerationSoftware,Kicad,Pcbnew,(5.1.6-0-10_14)
FMAT,2
METRIC,TZ
T1C0.400
T2C1.000
T3C1.100
T4C1.150
T5C3.175
%
G90
G05
T1
X1778Y-12446
X3307Y-15789
X3810Y-11938
X6350Y-26670
X6604Y-10414
X7620Y-22098
X9319Y-32179
X13764Y-18280
X14488Y-46218
X14488Y-48407
X15324Y-21557
X16802Y-18280
X19050Y-28448
X19703Y-36975
X20165Y-24785
X21066Y-38935
X23132Y-24534
X24892Y-42164
X25311Y-24684
X25654Y-38974
X26492Y-21994
X27432Y-31750
X28557Y-24986
X28702Y-39370
X28951Y-21269
X30988Y-24638
X31984Y-25437
X32004Y-17018
X32992Y-28821
X36068Y-26924
X36226Y-15336
X37592Y-15494
X38359Y-26919
X40604Y-28824
X43180Y-15494
X43180Y-22352
X45974Y-20066
X45974Y-28956
X46736Y-47752
X46990Y-10668
X48514Y-15494
X49848Y-49690
X53340Y-28956
X53848Y-14478
X55047Y-46076
X55258Y-41185
X56655Y-48819
X59776Y-47114
T2
X17620Y-10422
X20160Y-10422
X22700Y-10422
X25240Y-10422
X27780Y-10422
X30320Y-10422
X32860Y-10422
X35400Y-10422
X37940Y-10422
X8502Y-39370
X11102Y-42270
X11102Y-44770
X23502Y-39370
T3
X2540Y-27178
X2540Y-37338
X18542Y-53594
X28702Y-53594
T4
X35560Y-41910
X35560Y-44450
X38100Y-41910
X38100Y-44450
X40640Y-41910
X40640Y-44450
X43180Y-41910
X43180Y-44450
X45720Y-41910
X45720Y-44450
X48260Y-41910
X48260Y-44450
X50800Y-41910
X50800Y-44450
X53340Y-41910
X53340Y-44450
T5
X64770Y-50800
X64770Y-6350
X-3810Y-50800
X-3810Y-6350
T0
M30
