G04 #@! TF.GenerationSoftware,KiCad,Pcbnew,(5.1.6-0-10_14)*
G04 #@! TF.CreationDate,2020-08-09T09:54:48-04:00*
G04 #@! TF.ProjectId,Pufferfish-Interface-2,50756666-6572-4666-9973-682d496e7465,rev?*
G04 #@! TF.SameCoordinates,Original*
G04 #@! TF.FileFunction,Legend,Top*
G04 #@! TF.FilePolarity,Positive*
%FSLAX46Y46*%
G04 Gerber Fmt 4.6, Leading zero omitted, Abs format (unit mm)*
G04 Created by KiCad (PCBNEW (5.1.6-0-10_14)) date 2020-08-09 09:54:48*
%MOMM*%
%LPD*%
G01*
G04 APERTURE LIST*
%ADD10C,0.300000*%
%ADD11C,0.120000*%
%ADD12C,0.203200*%
%ADD13C,0.150000*%
G04 APERTURE END LIST*
D10*
X63134443Y-34552057D02*
X61864443Y-34552057D01*
X61864443Y-33980628D01*
X61924920Y-33837771D01*
X61985396Y-33766342D01*
X62106348Y-33694914D01*
X62287777Y-33694914D01*
X62408729Y-33766342D01*
X62469205Y-33837771D01*
X62529681Y-33980628D01*
X62529681Y-34552057D01*
X63073967Y-32480628D02*
X63134443Y-32623485D01*
X63134443Y-32909200D01*
X63073967Y-33052057D01*
X62953015Y-33123485D01*
X62469205Y-33123485D01*
X62348253Y-33052057D01*
X62287777Y-32909200D01*
X62287777Y-32623485D01*
X62348253Y-32480628D01*
X62469205Y-32409200D01*
X62590158Y-32409200D01*
X62711110Y-33123485D01*
X62287777Y-31909200D02*
X62287777Y-31123485D01*
X63134443Y-31909200D01*
X63134443Y-31123485D01*
X61924920Y-28623485D02*
X61864443Y-28766342D01*
X61864443Y-28980628D01*
X61924920Y-29194914D01*
X62045872Y-29337771D01*
X62166824Y-29409200D01*
X62408729Y-29480628D01*
X62590158Y-29480628D01*
X62832062Y-29409200D01*
X62953015Y-29337771D01*
X63073967Y-29194914D01*
X63134443Y-28980628D01*
X63134443Y-28837771D01*
X63073967Y-28623485D01*
X63013491Y-28552057D01*
X62590158Y-28552057D01*
X62590158Y-28837771D01*
X63134443Y-27694914D02*
X63073967Y-27837771D01*
X62953015Y-27909200D01*
X61864443Y-27909200D01*
X63134443Y-26909200D02*
X63073967Y-27052057D01*
X63013491Y-27123485D01*
X62892539Y-27194914D01*
X62529681Y-27194914D01*
X62408729Y-27123485D01*
X62348253Y-27052057D01*
X62287777Y-26909200D01*
X62287777Y-26694914D01*
X62348253Y-26552057D01*
X62408729Y-26480628D01*
X62529681Y-26409200D01*
X62892539Y-26409200D01*
X63013491Y-26480628D01*
X63073967Y-26552057D01*
X63134443Y-26694914D01*
X63134443Y-26909200D01*
X63134443Y-25766342D02*
X61864443Y-25766342D01*
X62348253Y-25766342D02*
X62287777Y-25623485D01*
X62287777Y-25337771D01*
X62348253Y-25194914D01*
X62408729Y-25123485D01*
X62529681Y-25052057D01*
X62892539Y-25052057D01*
X63013491Y-25123485D01*
X63073967Y-25194914D01*
X63134443Y-25337771D01*
X63134443Y-25623485D01*
X63073967Y-25766342D01*
X63134443Y-24194914D02*
X63073967Y-24337771D01*
X63013491Y-24409200D01*
X62892539Y-24480628D01*
X62529681Y-24480628D01*
X62408729Y-24409200D01*
X62348253Y-24337771D01*
X62287777Y-24194914D01*
X62287777Y-23980628D01*
X62348253Y-23837771D01*
X62408729Y-23766342D01*
X62529681Y-23694914D01*
X62892539Y-23694914D01*
X63013491Y-23766342D01*
X63073967Y-23837771D01*
X63134443Y-23980628D01*
X63134443Y-24194914D01*
X65339443Y-41087771D02*
X64069443Y-41087771D01*
X64492777Y-40373485D02*
X65339443Y-40373485D01*
X64613729Y-40373485D02*
X64553253Y-40302057D01*
X64492777Y-40159200D01*
X64492777Y-39944914D01*
X64553253Y-39802057D01*
X64674205Y-39730628D01*
X65339443Y-39730628D01*
X64492777Y-39230628D02*
X64492777Y-38659200D01*
X64069443Y-39016342D02*
X65158015Y-39016342D01*
X65278967Y-38944914D01*
X65339443Y-38802057D01*
X65339443Y-38659200D01*
X65278967Y-37587771D02*
X65339443Y-37730628D01*
X65339443Y-38016342D01*
X65278967Y-38159200D01*
X65158015Y-38230628D01*
X64674205Y-38230628D01*
X64553253Y-38159200D01*
X64492777Y-38016342D01*
X64492777Y-37730628D01*
X64553253Y-37587771D01*
X64674205Y-37516342D01*
X64795158Y-37516342D01*
X64916110Y-38230628D01*
X65339443Y-36873485D02*
X64492777Y-36873485D01*
X64734681Y-36873485D02*
X64613729Y-36802057D01*
X64553253Y-36730628D01*
X64492777Y-36587771D01*
X64492777Y-36444914D01*
X64492777Y-36159200D02*
X64492777Y-35587771D01*
X65339443Y-35944914D02*
X64250872Y-35944914D01*
X64129920Y-35873485D01*
X64069443Y-35730628D01*
X64069443Y-35587771D01*
X65339443Y-34444914D02*
X64674205Y-34444914D01*
X64553253Y-34516342D01*
X64492777Y-34659200D01*
X64492777Y-34944914D01*
X64553253Y-35087771D01*
X65278967Y-34444914D02*
X65339443Y-34587771D01*
X65339443Y-34944914D01*
X65278967Y-35087771D01*
X65158015Y-35159200D01*
X65037062Y-35159200D01*
X64916110Y-35087771D01*
X64855634Y-34944914D01*
X64855634Y-34587771D01*
X64795158Y-34444914D01*
X65278967Y-33087771D02*
X65339443Y-33230628D01*
X65339443Y-33516342D01*
X65278967Y-33659200D01*
X65218491Y-33730628D01*
X65097539Y-33802057D01*
X64734681Y-33802057D01*
X64613729Y-33730628D01*
X64553253Y-33659200D01*
X64492777Y-33516342D01*
X64492777Y-33230628D01*
X64553253Y-33087771D01*
X65278967Y-31873485D02*
X65339443Y-32016342D01*
X65339443Y-32302057D01*
X65278967Y-32444914D01*
X65158015Y-32516342D01*
X64674205Y-32516342D01*
X64553253Y-32444914D01*
X64492777Y-32302057D01*
X64492777Y-32016342D01*
X64553253Y-31873485D01*
X64674205Y-31802057D01*
X64795158Y-31802057D01*
X64916110Y-32516342D01*
X64674205Y-29516342D02*
X64734681Y-29302057D01*
X64795158Y-29230628D01*
X64916110Y-29159200D01*
X65097539Y-29159200D01*
X65218491Y-29230628D01*
X65278967Y-29302057D01*
X65339443Y-29444914D01*
X65339443Y-30016342D01*
X64069443Y-30016342D01*
X64069443Y-29516342D01*
X64129920Y-29373485D01*
X64190396Y-29302057D01*
X64311348Y-29230628D01*
X64432300Y-29230628D01*
X64553253Y-29302057D01*
X64613729Y-29373485D01*
X64674205Y-29516342D01*
X64674205Y-30016342D01*
X65339443Y-28302057D02*
X65278967Y-28444914D01*
X65218491Y-28516342D01*
X65097539Y-28587771D01*
X64734681Y-28587771D01*
X64613729Y-28516342D01*
X64553253Y-28444914D01*
X64492777Y-28302057D01*
X64492777Y-28087771D01*
X64553253Y-27944914D01*
X64613729Y-27873485D01*
X64734681Y-27802057D01*
X65097539Y-27802057D01*
X65218491Y-27873485D01*
X65278967Y-27944914D01*
X65339443Y-28087771D01*
X65339443Y-28302057D01*
X65339443Y-26516342D02*
X64674205Y-26516342D01*
X64553253Y-26587771D01*
X64492777Y-26730628D01*
X64492777Y-27016342D01*
X64553253Y-27159200D01*
X65278967Y-26516342D02*
X65339443Y-26659200D01*
X65339443Y-27016342D01*
X65278967Y-27159200D01*
X65158015Y-27230628D01*
X65037062Y-27230628D01*
X64916110Y-27159200D01*
X64855634Y-27016342D01*
X64855634Y-26659200D01*
X64795158Y-26516342D01*
X65339443Y-25802057D02*
X64492777Y-25802057D01*
X64734681Y-25802057D02*
X64613729Y-25730628D01*
X64553253Y-25659200D01*
X64492777Y-25516342D01*
X64492777Y-25373485D01*
X65339443Y-24230628D02*
X64069443Y-24230628D01*
X65278967Y-24230628D02*
X65339443Y-24373485D01*
X65339443Y-24659200D01*
X65278967Y-24802057D01*
X65218491Y-24873485D01*
X65097539Y-24944914D01*
X64734681Y-24944914D01*
X64613729Y-24873485D01*
X64553253Y-24802057D01*
X64492777Y-24659200D01*
X64492777Y-24373485D01*
X64553253Y-24230628D01*
X64492777Y-22516342D02*
X65339443Y-22159200D01*
X64492777Y-21802057D01*
X64190396Y-21302057D02*
X64129920Y-21230628D01*
X64069443Y-21087771D01*
X64069443Y-20730628D01*
X64129920Y-20587771D01*
X64190396Y-20516342D01*
X64311348Y-20444914D01*
X64432300Y-20444914D01*
X64613729Y-20516342D01*
X65339443Y-21373485D01*
X65339443Y-20444914D01*
X64855634Y-19802057D02*
X64855634Y-18659200D01*
X65339443Y-17159200D02*
X65339443Y-18016342D01*
X65339443Y-17587771D02*
X64069443Y-17587771D01*
X64250872Y-17730628D01*
X64371824Y-17873485D01*
X64432300Y-18016342D01*
X67544443Y-43266342D02*
X67483967Y-43409200D01*
X67363015Y-43480628D01*
X66274443Y-43480628D01*
X67544443Y-42052057D02*
X66879205Y-42052057D01*
X66758253Y-42123485D01*
X66697777Y-42266342D01*
X66697777Y-42552057D01*
X66758253Y-42694914D01*
X67483967Y-42052057D02*
X67544443Y-42194914D01*
X67544443Y-42552057D01*
X67483967Y-42694914D01*
X67363015Y-42766342D01*
X67242062Y-42766342D01*
X67121110Y-42694914D01*
X67060634Y-42552057D01*
X67060634Y-42194914D01*
X67000158Y-42052057D01*
X66697777Y-40694914D02*
X67544443Y-40694914D01*
X66697777Y-41337771D02*
X67363015Y-41337771D01*
X67483967Y-41266342D01*
X67544443Y-41123485D01*
X67544443Y-40909200D01*
X67483967Y-40766342D01*
X67423491Y-40694914D01*
X67544443Y-39980628D02*
X66697777Y-39980628D01*
X66939681Y-39980628D02*
X66818729Y-39909200D01*
X66758253Y-39837771D01*
X66697777Y-39694914D01*
X66697777Y-39552057D01*
X67483967Y-38480628D02*
X67544443Y-38623485D01*
X67544443Y-38909200D01*
X67483967Y-39052057D01*
X67363015Y-39123485D01*
X66879205Y-39123485D01*
X66758253Y-39052057D01*
X66697777Y-38909200D01*
X66697777Y-38623485D01*
X66758253Y-38480628D01*
X66879205Y-38409200D01*
X67000158Y-38409200D01*
X67121110Y-39123485D01*
X66697777Y-37766342D02*
X67544443Y-37766342D01*
X66818729Y-37766342D02*
X66758253Y-37694914D01*
X66697777Y-37552057D01*
X66697777Y-37337771D01*
X66758253Y-37194914D01*
X66879205Y-37123485D01*
X67544443Y-37123485D01*
X67544443Y-35766342D02*
X66879205Y-35766342D01*
X66758253Y-35837771D01*
X66697777Y-35980628D01*
X66697777Y-36266342D01*
X66758253Y-36409200D01*
X67483967Y-35766342D02*
X67544443Y-35909200D01*
X67544443Y-36266342D01*
X67483967Y-36409200D01*
X67363015Y-36480628D01*
X67242062Y-36480628D01*
X67121110Y-36409200D01*
X67060634Y-36266342D01*
X67060634Y-35909200D01*
X67000158Y-35766342D01*
X67544443Y-34409200D02*
X66274443Y-34409200D01*
X67483967Y-34409200D02*
X67544443Y-34552057D01*
X67544443Y-34837771D01*
X67483967Y-34980628D01*
X67423491Y-35052057D01*
X67302539Y-35123485D01*
X66939681Y-35123485D01*
X66818729Y-35052057D01*
X66758253Y-34980628D01*
X66697777Y-34837771D01*
X66697777Y-34552057D01*
X66758253Y-34409200D01*
X67544443Y-33052057D02*
X66879205Y-33052057D01*
X66758253Y-33123485D01*
X66697777Y-33266342D01*
X66697777Y-33552057D01*
X66758253Y-33694914D01*
X67483967Y-33052057D02*
X67544443Y-33194914D01*
X67544443Y-33552057D01*
X67483967Y-33694914D01*
X67363015Y-33766342D01*
X67242062Y-33766342D01*
X67121110Y-33694914D01*
X67060634Y-33552057D01*
X67060634Y-33194914D01*
X67000158Y-33052057D01*
X67483967Y-31694914D02*
X67544443Y-31837771D01*
X67544443Y-32123485D01*
X67483967Y-32266342D01*
X67423491Y-32337771D01*
X67302539Y-32409200D01*
X66939681Y-32409200D01*
X66818729Y-32337771D01*
X66758253Y-32266342D01*
X66697777Y-32123485D01*
X66697777Y-31837771D01*
X66758253Y-31694914D01*
X67544443Y-31052057D02*
X66274443Y-31052057D01*
X67544443Y-30409200D02*
X66879205Y-30409200D01*
X66758253Y-30480628D01*
X66697777Y-30623485D01*
X66697777Y-30837771D01*
X66758253Y-30980628D01*
X66818729Y-31052057D01*
X67544443Y-29694914D02*
X66697777Y-29694914D01*
X66274443Y-29694914D02*
X66334920Y-29766342D01*
X66395396Y-29694914D01*
X66334920Y-29623485D01*
X66274443Y-29694914D01*
X66395396Y-29694914D01*
X68028253Y-27409200D02*
X67967777Y-27480628D01*
X67786348Y-27623485D01*
X67665396Y-27694914D01*
X67483967Y-27766342D01*
X67181586Y-27837771D01*
X66939681Y-27837771D01*
X66637300Y-27766342D01*
X66455872Y-27694914D01*
X66334920Y-27623485D01*
X66153491Y-27480628D01*
X66093015Y-27409200D01*
X66395396Y-26909200D02*
X66334920Y-26837771D01*
X66274443Y-26694914D01*
X66274443Y-26337771D01*
X66334920Y-26194914D01*
X66395396Y-26123485D01*
X66516348Y-26052057D01*
X66637300Y-26052057D01*
X66818729Y-26123485D01*
X67544443Y-26980628D01*
X67544443Y-26052057D01*
X66274443Y-25123485D02*
X66274443Y-24980628D01*
X66334920Y-24837771D01*
X66395396Y-24766342D01*
X66516348Y-24694914D01*
X66758253Y-24623485D01*
X67060634Y-24623485D01*
X67302539Y-24694914D01*
X67423491Y-24766342D01*
X67483967Y-24837771D01*
X67544443Y-24980628D01*
X67544443Y-25123485D01*
X67483967Y-25266342D01*
X67423491Y-25337771D01*
X67302539Y-25409200D01*
X67060634Y-25480628D01*
X66758253Y-25480628D01*
X66516348Y-25409200D01*
X66395396Y-25337771D01*
X66334920Y-25266342D01*
X66274443Y-25123485D01*
X66395396Y-24052057D02*
X66334920Y-23980628D01*
X66274443Y-23837771D01*
X66274443Y-23480628D01*
X66334920Y-23337771D01*
X66395396Y-23266342D01*
X66516348Y-23194914D01*
X66637300Y-23194914D01*
X66818729Y-23266342D01*
X67544443Y-24123485D01*
X67544443Y-23194914D01*
X66274443Y-22266342D02*
X66274443Y-22123485D01*
X66334920Y-21980628D01*
X66395396Y-21909200D01*
X66516348Y-21837771D01*
X66758253Y-21766342D01*
X67060634Y-21766342D01*
X67302539Y-21837771D01*
X67423491Y-21909200D01*
X67483967Y-21980628D01*
X67544443Y-22123485D01*
X67544443Y-22266342D01*
X67483967Y-22409200D01*
X67423491Y-22480628D01*
X67302539Y-22552057D01*
X67060634Y-22623485D01*
X66758253Y-22623485D01*
X66516348Y-22552057D01*
X66395396Y-22480628D01*
X66334920Y-22409200D01*
X66274443Y-22266342D01*
X66213967Y-20052057D02*
X67846824Y-21337771D01*
X66818729Y-19337771D02*
X66758253Y-19480628D01*
X66697777Y-19552057D01*
X66576824Y-19623485D01*
X66516348Y-19623485D01*
X66395396Y-19552057D01*
X66334920Y-19480628D01*
X66274443Y-19337771D01*
X66274443Y-19052057D01*
X66334920Y-18909200D01*
X66395396Y-18837771D01*
X66516348Y-18766342D01*
X66576824Y-18766342D01*
X66697777Y-18837771D01*
X66758253Y-18909200D01*
X66818729Y-19052057D01*
X66818729Y-19337771D01*
X66879205Y-19480628D01*
X66939681Y-19552057D01*
X67060634Y-19623485D01*
X67302539Y-19623485D01*
X67423491Y-19552057D01*
X67483967Y-19480628D01*
X67544443Y-19337771D01*
X67544443Y-19052057D01*
X67483967Y-18909200D01*
X67423491Y-18837771D01*
X67302539Y-18766342D01*
X67060634Y-18766342D01*
X66939681Y-18837771D01*
X66879205Y-18909200D01*
X66818729Y-19052057D01*
X66213967Y-17052057D02*
X67846824Y-18337771D01*
X67544443Y-16480628D02*
X67544443Y-16194914D01*
X67483967Y-16052057D01*
X67423491Y-15980628D01*
X67242062Y-15837771D01*
X67000158Y-15766342D01*
X66516348Y-15766342D01*
X66395396Y-15837771D01*
X66334920Y-15909200D01*
X66274443Y-16052057D01*
X66274443Y-16337771D01*
X66334920Y-16480628D01*
X66395396Y-16552057D01*
X66516348Y-16623485D01*
X66818729Y-16623485D01*
X66939681Y-16552057D01*
X67000158Y-16480628D01*
X67060634Y-16337771D01*
X67060634Y-16052057D01*
X67000158Y-15909200D01*
X66939681Y-15837771D01*
X66818729Y-15766342D01*
X68028253Y-15266342D02*
X67967777Y-15194914D01*
X67786348Y-15052057D01*
X67665396Y-14980628D01*
X67483967Y-14909200D01*
X67181586Y-14837771D01*
X66939681Y-14837771D01*
X66637300Y-14909200D01*
X66455872Y-14980628D01*
X66334920Y-15052057D01*
X66153491Y-15194914D01*
X66093015Y-15266342D01*
D11*
X38442000Y-53990000D02*
X38442000Y-54790000D01*
X35842000Y-51740000D02*
X38442000Y-51740000D01*
X38442000Y-51740000D02*
X38442000Y-52690000D01*
X28735480Y-23149560D02*
X28735480Y-20389560D01*
X28735480Y-20389560D02*
X28530480Y-20389560D01*
X28735480Y-23149560D02*
X28735480Y-25909560D01*
X28735480Y-25909560D02*
X28530480Y-25909560D01*
X18315480Y-23149560D02*
X18315480Y-20389560D01*
X18315480Y-20389560D02*
X18520480Y-20389560D01*
X18315480Y-23149560D02*
X18315480Y-25909560D01*
X18315480Y-25909560D02*
X18520480Y-25909560D01*
X18520480Y-25909560D02*
X18520480Y-27599560D01*
X56646578Y-19506000D02*
X56129422Y-19506000D01*
X56646578Y-18086000D02*
X56129422Y-18086000D01*
X56129422Y-16966000D02*
X56646578Y-16966000D01*
X56129422Y-15546000D02*
X56646578Y-15546000D01*
X35056578Y-20014000D02*
X34539422Y-20014000D01*
X35056578Y-18594000D02*
X34539422Y-18594000D01*
X40898578Y-19506000D02*
X40381422Y-19506000D01*
X40898578Y-18086000D02*
X40381422Y-18086000D01*
X45978578Y-18086000D02*
X45461422Y-18086000D01*
X45978578Y-19506000D02*
X45461422Y-19506000D01*
X51488078Y-19506000D02*
X50970922Y-19506000D01*
X51488078Y-18086000D02*
X50970922Y-18086000D01*
X34363922Y-17728000D02*
X34881078Y-17728000D01*
X34363922Y-16308000D02*
X34881078Y-16308000D01*
X40302922Y-16966000D02*
X40820078Y-16966000D01*
X40302922Y-15546000D02*
X40820078Y-15546000D01*
X45461422Y-15546000D02*
X45978578Y-15546000D01*
X45461422Y-16966000D02*
X45978578Y-16966000D01*
X50873922Y-15546000D02*
X51391078Y-15546000D01*
X50873922Y-16966000D02*
X51391078Y-16966000D01*
X17072540Y-13670782D02*
X17072540Y-14187938D01*
X18492540Y-13670782D02*
X18492540Y-14187938D01*
X21286540Y-13670782D02*
X21286540Y-14187938D01*
X19866540Y-13670782D02*
X19866540Y-14187938D01*
X22406540Y-13749282D02*
X22406540Y-14266438D01*
X23826540Y-13749282D02*
X23826540Y-14266438D01*
X26775480Y-13881842D02*
X26775480Y-14398998D01*
X25355480Y-13881842D02*
X25355480Y-14398998D01*
X10362000Y-15244578D02*
X10362000Y-14727422D01*
X8942000Y-15244578D02*
X8942000Y-14727422D01*
X8942000Y-19308578D02*
X8942000Y-18791422D01*
X10362000Y-19308578D02*
X10362000Y-18791422D01*
X10362000Y-23372578D02*
X10362000Y-22855422D01*
X8942000Y-23372578D02*
X8942000Y-22855422D01*
X33278578Y-53034000D02*
X32761422Y-53034000D01*
X33278578Y-51614000D02*
X32761422Y-51614000D01*
X52757598Y-29770000D02*
X52240442Y-29770000D01*
X52757598Y-31190000D02*
X52240442Y-31190000D01*
X46057078Y-31228100D02*
X45539922Y-31228100D01*
X46057078Y-29808100D02*
X45539922Y-29808100D01*
X39267898Y-29729360D02*
X38750742Y-29729360D01*
X39267898Y-31149360D02*
X38750742Y-31149360D01*
X32506658Y-31070620D02*
X31989502Y-31070620D01*
X32506658Y-29650620D02*
X31989502Y-29650620D01*
X55170000Y-34040578D02*
X55170000Y-33523422D01*
X56590000Y-34040578D02*
X56590000Y-33523422D01*
X49686280Y-33933898D02*
X49686280Y-33416742D01*
X48266280Y-33933898D02*
X48266280Y-33416742D01*
X41631800Y-34040578D02*
X41631800Y-33523422D01*
X43051800Y-34040578D02*
X43051800Y-33523422D01*
X36524000Y-34040578D02*
X36524000Y-33523422D01*
X35104000Y-34040578D02*
X35104000Y-33523422D01*
X4320000Y-12898000D02*
X5780000Y-12898000D01*
X4320000Y-16058000D02*
X6480000Y-16058000D01*
X4320000Y-16058000D02*
X4320000Y-15128000D01*
X4320000Y-12898000D02*
X4320000Y-13828000D01*
X4287740Y-16941720D02*
X5747740Y-16941720D01*
X4287740Y-20101720D02*
X6447740Y-20101720D01*
X4287740Y-20101720D02*
X4287740Y-19171720D01*
X4287740Y-16941720D02*
X4287740Y-17871720D01*
X4210780Y-21036160D02*
X4210780Y-21966160D01*
X4210780Y-24196160D02*
X4210780Y-23266160D01*
X4210780Y-24196160D02*
X6370780Y-24196160D01*
X4210780Y-21036160D02*
X5670780Y-21036160D01*
X51818000Y-32202000D02*
X53278000Y-32202000D01*
X51818000Y-35362000D02*
X53978000Y-35362000D01*
X51818000Y-35362000D02*
X51818000Y-34432000D01*
X51818000Y-32202000D02*
X51818000Y-33132000D01*
X44960000Y-32202000D02*
X44960000Y-33132000D01*
X44960000Y-35362000D02*
X44960000Y-34432000D01*
X44960000Y-35362000D02*
X47120000Y-35362000D01*
X44960000Y-32202000D02*
X46420000Y-32202000D01*
X38356000Y-32202000D02*
X39816000Y-32202000D01*
X38356000Y-35362000D02*
X40516000Y-35362000D01*
X38356000Y-35362000D02*
X38356000Y-34432000D01*
X38356000Y-32202000D02*
X38356000Y-33132000D01*
X31752000Y-32202000D02*
X31752000Y-33132000D01*
X31752000Y-35362000D02*
X31752000Y-34432000D01*
X31752000Y-35362000D02*
X33912000Y-35362000D01*
X31752000Y-32202000D02*
X33212000Y-32202000D01*
X1070000Y-34198000D02*
X4010000Y-34198000D01*
X1070000Y-33958000D02*
X4010000Y-33958000D01*
X1070000Y-34078000D02*
X4010000Y-34078000D01*
X2540000Y-28518000D02*
X2540000Y-29538000D01*
X2540000Y-35998000D02*
X2540000Y-34978000D01*
X1070000Y-29538000D02*
X1070000Y-34978000D01*
X4010000Y-29538000D02*
X1070000Y-29538000D01*
X4010000Y-34978000D02*
X4010000Y-29538000D01*
X1070000Y-34978000D02*
X4010000Y-34978000D01*
X20902000Y-52124000D02*
X20902000Y-55064000D01*
X20902000Y-55064000D02*
X26342000Y-55064000D01*
X26342000Y-55064000D02*
X26342000Y-52124000D01*
X26342000Y-52124000D02*
X20902000Y-52124000D01*
X19882000Y-53594000D02*
X20902000Y-53594000D01*
X27362000Y-53594000D02*
X26342000Y-53594000D01*
X21802000Y-52124000D02*
X21802000Y-55064000D01*
X21922000Y-52124000D02*
X21922000Y-55064000D01*
X21682000Y-52124000D02*
X21682000Y-55064000D01*
X56050922Y-20626000D02*
X56568078Y-20626000D01*
X56050922Y-22046000D02*
X56568078Y-22046000D01*
X34539422Y-20880000D02*
X35056578Y-20880000D01*
X34539422Y-22300000D02*
X35056578Y-22300000D01*
X40381422Y-20626000D02*
X40898578Y-20626000D01*
X40381422Y-22046000D02*
X40898578Y-22046000D01*
X45461422Y-22046000D02*
X45978578Y-22046000D01*
X45461422Y-20626000D02*
X45978578Y-20626000D01*
X50873922Y-22046000D02*
X51391078Y-22046000D01*
X50873922Y-20626000D02*
X51391078Y-20626000D01*
X39540682Y-38850640D02*
X40057838Y-38850640D01*
X39540682Y-37430640D02*
X40057838Y-37430640D01*
X42322680Y-37605202D02*
X42322680Y-38122358D01*
X43742680Y-37605202D02*
X43742680Y-38122358D01*
X45147160Y-37605202D02*
X45147160Y-38122358D01*
X46567160Y-37605202D02*
X46567160Y-38122358D01*
X47842100Y-37605202D02*
X47842100Y-38122358D01*
X49262100Y-37605202D02*
X49262100Y-38122358D01*
X53148160Y-37691562D02*
X53148160Y-38208718D01*
X54568160Y-37691562D02*
X54568160Y-38208718D01*
X56104720Y-39156902D02*
X56104720Y-39674058D01*
X57524720Y-39156902D02*
X57524720Y-39674058D01*
X40445162Y-47992100D02*
X40962318Y-47992100D01*
X40445162Y-46572100D02*
X40962318Y-46572100D01*
X40863018Y-49140040D02*
X40345862Y-49140040D01*
X40863018Y-50560040D02*
X40345862Y-50560040D01*
X54646062Y-52584420D02*
X55163218Y-52584420D01*
X54646062Y-51164420D02*
X55163218Y-51164420D01*
X58131780Y-44426638D02*
X58131780Y-43909482D01*
X56711780Y-44426638D02*
X56711780Y-43909482D01*
X13984738Y-19366160D02*
X13467582Y-19366160D01*
X13984738Y-20786160D02*
X13467582Y-20786160D01*
X14378438Y-22485280D02*
X13861282Y-22485280D01*
X14378438Y-23905280D02*
X13861282Y-23905280D01*
X14177778Y-15845720D02*
X13660622Y-15845720D01*
X14177778Y-17265720D02*
X13660622Y-17265720D01*
X31146820Y-15956018D02*
X31146820Y-15438862D01*
X29726820Y-15956018D02*
X29726820Y-15438862D01*
X26072598Y-16341020D02*
X25555442Y-16341020D01*
X26072598Y-17761020D02*
X25555442Y-17761020D01*
X21866358Y-16249580D02*
X21349202Y-16249580D01*
X21866358Y-17669580D02*
X21349202Y-17669580D01*
X13610660Y-11683738D02*
X13610660Y-11166582D01*
X12190660Y-11683738D02*
X12190660Y-11166582D01*
D12*
X27502000Y-39370000D02*
G75*
G03*
X27502000Y-39370000I-11500000J0D01*
G01*
D13*
X-4523644Y-3028320D02*
X-4523644Y-2028320D01*
X-4523644Y-2504511D02*
X-3952216Y-2504511D01*
X-3952216Y-3028320D02*
X-3952216Y-2028320D01*
X-3047454Y-2361654D02*
X-3047454Y-3028320D01*
X-3285549Y-1980701D02*
X-3523644Y-2694987D01*
X-2904597Y-2694987D01*
X-4521104Y-47422440D02*
X-4521104Y-46422440D01*
X-4521104Y-46898631D02*
X-3949676Y-46898631D01*
X-3949676Y-47422440D02*
X-3949676Y-46422440D01*
X-3044914Y-46755774D02*
X-3044914Y-47422440D01*
X-3283009Y-46374821D02*
X-3521104Y-47089107D01*
X-2902057Y-47089107D01*
X64066515Y-47412280D02*
X64066515Y-46412280D01*
X64066515Y-46888471D02*
X64637943Y-46888471D01*
X64637943Y-47412280D02*
X64637943Y-46412280D01*
X65542705Y-46745614D02*
X65542705Y-47412280D01*
X65304610Y-46364661D02*
X65066515Y-47078947D01*
X65685562Y-47078947D01*
X64046195Y-2987680D02*
X64046195Y-1987680D01*
X64046195Y-2463871D02*
X64617623Y-2463871D01*
X64617623Y-2987680D02*
X64617623Y-1987680D01*
X65522385Y-2321014D02*
X65522385Y-2987680D01*
X65284290Y-1940061D02*
X65046195Y-2654347D01*
X65665242Y-2654347D01*
X37496761Y-51537619D02*
X37401523Y-51490000D01*
X37306285Y-51394761D01*
X37163428Y-51251904D01*
X37068190Y-51204285D01*
X36972952Y-51204285D01*
X37020571Y-51442380D02*
X36925333Y-51394761D01*
X36830095Y-51299523D01*
X36782476Y-51109047D01*
X36782476Y-50775714D01*
X36830095Y-50585238D01*
X36925333Y-50490000D01*
X37020571Y-50442380D01*
X37211047Y-50442380D01*
X37306285Y-50490000D01*
X37401523Y-50585238D01*
X37449142Y-50775714D01*
X37449142Y-51109047D01*
X37401523Y-51299523D01*
X37306285Y-51394761D01*
X37211047Y-51442380D01*
X37020571Y-51442380D01*
X37782476Y-50442380D02*
X38449142Y-50442380D01*
X38020571Y-51442380D01*
X16721840Y-26288904D02*
X17531364Y-26288904D01*
X17626602Y-26241285D01*
X17674221Y-26193666D01*
X17721840Y-26098428D01*
X17721840Y-25907952D01*
X17674221Y-25812714D01*
X17626602Y-25765095D01*
X17531364Y-25717476D01*
X16721840Y-25717476D01*
X17721840Y-24717476D02*
X17721840Y-25288904D01*
X17721840Y-25003190D02*
X16721840Y-25003190D01*
X16864698Y-25098428D01*
X16959936Y-25193666D01*
X17007555Y-25288904D01*
X54379120Y-19250897D02*
X53902930Y-19584230D01*
X54379120Y-19822325D02*
X53379120Y-19822325D01*
X53379120Y-19441373D01*
X53426740Y-19346135D01*
X53474359Y-19298516D01*
X53569597Y-19250897D01*
X53712454Y-19250897D01*
X53807692Y-19298516D01*
X53855311Y-19346135D01*
X53902930Y-19441373D01*
X53902930Y-19822325D01*
X53474359Y-18869944D02*
X53426740Y-18822325D01*
X53379120Y-18727087D01*
X53379120Y-18488992D01*
X53426740Y-18393754D01*
X53474359Y-18346135D01*
X53569597Y-18298516D01*
X53664835Y-18298516D01*
X53807692Y-18346135D01*
X54379120Y-18917563D01*
X54379120Y-18298516D01*
X53807692Y-17727087D02*
X53760073Y-17822325D01*
X53712454Y-17869944D01*
X53617216Y-17917563D01*
X53569597Y-17917563D01*
X53474359Y-17869944D01*
X53426740Y-17822325D01*
X53379120Y-17727087D01*
X53379120Y-17536611D01*
X53426740Y-17441373D01*
X53474359Y-17393754D01*
X53569597Y-17346135D01*
X53617216Y-17346135D01*
X53712454Y-17393754D01*
X53760073Y-17441373D01*
X53807692Y-17536611D01*
X53807692Y-17727087D01*
X53855311Y-17822325D01*
X53902930Y-17869944D01*
X53998168Y-17917563D01*
X54188644Y-17917563D01*
X54283882Y-17869944D01*
X54331501Y-17822325D01*
X54379120Y-17727087D01*
X54379120Y-17536611D01*
X54331501Y-17441373D01*
X54283882Y-17393754D01*
X54188644Y-17346135D01*
X53998168Y-17346135D01*
X53902930Y-17393754D01*
X53855311Y-17441373D01*
X53807692Y-17536611D01*
X56697642Y-14724640D02*
X56364309Y-14248450D01*
X56126214Y-14724640D02*
X56126214Y-13724640D01*
X56507166Y-13724640D01*
X56602404Y-13772260D01*
X56650023Y-13819879D01*
X56697642Y-13915117D01*
X56697642Y-14057974D01*
X56650023Y-14153212D01*
X56602404Y-14200831D01*
X56507166Y-14248450D01*
X56126214Y-14248450D01*
X57078595Y-13819879D02*
X57126214Y-13772260D01*
X57221452Y-13724640D01*
X57459547Y-13724640D01*
X57554785Y-13772260D01*
X57602404Y-13819879D01*
X57650023Y-13915117D01*
X57650023Y-14010355D01*
X57602404Y-14153212D01*
X57030976Y-14724640D01*
X57650023Y-14724640D01*
X57983357Y-13724640D02*
X58650023Y-13724640D01*
X58221452Y-14724640D01*
X31122382Y-20106900D02*
X30789049Y-19630710D01*
X30550954Y-20106900D02*
X30550954Y-19106900D01*
X30931906Y-19106900D01*
X31027144Y-19154520D01*
X31074763Y-19202139D01*
X31122382Y-19297377D01*
X31122382Y-19440234D01*
X31074763Y-19535472D01*
X31027144Y-19583091D01*
X30931906Y-19630710D01*
X30550954Y-19630710D01*
X31503335Y-19202139D02*
X31550954Y-19154520D01*
X31646192Y-19106900D01*
X31884287Y-19106900D01*
X31979525Y-19154520D01*
X32027144Y-19202139D01*
X32074763Y-19297377D01*
X32074763Y-19392615D01*
X32027144Y-19535472D01*
X31455716Y-20106900D01*
X32074763Y-20106900D01*
X32931906Y-19106900D02*
X32741430Y-19106900D01*
X32646192Y-19154520D01*
X32598573Y-19202139D01*
X32503335Y-19344996D01*
X32455716Y-19535472D01*
X32455716Y-19916424D01*
X32503335Y-20011662D01*
X32550954Y-20059281D01*
X32646192Y-20106900D01*
X32836668Y-20106900D01*
X32931906Y-20059281D01*
X32979525Y-20011662D01*
X33027144Y-19916424D01*
X33027144Y-19678329D01*
X32979525Y-19583091D01*
X32931906Y-19535472D01*
X32836668Y-19487853D01*
X32646192Y-19487853D01*
X32550954Y-19535472D01*
X32503335Y-19583091D01*
X32455716Y-19678329D01*
X38539680Y-18839417D02*
X38063490Y-19172750D01*
X38539680Y-19410845D02*
X37539680Y-19410845D01*
X37539680Y-19029893D01*
X37587300Y-18934655D01*
X37634919Y-18887036D01*
X37730157Y-18839417D01*
X37873014Y-18839417D01*
X37968252Y-18887036D01*
X38015871Y-18934655D01*
X38063490Y-19029893D01*
X38063490Y-19410845D01*
X37634919Y-18458464D02*
X37587300Y-18410845D01*
X37539680Y-18315607D01*
X37539680Y-18077512D01*
X37587300Y-17982274D01*
X37634919Y-17934655D01*
X37730157Y-17887036D01*
X37825395Y-17887036D01*
X37968252Y-17934655D01*
X38539680Y-18506083D01*
X38539680Y-17887036D01*
X37539680Y-16982274D02*
X37539680Y-17458464D01*
X38015871Y-17506083D01*
X37968252Y-17458464D01*
X37920633Y-17363226D01*
X37920633Y-17125131D01*
X37968252Y-17029893D01*
X38015871Y-16982274D01*
X38111109Y-16934655D01*
X38349204Y-16934655D01*
X38444442Y-16982274D01*
X38492061Y-17029893D01*
X38539680Y-17125131D01*
X38539680Y-17363226D01*
X38492061Y-17458464D01*
X38444442Y-17506083D01*
X43751760Y-18349197D02*
X43275570Y-18682530D01*
X43751760Y-18920625D02*
X42751760Y-18920625D01*
X42751760Y-18539673D01*
X42799380Y-18444435D01*
X42846999Y-18396816D01*
X42942237Y-18349197D01*
X43085094Y-18349197D01*
X43180332Y-18396816D01*
X43227951Y-18444435D01*
X43275570Y-18539673D01*
X43275570Y-18920625D01*
X42846999Y-17968244D02*
X42799380Y-17920625D01*
X42751760Y-17825387D01*
X42751760Y-17587292D01*
X42799380Y-17492054D01*
X42846999Y-17444435D01*
X42942237Y-17396816D01*
X43037475Y-17396816D01*
X43180332Y-17444435D01*
X43751760Y-18015863D01*
X43751760Y-17396816D01*
X43085094Y-16539673D02*
X43751760Y-16539673D01*
X42704141Y-16777768D02*
X43418427Y-17015863D01*
X43418427Y-16396816D01*
X49164500Y-19380437D02*
X48688310Y-19713770D01*
X49164500Y-19951865D02*
X48164500Y-19951865D01*
X48164500Y-19570913D01*
X48212120Y-19475675D01*
X48259739Y-19428056D01*
X48354977Y-19380437D01*
X48497834Y-19380437D01*
X48593072Y-19428056D01*
X48640691Y-19475675D01*
X48688310Y-19570913D01*
X48688310Y-19951865D01*
X48259739Y-18999484D02*
X48212120Y-18951865D01*
X48164500Y-18856627D01*
X48164500Y-18618532D01*
X48212120Y-18523294D01*
X48259739Y-18475675D01*
X48354977Y-18428056D01*
X48450215Y-18428056D01*
X48593072Y-18475675D01*
X49164500Y-19047103D01*
X49164500Y-18428056D01*
X48164500Y-18094722D02*
X48164500Y-17475675D01*
X48545453Y-17809008D01*
X48545453Y-17666151D01*
X48593072Y-17570913D01*
X48640691Y-17523294D01*
X48735929Y-17475675D01*
X48974024Y-17475675D01*
X49069262Y-17523294D01*
X49116881Y-17570913D01*
X49164500Y-17666151D01*
X49164500Y-17951865D01*
X49116881Y-18047103D01*
X49069262Y-18094722D01*
X31030942Y-18580360D02*
X30697609Y-18104170D01*
X30459514Y-18580360D02*
X30459514Y-17580360D01*
X30840466Y-17580360D01*
X30935704Y-17627980D01*
X30983323Y-17675599D01*
X31030942Y-17770837D01*
X31030942Y-17913694D01*
X30983323Y-18008932D01*
X30935704Y-18056551D01*
X30840466Y-18104170D01*
X30459514Y-18104170D01*
X31411895Y-17675599D02*
X31459514Y-17627980D01*
X31554752Y-17580360D01*
X31792847Y-17580360D01*
X31888085Y-17627980D01*
X31935704Y-17675599D01*
X31983323Y-17770837D01*
X31983323Y-17866075D01*
X31935704Y-18008932D01*
X31364276Y-18580360D01*
X31983323Y-18580360D01*
X32364276Y-17675599D02*
X32411895Y-17627980D01*
X32507133Y-17580360D01*
X32745228Y-17580360D01*
X32840466Y-17627980D01*
X32888085Y-17675599D01*
X32935704Y-17770837D01*
X32935704Y-17866075D01*
X32888085Y-18008932D01*
X32316657Y-18580360D01*
X32935704Y-18580360D01*
X41368742Y-14910060D02*
X41035409Y-14433870D01*
X40797314Y-14910060D02*
X40797314Y-13910060D01*
X41178266Y-13910060D01*
X41273504Y-13957680D01*
X41321123Y-14005299D01*
X41368742Y-14100537D01*
X41368742Y-14243394D01*
X41321123Y-14338632D01*
X41273504Y-14386251D01*
X41178266Y-14433870D01*
X40797314Y-14433870D01*
X41749695Y-14005299D02*
X41797314Y-13957680D01*
X41892552Y-13910060D01*
X42130647Y-13910060D01*
X42225885Y-13957680D01*
X42273504Y-14005299D01*
X42321123Y-14100537D01*
X42321123Y-14195775D01*
X42273504Y-14338632D01*
X41702076Y-14910060D01*
X42321123Y-14910060D01*
X43273504Y-14910060D02*
X42702076Y-14910060D01*
X42987790Y-14910060D02*
X42987790Y-13910060D01*
X42892552Y-14052918D01*
X42797314Y-14148156D01*
X42702076Y-14195775D01*
X46702742Y-14846560D02*
X46369409Y-14370370D01*
X46131314Y-14846560D02*
X46131314Y-13846560D01*
X46512266Y-13846560D01*
X46607504Y-13894180D01*
X46655123Y-13941799D01*
X46702742Y-14037037D01*
X46702742Y-14179894D01*
X46655123Y-14275132D01*
X46607504Y-14322751D01*
X46512266Y-14370370D01*
X46131314Y-14370370D01*
X47083695Y-13941799D02*
X47131314Y-13894180D01*
X47226552Y-13846560D01*
X47464647Y-13846560D01*
X47559885Y-13894180D01*
X47607504Y-13941799D01*
X47655123Y-14037037D01*
X47655123Y-14132275D01*
X47607504Y-14275132D01*
X47036076Y-14846560D01*
X47655123Y-14846560D01*
X48274171Y-13846560D02*
X48369409Y-13846560D01*
X48464647Y-13894180D01*
X48512266Y-13941799D01*
X48559885Y-14037037D01*
X48607504Y-14227513D01*
X48607504Y-14465608D01*
X48559885Y-14656084D01*
X48512266Y-14751322D01*
X48464647Y-14798941D01*
X48369409Y-14846560D01*
X48274171Y-14846560D01*
X48178933Y-14798941D01*
X48131314Y-14751322D01*
X48083695Y-14656084D01*
X48036076Y-14465608D01*
X48036076Y-14227513D01*
X48083695Y-14037037D01*
X48131314Y-13941799D01*
X48178933Y-13894180D01*
X48274171Y-13846560D01*
X51363642Y-14724640D02*
X51030309Y-14248450D01*
X50792214Y-14724640D02*
X50792214Y-13724640D01*
X51173166Y-13724640D01*
X51268404Y-13772260D01*
X51316023Y-13819879D01*
X51363642Y-13915117D01*
X51363642Y-14057974D01*
X51316023Y-14153212D01*
X51268404Y-14200831D01*
X51173166Y-14248450D01*
X50792214Y-14248450D01*
X52316023Y-14724640D02*
X51744595Y-14724640D01*
X52030309Y-14724640D02*
X52030309Y-13724640D01*
X51935071Y-13867498D01*
X51839833Y-13962736D01*
X51744595Y-14010355D01*
X52792214Y-14724640D02*
X52982690Y-14724640D01*
X53077928Y-14677021D01*
X53125547Y-14629402D01*
X53220785Y-14486545D01*
X53268404Y-14296069D01*
X53268404Y-13915117D01*
X53220785Y-13819879D01*
X53173166Y-13772260D01*
X53077928Y-13724640D01*
X52887452Y-13724640D01*
X52792214Y-13772260D01*
X52744595Y-13819879D01*
X52696976Y-13915117D01*
X52696976Y-14153212D01*
X52744595Y-14248450D01*
X52792214Y-14296069D01*
X52887452Y-14343688D01*
X53077928Y-14343688D01*
X53173166Y-14296069D01*
X53220785Y-14248450D01*
X53268404Y-14153212D01*
X14917680Y-14559517D02*
X14441490Y-14892850D01*
X14917680Y-15130945D02*
X13917680Y-15130945D01*
X13917680Y-14749993D01*
X13965300Y-14654755D01*
X14012919Y-14607136D01*
X14108157Y-14559517D01*
X14251014Y-14559517D01*
X14346252Y-14607136D01*
X14393871Y-14654755D01*
X14441490Y-14749993D01*
X14441490Y-15130945D01*
X14917680Y-13607136D02*
X14917680Y-14178564D01*
X14917680Y-13892850D02*
X13917680Y-13892850D01*
X14060538Y-13988088D01*
X14155776Y-14083326D01*
X14203395Y-14178564D01*
X14346252Y-13035707D02*
X14298633Y-13130945D01*
X14251014Y-13178564D01*
X14155776Y-13226183D01*
X14108157Y-13226183D01*
X14012919Y-13178564D01*
X13965300Y-13130945D01*
X13917680Y-13035707D01*
X13917680Y-12845231D01*
X13965300Y-12749993D01*
X14012919Y-12702374D01*
X14108157Y-12654755D01*
X14155776Y-12654755D01*
X14251014Y-12702374D01*
X14298633Y-12749993D01*
X14346252Y-12845231D01*
X14346252Y-13035707D01*
X14393871Y-13130945D01*
X14441490Y-13178564D01*
X14536728Y-13226183D01*
X14727204Y-13226183D01*
X14822442Y-13178564D01*
X14870061Y-13130945D01*
X14917680Y-13035707D01*
X14917680Y-12845231D01*
X14870061Y-12749993D01*
X14822442Y-12702374D01*
X14727204Y-12654755D01*
X14536728Y-12654755D01*
X14441490Y-12702374D01*
X14393871Y-12749993D01*
X14346252Y-12845231D01*
X16522960Y-14625557D02*
X16046770Y-14958890D01*
X16522960Y-15196985D02*
X15522960Y-15196985D01*
X15522960Y-14816033D01*
X15570580Y-14720795D01*
X15618199Y-14673176D01*
X15713437Y-14625557D01*
X15856294Y-14625557D01*
X15951532Y-14673176D01*
X15999151Y-14720795D01*
X16046770Y-14816033D01*
X16046770Y-15196985D01*
X16522960Y-13673176D02*
X16522960Y-14244604D01*
X16522960Y-13958890D02*
X15522960Y-13958890D01*
X15665818Y-14054128D01*
X15761056Y-14149366D01*
X15808675Y-14244604D01*
X15522960Y-13339842D02*
X15522960Y-12673176D01*
X16522960Y-13101747D01*
X28143460Y-14280117D02*
X27667270Y-14613450D01*
X28143460Y-14851545D02*
X27143460Y-14851545D01*
X27143460Y-14470593D01*
X27191080Y-14375355D01*
X27238699Y-14327736D01*
X27333937Y-14280117D01*
X27476794Y-14280117D01*
X27572032Y-14327736D01*
X27619651Y-14375355D01*
X27667270Y-14470593D01*
X27667270Y-14851545D01*
X28143460Y-13327736D02*
X28143460Y-13899164D01*
X28143460Y-13613450D02*
X27143460Y-13613450D01*
X27286318Y-13708688D01*
X27381556Y-13803926D01*
X27429175Y-13899164D01*
X27143460Y-12470593D02*
X27143460Y-12661069D01*
X27191080Y-12756307D01*
X27238699Y-12803926D01*
X27381556Y-12899164D01*
X27572032Y-12946783D01*
X27952984Y-12946783D01*
X28048222Y-12899164D01*
X28095841Y-12851545D01*
X28143460Y-12756307D01*
X28143460Y-12565831D01*
X28095841Y-12470593D01*
X28048222Y-12422974D01*
X27952984Y-12375355D01*
X27714889Y-12375355D01*
X27619651Y-12422974D01*
X27572032Y-12470593D01*
X27524413Y-12565831D01*
X27524413Y-12756307D01*
X27572032Y-12851545D01*
X27619651Y-12899164D01*
X27714889Y-12946783D01*
X29393140Y-14231857D02*
X28916950Y-14565190D01*
X29393140Y-14803285D02*
X28393140Y-14803285D01*
X28393140Y-14422333D01*
X28440760Y-14327095D01*
X28488379Y-14279476D01*
X28583617Y-14231857D01*
X28726474Y-14231857D01*
X28821712Y-14279476D01*
X28869331Y-14327095D01*
X28916950Y-14422333D01*
X28916950Y-14803285D01*
X29393140Y-13279476D02*
X29393140Y-13850904D01*
X29393140Y-13565190D02*
X28393140Y-13565190D01*
X28535998Y-13660428D01*
X28631236Y-13755666D01*
X28678855Y-13850904D01*
X28393140Y-12374714D02*
X28393140Y-12850904D01*
X28869331Y-12898523D01*
X28821712Y-12850904D01*
X28774093Y-12755666D01*
X28774093Y-12517571D01*
X28821712Y-12422333D01*
X28869331Y-12374714D01*
X28964569Y-12327095D01*
X29202664Y-12327095D01*
X29297902Y-12374714D01*
X29345521Y-12422333D01*
X29393140Y-12517571D01*
X29393140Y-12755666D01*
X29345521Y-12850904D01*
X29297902Y-12898523D01*
X11854440Y-15021797D02*
X11378250Y-15355130D01*
X11854440Y-15593225D02*
X10854440Y-15593225D01*
X10854440Y-15212273D01*
X10902060Y-15117035D01*
X10949679Y-15069416D01*
X11044917Y-15021797D01*
X11187774Y-15021797D01*
X11283012Y-15069416D01*
X11330631Y-15117035D01*
X11378250Y-15212273D01*
X11378250Y-15593225D01*
X11854440Y-14069416D02*
X11854440Y-14640844D01*
X11854440Y-14355130D02*
X10854440Y-14355130D01*
X10997298Y-14450368D01*
X11092536Y-14545606D01*
X11140155Y-14640844D01*
X11187774Y-13212273D02*
X11854440Y-13212273D01*
X10806821Y-13450368D02*
X11521107Y-13688463D01*
X11521107Y-13069416D01*
X11740140Y-18798777D02*
X11263950Y-19132110D01*
X11740140Y-19370205D02*
X10740140Y-19370205D01*
X10740140Y-18989253D01*
X10787760Y-18894015D01*
X10835379Y-18846396D01*
X10930617Y-18798777D01*
X11073474Y-18798777D01*
X11168712Y-18846396D01*
X11216331Y-18894015D01*
X11263950Y-18989253D01*
X11263950Y-19370205D01*
X11740140Y-17846396D02*
X11740140Y-18417824D01*
X11740140Y-18132110D02*
X10740140Y-18132110D01*
X10882998Y-18227348D01*
X10978236Y-18322586D01*
X11025855Y-18417824D01*
X10740140Y-17513062D02*
X10740140Y-16894015D01*
X11121093Y-17227348D01*
X11121093Y-17084491D01*
X11168712Y-16989253D01*
X11216331Y-16941634D01*
X11311569Y-16894015D01*
X11549664Y-16894015D01*
X11644902Y-16941634D01*
X11692521Y-16989253D01*
X11740140Y-17084491D01*
X11740140Y-17370205D01*
X11692521Y-17465443D01*
X11644902Y-17513062D01*
X11778240Y-22347157D02*
X11302050Y-22680490D01*
X11778240Y-22918585D02*
X10778240Y-22918585D01*
X10778240Y-22537633D01*
X10825860Y-22442395D01*
X10873479Y-22394776D01*
X10968717Y-22347157D01*
X11111574Y-22347157D01*
X11206812Y-22394776D01*
X11254431Y-22442395D01*
X11302050Y-22537633D01*
X11302050Y-22918585D01*
X11778240Y-21394776D02*
X11778240Y-21966204D01*
X11778240Y-21680490D02*
X10778240Y-21680490D01*
X10921098Y-21775728D01*
X11016336Y-21870966D01*
X11063955Y-21966204D01*
X10873479Y-21013823D02*
X10825860Y-20966204D01*
X10778240Y-20870966D01*
X10778240Y-20632871D01*
X10825860Y-20537633D01*
X10873479Y-20490014D01*
X10968717Y-20442395D01*
X11063955Y-20442395D01*
X11206812Y-20490014D01*
X11778240Y-21061442D01*
X11778240Y-20442395D01*
X32377142Y-54426380D02*
X32043809Y-53950190D01*
X31805714Y-54426380D02*
X31805714Y-53426380D01*
X32186666Y-53426380D01*
X32281904Y-53474000D01*
X32329523Y-53521619D01*
X32377142Y-53616857D01*
X32377142Y-53759714D01*
X32329523Y-53854952D01*
X32281904Y-53902571D01*
X32186666Y-53950190D01*
X31805714Y-53950190D01*
X33329523Y-54426380D02*
X32758095Y-54426380D01*
X33043809Y-54426380D02*
X33043809Y-53426380D01*
X32948571Y-53569238D01*
X32853333Y-53664476D01*
X32758095Y-53712095D01*
X34281904Y-54426380D02*
X33710476Y-54426380D01*
X33996190Y-54426380D02*
X33996190Y-53426380D01*
X33900952Y-53569238D01*
X33805714Y-53664476D01*
X33710476Y-53712095D01*
X51471293Y-29355040D02*
X51137960Y-28878850D01*
X50899864Y-29355040D02*
X50899864Y-28355040D01*
X51280817Y-28355040D01*
X51376055Y-28402660D01*
X51423674Y-28450279D01*
X51471293Y-28545517D01*
X51471293Y-28688374D01*
X51423674Y-28783612D01*
X51376055Y-28831231D01*
X51280817Y-28878850D01*
X50899864Y-28878850D01*
X52042721Y-28783612D02*
X51947483Y-28735993D01*
X51899864Y-28688374D01*
X51852245Y-28593136D01*
X51852245Y-28545517D01*
X51899864Y-28450279D01*
X51947483Y-28402660D01*
X52042721Y-28355040D01*
X52233198Y-28355040D01*
X52328436Y-28402660D01*
X52376055Y-28450279D01*
X52423674Y-28545517D01*
X52423674Y-28593136D01*
X52376055Y-28688374D01*
X52328436Y-28735993D01*
X52233198Y-28783612D01*
X52042721Y-28783612D01*
X51947483Y-28831231D01*
X51899864Y-28878850D01*
X51852245Y-28974088D01*
X51852245Y-29164564D01*
X51899864Y-29259802D01*
X51947483Y-29307421D01*
X52042721Y-29355040D01*
X52233198Y-29355040D01*
X52328436Y-29307421D01*
X52376055Y-29259802D01*
X52423674Y-29164564D01*
X52423674Y-28974088D01*
X52376055Y-28878850D01*
X52328436Y-28831231D01*
X52233198Y-28783612D01*
X47415153Y-29441400D02*
X47081820Y-28965210D01*
X46843724Y-29441400D02*
X46843724Y-28441400D01*
X47224677Y-28441400D01*
X47319915Y-28489020D01*
X47367534Y-28536639D01*
X47415153Y-28631877D01*
X47415153Y-28774734D01*
X47367534Y-28869972D01*
X47319915Y-28917591D01*
X47224677Y-28965210D01*
X46843724Y-28965210D01*
X47748486Y-28441400D02*
X48415153Y-28441400D01*
X47986581Y-29441400D01*
X38972193Y-29299160D02*
X38638860Y-28822970D01*
X38400764Y-29299160D02*
X38400764Y-28299160D01*
X38781717Y-28299160D01*
X38876955Y-28346780D01*
X38924574Y-28394399D01*
X38972193Y-28489637D01*
X38972193Y-28632494D01*
X38924574Y-28727732D01*
X38876955Y-28775351D01*
X38781717Y-28822970D01*
X38400764Y-28822970D01*
X39829336Y-28299160D02*
X39638860Y-28299160D01*
X39543621Y-28346780D01*
X39496002Y-28394399D01*
X39400764Y-28537256D01*
X39353145Y-28727732D01*
X39353145Y-29108684D01*
X39400764Y-29203922D01*
X39448383Y-29251541D01*
X39543621Y-29299160D01*
X39734098Y-29299160D01*
X39829336Y-29251541D01*
X39876955Y-29203922D01*
X39924574Y-29108684D01*
X39924574Y-28870589D01*
X39876955Y-28775351D01*
X39829336Y-28727732D01*
X39734098Y-28680113D01*
X39543621Y-28680113D01*
X39448383Y-28727732D01*
X39400764Y-28775351D01*
X39353145Y-28870589D01*
X30928013Y-29294080D02*
X30594680Y-28817890D01*
X30356584Y-29294080D02*
X30356584Y-28294080D01*
X30737537Y-28294080D01*
X30832775Y-28341700D01*
X30880394Y-28389319D01*
X30928013Y-28484557D01*
X30928013Y-28627414D01*
X30880394Y-28722652D01*
X30832775Y-28770271D01*
X30737537Y-28817890D01*
X30356584Y-28817890D01*
X31832775Y-28294080D02*
X31356584Y-28294080D01*
X31308965Y-28770271D01*
X31356584Y-28722652D01*
X31451822Y-28675033D01*
X31689918Y-28675033D01*
X31785156Y-28722652D01*
X31832775Y-28770271D01*
X31880394Y-28865509D01*
X31880394Y-29103604D01*
X31832775Y-29198842D01*
X31785156Y-29246461D01*
X31689918Y-29294080D01*
X31451822Y-29294080D01*
X31356584Y-29246461D01*
X31308965Y-29198842D01*
X55756513Y-31856940D02*
X55423180Y-31380750D01*
X55185084Y-31856940D02*
X55185084Y-30856940D01*
X55566037Y-30856940D01*
X55661275Y-30904560D01*
X55708894Y-30952179D01*
X55756513Y-31047417D01*
X55756513Y-31190274D01*
X55708894Y-31285512D01*
X55661275Y-31333131D01*
X55566037Y-31380750D01*
X55185084Y-31380750D01*
X56613656Y-31190274D02*
X56613656Y-31856940D01*
X56375560Y-30809321D02*
X56137465Y-31523607D01*
X56756513Y-31523607D01*
X48829933Y-31750260D02*
X48496600Y-31274070D01*
X48258504Y-31750260D02*
X48258504Y-30750260D01*
X48639457Y-30750260D01*
X48734695Y-30797880D01*
X48782314Y-30845499D01*
X48829933Y-30940737D01*
X48829933Y-31083594D01*
X48782314Y-31178832D01*
X48734695Y-31226451D01*
X48639457Y-31274070D01*
X48258504Y-31274070D01*
X49163266Y-30750260D02*
X49782314Y-30750260D01*
X49448980Y-31131213D01*
X49591838Y-31131213D01*
X49687076Y-31178832D01*
X49734695Y-31226451D01*
X49782314Y-31321689D01*
X49782314Y-31559784D01*
X49734695Y-31655022D01*
X49687076Y-31702641D01*
X49591838Y-31750260D01*
X49306123Y-31750260D01*
X49210885Y-31702641D01*
X49163266Y-31655022D01*
X42535813Y-31897580D02*
X42202480Y-31421390D01*
X41964384Y-31897580D02*
X41964384Y-30897580D01*
X42345337Y-30897580D01*
X42440575Y-30945200D01*
X42488194Y-30992819D01*
X42535813Y-31088057D01*
X42535813Y-31230914D01*
X42488194Y-31326152D01*
X42440575Y-31373771D01*
X42345337Y-31421390D01*
X41964384Y-31421390D01*
X42916765Y-30992819D02*
X42964384Y-30945200D01*
X43059622Y-30897580D01*
X43297718Y-30897580D01*
X43392956Y-30945200D01*
X43440575Y-30992819D01*
X43488194Y-31088057D01*
X43488194Y-31183295D01*
X43440575Y-31326152D01*
X42869146Y-31897580D01*
X43488194Y-31897580D01*
X35779413Y-31778200D02*
X35446080Y-31302010D01*
X35207984Y-31778200D02*
X35207984Y-30778200D01*
X35588937Y-30778200D01*
X35684175Y-30825820D01*
X35731794Y-30873439D01*
X35779413Y-30968677D01*
X35779413Y-31111534D01*
X35731794Y-31206772D01*
X35684175Y-31254391D01*
X35588937Y-31302010D01*
X35207984Y-31302010D01*
X36731794Y-31778200D02*
X36160365Y-31778200D01*
X36446080Y-31778200D02*
X36446080Y-30778200D01*
X36350841Y-30921058D01*
X36255603Y-31016296D01*
X36160365Y-31063915D01*
X8299699Y-14396648D02*
X8252080Y-14491886D01*
X8156841Y-14587124D01*
X8013984Y-14729981D01*
X7966365Y-14825220D01*
X7966365Y-14920458D01*
X8204460Y-14872839D02*
X8156841Y-14968077D01*
X8061603Y-15063315D01*
X7871127Y-15110934D01*
X7537794Y-15110934D01*
X7347318Y-15063315D01*
X7252080Y-14968077D01*
X7204460Y-14872839D01*
X7204460Y-14682362D01*
X7252080Y-14587124D01*
X7347318Y-14491886D01*
X7537794Y-14444267D01*
X7871127Y-14444267D01*
X8061603Y-14491886D01*
X8156841Y-14587124D01*
X8204460Y-14682362D01*
X8204460Y-14872839D01*
X8204460Y-13491886D02*
X8204460Y-14063315D01*
X8204460Y-13777600D02*
X7204460Y-13777600D01*
X7347318Y-13872839D01*
X7442556Y-13968077D01*
X7490175Y-14063315D01*
X7204460Y-12872839D02*
X7204460Y-12777600D01*
X7252080Y-12682362D01*
X7299699Y-12634743D01*
X7394937Y-12587124D01*
X7585413Y-12539505D01*
X7823508Y-12539505D01*
X8013984Y-12587124D01*
X8109222Y-12634743D01*
X8156841Y-12682362D01*
X8204460Y-12777600D01*
X8204460Y-12872839D01*
X8156841Y-12968077D01*
X8109222Y-13015696D01*
X8013984Y-13063315D01*
X7823508Y-13110934D01*
X7585413Y-13110934D01*
X7394937Y-13063315D01*
X7299699Y-13015696D01*
X7252080Y-12968077D01*
X7204460Y-12872839D01*
X8290299Y-18103878D02*
X8242680Y-18199116D01*
X8147441Y-18294354D01*
X8004584Y-18437211D01*
X7956965Y-18532449D01*
X7956965Y-18627687D01*
X8195060Y-18580068D02*
X8147441Y-18675306D01*
X8052203Y-18770544D01*
X7861727Y-18818163D01*
X7528394Y-18818163D01*
X7337918Y-18770544D01*
X7242680Y-18675306D01*
X7195060Y-18580068D01*
X7195060Y-18389592D01*
X7242680Y-18294354D01*
X7337918Y-18199116D01*
X7528394Y-18151497D01*
X7861727Y-18151497D01*
X8052203Y-18199116D01*
X8147441Y-18294354D01*
X8195060Y-18389592D01*
X8195060Y-18580068D01*
X8195060Y-17675306D02*
X8195060Y-17484830D01*
X8147441Y-17389592D01*
X8099822Y-17341973D01*
X7956965Y-17246735D01*
X7766489Y-17199116D01*
X7385537Y-17199116D01*
X7290299Y-17246735D01*
X7242680Y-17294354D01*
X7195060Y-17389592D01*
X7195060Y-17580068D01*
X7242680Y-17675306D01*
X7290299Y-17722925D01*
X7385537Y-17770544D01*
X7623632Y-17770544D01*
X7718870Y-17722925D01*
X7766489Y-17675306D01*
X7814108Y-17580068D01*
X7814108Y-17389592D01*
X7766489Y-17294354D01*
X7718870Y-17246735D01*
X7623632Y-17199116D01*
X7824719Y-24740858D02*
X7777100Y-24836096D01*
X7681861Y-24931334D01*
X7539004Y-25074191D01*
X7491385Y-25169429D01*
X7491385Y-25264667D01*
X7729480Y-25217048D02*
X7681861Y-25312286D01*
X7586623Y-25407524D01*
X7396147Y-25455143D01*
X7062814Y-25455143D01*
X6872338Y-25407524D01*
X6777100Y-25312286D01*
X6729480Y-25217048D01*
X6729480Y-25026572D01*
X6777100Y-24931334D01*
X6872338Y-24836096D01*
X7062814Y-24788477D01*
X7396147Y-24788477D01*
X7586623Y-24836096D01*
X7681861Y-24931334D01*
X7729480Y-25026572D01*
X7729480Y-25217048D01*
X7158052Y-24217048D02*
X7110433Y-24312286D01*
X7062814Y-24359905D01*
X6967576Y-24407524D01*
X6919957Y-24407524D01*
X6824719Y-24359905D01*
X6777100Y-24312286D01*
X6729480Y-24217048D01*
X6729480Y-24026572D01*
X6777100Y-23931334D01*
X6824719Y-23883715D01*
X6919957Y-23836096D01*
X6967576Y-23836096D01*
X7062814Y-23883715D01*
X7110433Y-23931334D01*
X7158052Y-24026572D01*
X7158052Y-24217048D01*
X7205671Y-24312286D01*
X7253290Y-24359905D01*
X7348528Y-24407524D01*
X7539004Y-24407524D01*
X7634242Y-24359905D01*
X7681861Y-24312286D01*
X7729480Y-24217048D01*
X7729480Y-24026572D01*
X7681861Y-23931334D01*
X7634242Y-23883715D01*
X7539004Y-23836096D01*
X7348528Y-23836096D01*
X7253290Y-23883715D01*
X7205671Y-23931334D01*
X7158052Y-24026572D01*
X50405041Y-36747699D02*
X50309803Y-36700080D01*
X50214565Y-36604841D01*
X50071708Y-36461984D01*
X49976470Y-36414365D01*
X49881232Y-36414365D01*
X49928851Y-36652460D02*
X49833613Y-36604841D01*
X49738375Y-36509603D01*
X49690756Y-36319127D01*
X49690756Y-35985794D01*
X49738375Y-35795318D01*
X49833613Y-35700080D01*
X49928851Y-35652460D01*
X50119327Y-35652460D01*
X50214565Y-35700080D01*
X50309803Y-35795318D01*
X50357422Y-35985794D01*
X50357422Y-36319127D01*
X50309803Y-36509603D01*
X50214565Y-36604841D01*
X50119327Y-36652460D01*
X49928851Y-36652460D01*
X51214565Y-35985794D02*
X51214565Y-36652460D01*
X50976470Y-35604841D02*
X50738375Y-36319127D01*
X51357422Y-36319127D01*
X44085521Y-36681659D02*
X43990283Y-36634040D01*
X43895045Y-36538801D01*
X43752188Y-36395944D01*
X43656950Y-36348325D01*
X43561712Y-36348325D01*
X43609331Y-36586420D02*
X43514093Y-36538801D01*
X43418855Y-36443563D01*
X43371236Y-36253087D01*
X43371236Y-35919754D01*
X43418855Y-35729278D01*
X43514093Y-35634040D01*
X43609331Y-35586420D01*
X43799807Y-35586420D01*
X43895045Y-35634040D01*
X43990283Y-35729278D01*
X44037902Y-35919754D01*
X44037902Y-36253087D01*
X43990283Y-36443563D01*
X43895045Y-36538801D01*
X43799807Y-36586420D01*
X43609331Y-36586420D01*
X44371236Y-35586420D02*
X44990283Y-35586420D01*
X44656950Y-35967373D01*
X44799807Y-35967373D01*
X44895045Y-36014992D01*
X44942664Y-36062611D01*
X44990283Y-36157849D01*
X44990283Y-36395944D01*
X44942664Y-36491182D01*
X44895045Y-36538801D01*
X44799807Y-36586420D01*
X44514093Y-36586420D01*
X44418855Y-36538801D01*
X44371236Y-36491182D01*
X39020761Y-36829619D02*
X38925523Y-36782000D01*
X38830285Y-36686761D01*
X38687428Y-36543904D01*
X38592190Y-36496285D01*
X38496952Y-36496285D01*
X38544571Y-36734380D02*
X38449333Y-36686761D01*
X38354095Y-36591523D01*
X38306476Y-36401047D01*
X38306476Y-36067714D01*
X38354095Y-35877238D01*
X38449333Y-35782000D01*
X38544571Y-35734380D01*
X38735047Y-35734380D01*
X38830285Y-35782000D01*
X38925523Y-35877238D01*
X38973142Y-36067714D01*
X38973142Y-36401047D01*
X38925523Y-36591523D01*
X38830285Y-36686761D01*
X38735047Y-36734380D01*
X38544571Y-36734380D01*
X39354095Y-35829619D02*
X39401714Y-35782000D01*
X39496952Y-35734380D01*
X39735047Y-35734380D01*
X39830285Y-35782000D01*
X39877904Y-35829619D01*
X39925523Y-35924857D01*
X39925523Y-36020095D01*
X39877904Y-36162952D01*
X39306476Y-36734380D01*
X39925523Y-36734380D01*
X32416761Y-36829619D02*
X32321523Y-36782000D01*
X32226285Y-36686761D01*
X32083428Y-36543904D01*
X31988190Y-36496285D01*
X31892952Y-36496285D01*
X31940571Y-36734380D02*
X31845333Y-36686761D01*
X31750095Y-36591523D01*
X31702476Y-36401047D01*
X31702476Y-36067714D01*
X31750095Y-35877238D01*
X31845333Y-35782000D01*
X31940571Y-35734380D01*
X32131047Y-35734380D01*
X32226285Y-35782000D01*
X32321523Y-35877238D01*
X32369142Y-36067714D01*
X32369142Y-36401047D01*
X32321523Y-36591523D01*
X32226285Y-36686761D01*
X32131047Y-36734380D01*
X31940571Y-36734380D01*
X33321523Y-36734380D02*
X32750095Y-36734380D01*
X33035809Y-36734380D02*
X33035809Y-35734380D01*
X32940571Y-35877238D01*
X32845333Y-35972476D01*
X32750095Y-36020095D01*
X60249060Y-24728395D02*
X59249060Y-24728395D01*
X59249060Y-24490300D01*
X59296680Y-24347442D01*
X59391918Y-24252204D01*
X59487156Y-24204585D01*
X59677632Y-24156966D01*
X59820489Y-24156966D01*
X60010965Y-24204585D01*
X60106203Y-24252204D01*
X60201441Y-24347442D01*
X60249060Y-24490300D01*
X60249060Y-24728395D01*
X59249060Y-23823633D02*
X59249060Y-23156966D01*
X60249060Y-23585538D01*
X30572484Y-23528280D02*
X30572484Y-22528280D01*
X30810580Y-22528280D01*
X30953437Y-22575900D01*
X31048675Y-22671138D01*
X31096294Y-22766376D01*
X31143913Y-22956852D01*
X31143913Y-23099709D01*
X31096294Y-23290185D01*
X31048675Y-23385423D01*
X30953437Y-23480661D01*
X30810580Y-23528280D01*
X30572484Y-23528280D01*
X32001056Y-22528280D02*
X31810580Y-22528280D01*
X31715341Y-22575900D01*
X31667722Y-22623519D01*
X31572484Y-22766376D01*
X31524865Y-22956852D01*
X31524865Y-23337804D01*
X31572484Y-23433042D01*
X31620103Y-23480661D01*
X31715341Y-23528280D01*
X31905818Y-23528280D01*
X32001056Y-23480661D01*
X32048675Y-23433042D01*
X32096294Y-23337804D01*
X32096294Y-23099709D01*
X32048675Y-23004471D01*
X32001056Y-22956852D01*
X31905818Y-22909233D01*
X31715341Y-22909233D01*
X31620103Y-22956852D01*
X31572484Y-23004471D01*
X31524865Y-23099709D01*
X41540204Y-26467060D02*
X41540204Y-25467060D01*
X41778300Y-25467060D01*
X41921157Y-25514680D01*
X42016395Y-25609918D01*
X42064014Y-25705156D01*
X42111633Y-25895632D01*
X42111633Y-26038489D01*
X42064014Y-26228965D01*
X42016395Y-26324203D01*
X41921157Y-26419441D01*
X41778300Y-26467060D01*
X41540204Y-26467060D01*
X43016395Y-25467060D02*
X42540204Y-25467060D01*
X42492585Y-25943251D01*
X42540204Y-25895632D01*
X42635442Y-25848013D01*
X42873538Y-25848013D01*
X42968776Y-25895632D01*
X43016395Y-25943251D01*
X43064014Y-26038489D01*
X43064014Y-26276584D01*
X43016395Y-26371822D01*
X42968776Y-26419441D01*
X42873538Y-26467060D01*
X42635442Y-26467060D01*
X42540204Y-26419441D01*
X42492585Y-26371822D01*
X44031944Y-26497540D02*
X44031944Y-25497540D01*
X44270040Y-25497540D01*
X44412897Y-25545160D01*
X44508135Y-25640398D01*
X44555754Y-25735636D01*
X44603373Y-25926112D01*
X44603373Y-26068969D01*
X44555754Y-26259445D01*
X44508135Y-26354683D01*
X44412897Y-26449921D01*
X44270040Y-26497540D01*
X44031944Y-26497540D01*
X45460516Y-25830874D02*
X45460516Y-26497540D01*
X45222420Y-25449921D02*
X44984325Y-26164207D01*
X45603373Y-26164207D01*
X49142424Y-26446740D02*
X49142424Y-25446740D01*
X49380520Y-25446740D01*
X49523377Y-25494360D01*
X49618615Y-25589598D01*
X49666234Y-25684836D01*
X49713853Y-25875312D01*
X49713853Y-26018169D01*
X49666234Y-26208645D01*
X49618615Y-26303883D01*
X49523377Y-26399121D01*
X49380520Y-26446740D01*
X49142424Y-26446740D01*
X50047186Y-25446740D02*
X50666234Y-25446740D01*
X50332900Y-25827693D01*
X50475758Y-25827693D01*
X50570996Y-25875312D01*
X50618615Y-25922931D01*
X50666234Y-26018169D01*
X50666234Y-26256264D01*
X50618615Y-26351502D01*
X50570996Y-26399121D01*
X50475758Y-26446740D01*
X50190043Y-26446740D01*
X50094805Y-26399121D01*
X50047186Y-26351502D01*
X5613660Y-32785275D02*
X4613660Y-32785275D01*
X4613660Y-32547180D01*
X4661280Y-32404322D01*
X4756518Y-32309084D01*
X4851756Y-32261465D01*
X5042232Y-32213846D01*
X5185089Y-32213846D01*
X5375565Y-32261465D01*
X5470803Y-32309084D01*
X5566041Y-32404322D01*
X5613660Y-32547180D01*
X5613660Y-32785275D01*
X4708899Y-31832894D02*
X4661280Y-31785275D01*
X4613660Y-31690037D01*
X4613660Y-31451941D01*
X4661280Y-31356703D01*
X4708899Y-31309084D01*
X4804137Y-31261465D01*
X4899375Y-31261465D01*
X5042232Y-31309084D01*
X5613660Y-31880513D01*
X5613660Y-31261465D01*
X4846580Y-35852384D02*
X3846580Y-35852384D01*
X4846580Y-35280956D02*
X4275152Y-35709527D01*
X3846580Y-35280956D02*
X4418009Y-35852384D01*
X22883904Y-51576380D02*
X22883904Y-50576380D01*
X23122000Y-50576380D01*
X23264857Y-50624000D01*
X23360095Y-50719238D01*
X23407714Y-50814476D01*
X23455333Y-51004952D01*
X23455333Y-51147809D01*
X23407714Y-51338285D01*
X23360095Y-51433523D01*
X23264857Y-51528761D01*
X23122000Y-51576380D01*
X22883904Y-51576380D01*
X24407714Y-51576380D02*
X23836285Y-51576380D01*
X24122000Y-51576380D02*
X24122000Y-50576380D01*
X24026761Y-50719238D01*
X23931523Y-50814476D01*
X23836285Y-50862095D01*
X15724855Y-54595020D02*
X15724855Y-53595020D01*
X16296283Y-54595020D02*
X15867712Y-54023592D01*
X16296283Y-53595020D02*
X15724855Y-54166449D01*
X54334682Y-21550926D02*
X54382301Y-21598545D01*
X54429920Y-21741402D01*
X54429920Y-21836640D01*
X54382301Y-21979498D01*
X54287063Y-22074736D01*
X54191825Y-22122355D01*
X54001349Y-22169974D01*
X53858492Y-22169974D01*
X53668016Y-22122355D01*
X53572778Y-22074736D01*
X53477540Y-21979498D01*
X53429920Y-21836640D01*
X53429920Y-21741402D01*
X53477540Y-21598545D01*
X53525159Y-21550926D01*
X53429920Y-20646164D02*
X53429920Y-21122355D01*
X53906111Y-21169974D01*
X53858492Y-21122355D01*
X53810873Y-21027117D01*
X53810873Y-20789021D01*
X53858492Y-20693783D01*
X53906111Y-20646164D01*
X54001349Y-20598545D01*
X54239444Y-20598545D01*
X54334682Y-20646164D01*
X54382301Y-20693783D01*
X54429920Y-20789021D01*
X54429920Y-21027117D01*
X54382301Y-21122355D01*
X54334682Y-21169974D01*
X31773833Y-21850622D02*
X31726214Y-21898241D01*
X31583357Y-21945860D01*
X31488119Y-21945860D01*
X31345261Y-21898241D01*
X31250023Y-21803003D01*
X31202404Y-21707765D01*
X31154785Y-21517289D01*
X31154785Y-21374432D01*
X31202404Y-21183956D01*
X31250023Y-21088718D01*
X31345261Y-20993480D01*
X31488119Y-20945860D01*
X31583357Y-20945860D01*
X31726214Y-20993480D01*
X31773833Y-21041099D01*
X32630976Y-21279194D02*
X32630976Y-21945860D01*
X32392880Y-20898241D02*
X32154785Y-21612527D01*
X32773833Y-21612527D01*
X38505402Y-21246126D02*
X38553021Y-21293745D01*
X38600640Y-21436602D01*
X38600640Y-21531840D01*
X38553021Y-21674698D01*
X38457783Y-21769936D01*
X38362545Y-21817555D01*
X38172069Y-21865174D01*
X38029212Y-21865174D01*
X37838736Y-21817555D01*
X37743498Y-21769936D01*
X37648260Y-21674698D01*
X37600640Y-21531840D01*
X37600640Y-21436602D01*
X37648260Y-21293745D01*
X37695879Y-21246126D01*
X37600640Y-20912793D02*
X37600640Y-20293745D01*
X37981593Y-20627079D01*
X37981593Y-20484221D01*
X38029212Y-20388983D01*
X38076831Y-20341364D01*
X38172069Y-20293745D01*
X38410164Y-20293745D01*
X38505402Y-20341364D01*
X38553021Y-20388983D01*
X38600640Y-20484221D01*
X38600640Y-20769936D01*
X38553021Y-20865174D01*
X38505402Y-20912793D01*
X43595562Y-20816866D02*
X43643181Y-20864485D01*
X43690800Y-21007342D01*
X43690800Y-21102580D01*
X43643181Y-21245438D01*
X43547943Y-21340676D01*
X43452705Y-21388295D01*
X43262229Y-21435914D01*
X43119372Y-21435914D01*
X42928896Y-21388295D01*
X42833658Y-21340676D01*
X42738420Y-21245438D01*
X42690800Y-21102580D01*
X42690800Y-21007342D01*
X42738420Y-20864485D01*
X42786039Y-20816866D01*
X42786039Y-20435914D02*
X42738420Y-20388295D01*
X42690800Y-20293057D01*
X42690800Y-20054961D01*
X42738420Y-19959723D01*
X42786039Y-19912104D01*
X42881277Y-19864485D01*
X42976515Y-19864485D01*
X43119372Y-19912104D01*
X43690800Y-20483533D01*
X43690800Y-19864485D01*
X49043862Y-21601726D02*
X49091481Y-21649345D01*
X49139100Y-21792202D01*
X49139100Y-21887440D01*
X49091481Y-22030298D01*
X48996243Y-22125536D01*
X48901005Y-22173155D01*
X48710529Y-22220774D01*
X48567672Y-22220774D01*
X48377196Y-22173155D01*
X48281958Y-22125536D01*
X48186720Y-22030298D01*
X48139100Y-21887440D01*
X48139100Y-21792202D01*
X48186720Y-21649345D01*
X48234339Y-21601726D01*
X49139100Y-20649345D02*
X49139100Y-21220774D01*
X49139100Y-20935060D02*
X48139100Y-20935060D01*
X48281958Y-21030298D01*
X48377196Y-21125536D01*
X48424815Y-21220774D01*
X38480762Y-40444680D02*
X38147429Y-39968490D01*
X37909334Y-40444680D02*
X37909334Y-39444680D01*
X38290286Y-39444680D01*
X38385524Y-39492300D01*
X38433143Y-39539919D01*
X38480762Y-39635157D01*
X38480762Y-39778014D01*
X38433143Y-39873252D01*
X38385524Y-39920871D01*
X38290286Y-39968490D01*
X37909334Y-39968490D01*
X38861715Y-39539919D02*
X38909334Y-39492300D01*
X39004572Y-39444680D01*
X39242667Y-39444680D01*
X39337905Y-39492300D01*
X39385524Y-39539919D01*
X39433143Y-39635157D01*
X39433143Y-39730395D01*
X39385524Y-39873252D01*
X38814096Y-40444680D01*
X39433143Y-40444680D01*
X39909334Y-40444680D02*
X40099810Y-40444680D01*
X40195048Y-40397061D01*
X40242667Y-40349442D01*
X40337905Y-40206585D01*
X40385524Y-40016109D01*
X40385524Y-39635157D01*
X40337905Y-39539919D01*
X40290286Y-39492300D01*
X40195048Y-39444680D01*
X40004572Y-39444680D01*
X39909334Y-39492300D01*
X39861715Y-39539919D01*
X39814096Y-39635157D01*
X39814096Y-39873252D01*
X39861715Y-39968490D01*
X39909334Y-40016109D01*
X40004572Y-40063728D01*
X40195048Y-40063728D01*
X40290286Y-40016109D01*
X40337905Y-39968490D01*
X40385524Y-39873252D01*
X43802062Y-40645340D02*
X43468729Y-40169150D01*
X43230634Y-40645340D02*
X43230634Y-39645340D01*
X43611586Y-39645340D01*
X43706824Y-39692960D01*
X43754443Y-39740579D01*
X43802062Y-39835817D01*
X43802062Y-39978674D01*
X43754443Y-40073912D01*
X43706824Y-40121531D01*
X43611586Y-40169150D01*
X43230634Y-40169150D01*
X44135396Y-39645340D02*
X44754443Y-39645340D01*
X44421110Y-40026293D01*
X44563967Y-40026293D01*
X44659205Y-40073912D01*
X44706824Y-40121531D01*
X44754443Y-40216769D01*
X44754443Y-40454864D01*
X44706824Y-40550102D01*
X44659205Y-40597721D01*
X44563967Y-40645340D01*
X44278253Y-40645340D01*
X44183015Y-40597721D01*
X44135396Y-40550102D01*
X45373491Y-39645340D02*
X45468729Y-39645340D01*
X45563967Y-39692960D01*
X45611586Y-39740579D01*
X45659205Y-39835817D01*
X45706824Y-40026293D01*
X45706824Y-40264388D01*
X45659205Y-40454864D01*
X45611586Y-40550102D01*
X45563967Y-40597721D01*
X45468729Y-40645340D01*
X45373491Y-40645340D01*
X45278253Y-40597721D01*
X45230634Y-40550102D01*
X45183015Y-40454864D01*
X45135396Y-40264388D01*
X45135396Y-40026293D01*
X45183015Y-39835817D01*
X45230634Y-39740579D01*
X45278253Y-39692960D01*
X45373491Y-39645340D01*
X46596062Y-40579300D02*
X46262729Y-40103110D01*
X46024634Y-40579300D02*
X46024634Y-39579300D01*
X46405586Y-39579300D01*
X46500824Y-39626920D01*
X46548443Y-39674539D01*
X46596062Y-39769777D01*
X46596062Y-39912634D01*
X46548443Y-40007872D01*
X46500824Y-40055491D01*
X46405586Y-40103110D01*
X46024634Y-40103110D01*
X46929396Y-39579300D02*
X47548443Y-39579300D01*
X47215110Y-39960253D01*
X47357967Y-39960253D01*
X47453205Y-40007872D01*
X47500824Y-40055491D01*
X47548443Y-40150729D01*
X47548443Y-40388824D01*
X47500824Y-40484062D01*
X47453205Y-40531681D01*
X47357967Y-40579300D01*
X47072253Y-40579300D01*
X46977015Y-40531681D01*
X46929396Y-40484062D01*
X48500824Y-40579300D02*
X47929396Y-40579300D01*
X48215110Y-40579300D02*
X48215110Y-39579300D01*
X48119872Y-39722158D01*
X48024634Y-39817396D01*
X47929396Y-39865015D01*
X49656762Y-40579300D02*
X49323429Y-40103110D01*
X49085334Y-40579300D02*
X49085334Y-39579300D01*
X49466286Y-39579300D01*
X49561524Y-39626920D01*
X49609143Y-39674539D01*
X49656762Y-39769777D01*
X49656762Y-39912634D01*
X49609143Y-40007872D01*
X49561524Y-40055491D01*
X49466286Y-40103110D01*
X49085334Y-40103110D01*
X49990096Y-39579300D02*
X50609143Y-39579300D01*
X50275810Y-39960253D01*
X50418667Y-39960253D01*
X50513905Y-40007872D01*
X50561524Y-40055491D01*
X50609143Y-40150729D01*
X50609143Y-40388824D01*
X50561524Y-40484062D01*
X50513905Y-40531681D01*
X50418667Y-40579300D01*
X50132953Y-40579300D01*
X50037715Y-40531681D01*
X49990096Y-40484062D01*
X50990096Y-39674539D02*
X51037715Y-39626920D01*
X51132953Y-39579300D01*
X51371048Y-39579300D01*
X51466286Y-39626920D01*
X51513905Y-39674539D01*
X51561524Y-39769777D01*
X51561524Y-39865015D01*
X51513905Y-40007872D01*
X50942477Y-40579300D01*
X51561524Y-40579300D01*
X56116480Y-37437297D02*
X55640290Y-37770630D01*
X56116480Y-38008725D02*
X55116480Y-38008725D01*
X55116480Y-37627773D01*
X55164100Y-37532535D01*
X55211719Y-37484916D01*
X55306957Y-37437297D01*
X55449814Y-37437297D01*
X55545052Y-37484916D01*
X55592671Y-37532535D01*
X55640290Y-37627773D01*
X55640290Y-38008725D01*
X55116480Y-37103963D02*
X55116480Y-36484916D01*
X55497433Y-36818249D01*
X55497433Y-36675392D01*
X55545052Y-36580154D01*
X55592671Y-36532535D01*
X55687909Y-36484916D01*
X55926004Y-36484916D01*
X56021242Y-36532535D01*
X56068861Y-36580154D01*
X56116480Y-36675392D01*
X56116480Y-36961106D01*
X56068861Y-37056344D01*
X56021242Y-37103963D01*
X55116480Y-36151582D02*
X55116480Y-35532535D01*
X55497433Y-35865868D01*
X55497433Y-35723011D01*
X55545052Y-35627773D01*
X55592671Y-35580154D01*
X55687909Y-35532535D01*
X55926004Y-35532535D01*
X56021242Y-35580154D01*
X56068861Y-35627773D01*
X56116480Y-35723011D01*
X56116480Y-36008725D01*
X56068861Y-36103963D01*
X56021242Y-36151582D01*
X61008520Y-40111917D02*
X60532330Y-40445250D01*
X61008520Y-40683345D02*
X60008520Y-40683345D01*
X60008520Y-40302393D01*
X60056140Y-40207155D01*
X60103759Y-40159536D01*
X60198997Y-40111917D01*
X60341854Y-40111917D01*
X60437092Y-40159536D01*
X60484711Y-40207155D01*
X60532330Y-40302393D01*
X60532330Y-40683345D01*
X60008520Y-39778583D02*
X60008520Y-39159536D01*
X60389473Y-39492869D01*
X60389473Y-39350012D01*
X60437092Y-39254774D01*
X60484711Y-39207155D01*
X60579949Y-39159536D01*
X60818044Y-39159536D01*
X60913282Y-39207155D01*
X60960901Y-39254774D01*
X61008520Y-39350012D01*
X61008520Y-39635726D01*
X60960901Y-39730964D01*
X60913282Y-39778583D01*
X60341854Y-38302393D02*
X61008520Y-38302393D01*
X59960901Y-38540488D02*
X60675187Y-38778583D01*
X60675187Y-38159536D01*
X40060882Y-46084480D02*
X39727549Y-45608290D01*
X39489454Y-46084480D02*
X39489454Y-45084480D01*
X39870406Y-45084480D01*
X39965644Y-45132100D01*
X40013263Y-45179719D01*
X40060882Y-45274957D01*
X40060882Y-45417814D01*
X40013263Y-45513052D01*
X39965644Y-45560671D01*
X39870406Y-45608290D01*
X39489454Y-45608290D01*
X40394216Y-45084480D02*
X41013263Y-45084480D01*
X40679930Y-45465433D01*
X40822787Y-45465433D01*
X40918025Y-45513052D01*
X40965644Y-45560671D01*
X41013263Y-45655909D01*
X41013263Y-45894004D01*
X40965644Y-45989242D01*
X40918025Y-46036861D01*
X40822787Y-46084480D01*
X40537073Y-46084480D01*
X40441835Y-46036861D01*
X40394216Y-45989242D01*
X41918025Y-45084480D02*
X41441835Y-45084480D01*
X41394216Y-45560671D01*
X41441835Y-45513052D01*
X41537073Y-45465433D01*
X41775168Y-45465433D01*
X41870406Y-45513052D01*
X41918025Y-45560671D01*
X41965644Y-45655909D01*
X41965644Y-45894004D01*
X41918025Y-45989242D01*
X41870406Y-46036861D01*
X41775168Y-46084480D01*
X41537073Y-46084480D01*
X41441835Y-46036861D01*
X41394216Y-45989242D01*
X41544002Y-52113440D02*
X41210669Y-51637250D01*
X40972574Y-52113440D02*
X40972574Y-51113440D01*
X41353526Y-51113440D01*
X41448764Y-51161060D01*
X41496383Y-51208679D01*
X41544002Y-51303917D01*
X41544002Y-51446774D01*
X41496383Y-51542012D01*
X41448764Y-51589631D01*
X41353526Y-51637250D01*
X40972574Y-51637250D01*
X41877336Y-51113440D02*
X42496383Y-51113440D01*
X42163050Y-51494393D01*
X42305907Y-51494393D01*
X42401145Y-51542012D01*
X42448764Y-51589631D01*
X42496383Y-51684869D01*
X42496383Y-51922964D01*
X42448764Y-52018202D01*
X42401145Y-52065821D01*
X42305907Y-52113440D01*
X42020193Y-52113440D01*
X41924955Y-52065821D01*
X41877336Y-52018202D01*
X43353526Y-51113440D02*
X43163050Y-51113440D01*
X43067812Y-51161060D01*
X43020193Y-51208679D01*
X42924955Y-51351536D01*
X42877336Y-51542012D01*
X42877336Y-51922964D01*
X42924955Y-52018202D01*
X42972574Y-52065821D01*
X43067812Y-52113440D01*
X43258288Y-52113440D01*
X43353526Y-52065821D01*
X43401145Y-52018202D01*
X43448764Y-51922964D01*
X43448764Y-51684869D01*
X43401145Y-51589631D01*
X43353526Y-51542012D01*
X43258288Y-51494393D01*
X43067812Y-51494393D01*
X42972574Y-51542012D01*
X42924955Y-51589631D01*
X42877336Y-51684869D01*
X54261782Y-50676800D02*
X53928449Y-50200610D01*
X53690354Y-50676800D02*
X53690354Y-49676800D01*
X54071306Y-49676800D01*
X54166544Y-49724420D01*
X54214163Y-49772039D01*
X54261782Y-49867277D01*
X54261782Y-50010134D01*
X54214163Y-50105372D01*
X54166544Y-50152991D01*
X54071306Y-50200610D01*
X53690354Y-50200610D01*
X54595116Y-49676800D02*
X55214163Y-49676800D01*
X54880830Y-50057753D01*
X55023687Y-50057753D01*
X55118925Y-50105372D01*
X55166544Y-50152991D01*
X55214163Y-50248229D01*
X55214163Y-50486324D01*
X55166544Y-50581562D01*
X55118925Y-50629181D01*
X55023687Y-50676800D01*
X54737973Y-50676800D01*
X54642735Y-50629181D01*
X54595116Y-50581562D01*
X55690354Y-50676800D02*
X55880830Y-50676800D01*
X55976068Y-50629181D01*
X56023687Y-50581562D01*
X56118925Y-50438705D01*
X56166544Y-50248229D01*
X56166544Y-49867277D01*
X56118925Y-49772039D01*
X56071306Y-49724420D01*
X55976068Y-49676800D01*
X55785592Y-49676800D01*
X55690354Y-49724420D01*
X55642735Y-49772039D01*
X55595116Y-49867277D01*
X55595116Y-50105372D01*
X55642735Y-50200610D01*
X55690354Y-50248229D01*
X55785592Y-50295848D01*
X55976068Y-50295848D01*
X56071306Y-50248229D01*
X56118925Y-50200610D01*
X56166544Y-50105372D01*
X56224160Y-44810917D02*
X55747970Y-45144250D01*
X56224160Y-45382345D02*
X55224160Y-45382345D01*
X55224160Y-45001393D01*
X55271780Y-44906155D01*
X55319399Y-44858536D01*
X55414637Y-44810917D01*
X55557494Y-44810917D01*
X55652732Y-44858536D01*
X55700351Y-44906155D01*
X55747970Y-45001393D01*
X55747970Y-45382345D01*
X55557494Y-43953774D02*
X56224160Y-43953774D01*
X55176541Y-44191869D02*
X55890827Y-44429964D01*
X55890827Y-43810917D01*
X55224160Y-43239488D02*
X55224160Y-43144250D01*
X55271780Y-43049012D01*
X55319399Y-43001393D01*
X55414637Y-42953774D01*
X55605113Y-42906155D01*
X55843208Y-42906155D01*
X56033684Y-42953774D01*
X56128922Y-43001393D01*
X56176541Y-43049012D01*
X56224160Y-43144250D01*
X56224160Y-43239488D01*
X56176541Y-43334726D01*
X56128922Y-43382345D01*
X56033684Y-43429964D01*
X55843208Y-43477583D01*
X55605113Y-43477583D01*
X55414637Y-43429964D01*
X55319399Y-43382345D01*
X55271780Y-43334726D01*
X55224160Y-43239488D01*
X12821682Y-22154140D02*
X12488349Y-21677950D01*
X12250254Y-22154140D02*
X12250254Y-21154140D01*
X12631206Y-21154140D01*
X12726444Y-21201760D01*
X12774063Y-21249379D01*
X12821682Y-21344617D01*
X12821682Y-21487474D01*
X12774063Y-21582712D01*
X12726444Y-21630331D01*
X12631206Y-21677950D01*
X12250254Y-21677950D01*
X13678825Y-21487474D02*
X13678825Y-22154140D01*
X13440730Y-21106521D02*
X13202635Y-21820807D01*
X13821682Y-21820807D01*
X14726444Y-22154140D02*
X14155016Y-22154140D01*
X14440730Y-22154140D02*
X14440730Y-21154140D01*
X14345492Y-21296998D01*
X14250254Y-21392236D01*
X14155016Y-21439855D01*
X12872482Y-25428200D02*
X12539149Y-24952010D01*
X12301054Y-25428200D02*
X12301054Y-24428200D01*
X12682006Y-24428200D01*
X12777244Y-24475820D01*
X12824863Y-24523439D01*
X12872482Y-24618677D01*
X12872482Y-24761534D01*
X12824863Y-24856772D01*
X12777244Y-24904391D01*
X12682006Y-24952010D01*
X12301054Y-24952010D01*
X13729625Y-24761534D02*
X13729625Y-25428200D01*
X13491530Y-24380581D02*
X13253435Y-25094867D01*
X13872482Y-25094867D01*
X14205816Y-24523439D02*
X14253435Y-24475820D01*
X14348673Y-24428200D01*
X14586768Y-24428200D01*
X14682006Y-24475820D01*
X14729625Y-24523439D01*
X14777244Y-24618677D01*
X14777244Y-24713915D01*
X14729625Y-24856772D01*
X14158197Y-25428200D01*
X14777244Y-25428200D01*
X16571220Y-17775157D02*
X16095030Y-18108490D01*
X16571220Y-18346585D02*
X15571220Y-18346585D01*
X15571220Y-17965633D01*
X15618840Y-17870395D01*
X15666459Y-17822776D01*
X15761697Y-17775157D01*
X15904554Y-17775157D01*
X15999792Y-17822776D01*
X16047411Y-17870395D01*
X16095030Y-17965633D01*
X16095030Y-18346585D01*
X15904554Y-16918014D02*
X16571220Y-16918014D01*
X15523601Y-17156109D02*
X16237887Y-17394204D01*
X16237887Y-16775157D01*
X15571220Y-16489442D02*
X15571220Y-15870395D01*
X15952173Y-16203728D01*
X15952173Y-16060871D01*
X15999792Y-15965633D01*
X16047411Y-15918014D01*
X16142649Y-15870395D01*
X16380744Y-15870395D01*
X16475982Y-15918014D01*
X16523601Y-15965633D01*
X16571220Y-16060871D01*
X16571220Y-16346585D01*
X16523601Y-16441823D01*
X16475982Y-16489442D01*
X32311600Y-15852377D02*
X31835410Y-16185710D01*
X32311600Y-16423805D02*
X31311600Y-16423805D01*
X31311600Y-16042853D01*
X31359220Y-15947615D01*
X31406839Y-15899996D01*
X31502077Y-15852377D01*
X31644934Y-15852377D01*
X31740172Y-15899996D01*
X31787791Y-15947615D01*
X31835410Y-16042853D01*
X31835410Y-16423805D01*
X31644934Y-14995234D02*
X32311600Y-14995234D01*
X31263981Y-15233329D02*
X31978267Y-15471424D01*
X31978267Y-14852377D01*
X31644934Y-14042853D02*
X32311600Y-14042853D01*
X31263981Y-14280948D02*
X31978267Y-14519043D01*
X31978267Y-13899996D01*
X28702260Y-17488137D02*
X28226070Y-17821470D01*
X28702260Y-18059565D02*
X27702260Y-18059565D01*
X27702260Y-17678613D01*
X27749880Y-17583375D01*
X27797499Y-17535756D01*
X27892737Y-17488137D01*
X28035594Y-17488137D01*
X28130832Y-17535756D01*
X28178451Y-17583375D01*
X28226070Y-17678613D01*
X28226070Y-18059565D01*
X28035594Y-16630994D02*
X28702260Y-16630994D01*
X27654641Y-16869089D02*
X28368927Y-17107184D01*
X28368927Y-16488137D01*
X27702260Y-15630994D02*
X27702260Y-16107184D01*
X28178451Y-16154803D01*
X28130832Y-16107184D01*
X28083213Y-16011946D01*
X28083213Y-15773851D01*
X28130832Y-15678613D01*
X28178451Y-15630994D01*
X28273689Y-15583375D01*
X28511784Y-15583375D01*
X28607022Y-15630994D01*
X28654641Y-15678613D01*
X28702260Y-15773851D01*
X28702260Y-16011946D01*
X28654641Y-16107184D01*
X28607022Y-16154803D01*
X17924542Y-16822680D02*
X17591209Y-16346490D01*
X17353114Y-16822680D02*
X17353114Y-15822680D01*
X17734066Y-15822680D01*
X17829304Y-15870300D01*
X17876923Y-15917919D01*
X17924542Y-16013157D01*
X17924542Y-16156014D01*
X17876923Y-16251252D01*
X17829304Y-16298871D01*
X17734066Y-16346490D01*
X17353114Y-16346490D01*
X18781685Y-16156014D02*
X18781685Y-16822680D01*
X18543590Y-15775061D02*
X18305495Y-16489347D01*
X18924542Y-16489347D01*
X19734066Y-15822680D02*
X19543590Y-15822680D01*
X19448352Y-15870300D01*
X19400733Y-15917919D01*
X19305495Y-16060776D01*
X19257876Y-16251252D01*
X19257876Y-16632204D01*
X19305495Y-16727442D01*
X19353114Y-16775061D01*
X19448352Y-16822680D01*
X19638828Y-16822680D01*
X19734066Y-16775061D01*
X19781685Y-16727442D01*
X19829304Y-16632204D01*
X19829304Y-16394109D01*
X19781685Y-16298871D01*
X19734066Y-16251252D01*
X19638828Y-16203633D01*
X19448352Y-16203633D01*
X19353114Y-16251252D01*
X19305495Y-16298871D01*
X19257876Y-16394109D01*
X11703040Y-12068017D02*
X11226850Y-12401350D01*
X11703040Y-12639445D02*
X10703040Y-12639445D01*
X10703040Y-12258493D01*
X10750660Y-12163255D01*
X10798279Y-12115636D01*
X10893517Y-12068017D01*
X11036374Y-12068017D01*
X11131612Y-12115636D01*
X11179231Y-12163255D01*
X11226850Y-12258493D01*
X11226850Y-12639445D01*
X11036374Y-11210874D02*
X11703040Y-11210874D01*
X10655421Y-11448969D02*
X11369707Y-11687064D01*
X11369707Y-11068017D01*
X10703040Y-10782302D02*
X10703040Y-10115636D01*
X11703040Y-10544207D01*
X9213767Y-51604871D02*
X9356624Y-51652490D01*
X9404243Y-51700109D01*
X9451862Y-51795347D01*
X9451862Y-51938204D01*
X9404243Y-52033442D01*
X9356624Y-52081061D01*
X9261386Y-52128680D01*
X8880434Y-52128680D01*
X8880434Y-51128680D01*
X9213767Y-51128680D01*
X9309005Y-51176300D01*
X9356624Y-51223919D01*
X9404243Y-51319157D01*
X9404243Y-51414395D01*
X9356624Y-51509633D01*
X9309005Y-51557252D01*
X9213767Y-51604871D01*
X8880434Y-51604871D01*
X9880434Y-51128680D02*
X9880434Y-51938204D01*
X9928053Y-52033442D01*
X9975672Y-52081061D01*
X10070910Y-52128680D01*
X10261386Y-52128680D01*
X10356624Y-52081061D01*
X10404243Y-52033442D01*
X10451862Y-51938204D01*
X10451862Y-51128680D01*
X10832815Y-51128680D02*
X11499481Y-51128680D01*
X10832815Y-52128680D01*
X11499481Y-52128680D01*
X11785196Y-51128680D02*
X12451862Y-51128680D01*
X11785196Y-52128680D01*
X12451862Y-52128680D01*
X13356624Y-52128680D02*
X12785196Y-52128680D01*
X13070910Y-52128680D02*
X13070910Y-51128680D01*
X12975672Y-51271538D01*
X12880434Y-51366776D01*
X12785196Y-51414395D01*
M02*
